<svg width="276" height="598" viewBox="0 0 276 598" fill="none" xmlns="http://www.w3.org/2000/svg">
<rect x="14.8286" y="139.898" width="5.2681" height="5.22221" fill="#A1A1A1"/>
<rect x="88.582" y="12.6992" width="5.2681" height="5.22221" fill="#A1A1A1"/>
<rect x="88.582" y="132.812" width="5.2681" height="5.22221" fill="#A1A1A1"/>
<rect x="88.582" y="252.922" width="5.2681" height="5.22221" fill="#A1A1A1"/>
<rect x="46.4375" y="12.6992" width="5.2681" height="5.22221" fill="#A1A1A1"/>
<rect x="46.4375" y="132.812" width="5.2681" height="5.22221" fill="#A1A1A1"/>
<rect x="46.4375" y="252.922" width="5.2681" height="5.22221" fill="#A1A1A1"/>
<rect x="130.727" y="12.6992" width="5.2681" height="5.22221" fill="#A1A1A1"/>
<rect x="251.893" y="132.812" width="5.2681" height="5.22221" fill="#A1A1A1"/>
<rect x="130.727" y="132.812" width="5.2681" height="5.22221" fill="#A1A1A1"/>
<rect x="130.727" y="252.922" width="5.2681" height="5.22221" fill="#A1A1A1"/>
<rect x="215.017" y="12.6992" width="5.2681" height="5.22221" fill="#A1A1A1"/>
<rect x="215.017" y="132.812" width="5.2681" height="5.22221" fill="#A1A1A1"/>
<rect x="209.749" y="252.922" width="5.2681" height="5.22221" fill="#A1A1A1"/>
<rect x="25.3647" y="12.6992" width="5.2681" height="5.22221" fill="#A1A1A1"/>
<rect x="25.3647" y="132.812" width="5.2681" height="5.22221" fill="#A1A1A1"/>
<rect x="25.3647" y="252.922" width="5.2681" height="5.22221" fill="#A1A1A1"/>
<rect x="109.655" y="12.6992" width="5.2681" height="5.22221" fill="#A1A1A1"/>
<rect x="109.655" y="132.812" width="5.2681" height="5.22221" fill="#A1A1A1"/>
<rect x="109.655" y="252.922" width="5.2681" height="5.22221" fill="#A1A1A1"/>
<rect x="193.944" y="12.6992" width="5.2681" height="5.22221" fill="#A1A1A1"/>
<rect x="193.944" y="132.812" width="5.2681" height="5.22221" fill="#A1A1A1"/>
<rect x="188.676" y="252.922" width="5.2681" height="5.22221" fill="#A1A1A1"/>
<rect x="67.5098" y="12.6992" width="5.2681" height="5.22221" fill="#A1A1A1"/>
<rect x="67.5098" y="132.812" width="5.2681" height="5.22221" fill="#A1A1A1"/>
<rect x="67.5098" y="252.922" width="5.2681" height="5.22221" fill="#A1A1A1"/>
<rect x="151.799" y="12.6992" width="5.2681" height="5.22221" fill="#A1A1A1"/>
<rect x="151.799" y="132.812" width="5.2681" height="5.22221" fill="#A1A1A1"/>
<rect x="146.531" y="252.922" width="5.2681" height="5.22221" fill="#A1A1A1"/>
<rect x="236.089" y="12.6992" width="5.2681" height="5.22221" fill="#A1A1A1"/>
<rect x="236.089" y="132.812" width="5.2681" height="5.22221" fill="#A1A1A1"/>
<rect x="230.821" y="252.922" width="5.2681" height="5.22221" fill="#A1A1A1"/>
<rect x="257.162" y="138.031" width="5.2681" height="5.22221" fill="#A1A1A1"/>
<rect x="99.1187" y="12.6992" width="5.2681" height="5.22221" fill="#A1A1A1"/>
<rect x="99.1187" y="132.812" width="5.2681" height="5.22221" fill="#A1A1A1"/>
<rect x="99.1187" y="252.922" width="5.2681" height="5.22221" fill="#A1A1A1"/>
<rect x="183.408" y="12.6992" width="5.2681" height="5.22221" fill="#A1A1A1"/>
<rect x="183.408" y="132.812" width="5.2681" height="5.22221" fill="#A1A1A1"/>
<rect x="178.14" y="252.922" width="5.2681" height="5.22221" fill="#A1A1A1"/>
<rect x="56.9736" y="12.6992" width="5.2681" height="5.22221" fill="#A1A1A1"/>
<rect x="56.9736" y="132.812" width="5.2681" height="5.22221" fill="#A1A1A1"/>
<rect x="56.9736" y="252.922" width="5.2681" height="5.22221" fill="#A1A1A1"/>
<rect x="141.263" y="12.6992" width="5.2681" height="5.22221" fill="#A1A1A1"/>
<rect x="262.43" y="132.812" width="5.2681" height="5.22221" fill="#A1A1A1"/>
<rect x="141.263" y="132.812" width="5.2681" height="5.22221" fill="#A1A1A1"/>
<rect x="225.553" y="12.6992" width="5.2681" height="5.22221" fill="#A1A1A1"/>
<rect x="225.553" y="132.812" width="5.2681" height="5.22221" fill="#A1A1A1"/>
<rect x="220.285" y="252.922" width="5.2681" height="5.22221" fill="#A1A1A1"/>
<rect x="246.625" y="12.6992" width="5.2681" height="5.22221" fill="#A1A1A1"/>
<rect x="246.625" y="132.812" width="5.2681" height="5.22221" fill="#A1A1A1"/>
<rect x="241.357" y="252.922" width="5.2681" height="5.22221" fill="#A1A1A1"/>
<rect x="35.9014" y="12.6992" width="5.2681" height="5.22221" fill="#A1A1A1"/>
<rect x="35.9014" y="132.812" width="5.2681" height="5.22221" fill="#A1A1A1"/>
<rect x="35.9014" y="252.922" width="5.2681" height="5.22221" fill="#A1A1A1"/>
<rect x="120.191" y="12.6992" width="5.2681" height="5.22221" fill="#A1A1A1"/>
<rect x="120.191" y="132.812" width="5.2681" height="5.22221" fill="#A1A1A1"/>
<rect x="120.191" y="252.922" width="5.2681" height="5.22221" fill="#A1A1A1"/>
<rect x="204.48" y="12.6992" width="5.2681" height="5.22221" fill="#A1A1A1"/>
<rect x="204.48" y="132.812" width="5.2681" height="5.22221" fill="#A1A1A1"/>
<rect x="199.212" y="252.922" width="5.2681" height="5.22221" fill="#A1A1A1"/>
<rect x="78.0459" y="12.6992" width="5.2681" height="5.22221" fill="#A1A1A1"/>
<rect x="78.0459" y="132.812" width="5.2681" height="5.22221" fill="#A1A1A1"/>
<rect x="78.0459" y="252.922" width="5.2681" height="5.22221" fill="#A1A1A1"/>
<rect x="162.335" y="12.6992" width="5.2681" height="5.22221" fill="#A1A1A1"/>
<rect x="162.335" y="132.812" width="5.2681" height="5.22221" fill="#A1A1A1"/>
<rect x="157.067" y="252.922" width="5.2681" height="5.22221" fill="#A1A1A1"/>
<rect x="93.8506" y="12.6992" width="5.2681" height="5.22221" fill="#A1A1A1"/>
<rect x="93.8506" y="132.812" width="5.2681" height="5.22221" fill="#A1A1A1"/>
<rect x="93.8506" y="252.922" width="5.2681" height="5.22221" fill="#A1A1A1"/>
<rect x="178.14" y="12.6992" width="5.2681" height="5.22221" fill="#A1A1A1"/>
<rect x="178.14" y="132.812" width="5.2681" height="5.22221" fill="#A1A1A1"/>
<rect x="172.872" y="252.922" width="5.2681" height="5.22221" fill="#A1A1A1"/>
<rect x="51.7056" y="12.6992" width="5.2681" height="5.22221" fill="#A1A1A1"/>
<rect x="51.7056" y="132.812" width="5.2681" height="5.22221" fill="#A1A1A1"/>
<rect x="51.7056" y="252.922" width="5.2681" height="5.22221" fill="#A1A1A1"/>
<rect x="220.285" y="12.6992" width="5.2681" height="5.22221" fill="#A1A1A1"/>
<rect x="220.285" y="132.812" width="5.2681" height="5.22221" fill="#A1A1A1"/>
<rect x="215.017" y="252.922" width="5.2681" height="5.22221" fill="#A1A1A1"/>
<rect x="30.6328" y="12.6992" width="5.2681" height="5.22221" fill="#A1A1A1"/>
<rect x="30.6328" y="132.812" width="5.2681" height="5.22221" fill="#A1A1A1"/>
<rect x="30.6328" y="252.922" width="5.2681" height="5.22221" fill="#A1A1A1"/>
<rect x="114.923" y="12.6992" width="5.2681" height="5.22221" fill="#A1A1A1"/>
<rect x="114.923" y="132.812" width="5.2681" height="5.22221" fill="#A1A1A1"/>
<rect x="114.923" y="252.922" width="5.2681" height="5.22221" fill="#A1A1A1"/>
<rect x="199.212" y="12.6992" width="5.2681" height="5.22221" fill="#A1A1A1"/>
<rect x="199.212" y="132.812" width="5.2681" height="5.22221" fill="#A1A1A1"/>
<rect x="193.944" y="252.922" width="5.2681" height="5.22221" fill="#A1A1A1"/>
<rect x="72.7778" y="12.6992" width="5.2681" height="5.22221" fill="#A1A1A1"/>
<rect x="72.7778" y="132.812" width="5.2681" height="5.22221" fill="#A1A1A1"/>
<rect x="72.7778" y="252.922" width="5.2681" height="5.22221" fill="#A1A1A1"/>
<rect x="157.067" y="12.6992" width="5.2681" height="5.22221" fill="#A1A1A1"/>
<rect x="157.067" y="132.812" width="5.2681" height="5.22221" fill="#A1A1A1"/>
<rect x="151.799" y="252.922" width="5.2681" height="5.22221" fill="#A1A1A1"/>
<rect x="241.357" y="12.6992" width="5.2681" height="5.22221" fill="#A1A1A1"/>
<rect x="241.357" y="132.812" width="5.2681" height="5.22221" fill="#A1A1A1"/>
<rect x="236.089" y="252.922" width="5.2681" height="5.22221" fill="#A1A1A1"/>
<rect x="262.43" y="258.141" width="5.2681" height="5.22221" fill="#A1A1A1"/>
<rect x="141.263" y="258.141" width="5.2681" height="5.22221" fill="#A1A1A1"/>
<rect x="20.0972" y="12.6992" width="5.2681" height="5.22221" fill="#A1A1A1"/>
<rect x="20.0972" y="132.812" width="5.2681" height="5.22221" fill="#A1A1A1"/>
<rect x="20.0972" y="134.676" width="5.2681" height="5.22221" fill="#A1A1A1"/>
<rect x="104.386" y="12.6992" width="5.2681" height="5.22221" fill="#A1A1A1"/>
<rect x="104.386" y="132.812" width="5.2681" height="5.22221" fill="#A1A1A1"/>
<rect x="104.386" y="252.922" width="5.2681" height="5.22221" fill="#A1A1A1"/>
<rect x="188.676" y="12.6992" width="5.2681" height="5.22221" fill="#A1A1A1"/>
<rect x="188.676" y="132.812" width="5.2681" height="5.22221" fill="#A1A1A1"/>
<rect x="183.408" y="252.922" width="5.2681" height="5.22221" fill="#A1A1A1"/>
<rect x="62.2417" y="12.6992" width="5.2681" height="5.22221" fill="#A1A1A1"/>
<rect x="62.2417" y="132.812" width="5.2681" height="5.22221" fill="#A1A1A1"/>
<rect x="62.2417" y="252.922" width="5.2681" height="5.22221" fill="#A1A1A1"/>
<rect x="146.531" y="12.6992" width="5.2681" height="5.22221" fill="#A1A1A1"/>
<rect x="146.531" y="132.812" width="5.2681" height="5.22221" fill="#A1A1A1"/>
<rect x="141.263" y="252.922" width="5.2681" height="5.22221" fill="#A1A1A1"/>
<rect x="230.821" y="12.6992" width="5.2681" height="5.22221" fill="#A1A1A1"/>
<rect x="230.821" y="132.812" width="5.2681" height="5.22221" fill="#A1A1A1"/>
<rect x="225.553" y="252.922" width="5.2681" height="5.22221" fill="#A1A1A1"/>
<rect x="251.893" y="12.6992" width="5.2681" height="5.22221" fill="#A1A1A1"/>
<rect x="251.893" y="132.812" width="5.2681" height="5.22221" fill="#A1A1A1"/>
<rect x="251.893" y="258.141" width="5.2681" height="5.22221" fill="#A1A1A1"/>
<rect x="130.727" y="258.141" width="5.2681" height="5.22221" fill="#A1A1A1"/>
<rect x="41.1694" y="12.6992" width="5.2681" height="5.22221" fill="#A1A1A1"/>
<rect x="41.1694" y="132.812" width="5.2681" height="5.22221" fill="#A1A1A1"/>
<rect x="41.1694" y="252.922" width="5.2681" height="5.22221" fill="#A1A1A1"/>
<rect x="125.459" y="12.6992" width="5.2681" height="5.22221" fill="#A1A1A1"/>
<rect x="125.459" y="132.812" width="5.2681" height="5.22221" fill="#A1A1A1"/>
<rect x="125.459" y="252.922" width="5.2681" height="5.22221" fill="#A1A1A1"/>
<rect x="209.749" y="12.6992" width="5.2681" height="5.22221" fill="#A1A1A1"/>
<rect x="209.749" y="132.812" width="5.2681" height="5.22221" fill="#A1A1A1"/>
<rect x="204.48" y="252.922" width="5.2681" height="5.22221" fill="#A1A1A1"/>
<rect x="83.314" y="12.6992" width="5.2681" height="5.22221" fill="#A1A1A1"/>
<rect x="83.314" y="132.812" width="5.2681" height="5.22221" fill="#A1A1A1"/>
<rect x="83.314" y="252.922" width="5.2681" height="5.22221" fill="#A1A1A1"/>
<rect x="167.604" y="12.6992" width="5.2681" height="5.22221" fill="#A1A1A1"/>
<rect x="167.604" y="132.812" width="5.2681" height="5.22221" fill="#A1A1A1"/>
<rect x="162.335" y="252.922" width="5.2681" height="5.22221" fill="#A1A1A1"/>
<rect x="172.872" y="12.6992" width="5.2681" height="5.22221" fill="#A1A1A1"/>
<rect x="172.872" y="132.812" width="5.2681" height="5.22221" fill="#A1A1A1"/>
<rect x="167.604" y="252.922" width="5.2681" height="5.22221" fill="#A1A1A1"/>
<rect x="262.43" y="7.47656" width="5.22221" height="5.2681" transform="rotate(90 262.43 7.47656)" fill="#A1A1A1"/>
<rect x="141.263" y="7.47656" width="5.22221" height="5.2681" transform="rotate(90 141.263 7.47656)" fill="#A1A1A1"/>
<rect x="262.43" y="127.586" width="5.22221" height="5.2681" transform="rotate(90 262.43 127.586)" fill="#A1A1A1"/>
<rect x="267.698" y="12.6992" width="5.22221" height="5.2681" transform="rotate(90 267.698 12.6992)" fill="#A1A1A1"/>
<rect x="267.698" y="17.9219" width="5.22221" height="5.2681" transform="rotate(90 267.698 17.9219)" fill="#A1A1A1"/>
<rect x="146.531" y="17.9219" width="5.22221" height="5.2681" transform="rotate(90 146.531 17.9219)" fill="#A1A1A1"/>
<rect x="267.698" y="138.031" width="5.22221" height="5.2681" transform="rotate(90 267.698 138.031)" fill="#A1A1A1"/>
<rect x="262.43" y="91.0312" width="5.22221" height="5.2681" transform="rotate(90 262.43 91.0312)" fill="#A1A1A1"/>
<rect x="141.263" y="91.0312" width="5.22221" height="5.2681" transform="rotate(90 141.263 91.0312)" fill="#A1A1A1"/>
<rect x="262.43" y="49.2539" width="5.22221" height="5.2681" transform="rotate(90 262.43 49.2539)" fill="#A1A1A1"/>
<rect x="141.263" y="49.2539" width="5.22221" height="5.2681" transform="rotate(90 141.263 49.2539)" fill="#A1A1A1"/>
<rect x="262.43" y="127.586" width="5.22221" height="5.2681" transform="rotate(90 262.43 127.586)" fill="#A1A1A1"/>
<rect x="141.263" y="127.586" width="5.22221" height="5.2681" transform="rotate(90 141.263 127.586)" fill="#A1A1A1"/>
<rect x="262.43" y="216.363" width="5.22221" height="5.2681" transform="rotate(90 262.43 216.363)" fill="#A1A1A1"/>
<rect x="141.263" y="216.363" width="5.22221" height="5.2681" transform="rotate(90 141.263 216.363)" fill="#A1A1A1"/>
<rect x="262.43" y="28.3633" width="5.22221" height="5.2681" transform="rotate(90 262.43 28.3633)" fill="#A1A1A1"/>
<rect x="141.263" y="28.3633" width="5.22221" height="5.2681" transform="rotate(90 141.263 28.3633)" fill="#A1A1A1"/>
<rect x="262.43" y="111.922" width="5.22221" height="5.2681" transform="rotate(90 262.43 111.922)" fill="#A1A1A1"/>
<rect x="141.263" y="111.922" width="5.22221" height="5.2681" transform="rotate(90 141.263 111.922)" fill="#A1A1A1"/>
<rect x="262.43" y="195.477" width="5.22221" height="5.2681" transform="rotate(90 262.43 195.477)" fill="#A1A1A1"/>
<rect x="141.263" y="195.477" width="5.22221" height="5.2681" transform="rotate(90 141.263 195.477)" fill="#A1A1A1"/>
<rect x="262.43" y="70.1406" width="5.22221" height="5.2681" transform="rotate(90 262.43 70.1406)" fill="#A1A1A1"/>
<rect x="141.263" y="70.1406" width="5.22221" height="5.2681" transform="rotate(90 141.263 70.1406)" fill="#A1A1A1"/>
<rect x="262.43" y="153.699" width="5.22221" height="5.2681" transform="rotate(90 262.43 153.699)" fill="#A1A1A1"/>
<rect x="141.263" y="153.699" width="5.22221" height="5.2681" transform="rotate(90 141.263 153.699)" fill="#A1A1A1"/>
<rect x="262.43" y="237.254" width="5.22221" height="5.2681" transform="rotate(90 262.43 237.254)" fill="#A1A1A1"/>
<rect x="141.263" y="237.254" width="5.22221" height="5.2681" transform="rotate(90 141.263 237.254)" fill="#A1A1A1"/>
<rect x="257.162" y="258.141" width="5.22221" height="5.2681" transform="rotate(90 257.162 258.141)" fill="#A1A1A1"/>
<rect x="135.995" y="258.141" width="5.22221" height="5.2681" transform="rotate(90 135.995 258.141)" fill="#A1A1A1"/>
<rect x="262.43" y="17.9219" width="5.22221" height="5.2681" transform="rotate(90 262.43 17.9219)" fill="#A1A1A1"/>
<rect x="141.263" y="17.9219" width="5.22221" height="5.2681" transform="rotate(90 141.263 17.9219)" fill="#A1A1A1"/>
<rect x="262.43" y="138.031" width="5.22221" height="5.2681" transform="rotate(90 262.43 138.031)" fill="#A1A1A1"/>
<rect x="262.43" y="101.477" width="5.22221" height="5.2681" transform="rotate(90 262.43 101.477)" fill="#A1A1A1"/>
<rect x="141.263" y="101.477" width="5.22221" height="5.2681" transform="rotate(90 141.263 101.477)" fill="#A1A1A1"/>
<rect x="262.43" y="185.031" width="5.22221" height="5.2681" transform="rotate(90 262.43 185.031)" fill="#A1A1A1"/>
<rect x="141.263" y="185.031" width="5.22221" height="5.2681" transform="rotate(90 141.263 185.031)" fill="#A1A1A1"/>
<rect x="262.43" y="59.6992" width="5.22221" height="5.2681" transform="rotate(90 262.43 59.6992)" fill="#A1A1A1"/>
<rect x="141.263" y="59.6992" width="5.22221" height="5.2681" transform="rotate(90 141.263 59.6992)" fill="#A1A1A1"/>
<rect x="262.43" y="143.254" width="5.22221" height="5.2681" transform="rotate(90 262.43 143.254)" fill="#A1A1A1"/>
<rect x="262.43" y="138.031" width="5.22221" height="5.2681" transform="rotate(90 262.43 138.031)" fill="#A1A1A1"/>
<rect x="262.43" y="226.812" width="5.22221" height="5.2681" transform="rotate(90 262.43 226.812)" fill="#A1A1A1"/>
<rect x="141.263" y="226.812" width="5.22221" height="5.2681" transform="rotate(90 141.263 226.812)" fill="#A1A1A1"/>
<rect x="267.698" y="252.922" width="5.22221" height="5.2681" transform="rotate(90 267.698 252.922)" fill="#A1A1A1"/>
<rect x="146.531" y="252.922" width="5.22221" height="5.2681" transform="rotate(90 146.531 252.922)" fill="#A1A1A1"/>
<rect x="141.263" y="247.699" width="5.22221" height="5.2681" transform="rotate(90 141.263 247.699)" fill="#A1A1A1"/>
<rect x="262.43" y="38.8125" width="5.22221" height="5.2681" transform="rotate(90 262.43 38.8125)" fill="#A1A1A1"/>
<rect x="141.263" y="38.8125" width="5.22221" height="5.2681" transform="rotate(90 141.263 38.8125)" fill="#A1A1A1"/>
<rect x="262.43" y="122.363" width="5.22221" height="5.2681" transform="rotate(90 262.43 122.363)" fill="#A1A1A1"/>
<rect x="141.263" y="122.363" width="5.22221" height="5.2681" transform="rotate(90 141.263 122.363)" fill="#A1A1A1"/>
<rect x="262.43" y="205.918" width="5.22221" height="5.2681" transform="rotate(90 262.43 205.918)" fill="#A1A1A1"/>
<rect x="141.263" y="205.918" width="5.22221" height="5.2681" transform="rotate(90 141.263 205.918)" fill="#A1A1A1"/>
<rect x="262.43" y="80.5898" width="5.22221" height="5.2681" transform="rotate(90 262.43 80.5898)" fill="#A1A1A1"/>
<rect x="141.263" y="80.5898" width="5.22221" height="5.2681" transform="rotate(90 141.263 80.5898)" fill="#A1A1A1"/>
<rect x="262.43" y="164.141" width="5.22221" height="5.2681" transform="rotate(90 262.43 164.141)" fill="#A1A1A1"/>
<rect x="141.263" y="164.141" width="5.22221" height="5.2681" transform="rotate(90 141.263 164.141)" fill="#A1A1A1"/>
<rect x="262.43" y="96.2539" width="5.22221" height="5.2681" transform="rotate(90 262.43 96.2539)" fill="#A1A1A1"/>
<rect x="141.263" y="96.2539" width="5.22221" height="5.2681" transform="rotate(90 141.263 96.2539)" fill="#A1A1A1"/>
<rect x="262.43" y="179.809" width="5.22221" height="5.2681" transform="rotate(90 262.43 179.809)" fill="#A1A1A1"/>
<rect x="141.263" y="179.809" width="5.22221" height="5.2681" transform="rotate(90 141.263 179.809)" fill="#A1A1A1"/>
<rect x="262.43" y="54.4766" width="5.22221" height="5.2681" transform="rotate(90 262.43 54.4766)" fill="#A1A1A1"/>
<rect x="141.263" y="54.4766" width="5.22221" height="5.2681" transform="rotate(90 141.263 54.4766)" fill="#A1A1A1"/>
<rect x="262.43" y="138.031" width="5.22221" height="5.2681" transform="rotate(90 262.43 138.031)" fill="#A1A1A1"/>
<rect x="262.43" y="221.586" width="5.22221" height="5.2681" transform="rotate(90 262.43 221.586)" fill="#A1A1A1"/>
<rect x="141.263" y="221.586" width="5.22221" height="5.2681" transform="rotate(90 141.263 221.586)" fill="#A1A1A1"/>
<rect x="262.43" y="33.5859" width="5.22221" height="5.2681" transform="rotate(90 262.43 33.5859)" fill="#A1A1A1"/>
<rect x="141.263" y="33.5859" width="5.22221" height="5.2681" transform="rotate(90 141.263 33.5859)" fill="#A1A1A1"/>
<rect x="262.43" y="117.145" width="5.22221" height="5.2681" transform="rotate(90 262.43 117.145)" fill="#A1A1A1"/>
<rect x="141.263" y="117.145" width="5.22221" height="5.2681" transform="rotate(90 141.263 117.145)" fill="#A1A1A1"/>
<rect x="262.43" y="200.699" width="5.22221" height="5.2681" transform="rotate(90 262.43 200.699)" fill="#A1A1A1"/>
<rect x="141.263" y="200.699" width="5.22221" height="5.2681" transform="rotate(90 141.263 200.699)" fill="#A1A1A1"/>
<rect x="262.43" y="75.3672" width="5.22221" height="5.2681" transform="rotate(90 262.43 75.3672)" fill="#A1A1A1"/>
<rect x="141.263" y="75.3672" width="5.22221" height="5.2681" transform="rotate(90 141.263 75.3672)" fill="#A1A1A1"/>
<rect x="262.43" y="158.922" width="5.22221" height="5.2681" transform="rotate(90 262.43 158.922)" fill="#A1A1A1"/>
<rect x="141.263" y="158.922" width="5.22221" height="5.2681" transform="rotate(90 141.263 158.922)" fill="#A1A1A1"/>
<rect x="262.43" y="242.477" width="5.22221" height="5.2681" transform="rotate(90 262.43 242.477)" fill="#A1A1A1"/>
<rect x="141.263" y="242.477" width="5.22221" height="5.2681" transform="rotate(90 141.263 242.477)" fill="#A1A1A1"/>
<rect x="262.43" y="23.1445" width="5.22221" height="5.2681" transform="rotate(90 262.43 23.1445)" fill="#A1A1A1"/>
<rect x="141.263" y="23.1445" width="5.22221" height="5.2681" transform="rotate(90 141.263 23.1445)" fill="#A1A1A1"/>
<rect x="262.43" y="106.699" width="5.22221" height="5.2681" transform="rotate(90 262.43 106.699)" fill="#A1A1A1"/>
<rect x="141.263" y="106.699" width="5.22221" height="5.2681" transform="rotate(90 141.263 106.699)" fill="#A1A1A1"/>
<rect x="262.43" y="190.254" width="5.22221" height="5.2681" transform="rotate(90 262.43 190.254)" fill="#A1A1A1"/>
<rect x="141.263" y="190.254" width="5.22221" height="5.2681" transform="rotate(90 141.263 190.254)" fill="#A1A1A1"/>
<rect x="262.43" y="64.9219" width="5.22221" height="5.2681" transform="rotate(90 262.43 64.9219)" fill="#A1A1A1"/>
<rect x="141.263" y="64.9219" width="5.22221" height="5.2681" transform="rotate(90 141.263 64.9219)" fill="#A1A1A1"/>
<rect x="262.43" y="148.477" width="5.22221" height="5.2681" transform="rotate(90 262.43 148.477)" fill="#A1A1A1"/>
<rect x="262.43" y="232.031" width="5.22221" height="5.2681" transform="rotate(90 262.43 232.031)" fill="#A1A1A1"/>
<rect x="141.263" y="232.031" width="5.22221" height="5.2681" transform="rotate(90 141.263 232.031)" fill="#A1A1A1"/>
<rect x="262.43" y="247.699" width="5.22221" height="5.2681" transform="rotate(90 262.43 247.699)" fill="#A1A1A1"/>
<rect x="141.263" y="247.699" width="5.22221" height="5.2681" transform="rotate(90 141.263 247.699)" fill="#A1A1A1"/>
<rect x="262.43" y="44.0312" width="5.22221" height="5.2681" transform="rotate(90 262.43 44.0312)" fill="#A1A1A1"/>
<rect x="141.263" y="44.0312" width="5.22221" height="5.2681" transform="rotate(90 141.263 44.0312)" fill="#A1A1A1"/>
<rect x="262.43" y="127.586" width="5.22221" height="5.2681" transform="rotate(90 262.43 127.586)" fill="#A1A1A1"/>
<rect x="141.263" y="127.586" width="5.22221" height="5.2681" transform="rotate(90 141.263 127.586)" fill="#A1A1A1"/>
<rect x="262.43" y="211.145" width="5.22221" height="5.2681" transform="rotate(90 262.43 211.145)" fill="#A1A1A1"/>
<rect x="141.263" y="211.145" width="5.22221" height="5.2681" transform="rotate(90 141.263 211.145)" fill="#A1A1A1"/>
<rect x="262.43" y="85.8086" width="5.22221" height="5.2681" transform="rotate(90 262.43 85.8086)" fill="#A1A1A1"/>
<rect x="141.263" y="85.8086" width="5.22221" height="5.2681" transform="rotate(90 141.263 85.8086)" fill="#A1A1A1"/>
<rect x="262.43" y="169.367" width="5.22221" height="5.2681" transform="rotate(90 262.43 169.367)" fill="#A1A1A1"/>
<rect x="141.263" y="169.367" width="5.22221" height="5.2681" transform="rotate(90 141.263 169.367)" fill="#A1A1A1"/>
<rect x="262.43" y="174.59" width="5.22221" height="5.2681" transform="rotate(90 262.43 174.59)" fill="#A1A1A1"/>
<rect x="141.263" y="174.59" width="5.22221" height="5.2681" transform="rotate(90 141.263 174.59)" fill="#A1A1A1"/>
<rect x="257.162" y="185.031" width="5.2681" height="5.22221" fill="#A1A1A1"/>
<rect x="135.995" y="185.031" width="5.2681" height="5.22221" fill="#A1A1A1"/>
<rect x="257.162" y="111.922" width="5.2681" height="5.22221" fill="#A1A1A1"/>
<rect x="135.995" y="111.922" width="5.2681" height="5.22221" fill="#A1A1A1"/>
<rect x="257.162" y="38.8125" width="5.2681" height="5.22221" fill="#A1A1A1"/>
<rect x="135.995" y="38.8125" width="5.2681" height="5.22221" fill="#A1A1A1"/>
<rect x="257.162" y="221.586" width="5.2681" height="5.22221" fill="#A1A1A1"/>
<rect x="135.995" y="221.586" width="5.2681" height="5.22221" fill="#A1A1A1"/>
<rect x="257.162" y="148.477" width="5.2681" height="5.22221" fill="#A1A1A1"/>
<rect x="257.162" y="75.3672" width="5.2681" height="5.22221" fill="#A1A1A1"/>
<rect x="135.995" y="75.3672" width="5.2681" height="5.22221" fill="#A1A1A1"/>
<rect x="14.8286" y="7.47656" width="5.22221" height="5.2681" transform="rotate(90 14.8286 7.47656)" fill="#A1A1A1"/>
<rect x="14.8286" y="127.586" width="5.22221" height="5.2681" transform="rotate(90 14.8286 127.586)" fill="#A1A1A1"/>
<rect x="14.8286" y="17.9219" width="5.22221" height="5.2681" transform="rotate(90 14.8286 17.9219)" fill="#A1A1A1"/>
<rect x="14.8286" y="138.031" width="5.22221" height="5.2681" transform="rotate(90 14.8286 138.031)" fill="#A1A1A1"/>
<rect x="14.8286" y="12.6992" width="5.22221" height="5.2681" transform="rotate(90 14.8286 12.6992)" fill="#A1A1A1"/>
<rect x="14.8286" y="132.812" width="5.22221" height="5.2681" transform="rotate(90 14.8286 132.812)" fill="#A1A1A1"/>
<rect x="14.8286" y="127.586" width="5.22221" height="5.2681" transform="rotate(90 14.8286 127.586)" fill="#A1A1A1"/>
<rect x="20.0972" y="7.47656" width="5.22221" height="5.2681" transform="rotate(90 20.0972 7.47656)" fill="#A1A1A1"/>
<rect x="20.0972" y="127.586" width="5.22221" height="5.2681" transform="rotate(90 20.0972 127.586)" fill="#A1A1A1"/>
<rect x="20.0972" y="122.363" width="5.22221" height="5.2681" transform="rotate(90 20.0972 122.363)" fill="#A1A1A1"/>
<rect x="46.4375" y="38.8125" width="5.22221" height="5.2681" transform="rotate(90 46.4375 38.8125)" fill="#A1A1A1"/>
<rect x="78.0459" y="70.1406" width="5.22221" height="5.2681" transform="rotate(90 78.0459 70.1406)" fill="#A1A1A1"/>
<rect x="109.655" y="101.477" width="5.22221" height="5.2681" transform="rotate(90 109.655 101.477)" fill="#A1A1A1"/>
<rect x="146.531" y="132.812" width="5.22221" height="5.2681" transform="rotate(90 146.531 132.812)" fill="#A1A1A1"/>
<rect x="146.531" y="138.031" width="5.22221" height="5.2681" transform="rotate(90 146.531 138.031)" fill="#A1A1A1"/>
<rect x="209.749" y="200.699" width="5.22221" height="5.2681" transform="rotate(90 209.749 200.699)" fill="#A1A1A1"/>
<rect x="178.14" y="169.367" width="5.22221" height="5.2681" transform="rotate(90 178.14 169.367)" fill="#A1A1A1"/>
<rect x="241.357" y="232.031" width="5.22221" height="5.2681" transform="rotate(90 241.357 232.031)" fill="#A1A1A1"/>
<rect x="51.7056" y="44.0312" width="5.22221" height="5.2681" transform="rotate(90 51.7056 44.0312)" fill="#A1A1A1"/>
<rect x="83.314" y="75.3672" width="5.22221" height="5.2681" transform="rotate(90 83.314 75.3672)" fill="#A1A1A1"/>
<rect x="114.923" y="106.699" width="5.22221" height="5.2681" transform="rotate(90 114.923 106.699)" fill="#A1A1A1"/>
<rect x="151.799" y="143.254" width="5.22221" height="5.2681" transform="rotate(90 151.799 143.254)" fill="#A1A1A1"/>
<rect x="215.017" y="205.918" width="5.22221" height="5.2681" transform="rotate(90 215.017 205.918)" fill="#A1A1A1"/>
<rect x="183.408" y="174.59" width="5.22221" height="5.2681" transform="rotate(90 183.408 174.59)" fill="#A1A1A1"/>
<rect x="246.625" y="237.254" width="5.22221" height="5.2681" transform="rotate(90 246.625 237.254)" fill="#A1A1A1"/>
<rect x="25.3647" y="17.9219" width="5.22221" height="5.2681" transform="rotate(90 25.3647 17.9219)" fill="#A1A1A1"/>
<rect x="25.3647" y="138.031" width="5.22221" height="5.2681" transform="rotate(90 25.3647 138.031)" fill="#A1A1A1"/>
<rect x="56.9736" y="49.2539" width="5.22221" height="5.2681" transform="rotate(90 56.9736 49.2539)" fill="#A1A1A1"/>
<rect x="88.582" y="80.5898" width="5.22221" height="5.2681" transform="rotate(90 88.582 80.5898)" fill="#A1A1A1"/>
<rect x="120.191" y="111.922" width="5.22221" height="5.2681" transform="rotate(90 120.191 111.922)" fill="#A1A1A1"/>
<rect x="157.067" y="148.477" width="5.22221" height="5.2681" transform="rotate(90 157.067 148.477)" fill="#A1A1A1"/>
<rect x="220.285" y="211.145" width="5.22221" height="5.2681" transform="rotate(90 220.285 211.145)" fill="#A1A1A1"/>
<rect x="188.676" y="179.809" width="5.22221" height="5.2681" transform="rotate(90 188.676 179.809)" fill="#A1A1A1"/>
<rect x="251.893" y="242.477" width="5.22221" height="5.2681" transform="rotate(90 251.893 242.477)" fill="#A1A1A1"/>
<rect x="30.6328" y="23.1445" width="5.22221" height="5.2681" transform="rotate(90 30.6328 23.1445)" fill="#A1A1A1"/>
<rect x="62.2417" y="54.4766" width="5.22221" height="5.2681" transform="rotate(90 62.2417 54.4766)" fill="#A1A1A1"/>
<rect x="93.8506" y="85.8086" width="5.22221" height="5.2681" transform="rotate(90 93.8506 85.8086)" fill="#A1A1A1"/>
<rect x="125.459" y="117.145" width="5.22221" height="5.2681" transform="rotate(90 125.459 117.145)" fill="#A1A1A1"/>
<rect x="162.335" y="153.699" width="5.22221" height="5.2681" transform="rotate(90 162.335 153.699)" fill="#A1A1A1"/>
<rect x="225.553" y="216.363" width="5.22221" height="5.2681" transform="rotate(90 225.553 216.363)" fill="#A1A1A1"/>
<rect x="193.944" y="185.031" width="5.22221" height="5.2681" transform="rotate(90 193.944 185.031)" fill="#A1A1A1"/>
<rect x="262.43" y="258.141" width="5.22221" height="5.2681" transform="rotate(90 262.43 258.141)" fill="#A1A1A1"/>
<rect x="141.263" y="258.141" width="5.22221" height="5.2681" transform="rotate(90 141.263 258.141)" fill="#A1A1A1"/>
<rect x="35.9014" y="28.3633" width="5.22221" height="5.2681" transform="rotate(90 35.9014 28.3633)" fill="#A1A1A1"/>
<rect x="67.5098" y="59.6992" width="5.22221" height="5.2681" transform="rotate(90 67.5098 59.6992)" fill="#A1A1A1"/>
<rect x="99.1187" y="91.0312" width="5.22221" height="5.2681" transform="rotate(90 99.1187 91.0312)" fill="#A1A1A1"/>
<rect x="130.727" y="122.363" width="5.22221" height="5.2681" transform="rotate(90 130.727 122.363)" fill="#A1A1A1"/>
<rect x="167.604" y="158.922" width="5.22221" height="5.2681" transform="rotate(90 167.604 158.922)" fill="#A1A1A1"/>
<rect x="230.821" y="221.586" width="5.22221" height="5.2681" transform="rotate(90 230.821 221.586)" fill="#A1A1A1"/>
<rect x="199.212" y="190.254" width="5.22221" height="5.2681" transform="rotate(90 199.212 190.254)" fill="#A1A1A1"/>
<rect x="251.893" y="252.922" width="5.22221" height="5.2681" transform="rotate(90 251.893 252.922)" fill="#A1A1A1"/>
<rect x="257.162" y="252.922" width="5.22221" height="5.2681" transform="rotate(90 257.162 252.922)" fill="#A1A1A1"/>
<rect x="135.995" y="252.922" width="5.22221" height="5.2681" transform="rotate(90 135.995 252.922)" fill="#A1A1A1"/>
<rect x="41.1694" y="33.5859" width="5.22221" height="5.2681" transform="rotate(90 41.1694 33.5859)" fill="#A1A1A1"/>
<rect x="72.7778" y="64.9219" width="5.22221" height="5.2681" transform="rotate(90 72.7778 64.9219)" fill="#A1A1A1"/>
<rect x="104.386" y="96.2539" width="5.22221" height="5.2681" transform="rotate(90 104.386 96.2539)" fill="#A1A1A1"/>
<rect x="135.995" y="127.586" width="5.22221" height="5.2681" transform="rotate(90 135.995 127.586)" fill="#A1A1A1"/>
<rect x="172.872" y="164.141" width="5.22221" height="5.2681" transform="rotate(90 172.872 164.141)" fill="#A1A1A1"/>
<rect x="236.089" y="226.812" width="5.22221" height="5.2681" transform="rotate(90 236.089 226.812)" fill="#A1A1A1"/>
<rect x="204.48" y="195.477" width="5.22221" height="5.2681" transform="rotate(90 204.48 195.477)" fill="#A1A1A1"/>
<rect x="257.162" y="247.699" width="5.22221" height="5.2681" transform="rotate(90 257.162 247.699)" fill="#A1A1A1"/>
<rect x="135.995" y="247.699" width="5.22221" height="5.2681" transform="rotate(90 135.995 247.699)" fill="#A1A1A1"/>
<rect x="20.0972" y="139.898" width="5.22221" height="5.2681" transform="rotate(90 20.0972 139.898)" fill="#A1A1A1"/>
<rect x="20.0972" y="85.8086" width="5.22221" height="5.2681" transform="rotate(90 20.0972 85.8086)" fill="#A1A1A1"/>
<rect x="20.0972" y="44.0312" width="5.22221" height="5.2681" transform="rotate(90 20.0972 44.0312)" fill="#A1A1A1"/>
<rect x="20.0972" y="211.145" width="5.22221" height="5.2681" transform="rotate(90 20.0972 211.145)" fill="#A1A1A1"/>
<rect x="20.0972" y="23.1445" width="5.22221" height="5.2681" transform="rotate(90 20.0972 23.1445)" fill="#A1A1A1"/>
<rect x="20.0972" y="106.699" width="5.22221" height="5.2681" transform="rotate(90 20.0972 106.699)" fill="#A1A1A1"/>
<rect x="20.0972" y="190.254" width="5.22221" height="5.2681" transform="rotate(90 20.0972 190.254)" fill="#A1A1A1"/>
<rect x="20.0972" y="64.9219" width="5.22221" height="5.2681" transform="rotate(90 20.0972 64.9219)" fill="#A1A1A1"/>
<rect x="20.0972" y="148.477" width="5.22221" height="5.2681" transform="rotate(90 20.0972 148.477)" fill="#A1A1A1"/>
<rect x="20.0972" y="232.031" width="5.22221" height="5.2681" transform="rotate(90 20.0972 232.031)" fill="#A1A1A1"/>
<rect x="20.0972" y="96.2539" width="5.22221" height="5.2681" transform="rotate(90 20.0972 96.2539)" fill="#A1A1A1"/>
<rect x="20.0972" y="179.809" width="5.22221" height="5.2681" transform="rotate(90 20.0972 179.809)" fill="#A1A1A1"/>
<rect x="20.0972" y="54.4766" width="5.22221" height="5.2681" transform="rotate(90 20.0972 54.4766)" fill="#A1A1A1"/>
<rect x="20.0972" y="139.898" width="5.22221" height="5.2681" transform="rotate(90 20.0972 139.898)" fill="#A1A1A1"/>
<rect x="20.0972" y="221.586" width="5.22221" height="5.2681" transform="rotate(90 20.0972 221.586)" fill="#A1A1A1"/>
<rect x="20.0972" y="242.477" width="5.22221" height="5.2681" transform="rotate(90 20.0972 242.477)" fill="#A1A1A1"/>
<rect x="20.0972" y="33.5859" width="5.22221" height="5.2681" transform="rotate(90 20.0972 33.5859)" fill="#A1A1A1"/>
<rect x="20.0972" y="117.145" width="5.22221" height="5.2681" transform="rotate(90 20.0972 117.145)" fill="#A1A1A1"/>
<rect x="20.0972" y="200.699" width="5.22221" height="5.2681" transform="rotate(90 20.0972 200.699)" fill="#A1A1A1"/>
<rect x="20.0972" y="75.3672" width="5.22221" height="5.2681" transform="rotate(90 20.0972 75.3672)" fill="#A1A1A1"/>
<rect x="20.0972" y="158.922" width="5.22221" height="5.2681" transform="rotate(90 20.0972 158.922)" fill="#A1A1A1"/>
<rect x="20.0972" y="91.0312" width="5.22221" height="5.2681" transform="rotate(90 20.0972 91.0312)" fill="#A1A1A1"/>
<rect x="20.0972" y="174.59" width="5.22221" height="5.2681" transform="rotate(90 20.0972 174.59)" fill="#A1A1A1"/>
<rect x="20.0972" y="49.2539" width="5.22221" height="5.2681" transform="rotate(90 20.0972 49.2539)" fill="#A1A1A1"/>
<rect x="20.0972" y="216.363" width="5.22221" height="5.2681" transform="rotate(90 20.0972 216.363)" fill="#A1A1A1"/>
<rect x="20.0972" y="28.3633" width="5.22221" height="5.2681" transform="rotate(90 20.0972 28.3633)" fill="#A1A1A1"/>
<rect x="20.0972" y="111.922" width="5.22221" height="5.2681" transform="rotate(90 20.0972 111.922)" fill="#A1A1A1"/>
<rect x="20.0972" y="195.477" width="5.22221" height="5.2681" transform="rotate(90 20.0972 195.477)" fill="#A1A1A1"/>
<rect x="20.0972" y="70.1406" width="5.22221" height="5.2681" transform="rotate(90 20.0972 70.1406)" fill="#A1A1A1"/>
<rect x="20.0972" y="153.699" width="5.22221" height="5.2681" transform="rotate(90 20.0972 153.699)" fill="#A1A1A1"/>
<rect x="20.0972" y="237.254" width="5.22221" height="5.2681" transform="rotate(90 20.0972 237.254)" fill="#A1A1A1"/>
<rect x="20.0972" y="17.9219" width="5.22221" height="5.2681" transform="rotate(90 20.0972 17.9219)" fill="#A1A1A1"/>
<rect x="20.0972" y="138.031" width="5.22221" height="5.2681" transform="rotate(90 20.0972 138.031)" fill="#A1A1A1"/>
<rect x="20.0972" y="101.477" width="5.22221" height="5.2681" transform="rotate(90 20.0972 101.477)" fill="#A1A1A1"/>
<rect x="20.0972" y="185.031" width="5.22221" height="5.2681" transform="rotate(90 20.0972 185.031)" fill="#A1A1A1"/>
<rect x="20.0972" y="59.6992" width="5.22221" height="5.2681" transform="rotate(90 20.0972 59.6992)" fill="#A1A1A1"/>
<rect x="20.0972" y="143.254" width="5.22221" height="5.2681" transform="rotate(90 20.0972 143.254)" fill="#A1A1A1"/>
<rect x="20.0972" y="139.898" width="5.22221" height="5.2681" transform="rotate(90 20.0972 139.898)" fill="#A1A1A1"/>
<rect x="20.0972" y="226.812" width="5.22221" height="5.2681" transform="rotate(90 20.0972 226.812)" fill="#A1A1A1"/>
<rect x="20.0972" y="247.699" width="5.22221" height="5.2681" transform="rotate(90 20.0972 247.699)" fill="#A1A1A1"/>
<rect x="20.0972" y="38.8125" width="5.22221" height="5.2681" transform="rotate(90 20.0972 38.8125)" fill="#A1A1A1"/>
<rect x="20.0972" y="205.918" width="5.22221" height="5.2681" transform="rotate(90 20.0972 205.918)" fill="#A1A1A1"/>
<rect x="20.0972" y="80.5898" width="5.22221" height="5.2681" transform="rotate(90 20.0972 80.5898)" fill="#A1A1A1"/>
<rect x="20.0972" y="164.141" width="5.22221" height="5.2681" transform="rotate(90 20.0972 164.141)" fill="#A1A1A1"/>
<rect x="20.0972" y="169.367" width="5.22221" height="5.2681" transform="rotate(90 20.0972 169.367)" fill="#A1A1A1"/>
<rect x="14.8286" y="179.809" width="5.2681" height="5.22221" fill="#A1A1A1"/>
<rect x="14.8286" y="106.699" width="5.2681" height="5.22221" fill="#A1A1A1"/>
<rect x="14.8286" y="33.5859" width="5.2681" height="5.22221" fill="#A1A1A1"/>
<rect x="14.8286" y="216.363" width="5.2681" height="5.22221" fill="#A1A1A1"/>
<rect x="14.8286" y="143.254" width="5.2681" height="5.22221" fill="#A1A1A1"/>
<rect x="14.8286" y="70.1406" width="5.2681" height="5.22221" fill="#A1A1A1"/>
<rect x="20.0972" y="7.47656" width="5.2681" height="5.22221" fill="#A1A1A1"/>
<rect x="20.0972" y="127.586" width="5.2681" height="5.22221" fill="#A1A1A1"/>
<rect x="20.0972" y="258.141" width="5.2681" height="5.22221" fill="#A1A1A1"/>
<rect x="251.894" y="7.47656" width="5.2681" height="5.22221" fill="#A1A1A1"/>
<rect x="130.727" y="7.47656" width="5.2681" height="5.22221" fill="#A1A1A1"/>
<rect x="251.893" y="127.586" width="5.2681" height="5.22221" fill="#A1A1A1"/>
<rect x="262.43" y="252.922" width="5.22221" height="5.2681" transform="rotate(-90 262.43 252.922)" fill="#A1A1A1"/>
<rect x="141.263" y="252.922" width="5.22221" height="5.2681" transform="rotate(-90 141.263 252.922)" fill="#A1A1A1"/>
<rect x="135.995" y="148.477" width="5.2681" height="5.22221" fill="#A1A1A1"/>
<rect x="135.995" y="143.254" width="5.2681" height="5.22221" fill="#A1A1A1"/>
<rect x="135.995" y="138.031" width="5.2681" height="5.22221" fill="#A1A1A1"/>
<rect x="267.698" y="7.47656" width="5.22221" height="5.2681" transform="rotate(90 267.698 7.47656)" fill="#A1A1A1"/>
<rect x="146.531" y="7.47656" width="5.22221" height="5.2681" transform="rotate(90 146.531 7.47656)" fill="#A1A1A1"/>
<rect x="267.698" y="127.586" width="5.22221" height="5.2681" transform="rotate(90 267.698 127.586)" fill="#A1A1A1"/>
<rect x="225.553" y="49.2539" width="5.22221" height="5.2681" transform="rotate(90 225.553 49.2539)" fill="#A1A1A1"/>
<rect x="183.408" y="91.0312" width="5.22221" height="5.2681" transform="rotate(90 183.408 91.0312)" fill="#A1A1A1"/>
<rect x="99.1187" y="174.59" width="5.22221" height="5.2681" transform="rotate(90 99.1187 174.59)" fill="#A1A1A1"/>
<rect x="56.9736" y="216.363" width="5.22221" height="5.2681" transform="rotate(90 56.9736 216.363)" fill="#A1A1A1"/>
<rect x="51.7056" y="221.586" width="5.22221" height="5.2681" transform="rotate(90 51.7056 221.586)" fill="#A1A1A1"/>
<rect x="220.285" y="54.4766" width="5.22221" height="5.2681" transform="rotate(90 220.285 54.4766)" fill="#A1A1A1"/>
<rect x="178.14" y="96.2539" width="5.22221" height="5.2681" transform="rotate(90 178.14 96.2539)" fill="#A1A1A1"/>
<rect x="135.995" y="138.031" width="5.22221" height="5.2681" transform="rotate(90 135.995 138.031)" fill="#A1A1A1"/>
<rect x="93.8506" y="179.809" width="5.22221" height="5.2681" transform="rotate(90 93.8506 179.809)" fill="#A1A1A1"/>
<rect x="51.7056" y="221.586" width="5.22221" height="5.2681" transform="rotate(90 51.7056 221.586)" fill="#A1A1A1"/>
<rect x="46.4375" y="226.812" width="5.22221" height="5.2681" transform="rotate(90 46.4375 226.812)" fill="#A1A1A1"/>
<rect x="257.162" y="17.9219" width="5.22221" height="5.2681" transform="rotate(90 257.162 17.9219)" fill="#A1A1A1"/>
<rect x="135.995" y="17.9219" width="5.22221" height="5.2681" transform="rotate(90 135.995 17.9219)" fill="#A1A1A1"/>
<rect x="257.162" y="138.031" width="5.22221" height="5.2681" transform="rotate(90 257.162 138.031)" fill="#A1A1A1"/>
<rect x="215.017" y="59.6992" width="5.22221" height="5.2681" transform="rotate(90 215.017 59.6992)" fill="#A1A1A1"/>
<rect x="172.872" y="101.477" width="5.22221" height="5.2681" transform="rotate(90 172.872 101.477)" fill="#A1A1A1"/>
<rect x="130.727" y="143.254" width="5.22221" height="5.2681" transform="rotate(90 130.727 143.254)" fill="#A1A1A1"/>
<rect x="88.582" y="185.031" width="5.22221" height="5.2681" transform="rotate(90 88.582 185.031)" fill="#A1A1A1"/>
<rect x="46.4375" y="226.812" width="5.22221" height="5.2681" transform="rotate(90 46.4375 226.812)" fill="#A1A1A1"/>
<rect x="41.1694" y="232.031" width="5.22221" height="5.2681" transform="rotate(90 41.1694 232.031)" fill="#A1A1A1"/>
<rect x="251.893" y="23.1445" width="5.22221" height="5.2681" transform="rotate(90 251.893 23.1445)" fill="#A1A1A1"/>
<rect x="209.749" y="64.9219" width="5.22221" height="5.2681" transform="rotate(90 209.749 64.9219)" fill="#A1A1A1"/>
<rect x="167.604" y="106.699" width="5.22221" height="5.2681" transform="rotate(90 167.604 106.699)" fill="#A1A1A1"/>
<rect x="125.459" y="148.477" width="5.22221" height="5.2681" transform="rotate(90 125.459 148.477)" fill="#A1A1A1"/>
<rect x="83.314" y="190.254" width="5.22221" height="5.2681" transform="rotate(90 83.314 190.254)" fill="#A1A1A1"/>
<rect x="41.1694" y="232.031" width="5.22221" height="5.2681" transform="rotate(90 41.1694 232.031)" fill="#A1A1A1"/>
<rect x="35.9014" y="237.254" width="5.22221" height="5.2681" transform="rotate(90 35.9014 237.254)" fill="#A1A1A1"/>
<rect x="246.625" y="28.3633" width="5.22221" height="5.2681" transform="rotate(90 246.625 28.3633)" fill="#A1A1A1"/>
<rect x="204.48" y="70.1406" width="5.22221" height="5.2681" transform="rotate(90 204.48 70.1406)" fill="#A1A1A1"/>
<rect x="162.335" y="111.922" width="5.22221" height="5.2681" transform="rotate(90 162.335 111.922)" fill="#A1A1A1"/>
<rect x="120.191" y="153.699" width="5.22221" height="5.2681" transform="rotate(90 120.191 153.699)" fill="#A1A1A1"/>
<rect x="78.0459" y="195.477" width="5.22221" height="5.2681" transform="rotate(90 78.0459 195.477)" fill="#A1A1A1"/>
<rect x="35.9014" y="237.254" width="5.22221" height="5.2681" transform="rotate(90 35.9014 237.254)" fill="#A1A1A1"/>
<rect x="30.6328" y="242.477" width="5.22221" height="5.2681" transform="rotate(90 30.6328 242.477)" fill="#A1A1A1"/>
<rect x="241.357" y="33.5859" width="5.22221" height="5.2681" transform="rotate(90 241.357 33.5859)" fill="#A1A1A1"/>
<rect x="199.212" y="75.3672" width="5.22221" height="5.2681" transform="rotate(90 199.212 75.3672)" fill="#A1A1A1"/>
<rect x="157.067" y="117.145" width="5.22221" height="5.2681" transform="rotate(90 157.067 117.145)" fill="#A1A1A1"/>
<rect x="114.923" y="158.922" width="5.22221" height="5.2681" transform="rotate(90 114.923 158.922)" fill="#A1A1A1"/>
<rect x="72.7778" y="200.699" width="5.22221" height="5.2681" transform="rotate(90 72.7778 200.699)" fill="#A1A1A1"/>
<rect x="30.6328" y="242.477" width="5.22221" height="5.2681" transform="rotate(90 30.6328 242.477)" fill="#A1A1A1"/>
<rect x="25.3647" y="247.699" width="5.22221" height="5.2681" transform="rotate(90 25.3647 247.699)" fill="#A1A1A1"/>
<rect x="236.089" y="38.8125" width="5.22221" height="5.2681" transform="rotate(90 236.089 38.8125)" fill="#A1A1A1"/>
<rect x="193.944" y="80.5898" width="5.22221" height="5.2681" transform="rotate(90 193.944 80.5898)" fill="#A1A1A1"/>
<rect x="151.799" y="122.363" width="5.22221" height="5.2681" transform="rotate(90 151.799 122.363)" fill="#A1A1A1"/>
<rect x="109.655" y="164.141" width="5.22221" height="5.2681" transform="rotate(90 109.655 164.141)" fill="#A1A1A1"/>
<rect x="67.5098" y="205.918" width="5.22221" height="5.2681" transform="rotate(90 67.5098 205.918)" fill="#A1A1A1"/>
<rect x="25.3647" y="247.699" width="5.22221" height="5.2681" transform="rotate(90 25.3647 247.699)" fill="#A1A1A1"/>
<rect x="25.3647" y="252.922" width="5.22221" height="5.2681" transform="rotate(90 25.3647 252.922)" fill="#A1A1A1"/>
<rect x="230.821" y="44.0312" width="5.22221" height="5.2681" transform="rotate(90 230.821 44.0312)" fill="#A1A1A1"/>
<rect x="188.676" y="85.8086" width="5.22221" height="5.2681" transform="rotate(90 188.676 85.8086)" fill="#A1A1A1"/>
<rect x="146.531" y="127.586" width="5.22221" height="5.2681" transform="rotate(90 146.531 127.586)" fill="#A1A1A1"/>
<rect x="104.386" y="169.367" width="5.22221" height="5.2681" transform="rotate(90 104.386 169.367)" fill="#A1A1A1"/>
<rect x="62.2417" y="211.145" width="5.22221" height="5.2681" transform="rotate(90 62.2417 211.145)" fill="#A1A1A1"/>
<rect x="14.8286" y="258.141" width="5.22221" height="5.2681" transform="rotate(90 14.8286 258.141)" fill="#A1A1A1"/>
<rect x="20.0972" y="258.141" width="5.22221" height="5.2681" transform="rotate(90 20.0972 258.141)" fill="#A1A1A1"/>
<rect x="14.8286" y="252.922" width="5.22221" height="5.2681" transform="rotate(90 14.8286 252.922)" fill="#A1A1A1"/>
<rect x="14.8286" y="247.699" width="5.22221" height="5.2681" transform="rotate(90 14.8286 247.699)" fill="#A1A1A1"/>
<path d="M138.629 119.258C147.621 119.258 154.926 126.487 154.926 135.422C154.926 144.357 147.621 151.585 138.629 151.585C129.637 151.585 122.332 144.357 122.332 135.422C122.332 126.487 129.637 119.258 138.629 119.258Z" fill="black" stroke="#43FF46" stroke-width="2"/>
<ellipse cx="18.1652" cy="252.941" rx="15.297" ry="15.1638" fill="black"/>
<ellipse cx="18.297" cy="15.1638" rx="15.297" ry="15.1638" fill="black"/>
<ellipse cx="260.297" cy="15.1638" rx="15.297" ry="15.1638" fill="white"/>
<ellipse cx="139.297" cy="253.164" rx="15.297" ry="15.1638" fill="white"/>
<ellipse cx="260.297" cy="253.164" rx="15.297" ry="15.1638" fill="white"/>
<path d="M23.9214 134.008C23.1403 134.789 23.1403 136.055 23.9214 136.836L36.6493 149.564C37.4303 150.345 38.6967 150.345 39.4777 149.564C40.2588 148.783 40.2588 147.517 39.4777 146.736L28.164 135.422L39.4777 124.108C40.2588 123.327 40.2588 122.061 39.4777 121.28C38.6967 120.499 37.4303 120.499 36.6493 121.28L23.9214 134.008ZM119.986 135.422L119.986 133.422L25.3356 133.422L25.3356 135.422L25.3356 137.422L119.986 137.422L119.986 135.422Z" fill="white"/>
<rect x="14.8286" y="466.898" width="5.2681" height="5.22221" fill="#A1A1A1"/>
<rect x="88.582" y="339.699" width="5.2681" height="5.22221" fill="#A1A1A1"/>
<rect x="88.582" y="459.812" width="5.2681" height="5.22221" fill="#A1A1A1"/>
<rect x="88.582" y="579.922" width="5.2681" height="5.22221" fill="#A1A1A1"/>
<rect x="46.4375" y="339.699" width="5.2681" height="5.22221" fill="#A1A1A1"/>
<rect x="46.4375" y="459.812" width="5.2681" height="5.22221" fill="#A1A1A1"/>
<rect x="46.4375" y="579.922" width="5.2681" height="5.22221" fill="#A1A1A1"/>
<rect x="130.727" y="339.699" width="5.2681" height="5.22221" fill="#A1A1A1"/>
<rect x="251.893" y="459.812" width="5.2681" height="5.22221" fill="#A1A1A1"/>
<rect x="130.727" y="459.812" width="5.2681" height="5.22221" fill="#A1A1A1"/>
<rect x="130.727" y="579.922" width="5.2681" height="5.22221" fill="#A1A1A1"/>
<rect x="215.017" y="339.699" width="5.2681" height="5.22221" fill="#A1A1A1"/>
<rect x="215.017" y="459.812" width="5.2681" height="5.22221" fill="#A1A1A1"/>
<rect x="209.749" y="579.922" width="5.2681" height="5.22221" fill="#A1A1A1"/>
<rect x="25.3647" y="339.699" width="5.2681" height="5.22221" fill="#A1A1A1"/>
<rect x="25.3647" y="459.812" width="5.2681" height="5.22221" fill="#A1A1A1"/>
<rect x="25.3647" y="579.922" width="5.2681" height="5.22221" fill="#A1A1A1"/>
<rect x="109.655" y="339.699" width="5.2681" height="5.22221" fill="#A1A1A1"/>
<rect x="109.655" y="459.812" width="5.2681" height="5.22221" fill="#A1A1A1"/>
<rect x="109.655" y="579.922" width="5.2681" height="5.22221" fill="#A1A1A1"/>
<rect x="193.944" y="339.699" width="5.2681" height="5.22221" fill="#A1A1A1"/>
<rect x="193.944" y="459.812" width="5.2681" height="5.22221" fill="#A1A1A1"/>
<rect x="188.676" y="579.922" width="5.2681" height="5.22221" fill="#A1A1A1"/>
<rect x="67.5098" y="339.699" width="5.2681" height="5.22221" fill="#A1A1A1"/>
<rect x="67.5098" y="459.812" width="5.2681" height="5.22221" fill="#A1A1A1"/>
<rect x="67.5098" y="579.922" width="5.2681" height="5.22221" fill="#A1A1A1"/>
<rect x="151.799" y="339.699" width="5.2681" height="5.22221" fill="#A1A1A1"/>
<rect x="151.799" y="459.812" width="5.2681" height="5.22221" fill="#A1A1A1"/>
<rect x="146.531" y="579.922" width="5.2681" height="5.22221" fill="#A1A1A1"/>
<rect x="236.089" y="339.699" width="5.2681" height="5.22221" fill="#A1A1A1"/>
<rect x="236.089" y="459.812" width="5.2681" height="5.22221" fill="#A1A1A1"/>
<rect x="230.821" y="579.922" width="5.2681" height="5.22221" fill="#A1A1A1"/>
<rect x="257.162" y="465.031" width="5.2681" height="5.22221" fill="#A1A1A1"/>
<rect x="99.1187" y="339.699" width="5.2681" height="5.22221" fill="#A1A1A1"/>
<rect x="99.1187" y="459.812" width="5.2681" height="5.22221" fill="#A1A1A1"/>
<rect x="99.1187" y="579.922" width="5.2681" height="5.22221" fill="#A1A1A1"/>
<rect x="183.408" y="339.699" width="5.2681" height="5.22221" fill="#A1A1A1"/>
<rect x="183.408" y="459.812" width="5.2681" height="5.22221" fill="#A1A1A1"/>
<rect x="178.14" y="579.922" width="5.2681" height="5.22221" fill="#A1A1A1"/>
<rect x="56.9736" y="339.699" width="5.2681" height="5.22221" fill="#A1A1A1"/>
<rect x="56.9736" y="459.812" width="5.2681" height="5.22221" fill="#A1A1A1"/>
<rect x="56.9736" y="579.922" width="5.2681" height="5.22221" fill="#A1A1A1"/>
<rect x="141.263" y="339.699" width="5.2681" height="5.22221" fill="#A1A1A1"/>
<rect x="262.43" y="459.812" width="5.2681" height="5.22221" fill="#A1A1A1"/>
<rect x="141.263" y="459.812" width="5.2681" height="5.22221" fill="#A1A1A1"/>
<rect x="225.553" y="339.699" width="5.2681" height="5.22221" fill="#A1A1A1"/>
<rect x="225.553" y="459.812" width="5.2681" height="5.22221" fill="#A1A1A1"/>
<rect x="220.285" y="579.922" width="5.2681" height="5.22221" fill="#A1A1A1"/>
<rect x="246.625" y="339.699" width="5.2681" height="5.22221" fill="#A1A1A1"/>
<rect x="246.625" y="459.812" width="5.2681" height="5.22221" fill="#A1A1A1"/>
<rect x="241.357" y="579.922" width="5.2681" height="5.22221" fill="#A1A1A1"/>
<rect x="35.9014" y="339.699" width="5.2681" height="5.22221" fill="#A1A1A1"/>
<rect x="35.9014" y="459.812" width="5.2681" height="5.22221" fill="#A1A1A1"/>
<rect x="35.9014" y="579.922" width="5.2681" height="5.22221" fill="#A1A1A1"/>
<rect x="120.191" y="339.699" width="5.2681" height="5.22221" fill="#A1A1A1"/>
<rect x="120.191" y="459.812" width="5.2681" height="5.22221" fill="#A1A1A1"/>
<rect x="120.191" y="579.922" width="5.2681" height="5.22221" fill="#A1A1A1"/>
<rect x="204.48" y="339.699" width="5.2681" height="5.22221" fill="#A1A1A1"/>
<rect x="204.48" y="459.812" width="5.2681" height="5.22221" fill="#A1A1A1"/>
<rect x="199.212" y="579.922" width="5.2681" height="5.22221" fill="#A1A1A1"/>
<rect x="78.0459" y="339.699" width="5.2681" height="5.22221" fill="#A1A1A1"/>
<rect x="78.0459" y="459.812" width="5.2681" height="5.22221" fill="#A1A1A1"/>
<rect x="78.0459" y="579.922" width="5.2681" height="5.22221" fill="#A1A1A1"/>
<rect x="162.335" y="339.699" width="5.2681" height="5.22221" fill="#A1A1A1"/>
<rect x="162.335" y="459.812" width="5.2681" height="5.22221" fill="#A1A1A1"/>
<rect x="157.067" y="579.922" width="5.2681" height="5.22221" fill="#A1A1A1"/>
<rect x="93.8506" y="339.699" width="5.2681" height="5.22221" fill="#A1A1A1"/>
<rect x="93.8506" y="459.812" width="5.2681" height="5.22221" fill="#A1A1A1"/>
<rect x="93.8506" y="579.922" width="5.2681" height="5.22221" fill="#A1A1A1"/>
<rect x="178.14" y="339.699" width="5.2681" height="5.22221" fill="#A1A1A1"/>
<rect x="178.14" y="459.812" width="5.2681" height="5.22221" fill="#A1A1A1"/>
<rect x="172.872" y="579.922" width="5.2681" height="5.22221" fill="#A1A1A1"/>
<rect x="51.7056" y="339.699" width="5.2681" height="5.22221" fill="#A1A1A1"/>
<rect x="51.7056" y="459.812" width="5.2681" height="5.22221" fill="#A1A1A1"/>
<rect x="51.7056" y="579.922" width="5.2681" height="5.22221" fill="#A1A1A1"/>
<rect x="220.285" y="339.699" width="5.2681" height="5.22221" fill="#A1A1A1"/>
<rect x="220.285" y="459.812" width="5.2681" height="5.22221" fill="#A1A1A1"/>
<rect x="215.017" y="579.922" width="5.2681" height="5.22221" fill="#A1A1A1"/>
<rect x="30.6328" y="339.699" width="5.2681" height="5.22221" fill="#A1A1A1"/>
<rect x="30.6328" y="459.812" width="5.2681" height="5.22221" fill="#A1A1A1"/>
<rect x="30.6328" y="579.922" width="5.2681" height="5.22221" fill="#A1A1A1"/>
<rect x="114.923" y="339.699" width="5.2681" height="5.22221" fill="#A1A1A1"/>
<rect x="114.923" y="459.812" width="5.2681" height="5.22221" fill="#A1A1A1"/>
<rect x="114.923" y="579.922" width="5.2681" height="5.22221" fill="#A1A1A1"/>
<rect x="199.212" y="339.699" width="5.2681" height="5.22221" fill="#A1A1A1"/>
<rect x="199.212" y="459.812" width="5.2681" height="5.22221" fill="#A1A1A1"/>
<rect x="193.944" y="579.922" width="5.2681" height="5.22221" fill="#A1A1A1"/>
<rect x="72.7778" y="339.699" width="5.2681" height="5.22221" fill="#A1A1A1"/>
<rect x="72.7778" y="459.812" width="5.2681" height="5.22221" fill="#A1A1A1"/>
<rect x="72.7778" y="579.922" width="5.2681" height="5.22221" fill="#A1A1A1"/>
<rect x="157.067" y="339.699" width="5.2681" height="5.22221" fill="#A1A1A1"/>
<rect x="157.067" y="459.812" width="5.2681" height="5.22221" fill="#A1A1A1"/>
<rect x="151.799" y="579.922" width="5.2681" height="5.22221" fill="#A1A1A1"/>
<rect x="241.357" y="339.699" width="5.2681" height="5.22221" fill="#A1A1A1"/>
<rect x="241.357" y="459.812" width="5.2681" height="5.22221" fill="#A1A1A1"/>
<rect x="236.089" y="579.922" width="5.2681" height="5.22221" fill="#A1A1A1"/>
<rect x="262.43" y="585.141" width="5.2681" height="5.22221" fill="#A1A1A1"/>
<rect x="141.263" y="585.141" width="5.2681" height="5.22221" fill="#A1A1A1"/>
<rect x="20.0972" y="339.699" width="5.2681" height="5.22221" fill="#A1A1A1"/>
<rect x="20.0972" y="459.812" width="5.2681" height="5.22221" fill="#A1A1A1"/>
<rect x="20.0972" y="461.676" width="5.2681" height="5.22221" fill="#A1A1A1"/>
<rect x="104.386" y="339.699" width="5.2681" height="5.22221" fill="#A1A1A1"/>
<rect x="104.386" y="459.812" width="5.2681" height="5.22221" fill="#A1A1A1"/>
<rect x="104.386" y="579.922" width="5.2681" height="5.22221" fill="#A1A1A1"/>
<rect x="188.676" y="339.699" width="5.2681" height="5.22221" fill="#A1A1A1"/>
<rect x="188.676" y="459.812" width="5.2681" height="5.22221" fill="#A1A1A1"/>
<rect x="183.408" y="579.922" width="5.2681" height="5.22221" fill="#A1A1A1"/>
<rect x="62.2417" y="339.699" width="5.2681" height="5.22221" fill="#A1A1A1"/>
<rect x="62.2417" y="459.812" width="5.2681" height="5.22221" fill="#A1A1A1"/>
<rect x="62.2417" y="579.922" width="5.2681" height="5.22221" fill="#A1A1A1"/>
<rect x="146.531" y="339.699" width="5.2681" height="5.22221" fill="#A1A1A1"/>
<rect x="146.531" y="459.812" width="5.2681" height="5.22221" fill="#A1A1A1"/>
<rect x="141.263" y="579.922" width="5.2681" height="5.22221" fill="#A1A1A1"/>
<rect x="230.821" y="339.699" width="5.2681" height="5.22221" fill="#A1A1A1"/>
<rect x="230.821" y="459.812" width="5.2681" height="5.22221" fill="#A1A1A1"/>
<rect x="225.553" y="579.922" width="5.2681" height="5.22221" fill="#A1A1A1"/>
<rect x="251.893" y="339.699" width="5.2681" height="5.22221" fill="#A1A1A1"/>
<rect x="251.893" y="459.812" width="5.2681" height="5.22221" fill="#A1A1A1"/>
<rect x="251.893" y="585.141" width="5.2681" height="5.22221" fill="#A1A1A1"/>
<rect x="130.727" y="585.141" width="5.2681" height="5.22221" fill="#A1A1A1"/>
<rect x="41.1694" y="339.699" width="5.2681" height="5.22221" fill="#A1A1A1"/>
<rect x="41.1694" y="459.812" width="5.2681" height="5.22221" fill="#A1A1A1"/>
<rect x="41.1694" y="579.922" width="5.2681" height="5.22221" fill="#A1A1A1"/>
<rect x="125.459" y="339.699" width="5.2681" height="5.22221" fill="#A1A1A1"/>
<rect x="125.459" y="459.812" width="5.2681" height="5.22221" fill="#A1A1A1"/>
<rect x="125.459" y="579.922" width="5.2681" height="5.22221" fill="#A1A1A1"/>
<rect x="209.749" y="339.699" width="5.2681" height="5.22221" fill="#A1A1A1"/>
<rect x="209.749" y="459.812" width="5.2681" height="5.22221" fill="#A1A1A1"/>
<rect x="204.48" y="579.922" width="5.2681" height="5.22221" fill="#A1A1A1"/>
<rect x="83.314" y="339.699" width="5.2681" height="5.22221" fill="#A1A1A1"/>
<rect x="83.314" y="459.812" width="5.2681" height="5.22221" fill="#A1A1A1"/>
<rect x="83.314" y="579.922" width="5.2681" height="5.22221" fill="#A1A1A1"/>
<rect x="167.604" y="339.699" width="5.2681" height="5.22221" fill="#A1A1A1"/>
<rect x="167.604" y="459.812" width="5.2681" height="5.22221" fill="#A1A1A1"/>
<rect x="162.335" y="579.922" width="5.2681" height="5.22221" fill="#A1A1A1"/>
<rect x="172.872" y="339.699" width="5.2681" height="5.22221" fill="#A1A1A1"/>
<rect x="172.872" y="459.812" width="5.2681" height="5.22221" fill="#A1A1A1"/>
<rect x="167.604" y="579.922" width="5.2681" height="5.22221" fill="#A1A1A1"/>
<rect x="262.43" y="334.477" width="5.22221" height="5.2681" transform="rotate(90 262.43 334.477)" fill="#A1A1A1"/>
<rect x="141.263" y="334.477" width="5.22221" height="5.2681" transform="rotate(90 141.263 334.477)" fill="#A1A1A1"/>
<rect x="262.43" y="454.586" width="5.22221" height="5.2681" transform="rotate(90 262.43 454.586)" fill="#A1A1A1"/>
<rect x="267.698" y="339.699" width="5.22221" height="5.2681" transform="rotate(90 267.698 339.699)" fill="#A1A1A1"/>
<rect x="267.698" y="344.922" width="5.22221" height="5.2681" transform="rotate(90 267.698 344.922)" fill="#A1A1A1"/>
<rect x="146.531" y="344.922" width="5.22221" height="5.2681" transform="rotate(90 146.531 344.922)" fill="#A1A1A1"/>
<rect x="267.698" y="465.031" width="5.22221" height="5.2681" transform="rotate(90 267.698 465.031)" fill="#A1A1A1"/>
<rect x="262.43" y="418.031" width="5.22221" height="5.2681" transform="rotate(90 262.43 418.031)" fill="#A1A1A1"/>
<rect x="141.263" y="418.031" width="5.22221" height="5.2681" transform="rotate(90 141.263 418.031)" fill="#A1A1A1"/>
<rect x="262.43" y="376.254" width="5.22221" height="5.2681" transform="rotate(90 262.43 376.254)" fill="#A1A1A1"/>
<rect x="141.263" y="376.254" width="5.22221" height="5.2681" transform="rotate(90 141.263 376.254)" fill="#A1A1A1"/>
<rect x="262.43" y="454.586" width="5.22221" height="5.2681" transform="rotate(90 262.43 454.586)" fill="#A1A1A1"/>
<rect x="141.263" y="454.586" width="5.22221" height="5.2681" transform="rotate(90 141.263 454.586)" fill="#A1A1A1"/>
<rect x="262.43" y="543.363" width="5.22221" height="5.2681" transform="rotate(90 262.43 543.363)" fill="#A1A1A1"/>
<rect x="141.263" y="543.363" width="5.22221" height="5.2681" transform="rotate(90 141.263 543.363)" fill="#A1A1A1"/>
<rect x="262.43" y="355.363" width="5.22221" height="5.2681" transform="rotate(90 262.43 355.363)" fill="#A1A1A1"/>
<rect x="141.263" y="355.363" width="5.22221" height="5.2681" transform="rotate(90 141.263 355.363)" fill="#A1A1A1"/>
<rect x="262.43" y="438.922" width="5.22221" height="5.2681" transform="rotate(90 262.43 438.922)" fill="#A1A1A1"/>
<rect x="141.263" y="438.922" width="5.22221" height="5.2681" transform="rotate(90 141.263 438.922)" fill="#A1A1A1"/>
<rect x="262.43" y="522.477" width="5.22221" height="5.2681" transform="rotate(90 262.43 522.477)" fill="#A1A1A1"/>
<rect x="141.263" y="522.477" width="5.22221" height="5.2681" transform="rotate(90 141.263 522.477)" fill="#A1A1A1"/>
<rect x="262.43" y="397.141" width="5.22221" height="5.2681" transform="rotate(90 262.43 397.141)" fill="#A1A1A1"/>
<rect x="141.263" y="397.141" width="5.22221" height="5.2681" transform="rotate(90 141.263 397.141)" fill="#A1A1A1"/>
<rect x="262.43" y="480.699" width="5.22221" height="5.2681" transform="rotate(90 262.43 480.699)" fill="#A1A1A1"/>
<rect x="141.263" y="480.699" width="5.22221" height="5.2681" transform="rotate(90 141.263 480.699)" fill="#A1A1A1"/>
<rect x="262.43" y="564.254" width="5.22221" height="5.2681" transform="rotate(90 262.43 564.254)" fill="#A1A1A1"/>
<rect x="141.263" y="564.254" width="5.22221" height="5.2681" transform="rotate(90 141.263 564.254)" fill="#A1A1A1"/>
<rect x="257.162" y="585.141" width="5.22221" height="5.2681" transform="rotate(90 257.162 585.141)" fill="#A1A1A1"/>
<rect x="135.995" y="585.141" width="5.22221" height="5.2681" transform="rotate(90 135.995 585.141)" fill="#A1A1A1"/>
<rect x="262.43" y="344.922" width="5.22221" height="5.2681" transform="rotate(90 262.43 344.922)" fill="#A1A1A1"/>
<rect x="141.263" y="344.922" width="5.22221" height="5.2681" transform="rotate(90 141.263 344.922)" fill="#A1A1A1"/>
<rect x="262.43" y="465.031" width="5.22221" height="5.2681" transform="rotate(90 262.43 465.031)" fill="#A1A1A1"/>
<rect x="262.43" y="428.477" width="5.22221" height="5.2681" transform="rotate(90 262.43 428.477)" fill="#A1A1A1"/>
<rect x="141.263" y="428.477" width="5.22221" height="5.2681" transform="rotate(90 141.263 428.477)" fill="#A1A1A1"/>
<rect x="262.43" y="512.031" width="5.22221" height="5.2681" transform="rotate(90 262.43 512.031)" fill="#A1A1A1"/>
<rect x="141.263" y="512.031" width="5.22221" height="5.2681" transform="rotate(90 141.263 512.031)" fill="#A1A1A1"/>
<rect x="262.43" y="386.699" width="5.22221" height="5.2681" transform="rotate(90 262.43 386.699)" fill="#A1A1A1"/>
<rect x="141.263" y="386.699" width="5.22221" height="5.2681" transform="rotate(90 141.263 386.699)" fill="#A1A1A1"/>
<rect x="262.43" y="470.254" width="5.22221" height="5.2681" transform="rotate(90 262.43 470.254)" fill="#A1A1A1"/>
<rect x="262.43" y="465.031" width="5.22221" height="5.2681" transform="rotate(90 262.43 465.031)" fill="#A1A1A1"/>
<rect x="262.43" y="553.812" width="5.22221" height="5.2681" transform="rotate(90 262.43 553.812)" fill="#A1A1A1"/>
<rect x="141.263" y="553.812" width="5.22221" height="5.2681" transform="rotate(90 141.263 553.812)" fill="#A1A1A1"/>
<rect x="267.698" y="579.922" width="5.22221" height="5.2681" transform="rotate(90 267.698 579.922)" fill="#A1A1A1"/>
<rect x="146.531" y="579.922" width="5.22221" height="5.2681" transform="rotate(90 146.531 579.922)" fill="#A1A1A1"/>
<rect x="141.263" y="574.699" width="5.22221" height="5.2681" transform="rotate(90 141.263 574.699)" fill="#A1A1A1"/>
<rect x="262.43" y="365.812" width="5.22221" height="5.2681" transform="rotate(90 262.43 365.812)" fill="#A1A1A1"/>
<rect x="141.263" y="365.812" width="5.22221" height="5.2681" transform="rotate(90 141.263 365.812)" fill="#A1A1A1"/>
<rect x="262.43" y="449.363" width="5.22221" height="5.2681" transform="rotate(90 262.43 449.363)" fill="#A1A1A1"/>
<rect x="141.263" y="449.363" width="5.22221" height="5.2681" transform="rotate(90 141.263 449.363)" fill="#A1A1A1"/>
<rect x="262.43" y="532.918" width="5.22221" height="5.2681" transform="rotate(90 262.43 532.918)" fill="#A1A1A1"/>
<rect x="141.263" y="532.918" width="5.22221" height="5.2681" transform="rotate(90 141.263 532.918)" fill="#A1A1A1"/>
<rect x="262.43" y="407.59" width="5.22221" height="5.2681" transform="rotate(90 262.43 407.59)" fill="#A1A1A1"/>
<rect x="141.263" y="407.59" width="5.22221" height="5.2681" transform="rotate(90 141.263 407.59)" fill="#A1A1A1"/>
<rect x="262.43" y="491.141" width="5.22221" height="5.2681" transform="rotate(90 262.43 491.141)" fill="#A1A1A1"/>
<rect x="141.263" y="491.141" width="5.22221" height="5.2681" transform="rotate(90 141.263 491.141)" fill="#A1A1A1"/>
<rect x="262.43" y="423.254" width="5.22221" height="5.2681" transform="rotate(90 262.43 423.254)" fill="#A1A1A1"/>
<rect x="141.263" y="423.254" width="5.22221" height="5.2681" transform="rotate(90 141.263 423.254)" fill="#A1A1A1"/>
<rect x="262.43" y="506.809" width="5.22221" height="5.2681" transform="rotate(90 262.43 506.809)" fill="#A1A1A1"/>
<rect x="141.263" y="506.809" width="5.22221" height="5.2681" transform="rotate(90 141.263 506.809)" fill="#A1A1A1"/>
<rect x="262.43" y="381.477" width="5.22221" height="5.2681" transform="rotate(90 262.43 381.477)" fill="#A1A1A1"/>
<rect x="141.263" y="381.477" width="5.22221" height="5.2681" transform="rotate(90 141.263 381.477)" fill="#A1A1A1"/>
<rect x="262.43" y="465.031" width="5.22221" height="5.2681" transform="rotate(90 262.43 465.031)" fill="#A1A1A1"/>
<rect x="262.43" y="548.586" width="5.22221" height="5.2681" transform="rotate(90 262.43 548.586)" fill="#A1A1A1"/>
<rect x="141.263" y="548.586" width="5.22221" height="5.2681" transform="rotate(90 141.263 548.586)" fill="#A1A1A1"/>
<rect x="262.43" y="360.586" width="5.22221" height="5.2681" transform="rotate(90 262.43 360.586)" fill="#A1A1A1"/>
<rect x="141.263" y="360.586" width="5.22221" height="5.2681" transform="rotate(90 141.263 360.586)" fill="#A1A1A1"/>
<rect x="262.43" y="444.145" width="5.22221" height="5.2681" transform="rotate(90 262.43 444.145)" fill="#A1A1A1"/>
<rect x="141.263" y="444.145" width="5.22221" height="5.2681" transform="rotate(90 141.263 444.145)" fill="#A1A1A1"/>
<rect x="262.43" y="527.699" width="5.22221" height="5.2681" transform="rotate(90 262.43 527.699)" fill="#A1A1A1"/>
<rect x="141.263" y="527.699" width="5.22221" height="5.2681" transform="rotate(90 141.263 527.699)" fill="#A1A1A1"/>
<rect x="262.43" y="402.367" width="5.22221" height="5.2681" transform="rotate(90 262.43 402.367)" fill="#A1A1A1"/>
<rect x="141.263" y="402.367" width="5.22221" height="5.2681" transform="rotate(90 141.263 402.367)" fill="#A1A1A1"/>
<rect x="262.43" y="485.922" width="5.22221" height="5.2681" transform="rotate(90 262.43 485.922)" fill="#A1A1A1"/>
<rect x="141.263" y="485.922" width="5.22221" height="5.2681" transform="rotate(90 141.263 485.922)" fill="#A1A1A1"/>
<rect x="262.43" y="569.477" width="5.22221" height="5.2681" transform="rotate(90 262.43 569.477)" fill="#A1A1A1"/>
<rect x="141.263" y="569.477" width="5.22221" height="5.2681" transform="rotate(90 141.263 569.477)" fill="#A1A1A1"/>
<rect x="262.43" y="350.145" width="5.22221" height="5.2681" transform="rotate(90 262.43 350.145)" fill="#A1A1A1"/>
<rect x="141.263" y="350.145" width="5.22221" height="5.2681" transform="rotate(90 141.263 350.145)" fill="#A1A1A1"/>
<rect x="262.43" y="433.699" width="5.22221" height="5.2681" transform="rotate(90 262.43 433.699)" fill="#A1A1A1"/>
<rect x="141.263" y="433.699" width="5.22221" height="5.2681" transform="rotate(90 141.263 433.699)" fill="#A1A1A1"/>
<rect x="262.43" y="517.254" width="5.22221" height="5.2681" transform="rotate(90 262.43 517.254)" fill="#A1A1A1"/>
<rect x="141.263" y="517.254" width="5.22221" height="5.2681" transform="rotate(90 141.263 517.254)" fill="#A1A1A1"/>
<rect x="262.43" y="391.922" width="5.22221" height="5.2681" transform="rotate(90 262.43 391.922)" fill="#A1A1A1"/>
<rect x="141.263" y="391.922" width="5.22221" height="5.2681" transform="rotate(90 141.263 391.922)" fill="#A1A1A1"/>
<rect x="262.43" y="475.477" width="5.22221" height="5.2681" transform="rotate(90 262.43 475.477)" fill="#A1A1A1"/>
<rect x="262.43" y="559.031" width="5.22221" height="5.2681" transform="rotate(90 262.43 559.031)" fill="#A1A1A1"/>
<rect x="141.263" y="559.031" width="5.22221" height="5.2681" transform="rotate(90 141.263 559.031)" fill="#A1A1A1"/>
<rect x="262.43" y="574.699" width="5.22221" height="5.2681" transform="rotate(90 262.43 574.699)" fill="#A1A1A1"/>
<rect x="141.263" y="574.699" width="5.22221" height="5.2681" transform="rotate(90 141.263 574.699)" fill="#A1A1A1"/>
<rect x="262.43" y="371.031" width="5.22221" height="5.2681" transform="rotate(90 262.43 371.031)" fill="#A1A1A1"/>
<rect x="141.263" y="371.031" width="5.22221" height="5.2681" transform="rotate(90 141.263 371.031)" fill="#A1A1A1"/>
<rect x="262.43" y="454.586" width="5.22221" height="5.2681" transform="rotate(90 262.43 454.586)" fill="#A1A1A1"/>
<rect x="141.263" y="454.586" width="5.22221" height="5.2681" transform="rotate(90 141.263 454.586)" fill="#A1A1A1"/>
<rect x="262.43" y="538.145" width="5.22221" height="5.2681" transform="rotate(90 262.43 538.145)" fill="#A1A1A1"/>
<rect x="141.263" y="538.145" width="5.22221" height="5.2681" transform="rotate(90 141.263 538.145)" fill="#A1A1A1"/>
<rect x="262.43" y="412.809" width="5.22221" height="5.2681" transform="rotate(90 262.43 412.809)" fill="#A1A1A1"/>
<rect x="141.263" y="412.809" width="5.22221" height="5.2681" transform="rotate(90 141.263 412.809)" fill="#A1A1A1"/>
<rect x="262.43" y="496.367" width="5.22221" height="5.2681" transform="rotate(90 262.43 496.367)" fill="#A1A1A1"/>
<rect x="141.263" y="496.367" width="5.22221" height="5.2681" transform="rotate(90 141.263 496.367)" fill="#A1A1A1"/>
<rect x="262.43" y="501.59" width="5.22221" height="5.2681" transform="rotate(90 262.43 501.59)" fill="#A1A1A1"/>
<rect x="141.263" y="501.59" width="5.22221" height="5.2681" transform="rotate(90 141.263 501.59)" fill="#A1A1A1"/>
<rect x="257.162" y="512.031" width="5.2681" height="5.22221" fill="#A1A1A1"/>
<rect x="135.995" y="512.031" width="5.2681" height="5.22221" fill="#A1A1A1"/>
<rect x="257.162" y="438.922" width="5.2681" height="5.22221" fill="#A1A1A1"/>
<rect x="135.995" y="438.922" width="5.2681" height="5.22221" fill="#A1A1A1"/>
<rect x="257.162" y="365.812" width="5.2681" height="5.22221" fill="#A1A1A1"/>
<rect x="135.995" y="365.812" width="5.2681" height="5.22221" fill="#A1A1A1"/>
<rect x="257.162" y="548.586" width="5.2681" height="5.22221" fill="#A1A1A1"/>
<rect x="135.995" y="548.586" width="5.2681" height="5.22221" fill="#A1A1A1"/>
<rect x="257.162" y="475.477" width="5.2681" height="5.22221" fill="#A1A1A1"/>
<rect x="257.162" y="402.367" width="5.2681" height="5.22221" fill="#A1A1A1"/>
<rect x="135.995" y="402.367" width="5.2681" height="5.22221" fill="#A1A1A1"/>
<rect x="14.8286" y="334.477" width="5.22221" height="5.2681" transform="rotate(90 14.8286 334.477)" fill="#A1A1A1"/>
<rect x="14.8286" y="454.586" width="5.22221" height="5.2681" transform="rotate(90 14.8286 454.586)" fill="#A1A1A1"/>
<rect x="14.8286" y="344.922" width="5.22221" height="5.2681" transform="rotate(90 14.8286 344.922)" fill="#A1A1A1"/>
<rect x="14.8286" y="465.031" width="5.22221" height="5.2681" transform="rotate(90 14.8286 465.031)" fill="#A1A1A1"/>
<rect x="14.8286" y="339.699" width="5.22221" height="5.2681" transform="rotate(90 14.8286 339.699)" fill="#A1A1A1"/>
<rect x="14.8286" y="459.812" width="5.22221" height="5.2681" transform="rotate(90 14.8286 459.812)" fill="#A1A1A1"/>
<rect x="14.8286" y="454.586" width="5.22221" height="5.2681" transform="rotate(90 14.8286 454.586)" fill="#A1A1A1"/>
<rect x="20.0972" y="334.477" width="5.22221" height="5.2681" transform="rotate(90 20.0972 334.477)" fill="#A1A1A1"/>
<rect x="20.0972" y="454.586" width="5.22221" height="5.2681" transform="rotate(90 20.0972 454.586)" fill="#A1A1A1"/>
<rect x="20.0972" y="449.363" width="5.22221" height="5.2681" transform="rotate(90 20.0972 449.363)" fill="#A1A1A1"/>
<rect x="46.4375" y="365.812" width="5.22221" height="5.2681" transform="rotate(90 46.4375 365.812)" fill="#A1A1A1"/>
<rect x="78.0459" y="397.141" width="5.22221" height="5.2681" transform="rotate(90 78.0459 397.141)" fill="#A1A1A1"/>
<rect x="109.655" y="428.477" width="5.22221" height="5.2681" transform="rotate(90 109.655 428.477)" fill="#A1A1A1"/>
<rect x="146.531" y="459.812" width="5.22221" height="5.2681" transform="rotate(90 146.531 459.812)" fill="#A1A1A1"/>
<rect x="146.531" y="465.031" width="5.22221" height="5.2681" transform="rotate(90 146.531 465.031)" fill="#A1A1A1"/>
<rect x="209.749" y="527.699" width="5.22221" height="5.2681" transform="rotate(90 209.749 527.699)" fill="#A1A1A1"/>
<rect x="178.14" y="496.367" width="5.22221" height="5.2681" transform="rotate(90 178.14 496.367)" fill="#A1A1A1"/>
<rect x="241.357" y="559.031" width="5.22221" height="5.2681" transform="rotate(90 241.357 559.031)" fill="#A1A1A1"/>
<rect x="51.7056" y="371.031" width="5.22221" height="5.2681" transform="rotate(90 51.7056 371.031)" fill="#A1A1A1"/>
<rect x="83.314" y="402.367" width="5.22221" height="5.2681" transform="rotate(90 83.314 402.367)" fill="#A1A1A1"/>
<rect x="114.923" y="433.699" width="5.22221" height="5.2681" transform="rotate(90 114.923 433.699)" fill="#A1A1A1"/>
<rect x="151.799" y="470.254" width="5.22221" height="5.2681" transform="rotate(90 151.799 470.254)" fill="#A1A1A1"/>
<rect x="215.017" y="532.918" width="5.22221" height="5.2681" transform="rotate(90 215.017 532.918)" fill="#A1A1A1"/>
<rect x="183.408" y="501.59" width="5.22221" height="5.2681" transform="rotate(90 183.408 501.59)" fill="#A1A1A1"/>
<rect x="246.625" y="564.254" width="5.22221" height="5.2681" transform="rotate(90 246.625 564.254)" fill="#A1A1A1"/>
<rect x="25.3647" y="344.922" width="5.22221" height="5.2681" transform="rotate(90 25.3647 344.922)" fill="#A1A1A1"/>
<rect x="25.3647" y="465.031" width="5.22221" height="5.2681" transform="rotate(90 25.3647 465.031)" fill="#A1A1A1"/>
<rect x="56.9736" y="376.254" width="5.22221" height="5.2681" transform="rotate(90 56.9736 376.254)" fill="#A1A1A1"/>
<rect x="88.582" y="407.59" width="5.22221" height="5.2681" transform="rotate(90 88.582 407.59)" fill="#A1A1A1"/>
<rect x="120.191" y="438.922" width="5.22221" height="5.2681" transform="rotate(90 120.191 438.922)" fill="#A1A1A1"/>
<rect x="157.067" y="475.477" width="5.22221" height="5.2681" transform="rotate(90 157.067 475.477)" fill="#A1A1A1"/>
<rect x="220.285" y="538.145" width="5.22221" height="5.2681" transform="rotate(90 220.285 538.145)" fill="#A1A1A1"/>
<rect x="188.676" y="506.809" width="5.22221" height="5.2681" transform="rotate(90 188.676 506.809)" fill="#A1A1A1"/>
<rect x="251.893" y="569.477" width="5.22221" height="5.2681" transform="rotate(90 251.893 569.477)" fill="#A1A1A1"/>
<rect x="30.6328" y="350.145" width="5.22221" height="5.2681" transform="rotate(90 30.6328 350.145)" fill="#A1A1A1"/>
<rect x="62.2417" y="381.477" width="5.22221" height="5.2681" transform="rotate(90 62.2417 381.477)" fill="#A1A1A1"/>
<rect x="93.8506" y="412.809" width="5.22221" height="5.2681" transform="rotate(90 93.8506 412.809)" fill="#A1A1A1"/>
<rect x="125.459" y="444.145" width="5.22221" height="5.2681" transform="rotate(90 125.459 444.145)" fill="#A1A1A1"/>
<rect x="162.335" y="480.699" width="5.22221" height="5.2681" transform="rotate(90 162.335 480.699)" fill="#A1A1A1"/>
<rect x="225.553" y="543.363" width="5.22221" height="5.2681" transform="rotate(90 225.553 543.363)" fill="#A1A1A1"/>
<rect x="193.944" y="512.031" width="5.22221" height="5.2681" transform="rotate(90 193.944 512.031)" fill="#A1A1A1"/>
<rect x="262.43" y="585.141" width="5.22221" height="5.2681" transform="rotate(90 262.43 585.141)" fill="#A1A1A1"/>
<rect x="141.263" y="585.141" width="5.22221" height="5.2681" transform="rotate(90 141.263 585.141)" fill="#A1A1A1"/>
<rect x="35.9014" y="355.363" width="5.22221" height="5.2681" transform="rotate(90 35.9014 355.363)" fill="#A1A1A1"/>
<rect x="67.5098" y="386.699" width="5.22221" height="5.2681" transform="rotate(90 67.5098 386.699)" fill="#A1A1A1"/>
<rect x="99.1187" y="418.031" width="5.22221" height="5.2681" transform="rotate(90 99.1187 418.031)" fill="#A1A1A1"/>
<rect x="130.727" y="449.363" width="5.22221" height="5.2681" transform="rotate(90 130.727 449.363)" fill="#A1A1A1"/>
<rect x="167.604" y="485.922" width="5.22221" height="5.2681" transform="rotate(90 167.604 485.922)" fill="#A1A1A1"/>
<rect x="230.821" y="548.586" width="5.22221" height="5.2681" transform="rotate(90 230.821 548.586)" fill="#A1A1A1"/>
<rect x="199.212" y="517.254" width="5.22221" height="5.2681" transform="rotate(90 199.212 517.254)" fill="#A1A1A1"/>
<rect x="251.893" y="579.922" width="5.22221" height="5.2681" transform="rotate(90 251.893 579.922)" fill="#A1A1A1"/>
<rect x="257.162" y="579.922" width="5.22221" height="5.2681" transform="rotate(90 257.162 579.922)" fill="#A1A1A1"/>
<rect x="135.995" y="579.922" width="5.22221" height="5.2681" transform="rotate(90 135.995 579.922)" fill="#A1A1A1"/>
<rect x="41.1694" y="360.586" width="5.22221" height="5.2681" transform="rotate(90 41.1694 360.586)" fill="#A1A1A1"/>
<rect x="72.7778" y="391.922" width="5.22221" height="5.2681" transform="rotate(90 72.7778 391.922)" fill="#A1A1A1"/>
<rect x="104.386" y="423.254" width="5.22221" height="5.2681" transform="rotate(90 104.386 423.254)" fill="#A1A1A1"/>
<rect x="135.995" y="454.586" width="5.22221" height="5.2681" transform="rotate(90 135.995 454.586)" fill="#A1A1A1"/>
<rect x="172.872" y="491.141" width="5.22221" height="5.2681" transform="rotate(90 172.872 491.141)" fill="#A1A1A1"/>
<rect x="236.089" y="553.812" width="5.22221" height="5.2681" transform="rotate(90 236.089 553.812)" fill="#A1A1A1"/>
<rect x="204.48" y="522.477" width="5.22221" height="5.2681" transform="rotate(90 204.48 522.477)" fill="#A1A1A1"/>
<rect x="257.162" y="574.699" width="5.22221" height="5.2681" transform="rotate(90 257.162 574.699)" fill="#A1A1A1"/>
<rect x="135.995" y="574.699" width="5.22221" height="5.2681" transform="rotate(90 135.995 574.699)" fill="#A1A1A1"/>
<rect x="20.0972" y="466.898" width="5.22221" height="5.2681" transform="rotate(90 20.0972 466.898)" fill="#A1A1A1"/>
<rect x="20.0972" y="412.809" width="5.22221" height="5.2681" transform="rotate(90 20.0972 412.809)" fill="#A1A1A1"/>
<rect x="20.0972" y="371.031" width="5.22221" height="5.2681" transform="rotate(90 20.0972 371.031)" fill="#A1A1A1"/>
<rect x="20.0972" y="538.145" width="5.22221" height="5.2681" transform="rotate(90 20.0972 538.145)" fill="#A1A1A1"/>
<rect x="20.0972" y="350.145" width="5.22221" height="5.2681" transform="rotate(90 20.0972 350.145)" fill="#A1A1A1"/>
<rect x="20.0972" y="433.699" width="5.22221" height="5.2681" transform="rotate(90 20.0972 433.699)" fill="#A1A1A1"/>
<rect x="20.0972" y="517.254" width="5.22221" height="5.2681" transform="rotate(90 20.0972 517.254)" fill="#A1A1A1"/>
<rect x="20.0972" y="391.922" width="5.22221" height="5.2681" transform="rotate(90 20.0972 391.922)" fill="#A1A1A1"/>
<rect x="20.0972" y="475.477" width="5.22221" height="5.2681" transform="rotate(90 20.0972 475.477)" fill="#A1A1A1"/>
<rect x="20.0972" y="559.031" width="5.22221" height="5.2681" transform="rotate(90 20.0972 559.031)" fill="#A1A1A1"/>
<rect x="20.0972" y="423.254" width="5.22221" height="5.2681" transform="rotate(90 20.0972 423.254)" fill="#A1A1A1"/>
<rect x="20.0972" y="506.809" width="5.22221" height="5.2681" transform="rotate(90 20.0972 506.809)" fill="#A1A1A1"/>
<rect x="20.0972" y="381.477" width="5.22221" height="5.2681" transform="rotate(90 20.0972 381.477)" fill="#A1A1A1"/>
<rect x="20.0972" y="466.898" width="5.22221" height="5.2681" transform="rotate(90 20.0972 466.898)" fill="#A1A1A1"/>
<rect x="20.0972" y="548.586" width="5.22221" height="5.2681" transform="rotate(90 20.0972 548.586)" fill="#A1A1A1"/>
<rect x="20.0972" y="569.477" width="5.22221" height="5.2681" transform="rotate(90 20.0972 569.477)" fill="#A1A1A1"/>
<rect x="20.0972" y="360.586" width="5.22221" height="5.2681" transform="rotate(90 20.0972 360.586)" fill="#A1A1A1"/>
<rect x="20.0972" y="444.145" width="5.22221" height="5.2681" transform="rotate(90 20.0972 444.145)" fill="#A1A1A1"/>
<rect x="20.0972" y="527.699" width="5.22221" height="5.2681" transform="rotate(90 20.0972 527.699)" fill="#A1A1A1"/>
<rect x="20.0972" y="402.367" width="5.22221" height="5.2681" transform="rotate(90 20.0972 402.367)" fill="#A1A1A1"/>
<rect x="20.0972" y="485.922" width="5.22221" height="5.2681" transform="rotate(90 20.0972 485.922)" fill="#A1A1A1"/>
<rect x="20.0972" y="418.031" width="5.22221" height="5.2681" transform="rotate(90 20.0972 418.031)" fill="#A1A1A1"/>
<rect x="20.0972" y="501.59" width="5.22221" height="5.2681" transform="rotate(90 20.0972 501.59)" fill="#A1A1A1"/>
<rect x="20.0972" y="376.254" width="5.22221" height="5.2681" transform="rotate(90 20.0972 376.254)" fill="#A1A1A1"/>
<rect x="20.0972" y="543.363" width="5.22221" height="5.2681" transform="rotate(90 20.0972 543.363)" fill="#A1A1A1"/>
<rect x="20.0972" y="355.363" width="5.22221" height="5.2681" transform="rotate(90 20.0972 355.363)" fill="#A1A1A1"/>
<rect x="20.0972" y="438.922" width="5.22221" height="5.2681" transform="rotate(90 20.0972 438.922)" fill="#A1A1A1"/>
<rect x="20.0972" y="522.477" width="5.22221" height="5.2681" transform="rotate(90 20.0972 522.477)" fill="#A1A1A1"/>
<rect x="20.0972" y="397.141" width="5.22221" height="5.2681" transform="rotate(90 20.0972 397.141)" fill="#A1A1A1"/>
<rect x="20.0972" y="480.699" width="5.22221" height="5.2681" transform="rotate(90 20.0972 480.699)" fill="#A1A1A1"/>
<rect x="20.0972" y="564.254" width="5.22221" height="5.2681" transform="rotate(90 20.0972 564.254)" fill="#A1A1A1"/>
<rect x="20.0972" y="344.922" width="5.22221" height="5.2681" transform="rotate(90 20.0972 344.922)" fill="#A1A1A1"/>
<rect x="20.0972" y="465.031" width="5.22221" height="5.2681" transform="rotate(90 20.0972 465.031)" fill="#A1A1A1"/>
<rect x="20.0972" y="428.477" width="5.22221" height="5.2681" transform="rotate(90 20.0972 428.477)" fill="#A1A1A1"/>
<rect x="20.0972" y="512.031" width="5.22221" height="5.2681" transform="rotate(90 20.0972 512.031)" fill="#A1A1A1"/>
<rect x="20.0972" y="386.699" width="5.22221" height="5.2681" transform="rotate(90 20.0972 386.699)" fill="#A1A1A1"/>
<rect x="20.0972" y="470.254" width="5.22221" height="5.2681" transform="rotate(90 20.0972 470.254)" fill="#A1A1A1"/>
<rect x="20.0972" y="466.898" width="5.22221" height="5.2681" transform="rotate(90 20.0972 466.898)" fill="#A1A1A1"/>
<rect x="20.0972" y="553.812" width="5.22221" height="5.2681" transform="rotate(90 20.0972 553.812)" fill="#A1A1A1"/>
<rect x="20.0972" y="574.699" width="5.22221" height="5.2681" transform="rotate(90 20.0972 574.699)" fill="#A1A1A1"/>
<rect x="20.0972" y="365.812" width="5.22221" height="5.2681" transform="rotate(90 20.0972 365.812)" fill="#A1A1A1"/>
<rect x="20.0972" y="532.918" width="5.22221" height="5.2681" transform="rotate(90 20.0972 532.918)" fill="#A1A1A1"/>
<rect x="20.0972" y="407.59" width="5.22221" height="5.2681" transform="rotate(90 20.0972 407.59)" fill="#A1A1A1"/>
<rect x="20.0972" y="491.141" width="5.22221" height="5.2681" transform="rotate(90 20.0972 491.141)" fill="#A1A1A1"/>
<rect x="20.0972" y="496.367" width="5.22221" height="5.2681" transform="rotate(90 20.0972 496.367)" fill="#A1A1A1"/>
<rect x="14.8286" y="506.809" width="5.2681" height="5.22221" fill="#A1A1A1"/>
<rect x="14.8286" y="433.699" width="5.2681" height="5.22221" fill="#A1A1A1"/>
<rect x="14.8286" y="360.586" width="5.2681" height="5.22221" fill="#A1A1A1"/>
<rect x="14.8286" y="543.363" width="5.2681" height="5.22221" fill="#A1A1A1"/>
<rect x="14.8286" y="470.254" width="5.2681" height="5.22221" fill="#A1A1A1"/>
<rect x="14.8286" y="397.141" width="5.2681" height="5.22221" fill="#A1A1A1"/>
<rect x="20.0972" y="334.477" width="5.2681" height="5.22221" fill="#A1A1A1"/>
<rect x="20.0972" y="454.586" width="5.2681" height="5.22221" fill="#A1A1A1"/>
<rect x="20.0972" y="585.141" width="5.2681" height="5.22221" fill="#A1A1A1"/>
<rect x="251.894" y="334.477" width="5.2681" height="5.22221" fill="#A1A1A1"/>
<rect x="130.727" y="334.477" width="5.2681" height="5.22221" fill="#A1A1A1"/>
<rect x="251.893" y="454.586" width="5.2681" height="5.22221" fill="#A1A1A1"/>
<rect x="262.43" y="579.922" width="5.22221" height="5.2681" transform="rotate(-90 262.43 579.922)" fill="#A1A1A1"/>
<rect x="141.263" y="579.922" width="5.22221" height="5.2681" transform="rotate(-90 141.263 579.922)" fill="#A1A1A1"/>
<rect x="135.995" y="475.477" width="5.2681" height="5.22221" fill="#A1A1A1"/>
<rect x="135.995" y="470.254" width="5.2681" height="5.22221" fill="#A1A1A1"/>
<rect x="135.995" y="465.031" width="5.2681" height="5.22221" fill="#A1A1A1"/>
<rect x="267.698" y="334.477" width="5.22221" height="5.2681" transform="rotate(90 267.698 334.477)" fill="#A1A1A1"/>
<rect x="146.531" y="334.477" width="5.22221" height="5.2681" transform="rotate(90 146.531 334.477)" fill="#A1A1A1"/>
<rect x="267.698" y="454.586" width="5.22221" height="5.2681" transform="rotate(90 267.698 454.586)" fill="#A1A1A1"/>
<rect x="225.553" y="376.254" width="5.22221" height="5.2681" transform="rotate(90 225.553 376.254)" fill="#A1A1A1"/>
<rect x="183.408" y="418.031" width="5.22221" height="5.2681" transform="rotate(90 183.408 418.031)" fill="#A1A1A1"/>
<rect x="99.1187" y="501.59" width="5.22221" height="5.2681" transform="rotate(90 99.1187 501.59)" fill="#A1A1A1"/>
<rect x="56.9736" y="543.363" width="5.22221" height="5.2681" transform="rotate(90 56.9736 543.363)" fill="#A1A1A1"/>
<rect x="51.7056" y="548.586" width="5.22221" height="5.2681" transform="rotate(90 51.7056 548.586)" fill="#A1A1A1"/>
<rect x="220.285" y="381.477" width="5.22221" height="5.2681" transform="rotate(90 220.285 381.477)" fill="#A1A1A1"/>
<rect x="178.14" y="423.254" width="5.22221" height="5.2681" transform="rotate(90 178.14 423.254)" fill="#A1A1A1"/>
<rect x="135.995" y="465.031" width="5.22221" height="5.2681" transform="rotate(90 135.995 465.031)" fill="#A1A1A1"/>
<rect x="93.8506" y="506.809" width="5.22221" height="5.2681" transform="rotate(90 93.8506 506.809)" fill="#A1A1A1"/>
<rect x="51.7056" y="548.586" width="5.22221" height="5.2681" transform="rotate(90 51.7056 548.586)" fill="#A1A1A1"/>
<rect x="46.4375" y="553.812" width="5.22221" height="5.2681" transform="rotate(90 46.4375 553.812)" fill="#A1A1A1"/>
<rect x="257.162" y="344.922" width="5.22221" height="5.2681" transform="rotate(90 257.162 344.922)" fill="#A1A1A1"/>
<rect x="135.995" y="344.922" width="5.22221" height="5.2681" transform="rotate(90 135.995 344.922)" fill="#A1A1A1"/>
<rect x="257.162" y="465.031" width="5.22221" height="5.2681" transform="rotate(90 257.162 465.031)" fill="#A1A1A1"/>
<rect x="215.017" y="386.699" width="5.22221" height="5.2681" transform="rotate(90 215.017 386.699)" fill="#A1A1A1"/>
<rect x="172.872" y="428.477" width="5.22221" height="5.2681" transform="rotate(90 172.872 428.477)" fill="#A1A1A1"/>
<rect x="130.727" y="470.254" width="5.22221" height="5.2681" transform="rotate(90 130.727 470.254)" fill="#A1A1A1"/>
<rect x="88.582" y="512.031" width="5.22221" height="5.2681" transform="rotate(90 88.582 512.031)" fill="#A1A1A1"/>
<rect x="46.4375" y="553.812" width="5.22221" height="5.2681" transform="rotate(90 46.4375 553.812)" fill="#A1A1A1"/>
<rect x="41.1694" y="559.031" width="5.22221" height="5.2681" transform="rotate(90 41.1694 559.031)" fill="#A1A1A1"/>
<rect x="251.893" y="350.145" width="5.22221" height="5.2681" transform="rotate(90 251.893 350.145)" fill="#A1A1A1"/>
<rect x="209.749" y="391.922" width="5.22221" height="5.2681" transform="rotate(90 209.749 391.922)" fill="#A1A1A1"/>
<rect x="167.604" y="433.699" width="5.22221" height="5.2681" transform="rotate(90 167.604 433.699)" fill="#A1A1A1"/>
<rect x="125.459" y="475.477" width="5.22221" height="5.2681" transform="rotate(90 125.459 475.477)" fill="#A1A1A1"/>
<rect x="83.314" y="517.254" width="5.22221" height="5.2681" transform="rotate(90 83.314 517.254)" fill="#A1A1A1"/>
<rect x="41.1694" y="559.031" width="5.22221" height="5.2681" transform="rotate(90 41.1694 559.031)" fill="#A1A1A1"/>
<rect x="35.9014" y="564.254" width="5.22221" height="5.2681" transform="rotate(90 35.9014 564.254)" fill="#A1A1A1"/>
<rect x="246.625" y="355.363" width="5.22221" height="5.2681" transform="rotate(90 246.625 355.363)" fill="#A1A1A1"/>
<rect x="204.48" y="397.141" width="5.22221" height="5.2681" transform="rotate(90 204.48 397.141)" fill="#A1A1A1"/>
<rect x="162.335" y="438.922" width="5.22221" height="5.2681" transform="rotate(90 162.335 438.922)" fill="#A1A1A1"/>
<rect x="120.191" y="480.699" width="5.22221" height="5.2681" transform="rotate(90 120.191 480.699)" fill="#A1A1A1"/>
<rect x="78.0459" y="522.477" width="5.22221" height="5.2681" transform="rotate(90 78.0459 522.477)" fill="#A1A1A1"/>
<rect x="35.9014" y="564.254" width="5.22221" height="5.2681" transform="rotate(90 35.9014 564.254)" fill="#A1A1A1"/>
<rect x="30.6328" y="569.477" width="5.22221" height="5.2681" transform="rotate(90 30.6328 569.477)" fill="#A1A1A1"/>
<rect x="241.357" y="360.586" width="5.22221" height="5.2681" transform="rotate(90 241.357 360.586)" fill="#A1A1A1"/>
<rect x="199.212" y="402.367" width="5.22221" height="5.2681" transform="rotate(90 199.212 402.367)" fill="#A1A1A1"/>
<rect x="157.067" y="444.145" width="5.22221" height="5.2681" transform="rotate(90 157.067 444.145)" fill="#A1A1A1"/>
<rect x="114.923" y="485.922" width="5.22221" height="5.2681" transform="rotate(90 114.923 485.922)" fill="#A1A1A1"/>
<rect x="72.7778" y="527.699" width="5.22221" height="5.2681" transform="rotate(90 72.7778 527.699)" fill="#A1A1A1"/>
<rect x="30.6328" y="569.477" width="5.22221" height="5.2681" transform="rotate(90 30.6328 569.477)" fill="#A1A1A1"/>
<rect x="25.3647" y="574.699" width="5.22221" height="5.2681" transform="rotate(90 25.3647 574.699)" fill="#A1A1A1"/>
<rect x="236.089" y="365.812" width="5.22221" height="5.2681" transform="rotate(90 236.089 365.812)" fill="#A1A1A1"/>
<rect x="193.944" y="407.59" width="5.22221" height="5.2681" transform="rotate(90 193.944 407.59)" fill="#A1A1A1"/>
<rect x="151.799" y="449.363" width="5.22221" height="5.2681" transform="rotate(90 151.799 449.363)" fill="#A1A1A1"/>
<rect x="109.655" y="491.141" width="5.22221" height="5.2681" transform="rotate(90 109.655 491.141)" fill="#A1A1A1"/>
<rect x="67.5098" y="532.918" width="5.22221" height="5.2681" transform="rotate(90 67.5098 532.918)" fill="#A1A1A1"/>
<rect x="25.3647" y="574.699" width="5.22221" height="5.2681" transform="rotate(90 25.3647 574.699)" fill="#A1A1A1"/>
<rect x="25.3647" y="579.922" width="5.22221" height="5.2681" transform="rotate(90 25.3647 579.922)" fill="#A1A1A1"/>
<rect x="230.821" y="371.031" width="5.22221" height="5.2681" transform="rotate(90 230.821 371.031)" fill="#A1A1A1"/>
<rect x="188.676" y="412.809" width="5.22221" height="5.2681" transform="rotate(90 188.676 412.809)" fill="#A1A1A1"/>
<rect x="146.531" y="454.586" width="5.22221" height="5.2681" transform="rotate(90 146.531 454.586)" fill="#A1A1A1"/>
<rect x="104.386" y="496.367" width="5.22221" height="5.2681" transform="rotate(90 104.386 496.367)" fill="#A1A1A1"/>
<rect x="62.2417" y="538.145" width="5.22221" height="5.2681" transform="rotate(90 62.2417 538.145)" fill="#A1A1A1"/>
<rect x="14.8286" y="585.141" width="5.22221" height="5.2681" transform="rotate(90 14.8286 585.141)" fill="#A1A1A1"/>
<rect x="20.0972" y="585.141" width="5.22221" height="5.2681" transform="rotate(90 20.0972 585.141)" fill="#A1A1A1"/>
<rect x="14.8286" y="579.922" width="5.22221" height="5.2681" transform="rotate(90 14.8286 579.922)" fill="#A1A1A1"/>
<rect x="14.8286" y="574.699" width="5.22221" height="5.2681" transform="rotate(90 14.8286 574.699)" fill="#A1A1A1"/>
<path d="M18.165 563.777C27.1574 563.777 34.4619 571.006 34.4619 579.941C34.4618 588.876 27.1573 596.104 18.165 596.104C9.17288 596.104 1.86833 588.876 1.86816 579.941C1.86816 571.006 9.17278 563.777 18.165 563.777Z" fill="black" stroke="#43FF46" stroke-width="2"/>
<path d="M18.2969 329C27.2892 329 34.5938 336.229 34.5938 345.164C34.5936 354.099 27.2891 361.327 18.2969 361.327C9.30471 361.327 2.00016 354.099 2 345.164C2 336.229 9.30461 329 18.2969 329Z" fill="black" stroke="#43FF46" stroke-width="2"/>
<ellipse cx="259.297" cy="345.164" rx="15.297" ry="15.1638" fill="white"/>
<ellipse cx="138.297" cy="580.164" rx="15.297" ry="15.1638" fill="white"/>
<ellipse cx="259.297" cy="580.164" rx="15.297" ry="15.1638" fill="white"/>
<line x1="17" y1="361" x2="17" y2="564" stroke="#43FF46" stroke-width="4"/>
<path d="M18.2969 447C27.2892 447 34.5938 454.229 34.5938 463.164C34.5936 472.099 27.2891 479.327 18.2969 479.327C9.30471 479.327 2.00016 472.099 2 463.164C2 454.229 9.30461 447 18.2969 447Z" fill="black" stroke="#43FF46" stroke-width="2"/>
</svg>
