<svg width="291" height="281" viewBox="0 0 291 281" fill="none" xmlns="http://www.w3.org/2000/svg">
<rect x="145.75" y="5.50781" width="5.5102" height="5.5102" transform="rotate(180 145.75 5.50781)" fill="#C2C2C2"/>
<rect x="145.75" y="11.0195" width="5.5102" height="5.5102" transform="rotate(180 145.75 11.0195)" fill="#C2C2C2"/>
<rect x="140.242" y="16.5312" width="5.5102" height="5.5102" transform="rotate(180 140.242 16.5312)" fill="#C2C2C2"/>
<rect x="145.75" y="22.0391" width="5.5102" height="5.5102" transform="rotate(180 145.75 22.0391)" fill="#C2C2C2"/>
<rect x="145.75" y="27.5508" width="5.5102" height="5.5102" transform="rotate(180 145.75 27.5508)" fill="#C2C2C2"/>
<rect x="140.242" y="33.0586" width="5.5102" height="5.5102" transform="rotate(180 140.242 33.0586)" fill="#C2C2C2"/>
<rect width="5.5102" height="5.5102" transform="matrix(1 8.74228e-08 8.74228e-08 -1 145.75 33.0586)" fill="#C2C2C2"/>
<rect x="134.727" y="55.1016" width="5.5102" height="5.5102" transform="rotate(180 134.727 55.1016)" fill="#C2C2C2"/>
<rect width="5.5102" height="5.5102" transform="matrix(1 8.74228e-08 8.74228e-08 -1 151.258 55.1016)" fill="#C2C2C2"/>
<rect x="129.219" y="88.1641" width="5.5102" height="5.5102" transform="rotate(180 129.219 88.1641)" fill="#C2C2C2"/>
<rect width="5.5102" height="5.5102" transform="matrix(1 8.74228e-08 8.74228e-08 -1 156.773 88.1641)" fill="#C2C2C2"/>
<rect x="123.711" y="121.223" width="5.5102" height="5.5102" transform="rotate(180 123.711 121.223)" fill="#C2C2C2"/>
<rect width="5.5102" height="5.5102" transform="matrix(1 8.74228e-08 8.74228e-08 -1 162.281 121.223)" fill="#C2C2C2"/>
<rect x="118.195" y="154.285" width="5.5102" height="5.5102" transform="rotate(180 118.195 154.285)" fill="#C2C2C2"/>
<rect width="5.5102" height="5.5102" transform="matrix(1 8.74228e-08 8.74228e-08 -1 167.789 154.285)" fill="#C2C2C2"/>
<rect x="112.688" y="187.348" width="5.5102" height="5.5102" transform="rotate(180 112.688 187.348)" fill="#C2C2C2"/>
<rect width="5.5102" height="5.5102" transform="matrix(1 8.74228e-08 8.74228e-08 -1 173.297 187.348)" fill="#C2C2C2"/>
<rect x="107.18" y="220.406" width="5.5102" height="5.5102" transform="rotate(180 107.18 220.406)" fill="#C2C2C2"/>
<rect width="5.5102" height="5.5102" transform="matrix(1 8.74228e-08 8.74228e-08 -1 178.812 220.406)" fill="#C2C2C2"/>
<rect x="101.672" y="253.469" width="5.5102" height="5.5102" transform="rotate(180 101.672 253.469)" fill="#C2C2C2"/>
<rect width="5.5102" height="5.5102" transform="matrix(1 8.74228e-08 8.74228e-08 -1 184.32 253.469)" fill="#C2C2C2"/>
<rect x="140.242" y="38.5703" width="5.5102" height="5.5102" transform="rotate(180 140.242 38.5703)" fill="#C2C2C2"/>
<rect width="5.5102" height="5.5102" transform="matrix(1 8.74228e-08 8.74228e-08 -1 145.75 38.5703)" fill="#C2C2C2"/>
<rect x="134.727" y="60.6133" width="5.5102" height="5.5102" transform="rotate(180 134.727 60.6133)" fill="#C2C2C2"/>
<rect width="5.5102" height="5.5102" transform="matrix(1 8.74228e-08 8.74228e-08 -1 151.258 60.6133)" fill="#C2C2C2"/>
<rect x="129.219" y="93.6719" width="5.5102" height="5.5102" transform="rotate(180 129.219 93.6719)" fill="#C2C2C2"/>
<rect width="5.5102" height="5.5102" transform="matrix(1 8.74228e-08 8.74228e-08 -1 156.773 93.6719)" fill="#C2C2C2"/>
<rect x="123.711" y="126.734" width="5.5102" height="5.5102" transform="rotate(180 123.711 126.734)" fill="#C2C2C2"/>
<rect width="5.5102" height="5.5102" transform="matrix(1 8.74228e-08 8.74228e-08 -1 162.281 126.734)" fill="#C2C2C2"/>
<rect x="118.195" y="159.797" width="5.5102" height="5.5102" transform="rotate(180 118.195 159.797)" fill="#C2C2C2"/>
<rect width="5.5102" height="5.5102" transform="matrix(1 8.74228e-08 8.74228e-08 -1 167.789 159.797)" fill="#C2C2C2"/>
<rect x="112.688" y="192.855" width="5.5102" height="5.5102" transform="rotate(180 112.688 192.855)" fill="#C2C2C2"/>
<rect width="5.5102" height="5.5102" transform="matrix(1 8.74228e-08 8.74228e-08 -1 173.297 192.855)" fill="#C2C2C2"/>
<rect x="107.18" y="225.918" width="5.5102" height="5.5102" transform="rotate(180 107.18 225.918)" fill="#C2C2C2"/>
<rect width="5.5102" height="5.5102" transform="matrix(1 8.74228e-08 8.74228e-08 -1 178.812 225.918)" fill="#C2C2C2"/>
<rect x="101.672" y="258.977" width="5.5102" height="5.5102" transform="rotate(180 101.672 258.977)" fill="#C2C2C2"/>
<rect width="5.5102" height="5.5102" transform="matrix(1 8.74228e-08 8.74228e-08 -1 184.32 258.977)" fill="#C2C2C2"/>
<rect x="140.242" y="44.082" width="5.5102" height="5.5102" transform="rotate(180 140.242 44.082)" fill="#C2C2C2"/>
<rect width="5.5102" height="5.5102" transform="matrix(1 8.74228e-08 8.74228e-08 -1 145.75 44.082)" fill="#C2C2C2"/>
<rect x="134.727" y="66.1211" width="5.5102" height="5.5102" transform="rotate(180 134.727 66.1211)" fill="#C2C2C2"/>
<rect width="5.5102" height="5.5102" transform="matrix(1 8.74228e-08 8.74228e-08 -1 151.258 66.1211)" fill="#C2C2C2"/>
<rect x="129.219" y="99.1836" width="5.5102" height="5.5102" transform="rotate(180 129.219 99.1836)" fill="#C2C2C2"/>
<rect width="5.5102" height="5.5102" transform="matrix(1 8.74228e-08 8.74228e-08 -1 156.773 99.1836)" fill="#C2C2C2"/>
<rect x="123.711" y="132.246" width="5.5102" height="5.5102" transform="rotate(180 123.711 132.246)" fill="#C2C2C2"/>
<rect width="5.5102" height="5.5102" transform="matrix(1 8.74228e-08 8.74228e-08 -1 162.281 132.246)" fill="#C2C2C2"/>
<rect x="118.195" y="165.305" width="5.5102" height="5.5102" transform="rotate(180 118.195 165.305)" fill="#C2C2C2"/>
<rect width="5.5102" height="5.5102" transform="matrix(1 8.74228e-08 8.74228e-08 -1 167.789 165.305)" fill="#C2C2C2"/>
<rect x="112.688" y="198.367" width="5.5102" height="5.5102" transform="rotate(180 112.688 198.367)" fill="#C2C2C2"/>
<rect width="5.5102" height="5.5102" transform="matrix(1 8.74228e-08 8.74228e-08 -1 173.297 198.367)" fill="#C2C2C2"/>
<rect x="107.18" y="231.43" width="5.5102" height="5.5102" transform="rotate(180 107.18 231.43)" fill="#C2C2C2"/>
<rect width="5.5102" height="5.5102" transform="matrix(1 8.74228e-08 8.74228e-08 -1 178.812 231.43)" fill="#C2C2C2"/>
<rect x="101.672" y="264.488" width="5.5102" height="5.5102" transform="rotate(180 101.672 264.488)" fill="#C2C2C2"/>
<rect width="5.5102" height="5.5102" transform="matrix(1 8.74228e-08 8.74228e-08 -1 184.32 264.488)" fill="#C2C2C2"/>
<rect x="140.242" y="49.5898" width="5.5102" height="5.5102" transform="rotate(180 140.242 49.5898)" fill="#C2C2C2"/>
<rect width="5.5102" height="5.5102" transform="matrix(1 8.74228e-08 8.74228e-08 -1 145.75 49.5898)" fill="#C2C2C2"/>
<rect x="134.727" y="71.6328" width="5.5102" height="5.5102" transform="rotate(180 134.727 71.6328)" fill="#C2C2C2"/>
<rect width="5.5102" height="5.5102" transform="matrix(1 8.74228e-08 8.74228e-08 -1 151.258 71.6328)" fill="#C2C2C2"/>
<rect x="129.219" y="104.695" width="5.5102" height="5.5102" transform="rotate(180 129.219 104.695)" fill="#C2C2C2"/>
<rect width="5.5102" height="5.5102" transform="matrix(1 8.74228e-08 8.74228e-08 -1 156.773 104.695)" fill="#C2C2C2"/>
<rect x="123.711" y="137.754" width="5.5102" height="5.5102" transform="rotate(180 123.711 137.754)" fill="#C2C2C2"/>
<rect width="5.5102" height="5.5102" transform="matrix(1 8.74228e-08 8.74228e-08 -1 162.281 137.754)" fill="#C2C2C2"/>
<rect x="118.195" y="170.816" width="5.5102" height="5.5102" transform="rotate(180 118.195 170.816)" fill="#C2C2C2"/>
<rect width="5.5102" height="5.5102" transform="matrix(1 8.74228e-08 8.74228e-08 -1 167.789 170.816)" fill="#C2C2C2"/>
<rect x="112.688" y="203.879" width="5.5102" height="5.5102" transform="rotate(180 112.688 203.879)" fill="#C2C2C2"/>
<rect width="5.5102" height="5.5102" transform="matrix(1 8.74228e-08 8.74228e-08 -1 173.297 203.879)" fill="#C2C2C2"/>
<rect x="107.18" y="236.938" width="5.5102" height="5.5102" transform="rotate(180 107.18 236.938)" fill="#C2C2C2"/>
<rect width="5.5102" height="5.5102" transform="matrix(1 8.74228e-08 8.74228e-08 -1 178.812 236.938)" fill="#C2C2C2"/>
<rect x="101.672" y="269.996" width="5.5102" height="5.5102" transform="rotate(180 101.672 269.996)" fill="#C2C2C2"/>
<rect x="101.672" y="121.223" width="5.5102" height="5.5102" transform="rotate(180 101.672 121.223)" fill="#C2C2C2"/>
<rect x="101.672" y="159.797" width="5.5102" height="5.5102" transform="rotate(180 101.672 159.797)" fill="#C2C2C2"/>
<rect x="101.672" y="198.367" width="5.5102" height="5.5102" transform="rotate(180 101.672 198.367)" fill="#C2C2C2"/>
<rect width="5.5102" height="5.5102" transform="matrix(1 8.74228e-08 8.74228e-08 -1 184.32 269.996)" fill="#C2C2C2"/>
<rect width="5.5102" height="5.5102" transform="matrix(1 8.74228e-08 8.74228e-08 -1 184.32 121.223)" fill="#C2C2C2"/>
<rect width="5.5102" height="5.5102" transform="matrix(1 8.74228e-08 8.74228e-08 -1 184.32 159.797)" fill="#C2C2C2"/>
<rect width="5.5102" height="5.5102" transform="matrix(1 8.74228e-08 8.74228e-08 -1 184.32 198.367)" fill="#C2C2C2"/>
<rect x="134.727" y="77.1445" width="5.5102" height="5.5102" transform="rotate(180 134.727 77.1445)" fill="#C2C2C2"/>
<rect width="5.5102" height="5.5102" transform="matrix(1 8.74228e-08 8.74228e-08 -1 151.258 77.1445)" fill="#C2C2C2"/>
<rect x="129.219" y="110.203" width="5.5102" height="5.5102" transform="rotate(180 129.219 110.203)" fill="#C2C2C2"/>
<rect width="5.5102" height="5.5102" transform="matrix(1 8.74228e-08 8.74228e-08 -1 156.773 110.203)" fill="#C2C2C2"/>
<rect x="123.711" y="143.266" width="5.5102" height="5.5102" transform="rotate(180 123.711 143.266)" fill="#C2C2C2"/>
<rect width="5.5102" height="5.5102" transform="matrix(1 8.74228e-08 8.74228e-08 -1 162.281 143.266)" fill="#C2C2C2"/>
<rect x="118.195" y="176.328" width="5.5102" height="5.5102" transform="rotate(180 118.195 176.328)" fill="#C2C2C2"/>
<rect width="5.5102" height="5.5102" transform="matrix(1 8.74228e-08 8.74228e-08 -1 167.789 176.328)" fill="#C2C2C2"/>
<rect x="112.688" y="209.387" width="5.5102" height="5.5102" transform="rotate(180 112.688 209.387)" fill="#C2C2C2"/>
<rect width="5.5102" height="5.5102" transform="matrix(1 8.74228e-08 8.74228e-08 -1 173.297 209.387)" fill="#C2C2C2"/>
<rect x="107.18" y="242.449" width="5.5102" height="5.5102" transform="rotate(180 107.18 242.449)" fill="#C2C2C2"/>
<rect width="5.5102" height="5.5102" transform="matrix(1 8.74228e-08 8.74228e-08 -1 178.812 242.449)" fill="#C2C2C2"/>
<rect x="134.727" y="82.6523" width="5.5102" height="5.5102" transform="rotate(180 134.727 82.6523)" fill="#C2C2C2"/>
<rect width="5.5102" height="5.5102" transform="matrix(1 8.74228e-08 8.74228e-08 -1 151.258 82.6523)" fill="#C2C2C2"/>
<rect x="129.219" y="115.715" width="5.5102" height="5.5102" transform="rotate(180 129.219 115.715)" fill="#C2C2C2"/>
<rect width="5.5102" height="5.5102" transform="matrix(1 8.74228e-08 8.74228e-08 -1 156.773 115.715)" fill="#C2C2C2"/>
<rect x="123.711" y="148.773" width="5.5102" height="5.5102" transform="rotate(180 123.711 148.773)" fill="#C2C2C2"/>
<rect width="5.5102" height="5.5102" transform="matrix(1 8.74228e-08 8.74228e-08 -1 162.281 148.773)" fill="#C2C2C2"/>
<rect x="118.195" y="181.836" width="5.5102" height="5.5102" transform="rotate(180 118.195 181.836)" fill="#C2C2C2"/>
<rect width="5.5102" height="5.5102" transform="matrix(1 8.74228e-08 8.74228e-08 -1 167.789 181.836)" fill="#C2C2C2"/>
<rect x="112.688" y="214.898" width="5.5102" height="5.5102" transform="rotate(180 112.688 214.898)" fill="#C2C2C2"/>
<rect width="5.5102" height="5.5102" transform="matrix(1 8.74228e-08 8.74228e-08 -1 173.297 214.898)" fill="#C2C2C2"/>
<rect x="107.18" y="247.961" width="5.5102" height="5.5102" transform="rotate(180 107.18 247.961)" fill="#C2C2C2"/>
<rect width="5.5102" height="5.5102" transform="matrix(1 8.74228e-08 8.74228e-08 -1 178.812 247.961)" fill="#C2C2C2"/>
<rect width="5.5102" height="5.5102" transform="matrix(1 8.74228e-08 8.74228e-08 -1 145.75 16.5312)" fill="#C2C2C2"/>
<rect x="134.727" y="22.0391" width="5.5102" height="5.5102" transform="rotate(180 134.727 22.0391)" fill="#C2C2C2"/>
<rect width="5.5102" height="5.5102" transform="matrix(1 8.74228e-08 8.74228e-08 -1 151.258 22.0391)" fill="#C2C2C2"/>
<rect x="107.18" y="77.1445" width="5.5102" height="5.5102" transform="rotate(180 107.18 77.1445)" fill="#C2C2C2"/>
<rect width="5.5102" height="5.5102" transform="matrix(1 8.74228e-08 8.74228e-08 -1 178.812 77.1445)" fill="#C2C2C2"/>
<rect x="79.625" y="132.246" width="5.5102" height="5.5102" transform="rotate(180 79.625 132.246)" fill="#C2C2C2"/>
<rect width="5.5102" height="5.5102" transform="matrix(1 8.74228e-08 8.74228e-08 -1 206.359 132.246)" fill="#C2C2C2"/>
<rect x="52.0781" y="187.348" width="5.5102" height="5.5102" transform="rotate(180 52.0781 187.348)" fill="#C2C2C2"/>
<rect width="5.5102" height="5.5102" transform="matrix(1 8.74228e-08 8.74228e-08 -1 233.914 187.348)" fill="#C2C2C2"/>
<rect x="134.727" y="27.5508" width="5.5102" height="5.5102" transform="rotate(180 134.727 27.5508)" fill="#C2C2C2"/>
<rect width="5.5102" height="5.5102" transform="matrix(1 8.74228e-08 8.74228e-08 -1 151.258 27.5508)" fill="#C2C2C2"/>
<rect x="107.18" y="82.6523" width="5.5102" height="5.5102" transform="rotate(180 107.18 82.6523)" fill="#C2C2C2"/>
<rect width="5.5102" height="5.5102" transform="matrix(1 8.74228e-08 8.74228e-08 -1 178.812 82.6523)" fill="#C2C2C2"/>
<rect x="79.625" y="137.754" width="5.5102" height="5.5102" transform="rotate(180 79.625 137.754)" fill="#C2C2C2"/>
<rect width="5.5102" height="5.5102" transform="matrix(1 8.74228e-08 8.74228e-08 -1 206.359 137.754)" fill="#C2C2C2"/>
<rect x="52.0781" y="192.855" width="5.5102" height="5.5102" transform="rotate(180 52.0781 192.855)" fill="#C2C2C2"/>
<rect width="5.5102" height="5.5102" transform="matrix(1 8.74228e-08 8.74228e-08 -1 233.914 192.855)" fill="#C2C2C2"/>
<rect x="129.219" y="33.0586" width="5.5102" height="5.5102" transform="rotate(180 129.219 33.0586)" fill="#C2C2C2"/>
<rect width="5.5102" height="5.5102" transform="matrix(1 8.74228e-08 8.74228e-08 -1 156.773 33.0586)" fill="#C2C2C2"/>
<rect x="101.672" y="88.1641" width="5.5102" height="5.5102" transform="rotate(180 101.672 88.1641)" fill="#C2C2C2"/>
<rect width="5.5102" height="5.5102" transform="matrix(1 8.74228e-08 8.74228e-08 -1 184.32 88.1641)" fill="#C2C2C2"/>
<rect x="74.1172" y="143.266" width="5.5102" height="5.5102" transform="rotate(180 74.1172 143.266)" fill="#C2C2C2"/>
<rect width="5.5102" height="5.5102" transform="matrix(1 8.74228e-08 8.74228e-08 -1 211.875 143.266)" fill="#C2C2C2"/>
<rect x="46.5625" y="198.367" width="5.5102" height="5.5102" transform="rotate(180 46.5625 198.367)" fill="#C2C2C2"/>
<rect width="5.5102" height="5.5102" transform="matrix(1 8.74228e-08 8.74228e-08 -1 239.422 198.367)" fill="#C2C2C2"/>
<rect x="118.195" y="55.1016" width="5.5102" height="5.5102" transform="rotate(180 118.195 55.1016)" fill="#C2C2C2"/>
<rect width="5.5102" height="5.5102" transform="matrix(1 8.74228e-08 8.74228e-08 -1 167.789 55.1016)" fill="#C2C2C2"/>
<rect x="90.6484" y="110.203" width="5.5102" height="5.5102" transform="rotate(180 90.6484 110.203)" fill="#C2C2C2"/>
<rect width="5.5102" height="5.5102" transform="matrix(1 8.74228e-08 8.74228e-08 -1 195.344 110.203)" fill="#C2C2C2"/>
<rect x="63.0938" y="165.305" width="5.5102" height="5.5102" transform="rotate(180 63.0938 165.305)" fill="#C2C2C2"/>
<rect width="5.5102" height="5.5102" transform="matrix(1 8.74228e-08 8.74228e-08 -1 222.891 165.305)" fill="#C2C2C2"/>
<rect x="35.5469" y="220.406" width="5.5102" height="5.5102" transform="rotate(180 35.5469 220.406)" fill="#C2C2C2"/>
<rect width="5.5102" height="5.5102" transform="matrix(1 8.74228e-08 8.74228e-08 -1 250.445 220.406)" fill="#C2C2C2"/>
<rect x="24.5234" y="242.449" width="5.5102" height="5.5102" transform="rotate(180 24.5234 242.449)" fill="#C2C2C2"/>
<rect width="5.5102" height="5.5102" transform="matrix(1 8.74228e-08 8.74228e-08 -1 261.461 242.449)" fill="#C2C2C2"/>
<rect x="129.219" y="38.5703" width="5.5102" height="5.5102" transform="rotate(180 129.219 38.5703)" fill="#C2C2C2"/>
<rect width="5.5102" height="5.5102" transform="matrix(1 8.74228e-08 8.74228e-08 -1 156.773 38.5703)" fill="#C2C2C2"/>
<rect x="101.672" y="93.6719" width="5.5102" height="5.5102" transform="rotate(180 101.672 93.6719)" fill="#C2C2C2"/>
<rect width="5.5102" height="5.5102" transform="matrix(1 8.74228e-08 8.74228e-08 -1 184.32 93.6719)" fill="#C2C2C2"/>
<rect x="74.1172" y="148.773" width="5.5102" height="5.5102" transform="rotate(180 74.1172 148.773)" fill="#C2C2C2"/>
<rect width="5.5102" height="5.5102" transform="matrix(1 8.74228e-08 8.74228e-08 -1 211.875 148.773)" fill="#C2C2C2"/>
<rect x="46.5625" y="203.879" width="5.5102" height="5.5102" transform="rotate(180 46.5625 203.879)" fill="#C2C2C2"/>
<rect width="5.5102" height="5.5102" transform="matrix(1 8.74228e-08 8.74228e-08 -1 239.422 203.879)" fill="#C2C2C2"/>
<rect x="118.195" y="60.6133" width="5.5102" height="5.5102" transform="rotate(180 118.195 60.6133)" fill="#C2C2C2"/>
<rect width="5.5102" height="5.5102" transform="matrix(1 8.74228e-08 8.74228e-08 -1 167.789 60.6133)" fill="#C2C2C2"/>
<rect x="90.6484" y="115.715" width="5.5102" height="5.5102" transform="rotate(180 90.6484 115.715)" fill="#C2C2C2"/>
<rect width="5.5102" height="5.5102" transform="matrix(1 8.74228e-08 8.74228e-08 -1 195.344 115.715)" fill="#C2C2C2"/>
<rect x="63.0938" y="170.816" width="5.5102" height="5.5102" transform="rotate(180 63.0938 170.816)" fill="#C2C2C2"/>
<rect width="5.5102" height="5.5102" transform="matrix(1 8.74228e-08 8.74228e-08 -1 222.891 170.816)" fill="#C2C2C2"/>
<rect x="35.5469" y="225.918" width="5.5102" height="5.5102" transform="rotate(180 35.5469 225.918)" fill="#C2C2C2"/>
<rect width="5.5102" height="5.5102" transform="matrix(1 8.74228e-08 8.74228e-08 -1 250.445 225.918)" fill="#C2C2C2"/>
<rect x="24.5234" y="247.961" width="5.5102" height="5.5102" transform="rotate(180 24.5234 247.961)" fill="#C2C2C2"/>
<rect width="5.5102" height="5.5102" transform="matrix(1 8.74228e-08 8.74228e-08 -1 261.461 247.961)" fill="#C2C2C2"/>
<rect x="123.711" y="49.5898" width="5.5102" height="5.5102" transform="rotate(180 123.711 49.5898)" fill="#C2C2C2"/>
<rect width="5.5102" height="5.5102" transform="matrix(1 8.74228e-08 8.74228e-08 -1 162.281 49.5898)" fill="#C2C2C2"/>
<rect x="96.1562" y="104.695" width="5.5102" height="5.5102" transform="rotate(180 96.1562 104.695)" fill="#C2C2C2"/>
<rect width="5.5102" height="5.5102" transform="matrix(1 8.74228e-08 8.74228e-08 -1 189.828 104.695)" fill="#C2C2C2"/>
<rect x="68.6094" y="159.797" width="5.5102" height="5.5102" transform="rotate(180 68.6094 159.797)" fill="#C2C2C2"/>
<rect width="5.5102" height="5.5102" transform="matrix(1 8.74228e-08 8.74228e-08 -1 217.383 159.797)" fill="#C2C2C2"/>
<rect x="41.0547" y="214.898" width="5.5102" height="5.5102" transform="rotate(180 41.0547 214.898)" fill="#C2C2C2"/>
<rect width="5.5102" height="5.5102" transform="matrix(1 8.74228e-08 8.74228e-08 -1 244.93 214.898)" fill="#C2C2C2"/>
<rect x="112.688" y="71.6328" width="5.5102" height="5.5102" transform="rotate(180 112.688 71.6328)" fill="#C2C2C2"/>
<rect width="5.5102" height="5.5102" transform="matrix(1 8.74228e-08 8.74228e-08 -1 173.297 71.6328)" fill="#C2C2C2"/>
<rect x="85.1406" y="126.734" width="5.5102" height="5.5102" transform="rotate(180 85.1406 126.734)" fill="#C2C2C2"/>
<rect width="5.5102" height="5.5102" transform="matrix(1 8.74228e-08 8.74228e-08 -1 200.852 126.734)" fill="#C2C2C2"/>
<rect x="57.5859" y="181.836" width="5.5102" height="5.5102" transform="rotate(180 57.5859 181.836)" fill="#C2C2C2"/>
<rect width="5.5102" height="5.5102" transform="matrix(1 8.74228e-08 8.74228e-08 -1 228.406 181.836)" fill="#C2C2C2"/>
<rect x="30.0391" y="236.938" width="5.5102" height="5.5102" transform="rotate(180 30.0391 236.938)" fill="#C2C2C2"/>
<rect width="5.5102" height="5.5102" transform="matrix(1 8.74228e-08 8.74228e-08 -1 255.953 236.938)" fill="#C2C2C2"/>
<rect x="19.0156" y="258.977" width="5.5102" height="5.5102" transform="rotate(180 19.0156 258.977)" fill="#C2C2C2"/>
<rect width="5.5102" height="5.5102" transform="matrix(1 8.74228e-08 8.74228e-08 -1 266.969 258.977)" fill="#C2C2C2"/>
<rect x="13.5078" y="269.996" width="5.5102" height="5.5102" transform="rotate(180 13.5078 269.996)" fill="#C2C2C2"/>
<rect x="13.5078" y="121.223" width="5.5102" height="5.5102" transform="rotate(180 13.5078 121.223)" fill="#C2C2C2"/>
<rect x="13.5078" y="143.266" width="5.5102" height="5.5102" transform="rotate(180 13.5078 143.266)" fill="#C2C2C2"/>
<rect x="277.984" y="143.266" width="5.5102" height="5.5102" transform="rotate(180 277.984 143.266)" fill="#C2C2C2"/>
<rect x="13.5078" y="181.836" width="5.5102" height="5.5102" transform="rotate(180 13.5078 181.836)" fill="#C2C2C2"/>
<rect x="277.984" y="181.836" width="5.5102" height="5.5102" transform="rotate(180 277.984 181.836)" fill="#C2C2C2"/>
<rect x="13.5078" y="132.246" width="5.5102" height="5.5102" transform="rotate(180 13.5078 132.246)" fill="#C2C2C2"/>
<rect x="277.984" y="132.246" width="5.5102" height="5.5102" transform="rotate(180 277.984 132.246)" fill="#C2C2C2"/>
<rect x="13.5078" y="170.816" width="5.5102" height="5.5102" transform="rotate(180 13.5078 170.816)" fill="#C2C2C2"/>
<rect x="277.984" y="170.816" width="5.5102" height="5.5102" transform="rotate(180 277.984 170.816)" fill="#C2C2C2"/>
<rect x="13.5078" y="154.285" width="5.5102" height="5.5102" transform="rotate(180 13.5078 154.285)" fill="#C2C2C2"/>
<rect x="277.984" y="154.285" width="5.5102" height="5.5102" transform="rotate(180 277.984 154.285)" fill="#C2C2C2"/>
<rect x="13.5078" y="192.855" width="5.5102" height="5.5102" transform="rotate(180 13.5078 192.855)" fill="#C2C2C2"/>
<rect x="277.984" y="192.855" width="5.5102" height="5.5102" transform="rotate(180 277.984 192.855)" fill="#C2C2C2"/>
<rect x="13.5078" y="126.734" width="5.5102" height="5.5102" transform="rotate(180 13.5078 126.734)" fill="#C2C2C2"/>
<rect x="277.984" y="126.734" width="5.5102" height="5.5102" transform="rotate(180 277.984 126.734)" fill="#C2C2C2"/>
<rect x="13.5078" y="165.305" width="5.5102" height="5.5102" transform="rotate(180 13.5078 165.305)" fill="#C2C2C2"/>
<rect x="277.984" y="165.305" width="5.5102" height="5.5102" transform="rotate(180 277.984 165.305)" fill="#C2C2C2"/>
<rect x="13.5078" y="148.773" width="5.5102" height="5.5102" transform="rotate(180 13.5078 148.773)" fill="#C2C2C2"/>
<rect x="277.984" y="148.773" width="5.5102" height="5.5102" transform="rotate(180 277.984 148.773)" fill="#C2C2C2"/>
<rect x="13.5078" y="187.348" width="5.5102" height="5.5102" transform="rotate(180 13.5078 187.348)" fill="#C2C2C2"/>
<rect x="277.984" y="187.348" width="5.5102" height="5.5102" transform="rotate(180 277.984 187.348)" fill="#C2C2C2"/>
<rect x="13.5078" y="137.754" width="5.5102" height="5.5102" transform="rotate(180 13.5078 137.754)" fill="#C2C2C2"/>
<rect x="277.984" y="137.754" width="5.5102" height="5.5102" transform="rotate(180 277.984 137.754)" fill="#C2C2C2"/>
<rect x="13.5078" y="176.328" width="5.5102" height="5.5102" transform="rotate(180 13.5078 176.328)" fill="#C2C2C2"/>
<rect x="277.984" y="176.328" width="5.5102" height="5.5102" transform="rotate(180 277.984 176.328)" fill="#C2C2C2"/>
<rect x="13.5078" y="159.797" width="5.5102" height="5.5102" transform="rotate(180 13.5078 159.797)" fill="#C2C2C2"/>
<rect x="277.984" y="159.797" width="5.5102" height="5.5102" transform="rotate(180 277.984 159.797)" fill="#C2C2C2"/>
<rect x="13.5078" y="159.797" width="5.5102" height="5.5102" transform="rotate(180 13.5078 159.797)" fill="#C2C2C2"/>
<rect x="277.984" y="159.797" width="5.5102" height="5.5102" transform="rotate(180 277.984 159.797)" fill="#C2C2C2"/>
<rect x="13.5078" y="198.367" width="5.5102" height="5.5102" transform="rotate(180 13.5078 198.367)" fill="#C2C2C2"/>
<rect x="35.5469" y="269.996" width="5.5102" height="5.5102" transform="rotate(180 35.5469 269.996)" fill="#C2C2C2"/>
<rect x="35.5469" y="121.223" width="5.5102" height="5.5102" transform="rotate(180 35.5469 121.223)" fill="#C2C2C2"/>
<rect x="35.5469" y="159.797" width="5.5102" height="5.5102" transform="rotate(180 35.5469 159.797)" fill="#C2C2C2"/>
<rect x="35.5469" y="198.367" width="5.5102" height="5.5102" transform="rotate(180 35.5469 198.367)" fill="#C2C2C2"/>
<rect x="129.219" y="269.996" width="5.5102" height="5.5102" transform="rotate(180 129.219 269.996)" fill="#C2C2C2"/>
<rect x="129.219" y="121.223" width="5.5102" height="5.5102" transform="rotate(180 129.219 121.223)" fill="#C2C2C2"/>
<rect x="129.219" y="159.797" width="5.5102" height="5.5102" transform="rotate(180 129.219 159.797)" fill="#C2C2C2"/>
<rect x="129.219" y="198.367" width="5.5102" height="5.5102" transform="rotate(180 129.219 198.367)" fill="#C2C2C2"/>
<rect x="211.875" y="269.996" width="5.5102" height="5.5102" transform="rotate(180 211.875 269.996)" fill="#C2C2C2"/>
<rect x="211.875" y="121.223" width="5.5102" height="5.5102" transform="rotate(180 211.875 121.223)" fill="#C2C2C2"/>
<rect x="211.875" y="159.797" width="5.5102" height="5.5102" transform="rotate(180 211.875 159.797)" fill="#C2C2C2"/>
<rect x="211.875" y="198.367" width="5.5102" height="5.5102" transform="rotate(180 211.875 198.367)" fill="#C2C2C2"/>
<rect x="68.6094" y="269.996" width="5.5102" height="5.5102" transform="rotate(180 68.6094 269.996)" fill="#C2C2C2"/>
<rect x="68.6094" y="121.223" width="5.5102" height="5.5102" transform="rotate(180 68.6094 121.223)" fill="#C2C2C2"/>
<rect x="68.6094" y="159.797" width="5.5102" height="5.5102" transform="rotate(180 68.6094 159.797)" fill="#C2C2C2"/>
<rect x="68.6094" y="198.367" width="5.5102" height="5.5102" transform="rotate(180 68.6094 198.367)" fill="#C2C2C2"/>
<rect x="162.281" y="269.996" width="5.5102" height="5.5102" transform="rotate(180 162.281 269.996)" fill="#C2C2C2"/>
<rect x="162.281" y="121.223" width="5.5102" height="5.5102" transform="rotate(180 162.281 121.223)" fill="#C2C2C2"/>
<rect x="162.281" y="159.797" width="5.5102" height="5.5102" transform="rotate(180 162.281 159.797)" fill="#C2C2C2"/>
<rect x="162.281" y="198.367" width="5.5102" height="5.5102" transform="rotate(180 162.281 198.367)" fill="#C2C2C2"/>
<rect x="244.93" y="269.996" width="5.5102" height="5.5102" transform="rotate(180 244.93 269.996)" fill="#C2C2C2"/>
<rect x="244.93" y="121.223" width="5.5102" height="5.5102" transform="rotate(180 244.93 121.223)" fill="#C2C2C2"/>
<rect x="244.93" y="159.797" width="5.5102" height="5.5102" transform="rotate(180 244.93 159.797)" fill="#C2C2C2"/>
<rect x="244.93" y="198.367" width="5.5102" height="5.5102" transform="rotate(180 244.93 198.367)" fill="#C2C2C2"/>
<rect x="24.5234" y="269.996" width="5.5102" height="5.5102" transform="rotate(180 24.5234 269.996)" fill="#C2C2C2"/>
<rect x="24.5234" y="121.223" width="5.5102" height="5.5102" transform="rotate(180 24.5234 121.223)" fill="#C2C2C2"/>
<rect x="24.5234" y="159.797" width="5.5102" height="5.5102" transform="rotate(180 24.5234 159.797)" fill="#C2C2C2"/>
<rect x="24.5234" y="198.367" width="5.5102" height="5.5102" transform="rotate(180 24.5234 198.367)" fill="#C2C2C2"/>
<rect x="118.195" y="269.996" width="5.5102" height="5.5102" transform="rotate(180 118.195 269.996)" fill="#C2C2C2"/>
<rect x="118.195" y="121.223" width="5.5102" height="5.5102" transform="rotate(180 118.195 121.223)" fill="#C2C2C2"/>
<rect x="118.195" y="159.797" width="5.5102" height="5.5102" transform="rotate(180 118.195 159.797)" fill="#C2C2C2"/>
<rect x="118.195" y="198.367" width="5.5102" height="5.5102" transform="rotate(180 118.195 198.367)" fill="#C2C2C2"/>
<rect x="200.852" y="269.996" width="5.5102" height="5.5102" transform="rotate(180 200.852 269.996)" fill="#C2C2C2"/>
<rect x="200.852" y="121.223" width="5.5102" height="5.5102" transform="rotate(180 200.852 121.223)" fill="#C2C2C2"/>
<rect x="200.852" y="159.797" width="5.5102" height="5.5102" transform="rotate(180 200.852 159.797)" fill="#C2C2C2"/>
<rect x="200.852" y="198.367" width="5.5102" height="5.5102" transform="rotate(180 200.852 198.367)" fill="#C2C2C2"/>
<rect x="57.5859" y="269.996" width="5.5102" height="5.5102" transform="rotate(180 57.5859 269.996)" fill="#C2C2C2"/>
<rect x="57.5859" y="121.223" width="5.5102" height="5.5102" transform="rotate(180 57.5859 121.223)" fill="#C2C2C2"/>
<rect x="57.5859" y="159.797" width="5.5102" height="5.5102" transform="rotate(180 57.5859 159.797)" fill="#C2C2C2"/>
<rect x="57.5859" y="198.367" width="5.5102" height="5.5102" transform="rotate(180 57.5859 198.367)" fill="#C2C2C2"/>
<rect x="151.258" y="269.996" width="5.5102" height="5.5102" transform="rotate(180 151.258 269.996)" fill="#C2C2C2"/>
<rect x="151.258" y="121.223" width="5.5102" height="5.5102" transform="rotate(180 151.258 121.223)" fill="#C2C2C2"/>
<rect x="151.258" y="159.797" width="5.5102" height="5.5102" transform="rotate(180 151.258 159.797)" fill="#C2C2C2"/>
<rect x="151.258" y="198.367" width="5.5102" height="5.5102" transform="rotate(180 151.258 198.367)" fill="#C2C2C2"/>
<rect x="233.914" y="269.996" width="5.5102" height="5.5102" transform="rotate(180 233.914 269.996)" fill="#C2C2C2"/>
<rect x="233.914" y="121.223" width="5.5102" height="5.5102" transform="rotate(180 233.914 121.223)" fill="#C2C2C2"/>
<rect x="233.914" y="159.797" width="5.5102" height="5.5102" transform="rotate(180 233.914 159.797)" fill="#C2C2C2"/>
<rect x="233.914" y="198.367" width="5.5102" height="5.5102" transform="rotate(180 233.914 198.367)" fill="#C2C2C2"/>
<rect x="46.5625" y="269.996" width="5.5102" height="5.5102" transform="rotate(180 46.5625 269.996)" fill="#C2C2C2"/>
<rect x="46.5625" y="121.223" width="5.5102" height="5.5102" transform="rotate(180 46.5625 121.223)" fill="#C2C2C2"/>
<rect x="46.5625" y="159.797" width="5.5102" height="5.5102" transform="rotate(180 46.5625 159.797)" fill="#C2C2C2"/>
<rect x="46.5625" y="198.367" width="5.5102" height="5.5102" transform="rotate(180 46.5625 198.367)" fill="#C2C2C2"/>
<rect x="140.242" y="269.996" width="5.5102" height="5.5102" transform="rotate(180 140.242 269.996)" fill="#C2C2C2"/>
<rect x="140.242" y="121.223" width="5.5102" height="5.5102" transform="rotate(180 140.242 121.223)" fill="#C2C2C2"/>
<rect x="140.242" y="159.797" width="5.5102" height="5.5102" transform="rotate(180 140.242 159.797)" fill="#C2C2C2"/>
<rect x="140.242" y="198.367" width="5.5102" height="5.5102" transform="rotate(180 140.242 198.367)" fill="#C2C2C2"/>
<rect x="222.891" y="269.996" width="5.5102" height="5.5102" transform="rotate(180 222.891 269.996)" fill="#C2C2C2"/>
<rect x="222.891" y="121.223" width="5.5102" height="5.5102" transform="rotate(180 222.891 121.223)" fill="#C2C2C2"/>
<rect x="222.891" y="159.797" width="5.5102" height="5.5102" transform="rotate(180 222.891 159.797)" fill="#C2C2C2"/>
<rect x="222.891" y="198.367" width="5.5102" height="5.5102" transform="rotate(180 222.891 198.367)" fill="#C2C2C2"/>
<rect x="79.625" y="269.996" width="5.5102" height="5.5102" transform="rotate(180 79.625 269.996)" fill="#C2C2C2"/>
<rect x="79.625" y="121.223" width="5.5102" height="5.5102" transform="rotate(180 79.625 121.223)" fill="#C2C2C2"/>
<rect x="79.625" y="159.797" width="5.5102" height="5.5102" transform="rotate(180 79.625 159.797)" fill="#C2C2C2"/>
<rect x="79.625" y="198.367" width="5.5102" height="5.5102" transform="rotate(180 79.625 198.367)" fill="#C2C2C2"/>
<rect x="90.6484" y="269.996" width="5.5102" height="5.5102" transform="rotate(180 90.6484 269.996)" fill="#C2C2C2"/>
<rect x="90.6484" y="121.223" width="5.5102" height="5.5102" transform="rotate(180 90.6484 121.223)" fill="#C2C2C2"/>
<rect x="90.6484" y="159.797" width="5.5102" height="5.5102" transform="rotate(180 90.6484 159.797)" fill="#C2C2C2"/>
<rect x="90.6484" y="198.367" width="5.5102" height="5.5102" transform="rotate(180 90.6484 198.367)" fill="#C2C2C2"/>
<rect x="173.297" y="269.996" width="5.5102" height="5.5102" transform="rotate(180 173.297 269.996)" fill="#C2C2C2"/>
<rect x="173.297" y="121.223" width="5.5102" height="5.5102" transform="rotate(180 173.297 121.223)" fill="#C2C2C2"/>
<rect x="173.297" y="159.797" width="5.5102" height="5.5102" transform="rotate(180 173.297 159.797)" fill="#C2C2C2"/>
<rect x="173.297" y="198.367" width="5.5102" height="5.5102" transform="rotate(180 173.297 198.367)" fill="#C2C2C2"/>
<rect x="255.953" y="269.996" width="5.5102" height="5.5102" transform="rotate(180 255.953 269.996)" fill="#C2C2C2"/>
<rect x="255.953" y="121.223" width="5.5102" height="5.5102" transform="rotate(180 255.953 121.223)" fill="#C2C2C2"/>
<rect x="255.953" y="159.797" width="5.5102" height="5.5102" transform="rotate(180 255.953 159.797)" fill="#C2C2C2"/>
<rect x="255.953" y="198.367" width="5.5102" height="5.5102" transform="rotate(180 255.953 198.367)" fill="#C2C2C2"/>
<rect x="266.969" y="269.996" width="5.5102" height="5.5102" transform="rotate(180 266.969 269.996)" fill="#C2C2C2"/>
<rect x="266.969" y="121.223" width="5.5102" height="5.5102" transform="rotate(180 266.969 121.223)" fill="#C2C2C2"/>
<rect x="266.969" y="159.797" width="5.5102" height="5.5102" transform="rotate(180 266.969 159.797)" fill="#C2C2C2"/>
<rect x="266.969" y="198.367" width="5.5102" height="5.5102" transform="rotate(180 266.969 198.367)" fill="#C2C2C2"/>
<rect x="19.0156" y="269.996" width="5.5102" height="5.5102" transform="rotate(180 19.0156 269.996)" fill="#C2C2C2"/>
<rect x="19.0156" y="121.223" width="5.5102" height="5.5102" transform="rotate(180 19.0156 121.223)" fill="#C2C2C2"/>
<rect x="19.0156" y="159.797" width="5.5102" height="5.5102" transform="rotate(180 19.0156 159.797)" fill="#C2C2C2"/>
<rect x="19.0156" y="198.367" width="5.5102" height="5.5102" transform="rotate(180 19.0156 198.367)" fill="#C2C2C2"/>
<rect x="112.688" y="269.996" width="5.5102" height="5.5102" transform="rotate(180 112.688 269.996)" fill="#C2C2C2"/>
<rect x="112.688" y="121.223" width="5.5102" height="5.5102" transform="rotate(180 112.688 121.223)" fill="#C2C2C2"/>
<rect x="112.688" y="159.797" width="5.5102" height="5.5102" transform="rotate(180 112.688 159.797)" fill="#C2C2C2"/>
<rect x="112.688" y="198.367" width="5.5102" height="5.5102" transform="rotate(180 112.688 198.367)" fill="#C2C2C2"/>
<rect x="107.18" y="269.996" width="5.5102" height="5.5102" transform="rotate(180 107.18 269.996)" fill="#C2C2C2"/>
<rect x="107.18" y="121.223" width="5.5102" height="5.5102" transform="rotate(180 107.18 121.223)" fill="#C2C2C2"/>
<rect x="107.18" y="159.797" width="5.5102" height="5.5102" transform="rotate(180 107.18 159.797)" fill="#C2C2C2"/>
<rect x="107.18" y="198.367" width="5.5102" height="5.5102" transform="rotate(180 107.18 198.367)" fill="#C2C2C2"/>
<rect x="195.344" y="269.996" width="5.5102" height="5.5102" transform="rotate(180 195.344 269.996)" fill="#C2C2C2"/>
<rect x="195.344" y="121.223" width="5.5102" height="5.5102" transform="rotate(180 195.344 121.223)" fill="#C2C2C2"/>
<rect x="195.344" y="159.797" width="5.5102" height="5.5102" transform="rotate(180 195.344 159.797)" fill="#C2C2C2"/>
<rect x="195.344" y="198.367" width="5.5102" height="5.5102" transform="rotate(180 195.344 198.367)" fill="#C2C2C2"/>
<rect x="41.0547" y="269.996" width="5.5102" height="5.5102" transform="rotate(180 41.0547 269.996)" fill="#C2C2C2"/>
<rect x="41.0547" y="121.223" width="5.5102" height="5.5102" transform="rotate(180 41.0547 121.223)" fill="#C2C2C2"/>
<rect x="41.0547" y="159.797" width="5.5102" height="5.5102" transform="rotate(180 41.0547 159.797)" fill="#C2C2C2"/>
<rect x="41.0547" y="198.367" width="5.5102" height="5.5102" transform="rotate(180 41.0547 198.367)" fill="#C2C2C2"/>
<rect x="134.727" y="269.996" width="5.5102" height="5.5102" transform="rotate(180 134.727 269.996)" fill="#C2C2C2"/>
<rect x="134.727" y="121.223" width="5.5102" height="5.5102" transform="rotate(180 134.727 121.223)" fill="#C2C2C2"/>
<rect x="134.727" y="159.797" width="5.5102" height="5.5102" transform="rotate(180 134.727 159.797)" fill="#C2C2C2"/>
<rect x="134.727" y="198.367" width="5.5102" height="5.5102" transform="rotate(180 134.727 198.367)" fill="#C2C2C2"/>
<rect x="217.383" y="269.996" width="5.5102" height="5.5102" transform="rotate(180 217.383 269.996)" fill="#C2C2C2"/>
<rect x="217.383" y="121.223" width="5.5102" height="5.5102" transform="rotate(180 217.383 121.223)" fill="#C2C2C2"/>
<rect x="217.383" y="159.797" width="5.5102" height="5.5102" transform="rotate(180 217.383 159.797)" fill="#C2C2C2"/>
<rect x="217.383" y="198.367" width="5.5102" height="5.5102" transform="rotate(180 217.383 198.367)" fill="#C2C2C2"/>
<rect x="74.1172" y="269.996" width="5.5102" height="5.5102" transform="rotate(180 74.1172 269.996)" fill="#C2C2C2"/>
<rect x="74.1172" y="121.223" width="5.5102" height="5.5102" transform="rotate(180 74.1172 121.223)" fill="#C2C2C2"/>
<rect x="74.1172" y="159.797" width="5.5102" height="5.5102" transform="rotate(180 74.1172 159.797)" fill="#C2C2C2"/>
<rect x="74.1172" y="198.367" width="5.5102" height="5.5102" transform="rotate(180 74.1172 198.367)" fill="#C2C2C2"/>
<rect x="167.789" y="269.996" width="5.5102" height="5.5102" transform="rotate(180 167.789 269.996)" fill="#C2C2C2"/>
<rect x="167.789" y="121.223" width="5.5102" height="5.5102" transform="rotate(180 167.789 121.223)" fill="#C2C2C2"/>
<rect x="167.789" y="159.797" width="5.5102" height="5.5102" transform="rotate(180 167.789 159.797)" fill="#C2C2C2"/>
<rect x="167.789" y="198.367" width="5.5102" height="5.5102" transform="rotate(180 167.789 198.367)" fill="#C2C2C2"/>
<rect x="250.445" y="269.996" width="5.5102" height="5.5102" transform="rotate(180 250.445 269.996)" fill="#C2C2C2"/>
<rect x="250.445" y="121.223" width="5.5102" height="5.5102" transform="rotate(180 250.445 121.223)" fill="#C2C2C2"/>
<rect x="250.445" y="159.797" width="5.5102" height="5.5102" transform="rotate(180 250.445 159.797)" fill="#C2C2C2"/>
<rect x="250.445" y="198.367" width="5.5102" height="5.5102" transform="rotate(180 250.445 198.367)" fill="#C2C2C2"/>
<rect x="30.0391" y="269.996" width="5.5102" height="5.5102" transform="rotate(180 30.0391 269.996)" fill="#C2C2C2"/>
<rect x="30.0391" y="121.223" width="5.5102" height="5.5102" transform="rotate(180 30.0391 121.223)" fill="#C2C2C2"/>
<rect x="30.0391" y="159.797" width="5.5102" height="5.5102" transform="rotate(180 30.0391 159.797)" fill="#C2C2C2"/>
<rect x="30.0391" y="198.367" width="5.5102" height="5.5102" transform="rotate(180 30.0391 198.367)" fill="#C2C2C2"/>
<rect x="123.711" y="269.996" width="5.5102" height="5.5102" transform="rotate(180 123.711 269.996)" fill="#C2C2C2"/>
<rect x="123.711" y="121.223" width="5.5102" height="5.5102" transform="rotate(180 123.711 121.223)" fill="#C2C2C2"/>
<rect x="123.711" y="159.797" width="5.5102" height="5.5102" transform="rotate(180 123.711 159.797)" fill="#C2C2C2"/>
<rect x="123.711" y="198.367" width="5.5102" height="5.5102" transform="rotate(180 123.711 198.367)" fill="#C2C2C2"/>
<rect x="206.359" y="269.996" width="5.5102" height="5.5102" transform="rotate(180 206.359 269.996)" fill="#C2C2C2"/>
<rect x="206.359" y="121.223" width="5.5102" height="5.5102" transform="rotate(180 206.359 121.223)" fill="#C2C2C2"/>
<rect x="206.359" y="159.797" width="5.5102" height="5.5102" transform="rotate(180 206.359 159.797)" fill="#C2C2C2"/>
<rect x="206.359" y="198.367" width="5.5102" height="5.5102" transform="rotate(180 206.359 198.367)" fill="#C2C2C2"/>
<rect x="63.0938" y="269.996" width="5.5102" height="5.5102" transform="rotate(180 63.0938 269.996)" fill="#C2C2C2"/>
<rect x="63.0938" y="121.223" width="5.5102" height="5.5102" transform="rotate(180 63.0938 121.223)" fill="#C2C2C2"/>
<rect x="63.0938" y="159.797" width="5.5102" height="5.5102" transform="rotate(180 63.0938 159.797)" fill="#C2C2C2"/>
<rect x="63.0938" y="198.367" width="5.5102" height="5.5102" transform="rotate(180 63.0938 198.367)" fill="#C2C2C2"/>
<rect x="156.773" y="269.996" width="5.5102" height="5.5102" transform="rotate(180 156.773 269.996)" fill="#C2C2C2"/>
<rect x="156.773" y="121.223" width="5.5102" height="5.5102" transform="rotate(180 156.773 121.223)" fill="#C2C2C2"/>
<rect x="156.773" y="159.797" width="5.5102" height="5.5102" transform="rotate(180 156.773 159.797)" fill="#C2C2C2"/>
<rect x="156.773" y="198.367" width="5.5102" height="5.5102" transform="rotate(180 156.773 198.367)" fill="#C2C2C2"/>
<rect x="239.422" y="269.996" width="5.5102" height="5.5102" transform="rotate(180 239.422 269.996)" fill="#C2C2C2"/>
<rect x="239.422" y="121.223" width="5.5102" height="5.5102" transform="rotate(180 239.422 121.223)" fill="#C2C2C2"/>
<rect x="239.422" y="159.797" width="5.5102" height="5.5102" transform="rotate(180 239.422 159.797)" fill="#C2C2C2"/>
<rect x="239.422" y="198.367" width="5.5102" height="5.5102" transform="rotate(180 239.422 198.367)" fill="#C2C2C2"/>
<rect x="52.0781" y="269.996" width="5.5102" height="5.5102" transform="rotate(180 52.0781 269.996)" fill="#C2C2C2"/>
<rect x="52.0781" y="121.223" width="5.5102" height="5.5102" transform="rotate(180 52.0781 121.223)" fill="#C2C2C2"/>
<rect x="52.0781" y="159.797" width="5.5102" height="5.5102" transform="rotate(180 52.0781 159.797)" fill="#C2C2C2"/>
<rect x="52.0781" y="198.367" width="5.5102" height="5.5102" transform="rotate(180 52.0781 198.367)" fill="#C2C2C2"/>
<rect x="145.75" y="269.996" width="5.5102" height="5.5102" transform="rotate(180 145.75 269.996)" fill="#C2C2C2"/>
<rect x="145.75" y="121.223" width="5.5102" height="5.5102" transform="rotate(180 145.75 121.223)" fill="#C2C2C2"/>
<rect x="145.75" y="159.797" width="5.5102" height="5.5102" transform="rotate(180 145.75 159.797)" fill="#C2C2C2"/>
<rect x="145.75" y="198.367" width="5.5102" height="5.5102" transform="rotate(180 145.75 198.367)" fill="#C2C2C2"/>
<rect x="228.406" y="269.996" width="5.5102" height="5.5102" transform="rotate(180 228.406 269.996)" fill="#C2C2C2"/>
<rect x="228.406" y="121.223" width="5.5102" height="5.5102" transform="rotate(180 228.406 121.223)" fill="#C2C2C2"/>
<rect x="228.406" y="159.797" width="5.5102" height="5.5102" transform="rotate(180 228.406 159.797)" fill="#C2C2C2"/>
<rect x="228.406" y="198.367" width="5.5102" height="5.5102" transform="rotate(180 228.406 198.367)" fill="#C2C2C2"/>
<rect x="85.1406" y="269.996" width="5.5102" height="5.5102" transform="rotate(180 85.1406 269.996)" fill="#C2C2C2"/>
<rect x="85.1406" y="121.223" width="5.5102" height="5.5102" transform="rotate(180 85.1406 121.223)" fill="#C2C2C2"/>
<rect x="85.1406" y="159.797" width="5.5102" height="5.5102" transform="rotate(180 85.1406 159.797)" fill="#C2C2C2"/>
<rect x="85.1406" y="198.367" width="5.5102" height="5.5102" transform="rotate(180 85.1406 198.367)" fill="#C2C2C2"/>
<rect x="96.1562" y="269.996" width="5.5102" height="5.5102" transform="rotate(180 96.1562 269.996)" fill="#C2C2C2"/>
<rect x="96.1562" y="121.223" width="5.5102" height="5.5102" transform="rotate(180 96.1562 121.223)" fill="#C2C2C2"/>
<rect x="96.1562" y="159.797" width="5.5102" height="5.5102" transform="rotate(180 96.1562 159.797)" fill="#C2C2C2"/>
<rect x="96.1562" y="198.367" width="5.5102" height="5.5102" transform="rotate(180 96.1562 198.367)" fill="#C2C2C2"/>
<rect x="178.812" y="269.996" width="5.5102" height="5.5102" transform="rotate(180 178.812 269.996)" fill="#C2C2C2"/>
<rect x="178.812" y="121.223" width="5.5102" height="5.5102" transform="rotate(180 178.812 121.223)" fill="#C2C2C2"/>
<rect x="178.812" y="159.797" width="5.5102" height="5.5102" transform="rotate(180 178.812 159.797)" fill="#C2C2C2"/>
<rect x="178.812" y="198.367" width="5.5102" height="5.5102" transform="rotate(180 178.812 198.367)" fill="#C2C2C2"/>
<rect x="184.32" y="269.996" width="5.5102" height="5.5102" transform="rotate(180 184.32 269.996)" fill="#C2C2C2"/>
<rect x="184.32" y="121.223" width="5.5102" height="5.5102" transform="rotate(180 184.32 121.223)" fill="#C2C2C2"/>
<rect x="184.32" y="159.797" width="5.5102" height="5.5102" transform="rotate(180 184.32 159.797)" fill="#C2C2C2"/>
<rect x="184.32" y="198.367" width="5.5102" height="5.5102" transform="rotate(180 184.32 198.367)" fill="#C2C2C2"/>
<rect x="261.461" y="269.996" width="5.5102" height="5.5102" transform="rotate(180 261.461 269.996)" fill="#C2C2C2"/>
<rect x="261.461" y="121.223" width="5.5102" height="5.5102" transform="rotate(180 261.461 121.223)" fill="#C2C2C2"/>
<rect x="261.461" y="159.797" width="5.5102" height="5.5102" transform="rotate(180 261.461 159.797)" fill="#C2C2C2"/>
<rect x="261.461" y="198.367" width="5.5102" height="5.5102" transform="rotate(180 261.461 198.367)" fill="#C2C2C2"/>
<rect x="272.477" y="269.996" width="5.5102" height="5.5102" transform="rotate(180 272.477 269.996)" fill="#C2C2C2"/>
<rect x="272.477" y="121.223" width="5.5102" height="5.5102" transform="rotate(180 272.477 121.223)" fill="#C2C2C2"/>
<rect x="272.477" y="159.797" width="5.5102" height="5.5102" transform="rotate(180 272.477 159.797)" fill="#C2C2C2"/>
<rect x="272.477" y="198.367" width="5.5102" height="5.5102" transform="rotate(180 272.477 198.367)" fill="#C2C2C2"/>
<rect width="5.5102" height="5.5102" transform="matrix(1 8.74228e-08 8.74228e-08 -1 272.477 269.996)" fill="#C2C2C2"/>
<rect width="5.5102" height="5.5102" transform="matrix(1 8.74228e-08 8.74228e-08 -1 272.477 121.223)" fill="#C2C2C2"/>
<rect width="5.5102" height="5.5102" transform="matrix(1 8.74228e-08 8.74228e-08 -1 272.477 159.797)" fill="#C2C2C2"/>
<rect width="5.5102" height="5.5102" transform="matrix(1 8.74228e-08 8.74228e-08 -1 272.477 198.367)" fill="#C2C2C2"/>
<rect x="123.711" y="44.082" width="5.5102" height="5.5102" transform="rotate(180 123.711 44.082)" fill="#C2C2C2"/>
<rect width="5.5102" height="5.5102" transform="matrix(1 8.74228e-08 8.74228e-08 -1 162.281 44.082)" fill="#C2C2C2"/>
<rect x="96.1562" y="99.1836" width="5.5102" height="5.5102" transform="rotate(180 96.1562 99.1836)" fill="#C2C2C2"/>
<rect width="5.5102" height="5.5102" transform="matrix(1 8.74228e-08 8.74228e-08 -1 189.828 99.1836)" fill="#C2C2C2"/>
<rect x="68.6094" y="154.285" width="5.5102" height="5.5102" transform="rotate(180 68.6094 154.285)" fill="#C2C2C2"/>
<rect width="5.5102" height="5.5102" transform="matrix(1 8.74228e-08 8.74228e-08 -1 217.383 154.285)" fill="#C2C2C2"/>
<rect x="41.0547" y="209.387" width="5.5102" height="5.5102" transform="rotate(180 41.0547 209.387)" fill="#C2C2C2"/>
<rect width="5.5102" height="5.5102" transform="matrix(1 8.74228e-08 8.74228e-08 -1 244.93 209.387)" fill="#C2C2C2"/>
<rect x="112.688" y="66.1211" width="5.5102" height="5.5102" transform="rotate(180 112.688 66.1211)" fill="#C2C2C2"/>
<rect width="5.5102" height="5.5102" transform="matrix(1 8.74228e-08 8.74228e-08 -1 173.297 66.1211)" fill="#C2C2C2"/>
<rect x="85.1406" y="121.223" width="5.5102" height="5.5102" transform="rotate(180 85.1406 121.223)" fill="#C2C2C2"/>
<rect width="5.5102" height="5.5102" transform="matrix(1 8.74228e-08 8.74228e-08 -1 200.852 121.223)" fill="#C2C2C2"/>
<rect x="57.5859" y="176.328" width="5.5102" height="5.5102" transform="rotate(180 57.5859 176.328)" fill="#C2C2C2"/>
<rect width="5.5102" height="5.5102" transform="matrix(1 8.74228e-08 8.74228e-08 -1 228.406 176.328)" fill="#C2C2C2"/>
<rect x="30.0391" y="231.43" width="5.5102" height="5.5102" transform="rotate(180 30.0391 231.43)" fill="#C2C2C2"/>
<rect width="5.5102" height="5.5102" transform="matrix(1 8.74228e-08 8.74228e-08 -1 255.953 231.43)" fill="#C2C2C2"/>
<rect x="19.0156" y="253.469" width="5.5102" height="5.5102" transform="rotate(180 19.0156 253.469)" fill="#C2C2C2"/>
<rect width="5.5102" height="5.5102" transform="matrix(1 8.74228e-08 8.74228e-08 -1 266.969 253.469)" fill="#C2C2C2"/>
<rect x="13.5078" y="264.488" width="5.5102" height="5.5102" transform="rotate(180 13.5078 264.488)" fill="#C2C2C2"/>
<rect width="5.5102" height="5.5102" transform="matrix(1 8.74228e-08 8.74228e-08 -1 272.477 264.488)" fill="#C2C2C2"/>
<circle cx="169" cy="158" r="12" fill="black"/>
<circle cx="273" cy="118" r="12" fill="black"/>
<circle cx="15" cy="118" r="12" fill="white"/>
<circle cx="86" cy="118" r="12" fill="white"/>
<circle cx="179" cy="198" r="12" fill="white"/>
<circle cx="224" cy="158" r="12" fill="white"/>
<circle cx="240" cy="198" r="12" fill="white"/>
<circle cx="275" cy="198" r="12" fill="white"/>
<circle cx="279" cy="267" r="12" fill="white"/>
<circle cx="103" cy="267" r="12" fill="white"/>
<circle cx="111" cy="198" r="12" fill="white"/>
<circle cx="45" cy="198" r="12" fill="white"/>
<circle cx="67" cy="158" r="12" fill="white"/>
<circle cx="119" cy="158" r="12" fill="white"/>
<circle cx="124" cy="118" r="12" fill="white"/>
<circle cx="12" cy="198" r="12" fill="white"/>
<circle cx="15" cy="267" r="12" fill="white"/>
<circle cx="190" cy="267" r="13" fill="black" stroke="#FF6363" stroke-width="2"/>
</svg>
