<svg width="275" height="272" viewBox="0 0 275 272" fill="none" xmlns="http://www.w3.org/2000/svg">
<rect x="142.734" y="7.51172" width="5.5102" height="5.5102" transform="rotate(180 142.734 7.51172)" fill="#C2C2C2"/>
<rect x="142.734" y="13.0195" width="5.5102" height="5.5102" transform="rotate(180 142.734 13.0195)" fill="#C2C2C2"/>
<rect x="137.227" y="18.5312" width="5.5102" height="5.5102" transform="rotate(180 137.227 18.5312)" fill="#C2C2C2"/>
<rect x="142.734" y="24.0391" width="5.5102" height="5.5102" transform="rotate(180 142.734 24.0391)" fill="#C2C2C2"/>
<rect x="142.734" y="29.5508" width="5.5102" height="5.5102" transform="rotate(180 142.734 29.5508)" fill="#C2C2C2"/>
<rect x="137.227" y="35.0625" width="5.5102" height="5.5102" transform="rotate(180 137.227 35.0625)" fill="#C2C2C2"/>
<rect width="5.5102" height="5.5102" transform="matrix(1 8.74228e-08 8.74228e-08 -1 142.734 35.0625)" fill="#C2C2C2"/>
<rect x="131.711" y="57.1016" width="5.5102" height="5.5102" transform="rotate(180 131.711 57.1016)" fill="#C2C2C2"/>
<rect width="5.5102" height="5.5102" transform="matrix(1 8.74228e-08 8.74228e-08 -1 148.242 57.1016)" fill="#C2C2C2"/>
<rect x="126.203" y="90.1641" width="5.5102" height="5.5102" transform="rotate(180 126.203 90.1641)" fill="#C2C2C2"/>
<rect width="5.5102" height="5.5102" transform="matrix(1 8.74228e-08 8.74228e-08 -1 153.758 90.1641)" fill="#C2C2C2"/>
<rect x="120.695" y="123.227" width="5.5102" height="5.5102" transform="rotate(180 120.695 123.227)" fill="#C2C2C2"/>
<rect width="5.5102" height="5.5102" transform="matrix(1 8.74228e-08 8.74228e-08 -1 159.266 123.227)" fill="#C2C2C2"/>
<rect x="115.18" y="156.285" width="5.5102" height="5.5102" transform="rotate(180 115.18 156.285)" fill="#C2C2C2"/>
<rect width="5.5102" height="5.5102" transform="matrix(1 8.74228e-08 8.74228e-08 -1 164.773 156.285)" fill="#C2C2C2"/>
<rect x="109.672" y="189.348" width="5.5102" height="5.5102" transform="rotate(180 109.672 189.348)" fill="#C2C2C2"/>
<rect width="5.5102" height="5.5102" transform="matrix(1 8.74228e-08 8.74228e-08 -1 170.281 189.348)" fill="#C2C2C2"/>
<rect x="104.164" y="222.41" width="5.5102" height="5.5102" transform="rotate(180 104.164 222.41)" fill="#C2C2C2"/>
<rect width="5.5102" height="5.5102" transform="matrix(1 8.74228e-08 8.74228e-08 -1 175.797 222.41)" fill="#C2C2C2"/>
<rect x="98.6562" y="255.469" width="5.5102" height="5.5102" transform="rotate(180 98.6562 255.469)" fill="#C2C2C2"/>
<rect width="5.5102" height="5.5102" transform="matrix(1 8.74228e-08 8.74228e-08 -1 181.305 255.469)" fill="#C2C2C2"/>
<rect x="137.227" y="40.5703" width="5.5102" height="5.5102" transform="rotate(180 137.227 40.5703)" fill="#C2C2C2"/>
<rect width="5.5102" height="5.5102" transform="matrix(1 8.74228e-08 8.74228e-08 -1 142.734 40.5703)" fill="#C2C2C2"/>
<rect x="131.711" y="62.6133" width="5.5102" height="5.5102" transform="rotate(180 131.711 62.6133)" fill="#C2C2C2"/>
<rect width="5.5102" height="5.5102" transform="matrix(1 8.74228e-08 8.74228e-08 -1 148.242 62.6133)" fill="#C2C2C2"/>
<rect x="126.203" y="95.6758" width="5.5102" height="5.5102" transform="rotate(180 126.203 95.6758)" fill="#C2C2C2"/>
<rect width="5.5102" height="5.5102" transform="matrix(1 8.74228e-08 8.74228e-08 -1 153.758 95.6758)" fill="#C2C2C2"/>
<rect x="120.695" y="128.734" width="5.5102" height="5.5102" transform="rotate(180 120.695 128.734)" fill="#C2C2C2"/>
<rect width="5.5102" height="5.5102" transform="matrix(1 8.74228e-08 8.74228e-08 -1 159.266 128.734)" fill="#C2C2C2"/>
<rect x="115.18" y="161.797" width="5.5102" height="5.5102" transform="rotate(180 115.18 161.797)" fill="#C2C2C2"/>
<rect width="5.5102" height="5.5102" transform="matrix(1 8.74228e-08 8.74228e-08 -1 164.773 161.797)" fill="#C2C2C2"/>
<rect x="109.672" y="194.859" width="5.5102" height="5.5102" transform="rotate(180 109.672 194.859)" fill="#C2C2C2"/>
<rect width="5.5102" height="5.5102" transform="matrix(1 8.74228e-08 8.74228e-08 -1 170.281 194.859)" fill="#C2C2C2"/>
<rect x="104.164" y="227.918" width="5.5102" height="5.5102" transform="rotate(180 104.164 227.918)" fill="#C2C2C2"/>
<rect width="5.5102" height="5.5102" transform="matrix(1 8.74228e-08 8.74228e-08 -1 175.797 227.918)" fill="#C2C2C2"/>
<rect x="98.6562" y="260.977" width="5.5102" height="5.5102" transform="rotate(180 98.6562 260.977)" fill="#C2C2C2"/>
<rect width="5.5102" height="5.5102" transform="matrix(1 8.74228e-08 8.74228e-08 -1 181.305 260.977)" fill="#C2C2C2"/>
<rect x="137.227" y="46.082" width="5.5102" height="5.5102" transform="rotate(180 137.227 46.082)" fill="#C2C2C2"/>
<rect width="5.5102" height="5.5102" transform="matrix(1 8.74228e-08 8.74228e-08 -1 142.734 46.082)" fill="#C2C2C2"/>
<rect x="131.711" y="68.1211" width="5.5102" height="5.5102" transform="rotate(180 131.711 68.1211)" fill="#C2C2C2"/>
<rect width="5.5102" height="5.5102" transform="matrix(1 8.74228e-08 8.74228e-08 -1 148.242 68.1211)" fill="#C2C2C2"/>
<rect x="126.203" y="101.184" width="5.5102" height="5.5102" transform="rotate(180 126.203 101.184)" fill="#C2C2C2"/>
<rect width="5.5102" height="5.5102" transform="matrix(1 8.74228e-08 8.74228e-08 -1 153.758 101.184)" fill="#C2C2C2"/>
<rect x="120.695" y="134.246" width="5.5102" height="5.5102" transform="rotate(180 120.695 134.246)" fill="#C2C2C2"/>
<rect width="5.5102" height="5.5102" transform="matrix(1 8.74228e-08 8.74228e-08 -1 159.266 134.246)" fill="#C2C2C2"/>
<rect x="115.18" y="167.305" width="5.5102" height="5.5102" transform="rotate(180 115.18 167.305)" fill="#C2C2C2"/>
<rect width="5.5102" height="5.5102" transform="matrix(1 8.74228e-08 8.74228e-08 -1 164.773 167.305)" fill="#C2C2C2"/>
<rect x="109.672" y="200.367" width="5.5102" height="5.5102" transform="rotate(180 109.672 200.367)" fill="#C2C2C2"/>
<rect width="5.5102" height="5.5102" transform="matrix(1 8.74228e-08 8.74228e-08 -1 170.281 200.367)" fill="#C2C2C2"/>
<rect x="104.164" y="233.43" width="5.5102" height="5.5102" transform="rotate(180 104.164 233.43)" fill="#C2C2C2"/>
<rect width="5.5102" height="5.5102" transform="matrix(1 8.74228e-08 8.74228e-08 -1 175.797 233.43)" fill="#C2C2C2"/>
<rect x="98.6562" y="266.488" width="5.5102" height="5.5102" transform="rotate(180 98.6562 266.488)" fill="#C2C2C2"/>
<rect width="5.5102" height="5.5102" transform="matrix(1 8.74228e-08 8.74228e-08 -1 181.305 266.488)" fill="#C2C2C2"/>
<rect x="137.227" y="51.5898" width="5.5102" height="5.5102" transform="rotate(180 137.227 51.5898)" fill="#C2C2C2"/>
<rect width="5.5102" height="5.5102" transform="matrix(1 8.74228e-08 8.74228e-08 -1 142.734 51.5898)" fill="#C2C2C2"/>
<rect x="131.711" y="73.6328" width="5.5102" height="5.5102" transform="rotate(180 131.711 73.6328)" fill="#C2C2C2"/>
<rect width="5.5102" height="5.5102" transform="matrix(1 8.74228e-08 8.74228e-08 -1 148.242 73.6328)" fill="#C2C2C2"/>
<rect x="126.203" y="106.695" width="5.5102" height="5.5102" transform="rotate(180 126.203 106.695)" fill="#C2C2C2"/>
<rect width="5.5102" height="5.5102" transform="matrix(1 8.74228e-08 8.74228e-08 -1 153.758 106.695)" fill="#C2C2C2"/>
<rect x="120.695" y="139.754" width="5.5102" height="5.5102" transform="rotate(180 120.695 139.754)" fill="#C2C2C2"/>
<rect width="5.5102" height="5.5102" transform="matrix(1 8.74228e-08 8.74228e-08 -1 159.266 139.754)" fill="#C2C2C2"/>
<rect x="115.18" y="172.816" width="5.5102" height="5.5102" transform="rotate(180 115.18 172.816)" fill="#C2C2C2"/>
<rect width="5.5102" height="5.5102" transform="matrix(1 8.74228e-08 8.74228e-08 -1 164.773 172.816)" fill="#C2C2C2"/>
<rect x="109.672" y="205.879" width="5.5102" height="5.5102" transform="rotate(180 109.672 205.879)" fill="#C2C2C2"/>
<rect width="5.5102" height="5.5102" transform="matrix(1 8.74228e-08 8.74228e-08 -1 170.281 205.879)" fill="#C2C2C2"/>
<rect x="104.164" y="238.938" width="5.5102" height="5.5102" transform="rotate(180 104.164 238.938)" fill="#C2C2C2"/>
<rect width="5.5102" height="5.5102" transform="matrix(1 8.74228e-08 8.74228e-08 -1 175.797 238.938)" fill="#C2C2C2"/>
<rect x="98.6562" y="272" width="5.5102" height="5.5102" transform="rotate(180 98.6562 272)" fill="#C2C2C2"/>
<rect x="98.6562" y="123.227" width="5.5102" height="5.5102" transform="rotate(180 98.6562 123.227)" fill="#C2C2C2"/>
<rect x="98.6562" y="161.797" width="5.5102" height="5.5102" transform="rotate(180 98.6562 161.797)" fill="#C2C2C2"/>
<rect x="98.6562" y="200.367" width="5.5102" height="5.5102" transform="rotate(180 98.6562 200.367)" fill="#C2C2C2"/>
<rect width="5.5102" height="5.5102" transform="matrix(1 8.74228e-08 8.74228e-08 -1 181.305 272)" fill="#C2C2C2"/>
<rect width="5.5102" height="5.5102" transform="matrix(1 8.74228e-08 8.74228e-08 -1 181.305 123.227)" fill="#C2C2C2"/>
<rect width="5.5102" height="5.5102" transform="matrix(1 8.74228e-08 8.74228e-08 -1 181.305 161.797)" fill="#C2C2C2"/>
<rect width="5.5102" height="5.5102" transform="matrix(1 8.74228e-08 8.74228e-08 -1 181.305 200.367)" fill="#C2C2C2"/>
<rect x="131.711" y="79.1445" width="5.5102" height="5.5102" transform="rotate(180 131.711 79.1445)" fill="#C2C2C2"/>
<rect width="5.5102" height="5.5102" transform="matrix(1 8.74228e-08 8.74228e-08 -1 148.242 79.1445)" fill="#C2C2C2"/>
<rect x="126.203" y="112.203" width="5.5102" height="5.5102" transform="rotate(180 126.203 112.203)" fill="#C2C2C2"/>
<rect width="5.5102" height="5.5102" transform="matrix(1 8.74228e-08 8.74228e-08 -1 153.758 112.203)" fill="#C2C2C2"/>
<rect x="120.695" y="145.266" width="5.5102" height="5.5102" transform="rotate(180 120.695 145.266)" fill="#C2C2C2"/>
<rect width="5.5102" height="5.5102" transform="matrix(1 8.74228e-08 8.74228e-08 -1 159.266 145.266)" fill="#C2C2C2"/>
<rect x="115.18" y="178.328" width="5.5102" height="5.5102" transform="rotate(180 115.18 178.328)" fill="#C2C2C2"/>
<rect width="5.5102" height="5.5102" transform="matrix(1 8.74228e-08 8.74228e-08 -1 164.773 178.328)" fill="#C2C2C2"/>
<rect x="109.672" y="211.387" width="5.5102" height="5.5102" transform="rotate(180 109.672 211.387)" fill="#C2C2C2"/>
<rect width="5.5102" height="5.5102" transform="matrix(1 8.74228e-08 8.74228e-08 -1 170.281 211.387)" fill="#C2C2C2"/>
<rect x="104.164" y="244.449" width="5.5102" height="5.5102" transform="rotate(180 104.164 244.449)" fill="#C2C2C2"/>
<rect width="5.5102" height="5.5102" transform="matrix(1 8.74228e-08 8.74228e-08 -1 175.797 244.449)" fill="#C2C2C2"/>
<rect x="131.711" y="84.6523" width="5.5102" height="5.5102" transform="rotate(180 131.711 84.6523)" fill="#C2C2C2"/>
<rect width="5.5102" height="5.5102" transform="matrix(1 8.74228e-08 8.74228e-08 -1 148.242 84.6523)" fill="#C2C2C2"/>
<rect x="126.203" y="117.715" width="5.5102" height="5.5102" transform="rotate(180 126.203 117.715)" fill="#C2C2C2"/>
<rect width="5.5102" height="5.5102" transform="matrix(1 8.74228e-08 8.74228e-08 -1 153.758 117.715)" fill="#C2C2C2"/>
<rect x="120.695" y="150.777" width="5.5102" height="5.5102" transform="rotate(180 120.695 150.777)" fill="#C2C2C2"/>
<rect width="5.5102" height="5.5102" transform="matrix(1 8.74228e-08 8.74228e-08 -1 159.266 150.777)" fill="#C2C2C2"/>
<rect x="115.18" y="183.836" width="5.5102" height="5.5102" transform="rotate(180 115.18 183.836)" fill="#C2C2C2"/>
<rect width="5.5102" height="5.5102" transform="matrix(1 8.74228e-08 8.74228e-08 -1 164.773 183.836)" fill="#C2C2C2"/>
<rect x="109.672" y="216.898" width="5.5102" height="5.5102" transform="rotate(180 109.672 216.898)" fill="#C2C2C2"/>
<rect width="5.5102" height="5.5102" transform="matrix(1 8.74228e-08 8.74228e-08 -1 170.281 216.898)" fill="#C2C2C2"/>
<rect x="104.164" y="249.961" width="5.5102" height="5.5102" transform="rotate(180 104.164 249.961)" fill="#C2C2C2"/>
<rect width="5.5102" height="5.5102" transform="matrix(1 8.74228e-08 8.74228e-08 -1 175.797 249.961)" fill="#C2C2C2"/>
<rect width="5.5102" height="5.5102" transform="matrix(1 8.74228e-08 8.74228e-08 -1 142.734 18.5312)" fill="#C2C2C2"/>
<rect x="131.711" y="24.0391" width="5.5102" height="5.5102" transform="rotate(180 131.711 24.0391)" fill="#C2C2C2"/>
<rect width="5.5102" height="5.5102" transform="matrix(1 8.74228e-08 8.74228e-08 -1 148.242 24.0391)" fill="#C2C2C2"/>
<rect x="104.164" y="79.1445" width="5.5102" height="5.5102" transform="rotate(180 104.164 79.1445)" fill="#C2C2C2"/>
<rect width="5.5102" height="5.5102" transform="matrix(1 8.74228e-08 8.74228e-08 -1 175.797 79.1445)" fill="#C2C2C2"/>
<rect x="76.6094" y="134.246" width="5.5102" height="5.5102" transform="rotate(180 76.6094 134.246)" fill="#C2C2C2"/>
<rect width="5.5102" height="5.5102" transform="matrix(1 8.74228e-08 8.74228e-08 -1 203.344 134.246)" fill="#C2C2C2"/>
<rect x="49.0625" y="189.348" width="5.5102" height="5.5102" transform="rotate(180 49.0625 189.348)" fill="#C2C2C2"/>
<rect width="5.5102" height="5.5102" transform="matrix(1 8.74228e-08 8.74228e-08 -1 230.898 189.348)" fill="#C2C2C2"/>
<rect x="131.711" y="29.5508" width="5.5102" height="5.5102" transform="rotate(180 131.711 29.5508)" fill="#C2C2C2"/>
<rect width="5.5102" height="5.5102" transform="matrix(1 8.74228e-08 8.74228e-08 -1 148.242 29.5508)" fill="#C2C2C2"/>
<rect x="104.164" y="84.6523" width="5.5102" height="5.5102" transform="rotate(180 104.164 84.6523)" fill="#C2C2C2"/>
<rect width="5.5102" height="5.5102" transform="matrix(1 8.74228e-08 8.74228e-08 -1 175.797 84.6523)" fill="#C2C2C2"/>
<rect x="76.6094" y="139.754" width="5.5102" height="5.5102" transform="rotate(180 76.6094 139.754)" fill="#C2C2C2"/>
<rect width="5.5102" height="5.5102" transform="matrix(1 8.74228e-08 8.74228e-08 -1 203.344 139.754)" fill="#C2C2C2"/>
<rect x="49.0625" y="194.859" width="5.5102" height="5.5102" transform="rotate(180 49.0625 194.859)" fill="#C2C2C2"/>
<rect width="5.5102" height="5.5102" transform="matrix(1 8.74228e-08 8.74228e-08 -1 230.898 194.859)" fill="#C2C2C2"/>
<rect x="126.203" y="35.0625" width="5.5102" height="5.5102" transform="rotate(180 126.203 35.0625)" fill="#C2C2C2"/>
<rect width="5.5102" height="5.5102" transform="matrix(1 8.74228e-08 8.74228e-08 -1 153.758 35.0625)" fill="#C2C2C2"/>
<rect x="98.6562" y="90.1641" width="5.5102" height="5.5102" transform="rotate(180 98.6562 90.1641)" fill="#C2C2C2"/>
<rect width="5.5102" height="5.5102" transform="matrix(1 8.74228e-08 8.74228e-08 -1 181.305 90.1641)" fill="#C2C2C2"/>
<rect x="71.1016" y="145.266" width="5.5102" height="5.5102" transform="rotate(180 71.1016 145.266)" fill="#C2C2C2"/>
<rect width="5.5102" height="5.5102" transform="matrix(1 8.74228e-08 8.74228e-08 -1 208.859 145.266)" fill="#C2C2C2"/>
<rect x="43.5469" y="200.367" width="5.5102" height="5.5102" transform="rotate(180 43.5469 200.367)" fill="#C2C2C2"/>
<rect width="5.5102" height="5.5102" transform="matrix(1 8.74228e-08 8.74228e-08 -1 236.406 200.367)" fill="#C2C2C2"/>
<rect x="115.18" y="57.1016" width="5.5102" height="5.5102" transform="rotate(180 115.18 57.1016)" fill="#C2C2C2"/>
<rect width="5.5102" height="5.5102" transform="matrix(1 8.74228e-08 8.74228e-08 -1 164.773 57.1016)" fill="#C2C2C2"/>
<rect x="87.6328" y="112.203" width="5.5102" height="5.5102" transform="rotate(180 87.6328 112.203)" fill="#C2C2C2"/>
<rect width="5.5102" height="5.5102" transform="matrix(1 8.74228e-08 8.74228e-08 -1 192.328 112.203)" fill="#C2C2C2"/>
<rect x="60.0781" y="167.305" width="5.5102" height="5.5102" transform="rotate(180 60.0781 167.305)" fill="#C2C2C2"/>
<rect width="5.5102" height="5.5102" transform="matrix(1 8.74228e-08 8.74228e-08 -1 219.875 167.305)" fill="#C2C2C2"/>
<rect x="32.5312" y="222.41" width="5.5102" height="5.5102" transform="rotate(180 32.5312 222.41)" fill="#C2C2C2"/>
<rect width="5.5102" height="5.5102" transform="matrix(1 8.74228e-08 8.74228e-08 -1 247.43 222.41)" fill="#C2C2C2"/>
<rect x="21.5078" y="244.449" width="5.5102" height="5.5102" transform="rotate(180 21.5078 244.449)" fill="#C2C2C2"/>
<rect width="5.5102" height="5.5102" transform="matrix(1 8.74228e-08 8.74228e-08 -1 258.445 244.449)" fill="#C2C2C2"/>
<rect x="126.203" y="40.5703" width="5.5102" height="5.5102" transform="rotate(180 126.203 40.5703)" fill="#C2C2C2"/>
<rect width="5.5102" height="5.5102" transform="matrix(1 8.74228e-08 8.74228e-08 -1 153.758 40.5703)" fill="#C2C2C2"/>
<rect x="98.6562" y="95.6758" width="5.5102" height="5.5102" transform="rotate(180 98.6562 95.6758)" fill="#C2C2C2"/>
<rect width="5.5102" height="5.5102" transform="matrix(1 8.74228e-08 8.74228e-08 -1 181.305 95.6758)" fill="#C2C2C2"/>
<rect x="71.1016" y="150.777" width="5.5102" height="5.5102" transform="rotate(180 71.1016 150.777)" fill="#C2C2C2"/>
<rect width="5.5102" height="5.5102" transform="matrix(1 8.74228e-08 8.74228e-08 -1 208.859 150.777)" fill="#C2C2C2"/>
<rect x="43.5469" y="205.879" width="5.5102" height="5.5102" transform="rotate(180 43.5469 205.879)" fill="#C2C2C2"/>
<rect width="5.5102" height="5.5102" transform="matrix(1 8.74228e-08 8.74228e-08 -1 236.406 205.879)" fill="#C2C2C2"/>
<rect x="115.18" y="62.6133" width="5.5102" height="5.5102" transform="rotate(180 115.18 62.6133)" fill="#C2C2C2"/>
<rect width="5.5102" height="5.5102" transform="matrix(1 8.74228e-08 8.74228e-08 -1 164.773 62.6133)" fill="#C2C2C2"/>
<rect x="87.6328" y="117.715" width="5.5102" height="5.5102" transform="rotate(180 87.6328 117.715)" fill="#C2C2C2"/>
<rect width="5.5102" height="5.5102" transform="matrix(1 8.74228e-08 8.74228e-08 -1 192.328 117.715)" fill="#C2C2C2"/>
<rect x="60.0781" y="172.816" width="5.5102" height="5.5102" transform="rotate(180 60.0781 172.816)" fill="#C2C2C2"/>
<rect width="5.5102" height="5.5102" transform="matrix(1 8.74228e-08 8.74228e-08 -1 219.875 172.816)" fill="#C2C2C2"/>
<rect x="32.5312" y="227.918" width="5.5102" height="5.5102" transform="rotate(180 32.5312 227.918)" fill="#C2C2C2"/>
<rect width="5.5102" height="5.5102" transform="matrix(1 8.74228e-08 8.74228e-08 -1 247.43 227.918)" fill="#C2C2C2"/>
<rect x="21.5078" y="249.961" width="5.5102" height="5.5102" transform="rotate(180 21.5078 249.961)" fill="#C2C2C2"/>
<rect width="5.5102" height="5.5102" transform="matrix(1 8.74228e-08 8.74228e-08 -1 258.445 249.961)" fill="#C2C2C2"/>
<rect x="120.695" y="51.5898" width="5.5102" height="5.5102" transform="rotate(180 120.695 51.5898)" fill="#C2C2C2"/>
<rect width="5.5102" height="5.5102" transform="matrix(1 8.74228e-08 8.74228e-08 -1 159.266 51.5898)" fill="#C2C2C2"/>
<rect x="93.1406" y="106.695" width="5.5102" height="5.5102" transform="rotate(180 93.1406 106.695)" fill="#C2C2C2"/>
<rect width="5.5102" height="5.5102" transform="matrix(1 8.74228e-08 8.74228e-08 -1 186.812 106.695)" fill="#C2C2C2"/>
<rect x="65.5938" y="161.797" width="5.5102" height="5.5102" transform="rotate(180 65.5938 161.797)" fill="#C2C2C2"/>
<rect width="5.5102" height="5.5102" transform="matrix(1 8.74228e-08 8.74228e-08 -1 214.367 161.797)" fill="#C2C2C2"/>
<rect x="38.0391" y="216.898" width="5.5102" height="5.5102" transform="rotate(180 38.0391 216.898)" fill="#C2C2C2"/>
<rect width="5.5102" height="5.5102" transform="matrix(1 8.74228e-08 8.74228e-08 -1 241.914 216.898)" fill="#C2C2C2"/>
<rect x="109.672" y="73.6328" width="5.5102" height="5.5102" transform="rotate(180 109.672 73.6328)" fill="#C2C2C2"/>
<rect width="5.5102" height="5.5102" transform="matrix(1 8.74228e-08 8.74228e-08 -1 170.281 73.6328)" fill="#C2C2C2"/>
<rect x="82.125" y="128.734" width="5.5102" height="5.5102" transform="rotate(180 82.125 128.734)" fill="#C2C2C2"/>
<rect width="5.5102" height="5.5102" transform="matrix(1 8.74228e-08 8.74228e-08 -1 197.836 128.734)" fill="#C2C2C2"/>
<rect x="54.5703" y="183.836" width="5.5102" height="5.5102" transform="rotate(180 54.5703 183.836)" fill="#C2C2C2"/>
<rect width="5.5102" height="5.5102" transform="matrix(1 8.74228e-08 8.74228e-08 -1 225.391 183.836)" fill="#C2C2C2"/>
<rect x="27.0234" y="238.938" width="5.5102" height="5.5102" transform="rotate(180 27.0234 238.938)" fill="#C2C2C2"/>
<rect width="5.5102" height="5.5102" transform="matrix(1 8.74228e-08 8.74228e-08 -1 252.938 238.938)" fill="#C2C2C2"/>
<rect x="16" y="260.977" width="5.5102" height="5.5102" transform="rotate(180 16 260.977)" fill="#C2C2C2"/>
<rect width="5.5102" height="5.5102" transform="matrix(1 8.74228e-08 8.74228e-08 -1 263.961 260.977)" fill="#C2C2C2"/>
<rect x="10.4922" y="272" width="5.5102" height="5.5102" transform="rotate(180 10.4922 272)" fill="#C2C2C2"/>
<rect x="10.4922" y="123.227" width="5.5102" height="5.5102" transform="rotate(180 10.4922 123.227)" fill="#C2C2C2"/>
<rect x="10.4922" y="145.266" width="5.5102" height="5.5102" transform="rotate(180 10.4922 145.266)" fill="#C2C2C2"/>
<rect x="274.977" y="145.266" width="5.5102" height="5.5102" transform="rotate(180 274.977 145.266)" fill="#C2C2C2"/>
<rect x="10.4922" y="183.836" width="5.5102" height="5.5102" transform="rotate(180 10.4922 183.836)" fill="#C2C2C2"/>
<rect x="274.977" y="183.836" width="5.5102" height="5.5102" transform="rotate(180 274.977 183.836)" fill="#C2C2C2"/>
<rect x="10.4922" y="134.246" width="5.5102" height="5.5102" transform="rotate(180 10.4922 134.246)" fill="#C2C2C2"/>
<rect x="274.977" y="134.246" width="5.5102" height="5.5102" transform="rotate(180 274.977 134.246)" fill="#C2C2C2"/>
<rect x="10.4922" y="172.816" width="5.5102" height="5.5102" transform="rotate(180 10.4922 172.816)" fill="#C2C2C2"/>
<rect x="274.977" y="172.816" width="5.5102" height="5.5102" transform="rotate(180 274.977 172.816)" fill="#C2C2C2"/>
<rect x="10.4922" y="156.285" width="5.5102" height="5.5102" transform="rotate(180 10.4922 156.285)" fill="#C2C2C2"/>
<rect x="274.977" y="156.285" width="5.5102" height="5.5102" transform="rotate(180 274.977 156.285)" fill="#C2C2C2"/>
<rect x="10.4922" y="194.859" width="5.5102" height="5.5102" transform="rotate(180 10.4922 194.859)" fill="#C2C2C2"/>
<rect x="274.977" y="194.859" width="5.5102" height="5.5102" transform="rotate(180 274.977 194.859)" fill="#C2C2C2"/>
<rect x="10.4922" y="128.734" width="5.5102" height="5.5102" transform="rotate(180 10.4922 128.734)" fill="#C2C2C2"/>
<rect x="274.977" y="128.734" width="5.5102" height="5.5102" transform="rotate(180 274.977 128.734)" fill="#C2C2C2"/>
<rect x="10.4922" y="167.305" width="5.5102" height="5.5102" transform="rotate(180 10.4922 167.305)" fill="#C2C2C2"/>
<rect x="274.977" y="167.305" width="5.5102" height="5.5102" transform="rotate(180 274.977 167.305)" fill="#C2C2C2"/>
<rect x="10.4922" y="150.777" width="5.5102" height="5.5102" transform="rotate(180 10.4922 150.777)" fill="#C2C2C2"/>
<rect x="274.977" y="150.777" width="5.5102" height="5.5102" transform="rotate(180 274.977 150.777)" fill="#C2C2C2"/>
<rect x="10.4922" y="189.348" width="5.5102" height="5.5102" transform="rotate(180 10.4922 189.348)" fill="#C2C2C2"/>
<rect x="274.977" y="189.348" width="5.5102" height="5.5102" transform="rotate(180 274.977 189.348)" fill="#C2C2C2"/>
<rect x="10.4922" y="139.754" width="5.5102" height="5.5102" transform="rotate(180 10.4922 139.754)" fill="#C2C2C2"/>
<rect x="274.977" y="139.754" width="5.5102" height="5.5102" transform="rotate(180 274.977 139.754)" fill="#C2C2C2"/>
<rect x="10.4922" y="178.328" width="5.5102" height="5.5102" transform="rotate(180 10.4922 178.328)" fill="#C2C2C2"/>
<rect x="274.977" y="178.328" width="5.5102" height="5.5102" transform="rotate(180 274.977 178.328)" fill="#C2C2C2"/>
<rect x="10.4922" y="161.797" width="5.5102" height="5.5102" transform="rotate(180 10.4922 161.797)" fill="#C2C2C2"/>
<rect x="274.977" y="161.797" width="5.5102" height="5.5102" transform="rotate(180 274.977 161.797)" fill="#C2C2C2"/>
<rect x="10.4922" y="161.797" width="5.5102" height="5.5102" transform="rotate(180 10.4922 161.797)" fill="#C2C2C2"/>
<rect x="274.977" y="161.797" width="5.5102" height="5.5102" transform="rotate(180 274.977 161.797)" fill="#C2C2C2"/>
<rect x="10.4922" y="200.367" width="5.5102" height="5.5102" transform="rotate(180 10.4922 200.367)" fill="#C2C2C2"/>
<rect x="32.5312" y="272" width="5.5102" height="5.5102" transform="rotate(180 32.5312 272)" fill="#C2C2C2"/>
<rect x="32.5312" y="123.227" width="5.5102" height="5.5102" transform="rotate(180 32.5312 123.227)" fill="#C2C2C2"/>
<rect x="32.5312" y="161.797" width="5.5102" height="5.5102" transform="rotate(180 32.5312 161.797)" fill="#C2C2C2"/>
<rect x="32.5312" y="200.367" width="5.5102" height="5.5102" transform="rotate(180 32.5312 200.367)" fill="#C2C2C2"/>
<rect x="126.203" y="272" width="5.5102" height="5.5102" transform="rotate(180 126.203 272)" fill="#C2C2C2"/>
<rect x="126.203" y="123.227" width="5.5102" height="5.5102" transform="rotate(180 126.203 123.227)" fill="#C2C2C2"/>
<rect x="126.203" y="161.797" width="5.5102" height="5.5102" transform="rotate(180 126.203 161.797)" fill="#C2C2C2"/>
<rect x="126.203" y="200.367" width="5.5102" height="5.5102" transform="rotate(180 126.203 200.367)" fill="#C2C2C2"/>
<rect x="208.859" y="272" width="5.5102" height="5.5102" transform="rotate(180 208.859 272)" fill="#C2C2C2"/>
<rect x="208.859" y="123.227" width="5.5102" height="5.5102" transform="rotate(180 208.859 123.227)" fill="#C2C2C2"/>
<rect x="208.859" y="161.797" width="5.5102" height="5.5102" transform="rotate(180 208.859 161.797)" fill="#C2C2C2"/>
<rect x="208.859" y="200.367" width="5.5102" height="5.5102" transform="rotate(180 208.859 200.367)" fill="#C2C2C2"/>
<rect x="65.5938" y="272" width="5.5102" height="5.5102" transform="rotate(180 65.5938 272)" fill="#C2C2C2"/>
<rect x="65.5938" y="123.227" width="5.5102" height="5.5102" transform="rotate(180 65.5938 123.227)" fill="#C2C2C2"/>
<rect x="65.5938" y="161.797" width="5.5102" height="5.5102" transform="rotate(180 65.5938 161.797)" fill="#C2C2C2"/>
<rect x="65.5938" y="200.367" width="5.5102" height="5.5102" transform="rotate(180 65.5938 200.367)" fill="#C2C2C2"/>
<rect x="159.266" y="272" width="5.5102" height="5.5102" transform="rotate(180 159.266 272)" fill="#C2C2C2"/>
<rect x="159.266" y="123.227" width="5.5102" height="5.5102" transform="rotate(180 159.266 123.227)" fill="#C2C2C2"/>
<rect x="159.266" y="161.797" width="5.5102" height="5.5102" transform="rotate(180 159.266 161.797)" fill="#C2C2C2"/>
<rect x="159.266" y="200.367" width="5.5102" height="5.5102" transform="rotate(180 159.266 200.367)" fill="#C2C2C2"/>
<rect x="241.914" y="272" width="5.5102" height="5.5102" transform="rotate(180 241.914 272)" fill="#C2C2C2"/>
<rect x="241.914" y="123.227" width="5.5102" height="5.5102" transform="rotate(180 241.914 123.227)" fill="#C2C2C2"/>
<rect x="241.914" y="161.797" width="5.5102" height="5.5102" transform="rotate(180 241.914 161.797)" fill="#C2C2C2"/>
<rect x="241.914" y="200.367" width="5.5102" height="5.5102" transform="rotate(180 241.914 200.367)" fill="#C2C2C2"/>
<rect x="21.5078" y="272" width="5.5102" height="5.5102" transform="rotate(180 21.5078 272)" fill="#C2C2C2"/>
<rect x="21.5078" y="123.227" width="5.5102" height="5.5102" transform="rotate(180 21.5078 123.227)" fill="#C2C2C2"/>
<rect x="21.5078" y="161.797" width="5.5102" height="5.5102" transform="rotate(180 21.5078 161.797)" fill="#C2C2C2"/>
<rect x="21.5078" y="200.367" width="5.5102" height="5.5102" transform="rotate(180 21.5078 200.367)" fill="#C2C2C2"/>
<rect x="115.18" y="272" width="5.5102" height="5.5102" transform="rotate(180 115.18 272)" fill="#C2C2C2"/>
<rect x="115.18" y="123.227" width="5.5102" height="5.5102" transform="rotate(180 115.18 123.227)" fill="#C2C2C2"/>
<rect x="115.18" y="161.797" width="5.5102" height="5.5102" transform="rotate(180 115.18 161.797)" fill="#C2C2C2"/>
<rect x="115.18" y="200.367" width="5.5102" height="5.5102" transform="rotate(180 115.18 200.367)" fill="#C2C2C2"/>
<rect x="197.836" y="272" width="5.5102" height="5.5102" transform="rotate(180 197.836 272)" fill="#C2C2C2"/>
<rect x="197.836" y="123.227" width="5.5102" height="5.5102" transform="rotate(180 197.836 123.227)" fill="#C2C2C2"/>
<rect x="197.836" y="161.797" width="5.5102" height="5.5102" transform="rotate(180 197.836 161.797)" fill="#C2C2C2"/>
<rect x="197.836" y="200.367" width="5.5102" height="5.5102" transform="rotate(180 197.836 200.367)" fill="#C2C2C2"/>
<rect x="54.5703" y="272" width="5.5102" height="5.5102" transform="rotate(180 54.5703 272)" fill="#C2C2C2"/>
<rect x="54.5703" y="123.227" width="5.5102" height="5.5102" transform="rotate(180 54.5703 123.227)" fill="#C2C2C2"/>
<rect x="54.5703" y="161.797" width="5.5102" height="5.5102" transform="rotate(180 54.5703 161.797)" fill="#C2C2C2"/>
<rect x="54.5703" y="200.367" width="5.5102" height="5.5102" transform="rotate(180 54.5703 200.367)" fill="#C2C2C2"/>
<rect x="148.242" y="272" width="5.5102" height="5.5102" transform="rotate(180 148.242 272)" fill="#C2C2C2"/>
<rect x="148.242" y="123.227" width="5.5102" height="5.5102" transform="rotate(180 148.242 123.227)" fill="#C2C2C2"/>
<rect x="148.242" y="161.797" width="5.5102" height="5.5102" transform="rotate(180 148.242 161.797)" fill="#C2C2C2"/>
<rect x="148.242" y="200.367" width="5.5102" height="5.5102" transform="rotate(180 148.242 200.367)" fill="#C2C2C2"/>
<rect x="230.898" y="272" width="5.5102" height="5.5102" transform="rotate(180 230.898 272)" fill="#C2C2C2"/>
<rect x="230.898" y="123.227" width="5.5102" height="5.5102" transform="rotate(180 230.898 123.227)" fill="#C2C2C2"/>
<rect x="230.898" y="161.797" width="5.5102" height="5.5102" transform="rotate(180 230.898 161.797)" fill="#C2C2C2"/>
<rect x="230.898" y="200.367" width="5.5102" height="5.5102" transform="rotate(180 230.898 200.367)" fill="#C2C2C2"/>
<rect x="43.5469" y="272" width="5.5102" height="5.5102" transform="rotate(180 43.5469 272)" fill="#C2C2C2"/>
<rect x="43.5469" y="123.227" width="5.5102" height="5.5102" transform="rotate(180 43.5469 123.227)" fill="#C2C2C2"/>
<rect x="43.5469" y="161.797" width="5.5102" height="5.5102" transform="rotate(180 43.5469 161.797)" fill="#C2C2C2"/>
<rect x="43.5469" y="200.367" width="5.5102" height="5.5102" transform="rotate(180 43.5469 200.367)" fill="#C2C2C2"/>
<rect x="137.227" y="272" width="5.5102" height="5.5102" transform="rotate(180 137.227 272)" fill="#C2C2C2"/>
<rect x="137.227" y="123.227" width="5.5102" height="5.5102" transform="rotate(180 137.227 123.227)" fill="#C2C2C2"/>
<rect x="137.227" y="161.797" width="5.5102" height="5.5102" transform="rotate(180 137.227 161.797)" fill="#C2C2C2"/>
<rect x="137.227" y="200.367" width="5.5102" height="5.5102" transform="rotate(180 137.227 200.367)" fill="#C2C2C2"/>
<rect x="219.875" y="272" width="5.5102" height="5.5102" transform="rotate(180 219.875 272)" fill="#C2C2C2"/>
<rect x="219.875" y="123.227" width="5.5102" height="5.5102" transform="rotate(180 219.875 123.227)" fill="#C2C2C2"/>
<rect x="219.875" y="161.797" width="5.5102" height="5.5102" transform="rotate(180 219.875 161.797)" fill="#C2C2C2"/>
<rect x="219.875" y="200.367" width="5.5102" height="5.5102" transform="rotate(180 219.875 200.367)" fill="#C2C2C2"/>
<rect x="76.6094" y="272" width="5.5102" height="5.5102" transform="rotate(180 76.6094 272)" fill="#C2C2C2"/>
<rect x="76.6094" y="123.227" width="5.5102" height="5.5102" transform="rotate(180 76.6094 123.227)" fill="#C2C2C2"/>
<rect x="76.6094" y="161.797" width="5.5102" height="5.5102" transform="rotate(180 76.6094 161.797)" fill="#C2C2C2"/>
<rect x="76.6094" y="200.367" width="5.5102" height="5.5102" transform="rotate(180 76.6094 200.367)" fill="#C2C2C2"/>
<rect x="87.6328" y="272" width="5.5102" height="5.5102" transform="rotate(180 87.6328 272)" fill="#C2C2C2"/>
<rect x="87.6328" y="123.227" width="5.5102" height="5.5102" transform="rotate(180 87.6328 123.227)" fill="#C2C2C2"/>
<rect x="87.6328" y="161.797" width="5.5102" height="5.5102" transform="rotate(180 87.6328 161.797)" fill="#C2C2C2"/>
<rect x="87.6328" y="200.367" width="5.5102" height="5.5102" transform="rotate(180 87.6328 200.367)" fill="#C2C2C2"/>
<rect x="170.281" y="272" width="5.5102" height="5.5102" transform="rotate(180 170.281 272)" fill="#C2C2C2"/>
<rect x="170.281" y="123.227" width="5.5102" height="5.5102" transform="rotate(180 170.281 123.227)" fill="#C2C2C2"/>
<rect x="170.281" y="161.797" width="5.5102" height="5.5102" transform="rotate(180 170.281 161.797)" fill="#C2C2C2"/>
<rect x="170.281" y="200.367" width="5.5102" height="5.5102" transform="rotate(180 170.281 200.367)" fill="#C2C2C2"/>
<rect x="252.938" y="272" width="5.5102" height="5.5102" transform="rotate(180 252.938 272)" fill="#C2C2C2"/>
<rect x="252.938" y="123.227" width="5.5102" height="5.5102" transform="rotate(180 252.938 123.227)" fill="#C2C2C2"/>
<rect x="252.938" y="161.797" width="5.5102" height="5.5102" transform="rotate(180 252.938 161.797)" fill="#C2C2C2"/>
<rect x="252.938" y="200.367" width="5.5102" height="5.5102" transform="rotate(180 252.938 200.367)" fill="#C2C2C2"/>
<rect x="263.961" y="272" width="5.5102" height="5.5102" transform="rotate(180 263.961 272)" fill="#C2C2C2"/>
<rect x="263.961" y="123.227" width="5.5102" height="5.5102" transform="rotate(180 263.961 123.227)" fill="#C2C2C2"/>
<rect x="263.961" y="161.797" width="5.5102" height="5.5102" transform="rotate(180 263.961 161.797)" fill="#C2C2C2"/>
<rect x="263.961" y="200.367" width="5.5102" height="5.5102" transform="rotate(180 263.961 200.367)" fill="#C2C2C2"/>
<rect x="16" y="272" width="5.5102" height="5.5102" transform="rotate(180 16 272)" fill="#C2C2C2"/>
<rect x="16" y="123.227" width="5.5102" height="5.5102" transform="rotate(180 16 123.227)" fill="#C2C2C2"/>
<rect x="16" y="161.797" width="5.5102" height="5.5102" transform="rotate(180 16 161.797)" fill="#C2C2C2"/>
<rect x="16" y="200.367" width="5.5102" height="5.5102" transform="rotate(180 16 200.367)" fill="#C2C2C2"/>
<rect x="109.672" y="272" width="5.5102" height="5.5102" transform="rotate(180 109.672 272)" fill="#C2C2C2"/>
<rect x="109.672" y="123.227" width="5.5102" height="5.5102" transform="rotate(180 109.672 123.227)" fill="#C2C2C2"/>
<rect x="109.672" y="161.797" width="5.5102" height="5.5102" transform="rotate(180 109.672 161.797)" fill="#C2C2C2"/>
<rect x="109.672" y="200.367" width="5.5102" height="5.5102" transform="rotate(180 109.672 200.367)" fill="#C2C2C2"/>
<rect x="104.164" y="272" width="5.5102" height="5.5102" transform="rotate(180 104.164 272)" fill="#C2C2C2"/>
<rect x="104.164" y="123.227" width="5.5102" height="5.5102" transform="rotate(180 104.164 123.227)" fill="#C2C2C2"/>
<rect x="104.164" y="161.797" width="5.5102" height="5.5102" transform="rotate(180 104.164 161.797)" fill="#C2C2C2"/>
<rect x="104.164" y="200.367" width="5.5102" height="5.5102" transform="rotate(180 104.164 200.367)" fill="#C2C2C2"/>
<rect x="192.328" y="272" width="5.5102" height="5.5102" transform="rotate(180 192.328 272)" fill="#C2C2C2"/>
<rect x="192.328" y="123.227" width="5.5102" height="5.5102" transform="rotate(180 192.328 123.227)" fill="#C2C2C2"/>
<rect x="192.328" y="161.797" width="5.5102" height="5.5102" transform="rotate(180 192.328 161.797)" fill="#C2C2C2"/>
<rect x="192.328" y="200.367" width="5.5102" height="5.5102" transform="rotate(180 192.328 200.367)" fill="#C2C2C2"/>
<rect x="38.0391" y="272" width="5.5102" height="5.5102" transform="rotate(180 38.0391 272)" fill="#C2C2C2"/>
<rect x="38.0391" y="123.227" width="5.5102" height="5.5102" transform="rotate(180 38.0391 123.227)" fill="#C2C2C2"/>
<rect x="38.0391" y="161.797" width="5.5102" height="5.5102" transform="rotate(180 38.0391 161.797)" fill="#C2C2C2"/>
<rect x="38.0391" y="200.367" width="5.5102" height="5.5102" transform="rotate(180 38.0391 200.367)" fill="#C2C2C2"/>
<rect x="131.711" y="272" width="5.5102" height="5.5102" transform="rotate(180 131.711 272)" fill="#C2C2C2"/>
<rect x="131.711" y="123.227" width="5.5102" height="5.5102" transform="rotate(180 131.711 123.227)" fill="#C2C2C2"/>
<rect x="131.711" y="161.797" width="5.5102" height="5.5102" transform="rotate(180 131.711 161.797)" fill="#C2C2C2"/>
<rect x="131.711" y="200.367" width="5.5102" height="5.5102" transform="rotate(180 131.711 200.367)" fill="#C2C2C2"/>
<rect x="214.367" y="272" width="5.5102" height="5.5102" transform="rotate(180 214.367 272)" fill="#C2C2C2"/>
<rect x="214.367" y="123.227" width="5.5102" height="5.5102" transform="rotate(180 214.367 123.227)" fill="#C2C2C2"/>
<rect x="214.367" y="161.797" width="5.5102" height="5.5102" transform="rotate(180 214.367 161.797)" fill="#C2C2C2"/>
<rect x="214.367" y="200.367" width="5.5102" height="5.5102" transform="rotate(180 214.367 200.367)" fill="#C2C2C2"/>
<rect x="71.1016" y="272" width="5.5102" height="5.5102" transform="rotate(180 71.1016 272)" fill="#C2C2C2"/>
<rect x="71.1016" y="123.227" width="5.5102" height="5.5102" transform="rotate(180 71.1016 123.227)" fill="#C2C2C2"/>
<rect x="71.1016" y="161.797" width="5.5102" height="5.5102" transform="rotate(180 71.1016 161.797)" fill="#C2C2C2"/>
<rect x="71.1016" y="200.367" width="5.5102" height="5.5102" transform="rotate(180 71.1016 200.367)" fill="#C2C2C2"/>
<rect x="164.773" y="272" width="5.5102" height="5.5102" transform="rotate(180 164.773 272)" fill="#C2C2C2"/>
<rect x="164.773" y="123.227" width="5.5102" height="5.5102" transform="rotate(180 164.773 123.227)" fill="#C2C2C2"/>
<rect x="164.773" y="161.797" width="5.5102" height="5.5102" transform="rotate(180 164.773 161.797)" fill="#C2C2C2"/>
<rect x="164.773" y="200.367" width="5.5102" height="5.5102" transform="rotate(180 164.773 200.367)" fill="#C2C2C2"/>
<rect x="247.43" y="272" width="5.5102" height="5.5102" transform="rotate(180 247.43 272)" fill="#C2C2C2"/>
<rect x="247.43" y="123.227" width="5.5102" height="5.5102" transform="rotate(180 247.43 123.227)" fill="#C2C2C2"/>
<rect x="247.43" y="161.797" width="5.5102" height="5.5102" transform="rotate(180 247.43 161.797)" fill="#C2C2C2"/>
<rect x="247.43" y="200.367" width="5.5102" height="5.5102" transform="rotate(180 247.43 200.367)" fill="#C2C2C2"/>
<rect x="27.0234" y="272" width="5.5102" height="5.5102" transform="rotate(180 27.0234 272)" fill="#C2C2C2"/>
<rect x="27.0234" y="123.227" width="5.5102" height="5.5102" transform="rotate(180 27.0234 123.227)" fill="#C2C2C2"/>
<rect x="27.0234" y="161.797" width="5.5102" height="5.5102" transform="rotate(180 27.0234 161.797)" fill="#C2C2C2"/>
<rect x="27.0234" y="200.367" width="5.5102" height="5.5102" transform="rotate(180 27.0234 200.367)" fill="#C2C2C2"/>
<rect x="120.695" y="272" width="5.5102" height="5.5102" transform="rotate(180 120.695 272)" fill="#C2C2C2"/>
<rect x="120.695" y="123.227" width="5.5102" height="5.5102" transform="rotate(180 120.695 123.227)" fill="#C2C2C2"/>
<rect x="120.695" y="161.797" width="5.5102" height="5.5102" transform="rotate(180 120.695 161.797)" fill="#C2C2C2"/>
<rect x="120.695" y="200.367" width="5.5102" height="5.5102" transform="rotate(180 120.695 200.367)" fill="#C2C2C2"/>
<rect x="203.344" y="272" width="5.5102" height="5.5102" transform="rotate(180 203.344 272)" fill="#C2C2C2"/>
<rect x="203.344" y="123.227" width="5.5102" height="5.5102" transform="rotate(180 203.344 123.227)" fill="#C2C2C2"/>
<rect x="203.344" y="161.797" width="5.5102" height="5.5102" transform="rotate(180 203.344 161.797)" fill="#C2C2C2"/>
<rect x="203.344" y="200.367" width="5.5102" height="5.5102" transform="rotate(180 203.344 200.367)" fill="#C2C2C2"/>
<rect x="60.0781" y="272" width="5.5102" height="5.5102" transform="rotate(180 60.0781 272)" fill="#C2C2C2"/>
<rect x="60.0781" y="123.227" width="5.5102" height="5.5102" transform="rotate(180 60.0781 123.227)" fill="#C2C2C2"/>
<rect x="60.0781" y="161.797" width="5.5102" height="5.5102" transform="rotate(180 60.0781 161.797)" fill="#C2C2C2"/>
<rect x="60.0781" y="200.367" width="5.5102" height="5.5102" transform="rotate(180 60.0781 200.367)" fill="#C2C2C2"/>
<rect x="153.758" y="272" width="5.5102" height="5.5102" transform="rotate(180 153.758 272)" fill="#C2C2C2"/>
<rect x="153.758" y="123.227" width="5.5102" height="5.5102" transform="rotate(180 153.758 123.227)" fill="#C2C2C2"/>
<rect x="153.758" y="161.797" width="5.5102" height="5.5102" transform="rotate(180 153.758 161.797)" fill="#C2C2C2"/>
<rect x="153.758" y="200.367" width="5.5102" height="5.5102" transform="rotate(180 153.758 200.367)" fill="#C2C2C2"/>
<rect x="236.406" y="272" width="5.5102" height="5.5102" transform="rotate(180 236.406 272)" fill="#C2C2C2"/>
<rect x="236.406" y="123.227" width="5.5102" height="5.5102" transform="rotate(180 236.406 123.227)" fill="#C2C2C2"/>
<rect x="236.406" y="161.797" width="5.5102" height="5.5102" transform="rotate(180 236.406 161.797)" fill="#C2C2C2"/>
<rect x="236.406" y="200.367" width="5.5102" height="5.5102" transform="rotate(180 236.406 200.367)" fill="#C2C2C2"/>
<rect x="49.0625" y="272" width="5.5102" height="5.5102" transform="rotate(180 49.0625 272)" fill="#C2C2C2"/>
<rect x="49.0625" y="123.227" width="5.5102" height="5.5102" transform="rotate(180 49.0625 123.227)" fill="#C2C2C2"/>
<rect x="49.0625" y="161.797" width="5.5102" height="5.5102" transform="rotate(180 49.0625 161.797)" fill="#C2C2C2"/>
<rect x="49.0625" y="200.367" width="5.5102" height="5.5102" transform="rotate(180 49.0625 200.367)" fill="#C2C2C2"/>
<rect x="142.734" y="272" width="5.5102" height="5.5102" transform="rotate(180 142.734 272)" fill="#C2C2C2"/>
<rect x="142.734" y="123.227" width="5.5102" height="5.5102" transform="rotate(180 142.734 123.227)" fill="#C2C2C2"/>
<rect x="142.734" y="161.797" width="5.5102" height="5.5102" transform="rotate(180 142.734 161.797)" fill="#C2C2C2"/>
<rect x="142.734" y="200.367" width="5.5102" height="5.5102" transform="rotate(180 142.734 200.367)" fill="#C2C2C2"/>
<rect x="225.391" y="272" width="5.5102" height="5.5102" transform="rotate(180 225.391 272)" fill="#C2C2C2"/>
<rect x="225.391" y="123.227" width="5.5102" height="5.5102" transform="rotate(180 225.391 123.227)" fill="#C2C2C2"/>
<rect x="225.391" y="161.797" width="5.5102" height="5.5102" transform="rotate(180 225.391 161.797)" fill="#C2C2C2"/>
<rect x="225.391" y="200.367" width="5.5102" height="5.5102" transform="rotate(180 225.391 200.367)" fill="#C2C2C2"/>
<rect x="82.125" y="272" width="5.5102" height="5.5102" transform="rotate(180 82.125 272)" fill="#C2C2C2"/>
<rect x="82.125" y="123.227" width="5.5102" height="5.5102" transform="rotate(180 82.125 123.227)" fill="#C2C2C2"/>
<rect x="82.125" y="161.797" width="5.5102" height="5.5102" transform="rotate(180 82.125 161.797)" fill="#C2C2C2"/>
<rect x="82.125" y="200.367" width="5.5102" height="5.5102" transform="rotate(180 82.125 200.367)" fill="#C2C2C2"/>
<rect x="93.1406" y="272" width="5.5102" height="5.5102" transform="rotate(180 93.1406 272)" fill="#C2C2C2"/>
<rect x="93.1406" y="123.227" width="5.5102" height="5.5102" transform="rotate(180 93.1406 123.227)" fill="#C2C2C2"/>
<rect x="93.1406" y="161.797" width="5.5102" height="5.5102" transform="rotate(180 93.1406 161.797)" fill="#C2C2C2"/>
<rect x="93.1406" y="200.367" width="5.5102" height="5.5102" transform="rotate(180 93.1406 200.367)" fill="#C2C2C2"/>
<rect x="175.797" y="272" width="5.5102" height="5.5102" transform="rotate(180 175.797 272)" fill="#C2C2C2"/>
<rect x="175.797" y="123.227" width="5.5102" height="5.5102" transform="rotate(180 175.797 123.227)" fill="#C2C2C2"/>
<rect x="175.797" y="161.797" width="5.5102" height="5.5102" transform="rotate(180 175.797 161.797)" fill="#C2C2C2"/>
<rect x="175.797" y="200.367" width="5.5102" height="5.5102" transform="rotate(180 175.797 200.367)" fill="#C2C2C2"/>
<rect x="181.305" y="272" width="5.5102" height="5.5102" transform="rotate(180 181.305 272)" fill="#C2C2C2"/>
<rect x="181.305" y="123.227" width="5.5102" height="5.5102" transform="rotate(180 181.305 123.227)" fill="#C2C2C2"/>
<rect x="181.305" y="161.797" width="5.5102" height="5.5102" transform="rotate(180 181.305 161.797)" fill="#C2C2C2"/>
<rect x="181.305" y="200.367" width="5.5102" height="5.5102" transform="rotate(180 181.305 200.367)" fill="#C2C2C2"/>
<rect x="258.445" y="272" width="5.5102" height="5.5102" transform="rotate(180 258.445 272)" fill="#C2C2C2"/>
<rect x="258.445" y="123.227" width="5.5102" height="5.5102" transform="rotate(180 258.445 123.227)" fill="#C2C2C2"/>
<rect x="258.445" y="161.797" width="5.5102" height="5.5102" transform="rotate(180 258.445 161.797)" fill="#C2C2C2"/>
<rect x="258.445" y="200.367" width="5.5102" height="5.5102" transform="rotate(180 258.445 200.367)" fill="#C2C2C2"/>
<rect x="269.469" y="272" width="5.5102" height="5.5102" transform="rotate(180 269.469 272)" fill="#C2C2C2"/>
<rect x="269.469" y="123.227" width="5.5102" height="5.5102" transform="rotate(180 269.469 123.227)" fill="#C2C2C2"/>
<rect x="269.469" y="161.797" width="5.5102" height="5.5102" transform="rotate(180 269.469 161.797)" fill="#C2C2C2"/>
<rect x="269.469" y="200.367" width="5.5102" height="5.5102" transform="rotate(180 269.469 200.367)" fill="#C2C2C2"/>
<rect width="5.5102" height="5.5102" transform="matrix(1 8.74228e-08 8.74228e-08 -1 269.469 272)" fill="#C2C2C2"/>
<rect width="5.5102" height="5.5102" transform="matrix(1 8.74228e-08 8.74228e-08 -1 269.469 123.227)" fill="#C2C2C2"/>
<rect width="5.5102" height="5.5102" transform="matrix(1 8.74228e-08 8.74228e-08 -1 269.469 161.797)" fill="#C2C2C2"/>
<rect width="5.5102" height="5.5102" transform="matrix(1 8.74228e-08 8.74228e-08 -1 269.469 200.367)" fill="#C2C2C2"/>
<rect x="120.695" y="46.082" width="5.5102" height="5.5102" transform="rotate(180 120.695 46.082)" fill="#C2C2C2"/>
<rect width="5.5102" height="5.5102" transform="matrix(1 8.74228e-08 8.74228e-08 -1 159.266 46.082)" fill="#C2C2C2"/>
<rect x="93.1406" y="101.184" width="5.5102" height="5.5102" transform="rotate(180 93.1406 101.184)" fill="#C2C2C2"/>
<rect width="5.5102" height="5.5102" transform="matrix(1 8.74228e-08 8.74228e-08 -1 186.812 101.184)" fill="#C2C2C2"/>
<rect x="65.5938" y="156.285" width="5.5102" height="5.5102" transform="rotate(180 65.5938 156.285)" fill="#C2C2C2"/>
<rect width="5.5102" height="5.5102" transform="matrix(1 8.74228e-08 8.74228e-08 -1 214.367 156.285)" fill="#C2C2C2"/>
<rect x="38.0391" y="211.387" width="5.5102" height="5.5102" transform="rotate(180 38.0391 211.387)" fill="#C2C2C2"/>
<rect width="5.5102" height="5.5102" transform="matrix(1 8.74228e-08 8.74228e-08 -1 241.914 211.387)" fill="#C2C2C2"/>
<rect x="109.672" y="68.1211" width="5.5102" height="5.5102" transform="rotate(180 109.672 68.1211)" fill="#C2C2C2"/>
<rect width="5.5102" height="5.5102" transform="matrix(1 8.74228e-08 8.74228e-08 -1 170.281 68.1211)" fill="#C2C2C2"/>
<rect x="82.125" y="123.227" width="5.5102" height="5.5102" transform="rotate(180 82.125 123.227)" fill="#C2C2C2"/>
<rect width="5.5102" height="5.5102" transform="matrix(1 8.74228e-08 8.74228e-08 -1 197.836 123.227)" fill="#C2C2C2"/>
<rect x="54.5703" y="178.328" width="5.5102" height="5.5102" transform="rotate(180 54.5703 178.328)" fill="#C2C2C2"/>
<rect width="5.5102" height="5.5102" transform="matrix(1 8.74228e-08 8.74228e-08 -1 225.391 178.328)" fill="#C2C2C2"/>
<rect x="27.0234" y="233.43" width="5.5102" height="5.5102" transform="rotate(180 27.0234 233.43)" fill="#C2C2C2"/>
<rect width="5.5102" height="5.5102" transform="matrix(1 8.74228e-08 8.74228e-08 -1 252.938 233.43)" fill="#C2C2C2"/>
<rect x="16" y="255.469" width="5.5102" height="5.5102" transform="rotate(180 16 255.469)" fill="#C2C2C2"/>
<rect width="5.5102" height="5.5102" transform="matrix(1 8.74228e-08 8.74228e-08 -1 263.961 255.469)" fill="#C2C2C2"/>
<rect x="10.4922" y="266.488" width="5.5102" height="5.5102" transform="rotate(180 10.4922 266.488)" fill="#C2C2C2"/>
<rect width="5.5102" height="5.5102" transform="matrix(1 8.74228e-08 8.74228e-08 -1 269.469 266.488)" fill="#C2C2C2"/>
<circle cx="123" cy="124" r="12" fill="black"/>
<circle cx="12" cy="124" r="12" fill="white"/>
<path d="M112.077 52.5494C112.38 53.6115 113.487 54.2265 114.549 53.923L131.857 48.9781C132.919 48.6746 133.534 47.5676 133.23 46.5056C132.927 45.4435 131.82 44.8285 130.758 45.132L115.374 49.5275L110.978 34.1431C110.675 33.0811 109.568 32.4661 108.506 32.7695C107.444 33.073 106.829 34.1799 107.132 35.242L112.077 52.5494ZM134 16L132.252 15.0287L112.252 51.0287L114 52L115.748 52.9713L135.748 16.9713L134 16Z" fill="white"/>
<path d="M149.899 58.6695C150.821 59.2777 152.061 59.0233 152.67 58.1012L162.58 43.0753C163.188 42.1532 162.934 40.9127 162.012 40.3045C161.09 39.6964 159.849 39.9508 159.241 40.8729L150.432 54.2293L137.075 45.4197C136.153 44.8116 134.913 45.066 134.305 45.9881C133.696 46.9102 133.951 48.1507 134.873 48.7588L149.899 58.6695ZM143 18L141.041 18.4019L149.041 57.4019L151 57L152.959 56.5981L144.959 17.5981L143 18Z" fill="white"/>
<path d="M196.414 121.414C197.195 120.633 197.195 119.367 196.414 118.586L183.686 105.858C182.905 105.077 181.639 105.077 180.858 105.858C180.077 106.639 180.077 107.905 180.858 108.686L192.172 120L180.858 131.314C180.077 132.095 180.077 133.361 180.858 134.142C181.639 134.923 182.905 134.923 183.686 134.142L196.414 121.414ZM163 120V122H195V120V118H163V120Z" fill="white"/>
<path d="M163.399 159.154C164.304 159.787 165.551 159.568 166.185 158.663L176.514 143.922C177.148 143.017 176.928 141.77 176.023 141.136C175.119 140.502 173.872 140.722 173.238 141.626L164.056 154.73L150.953 145.549C150.048 144.915 148.801 145.134 148.167 146.039C147.534 146.943 147.753 148.191 148.658 148.824L163.399 159.154ZM159 126L157.03 126.347L162.577 157.862L164.547 157.516L166.516 157.169L160.97 125.653L159 126Z" fill="white"/>
<circle cx="158" cy="124" r="12" fill="black"/>
<circle cx="142" cy="12" r="12" fill="black"/>
</svg>
