<svg width="274" height="272" viewBox="0 0 274 272" fill="none" xmlns="http://www.w3.org/2000/svg">
<rect x="23.5381" y="6.63281" width="5.23077" height="5.30732" fill="#A1A1A1"/>
<rect x="133.385" y="11.9453" width="5.23077" height="5.30732" fill="#A1A1A1"/>
<rect x="196.153" y="11.9453" width="5.23077" height="5.30732" fill="#A1A1A1"/>
<rect width="5.23077" height="5.30732" transform="matrix(-1 0 0 1 75.8457 11.9453)" fill="#A1A1A1"/>
<rect x="7.8457" y="144.625" width="5.23077" height="5.30732" fill="#A1A1A1"/>
<rect x="133.385" y="149.93" width="5.23077" height="5.30732" fill="#A1A1A1"/>
<rect x="196.153" y="149.93" width="5.23077" height="5.30732" fill="#A1A1A1"/>
<rect width="5.23077" height="5.30732" transform="matrix(-1 0 0 1 75.8457 149.93)" fill="#A1A1A1"/>
<rect x="7.8457" y="139.32" width="5.23077" height="5.30732" fill="#A1A1A1"/>
<rect x="133.385" y="144.625" width="5.23077" height="5.30732" fill="#A1A1A1"/>
<rect x="196.153" y="144.625" width="5.23077" height="5.30732" fill="#A1A1A1"/>
<rect width="5.23077" height="5.30732" transform="matrix(-1 0 0 1 75.8457 144.625)" fill="#A1A1A1"/>
<rect x="23.5381" y="261.383" width="5.23077" height="5.30732" fill="#A1A1A1"/>
<rect x="133.385" y="266.695" width="5.23077" height="5.30732" fill="#A1A1A1"/>
<rect x="65.3848" y="266.695" width="5.23077" height="5.30732" fill="#A1A1A1"/>
<rect x="112.461" y="6.63281" width="5.23077" height="5.30732" fill="#A1A1A1"/>
<rect x="112.461" y="261.383" width="5.23077" height="5.30732" fill="#A1A1A1"/>
<rect x="154.308" y="6.63281" width="5.23077" height="5.30732" fill="#A1A1A1"/>
<rect x="154.308" y="261.383" width="5.23077" height="5.30732" fill="#A1A1A1"/>
<rect x="238" y="6.63281" width="5.23077" height="5.30732" fill="#A1A1A1"/>
<rect x="238" y="261.383" width="5.23077" height="5.30732" fill="#A1A1A1"/>
<rect x="49.6924" y="6.63281" width="5.23077" height="5.30732" fill="#A1A1A1"/>
<rect x="39.2305" y="70.3203" width="5.23077" height="5.30732" fill="#A1A1A1"/>
<rect x="102" y="70.3203" width="5.23077" height="5.30732" fill="#A1A1A1"/>
<rect x="164.769" y="70.3203" width="5.23077" height="5.30732" fill="#A1A1A1"/>
<rect x="227.538" y="70.3203" width="5.23077" height="5.30732" fill="#A1A1A1"/>
<rect x="39.2305" y="134.008" width="5.23077" height="5.30732" fill="#A1A1A1"/>
<rect x="102" y="134.008" width="5.23077" height="5.30732" fill="#A1A1A1"/>
<rect x="164.769" y="134.008" width="5.23077" height="5.30732" fill="#A1A1A1"/>
<rect x="227.538" y="134.008" width="5.23077" height="5.30732" fill="#A1A1A1"/>
<rect x="227.538" y="197.695" width="5.23077" height="5.30732" fill="#A1A1A1"/>
<rect x="164.769" y="197.695" width="5.23077" height="5.30732" fill="#A1A1A1"/>
<rect x="44.4609" y="197.695" width="5.23077" height="5.30732" fill="#A1A1A1"/>
<rect x="107.23" y="197.695" width="5.23077" height="5.30732" fill="#A1A1A1"/>
<rect x="39.2305" y="197.695" width="5.23077" height="5.30732" fill="#A1A1A1"/>
<rect x="102" y="197.695" width="5.23077" height="5.30732" fill="#A1A1A1"/>
<rect x="49.6924" y="261.383" width="5.23077" height="5.30732" fill="#A1A1A1"/>
<rect x="217.077" y="6.63281" width="5.23077" height="5.30732" fill="#A1A1A1"/>
<rect x="217.077" y="261.383" width="5.23077" height="5.30732" fill="#A1A1A1"/>
<rect x="91.5381" y="6.63281" width="5.23077" height="5.30732" fill="#A1A1A1"/>
<rect x="91.5381" y="261.383" width="5.23077" height="5.30732" fill="#A1A1A1"/>
<rect x="175.23" y="6.63281" width="5.23077" height="5.30732" fill="#A1A1A1"/>
<rect x="175.23" y="261.383" width="5.23077" height="5.30732" fill="#A1A1A1"/>
<rect x="258.923" y="144.625" width="5.23077" height="5.30732" fill="#A1A1A1"/>
<rect x="258.923" y="139.32" width="5.23077" height="5.30732" fill="#A1A1A1"/>
<rect x="159.538" y="6.63281" width="5.23077" height="5.30732" fill="#A1A1A1"/>
<rect x="159.538" y="261.383" width="5.23077" height="5.30732" fill="#A1A1A1"/>
<rect x="39.2305" y="6.63281" width="5.23077" height="5.30732" fill="#A1A1A1"/>
<rect x="28.7686" y="70.3203" width="5.23077" height="5.30732" fill="#A1A1A1"/>
<rect x="91.5381" y="70.3203" width="5.23077" height="5.30732" fill="#A1A1A1"/>
<rect x="154.308" y="70.3203" width="5.23077" height="5.30732" fill="#A1A1A1"/>
<rect x="217.077" y="70.3203" width="5.23077" height="5.30732" fill="#A1A1A1"/>
<rect x="28.7686" y="134.008" width="5.23077" height="5.30732" fill="#A1A1A1"/>
<rect x="91.5381" y="134.008" width="5.23077" height="5.30732" fill="#A1A1A1"/>
<rect x="154.308" y="134.008" width="5.23077" height="5.30732" fill="#A1A1A1"/>
<rect x="217.077" y="134.008" width="5.23077" height="5.30732" fill="#A1A1A1"/>
<rect x="217.077" y="197.695" width="5.23077" height="5.30732" fill="#A1A1A1"/>
<rect x="154.308" y="197.695" width="5.23077" height="5.30732" fill="#A1A1A1"/>
<rect x="34" y="197.695" width="5.23077" height="5.30732" fill="#A1A1A1"/>
<rect x="96.7686" y="197.695" width="5.23077" height="5.30732" fill="#A1A1A1"/>
<rect x="28.7686" y="197.695" width="5.23077" height="5.30732" fill="#A1A1A1"/>
<rect x="91.5381" y="197.695" width="5.23077" height="5.30732" fill="#A1A1A1"/>
<rect x="39.2305" y="261.383" width="5.23077" height="5.30732" fill="#A1A1A1"/>
<rect x="122.923" y="6.63281" width="5.23077" height="5.30732" fill="#A1A1A1"/>
<rect x="122.923" y="261.383" width="5.23077" height="5.30732" fill="#A1A1A1"/>
<rect x="206.615" y="6.63281" width="5.23077" height="5.30732" fill="#A1A1A1"/>
<rect x="206.615" y="261.383" width="5.23077" height="5.30732" fill="#A1A1A1"/>
<rect x="81.0771" y="6.63281" width="5.23077" height="5.30732" fill="#A1A1A1"/>
<rect x="81.0771" y="261.383" width="5.23077" height="5.30732" fill="#A1A1A1"/>
<rect x="164.769" y="6.63281" width="5.23077" height="5.30732" fill="#A1A1A1"/>
<rect x="164.769" y="261.383" width="5.23077" height="5.30732" fill="#A1A1A1"/>
<rect x="248.461" y="6.63281" width="5.23077" height="5.30732" fill="#A1A1A1"/>
<rect x="248.461" y="261.383" width="5.23077" height="5.30732" fill="#A1A1A1"/>
<rect x="60.1533" y="6.63281" width="5.23077" height="5.30732" fill="#A1A1A1"/>
<rect x="49.6924" y="70.3203" width="5.23077" height="5.30732" fill="#A1A1A1"/>
<rect x="112.461" y="70.3203" width="5.23077" height="5.30732" fill="#A1A1A1"/>
<rect x="175.23" y="70.3203" width="5.23077" height="5.30732" fill="#A1A1A1"/>
<rect x="238" y="70.3203" width="5.23077" height="5.30732" fill="#A1A1A1"/>
<rect x="49.6924" y="134.008" width="5.23077" height="5.30732" fill="#A1A1A1"/>
<rect x="112.461" y="134.008" width="5.23077" height="5.30732" fill="#A1A1A1"/>
<rect x="175.23" y="134.008" width="5.23077" height="5.30732" fill="#A1A1A1"/>
<rect x="238" y="134.008" width="5.23077" height="5.30732" fill="#A1A1A1"/>
<rect x="238" y="197.695" width="5.23077" height="5.30732" fill="#A1A1A1"/>
<rect x="175.23" y="197.695" width="5.23077" height="5.30732" fill="#A1A1A1"/>
<rect x="54.9229" y="197.695" width="5.23077" height="5.30732" fill="#A1A1A1"/>
<rect x="117.692" y="197.695" width="5.23077" height="5.30732" fill="#A1A1A1"/>
<rect x="49.6924" y="197.695" width="5.23077" height="5.30732" fill="#A1A1A1"/>
<rect x="112.461" y="197.695" width="5.23077" height="5.30732" fill="#A1A1A1"/>
<rect x="60.1533" y="261.383" width="5.23077" height="5.30732" fill="#A1A1A1"/>
<rect x="143.846" y="6.63281" width="5.23077" height="5.30732" fill="#A1A1A1"/>
<rect x="227.538" y="6.63281" width="5.23077" height="5.30732" fill="#A1A1A1"/>
<rect x="253.692" y="6.63281" width="5.23077" height="5.30732" fill="#A1A1A1"/>
<rect x="227.538" y="261.383" width="5.23077" height="5.30732" fill="#A1A1A1"/>
<rect x="102" y="6.63281" width="5.23077" height="5.30732" fill="#A1A1A1"/>
<rect x="102" y="261.383" width="5.23077" height="5.30732" fill="#A1A1A1"/>
<rect x="185.692" y="6.63281" width="5.23077" height="5.30732" fill="#A1A1A1"/>
<rect x="185.692" y="261.383" width="5.23077" height="5.30732" fill="#A1A1A1"/>
<rect x="34" y="6.63281" width="5.23077" height="5.30732" fill="#A1A1A1"/>
<rect x="23.5381" y="70.3203" width="5.23077" height="5.30732" fill="#A1A1A1"/>
<rect x="86.3076" y="70.3203" width="5.23077" height="5.30732" fill="#A1A1A1"/>
<rect x="149.077" y="70.3203" width="5.23077" height="5.30732" fill="#A1A1A1"/>
<rect x="211.846" y="70.3203" width="5.23077" height="5.30732" fill="#A1A1A1"/>
<rect x="23.5381" y="134.008" width="5.23077" height="5.30732" fill="#A1A1A1"/>
<rect x="86.3076" y="134.008" width="5.23077" height="5.30732" fill="#A1A1A1"/>
<rect x="149.077" y="134.008" width="5.23077" height="5.30732" fill="#A1A1A1"/>
<rect x="211.846" y="134.008" width="5.23077" height="5.30732" fill="#A1A1A1"/>
<rect x="211.846" y="197.695" width="5.23077" height="5.30732" fill="#A1A1A1"/>
<rect x="149.077" y="197.695" width="5.23077" height="5.30732" fill="#A1A1A1"/>
<rect x="28.7686" y="197.695" width="5.23077" height="5.30732" fill="#A1A1A1"/>
<rect x="91.5381" y="197.695" width="5.23077" height="5.30732" fill="#A1A1A1"/>
<rect x="23.5381" y="197.695" width="5.23077" height="5.30732" fill="#A1A1A1"/>
<rect x="86.3076" y="197.695" width="5.23077" height="5.30732" fill="#A1A1A1"/>
<rect x="34" y="261.383" width="5.23077" height="5.30732" fill="#A1A1A1"/>
<rect x="117.692" y="6.63281" width="5.23077" height="5.30732" fill="#A1A1A1"/>
<rect x="117.692" y="261.383" width="5.23077" height="5.30732" fill="#A1A1A1"/>
<rect x="201.385" y="6.63281" width="5.23077" height="5.30732" fill="#A1A1A1"/>
<rect x="201.385" y="261.383" width="5.23077" height="5.30732" fill="#A1A1A1"/>
<rect x="75.8457" y="6.63281" width="5.23077" height="5.30732" fill="#A1A1A1"/>
<rect x="75.8457" y="261.383" width="5.23077" height="5.30732" fill="#A1A1A1"/>
<rect x="159.538" y="6.63281" width="5.23077" height="5.30732" fill="#A1A1A1"/>
<rect x="159.538" y="261.383" width="5.23077" height="5.30732" fill="#A1A1A1"/>
<rect x="243.23" y="6.63281" width="5.23077" height="5.30732" fill="#A1A1A1"/>
<rect x="243.23" y="261.383" width="5.23077" height="5.30732" fill="#A1A1A1"/>
<rect x="54.9229" y="6.63281" width="5.23077" height="5.30732" fill="#A1A1A1"/>
<rect x="44.4609" y="70.3203" width="5.23077" height="5.30732" fill="#A1A1A1"/>
<rect x="107.23" y="70.3203" width="5.23077" height="5.30732" fill="#A1A1A1"/>
<rect x="170" y="70.3203" width="5.23077" height="5.30732" fill="#A1A1A1"/>
<rect x="232.769" y="70.3203" width="5.23077" height="5.30732" fill="#A1A1A1"/>
<rect x="44.4609" y="134.008" width="5.23077" height="5.30732" fill="#A1A1A1"/>
<rect x="107.23" y="134.008" width="5.23077" height="5.30732" fill="#A1A1A1"/>
<rect x="170" y="134.008" width="5.23077" height="5.30732" fill="#A1A1A1"/>
<rect x="232.769" y="134.008" width="5.23077" height="5.30732" fill="#A1A1A1"/>
<rect x="232.769" y="197.695" width="5.23077" height="5.30732" fill="#A1A1A1"/>
<rect x="170" y="197.695" width="5.23077" height="5.30732" fill="#A1A1A1"/>
<rect x="49.6924" y="197.695" width="5.23077" height="5.30732" fill="#A1A1A1"/>
<rect x="112.461" y="197.695" width="5.23077" height="5.30732" fill="#A1A1A1"/>
<rect x="44.4609" y="197.695" width="5.23077" height="5.30732" fill="#A1A1A1"/>
<rect x="107.23" y="197.695" width="5.23077" height="5.30732" fill="#A1A1A1"/>
<rect x="54.9229" y="261.383" width="5.23077" height="5.30732" fill="#A1A1A1"/>
<rect x="138.615" y="6.63281" width="5.23077" height="5.30732" fill="#A1A1A1"/>
<rect x="138.615" y="261.383" width="5.23077" height="5.30732" fill="#A1A1A1"/>
<rect x="222.308" y="6.63281" width="5.23077" height="5.30732" fill="#A1A1A1"/>
<rect x="248.461" y="6.63281" width="5.23077" height="5.30732" fill="#A1A1A1"/>
<rect x="222.308" y="261.383" width="5.23077" height="5.30732" fill="#A1A1A1"/>
<rect x="96.7686" y="6.63281" width="5.23077" height="5.30732" fill="#A1A1A1"/>
<rect x="96.7686" y="261.383" width="5.23077" height="5.30732" fill="#A1A1A1"/>
<rect x="180.461" y="6.63281" width="5.23077" height="5.30732" fill="#A1A1A1"/>
<rect x="180.461" y="261.383" width="5.23077" height="5.30732" fill="#A1A1A1"/>
<rect x="44.4609" y="6.63281" width="5.23077" height="5.30732" fill="#A1A1A1"/>
<rect x="34" y="70.3203" width="5.23077" height="5.30732" fill="#A1A1A1"/>
<rect x="96.7686" y="70.3203" width="5.23077" height="5.30732" fill="#A1A1A1"/>
<rect x="159.538" y="70.3203" width="5.23077" height="5.30732" fill="#A1A1A1"/>
<rect x="222.308" y="70.3203" width="5.23077" height="5.30732" fill="#A1A1A1"/>
<rect x="34" y="134.008" width="5.23077" height="5.30732" fill="#A1A1A1"/>
<rect x="96.7686" y="134.008" width="5.23077" height="5.30732" fill="#A1A1A1"/>
<rect x="159.538" y="134.008" width="5.23077" height="5.30732" fill="#A1A1A1"/>
<rect x="222.308" y="134.008" width="5.23077" height="5.30732" fill="#A1A1A1"/>
<rect x="222.308" y="197.695" width="5.23077" height="5.30732" fill="#A1A1A1"/>
<rect x="159.538" y="197.695" width="5.23077" height="5.30732" fill="#A1A1A1"/>
<rect x="39.2305" y="197.695" width="5.23077" height="5.30732" fill="#A1A1A1"/>
<rect x="102" y="197.695" width="5.23077" height="5.30732" fill="#A1A1A1"/>
<rect x="34" y="197.695" width="5.23077" height="5.30732" fill="#A1A1A1"/>
<rect x="96.7686" y="197.695" width="5.23077" height="5.30732" fill="#A1A1A1"/>
<rect x="44.4609" y="261.383" width="5.23077" height="5.30732" fill="#A1A1A1"/>
<rect x="128.153" y="6.63281" width="5.23077" height="5.30732" fill="#A1A1A1"/>
<rect x="128.153" y="261.383" width="5.23077" height="5.30732" fill="#A1A1A1"/>
<rect x="211.846" y="6.63281" width="5.23077" height="5.30732" fill="#A1A1A1"/>
<rect x="211.846" y="261.383" width="5.23077" height="5.30732" fill="#A1A1A1"/>
<rect x="86.3076" y="6.63281" width="5.23077" height="5.30732" fill="#A1A1A1"/>
<rect x="86.3076" y="261.383" width="5.23077" height="5.30732" fill="#A1A1A1"/>
<rect x="170" y="6.63281" width="5.23077" height="5.30732" fill="#A1A1A1"/>
<rect x="170" y="261.383" width="5.23077" height="5.30732" fill="#A1A1A1"/>
<rect x="65.3848" y="6.63281" width="5.23077" height="5.30732" fill="#A1A1A1"/>
<rect x="54.9229" y="70.3203" width="5.23077" height="5.30732" fill="#A1A1A1"/>
<rect x="117.692" y="70.3203" width="5.23077" height="5.30732" fill="#A1A1A1"/>
<rect x="180.461" y="70.3203" width="5.23077" height="5.30732" fill="#A1A1A1"/>
<rect x="243.23" y="70.3203" width="5.23077" height="5.30732" fill="#A1A1A1"/>
<rect x="54.9229" y="134.008" width="5.23077" height="5.30732" fill="#A1A1A1"/>
<rect x="117.692" y="134.008" width="5.23077" height="5.30732" fill="#A1A1A1"/>
<rect x="180.461" y="134.008" width="5.23077" height="5.30732" fill="#A1A1A1"/>
<rect x="243.23" y="134.008" width="5.23077" height="5.30732" fill="#A1A1A1"/>
<rect x="243.23" y="197.695" width="5.23077" height="5.30732" fill="#A1A1A1"/>
<rect x="180.461" y="197.695" width="5.23077" height="5.30732" fill="#A1A1A1"/>
<rect x="60.1533" y="197.695" width="5.23077" height="5.30732" fill="#A1A1A1"/>
<rect x="122.923" y="197.695" width="5.23077" height="5.30732" fill="#A1A1A1"/>
<rect x="54.9229" y="197.695" width="5.23077" height="5.30732" fill="#A1A1A1"/>
<rect x="117.692" y="197.695" width="5.23077" height="5.30732" fill="#A1A1A1"/>
<rect x="60.1533" y="70.3203" width="5.23077" height="5.30732" fill="#A1A1A1"/>
<rect x="122.923" y="70.3203" width="5.23077" height="5.30732" fill="#A1A1A1"/>
<rect x="185.692" y="70.3203" width="5.23077" height="5.30732" fill="#A1A1A1"/>
<rect x="248.461" y="70.3203" width="5.23077" height="5.30732" fill="#A1A1A1"/>
<rect x="60.1533" y="134.008" width="5.23077" height="5.30732" fill="#A1A1A1"/>
<rect x="122.923" y="134.008" width="5.23077" height="5.30732" fill="#A1A1A1"/>
<rect x="185.692" y="134.008" width="5.23077" height="5.30732" fill="#A1A1A1"/>
<rect x="248.461" y="134.008" width="5.23077" height="5.30732" fill="#A1A1A1"/>
<rect x="248.461" y="197.695" width="5.23077" height="5.30732" fill="#A1A1A1"/>
<rect x="185.692" y="197.695" width="5.23077" height="5.30732" fill="#A1A1A1"/>
<rect x="65.3848" y="197.695" width="5.23077" height="5.30732" fill="#A1A1A1"/>
<rect x="128.153" y="197.695" width="5.23077" height="5.30732" fill="#A1A1A1"/>
<rect x="60.1533" y="197.695" width="5.23077" height="5.30732" fill="#A1A1A1"/>
<rect x="122.923" y="197.695" width="5.23077" height="5.30732" fill="#A1A1A1"/>
<rect x="65.3848" y="70.3203" width="5.23077" height="5.30732" fill="#A1A1A1"/>
<rect x="128.153" y="70.3203" width="5.23077" height="5.30732" fill="#A1A1A1"/>
<rect x="190.923" y="70.3203" width="5.23077" height="5.30732" fill="#A1A1A1"/>
<rect x="253.692" y="70.3203" width="5.23077" height="5.30732" fill="#A1A1A1"/>
<rect x="65.3848" y="134.008" width="5.23077" height="5.30732" fill="#A1A1A1"/>
<rect x="128.153" y="134.008" width="5.23077" height="5.30732" fill="#A1A1A1"/>
<rect x="190.923" y="134.008" width="5.23077" height="5.30732" fill="#A1A1A1"/>
<rect x="253.692" y="134.008" width="5.23077" height="5.30732" fill="#A1A1A1"/>
<rect x="253.692" y="197.695" width="5.23077" height="5.30732" fill="#A1A1A1"/>
<rect x="190.923" y="197.695" width="5.23077" height="5.30732" fill="#A1A1A1"/>
<rect x="65.3848" y="261.383" width="5.23077" height="5.30732" fill="#A1A1A1"/>
<rect x="149.077" y="6.63281" width="5.23077" height="5.30732" fill="#A1A1A1"/>
<rect x="232.769" y="6.63281" width="5.23077" height="5.30732" fill="#A1A1A1"/>
<rect x="232.769" y="261.383" width="5.23077" height="5.30732" fill="#A1A1A1"/>
<rect x="107.23" y="6.63281" width="5.23077" height="5.30732" fill="#A1A1A1"/>
<rect x="107.23" y="261.383" width="5.23077" height="5.30732" fill="#A1A1A1"/>
<rect x="190.923" y="6.63281" width="5.23077" height="5.30732" fill="#A1A1A1"/>
<rect x="190.923" y="261.383" width="5.23077" height="5.30732" fill="#A1A1A1"/>
<rect x="264.153" y="11.9453" width="5.30732" height="5.23077" transform="rotate(90 264.153 11.9453)" fill="#A1A1A1"/>
<rect x="258.923" y="11.9453" width="5.30732" height="5.23077" transform="rotate(90 258.923 11.9453)" fill="#A1A1A1"/>
<rect x="253.692" y="17.25" width="5.30732" height="5.23077" transform="rotate(90 253.692 17.25)" fill="#A1A1A1"/>
<rect x="190.923" y="80.9375" width="5.30732" height="5.23077" transform="rotate(90 190.923 80.9375)" fill="#A1A1A1"/>
<rect x="128.153" y="144.625" width="5.30732" height="5.23077" transform="rotate(90 128.153 144.625)" fill="#A1A1A1"/>
<rect x="65.3848" y="208.312" width="5.30732" height="5.23077" transform="rotate(90 65.3848 208.312)" fill="#A1A1A1"/>
<rect x="128.153" y="17.25" width="5.30732" height="5.23077" transform="rotate(90 128.153 17.25)" fill="#A1A1A1"/>
<rect x="65.3848" y="80.9375" width="5.30732" height="5.23077" transform="rotate(90 65.3848 80.9375)" fill="#A1A1A1"/>
<rect x="253.692" y="144.625" width="5.30732" height="5.23077" transform="rotate(90 253.692 144.625)" fill="#A1A1A1"/>
<rect x="190.923" y="208.312" width="5.30732" height="5.23077" transform="rotate(90 190.923 208.312)" fill="#A1A1A1"/>
<rect x="248.461" y="22.5547" width="5.30732" height="5.23077" transform="rotate(90 248.461 22.5547)" fill="#A1A1A1"/>
<rect x="185.692" y="86.2422" width="5.30732" height="5.23077" transform="rotate(90 185.692 86.2422)" fill="#A1A1A1"/>
<rect x="122.923" y="149.93" width="5.30732" height="5.23077" transform="rotate(90 122.923 149.93)" fill="#A1A1A1"/>
<rect x="60.1533" y="213.617" width="5.30732" height="5.23077" transform="rotate(90 60.1533 213.617)" fill="#A1A1A1"/>
<rect x="122.923" y="22.5547" width="5.30732" height="5.23077" transform="rotate(90 122.923 22.5547)" fill="#A1A1A1"/>
<rect x="60.1533" y="86.2422" width="5.30732" height="5.23077" transform="rotate(90 60.1533 86.2422)" fill="#A1A1A1"/>
<rect x="248.461" y="149.93" width="5.30732" height="5.23077" transform="rotate(90 248.461 149.93)" fill="#A1A1A1"/>
<rect x="185.692" y="213.617" width="5.30732" height="5.23077" transform="rotate(90 185.692 213.617)" fill="#A1A1A1"/>
<rect x="243.23" y="27.8672" width="5.30732" height="5.23077" transform="rotate(90 243.23 27.8672)" fill="#A1A1A1"/>
<rect x="180.461" y="91.5547" width="5.30732" height="5.23077" transform="rotate(90 180.461 91.5547)" fill="#A1A1A1"/>
<rect x="117.692" y="155.242" width="5.30732" height="5.23077" transform="rotate(90 117.692 155.242)" fill="#A1A1A1"/>
<rect x="54.9229" y="218.93" width="5.30732" height="5.23077" transform="rotate(90 54.9229 218.93)" fill="#A1A1A1"/>
<rect x="117.692" y="27.8672" width="5.30732" height="5.23077" transform="rotate(90 117.692 27.8672)" fill="#A1A1A1"/>
<rect x="54.9229" y="91.5547" width="5.30732" height="5.23077" transform="rotate(90 54.9229 91.5547)" fill="#A1A1A1"/>
<rect x="243.23" y="155.242" width="5.30732" height="5.23077" transform="rotate(90 243.23 155.242)" fill="#A1A1A1"/>
<rect x="180.461" y="218.93" width="5.30732" height="5.23077" transform="rotate(90 180.461 218.93)" fill="#A1A1A1"/>
<rect x="238" y="33.1719" width="5.30732" height="5.23077" transform="rotate(90 238 33.1719)" fill="#A1A1A1"/>
<rect x="175.23" y="96.8594" width="5.30732" height="5.23077" transform="rotate(90 175.23 96.8594)" fill="#A1A1A1"/>
<rect x="112.461" y="160.547" width="5.30732" height="5.23077" transform="rotate(90 112.461 160.547)" fill="#A1A1A1"/>
<rect x="49.6924" y="224.234" width="5.30732" height="5.23077" transform="rotate(90 49.6924 224.234)" fill="#A1A1A1"/>
<rect x="112.461" y="33.1719" width="5.30732" height="5.23077" transform="rotate(90 112.461 33.1719)" fill="#A1A1A1"/>
<rect x="49.6924" y="96.8594" width="5.30732" height="5.23077" transform="rotate(90 49.6924 96.8594)" fill="#A1A1A1"/>
<rect x="238" y="160.547" width="5.30732" height="5.23077" transform="rotate(90 238 160.547)" fill="#A1A1A1"/>
<rect x="175.23" y="224.234" width="5.30732" height="5.23077" transform="rotate(90 175.23 224.234)" fill="#A1A1A1"/>
<rect x="232.769" y="38.4766" width="5.30732" height="5.23077" transform="rotate(90 232.769 38.4766)" fill="#A1A1A1"/>
<rect x="170" y="102.164" width="5.30732" height="5.23077" transform="rotate(90 170 102.164)" fill="#A1A1A1"/>
<rect x="107.23" y="165.852" width="5.30732" height="5.23077" transform="rotate(90 107.23 165.852)" fill="#A1A1A1"/>
<rect x="44.4609" y="229.539" width="5.30732" height="5.23077" transform="rotate(90 44.4609 229.539)" fill="#A1A1A1"/>
<rect x="107.23" y="38.4766" width="5.30732" height="5.23077" transform="rotate(90 107.23 38.4766)" fill="#A1A1A1"/>
<rect x="44.4609" y="102.164" width="5.30732" height="5.23077" transform="rotate(90 44.4609 102.164)" fill="#A1A1A1"/>
<rect x="232.769" y="165.852" width="5.30732" height="5.23077" transform="rotate(90 232.769 165.852)" fill="#A1A1A1"/>
<rect x="170" y="229.539" width="5.30732" height="5.23077" transform="rotate(90 170 229.539)" fill="#A1A1A1"/>
<rect x="227.538" y="43.7891" width="5.30732" height="5.23077" transform="rotate(90 227.538 43.7891)" fill="#A1A1A1"/>
<rect x="164.769" y="107.477" width="5.30732" height="5.23077" transform="rotate(90 164.769 107.477)" fill="#A1A1A1"/>
<rect x="102" y="171.164" width="5.30732" height="5.23077" transform="rotate(90 102 171.164)" fill="#A1A1A1"/>
<rect x="39.2305" y="234.852" width="5.30732" height="5.23077" transform="rotate(90 39.2305 234.852)" fill="#A1A1A1"/>
<rect x="102" y="43.7891" width="5.30732" height="5.23077" transform="rotate(90 102 43.7891)" fill="#A1A1A1"/>
<rect x="39.2305" y="107.477" width="5.30732" height="5.23077" transform="rotate(90 39.2305 107.477)" fill="#A1A1A1"/>
<rect x="227.538" y="171.164" width="5.30732" height="5.23077" transform="rotate(90 227.538 171.164)" fill="#A1A1A1"/>
<rect x="164.769" y="234.852" width="5.30732" height="5.23077" transform="rotate(90 164.769 234.852)" fill="#A1A1A1"/>
<rect x="222.308" y="49.0938" width="5.30732" height="5.23077" transform="rotate(90 222.308 49.0938)" fill="#A1A1A1"/>
<rect x="159.538" y="112.781" width="5.30732" height="5.23077" transform="rotate(90 159.538 112.781)" fill="#A1A1A1"/>
<rect x="96.7686" y="176.469" width="5.30732" height="5.23077" transform="rotate(90 96.7686 176.469)" fill="#A1A1A1"/>
<rect x="34" y="240.156" width="5.30732" height="5.23077" transform="rotate(90 34 240.156)" fill="#A1A1A1"/>
<rect x="96.7686" y="49.0938" width="5.30732" height="5.23077" transform="rotate(90 96.7686 49.0938)" fill="#A1A1A1"/>
<rect x="34" y="112.781" width="5.30732" height="5.23077" transform="rotate(90 34 112.781)" fill="#A1A1A1"/>
<rect x="222.308" y="176.469" width="5.30732" height="5.23077" transform="rotate(90 222.308 176.469)" fill="#A1A1A1"/>
<rect x="159.538" y="240.156" width="5.30732" height="5.23077" transform="rotate(90 159.538 240.156)" fill="#A1A1A1"/>
<rect x="217.077" y="54.3984" width="5.30732" height="5.23077" transform="rotate(90 217.077 54.3984)" fill="#A1A1A1"/>
<rect x="154.308" y="118.086" width="5.30732" height="5.23077" transform="rotate(90 154.308 118.086)" fill="#A1A1A1"/>
<rect x="91.5381" y="181.773" width="5.30732" height="5.23077" transform="rotate(90 91.5381 181.773)" fill="#A1A1A1"/>
<rect x="28.7686" y="245.461" width="5.30732" height="5.23077" transform="rotate(90 28.7686 245.461)" fill="#A1A1A1"/>
<rect x="91.5381" y="54.3984" width="5.30732" height="5.23077" transform="rotate(90 91.5381 54.3984)" fill="#A1A1A1"/>
<rect x="28.7686" y="118.086" width="5.30732" height="5.23077" transform="rotate(90 28.7686 118.086)" fill="#A1A1A1"/>
<rect x="217.077" y="181.773" width="5.30732" height="5.23077" transform="rotate(90 217.077 181.773)" fill="#A1A1A1"/>
<rect x="154.308" y="245.461" width="5.30732" height="5.23077" transform="rotate(90 154.308 245.461)" fill="#A1A1A1"/>
<rect x="211.846" y="59.7109" width="5.30732" height="5.23077" transform="rotate(90 211.846 59.7109)" fill="#A1A1A1"/>
<rect x="149.077" y="123.398" width="5.30732" height="5.23077" transform="rotate(90 149.077 123.398)" fill="#A1A1A1"/>
<rect x="86.3076" y="187.086" width="5.30732" height="5.23077" transform="rotate(90 86.3076 187.086)" fill="#A1A1A1"/>
<rect x="23.5381" y="250.773" width="5.30732" height="5.23077" transform="rotate(90 23.5381 250.773)" fill="#A1A1A1"/>
<rect x="86.3076" y="59.7109" width="5.30732" height="5.23077" transform="rotate(90 86.3076 59.7109)" fill="#A1A1A1"/>
<rect x="23.5381" y="123.398" width="5.30732" height="5.23077" transform="rotate(90 23.5381 123.398)" fill="#A1A1A1"/>
<rect x="211.846" y="187.086" width="5.30732" height="5.23077" transform="rotate(90 211.846 187.086)" fill="#A1A1A1"/>
<rect x="149.077" y="250.773" width="5.30732" height="5.23077" transform="rotate(90 149.077 250.773)" fill="#A1A1A1"/>
<rect x="258.923" y="1.32812" width="5.30732" height="5.23077" transform="rotate(90 258.923 1.32812)" fill="#A1A1A1"/>
<rect x="264.153" y="1.32812" width="5.30732" height="5.23077" transform="rotate(90 264.153 1.32812)" fill="#A1A1A1"/>
<rect x="269.385" y="1.32812" width="5.30732" height="5.23077" transform="rotate(90 269.385 1.32812)" fill="#A1A1A1"/>
<rect x="269.385" y="6.63281" width="5.30732" height="5.23077" transform="rotate(90 269.385 6.63281)" fill="#A1A1A1"/>
<rect x="269.385" y="11.9453" width="5.30732" height="5.23077" transform="rotate(90 269.385 11.9453)" fill="#A1A1A1"/>
<rect x="264.153" y="96.8594" width="5.30732" height="5.23077" transform="rotate(90 264.153 96.8594)" fill="#A1A1A1"/>
<rect x="264.153" y="54.3984" width="5.30732" height="5.23077" transform="rotate(90 264.153 54.3984)" fill="#A1A1A1"/>
<rect x="264.153" y="139.32" width="5.30732" height="5.23077" transform="rotate(90 264.153 139.32)" fill="#A1A1A1"/>
<rect x="264.153" y="224.234" width="5.30732" height="5.23077" transform="rotate(90 264.153 224.234)" fill="#A1A1A1"/>
<rect x="264.153" y="33.1719" width="5.30732" height="5.23077" transform="rotate(90 264.153 33.1719)" fill="#A1A1A1"/>
<rect x="264.153" y="118.086" width="5.30732" height="5.23077" transform="rotate(90 264.153 118.086)" fill="#A1A1A1"/>
<rect x="264.153" y="203.008" width="5.30732" height="5.23077" transform="rotate(90 264.153 203.008)" fill="#A1A1A1"/>
<rect x="264.153" y="75.6328" width="5.30732" height="5.23077" transform="rotate(90 264.153 75.6328)" fill="#A1A1A1"/>
<rect x="264.153" y="160.547" width="5.30732" height="5.23077" transform="rotate(90 264.153 160.547)" fill="#A1A1A1"/>
<rect x="264.153" y="245.461" width="5.30732" height="5.23077" transform="rotate(90 264.153 245.461)" fill="#A1A1A1"/>
<rect x="264.153" y="22.5547" width="5.30732" height="5.23077" transform="rotate(90 264.153 22.5547)" fill="#A1A1A1"/>
<rect x="264.153" y="107.477" width="5.30732" height="5.23077" transform="rotate(90 264.153 107.477)" fill="#A1A1A1"/>
<rect x="264.153" y="192.391" width="5.30732" height="5.23077" transform="rotate(90 264.153 192.391)" fill="#A1A1A1"/>
<rect x="264.153" y="65.0156" width="5.30732" height="5.23077" transform="rotate(90 264.153 65.0156)" fill="#A1A1A1"/>
<rect x="258.923" y="65.0156" width="5.30732" height="5.23077" transform="rotate(90 258.923 65.0156)" fill="#A1A1A1"/>
<rect x="258.923" y="75.6328" width="5.30732" height="5.23077" transform="rotate(90 258.923 75.6328)" fill="#A1A1A1"/>
<rect x="269.385" y="75.6328" width="5.30732" height="5.23077" transform="rotate(90 269.385 75.6328)" fill="#A1A1A1"/>
<rect x="269.385" y="70.3203" width="5.30732" height="5.23077" transform="rotate(90 269.385 70.3203)" fill="#A1A1A1"/>
<rect x="269.385" y="65.0156" width="5.30732" height="5.23077" transform="rotate(90 269.385 65.0156)" fill="#A1A1A1"/>
<rect x="264.153" y="149.93" width="5.30732" height="5.23077" transform="rotate(90 264.153 149.93)" fill="#A1A1A1"/>
<rect x="264.153" y="144.625" width="5.30732" height="5.23077" transform="rotate(90 264.153 144.625)" fill="#A1A1A1"/>
<rect x="264.153" y="234.852" width="5.30732" height="5.23077" transform="rotate(90 264.153 234.852)" fill="#A1A1A1"/>
<rect x="264.153" y="256.078" width="5.30732" height="5.23077" transform="rotate(90 264.153 256.078)" fill="#A1A1A1"/>
<rect x="258.923" y="256.078" width="5.30732" height="5.23077" transform="rotate(90 258.923 256.078)" fill="#A1A1A1"/>
<rect x="258.923" y="266.695" width="5.30732" height="5.23077" transform="rotate(90 258.923 266.695)" fill="#A1A1A1"/>
<rect x="264.153" y="266.695" width="5.30732" height="5.23077" transform="rotate(90 264.153 266.695)" fill="#A1A1A1"/>
<rect x="269.385" y="266.695" width="5.30732" height="5.23077" transform="rotate(90 269.385 266.695)" fill="#A1A1A1"/>
<rect x="269.385" y="261.383" width="5.30732" height="5.23077" transform="rotate(90 269.385 261.383)" fill="#A1A1A1"/>
<rect x="269.385" y="256.078" width="5.30732" height="5.23077" transform="rotate(90 269.385 256.078)" fill="#A1A1A1"/>
<rect x="264.153" y="43.7891" width="5.30732" height="5.23077" transform="rotate(90 264.153 43.7891)" fill="#A1A1A1"/>
<rect x="264.153" y="128.703" width="5.30732" height="5.23077" transform="rotate(90 264.153 128.703)" fill="#A1A1A1"/>
<rect x="258.923" y="128.703" width="5.30732" height="5.23077" transform="rotate(90 258.923 128.703)" fill="#A1A1A1"/>
<rect x="258.923" y="139.32" width="5.30732" height="5.23077" transform="rotate(90 258.923 139.32)" fill="#A1A1A1"/>
<rect x="269.385" y="139.32" width="5.30732" height="5.23077" transform="rotate(90 269.385 139.32)" fill="#A1A1A1"/>
<rect x="269.385" y="134.008" width="5.30732" height="5.23077" transform="rotate(90 269.385 134.008)" fill="#A1A1A1"/>
<rect x="269.385" y="128.703" width="5.30732" height="5.23077" transform="rotate(90 269.385 128.703)" fill="#A1A1A1"/>
<rect x="264.153" y="213.617" width="5.30732" height="5.23077" transform="rotate(90 264.153 213.617)" fill="#A1A1A1"/>
<rect x="264.153" y="86.2422" width="5.30732" height="5.23077" transform="rotate(90 264.153 86.2422)" fill="#A1A1A1"/>
<rect x="264.153" y="171.164" width="5.30732" height="5.23077" transform="rotate(90 264.153 171.164)" fill="#A1A1A1"/>
<rect x="264.153" y="17.25" width="5.30732" height="5.23077" transform="rotate(90 264.153 17.25)" fill="#A1A1A1"/>
<rect x="264.153" y="102.164" width="5.30732" height="5.23077" transform="rotate(90 264.153 102.164)" fill="#A1A1A1"/>
<rect x="264.153" y="187.086" width="5.30732" height="5.23077" transform="rotate(90 264.153 187.086)" fill="#A1A1A1"/>
<rect x="264.153" y="59.7109" width="5.30732" height="5.23077" transform="rotate(90 264.153 59.7109)" fill="#A1A1A1"/>
<rect x="264.153" y="144.625" width="5.30732" height="5.23077" transform="rotate(90 264.153 144.625)" fill="#A1A1A1"/>
<rect x="264.153" y="139.32" width="5.30732" height="5.23077" transform="rotate(90 264.153 139.32)" fill="#A1A1A1"/>
<rect x="264.153" y="229.539" width="5.30732" height="5.23077" transform="rotate(90 264.153 229.539)" fill="#A1A1A1"/>
<rect x="264.153" y="38.4766" width="5.30732" height="5.23077" transform="rotate(90 264.153 38.4766)" fill="#A1A1A1"/>
<rect x="264.153" y="123.398" width="5.30732" height="5.23077" transform="rotate(90 264.153 123.398)" fill="#A1A1A1"/>
<rect x="264.153" y="208.312" width="5.30732" height="5.23077" transform="rotate(90 264.153 208.312)" fill="#A1A1A1"/>
<rect x="264.153" y="80.9375" width="5.30732" height="5.23077" transform="rotate(90 264.153 80.9375)" fill="#A1A1A1"/>
<rect x="264.153" y="165.852" width="5.30732" height="5.23077" transform="rotate(90 264.153 165.852)" fill="#A1A1A1"/>
<rect x="264.153" y="250.773" width="5.30732" height="5.23077" transform="rotate(90 264.153 250.773)" fill="#A1A1A1"/>
<rect x="264.153" y="27.8672" width="5.30732" height="5.23077" transform="rotate(90 264.153 27.8672)" fill="#A1A1A1"/>
<rect x="264.153" y="112.781" width="5.30732" height="5.23077" transform="rotate(90 264.153 112.781)" fill="#A1A1A1"/>
<rect x="258.923" y="197.695" width="5.30732" height="5.23077" transform="rotate(90 258.923 197.695)" fill="#A1A1A1"/>
<rect x="264.153" y="155.242" width="5.30732" height="5.23077" transform="rotate(90 264.153 155.242)" fill="#A1A1A1"/>
<rect x="264.153" y="240.156" width="5.30732" height="5.23077" transform="rotate(90 264.153 240.156)" fill="#A1A1A1"/>
<rect x="264.153" y="49.0938" width="5.30732" height="5.23077" transform="rotate(90 264.153 49.0938)" fill="#A1A1A1"/>
<rect x="264.153" y="218.93" width="5.30732" height="5.23077" transform="rotate(90 264.153 218.93)" fill="#A1A1A1"/>
<rect x="264.153" y="91.5547" width="5.30732" height="5.23077" transform="rotate(90 264.153 91.5547)" fill="#A1A1A1"/>
<rect x="264.153" y="176.469" width="5.30732" height="5.23077" transform="rotate(90 264.153 176.469)" fill="#A1A1A1"/>
<rect x="264.153" y="181.773" width="5.30732" height="5.23077" transform="rotate(90 264.153 181.773)" fill="#A1A1A1"/>
<rect x="159.538" y="261.383" width="5.23077" height="5.30732" fill="#A1A1A1"/>
<rect x="258.923" y="192.391" width="5.23077" height="5.30732" fill="#A1A1A1"/>
<rect x="253.692" y="192.391" width="5.23077" height="5.30732" fill="#A1A1A1"/>
<rect x="253.692" y="203.008" width="5.23077" height="5.30732" fill="#A1A1A1"/>
<rect x="264.153" y="203.008" width="5.23077" height="5.30732" fill="#A1A1A1"/>
<rect x="264.153" y="197.695" width="5.23077" height="5.30732" fill="#A1A1A1"/>
<rect x="264.153" y="192.391" width="5.23077" height="5.30732" fill="#A1A1A1"/>
<rect x="258.923" y="118.086" width="5.23077" height="5.30732" fill="#A1A1A1"/>
<rect x="258.923" y="43.7891" width="5.23077" height="5.30732" fill="#A1A1A1"/>
<rect x="258.923" y="229.539" width="5.23077" height="5.30732" fill="#A1A1A1"/>
<rect x="258.923" y="155.242" width="5.23077" height="5.30732" fill="#A1A1A1"/>
<rect x="258.923" y="80.9375" width="5.23077" height="5.30732" fill="#A1A1A1"/>
<rect x="28.7686" y="6.63281" width="5.30732" height="5.23077" transform="rotate(90 28.7686 6.63281)" fill="black"/>
<rect x="138.615" y="11.9453" width="5.30732" height="5.23077" transform="rotate(90 138.615 11.9453)" fill="black"/>
<rect x="201.385" y="11.9453" width="5.30732" height="5.23077" transform="rotate(90 201.385 11.9453)" fill="black"/>
<rect width="5.30732" height="5.23077" transform="matrix(4.30809e-08 1 1 -4.43511e-08 70.6152 11.9453)" fill="black"/>
<rect x="28.7686" y="6.63281" width="5.30732" height="5.23077" transform="rotate(90 28.7686 6.63281)" fill="#A1A1A1"/>
<rect x="138.615" y="11.9453" width="5.30732" height="5.23077" transform="rotate(90 138.615 11.9453)" fill="#A1A1A1"/>
<rect x="133.385" y="11.9453" width="5.30732" height="5.23077" transform="rotate(90 133.385 11.9453)" fill="#A1A1A1"/>
<rect x="133.385" y="1.32812" width="5.30732" height="5.23077" transform="rotate(90 133.385 1.32812)" fill="#A1A1A1"/>
<rect x="138.615" y="1.32812" width="5.30732" height="5.23077" transform="rotate(90 138.615 1.32812)" fill="#A1A1A1"/>
<rect x="143.846" y="1.32812" width="5.30732" height="5.23077" transform="rotate(90 143.846 1.32812)" fill="#A1A1A1"/>
<rect x="143.846" y="11.9453" width="5.30732" height="5.23077" transform="rotate(90 143.846 11.9453)" fill="#A1A1A1"/>
<rect x="201.385" y="11.9453" width="5.30732" height="5.23077" transform="rotate(90 201.385 11.9453)" fill="#A1A1A1"/>
<rect x="196.153" y="11.9453" width="5.30732" height="5.23077" transform="rotate(90 196.153 11.9453)" fill="#A1A1A1"/>
<rect x="196.153" y="1.32812" width="5.30732" height="5.23077" transform="rotate(90 196.153 1.32812)" fill="#A1A1A1"/>
<rect x="201.385" y="1.32812" width="5.30732" height="5.23077" transform="rotate(90 201.385 1.32812)" fill="#A1A1A1"/>
<rect x="206.615" y="1.32812" width="5.30732" height="5.23077" transform="rotate(90 206.615 1.32812)" fill="#A1A1A1"/>
<rect x="206.615" y="11.9453" width="5.30732" height="5.23077" transform="rotate(90 206.615 11.9453)" fill="#A1A1A1"/>
<rect width="5.30732" height="5.23077" transform="matrix(4.30809e-08 1 1 -4.43511e-08 70.6152 11.9453)" fill="#A1A1A1"/>
<rect width="5.30732" height="5.23077" transform="matrix(4.30809e-08 1 1 -4.43511e-08 65.3848 11.9453)" fill="#A1A1A1"/>
<rect width="5.30732" height="5.23077" transform="matrix(4.30809e-08 1 1 -4.43511e-08 75.8457 11.9453)" fill="#A1A1A1"/>
<rect width="5.30732" height="5.23077" transform="matrix(6.89295e-07 1 1 -2.77194e-09 75.8457 1.32812)" fill="#A1A1A1"/>
<rect width="5.30732" height="5.23077" transform="matrix(6.89295e-07 1 1 -2.77194e-09 70.6152 1.32812)" fill="#A1A1A1"/>
<rect width="5.30732" height="5.23077" transform="matrix(6.89295e-07 1 1 -2.77194e-09 65.3848 1.32812)" fill="#A1A1A1"/>
<rect x="34" y="6.63281" width="5.30732" height="5.23077" transform="rotate(90 34 6.63281)" fill="#A1A1A1"/>
<rect x="23.5381" y="70.3203" width="5.30732" height="5.23077" transform="rotate(90 23.5381 70.3203)" fill="#A1A1A1"/>
<rect x="86.3076" y="70.3203" width="5.30732" height="5.23077" transform="rotate(90 86.3076 70.3203)" fill="#A1A1A1"/>
<rect x="149.077" y="70.3203" width="5.30732" height="5.23077" transform="rotate(90 149.077 70.3203)" fill="#A1A1A1"/>
<rect x="211.846" y="70.3203" width="5.30732" height="5.23077" transform="rotate(90 211.846 70.3203)" fill="#A1A1A1"/>
<rect x="23.5381" y="134.008" width="5.30732" height="5.23077" transform="rotate(90 23.5381 134.008)" fill="#A1A1A1"/>
<rect x="86.3076" y="134.008" width="5.30732" height="5.23077" transform="rotate(90 86.3076 134.008)" fill="#A1A1A1"/>
<rect x="149.077" y="134.008" width="5.30732" height="5.23077" transform="rotate(90 149.077 134.008)" fill="#A1A1A1"/>
<rect x="211.846" y="134.008" width="5.30732" height="5.23077" transform="rotate(90 211.846 134.008)" fill="#A1A1A1"/>
<rect x="211.846" y="197.695" width="5.30732" height="5.23077" transform="rotate(90 211.846 197.695)" fill="#A1A1A1"/>
<rect x="149.077" y="197.695" width="5.30732" height="5.23077" transform="rotate(90 149.077 197.695)" fill="#A1A1A1"/>
<rect x="28.7686" y="197.695" width="5.30732" height="5.23077" transform="rotate(90 28.7686 197.695)" fill="#A1A1A1"/>
<rect x="91.5381" y="197.695" width="5.30732" height="5.23077" transform="rotate(90 91.5381 197.695)" fill="#A1A1A1"/>
<rect x="23.5381" y="197.695" width="5.30732" height="5.23077" transform="rotate(90 23.5381 197.695)" fill="#A1A1A1"/>
<rect x="86.3076" y="197.695" width="5.30732" height="5.23077" transform="rotate(90 86.3076 197.695)" fill="#A1A1A1"/>
<rect x="13.0771" y="144.625" width="5.30732" height="5.23077" transform="rotate(90 13.0771 144.625)" fill="#A1A1A1"/>
<rect x="138.615" y="149.93" width="5.30732" height="5.23077" transform="rotate(90 138.615 149.93)" fill="#A1A1A1"/>
<rect x="201.385" y="149.93" width="5.30732" height="5.23077" transform="rotate(90 201.385 149.93)" fill="#A1A1A1"/>
<rect width="5.30732" height="5.23077" transform="matrix(4.30809e-08 1 1 -4.43511e-08 70.6152 149.93)" fill="#A1A1A1"/>
<rect x="13.0771" y="139.32" width="5.30732" height="5.23077" transform="rotate(90 13.0771 139.32)" fill="#A1A1A1"/>
<rect x="138.615" y="144.625" width="5.30732" height="5.23077" transform="rotate(90 138.615 144.625)" fill="#A1A1A1"/>
<rect x="201.385" y="144.625" width="5.30732" height="5.23077" transform="rotate(90 201.385 144.625)" fill="#A1A1A1"/>
<rect width="5.30732" height="5.23077" transform="matrix(4.30809e-08 1 1 -4.43511e-08 70.6152 144.625)" fill="#A1A1A1"/>
<rect x="28.7686" y="261.383" width="5.30732" height="5.23077" transform="rotate(90 28.7686 261.383)" fill="#A1A1A1"/>
<rect x="138.615" y="266.695" width="5.30732" height="5.23077" transform="rotate(90 138.615 266.695)" fill="#A1A1A1"/>
<rect x="13.0771" y="91.5547" width="5.30732" height="5.23077" transform="rotate(90 13.0771 91.5547)" fill="#A1A1A1"/>
<rect x="138.615" y="96.8594" width="5.30732" height="5.23077" transform="rotate(90 138.615 96.8594)" fill="#A1A1A1"/>
<rect x="201.385" y="96.8594" width="5.30732" height="5.23077" transform="rotate(90 201.385 96.8594)" fill="#A1A1A1"/>
<rect width="5.30732" height="5.23077" transform="matrix(4.30809e-08 1 1 -4.43511e-08 70.6152 96.8594)" fill="#A1A1A1"/>
<rect x="13.0771" y="49.0938" width="5.30732" height="5.23077" transform="rotate(90 13.0771 49.0938)" fill="#A1A1A1"/>
<rect x="138.615" y="54.3984" width="5.30732" height="5.23077" transform="rotate(90 138.615 54.3984)" fill="#A1A1A1"/>
<rect x="201.385" y="54.3984" width="5.30732" height="5.23077" transform="rotate(90 201.385 54.3984)" fill="#A1A1A1"/>
<rect width="5.30732" height="5.23077" transform="matrix(4.30809e-08 1 1 -4.43511e-08 70.6152 54.3984)" fill="#A1A1A1"/>
<rect x="138.615" y="139.32" width="5.30732" height="5.23077" transform="rotate(90 138.615 139.32)" fill="#A1A1A1"/>
<rect x="201.385" y="139.32" width="5.30732" height="5.23077" transform="rotate(90 201.385 139.32)" fill="#A1A1A1"/>
<rect width="5.30732" height="5.23077" transform="matrix(4.30809e-08 1 1 -4.43511e-08 70.6152 139.32)" fill="#A1A1A1"/>
<rect x="13.0771" y="218.93" width="5.30732" height="5.23077" transform="rotate(90 13.0771 218.93)" fill="#A1A1A1"/>
<rect x="138.615" y="224.234" width="5.30732" height="5.23077" transform="rotate(90 138.615 224.234)" fill="#A1A1A1"/>
<rect x="201.385" y="224.234" width="5.30732" height="5.23077" transform="rotate(90 201.385 224.234)" fill="#A1A1A1"/>
<rect width="5.30732" height="5.23077" transform="matrix(4.30809e-08 1 1 -4.43511e-08 70.6152 224.234)" fill="#A1A1A1"/>
<rect x="13.0771" y="27.8672" width="5.30732" height="5.23077" transform="rotate(90 13.0771 27.8672)" fill="#A1A1A1"/>
<rect x="138.615" y="33.1719" width="5.30732" height="5.23077" transform="rotate(90 138.615 33.1719)" fill="#A1A1A1"/>
<rect x="201.385" y="33.1719" width="5.30732" height="5.23077" transform="rotate(90 201.385 33.1719)" fill="#A1A1A1"/>
<rect width="5.30732" height="5.23077" transform="matrix(4.30809e-08 1 1 -4.43511e-08 70.6152 33.1719)" fill="#A1A1A1"/>
<rect x="13.0771" y="112.781" width="5.30732" height="5.23077" transform="rotate(90 13.0771 112.781)" fill="#A1A1A1"/>
<rect x="138.615" y="118.086" width="5.30732" height="5.23077" transform="rotate(90 138.615 118.086)" fill="#A1A1A1"/>
<rect x="201.385" y="118.086" width="5.30732" height="5.23077" transform="rotate(90 201.385 118.086)" fill="#A1A1A1"/>
<rect width="5.30732" height="5.23077" transform="matrix(4.30809e-08 1 1 -4.43511e-08 70.6152 118.086)" fill="#A1A1A1"/>
<rect x="18.3076" y="197.695" width="5.30732" height="5.23077" transform="rotate(90 18.3076 197.695)" fill="#A1A1A1"/>
<rect x="81.0771" y="197.695" width="5.30732" height="5.23077" transform="rotate(90 81.0771 197.695)" fill="#A1A1A1"/>
<rect x="138.615" y="203.008" width="5.30732" height="5.23077" transform="rotate(90 138.615 203.008)" fill="#A1A1A1"/>
<rect x="201.385" y="203.008" width="5.30732" height="5.23077" transform="rotate(90 201.385 203.008)" fill="#A1A1A1"/>
<rect width="5.30732" height="5.23077" transform="matrix(4.30809e-08 1 1 -4.43511e-08 70.6152 203.008)" fill="#A1A1A1"/>
<rect x="18.3076" y="70.3203" width="5.30732" height="5.23077" transform="rotate(90 18.3076 70.3203)" fill="#A1A1A1"/>
<rect x="18.3076" y="65.0156" width="5.30732" height="5.23077" transform="rotate(90 18.3076 65.0156)" fill="#A1A1A1"/>
<rect x="7.8457" y="65.0156" width="5.30732" height="5.23077" transform="rotate(90 7.8457 65.0156)" fill="#A1A1A1"/>
<rect x="7.8457" y="70.3203" width="5.30732" height="5.23077" transform="rotate(90 7.8457 70.3203)" fill="#A1A1A1"/>
<rect x="7.8457" y="75.6328" width="5.30732" height="5.23077" transform="rotate(90 7.8457 75.6328)" fill="#A1A1A1"/>
<rect x="18.3076" y="75.6328" width="5.30732" height="5.23077" transform="rotate(90 18.3076 75.6328)" fill="#A1A1A1"/>
<rect x="81.0771" y="70.3203" width="5.30732" height="5.23077" transform="rotate(90 81.0771 70.3203)" fill="#A1A1A1"/>
<rect x="143.846" y="70.3203" width="5.30732" height="5.23077" transform="rotate(90 143.846 70.3203)" fill="#A1A1A1"/>
<rect x="206.615" y="70.3203" width="5.30732" height="5.23077" transform="rotate(90 206.615 70.3203)" fill="#A1A1A1"/>
<rect x="138.615" y="75.6328" width="5.30732" height="5.23077" transform="rotate(90 138.615 75.6328)" fill="#A1A1A1"/>
<rect x="201.385" y="75.6328" width="5.30732" height="5.23077" transform="rotate(90 201.385 75.6328)" fill="#A1A1A1"/>
<rect width="5.30732" height="5.23077" transform="matrix(4.30809e-08 1 1 -4.43511e-08 70.6152 75.6328)" fill="#A1A1A1"/>
<rect width="5.30732" height="5.23077" transform="matrix(4.30809e-08 1 1 -4.43511e-08 65.3848 75.6328)" fill="#A1A1A1"/>
<rect width="5.30732" height="5.23077" transform="matrix(4.30809e-08 1 1 -4.43511e-08 65.3848 65.0156)" fill="#A1A1A1"/>
<rect width="5.30732" height="5.23077" transform="matrix(4.30809e-08 1 1 -4.43511e-08 75.8457 65.0156)" fill="#A1A1A1"/>
<rect width="5.30732" height="5.23077" transform="matrix(4.30809e-08 1 1 -4.43511e-08 75.8457 75.6328)" fill="#A1A1A1"/>
<rect x="13.0771" y="155.242" width="5.30732" height="5.23077" transform="rotate(90 13.0771 155.242)" fill="#A1A1A1"/>
<rect x="138.615" y="160.547" width="5.30732" height="5.23077" transform="rotate(90 138.615 160.547)" fill="#A1A1A1"/>
<rect x="201.385" y="160.547" width="5.30732" height="5.23077" transform="rotate(90 201.385 160.547)" fill="#A1A1A1"/>
<rect width="5.30732" height="5.23077" transform="matrix(4.30809e-08 1 1 -4.43511e-08 70.6152 160.547)" fill="#A1A1A1"/>
<rect x="13.0771" y="240.156" width="5.30732" height="5.23077" transform="rotate(90 13.0771 240.156)" fill="#A1A1A1"/>
<rect x="138.615" y="245.461" width="5.30732" height="5.23077" transform="rotate(90 138.615 245.461)" fill="#A1A1A1"/>
<rect x="201.385" y="245.461" width="5.30732" height="5.23077" transform="rotate(90 201.385 245.461)" fill="#A1A1A1"/>
<rect width="5.30732" height="5.23077" transform="matrix(4.30809e-08 1 1 -4.43511e-08 70.6152 245.461)" fill="#A1A1A1"/>
<rect x="13.0771" y="17.25" width="5.30732" height="5.23077" transform="rotate(90 13.0771 17.25)" fill="#A1A1A1"/>
<rect x="138.615" y="22.5547" width="5.30732" height="5.23077" transform="rotate(90 138.615 22.5547)" fill="#A1A1A1"/>
<rect x="201.385" y="22.5547" width="5.30732" height="5.23077" transform="rotate(90 201.385 22.5547)" fill="#A1A1A1"/>
<rect width="5.30732" height="5.23077" transform="matrix(4.30809e-08 1 1 -4.43511e-08 70.6152 22.5547)" fill="#A1A1A1"/>
<rect x="13.0771" y="102.164" width="5.30732" height="5.23077" transform="rotate(90 13.0771 102.164)" fill="#A1A1A1"/>
<rect x="138.615" y="107.477" width="5.30732" height="5.23077" transform="rotate(90 138.615 107.477)" fill="#A1A1A1"/>
<rect x="201.385" y="107.477" width="5.30732" height="5.23077" transform="rotate(90 201.385 107.477)" fill="#A1A1A1"/>
<rect width="5.30732" height="5.23077" transform="matrix(4.30809e-08 1 1 -4.43511e-08 70.6152 107.477)" fill="#A1A1A1"/>
<rect x="13.0771" y="187.086" width="5.30732" height="5.23077" transform="rotate(90 13.0771 187.086)" fill="#A1A1A1"/>
<rect x="138.615" y="192.391" width="5.30732" height="5.23077" transform="rotate(90 138.615 192.391)" fill="#A1A1A1"/>
<rect x="201.385" y="192.391" width="5.30732" height="5.23077" transform="rotate(90 201.385 192.391)" fill="#A1A1A1"/>
<rect width="5.30732" height="5.23077" transform="matrix(4.30809e-08 1 1 -4.43511e-08 70.6152 192.391)" fill="#A1A1A1"/>
<rect x="13.0771" y="59.7109" width="5.30732" height="5.23077" transform="rotate(90 13.0771 59.7109)" fill="#A1A1A1"/>
<rect x="138.615" y="65.0156" width="5.30732" height="5.23077" transform="rotate(90 138.615 65.0156)" fill="#A1A1A1"/>
<rect x="201.385" y="65.0156" width="5.30732" height="5.23077" transform="rotate(90 201.385 65.0156)" fill="#A1A1A1"/>
<rect x="196.153" y="65.0156" width="5.30732" height="5.23077" transform="rotate(90 196.153 65.0156)" fill="#A1A1A1"/>
<rect x="196.153" y="75.6328" width="5.30732" height="5.23077" transform="rotate(90 196.153 75.6328)" fill="#A1A1A1"/>
<rect x="206.615" y="75.6328" width="5.30732" height="5.23077" transform="rotate(90 206.615 75.6328)" fill="#A1A1A1"/>
<rect x="206.615" y="65.0156" width="5.30732" height="5.23077" transform="rotate(90 206.615 65.0156)" fill="#A1A1A1"/>
<rect width="5.30732" height="5.23077" transform="matrix(4.30809e-08 1 1 -4.43511e-08 70.6152 65.0156)" fill="#A1A1A1"/>
<rect x="13.0771" y="144.625" width="5.30732" height="5.23077" transform="rotate(90 13.0771 144.625)" fill="#A1A1A1"/>
<rect x="138.615" y="149.93" width="5.30732" height="5.23077" transform="rotate(90 138.615 149.93)" fill="#A1A1A1"/>
<rect x="201.385" y="149.93" width="5.30732" height="5.23077" transform="rotate(90 201.385 149.93)" fill="#A1A1A1"/>
<rect width="5.30732" height="5.23077" transform="matrix(4.30809e-08 1 1 -4.43511e-08 70.6152 149.93)" fill="#A1A1A1"/>
<rect x="13.0771" y="139.32" width="5.30732" height="5.23077" transform="rotate(90 13.0771 139.32)" fill="#A1A1A1"/>
<rect x="138.615" y="144.625" width="5.30732" height="5.23077" transform="rotate(90 138.615 144.625)" fill="#A1A1A1"/>
<rect x="201.385" y="144.625" width="5.30732" height="5.23077" transform="rotate(90 201.385 144.625)" fill="#A1A1A1"/>
<rect width="5.30732" height="5.23077" transform="matrix(4.30809e-08 1 1 -4.43511e-08 70.6152 144.625)" fill="#A1A1A1"/>
<rect x="13.0771" y="229.539" width="5.30732" height="5.23077" transform="rotate(90 13.0771 229.539)" fill="#A1A1A1"/>
<rect x="138.615" y="234.852" width="5.30732" height="5.23077" transform="rotate(90 138.615 234.852)" fill="#A1A1A1"/>
<rect x="201.385" y="234.852" width="5.30732" height="5.23077" transform="rotate(90 201.385 234.852)" fill="#A1A1A1"/>
<rect width="5.30732" height="5.23077" transform="matrix(4.30809e-08 1 1 -4.43511e-08 70.6152 234.852)" fill="#A1A1A1"/>
<rect x="13.0771" y="250.773" width="5.30732" height="5.23077" transform="rotate(90 13.0771 250.773)" fill="#A1A1A1"/>
<rect x="138.615" y="256.078" width="5.30732" height="5.23077" transform="rotate(90 138.615 256.078)" fill="#A1A1A1"/>
<rect x="201.385" y="256.078" width="5.30732" height="5.23077" transform="rotate(90 201.385 256.078)" fill="#A1A1A1"/>
<rect x="196.153" y="256.078" width="5.30732" height="5.23077" transform="rotate(90 196.153 256.078)" fill="#A1A1A1"/>
<rect x="196.153" y="266.695" width="5.30732" height="5.23077" transform="rotate(90 196.153 266.695)" fill="#A1A1A1"/>
<rect x="201.385" y="266.695" width="5.30732" height="5.23077" transform="rotate(90 201.385 266.695)" fill="#A1A1A1"/>
<rect x="206.615" y="266.695" width="5.30732" height="5.23077" transform="rotate(90 206.615 266.695)" fill="#A1A1A1"/>
<rect x="206.615" y="256.078" width="5.30732" height="5.23077" transform="rotate(90 206.615 256.078)" fill="#A1A1A1"/>
<rect width="5.30732" height="5.23077" transform="matrix(4.30809e-08 1 1 -4.43511e-08 70.6152 256.078)" fill="#A1A1A1"/>
<rect width="5.30732" height="5.23077" transform="matrix(4.30809e-08 1 1 -4.43511e-08 65.3848 256.078)" fill="#A1A1A1"/>
<rect width="5.30732" height="5.23077" transform="matrix(4.30809e-08 1 1 -4.43511e-08 70.6152 266.695)" fill="#A1A1A1"/>
<rect width="5.30732" height="5.23077" transform="matrix(4.30809e-08 1 1 -4.43511e-08 75.8457 266.695)" fill="#A1A1A1"/>
<rect width="5.30732" height="5.23077" transform="matrix(4.30809e-08 1 1 -4.43511e-08 75.8457 256.078)" fill="#A1A1A1"/>
<rect x="13.0771" y="38.4766" width="5.30732" height="5.23077" transform="rotate(90 13.0771 38.4766)" fill="#A1A1A1"/>
<rect x="138.615" y="43.7891" width="5.30732" height="5.23077" transform="rotate(90 138.615 43.7891)" fill="#A1A1A1"/>
<rect x="201.385" y="43.7891" width="5.30732" height="5.23077" transform="rotate(90 201.385 43.7891)" fill="#A1A1A1"/>
<rect width="5.30732" height="5.23077" transform="matrix(4.30809e-08 1 1 -4.43511e-08 70.6152 43.7891)" fill="#A1A1A1"/>
<rect x="13.0771" y="123.398" width="5.30732" height="5.23077" transform="rotate(90 13.0771 123.398)" fill="#A1A1A1"/>
<rect x="138.615" y="128.703" width="5.30732" height="5.23077" transform="rotate(90 138.615 128.703)" fill="#A1A1A1"/>
<rect x="133.385" y="128.703" width="5.30732" height="5.23077" transform="rotate(90 133.385 128.703)" fill="#A1A1A1"/>
<rect x="133.385" y="139.32" width="5.30732" height="5.23077" transform="rotate(90 133.385 139.32)" fill="#A1A1A1"/>
<rect x="143.846" y="139.32" width="5.30732" height="5.23077" transform="rotate(90 143.846 139.32)" fill="#A1A1A1"/>
<rect x="143.846" y="128.703" width="5.30732" height="5.23077" transform="rotate(90 143.846 128.703)" fill="#A1A1A1"/>
<rect x="201.385" y="128.703" width="5.30732" height="5.23077" transform="rotate(90 201.385 128.703)" fill="#A1A1A1"/>
<rect x="196.153" y="128.703" width="5.30732" height="5.23077" transform="rotate(90 196.153 128.703)" fill="#A1A1A1"/>
<rect x="196.153" y="139.32" width="5.30732" height="5.23077" transform="rotate(90 196.153 139.32)" fill="#A1A1A1"/>
<rect x="206.615" y="139.32" width="5.30732" height="5.23077" transform="rotate(90 206.615 139.32)" fill="#A1A1A1"/>
<rect x="206.615" y="128.703" width="5.30732" height="5.23077" transform="rotate(90 206.615 128.703)" fill="#A1A1A1"/>
<rect width="5.30732" height="5.23077" transform="matrix(4.30809e-08 1 1 -4.43511e-08 70.6152 128.703)" fill="#A1A1A1"/>
<rect width="5.30732" height="5.23077" transform="matrix(4.30809e-08 1 1 -4.43511e-08 65.3848 128.703)" fill="#A1A1A1"/>
<rect width="5.30732" height="5.23077" transform="matrix(4.30809e-08 1 1 -4.43511e-08 65.3848 139.32)" fill="#A1A1A1"/>
<rect width="5.30732" height="5.23077" transform="matrix(4.30809e-08 1 1 -4.43511e-08 75.8457 139.32)" fill="#A1A1A1"/>
<rect width="5.30732" height="5.23077" transform="matrix(4.30809e-08 1 1 -4.43511e-08 75.8457 128.703)" fill="#A1A1A1"/>
<rect x="13.0771" y="208.312" width="5.30732" height="5.23077" transform="rotate(90 13.0771 208.312)" fill="#A1A1A1"/>
<rect x="138.615" y="213.617" width="5.30732" height="5.23077" transform="rotate(90 138.615 213.617)" fill="#A1A1A1"/>
<rect x="201.385" y="213.617" width="5.30732" height="5.23077" transform="rotate(90 201.385 213.617)" fill="#A1A1A1"/>
<rect width="5.30732" height="5.23077" transform="matrix(4.30809e-08 1 1 -4.43511e-08 70.6152 213.617)" fill="#A1A1A1"/>
<rect x="13.0771" y="80.9375" width="5.30732" height="5.23077" transform="rotate(90 13.0771 80.9375)" fill="#A1A1A1"/>
<rect x="138.615" y="86.2422" width="5.30732" height="5.23077" transform="rotate(90 138.615 86.2422)" fill="#A1A1A1"/>
<rect x="201.385" y="86.2422" width="5.30732" height="5.23077" transform="rotate(90 201.385 86.2422)" fill="#A1A1A1"/>
<rect width="5.30732" height="5.23077" transform="matrix(4.30809e-08 1 1 -4.43511e-08 70.6152 86.2422)" fill="#A1A1A1"/>
<rect x="13.0771" y="165.852" width="5.30732" height="5.23077" transform="rotate(90 13.0771 165.852)" fill="#A1A1A1"/>
<rect x="138.615" y="171.164" width="5.30732" height="5.23077" transform="rotate(90 138.615 171.164)" fill="#A1A1A1"/>
<rect x="201.385" y="171.164" width="5.30732" height="5.23077" transform="rotate(90 201.385 171.164)" fill="#A1A1A1"/>
<rect width="5.30732" height="5.23077" transform="matrix(4.30809e-08 1 1 -4.43511e-08 70.6152 171.164)" fill="#A1A1A1"/>
<rect x="13.0771" y="11.9453" width="5.30732" height="5.23077" transform="rotate(90 13.0771 11.9453)" fill="#A1A1A1"/>
<rect x="18.3076" y="11.9453" width="5.30732" height="5.23077" transform="rotate(90 18.3076 11.9453)" fill="#A1A1A1"/>
<rect x="23.5381" y="17.25" width="5.30732" height="5.23077" transform="rotate(90 23.5381 17.25)" fill="#A1A1A1"/>
<rect x="28.7686" y="22.5547" width="5.30732" height="5.23077" transform="rotate(90 28.7686 22.5547)" fill="#A1A1A1"/>
<rect x="34" y="27.8672" width="5.30732" height="5.23077" transform="rotate(90 34 27.8672)" fill="#A1A1A1"/>
<rect x="86.3076" y="80.9375" width="5.30732" height="5.23077" transform="rotate(90 86.3076 80.9375)" fill="#A1A1A1"/>
<rect x="149.077" y="144.625" width="5.30732" height="5.23077" transform="rotate(90 149.077 144.625)" fill="#A1A1A1"/>
<rect x="211.846" y="208.312" width="5.30732" height="5.23077" transform="rotate(90 211.846 208.312)" fill="#A1A1A1"/>
<rect x="39.2305" y="33.1719" width="5.30732" height="5.23077" transform="rotate(90 39.2305 33.1719)" fill="#A1A1A1"/>
<rect x="91.5381" y="86.2422" width="5.30732" height="5.23077" transform="rotate(90 91.5381 86.2422)" fill="#A1A1A1"/>
<rect x="154.308" y="149.93" width="5.30732" height="5.23077" transform="rotate(90 154.308 149.93)" fill="#A1A1A1"/>
<rect x="217.077" y="213.617" width="5.30732" height="5.23077" transform="rotate(90 217.077 213.617)" fill="#A1A1A1"/>
<rect x="44.4609" y="38.4766" width="5.30732" height="5.23077" transform="rotate(90 44.4609 38.4766)" fill="#A1A1A1"/>
<rect x="96.7686" y="91.5547" width="5.30732" height="5.23077" transform="rotate(90 96.7686 91.5547)" fill="#A1A1A1"/>
<rect x="159.538" y="155.242" width="5.30732" height="5.23077" transform="rotate(90 159.538 155.242)" fill="#A1A1A1"/>
<rect x="211.846" y="80.9375" width="5.30732" height="5.23077" transform="rotate(90 211.846 80.9375)" fill="#A1A1A1"/>
<rect x="86.3076" y="208.312" width="5.30732" height="5.23077" transform="rotate(90 86.3076 208.312)" fill="#A1A1A1"/>
<rect x="23.5381" y="144.625" width="5.30732" height="5.23077" transform="rotate(90 23.5381 144.625)" fill="#A1A1A1"/>
<rect x="149.077" y="17.25" width="5.30732" height="5.23077" transform="rotate(90 149.077 17.25)" fill="#A1A1A1"/>
<rect x="222.308" y="218.93" width="5.30732" height="5.23077" transform="rotate(90 222.308 218.93)" fill="#A1A1A1"/>
<rect x="49.6924" y="43.7891" width="5.30732" height="5.23077" transform="rotate(90 49.6924 43.7891)" fill="#A1A1A1"/>
<rect x="102" y="96.8594" width="5.30732" height="5.23077" transform="rotate(90 102 96.8594)" fill="#A1A1A1"/>
<rect x="164.769" y="160.547" width="5.30732" height="5.23077" transform="rotate(90 164.769 160.547)" fill="#A1A1A1"/>
<rect x="217.077" y="86.2422" width="5.30732" height="5.23077" transform="rotate(90 217.077 86.2422)" fill="#A1A1A1"/>
<rect x="91.5381" y="213.617" width="5.30732" height="5.23077" transform="rotate(90 91.5381 213.617)" fill="#A1A1A1"/>
<rect x="28.7686" y="149.93" width="5.30732" height="5.23077" transform="rotate(90 28.7686 149.93)" fill="#A1A1A1"/>
<rect x="154.308" y="22.5547" width="5.30732" height="5.23077" transform="rotate(90 154.308 22.5547)" fill="#A1A1A1"/>
<rect x="227.538" y="224.234" width="5.30732" height="5.23077" transform="rotate(90 227.538 224.234)" fill="#A1A1A1"/>
<rect x="54.9229" y="49.0938" width="5.30732" height="5.23077" transform="rotate(90 54.9229 49.0938)" fill="#A1A1A1"/>
<rect x="107.23" y="102.164" width="5.30732" height="5.23077" transform="rotate(90 107.23 102.164)" fill="#A1A1A1"/>
<rect x="170" y="165.852" width="5.30732" height="5.23077" transform="rotate(90 170 165.852)" fill="#A1A1A1"/>
<rect x="222.308" y="91.5547" width="5.30732" height="5.23077" transform="rotate(90 222.308 91.5547)" fill="#A1A1A1"/>
<rect x="96.7686" y="218.93" width="5.30732" height="5.23077" transform="rotate(90 96.7686 218.93)" fill="#A1A1A1"/>
<rect x="34" y="155.242" width="5.30732" height="5.23077" transform="rotate(90 34 155.242)" fill="#A1A1A1"/>
<rect x="159.538" y="27.8672" width="5.30732" height="5.23077" transform="rotate(90 159.538 27.8672)" fill="#A1A1A1"/>
<rect x="232.769" y="229.539" width="5.30732" height="5.23077" transform="rotate(90 232.769 229.539)" fill="#A1A1A1"/>
<rect x="60.1533" y="54.3984" width="5.30732" height="5.23077" transform="rotate(90 60.1533 54.3984)" fill="#A1A1A1"/>
<rect x="112.461" y="107.477" width="5.30732" height="5.23077" transform="rotate(90 112.461 107.477)" fill="#A1A1A1"/>
<rect x="175.23" y="171.164" width="5.30732" height="5.23077" transform="rotate(90 175.23 171.164)" fill="#A1A1A1"/>
<rect x="227.538" y="96.8594" width="5.30732" height="5.23077" transform="rotate(90 227.538 96.8594)" fill="#A1A1A1"/>
<rect x="102" y="224.234" width="5.30732" height="5.23077" transform="rotate(90 102 224.234)" fill="#A1A1A1"/>
<rect x="39.2305" y="160.547" width="5.30732" height="5.23077" transform="rotate(90 39.2305 160.547)" fill="#A1A1A1"/>
<rect x="164.769" y="33.1719" width="5.30732" height="5.23077" transform="rotate(90 164.769 33.1719)" fill="#A1A1A1"/>
<rect x="185.692" y="181.773" width="5.30732" height="5.23077" transform="rotate(90 185.692 181.773)" fill="#A1A1A1"/>
<rect x="238" y="107.477" width="5.30732" height="5.23077" transform="rotate(90 238 107.477)" fill="#A1A1A1"/>
<rect x="112.461" y="234.852" width="5.30732" height="5.23077" transform="rotate(90 112.461 234.852)" fill="#A1A1A1"/>
<rect x="49.6924" y="171.164" width="5.30732" height="5.23077" transform="rotate(90 49.6924 171.164)" fill="#A1A1A1"/>
<rect x="175.23" y="43.7891" width="5.30732" height="5.23077" transform="rotate(90 175.23 43.7891)" fill="#A1A1A1"/>
<rect x="248.461" y="245.461" width="5.30732" height="5.23077" transform="rotate(90 248.461 245.461)" fill="#A1A1A1"/>
<rect x="122.923" y="118.086" width="5.30732" height="5.23077" transform="rotate(90 122.923 118.086)" fill="#A1A1A1"/>
<rect x="238" y="234.852" width="5.30732" height="5.23077" transform="rotate(90 238 234.852)" fill="#A1A1A1"/>
<rect x="65.3848" y="59.7109" width="5.30732" height="5.23077" transform="rotate(90 65.3848 59.7109)" fill="#A1A1A1"/>
<rect x="117.692" y="112.781" width="5.30732" height="5.23077" transform="rotate(90 117.692 112.781)" fill="#A1A1A1"/>
<rect x="180.461" y="176.469" width="5.30732" height="5.23077" transform="rotate(90 180.461 176.469)" fill="#A1A1A1"/>
<rect x="232.769" y="102.164" width="5.30732" height="5.23077" transform="rotate(90 232.769 102.164)" fill="#A1A1A1"/>
<rect x="107.23" y="229.539" width="5.30732" height="5.23077" transform="rotate(90 107.23 229.539)" fill="#A1A1A1"/>
<rect x="44.4609" y="165.852" width="5.30732" height="5.23077" transform="rotate(90 44.4609 165.852)" fill="#A1A1A1"/>
<rect x="170" y="38.4766" width="5.30732" height="5.23077" transform="rotate(90 170 38.4766)" fill="#A1A1A1"/>
<rect x="190.923" y="187.086" width="5.30732" height="5.23077" transform="rotate(90 190.923 187.086)" fill="#A1A1A1"/>
<rect x="243.23" y="112.781" width="5.30732" height="5.23077" transform="rotate(90 243.23 112.781)" fill="#A1A1A1"/>
<rect x="117.692" y="240.156" width="5.30732" height="5.23077" transform="rotate(90 117.692 240.156)" fill="#A1A1A1"/>
<rect x="54.9229" y="176.469" width="5.30732" height="5.23077" transform="rotate(90 54.9229 176.469)" fill="#A1A1A1"/>
<rect x="180.461" y="49.0938" width="5.30732" height="5.23077" transform="rotate(90 180.461 49.0938)" fill="#A1A1A1"/>
<rect x="248.461" y="118.086" width="5.30732" height="5.23077" transform="rotate(90 248.461 118.086)" fill="#A1A1A1"/>
<rect x="122.923" y="245.461" width="5.30732" height="5.23077" transform="rotate(90 122.923 245.461)" fill="#A1A1A1"/>
<rect x="60.1533" y="181.773" width="5.30732" height="5.23077" transform="rotate(90 60.1533 181.773)" fill="#A1A1A1"/>
<rect x="185.692" y="54.3984" width="5.30732" height="5.23077" transform="rotate(90 185.692 54.3984)" fill="#A1A1A1"/>
<rect x="253.692" y="123.398" width="5.30732" height="5.23077" transform="rotate(90 253.692 123.398)" fill="#A1A1A1"/>
<rect x="128.153" y="250.773" width="5.30732" height="5.23077" transform="rotate(90 128.153 250.773)" fill="#A1A1A1"/>
<rect x="65.3848" y="187.086" width="5.30732" height="5.23077" transform="rotate(90 65.3848 187.086)" fill="#A1A1A1"/>
<rect x="190.923" y="59.7109" width="5.30732" height="5.23077" transform="rotate(90 190.923 59.7109)" fill="#A1A1A1"/>
<rect x="253.692" y="250.773" width="5.30732" height="5.23077" transform="rotate(90 253.692 250.773)" fill="#A1A1A1"/>
<rect x="128.153" y="123.398" width="5.30732" height="5.23077" transform="rotate(90 128.153 123.398)" fill="#A1A1A1"/>
<rect x="243.23" y="240.156" width="5.30732" height="5.23077" transform="rotate(90 243.23 240.156)" fill="#A1A1A1"/>
<rect x="7.8457" y="11.9453" width="5.30732" height="5.23077" transform="rotate(90 7.8457 11.9453)" fill="#A1A1A1"/>
<rect x="7.8457" y="6.63281" width="5.30732" height="5.23077" transform="rotate(90 7.8457 6.63281)" fill="#A1A1A1"/>
<rect x="7.8457" y="1.32812" width="5.30732" height="5.23077" transform="rotate(90 7.8457 1.32812)" fill="#A1A1A1"/>
<rect x="13.0771" y="1.32812" width="5.30732" height="5.23077" transform="rotate(90 13.0771 1.32812)" fill="#A1A1A1"/>
<rect x="18.3076" y="1.32812" width="5.30732" height="5.23077" transform="rotate(90 18.3076 1.32812)" fill="#A1A1A1"/>
<rect x="18.3076" y="6.63281" width="5.30732" height="5.23077" transform="rotate(90 18.3076 6.63281)" fill="#A1A1A1"/>
<rect x="18.3076" y="6.63281" width="5.30732" height="5.23077" transform="rotate(90 18.3076 6.63281)" fill="#A1A1A1"/>
<rect x="23.5381" y="6.63281" width="5.30732" height="5.23077" transform="rotate(90 23.5381 6.63281)" fill="#A1A1A1"/>
<rect x="138.615" y="17.25" width="5.30732" height="5.23077" transform="rotate(90 138.615 17.25)" fill="#A1A1A1"/>
<rect x="201.385" y="17.25" width="5.30732" height="5.23077" transform="rotate(90 201.385 17.25)" fill="#A1A1A1"/>
<rect width="5.30732" height="5.23077" transform="matrix(4.30809e-08 1 1 -4.43511e-08 70.6152 17.25)" fill="#A1A1A1"/>
<rect x="13.0771" y="96.8594" width="5.30732" height="5.23077" transform="rotate(90 13.0771 96.8594)" fill="#A1A1A1"/>
<rect x="138.615" y="102.164" width="5.30732" height="5.23077" transform="rotate(90 138.615 102.164)" fill="#A1A1A1"/>
<rect x="201.385" y="102.164" width="5.30732" height="5.23077" transform="rotate(90 201.385 102.164)" fill="#A1A1A1"/>
<rect width="5.30732" height="5.23077" transform="matrix(4.30809e-08 1 1 -4.43511e-08 70.6152 102.164)" fill="#A1A1A1"/>
<rect x="13.0771" y="181.773" width="5.30732" height="5.23077" transform="rotate(90 13.0771 181.773)" fill="#A1A1A1"/>
<rect x="138.615" y="187.086" width="5.30732" height="5.23077" transform="rotate(90 138.615 187.086)" fill="#A1A1A1"/>
<rect x="201.385" y="187.086" width="5.30732" height="5.23077" transform="rotate(90 201.385 187.086)" fill="#A1A1A1"/>
<rect width="5.30732" height="5.23077" transform="matrix(4.30809e-08 1 1 -4.43511e-08 70.6152 187.086)" fill="#A1A1A1"/>
<rect x="13.0771" y="54.3984" width="5.30732" height="5.23077" transform="rotate(90 13.0771 54.3984)" fill="#A1A1A1"/>
<rect x="138.615" y="59.7109" width="5.30732" height="5.23077" transform="rotate(90 138.615 59.7109)" fill="#A1A1A1"/>
<rect x="201.385" y="59.7109" width="5.30732" height="5.23077" transform="rotate(90 201.385 59.7109)" fill="#A1A1A1"/>
<rect width="5.30732" height="5.23077" transform="matrix(4.30809e-08 1 1 -4.43511e-08 70.6152 59.7109)" fill="#A1A1A1"/>
<rect x="13.0771" y="139.32" width="5.30732" height="5.23077" transform="rotate(90 13.0771 139.32)" fill="#A1A1A1"/>
<rect x="138.615" y="144.625" width="5.30732" height="5.23077" transform="rotate(90 138.615 144.625)" fill="#A1A1A1"/>
<rect x="201.385" y="144.625" width="5.30732" height="5.23077" transform="rotate(90 201.385 144.625)" fill="#A1A1A1"/>
<rect width="5.30732" height="5.23077" transform="matrix(4.30809e-08 1 1 -4.43511e-08 70.6152 144.625)" fill="#A1A1A1"/>
<rect x="7.8457" y="134.008" width="5.30732" height="5.23077" transform="rotate(90 7.8457 134.008)" fill="#A1A1A1"/>
<rect x="7.8457" y="128.703" width="5.30732" height="5.23077" transform="rotate(90 7.8457 128.703)" fill="#A1A1A1"/>
<rect x="18.3076" y="128.703" width="5.30732" height="5.23077" transform="rotate(90 18.3076 128.703)" fill="#A1A1A1"/>
<rect x="18.3076" y="139.32" width="5.30732" height="5.23077" transform="rotate(90 18.3076 139.32)" fill="#A1A1A1"/>
<rect x="7.8457" y="139.32" width="5.30732" height="5.23077" transform="rotate(90 7.8457 139.32)" fill="#A1A1A1"/>
<rect x="18.3076" y="134.008" width="5.30732" height="5.23077" transform="rotate(90 18.3076 134.008)" fill="#A1A1A1"/>
<rect x="81.0771" y="134.008" width="5.30732" height="5.23077" transform="rotate(90 81.0771 134.008)" fill="#A1A1A1"/>
<rect x="143.846" y="134.008" width="5.30732" height="5.23077" transform="rotate(90 143.846 134.008)" fill="#A1A1A1"/>
<rect x="206.615" y="134.008" width="5.30732" height="5.23077" transform="rotate(90 206.615 134.008)" fill="#A1A1A1"/>
<rect x="206.615" y="197.695" width="5.30732" height="5.23077" transform="rotate(90 206.615 197.695)" fill="#A1A1A1"/>
<rect x="143.846" y="197.695" width="5.30732" height="5.23077" transform="rotate(90 143.846 197.695)" fill="#A1A1A1"/>
<rect x="138.615" y="139.32" width="5.30732" height="5.23077" transform="rotate(90 138.615 139.32)" fill="#A1A1A1"/>
<rect x="201.385" y="139.32" width="5.30732" height="5.23077" transform="rotate(90 201.385 139.32)" fill="#A1A1A1"/>
<rect width="5.30732" height="5.23077" transform="matrix(4.30809e-08 1 1 -4.43511e-08 70.6152 139.32)" fill="#A1A1A1"/>
<rect x="13.0771" y="224.234" width="5.30732" height="5.23077" transform="rotate(90 13.0771 224.234)" fill="#A1A1A1"/>
<rect x="138.615" y="229.539" width="5.30732" height="5.23077" transform="rotate(90 138.615 229.539)" fill="#A1A1A1"/>
<rect x="201.385" y="229.539" width="5.30732" height="5.23077" transform="rotate(90 201.385 229.539)" fill="#A1A1A1"/>
<rect width="5.30732" height="5.23077" transform="matrix(4.30809e-08 1 1 -4.43511e-08 70.6152 229.539)" fill="#A1A1A1"/>
<rect x="13.0771" y="33.1719" width="5.30732" height="5.23077" transform="rotate(90 13.0771 33.1719)" fill="#A1A1A1"/>
<rect x="138.615" y="38.4766" width="5.30732" height="5.23077" transform="rotate(90 138.615 38.4766)" fill="#A1A1A1"/>
<rect x="201.385" y="38.4766" width="5.30732" height="5.23077" transform="rotate(90 201.385 38.4766)" fill="#A1A1A1"/>
<rect width="5.30732" height="5.23077" transform="matrix(4.30809e-08 1 1 -4.43511e-08 70.6152 38.4766)" fill="#A1A1A1"/>
<rect x="13.0771" y="118.086" width="5.30732" height="5.23077" transform="rotate(90 13.0771 118.086)" fill="#A1A1A1"/>
<rect x="138.615" y="123.398" width="5.30732" height="5.23077" transform="rotate(90 138.615 123.398)" fill="#A1A1A1"/>
<rect x="201.385" y="123.398" width="5.30732" height="5.23077" transform="rotate(90 201.385 123.398)" fill="#A1A1A1"/>
<rect width="5.30732" height="5.23077" transform="matrix(4.30809e-08 1 1 -4.43511e-08 70.6152 123.398)" fill="#A1A1A1"/>
<rect x="13.0771" y="203.008" width="5.30732" height="5.23077" transform="rotate(90 13.0771 203.008)" fill="#A1A1A1"/>
<rect x="138.615" y="208.312" width="5.30732" height="5.23077" transform="rotate(90 138.615 208.312)" fill="#A1A1A1"/>
<rect x="201.385" y="208.312" width="5.30732" height="5.23077" transform="rotate(90 201.385 208.312)" fill="#A1A1A1"/>
<rect width="5.30732" height="5.23077" transform="matrix(4.30809e-08 1 1 -4.43511e-08 70.6152 208.312)" fill="#A1A1A1"/>
<rect x="13.0771" y="75.6328" width="5.30732" height="5.23077" transform="rotate(90 13.0771 75.6328)" fill="#A1A1A1"/>
<rect x="138.615" y="80.9375" width="5.30732" height="5.23077" transform="rotate(90 138.615 80.9375)" fill="#A1A1A1"/>
<rect x="201.385" y="80.9375" width="5.30732" height="5.23077" transform="rotate(90 201.385 80.9375)" fill="#A1A1A1"/>
<rect width="5.30732" height="5.23077" transform="matrix(4.30809e-08 1 1 -4.43511e-08 70.6152 80.9375)" fill="#A1A1A1"/>
<rect x="13.0771" y="160.547" width="5.30732" height="5.23077" transform="rotate(90 13.0771 160.547)" fill="#A1A1A1"/>
<rect x="138.615" y="165.852" width="5.30732" height="5.23077" transform="rotate(90 138.615 165.852)" fill="#A1A1A1"/>
<rect x="201.385" y="165.852" width="5.30732" height="5.23077" transform="rotate(90 201.385 165.852)" fill="#A1A1A1"/>
<rect width="5.30732" height="5.23077" transform="matrix(4.30809e-08 1 1 -4.43511e-08 70.6152 165.852)" fill="#A1A1A1"/>
<rect x="13.0771" y="245.461" width="5.30732" height="5.23077" transform="rotate(90 13.0771 245.461)" fill="#A1A1A1"/>
<rect x="138.615" y="250.773" width="5.30732" height="5.23077" transform="rotate(90 138.615 250.773)" fill="#A1A1A1"/>
<rect x="201.385" y="250.773" width="5.30732" height="5.23077" transform="rotate(90 201.385 250.773)" fill="#A1A1A1"/>
<rect width="5.30732" height="5.23077" transform="matrix(4.30809e-08 1 1 -4.43511e-08 70.6152 250.773)" fill="#A1A1A1"/>
<rect x="13.0771" y="22.5547" width="5.30732" height="5.23077" transform="rotate(90 13.0771 22.5547)" fill="#A1A1A1"/>
<rect x="138.615" y="27.8672" width="5.30732" height="5.23077" transform="rotate(90 138.615 27.8672)" fill="#A1A1A1"/>
<rect x="201.385" y="27.8672" width="5.30732" height="5.23077" transform="rotate(90 201.385 27.8672)" fill="#A1A1A1"/>
<rect width="5.30732" height="5.23077" transform="matrix(4.30809e-08 1 1 -4.43511e-08 70.6152 27.8672)" fill="#A1A1A1"/>
<rect x="13.0771" y="107.477" width="5.30732" height="5.23077" transform="rotate(90 13.0771 107.477)" fill="#A1A1A1"/>
<rect x="138.615" y="112.781" width="5.30732" height="5.23077" transform="rotate(90 138.615 112.781)" fill="#A1A1A1"/>
<rect x="201.385" y="112.781" width="5.30732" height="5.23077" transform="rotate(90 201.385 112.781)" fill="#A1A1A1"/>
<rect width="5.30732" height="5.23077" transform="matrix(4.30809e-08 1 1 -4.43511e-08 70.6152 112.781)" fill="#A1A1A1"/>
<rect x="13.0771" y="192.391" width="5.30732" height="5.23077" transform="rotate(90 13.0771 192.391)" fill="#A1A1A1"/>
<rect x="7.8457" y="192.391" width="5.30732" height="5.23077" transform="rotate(90 7.8457 192.391)" fill="#A1A1A1"/>
<rect x="7.8457" y="197.695" width="5.30732" height="5.23077" transform="rotate(90 7.8457 197.695)" fill="#A1A1A1"/>
<rect x="7.8457" y="203.008" width="5.30732" height="5.23077" transform="rotate(90 7.8457 203.008)" fill="#A1A1A1"/>
<rect x="18.3076" y="203.008" width="5.30732" height="5.23077" transform="rotate(90 18.3076 203.008)" fill="#A1A1A1"/>
<rect x="18.3076" y="192.391" width="5.30732" height="5.23077" transform="rotate(90 18.3076 192.391)" fill="#A1A1A1"/>
<rect x="13.0771" y="65.0156" width="5.30732" height="5.23077" transform="rotate(90 13.0771 65.0156)" fill="#A1A1A1"/>
<rect x="133.385" y="65.0156" width="5.30732" height="5.23077" transform="rotate(90 133.385 65.0156)" fill="#A1A1A1"/>
<rect x="133.385" y="75.6328" width="5.30732" height="5.23077" transform="rotate(90 133.385 75.6328)" fill="#A1A1A1"/>
<rect x="143.846" y="75.6328" width="5.30732" height="5.23077" transform="rotate(90 143.846 75.6328)" fill="#A1A1A1"/>
<rect x="143.846" y="65.0156" width="5.30732" height="5.23077" transform="rotate(90 143.846 65.0156)" fill="#A1A1A1"/>
<rect x="13.0771" y="149.93" width="5.30732" height="5.23077" transform="rotate(90 13.0771 149.93)" fill="#A1A1A1"/>
<rect x="138.615" y="155.242" width="5.30732" height="5.23077" transform="rotate(90 138.615 155.242)" fill="#A1A1A1"/>
<rect x="201.385" y="155.242" width="5.30732" height="5.23077" transform="rotate(90 201.385 155.242)" fill="#A1A1A1"/>
<rect width="5.30732" height="5.23077" transform="matrix(4.30809e-08 1 1 -4.43511e-08 70.6152 155.242)" fill="#A1A1A1"/>
<rect x="13.0771" y="144.625" width="5.30732" height="5.23077" transform="rotate(90 13.0771 144.625)" fill="#A1A1A1"/>
<rect x="138.615" y="149.93" width="5.30732" height="5.23077" transform="rotate(90 138.615 149.93)" fill="#A1A1A1"/>
<rect x="201.385" y="149.93" width="5.30732" height="5.23077" transform="rotate(90 201.385 149.93)" fill="#A1A1A1"/>
<rect width="5.30732" height="5.23077" transform="matrix(4.30809e-08 1 1 -4.43511e-08 70.6152 149.93)" fill="#A1A1A1"/>
<rect x="13.0771" y="234.852" width="5.30732" height="5.23077" transform="rotate(90 13.0771 234.852)" fill="#A1A1A1"/>
<rect x="138.615" y="240.156" width="5.30732" height="5.23077" transform="rotate(90 138.615 240.156)" fill="#A1A1A1"/>
<rect x="201.385" y="240.156" width="5.30732" height="5.23077" transform="rotate(90 201.385 240.156)" fill="#A1A1A1"/>
<rect width="5.30732" height="5.23077" transform="matrix(4.30809e-08 1 1 -4.43511e-08 70.6152 240.156)" fill="#A1A1A1"/>
<rect x="13.0771" y="256.078" width="5.30732" height="5.23077" transform="rotate(90 13.0771 256.078)" fill="#A1A1A1"/>
<rect x="7.8457" y="256.078" width="5.30732" height="5.23077" transform="rotate(90 7.8457 256.078)" fill="#A1A1A1"/>
<rect x="7.8457" y="261.383" width="5.30732" height="5.23077" transform="rotate(90 7.8457 261.383)" fill="#A1A1A1"/>
<rect x="7.8457" y="266.695" width="5.30732" height="5.23077" transform="rotate(90 7.8457 266.695)" fill="#A1A1A1"/>
<rect x="13.0771" y="266.695" width="5.30732" height="5.23077" transform="rotate(90 13.0771 266.695)" fill="#A1A1A1"/>
<rect x="18.3076" y="266.695" width="5.30732" height="5.23077" transform="rotate(90 18.3076 266.695)" fill="#A1A1A1"/>
<rect x="18.3076" y="256.078" width="5.30732" height="5.23077" transform="rotate(90 18.3076 256.078)" fill="#A1A1A1"/>
<rect x="138.615" y="266.695" width="5.30732" height="5.23077" transform="rotate(90 138.615 266.695)" fill="#A1A1A1"/>
<rect x="133.385" y="266.695" width="5.30732" height="5.23077" transform="rotate(90 133.385 266.695)" fill="#A1A1A1"/>
<rect x="133.385" y="256.078" width="5.30732" height="5.23077" transform="rotate(90 133.385 256.078)" fill="#A1A1A1"/>
<rect x="143.846" y="256.078" width="5.30732" height="5.23077" transform="rotate(90 143.846 256.078)" fill="#A1A1A1"/>
<rect x="143.846" y="266.695" width="5.30732" height="5.23077" transform="rotate(90 143.846 266.695)" fill="#A1A1A1"/>
<rect x="13.0771" y="43.7891" width="5.30732" height="5.23077" transform="rotate(90 13.0771 43.7891)" fill="#A1A1A1"/>
<rect x="138.615" y="49.0938" width="5.30732" height="5.23077" transform="rotate(90 138.615 49.0938)" fill="#A1A1A1"/>
<rect x="201.385" y="49.0938" width="5.30732" height="5.23077" transform="rotate(90 201.385 49.0938)" fill="#A1A1A1"/>
<rect width="5.30732" height="5.23077" transform="matrix(4.30809e-08 1 1 -4.43511e-08 70.6152 49.0938)" fill="#A1A1A1"/>
<rect x="13.0771" y="128.703" width="5.30732" height="5.23077" transform="rotate(90 13.0771 128.703)" fill="#A1A1A1"/>
<rect x="13.0771" y="213.617" width="5.30732" height="5.23077" transform="rotate(90 13.0771 213.617)" fill="#A1A1A1"/>
<rect x="138.615" y="218.93" width="5.30732" height="5.23077" transform="rotate(90 138.615 218.93)" fill="#A1A1A1"/>
<rect x="201.385" y="218.93" width="5.30732" height="5.23077" transform="rotate(90 201.385 218.93)" fill="#A1A1A1"/>
<rect width="5.30732" height="5.23077" transform="matrix(4.30809e-08 1 1 -4.43511e-08 70.6152 218.93)" fill="#A1A1A1"/>
<rect x="13.0771" y="86.2422" width="5.30732" height="5.23077" transform="rotate(90 13.0771 86.2422)" fill="#A1A1A1"/>
<rect x="138.615" y="91.5547" width="5.30732" height="5.23077" transform="rotate(90 138.615 91.5547)" fill="#A1A1A1"/>
<rect x="201.385" y="91.5547" width="5.30732" height="5.23077" transform="rotate(90 201.385 91.5547)" fill="#A1A1A1"/>
<rect width="5.30732" height="5.23077" transform="matrix(4.30809e-08 1 1 -4.43511e-08 70.6152 91.5547)" fill="#A1A1A1"/>
<rect x="13.0771" y="171.164" width="5.30732" height="5.23077" transform="rotate(90 13.0771 171.164)" fill="#A1A1A1"/>
<rect x="138.615" y="176.469" width="5.30732" height="5.23077" transform="rotate(90 138.615 176.469)" fill="#A1A1A1"/>
<rect x="201.385" y="176.469" width="5.30732" height="5.23077" transform="rotate(90 201.385 176.469)" fill="#A1A1A1"/>
<rect width="5.30732" height="5.23077" transform="matrix(4.30809e-08 1 1 -4.43511e-08 70.6152 176.469)" fill="#A1A1A1"/>
<rect x="13.0771" y="176.469" width="5.30732" height="5.23077" transform="rotate(90 13.0771 176.469)" fill="#A1A1A1"/>
<rect x="138.615" y="181.773" width="5.30732" height="5.23077" transform="rotate(90 138.615 181.773)" fill="#A1A1A1"/>
<rect x="201.385" y="181.773" width="5.30732" height="5.23077" transform="rotate(90 201.385 181.773)" fill="#A1A1A1"/>
<rect width="5.30732" height="5.23077" transform="matrix(4.30809e-08 1 1 -4.43511e-08 70.6152 181.773)" fill="#A1A1A1"/>
<rect x="13.0771" y="261.383" width="5.23077" height="5.30732" fill="#A1A1A1"/>
<rect x="7.8457" y="187.086" width="5.23077" height="5.30732" fill="#A1A1A1"/>
<rect x="133.385" y="192.391" width="5.23077" height="5.30732" fill="#A1A1A1"/>
<rect x="128.153" y="192.391" width="5.23077" height="5.30732" fill="#A1A1A1"/>
<rect x="128.153" y="203.008" width="5.23077" height="5.30732" fill="#A1A1A1"/>
<rect x="138.615" y="203.008" width="5.23077" height="5.30732" fill="#A1A1A1"/>
<rect x="138.615" y="192.391" width="5.23077" height="5.30732" fill="#A1A1A1"/>
<rect x="196.153" y="192.391" width="5.23077" height="5.30732" fill="#A1A1A1"/>
<rect x="190.923" y="192.391" width="5.23077" height="5.30732" fill="#A1A1A1"/>
<rect x="190.923" y="203.008" width="5.23077" height="5.30732" fill="#A1A1A1"/>
<rect x="201.385" y="203.008" width="5.23077" height="5.30732" fill="#A1A1A1"/>
<rect x="201.385" y="192.391" width="5.23077" height="5.30732" fill="#A1A1A1"/>
<rect width="5.23077" height="5.30732" transform="matrix(-1 0 0 1 75.8457 192.391)" fill="#A1A1A1"/>
<rect width="5.23077" height="5.30732" transform="matrix(-1 0 0 1 70.6152 192.391)" fill="#A1A1A1"/>
<rect width="5.23077" height="5.30732" transform="matrix(-1 0 0 1 70.6152 203.008)" fill="#A1A1A1"/>
<rect width="5.23077" height="5.30732" transform="matrix(-1 0 0 1 81.0771 203.008)" fill="#A1A1A1"/>
<rect width="5.23077" height="5.30732" transform="matrix(-1 0 0 1 81.0771 192.391)" fill="#A1A1A1"/>
<rect x="7.8457" y="112.781" width="5.23077" height="5.30732" fill="#A1A1A1"/>
<rect x="133.385" y="118.086" width="5.23077" height="5.30732" fill="#A1A1A1"/>
<rect x="196.153" y="118.086" width="5.23077" height="5.30732" fill="#A1A1A1"/>
<rect width="5.23077" height="5.30732" transform="matrix(-1 0 0 1 75.8457 118.086)" fill="#A1A1A1"/>
<rect x="7.8457" y="38.4766" width="5.23077" height="5.30732" fill="#A1A1A1"/>
<rect x="133.385" y="43.7891" width="5.23077" height="5.30732" fill="#A1A1A1"/>
<rect x="196.153" y="43.7891" width="5.23077" height="5.30732" fill="#A1A1A1"/>
<rect width="5.23077" height="5.30732" transform="matrix(-1 0 0 1 75.8457 43.7891)" fill="#A1A1A1"/>
<rect x="7.8457" y="224.234" width="5.23077" height="5.30732" fill="#A1A1A1"/>
<rect x="133.385" y="229.539" width="5.23077" height="5.30732" fill="#A1A1A1"/>
<rect x="196.153" y="229.539" width="5.23077" height="5.30732" fill="#A1A1A1"/>
<rect width="5.23077" height="5.30732" transform="matrix(-1 0 0 1 75.8457 229.539)" fill="#A1A1A1"/>
<rect x="7.8457" y="149.93" width="5.23077" height="5.30732" fill="#A1A1A1"/>
<rect x="133.385" y="155.242" width="5.23077" height="5.30732" fill="#A1A1A1"/>
<rect x="196.153" y="155.242" width="5.23077" height="5.30732" fill="#A1A1A1"/>
<rect width="5.23077" height="5.30732" transform="matrix(-1 0 0 1 75.8457 155.242)" fill="#A1A1A1"/>
<rect x="7.8457" y="144.625" width="5.23077" height="5.30732" fill="#A1A1A1"/>
<rect x="133.385" y="149.93" width="5.23077" height="5.30732" fill="#A1A1A1"/>
<rect x="196.153" y="149.93" width="5.23077" height="5.30732" fill="#A1A1A1"/>
<rect width="5.23077" height="5.30732" transform="matrix(-1 0 0 1 75.8457 149.93)" fill="#A1A1A1"/>
<rect x="7.8457" y="75.6328" width="5.23077" height="5.30732" fill="#A1A1A1"/>
<rect x="133.385" y="80.9375" width="5.23077" height="5.30732" fill="#A1A1A1"/>
<rect x="196.153" y="80.9375" width="5.23077" height="5.30732" fill="#A1A1A1"/>
<rect width="5.23077" height="5.30732" transform="matrix(-1 0 0 1 75.8457 80.9375)" fill="#A1A1A1"/>
<rect x="34" y="6.63281" width="5.23077" height="5.30732" fill="#A1A1A1"/>
<rect x="23.5381" y="70.3203" width="5.23077" height="5.30732" fill="#A1A1A1"/>
<rect x="86.3076" y="70.3203" width="5.23077" height="5.30732" fill="#A1A1A1"/>
<rect x="149.077" y="70.3203" width="5.23077" height="5.30732" fill="#A1A1A1"/>
<rect x="211.846" y="70.3203" width="5.23077" height="5.30732" fill="#A1A1A1"/>
<rect x="23.5381" y="134.008" width="5.23077" height="5.30732" fill="#A1A1A1"/>
<rect x="86.3076" y="134.008" width="5.23077" height="5.30732" fill="#A1A1A1"/>
<rect x="149.077" y="134.008" width="5.23077" height="5.30732" fill="#A1A1A1"/>
<rect x="211.846" y="134.008" width="5.23077" height="5.30732" fill="#A1A1A1"/>
<rect x="211.846" y="197.695" width="5.23077" height="5.30732" fill="#A1A1A1"/>
<rect x="149.077" y="197.695" width="5.23077" height="5.30732" fill="#A1A1A1"/>
<rect x="28.7686" y="197.695" width="5.23077" height="5.30732" fill="#A1A1A1"/>
<rect x="91.5381" y="197.695" width="5.23077" height="5.30732" fill="#A1A1A1"/>
<rect x="23.5381" y="197.695" width="5.23077" height="5.30732" fill="#A1A1A1"/>
<rect x="86.3076" y="197.695" width="5.23077" height="5.30732" fill="#A1A1A1"/>
<rect x="34" y="261.383" width="5.23077" height="5.30732" fill="#A1A1A1"/>
<rect x="23.5381" y="261.383" width="5.23077" height="5.30732" fill="black"/>
<rect x="248.461" y="266.695" width="5.30732" height="5.23077" transform="rotate(-90 248.461 266.695)" fill="#A1A1A1"/>
<rect x="253.692" y="266.695" width="5.30732" height="5.23077" transform="rotate(-90 253.692 266.695)" fill="#A1A1A1"/>
<rect x="28.7686" y="261.383" width="5.30732" height="5.23077" transform="rotate(90 28.7686 261.383)" fill="#A1A1A1"/>
<rect x="149.077" y="261.383" width="5.30732" height="5.23077" transform="rotate(90 149.077 261.383)" fill="#A1A1A1"/>
<rect x="154.308" y="261.383" width="5.30732" height="5.23077" transform="rotate(90 154.308 261.383)" fill="#A1A1A1"/>
<rect x="23.5381" y="261.383" width="5.30732" height="5.23077" transform="rotate(90 23.5381 261.383)" fill="#A1A1A1"/>
<rect x="159.538" y="261.383" width="5.30732" height="5.23077" transform="rotate(90 159.538 261.383)" fill="#A1A1A1"/>
<rect x="227.538" y="261.383" width="5.30732" height="5.23077" transform="rotate(90 227.538 261.383)" fill="#A1A1A1"/>
<rect x="91.5381" y="261.383" width="5.30732" height="5.23077" transform="rotate(90 91.5381 261.383)" fill="#A1A1A1"/>
<rect x="34" y="261.383" width="5.30732" height="5.23077" transform="rotate(90 34 261.383)" fill="#A1A1A1"/>
<ellipse cx="10.4615" cy="73.3099" rx="10.4615" ry="10.6146" fill="black"/>
<ellipse cx="73.2311" cy="73.3099" rx="10.4615" ry="10.6146" fill="black"/>
<ellipse cx="136.001" cy="73.3099" rx="10.4615" ry="10.6146" fill="black"/>
<ellipse cx="198.769" cy="10.6146" rx="10.4615" ry="10.6146" fill="black"/>
<ellipse cx="136" cy="10.6146" rx="10.4615" ry="10.6146" fill="black"/>
<ellipse cx="73.2311" cy="10.6146" rx="10.4615" ry="10.6146" fill="black"/>
<ellipse cx="10.4615" cy="10.6146" rx="10.4615" ry="10.6146" fill="black"/>
<path d="M261.539 125.047C267.882 125.047 273 130.261 273 136.661C273 143.062 267.883 148.276 261.539 148.276C255.195 148.276 250.077 143.062 250.077 136.661C250.077 130.26 255.196 125.047 261.539 125.047Z" fill="white" stroke="#43FF46" stroke-width="2"/>
<ellipse cx="261.539" cy="198.693" rx="10.4615" ry="10.6146" fill="white"/>
<ellipse cx="198.769" cy="198.693" rx="10.4615" ry="10.6146" fill="white"/>
<ellipse cx="136.001" cy="198.693" rx="10.4615" ry="10.6146" fill="white"/>
<ellipse cx="73.2311" cy="198.693" rx="10.4615" ry="10.6146" fill="white"/>
<ellipse cx="10.4615" cy="198.693" rx="10.4615" ry="10.6146" fill="white"/>
<ellipse cx="10.4615" cy="261.388" rx="10.4615" ry="10.6146" fill="white"/>
<ellipse cx="73.2311" cy="261.388" rx="10.4615" ry="10.6146" fill="white"/>
<ellipse cx="136.001" cy="261.388" rx="10.4615" ry="10.6146" fill="white"/>
<ellipse cx="198.769" cy="261.388" rx="10.4615" ry="10.6146" fill="white"/>
<ellipse cx="261.539" cy="261.388" rx="10.4615" ry="10.6146" fill="white"/>
<path d="M20.816 135.25C20.0349 136.031 20.0349 137.297 20.816 138.078L33.5439 150.806C34.3249 151.587 35.5913 151.587 36.3723 150.806C37.1534 150.025 37.1534 148.759 36.3723 147.978L25.0586 136.664L36.3723 125.35C37.1534 124.569 37.1534 123.303 36.3723 122.522C35.5913 121.741 34.3249 121.741 33.5439 122.522L20.816 135.25ZM248.461 136.664V134.664L22.2302 134.664V136.664V138.664L248.461 138.664V136.664Z" fill="white"/>
<ellipse cx="10.4615" cy="136.662" rx="10.4615" ry="10.6146" fill="#00BF4E" fill-opacity="0.65"/>
<path d="M73.2314 124.383C79.5748 124.383 84.6922 129.597 84.6924 135.997C84.6924 142.398 79.575 147.612 73.2314 147.612C66.8878 147.612 61.7695 142.398 61.7695 135.997C61.7697 129.596 66.8879 124.383 73.2314 124.383Z" fill="black" stroke="#FF6363" stroke-width="2"/>
<path d="M198.77 125.047C205.113 125.047 210.23 130.261 210.23 136.661C210.23 143.062 205.113 148.276 198.77 148.276C192.426 148.276 187.308 143.062 187.308 136.661C187.308 130.26 192.426 125.047 198.77 125.047Z" fill="black" stroke="#FF6363" stroke-width="2"/>
</svg>
