<svg width="17" height="8" viewBox="0 0 17 8" fill="none" xmlns="http://www.w3.org/2000/svg">
<path d="M0.0317345 6.54332C-0.0412083 6.84919 0.0127411 7.17086 0.181774 7.43793C0.350807 7.705 0.621161 7.89572 0.933657 7.96833C1.02556 7.98893 1.1195 7.99955 1.21378 8C1.48695 7.99972 1.75204 7.9094 1.96623 7.74363C2.18043 7.57786 2.33121 7.34631 2.39422 7.08641C2.67178 5.95828 3.26975 4.92983 4.11918 4.11962C4.96861 3.30941 6.03492 2.75044 7.19516 2.50715C8.3554 2.26386 9.56234 2.34616 10.6768 2.74456C11.7913 3.14295 12.768 3.84123 13.4942 4.75888H12.1988C11.8767 4.75888 11.5678 4.88399 11.34 5.10669C11.1123 5.32939 10.9843 5.63144 10.9843 5.94639C10.9843 6.26134 11.1123 6.56339 11.34 6.78609C11.5678 7.00879 11.8767 7.13391 12.1988 7.13391H15.2575C15.4944 7.20517 15.7481 7.20185 15.9829 7.12441C16.0082 7.11114 16.0325 7.09633 16.0558 7.08007C16.3216 7.02426 16.5599 6.88153 16.7315 6.67542C16.9031 6.46932 16.9978 6.21217 16.9998 5.94639V2.44718C17.0052 2.13223 16.8824 1.8281 16.6584 1.60169C16.4345 1.37527 16.1277 1.24512 15.8056 1.23987C15.4835 1.23462 15.1725 1.3547 14.941 1.5737C14.7094 1.79269 14.5763 2.09265 14.571 2.4076C13.4666 1.35919 12.0981 0.615475 10.6044 0.252098C9.11076 -0.111279 7.54534 -0.0813548 6.06735 0.338827C4.58937 0.759009 3.25156 1.55446 2.18999 2.64427C1.12842 3.73408 0.38096 5.07937 0.0236397 6.54332H0.0317345Z" fill="white"/>
</svg>
