<svg width="16" height="14" viewBox="0 0 16 14" fill="none" xmlns="http://www.w3.org/2000/svg">
<path d="M1.29937 13.1508C1.38913 13.4522 1.59669 13.7038 1.87661 13.8506C2.15653 13.9973 2.48602 14.0273 2.79296 13.934C2.88285 13.9058 2.96951 13.8681 3.05139 13.8213C3.28782 13.6845 3.47224 13.4737 3.57485 13.2231C3.67746 12.9724 3.69227 12.6965 3.61688 12.4399C3.29319 11.3241 3.29682 10.1345 3.62735 9.0081C3.95787 7.88173 4.60183 6.86449 5.48499 6.07368C6.36815 5.28286 7.45453 4.75066 8.6189 4.53844C9.78327 4.32623 10.9782 4.44263 12.0659 4.87423L10.9441 5.52193C10.6652 5.68297 10.4602 5.94577 10.3743 6.25251C10.2884 6.55925 10.3287 6.88481 10.4861 7.15756C10.6436 7.43032 10.9054 7.62792 11.214 7.70692C11.5226 7.78591 11.8527 7.73981 12.1316 7.57876L14.7806 6.04938C15.0213 5.99268 15.2394 5.86292 15.4041 5.67844C15.4193 5.65435 15.4329 5.62936 15.445 5.60362C15.6472 5.42241 15.7823 5.17962 15.8279 4.91532C15.8734 4.65102 15.8268 4.381 15.6957 4.14981L13.9461 1.11941C13.7933 0.843969 13.5349 0.641981 13.2277 0.557878C12.9205 0.473776 12.5898 0.514446 12.3082 0.670944C12.0267 0.827443 11.8174 1.08695 11.7263 1.39237C11.6353 1.6978 11.67 2.02412 11.8228 2.29956C10.3423 1.94377 8.78519 1.98399 7.30996 2.41612C5.83474 2.84825 4.494 3.65688 3.42412 4.75976C2.35424 5.86264 1.59339 7.22042 1.21894 8.69501C0.844502 10.1696 0.869832 11.7084 1.29236 13.1549L1.29937 13.1508Z" fill="white"/>
</svg>
