<svg width="16" height="15" viewBox="0 0 16 15" fill="none" xmlns="http://www.w3.org/2000/svg">
<path d="M1.06255 13.2766C0.777139 13.1446 0.557846 12.9031 0.452664 12.6051C0.347483 12.307 0.364982 11.9767 0.501326 11.6862C0.542024 11.6013 0.591816 11.5209 0.649806 11.4466C0.819069 11.2322 1.05407 11.0799 1.31684 11.0142C1.57961 10.9485 1.8548 10.9734 2.09795 11.0847C3.15588 11.5648 4.33379 11.7316 5.49589 11.5657C6.65798 11.3999 7.75694 10.9082 8.66606 10.1474C9.57517 9.38654 10.2574 8.38755 10.6342 7.26556C11.0109 6.14357 11.0668 4.94428 10.7954 3.80595L9.99374 4.82351C9.79442 5.07651 9.50498 5.24173 9.18911 5.28281C8.87323 5.32389 8.55678 5.23748 8.30939 5.04257C8.06199 4.84767 7.90391 4.56024 7.86991 4.24352C7.83592 3.9268 7.9288 3.60674 8.12813 3.35373L10.021 0.951035C10.1116 0.720886 10.2713 0.523608 10.4774 0.387085C10.5034 0.375487 10.5301 0.365532 10.5573 0.357282C10.7656 0.183075 11.0252 0.0841782 11.2933 0.0769115C11.5614 0.0696452 11.822 0.154444 12.032 0.317313L14.7807 2.48278C15.0314 2.67347 15.1944 2.95814 15.2336 3.27417C15.2729 3.59021 15.1853 3.91172 14.9901 4.16797C14.7949 4.42422 14.5081 4.59423 14.1927 4.64059C13.8774 4.68695 13.5594 4.60588 13.3087 4.41519C13.4489 5.93145 13.1861 7.46673 12.5472 8.86489C11.9083 10.263 10.9161 11.4742 9.67137 12.3751C8.42667 13.2761 6.97393 13.8347 5.46092 13.9941C3.94792 14.1536 2.42861 13.9082 1.05754 13.2829L1.06255 13.2766Z" fill="white"/>
</svg>
