<svg width="252" height="120" viewBox="0 0 252 120" fill="none" xmlns="http://www.w3.org/2000/svg">
<path d="M22.4347 78.06L26.7547 85H24.1947L21.0547 79.96L18.1147 85H15.5747L19.8947 78.06L15.5547 71.1H18.1147L21.2747 76.18L24.2347 71.1H26.7747L22.4347 78.06ZM35.4131 81.9C36.6931 80.7933 37.6998 79.8867 38.4331 79.18C39.1798 78.46 39.7998 77.7133 40.2931 76.94C40.7865 76.1667 41.0331 75.3933 41.0331 74.62C41.0331 73.82 40.8398 73.1933 40.4531 72.74C40.0798 72.2867 39.4865 72.06 38.6731 72.06C37.8865 72.06 37.2731 72.3133 36.8331 72.82C36.4065 73.3133 36.1798 73.98 36.1531 74.82H33.9531C33.9931 73.3 34.4465 72.14 35.3131 71.34C36.1931 70.5267 37.3065 70.12 38.6531 70.12C40.1065 70.12 41.2398 70.52 42.0531 71.32C42.8798 72.12 43.2931 73.1867 43.2931 74.52C43.2931 75.48 43.0465 76.4067 42.5531 77.3C42.0731 78.18 41.4931 78.9733 40.8131 79.68C40.1465 80.3733 39.2931 81.18 38.2531 82.1L37.3531 82.9H43.6931V84.8H33.9731V83.14L35.4131 81.9ZM45.4161 81.96V80.24L52.1361 70.6H54.8961V79.98H56.7561V81.96H54.8961V85H52.6561V81.96H45.4161ZM52.7561 72.92L48.0361 79.98H52.7561V72.92Z" fill="white"/>
<path d="M213.909 78.06L218.229 85H215.669L212.529 79.96L209.589 85H207.049L211.369 78.06L207.029 71.1H209.589L212.749 76.18L215.709 71.1H218.249L213.909 78.06ZM226.888 81.9C228.168 80.7933 229.174 79.8867 229.908 79.18C230.654 78.46 231.274 77.7133 231.768 76.94C232.261 76.1667 232.508 75.3933 232.508 74.62C232.508 73.82 232.314 73.1933 231.928 72.74C231.554 72.2867 230.961 72.06 230.148 72.06C229.361 72.06 228.748 72.3133 228.308 72.82C227.881 73.3133 227.654 73.98 227.628 74.82H225.428C225.468 73.3 225.921 72.14 226.788 71.34C227.668 70.5267 228.781 70.12 230.128 70.12C231.581 70.12 232.714 70.52 233.528 71.32C234.354 72.12 234.768 73.1867 234.768 74.52C234.768 75.48 234.521 76.4067 234.028 77.3C233.548 78.18 232.968 78.9733 232.288 79.68C231.621 80.3733 230.768 81.18 229.728 82.1L228.828 82.9H235.168V84.8H225.448V83.14L226.888 81.9Z" fill="white"/>
<circle cx="36" cy="26" r="26" fill="white"/>
<circle cx="221" cy="26" r="26" fill="black"/>
<path d="M6.916 111.012H2.842L2.142 113H0.476L3.962 103.256H5.81L9.296 113H7.616L6.916 111.012ZM6.468 109.71L4.886 105.188L3.29 109.71H6.468ZM12.6737 106.588V110.858C12.6737 111.147 12.7391 111.357 12.8697 111.488C13.0097 111.609 13.2431 111.67 13.5697 111.67H14.5497V113H13.2897C12.5711 113 12.0204 112.832 11.6377 112.496C11.2551 112.16 11.0637 111.614 11.0637 110.858V106.588H10.1537V105.286H11.0637V103.368H12.6737V105.286H14.5497V106.588H12.6737ZM17.8827 106.588V110.858C17.8827 111.147 17.948 111.357 18.0787 111.488C18.2187 111.609 18.452 111.67 18.7787 111.67H19.7587V113H18.4987C17.78 113 17.2294 112.832 16.8467 112.496C16.464 112.16 16.2727 111.614 16.2727 110.858V106.588H15.3627V105.286H16.2727V103.368H17.8827V105.286H19.7587V106.588H17.8827ZM20.6977 109.108C20.6977 108.333 20.8564 107.647 21.1737 107.05C21.5004 106.453 21.939 105.991 22.4897 105.664C23.0497 105.328 23.6657 105.16 24.3377 105.16C24.9444 105.16 25.4717 105.281 25.9197 105.524C26.377 105.757 26.741 106.051 27.0117 106.406V105.286H28.6217V113H27.0117V111.852C26.741 112.216 26.3724 112.519 25.9057 112.762C25.439 113.005 24.907 113.126 24.3097 113.126C23.647 113.126 23.0404 112.958 22.4897 112.622C21.939 112.277 21.5004 111.801 21.1737 111.194C20.8564 110.578 20.6977 109.883 20.6977 109.108ZM27.0117 109.136C27.0117 108.604 26.8997 108.142 26.6757 107.75C26.461 107.358 26.1764 107.059 25.8217 106.854C25.467 106.649 25.0844 106.546 24.6737 106.546C24.263 106.546 23.8804 106.649 23.5257 106.854C23.171 107.05 22.8817 107.344 22.6577 107.736C22.443 108.119 22.3357 108.576 22.3357 109.108C22.3357 109.64 22.443 110.107 22.6577 110.508C22.8817 110.909 23.171 111.217 23.5257 111.432C23.8897 111.637 24.2724 111.74 24.6737 111.74C25.0844 111.74 25.467 111.637 25.8217 111.432C26.1764 111.227 26.461 110.928 26.6757 110.536C26.8997 110.135 27.0117 109.668 27.0117 109.136ZM30.186 109.136C30.186 108.343 30.3446 107.647 30.662 107.05C30.9886 106.443 31.4366 105.977 32.006 105.65C32.5753 105.323 33.2286 105.16 33.966 105.16C34.8993 105.16 35.6693 105.384 36.276 105.832C36.892 106.271 37.3073 106.901 37.522 107.722H35.8C35.66 107.339 35.436 107.041 35.128 106.826C34.82 106.611 34.4326 106.504 33.966 106.504C33.3126 106.504 32.79 106.737 32.398 107.204C32.0153 107.661 31.824 108.305 31.824 109.136C31.824 109.967 32.0153 110.615 32.398 111.082C32.79 111.549 33.3126 111.782 33.966 111.782C34.89 111.782 35.5013 111.376 35.8 110.564H37.522C37.298 111.348 36.878 111.973 36.262 112.44C35.646 112.897 34.8806 113.126 33.966 113.126C33.2286 113.126 32.5753 112.963 32.006 112.636C31.4366 112.3 30.9886 111.833 30.662 111.236C30.3446 110.629 30.186 109.929 30.186 109.136ZM42.1645 109.15L45.7205 113H43.5645L40.7085 109.682V113H39.1125V102.64H40.7085V108.66L43.5085 105.286H45.7205L42.1645 109.15ZM53.9345 108.954C53.9345 109.243 53.9158 109.505 53.8785 109.738H47.9845C48.0311 110.354 48.2598 110.849 48.6705 111.222C49.0811 111.595 49.5851 111.782 50.1825 111.782C51.0411 111.782 51.6478 111.423 52.0025 110.704H53.7245C53.4911 111.413 53.0665 111.997 52.4505 112.454C51.8438 112.902 51.0878 113.126 50.1825 113.126C49.4451 113.126 48.7825 112.963 48.1945 112.636C47.6158 112.3 47.1585 111.833 46.8225 111.236C46.4958 110.629 46.3325 109.929 46.3325 109.136C46.3325 108.343 46.4911 107.647 46.8085 107.05C47.1351 106.443 47.5878 105.977 48.1665 105.65C48.7545 105.323 49.4265 105.16 50.1825 105.16C50.9105 105.16 51.5591 105.319 52.1285 105.636C52.6978 105.953 53.1411 106.401 53.4585 106.98C53.7758 107.549 53.9345 108.207 53.9345 108.954ZM52.2685 108.45C52.2591 107.862 52.0491 107.391 51.6385 107.036C51.2278 106.681 50.7191 106.504 50.1125 106.504C49.5618 106.504 49.0905 106.681 48.6985 107.036C48.3065 107.381 48.0731 107.853 47.9985 108.45H52.2685ZM57.1011 106.406C57.3344 106.014 57.6424 105.711 58.0251 105.496C58.4171 105.272 58.8791 105.16 59.4111 105.16V106.812H59.0051C58.3797 106.812 57.9037 106.971 57.5771 107.288C57.2597 107.605 57.1011 108.156 57.1011 108.94V113H55.5051V105.286H57.1011V106.406ZM63.6781 113.126C63.0715 113.126 62.5255 113.019 62.0401 112.804C61.5641 112.58 61.1861 112.281 60.9061 111.908C60.6261 111.525 60.4768 111.101 60.4581 110.634H62.1101C62.1381 110.961 62.2921 111.236 62.5721 111.46C62.8615 111.675 63.2208 111.782 63.6501 111.782C64.0981 111.782 64.4435 111.698 64.6861 111.53C64.9381 111.353 65.0641 111.129 65.0641 110.858C65.0641 110.569 64.9241 110.354 64.6441 110.214C64.3735 110.074 63.9395 109.92 63.3421 109.752C62.7635 109.593 62.2921 109.439 61.9281 109.29C61.5641 109.141 61.2468 108.912 60.9761 108.604C60.7148 108.296 60.5841 107.89 60.5841 107.386C60.5841 106.975 60.7055 106.602 60.9481 106.266C61.1908 105.921 61.5361 105.65 61.9841 105.454C62.4415 105.258 62.9641 105.16 63.5521 105.16C64.4295 105.16 65.1341 105.384 65.6661 105.832C66.2075 106.271 66.4968 106.873 66.5341 107.638H64.9381C64.9101 107.293 64.7701 107.017 64.5181 106.812C64.2661 106.607 63.9255 106.504 63.4961 106.504C63.0761 106.504 62.7541 106.583 62.5301 106.742C62.3061 106.901 62.1941 107.111 62.1941 107.372C62.1941 107.577 62.2688 107.75 62.4181 107.89C62.5675 108.03 62.7495 108.142 62.9641 108.226C63.1788 108.301 63.4961 108.399 63.9161 108.52C64.4761 108.669 64.9335 108.823 65.2881 108.982C65.6521 109.131 65.9648 109.355 66.2261 109.654C66.4875 109.953 66.6228 110.349 66.6321 110.844C66.6321 111.283 66.5108 111.675 66.2681 112.02C66.0255 112.365 65.6801 112.636 65.2321 112.832C64.7935 113.028 64.2755 113.126 63.6781 113.126Z" fill="white"/>
<path d="M193.85 113.126C193.243 113.126 192.697 113.019 192.212 112.804C191.736 112.58 191.358 112.281 191.078 111.908C190.798 111.525 190.649 111.101 190.63 110.634H192.282C192.31 110.961 192.464 111.236 192.744 111.46C193.033 111.675 193.393 111.782 193.822 111.782C194.27 111.782 194.615 111.698 194.858 111.53C195.11 111.353 195.236 111.129 195.236 110.858C195.236 110.569 195.096 110.354 194.816 110.214C194.545 110.074 194.111 109.92 193.514 109.752C192.935 109.593 192.464 109.439 192.1 109.29C191.736 109.141 191.419 108.912 191.148 108.604C190.887 108.296 190.756 107.89 190.756 107.386C190.756 106.975 190.877 106.602 191.12 106.266C191.363 105.921 191.708 105.65 192.156 105.454C192.613 105.258 193.136 105.16 193.724 105.16C194.601 105.16 195.306 105.384 195.838 105.832C196.379 106.271 196.669 106.873 196.706 107.638H195.11C195.082 107.293 194.942 107.017 194.69 106.812C194.438 106.607 194.097 106.504 193.668 106.504C193.248 106.504 192.926 106.583 192.702 106.742C192.478 106.901 192.366 107.111 192.366 107.372C192.366 107.577 192.441 107.75 192.59 107.89C192.739 108.03 192.921 108.142 193.136 108.226C193.351 108.301 193.668 108.399 194.088 108.52C194.648 108.669 195.105 108.823 195.46 108.982C195.824 109.131 196.137 109.355 196.398 109.654C196.659 109.953 196.795 110.349 196.804 110.844C196.804 111.283 196.683 111.675 196.44 112.02C196.197 112.365 195.852 112.636 195.404 112.832C194.965 113.028 194.447 113.126 193.85 113.126ZM201.875 113.126C201.147 113.126 200.489 112.963 199.901 112.636C199.313 112.3 198.851 111.833 198.515 111.236C198.179 110.629 198.011 109.929 198.011 109.136C198.011 108.352 198.183 107.657 198.529 107.05C198.874 106.443 199.345 105.977 199.943 105.65C200.54 105.323 201.207 105.16 201.945 105.16C202.682 105.16 203.349 105.323 203.947 105.65C204.544 105.977 205.015 106.443 205.361 107.05C205.706 107.657 205.879 108.352 205.879 109.136C205.879 109.92 205.701 110.615 205.347 111.222C204.992 111.829 204.507 112.3 203.891 112.636C203.284 112.963 202.612 113.126 201.875 113.126ZM201.875 111.74C202.285 111.74 202.668 111.642 203.023 111.446C203.387 111.25 203.681 110.956 203.905 110.564C204.129 110.172 204.241 109.696 204.241 109.136C204.241 108.576 204.133 108.105 203.919 107.722C203.704 107.33 203.419 107.036 203.065 106.84C202.71 106.644 202.327 106.546 201.917 106.546C201.506 106.546 201.123 106.644 200.769 106.84C200.423 107.036 200.148 107.33 199.943 107.722C199.737 108.105 199.635 108.576 199.635 109.136C199.635 109.967 199.845 110.611 200.265 111.068C200.694 111.516 201.231 111.74 201.875 111.74ZM209.052 102.64V113H207.456V102.64H209.052ZM210.616 109.108C210.616 108.333 210.774 107.647 211.092 107.05C211.418 106.453 211.857 105.991 212.408 105.664C212.968 105.328 213.588 105.16 214.27 105.16C214.774 105.16 215.268 105.272 215.754 105.496C216.248 105.711 216.64 106 216.93 106.364V102.64H218.54V113H216.93V111.838C216.668 112.211 216.304 112.519 215.838 112.762C215.38 113.005 214.853 113.126 214.256 113.126C213.584 113.126 212.968 112.958 212.408 112.622C211.857 112.277 211.418 111.801 211.092 111.194C210.774 110.578 210.616 109.883 210.616 109.108ZM216.93 109.136C216.93 108.604 216.818 108.142 216.594 107.75C216.379 107.358 216.094 107.059 215.74 106.854C215.385 106.649 215.002 106.546 214.592 106.546C214.181 106.546 213.798 106.649 213.444 106.854C213.089 107.05 212.8 107.344 212.576 107.736C212.361 108.119 212.254 108.576 212.254 109.108C212.254 109.64 212.361 110.107 212.576 110.508C212.8 110.909 213.089 111.217 213.444 111.432C213.808 111.637 214.19 111.74 214.592 111.74C215.002 111.74 215.385 111.637 215.74 111.432C216.094 111.227 216.379 110.928 216.594 110.536C216.818 110.135 216.93 109.668 216.93 109.136ZM221.448 104.264C221.159 104.264 220.916 104.166 220.72 103.97C220.524 103.774 220.426 103.531 220.426 103.242C220.426 102.953 220.524 102.71 220.72 102.514C220.916 102.318 221.159 102.22 221.448 102.22C221.728 102.22 221.966 102.318 222.162 102.514C222.358 102.71 222.456 102.953 222.456 103.242C222.456 103.531 222.358 103.774 222.162 103.97C221.966 104.166 221.728 104.264 221.448 104.264ZM222.232 105.286V113H220.636V105.286H222.232ZM231.397 108.954C231.397 109.243 231.379 109.505 231.341 109.738H225.447C225.494 110.354 225.723 110.849 226.133 111.222C226.544 111.595 227.048 111.782 227.645 111.782C228.504 111.782 229.111 111.423 229.465 110.704H231.187C230.954 111.413 230.529 111.997 229.913 112.454C229.307 112.902 228.551 113.126 227.645 113.126C226.908 113.126 226.245 112.963 225.657 112.636C225.079 112.3 224.621 111.833 224.285 111.236C223.959 110.629 223.795 109.929 223.795 109.136C223.795 108.343 223.954 107.647 224.271 107.05C224.598 106.443 225.051 105.977 225.629 105.65C226.217 105.323 226.889 105.16 227.645 105.16C228.373 105.16 229.022 105.319 229.591 105.636C230.161 105.953 230.604 106.401 230.921 106.98C231.239 107.549 231.397 108.207 231.397 108.954ZM229.731 108.45C229.722 107.862 229.512 107.391 229.101 107.036C228.691 106.681 228.182 106.504 227.575 106.504C227.025 106.504 226.553 106.681 226.161 107.036C225.769 107.381 225.536 107.853 225.461 108.45H229.731ZM234.564 106.406C234.797 106.014 235.105 105.711 235.488 105.496C235.88 105.272 236.342 105.16 236.874 105.16V106.812H236.468C235.843 106.812 235.367 106.971 235.04 107.288C234.723 107.605 234.564 108.156 234.564 108.94V113H232.968V105.286H234.564V106.406ZM241.141 113.126C240.534 113.126 239.988 113.019 239.503 112.804C239.027 112.58 238.649 112.281 238.369 111.908C238.089 111.525 237.94 111.101 237.921 110.634H239.573C239.601 110.961 239.755 111.236 240.035 111.46C240.324 111.675 240.684 111.782 241.113 111.782C241.561 111.782 241.906 111.698 242.149 111.53C242.401 111.353 242.527 111.129 242.527 110.858C242.527 110.569 242.387 110.354 242.107 110.214C241.836 110.074 241.402 109.92 240.805 109.752C240.226 109.593 239.755 109.439 239.391 109.29C239.027 109.141 238.71 108.912 238.439 108.604C238.178 108.296 238.047 107.89 238.047 107.386C238.047 106.975 238.168 106.602 238.411 106.266C238.654 105.921 238.999 105.65 239.447 105.454C239.904 105.258 240.427 105.16 241.015 105.16C241.892 105.16 242.597 105.384 243.129 105.832C243.67 106.271 243.96 106.873 243.997 107.638H242.401C242.373 107.293 242.233 107.017 241.981 106.812C241.729 106.607 241.388 106.504 240.959 106.504C240.539 106.504 240.217 106.583 239.993 106.742C239.769 106.901 239.657 107.111 239.657 107.372C239.657 107.577 239.732 107.75 239.881 107.89C240.03 108.03 240.212 108.142 240.427 108.226C240.642 108.301 240.959 108.399 241.379 108.52C241.939 108.669 242.396 108.823 242.751 108.982C243.115 109.131 243.428 109.355 243.689 109.654C243.95 109.953 244.086 110.349 244.095 110.844C244.095 111.283 243.974 111.675 243.731 112.02C243.488 112.365 243.143 112.636 242.695 112.832C242.256 113.028 241.738 113.126 241.141 113.126Z" fill="white"/>
</svg>
