<svg width="270" height="170" viewBox="0 0 270 170" fill="none" xmlns="http://www.w3.org/2000/svg">
<rect width="5.48387" height="5.5102" transform="matrix(-4.39213e-08 -1 -1 4.35025e-08 242.453 60.3203)" fill="#A1A1A1"/>
<rect width="5.48387" height="5.5102" transform="matrix(-4.39213e-08 -1 -1 4.35025e-08 242.453 5.48438)" fill="#A1A1A1"/>
<rect width="5.48387" height="5.5102" transform="matrix(-4.39213e-08 -1 -1 4.35025e-08 270 60.3203)" fill="#A1A1A1"/>
<rect width="5.48387" height="5.5102" transform="matrix(-4.39213e-08 -1 -1 4.35025e-08 270 5.48438)" fill="#A1A1A1"/>
<rect width="5.48387" height="5.5102" transform="matrix(-4.39213e-08 -1 -1 4.35025e-08 270 115.16)" fill="#A1A1A1"/>
<rect width="5.48387" height="5.5102" transform="matrix(-4.39213e-08 -1 -1 4.35025e-08 270 170)" fill="#A1A1A1"/>
<rect width="5.48387" height="5.5102" transform="matrix(-4.39213e-08 -1 -1 4.35025e-08 198.375 60.3203)" fill="#A1A1A1"/>
<rect width="5.48387" height="5.5102" transform="matrix(-4.39213e-08 -1 -1 4.35025e-08 198.375 5.48438)" fill="#A1A1A1"/>
<rect width="5.48387" height="5.5102" transform="matrix(-4.39213e-08 -1 -1 4.35025e-08 154.289 60.3203)" fill="#A1A1A1"/>
<rect width="5.48387" height="5.5102" transform="matrix(-4.39213e-08 -1 -1 4.35025e-08 110.211 60.3203)" fill="#A1A1A1"/>
<rect width="5.48387" height="5.5102" transform="matrix(-4.39213e-08 -1 -1 4.35025e-08 66.125 60.3203)" fill="#A1A1A1"/>
<rect width="5.48387" height="5.5102" transform="matrix(-4.39213e-08 -1 -1 4.35025e-08 242.453 115.16)" fill="#A1A1A1"/>
<rect width="5.48387" height="5.5102" transform="matrix(-4.39213e-08 -1 -1 4.35025e-08 242.453 170)" fill="#A1A1A1"/>
<rect width="5.48387" height="5.5102" transform="matrix(-4.39213e-08 -1 -1 4.35025e-08 198.375 115.16)" fill="#A1A1A1"/>
<rect width="5.48387" height="5.5102" transform="matrix(-4.39213e-08 -1 -1 4.35025e-08 198.375 170)" fill="#A1A1A1"/>
<rect width="5.48387" height="5.5102" transform="matrix(-4.39213e-08 -1 -1 4.35025e-08 154.289 115.16)" fill="#A1A1A1"/>
<rect width="5.48387" height="5.5102" transform="matrix(-4.39213e-08 -1 -1 4.35025e-08 110.211 115.16)" fill="#A1A1A1"/>
<rect width="5.48387" height="5.5102" transform="matrix(-4.39213e-08 -1 -1 4.35025e-08 66.125 115.16)" fill="#A1A1A1"/>
<rect width="5.48387" height="5.5102" transform="matrix(-4.39213e-08 -1 -1 4.35025e-08 236.945 60.3203)" fill="#A1A1A1"/>
<rect width="5.48387" height="5.5102" transform="matrix(-4.39213e-08 -1 -1 4.35025e-08 236.945 5.48438)" fill="#A1A1A1"/>
<rect width="5.48387" height="5.5102" transform="matrix(-4.39213e-08 -1 -1 4.35025e-08 264.492 60.3203)" fill="#A1A1A1"/>
<rect width="5.48387" height="5.5102" transform="matrix(-4.39213e-08 -1 -1 4.35025e-08 264.492 5.48438)" fill="#A1A1A1"/>
<rect width="5.48387" height="5.5102" transform="matrix(-4.39213e-08 -1 -1 4.35025e-08 264.492 115.16)" fill="#A1A1A1"/>
<rect width="5.48387" height="5.5102" transform="matrix(-4.39213e-08 -1 -1 4.35025e-08 264.492 170)" fill="#A1A1A1"/>
<rect width="5.48387" height="5.5102" transform="matrix(-4.39213e-08 -1 -1 4.35025e-08 192.859 60.3203)" fill="#A1A1A1"/>
<rect width="5.48387" height="5.5102" transform="matrix(-4.39213e-08 -1 -1 4.35025e-08 192.859 5.48438)" fill="#A1A1A1"/>
<rect width="5.48387" height="5.5102" transform="matrix(-4.39213e-08 -1 -1 4.35025e-08 148.781 60.3203)" fill="#A1A1A1"/>
<rect width="5.48387" height="5.5102" transform="matrix(-4.39213e-08 -1 -1 4.35025e-08 104.695 60.3203)" fill="#A1A1A1"/>
<rect width="5.48387" height="5.5102" transform="matrix(-4.39213e-08 -1 -1 4.35025e-08 60.6172 60.3203)" fill="#A1A1A1"/>
<rect width="5.48387" height="5.5102" transform="matrix(-4.39213e-08 -1 -1 4.35025e-08 236.945 115.16)" fill="#A1A1A1"/>
<rect width="5.48387" height="5.5102" transform="matrix(-4.39213e-08 -1 -1 4.35025e-08 236.945 170)" fill="#A1A1A1"/>
<rect width="5.48387" height="5.5102" transform="matrix(-4.39213e-08 -1 -1 4.35025e-08 192.859 115.16)" fill="#A1A1A1"/>
<rect width="5.48387" height="5.5102" transform="matrix(-4.39213e-08 -1 -1 4.35025e-08 192.859 170)" fill="#A1A1A1"/>
<rect width="5.48387" height="5.5102" transform="matrix(-4.39213e-08 -1 -1 4.35025e-08 148.781 115.16)" fill="#A1A1A1"/>
<rect width="5.48387" height="5.5102" transform="matrix(-4.39213e-08 -1 -1 4.35025e-08 104.695 115.16)" fill="#A1A1A1"/>
<rect width="5.48387" height="5.5102" transform="matrix(-4.39213e-08 -1 -1 4.35025e-08 60.6172 115.16)" fill="#A1A1A1"/>
<rect width="5.48387" height="5.5102" transform="matrix(-4.39213e-08 -1 -1 4.35025e-08 231.43 60.3203)" fill="#A1A1A1"/>
<rect width="5.48387" height="5.5102" transform="matrix(-4.39213e-08 -1 -1 4.35025e-08 231.43 5.48438)" fill="#A1A1A1"/>
<rect width="5.48387" height="5.5102" transform="matrix(-4.39213e-08 -1 -1 4.35025e-08 258.984 60.3203)" fill="#A1A1A1"/>
<rect width="5.48387" height="5.5102" transform="matrix(-4.39213e-08 -1 -1 4.35025e-08 258.984 5.48438)" fill="#A1A1A1"/>
<rect width="5.48387" height="5.5102" transform="matrix(-4.39213e-08 -1 -1 4.35025e-08 258.984 115.16)" fill="#A1A1A1"/>
<rect width="5.48387" height="5.5102" transform="matrix(-4.39213e-08 -1 -1 4.35025e-08 258.984 170)" fill="#A1A1A1"/>
<rect width="5.48387" height="5.5102" transform="matrix(-4.39213e-08 -1 -1 4.35025e-08 187.352 60.3203)" fill="#A1A1A1"/>
<rect width="5.48387" height="5.5102" transform="matrix(-4.39213e-08 -1 -1 4.35025e-08 187.352 5.48438)" fill="#A1A1A1"/>
<rect width="5.48387" height="5.5102" transform="matrix(-4.39213e-08 -1 -1 4.35025e-08 143.266 60.3203)" fill="#A1A1A1"/>
<rect width="5.48387" height="5.5102" transform="matrix(-4.39213e-08 -1 -1 4.35025e-08 99.1875 60.3203)" fill="#A1A1A1"/>
<rect width="5.48387" height="5.5102" transform="matrix(-4.39213e-08 -1 -1 4.35025e-08 55.1094 60.3203)" fill="#A1A1A1"/>
<rect width="5.48387" height="5.5102" transform="matrix(-4.39213e-08 -1 -1 4.35025e-08 231.43 115.16)" fill="#A1A1A1"/>
<rect width="5.48387" height="5.5102" transform="matrix(-4.39213e-08 -1 -1 4.35025e-08 231.43 170)" fill="#A1A1A1"/>
<rect width="5.48387" height="5.5102" transform="matrix(-4.39213e-08 -1 -1 4.35025e-08 187.352 115.16)" fill="#A1A1A1"/>
<rect width="5.48387" height="5.5102" transform="matrix(-4.39213e-08 -1 -1 4.35025e-08 187.352 170)" fill="#A1A1A1"/>
<rect width="5.48387" height="5.5102" transform="matrix(-4.39213e-08 -1 -1 4.35025e-08 143.266 115.16)" fill="#A1A1A1"/>
<rect width="5.48387" height="5.5102" transform="matrix(-4.39213e-08 -1 -1 4.35025e-08 99.1875 115.16)" fill="#A1A1A1"/>
<rect width="5.48387" height="5.5102" transform="matrix(-4.39213e-08 -1 -1 4.35025e-08 55.1094 115.16)" fill="#A1A1A1"/>
<rect width="5.48387" height="5.5102" transform="matrix(-4.39213e-08 -1 -1 4.35025e-08 225.922 60.3203)" fill="#A1A1A1"/>
<rect width="5.48387" height="5.5102" transform="matrix(-4.39213e-08 -1 -1 4.35025e-08 225.922 5.48438)" fill="#A1A1A1"/>
<rect width="5.48387" height="5.5102" transform="matrix(-4.39213e-08 -1 -1 4.35025e-08 253.477 60.3203)" fill="#A1A1A1"/>
<rect width="5.48387" height="5.5102" transform="matrix(-4.39213e-08 -1 -1 4.35025e-08 253.477 5.48438)" fill="#A1A1A1"/>
<rect width="5.48387" height="5.5102" transform="matrix(-4.39213e-08 -1 -1 4.35025e-08 247.961 71.2891)" fill="#A1A1A1"/>
<rect width="5.48387" height="5.5102" transform="matrix(-4.39213e-08 -1 -1 4.35025e-08 247.961 65.8047)" fill="#A1A1A1"/>
<rect width="5.48387" height="5.5102" transform="matrix(-4.39213e-08 -1 -1 4.35025e-08 247.961 120.645)" fill="#A1A1A1"/>
<rect width="5.48387" height="5.5102" transform="matrix(-4.39213e-08 -1 -1 4.35025e-08 247.961 10.9688)" fill="#A1A1A1"/>
<rect width="5.48387" height="5.5102" transform="matrix(-4.39213e-08 -1 -1 4.35025e-08 247.961 87.7422)" fill="#A1A1A1"/>
<rect width="5.48387" height="5.5102" transform="matrix(-4.39213e-08 -1 -1 4.35025e-08 247.961 137.098)" fill="#A1A1A1"/>
<rect width="5.48387" height="5.5102" transform="matrix(-4.39213e-08 -1 -1 4.35025e-08 247.961 27.418)" fill="#A1A1A1"/>
<rect width="5.48387" height="5.5102" transform="matrix(-4.39213e-08 -1 -1 4.35025e-08 225.922 71.2891)" fill="#A1A1A1"/>
<rect width="5.48387" height="5.5102" transform="matrix(-4.39213e-08 -1 -1 4.35025e-08 225.922 65.8047)" fill="#A1A1A1"/>
<rect width="5.48387" height="5.5102" transform="matrix(-4.39213e-08 -1 -1 4.35025e-08 225.922 120.645)" fill="#A1A1A1"/>
<rect width="5.48387" height="5.5102" transform="matrix(-4.39213e-08 -1 -1 4.35025e-08 225.922 10.9688)" fill="#A1A1A1"/>
<rect width="5.48387" height="5.5102" transform="matrix(-4.39213e-08 -1 -1 4.35025e-08 225.922 87.7422)" fill="#A1A1A1"/>
<rect width="5.48387" height="5.5102" transform="matrix(-4.39213e-08 -1 -1 4.35025e-08 225.922 137.098)" fill="#A1A1A1"/>
<rect width="5.48387" height="5.5102" transform="matrix(-4.39213e-08 -1 -1 4.35025e-08 225.922 27.418)" fill="#A1A1A1"/>
<rect width="5.48387" height="5.5102" transform="matrix(-4.39213e-08 -1 -1 4.35025e-08 203.883 71.2891)" fill="#A1A1A1"/>
<rect width="5.48387" height="5.5102" transform="matrix(-4.39213e-08 -1 -1 4.35025e-08 203.883 65.8047)" fill="#A1A1A1"/>
<rect width="5.48387" height="5.5102" transform="matrix(-4.39213e-08 -1 -1 4.35025e-08 203.883 120.645)" fill="#A1A1A1"/>
<rect width="5.48387" height="5.5102" transform="matrix(-4.39213e-08 -1 -1 4.35025e-08 203.883 10.9688)" fill="#A1A1A1"/>
<rect width="5.48387" height="5.5102" transform="matrix(-4.39213e-08 -1 -1 4.35025e-08 203.883 87.7422)" fill="#A1A1A1"/>
<rect width="5.48387" height="5.5102" transform="matrix(-4.39213e-08 -1 -1 4.35025e-08 203.883 137.098)" fill="#A1A1A1"/>
<rect width="5.48387" height="5.5102" transform="matrix(-4.39213e-08 -1 -1 4.35025e-08 203.883 27.418)" fill="#A1A1A1"/>
<rect width="5.48387" height="5.5102" transform="matrix(-4.39213e-08 -1 -1 4.35025e-08 181.844 71.2891)" fill="#A1A1A1"/>
<rect width="5.48387" height="5.5102" transform="matrix(-4.39213e-08 -1 -1 4.35025e-08 181.844 65.8047)" fill="#A1A1A1"/>
<rect width="5.48387" height="5.5102" transform="matrix(-4.39213e-08 -1 -1 4.35025e-08 181.844 120.645)" fill="#A1A1A1"/>
<rect width="5.48387" height="5.5102" transform="matrix(-4.39213e-08 -1 -1 4.35025e-08 181.844 10.9688)" fill="#A1A1A1"/>
<rect width="5.48387" height="5.5102" transform="matrix(-4.39213e-08 -1 -1 4.35025e-08 181.844 87.7422)" fill="#A1A1A1"/>
<rect width="5.48387" height="5.5102" transform="matrix(-4.39213e-08 -1 -1 4.35025e-08 187.352 87.7422)" fill="#A1A1A1"/>
<rect width="5.48387" height="5.5102" transform="matrix(-4.39213e-08 -1 -1 4.35025e-08 192.859 82.2578)" fill="#A1A1A1"/>
<rect width="5.48387" height="5.5102" transform="matrix(-4.39213e-08 -1 -1 4.35025e-08 198.375 87.7422)" fill="#A1A1A1"/>
<rect width="5.48387" height="5.5102" transform="matrix(-4.39213e-08 -1 -1 4.35025e-08 192.859 93.2266)" fill="#A1A1A1"/>
<rect width="5.48387" height="5.5102" transform="matrix(-4.39213e-08 -1 -1 4.35025e-08 181.844 137.098)" fill="#A1A1A1"/>
<rect width="5.48387" height="5.5102" transform="matrix(-4.39213e-08 -1 -1 4.35025e-08 181.844 27.418)" fill="#A1A1A1"/>
<rect width="5.48387" height="5.5102" transform="matrix(-4.39213e-08 -1 -1 4.35025e-08 159.797 71.2891)" fill="#A1A1A1"/>
<rect width="5.48387" height="5.5102" transform="matrix(-4.39213e-08 -1 -1 4.35025e-08 159.797 65.8047)" fill="#A1A1A1"/>
<rect width="5.48387" height="5.5102" transform="matrix(-4.39213e-08 -1 -1 4.35025e-08 159.797 87.7422)" fill="#A1A1A1"/>
<rect width="5.48387" height="5.5102" transform="matrix(-4.39213e-08 -1 -1 4.35025e-08 137.758 71.2891)" fill="#A1A1A1"/>
<rect width="5.48387" height="5.5102" transform="matrix(-4.39213e-08 -1 -1 4.35025e-08 137.758 65.8047)" fill="#A1A1A1"/>
<rect width="5.48387" height="5.5102" transform="matrix(-4.39213e-08 -1 -1 4.35025e-08 137.758 87.7422)" fill="#A1A1A1"/>
<rect width="5.48387" height="5.5102" transform="matrix(-4.39213e-08 -1 -1 4.35025e-08 115.719 71.2891)" fill="#A1A1A1"/>
<rect width="5.48387" height="5.5102" transform="matrix(-4.39213e-08 -1 -1 4.35025e-08 115.719 65.8047)" fill="#A1A1A1"/>
<rect width="5.48387" height="5.5102" transform="matrix(-4.39213e-08 -1 -1 4.35025e-08 115.719 87.7422)" fill="#A1A1A1"/>
<rect width="5.48387" height="5.5102" transform="matrix(-4.39213e-08 -1 -1 4.35025e-08 93.6797 71.2891)" fill="#A1A1A1"/>
<rect width="5.48387" height="5.5102" transform="matrix(-4.39213e-08 -1 -1 4.35025e-08 93.6797 65.8047)" fill="#A1A1A1"/>
<rect width="5.48387" height="5.5102" transform="matrix(-4.39213e-08 -1 -1 4.35025e-08 93.6797 87.7422)" fill="#A1A1A1"/>
<rect width="5.48387" height="5.5102" transform="matrix(-4.39213e-08 -1 -1 4.35025e-08 71.6406 71.2891)" fill="#A1A1A1"/>
<rect width="5.48387" height="5.5102" transform="matrix(-4.39213e-08 -1 -1 4.35025e-08 71.6406 65.8047)" fill="#A1A1A1"/>
<rect width="5.48387" height="5.5102" transform="matrix(-4.39213e-08 -1 -1 4.35025e-08 71.6406 87.7422)" fill="#A1A1A1"/>
<rect width="5.48387" height="5.5102" transform="matrix(-4.39213e-08 -1 -1 4.35025e-08 49.5938 71.2891)" fill="#A1A1A1"/>
<rect width="5.48387" height="5.5102" transform="matrix(-4.39213e-08 -1 -1 4.35025e-08 49.5938 65.8047)" fill="#A1A1A1"/>
<rect width="5.48387" height="5.5102" transform="matrix(-4.39213e-08 -1 -1 4.35025e-08 49.5938 87.7422)" fill="#A1A1A1"/>
<rect width="5.48387" height="5.5102" transform="matrix(-4.39213e-08 -1 -1 4.35025e-08 27.5547 71.2891)" fill="#A1A1A1"/>
<rect width="5.48387" height="5.5102" transform="matrix(-4.39213e-08 -1 -1 4.35025e-08 27.5547 65.8047)" fill="#A1A1A1"/>
<rect width="5.48387" height="5.5102" transform="matrix(-4.39213e-08 -1 -1 4.35025e-08 27.5547 87.7422)" fill="#A1A1A1"/>
<rect width="5.48387" height="5.5102" transform="matrix(-4.39213e-08 -1 -1 4.35025e-08 5.51562 71.2891)" fill="#A1A1A1"/>
<rect width="5.48387" height="5.5102" transform="matrix(-4.39213e-08 -1 -1 4.35025e-08 5.51562 65.8047)" fill="#A1A1A1"/>
<rect width="5.48387" height="5.5102" transform="matrix(-4.39213e-08 -1 -1 4.35025e-08 5.51562 87.7422)" fill="#A1A1A1"/>
<rect width="5.48387" height="5.5102" transform="matrix(-4.39213e-08 -1 -1 4.35025e-08 11.0234 87.7422)" fill="#A1A1A1"/>
<rect width="5.48387" height="5.5102" transform="matrix(-4.39213e-08 -1 -1 4.35025e-08 99.1875 87.7422)" fill="#A1A1A1"/>
<rect width="5.48387" height="5.5102" transform="matrix(-4.39213e-08 -1 -1 4.35025e-08 16.5312 82.2578)" fill="#A1A1A1"/>
<rect width="5.48387" height="5.5102" transform="matrix(-4.39213e-08 -1 -1 4.35025e-08 104.695 82.2578)" fill="#A1A1A1"/>
<rect width="5.48387" height="5.5102" transform="matrix(-4.39213e-08 -1 -1 4.35025e-08 22.0469 87.7422)" fill="#A1A1A1"/>
<rect width="5.48387" height="5.5102" transform="matrix(-4.39213e-08 -1 -1 4.35025e-08 110.211 87.7422)" fill="#A1A1A1"/>
<rect width="5.48387" height="5.5102" transform="matrix(-4.39213e-08 -1 -1 4.35025e-08 16.5312 93.2266)" fill="#A1A1A1"/>
<rect width="5.48387" height="5.5102" transform="matrix(-4.39213e-08 -1 -1 4.35025e-08 104.695 93.2266)" fill="#A1A1A1"/>
<rect width="5.48387" height="5.5102" transform="matrix(-4.39213e-08 -1 -1 4.35025e-08 270 71.2891)" fill="#A1A1A1"/>
<rect width="5.48387" height="5.5102" transform="matrix(-4.39213e-08 -1 -1 4.35025e-08 270 65.8047)" fill="#A1A1A1"/>
<rect width="5.48387" height="5.5102" transform="matrix(-4.39213e-08 -1 -1 4.35025e-08 270 120.645)" fill="#A1A1A1"/>
<rect width="5.48387" height="5.5102" transform="matrix(-4.39213e-08 -1 -1 4.35025e-08 270 10.9688)" fill="#A1A1A1"/>
<rect width="5.48387" height="5.5102" transform="matrix(-4.39213e-08 -1 -1 4.35025e-08 270 87.7422)" fill="#A1A1A1"/>
<rect width="5.48387" height="5.5102" transform="matrix(-4.39213e-08 -1 -1 4.35025e-08 270 137.098)" fill="#A1A1A1"/>
<rect width="5.48387" height="5.5102" transform="matrix(-4.39213e-08 -1 -1 4.35025e-08 270 27.418)" fill="#A1A1A1"/>
<rect width="5.48387" height="5.5102" transform="matrix(-4.39213e-08 -1 -1 4.35025e-08 247.961 76.7734)" fill="#A1A1A1"/>
<rect width="5.48387" height="5.5102" transform="matrix(-4.39213e-08 -1 -1 4.35025e-08 247.961 126.129)" fill="#A1A1A1"/>
<rect width="5.48387" height="5.5102" transform="matrix(-4.39213e-08 -1 -1 4.35025e-08 247.961 16.4531)" fill="#A1A1A1"/>
<rect width="5.48387" height="5.5102" transform="matrix(-4.39213e-08 -1 -1 4.35025e-08 247.961 93.2266)" fill="#A1A1A1"/>
<rect width="5.48387" height="5.5102" transform="matrix(-4.39213e-08 -1 -1 4.35025e-08 247.961 142.582)" fill="#A1A1A1"/>
<rect width="5.48387" height="5.5102" transform="matrix(-4.39213e-08 -1 -1 4.35025e-08 247.961 32.9023)" fill="#A1A1A1"/>
<rect width="5.48387" height="5.5102" transform="matrix(-4.39213e-08 -1 -1 4.35025e-08 247.961 104.191)" fill="#A1A1A1"/>
<rect width="5.48387" height="5.5102" transform="matrix(-4.39213e-08 -1 -1 4.35025e-08 247.961 153.547)" fill="#A1A1A1"/>
<rect width="5.48387" height="5.5102" transform="matrix(-4.39213e-08 -1 -1 4.35025e-08 247.961 43.8711)" fill="#A1A1A1"/>
<rect width="5.48387" height="5.5102" transform="matrix(-4.39213e-08 -1 -1 4.35025e-08 225.922 76.7734)" fill="#A1A1A1"/>
<rect width="5.48387" height="5.5102" transform="matrix(-4.39213e-08 -1 -1 4.35025e-08 225.922 126.129)" fill="#A1A1A1"/>
<rect width="5.48387" height="5.5102" transform="matrix(-4.39213e-08 -1 -1 4.35025e-08 225.922 16.4531)" fill="#A1A1A1"/>
<rect width="5.48387" height="5.5102" transform="matrix(-4.39213e-08 -1 -1 4.35025e-08 225.922 93.2266)" fill="#A1A1A1"/>
<rect width="5.48387" height="5.5102" transform="matrix(-4.39213e-08 -1 -1 4.35025e-08 225.922 142.582)" fill="#A1A1A1"/>
<rect width="5.48387" height="5.5102" transform="matrix(-4.39213e-08 -1 -1 4.35025e-08 225.922 32.9023)" fill="#A1A1A1"/>
<rect width="5.48387" height="5.5102" transform="matrix(-4.39213e-08 -1 -1 4.35025e-08 225.922 104.191)" fill="#A1A1A1"/>
<rect width="5.48387" height="5.5102" transform="matrix(-4.39213e-08 -1 -1 4.35025e-08 225.922 153.547)" fill="#A1A1A1"/>
<rect width="5.48387" height="5.5102" transform="matrix(-4.39213e-08 -1 -1 4.35025e-08 225.922 43.8711)" fill="#A1A1A1"/>
<rect width="5.48387" height="5.5102" transform="matrix(-4.39213e-08 -1 -1 4.35025e-08 203.883 76.7734)" fill="#A1A1A1"/>
<rect width="5.48387" height="5.5102" transform="matrix(-4.39213e-08 -1 -1 4.35025e-08 203.883 126.129)" fill="#A1A1A1"/>
<rect width="5.48387" height="5.5102" transform="matrix(-4.39213e-08 -1 -1 4.35025e-08 203.883 16.4531)" fill="#A1A1A1"/>
<rect width="5.48387" height="5.5102" transform="matrix(-4.39213e-08 -1 -1 4.35025e-08 203.883 93.2266)" fill="#A1A1A1"/>
<rect width="5.48387" height="5.5102" transform="matrix(-4.39213e-08 -1 -1 4.35025e-08 203.883 142.582)" fill="#A1A1A1"/>
<rect width="5.48387" height="5.5102" transform="matrix(-4.39213e-08 -1 -1 4.35025e-08 203.883 32.9023)" fill="#A1A1A1"/>
<rect width="5.48387" height="5.5102" transform="matrix(-4.39213e-08 -1 -1 4.35025e-08 203.883 104.191)" fill="#A1A1A1"/>
<rect width="5.48387" height="5.5102" transform="matrix(-4.39213e-08 -1 -1 4.35025e-08 203.883 153.547)" fill="#A1A1A1"/>
<rect width="5.48387" height="5.5102" transform="matrix(-4.39213e-08 -1 -1 4.35025e-08 203.883 43.8711)" fill="#A1A1A1"/>
<rect width="5.48387" height="5.5102" transform="matrix(-4.39213e-08 -1 -1 4.35025e-08 181.844 76.7734)" fill="#A1A1A1"/>
<rect width="5.48387" height="5.5102" transform="matrix(-4.39213e-08 -1 -1 4.35025e-08 181.844 126.129)" fill="#A1A1A1"/>
<rect width="5.48387" height="5.5102" transform="matrix(-4.39213e-08 -1 -1 4.35025e-08 181.844 16.4531)" fill="#A1A1A1"/>
<rect width="5.48387" height="5.5102" transform="matrix(-4.39213e-08 -1 -1 4.35025e-08 181.844 93.2266)" fill="#A1A1A1"/>
<rect width="5.48387" height="5.5102" transform="matrix(-4.39213e-08 -1 -1 4.35025e-08 181.844 142.582)" fill="#A1A1A1"/>
<rect width="5.48387" height="5.5102" transform="matrix(-4.39213e-08 -1 -1 4.35025e-08 181.844 32.9023)" fill="#A1A1A1"/>
<rect width="5.48387" height="5.5102" transform="matrix(-4.39213e-08 -1 -1 4.35025e-08 181.844 104.191)" fill="#A1A1A1"/>
<rect width="5.48387" height="5.5102" transform="matrix(-4.39213e-08 -1 -1 4.35025e-08 181.844 153.547)" fill="#A1A1A1"/>
<rect width="5.48387" height="5.5102" transform="matrix(-4.39213e-08 -1 -1 4.35025e-08 181.844 43.8711)" fill="#A1A1A1"/>
<rect width="5.48387" height="5.5102" transform="matrix(-4.39213e-08 -1 -1 4.35025e-08 159.797 76.7734)" fill="#A1A1A1"/>
<rect width="5.48387" height="5.5102" transform="matrix(-4.39213e-08 -1 -1 4.35025e-08 159.797 93.2266)" fill="#A1A1A1"/>
<rect width="5.48387" height="5.5102" transform="matrix(-4.39213e-08 -1 -1 4.35025e-08 159.797 104.191)" fill="#A1A1A1"/>
<rect width="5.48387" height="5.5102" transform="matrix(-4.39213e-08 -1 -1 4.35025e-08 137.758 76.7734)" fill="#A1A1A1"/>
<rect width="5.48387" height="5.5102" transform="matrix(-4.39213e-08 -1 -1 4.35025e-08 137.758 93.2266)" fill="#A1A1A1"/>
<rect width="5.48387" height="5.5102" transform="matrix(-4.39213e-08 -1 -1 4.35025e-08 137.758 104.191)" fill="#A1A1A1"/>
<rect width="5.48387" height="5.5102" transform="matrix(-4.39213e-08 -1 -1 4.35025e-08 115.719 76.7734)" fill="#A1A1A1"/>
<rect width="5.48387" height="5.5102" transform="matrix(-4.39213e-08 -1 -1 4.35025e-08 115.719 93.2266)" fill="#A1A1A1"/>
<rect width="5.48387" height="5.5102" transform="matrix(-4.39213e-08 -1 -1 4.35025e-08 115.719 104.191)" fill="#A1A1A1"/>
<rect width="5.48387" height="5.5102" transform="matrix(-4.39213e-08 -1 -1 4.35025e-08 93.6797 76.7734)" fill="#A1A1A1"/>
<rect width="5.48387" height="5.5102" transform="matrix(-4.39213e-08 -1 -1 4.35025e-08 93.6797 93.2266)" fill="#A1A1A1"/>
<rect width="5.48387" height="5.5102" transform="matrix(-4.39213e-08 -1 -1 4.35025e-08 93.6797 104.191)" fill="#A1A1A1"/>
<rect width="5.48387" height="5.5102" transform="matrix(-4.39213e-08 -1 -1 4.35025e-08 71.6406 76.7734)" fill="#A1A1A1"/>
<rect width="5.48387" height="5.5102" transform="matrix(-4.39213e-08 -1 -1 4.35025e-08 71.6406 93.2266)" fill="#A1A1A1"/>
<rect width="5.48387" height="5.5102" transform="matrix(-4.39213e-08 -1 -1 4.35025e-08 71.6406 104.191)" fill="#A1A1A1"/>
<rect width="5.48387" height="5.5102" transform="matrix(-4.39213e-08 -1 -1 4.35025e-08 49.5938 76.7734)" fill="#A1A1A1"/>
<rect width="5.48387" height="5.5102" transform="matrix(-4.39213e-08 -1 -1 4.35025e-08 49.5938 93.2266)" fill="#A1A1A1"/>
<rect width="5.48387" height="5.5102" transform="matrix(-4.39213e-08 -1 -1 4.35025e-08 49.5938 104.191)" fill="#A1A1A1"/>
<rect width="5.48387" height="5.5102" transform="matrix(-4.39213e-08 -1 -1 4.35025e-08 27.5547 76.7734)" fill="#A1A1A1"/>
<rect width="5.48387" height="5.5102" transform="matrix(-4.39213e-08 -1 -1 4.35025e-08 27.5547 93.2266)" fill="#A1A1A1"/>
<rect width="5.48387" height="5.5102" transform="matrix(-4.39213e-08 -1 -1 4.35025e-08 27.5547 104.191)" fill="#A1A1A1"/>
<rect width="5.48387" height="5.5102" transform="matrix(-4.39213e-08 -1 -1 4.35025e-08 5.51562 76.7734)" fill="#A1A1A1"/>
<rect width="5.48387" height="5.5102" transform="matrix(-4.39213e-08 -1 -1 4.35025e-08 5.51562 93.2266)" fill="#A1A1A1"/>
<rect width="5.48387" height="5.5102" transform="matrix(-4.39213e-08 -1 -1 4.35025e-08 5.51562 104.191)" fill="#A1A1A1"/>
<rect width="5.48387" height="5.5102" transform="matrix(-4.39213e-08 -1 -1 4.35025e-08 270 76.7734)" fill="#A1A1A1"/>
<rect width="5.48387" height="5.5102" transform="matrix(-4.39213e-08 -1 -1 4.35025e-08 270 126.129)" fill="#A1A1A1"/>
<rect width="5.48387" height="5.5102" transform="matrix(-4.39213e-08 -1 -1 4.35025e-08 270 16.4531)" fill="#A1A1A1"/>
<rect width="5.48387" height="5.5102" transform="matrix(-4.39213e-08 -1 -1 4.35025e-08 264.492 16.4531)" fill="#A1A1A1"/>
<rect width="5.48387" height="5.5102" transform="matrix(-4.39213e-08 -1 -1 4.35025e-08 264.492 126.129)" fill="#A1A1A1"/>
<rect width="5.48387" height="5.5102" transform="matrix(-4.39213e-08 -1 -1 4.35025e-08 258.984 21.9336)" fill="#A1A1A1"/>
<rect width="5.48387" height="5.5102" transform="matrix(-4.39213e-08 -1 -1 4.35025e-08 258.984 131.613)" fill="#A1A1A1"/>
<rect width="5.48387" height="5.5102" transform="matrix(-4.39213e-08 -1 -1 4.35025e-08 264.492 27.418)" fill="#A1A1A1"/>
<rect width="5.48387" height="5.5102" transform="matrix(-4.39213e-08 -1 -1 4.35025e-08 264.492 137.098)" fill="#A1A1A1"/>
<rect width="5.48387" height="5.5102" transform="matrix(-4.39213e-08 -1 -1 4.35025e-08 264.492 38.3867)" fill="#A1A1A1"/>
<rect width="5.48387" height="5.5102" transform="matrix(-4.39213e-08 -1 -1 4.35025e-08 264.492 148.062)" fill="#A1A1A1"/>
<rect width="5.48387" height="5.5102" transform="matrix(-4.39213e-08 -1 -1 4.35025e-08 258.984 43.8711)" fill="#A1A1A1"/>
<rect width="5.48387" height="5.5102" transform="matrix(-4.39213e-08 -1 -1 4.35025e-08 258.984 153.547)" fill="#A1A1A1"/>
<rect width="5.48387" height="5.5102" transform="matrix(-4.39213e-08 -1 -1 4.35025e-08 264.492 49.3555)" fill="#A1A1A1"/>
<rect width="5.48387" height="5.5102" transform="matrix(-4.39213e-08 -1 -1 4.35025e-08 264.492 159.031)" fill="#A1A1A1"/>
<rect width="5.48387" height="5.5102" transform="matrix(-4.39213e-08 -1 -1 4.35025e-08 264.492 43.8711)" fill="#A1A1A1"/>
<rect width="5.48387" height="5.5102" transform="matrix(-4.39213e-08 -1 -1 4.35025e-08 264.492 153.547)" fill="#A1A1A1"/>
<rect width="5.48387" height="5.5102" transform="matrix(-4.39213e-08 -1 -1 4.35025e-08 264.492 21.9336)" fill="#A1A1A1"/>
<rect width="5.48387" height="5.5102" transform="matrix(-4.39213e-08 -1 -1 4.35025e-08 264.492 131.613)" fill="#A1A1A1"/>
<rect width="5.48387" height="5.5102" transform="matrix(-4.39213e-08 -1 -1 4.35025e-08 270 93.2266)" fill="#A1A1A1"/>
<rect width="5.48387" height="5.5102" transform="matrix(-4.39213e-08 -1 -1 4.35025e-08 270 142.582)" fill="#A1A1A1"/>
<rect width="5.48387" height="5.5102" transform="matrix(-4.39213e-08 -1 -1 4.35025e-08 270 32.9023)" fill="#A1A1A1"/>
<rect width="5.48387" height="5.5102" transform="matrix(-4.39213e-08 -1 -1 4.35025e-08 270 104.191)" fill="#A1A1A1"/>
<rect width="5.48387" height="5.5102" transform="matrix(-4.39213e-08 -1 -1 4.35025e-08 270 153.547)" fill="#A1A1A1"/>
<rect width="5.48387" height="5.5102" transform="matrix(-4.39213e-08 -1 -1 4.35025e-08 270 43.8711)" fill="#A1A1A1"/>
<rect width="5.48387" height="5.5102" transform="matrix(-4.39213e-08 -1 -1 4.35025e-08 247.961 82.2578)" fill="#A1A1A1"/>
<rect width="5.48387" height="5.5102" transform="matrix(-4.39213e-08 -1 -1 4.35025e-08 247.961 131.613)" fill="#A1A1A1"/>
<rect width="5.48387" height="5.5102" transform="matrix(-4.39213e-08 -1 -1 4.35025e-08 247.961 21.9336)" fill="#A1A1A1"/>
<rect width="5.48387" height="5.5102" transform="matrix(-4.39213e-08 -1 -1 4.35025e-08 247.961 98.7109)" fill="#A1A1A1"/>
<rect width="5.48387" height="5.5102" transform="matrix(-4.39213e-08 -1 -1 4.35025e-08 247.961 148.062)" fill="#A1A1A1"/>
<rect width="5.48387" height="5.5102" transform="matrix(-4.39213e-08 -1 -1 4.35025e-08 247.961 38.3867)" fill="#A1A1A1"/>
<rect width="5.48387" height="5.5102" transform="matrix(-4.39213e-08 -1 -1 4.35025e-08 247.961 109.676)" fill="#A1A1A1"/>
<rect width="5.48387" height="5.5102" transform="matrix(-4.39213e-08 -1 -1 4.35025e-08 247.961 159.031)" fill="#A1A1A1"/>
<rect width="5.48387" height="5.5102" transform="matrix(-4.39213e-08 -1 -1 4.35025e-08 247.961 164.516)" fill="#A1A1A1"/>
<rect width="5.48387" height="5.5102" transform="matrix(-4.39213e-08 -1 -1 4.35025e-08 247.961 49.3555)" fill="#A1A1A1"/>
<rect width="5.48387" height="5.5102" transform="matrix(-4.39213e-08 -1 -1 4.35025e-08 247.961 54.8398)" fill="#A1A1A1"/>
<rect width="5.48387" height="5.5102" transform="matrix(-4.39213e-08 -1 -1 4.35025e-08 225.922 82.2578)" fill="#A1A1A1"/>
<rect width="5.48387" height="5.5102" transform="matrix(-4.39213e-08 -1 -1 4.35025e-08 225.922 131.613)" fill="#A1A1A1"/>
<rect width="5.48387" height="5.5102" transform="matrix(-4.39213e-08 -1 -1 4.35025e-08 225.922 21.9336)" fill="#A1A1A1"/>
<rect width="5.48387" height="5.5102" transform="matrix(-4.39213e-08 -1 -1 4.35025e-08 225.922 98.7109)" fill="#A1A1A1"/>
<rect width="5.48387" height="5.5102" transform="matrix(-4.39213e-08 -1 -1 4.35025e-08 225.922 148.062)" fill="#A1A1A1"/>
<rect width="5.48387" height="5.5102" transform="matrix(-4.39213e-08 -1 -1 4.35025e-08 225.922 38.3867)" fill="#A1A1A1"/>
<rect width="5.48387" height="5.5102" transform="matrix(-4.39213e-08 -1 -1 4.35025e-08 225.922 109.676)" fill="#A1A1A1"/>
<rect width="5.48387" height="5.5102" transform="matrix(-4.39213e-08 -1 -1 4.35025e-08 225.922 159.031)" fill="#A1A1A1"/>
<rect width="5.48387" height="5.5102" transform="matrix(-4.39213e-08 -1 -1 4.35025e-08 225.922 164.516)" fill="#A1A1A1"/>
<rect width="5.48387" height="5.5102" transform="matrix(-4.39213e-08 -1 -1 4.35025e-08 225.922 49.3555)" fill="#A1A1A1"/>
<rect width="5.48387" height="5.5102" transform="matrix(-4.39213e-08 -1 -1 4.35025e-08 225.922 54.8398)" fill="#A1A1A1"/>
<rect width="5.48387" height="5.5102" transform="matrix(-4.39213e-08 -1 -1 4.35025e-08 203.883 82.2578)" fill="#A1A1A1"/>
<rect width="5.48387" height="5.5102" transform="matrix(-4.39213e-08 -1 -1 4.35025e-08 203.883 131.613)" fill="#A1A1A1"/>
<rect width="5.48387" height="5.5102" transform="matrix(-4.39213e-08 -1 -1 4.35025e-08 203.883 21.9336)" fill="#A1A1A1"/>
<rect width="5.48387" height="5.5102" transform="matrix(-4.39213e-08 -1 -1 4.35025e-08 203.883 98.7109)" fill="#A1A1A1"/>
<rect width="5.48387" height="5.5102" transform="matrix(-4.39213e-08 -1 -1 4.35025e-08 203.883 148.062)" fill="#A1A1A1"/>
<rect width="5.48387" height="5.5102" transform="matrix(-4.39213e-08 -1 -1 4.35025e-08 203.883 38.3867)" fill="#A1A1A1"/>
<rect width="5.48387" height="5.5102" transform="matrix(-4.39213e-08 -1 -1 4.35025e-08 203.883 109.676)" fill="#A1A1A1"/>
<rect width="5.48387" height="5.5102" transform="matrix(-4.39213e-08 -1 -1 4.35025e-08 203.883 159.031)" fill="#A1A1A1"/>
<rect width="5.48387" height="5.5102" transform="matrix(-4.39213e-08 -1 -1 4.35025e-08 203.883 164.516)" fill="#A1A1A1"/>
<rect width="5.48387" height="5.5102" transform="matrix(-4.39213e-08 -1 -1 4.35025e-08 203.883 49.3555)" fill="#A1A1A1"/>
<rect width="5.48387" height="5.5102" transform="matrix(-4.39213e-08 -1 -1 4.35025e-08 203.883 54.8398)" fill="#A1A1A1"/>
<rect width="5.48387" height="5.5102" transform="matrix(-4.39213e-08 -1 -1 4.35025e-08 181.844 82.2578)" fill="#A1A1A1"/>
<rect width="5.48387" height="5.5102" transform="matrix(-4.39213e-08 -1 -1 4.35025e-08 181.844 131.613)" fill="#A1A1A1"/>
<rect width="5.48387" height="5.5102" transform="matrix(-4.39213e-08 -1 -1 4.35025e-08 181.844 21.9336)" fill="#A1A1A1"/>
<rect width="5.48387" height="5.5102" transform="matrix(-4.39213e-08 -1 -1 4.35025e-08 181.844 98.7109)" fill="#A1A1A1"/>
<rect width="5.48387" height="5.5102" transform="matrix(-4.39213e-08 -1 -1 4.35025e-08 181.844 148.062)" fill="#A1A1A1"/>
<rect width="5.48387" height="5.5102" transform="matrix(-4.39213e-08 -1 -1 4.35025e-08 181.844 38.3867)" fill="#A1A1A1"/>
<rect width="5.48387" height="5.5102" transform="matrix(-4.39213e-08 -1 -1 4.35025e-08 181.844 109.676)" fill="#A1A1A1"/>
<rect width="5.48387" height="5.5102" transform="matrix(-4.39213e-08 -1 -1 4.35025e-08 181.844 159.031)" fill="#A1A1A1"/>
<rect width="5.48387" height="5.5102" transform="matrix(-4.39213e-08 -1 -1 4.35025e-08 181.844 164.516)" fill="#A1A1A1"/>
<rect width="5.48387" height="5.5102" transform="matrix(-4.39213e-08 -1 -1 4.35025e-08 181.844 49.3555)" fill="#A1A1A1"/>
<rect width="5.48387" height="5.5102" transform="matrix(-4.39213e-08 -1 -1 4.35025e-08 181.844 54.8398)" fill="#A1A1A1"/>
<rect width="5.48387" height="5.5102" transform="matrix(-4.39213e-08 -1 -1 4.35025e-08 159.797 82.2578)" fill="#A1A1A1"/>
<rect width="5.48387" height="5.5102" transform="matrix(-4.39213e-08 -1 -1 4.35025e-08 159.797 98.7109)" fill="#A1A1A1"/>
<rect width="5.48387" height="5.5102" transform="matrix(-4.39213e-08 -1 -1 4.35025e-08 159.797 109.676)" fill="#A1A1A1"/>
<rect width="5.48387" height="5.5102" transform="matrix(-4.39213e-08 -1 -1 4.35025e-08 137.758 82.2578)" fill="#A1A1A1"/>
<rect width="5.48387" height="5.5102" transform="matrix(-4.39213e-08 -1 -1 4.35025e-08 137.758 98.7109)" fill="#A1A1A1"/>
<rect width="5.48387" height="5.5102" transform="matrix(-4.39213e-08 -1 -1 4.35025e-08 137.758 109.676)" fill="#A1A1A1"/>
<rect width="5.48387" height="5.5102" transform="matrix(-4.39213e-08 -1 -1 4.35025e-08 115.719 82.2578)" fill="#A1A1A1"/>
<rect width="5.48387" height="5.5102" transform="matrix(-4.39213e-08 -1 -1 4.35025e-08 115.719 98.7109)" fill="#A1A1A1"/>
<rect width="5.48387" height="5.5102" transform="matrix(-4.39213e-08 -1 -1 4.35025e-08 115.719 109.676)" fill="#A1A1A1"/>
<rect width="5.48387" height="5.5102" transform="matrix(-4.39213e-08 -1 -1 4.35025e-08 93.6797 82.2578)" fill="#A1A1A1"/>
<rect width="5.48387" height="5.5102" transform="matrix(-4.39213e-08 -1 -1 4.35025e-08 93.6797 98.7109)" fill="#A1A1A1"/>
<rect width="5.48387" height="5.5102" transform="matrix(-4.39213e-08 -1 -1 4.35025e-08 93.6797 109.676)" fill="#A1A1A1"/>
<rect width="5.48387" height="5.5102" transform="matrix(-4.39213e-08 -1 -1 4.35025e-08 71.6406 82.2578)" fill="#A1A1A1"/>
<rect width="5.48387" height="5.5102" transform="matrix(-4.39213e-08 -1 -1 4.35025e-08 71.6406 98.7109)" fill="#A1A1A1"/>
<rect width="5.48387" height="5.5102" transform="matrix(-4.39213e-08 -1 -1 4.35025e-08 71.6406 109.676)" fill="#A1A1A1"/>
<rect width="5.48387" height="5.5102" transform="matrix(-4.39213e-08 -1 -1 4.35025e-08 49.5938 82.2578)" fill="#A1A1A1"/>
<rect width="5.48387" height="5.5102" transform="matrix(-4.39213e-08 -1 -1 4.35025e-08 49.5938 98.7109)" fill="#A1A1A1"/>
<rect width="5.48387" height="5.5102" transform="matrix(-4.39213e-08 -1 -1 4.35025e-08 49.5938 109.676)" fill="#A1A1A1"/>
<rect width="5.48387" height="5.5102" transform="matrix(-4.39213e-08 -1 -1 4.35025e-08 27.5547 82.2578)" fill="#A1A1A1"/>
<rect width="5.48387" height="5.5102" transform="matrix(-4.39213e-08 -1 -1 4.35025e-08 27.5547 98.7109)" fill="#A1A1A1"/>
<rect width="5.48387" height="5.5102" transform="matrix(-4.39213e-08 -1 -1 4.35025e-08 27.5547 109.676)" fill="#A1A1A1"/>
<rect width="5.48387" height="5.5102" transform="matrix(-4.39213e-08 -1 -1 4.35025e-08 5.51562 82.2578)" fill="#A1A1A1"/>
<rect width="5.48387" height="5.5102" transform="matrix(-4.39213e-08 -1 -1 4.35025e-08 5.51562 98.7109)" fill="#A1A1A1"/>
<rect width="5.48387" height="5.5102" transform="matrix(-4.39213e-08 -1 -1 4.35025e-08 5.51562 109.676)" fill="#A1A1A1"/>
<rect width="5.48387" height="5.5102" transform="matrix(-4.39213e-08 -1 -1 4.35025e-08 270 82.2578)" fill="#A1A1A1"/>
<rect width="5.48387" height="5.5102" transform="matrix(-4.39213e-08 -1 -1 4.35025e-08 270 131.613)" fill="#A1A1A1"/>
<rect width="5.48387" height="5.5102" transform="matrix(-4.39213e-08 -1 -1 4.35025e-08 270 21.9336)" fill="#A1A1A1"/>
<rect width="5.48387" height="5.5102" transform="matrix(-4.39213e-08 -1 -1 4.35025e-08 270 98.7109)" fill="#A1A1A1"/>
<rect width="5.48387" height="5.5102" transform="matrix(-4.39213e-08 -1 -1 4.35025e-08 270 148.062)" fill="#A1A1A1"/>
<rect width="5.48387" height="5.5102" transform="matrix(-4.39213e-08 -1 -1 4.35025e-08 270 38.3867)" fill="#A1A1A1"/>
<rect width="5.48387" height="5.5102" transform="matrix(-4.39213e-08 -1 -1 4.35025e-08 270 109.676)" fill="#A1A1A1"/>
<rect width="5.48387" height="5.5102" transform="matrix(-4.39213e-08 -1 -1 4.35025e-08 270 159.031)" fill="#A1A1A1"/>
<rect width="5.48387" height="5.5102" transform="matrix(-4.39213e-08 -1 -1 4.35025e-08 270 164.516)" fill="#A1A1A1"/>
<rect width="5.48387" height="5.5102" transform="matrix(-4.39213e-08 -1 -1 4.35025e-08 270 49.3555)" fill="#A1A1A1"/>
<rect width="5.48387" height="5.5102" transform="matrix(-4.39213e-08 -1 -1 4.35025e-08 270 54.8398)" fill="#A1A1A1"/>
<rect width="5.48387" height="5.5102" transform="matrix(-4.39213e-08 -1 -1 4.35025e-08 253.477 115.16)" fill="#A1A1A1"/>
<rect width="5.48387" height="5.5102" transform="matrix(-4.39213e-08 -1 -1 4.35025e-08 253.477 170)" fill="#A1A1A1"/>
<rect width="5.48387" height="5.5102" transform="matrix(-4.39213e-08 -1 -1 4.35025e-08 181.844 60.3203)" fill="#A1A1A1"/>
<rect width="5.48387" height="5.5102" transform="matrix(-4.39213e-08 -1 -1 4.35025e-08 181.844 5.48438)" fill="#A1A1A1"/>
<rect width="5.48387" height="5.5102" transform="matrix(-4.39213e-08 -1 -1 4.35025e-08 137.758 60.3203)" fill="#A1A1A1"/>
<rect width="5.48387" height="5.5102" transform="matrix(-4.39213e-08 -1 -1 4.35025e-08 93.6797 60.3203)" fill="#A1A1A1"/>
<rect width="5.48387" height="5.5102" transform="matrix(-4.39213e-08 -1 -1 4.35025e-08 49.5938 60.3203)" fill="#A1A1A1"/>
<rect width="5.48387" height="5.5102" transform="matrix(-4.39213e-08 -1 -1 4.35025e-08 22.0469 60.3203)" fill="#A1A1A1"/>
<rect width="5.48387" height="5.5102" transform="matrix(-4.39213e-08 -1 -1 4.35025e-08 22.0469 115.16)" fill="#A1A1A1"/>
<rect width="5.48387" height="5.5102" transform="matrix(-4.39213e-08 -1 -1 4.35025e-08 225.922 115.16)" fill="#A1A1A1"/>
<rect width="5.48387" height="5.5102" transform="matrix(-4.39213e-08 -1 -1 4.35025e-08 225.922 170)" fill="#A1A1A1"/>
<rect width="5.48387" height="5.5102" transform="matrix(-4.39213e-08 -1 -1 4.35025e-08 181.844 115.16)" fill="#A1A1A1"/>
<rect width="5.48387" height="5.5102" transform="matrix(-4.39213e-08 -1 -1 4.35025e-08 181.844 170)" fill="#A1A1A1"/>
<rect width="5.48387" height="5.5102" transform="matrix(-4.39213e-08 -1 -1 4.35025e-08 137.758 115.16)" fill="#A1A1A1"/>
<rect width="5.48387" height="5.5102" transform="matrix(-4.39213e-08 -1 -1 4.35025e-08 93.6797 115.16)" fill="#A1A1A1"/>
<rect width="5.48387" height="5.5102" transform="matrix(-4.39213e-08 -1 -1 4.35025e-08 49.5938 115.16)" fill="#A1A1A1"/>
<rect width="5.48387" height="5.5102" transform="matrix(-4.39213e-08 -1 -1 4.35025e-08 220.414 60.3203)" fill="#A1A1A1"/>
<rect width="5.48387" height="5.5102" transform="matrix(-4.39213e-08 -1 -1 4.35025e-08 220.414 5.48438)" fill="#A1A1A1"/>
<rect width="5.48387" height="5.5102" transform="matrix(-4.39213e-08 -1 -1 4.35025e-08 247.961 60.3203)" fill="#A1A1A1"/>
<rect width="5.48387" height="5.5102" transform="matrix(-4.39213e-08 -1 -1 4.35025e-08 247.961 5.48438)" fill="#A1A1A1"/>
<rect width="5.48387" height="5.5102" transform="matrix(-4.39213e-08 -1 -1 4.35025e-08 247.961 115.16)" fill="#A1A1A1"/>
<rect width="5.48387" height="5.5102" transform="matrix(-4.39213e-08 -1 -1 4.35025e-08 247.961 170)" fill="#A1A1A1"/>
<rect width="5.48387" height="5.5102" transform="matrix(-4.39213e-08 -1 -1 4.35025e-08 176.328 60.3203)" fill="#A1A1A1"/>
<rect width="5.48387" height="5.5102" transform="matrix(-4.39213e-08 -1 -1 4.35025e-08 132.25 60.3203)" fill="#A1A1A1"/>
<rect width="5.48387" height="5.5102" transform="matrix(-4.39213e-08 -1 -1 4.35025e-08 88.1641 60.3203)" fill="#A1A1A1"/>
<rect width="5.48387" height="5.5102" transform="matrix(-4.39213e-08 -1 -1 4.35025e-08 44.0859 60.3203)" fill="#A1A1A1"/>
<rect width="5.48387" height="5.5102" transform="matrix(-4.39213e-08 -1 -1 4.35025e-08 16.5312 60.3203)" fill="#A1A1A1"/>
<rect width="5.48387" height="5.5102" transform="matrix(-4.39213e-08 -1 -1 4.35025e-08 16.5312 115.16)" fill="#A1A1A1"/>
<rect width="5.48387" height="5.5102" transform="matrix(-4.39213e-08 -1 -1 4.35025e-08 220.414 115.16)" fill="#A1A1A1"/>
<rect width="5.48387" height="5.5102" transform="matrix(-4.39213e-08 -1 -1 4.35025e-08 220.414 170)" fill="#A1A1A1"/>
<rect width="5.48387" height="5.5102" transform="matrix(-4.39213e-08 -1 -1 4.35025e-08 176.328 115.16)" fill="#A1A1A1"/>
<rect width="5.48387" height="5.5102" transform="matrix(-4.39213e-08 -1 -1 4.35025e-08 132.25 115.16)" fill="#A1A1A1"/>
<rect width="5.48387" height="5.5102" transform="matrix(-4.39213e-08 -1 -1 4.35025e-08 88.1641 115.16)" fill="#A1A1A1"/>
<rect width="5.48387" height="5.5102" transform="matrix(-4.39213e-08 -1 -1 4.35025e-08 44.0859 115.16)" fill="#A1A1A1"/>
<rect width="5.48387" height="5.5102" transform="matrix(-4.39213e-08 -1 -1 4.35025e-08 214.898 60.3203)" fill="#A1A1A1"/>
<rect width="5.48387" height="5.5102" transform="matrix(-4.39213e-08 -1 -1 4.35025e-08 214.898 5.48438)" fill="#A1A1A1"/>
<rect width="5.48387" height="5.5102" transform="matrix(-4.39213e-08 -1 -1 4.35025e-08 170.82 60.3203)" fill="#A1A1A1"/>
<rect width="5.48387" height="5.5102" transform="matrix(-4.39213e-08 -1 -1 4.35025e-08 126.742 60.3203)" fill="#A1A1A1"/>
<rect width="5.48387" height="5.5102" transform="matrix(-4.39213e-08 -1 -1 4.35025e-08 82.6562 60.3203)" fill="#A1A1A1"/>
<rect width="5.48387" height="5.5102" transform="matrix(-4.39213e-08 -1 -1 4.35025e-08 192.859 32.9023)" fill="#A1A1A1"/>
<rect width="5.48387" height="5.5102" transform="matrix(-4.39213e-08 -1 -1 4.35025e-08 148.781 32.9023)" fill="#A1A1A1"/>
<rect width="5.48387" height="5.5102" transform="matrix(-4.39213e-08 -1 -1 4.35025e-08 148.781 142.582)" fill="#A1A1A1"/>
<rect width="5.48387" height="5.5102" transform="matrix(-4.39213e-08 -1 -1 4.35025e-08 192.859 142.582)" fill="#A1A1A1"/>
<rect width="5.48387" height="5.5102" transform="matrix(-4.39213e-08 -1 -1 4.35025e-08 214.898 142.582)" fill="#A1A1A1"/>
<rect width="5.48387" height="5.5102" transform="matrix(-4.39213e-08 -1 -1 4.35025e-08 236.945 142.582)" fill="#A1A1A1"/>
<rect width="5.48387" height="5.5102" transform="matrix(-4.39213e-08 -1 -1 4.35025e-08 258.984 87.7422)" fill="#A1A1A1"/>
<rect width="5.48387" height="5.5102" transform="matrix(-4.39213e-08 -1 -1 4.35025e-08 236.945 87.7422)" fill="#A1A1A1"/>
<rect width="5.48387" height="5.5102" transform="matrix(-4.39213e-08 -1 -1 4.35025e-08 214.898 87.7422)" fill="#A1A1A1"/>
<rect width="5.48387" height="5.5102" transform="matrix(-4.39213e-08 -1 -1 4.35025e-08 170.82 87.7422)" fill="#A1A1A1"/>
<rect width="5.48387" height="5.5102" transform="matrix(-4.39213e-08 -1 -1 4.35025e-08 148.781 87.7422)" fill="#A1A1A1"/>
<rect width="5.48387" height="5.5102" transform="matrix(-4.39213e-08 -1 -1 4.35025e-08 126.742 87.7422)" fill="#A1A1A1"/>
<rect width="5.48387" height="5.5102" transform="matrix(-4.39213e-08 -1 -1 4.35025e-08 82.6562 87.7422)" fill="#A1A1A1"/>
<rect width="5.48387" height="5.5102" transform="matrix(-4.39213e-08 -1 -1 4.35025e-08 60.6172 87.7422)" fill="#A1A1A1"/>
<rect width="5.48387" height="5.5102" transform="matrix(-4.39213e-08 -1 -1 4.35025e-08 38.5781 87.7422)" fill="#A1A1A1"/>
<rect width="5.48387" height="5.5102" transform="matrix(-4.39213e-08 -1 -1 4.35025e-08 115.719 32.9023)" fill="#A1A1A1"/>
<rect width="5.48387" height="5.5102" transform="matrix(-4.39213e-08 -1 -1 4.35025e-08 115.719 142.582)" fill="#A1A1A1"/>
<rect width="5.48387" height="5.5102" transform="matrix(-4.39213e-08 -1 -1 4.35025e-08 82.6562 32.9023)" fill="#A1A1A1"/>
<rect width="5.48387" height="5.5102" transform="matrix(-4.39213e-08 -1 -1 4.35025e-08 82.6562 142.582)" fill="#A1A1A1"/>
<rect width="5.48387" height="5.5102" transform="matrix(-4.39213e-08 -1 -1 4.35025e-08 49.5938 32.9023)" fill="#A1A1A1"/>
<rect width="5.48387" height="5.5102" transform="matrix(-4.39213e-08 -1 -1 4.35025e-08 49.5938 142.582)" fill="#A1A1A1"/>
<rect width="5.48387" height="5.5102" transform="matrix(-4.39213e-08 -1 -1 4.35025e-08 16.5312 32.9023)" fill="#A1A1A1"/>
<rect width="5.48387" height="5.5102" transform="matrix(-4.39213e-08 -1 -1 4.35025e-08 16.5312 142.582)" fill="#A1A1A1"/>
<rect width="5.48387" height="5.5102" transform="matrix(-4.39213e-08 -1 -1 4.35025e-08 214.898 32.9023)" fill="#A1A1A1"/>
<rect width="5.48387" height="5.5102" transform="matrix(-4.39213e-08 -1 -1 4.35025e-08 236.945 32.9023)" fill="#A1A1A1"/>
<rect width="5.48387" height="5.5102" transform="matrix(-4.39213e-08 -1 -1 4.35025e-08 38.5781 60.3203)" fill="#A1A1A1"/>
<rect width="5.48387" height="5.5102" transform="matrix(-4.39213e-08 -1 -1 4.35025e-08 11.0234 60.3203)" fill="#A1A1A1"/>
<rect width="5.48387" height="5.5102" transform="matrix(-4.39213e-08 -1 -1 4.35025e-08 11.0234 115.16)" fill="#A1A1A1"/>
<rect width="5.48387" height="5.5102" transform="matrix(-4.39213e-08 -1 -1 4.35025e-08 214.898 115.16)" fill="#A1A1A1"/>
<rect width="5.48387" height="5.5102" transform="matrix(-4.39213e-08 -1 -1 4.35025e-08 214.898 170)" fill="#A1A1A1"/>
<rect width="5.48387" height="5.5102" transform="matrix(-4.39213e-08 -1 -1 4.35025e-08 170.82 115.16)" fill="#A1A1A1"/>
<rect width="5.48387" height="5.5102" transform="matrix(-4.39213e-08 -1 -1 4.35025e-08 126.742 115.16)" fill="#A1A1A1"/>
<rect width="5.48387" height="5.5102" transform="matrix(-4.39213e-08 -1 -1 4.35025e-08 82.6562 115.16)" fill="#A1A1A1"/>
<rect width="5.48387" height="5.5102" transform="matrix(-4.39213e-08 -1 -1 4.35025e-08 38.5781 115.16)" fill="#A1A1A1"/>
<rect width="5.48387" height="5.5102" transform="matrix(-4.39213e-08 -1 -1 4.35025e-08 209.391 60.3203)" fill="#A1A1A1"/>
<rect width="5.48387" height="5.5102" transform="matrix(-4.39213e-08 -1 -1 4.35025e-08 209.391 5.48438)" fill="#A1A1A1"/>
<rect width="5.48387" height="5.5102" transform="matrix(-4.39213e-08 -1 -1 4.35025e-08 165.312 60.3203)" fill="#A1A1A1"/>
<rect width="5.48387" height="5.5102" transform="matrix(-4.39213e-08 -1 -1 4.35025e-08 121.227 60.3203)" fill="#A1A1A1"/>
<rect width="5.48387" height="5.5102" transform="matrix(-4.39213e-08 -1 -1 4.35025e-08 77.1484 60.3203)" fill="#A1A1A1"/>
<rect width="5.48387" height="5.5102" transform="matrix(-4.39213e-08 -1 -1 4.35025e-08 33.0625 60.3203)" fill="#A1A1A1"/>
<rect width="5.48387" height="5.5102" transform="matrix(-4.39213e-08 -1 -1 4.35025e-08 5.51562 60.3203)" fill="#A1A1A1"/>
<rect width="5.48387" height="5.5102" transform="matrix(-4.39213e-08 -1 -1 4.35025e-08 5.51562 115.16)" fill="#A1A1A1"/>
<rect width="5.48387" height="5.5102" transform="matrix(-4.39213e-08 -1 -1 4.35025e-08 209.391 115.16)" fill="#A1A1A1"/>
<rect width="5.48387" height="5.5102" transform="matrix(-4.39213e-08 -1 -1 4.35025e-08 209.391 170)" fill="#A1A1A1"/>
<rect width="5.48387" height="5.5102" transform="matrix(-4.39213e-08 -1 -1 4.35025e-08 165.312 115.16)" fill="#A1A1A1"/>
<rect width="5.48387" height="5.5102" transform="matrix(-4.39213e-08 -1 -1 4.35025e-08 121.227 115.16)" fill="#A1A1A1"/>
<rect width="5.48387" height="5.5102" transform="matrix(-4.39213e-08 -1 -1 4.35025e-08 77.1484 115.16)" fill="#A1A1A1"/>
<rect width="5.48387" height="5.5102" transform="matrix(-4.39213e-08 -1 -1 4.35025e-08 33.0625 115.16)" fill="#A1A1A1"/>
<rect width="5.48387" height="5.5102" transform="matrix(-4.39213e-08 -1 -1 4.35025e-08 203.883 60.3203)" fill="#A1A1A1"/>
<rect width="5.48387" height="5.5102" transform="matrix(-4.39213e-08 -1 -1 4.35025e-08 203.883 5.48438)" fill="#A1A1A1"/>
<rect width="5.48387" height="5.5102" transform="matrix(-4.39213e-08 -1 -1 4.35025e-08 159.797 60.3203)" fill="#A1A1A1"/>
<rect width="5.48387" height="5.5102" transform="matrix(-4.39213e-08 -1 -1 4.35025e-08 115.719 60.3203)" fill="#A1A1A1"/>
<rect width="5.48387" height="5.5102" transform="matrix(-4.39213e-08 -1 -1 4.35025e-08 71.6406 60.3203)" fill="#A1A1A1"/>
<rect width="5.48387" height="5.5102" transform="matrix(-4.39213e-08 -1 -1 4.35025e-08 27.5547 60.3203)" fill="#A1A1A1"/>
<rect width="5.48387" height="5.5102" transform="matrix(-4.39213e-08 -1 -1 4.35025e-08 203.883 115.16)" fill="#A1A1A1"/>
<rect width="5.48387" height="5.5102" transform="matrix(-4.39213e-08 -1 -1 4.35025e-08 203.883 170)" fill="#A1A1A1"/>
<rect width="5.48387" height="5.5102" transform="matrix(-4.39213e-08 -1 -1 4.35025e-08 159.797 115.16)" fill="#A1A1A1"/>
<rect width="5.48387" height="5.5102" transform="matrix(-4.39213e-08 -1 -1 4.35025e-08 115.719 115.16)" fill="#A1A1A1"/>
<rect width="5.48387" height="5.5102" transform="matrix(-4.39213e-08 -1 -1 4.35025e-08 71.6406 115.16)" fill="#A1A1A1"/>
<rect width="5.48387" height="5.5102" transform="matrix(-4.39213e-08 -1 -1 4.35025e-08 27.5547 115.16)" fill="#A1A1A1"/>
<circle cx="16" cy="33" r="12" fill="black"/>
<circle cx="48" cy="33" r="12" fill="black"/>
<circle cx="80" cy="33" r="12" fill="black"/>
<circle cx="112" cy="33" r="12" fill="black"/>
<circle cx="144" cy="33" r="12" fill="black"/>
<circle cx="19" cy="143" r="12" fill="white"/>
<circle cx="51" cy="143" r="12" fill="white"/>
<circle cx="83" cy="143" r="12" fill="white"/>
<circle cx="115" cy="143" r="12" fill="white"/>
<circle cx="147" cy="143" r="12" fill="white"/>
<line x1="179" y1="28.0078" x2="258" y2="28.0078" stroke="#FF1D1D" stroke-width="4"/>
<path d="M256 29.0078L256 78.0078" stroke="#FF1D1D" stroke-width="4"/>
<line x1="254" y1="76.0078" x2="19" y2="76.0078" stroke="#FF1D1D" stroke-width="4"/>
<line x1="179" y1="131.008" x2="258" y2="131.008" stroke="#1D2CFF" stroke-width="4"/>
<path d="M256 134.008L256 85.0078" stroke="#1D2CFF" stroke-width="4"/>
<line y1="-2" x2="235" y2="-2" transform="matrix(-1 8.74228e-08 8.74228e-08 1 254 89.0078)" stroke="#1D2CFF" stroke-width="4"/>
</svg>
