<svg width="270" height="238" viewBox="0 0 270 238" fill="none" xmlns="http://www.w3.org/2000/svg">
<rect x="94" width="38" height="38" rx="15" fill="#FDFCFC"/>
<circle cx="108.027" cy="24.7459" r="5.26154" fill="black"/>
<circle cx="118.746" cy="14.0311" r="5.26154" fill="black"/>
<rect x="139" width="38" height="38" rx="15" fill="#FDFCFC"/>
<circle cx="153.027" cy="24.7459" r="5.26154" fill="black"/>
<circle cx="163.746" cy="14.0311" r="5.26154" fill="black"/>
<rect width="5.48387" height="5.5102" transform="matrix(-4.39213e-08 -1 -1 4.35025e-08 242.453 128.32)" fill="#A1A1A1"/>
<rect width="5.48387" height="5.5102" transform="matrix(-4.39213e-08 -1 -1 4.35025e-08 242.453 73.4844)" fill="#A1A1A1"/>
<rect width="5.48387" height="5.5102" transform="matrix(-4.39213e-08 -1 -1 4.35025e-08 270 128.32)" fill="#A1A1A1"/>
<rect width="5.48387" height="5.5102" transform="matrix(-4.39213e-08 -1 -1 4.35025e-08 270 73.4844)" fill="#A1A1A1"/>
<rect width="5.48387" height="5.5102" transform="matrix(-4.39213e-08 -1 -1 4.35025e-08 270 183.16)" fill="#A1A1A1"/>
<rect width="5.48387" height="5.5102" transform="matrix(-4.39213e-08 -1 -1 4.35025e-08 270 238)" fill="#A1A1A1"/>
<rect width="5.48387" height="5.5102" transform="matrix(-4.39213e-08 -1 -1 4.35025e-08 198.367 128.32)" fill="#A1A1A1"/>
<rect width="5.48387" height="5.5102" transform="matrix(-4.39213e-08 -1 -1 4.35025e-08 198.367 73.4844)" fill="#A1A1A1"/>
<rect width="5.48387" height="5.5102" transform="matrix(-4.39213e-08 -1 -1 4.35025e-08 154.289 128.32)" fill="#A1A1A1"/>
<rect width="5.48387" height="5.5102" transform="matrix(-4.39213e-08 -1 -1 4.35025e-08 110.203 128.32)" fill="#A1A1A1"/>
<rect width="5.48387" height="5.5102" transform="matrix(-4.39213e-08 -1 -1 4.35025e-08 66.125 128.32)" fill="#A1A1A1"/>
<rect width="5.48387" height="5.5102" transform="matrix(-4.39213e-08 -1 -1 4.35025e-08 242.453 183.16)" fill="#A1A1A1"/>
<rect width="5.48387" height="5.5102" transform="matrix(-4.39213e-08 -1 -1 4.35025e-08 242.453 238)" fill="#A1A1A1"/>
<rect width="5.48387" height="5.5102" transform="matrix(-4.39213e-08 -1 -1 4.35025e-08 198.367 183.16)" fill="#A1A1A1"/>
<rect width="5.48387" height="5.5102" transform="matrix(-4.39213e-08 -1 -1 4.35025e-08 198.367 238)" fill="#A1A1A1"/>
<rect width="5.48387" height="5.5102" transform="matrix(-4.39213e-08 -1 -1 4.35025e-08 154.289 183.16)" fill="#A1A1A1"/>
<rect width="5.48387" height="5.5102" transform="matrix(-4.39213e-08 -1 -1 4.35025e-08 110.203 183.16)" fill="#A1A1A1"/>
<rect width="5.48387" height="5.5102" transform="matrix(-4.39213e-08 -1 -1 4.35025e-08 66.125 183.16)" fill="#A1A1A1"/>
<rect width="5.48387" height="5.5102" transform="matrix(-4.39213e-08 -1 -1 4.35025e-08 236.938 128.32)" fill="#A1A1A1"/>
<rect width="5.48387" height="5.5102" transform="matrix(-4.39213e-08 -1 -1 4.35025e-08 236.938 73.4844)" fill="#A1A1A1"/>
<rect width="5.48387" height="5.5102" transform="matrix(-4.39213e-08 -1 -1 4.35025e-08 264.492 128.32)" fill="#A1A1A1"/>
<rect width="5.48387" height="5.5102" transform="matrix(-4.39213e-08 -1 -1 4.35025e-08 264.492 73.4844)" fill="#A1A1A1"/>
<rect width="5.48387" height="5.5102" transform="matrix(-4.39213e-08 -1 -1 4.35025e-08 264.492 183.16)" fill="#A1A1A1"/>
<rect width="5.48387" height="5.5102" transform="matrix(-4.39213e-08 -1 -1 4.35025e-08 264.492 238)" fill="#A1A1A1"/>
<rect width="5.48387" height="5.5102" transform="matrix(-4.39213e-08 -1 -1 4.35025e-08 192.859 128.32)" fill="#A1A1A1"/>
<rect width="5.48387" height="5.5102" transform="matrix(-4.39213e-08 -1 -1 4.35025e-08 192.859 73.4844)" fill="#A1A1A1"/>
<rect width="5.48387" height="5.5102" transform="matrix(-4.39213e-08 -1 -1 4.35025e-08 148.781 128.32)" fill="#A1A1A1"/>
<rect width="5.48387" height="5.5102" transform="matrix(-4.39213e-08 -1 -1 4.35025e-08 104.695 128.32)" fill="#A1A1A1"/>
<rect width="5.48387" height="5.5102" transform="matrix(-4.39213e-08 -1 -1 4.35025e-08 60.6172 128.32)" fill="#A1A1A1"/>
<rect width="5.48387" height="5.5102" transform="matrix(-4.39213e-08 -1 -1 4.35025e-08 236.938 183.16)" fill="#A1A1A1"/>
<rect width="5.48387" height="5.5102" transform="matrix(-4.39213e-08 -1 -1 4.35025e-08 236.938 238)" fill="#A1A1A1"/>
<rect width="5.48387" height="5.5102" transform="matrix(-4.39213e-08 -1 -1 4.35025e-08 192.859 183.16)" fill="#A1A1A1"/>
<rect width="5.48387" height="5.5102" transform="matrix(-4.39213e-08 -1 -1 4.35025e-08 192.859 238)" fill="#A1A1A1"/>
<rect width="5.48387" height="5.5102" transform="matrix(-4.39213e-08 -1 -1 4.35025e-08 148.781 183.16)" fill="#A1A1A1"/>
<rect width="5.48387" height="5.5102" transform="matrix(-4.39213e-08 -1 -1 4.35025e-08 104.695 183.16)" fill="#A1A1A1"/>
<rect width="5.48387" height="5.5102" transform="matrix(-4.39213e-08 -1 -1 4.35025e-08 60.6172 183.16)" fill="#A1A1A1"/>
<rect width="5.48387" height="5.5102" transform="matrix(-4.39213e-08 -1 -1 4.35025e-08 231.43 128.32)" fill="#A1A1A1"/>
<rect width="5.48387" height="5.5102" transform="matrix(-4.39213e-08 -1 -1 4.35025e-08 231.43 73.4844)" fill="#A1A1A1"/>
<rect width="5.48387" height="5.5102" transform="matrix(-4.39213e-08 -1 -1 4.35025e-08 258.977 128.32)" fill="#A1A1A1"/>
<rect width="5.48387" height="5.5102" transform="matrix(-4.39213e-08 -1 -1 4.35025e-08 258.977 73.4844)" fill="#A1A1A1"/>
<rect width="5.48387" height="5.5102" transform="matrix(-4.39213e-08 -1 -1 4.35025e-08 258.977 183.16)" fill="#A1A1A1"/>
<rect width="5.48387" height="5.5102" transform="matrix(-4.39213e-08 -1 -1 4.35025e-08 258.977 238)" fill="#A1A1A1"/>
<rect width="5.48387" height="5.5102" transform="matrix(-4.39213e-08 -1 -1 4.35025e-08 187.352 128.32)" fill="#A1A1A1"/>
<rect width="5.48387" height="5.5102" transform="matrix(-4.39213e-08 -1 -1 4.35025e-08 187.352 73.4844)" fill="#A1A1A1"/>
<rect width="5.48387" height="5.5102" transform="matrix(-4.39213e-08 -1 -1 4.35025e-08 143.266 128.32)" fill="#A1A1A1"/>
<rect width="5.48387" height="5.5102" transform="matrix(-4.39213e-08 -1 -1 4.35025e-08 99.1875 128.32)" fill="#A1A1A1"/>
<rect width="5.48387" height="5.5102" transform="matrix(-4.39213e-08 -1 -1 4.35025e-08 55.1016 128.32)" fill="#A1A1A1"/>
<rect width="5.48387" height="5.5102" transform="matrix(-4.39213e-08 -1 -1 4.35025e-08 231.43 183.16)" fill="#A1A1A1"/>
<rect width="5.48387" height="5.5102" transform="matrix(-4.39213e-08 -1 -1 4.35025e-08 231.43 238)" fill="#A1A1A1"/>
<rect width="5.48387" height="5.5102" transform="matrix(-4.39213e-08 -1 -1 4.35025e-08 187.352 183.16)" fill="#A1A1A1"/>
<rect width="5.48387" height="5.5102" transform="matrix(-4.39213e-08 -1 -1 4.35025e-08 187.352 238)" fill="#A1A1A1"/>
<rect width="5.48387" height="5.5102" transform="matrix(-4.39213e-08 -1 -1 4.35025e-08 143.266 183.16)" fill="#A1A1A1"/>
<rect width="5.48387" height="5.5102" transform="matrix(-4.39213e-08 -1 -1 4.35025e-08 99.1875 183.16)" fill="#A1A1A1"/>
<rect width="5.48387" height="5.5102" transform="matrix(-4.39213e-08 -1 -1 4.35025e-08 55.1016 183.16)" fill="#A1A1A1"/>
<rect width="5.48387" height="5.5102" transform="matrix(-4.39213e-08 -1 -1 4.35025e-08 225.922 128.32)" fill="#A1A1A1"/>
<rect width="5.48387" height="5.5102" transform="matrix(-4.39213e-08 -1 -1 4.35025e-08 225.922 73.4844)" fill="#A1A1A1"/>
<rect width="5.48387" height="5.5102" transform="matrix(-4.39213e-08 -1 -1 4.35025e-08 253.469 128.32)" fill="#A1A1A1"/>
<rect width="5.48387" height="5.5102" transform="matrix(-4.39213e-08 -1 -1 4.35025e-08 253.469 73.4844)" fill="#A1A1A1"/>
<rect width="5.48387" height="5.5102" transform="matrix(-4.39213e-08 -1 -1 4.35025e-08 247.961 139.289)" fill="#A1A1A1"/>
<rect width="5.48387" height="5.5102" transform="matrix(-4.39213e-08 -1 -1 4.35025e-08 247.961 133.805)" fill="#A1A1A1"/>
<rect width="5.48387" height="5.5102" transform="matrix(-4.39213e-08 -1 -1 4.35025e-08 247.961 188.645)" fill="#A1A1A1"/>
<rect width="5.48387" height="5.5102" transform="matrix(-4.39213e-08 -1 -1 4.35025e-08 247.961 78.9648)" fill="#A1A1A1"/>
<rect width="5.48387" height="5.5102" transform="matrix(-4.39213e-08 -1 -1 4.35025e-08 247.961 155.742)" fill="#A1A1A1"/>
<rect width="5.48387" height="5.5102" transform="matrix(-4.39213e-08 -1 -1 4.35025e-08 247.961 205.094)" fill="#A1A1A1"/>
<rect width="5.48387" height="5.5102" transform="matrix(-4.39213e-08 -1 -1 4.35025e-08 247.961 95.418)" fill="#A1A1A1"/>
<rect width="5.48387" height="5.5102" transform="matrix(-4.39213e-08 -1 -1 4.35025e-08 225.922 139.289)" fill="#A1A1A1"/>
<rect width="5.48387" height="5.5102" transform="matrix(-4.39213e-08 -1 -1 4.35025e-08 225.922 133.805)" fill="#A1A1A1"/>
<rect width="5.48387" height="5.5102" transform="matrix(-4.39213e-08 -1 -1 4.35025e-08 225.922 188.645)" fill="#A1A1A1"/>
<rect width="5.48387" height="5.5102" transform="matrix(-4.39213e-08 -1 -1 4.35025e-08 225.922 78.9648)" fill="#A1A1A1"/>
<rect width="5.48387" height="5.5102" transform="matrix(-4.39213e-08 -1 -1 4.35025e-08 225.922 155.742)" fill="#A1A1A1"/>
<rect width="5.48387" height="5.5102" transform="matrix(-4.39213e-08 -1 -1 4.35025e-08 225.922 205.094)" fill="#A1A1A1"/>
<rect width="5.48387" height="5.5102" transform="matrix(-4.39213e-08 -1 -1 4.35025e-08 225.922 95.418)" fill="#A1A1A1"/>
<rect width="5.48387" height="5.5102" transform="matrix(-4.39213e-08 -1 -1 4.35025e-08 203.883 139.289)" fill="#A1A1A1"/>
<rect width="5.48387" height="5.5102" transform="matrix(-4.39213e-08 -1 -1 4.35025e-08 203.883 133.805)" fill="#A1A1A1"/>
<rect width="5.48387" height="5.5102" transform="matrix(-4.39213e-08 -1 -1 4.35025e-08 203.883 188.645)" fill="#A1A1A1"/>
<rect width="5.48387" height="5.5102" transform="matrix(-4.39213e-08 -1 -1 4.35025e-08 203.883 78.9648)" fill="#A1A1A1"/>
<rect width="5.48387" height="5.5102" transform="matrix(-4.39213e-08 -1 -1 4.35025e-08 203.883 155.742)" fill="#A1A1A1"/>
<rect width="5.48387" height="5.5102" transform="matrix(-4.39213e-08 -1 -1 4.35025e-08 203.883 205.094)" fill="#A1A1A1"/>
<rect width="5.48387" height="5.5102" transform="matrix(-4.39213e-08 -1 -1 4.35025e-08 203.883 95.418)" fill="#A1A1A1"/>
<rect width="5.48387" height="5.5102" transform="matrix(-4.39213e-08 -1 -1 4.35025e-08 181.836 139.289)" fill="#A1A1A1"/>
<rect width="5.48387" height="5.5102" transform="matrix(-4.39213e-08 -1 -1 4.35025e-08 181.836 133.805)" fill="#A1A1A1"/>
<rect width="5.48387" height="5.5102" transform="matrix(-4.39213e-08 -1 -1 4.35025e-08 181.836 188.645)" fill="#A1A1A1"/>
<rect width="5.48387" height="5.5102" transform="matrix(-4.39213e-08 -1 -1 4.35025e-08 181.836 78.9648)" fill="#A1A1A1"/>
<rect width="5.48387" height="5.5102" transform="matrix(-4.39213e-08 -1 -1 4.35025e-08 181.836 155.742)" fill="#A1A1A1"/>
<rect width="5.48387" height="5.5102" transform="matrix(-4.39213e-08 -1 -1 4.35025e-08 187.352 155.742)" fill="#A1A1A1"/>
<rect width="5.48387" height="5.5102" transform="matrix(-4.39213e-08 -1 -1 4.35025e-08 192.859 150.258)" fill="#A1A1A1"/>
<rect width="5.48387" height="5.5102" transform="matrix(-4.39213e-08 -1 -1 4.35025e-08 198.367 155.742)" fill="#A1A1A1"/>
<rect width="5.48387" height="5.5102" transform="matrix(-4.39213e-08 -1 -1 4.35025e-08 192.859 161.227)" fill="#A1A1A1"/>
<rect width="5.48387" height="5.5102" transform="matrix(-4.39213e-08 -1 -1 4.35025e-08 181.836 205.094)" fill="#A1A1A1"/>
<rect width="5.48387" height="5.5102" transform="matrix(-4.39213e-08 -1 -1 4.35025e-08 181.836 95.418)" fill="#A1A1A1"/>
<rect width="5.48387" height="5.5102" transform="matrix(-4.39213e-08 -1 -1 4.35025e-08 159.797 139.289)" fill="#A1A1A1"/>
<rect width="5.48387" height="5.5102" transform="matrix(-4.39213e-08 -1 -1 4.35025e-08 159.797 133.805)" fill="#A1A1A1"/>
<rect width="5.48387" height="5.5102" transform="matrix(-4.39213e-08 -1 -1 4.35025e-08 159.797 155.742)" fill="#A1A1A1"/>
<rect width="5.48387" height="5.5102" transform="matrix(-4.39213e-08 -1 -1 4.35025e-08 137.758 139.289)" fill="#A1A1A1"/>
<rect width="5.48387" height="5.5102" transform="matrix(-4.39213e-08 -1 -1 4.35025e-08 137.758 133.805)" fill="#A1A1A1"/>
<rect width="5.48387" height="5.5102" transform="matrix(-4.39213e-08 -1 -1 4.35025e-08 137.758 155.742)" fill="#A1A1A1"/>
<rect width="5.48387" height="5.5102" transform="matrix(-4.39213e-08 -1 -1 4.35025e-08 115.719 139.289)" fill="#A1A1A1"/>
<rect width="5.48387" height="5.5102" transform="matrix(-4.39213e-08 -1 -1 4.35025e-08 115.719 133.805)" fill="#A1A1A1"/>
<rect width="5.48387" height="5.5102" transform="matrix(-4.39213e-08 -1 -1 4.35025e-08 115.719 155.742)" fill="#A1A1A1"/>
<rect width="5.48387" height="5.5102" transform="matrix(-4.39213e-08 -1 -1 4.35025e-08 93.6719 139.289)" fill="#A1A1A1"/>
<rect width="5.48387" height="5.5102" transform="matrix(-4.39213e-08 -1 -1 4.35025e-08 93.6719 133.805)" fill="#A1A1A1"/>
<rect width="5.48387" height="5.5102" transform="matrix(-4.39213e-08 -1 -1 4.35025e-08 93.6719 155.742)" fill="#A1A1A1"/>
<rect width="5.48387" height="5.5102" transform="matrix(-4.39213e-08 -1 -1 4.35025e-08 71.6328 139.289)" fill="#A1A1A1"/>
<rect width="5.48387" height="5.5102" transform="matrix(-4.39213e-08 -1 -1 4.35025e-08 71.6328 133.805)" fill="#A1A1A1"/>
<rect width="5.48387" height="5.5102" transform="matrix(-4.39213e-08 -1 -1 4.35025e-08 71.6328 155.742)" fill="#A1A1A1"/>
<rect width="5.48387" height="5.5102" transform="matrix(-4.39213e-08 -1 -1 4.35025e-08 49.5938 139.289)" fill="#A1A1A1"/>
<rect width="5.48387" height="5.5102" transform="matrix(-4.39213e-08 -1 -1 4.35025e-08 49.5938 133.805)" fill="#A1A1A1"/>
<rect width="5.48387" height="5.5102" transform="matrix(-4.39213e-08 -1 -1 4.35025e-08 49.5938 155.742)" fill="#A1A1A1"/>
<rect width="5.48387" height="5.5102" transform="matrix(-4.39213e-08 -1 -1 4.35025e-08 27.5547 139.289)" fill="#A1A1A1"/>
<rect width="5.48387" height="5.5102" transform="matrix(-4.39213e-08 -1 -1 4.35025e-08 27.5547 133.805)" fill="#A1A1A1"/>
<rect width="5.48387" height="5.5102" transform="matrix(-4.39213e-08 -1 -1 4.35025e-08 27.5547 155.742)" fill="#A1A1A1"/>
<rect width="5.48387" height="5.5102" transform="matrix(-4.39213e-08 -1 -1 4.35025e-08 5.51562 139.289)" fill="#A1A1A1"/>
<rect width="5.48387" height="5.5102" transform="matrix(-4.39213e-08 -1 -1 4.35025e-08 5.51562 133.805)" fill="#A1A1A1"/>
<rect width="5.48387" height="5.5102" transform="matrix(-4.39213e-08 -1 -1 4.35025e-08 5.51562 155.742)" fill="#A1A1A1"/>
<rect width="5.48387" height="5.5102" transform="matrix(-4.39213e-08 -1 -1 4.35025e-08 11.0234 155.742)" fill="#A1A1A1"/>
<rect width="5.48387" height="5.5102" transform="matrix(-4.39213e-08 -1 -1 4.35025e-08 99.1875 155.742)" fill="#A1A1A1"/>
<rect width="5.48387" height="5.5102" transform="matrix(-4.39213e-08 -1 -1 4.35025e-08 16.5312 150.258)" fill="#A1A1A1"/>
<rect width="5.48387" height="5.5102" transform="matrix(-4.39213e-08 -1 -1 4.35025e-08 104.695 150.258)" fill="#A1A1A1"/>
<rect width="5.48387" height="5.5102" transform="matrix(-4.39213e-08 -1 -1 4.35025e-08 22.0391 155.742)" fill="#A1A1A1"/>
<rect width="5.48387" height="5.5102" transform="matrix(-4.39213e-08 -1 -1 4.35025e-08 110.203 155.742)" fill="#A1A1A1"/>
<rect width="5.48387" height="5.5102" transform="matrix(-4.39213e-08 -1 -1 4.35025e-08 16.5312 161.227)" fill="#A1A1A1"/>
<rect width="5.48387" height="5.5102" transform="matrix(-4.39213e-08 -1 -1 4.35025e-08 104.695 161.227)" fill="#A1A1A1"/>
<rect width="5.48387" height="5.5102" transform="matrix(-4.39213e-08 -1 -1 4.35025e-08 270 139.289)" fill="#A1A1A1"/>
<rect width="5.48387" height="5.5102" transform="matrix(-4.39213e-08 -1 -1 4.35025e-08 270 133.805)" fill="#A1A1A1"/>
<rect width="5.48387" height="5.5102" transform="matrix(-4.39213e-08 -1 -1 4.35025e-08 270 188.645)" fill="#A1A1A1"/>
<rect width="5.48387" height="5.5102" transform="matrix(-4.39213e-08 -1 -1 4.35025e-08 270 78.9648)" fill="#A1A1A1"/>
<rect width="5.48387" height="5.5102" transform="matrix(-4.39213e-08 -1 -1 4.35025e-08 270 155.742)" fill="#A1A1A1"/>
<rect width="5.48387" height="5.5102" transform="matrix(-4.39213e-08 -1 -1 4.35025e-08 270 205.094)" fill="#A1A1A1"/>
<rect width="5.48387" height="5.5102" transform="matrix(-4.39213e-08 -1 -1 4.35025e-08 270 95.418)" fill="#A1A1A1"/>
<rect width="5.48387" height="5.5102" transform="matrix(-4.39213e-08 -1 -1 4.35025e-08 247.961 144.773)" fill="#A1A1A1"/>
<rect width="5.48387" height="5.5102" transform="matrix(-4.39213e-08 -1 -1 4.35025e-08 247.961 194.129)" fill="#A1A1A1"/>
<rect width="5.48387" height="5.5102" transform="matrix(-4.39213e-08 -1 -1 4.35025e-08 247.961 84.4492)" fill="#A1A1A1"/>
<rect width="5.48387" height="5.5102" transform="matrix(-4.39213e-08 -1 -1 4.35025e-08 247.961 161.227)" fill="#A1A1A1"/>
<rect width="5.48387" height="5.5102" transform="matrix(-4.39213e-08 -1 -1 4.35025e-08 247.961 210.578)" fill="#A1A1A1"/>
<rect width="5.48387" height="5.5102" transform="matrix(-4.39213e-08 -1 -1 4.35025e-08 247.961 100.902)" fill="#A1A1A1"/>
<rect width="5.48387" height="5.5102" transform="matrix(-4.39213e-08 -1 -1 4.35025e-08 247.961 172.191)" fill="#A1A1A1"/>
<rect width="5.48387" height="5.5102" transform="matrix(-4.39213e-08 -1 -1 4.35025e-08 247.961 221.547)" fill="#A1A1A1"/>
<rect width="5.48387" height="5.5102" transform="matrix(-4.39213e-08 -1 -1 4.35025e-08 247.961 111.871)" fill="#A1A1A1"/>
<rect width="5.48387" height="5.5102" transform="matrix(-4.39213e-08 -1 -1 4.35025e-08 225.922 144.773)" fill="#A1A1A1"/>
<rect width="5.48387" height="5.5102" transform="matrix(-4.39213e-08 -1 -1 4.35025e-08 225.922 194.129)" fill="#A1A1A1"/>
<rect width="5.48387" height="5.5102" transform="matrix(-4.39213e-08 -1 -1 4.35025e-08 225.922 84.4492)" fill="#A1A1A1"/>
<rect width="5.48387" height="5.5102" transform="matrix(-4.39213e-08 -1 -1 4.35025e-08 225.922 161.227)" fill="#A1A1A1"/>
<rect width="5.48387" height="5.5102" transform="matrix(-4.39213e-08 -1 -1 4.35025e-08 225.922 210.578)" fill="#A1A1A1"/>
<rect width="5.48387" height="5.5102" transform="matrix(-4.39213e-08 -1 -1 4.35025e-08 225.922 100.902)" fill="#A1A1A1"/>
<rect width="5.48387" height="5.5102" transform="matrix(-4.39213e-08 -1 -1 4.35025e-08 225.922 172.191)" fill="#A1A1A1"/>
<rect width="5.48387" height="5.5102" transform="matrix(-4.39213e-08 -1 -1 4.35025e-08 225.922 221.547)" fill="#A1A1A1"/>
<rect width="5.48387" height="5.5102" transform="matrix(-4.39213e-08 -1 -1 4.35025e-08 225.922 111.871)" fill="#A1A1A1"/>
<rect width="5.48387" height="5.5102" transform="matrix(-4.39213e-08 -1 -1 4.35025e-08 203.883 144.773)" fill="#A1A1A1"/>
<rect width="5.48387" height="5.5102" transform="matrix(-4.39213e-08 -1 -1 4.35025e-08 203.883 194.129)" fill="#A1A1A1"/>
<rect width="5.48387" height="5.5102" transform="matrix(-4.39213e-08 -1 -1 4.35025e-08 203.883 84.4492)" fill="#A1A1A1"/>
<rect width="5.48387" height="5.5102" transform="matrix(-4.39213e-08 -1 -1 4.35025e-08 203.883 161.227)" fill="#A1A1A1"/>
<rect width="5.48387" height="5.5102" transform="matrix(-4.39213e-08 -1 -1 4.35025e-08 203.883 210.578)" fill="#A1A1A1"/>
<rect width="5.48387" height="5.5102" transform="matrix(-4.39213e-08 -1 -1 4.35025e-08 203.883 100.902)" fill="#A1A1A1"/>
<rect width="5.48387" height="5.5102" transform="matrix(-4.39213e-08 -1 -1 4.35025e-08 203.883 172.191)" fill="#A1A1A1"/>
<rect width="5.48387" height="5.5102" transform="matrix(-4.39213e-08 -1 -1 4.35025e-08 203.883 221.547)" fill="#A1A1A1"/>
<rect width="5.48387" height="5.5102" transform="matrix(-4.39213e-08 -1 -1 4.35025e-08 203.883 111.871)" fill="#A1A1A1"/>
<rect width="5.48387" height="5.5102" transform="matrix(-4.39213e-08 -1 -1 4.35025e-08 181.836 144.773)" fill="#A1A1A1"/>
<rect width="5.48387" height="5.5102" transform="matrix(-4.39213e-08 -1 -1 4.35025e-08 181.836 194.129)" fill="#A1A1A1"/>
<rect width="5.48387" height="5.5102" transform="matrix(-4.39213e-08 -1 -1 4.35025e-08 181.836 84.4492)" fill="#A1A1A1"/>
<rect width="5.48387" height="5.5102" transform="matrix(-4.39213e-08 -1 -1 4.35025e-08 181.836 161.227)" fill="#A1A1A1"/>
<rect width="5.48387" height="5.5102" transform="matrix(-4.39213e-08 -1 -1 4.35025e-08 181.836 210.578)" fill="#A1A1A1"/>
<rect width="5.48387" height="5.5102" transform="matrix(-4.39213e-08 -1 -1 4.35025e-08 181.836 100.902)" fill="#A1A1A1"/>
<rect width="5.48387" height="5.5102" transform="matrix(-4.39213e-08 -1 -1 4.35025e-08 181.836 172.191)" fill="#A1A1A1"/>
<rect width="5.48387" height="5.5102" transform="matrix(-4.39213e-08 -1 -1 4.35025e-08 181.836 221.547)" fill="#A1A1A1"/>
<rect width="5.48387" height="5.5102" transform="matrix(-4.39213e-08 -1 -1 4.35025e-08 181.836 111.871)" fill="#A1A1A1"/>
<rect width="5.48387" height="5.5102" transform="matrix(-4.39213e-08 -1 -1 4.35025e-08 159.797 144.773)" fill="#A1A1A1"/>
<rect width="5.48387" height="5.5102" transform="matrix(-4.39213e-08 -1 -1 4.35025e-08 159.797 161.227)" fill="#A1A1A1"/>
<rect width="5.48387" height="5.5102" transform="matrix(-4.39213e-08 -1 -1 4.35025e-08 159.797 172.191)" fill="#A1A1A1"/>
<rect width="5.48387" height="5.5102" transform="matrix(-4.39213e-08 -1 -1 4.35025e-08 137.758 144.773)" fill="#A1A1A1"/>
<rect width="5.48387" height="5.5102" transform="matrix(-4.39213e-08 -1 -1 4.35025e-08 137.758 161.227)" fill="#A1A1A1"/>
<rect width="5.48387" height="5.5102" transform="matrix(-4.39213e-08 -1 -1 4.35025e-08 137.758 172.191)" fill="#A1A1A1"/>
<rect width="5.48387" height="5.5102" transform="matrix(-4.39213e-08 -1 -1 4.35025e-08 115.719 144.773)" fill="#A1A1A1"/>
<rect width="5.48387" height="5.5102" transform="matrix(-4.39213e-08 -1 -1 4.35025e-08 115.719 161.227)" fill="#A1A1A1"/>
<rect width="5.48387" height="5.5102" transform="matrix(-4.39213e-08 -1 -1 4.35025e-08 115.719 172.191)" fill="#A1A1A1"/>
<rect width="5.48387" height="5.5102" transform="matrix(-4.39213e-08 -1 -1 4.35025e-08 93.6719 144.773)" fill="#A1A1A1"/>
<rect width="5.48387" height="5.5102" transform="matrix(-4.39213e-08 -1 -1 4.35025e-08 93.6719 161.227)" fill="#A1A1A1"/>
<rect width="5.48387" height="5.5102" transform="matrix(-4.39213e-08 -1 -1 4.35025e-08 93.6719 172.191)" fill="#A1A1A1"/>
<rect width="5.48387" height="5.5102" transform="matrix(-4.39213e-08 -1 -1 4.35025e-08 71.6328 144.773)" fill="#A1A1A1"/>
<rect width="5.48387" height="5.5102" transform="matrix(-4.39213e-08 -1 -1 4.35025e-08 71.6328 161.227)" fill="#A1A1A1"/>
<rect width="5.48387" height="5.5102" transform="matrix(-4.39213e-08 -1 -1 4.35025e-08 71.6328 172.191)" fill="#A1A1A1"/>
<rect width="5.48387" height="5.5102" transform="matrix(-4.39213e-08 -1 -1 4.35025e-08 49.5938 144.773)" fill="#A1A1A1"/>
<rect width="5.48387" height="5.5102" transform="matrix(-4.39213e-08 -1 -1 4.35025e-08 49.5938 161.227)" fill="#A1A1A1"/>
<rect width="5.48387" height="5.5102" transform="matrix(-4.39213e-08 -1 -1 4.35025e-08 49.5938 172.191)" fill="#A1A1A1"/>
<rect width="5.48387" height="5.5102" transform="matrix(-4.39213e-08 -1 -1 4.35025e-08 27.5547 144.773)" fill="#A1A1A1"/>
<rect width="5.48387" height="5.5102" transform="matrix(-4.39213e-08 -1 -1 4.35025e-08 27.5547 161.227)" fill="#A1A1A1"/>
<rect width="5.48387" height="5.5102" transform="matrix(-4.39213e-08 -1 -1 4.35025e-08 27.5547 172.191)" fill="#A1A1A1"/>
<rect width="5.48387" height="5.5102" transform="matrix(-4.39213e-08 -1 -1 4.35025e-08 5.51562 144.773)" fill="#A1A1A1"/>
<rect width="5.48387" height="5.5102" transform="matrix(-4.39213e-08 -1 -1 4.35025e-08 5.51562 161.227)" fill="#A1A1A1"/>
<rect width="5.48387" height="5.5102" transform="matrix(-4.39213e-08 -1 -1 4.35025e-08 5.51562 172.191)" fill="#A1A1A1"/>
<rect width="5.48387" height="5.5102" transform="matrix(-4.39213e-08 -1 -1 4.35025e-08 270 144.773)" fill="#A1A1A1"/>
<rect width="5.48387" height="5.5102" transform="matrix(-4.39213e-08 -1 -1 4.35025e-08 270 194.129)" fill="#A1A1A1"/>
<rect width="5.48387" height="5.5102" transform="matrix(-4.39213e-08 -1 -1 4.35025e-08 270 84.4492)" fill="#A1A1A1"/>
<rect width="5.48387" height="5.5102" transform="matrix(-4.39213e-08 -1 -1 4.35025e-08 264.492 84.4492)" fill="#A1A1A1"/>
<rect width="5.48387" height="5.5102" transform="matrix(-4.39213e-08 -1 -1 4.35025e-08 264.492 194.129)" fill="#A1A1A1"/>
<rect width="5.48387" height="5.5102" transform="matrix(-4.39213e-08 -1 -1 4.35025e-08 258.977 89.9336)" fill="#A1A1A1"/>
<rect width="5.48387" height="5.5102" transform="matrix(-4.39213e-08 -1 -1 4.35025e-08 258.977 199.613)" fill="#A1A1A1"/>
<rect width="5.48387" height="5.5102" transform="matrix(-4.39213e-08 -1 -1 4.35025e-08 264.492 95.418)" fill="#A1A1A1"/>
<rect width="5.48387" height="5.5102" transform="matrix(-4.39213e-08 -1 -1 4.35025e-08 264.492 205.094)" fill="#A1A1A1"/>
<rect width="5.48387" height="5.5102" transform="matrix(-4.39213e-08 -1 -1 4.35025e-08 264.492 106.387)" fill="#A1A1A1"/>
<rect width="5.48387" height="5.5102" transform="matrix(-4.39213e-08 -1 -1 4.35025e-08 264.492 216.062)" fill="#A1A1A1"/>
<rect width="5.48387" height="5.5102" transform="matrix(-4.39213e-08 -1 -1 4.35025e-08 258.977 111.871)" fill="#A1A1A1"/>
<rect width="5.48387" height="5.5102" transform="matrix(-4.39213e-08 -1 -1 4.35025e-08 258.977 221.547)" fill="#A1A1A1"/>
<rect width="5.48387" height="5.5102" transform="matrix(-4.39213e-08 -1 -1 4.35025e-08 264.492 117.355)" fill="#A1A1A1"/>
<rect width="5.48387" height="5.5102" transform="matrix(-4.39213e-08 -1 -1 4.35025e-08 264.492 227.031)" fill="#A1A1A1"/>
<rect width="5.48387" height="5.5102" transform="matrix(-4.39213e-08 -1 -1 4.35025e-08 264.492 111.871)" fill="#A1A1A1"/>
<rect width="5.48387" height="5.5102" transform="matrix(-4.39213e-08 -1 -1 4.35025e-08 264.492 221.547)" fill="#A1A1A1"/>
<rect width="5.48387" height="5.5102" transform="matrix(-4.39213e-08 -1 -1 4.35025e-08 264.492 89.9336)" fill="#A1A1A1"/>
<rect width="5.48387" height="5.5102" transform="matrix(-4.39213e-08 -1 -1 4.35025e-08 264.492 199.613)" fill="#A1A1A1"/>
<rect width="5.48387" height="5.5102" transform="matrix(-4.39213e-08 -1 -1 4.35025e-08 270 161.227)" fill="#A1A1A1"/>
<rect width="5.48387" height="5.5102" transform="matrix(-4.39213e-08 -1 -1 4.35025e-08 270 210.578)" fill="#A1A1A1"/>
<rect width="5.48387" height="5.5102" transform="matrix(-4.39213e-08 -1 -1 4.35025e-08 270 100.902)" fill="#A1A1A1"/>
<rect width="5.48387" height="5.5102" transform="matrix(-4.39213e-08 -1 -1 4.35025e-08 270 172.191)" fill="#A1A1A1"/>
<rect width="5.48387" height="5.5102" transform="matrix(-4.39213e-08 -1 -1 4.35025e-08 270 221.547)" fill="#A1A1A1"/>
<rect width="5.48387" height="5.5102" transform="matrix(-4.39213e-08 -1 -1 4.35025e-08 270 111.871)" fill="#A1A1A1"/>
<rect width="5.48387" height="5.5102" transform="matrix(-4.39213e-08 -1 -1 4.35025e-08 247.961 150.258)" fill="#A1A1A1"/>
<rect width="5.48387" height="5.5102" transform="matrix(-4.39213e-08 -1 -1 4.35025e-08 247.961 199.613)" fill="#A1A1A1"/>
<rect width="5.48387" height="5.5102" transform="matrix(-4.39213e-08 -1 -1 4.35025e-08 247.961 89.9336)" fill="#A1A1A1"/>
<rect width="5.48387" height="5.5102" transform="matrix(-4.39213e-08 -1 -1 4.35025e-08 247.961 166.707)" fill="#A1A1A1"/>
<rect width="5.48387" height="5.5102" transform="matrix(-4.39213e-08 -1 -1 4.35025e-08 247.961 216.062)" fill="#A1A1A1"/>
<rect width="5.48387" height="5.5102" transform="matrix(-4.39213e-08 -1 -1 4.35025e-08 247.961 106.387)" fill="#A1A1A1"/>
<rect width="5.48387" height="5.5102" transform="matrix(-4.39213e-08 -1 -1 4.35025e-08 247.961 177.676)" fill="#A1A1A1"/>
<rect width="5.48387" height="5.5102" transform="matrix(-4.39213e-08 -1 -1 4.35025e-08 247.961 227.031)" fill="#A1A1A1"/>
<rect width="5.48387" height="5.5102" transform="matrix(-4.39213e-08 -1 -1 4.35025e-08 247.961 232.516)" fill="#A1A1A1"/>
<rect width="5.48387" height="5.5102" transform="matrix(-4.39213e-08 -1 -1 4.35025e-08 247.961 117.355)" fill="#A1A1A1"/>
<rect width="5.48387" height="5.5102" transform="matrix(-4.39213e-08 -1 -1 4.35025e-08 247.961 122.836)" fill="#A1A1A1"/>
<rect width="5.48387" height="5.5102" transform="matrix(-4.39213e-08 -1 -1 4.35025e-08 225.922 150.258)" fill="#A1A1A1"/>
<rect width="5.48387" height="5.5102" transform="matrix(-4.39213e-08 -1 -1 4.35025e-08 225.922 199.613)" fill="#A1A1A1"/>
<rect width="5.48387" height="5.5102" transform="matrix(-4.39213e-08 -1 -1 4.35025e-08 225.922 89.9336)" fill="#A1A1A1"/>
<rect width="5.48387" height="5.5102" transform="matrix(-4.39213e-08 -1 -1 4.35025e-08 225.922 166.707)" fill="#A1A1A1"/>
<rect width="5.48387" height="5.5102" transform="matrix(-4.39213e-08 -1 -1 4.35025e-08 225.922 216.062)" fill="#A1A1A1"/>
<rect width="5.48387" height="5.5102" transform="matrix(-4.39213e-08 -1 -1 4.35025e-08 225.922 106.387)" fill="#A1A1A1"/>
<rect width="5.48387" height="5.5102" transform="matrix(-4.39213e-08 -1 -1 4.35025e-08 225.922 177.676)" fill="#A1A1A1"/>
<rect width="5.48387" height="5.5102" transform="matrix(-4.39213e-08 -1 -1 4.35025e-08 225.922 227.031)" fill="#A1A1A1"/>
<rect width="5.48387" height="5.5102" transform="matrix(-4.39213e-08 -1 -1 4.35025e-08 225.922 232.516)" fill="#A1A1A1"/>
<rect width="5.48387" height="5.5102" transform="matrix(-4.39213e-08 -1 -1 4.35025e-08 225.922 117.355)" fill="#A1A1A1"/>
<rect width="5.48387" height="5.5102" transform="matrix(-4.39213e-08 -1 -1 4.35025e-08 225.922 122.836)" fill="#A1A1A1"/>
<rect width="5.48387" height="5.5102" transform="matrix(-4.39213e-08 -1 -1 4.35025e-08 203.883 150.258)" fill="#A1A1A1"/>
<rect width="5.48387" height="5.5102" transform="matrix(-4.39213e-08 -1 -1 4.35025e-08 203.883 199.613)" fill="#A1A1A1"/>
<rect width="5.48387" height="5.5102" transform="matrix(-4.39213e-08 -1 -1 4.35025e-08 203.883 89.9336)" fill="#A1A1A1"/>
<rect width="5.48387" height="5.5102" transform="matrix(-4.39213e-08 -1 -1 4.35025e-08 203.883 166.707)" fill="#A1A1A1"/>
<rect width="5.48387" height="5.5102" transform="matrix(-4.39213e-08 -1 -1 4.35025e-08 203.883 216.062)" fill="#A1A1A1"/>
<rect width="5.48387" height="5.5102" transform="matrix(-4.39213e-08 -1 -1 4.35025e-08 203.883 106.387)" fill="#A1A1A1"/>
<rect width="5.48387" height="5.5102" transform="matrix(-4.39213e-08 -1 -1 4.35025e-08 203.883 177.676)" fill="#A1A1A1"/>
<rect width="5.48387" height="5.5102" transform="matrix(-4.39213e-08 -1 -1 4.35025e-08 203.883 227.031)" fill="#A1A1A1"/>
<rect width="5.48387" height="5.5102" transform="matrix(-4.39213e-08 -1 -1 4.35025e-08 203.883 232.516)" fill="#A1A1A1"/>
<rect width="5.48387" height="5.5102" transform="matrix(-4.39213e-08 -1 -1 4.35025e-08 203.883 117.355)" fill="#A1A1A1"/>
<rect width="5.48387" height="5.5102" transform="matrix(-4.39213e-08 -1 -1 4.35025e-08 203.883 122.836)" fill="#A1A1A1"/>
<rect width="5.48387" height="5.5102" transform="matrix(-4.39213e-08 -1 -1 4.35025e-08 181.836 150.258)" fill="#A1A1A1"/>
<rect width="5.48387" height="5.5102" transform="matrix(-4.39213e-08 -1 -1 4.35025e-08 181.836 199.613)" fill="#A1A1A1"/>
<rect width="5.48387" height="5.5102" transform="matrix(-4.39213e-08 -1 -1 4.35025e-08 181.836 89.9336)" fill="#A1A1A1"/>
<rect width="5.48387" height="5.5102" transform="matrix(-4.39213e-08 -1 -1 4.35025e-08 181.836 166.707)" fill="#A1A1A1"/>
<rect width="5.48387" height="5.5102" transform="matrix(-4.39213e-08 -1 -1 4.35025e-08 181.836 216.062)" fill="#A1A1A1"/>
<rect width="5.48387" height="5.5102" transform="matrix(-4.39213e-08 -1 -1 4.35025e-08 181.836 106.387)" fill="#A1A1A1"/>
<rect width="5.48387" height="5.5102" transform="matrix(-4.39213e-08 -1 -1 4.35025e-08 181.836 177.676)" fill="#A1A1A1"/>
<rect width="5.48387" height="5.5102" transform="matrix(-4.39213e-08 -1 -1 4.35025e-08 181.836 227.031)" fill="#A1A1A1"/>
<rect width="5.48387" height="5.5102" transform="matrix(-4.39213e-08 -1 -1 4.35025e-08 181.836 232.516)" fill="#A1A1A1"/>
<rect width="5.48387" height="5.5102" transform="matrix(-4.39213e-08 -1 -1 4.35025e-08 181.836 117.355)" fill="#A1A1A1"/>
<rect width="5.48387" height="5.5102" transform="matrix(-4.39213e-08 -1 -1 4.35025e-08 181.836 122.836)" fill="#A1A1A1"/>
<rect width="5.48387" height="5.5102" transform="matrix(-4.39213e-08 -1 -1 4.35025e-08 159.797 150.258)" fill="#A1A1A1"/>
<rect width="5.48387" height="5.5102" transform="matrix(-4.39213e-08 -1 -1 4.35025e-08 159.797 166.707)" fill="#A1A1A1"/>
<rect width="5.48387" height="5.5102" transform="matrix(-4.39213e-08 -1 -1 4.35025e-08 159.797 177.676)" fill="#A1A1A1"/>
<rect width="5.48387" height="5.5102" transform="matrix(-4.39213e-08 -1 -1 4.35025e-08 137.758 150.258)" fill="#A1A1A1"/>
<rect width="5.48387" height="5.5102" transform="matrix(-4.39213e-08 -1 -1 4.35025e-08 137.758 166.707)" fill="#A1A1A1"/>
<rect width="5.48387" height="5.5102" transform="matrix(-4.39213e-08 -1 -1 4.35025e-08 137.758 177.676)" fill="#A1A1A1"/>
<rect width="5.48387" height="5.5102" transform="matrix(-4.39213e-08 -1 -1 4.35025e-08 115.719 150.258)" fill="#A1A1A1"/>
<rect width="5.48387" height="5.5102" transform="matrix(-4.39213e-08 -1 -1 4.35025e-08 115.719 166.707)" fill="#A1A1A1"/>
<rect width="5.48387" height="5.5102" transform="matrix(-4.39213e-08 -1 -1 4.35025e-08 115.719 177.676)" fill="#A1A1A1"/>
<rect width="5.48387" height="5.5102" transform="matrix(-4.39213e-08 -1 -1 4.35025e-08 93.6719 150.258)" fill="#A1A1A1"/>
<rect width="5.48387" height="5.5102" transform="matrix(-4.39213e-08 -1 -1 4.35025e-08 93.6719 166.707)" fill="#A1A1A1"/>
<rect width="5.48387" height="5.5102" transform="matrix(-4.39213e-08 -1 -1 4.35025e-08 93.6719 177.676)" fill="#A1A1A1"/>
<rect width="5.48387" height="5.5102" transform="matrix(-4.39213e-08 -1 -1 4.35025e-08 71.6328 150.258)" fill="#A1A1A1"/>
<rect width="5.48387" height="5.5102" transform="matrix(-4.39213e-08 -1 -1 4.35025e-08 71.6328 166.707)" fill="#A1A1A1"/>
<rect width="5.48387" height="5.5102" transform="matrix(-4.39213e-08 -1 -1 4.35025e-08 71.6328 177.676)" fill="#A1A1A1"/>
<rect width="5.48387" height="5.5102" transform="matrix(-4.39213e-08 -1 -1 4.35025e-08 49.5938 150.258)" fill="#A1A1A1"/>
<rect width="5.48387" height="5.5102" transform="matrix(-4.39213e-08 -1 -1 4.35025e-08 49.5938 166.707)" fill="#A1A1A1"/>
<rect width="5.48387" height="5.5102" transform="matrix(-4.39213e-08 -1 -1 4.35025e-08 49.5938 177.676)" fill="#A1A1A1"/>
<rect width="5.48387" height="5.5102" transform="matrix(-4.39213e-08 -1 -1 4.35025e-08 27.5547 150.258)" fill="#A1A1A1"/>
<rect width="5.48387" height="5.5102" transform="matrix(-4.39213e-08 -1 -1 4.35025e-08 27.5547 166.707)" fill="#A1A1A1"/>
<rect width="5.48387" height="5.5102" transform="matrix(-4.39213e-08 -1 -1 4.35025e-08 27.5547 177.676)" fill="#A1A1A1"/>
<rect width="5.48387" height="5.5102" transform="matrix(-4.39213e-08 -1 -1 4.35025e-08 5.51562 150.258)" fill="#A1A1A1"/>
<rect width="5.48387" height="5.5102" transform="matrix(-4.39213e-08 -1 -1 4.35025e-08 5.51562 166.707)" fill="#A1A1A1"/>
<rect width="5.48387" height="5.5102" transform="matrix(-4.39213e-08 -1 -1 4.35025e-08 5.51562 177.676)" fill="#A1A1A1"/>
<rect width="5.48387" height="5.5102" transform="matrix(-4.39213e-08 -1 -1 4.35025e-08 270 150.258)" fill="#A1A1A1"/>
<rect width="5.48387" height="5.5102" transform="matrix(-4.39213e-08 -1 -1 4.35025e-08 270 199.613)" fill="#A1A1A1"/>
<rect width="5.48387" height="5.5102" transform="matrix(-4.39213e-08 -1 -1 4.35025e-08 270 89.9336)" fill="#A1A1A1"/>
<rect width="5.48387" height="5.5102" transform="matrix(-4.39213e-08 -1 -1 4.35025e-08 270 166.707)" fill="#A1A1A1"/>
<rect width="5.48387" height="5.5102" transform="matrix(-4.39213e-08 -1 -1 4.35025e-08 270 216.062)" fill="#A1A1A1"/>
<rect width="5.48387" height="5.5102" transform="matrix(-4.39213e-08 -1 -1 4.35025e-08 270 106.387)" fill="#A1A1A1"/>
<rect width="5.48387" height="5.5102" transform="matrix(-4.39213e-08 -1 -1 4.35025e-08 270 177.676)" fill="#A1A1A1"/>
<rect width="5.48387" height="5.5102" transform="matrix(-4.39213e-08 -1 -1 4.35025e-08 270 227.031)" fill="#A1A1A1"/>
<rect width="5.48387" height="5.5102" transform="matrix(-4.39213e-08 -1 -1 4.35025e-08 270 232.516)" fill="#A1A1A1"/>
<rect width="5.48387" height="5.5102" transform="matrix(-4.39213e-08 -1 -1 4.35025e-08 270 117.355)" fill="#A1A1A1"/>
<rect width="5.48387" height="5.5102" transform="matrix(-4.39213e-08 -1 -1 4.35025e-08 270 122.836)" fill="#A1A1A1"/>
<rect width="5.48387" height="5.5102" transform="matrix(-4.39213e-08 -1 -1 4.35025e-08 253.469 183.16)" fill="#A1A1A1"/>
<rect width="5.48387" height="5.5102" transform="matrix(-4.39213e-08 -1 -1 4.35025e-08 253.469 238)" fill="#A1A1A1"/>
<rect width="5.48387" height="5.5102" transform="matrix(-4.39213e-08 -1 -1 4.35025e-08 181.836 128.32)" fill="#A1A1A1"/>
<rect width="5.48387" height="5.5102" transform="matrix(-4.39213e-08 -1 -1 4.35025e-08 181.836 73.4844)" fill="#A1A1A1"/>
<rect width="5.48387" height="5.5102" transform="matrix(-4.39213e-08 -1 -1 4.35025e-08 137.758 128.32)" fill="#A1A1A1"/>
<rect width="5.48387" height="5.5102" transform="matrix(-4.39213e-08 -1 -1 4.35025e-08 93.6719 128.32)" fill="#A1A1A1"/>
<rect width="5.48387" height="5.5102" transform="matrix(-4.39213e-08 -1 -1 4.35025e-08 49.5938 128.32)" fill="#A1A1A1"/>
<rect width="5.48387" height="5.5102" transform="matrix(-4.39213e-08 -1 -1 4.35025e-08 22.0391 128.32)" fill="#A1A1A1"/>
<rect width="5.48387" height="5.5102" transform="matrix(-4.39213e-08 -1 -1 4.35025e-08 22.0391 183.16)" fill="#A1A1A1"/>
<rect width="5.48387" height="5.5102" transform="matrix(-4.39213e-08 -1 -1 4.35025e-08 225.922 183.16)" fill="#A1A1A1"/>
<rect width="5.48387" height="5.5102" transform="matrix(-4.39213e-08 -1 -1 4.35025e-08 225.922 238)" fill="#A1A1A1"/>
<rect width="5.48387" height="5.5102" transform="matrix(-4.39213e-08 -1 -1 4.35025e-08 181.836 183.16)" fill="#A1A1A1"/>
<rect width="5.48387" height="5.5102" transform="matrix(-4.39213e-08 -1 -1 4.35025e-08 181.836 238)" fill="#A1A1A1"/>
<rect width="5.48387" height="5.5102" transform="matrix(-4.39213e-08 -1 -1 4.35025e-08 137.758 183.16)" fill="#A1A1A1"/>
<rect width="5.48387" height="5.5102" transform="matrix(-4.39213e-08 -1 -1 4.35025e-08 93.6719 183.16)" fill="#A1A1A1"/>
<rect width="5.48387" height="5.5102" transform="matrix(-4.39213e-08 -1 -1 4.35025e-08 49.5938 183.16)" fill="#A1A1A1"/>
<rect width="5.48387" height="5.5102" transform="matrix(-4.39213e-08 -1 -1 4.35025e-08 220.414 128.32)" fill="#A1A1A1"/>
<rect width="5.48387" height="5.5102" transform="matrix(-4.39213e-08 -1 -1 4.35025e-08 220.414 73.4844)" fill="#A1A1A1"/>
<rect width="5.48387" height="5.5102" transform="matrix(-4.39213e-08 -1 -1 4.35025e-08 247.961 128.32)" fill="#A1A1A1"/>
<rect width="5.48387" height="5.5102" transform="matrix(-4.39213e-08 -1 -1 4.35025e-08 247.961 73.4844)" fill="#A1A1A1"/>
<rect width="5.48387" height="5.5102" transform="matrix(-4.39213e-08 -1 -1 4.35025e-08 247.961 183.16)" fill="#A1A1A1"/>
<rect width="5.48387" height="5.5102" transform="matrix(-4.39213e-08 -1 -1 4.35025e-08 247.961 238)" fill="#A1A1A1"/>
<rect width="5.48387" height="5.5102" transform="matrix(-4.39213e-08 -1 -1 4.35025e-08 176.328 128.32)" fill="#A1A1A1"/>
<rect width="5.48387" height="5.5102" transform="matrix(-4.39213e-08 -1 -1 4.35025e-08 132.25 128.32)" fill="#A1A1A1"/>
<rect width="5.48387" height="5.5102" transform="matrix(-4.39213e-08 -1 -1 4.35025e-08 88.1641 128.32)" fill="#A1A1A1"/>
<rect width="5.48387" height="5.5102" transform="matrix(-4.39213e-08 -1 -1 4.35025e-08 44.0859 128.32)" fill="#A1A1A1"/>
<rect width="5.48387" height="5.5102" transform="matrix(-4.39213e-08 -1 -1 4.35025e-08 16.5312 128.32)" fill="#A1A1A1"/>
<rect width="5.48387" height="5.5102" transform="matrix(-4.39213e-08 -1 -1 4.35025e-08 16.5312 183.16)" fill="#A1A1A1"/>
<rect width="5.48387" height="5.5102" transform="matrix(-4.39213e-08 -1 -1 4.35025e-08 220.414 183.16)" fill="#A1A1A1"/>
<rect width="5.48387" height="5.5102" transform="matrix(-4.39213e-08 -1 -1 4.35025e-08 220.414 238)" fill="#A1A1A1"/>
<rect width="5.48387" height="5.5102" transform="matrix(-4.39213e-08 -1 -1 4.35025e-08 176.328 183.16)" fill="#A1A1A1"/>
<rect width="5.48387" height="5.5102" transform="matrix(-4.39213e-08 -1 -1 4.35025e-08 132.25 183.16)" fill="#A1A1A1"/>
<rect width="5.48387" height="5.5102" transform="matrix(-4.39213e-08 -1 -1 4.35025e-08 88.1641 183.16)" fill="#A1A1A1"/>
<rect width="5.48387" height="5.5102" transform="matrix(-4.39213e-08 -1 -1 4.35025e-08 44.0859 183.16)" fill="#A1A1A1"/>
<rect width="5.48387" height="5.5102" transform="matrix(-4.39213e-08 -1 -1 4.35025e-08 214.898 128.32)" fill="#A1A1A1"/>
<rect width="5.48387" height="5.5102" transform="matrix(-4.39213e-08 -1 -1 4.35025e-08 214.898 73.4844)" fill="#A1A1A1"/>
<rect width="5.48387" height="5.5102" transform="matrix(-4.39213e-08 -1 -1 4.35025e-08 170.82 128.32)" fill="#A1A1A1"/>
<rect width="5.48387" height="5.5102" transform="matrix(-4.39213e-08 -1 -1 4.35025e-08 126.734 128.32)" fill="#A1A1A1"/>
<rect width="5.48387" height="5.5102" transform="matrix(-4.39213e-08 -1 -1 4.35025e-08 82.6562 128.32)" fill="#A1A1A1"/>
<rect width="5.48387" height="5.5102" transform="matrix(-4.39213e-08 -1 -1 4.35025e-08 192.859 100.902)" fill="#A1A1A1"/>
<rect width="5.48387" height="5.5102" transform="matrix(-4.39213e-08 -1 -1 4.35025e-08 148.781 100.902)" fill="#A1A1A1"/>
<rect width="5.48387" height="5.5102" transform="matrix(-4.39213e-08 -1 -1 4.35025e-08 148.781 210.578)" fill="#A1A1A1"/>
<rect width="5.48387" height="5.5102" transform="matrix(-4.39213e-08 -1 -1 4.35025e-08 192.859 210.578)" fill="#A1A1A1"/>
<rect width="5.48387" height="5.5102" transform="matrix(-4.39213e-08 -1 -1 4.35025e-08 214.898 210.578)" fill="#A1A1A1"/>
<rect width="5.48387" height="5.5102" transform="matrix(-4.39213e-08 -1 -1 4.35025e-08 236.938 210.578)" fill="#A1A1A1"/>
<rect width="5.48387" height="5.5102" transform="matrix(-4.39213e-08 -1 -1 4.35025e-08 258.977 155.742)" fill="#A1A1A1"/>
<rect width="5.48387" height="5.5102" transform="matrix(-4.39213e-08 -1 -1 4.35025e-08 236.938 155.742)" fill="#A1A1A1"/>
<rect width="5.48387" height="5.5102" transform="matrix(-4.39213e-08 -1 -1 4.35025e-08 214.898 155.742)" fill="#A1A1A1"/>
<rect width="5.48387" height="5.5102" transform="matrix(-4.39213e-08 -1 -1 4.35025e-08 170.82 155.742)" fill="#A1A1A1"/>
<rect width="5.48387" height="5.5102" transform="matrix(-4.39213e-08 -1 -1 4.35025e-08 148.781 155.742)" fill="#A1A1A1"/>
<rect width="5.48387" height="5.5102" transform="matrix(-4.39213e-08 -1 -1 4.35025e-08 126.734 155.742)" fill="#A1A1A1"/>
<rect width="5.48387" height="5.5102" transform="matrix(-4.39213e-08 -1 -1 4.35025e-08 82.6562 155.742)" fill="#A1A1A1"/>
<rect width="5.48387" height="5.5102" transform="matrix(-4.39213e-08 -1 -1 4.35025e-08 60.6172 155.742)" fill="#A1A1A1"/>
<rect width="5.48387" height="5.5102" transform="matrix(-4.39213e-08 -1 -1 4.35025e-08 38.5703 155.742)" fill="#A1A1A1"/>
<rect width="5.48387" height="5.5102" transform="matrix(-4.39213e-08 -1 -1 4.35025e-08 115.719 100.902)" fill="#A1A1A1"/>
<rect width="5.48387" height="5.5102" transform="matrix(-4.39213e-08 -1 -1 4.35025e-08 115.719 210.578)" fill="#A1A1A1"/>
<rect width="5.48387" height="5.5102" transform="matrix(-4.39213e-08 -1 -1 4.35025e-08 82.6562 100.902)" fill="#A1A1A1"/>
<rect width="5.48387" height="5.5102" transform="matrix(-4.39213e-08 -1 -1 4.35025e-08 82.6562 210.578)" fill="#A1A1A1"/>
<rect width="5.48387" height="5.5102" transform="matrix(-4.39213e-08 -1 -1 4.35025e-08 49.5938 100.902)" fill="#A1A1A1"/>
<rect width="5.48387" height="5.5102" transform="matrix(-4.39213e-08 -1 -1 4.35025e-08 49.5938 210.578)" fill="#A1A1A1"/>
<rect width="5.48387" height="5.5102" transform="matrix(-4.39213e-08 -1 -1 4.35025e-08 16.5312 100.902)" fill="#A1A1A1"/>
<rect width="5.48387" height="5.5102" transform="matrix(-4.39213e-08 -1 -1 4.35025e-08 16.5312 210.578)" fill="#A1A1A1"/>
<rect width="5.48387" height="5.5102" transform="matrix(-4.39213e-08 -1 -1 4.35025e-08 214.898 100.902)" fill="#A1A1A1"/>
<rect width="5.48387" height="5.5102" transform="matrix(-4.39213e-08 -1 -1 4.35025e-08 236.938 100.902)" fill="#A1A1A1"/>
<rect width="5.48387" height="5.5102" transform="matrix(-4.39213e-08 -1 -1 4.35025e-08 38.5703 128.32)" fill="#A1A1A1"/>
<rect width="5.48387" height="5.5102" transform="matrix(-4.39213e-08 -1 -1 4.35025e-08 11.0234 128.32)" fill="#A1A1A1"/>
<rect width="5.48387" height="5.5102" transform="matrix(-4.39213e-08 -1 -1 4.35025e-08 11.0234 183.16)" fill="#A1A1A1"/>
<rect width="5.48387" height="5.5102" transform="matrix(-4.39213e-08 -1 -1 4.35025e-08 214.898 183.16)" fill="#A1A1A1"/>
<rect width="5.48387" height="5.5102" transform="matrix(-4.39213e-08 -1 -1 4.35025e-08 214.898 238)" fill="#A1A1A1"/>
<rect width="5.48387" height="5.5102" transform="matrix(-4.39213e-08 -1 -1 4.35025e-08 170.82 183.16)" fill="#A1A1A1"/>
<rect width="5.48387" height="5.5102" transform="matrix(-4.39213e-08 -1 -1 4.35025e-08 126.734 183.16)" fill="#A1A1A1"/>
<rect width="5.48387" height="5.5102" transform="matrix(-4.39213e-08 -1 -1 4.35025e-08 82.6562 183.16)" fill="#A1A1A1"/>
<rect width="5.48387" height="5.5102" transform="matrix(-4.39213e-08 -1 -1 4.35025e-08 38.5703 183.16)" fill="#A1A1A1"/>
<rect width="5.48387" height="5.5102" transform="matrix(-4.39213e-08 -1 -1 4.35025e-08 209.391 128.32)" fill="#A1A1A1"/>
<rect width="5.48387" height="5.5102" transform="matrix(-4.39213e-08 -1 -1 4.35025e-08 209.391 73.4844)" fill="#A1A1A1"/>
<rect width="5.48387" height="5.5102" transform="matrix(-4.39213e-08 -1 -1 4.35025e-08 165.305 128.32)" fill="#A1A1A1"/>
<rect width="5.48387" height="5.5102" transform="matrix(-4.39213e-08 -1 -1 4.35025e-08 121.227 128.32)" fill="#A1A1A1"/>
<rect width="5.48387" height="5.5102" transform="matrix(-4.39213e-08 -1 -1 4.35025e-08 77.1484 128.32)" fill="#A1A1A1"/>
<rect width="5.48387" height="5.5102" transform="matrix(-4.39213e-08 -1 -1 4.35025e-08 33.0625 128.32)" fill="#A1A1A1"/>
<rect width="5.48387" height="5.5102" transform="matrix(-4.39213e-08 -1 -1 4.35025e-08 5.51562 128.32)" fill="#A1A1A1"/>
<rect width="5.48387" height="5.5102" transform="matrix(-4.39213e-08 -1 -1 4.35025e-08 5.51562 183.16)" fill="#A1A1A1"/>
<rect width="5.48387" height="5.5102" transform="matrix(-4.39213e-08 -1 -1 4.35025e-08 209.391 183.16)" fill="#A1A1A1"/>
<rect width="5.48387" height="5.5102" transform="matrix(-4.39213e-08 -1 -1 4.35025e-08 209.391 238)" fill="#A1A1A1"/>
<rect width="5.48387" height="5.5102" transform="matrix(-4.39213e-08 -1 -1 4.35025e-08 165.305 183.16)" fill="#A1A1A1"/>
<rect width="5.48387" height="5.5102" transform="matrix(-4.39213e-08 -1 -1 4.35025e-08 121.227 183.16)" fill="#A1A1A1"/>
<rect width="5.48387" height="5.5102" transform="matrix(-4.39213e-08 -1 -1 4.35025e-08 77.1484 183.16)" fill="#A1A1A1"/>
<rect width="5.48387" height="5.5102" transform="matrix(-4.39213e-08 -1 -1 4.35025e-08 33.0625 183.16)" fill="#A1A1A1"/>
<rect width="5.48387" height="5.5102" transform="matrix(-4.39213e-08 -1 -1 4.35025e-08 203.883 128.32)" fill="#A1A1A1"/>
<rect width="5.48387" height="5.5102" transform="matrix(-4.39213e-08 -1 -1 4.35025e-08 203.883 73.4844)" fill="#A1A1A1"/>
<rect width="5.48387" height="5.5102" transform="matrix(-4.39213e-08 -1 -1 4.35025e-08 159.797 128.32)" fill="#A1A1A1"/>
<rect width="5.48387" height="5.5102" transform="matrix(-4.39213e-08 -1 -1 4.35025e-08 115.719 128.32)" fill="#A1A1A1"/>
<rect width="5.48387" height="5.5102" transform="matrix(-4.39213e-08 -1 -1 4.35025e-08 71.6328 128.32)" fill="#A1A1A1"/>
<rect width="5.48387" height="5.5102" transform="matrix(-4.39213e-08 -1 -1 4.35025e-08 27.5547 128.32)" fill="#A1A1A1"/>
<rect width="5.48387" height="5.5102" transform="matrix(-4.39213e-08 -1 -1 4.35025e-08 203.883 183.16)" fill="#A1A1A1"/>
<rect width="5.48387" height="5.5102" transform="matrix(-4.39213e-08 -1 -1 4.35025e-08 203.883 238)" fill="#A1A1A1"/>
<rect width="5.48387" height="5.5102" transform="matrix(-4.39213e-08 -1 -1 4.35025e-08 159.797 183.16)" fill="#A1A1A1"/>
<rect width="5.48387" height="5.5102" transform="matrix(-4.39213e-08 -1 -1 4.35025e-08 115.719 183.16)" fill="#A1A1A1"/>
<rect width="5.48387" height="5.5102" transform="matrix(-4.39213e-08 -1 -1 4.35025e-08 71.6328 183.16)" fill="#A1A1A1"/>
<rect width="5.48387" height="5.5102" transform="matrix(-4.39213e-08 -1 -1 4.35025e-08 27.5547 183.16)" fill="#A1A1A1"/>
<circle cx="79" cy="100" r="12" fill="black"/>
<circle cx="111" cy="100" r="12" fill="black"/>
<circle cx="143" cy="100" r="12" fill="black"/>
<circle cx="215" cy="100" r="12" fill="black"/>
<circle cx="147" cy="154" r="13" fill="black" stroke="#FF6363" stroke-width="2"/>
<circle cx="48" cy="209" r="12" fill="white"/>
<circle cx="80" cy="209" r="12" fill="white"/>
<circle cx="81" cy="155" r="12" fill="white"/>
<circle cx="146" cy="209" r="12" fill="white"/>
<circle cx="238" cy="154" r="13" fill="white" stroke="#43FF46" stroke-width="2"/>
<path d="M156.586 151.586C155.805 152.367 155.805 153.633 156.586 154.414L169.314 167.142C170.095 167.923 171.361 167.923 172.142 167.142C172.923 166.361 172.923 165.095 172.142 164.314L160.828 153L172.142 141.686C172.923 140.905 172.923 139.639 172.142 138.858C171.361 138.077 170.095 138.077 169.314 138.858L156.586 151.586ZM223 153L223 151L158 151L158 153L158 155L223 155L223 153Z" fill="#FFFEFE"/>
</svg>
