<svg width="272" height="272" viewBox="0 0 272 272" fill="none" xmlns="http://www.w3.org/2000/svg">
<rect x="10.4609" y="125.539" width="5.23075" height="5.23075" fill="#A1A1A1"/>
<rect x="41.8438" y="57.5391" width="5.23075" height="5.23075" fill="#A1A1A1"/>
<rect x="104.609" y="57.5391" width="5.23075" height="5.23075" fill="#A1A1A1"/>
<rect x="167.383" y="57.5391" width="5.23075" height="5.23075" fill="#A1A1A1"/>
<rect x="167.383" y="193.539" width="5.23075" height="5.23075" fill="#A1A1A1"/>
<rect x="104.609" y="193.539" width="5.23075" height="5.23075" fill="#A1A1A1"/>
<rect x="41.8438" y="193.539" width="5.23075" height="5.23075" fill="#A1A1A1"/>
<rect x="73.2344" y="125.539" width="5.23075" height="5.23075" fill="#A1A1A1"/>
<rect x="136" y="125.539" width="5.23075" height="5.23075" fill="#A1A1A1"/>
<rect x="198.766" y="125.539" width="5.23075" height="5.23075" fill="#A1A1A1"/>
<rect x="68" y="146.465" width="5.23075" height="5.23075" transform="rotate(180 68 146.465)" fill="#A1A1A1"/>
<rect x="130.766" y="146.465" width="5.23075" height="5.23075" transform="rotate(180 130.766 146.465)" fill="#A1A1A1"/>
<rect x="193.539" y="146.465" width="5.23075" height="5.23075" transform="rotate(180 193.539 146.465)" fill="#A1A1A1"/>
<rect x="256.312" y="146.465" width="5.23075" height="5.23075" transform="rotate(180 256.312 146.465)" fill="#A1A1A1"/>
<rect x="10.4609" y="109.848" width="5.23075" height="5.23075" fill="#A1A1A1"/>
<rect x="73.2344" y="109.848" width="5.23075" height="5.23075" fill="#A1A1A1"/>
<rect x="136" y="109.848" width="5.23075" height="5.23075" fill="#A1A1A1"/>
<rect x="198.766" y="109.848" width="5.23075" height="5.23075" fill="#A1A1A1"/>
<rect x="73.2344" y="141.234" width="5.23075" height="5.23075" transform="rotate(180 73.2344 141.234)" fill="#A1A1A1"/>
<rect x="136" y="141.234" width="5.23075" height="5.23075" transform="rotate(180 136 141.234)" fill="#A1A1A1"/>
<rect x="198.766" y="141.234" width="5.23075" height="5.23075" transform="rotate(180 198.766 141.234)" fill="#A1A1A1"/>
<rect x="261.539" y="141.234" width="5.23075" height="5.23075" transform="rotate(180 261.539 141.234)" fill="#A1A1A1"/>
<rect x="5.23438" y="115.082" width="5.23075" height="5.23075" fill="#A1A1A1"/>
<rect x="73.2344" y="136" width="5.23075" height="5.23075" transform="rotate(180 73.2344 136)" fill="#A1A1A1"/>
<rect x="136" y="136" width="5.23075" height="5.23075" transform="rotate(180 136 136)" fill="#A1A1A1"/>
<rect x="198.766" y="136" width="5.23075" height="5.23075" transform="rotate(180 198.766 136)" fill="#A1A1A1"/>
<rect x="261.539" y="136" width="5.23075" height="5.23075" transform="rotate(180 261.539 136)" fill="#A1A1A1"/>
<rect x="5.23438" y="120.309" width="5.23075" height="5.23075" fill="#A1A1A1"/>
<rect x="5.23438" y="125.539" width="5.23075" height="5.23075" fill="#A1A1A1"/>
<rect x="68" y="125.539" width="5.23075" height="5.23075" fill="#A1A1A1"/>
<rect x="130.766" y="125.539" width="5.23075" height="5.23075" fill="#A1A1A1"/>
<rect x="193.539" y="125.539" width="5.23075" height="5.23075" fill="#A1A1A1"/>
<rect x="256.312" y="125.539" width="5.23075" height="5.23075" fill="#A1A1A1"/>
<rect x="10.4609" y="141.234" width="5.23075" height="5.23075" transform="rotate(180 10.4609 141.234)" fill="#A1A1A1"/>
<rect x="68" y="115.082" width="5.23075" height="5.23075" fill="#A1A1A1"/>
<rect x="130.766" y="115.082" width="5.23075" height="5.23075" fill="#A1A1A1"/>
<rect x="193.539" y="115.082" width="5.23075" height="5.23075" fill="#A1A1A1"/>
<rect x="256.312" y="115.082" width="5.23075" height="5.23075" fill="#A1A1A1"/>
<rect x="10.4609" y="136" width="5.23075" height="5.23075" transform="rotate(180 10.4609 136)" fill="#A1A1A1"/>
<rect x="68" y="120.309" width="5.23075" height="5.23075" fill="#A1A1A1"/>
<rect x="130.766" y="120.309" width="5.23075" height="5.23075" fill="#A1A1A1"/>
<rect x="193.539" y="120.309" width="5.23075" height="5.23075" fill="#A1A1A1"/>
<rect x="256.312" y="120.309" width="5.23075" height="5.23075" fill="#A1A1A1"/>
<rect x="68" y="151.691" width="5.23075" height="5.23075" transform="rotate(180 68 151.691)" fill="#A1A1A1"/>
<rect x="130.766" y="151.691" width="5.23075" height="5.23075" transform="rotate(180 130.766 151.691)" fill="#A1A1A1"/>
<rect x="193.539" y="151.691" width="5.23075" height="5.23075" transform="rotate(180 193.539 151.691)" fill="#A1A1A1"/>
<rect x="256.312" y="151.691" width="5.23075" height="5.23075" transform="rotate(180 256.312 151.691)" fill="#A1A1A1"/>
<rect x="10.4609" y="104.617" width="5.23075" height="5.23075" fill="#A1A1A1"/>
<rect x="73.2344" y="104.617" width="5.23075" height="5.23075" fill="#A1A1A1"/>
<rect x="136" y="104.617" width="5.23075" height="5.23075" fill="#A1A1A1"/>
<rect x="198.766" y="104.617" width="5.23075" height="5.23075" fill="#A1A1A1"/>
<rect x="62.7656" y="156.922" width="5.23075" height="5.23075" transform="rotate(180 62.7656 156.922)" fill="#A1A1A1"/>
<rect x="125.539" y="156.922" width="5.23075" height="5.23075" transform="rotate(180 125.539 156.922)" fill="#A1A1A1"/>
<rect x="188.312" y="156.922" width="5.23075" height="5.23075" transform="rotate(180 188.312 156.922)" fill="#A1A1A1"/>
<rect x="251.078" y="156.922" width="5.23075" height="5.23075" transform="rotate(180 251.078 156.922)" fill="#A1A1A1"/>
<rect x="15.6875" y="99.3867" width="5.23075" height="5.23075" fill="#A1A1A1"/>
<rect x="78.4609" y="99.3867" width="5.23075" height="5.23075" fill="#A1A1A1"/>
<rect x="141.234" y="99.3867" width="5.23075" height="5.23075" fill="#A1A1A1"/>
<rect x="204" y="99.3867" width="5.23075" height="5.23075" fill="#A1A1A1"/>
<rect x="62.7656" y="162.156" width="5.23075" height="5.23075" transform="rotate(180 62.7656 162.156)" fill="#A1A1A1"/>
<rect x="125.539" y="162.156" width="5.23075" height="5.23075" transform="rotate(180 125.539 162.156)" fill="#A1A1A1"/>
<rect x="188.312" y="162.156" width="5.23075" height="5.23075" transform="rotate(180 188.312 162.156)" fill="#A1A1A1"/>
<rect x="251.078" y="162.156" width="5.23075" height="5.23075" transform="rotate(180 251.078 162.156)" fill="#A1A1A1"/>
<rect x="15.6875" y="94.1562" width="5.23075" height="5.23075" fill="#A1A1A1"/>
<rect x="78.4609" y="94.1562" width="5.23075" height="5.23075" fill="#A1A1A1"/>
<rect x="141.234" y="94.1562" width="5.23075" height="5.23075" fill="#A1A1A1"/>
<rect x="204" y="94.1562" width="5.23075" height="5.23075" fill="#A1A1A1"/>
<rect x="57.5391" y="167.387" width="5.23075" height="5.23075" transform="rotate(180 57.5391 167.387)" fill="#A1A1A1"/>
<rect x="120.312" y="167.387" width="5.23075" height="5.23075" transform="rotate(180 120.312 167.387)" fill="#A1A1A1"/>
<rect x="183.078" y="167.387" width="5.23075" height="5.23075" transform="rotate(180 183.078 167.387)" fill="#A1A1A1"/>
<rect x="245.844" y="167.387" width="5.23075" height="5.23075" transform="rotate(180 245.844 167.387)" fill="#A1A1A1"/>
<rect x="20.9219" y="88.9219" width="5.23075" height="5.23075" fill="#A1A1A1"/>
<rect x="83.6875" y="88.9219" width="5.23075" height="5.23075" fill="#A1A1A1"/>
<rect x="146.461" y="88.9219" width="5.23075" height="5.23075" fill="#A1A1A1"/>
<rect x="209.234" y="88.9219" width="5.23075" height="5.23075" fill="#A1A1A1"/>
<rect x="57.5391" y="172.617" width="5.23075" height="5.23075" transform="rotate(180 57.5391 172.617)" fill="#A1A1A1"/>
<rect x="120.312" y="172.617" width="5.23075" height="5.23075" transform="rotate(180 120.312 172.617)" fill="#A1A1A1"/>
<rect x="183.078" y="172.617" width="5.23075" height="5.23075" transform="rotate(180 183.078 172.617)" fill="#A1A1A1"/>
<rect x="245.844" y="172.617" width="5.23075" height="5.23075" transform="rotate(180 245.844 172.617)" fill="#A1A1A1"/>
<rect x="20.9219" y="83.6914" width="5.23075" height="5.23075" fill="#A1A1A1"/>
<rect x="83.6875" y="83.6914" width="5.23075" height="5.23075" fill="#A1A1A1"/>
<rect x="146.461" y="83.6914" width="5.23075" height="5.23075" fill="#A1A1A1"/>
<rect x="209.234" y="83.6914" width="5.23075" height="5.23075" fill="#A1A1A1"/>
<rect x="52.3125" y="177.848" width="5.23075" height="5.23075" transform="rotate(180 52.3125 177.848)" fill="#A1A1A1"/>
<rect x="115.078" y="177.848" width="5.23075" height="5.23075" transform="rotate(180 115.078 177.848)" fill="#A1A1A1"/>
<rect x="177.844" y="177.848" width="5.23075" height="5.23075" transform="rotate(180 177.844 177.848)" fill="#A1A1A1"/>
<rect x="240.609" y="177.848" width="5.23075" height="5.23075" transform="rotate(180 240.609 177.848)" fill="#A1A1A1"/>
<rect x="26.1562" y="78.4648" width="5.23075" height="5.23075" fill="#A1A1A1"/>
<rect x="88.9219" y="78.4648" width="5.23075" height="5.23075" fill="#A1A1A1"/>
<rect x="151.688" y="78.4648" width="5.23075" height="5.23075" fill="#A1A1A1"/>
<rect x="214.461" y="78.4648" width="5.23075" height="5.23075" fill="#A1A1A1"/>
<rect x="52.3125" y="183.078" width="5.23075" height="5.23075" transform="rotate(180 52.3125 183.078)" fill="#A1A1A1"/>
<rect x="115.078" y="183.078" width="5.23075" height="5.23075" transform="rotate(180 115.078 183.078)" fill="#A1A1A1"/>
<rect x="177.844" y="183.078" width="5.23075" height="5.23075" transform="rotate(180 177.844 183.078)" fill="#A1A1A1"/>
<rect x="240.609" y="183.078" width="5.23075" height="5.23075" transform="rotate(180 240.609 183.078)" fill="#A1A1A1"/>
<rect x="26.1562" y="73.2344" width="5.23075" height="5.23075" fill="#A1A1A1"/>
<rect x="88.9219" y="73.2344" width="5.23075" height="5.23075" fill="#A1A1A1"/>
<rect x="151.688" y="73.2344" width="5.23075" height="5.23075" fill="#A1A1A1"/>
<rect x="214.461" y="73.2344" width="5.23075" height="5.23075" fill="#A1A1A1"/>
<rect x="47.0781" y="188.309" width="5.23075" height="5.23075" transform="rotate(180 47.0781 188.309)" fill="#A1A1A1"/>
<rect x="109.844" y="188.309" width="5.23075" height="5.23075" transform="rotate(180 109.844 188.309)" fill="#A1A1A1"/>
<rect x="172.609" y="188.309" width="5.23075" height="5.23075" transform="rotate(180 172.609 188.309)" fill="#A1A1A1"/>
<rect x="235.383" y="188.309" width="5.23075" height="5.23075" transform="rotate(180 235.383 188.309)" fill="#A1A1A1"/>
<rect x="31.3906" y="68" width="5.23075" height="5.23075" fill="#A1A1A1"/>
<rect x="94.1562" y="68" width="5.23075" height="5.23075" fill="#A1A1A1"/>
<rect x="156.922" y="68" width="5.23075" height="5.23075" fill="#A1A1A1"/>
<rect x="219.688" y="68" width="5.23075" height="5.23075" fill="#A1A1A1"/>
<rect x="47.0781" y="193.539" width="5.23075" height="5.23075" transform="rotate(180 47.0781 193.539)" fill="#A1A1A1"/>
<rect x="109.844" y="193.539" width="5.23075" height="5.23075" transform="rotate(180 109.844 193.539)" fill="#A1A1A1"/>
<rect x="172.609" y="193.539" width="5.23075" height="5.23075" transform="rotate(180 172.609 193.539)" fill="#A1A1A1"/>
<rect x="235.383" y="193.539" width="5.23075" height="5.23075" transform="rotate(180 235.383 193.539)" fill="#A1A1A1"/>
<rect x="31.3906" y="62.7695" width="5.23075" height="5.23075" fill="#A1A1A1"/>
<rect x="94.1562" y="62.7695" width="5.23075" height="5.23075" fill="#A1A1A1"/>
<rect x="156.922" y="62.7695" width="5.23075" height="5.23075" fill="#A1A1A1"/>
<rect x="219.688" y="62.7695" width="5.23075" height="5.23075" fill="#A1A1A1"/>
<rect x="41.8438" y="198.77" width="5.23075" height="5.23075" transform="rotate(180 41.8438 198.77)" fill="#A1A1A1"/>
<rect x="104.609" y="198.77" width="5.23075" height="5.23075" transform="rotate(180 104.609 198.77)" fill="#A1A1A1"/>
<rect x="167.383" y="198.77" width="5.23075" height="5.23075" transform="rotate(180 167.383 198.77)" fill="#A1A1A1"/>
<rect x="230.156" y="198.77" width="5.23075" height="5.23075" transform="rotate(180 230.156 198.77)" fill="#A1A1A1"/>
<rect x="36.6094" y="57.5391" width="5.23075" height="5.23075" fill="#A1A1A1"/>
<rect x="99.3828" y="57.5391" width="5.23075" height="5.23075" fill="#A1A1A1"/>
<rect x="162.156" y="57.5391" width="5.23075" height="5.23075" fill="#A1A1A1"/>
<rect x="224.922" y="57.5391" width="5.23075" height="5.23075" fill="#A1A1A1"/>
<rect x="41.8438" y="125.539" width="5.23075" height="5.23075" fill="#A1A1A1"/>
<rect x="73.2344" y="57.5391" width="5.23075" height="5.23075" fill="#A1A1A1"/>
<rect x="136" y="57.5391" width="5.23075" height="5.23075" fill="#A1A1A1"/>
<rect x="198.766" y="57.5391" width="5.23075" height="5.23075" fill="#A1A1A1"/>
<rect x="198.766" y="193.539" width="5.23075" height="5.23075" fill="#A1A1A1"/>
<rect x="136" y="193.539" width="5.23075" height="5.23075" fill="#A1A1A1"/>
<rect x="73.2344" y="193.539" width="5.23075" height="5.23075" fill="#A1A1A1"/>
<rect x="104.609" y="125.539" width="5.23075" height="5.23075" fill="#A1A1A1"/>
<rect x="167.383" y="125.539" width="5.23075" height="5.23075" fill="#A1A1A1"/>
<rect x="230.156" y="125.539" width="5.23075" height="5.23075" fill="#A1A1A1"/>
<rect x="15.6875" y="125.539" width="5.23075" height="5.23075" fill="#A1A1A1"/>
<rect x="47.0781" y="57.5391" width="5.23075" height="5.23075" fill="#A1A1A1"/>
<rect x="109.844" y="57.5391" width="5.23075" height="5.23075" fill="#A1A1A1"/>
<rect x="172.609" y="57.5391" width="5.23075" height="5.23075" fill="#A1A1A1"/>
<rect x="172.609" y="193.539" width="5.23075" height="5.23075" fill="#A1A1A1"/>
<rect x="109.844" y="193.539" width="5.23075" height="5.23075" fill="#A1A1A1"/>
<rect x="47.0781" y="193.539" width="5.23075" height="5.23075" fill="#A1A1A1"/>
<rect x="78.4609" y="125.539" width="5.23075" height="5.23075" fill="#A1A1A1"/>
<rect x="141.234" y="125.539" width="5.23075" height="5.23075" fill="#A1A1A1"/>
<rect x="204" y="125.539" width="5.23075" height="5.23075" fill="#A1A1A1"/>
<rect x="47.0781" y="125.539" width="5.23075" height="5.23075" fill="#A1A1A1"/>
<rect x="78.4609" y="57.5391" width="5.23075" height="5.23075" fill="#A1A1A1"/>
<rect x="141.234" y="57.5391" width="5.23075" height="5.23075" fill="#A1A1A1"/>
<rect x="204" y="57.5391" width="5.23075" height="5.23075" fill="#A1A1A1"/>
<rect x="204" y="193.539" width="5.23075" height="5.23075" fill="#A1A1A1"/>
<rect x="141.234" y="193.539" width="5.23075" height="5.23075" fill="#A1A1A1"/>
<rect x="78.4609" y="193.539" width="5.23075" height="5.23075" fill="#A1A1A1"/>
<rect x="109.844" y="125.539" width="5.23075" height="5.23075" fill="#A1A1A1"/>
<rect x="172.609" y="125.539" width="5.23075" height="5.23075" fill="#A1A1A1"/>
<rect x="235.383" y="125.539" width="5.23075" height="5.23075" fill="#A1A1A1"/>
<rect x="20.9219" y="125.539" width="5.23075" height="5.23075" fill="#A1A1A1"/>
<rect x="52.3125" y="57.5391" width="5.23075" height="5.23075" fill="#A1A1A1"/>
<rect x="115.078" y="57.5391" width="5.23075" height="5.23075" fill="#A1A1A1"/>
<rect x="177.844" y="57.5391" width="5.23075" height="5.23075" fill="#A1A1A1"/>
<rect x="177.844" y="193.539" width="5.23075" height="5.23075" fill="#A1A1A1"/>
<rect x="115.078" y="193.539" width="5.23075" height="5.23075" fill="#A1A1A1"/>
<rect x="52.3125" y="193.539" width="5.23075" height="5.23075" fill="#A1A1A1"/>
<rect x="83.6875" y="125.539" width="5.23075" height="5.23075" fill="#A1A1A1"/>
<rect x="146.461" y="125.539" width="5.23075" height="5.23075" fill="#A1A1A1"/>
<rect x="209.234" y="125.539" width="5.23075" height="5.23075" fill="#A1A1A1"/>
<rect x="52.3125" y="125.539" width="5.23075" height="5.23075" fill="#A1A1A1"/>
<rect x="83.6875" y="57.5391" width="5.23075" height="5.23075" fill="#A1A1A1"/>
<rect x="146.461" y="57.5391" width="5.23075" height="5.23075" fill="#A1A1A1"/>
<rect x="209.234" y="57.5391" width="5.23075" height="5.23075" fill="#A1A1A1"/>
<rect x="209.234" y="193.539" width="5.23075" height="5.23075" fill="#A1A1A1"/>
<rect x="146.461" y="193.539" width="5.23075" height="5.23075" fill="#A1A1A1"/>
<rect x="83.6875" y="193.539" width="5.23075" height="5.23075" fill="#A1A1A1"/>
<rect x="115.078" y="125.539" width="5.23075" height="5.23075" fill="#A1A1A1"/>
<rect x="177.844" y="125.539" width="5.23075" height="5.23075" fill="#A1A1A1"/>
<rect x="240.609" y="125.539" width="5.23075" height="5.23075" fill="#A1A1A1"/>
<rect x="26.1562" y="125.539" width="5.23075" height="5.23075" fill="#A1A1A1"/>
<rect x="57.5391" y="57.5391" width="5.23075" height="5.23075" fill="#A1A1A1"/>
<rect x="120.312" y="57.5391" width="5.23075" height="5.23075" fill="#A1A1A1"/>
<rect x="183.078" y="57.5391" width="5.23075" height="5.23075" fill="#A1A1A1"/>
<rect x="183.078" y="193.539" width="5.23075" height="5.23075" fill="#A1A1A1"/>
<rect x="120.312" y="193.539" width="5.23075" height="5.23075" fill="#A1A1A1"/>
<rect x="57.5391" y="193.539" width="5.23075" height="5.23075" fill="#A1A1A1"/>
<rect x="88.9219" y="125.539" width="5.23075" height="5.23075" fill="#A1A1A1"/>
<rect x="151.688" y="125.539" width="5.23075" height="5.23075" fill="#A1A1A1"/>
<rect x="214.461" y="125.539" width="5.23075" height="5.23075" fill="#A1A1A1"/>
<rect x="57.5391" y="125.539" width="5.23075" height="5.23075" fill="#A1A1A1"/>
<rect x="88.9219" y="57.5391" width="5.23075" height="5.23075" fill="#A1A1A1"/>
<rect x="151.688" y="57.5391" width="5.23075" height="5.23075" fill="#A1A1A1"/>
<rect x="214.461" y="57.5391" width="5.23075" height="5.23075" fill="#A1A1A1"/>
<rect x="214.461" y="193.539" width="5.23075" height="5.23075" fill="#A1A1A1"/>
<rect x="151.688" y="193.539" width="5.23075" height="5.23075" fill="#A1A1A1"/>
<rect x="88.9219" y="193.539" width="5.23075" height="5.23075" fill="#A1A1A1"/>
<rect x="120.312" y="125.539" width="5.23075" height="5.23075" fill="#A1A1A1"/>
<rect x="183.078" y="125.539" width="5.23075" height="5.23075" fill="#A1A1A1"/>
<rect x="245.844" y="125.539" width="5.23075" height="5.23075" fill="#A1A1A1"/>
<rect x="31.3906" y="125.539" width="5.23075" height="5.23075" fill="#A1A1A1"/>
<rect x="62.7656" y="57.5391" width="5.23075" height="5.23075" fill="#A1A1A1"/>
<rect x="125.539" y="57.5391" width="5.23075" height="5.23075" fill="#A1A1A1"/>
<rect x="188.312" y="57.5391" width="5.23075" height="5.23075" fill="#A1A1A1"/>
<rect x="188.312" y="193.539" width="5.23075" height="5.23075" fill="#A1A1A1"/>
<rect x="125.539" y="193.539" width="5.23075" height="5.23075" fill="#A1A1A1"/>
<rect x="62.7656" y="193.539" width="5.23075" height="5.23075" fill="#A1A1A1"/>
<rect x="94.1562" y="125.539" width="5.23075" height="5.23075" fill="#A1A1A1"/>
<rect x="156.922" y="125.539" width="5.23075" height="5.23075" fill="#A1A1A1"/>
<rect x="219.688" y="125.539" width="5.23075" height="5.23075" fill="#A1A1A1"/>
<rect x="62.7656" y="125.539" width="5.23075" height="5.23075" fill="#A1A1A1"/>
<rect x="94.1562" y="57.5391" width="5.23075" height="5.23075" fill="#A1A1A1"/>
<rect x="156.922" y="57.5391" width="5.23075" height="5.23075" fill="#A1A1A1"/>
<rect x="219.688" y="57.5391" width="5.23075" height="5.23075" fill="#A1A1A1"/>
<rect x="219.688" y="193.539" width="5.23075" height="5.23075" fill="#A1A1A1"/>
<rect x="156.922" y="193.539" width="5.23075" height="5.23075" fill="#A1A1A1"/>
<rect x="94.1562" y="193.539" width="5.23075" height="5.23075" fill="#A1A1A1"/>
<rect x="125.539" y="125.539" width="5.23075" height="5.23075" fill="#A1A1A1"/>
<rect x="188.312" y="125.539" width="5.23075" height="5.23075" fill="#A1A1A1"/>
<rect x="251.078" y="125.539" width="5.23075" height="5.23075" fill="#A1A1A1"/>
<rect x="36.6094" y="125.539" width="5.23075" height="5.23075" fill="#A1A1A1"/>
<rect x="68" y="57.5391" width="5.23075" height="5.23075" fill="#A1A1A1"/>
<rect x="130.766" y="57.5391" width="5.23075" height="5.23075" fill="#A1A1A1"/>
<rect x="193.539" y="57.5391" width="5.23075" height="5.23075" fill="#A1A1A1"/>
<rect x="193.539" y="193.539" width="5.23075" height="5.23075" fill="#A1A1A1"/>
<rect x="130.766" y="193.539" width="5.23075" height="5.23075" fill="#A1A1A1"/>
<rect x="68" y="193.539" width="5.23075" height="5.23075" fill="#A1A1A1"/>
<rect x="99.3828" y="125.539" width="5.23075" height="5.23075" fill="#A1A1A1"/>
<rect x="162.156" y="125.539" width="5.23075" height="5.23075" fill="#A1A1A1"/>
<rect x="224.922" y="125.539" width="5.23075" height="5.23075" fill="#A1A1A1"/>
<rect x="68" y="151.691" width="5.23075" height="5.23075" transform="rotate(180 68 151.691)" fill="#A1A1A1"/>
<rect x="130.766" y="151.691" width="5.23075" height="5.23075" transform="rotate(180 130.766 151.691)" fill="#A1A1A1"/>
<rect x="193.539" y="151.691" width="5.23075" height="5.23075" transform="rotate(180 193.539 151.691)" fill="#A1A1A1"/>
<rect x="256.312" y="151.691" width="5.23075" height="5.23075" transform="rotate(180 256.312 151.691)" fill="#A1A1A1"/>
<rect x="10.4609" y="104.617" width="5.23075" height="5.23075" fill="#A1A1A1"/>
<rect x="73.2344" y="104.617" width="5.23075" height="5.23075" fill="#A1A1A1"/>
<rect x="136" y="104.617" width="5.23075" height="5.23075" fill="#A1A1A1"/>
<rect x="198.766" y="104.617" width="5.23075" height="5.23075" fill="#A1A1A1"/>
<rect x="36.6094" y="193.539" width="5.23075" height="5.23075" transform="rotate(180 36.6094 193.539)" fill="#A1A1A1"/>
<rect x="99.3828" y="193.539" width="5.23075" height="5.23075" transform="rotate(180 99.3828 193.539)" fill="#A1A1A1"/>
<rect x="162.156" y="193.539" width="5.23075" height="5.23075" transform="rotate(180 162.156 193.539)" fill="#A1A1A1"/>
<rect x="224.922" y="193.539" width="5.23075" height="5.23075" transform="rotate(180 224.922 193.539)" fill="#A1A1A1"/>
<rect x="41.8438" y="62.7695" width="5.23075" height="5.23075" fill="#A1A1A1"/>
<rect x="104.609" y="62.7695" width="5.23075" height="5.23075" fill="#A1A1A1"/>
<rect x="167.383" y="62.7695" width="5.23075" height="5.23075" fill="#A1A1A1"/>
<rect x="230.156" y="62.7695" width="5.23075" height="5.23075" fill="#A1A1A1"/>
<rect x="36.6094" y="188.309" width="5.23075" height="5.23075" transform="rotate(180 36.6094 188.309)" fill="#A1A1A1"/>
<rect x="99.3828" y="188.309" width="5.23075" height="5.23075" transform="rotate(180 99.3828 188.309)" fill="#A1A1A1"/>
<rect x="162.156" y="188.309" width="5.23075" height="5.23075" transform="rotate(180 162.156 188.309)" fill="#A1A1A1"/>
<rect x="224.922" y="188.309" width="5.23075" height="5.23075" transform="rotate(180 224.922 188.309)" fill="#A1A1A1"/>
<rect x="41.8438" y="68" width="5.23075" height="5.23075" fill="#A1A1A1"/>
<rect x="104.609" y="68" width="5.23075" height="5.23075" fill="#A1A1A1"/>
<rect x="167.383" y="68" width="5.23075" height="5.23075" fill="#A1A1A1"/>
<rect x="230.156" y="68" width="5.23075" height="5.23075" fill="#A1A1A1"/>
<rect x="31.3906" y="183.078" width="5.23075" height="5.23075" transform="rotate(180 31.3906 183.078)" fill="#A1A1A1"/>
<rect x="94.1562" y="183.078" width="5.23075" height="5.23075" transform="rotate(180 94.1562 183.078)" fill="#A1A1A1"/>
<rect x="156.922" y="183.078" width="5.23075" height="5.23075" transform="rotate(180 156.922 183.078)" fill="#A1A1A1"/>
<rect x="219.688" y="183.078" width="5.23075" height="5.23075" transform="rotate(180 219.688 183.078)" fill="#A1A1A1"/>
<rect x="47.0781" y="73.2344" width="5.23075" height="5.23075" fill="#A1A1A1"/>
<rect x="109.844" y="73.2344" width="5.23075" height="5.23075" fill="#A1A1A1"/>
<rect x="172.609" y="73.2344" width="5.23075" height="5.23075" fill="#A1A1A1"/>
<rect x="235.383" y="73.2344" width="5.23075" height="5.23075" fill="#A1A1A1"/>
<rect x="31.3906" y="177.848" width="5.23075" height="5.23075" transform="rotate(180 31.3906 177.848)" fill="#A1A1A1"/>
<rect x="94.1562" y="177.848" width="5.23075" height="5.23075" transform="rotate(180 94.1562 177.848)" fill="#A1A1A1"/>
<rect x="156.922" y="177.848" width="5.23075" height="5.23075" transform="rotate(180 156.922 177.848)" fill="#A1A1A1"/>
<rect x="219.688" y="177.848" width="5.23075" height="5.23075" transform="rotate(180 219.688 177.848)" fill="#A1A1A1"/>
<rect x="47.0781" y="78.4648" width="5.23075" height="5.23075" fill="#A1A1A1"/>
<rect x="109.844" y="78.4648" width="5.23075" height="5.23075" fill="#A1A1A1"/>
<rect x="172.609" y="78.4648" width="5.23075" height="5.23075" fill="#A1A1A1"/>
<rect x="235.383" y="78.4648" width="5.23075" height="5.23075" fill="#A1A1A1"/>
<rect x="26.1562" y="172.617" width="5.23075" height="5.23075" transform="rotate(180 26.1562 172.617)" fill="#A1A1A1"/>
<rect x="88.9219" y="172.617" width="5.23075" height="5.23075" transform="rotate(180 88.9219 172.617)" fill="#A1A1A1"/>
<rect x="151.688" y="172.617" width="5.23075" height="5.23075" transform="rotate(180 151.688 172.617)" fill="#A1A1A1"/>
<rect x="214.461" y="172.617" width="5.23075" height="5.23075" transform="rotate(180 214.461 172.617)" fill="#A1A1A1"/>
<rect x="52.3125" y="83.6914" width="5.23075" height="5.23075" fill="#A1A1A1"/>
<rect x="115.078" y="83.6914" width="5.23075" height="5.23075" fill="#A1A1A1"/>
<rect x="177.844" y="83.6914" width="5.23075" height="5.23075" fill="#A1A1A1"/>
<rect x="240.609" y="83.6914" width="5.23075" height="5.23075" fill="#A1A1A1"/>
<rect x="26.1562" y="167.387" width="5.23075" height="5.23075" transform="rotate(180 26.1562 167.387)" fill="#A1A1A1"/>
<rect x="88.9219" y="167.387" width="5.23075" height="5.23075" transform="rotate(180 88.9219 167.387)" fill="#A1A1A1"/>
<rect x="151.688" y="167.387" width="5.23075" height="5.23075" transform="rotate(180 151.688 167.387)" fill="#A1A1A1"/>
<rect x="214.461" y="167.387" width="5.23075" height="5.23075" transform="rotate(180 214.461 167.387)" fill="#A1A1A1"/>
<rect x="52.3125" y="88.9219" width="5.23075" height="5.23075" fill="#A1A1A1"/>
<rect x="115.078" y="88.9219" width="5.23075" height="5.23075" fill="#A1A1A1"/>
<rect x="177.844" y="88.9219" width="5.23075" height="5.23075" fill="#A1A1A1"/>
<rect x="240.609" y="88.9219" width="5.23075" height="5.23075" fill="#A1A1A1"/>
<rect x="20.9219" y="162.156" width="5.23075" height="5.23075" transform="rotate(180 20.9219 162.156)" fill="#A1A1A1"/>
<rect x="83.6875" y="162.156" width="5.23075" height="5.23075" transform="rotate(180 83.6875 162.156)" fill="#A1A1A1"/>
<rect x="146.461" y="162.156" width="5.23075" height="5.23075" transform="rotate(180 146.461 162.156)" fill="#A1A1A1"/>
<rect x="209.234" y="162.156" width="5.23075" height="5.23075" transform="rotate(180 209.234 162.156)" fill="#A1A1A1"/>
<rect x="57.5391" y="94.1562" width="5.23075" height="5.23075" fill="#A1A1A1"/>
<rect x="120.312" y="94.1562" width="5.23075" height="5.23075" fill="#A1A1A1"/>
<rect x="183.078" y="94.1562" width="5.23075" height="5.23075" fill="#A1A1A1"/>
<rect x="245.844" y="94.1562" width="5.23075" height="5.23075" fill="#A1A1A1"/>
<rect x="20.9219" y="156.922" width="5.23075" height="5.23075" transform="rotate(180 20.9219 156.922)" fill="#A1A1A1"/>
<rect x="83.6875" y="156.922" width="5.23075" height="5.23075" transform="rotate(180 83.6875 156.922)" fill="#A1A1A1"/>
<rect x="146.461" y="156.922" width="5.23075" height="5.23075" transform="rotate(180 146.461 156.922)" fill="#A1A1A1"/>
<rect x="209.234" y="156.922" width="5.23075" height="5.23075" transform="rotate(180 209.234 156.922)" fill="#A1A1A1"/>
<rect x="57.5391" y="99.3867" width="5.23075" height="5.23075" fill="#A1A1A1"/>
<rect x="120.312" y="99.3867" width="5.23075" height="5.23075" fill="#A1A1A1"/>
<rect x="183.078" y="99.3867" width="5.23075" height="5.23075" fill="#A1A1A1"/>
<rect x="245.844" y="99.3867" width="5.23075" height="5.23075" fill="#A1A1A1"/>
<rect x="15.6875" y="151.691" width="5.23075" height="5.23075" transform="rotate(180 15.6875 151.691)" fill="#A1A1A1"/>
<rect x="78.4609" y="151.691" width="5.23075" height="5.23075" transform="rotate(180 78.4609 151.691)" fill="#A1A1A1"/>
<rect x="141.234" y="151.691" width="5.23075" height="5.23075" transform="rotate(180 141.234 151.691)" fill="#A1A1A1"/>
<rect x="204" y="151.691" width="5.23075" height="5.23075" transform="rotate(180 204 151.691)" fill="#A1A1A1"/>
<rect x="62.7656" y="104.617" width="5.23075" height="5.23075" fill="#A1A1A1"/>
<rect x="125.539" y="104.617" width="5.23075" height="5.23075" fill="#A1A1A1"/>
<rect x="188.312" y="104.617" width="5.23075" height="5.23075" fill="#A1A1A1"/>
<rect x="251.078" y="104.617" width="5.23075" height="5.23075" fill="#A1A1A1"/>
<rect x="15.6875" y="146.465" width="5.23075" height="5.23075" transform="rotate(180 15.6875 146.465)" fill="#A1A1A1"/>
<rect x="78.4609" y="146.465" width="5.23075" height="5.23075" transform="rotate(180 78.4609 146.465)" fill="#A1A1A1"/>
<rect x="141.234" y="146.465" width="5.23075" height="5.23075" transform="rotate(180 141.234 146.465)" fill="#A1A1A1"/>
<rect x="204" y="146.465" width="5.23075" height="5.23075" transform="rotate(180 204 146.465)" fill="#A1A1A1"/>
<rect x="62.7656" y="109.848" width="5.23075" height="5.23075" fill="#A1A1A1"/>
<rect x="125.539" y="109.848" width="5.23075" height="5.23075" fill="#A1A1A1"/>
<rect x="188.312" y="109.848" width="5.23075" height="5.23075" fill="#A1A1A1"/>
<rect x="251.078" y="109.848" width="5.23075" height="5.23075" fill="#A1A1A1"/>
<rect x="245.844" y="272" width="5.23075" height="5.23075" transform="rotate(180 245.844 272)" fill="#A1A1A1"/>
<rect width="5.23075" height="5.23075" transform="matrix(1 -1.44051e-08 3.68771e-06 1 31.3906 0)" fill="#A1A1A1"/>
<rect x="5.23438" y="251.078" width="5.23075" height="5.23075" fill="#A1A1A1"/>
<rect x="272" y="20.9219" width="5.23075" height="5.23075" transform="rotate(180 272 20.9219)" fill="#A1A1A1"/>
<rect x="10.4609" y="251.078" width="5.23075" height="5.23075" fill="#A1A1A1"/>
<rect x="266.766" y="20.9219" width="5.23075" height="5.23075" transform="rotate(180 266.766 20.9219)" fill="#A1A1A1"/>
<rect x="15.6875" y="266.77" width="5.23075" height="5.23075" fill="#A1A1A1"/>
<rect x="261.539" y="5.23438" width="5.23075" height="5.23075" transform="rotate(180 261.539 5.23438)" fill="#A1A1A1"/>
<rect x="41.8438" y="251.078" width="5.23075" height="5.23075" fill="#A1A1A1"/>
<rect x="235.383" y="20.9219" width="5.23075" height="5.23075" transform="rotate(180 235.383 20.9219)" fill="#A1A1A1"/>
<rect x="36.6094" y="266.77" width="5.23075" height="5.23075" fill="#A1A1A1"/>
<rect x="240.609" y="5.23438" width="5.23075" height="5.23075" transform="rotate(180 240.609 5.23438)" fill="#A1A1A1"/>
<rect x="62.7656" y="251.078" width="5.23075" height="5.23075" fill="#A1A1A1"/>
<rect x="214.461" y="20.9219" width="5.23075" height="5.23075" transform="rotate(180 214.461 20.9219)" fill="#A1A1A1"/>
<rect x="68" y="266.77" width="5.23075" height="5.23075" fill="#A1A1A1"/>
<rect x="209.234" y="5.23438" width="5.23075" height="5.23075" transform="rotate(180 209.234 5.23438)" fill="#A1A1A1"/>
<rect x="94.1562" y="251.078" width="5.23075" height="5.23075" fill="#A1A1A1"/>
<rect x="183.078" y="20.9219" width="5.23075" height="5.23075" transform="rotate(180 183.078 20.9219)" fill="#A1A1A1"/>
<rect x="88.9219" y="266.77" width="5.23075" height="5.23075" fill="#A1A1A1"/>
<rect x="188.312" y="5.23438" width="5.23075" height="5.23075" transform="rotate(180 188.312 5.23438)" fill="#A1A1A1"/>
<rect x="115.078" y="251.078" width="5.23075" height="5.23075" fill="#A1A1A1"/>
<rect x="162.156" y="20.9219" width="5.23075" height="5.23075" transform="rotate(180 162.156 20.9219)" fill="#A1A1A1"/>
<rect x="120.312" y="266.77" width="5.23075" height="5.23075" fill="#A1A1A1"/>
<rect x="156.922" y="5.23438" width="5.23075" height="5.23075" transform="rotate(180 156.922 5.23438)" fill="#A1A1A1"/>
<rect x="146.461" y="251.078" width="5.23075" height="5.23075" fill="#A1A1A1"/>
<rect x="130.766" y="20.9219" width="5.23075" height="5.23075" transform="rotate(180 130.766 20.9219)" fill="#A1A1A1"/>
<rect x="141.234" y="266.77" width="5.23075" height="5.23075" fill="#A1A1A1"/>
<rect x="136" y="5.23438" width="5.23075" height="5.23075" transform="rotate(180 136 5.23438)" fill="#A1A1A1"/>
<rect x="172.609" y="266.77" width="5.23075" height="5.23075" fill="#A1A1A1"/>
<rect x="104.609" y="5.23438" width="5.23075" height="5.23075" transform="rotate(180 104.609 5.23438)" fill="#A1A1A1"/>
<rect x="167.383" y="251.078" width="5.23075" height="5.23075" fill="#A1A1A1"/>
<rect x="109.844" y="20.9219" width="5.23075" height="5.23075" transform="rotate(180 109.844 20.9219)" fill="#A1A1A1"/>
<rect x="193.539" y="266.77" width="5.23075" height="5.23075" fill="#A1A1A1"/>
<rect x="83.6875" y="5.23438" width="5.23075" height="5.23075" transform="rotate(180 83.6875 5.23438)" fill="#A1A1A1"/>
<rect x="198.766" y="251.078" width="5.23075" height="5.23075" fill="#A1A1A1"/>
<rect x="78.4609" y="20.9219" width="5.23075" height="5.23075" transform="rotate(180 78.4609 20.9219)" fill="#A1A1A1"/>
<rect x="219.688" y="251.078" width="5.23075" height="5.23075" fill="#A1A1A1"/>
<rect x="57.5391" y="20.9219" width="5.23075" height="5.23075" transform="rotate(180 57.5391 20.9219)" fill="#A1A1A1"/>
<rect x="224.922" y="266.77" width="5.23075" height="5.23075" fill="#A1A1A1"/>
<rect x="52.3125" y="5.23438" width="5.23075" height="5.23075" transform="rotate(180 52.3125 5.23438)" fill="#A1A1A1"/>
<rect x="245.844" y="251.078" width="5.23075" height="5.23075" fill="#A1A1A1"/>
<rect x="31.3906" y="20.9219" width="5.23075" height="5.23075" transform="rotate(180 31.3906 20.9219)" fill="#A1A1A1"/>
<rect x="15.6875" y="251.078" width="5.23075" height="5.23075" fill="#A1A1A1"/>
<rect x="261.539" y="20.9219" width="5.23075" height="5.23075" transform="rotate(180 261.539 20.9219)" fill="#A1A1A1"/>
<rect x="20.9219" y="266.77" width="5.23075" height="5.23075" fill="#A1A1A1"/>
<rect x="256.312" y="5.23438" width="5.23075" height="5.23075" transform="rotate(180 256.312 5.23438)" fill="#A1A1A1"/>
<rect x="47.0781" y="251.078" width="5.23075" height="5.23075" fill="#A1A1A1"/>
<rect x="230.156" y="20.9219" width="5.23075" height="5.23075" transform="rotate(180 230.156 20.9219)" fill="#A1A1A1"/>
<rect x="41.8438" y="266.77" width="5.23075" height="5.23075" fill="#A1A1A1"/>
<rect x="235.383" y="5.23438" width="5.23075" height="5.23075" transform="rotate(180 235.383 5.23438)" fill="#A1A1A1"/>
<rect x="68" y="251.078" width="5.23075" height="5.23075" fill="#A1A1A1"/>
<rect x="209.234" y="20.9219" width="5.23075" height="5.23075" transform="rotate(180 209.234 20.9219)" fill="#A1A1A1"/>
<rect x="73.2344" y="266.77" width="5.23075" height="5.23075" fill="#A1A1A1"/>
<rect x="204" y="5.23438" width="5.23075" height="5.23075" transform="rotate(180 204 5.23438)" fill="#A1A1A1"/>
<rect x="99.3828" y="251.078" width="5.23075" height="5.23075" fill="#A1A1A1"/>
<rect x="177.844" y="20.9219" width="5.23075" height="5.23075" transform="rotate(180 177.844 20.9219)" fill="#A1A1A1"/>
<rect x="94.1562" y="266.77" width="5.23075" height="5.23075" fill="#A1A1A1"/>
<rect x="183.078" y="5.23438" width="5.23075" height="5.23075" transform="rotate(180 183.078 5.23438)" fill="#A1A1A1"/>
<rect x="120.312" y="251.078" width="5.23075" height="5.23075" fill="#A1A1A1"/>
<rect x="156.922" y="20.9219" width="5.23075" height="5.23075" transform="rotate(180 156.922 20.9219)" fill="#A1A1A1"/>
<rect x="125.539" y="266.77" width="5.23075" height="5.23075" fill="#A1A1A1"/>
<rect x="151.688" y="5.23438" width="5.23075" height="5.23075" transform="rotate(180 151.688 5.23438)" fill="#A1A1A1"/>
<rect x="151.688" y="251.078" width="5.23075" height="5.23075" fill="#A1A1A1"/>
<rect x="125.539" y="20.9219" width="5.23075" height="5.23075" transform="rotate(180 125.539 20.9219)" fill="#A1A1A1"/>
<rect x="146.461" y="266.77" width="5.23075" height="5.23075" fill="#A1A1A1"/>
<rect x="130.766" y="5.23438" width="5.23075" height="5.23075" transform="rotate(180 130.766 5.23438)" fill="#A1A1A1"/>
<rect x="177.844" y="266.77" width="5.23075" height="5.23075" fill="#A1A1A1"/>
<rect x="99.3828" y="5.23438" width="5.23075" height="5.23075" transform="rotate(180 99.3828 5.23438)" fill="#A1A1A1"/>
<rect x="172.609" y="251.078" width="5.23075" height="5.23075" fill="#A1A1A1"/>
<rect x="104.609" y="20.9219" width="5.23075" height="5.23075" transform="rotate(180 104.609 20.9219)" fill="#A1A1A1"/>
<rect x="198.766" y="266.77" width="5.23075" height="5.23075" fill="#A1A1A1"/>
<rect x="78.4609" y="5.23438" width="5.23075" height="5.23075" transform="rotate(180 78.4609 5.23438)" fill="#A1A1A1"/>
<rect x="204" y="251.078" width="5.23075" height="5.23075" fill="#A1A1A1"/>
<rect x="73.2344" y="20.9219" width="5.23075" height="5.23075" transform="rotate(180 73.2344 20.9219)" fill="#A1A1A1"/>
<rect x="224.922" y="251.078" width="5.23075" height="5.23075" fill="#A1A1A1"/>
<rect x="52.3125" y="20.9219" width="5.23075" height="5.23075" transform="rotate(180 52.3125 20.9219)" fill="#A1A1A1"/>
<rect x="230.156" y="266.77" width="5.23075" height="5.23075" fill="#A1A1A1"/>
<rect x="47.0781" y="5.23438" width="5.23075" height="5.23075" transform="rotate(180 47.0781 5.23438)" fill="#A1A1A1"/>
<rect x="251.078" y="251.078" width="5.23075" height="5.23075" fill="#A1A1A1"/>
<rect x="26.1562" y="20.9219" width="5.23075" height="5.23075" transform="rotate(180 26.1562 20.9219)" fill="#A1A1A1"/>
<rect x="245.844" y="266.77" width="5.23075" height="5.23075" fill="#A1A1A1"/>
<rect x="31.3906" y="5.23438" width="5.23075" height="5.23075" transform="rotate(180 31.3906 5.23438)" fill="#A1A1A1"/>
<rect x="251.078" y="266.77" width="5.23075" height="5.23075" fill="#A1A1A1"/>
<rect x="26.1562" y="5.23438" width="5.23075" height="5.23075" transform="rotate(180 26.1562 5.23438)" fill="#A1A1A1"/>
<rect x="20.9219" y="251.078" width="5.23075" height="5.23075" fill="#A1A1A1"/>
<rect x="256.312" y="20.9219" width="5.23075" height="5.23075" transform="rotate(180 256.312 20.9219)" fill="#A1A1A1"/>
<rect x="26.1562" y="266.77" width="5.23075" height="5.23075" fill="#A1A1A1"/>
<rect x="251.078" y="5.23438" width="5.23075" height="5.23075" transform="rotate(180 251.078 5.23438)" fill="#A1A1A1"/>
<rect x="52.3125" y="251.078" width="5.23075" height="5.23075" fill="#A1A1A1"/>
<rect x="224.922" y="20.9219" width="5.23075" height="5.23075" transform="rotate(180 224.922 20.9219)" fill="#A1A1A1"/>
<rect x="47.0781" y="266.77" width="5.23075" height="5.23075" fill="#A1A1A1"/>
<rect x="230.156" y="5.23438" width="5.23075" height="5.23075" transform="rotate(180 230.156 5.23438)" fill="#A1A1A1"/>
<rect x="73.2344" y="251.078" width="5.23075" height="5.23075" fill="#A1A1A1"/>
<rect x="204" y="20.9219" width="5.23075" height="5.23075" transform="rotate(180 204 20.9219)" fill="#A1A1A1"/>
<rect x="78.4609" y="266.77" width="5.23075" height="5.23075" fill="#A1A1A1"/>
<rect x="198.766" y="5.23438" width="5.23075" height="5.23075" transform="rotate(180 198.766 5.23438)" fill="#A1A1A1"/>
<rect x="104.609" y="251.078" width="5.23075" height="5.23075" fill="#A1A1A1"/>
<rect x="172.609" y="20.9219" width="5.23075" height="5.23075" transform="rotate(180 172.609 20.9219)" fill="#A1A1A1"/>
<rect x="99.3828" y="266.77" width="5.23075" height="5.23075" fill="#A1A1A1"/>
<rect x="177.844" y="5.23438" width="5.23075" height="5.23075" transform="rotate(180 177.844 5.23438)" fill="#A1A1A1"/>
<rect x="125.539" y="251.078" width="5.23075" height="5.23075" fill="#A1A1A1"/>
<rect x="151.688" y="20.9219" width="5.23075" height="5.23075" transform="rotate(180 151.688 20.9219)" fill="#A1A1A1"/>
<rect x="130.766" y="266.77" width="5.23075" height="5.23075" fill="#A1A1A1"/>
<rect x="146.461" y="5.23438" width="5.23075" height="5.23075" transform="rotate(180 146.461 5.23438)" fill="#A1A1A1"/>
<rect x="156.922" y="251.078" width="5.23075" height="5.23075" fill="#A1A1A1"/>
<rect x="120.312" y="20.9219" width="5.23075" height="5.23075" transform="rotate(180 120.312 20.9219)" fill="#A1A1A1"/>
<rect x="151.688" y="266.77" width="5.23075" height="5.23075" fill="#A1A1A1"/>
<rect x="125.539" y="5.23438" width="5.23075" height="5.23075" transform="rotate(180 125.539 5.23438)" fill="#A1A1A1"/>
<rect x="183.078" y="266.77" width="5.23075" height="5.23075" fill="#A1A1A1"/>
<rect x="94.1562" y="5.23438" width="5.23075" height="5.23075" transform="rotate(180 94.1562 5.23438)" fill="#A1A1A1"/>
<rect x="177.844" y="251.078" width="5.23075" height="5.23075" fill="#A1A1A1"/>
<rect x="99.3828" y="20.9219" width="5.23075" height="5.23075" transform="rotate(180 99.3828 20.9219)" fill="#A1A1A1"/>
<rect x="204" y="266.77" width="5.23075" height="5.23075" fill="#A1A1A1"/>
<rect x="73.2344" y="5.23438" width="5.23075" height="5.23075" transform="rotate(180 73.2344 5.23438)" fill="#A1A1A1"/>
<rect x="209.234" y="251.078" width="5.23075" height="5.23075" fill="#A1A1A1"/>
<rect x="68" y="20.9219" width="5.23075" height="5.23075" transform="rotate(180 68 20.9219)" fill="#A1A1A1"/>
<rect x="230.156" y="251.078" width="5.23075" height="5.23075" fill="#A1A1A1"/>
<rect x="47.0781" y="20.9219" width="5.23075" height="5.23075" transform="rotate(180 47.0781 20.9219)" fill="#A1A1A1"/>
<rect x="235.383" y="266.77" width="5.23075" height="5.23075" fill="#A1A1A1"/>
<rect x="41.8438" y="5.23438" width="5.23075" height="5.23075" transform="rotate(180 41.8438 5.23438)" fill="#A1A1A1"/>
<rect x="256.312" y="251.078" width="5.23075" height="5.23075" fill="#A1A1A1"/>
<rect x="20.9219" y="20.9219" width="5.23075" height="5.23075" transform="rotate(180 20.9219 20.9219)" fill="#A1A1A1"/>
<rect x="193.539" y="272" width="5.23075" height="5.23075" transform="rotate(180 193.539 272)" fill="#A1A1A1"/>
<rect width="5.23075" height="5.23075" transform="matrix(1 -2.85985e-08 1.85751e-06 1 83.6875 0)" fill="#A1A1A1"/>
<rect x="57.5391" y="251.078" width="5.23075" height="5.23075" fill="#A1A1A1"/>
<rect x="219.688" y="20.9219" width="5.23075" height="5.23075" transform="rotate(180 219.688 20.9219)" fill="#A1A1A1"/>
<rect width="5.23075" height="5.23075" transform="matrix(1 -2.39346e-06 2.21945e-08 1 0 266.77)" fill="#A1A1A1"/>
<rect x="198.766" y="256.309" width="5.23075" height="5.23075" transform="rotate(180 198.766 256.309)" fill="#A1A1A1"/>
<rect x="78.4609" y="15.6953" width="5.23075" height="5.23075" fill="#A1A1A1"/>
<rect x="52.3125" y="266.77" width="5.23075" height="5.23075" fill="#A1A1A1"/>
<rect x="224.922" y="5.23438" width="5.23075" height="5.23075" transform="rotate(180 224.922 5.23438)" fill="#A1A1A1"/>
<rect x="146.461" y="256.309" width="5.23075" height="5.23075" transform="rotate(180 146.461 256.309)" fill="#A1A1A1"/>
<rect x="130.766" y="15.6953" width="5.23075" height="5.23075" fill="#A1A1A1"/>
<rect x="104.609" y="266.77" width="5.23075" height="5.23075" fill="#A1A1A1"/>
<rect x="172.609" y="5.23438" width="5.23075" height="5.23075" transform="rotate(180 172.609 5.23438)" fill="#A1A1A1"/>
<rect x="94.1562" y="256.309" width="5.23075" height="5.23075" transform="rotate(180 94.1562 256.309)" fill="#A1A1A1"/>
<rect x="183.078" y="15.6953" width="5.23075" height="5.23075" fill="#A1A1A1"/>
<rect x="156.922" y="266.77" width="5.23075" height="5.23075" fill="#A1A1A1"/>
<rect x="120.312" y="5.23438" width="5.23075" height="5.23075" transform="rotate(180 120.312 5.23438)" fill="#A1A1A1"/>
<rect x="41.8438" y="256.309" width="5.23075" height="5.23075" transform="rotate(180 41.8438 256.309)" fill="#A1A1A1"/>
<rect x="235.383" y="15.6953" width="5.23075" height="5.23075" fill="#A1A1A1"/>
<rect x="209.234" y="266.77" width="5.23075" height="5.23075" fill="#A1A1A1"/>
<rect x="68" y="5.23438" width="5.23075" height="5.23075" transform="rotate(180 68 5.23438)" fill="#A1A1A1"/>
<rect x="256.312" y="266.77" width="5.23075" height="5.23075" fill="#A1A1A1"/>
<rect x="20.9219" y="5.23438" width="5.23075" height="5.23075" transform="rotate(180 20.9219 5.23438)" fill="#A1A1A1"/>
<rect x="251.078" y="261.539" width="5.23075" height="5.23075" transform="rotate(180 251.078 261.539)" fill="#A1A1A1"/>
<rect x="26.1562" y="10.4648" width="5.23075" height="5.23075" fill="#A1A1A1"/>
<rect width="5.23075" height="5.23075" transform="matrix(1 -1.20559e-06 4.40628e-08 1 0 261.539)" fill="#A1A1A1"/>
<rect x="198.766" y="261.539" width="5.23075" height="5.23075" transform="rotate(180 198.766 261.539)" fill="#A1A1A1"/>
<rect x="78.4609" y="10.4648" width="5.23075" height="5.23075" fill="#A1A1A1"/>
<rect x="52.3125" y="261.539" width="5.23075" height="5.23075" fill="#A1A1A1"/>
<rect x="224.922" y="10.4648" width="5.23075" height="5.23075" transform="rotate(180 224.922 10.4648)" fill="#A1A1A1"/>
<rect x="146.461" y="261.539" width="5.23075" height="5.23075" transform="rotate(180 146.461 261.539)" fill="#A1A1A1"/>
<rect x="130.766" y="10.4648" width="5.23075" height="5.23075" fill="#A1A1A1"/>
<rect x="104.609" y="261.539" width="5.23075" height="5.23075" fill="#A1A1A1"/>
<rect x="172.609" y="10.4648" width="5.23075" height="5.23075" transform="rotate(180 172.609 10.4648)" fill="#A1A1A1"/>
<rect x="94.1562" y="261.539" width="5.23075" height="5.23075" transform="rotate(180 94.1562 261.539)" fill="#A1A1A1"/>
<rect x="183.078" y="10.4648" width="5.23075" height="5.23075" fill="#A1A1A1"/>
<rect x="156.922" y="261.539" width="5.23075" height="5.23075" fill="#A1A1A1"/>
<rect x="120.312" y="10.4648" width="5.23075" height="5.23075" transform="rotate(180 120.312 10.4648)" fill="#A1A1A1"/>
<rect x="41.8438" y="261.539" width="5.23075" height="5.23075" transform="rotate(180 41.8438 261.539)" fill="#A1A1A1"/>
<rect x="235.383" y="10.4648" width="5.23075" height="5.23075" fill="#A1A1A1"/>
<rect x="209.234" y="261.539" width="5.23075" height="5.23075" fill="#A1A1A1"/>
<rect x="68" y="10.4648" width="5.23075" height="5.23075" transform="rotate(180 68 10.4648)" fill="#A1A1A1"/>
<rect x="256.312" y="261.539" width="5.23075" height="5.23075" fill="#A1A1A1"/>
<rect x="20.9219" y="10.4648" width="5.23075" height="5.23075" transform="rotate(180 20.9219 10.4648)" fill="#A1A1A1"/>
<rect x="245.844" y="266.77" width="5.23075" height="5.23075" transform="rotate(180 245.844 266.77)" fill="#A1A1A1"/>
<rect x="31.3906" y="5.23438" width="5.23075" height="5.23075" fill="#A1A1A1"/>
<rect x="5.23438" y="256.309" width="5.23075" height="5.23075" fill="#A1A1A1"/>
<rect x="272" y="15.6953" width="5.23075" height="5.23075" transform="rotate(180 272 15.6953)" fill="#A1A1A1"/>
<rect x="193.539" y="266.77" width="5.23075" height="5.23075" transform="rotate(180 193.539 266.77)" fill="#A1A1A1"/>
<rect x="83.6875" y="5.23438" width="5.23075" height="5.23075" fill="#A1A1A1"/>
<rect x="57.5391" y="256.309" width="5.23075" height="5.23075" fill="#A1A1A1"/>
<rect x="219.688" y="15.6953" width="5.23075" height="5.23075" transform="rotate(180 219.688 15.6953)" fill="#A1A1A1"/>
<rect x="141.234" y="266.77" width="5.23075" height="5.23075" transform="rotate(180 141.234 266.77)" fill="#A1A1A1"/>
<rect x="136" y="5.23438" width="5.23075" height="5.23075" fill="#A1A1A1"/>
<rect x="109.844" y="256.309" width="5.23075" height="5.23075" fill="#A1A1A1"/>
<rect x="167.383" y="15.6953" width="5.23075" height="5.23075" transform="rotate(180 167.383 15.6953)" fill="#A1A1A1"/>
<rect x="88.9219" y="266.77" width="5.23075" height="5.23075" transform="rotate(180 88.9219 266.77)" fill="#A1A1A1"/>
<rect x="188.312" y="5.23438" width="5.23075" height="5.23075" fill="#A1A1A1"/>
<rect x="162.156" y="256.309" width="5.23075" height="5.23075" fill="#A1A1A1"/>
<rect x="115.078" y="15.6953" width="5.23075" height="5.23075" transform="rotate(180 115.078 15.6953)" fill="#A1A1A1"/>
<rect x="36.6094" y="266.77" width="5.23075" height="5.23075" transform="rotate(180 36.6094 266.77)" fill="#A1A1A1"/>
<rect x="240.609" y="5.23438" width="5.23075" height="5.23075" fill="#A1A1A1"/>
<rect x="214.461" y="256.309" width="5.23075" height="5.23075" fill="#A1A1A1"/>
<rect x="62.7656" y="15.6953" width="5.23075" height="5.23075" transform="rotate(180 62.7656 15.6953)" fill="#A1A1A1"/>
<rect x="261.539" y="256.309" width="5.23075" height="5.23075" fill="#A1A1A1"/>
<rect x="15.6875" y="15.6953" width="5.23075" height="5.23075" transform="rotate(180 15.6875 15.6953)" fill="#A1A1A1"/>
<rect x="141.234" y="272" width="5.23075" height="5.23075" transform="rotate(180 141.234 272)" fill="#A1A1A1"/>
<rect width="5.23075" height="5.23075" transform="matrix(1 -2.21945e-08 2.39346e-06 1 136 0)" fill="#A1A1A1"/>
<rect x="109.844" y="251.078" width="5.23075" height="5.23075" fill="#A1A1A1"/>
<rect x="167.383" y="20.9219" width="5.23075" height="5.23075" transform="rotate(180 167.383 20.9219)" fill="#A1A1A1"/>
<rect x="88.9219" y="272" width="5.23075" height="5.23075" transform="rotate(180 88.9219 272)" fill="#A1A1A1"/>
<rect width="5.23075" height="5.23075" transform="matrix(1 -1.44051e-08 3.68771e-06 1 188.312 0)" fill="#A1A1A1"/>
<rect x="162.156" y="251.078" width="5.23075" height="5.23075" fill="#A1A1A1"/>
<rect x="115.078" y="20.9219" width="5.23075" height="5.23075" transform="rotate(180 115.078 20.9219)" fill="#A1A1A1"/>
<rect x="36.6094" y="272" width="5.23075" height="5.23075" transform="rotate(180 36.6094 272)" fill="#A1A1A1"/>
<rect width="5.23075" height="5.23075" transform="matrix(1 -1.44051e-08 3.68771e-06 1 240.609 0)" fill="#A1A1A1"/>
<rect x="214.461" y="251.078" width="5.23075" height="5.23075" fill="#A1A1A1"/>
<rect x="62.7656" y="20.9219" width="5.23075" height="5.23075" transform="rotate(180 62.7656 20.9219)" fill="#A1A1A1"/>
<rect x="261.539" y="251.078" width="5.23075" height="5.23075" fill="#A1A1A1"/>
<rect x="15.6875" y="20.9219" width="5.23075" height="5.23075" transform="rotate(180 15.6875 20.9219)" fill="#A1A1A1"/>
<rect x="36.6094" y="272" width="5.23075" height="5.23075" transform="rotate(180 36.6094 272)" fill="#A1A1A1"/>
<rect width="5.23075" height="5.23075" transform="matrix(1 -1.44051e-08 3.68771e-06 1 240.609 0)" fill="#A1A1A1"/>
<rect x="214.461" y="251.078" width="5.23075" height="5.23075" fill="#A1A1A1"/>
<rect x="62.7656" y="20.9219" width="5.23075" height="5.23075" transform="rotate(180 62.7656 20.9219)" fill="#A1A1A1"/>
<rect x="261.539" y="251.078" width="5.23075" height="5.23075" fill="#A1A1A1"/>
<rect x="15.6875" y="20.9219" width="5.23075" height="5.23075" transform="rotate(180 15.6875 20.9219)" fill="#A1A1A1"/>
<rect x="240.609" y="261.539" width="5.23075" height="5.23075" transform="rotate(180 240.609 261.539)" fill="#A1A1A1"/>
<rect x="36.6094" y="10.4648" width="5.23075" height="5.23075" fill="#A1A1A1"/>
<rect x="10.4609" y="261.539" width="5.23075" height="5.23075" fill="#A1A1A1"/>
<rect x="266.766" y="10.4648" width="5.23075" height="5.23075" transform="rotate(180 266.766 10.4648)" fill="#A1A1A1"/>
<rect x="240.609" y="256.309" width="5.23075" height="5.23075" transform="rotate(180 240.609 256.309)" fill="#A1A1A1"/>
<rect x="36.6094" y="15.6953" width="5.23075" height="5.23075" fill="#A1A1A1"/>
<rect x="10.4609" y="266.77" width="5.23075" height="5.23075" fill="#A1A1A1"/>
<rect x="266.766" y="5.23438" width="5.23075" height="5.23075" transform="rotate(180 266.766 5.23438)" fill="#A1A1A1"/>
<rect x="188.312" y="261.539" width="5.23075" height="5.23075" transform="rotate(180 188.312 261.539)" fill="#A1A1A1"/>
<rect x="88.9219" y="10.4648" width="5.23075" height="5.23075" fill="#A1A1A1"/>
<rect x="62.7656" y="261.539" width="5.23075" height="5.23075" fill="#A1A1A1"/>
<rect x="214.461" y="10.4648" width="5.23075" height="5.23075" transform="rotate(180 214.461 10.4648)" fill="#A1A1A1"/>
<rect x="136" y="261.539" width="5.23075" height="5.23075" transform="rotate(180 136 261.539)" fill="#A1A1A1"/>
<rect x="141.234" y="10.4648" width="5.23075" height="5.23075" fill="#A1A1A1"/>
<rect x="115.078" y="261.539" width="5.23075" height="5.23075" fill="#A1A1A1"/>
<rect x="162.156" y="10.4648" width="5.23075" height="5.23075" transform="rotate(180 162.156 10.4648)" fill="#A1A1A1"/>
<rect x="83.6875" y="261.539" width="5.23075" height="5.23075" transform="rotate(180 83.6875 261.539)" fill="#A1A1A1"/>
<rect x="193.539" y="10.4648" width="5.23075" height="5.23075" fill="#A1A1A1"/>
<rect x="167.383" y="261.539" width="5.23075" height="5.23075" fill="#A1A1A1"/>
<rect x="109.844" y="10.4648" width="5.23075" height="5.23075" transform="rotate(180 109.844 10.4648)" fill="#A1A1A1"/>
<rect x="188.312" y="256.309" width="5.23075" height="5.23075" transform="rotate(180 188.312 256.309)" fill="#A1A1A1"/>
<rect x="88.9219" y="15.6953" width="5.23075" height="5.23075" fill="#A1A1A1"/>
<rect x="62.7656" y="266.77" width="5.23075" height="5.23075" fill="#A1A1A1"/>
<rect x="214.461" y="5.23438" width="5.23075" height="5.23075" transform="rotate(180 214.461 5.23438)" fill="#A1A1A1"/>
<rect x="136" y="256.309" width="5.23075" height="5.23075" transform="rotate(180 136 256.309)" fill="#A1A1A1"/>
<rect x="141.234" y="15.6953" width="5.23075" height="5.23075" fill="#A1A1A1"/>
<rect x="115.078" y="266.77" width="5.23075" height="5.23075" fill="#A1A1A1"/>
<rect x="162.156" y="5.23438" width="5.23075" height="5.23075" transform="rotate(180 162.156 5.23438)" fill="#A1A1A1"/>
<rect x="83.6875" y="256.309" width="5.23075" height="5.23075" transform="rotate(180 83.6875 256.309)" fill="#A1A1A1"/>
<rect x="193.539" y="15.6953" width="5.23075" height="5.23075" fill="#A1A1A1"/>
<rect x="167.383" y="266.77" width="5.23075" height="5.23075" fill="#A1A1A1"/>
<rect x="109.844" y="5.23438" width="5.23075" height="5.23075" transform="rotate(180 109.844 5.23438)" fill="#A1A1A1"/>
<rect x="31.3906" y="261.539" width="5.23075" height="5.23075" transform="rotate(180 31.3906 261.539)" fill="#A1A1A1"/>
<rect x="245.844" y="10.4648" width="5.23075" height="5.23075" fill="#A1A1A1"/>
<rect x="219.688" y="261.539" width="5.23075" height="5.23075" fill="#A1A1A1"/>
<rect x="57.5391" y="10.4648" width="5.23075" height="5.23075" transform="rotate(180 57.5391 10.4648)" fill="#A1A1A1"/>
<rect x="266.766" y="261.539" width="5.23075" height="5.23075" fill="#A1A1A1"/>
<rect x="10.4609" y="10.4648" width="5.23075" height="5.23075" transform="rotate(180 10.4609 10.4648)" fill="#A1A1A1"/>
<rect x="31.3906" y="256.309" width="5.23075" height="5.23075" transform="rotate(180 31.3906 256.309)" fill="#A1A1A1"/>
<rect x="245.844" y="15.6953" width="5.23075" height="5.23075" fill="#A1A1A1"/>
<rect x="219.688" y="266.77" width="5.23075" height="5.23075" fill="#A1A1A1"/>
<rect x="57.5391" y="5.23438" width="5.23075" height="5.23075" transform="rotate(180 57.5391 5.23438)" fill="#A1A1A1"/>
<rect x="266.766" y="266.77" width="5.23075" height="5.23075" fill="#A1A1A1"/>
<rect x="10.4609" y="5.23438" width="5.23075" height="5.23075" transform="rotate(180 10.4609 5.23438)" fill="#A1A1A1"/>
<circle cx="72.0301" cy="127.436" r="12.5926" fill="black"/>
<path d="M130.365 128.852C131.146 128.071 131.146 126.804 130.365 126.023L117.637 113.295C116.856 112.514 115.59 112.514 114.809 113.295C114.028 114.076 114.028 115.343 114.809 116.124L126.122 127.437L114.809 138.751C114.028 139.532 114.028 140.799 114.809 141.58C115.59 142.361 116.856 142.361 117.637 141.58L130.365 128.852ZM84.625 127.438V129.438H128.951V127.437V125.437L84.625 125.438V127.438Z" fill="white"/>
<path d="M46.8063 182.097C47.1692 183.141 48.3092 183.692 49.3524 183.329L66.3531 177.415C67.3963 177.052 67.9478 175.912 67.5849 174.869C67.222 173.826 66.0821 173.274 65.0388 173.637L49.9271 178.894L44.6701 163.782C44.3072 162.739 43.1672 162.188 42.124 162.551C41.0807 162.914 40.5292 164.053 40.8922 165.097L46.8063 182.097ZM68 141.539L66.1996 140.668L46.8949 180.569L48.6953 181.44L50.4956 182.311L69.8004 142.41L68 141.539Z" fill="white"/>
<path d="M93.8588 182.977C94.899 183.348 96.0434 182.806 96.4149 181.766L102.468 164.814C102.84 163.774 102.298 162.63 101.257 162.258C100.217 161.887 99.0728 162.429 98.7013 163.469L93.3205 178.537L78.2524 173.156C77.2122 172.785 76.0678 173.327 75.6963 174.367C75.3248 175.408 75.867 176.552 76.9072 176.923L93.8588 182.977ZM75.5547 141.035L73.7472 141.891L92.7239 181.95L94.5314 181.093L96.3388 180.237L77.3621 140.179L75.5547 141.035Z" fill="white"/>
<path d="M13.6975 126.023C12.9165 126.804 12.9165 128.071 13.6975 128.852L26.4254 141.58C27.2065 142.361 28.4728 142.361 29.2539 141.58C30.0349 140.799 30.0349 139.532 29.2539 138.751L17.9402 127.437L29.2539 116.124C30.0349 115.343 30.0349 114.076 29.2539 113.295C28.4728 112.514 27.2065 112.514 26.4254 113.295L13.6975 126.023ZM59.4375 127.438L59.4375 125.438L15.1117 125.437L15.1117 127.437L15.1117 129.437L59.4375 129.438L59.4375 127.438Z" fill="white"/>
<path d="M45.4758 70.6645C44.4212 70.336 43.3 70.9246 42.9715 71.9792L37.6182 89.1647C37.2897 90.2193 37.8784 91.3405 38.9329 91.669C39.9875 91.9975 41.1088 91.4089 41.4373 90.3543L46.1957 75.0783L61.4717 79.8367C62.5263 80.1652 63.6475 79.5766 63.976 78.522C64.3045 77.4674 63.7159 76.3462 62.6613 76.0177L45.4758 70.6645ZM65.4844 111.82L67.2552 110.891L46.6518 71.6443L44.881 72.574L43.1102 73.5036L63.7136 112.75L65.4844 111.82Z" fill="white"/>
<path d="M97.2788 72.0476C96.9296 70.9996 95.797 70.4332 94.7491 70.7824L77.6723 76.473C76.6244 76.8222 76.0579 77.9548 76.4071 79.0027C76.7563 80.0506 77.8889 80.617 78.9368 80.2678L94.1162 75.2096L99.1745 90.3889C99.5237 91.4369 100.656 92.0033 101.704 91.6541C102.752 91.3049 103.319 90.1723 102.969 89.1244L97.2788 72.0476ZM75.5547 112.324L77.3435 113.219L97.1702 73.5744L95.3814 72.6798L93.5926 71.7853L73.7659 111.43L75.5547 112.324Z" fill="white"/>
</svg>
