<svg width="272" height="272" viewBox="0 0 272 272" fill="none" xmlns="http://www.w3.org/2000/svg">
<rect x="127.319" y="69.4463" width="5.78723" height="5.78723" fill="#A1A1A1"/>
<rect x="144.681" y="202.554" width="5.78723" height="5.78723" transform="rotate(180 144.681 202.554)" fill="#A1A1A1"/>
<rect y="69.4463" width="5.78723" height="5.78723" fill="#A1A1A1"/>
<rect x="272" y="202.554" width="5.78723" height="5.78723" transform="rotate(180 272 202.554)" fill="#A1A1A1"/>
<rect x="254.639" y="69.4463" width="5.78723" height="5.78723" fill="#A1A1A1"/>
<rect x="17.3623" y="202.554" width="5.78723" height="5.78723" transform="rotate(180 17.3623 202.554)" fill="#A1A1A1"/>
<rect x="127.319" y="5.78711" width="5.78723" height="5.78723" fill="#A1A1A1"/>
<rect x="144.681" y="266.213" width="5.78723" height="5.78723" transform="rotate(180 144.681 266.213)" fill="#A1A1A1"/>
<rect x="190.979" y="5.78711" width="5.78723" height="5.78723" fill="#A1A1A1"/>
<rect x="81.0215" y="266.213" width="5.78723" height="5.78723" transform="rotate(180 81.0215 266.213)" fill="#A1A1A1"/>
<rect y="5.78711" width="5.78723" height="5.78723" fill="#A1A1A1"/>
<rect x="272" y="266.213" width="5.78723" height="5.78723" transform="rotate(180 272 266.213)" fill="#A1A1A1"/>
<rect x="254.639" y="5.78711" width="5.78723" height="5.78723" fill="#A1A1A1"/>
<rect x="17.3623" y="266.213" width="5.78723" height="5.78723" transform="rotate(180 17.3623 266.213)" fill="#A1A1A1"/>
<rect x="63.6592" y="5.78711" width="5.78723" height="5.78723" fill="#A1A1A1"/>
<rect x="208.341" y="266.213" width="5.78723" height="5.78723" transform="rotate(180 208.341 266.213)" fill="#A1A1A1"/>
<rect x="190.979" y="133.106" width="5.78723" height="5.78723" fill="#A1A1A1"/>
<rect y="133.106" width="5.78723" height="5.78723" fill="#A1A1A1"/>
<rect x="254.639" y="133.106" width="5.78723" height="5.78723" fill="#A1A1A1"/>
<rect x="63.6592" y="133.106" width="5.78723" height="5.78723" fill="#A1A1A1"/>
<rect x="138.894" y="75.2334" width="5.78723" height="5.78723" transform="rotate(90 138.894 75.2334)" fill="#A1A1A1"/>
<rect x="133.106" y="196.767" width="5.78723" height="5.78723" transform="rotate(-90 133.106 196.767)" fill="#A1A1A1"/>
<rect x="133.106" y="202.554" width="5.78723" height="5.78723" transform="rotate(-90 133.106 202.554)" fill="#A1A1A1"/>
<rect x="11.5742" y="75.2334" width="5.78723" height="5.78723" transform="rotate(90 11.5742 75.2334)" fill="#A1A1A1"/>
<rect x="260.426" y="196.767" width="5.78723" height="5.78723" transform="rotate(-90 260.426 196.767)" fill="#A1A1A1"/>
<rect x="266.213" y="75.2334" width="5.78723" height="5.78723" transform="rotate(90 266.213 75.2334)" fill="#A1A1A1"/>
<rect x="5.78711" y="196.767" width="5.78723" height="5.78723" transform="rotate(-90 5.78711 196.767)" fill="#A1A1A1"/>
<rect x="138.894" y="11.5742" width="5.78723" height="5.78723" transform="rotate(90 138.894 11.5742)" fill="#A1A1A1"/>
<rect x="133.106" y="260.426" width="5.78723" height="5.78723" transform="rotate(-90 133.106 260.426)" fill="#A1A1A1"/>
<rect x="202.554" y="11.5742" width="5.78723" height="5.78723" transform="rotate(90 202.554 11.5742)" fill="#A1A1A1"/>
<rect x="69.4473" y="260.426" width="5.78723" height="5.78723" transform="rotate(-90 69.4473 260.426)" fill="#A1A1A1"/>
<rect x="11.5742" y="11.5742" width="5.78723" height="5.78723" transform="rotate(90 11.5742 11.5742)" fill="#A1A1A1"/>
<rect x="260.426" y="260.426" width="5.78723" height="5.78723" transform="rotate(-90 260.426 260.426)" fill="#A1A1A1"/>
<rect x="266.213" y="11.5742" width="5.78723" height="5.78723" transform="rotate(90 266.213 11.5742)" fill="#A1A1A1"/>
<rect x="5.78711" y="260.426" width="5.78723" height="5.78723" transform="rotate(-90 5.78711 260.426)" fill="#A1A1A1"/>
<rect x="75.2344" y="11.5742" width="5.78723" height="5.78723" transform="rotate(90 75.2344 11.5742)" fill="#A1A1A1"/>
<rect x="196.766" y="260.426" width="5.78723" height="5.78723" transform="rotate(-90 196.766 260.426)" fill="#A1A1A1"/>
<rect x="202.554" y="138.894" width="5.78723" height="5.78723" transform="rotate(90 202.554 138.894)" fill="#A1A1A1"/>
<rect x="11.5742" y="138.894" width="5.78723" height="5.78723" transform="rotate(90 11.5742 138.894)" fill="#A1A1A1"/>
<rect x="266.213" y="138.894" width="5.78723" height="5.78723" transform="rotate(90 266.213 138.894)" fill="#A1A1A1"/>
<rect x="75.2344" y="138.894" width="5.78723" height="5.78723" transform="rotate(90 75.2344 138.894)" fill="#A1A1A1"/>
<rect x="133.106" y="75.2334" width="5.78723" height="5.78723" transform="rotate(90 133.106 75.2334)" fill="#A1A1A1"/>
<rect x="138.894" y="196.767" width="5.78723" height="5.78723" transform="rotate(-90 138.894 196.767)" fill="#A1A1A1"/>
<rect x="5.78711" y="75.2334" width="5.78723" height="5.78723" transform="rotate(90 5.78711 75.2334)" fill="#A1A1A1"/>
<rect x="266.213" y="196.767" width="5.78723" height="5.78723" transform="rotate(-90 266.213 196.767)" fill="#A1A1A1"/>
<rect x="260.426" y="75.2334" width="5.78723" height="5.78723" transform="rotate(90 260.426 75.2334)" fill="#A1A1A1"/>
<rect x="11.5742" y="196.767" width="5.78723" height="5.78723" transform="rotate(-90 11.5742 196.767)" fill="#A1A1A1"/>
<rect x="133.106" y="11.5742" width="5.78723" height="5.78723" transform="rotate(90 133.106 11.5742)" fill="#A1A1A1"/>
<rect x="138.894" y="260.426" width="5.78723" height="5.78723" transform="rotate(-90 138.894 260.426)" fill="#A1A1A1"/>
<rect x="196.766" y="11.5742" width="5.78723" height="5.78723" transform="rotate(90 196.766 11.5742)" fill="#A1A1A1"/>
<rect x="75.2344" y="260.426" width="5.78723" height="5.78723" transform="rotate(-90 75.2344 260.426)" fill="#A1A1A1"/>
<rect x="5.78711" y="11.5742" width="5.78723" height="5.78723" transform="rotate(90 5.78711 11.5742)" fill="#A1A1A1"/>
<rect x="266.213" y="260.426" width="5.78723" height="5.78723" transform="rotate(-90 266.213 260.426)" fill="#A1A1A1"/>
<rect x="260.426" y="11.5742" width="5.78723" height="5.78723" transform="rotate(90 260.426 11.5742)" fill="#A1A1A1"/>
<rect x="11.5742" y="260.426" width="5.78723" height="5.78723" transform="rotate(-90 11.5742 260.426)" fill="#A1A1A1"/>
<rect x="254.639" y="17.3613" width="5.78723" height="5.78723" transform="rotate(90 254.639 17.3613)" fill="#A1A1A1"/>
<rect x="17.3623" y="254.639" width="5.78723" height="5.78723" transform="rotate(-90 17.3623 254.639)" fill="#A1A1A1"/>
<rect x="127.319" y="17.3613" width="5.78723" height="5.78723" transform="rotate(90 127.319 17.3613)" fill="#A1A1A1"/>
<rect x="144.681" y="254.639" width="5.78723" height="5.78723" transform="rotate(-90 144.681 254.639)" fill="#A1A1A1"/>
<rect x="63.6592" y="81.0215" width="5.78723" height="5.78723" transform="rotate(90 63.6592 81.0215)" fill="#A1A1A1"/>
<rect x="127.319" y="144.681" width="5.78723" height="5.78723" transform="rotate(90 127.319 144.681)" fill="#A1A1A1"/>
<rect x="63.6592" y="208.341" width="5.78723" height="5.78723" transform="rotate(90 63.6592 208.341)" fill="#A1A1A1"/>
<rect x="190.979" y="208.341" width="5.78723" height="5.78723" transform="rotate(90 190.979 208.341)" fill="#A1A1A1"/>
<rect x="190.979" y="81.0215" width="5.78723" height="5.78723" transform="rotate(90 190.979 81.0215)" fill="#A1A1A1"/>
<rect x="243.064" y="28.9365" width="5.78723" height="5.78723" transform="rotate(90 243.064 28.9365)" fill="#A1A1A1"/>
<rect x="28.9365" y="243.063" width="5.78723" height="5.78723" transform="rotate(-90 28.9365 243.063)" fill="#A1A1A1"/>
<rect x="115.744" y="28.9365" width="5.78723" height="5.78723" transform="rotate(90 115.744 28.9365)" fill="#A1A1A1"/>
<rect x="156.255" y="243.063" width="5.78723" height="5.78723" transform="rotate(-90 156.255 243.063)" fill="#A1A1A1"/>
<rect x="179.404" y="92.5957" width="5.78723" height="5.78723" transform="rotate(90 179.404 92.5957)" fill="#A1A1A1"/>
<rect x="92.5957" y="179.404" width="5.78723" height="5.78723" transform="rotate(-90 92.5957 179.404)" fill="#A1A1A1"/>
<rect x="52.085" y="92.5957" width="5.78723" height="5.78723" transform="rotate(90 52.085 92.5957)" fill="#A1A1A1"/>
<rect x="219.915" y="179.404" width="5.78723" height="5.78723" transform="rotate(-90 219.915 179.404)" fill="#A1A1A1"/>
<rect x="231.489" y="40.5107" width="5.78723" height="5.78723" transform="rotate(90 231.489 40.5107)" fill="#A1A1A1"/>
<rect x="40.5107" y="231.489" width="5.78723" height="5.78723" transform="rotate(-90 40.5107 231.489)" fill="#A1A1A1"/>
<rect x="104.17" y="40.5107" width="5.78723" height="5.78723" transform="rotate(90 104.17 40.5107)" fill="#A1A1A1"/>
<rect x="167.83" y="231.489" width="5.78723" height="5.78723" transform="rotate(-90 167.83 231.489)" fill="#A1A1A1"/>
<rect x="167.83" y="104.17" width="5.78723" height="5.78723" transform="rotate(90 167.83 104.17)" fill="#A1A1A1"/>
<rect x="104.17" y="167.83" width="5.78723" height="5.78723" transform="rotate(-90 104.17 167.83)" fill="#A1A1A1"/>
<rect x="40.5107" y="104.17" width="5.78723" height="5.78723" transform="rotate(90 40.5107 104.17)" fill="#A1A1A1"/>
<rect x="231.489" y="167.83" width="5.78723" height="5.78723" transform="rotate(-90 231.489 167.83)" fill="#A1A1A1"/>
<rect x="219.915" y="52.085" width="5.78723" height="5.78723" transform="rotate(90 219.915 52.085)" fill="#A1A1A1"/>
<rect x="52.085" y="219.915" width="5.78723" height="5.78723" transform="rotate(-90 52.085 219.915)" fill="#A1A1A1"/>
<rect x="92.5957" y="52.085" width="5.78723" height="5.78723" transform="rotate(90 92.5957 52.085)" fill="#A1A1A1"/>
<rect x="179.404" y="219.915" width="5.78723" height="5.78723" transform="rotate(-90 179.404 219.915)" fill="#A1A1A1"/>
<rect x="156.255" y="115.744" width="5.78723" height="5.78723" transform="rotate(90 156.255 115.744)" fill="#A1A1A1"/>
<rect x="115.744" y="156.256" width="5.78723" height="5.78723" transform="rotate(-90 115.744 156.256)" fill="#A1A1A1"/>
<rect x="28.9365" y="115.744" width="5.78723" height="5.78723" transform="rotate(90 28.9365 115.744)" fill="#A1A1A1"/>
<rect x="243.064" y="156.256" width="5.78723" height="5.78723" transform="rotate(-90 243.064 156.256)" fill="#A1A1A1"/>
<rect x="248.852" y="23.1484" width="5.78723" height="5.78723" transform="rotate(90 248.852 23.1484)" fill="#A1A1A1"/>
<rect x="23.1494" y="248.852" width="5.78723" height="5.78723" transform="rotate(-90 23.1494 248.852)" fill="#A1A1A1"/>
<rect x="121.532" y="23.1484" width="5.78723" height="5.78723" transform="rotate(90 121.532 23.1484)" fill="#A1A1A1"/>
<rect x="150.468" y="248.852" width="5.78723" height="5.78723" transform="rotate(-90 150.468 248.852)" fill="#A1A1A1"/>
<rect x="185.191" y="86.8086" width="5.78723" height="5.78723" transform="rotate(90 185.191 86.8086)" fill="#A1A1A1"/>
<rect x="86.8086" y="185.191" width="5.78723" height="5.78723" transform="rotate(-90 86.8086 185.191)" fill="#A1A1A1"/>
<rect x="57.8721" y="86.8086" width="5.78723" height="5.78723" transform="rotate(90 57.8721 86.8086)" fill="#A1A1A1"/>
<rect x="214.128" y="185.191" width="5.78723" height="5.78723" transform="rotate(-90 214.128 185.191)" fill="#A1A1A1"/>
<rect x="237.276" y="34.7236" width="5.78723" height="5.78723" transform="rotate(90 237.276 34.7236)" fill="#A1A1A1"/>
<rect x="34.7236" y="237.276" width="5.78723" height="5.78723" transform="rotate(-90 34.7236 237.276)" fill="#A1A1A1"/>
<rect x="109.957" y="34.7236" width="5.78723" height="5.78723" transform="rotate(90 109.957 34.7236)" fill="#A1A1A1"/>
<rect x="162.043" y="237.276" width="5.78723" height="5.78723" transform="rotate(-90 162.043 237.276)" fill="#A1A1A1"/>
<rect x="173.617" y="98.3828" width="5.78723" height="5.78723" transform="rotate(90 173.617 98.3828)" fill="#A1A1A1"/>
<rect x="98.3828" y="173.617" width="5.78723" height="5.78723" transform="rotate(-90 98.3828 173.617)" fill="#A1A1A1"/>
<rect x="46.2979" y="98.3828" width="5.78723" height="5.78723" transform="rotate(90 46.2979 98.3828)" fill="#A1A1A1"/>
<rect x="225.702" y="173.617" width="5.78723" height="5.78723" transform="rotate(-90 225.702 173.617)" fill="#A1A1A1"/>
<rect x="225.702" y="46.2979" width="5.78723" height="5.78723" transform="rotate(90 225.702 46.2979)" fill="#A1A1A1"/>
<rect x="46.2979" y="225.702" width="5.78723" height="5.78723" transform="rotate(-90 46.2979 225.702)" fill="#A1A1A1"/>
<rect x="98.3828" y="46.2979" width="5.78723" height="5.78723" transform="rotate(90 98.3828 46.2979)" fill="#A1A1A1"/>
<rect x="173.617" y="225.702" width="5.78723" height="5.78723" transform="rotate(-90 173.617 225.702)" fill="#A1A1A1"/>
<rect x="162.043" y="109.957" width="5.78723" height="5.78723" transform="rotate(90 162.043 109.957)" fill="#A1A1A1"/>
<rect x="109.957" y="162.043" width="5.78723" height="5.78723" transform="rotate(-90 109.957 162.043)" fill="#A1A1A1"/>
<rect x="34.7236" y="109.957" width="5.78723" height="5.78723" transform="rotate(90 34.7236 109.957)" fill="#A1A1A1"/>
<rect x="237.276" y="162.043" width="5.78723" height="5.78723" transform="rotate(-90 237.276 162.043)" fill="#A1A1A1"/>
<rect x="86.8086" y="57.8721" width="5.78723" height="5.78723" transform="rotate(90 86.8086 57.8721)" fill="#A1A1A1"/>
<rect x="150.468" y="121.532" width="5.78723" height="5.78723" transform="rotate(90 150.468 121.532)" fill="#A1A1A1"/>
<rect x="86.8086" y="185.191" width="5.78723" height="5.78723" transform="rotate(90 86.8086 185.191)" fill="#A1A1A1"/>
<rect x="214.128" y="185.191" width="5.78723" height="5.78723" transform="rotate(90 214.128 185.191)" fill="#A1A1A1"/>
<rect x="214.128" y="57.8721" width="5.78723" height="5.78723" transform="rotate(90 214.128 57.8721)" fill="#A1A1A1"/>
<rect x="23.1494" y="121.532" width="5.78723" height="5.78723" transform="rotate(90 23.1494 121.532)" fill="#A1A1A1"/>
<rect x="248.852" y="150.468" width="5.78723" height="5.78723" transform="rotate(-90 248.852 150.468)" fill="#A1A1A1"/>
<rect x="69.4473" y="11.5742" width="5.78723" height="5.78723" transform="rotate(90 69.4473 11.5742)" fill="#A1A1A1"/>
<rect x="202.554" y="260.426" width="5.78723" height="5.78723" transform="rotate(-90 202.554 260.426)" fill="#A1A1A1"/>
<rect x="196.766" y="138.894" width="5.78723" height="5.78723" transform="rotate(90 196.766 138.894)" fill="#A1A1A1"/>
<rect x="5.78711" y="138.894" width="5.78723" height="5.78723" transform="rotate(90 5.78711 138.894)" fill="#A1A1A1"/>
<rect x="260.426" y="138.894" width="5.78723" height="5.78723" transform="rotate(90 260.426 138.894)" fill="#A1A1A1"/>
<rect x="69.4473" y="138.894" width="5.78723" height="5.78723" transform="rotate(90 69.4473 138.894)" fill="#A1A1A1"/>
<rect x="133.106" y="63.6592" width="5.78723" height="5.78723" transform="rotate(90 133.106 63.6592)" fill="#A1A1A1"/>
<rect x="138.894" y="208.341" width="5.78723" height="5.78723" transform="rotate(-90 138.894 208.341)" fill="#A1A1A1"/>
<rect x="5.78711" y="63.6592" width="5.78723" height="5.78723" transform="rotate(90 5.78711 63.6592)" fill="#A1A1A1"/>
<rect x="266.213" y="208.341" width="5.78723" height="5.78723" transform="rotate(-90 266.213 208.341)" fill="#A1A1A1"/>
<rect x="260.426" y="63.6592" width="5.78723" height="5.78723" transform="rotate(90 260.426 63.6592)" fill="#A1A1A1"/>
<rect x="11.5742" y="208.341" width="5.78723" height="5.78723" transform="rotate(-90 11.5742 208.341)" fill="#A1A1A1"/>
<rect x="69.4473" y="127.319" width="5.78723" height="5.78723" transform="rotate(90 69.4473 127.319)" fill="#A1A1A1"/>
<rect x="63.6592" y="57.8721" width="5.78723" height="5.78723" transform="rotate(90 63.6592 57.8721)" fill="#A1A1A1"/>
<rect x="127.319" y="121.532" width="5.78723" height="5.78723" transform="rotate(90 127.319 121.532)" fill="#A1A1A1"/>
<rect x="63.6592" y="185.191" width="5.78723" height="5.78723" transform="rotate(90 63.6592 185.191)" fill="#A1A1A1"/>
<rect x="190.979" y="185.191" width="5.78723" height="5.78723" transform="rotate(90 190.979 185.191)" fill="#A1A1A1"/>
<rect x="190.979" y="57.8721" width="5.78723" height="5.78723" transform="rotate(90 190.979 57.8721)" fill="#A1A1A1"/>
<rect x="69.4473" y="57.8721" width="5.78723" height="5.78723" transform="rotate(90 69.4473 57.8721)" fill="#A1A1A1"/>
<rect x="133.106" y="121.532" width="5.78723" height="5.78723" transform="rotate(90 133.106 121.532)" fill="#A1A1A1"/>
<rect x="69.4473" y="185.191" width="5.78723" height="5.78723" transform="rotate(90 69.4473 185.191)" fill="#A1A1A1"/>
<rect x="196.766" y="185.191" width="5.78723" height="5.78723" transform="rotate(90 196.766 185.191)" fill="#A1A1A1"/>
<rect x="196.766" y="57.8721" width="5.78723" height="5.78723" transform="rotate(90 196.766 57.8721)" fill="#A1A1A1"/>
<rect x="81.0215" y="57.8721" width="5.78723" height="5.78723" transform="rotate(90 81.0215 57.8721)" fill="#A1A1A1"/>
<rect x="144.681" y="121.532" width="5.78723" height="5.78723" transform="rotate(90 144.681 121.532)" fill="#A1A1A1"/>
<rect x="81.0215" y="185.191" width="5.78723" height="5.78723" transform="rotate(90 81.0215 185.191)" fill="#A1A1A1"/>
<rect x="208.341" y="185.191" width="5.78723" height="5.78723" transform="rotate(90 208.341 185.191)" fill="#A1A1A1"/>
<rect x="208.341" y="57.8721" width="5.78723" height="5.78723" transform="rotate(90 208.341 57.8721)" fill="#A1A1A1"/>
<rect x="86.8086" y="63.6592" width="5.78723" height="5.78723" transform="rotate(90 86.8086 63.6592)" fill="#A1A1A1"/>
<rect x="150.468" y="127.319" width="5.78723" height="5.78723" transform="rotate(90 150.468 127.319)" fill="#A1A1A1"/>
<rect x="86.8086" y="190.979" width="5.78723" height="5.78723" transform="rotate(90 86.8086 190.979)" fill="#A1A1A1"/>
<rect x="214.128" y="190.979" width="5.78723" height="5.78723" transform="rotate(90 214.128 190.979)" fill="#A1A1A1"/>
<rect x="214.128" y="63.6592" width="5.78723" height="5.78723" transform="rotate(90 214.128 63.6592)" fill="#A1A1A1"/>
<rect x="86.8086" y="75.2334" width="5.78723" height="5.78723" transform="rotate(90 86.8086 75.2334)" fill="#A1A1A1"/>
<rect x="150.468" y="138.894" width="5.78723" height="5.78723" transform="rotate(90 150.468 138.894)" fill="#A1A1A1"/>
<rect x="86.8086" y="202.554" width="5.78723" height="5.78723" transform="rotate(90 86.8086 202.554)" fill="#A1A1A1"/>
<rect x="214.128" y="202.554" width="5.78723" height="5.78723" transform="rotate(90 214.128 202.554)" fill="#A1A1A1"/>
<rect x="214.128" y="75.2334" width="5.78723" height="5.78723" transform="rotate(90 214.128 75.2334)" fill="#A1A1A1"/>
<rect x="81.0215" y="81.0215" width="5.78723" height="5.78723" transform="rotate(90 81.0215 81.0215)" fill="#A1A1A1"/>
<rect x="144.681" y="144.681" width="5.78723" height="5.78723" transform="rotate(90 144.681 144.681)" fill="#A1A1A1"/>
<rect x="81.0215" y="208.341" width="5.78723" height="5.78723" transform="rotate(90 81.0215 208.341)" fill="#A1A1A1"/>
<rect x="208.341" y="208.341" width="5.78723" height="5.78723" transform="rotate(90 208.341 208.341)" fill="#A1A1A1"/>
<rect x="208.341" y="81.0215" width="5.78723" height="5.78723" transform="rotate(90 208.341 81.0215)" fill="#A1A1A1"/>
<rect x="69.4473" y="81.0215" width="5.78723" height="5.78723" transform="rotate(90 69.4473 81.0215)" fill="#A1A1A1"/>
<rect x="133.106" y="144.681" width="5.78723" height="5.78723" transform="rotate(90 133.106 144.681)" fill="#A1A1A1"/>
<rect x="69.4473" y="208.341" width="5.78723" height="5.78723" transform="rotate(90 69.4473 208.341)" fill="#A1A1A1"/>
<rect x="196.766" y="208.341" width="5.78723" height="5.78723" transform="rotate(90 196.766 208.341)" fill="#A1A1A1"/>
<rect x="196.766" y="81.0215" width="5.78723" height="5.78723" transform="rotate(90 196.766 81.0215)" fill="#A1A1A1"/>
<rect x="63.6592" y="75.2334" width="5.78723" height="5.78723" transform="rotate(90 63.6592 75.2334)" fill="#A1A1A1"/>
<rect x="127.319" y="138.894" width="5.78723" height="5.78723" transform="rotate(90 127.319 138.894)" fill="#A1A1A1"/>
<rect x="63.6592" y="202.554" width="5.78723" height="5.78723" transform="rotate(90 63.6592 202.554)" fill="#A1A1A1"/>
<rect x="190.979" y="202.554" width="5.78723" height="5.78723" transform="rotate(90 190.979 202.554)" fill="#A1A1A1"/>
<rect x="190.979" y="75.2334" width="5.78723" height="5.78723" transform="rotate(90 190.979 75.2334)" fill="#A1A1A1"/>
<rect x="63.6592" y="63.6592" width="5.78723" height="5.78723" transform="rotate(90 63.6592 63.6592)" fill="#A1A1A1"/>
<rect x="127.319" y="127.319" width="5.78723" height="5.78723" transform="rotate(90 127.319 127.319)" fill="#A1A1A1"/>
<rect x="63.6592" y="190.979" width="5.78723" height="5.78723" transform="rotate(90 63.6592 190.979)" fill="#A1A1A1"/>
<rect x="190.979" y="190.979" width="5.78723" height="5.78723" transform="rotate(90 190.979 190.979)" fill="#A1A1A1"/>
<rect x="190.979" y="63.6592" width="5.78723" height="5.78723" transform="rotate(90 190.979 63.6592)" fill="#A1A1A1"/>
<rect x="254.639" y="121.532" width="5.78723" height="5.78723" transform="rotate(90 254.639 121.532)" fill="#A1A1A1"/>
<rect x="17.3623" y="150.468" width="5.78723" height="5.78723" transform="rotate(-90 17.3623 150.468)" fill="#A1A1A1"/>
<rect x="57.8721" y="52.085" width="5.78723" height="5.78723" transform="rotate(90 57.8721 52.085)" fill="#A1A1A1"/>
<rect x="214.128" y="219.915" width="5.78723" height="5.78723" transform="rotate(-90 214.128 219.915)" fill="#A1A1A1"/>
<rect x="185.191" y="52.085" width="5.78723" height="5.78723" transform="rotate(90 185.191 52.085)" fill="#A1A1A1"/>
<rect x="86.8086" y="219.915" width="5.78723" height="5.78723" transform="rotate(-90 86.8086 219.915)" fill="#A1A1A1"/>
<rect x="248.852" y="115.744" width="5.78723" height="5.78723" transform="rotate(90 248.852 115.744)" fill="#A1A1A1"/>
<rect x="23.1494" y="156.256" width="5.78723" height="5.78723" transform="rotate(-90 23.1494 156.256)" fill="#A1A1A1"/>
<rect x="121.532" y="115.744" width="5.78723" height="5.78723" transform="rotate(90 121.532 115.744)" fill="#A1A1A1"/>
<rect x="150.468" y="156.256" width="5.78723" height="5.78723" transform="rotate(-90 150.468 156.256)" fill="#A1A1A1"/>
<rect x="52.085" y="46.2979" width="5.78723" height="5.78723" transform="rotate(90 52.085 46.2979)" fill="#A1A1A1"/>
<rect x="219.915" y="225.702" width="5.78723" height="5.78723" transform="rotate(-90 219.915 225.702)" fill="#A1A1A1"/>
<rect x="179.404" y="46.2979" width="5.78723" height="5.78723" transform="rotate(90 179.404 46.2979)" fill="#A1A1A1"/>
<rect x="92.5957" y="225.702" width="5.78723" height="5.78723" transform="rotate(-90 92.5957 225.702)" fill="#A1A1A1"/>
<rect x="243.064" y="109.957" width="5.78723" height="5.78723" transform="rotate(90 243.064 109.957)" fill="#A1A1A1"/>
<rect x="28.9365" y="162.043" width="5.78723" height="5.78723" transform="rotate(-90 28.9365 162.043)" fill="#A1A1A1"/>
<rect x="115.744" y="109.957" width="5.78723" height="5.78723" transform="rotate(90 115.744 109.957)" fill="#A1A1A1"/>
<rect x="156.255" y="162.043" width="5.78723" height="5.78723" transform="rotate(-90 156.255 162.043)" fill="#A1A1A1"/>
<rect x="46.2979" y="40.5107" width="5.78723" height="5.78723" transform="rotate(90 46.2979 40.5107)" fill="#A1A1A1"/>
<rect x="225.702" y="231.489" width="5.78723" height="5.78723" transform="rotate(-90 225.702 231.489)" fill="#A1A1A1"/>
<rect x="173.617" y="40.5107" width="5.78723" height="5.78723" transform="rotate(90 173.617 40.5107)" fill="#A1A1A1"/>
<rect x="98.3828" y="231.489" width="5.78723" height="5.78723" transform="rotate(-90 98.3828 231.489)" fill="#A1A1A1"/>
<rect x="237.276" y="104.17" width="5.78723" height="5.78723" transform="rotate(90 237.276 104.17)" fill="#A1A1A1"/>
<rect x="34.7236" y="167.83" width="5.78723" height="5.78723" transform="rotate(-90 34.7236 167.83)" fill="#A1A1A1"/>
<rect x="109.957" y="104.17" width="5.78723" height="5.78723" transform="rotate(90 109.957 104.17)" fill="#A1A1A1"/>
<rect x="162.043" y="167.83" width="5.78723" height="5.78723" transform="rotate(-90 162.043 167.83)" fill="#A1A1A1"/>
<rect x="40.5107" y="34.7236" width="5.78723" height="5.78723" transform="rotate(90 40.5107 34.7236)" fill="#A1A1A1"/>
<rect x="231.489" y="237.276" width="5.78723" height="5.78723" transform="rotate(-90 231.489 237.276)" fill="#A1A1A1"/>
<rect x="167.83" y="34.7236" width="5.78723" height="5.78723" transform="rotate(90 167.83 34.7236)" fill="#A1A1A1"/>
<rect x="104.17" y="237.276" width="5.78723" height="5.78723" transform="rotate(-90 104.17 237.276)" fill="#A1A1A1"/>
<rect x="231.489" y="98.3828" width="5.78723" height="5.78723" transform="rotate(90 231.489 98.3828)" fill="#A1A1A1"/>
<rect x="40.5107" y="173.617" width="5.78723" height="5.78723" transform="rotate(-90 40.5107 173.617)" fill="#A1A1A1"/>
<rect x="104.17" y="98.3828" width="5.78723" height="5.78723" transform="rotate(90 104.17 98.3828)" fill="#A1A1A1"/>
<rect x="167.83" y="173.617" width="5.78723" height="5.78723" transform="rotate(-90 167.83 173.617)" fill="#A1A1A1"/>
<rect x="34.7236" y="28.9365" width="5.78723" height="5.78723" transform="rotate(90 34.7236 28.9365)" fill="#A1A1A1"/>
<rect x="237.276" y="243.063" width="5.78723" height="5.78723" transform="rotate(-90 237.276 243.063)" fill="#A1A1A1"/>
<rect x="162.043" y="28.9365" width="5.78723" height="5.78723" transform="rotate(90 162.043 28.9365)" fill="#A1A1A1"/>
<rect x="109.957" y="243.063" width="5.78723" height="5.78723" transform="rotate(-90 109.957 243.063)" fill="#A1A1A1"/>
<rect x="225.702" y="92.5957" width="5.78723" height="5.78723" transform="rotate(90 225.702 92.5957)" fill="#A1A1A1"/>
<rect x="46.2979" y="179.404" width="5.78723" height="5.78723" transform="rotate(-90 46.2979 179.404)" fill="#A1A1A1"/>
<rect x="98.3828" y="92.5957" width="5.78723" height="5.78723" transform="rotate(90 98.3828 92.5957)" fill="#A1A1A1"/>
<rect x="173.617" y="179.404" width="5.78723" height="5.78723" transform="rotate(-90 173.617 179.404)" fill="#A1A1A1"/>
<rect x="28.9365" y="23.1484" width="5.78723" height="5.78723" transform="rotate(90 28.9365 23.1484)" fill="#A1A1A1"/>
<rect x="243.064" y="248.852" width="5.78723" height="5.78723" transform="rotate(-90 243.064 248.852)" fill="#A1A1A1"/>
<rect x="23.1494" y="17.3613" width="5.78723" height="5.78723" transform="rotate(90 23.1494 17.3613)" fill="#A1A1A1"/>
<rect x="248.852" y="254.639" width="5.78723" height="5.78723" transform="rotate(-90 248.852 254.639)" fill="#A1A1A1"/>
<rect x="150.468" y="17.3613" width="5.78723" height="5.78723" transform="rotate(90 150.468 17.3613)" fill="#A1A1A1"/>
<rect x="121.532" y="254.639" width="5.78723" height="5.78723" transform="rotate(-90 121.532 254.639)" fill="#A1A1A1"/>
<rect x="86.8086" y="81.0215" width="5.78723" height="5.78723" transform="rotate(90 86.8086 81.0215)" fill="#A1A1A1"/>
<rect x="150.468" y="144.681" width="5.78723" height="5.78723" transform="rotate(90 150.468 144.681)" fill="#A1A1A1"/>
<rect x="86.8086" y="208.341" width="5.78723" height="5.78723" transform="rotate(90 86.8086 208.341)" fill="#A1A1A1"/>
<rect x="214.128" y="208.341" width="5.78723" height="5.78723" transform="rotate(90 214.128 208.341)" fill="#A1A1A1"/>
<rect x="214.128" y="81.0215" width="5.78723" height="5.78723" transform="rotate(90 214.128 81.0215)" fill="#A1A1A1"/>
<rect x="156.255" y="23.1484" width="5.78723" height="5.78723" transform="rotate(90 156.255 23.1484)" fill="#A1A1A1"/>
<rect x="115.744" y="248.852" width="5.78723" height="5.78723" transform="rotate(-90 115.744 248.852)" fill="#A1A1A1"/>
<rect x="219.915" y="86.8086" width="5.78723" height="5.78723" transform="rotate(90 219.915 86.8086)" fill="#A1A1A1"/>
<rect x="52.085" y="185.191" width="5.78723" height="5.78723" transform="rotate(-90 52.085 185.191)" fill="#A1A1A1"/>
<rect x="92.5957" y="86.8086" width="5.78723" height="5.78723" transform="rotate(90 92.5957 86.8086)" fill="#A1A1A1"/>
<rect x="179.404" y="185.191" width="5.78723" height="5.78723" transform="rotate(-90 179.404 185.191)" fill="#A1A1A1"/>
<rect x="133.106" width="5.78723" height="5.78723" transform="rotate(90 133.106 0)" fill="#A1A1A1"/>
<rect x="138.894" y="272" width="5.78723" height="5.78723" transform="rotate(-90 138.894 272)" fill="#A1A1A1"/>
<rect x="196.766" width="5.78723" height="5.78723" transform="rotate(90 196.766 0)" fill="#A1A1A1"/>
<rect x="75.2344" y="272" width="5.78723" height="5.78723" transform="rotate(-90 75.2344 272)" fill="#A1A1A1"/>
<rect x="5.78711" width="5.78723" height="5.78723" transform="rotate(90 5.78711 0)" fill="#A1A1A1"/>
<rect x="266.213" y="272" width="5.78723" height="5.78723" transform="rotate(-90 266.213 272)" fill="#A1A1A1"/>
<rect x="260.426" width="5.78723" height="5.78723" transform="rotate(90 260.426 0)" fill="#A1A1A1"/>
<rect x="11.5742" y="272" width="5.78723" height="5.78723" transform="rotate(-90 11.5742 272)" fill="#A1A1A1"/>
<rect x="69.4473" width="5.78723" height="5.78723" transform="rotate(90 69.4473 0)" fill="#A1A1A1"/>
<rect x="202.554" y="272" width="5.78723" height="5.78723" transform="rotate(-90 202.554 272)" fill="#A1A1A1"/>
<rect x="196.766" y="127.319" width="5.78723" height="5.78723" transform="rotate(90 196.766 127.319)" fill="#A1A1A1"/>
<rect x="5.78711" y="127.319" width="5.78723" height="5.78723" transform="rotate(90 5.78711 127.319)" fill="#A1A1A1"/>
<rect x="260.426" y="127.319" width="5.78723" height="5.78723" transform="rotate(90 260.426 127.319)" fill="#A1A1A1"/>
<rect x="69.4473" y="127.319" width="5.78723" height="5.78723" transform="rotate(90 69.4473 127.319)" fill="#A1A1A1"/>
<rect x="138.894" y="63.6592" width="5.78723" height="5.78723" transform="rotate(90 138.894 63.6592)" fill="#A1A1A1"/>
<rect x="138.894" y="69.4463" width="5.78723" height="5.78723" transform="rotate(90 138.894 69.4463)" fill="#A1A1A1"/>
<rect x="133.106" y="208.341" width="5.78723" height="5.78723" transform="rotate(-90 133.106 208.341)" fill="#A1A1A1"/>
<rect x="11.5742" y="63.6592" width="5.78723" height="5.78723" transform="rotate(90 11.5742 63.6592)" fill="#A1A1A1"/>
<rect x="260.426" y="208.341" width="5.78723" height="5.78723" transform="rotate(-90 260.426 208.341)" fill="#A1A1A1"/>
<rect x="266.213" y="63.6592" width="5.78723" height="5.78723" transform="rotate(90 266.213 63.6592)" fill="#A1A1A1"/>
<rect x="5.78711" y="208.341" width="5.78723" height="5.78723" transform="rotate(-90 5.78711 208.341)" fill="#A1A1A1"/>
<rect x="138.894" width="5.78723" height="5.78723" transform="rotate(90 138.894 0)" fill="#A1A1A1"/>
<rect x="133.106" y="272" width="5.78723" height="5.78723" transform="rotate(-90 133.106 272)" fill="#A1A1A1"/>
<rect x="202.554" width="5.78723" height="5.78723" transform="rotate(90 202.554 0)" fill="#A1A1A1"/>
<rect x="69.4473" y="272" width="5.78723" height="5.78723" transform="rotate(-90 69.4473 272)" fill="#A1A1A1"/>
<rect x="11.5742" width="5.78723" height="5.78723" transform="rotate(90 11.5742 0)" fill="#A1A1A1"/>
<rect x="260.426" y="272" width="5.78723" height="5.78723" transform="rotate(-90 260.426 272)" fill="#A1A1A1"/>
<rect x="266.213" width="5.78723" height="5.78723" transform="rotate(90 266.213 0)" fill="#A1A1A1"/>
<rect x="5.78711" y="272" width="5.78723" height="5.78723" transform="rotate(-90 5.78711 272)" fill="#A1A1A1"/>
<rect x="75.2344" width="5.78723" height="5.78723" transform="rotate(90 75.2344 0)" fill="#A1A1A1"/>
<rect x="196.766" y="272" width="5.78723" height="5.78723" transform="rotate(-90 196.766 272)" fill="#A1A1A1"/>
<rect x="202.554" y="127.319" width="5.78723" height="5.78723" transform="rotate(90 202.554 127.319)" fill="#A1A1A1"/>
<rect x="202.554" y="133.106" width="5.78723" height="5.78723" transform="rotate(90 202.554 133.106)" fill="#A1A1A1"/>
<rect x="11.5742" y="127.319" width="5.78723" height="5.78723" transform="rotate(90 11.5742 127.319)" fill="#A1A1A1"/>
<rect x="266.213" y="127.319" width="5.78723" height="5.78723" transform="rotate(90 266.213 127.319)" fill="#A1A1A1"/>
<rect x="75.2344" y="127.319" width="5.78723" height="5.78723" transform="rotate(90 75.2344 127.319)" fill="#A1A1A1"/>
<rect x="75.2344" y="133.106" width="5.78723" height="5.78723" transform="rotate(90 75.2344 133.106)" fill="#A1A1A1"/>
<rect x="144.681" y="63.6592" width="5.78723" height="5.78723" transform="rotate(90 144.681 63.6592)" fill="#A1A1A1"/>
<rect x="127.319" y="208.341" width="5.78723" height="5.78723" transform="rotate(-90 127.319 208.341)" fill="#A1A1A1"/>
<rect x="17.3623" y="63.6592" width="5.78723" height="5.78723" transform="rotate(90 17.3623 63.6592)" fill="#A1A1A1"/>
<rect x="254.639" y="208.341" width="5.78723" height="5.78723" transform="rotate(-90 254.639 208.341)" fill="#A1A1A1"/>
<rect x="272" y="63.6592" width="5.78723" height="5.78723" transform="rotate(90 272 63.6592)" fill="#A1A1A1"/>
<rect y="208.341" width="5.78723" height="5.78723" transform="rotate(-90 0 208.341)" fill="#A1A1A1"/>
<rect x="144.681" width="5.78723" height="5.78723" transform="rotate(90 144.681 0)" fill="#A1A1A1"/>
<rect x="127.319" y="272" width="5.78723" height="5.78723" transform="rotate(-90 127.319 272)" fill="#A1A1A1"/>
<rect x="208.341" width="5.78723" height="5.78723" transform="rotate(90 208.341 0)" fill="#A1A1A1"/>
<rect x="63.6592" y="272" width="5.78723" height="5.78723" transform="rotate(-90 63.6592 272)" fill="#A1A1A1"/>
<rect x="17.3623" width="5.78723" height="5.78723" transform="rotate(90 17.3623 0)" fill="#A1A1A1"/>
<rect x="254.639" y="272" width="5.78723" height="5.78723" transform="rotate(-90 254.639 272)" fill="#A1A1A1"/>
<rect x="272" width="5.78723" height="5.78723" transform="rotate(90 272 0)" fill="#A1A1A1"/>
<rect y="272" width="5.78723" height="5.78723" transform="rotate(-90 0 272)" fill="#A1A1A1"/>
<rect x="81.0215" width="5.78723" height="5.78723" transform="rotate(90 81.0215 0)" fill="#A1A1A1"/>
<rect x="190.979" y="272" width="5.78723" height="5.78723" transform="rotate(-90 190.979 272)" fill="#A1A1A1"/>
<rect x="208.341" y="127.319" width="5.78723" height="5.78723" transform="rotate(90 208.341 127.319)" fill="#A1A1A1"/>
<rect x="17.3623" y="127.319" width="5.78723" height="5.78723" transform="rotate(90 17.3623 127.319)" fill="#A1A1A1"/>
<rect x="272" y="127.319" width="5.78723" height="5.78723" transform="rotate(90 272 127.319)" fill="#A1A1A1"/>
<rect x="81.0215" y="127.319" width="5.78723" height="5.78723" transform="rotate(90 81.0215 127.319)" fill="#A1A1A1"/>
<rect x="144.681" y="69.4463" width="5.78723" height="5.78723" transform="rotate(90 144.681 69.4463)" fill="#A1A1A1"/>
<rect x="127.319" y="202.554" width="5.78723" height="5.78723" transform="rotate(-90 127.319 202.554)" fill="#A1A1A1"/>
<rect x="17.3623" y="69.4463" width="5.78723" height="5.78723" transform="rotate(90 17.3623 69.4463)" fill="#A1A1A1"/>
<rect x="254.639" y="202.554" width="5.78723" height="5.78723" transform="rotate(-90 254.639 202.554)" fill="#A1A1A1"/>
<rect x="272" y="69.4463" width="5.78723" height="5.78723" transform="rotate(90 272 69.4463)" fill="#A1A1A1"/>
<rect y="202.554" width="5.78723" height="5.78723" transform="rotate(-90 0 202.554)" fill="#A1A1A1"/>
<rect x="144.681" y="5.78711" width="5.78723" height="5.78723" transform="rotate(90 144.681 5.78711)" fill="#A1A1A1"/>
<rect x="127.319" y="266.213" width="5.78723" height="5.78723" transform="rotate(-90 127.319 266.213)" fill="#A1A1A1"/>
<rect x="208.341" y="5.78711" width="5.78723" height="5.78723" transform="rotate(90 208.341 5.78711)" fill="#A1A1A1"/>
<rect x="63.6592" y="266.213" width="5.78723" height="5.78723" transform="rotate(-90 63.6592 266.213)" fill="#A1A1A1"/>
<rect x="17.3623" y="5.78711" width="5.78723" height="5.78723" transform="rotate(90 17.3623 5.78711)" fill="#A1A1A1"/>
<rect x="254.639" y="266.213" width="5.78723" height="5.78723" transform="rotate(-90 254.639 266.213)" fill="#A1A1A1"/>
<rect x="272" y="5.78711" width="5.78723" height="5.78723" transform="rotate(90 272 5.78711)" fill="#A1A1A1"/>
<rect y="266.213" width="5.78723" height="5.78723" transform="rotate(-90 0 266.213)" fill="#A1A1A1"/>
<rect x="81.0215" y="5.78711" width="5.78723" height="5.78723" transform="rotate(90 81.0215 5.78711)" fill="#A1A1A1"/>
<rect x="190.979" y="266.213" width="5.78723" height="5.78723" transform="rotate(-90 190.979 266.213)" fill="#A1A1A1"/>
<rect x="208.341" y="133.106" width="5.78723" height="5.78723" transform="rotate(90 208.341 133.106)" fill="#A1A1A1"/>
<rect x="17.3623" y="133.106" width="5.78723" height="5.78723" transform="rotate(90 17.3623 133.106)" fill="#A1A1A1"/>
<rect x="272" y="133.106" width="5.78723" height="5.78723" transform="rotate(90 272 133.106)" fill="#A1A1A1"/>
<rect x="81.0215" y="133.106" width="5.78723" height="5.78723" transform="rotate(90 81.0215 133.106)" fill="#A1A1A1"/>
<rect x="144.681" y="75.2334" width="5.78723" height="5.78723" transform="rotate(90 144.681 75.2334)" fill="#A1A1A1"/>
<rect x="127.319" y="196.767" width="5.78723" height="5.78723" transform="rotate(-90 127.319 196.767)" fill="#A1A1A1"/>
<rect x="17.3623" y="75.2334" width="5.78723" height="5.78723" transform="rotate(90 17.3623 75.2334)" fill="#A1A1A1"/>
<rect x="254.639" y="196.767" width="5.78723" height="5.78723" transform="rotate(-90 254.639 196.767)" fill="#A1A1A1"/>
<rect x="272" y="75.2334" width="5.78723" height="5.78723" transform="rotate(90 272 75.2334)" fill="#A1A1A1"/>
<rect y="196.767" width="5.78723" height="5.78723" transform="rotate(-90 0 196.767)" fill="#A1A1A1"/>
<rect x="144.681" y="11.5742" width="5.78723" height="5.78723" transform="rotate(90 144.681 11.5742)" fill="#A1A1A1"/>
<rect x="127.319" y="260.426" width="5.78723" height="5.78723" transform="rotate(-90 127.319 260.426)" fill="#A1A1A1"/>
<rect x="208.341" y="11.5742" width="5.78723" height="5.78723" transform="rotate(90 208.341 11.5742)" fill="#A1A1A1"/>
<rect x="63.6592" y="260.426" width="5.78723" height="5.78723" transform="rotate(-90 63.6592 260.426)" fill="#A1A1A1"/>
<rect x="17.3623" y="11.5742" width="5.78723" height="5.78723" transform="rotate(90 17.3623 11.5742)" fill="#A1A1A1"/>
<rect x="254.639" y="260.426" width="5.78723" height="5.78723" transform="rotate(-90 254.639 260.426)" fill="#A1A1A1"/>
<rect x="272" y="11.5742" width="5.78723" height="5.78723" transform="rotate(90 272 11.5742)" fill="#A1A1A1"/>
<rect y="260.426" width="5.78723" height="5.78723" transform="rotate(-90 0 260.426)" fill="#A1A1A1"/>
<rect x="81.0215" y="11.5742" width="5.78723" height="5.78723" transform="rotate(90 81.0215 11.5742)" fill="#A1A1A1"/>
<rect x="190.979" y="260.426" width="5.78723" height="5.78723" transform="rotate(-90 190.979 260.426)" fill="#A1A1A1"/>
<rect x="208.341" y="138.894" width="5.78723" height="5.78723" transform="rotate(90 208.341 138.894)" fill="#A1A1A1"/>
<rect x="17.3623" y="138.894" width="5.78723" height="5.78723" transform="rotate(90 17.3623 138.894)" fill="#A1A1A1"/>
<rect x="272" y="138.894" width="5.78723" height="5.78723" transform="rotate(90 272 138.894)" fill="#A1A1A1"/>
<rect x="81.0215" y="138.894" width="5.78723" height="5.78723" transform="rotate(90 81.0215 138.894)" fill="#A1A1A1"/>
<rect x="202.554" y="121.532" width="5.78723" height="5.78723" transform="rotate(90 202.554 121.532)" fill="#A1A1A1"/>
<rect x="69.4473" y="150.468" width="5.78723" height="5.78723" transform="rotate(-90 69.4473 150.468)" fill="#A1A1A1"/>
<rect x="11.5742" y="121.532" width="5.78723" height="5.78723" transform="rotate(90 11.5742 121.532)" fill="#A1A1A1"/>
<rect x="260.426" y="150.468" width="5.78723" height="5.78723" transform="rotate(-90 260.426 150.468)" fill="#A1A1A1"/>
<rect x="266.213" y="121.532" width="5.78723" height="5.78723" transform="rotate(90 266.213 121.532)" fill="#A1A1A1"/>
<rect x="5.78711" y="150.468" width="5.78723" height="5.78723" transform="rotate(-90 5.78711 150.468)" fill="#A1A1A1"/>
<rect x="75.2344" y="121.532" width="5.78723" height="5.78723" transform="rotate(90 75.2344 121.532)" fill="#A1A1A1"/>
<rect x="196.766" y="150.468" width="5.78723" height="5.78723" transform="rotate(-90 196.766 150.468)" fill="#A1A1A1"/>
<rect x="138.894" y="57.8721" width="5.78723" height="5.78723" transform="rotate(90 138.894 57.8721)" fill="#A1A1A1"/>
<rect x="133.106" y="214.128" width="5.78723" height="5.78723" transform="rotate(-90 133.106 214.128)" fill="#A1A1A1"/>
<rect x="121.532" y="5.78711" width="5.78723" height="5.78723" fill="#A1A1A1"/>
<rect x="150.468" y="266.213" width="5.78723" height="5.78723" transform="rotate(180 150.468 266.213)" fill="#A1A1A1"/>
<rect x="57.8721" y="5.78711" width="5.78723" height="5.78723" fill="#A1A1A1"/>
<rect x="214.128" y="266.213" width="5.78723" height="5.78723" transform="rotate(180 214.128 266.213)" fill="#A1A1A1"/>
<rect x="185.191" y="5.78711" width="5.78723" height="5.78723" fill="#A1A1A1"/>
<rect x="86.8086" y="266.213" width="5.78723" height="5.78723" transform="rotate(180 86.8086 266.213)" fill="#A1A1A1"/>
<rect x="248.852" y="5.78711" width="5.78723" height="5.78723" fill="#A1A1A1"/>
<rect x="23.1494" y="266.213" width="5.78723" height="5.78723" transform="rotate(180 23.1494 266.213)" fill="#A1A1A1"/>
<rect x="121.532" y="69.4463" width="5.78723" height="5.78723" fill="#A1A1A1"/>
<rect x="150.468" y="202.554" width="5.78723" height="5.78723" transform="rotate(180 150.468 202.554)" fill="#A1A1A1"/>
<rect x="57.8721" y="69.4463" width="5.78723" height="5.78723" fill="#A1A1A1"/>
<rect x="121.532" y="133.106" width="5.78723" height="5.78723" fill="#A1A1A1"/>
<rect x="57.8721" y="196.767" width="5.78723" height="5.78723" fill="#A1A1A1"/>
<rect x="185.191" y="196.767" width="5.78723" height="5.78723" fill="#A1A1A1"/>
<rect x="185.191" y="69.4463" width="5.78723" height="5.78723" fill="#A1A1A1"/>
<rect x="248.852" y="69.4463" width="5.78723" height="5.78723" fill="#A1A1A1"/>
<rect x="23.1494" y="202.554" width="5.78723" height="5.78723" transform="rotate(180 23.1494 202.554)" fill="#A1A1A1"/>
<rect x="57.8721" y="133.106" width="5.78723" height="5.78723" fill="#A1A1A1"/>
<rect x="185.191" y="133.106" width="5.78723" height="5.78723" fill="#A1A1A1"/>
<rect x="248.852" y="133.106" width="5.78723" height="5.78723" fill="#A1A1A1"/>
<rect x="11.5742" y="57.8721" width="5.78723" height="5.78723" transform="rotate(90 11.5742 57.8721)" fill="#A1A1A1"/>
<rect x="260.426" y="214.128" width="5.78723" height="5.78723" transform="rotate(-90 260.426 214.128)" fill="#A1A1A1"/>
<rect x="266.213" y="57.8721" width="5.78723" height="5.78723" transform="rotate(90 266.213 57.8721)" fill="#A1A1A1"/>
<rect x="5.78711" y="214.128" width="5.78723" height="5.78723" transform="rotate(-90 5.78711 214.128)" fill="#A1A1A1"/>
<rect x="75.2344" y="57.8721" width="5.78723" height="5.78723" transform="rotate(90 75.2344 57.8721)" fill="#A1A1A1"/>
<rect x="138.894" y="121.532" width="5.78723" height="5.78723" transform="rotate(90 138.894 121.532)" fill="#A1A1A1"/>
<rect x="75.2344" y="185.191" width="5.78723" height="5.78723" transform="rotate(90 75.2344 185.191)" fill="#A1A1A1"/>
<rect x="202.554" y="185.191" width="5.78723" height="5.78723" transform="rotate(90 202.554 185.191)" fill="#A1A1A1"/>
<rect x="202.554" y="57.8721" width="5.78723" height="5.78723" transform="rotate(90 202.554 57.8721)" fill="#A1A1A1"/>
<rect x="75.2344" y="69.4463" width="5.78723" height="5.78723" transform="rotate(90 75.2344 69.4463)" fill="#A1A1A1"/>
<rect x="138.894" y="133.106" width="5.78723" height="5.78723" transform="rotate(90 138.894 133.106)" fill="#A1A1A1"/>
<rect x="75.2344" y="196.767" width="5.78723" height="5.78723" transform="rotate(90 75.2344 196.767)" fill="#A1A1A1"/>
<rect x="202.554" y="196.767" width="5.78723" height="5.78723" transform="rotate(90 202.554 196.767)" fill="#A1A1A1"/>
<rect x="202.554" y="69.4463" width="5.78723" height="5.78723" transform="rotate(90 202.554 69.4463)" fill="#A1A1A1"/>
<rect x="138.894" y="98.3828" width="5.78723" height="5.78723" transform="rotate(90 138.894 98.3828)" fill="#A1A1A1"/>
<rect x="133.106" y="173.617" width="5.78723" height="5.78723" transform="rotate(-90 133.106 173.617)" fill="#A1A1A1"/>
<rect x="202.554" y="98.3828" width="5.78723" height="5.78723" transform="rotate(90 202.554 98.3828)" fill="#A1A1A1"/>
<rect x="69.4473" y="173.617" width="5.78723" height="5.78723" transform="rotate(-90 69.4473 173.617)" fill="#A1A1A1"/>
<rect x="11.5742" y="98.3828" width="5.78723" height="5.78723" transform="rotate(90 11.5742 98.3828)" fill="#A1A1A1"/>
<rect x="260.426" y="173.617" width="5.78723" height="5.78723" transform="rotate(-90 260.426 173.617)" fill="#A1A1A1"/>
<rect x="266.213" y="98.3828" width="5.78723" height="5.78723" transform="rotate(90 266.213 98.3828)" fill="#A1A1A1"/>
<rect x="5.78711" y="173.617" width="5.78723" height="5.78723" transform="rotate(-90 5.78711 173.617)" fill="#A1A1A1"/>
<rect x="75.2344" y="98.3828" width="5.78723" height="5.78723" transform="rotate(90 75.2344 98.3828)" fill="#A1A1A1"/>
<rect x="196.766" y="173.617" width="5.78723" height="5.78723" transform="rotate(-90 196.766 173.617)" fill="#A1A1A1"/>
<rect x="138.894" y="34.7236" width="5.78723" height="5.78723" transform="rotate(90 138.894 34.7236)" fill="#A1A1A1"/>
<rect x="133.106" y="237.276" width="5.78723" height="5.78723" transform="rotate(-90 133.106 237.276)" fill="#A1A1A1"/>
<rect x="98.3828" y="5.78711" width="5.78723" height="5.78723" fill="#A1A1A1"/>
<rect x="173.617" y="266.213" width="5.78723" height="5.78723" transform="rotate(180 173.617 266.213)" fill="#A1A1A1"/>
<rect x="34.7236" y="5.78711" width="5.78723" height="5.78723" fill="#A1A1A1"/>
<rect x="237.276" y="266.213" width="5.78723" height="5.78723" transform="rotate(180 237.276 266.213)" fill="#A1A1A1"/>
<rect x="162.043" y="5.78711" width="5.78723" height="5.78723" fill="#A1A1A1"/>
<rect x="109.957" y="266.213" width="5.78723" height="5.78723" transform="rotate(180 109.957 266.213)" fill="#A1A1A1"/>
<rect x="225.702" y="5.78711" width="5.78723" height="5.78723" fill="#A1A1A1"/>
<rect x="46.2979" y="266.213" width="5.78723" height="5.78723" transform="rotate(180 46.2979 266.213)" fill="#A1A1A1"/>
<rect x="98.3828" y="69.4463" width="5.78723" height="5.78723" fill="#A1A1A1"/>
<rect x="173.617" y="202.554" width="5.78723" height="5.78723" transform="rotate(180 173.617 202.554)" fill="#A1A1A1"/>
<rect x="34.7236" y="69.4463" width="5.78723" height="5.78723" fill="#A1A1A1"/>
<rect x="237.276" y="202.554" width="5.78723" height="5.78723" transform="rotate(180 237.276 202.554)" fill="#A1A1A1"/>
<rect x="162.043" y="69.4463" width="5.78723" height="5.78723" fill="#A1A1A1"/>
<rect x="109.957" y="202.554" width="5.78723" height="5.78723" transform="rotate(180 109.957 202.554)" fill="#A1A1A1"/>
<rect x="225.702" y="69.4463" width="5.78723" height="5.78723" fill="#A1A1A1"/>
<rect x="46.2979" y="202.554" width="5.78723" height="5.78723" transform="rotate(180 46.2979 202.554)" fill="#A1A1A1"/>
<rect x="98.3828" y="133.106" width="5.78723" height="5.78723" fill="#A1A1A1"/>
<rect x="34.7236" y="133.106" width="5.78723" height="5.78723" fill="#A1A1A1"/>
<rect x="162.043" y="133.106" width="5.78723" height="5.78723" fill="#A1A1A1"/>
<rect x="225.702" y="133.106" width="5.78723" height="5.78723" fill="#A1A1A1"/>
<rect x="202.554" y="34.7236" width="5.78723" height="5.78723" transform="rotate(90 202.554 34.7236)" fill="#A1A1A1"/>
<rect x="69.4473" y="237.276" width="5.78723" height="5.78723" transform="rotate(-90 69.4473 237.276)" fill="#A1A1A1"/>
<rect x="11.5742" y="34.7236" width="5.78723" height="5.78723" transform="rotate(90 11.5742 34.7236)" fill="#A1A1A1"/>
<rect x="260.426" y="237.276" width="5.78723" height="5.78723" transform="rotate(-90 260.426 237.276)" fill="#A1A1A1"/>
<rect x="266.213" y="34.7236" width="5.78723" height="5.78723" transform="rotate(90 266.213 34.7236)" fill="#A1A1A1"/>
<rect x="5.78711" y="237.276" width="5.78723" height="5.78723" transform="rotate(-90 5.78711 237.276)" fill="#A1A1A1"/>
<rect x="75.2344" y="34.7236" width="5.78723" height="5.78723" transform="rotate(90 75.2344 34.7236)" fill="#A1A1A1"/>
<rect x="196.766" y="237.276" width="5.78723" height="5.78723" transform="rotate(-90 196.766 237.276)" fill="#A1A1A1"/>
<rect x="138.894" y="86.8086" width="5.78723" height="5.78723" transform="rotate(90 138.894 86.8086)" fill="#A1A1A1"/>
<rect x="133.106" y="185.191" width="5.78723" height="5.78723" transform="rotate(-90 133.106 185.191)" fill="#A1A1A1"/>
<rect x="202.554" y="86.8086" width="5.78723" height="5.78723" transform="rotate(90 202.554 86.8086)" fill="#A1A1A1"/>
<rect x="11.5742" y="86.8086" width="5.78723" height="5.78723" transform="rotate(90 11.5742 86.8086)" fill="#A1A1A1"/>
<rect x="260.426" y="185.191" width="5.78723" height="5.78723" transform="rotate(-90 260.426 185.191)" fill="#A1A1A1"/>
<rect x="266.213" y="86.8086" width="5.78723" height="5.78723" transform="rotate(90 266.213 86.8086)" fill="#A1A1A1"/>
<rect x="5.78711" y="185.191" width="5.78723" height="5.78723" transform="rotate(-90 5.78711 185.191)" fill="#A1A1A1"/>
<rect x="75.2344" y="86.8086" width="5.78723" height="5.78723" transform="rotate(90 75.2344 86.8086)" fill="#A1A1A1"/>
<rect x="138.894" y="23.1484" width="5.78723" height="5.78723" transform="rotate(90 138.894 23.1484)" fill="#A1A1A1"/>
<rect x="133.106" y="248.852" width="5.78723" height="5.78723" transform="rotate(-90 133.106 248.852)" fill="#A1A1A1"/>
<rect x="86.8086" y="5.78711" width="5.78723" height="5.78723" fill="#A1A1A1"/>
<rect x="185.191" y="266.213" width="5.78723" height="5.78723" transform="rotate(180 185.191 266.213)" fill="#A1A1A1"/>
<rect x="23.1494" y="5.78711" width="5.78723" height="5.78723" fill="#A1A1A1"/>
<rect x="248.852" y="266.213" width="5.78723" height="5.78723" transform="rotate(180 248.852 266.213)" fill="#A1A1A1"/>
<rect x="150.468" y="5.78711" width="5.78723" height="5.78723" fill="#A1A1A1"/>
<rect x="121.532" y="266.213" width="5.78723" height="5.78723" transform="rotate(180 121.532 266.213)" fill="#A1A1A1"/>
<rect x="214.128" y="5.78711" width="5.78723" height="5.78723" fill="#A1A1A1"/>
<rect x="57.8721" y="266.213" width="5.78723" height="5.78723" transform="rotate(180 57.8721 266.213)" fill="#A1A1A1"/>
<rect x="86.8086" y="69.4463" width="5.78723" height="5.78723" fill="#A1A1A1"/>
<rect x="185.191" y="202.554" width="5.78723" height="5.78723" transform="rotate(180 185.191 202.554)" fill="#A1A1A1"/>
<rect x="23.1494" y="69.4463" width="5.78723" height="5.78723" fill="#A1A1A1"/>
<rect x="248.852" y="202.554" width="5.78723" height="5.78723" transform="rotate(180 248.852 202.554)" fill="#A1A1A1"/>
<rect x="150.468" y="69.4463" width="5.78723" height="5.78723" fill="#A1A1A1"/>
<rect x="121.532" y="202.554" width="5.78723" height="5.78723" transform="rotate(180 121.532 202.554)" fill="#A1A1A1"/>
<rect x="214.128" y="69.4463" width="5.78723" height="5.78723" fill="#A1A1A1"/>
<rect x="57.8721" y="202.554" width="5.78723" height="5.78723" transform="rotate(180 57.8721 202.554)" fill="#A1A1A1"/>
<rect x="86.8086" y="133.106" width="5.78723" height="5.78723" fill="#A1A1A1"/>
<rect x="23.1494" y="133.106" width="5.78723" height="5.78723" fill="#A1A1A1"/>
<rect x="150.468" y="133.106" width="5.78723" height="5.78723" fill="#A1A1A1"/>
<rect x="214.128" y="133.106" width="5.78723" height="5.78723" fill="#A1A1A1"/>
<rect x="202.554" y="23.1484" width="5.78723" height="5.78723" transform="rotate(90 202.554 23.1484)" fill="#A1A1A1"/>
<rect x="69.4473" y="248.852" width="5.78723" height="5.78723" transform="rotate(-90 69.4473 248.852)" fill="#A1A1A1"/>
<rect x="11.5742" y="23.1484" width="5.78723" height="5.78723" transform="rotate(90 11.5742 23.1484)" fill="#A1A1A1"/>
<rect x="260.426" y="248.852" width="5.78723" height="5.78723" transform="rotate(-90 260.426 248.852)" fill="#A1A1A1"/>
<rect x="266.213" y="23.1484" width="5.78723" height="5.78723" transform="rotate(90 266.213 23.1484)" fill="#A1A1A1"/>
<rect x="5.78711" y="248.852" width="5.78723" height="5.78723" transform="rotate(-90 5.78711 248.852)" fill="#A1A1A1"/>
<rect x="75.2344" y="23.1484" width="5.78723" height="5.78723" transform="rotate(90 75.2344 23.1484)" fill="#A1A1A1"/>
<rect x="196.766" y="248.852" width="5.78723" height="5.78723" transform="rotate(-90 196.766 248.852)" fill="#A1A1A1"/>
<rect x="138.894" y="109.957" width="5.78723" height="5.78723" transform="rotate(90 138.894 109.957)" fill="#A1A1A1"/>
<rect x="133.106" y="162.043" width="5.78723" height="5.78723" transform="rotate(-90 133.106 162.043)" fill="#A1A1A1"/>
<rect x="202.554" y="109.957" width="5.78723" height="5.78723" transform="rotate(90 202.554 109.957)" fill="#A1A1A1"/>
<rect x="69.4473" y="162.043" width="5.78723" height="5.78723" transform="rotate(-90 69.4473 162.043)" fill="#A1A1A1"/>
<rect x="11.5742" y="109.957" width="5.78723" height="5.78723" transform="rotate(90 11.5742 109.957)" fill="#A1A1A1"/>
<rect x="260.426" y="162.043" width="5.78723" height="5.78723" transform="rotate(-90 260.426 162.043)" fill="#A1A1A1"/>
<rect x="266.213" y="109.957" width="5.78723" height="5.78723" transform="rotate(90 266.213 109.957)" fill="#A1A1A1"/>
<rect x="5.78711" y="162.043" width="5.78723" height="5.78723" transform="rotate(-90 5.78711 162.043)" fill="#A1A1A1"/>
<rect x="75.2344" y="109.957" width="5.78723" height="5.78723" transform="rotate(90 75.2344 109.957)" fill="#A1A1A1"/>
<rect x="196.766" y="162.043" width="5.78723" height="5.78723" transform="rotate(-90 196.766 162.043)" fill="#A1A1A1"/>
<rect x="138.894" y="46.2979" width="5.78723" height="5.78723" transform="rotate(90 138.894 46.2979)" fill="#A1A1A1"/>
<rect x="133.106" y="225.702" width="5.78723" height="5.78723" transform="rotate(-90 133.106 225.702)" fill="#A1A1A1"/>
<rect x="109.957" y="5.78711" width="5.78723" height="5.78723" fill="#A1A1A1"/>
<rect x="162.043" y="266.213" width="5.78723" height="5.78723" transform="rotate(180 162.043 266.213)" fill="#A1A1A1"/>
<rect x="46.2979" y="5.78711" width="5.78723" height="5.78723" fill="#A1A1A1"/>
<rect x="225.702" y="266.213" width="5.78723" height="5.78723" transform="rotate(180 225.702 266.213)" fill="#A1A1A1"/>
<rect x="173.617" y="5.78711" width="5.78723" height="5.78723" fill="#A1A1A1"/>
<rect x="98.3828" y="266.213" width="5.78723" height="5.78723" transform="rotate(180 98.3828 266.213)" fill="#A1A1A1"/>
<rect x="237.276" y="5.78711" width="5.78723" height="5.78723" fill="#A1A1A1"/>
<rect x="34.7236" y="266.213" width="5.78723" height="5.78723" transform="rotate(180 34.7236 266.213)" fill="#A1A1A1"/>
<rect x="109.957" y="69.4463" width="5.78723" height="5.78723" fill="#A1A1A1"/>
<rect x="162.043" y="202.554" width="5.78723" height="5.78723" transform="rotate(180 162.043 202.554)" fill="#A1A1A1"/>
<rect x="46.2979" y="69.4463" width="5.78723" height="5.78723" fill="#A1A1A1"/>
<rect x="225.702" y="202.554" width="5.78723" height="5.78723" transform="rotate(180 225.702 202.554)" fill="#A1A1A1"/>
<rect x="173.617" y="69.4463" width="5.78723" height="5.78723" fill="#A1A1A1"/>
<rect x="98.3828" y="202.554" width="5.78723" height="5.78723" transform="rotate(180 98.3828 202.554)" fill="#A1A1A1"/>
<rect x="237.276" y="69.4463" width="5.78723" height="5.78723" fill="#A1A1A1"/>
<rect x="34.7236" y="202.554" width="5.78723" height="5.78723" transform="rotate(180 34.7236 202.554)" fill="#A1A1A1"/>
<rect x="109.957" y="133.106" width="5.78723" height="5.78723" fill="#A1A1A1"/>
<rect x="46.2979" y="133.106" width="5.78723" height="5.78723" fill="#A1A1A1"/>
<rect x="173.617" y="133.106" width="5.78723" height="5.78723" fill="#A1A1A1"/>
<rect x="237.276" y="133.106" width="5.78723" height="5.78723" fill="#A1A1A1"/>
<rect x="202.554" y="46.2979" width="5.78723" height="5.78723" transform="rotate(90 202.554 46.2979)" fill="#A1A1A1"/>
<rect x="69.4473" y="225.702" width="5.78723" height="5.78723" transform="rotate(-90 69.4473 225.702)" fill="#A1A1A1"/>
<rect x="11.5742" y="46.2979" width="5.78723" height="5.78723" transform="rotate(90 11.5742 46.2979)" fill="#A1A1A1"/>
<rect x="260.426" y="225.702" width="5.78723" height="5.78723" transform="rotate(-90 260.426 225.702)" fill="#A1A1A1"/>
<rect x="266.213" y="46.2979" width="5.78723" height="5.78723" transform="rotate(90 266.213 46.2979)" fill="#A1A1A1"/>
<rect x="5.78711" y="225.702" width="5.78723" height="5.78723" transform="rotate(-90 5.78711 225.702)" fill="#A1A1A1"/>
<rect x="75.2344" y="46.2979" width="5.78723" height="5.78723" transform="rotate(90 75.2344 46.2979)" fill="#A1A1A1"/>
<rect x="196.766" y="225.702" width="5.78723" height="5.78723" transform="rotate(-90 196.766 225.702)" fill="#A1A1A1"/>
<rect x="138.894" y="81.0215" width="5.78723" height="5.78723" transform="rotate(90 138.894 81.0215)" fill="#A1A1A1"/>
<rect x="133.106" y="190.979" width="5.78723" height="5.78723" transform="rotate(-90 133.106 190.979)" fill="#A1A1A1"/>
<rect x="11.5742" y="81.0215" width="5.78723" height="5.78723" transform="rotate(90 11.5742 81.0215)" fill="#A1A1A1"/>
<rect x="260.426" y="190.979" width="5.78723" height="5.78723" transform="rotate(-90 260.426 190.979)" fill="#A1A1A1"/>
<rect x="266.213" y="81.0215" width="5.78723" height="5.78723" transform="rotate(90 266.213 81.0215)" fill="#A1A1A1"/>
<rect x="5.78711" y="190.979" width="5.78723" height="5.78723" transform="rotate(-90 5.78711 190.979)" fill="#A1A1A1"/>
<rect x="75.2344" y="81.0215" width="5.78723" height="5.78723" transform="rotate(90 75.2344 81.0215)" fill="#A1A1A1"/>
<rect x="138.894" y="144.681" width="5.78723" height="5.78723" transform="rotate(90 138.894 144.681)" fill="#A1A1A1"/>
<rect x="75.2344" y="208.341" width="5.78723" height="5.78723" transform="rotate(90 75.2344 208.341)" fill="#A1A1A1"/>
<rect x="202.554" y="208.341" width="5.78723" height="5.78723" transform="rotate(90 202.554 208.341)" fill="#A1A1A1"/>
<rect x="202.554" y="81.0215" width="5.78723" height="5.78723" transform="rotate(90 202.554 81.0215)" fill="#A1A1A1"/>
<rect x="138.894" y="17.3613" width="5.78723" height="5.78723" transform="rotate(90 138.894 17.3613)" fill="#A1A1A1"/>
<rect x="133.106" y="254.639" width="5.78723" height="5.78723" transform="rotate(-90 133.106 254.639)" fill="#A1A1A1"/>
<rect x="81.0215" y="5.78711" width="5.78723" height="5.78723" fill="#A1A1A1"/>
<rect x="190.979" y="266.213" width="5.78723" height="5.78723" transform="rotate(180 190.979 266.213)" fill="#A1A1A1"/>
<rect x="17.3623" y="5.78711" width="5.78723" height="5.78723" fill="#A1A1A1"/>
<rect x="254.639" y="266.213" width="5.78723" height="5.78723" transform="rotate(180 254.639 266.213)" fill="#A1A1A1"/>
<rect x="144.681" y="5.78711" width="5.78723" height="5.78723" fill="#A1A1A1"/>
<rect x="127.319" y="266.213" width="5.78723" height="5.78723" transform="rotate(180 127.319 266.213)" fill="#A1A1A1"/>
<rect x="208.341" y="5.78711" width="5.78723" height="5.78723" fill="#A1A1A1"/>
<rect x="63.6592" y="266.213" width="5.78723" height="5.78723" transform="rotate(180 63.6592 266.213)" fill="#A1A1A1"/>
<rect x="81.0215" y="69.4463" width="5.78723" height="5.78723" fill="#A1A1A1"/>
<rect x="144.681" y="133.106" width="5.78723" height="5.78723" fill="#A1A1A1"/>
<rect x="81.0215" y="196.767" width="5.78723" height="5.78723" fill="#A1A1A1"/>
<rect x="208.341" y="196.767" width="5.78723" height="5.78723" fill="#A1A1A1"/>
<rect x="208.341" y="69.4463" width="5.78723" height="5.78723" fill="#A1A1A1"/>
<rect x="17.3623" y="69.4463" width="5.78723" height="5.78723" fill="#A1A1A1"/>
<rect x="254.639" y="202.554" width="5.78723" height="5.78723" transform="rotate(180 254.639 202.554)" fill="#A1A1A1"/>
<rect x="144.681" y="69.4463" width="5.78723" height="5.78723" fill="#A1A1A1"/>
<rect x="127.319" y="202.554" width="5.78723" height="5.78723" transform="rotate(180 127.319 202.554)" fill="#A1A1A1"/>
<rect x="81.0215" y="133.106" width="5.78723" height="5.78723" fill="#A1A1A1"/>
<rect x="17.3623" y="133.106" width="5.78723" height="5.78723" fill="#A1A1A1"/>
<rect x="208.341" y="133.106" width="5.78723" height="5.78723" fill="#A1A1A1"/>
<rect x="202.554" y="17.3613" width="5.78723" height="5.78723" transform="rotate(90 202.554 17.3613)" fill="#A1A1A1"/>
<rect x="69.4473" y="254.639" width="5.78723" height="5.78723" transform="rotate(-90 69.4473 254.639)" fill="#A1A1A1"/>
<rect x="11.5742" y="17.3613" width="5.78723" height="5.78723" transform="rotate(90 11.5742 17.3613)" fill="#A1A1A1"/>
<rect x="260.426" y="254.639" width="5.78723" height="5.78723" transform="rotate(-90 260.426 254.639)" fill="#A1A1A1"/>
<rect x="266.213" y="17.3613" width="5.78723" height="5.78723" transform="rotate(90 266.213 17.3613)" fill="#A1A1A1"/>
<rect x="5.78711" y="254.639" width="5.78723" height="5.78723" transform="rotate(-90 5.78711 254.639)" fill="#A1A1A1"/>
<rect x="75.2344" y="17.3613" width="5.78723" height="5.78723" transform="rotate(90 75.2344 17.3613)" fill="#A1A1A1"/>
<rect x="196.766" y="254.639" width="5.78723" height="5.78723" transform="rotate(-90 196.766 254.639)" fill="#A1A1A1"/>
<rect x="138.894" y="104.17" width="5.78723" height="5.78723" transform="rotate(90 138.894 104.17)" fill="#A1A1A1"/>
<rect x="133.106" y="167.83" width="5.78723" height="5.78723" transform="rotate(-90 133.106 167.83)" fill="#A1A1A1"/>
<rect x="202.554" y="104.17" width="5.78723" height="5.78723" transform="rotate(90 202.554 104.17)" fill="#A1A1A1"/>
<rect x="69.4473" y="167.83" width="5.78723" height="5.78723" transform="rotate(-90 69.4473 167.83)" fill="#A1A1A1"/>
<rect x="11.5742" y="104.17" width="5.78723" height="5.78723" transform="rotate(90 11.5742 104.17)" fill="#A1A1A1"/>
<rect x="260.426" y="167.83" width="5.78723" height="5.78723" transform="rotate(-90 260.426 167.83)" fill="#A1A1A1"/>
<rect x="266.213" y="104.17" width="5.78723" height="5.78723" transform="rotate(90 266.213 104.17)" fill="#A1A1A1"/>
<rect x="5.78711" y="167.83" width="5.78723" height="5.78723" transform="rotate(-90 5.78711 167.83)" fill="#A1A1A1"/>
<rect x="75.2344" y="104.17" width="5.78723" height="5.78723" transform="rotate(90 75.2344 104.17)" fill="#A1A1A1"/>
<rect x="196.766" y="167.83" width="5.78723" height="5.78723" transform="rotate(-90 196.766 167.83)" fill="#A1A1A1"/>
<rect x="138.894" y="40.5107" width="5.78723" height="5.78723" transform="rotate(90 138.894 40.5107)" fill="#A1A1A1"/>
<rect x="133.106" y="231.489" width="5.78723" height="5.78723" transform="rotate(-90 133.106 231.489)" fill="#A1A1A1"/>
<rect x="104.17" y="5.78711" width="5.78723" height="5.78723" fill="#A1A1A1"/>
<rect x="167.83" y="266.213" width="5.78723" height="5.78723" transform="rotate(180 167.83 266.213)" fill="#A1A1A1"/>
<rect x="40.5107" y="5.78711" width="5.78723" height="5.78723" fill="#A1A1A1"/>
<rect x="231.489" y="266.213" width="5.78723" height="5.78723" transform="rotate(180 231.489 266.213)" fill="#A1A1A1"/>
<rect x="167.83" y="5.78711" width="5.78723" height="5.78723" fill="#A1A1A1"/>
<rect x="104.17" y="266.213" width="5.78723" height="5.78723" transform="rotate(180 104.17 266.213)" fill="#A1A1A1"/>
<rect x="231.489" y="5.78711" width="5.78723" height="5.78723" fill="#A1A1A1"/>
<rect x="40.5107" y="266.213" width="5.78723" height="5.78723" transform="rotate(180 40.5107 266.213)" fill="#A1A1A1"/>
<rect x="104.17" y="69.4463" width="5.78723" height="5.78723" fill="#A1A1A1"/>
<rect x="167.83" y="202.554" width="5.78723" height="5.78723" transform="rotate(180 167.83 202.554)" fill="#A1A1A1"/>
<rect x="40.5107" y="69.4463" width="5.78723" height="5.78723" fill="#A1A1A1"/>
<rect x="231.489" y="202.554" width="5.78723" height="5.78723" transform="rotate(180 231.489 202.554)" fill="#A1A1A1"/>
<rect x="167.83" y="69.4463" width="5.78723" height="5.78723" fill="#A1A1A1"/>
<rect x="104.17" y="202.554" width="5.78723" height="5.78723" transform="rotate(180 104.17 202.554)" fill="#A1A1A1"/>
<rect x="231.489" y="69.4463" width="5.78723" height="5.78723" fill="#A1A1A1"/>
<rect x="40.5107" y="202.554" width="5.78723" height="5.78723" transform="rotate(180 40.5107 202.554)" fill="#A1A1A1"/>
<rect x="104.17" y="133.106" width="5.78723" height="5.78723" fill="#A1A1A1"/>
<rect x="40.5107" y="133.106" width="5.78723" height="5.78723" fill="#A1A1A1"/>
<rect x="167.83" y="133.106" width="5.78723" height="5.78723" fill="#A1A1A1"/>
<rect x="231.489" y="133.106" width="5.78723" height="5.78723" fill="#A1A1A1"/>
<rect x="202.554" y="40.5107" width="5.78723" height="5.78723" transform="rotate(90 202.554 40.5107)" fill="#A1A1A1"/>
<rect x="69.4473" y="231.489" width="5.78723" height="5.78723" transform="rotate(-90 69.4473 231.489)" fill="#A1A1A1"/>
<rect x="11.5742" y="40.5107" width="5.78723" height="5.78723" transform="rotate(90 11.5742 40.5107)" fill="#A1A1A1"/>
<rect x="260.426" y="231.489" width="5.78723" height="5.78723" transform="rotate(-90 260.426 231.489)" fill="#A1A1A1"/>
<rect x="266.213" y="40.5107" width="5.78723" height="5.78723" transform="rotate(90 266.213 40.5107)" fill="#A1A1A1"/>
<rect x="5.78711" y="231.489" width="5.78723" height="5.78723" transform="rotate(-90 5.78711 231.489)" fill="#A1A1A1"/>
<rect x="75.2344" y="40.5107" width="5.78723" height="5.78723" transform="rotate(90 75.2344 40.5107)" fill="#A1A1A1"/>
<rect x="196.766" y="231.489" width="5.78723" height="5.78723" transform="rotate(-90 196.766 231.489)" fill="#A1A1A1"/>
<rect x="138.894" y="92.5957" width="5.78723" height="5.78723" transform="rotate(90 138.894 92.5957)" fill="#A1A1A1"/>
<rect x="133.106" y="179.404" width="5.78723" height="5.78723" transform="rotate(-90 133.106 179.404)" fill="#A1A1A1"/>
<rect x="202.554" y="92.5957" width="5.78723" height="5.78723" transform="rotate(90 202.554 92.5957)" fill="#A1A1A1"/>
<rect x="69.4473" y="179.404" width="5.78723" height="5.78723" transform="rotate(-90 69.4473 179.404)" fill="#A1A1A1"/>
<rect x="11.5742" y="92.5957" width="5.78723" height="5.78723" transform="rotate(90 11.5742 92.5957)" fill="#A1A1A1"/>
<rect x="260.426" y="179.404" width="5.78723" height="5.78723" transform="rotate(-90 260.426 179.404)" fill="#A1A1A1"/>
<rect x="266.213" y="92.5957" width="5.78723" height="5.78723" transform="rotate(90 266.213 92.5957)" fill="#A1A1A1"/>
<rect x="5.78711" y="179.404" width="5.78723" height="5.78723" transform="rotate(-90 5.78711 179.404)" fill="#A1A1A1"/>
<rect x="75.2344" y="92.5957" width="5.78723" height="5.78723" transform="rotate(90 75.2344 92.5957)" fill="#A1A1A1"/>
<rect x="196.766" y="179.404" width="5.78723" height="5.78723" transform="rotate(-90 196.766 179.404)" fill="#A1A1A1"/>
<rect x="138.894" y="28.9365" width="5.78723" height="5.78723" transform="rotate(90 138.894 28.9365)" fill="#A1A1A1"/>
<rect x="133.106" y="243.063" width="5.78723" height="5.78723" transform="rotate(-90 133.106 243.063)" fill="#A1A1A1"/>
<rect x="92.5957" y="5.78711" width="5.78723" height="5.78723" fill="#A1A1A1"/>
<rect x="179.404" y="266.213" width="5.78723" height="5.78723" transform="rotate(180 179.404 266.213)" fill="#A1A1A1"/>
<rect x="28.9365" y="5.78711" width="5.78723" height="5.78723" fill="#A1A1A1"/>
<rect x="243.064" y="266.213" width="5.78723" height="5.78723" transform="rotate(180 243.064 266.213)" fill="#A1A1A1"/>
<rect x="156.255" y="5.78711" width="5.78723" height="5.78723" fill="#A1A1A1"/>
<rect x="115.744" y="266.213" width="5.78723" height="5.78723" transform="rotate(180 115.744 266.213)" fill="#A1A1A1"/>
<rect x="219.915" y="5.78711" width="5.78723" height="5.78723" fill="#A1A1A1"/>
<rect x="52.085" y="266.213" width="5.78723" height="5.78723" transform="rotate(180 52.085 266.213)" fill="#A1A1A1"/>
<rect x="92.5957" y="69.4463" width="5.78723" height="5.78723" fill="#A1A1A1"/>
<rect x="179.404" y="202.554" width="5.78723" height="5.78723" transform="rotate(180 179.404 202.554)" fill="#A1A1A1"/>
<rect x="28.9365" y="69.4463" width="5.78723" height="5.78723" fill="#A1A1A1"/>
<rect x="243.064" y="202.554" width="5.78723" height="5.78723" transform="rotate(180 243.064 202.554)" fill="#A1A1A1"/>
<rect x="156.255" y="69.4463" width="5.78723" height="5.78723" fill="#A1A1A1"/>
<rect x="115.744" y="202.554" width="5.78723" height="5.78723" transform="rotate(180 115.744 202.554)" fill="#A1A1A1"/>
<rect x="219.915" y="69.4463" width="5.78723" height="5.78723" fill="#A1A1A1"/>
<rect x="52.085" y="202.554" width="5.78723" height="5.78723" transform="rotate(180 52.085 202.554)" fill="#A1A1A1"/>
<rect x="92.5957" y="133.106" width="5.78723" height="5.78723" fill="#A1A1A1"/>
<rect x="28.9365" y="133.106" width="5.78723" height="5.78723" fill="#A1A1A1"/>
<rect x="156.255" y="133.106" width="5.78723" height="5.78723" fill="#A1A1A1"/>
<rect x="219.915" y="133.106" width="5.78723" height="5.78723" fill="#A1A1A1"/>
<rect x="202.554" y="28.9365" width="5.78723" height="5.78723" transform="rotate(90 202.554 28.9365)" fill="#A1A1A1"/>
<rect x="69.4473" y="243.063" width="5.78723" height="5.78723" transform="rotate(-90 69.4473 243.063)" fill="#A1A1A1"/>
<rect x="11.5742" y="28.9365" width="5.78723" height="5.78723" transform="rotate(90 11.5742 28.9365)" fill="#A1A1A1"/>
<rect x="260.426" y="243.063" width="5.78723" height="5.78723" transform="rotate(-90 260.426 243.063)" fill="#A1A1A1"/>
<rect x="266.213" y="28.9365" width="5.78723" height="5.78723" transform="rotate(90 266.213 28.9365)" fill="#A1A1A1"/>
<rect x="5.78711" y="243.063" width="5.78723" height="5.78723" transform="rotate(-90 5.78711 243.063)" fill="#A1A1A1"/>
<rect x="75.2344" y="28.9365" width="5.78723" height="5.78723" transform="rotate(90 75.2344 28.9365)" fill="#A1A1A1"/>
<rect x="196.766" y="243.063" width="5.78723" height="5.78723" transform="rotate(-90 196.766 243.063)" fill="#A1A1A1"/>
<rect x="133.106" y="156.256" width="5.78723" height="5.78723" transform="rotate(-90 133.106 156.256)" fill="#A1A1A1"/>
<rect x="202.554" y="115.744" width="5.78723" height="5.78723" transform="rotate(90 202.554 115.744)" fill="#A1A1A1"/>
<rect x="69.4473" y="156.256" width="5.78723" height="5.78723" transform="rotate(-90 69.4473 156.256)" fill="#A1A1A1"/>
<rect x="11.5742" y="115.744" width="5.78723" height="5.78723" transform="rotate(90 11.5742 115.744)" fill="#A1A1A1"/>
<rect x="260.426" y="156.256" width="5.78723" height="5.78723" transform="rotate(-90 260.426 156.256)" fill="#A1A1A1"/>
<rect x="266.213" y="115.744" width="5.78723" height="5.78723" transform="rotate(90 266.213 115.744)" fill="#A1A1A1"/>
<rect x="5.78711" y="156.256" width="5.78723" height="5.78723" transform="rotate(-90 5.78711 156.256)" fill="#A1A1A1"/>
<rect x="75.2344" y="115.744" width="5.78723" height="5.78723" transform="rotate(90 75.2344 115.744)" fill="#A1A1A1"/>
<rect x="196.766" y="156.256" width="5.78723" height="5.78723" transform="rotate(-90 196.766 156.256)" fill="#A1A1A1"/>
<rect x="138.894" y="52.085" width="5.78723" height="5.78723" transform="rotate(90 138.894 52.085)" fill="#A1A1A1"/>
<rect x="133.106" y="219.915" width="5.78723" height="5.78723" transform="rotate(-90 133.106 219.915)" fill="#A1A1A1"/>
<rect x="115.744" y="5.78711" width="5.78723" height="5.78723" fill="#A1A1A1"/>
<rect x="156.255" y="266.213" width="5.78723" height="5.78723" transform="rotate(180 156.255 266.213)" fill="#A1A1A1"/>
<rect x="52.085" y="5.78711" width="5.78723" height="5.78723" fill="#A1A1A1"/>
<rect x="219.915" y="266.213" width="5.78723" height="5.78723" transform="rotate(180 219.915 266.213)" fill="#A1A1A1"/>
<rect x="179.404" y="5.78711" width="5.78723" height="5.78723" fill="#A1A1A1"/>
<rect x="92.5957" y="266.213" width="5.78723" height="5.78723" transform="rotate(180 92.5957 266.213)" fill="#A1A1A1"/>
<rect x="243.064" y="5.78711" width="5.78723" height="5.78723" fill="#A1A1A1"/>
<rect x="28.9365" y="266.213" width="5.78723" height="5.78723" transform="rotate(180 28.9365 266.213)" fill="#A1A1A1"/>
<rect x="115.744" y="69.4463" width="5.78723" height="5.78723" fill="#A1A1A1"/>
<rect x="156.255" y="202.554" width="5.78723" height="5.78723" transform="rotate(180 156.255 202.554)" fill="#A1A1A1"/>
<rect x="52.085" y="69.4463" width="5.78723" height="5.78723" fill="#A1A1A1"/>
<rect x="219.915" y="202.554" width="5.78723" height="5.78723" transform="rotate(180 219.915 202.554)" fill="#A1A1A1"/>
<rect x="179.404" y="69.4463" width="5.78723" height="5.78723" fill="#A1A1A1"/>
<rect x="92.5957" y="202.554" width="5.78723" height="5.78723" transform="rotate(180 92.5957 202.554)" fill="#A1A1A1"/>
<rect x="243.064" y="69.4463" width="5.78723" height="5.78723" fill="#A1A1A1"/>
<rect x="28.9365" y="202.554" width="5.78723" height="5.78723" transform="rotate(180 28.9365 202.554)" fill="#A1A1A1"/>
<rect x="115.744" y="133.106" width="5.78723" height="5.78723" fill="#A1A1A1"/>
<rect x="52.085" y="133.106" width="5.78723" height="5.78723" fill="#A1A1A1"/>
<rect x="179.404" y="133.106" width="5.78723" height="5.78723" fill="#A1A1A1"/>
<rect x="243.064" y="133.106" width="5.78723" height="5.78723" fill="#A1A1A1"/>
<rect x="69.4473" y="219.915" width="5.78723" height="5.78723" transform="rotate(-90 69.4473 219.915)" fill="#A1A1A1"/>
<rect x="11.5742" y="52.085" width="5.78723" height="5.78723" transform="rotate(90 11.5742 52.085)" fill="#A1A1A1"/>
<rect x="260.426" y="219.915" width="5.78723" height="5.78723" transform="rotate(-90 260.426 219.915)" fill="#A1A1A1"/>
<rect x="266.213" y="52.085" width="5.78723" height="5.78723" transform="rotate(90 266.213 52.085)" fill="#A1A1A1"/>
<rect x="5.78711" y="219.915" width="5.78723" height="5.78723" transform="rotate(-90 5.78711 219.915)" fill="#A1A1A1"/>
<rect x="75.2344" y="52.085" width="5.78723" height="5.78723" transform="rotate(90 75.2344 52.085)" fill="#A1A1A1"/>
<rect x="138.894" y="115.744" width="5.78723" height="5.78723" transform="rotate(90 138.894 115.744)" fill="#A1A1A1"/>
<rect x="75.2344" y="179.404" width="5.78723" height="5.78723" transform="rotate(90 75.2344 179.404)" fill="#A1A1A1"/>
<rect x="202.554" y="179.404" width="5.78723" height="5.78723" transform="rotate(90 202.554 179.404)" fill="#A1A1A1"/>
<rect x="202.554" y="52.085" width="5.78723" height="5.78723" transform="rotate(90 202.554 52.085)" fill="#A1A1A1"/>
<rect x="196.766" y="219.915" width="5.78723" height="5.78723" transform="rotate(-90 196.766 219.915)" fill="#A1A1A1"/>
<rect x="133.106" y="109.957" width="5.78723" height="5.78723" fill="#A1A1A1"/>
<rect x="138.894" y="162.043" width="5.78723" height="5.78723" transform="rotate(180 138.894 162.043)" fill="#A1A1A1"/>
<rect x="196.766" y="109.957" width="5.78723" height="5.78723" fill="#A1A1A1"/>
<rect x="75.2344" y="162.043" width="5.78723" height="5.78723" transform="rotate(180 75.2344 162.043)" fill="#A1A1A1"/>
<rect x="5.78711" y="109.957" width="5.78723" height="5.78723" fill="#A1A1A1"/>
<rect x="266.213" y="162.043" width="5.78723" height="5.78723" transform="rotate(180 266.213 162.043)" fill="#A1A1A1"/>
<rect x="260.426" y="109.957" width="5.78723" height="5.78723" fill="#A1A1A1"/>
<rect x="11.5742" y="162.043" width="5.78723" height="5.78723" transform="rotate(180 11.5742 162.043)" fill="#A1A1A1"/>
<rect x="69.4473" y="109.957" width="5.78723" height="5.78723" fill="#A1A1A1"/>
<rect x="202.554" y="162.043" width="5.78723" height="5.78723" transform="rotate(180 202.554 162.043)" fill="#A1A1A1"/>
<rect x="133.106" y="46.2979" width="5.78723" height="5.78723" fill="#A1A1A1"/>
<rect x="138.894" y="225.702" width="5.78723" height="5.78723" transform="rotate(180 138.894 225.702)" fill="#A1A1A1"/>
<rect x="109.957" y="11.5742" width="5.78723" height="5.78723" transform="rotate(-90 109.957 11.5742)" fill="#A1A1A1"/>
<rect x="162.043" y="260.426" width="5.78723" height="5.78723" transform="rotate(90 162.043 260.426)" fill="#A1A1A1"/>
<rect x="46.2979" y="11.5742" width="5.78723" height="5.78723" transform="rotate(-90 46.2979 11.5742)" fill="#A1A1A1"/>
<rect x="225.702" y="260.426" width="5.78723" height="5.78723" transform="rotate(90 225.702 260.426)" fill="#A1A1A1"/>
<rect x="173.617" y="11.5742" width="5.78723" height="5.78723" transform="rotate(-90 173.617 11.5742)" fill="#A1A1A1"/>
<rect x="98.3828" y="260.426" width="5.78723" height="5.78723" transform="rotate(90 98.3828 260.426)" fill="#A1A1A1"/>
<rect x="237.276" y="11.5742" width="5.78723" height="5.78723" transform="rotate(-90 237.276 11.5742)" fill="#A1A1A1"/>
<rect x="34.7236" y="260.426" width="5.78723" height="5.78723" transform="rotate(90 34.7236 260.426)" fill="#A1A1A1"/>
<rect x="109.957" y="75.2334" width="5.78723" height="5.78723" transform="rotate(-90 109.957 75.2334)" fill="#A1A1A1"/>
<rect x="162.043" y="196.767" width="5.78723" height="5.78723" transform="rotate(90 162.043 196.767)" fill="#A1A1A1"/>
<rect x="46.2979" y="75.2334" width="5.78723" height="5.78723" transform="rotate(-90 46.2979 75.2334)" fill="#A1A1A1"/>
<rect x="225.702" y="196.767" width="5.78723" height="5.78723" transform="rotate(90 225.702 196.767)" fill="#A1A1A1"/>
<rect x="173.617" y="75.2334" width="5.78723" height="5.78723" transform="rotate(-90 173.617 75.2334)" fill="#A1A1A1"/>
<rect x="98.3828" y="196.767" width="5.78723" height="5.78723" transform="rotate(90 98.3828 196.767)" fill="#A1A1A1"/>
<rect x="237.276" y="75.2334" width="5.78723" height="5.78723" transform="rotate(-90 237.276 75.2334)" fill="#A1A1A1"/>
<rect x="34.7236" y="196.767" width="5.78723" height="5.78723" transform="rotate(90 34.7236 196.767)" fill="#A1A1A1"/>
<rect x="109.957" y="138.894" width="5.78723" height="5.78723" transform="rotate(-90 109.957 138.894)" fill="#A1A1A1"/>
<rect x="46.2979" y="138.894" width="5.78723" height="5.78723" transform="rotate(-90 46.2979 138.894)" fill="#A1A1A1"/>
<rect x="173.617" y="138.894" width="5.78723" height="5.78723" transform="rotate(-90 173.617 138.894)" fill="#A1A1A1"/>
<rect x="237.276" y="138.894" width="5.78723" height="5.78723" transform="rotate(-90 237.276 138.894)" fill="#A1A1A1"/>
<rect x="196.766" y="46.2979" width="5.78723" height="5.78723" fill="#A1A1A1"/>
<rect x="75.2344" y="225.702" width="5.78723" height="5.78723" transform="rotate(180 75.2344 225.702)" fill="#A1A1A1"/>
<rect x="5.78711" y="46.2979" width="5.78723" height="5.78723" fill="#A1A1A1"/>
<rect x="266.213" y="225.702" width="5.78723" height="5.78723" transform="rotate(180 266.213 225.702)" fill="#A1A1A1"/>
<rect x="260.426" y="46.2979" width="5.78723" height="5.78723" fill="#A1A1A1"/>
<rect x="11.5742" y="225.702" width="5.78723" height="5.78723" transform="rotate(180 11.5742 225.702)" fill="#A1A1A1"/>
<rect x="69.4473" y="46.2979" width="5.78723" height="5.78723" fill="#A1A1A1"/>
<rect x="202.554" y="225.702" width="5.78723" height="5.78723" transform="rotate(180 202.554 225.702)" fill="#A1A1A1"/>
<ellipse cx="136.001" cy="136" rx="12.5926" ry="12.5926" fill="white"/>
<path d="M195.845 137.414C196.626 136.633 196.626 135.367 195.845 134.586L183.117 121.858C182.336 121.077 181.07 121.077 180.288 121.858C179.507 122.639 179.507 123.905 180.288 124.686L191.602 136L180.288 147.314C179.507 148.095 179.507 149.361 180.288 150.142C181.07 150.923 182.336 150.923 183.117 150.142L195.845 137.414ZM150.608 136V138H194.431V136V134H150.608V136Z" fill="white"/>
<path d="M137.415 76.1561C136.634 75.3751 135.368 75.3751 134.587 76.1561L121.859 88.8841C121.078 89.6651 121.078 90.9314 121.859 91.7125C122.64 92.4935 123.906 92.4935 124.687 91.7125L136.001 80.3988L147.315 91.7125C148.096 92.4935 149.362 92.4935 150.143 91.7125C150.924 90.9314 150.924 89.6651 150.143 88.8841L137.415 76.1561ZM136.001 121.393L138.001 121.393L138.001 77.5704L136.001 77.5704L134.001 77.5704L134.001 121.393L136.001 121.393Z" fill="white"/>
<path d="M134.587 195.844C135.368 196.625 136.634 196.625 137.415 195.844L150.143 183.116C150.924 182.335 150.924 181.069 150.143 180.288C149.362 179.506 148.096 179.506 147.315 180.288L136.001 191.601L124.687 180.288C123.906 179.506 122.64 179.506 121.859 180.288C121.078 181.069 121.078 182.335 121.859 183.116L134.587 195.844ZM136.001 150.607L134.001 150.607L134.001 194.43L136.001 194.43L138.001 194.43L138.001 150.607L136.001 150.607Z" fill="white"/>
<path d="M86.6554 181.055C86.5886 182.157 87.4283 183.105 88.5308 183.172L106.498 184.26C107.6 184.327 108.548 183.487 108.615 182.384C108.682 181.282 107.842 180.334 106.74 180.267L90.769 179.3L91.7361 163.329C91.8029 162.227 90.9632 161.279 89.8606 161.212C88.7581 161.145 87.8102 161.985 87.7434 163.087L86.6554 181.055ZM121.455 152.118L120.129 150.621L87.3256 179.678L88.6517 181.175L89.9779 182.673L122.781 153.615L121.455 152.118Z" fill="white"/>
<path d="M182.83 183.379C183.935 183.371 184.824 182.469 184.816 181.365L184.691 163.365C184.684 162.261 183.782 161.372 182.678 161.379C181.573 161.387 180.684 162.289 180.692 163.393L180.803 179.393L164.803 179.504C163.698 179.511 162.809 180.413 162.817 181.517C162.825 182.622 163.726 183.511 164.831 183.504L182.83 183.379ZM151.615 150.607L150.211 152.031L181.412 182.803L182.816 181.379L184.221 179.955L153.02 149.183L151.615 150.607Z" fill="white"/>
<path d="M75.1493 134.586C74.3683 135.367 74.3683 136.633 75.1493 137.414L87.8772 150.142C88.6583 150.923 89.9246 150.923 90.7057 150.142C91.4867 149.361 91.4867 148.095 90.7057 147.314L79.392 136L90.7057 124.686C91.4867 123.905 91.4867 122.639 90.7057 121.858C89.9246 121.077 88.6583 121.077 87.8773 121.858L75.1493 134.586ZM120.386 136L120.386 134L76.5635 134L76.5635 136L76.5635 138L120.386 138L120.386 136Z" fill="white"/>
<path d="M90.6772 87.7455C89.5726 87.7399 88.6727 88.6308 88.6671 89.7354L88.5761 107.735C88.5706 108.84 89.4615 109.74 90.566 109.745C91.6706 109.751 92.5705 108.86 92.5761 107.755L92.657 91.7556L108.657 91.8364C109.761 91.842 110.661 90.9511 110.667 89.8466C110.672 88.742 109.782 87.8421 108.677 87.8365L90.6772 87.7455ZM121.497 120.889L122.918 119.482L92.0884 88.3384L90.6671 89.7455L89.2457 91.1525L120.076 122.296L121.497 120.889Z" fill="white"/>
<path d="M184.822 89.6335C184.83 88.5289 183.941 87.6271 182.836 87.6193L164.837 87.4911C163.732 87.4832 162.83 88.3723 162.823 89.4768C162.815 90.5813 163.704 91.4831 164.808 91.491L180.808 91.6049L180.694 107.605C180.686 108.709 181.575 109.611 182.68 109.619C183.784 109.627 184.686 108.738 184.694 107.633L184.822 89.6335ZM151.615 120.385L153.019 121.809L184.226 91.0435L182.822 89.6192L181.418 88.195L150.211 118.961L151.615 120.385Z" fill="white"/>
</svg>
