<svg width="272" height="272" viewBox="0 0 272 272" fill="none" xmlns="http://www.w3.org/2000/svg">
<rect x="119.883" y="118.371" width="35.2593" height="35.2591" fill="#43FF46"/>
<rect x="155.141" y="155.141" width="35.2593" height="35.2591" fill="#43FF46"/>
<rect x="118.371" y="195.941" width="35.2593" height="32.7406" fill="#43FF46"/>
<rect x="81.6016" y="157.66" width="34.2519" height="34.2517" fill="#43FF46"/>
<rect x="5.44141" y="5.4375" width="5.43997" height="5.44" transform="rotate(90 5.44141 5.4375)" fill="#A1A1A1"/>
<rect x="81.6016" y="5.4375" width="5.43997" height="5.44" transform="rotate(90 81.6016 5.4375)" fill="#A1A1A1"/>
<rect x="157.762" y="5.4375" width="5.43997" height="5.44" transform="rotate(90 157.762 5.4375)" fill="#A1A1A1"/>
<rect x="233.922" y="5.4375" width="5.43997" height="5.44" transform="rotate(90 233.922 5.4375)" fill="#A1A1A1"/>
<rect x="43.5195" y="5.4375" width="5.43997" height="5.44" transform="rotate(90 43.5195 5.4375)" fill="#A1A1A1"/>
<rect x="119.684" y="5.4375" width="5.43997" height="5.44" transform="rotate(90 119.684 5.4375)" fill="#A1A1A1"/>
<rect x="195.844" y="5.4375" width="5.43997" height="5.44" transform="rotate(90 195.844 5.4375)" fill="#A1A1A1"/>
<rect x="272" y="5.4375" width="5.43997" height="5.44" transform="rotate(90 272 5.4375)" fill="#A1A1A1"/>
<rect x="5.44141" y="92.4805" width="5.43997" height="5.44" transform="rotate(90 5.44141 92.4805)" fill="#A1A1A1"/>
<rect x="81.6016" y="92.4805" width="5.43997" height="5.44" transform="rotate(90 81.6016 92.4805)" fill="#A1A1A1"/>
<rect x="157.762" y="92.4805" width="5.43997" height="5.44" transform="rotate(90 157.762 92.4805)" fill="#A1A1A1"/>
<rect x="233.922" y="92.4805" width="5.43997" height="5.44" transform="rotate(90 233.922 92.4805)" fill="#A1A1A1"/>
<rect x="43.5195" y="92.4805" width="5.43997" height="5.44" transform="rotate(90 43.5195 92.4805)" fill="#A1A1A1"/>
<rect x="119.684" y="92.4805" width="5.43997" height="5.44" transform="rotate(90 119.684 92.4805)" fill="#A1A1A1"/>
<rect x="119.684" y="114.238" width="5.43997" height="5.44" transform="rotate(90 119.684 114.238)" fill="#A1A1A1"/>
<rect x="157.762" y="114.238" width="5.43997" height="5.44" transform="rotate(90 157.762 114.238)" fill="#A1A1A1"/>
<rect x="119.684" y="136" width="5.43997" height="5.44" transform="rotate(90 119.684 136)" fill="#A1A1A1"/>
<rect x="157.762" y="136" width="5.43997" height="5.44" transform="rotate(90 157.762 136)" fill="#A1A1A1"/>
<rect x="119.684" y="163.199" width="5.43997" height="5.44" transform="rotate(90 119.684 163.199)" fill="#A1A1A1"/>
<rect x="157.762" y="163.199" width="5.43997" height="5.44" transform="rotate(90 157.762 163.199)" fill="#A1A1A1"/>
<rect x="195.844" y="92.4805" width="5.43997" height="5.44" transform="rotate(90 195.844 92.4805)" fill="#A1A1A1"/>
<rect x="272" y="92.4805" width="5.43997" height="5.44" transform="rotate(90 272 92.4805)" fill="#A1A1A1"/>
<rect x="5.44141" y="48.9609" width="5.43997" height="5.44" transform="rotate(90 5.44141 48.9609)" fill="#A1A1A1"/>
<rect x="81.6016" y="48.9609" width="5.43997" height="5.44" transform="rotate(90 81.6016 48.9609)" fill="#A1A1A1"/>
<rect x="157.762" y="48.9609" width="5.43997" height="5.44" transform="rotate(90 157.762 48.9609)" fill="#A1A1A1"/>
<rect x="233.922" y="48.9609" width="5.43997" height="5.44" transform="rotate(90 233.922 48.9609)" fill="#A1A1A1"/>
<rect x="43.5195" y="48.9609" width="5.43997" height="5.44" transform="rotate(90 43.5195 48.9609)" fill="#A1A1A1"/>
<rect x="119.684" y="48.9609" width="5.43997" height="5.44" transform="rotate(90 119.684 48.9609)" fill="#A1A1A1"/>
<rect x="195.844" y="48.9609" width="5.43997" height="5.44" transform="rotate(90 195.844 48.9609)" fill="#A1A1A1"/>
<rect x="272" y="48.9609" width="5.43997" height="5.44" transform="rotate(90 272 48.9609)" fill="#A1A1A1"/>
<rect x="5.44141" y="136" width="5.43997" height="5.44" transform="rotate(90 5.44141 136)" fill="#A1A1A1"/>
<rect x="81.6016" y="136" width="5.43997" height="5.44" transform="rotate(90 81.6016 136)" fill="#A1A1A1"/>
<rect x="233.922" y="136" width="5.43997" height="5.44" transform="rotate(90 233.922 136)" fill="#A1A1A1"/>
<rect x="43.5195" y="136" width="5.43997" height="5.44" transform="rotate(90 43.5195 136)" fill="#A1A1A1"/>
<rect x="195.844" y="136" width="5.43997" height="5.44" transform="rotate(90 195.844 136)" fill="#A1A1A1"/>
<rect x="272" y="136" width="5.43997" height="5.44" transform="rotate(90 272 136)" fill="#A1A1A1"/>
<rect x="5.44141" y="223.039" width="5.43997" height="5.44" transform="rotate(90 5.44141 223.039)" fill="#A1A1A1"/>
<rect x="81.6016" y="223.039" width="5.43997" height="5.44" transform="rotate(90 81.6016 223.039)" fill="#A1A1A1"/>
<rect x="157.762" y="223.039" width="5.43997" height="5.44" transform="rotate(90 157.762 223.039)" fill="#A1A1A1"/>
<rect x="233.922" y="223.039" width="5.43997" height="5.44" transform="rotate(90 233.922 223.039)" fill="#A1A1A1"/>
<rect x="43.5195" y="223.039" width="5.43997" height="5.44" transform="rotate(90 43.5195 223.039)" fill="#A1A1A1"/>
<rect x="119.684" y="223.039" width="5.43997" height="5.44" transform="rotate(90 119.684 223.039)" fill="#A1A1A1"/>
<rect x="195.844" y="223.039" width="5.43997" height="5.44" transform="rotate(90 195.844 223.039)" fill="#A1A1A1"/>
<rect x="272" y="223.039" width="5.43997" height="5.44" transform="rotate(90 272 223.039)" fill="#A1A1A1"/>
<rect x="5.44141" y="27.1992" width="5.43997" height="5.44" transform="rotate(90 5.44141 27.1992)" fill="#A1A1A1"/>
<rect x="81.6016" y="27.1992" width="5.43997" height="5.44" transform="rotate(90 81.6016 27.1992)" fill="#A1A1A1"/>
<rect x="157.762" y="27.1992" width="5.43997" height="5.44" transform="rotate(90 157.762 27.1992)" fill="#A1A1A1"/>
<rect x="233.922" y="27.1992" width="5.43997" height="5.44" transform="rotate(90 233.922 27.1992)" fill="#A1A1A1"/>
<rect x="43.5195" y="27.1992" width="5.43997" height="5.44" transform="rotate(90 43.5195 27.1992)" fill="#A1A1A1"/>
<rect x="119.684" y="27.1992" width="5.43997" height="5.44" transform="rotate(90 119.684 27.1992)" fill="#A1A1A1"/>
<rect x="195.844" y="27.1992" width="5.43997" height="5.44" transform="rotate(90 195.844 27.1992)" fill="#A1A1A1"/>
<rect x="272" y="27.1992" width="5.43997" height="5.44" transform="rotate(90 272 27.1992)" fill="#A1A1A1"/>
<rect x="5.44141" y="114.238" width="5.43997" height="5.44" transform="rotate(90 5.44141 114.238)" fill="#A1A1A1"/>
<rect x="81.6016" y="114.238" width="5.43997" height="5.44" transform="rotate(90 81.6016 114.238)" fill="#A1A1A1"/>
<rect x="233.922" y="114.238" width="5.43997" height="5.44" transform="rotate(90 233.922 114.238)" fill="#A1A1A1"/>
<rect x="43.5195" y="114.238" width="5.43997" height="5.44" transform="rotate(90 43.5195 114.238)" fill="#A1A1A1"/>
<rect x="195.844" y="114.238" width="5.43997" height="5.44" transform="rotate(90 195.844 114.238)" fill="#A1A1A1"/>
<rect x="272" y="114.238" width="5.43997" height="5.44" transform="rotate(90 272 114.238)" fill="#A1A1A1"/>
<rect x="5.44141" y="201.281" width="5.43997" height="5.44" transform="rotate(90 5.44141 201.281)" fill="#A1A1A1"/>
<rect x="81.6016" y="201.281" width="5.43997" height="5.44" transform="rotate(90 81.6016 201.281)" fill="#A1A1A1"/>
<rect x="157.762" y="201.281" width="5.43997" height="5.44" transform="rotate(90 157.762 201.281)" fill="#A1A1A1"/>
<rect x="233.922" y="201.281" width="5.43997" height="5.44" transform="rotate(90 233.922 201.281)" fill="#A1A1A1"/>
<rect x="43.5195" y="201.281" width="5.43997" height="5.44" transform="rotate(90 43.5195 201.281)" fill="#A1A1A1"/>
<rect x="119.684" y="201.281" width="5.43997" height="5.44" transform="rotate(90 119.684 201.281)" fill="#A1A1A1"/>
<rect x="195.844" y="201.281" width="5.43997" height="5.44" transform="rotate(90 195.844 201.281)" fill="#A1A1A1"/>
<rect x="272" y="201.281" width="5.43997" height="5.44" transform="rotate(90 272 201.281)" fill="#A1A1A1"/>
<rect x="5.44141" y="70.7188" width="5.43997" height="5.44" transform="rotate(90 5.44141 70.7188)" fill="#A1A1A1"/>
<rect x="81.6016" y="70.7188" width="5.43997" height="5.44" transform="rotate(90 81.6016 70.7188)" fill="#A1A1A1"/>
<rect x="157.762" y="70.7188" width="5.43997" height="5.44" transform="rotate(90 157.762 70.7188)" fill="#A1A1A1"/>
<rect x="233.922" y="70.7188" width="5.43997" height="5.44" transform="rotate(90 233.922 70.7188)" fill="#A1A1A1"/>
<rect x="43.5195" y="70.7188" width="5.43997" height="5.44" transform="rotate(90 43.5195 70.7188)" fill="#A1A1A1"/>
<rect x="119.684" y="70.7188" width="5.43997" height="5.44" transform="rotate(90 119.684 70.7188)" fill="#A1A1A1"/>
<rect x="195.844" y="70.7188" width="5.43997" height="5.44" transform="rotate(90 195.844 70.7188)" fill="#A1A1A1"/>
<rect x="272" y="70.7188" width="5.43997" height="5.44" transform="rotate(90 272 70.7188)" fill="#A1A1A1"/>
<rect x="5.44141" y="157.762" width="5.43997" height="5.44" transform="rotate(90 5.44141 157.762)" fill="#A1A1A1"/>
<rect x="81.6016" y="157.762" width="5.43997" height="5.44" transform="rotate(90 81.6016 157.762)" fill="#A1A1A1"/>
<rect x="233.922" y="157.762" width="5.43997" height="5.44" transform="rotate(90 233.922 157.762)" fill="#A1A1A1"/>
<rect x="43.5195" y="157.762" width="5.43997" height="5.44" transform="rotate(90 43.5195 157.762)" fill="#A1A1A1"/>
<rect x="195.844" y="157.762" width="5.43997" height="5.44" transform="rotate(90 195.844 157.762)" fill="#A1A1A1"/>
<rect x="272" y="157.762" width="5.43997" height="5.44" transform="rotate(90 272 157.762)" fill="#A1A1A1"/>
<rect x="5.44141" y="244.797" width="5.43997" height="5.44" transform="rotate(90 5.44141 244.797)" fill="#A1A1A1"/>
<rect x="81.6016" y="244.797" width="5.43997" height="5.44" transform="rotate(90 81.6016 244.797)" fill="#A1A1A1"/>
<rect x="157.762" y="244.797" width="5.43997" height="5.44" transform="rotate(90 157.762 244.797)" fill="#A1A1A1"/>
<rect x="233.922" y="244.797" width="5.43997" height="5.44" transform="rotate(90 233.922 244.797)" fill="#A1A1A1"/>
<rect x="43.5195" y="244.797" width="5.43997" height="5.44" transform="rotate(90 43.5195 244.797)" fill="#A1A1A1"/>
<rect x="119.684" y="244.797" width="5.43997" height="5.44" transform="rotate(90 119.684 244.797)" fill="#A1A1A1"/>
<rect x="195.844" y="244.797" width="5.43997" height="5.44" transform="rotate(90 195.844 244.797)" fill="#A1A1A1"/>
<rect x="272" y="244.797" width="5.43997" height="5.44" transform="rotate(90 272 244.797)" fill="#A1A1A1"/>
<rect x="5.44141" y="266.559" width="5.43997" height="5.44" transform="rotate(90 5.44141 266.559)" fill="#A1A1A1"/>
<rect x="81.6016" y="266.559" width="5.43997" height="5.44" transform="rotate(90 81.6016 266.559)" fill="#A1A1A1"/>
<rect x="157.762" y="266.559" width="5.43997" height="5.44" transform="rotate(90 157.762 266.559)" fill="#A1A1A1"/>
<rect x="233.922" y="266.559" width="5.43997" height="5.44" transform="rotate(90 233.922 266.559)" fill="#A1A1A1"/>
<rect x="43.5195" y="266.559" width="5.43997" height="5.44" transform="rotate(90 43.5195 266.559)" fill="#A1A1A1"/>
<rect x="119.684" y="266.559" width="5.43997" height="5.44" transform="rotate(90 119.684 266.559)" fill="#A1A1A1"/>
<rect x="195.844" y="266.559" width="5.43997" height="5.44" transform="rotate(90 195.844 266.559)" fill="#A1A1A1"/>
<rect x="272" y="266.559" width="5.43997" height="5.44" transform="rotate(90 272 266.559)" fill="#A1A1A1"/>
<rect x="5.44141" y="16.3203" width="5.43997" height="5.44" transform="rotate(90 5.44141 16.3203)" fill="#A1A1A1"/>
<rect x="81.6016" y="16.3203" width="5.43997" height="5.44" transform="rotate(90 81.6016 16.3203)" fill="#A1A1A1"/>
<rect x="157.762" y="16.3203" width="5.43997" height="5.44" transform="rotate(90 157.762 16.3203)" fill="#A1A1A1"/>
<rect x="233.922" y="16.3203" width="5.43997" height="5.44" transform="rotate(90 233.922 16.3203)" fill="#A1A1A1"/>
<rect x="43.5195" y="16.3203" width="5.43997" height="5.44" transform="rotate(90 43.5195 16.3203)" fill="#A1A1A1"/>
<rect x="119.684" y="16.3203" width="5.43997" height="5.44" transform="rotate(90 119.684 16.3203)" fill="#A1A1A1"/>
<rect x="195.844" y="16.3203" width="5.43997" height="5.44" transform="rotate(90 195.844 16.3203)" fill="#A1A1A1"/>
<rect x="272" y="16.3203" width="5.43997" height="5.44" transform="rotate(90 272 16.3203)" fill="#A1A1A1"/>
<rect x="5.44141" y="103.359" width="5.43997" height="5.44" transform="rotate(90 5.44141 103.359)" fill="#A1A1A1"/>
<rect x="81.6016" y="103.359" width="5.43997" height="5.44" transform="rotate(90 81.6016 103.359)" fill="#A1A1A1"/>
<rect x="233.922" y="103.359" width="5.43997" height="5.44" transform="rotate(90 233.922 103.359)" fill="#A1A1A1"/>
<rect x="43.5195" y="103.359" width="5.43997" height="5.44" transform="rotate(90 43.5195 103.359)" fill="#A1A1A1"/>
<rect x="195.844" y="103.359" width="5.43997" height="5.44" transform="rotate(90 195.844 103.359)" fill="#A1A1A1"/>
<rect x="272" y="103.359" width="5.43997" height="5.44" transform="rotate(90 272 103.359)" fill="#A1A1A1"/>
<rect x="5.44141" y="190.398" width="5.43997" height="5.44" transform="rotate(90 5.44141 190.398)" fill="#A1A1A1"/>
<rect x="81.6016" y="190.398" width="5.43997" height="5.44" transform="rotate(90 81.6016 190.398)" fill="#A1A1A1"/>
<rect x="157.762" y="190.398" width="5.43997" height="5.44" transform="rotate(90 157.762 190.398)" fill="#A1A1A1"/>
<rect x="233.922" y="190.398" width="5.43997" height="5.44" transform="rotate(90 233.922 190.398)" fill="#A1A1A1"/>
<rect x="43.5195" y="190.398" width="5.43997" height="5.44" transform="rotate(90 43.5195 190.398)" fill="#A1A1A1"/>
<rect x="119.684" y="190.398" width="5.43997" height="5.44" transform="rotate(90 119.684 190.398)" fill="#A1A1A1"/>
<rect x="195.844" y="190.398" width="5.43997" height="5.44" transform="rotate(90 195.844 190.398)" fill="#A1A1A1"/>
<rect x="272" y="190.398" width="5.43997" height="5.44" transform="rotate(90 272 190.398)" fill="#A1A1A1"/>
<rect x="5.44141" y="59.8398" width="5.43997" height="5.44" transform="rotate(90 5.44141 59.8398)" fill="#A1A1A1"/>
<rect x="81.6016" y="59.8398" width="5.43997" height="5.44" transform="rotate(90 81.6016 59.8398)" fill="#A1A1A1"/>
<rect x="157.762" y="59.8398" width="5.43997" height="5.44" transform="rotate(90 157.762 59.8398)" fill="#A1A1A1"/>
<rect x="233.922" y="59.8398" width="5.43997" height="5.44" transform="rotate(90 233.922 59.8398)" fill="#A1A1A1"/>
<rect x="43.5195" y="59.8398" width="5.43997" height="5.44" transform="rotate(90 43.5195 59.8398)" fill="#A1A1A1"/>
<rect x="119.684" y="59.8398" width="5.43997" height="5.44" transform="rotate(90 119.684 59.8398)" fill="#A1A1A1"/>
<rect x="195.844" y="59.8398" width="5.43997" height="5.44" transform="rotate(90 195.844 59.8398)" fill="#A1A1A1"/>
<rect x="272" y="59.8398" width="5.43997" height="5.44" transform="rotate(90 272 59.8398)" fill="#A1A1A1"/>
<rect x="5.44141" y="146.879" width="5.43997" height="5.44" transform="rotate(90 5.44141 146.879)" fill="#A1A1A1"/>
<rect x="81.6016" y="146.879" width="5.43997" height="5.44" transform="rotate(90 81.6016 146.879)" fill="#A1A1A1"/>
<rect x="233.922" y="146.879" width="5.43997" height="5.44" transform="rotate(90 233.922 146.879)" fill="#A1A1A1"/>
<rect x="43.5195" y="146.879" width="5.43997" height="5.44" transform="rotate(90 43.5195 146.879)" fill="#A1A1A1"/>
<rect x="195.844" y="146.879" width="5.43997" height="5.44" transform="rotate(90 195.844 146.879)" fill="#A1A1A1"/>
<rect x="272" y="146.879" width="5.43997" height="5.44" transform="rotate(90 272 146.879)" fill="#A1A1A1"/>
<rect x="5.44141" y="233.918" width="5.43997" height="5.44" transform="rotate(90 5.44141 233.918)" fill="#A1A1A1"/>
<rect x="81.6016" y="233.918" width="5.43997" height="5.44" transform="rotate(90 81.6016 233.918)" fill="#A1A1A1"/>
<rect x="157.762" y="233.918" width="5.43997" height="5.44" transform="rotate(90 157.762 233.918)" fill="#A1A1A1"/>
<rect x="233.922" y="233.918" width="5.43997" height="5.44" transform="rotate(90 233.922 233.918)" fill="#A1A1A1"/>
<rect x="43.5195" y="233.918" width="5.43997" height="5.44" transform="rotate(90 43.5195 233.918)" fill="#A1A1A1"/>
<rect x="119.684" y="233.918" width="5.43997" height="5.44" transform="rotate(90 119.684 233.918)" fill="#A1A1A1"/>
<rect x="195.844" y="233.918" width="5.43997" height="5.44" transform="rotate(90 195.844 233.918)" fill="#A1A1A1"/>
<rect x="272" y="233.918" width="5.43997" height="5.44" transform="rotate(90 272 233.918)" fill="#A1A1A1"/>
<rect x="5.44141" y="255.68" width="5.43997" height="5.44" transform="rotate(90 5.44141 255.68)" fill="#A1A1A1"/>
<rect x="81.6016" y="255.68" width="5.43997" height="5.44" transform="rotate(90 81.6016 255.68)" fill="#A1A1A1"/>
<rect x="157.762" y="255.68" width="5.43997" height="5.44" transform="rotate(90 157.762 255.68)" fill="#A1A1A1"/>
<rect x="233.922" y="255.68" width="5.43997" height="5.44" transform="rotate(90 233.922 255.68)" fill="#A1A1A1"/>
<rect x="43.5195" y="255.68" width="5.43997" height="5.44" transform="rotate(90 43.5195 255.68)" fill="#A1A1A1"/>
<rect x="119.684" y="255.68" width="5.43997" height="5.44" transform="rotate(90 119.684 255.68)" fill="#A1A1A1"/>
<rect x="195.844" y="255.68" width="5.43997" height="5.44" transform="rotate(90 195.844 255.68)" fill="#A1A1A1"/>
<rect x="272" y="255.68" width="5.43997" height="5.44" transform="rotate(90 272 255.68)" fill="#A1A1A1"/>
<rect x="5.44141" y="38.082" width="5.43997" height="5.44" transform="rotate(90 5.44141 38.082)" fill="#A1A1A1"/>
<rect x="81.6016" y="38.082" width="5.43997" height="5.44" transform="rotate(90 81.6016 38.082)" fill="#A1A1A1"/>
<rect x="157.762" y="38.082" width="5.43997" height="5.44" transform="rotate(90 157.762 38.082)" fill="#A1A1A1"/>
<rect x="233.922" y="38.082" width="5.43997" height="5.44" transform="rotate(90 233.922 38.082)" fill="#A1A1A1"/>
<rect x="43.5195" y="38.082" width="5.43997" height="5.44" transform="rotate(90 43.5195 38.082)" fill="#A1A1A1"/>
<rect x="119.684" y="38.082" width="5.43997" height="5.44" transform="rotate(90 119.684 38.082)" fill="#A1A1A1"/>
<rect x="195.844" y="38.082" width="5.43997" height="5.44" transform="rotate(90 195.844 38.082)" fill="#A1A1A1"/>
<rect x="272" y="38.082" width="5.43997" height="5.44" transform="rotate(90 272 38.082)" fill="#A1A1A1"/>
<rect x="5.44141" y="125.117" width="5.43997" height="5.44" transform="rotate(90 5.44141 125.117)" fill="#A1A1A1"/>
<rect x="81.6016" y="125.117" width="5.43997" height="5.44" transform="rotate(90 81.6016 125.117)" fill="#A1A1A1"/>
<rect x="233.922" y="125.117" width="5.43997" height="5.44" transform="rotate(90 233.922 125.117)" fill="#A1A1A1"/>
<rect x="43.5195" y="125.117" width="5.43997" height="5.44" transform="rotate(90 43.5195 125.117)" fill="#A1A1A1"/>
<rect x="195.844" y="125.117" width="5.43997" height="5.44" transform="rotate(90 195.844 125.117)" fill="#A1A1A1"/>
<rect x="272" y="125.117" width="5.43997" height="5.44" transform="rotate(90 272 125.117)" fill="#A1A1A1"/>
<rect x="5.44141" y="212.16" width="5.43997" height="5.44" transform="rotate(90 5.44141 212.16)" fill="#A1A1A1"/>
<rect x="81.6016" y="212.16" width="5.43997" height="5.44" transform="rotate(90 81.6016 212.16)" fill="#A1A1A1"/>
<rect x="157.762" y="212.16" width="5.43997" height="5.44" transform="rotate(90 157.762 212.16)" fill="#A1A1A1"/>
<rect x="233.922" y="212.16" width="5.43997" height="5.44" transform="rotate(90 233.922 212.16)" fill="#A1A1A1"/>
<rect x="43.5195" y="212.16" width="5.43997" height="5.44" transform="rotate(90 43.5195 212.16)" fill="#A1A1A1"/>
<rect x="119.684" y="212.16" width="5.43997" height="5.44" transform="rotate(90 119.684 212.16)" fill="#A1A1A1"/>
<rect x="195.844" y="212.16" width="5.43997" height="5.44" transform="rotate(90 195.844 212.16)" fill="#A1A1A1"/>
<rect x="272" y="212.16" width="5.43997" height="5.44" transform="rotate(90 272 212.16)" fill="#A1A1A1"/>
<rect x="5.44141" y="81.5977" width="5.43997" height="5.44" transform="rotate(90 5.44141 81.5977)" fill="#A1A1A1"/>
<rect x="81.6016" y="81.5977" width="5.43997" height="5.44" transform="rotate(90 81.6016 81.5977)" fill="#A1A1A1"/>
<rect x="157.762" y="81.5977" width="5.43997" height="5.44" transform="rotate(90 157.762 81.5977)" fill="#A1A1A1"/>
<rect x="233.922" y="81.5977" width="5.43997" height="5.44" transform="rotate(90 233.922 81.5977)" fill="#A1A1A1"/>
<rect x="43.5195" y="81.5977" width="5.43997" height="5.44" transform="rotate(90 43.5195 81.5977)" fill="#A1A1A1"/>
<rect x="119.684" y="81.5977" width="5.43997" height="5.44" transform="rotate(90 119.684 81.5977)" fill="#A1A1A1"/>
<rect x="119.684" y="103.359" width="5.43997" height="5.44" transform="rotate(90 119.684 103.359)" fill="#A1A1A1"/>
<rect x="157.762" y="103.359" width="5.43997" height="5.44" transform="rotate(90 157.762 103.359)" fill="#A1A1A1"/>
<rect x="119.684" y="125.117" width="5.43997" height="5.44" transform="rotate(90 119.684 125.117)" fill="#A1A1A1"/>
<rect x="157.762" y="125.117" width="5.43997" height="5.44" transform="rotate(90 157.762 125.117)" fill="#A1A1A1"/>
<rect x="119.684" y="152.316" width="5.43997" height="5.44" transform="rotate(90 119.684 152.316)" fill="#A1A1A1"/>
<rect x="157.762" y="152.316" width="5.43997" height="5.44" transform="rotate(90 157.762 152.316)" fill="#A1A1A1"/>
<rect x="119.684" y="146.879" width="5.43997" height="5.44" transform="rotate(90 119.684 146.879)" fill="#A1A1A1"/>
<rect x="157.762" y="146.879" width="5.43997" height="5.44" transform="rotate(90 157.762 146.879)" fill="#A1A1A1"/>
<rect x="195.844" y="81.5977" width="5.43997" height="5.44" transform="rotate(90 195.844 81.5977)" fill="#A1A1A1"/>
<rect x="272" y="81.5977" width="5.43997" height="5.44" transform="rotate(90 272 81.5977)" fill="#A1A1A1"/>
<rect x="5.44141" y="168.637" width="5.43997" height="5.44" transform="rotate(90 5.44141 168.637)" fill="#A1A1A1"/>
<rect x="81.6016" y="168.637" width="5.43997" height="5.44" transform="rotate(90 81.6016 168.637)" fill="#A1A1A1"/>
<rect x="233.922" y="168.637" width="5.43997" height="5.44" transform="rotate(90 233.922 168.637)" fill="#A1A1A1"/>
<rect x="43.5195" y="168.637" width="5.43997" height="5.44" transform="rotate(90 43.5195 168.637)" fill="#A1A1A1"/>
<rect x="195.844" y="168.637" width="5.43997" height="5.44" transform="rotate(90 195.844 168.637)" fill="#A1A1A1"/>
<rect x="272" y="168.637" width="5.43997" height="5.44" transform="rotate(90 272 168.637)" fill="#A1A1A1"/>
<rect x="5.44141" y="10.8789" width="5.43997" height="5.44" transform="rotate(90 5.44141 10.8789)" fill="#A1A1A1"/>
<rect x="81.6016" y="10.8789" width="5.43997" height="5.44" transform="rotate(90 81.6016 10.8789)" fill="#A1A1A1"/>
<rect x="157.762" y="10.8789" width="5.43997" height="5.44" transform="rotate(90 157.762 10.8789)" fill="#A1A1A1"/>
<rect x="233.922" y="10.8789" width="5.43997" height="5.44" transform="rotate(90 233.922 10.8789)" fill="#A1A1A1"/>
<rect x="43.5195" y="10.8789" width="5.43997" height="5.44" transform="rotate(90 43.5195 10.8789)" fill="#A1A1A1"/>
<rect x="119.684" y="10.8789" width="5.43997" height="5.44" transform="rotate(90 119.684 10.8789)" fill="#A1A1A1"/>
<rect x="195.844" y="10.8789" width="5.43997" height="5.44" transform="rotate(90 195.844 10.8789)" fill="#A1A1A1"/>
<rect x="272" y="10.8789" width="5.43997" height="5.44" transform="rotate(90 272 10.8789)" fill="#A1A1A1"/>
<rect x="5.44141" y="97.918" width="5.43997" height="5.44" transform="rotate(90 5.44141 97.918)" fill="#A1A1A1"/>
<rect x="81.6016" y="97.918" width="5.43997" height="5.44" transform="rotate(90 81.6016 97.918)" fill="#A1A1A1"/>
<rect x="157.762" y="97.918" width="5.43997" height="5.44" transform="rotate(90 157.762 97.918)" fill="#A1A1A1"/>
<rect x="233.922" y="97.918" width="5.43997" height="5.44" transform="rotate(90 233.922 97.918)" fill="#A1A1A1"/>
<rect x="43.5195" y="97.918" width="5.43997" height="5.44" transform="rotate(90 43.5195 97.918)" fill="#A1A1A1"/>
<rect x="119.684" y="97.918" width="5.43997" height="5.44" transform="rotate(90 119.684 97.918)" fill="#A1A1A1"/>
<rect x="119.684" y="119.68" width="5.43997" height="5.44" transform="rotate(90 119.684 119.68)" fill="#A1A1A1"/>
<rect x="157.762" y="119.68" width="5.43997" height="5.44" transform="rotate(90 157.762 119.68)" fill="#A1A1A1"/>
<rect x="125.121" y="163.199" width="5.43997" height="5.44" transform="rotate(90 125.121 163.199)" fill="#A1A1A1"/>
<rect x="125.121" y="201.281" width="5.43997" height="5.44" transform="rotate(90 125.121 201.281)" fill="#A1A1A1"/>
<rect x="163.203" y="146.879" width="5.44" height="5.43997" fill="#A1A1A1"/>
<rect x="201.281" y="146.879" width="5.44" height="5.43997" fill="#A1A1A1"/>
<rect x="87.043" y="146.879" width="5.44" height="5.43997" fill="#A1A1A1"/>
<rect x="48.9609" y="146.879" width="5.44" height="5.43997" fill="#A1A1A1"/>
<rect x="125.121" y="48.9609" width="5.43997" height="5.44" transform="rotate(90 125.121 48.9609)" fill="#A1A1A1"/>
<rect x="125.121" y="87.0391" width="5.43997" height="5.44" transform="rotate(90 125.121 87.0391)" fill="#A1A1A1"/>
<rect x="125.121" y="168.637" width="5.43997" height="5.44" transform="rotate(90 125.121 168.637)" fill="#A1A1A1"/>
<rect x="125.121" y="206.719" width="5.43997" height="5.44" transform="rotate(90 125.121 206.719)" fill="#A1A1A1"/>
<rect x="168.641" y="146.879" width="5.44" height="5.43997" fill="#A1A1A1"/>
<rect x="206.719" y="146.879" width="5.44" height="5.43997" fill="#A1A1A1"/>
<rect x="92.4805" y="146.879" width="5.44" height="5.43997" fill="#A1A1A1"/>
<rect x="54.4023" y="146.879" width="5.44" height="5.43997" fill="#A1A1A1"/>
<rect x="125.121" y="54.3984" width="5.43997" height="5.44" transform="rotate(90 125.121 54.3984)" fill="#A1A1A1"/>
<rect x="125.121" y="92.4805" width="5.43997" height="5.44" transform="rotate(90 125.121 92.4805)" fill="#A1A1A1"/>
<rect x="125.121" y="174.078" width="5.43997" height="5.44" transform="rotate(90 125.121 174.078)" fill="#A1A1A1"/>
<rect x="125.121" y="212.16" width="5.43997" height="5.44" transform="rotate(90 125.121 212.16)" fill="#A1A1A1"/>
<rect x="174.082" y="146.879" width="5.44" height="5.43997" fill="#A1A1A1"/>
<rect x="212.16" y="146.879" width="5.44" height="5.43997" fill="#A1A1A1"/>
<rect x="97.9219" y="146.879" width="5.44" height="5.43997" fill="#A1A1A1"/>
<rect x="59.8438" y="146.879" width="5.44" height="5.43997" fill="#A1A1A1"/>
<rect x="125.121" y="59.8398" width="5.43997" height="5.44" transform="rotate(90 125.121 59.8398)" fill="#A1A1A1"/>
<rect x="125.121" y="97.918" width="5.43997" height="5.44" transform="rotate(90 125.121 97.918)" fill="#A1A1A1"/>
<rect x="125.121" y="179.52" width="5.43997" height="5.44" transform="rotate(90 125.121 179.52)" fill="#A1A1A1"/>
<rect x="125.121" y="217.598" width="5.43997" height="5.44" transform="rotate(90 125.121 217.598)" fill="#A1A1A1"/>
<rect x="179.52" y="146.879" width="5.44" height="5.43997" fill="#A1A1A1"/>
<rect x="217.602" y="146.879" width="5.44" height="5.43997" fill="#A1A1A1"/>
<rect x="103.359" y="146.879" width="5.44" height="5.43997" fill="#A1A1A1"/>
<rect x="65.2812" y="146.879" width="5.44" height="5.43997" fill="#A1A1A1"/>
<rect x="125.121" y="65.2812" width="5.43997" height="5.44" transform="rotate(90 125.121 65.2812)" fill="#A1A1A1"/>
<rect x="125.121" y="103.359" width="5.43997" height="5.44" transform="rotate(90 125.121 103.359)" fill="#A1A1A1"/>
<rect x="130.562" y="168.637" width="5.43997" height="5.44" transform="rotate(90 130.562 168.637)" fill="#A1A1A1"/>
<rect x="130.562" y="206.719" width="5.43997" height="5.44" transform="rotate(90 130.562 206.719)" fill="#A1A1A1"/>
<rect x="168.641" y="141.438" width="5.44" height="5.43997" fill="#A1A1A1"/>
<rect x="206.719" y="141.438" width="5.44" height="5.43997" fill="#A1A1A1"/>
<rect x="92.4805" y="141.438" width="5.44" height="5.43997" fill="#A1A1A1"/>
<rect x="54.4023" y="141.438" width="5.44" height="5.43997" fill="#A1A1A1"/>
<rect x="130.562" y="54.3984" width="5.43997" height="5.44" transform="rotate(90 130.562 54.3984)" fill="#A1A1A1"/>
<rect x="130.562" y="92.4805" width="5.43997" height="5.44" transform="rotate(90 130.562 92.4805)" fill="#A1A1A1"/>
<rect x="130.562" y="174.078" width="5.43997" height="5.44" transform="rotate(90 130.562 174.078)" fill="#A1A1A1"/>
<rect x="130.562" y="212.16" width="5.43997" height="5.44" transform="rotate(90 130.562 212.16)" fill="#A1A1A1"/>
<rect x="174.082" y="141.438" width="5.44" height="5.43997" fill="#A1A1A1"/>
<rect x="212.16" y="141.438" width="5.44" height="5.43997" fill="#A1A1A1"/>
<rect x="97.9219" y="141.438" width="5.44" height="5.43997" fill="#A1A1A1"/>
<rect x="59.8438" y="141.438" width="5.44" height="5.43997" fill="#A1A1A1"/>
<rect x="130.562" y="59.8398" width="5.43997" height="5.44" transform="rotate(90 130.562 59.8398)" fill="#A1A1A1"/>
<rect x="130.562" y="97.918" width="5.43997" height="5.44" transform="rotate(90 130.562 97.918)" fill="#A1A1A1"/>
<rect x="152.32" y="163.199" width="5.43997" height="5.44" transform="rotate(90 152.32 163.199)" fill="#A1A1A1"/>
<rect x="152.32" y="201.281" width="5.43997" height="5.44" transform="rotate(90 152.32 201.281)" fill="#A1A1A1"/>
<rect x="163.203" y="119.68" width="5.44" height="5.43997" fill="#A1A1A1"/>
<rect x="201.281" y="119.68" width="5.44" height="5.43997" fill="#A1A1A1"/>
<rect x="87.043" y="119.68" width="5.44" height="5.43997" fill="#A1A1A1"/>
<rect x="48.9609" y="119.68" width="5.44" height="5.43997" fill="#A1A1A1"/>
<rect x="152.32" y="48.9609" width="5.43997" height="5.44" transform="rotate(90 152.32 48.9609)" fill="#A1A1A1"/>
<rect x="152.32" y="87.0391" width="5.43997" height="5.44" transform="rotate(90 152.32 87.0391)" fill="#A1A1A1"/>
<rect x="152.32" y="168.637" width="5.43997" height="5.44" transform="rotate(90 152.32 168.637)" fill="#A1A1A1"/>
<rect x="152.32" y="206.719" width="5.43997" height="5.44" transform="rotate(90 152.32 206.719)" fill="#A1A1A1"/>
<rect x="168.641" y="119.68" width="5.44" height="5.43997" fill="#A1A1A1"/>
<rect x="206.719" y="119.68" width="5.44" height="5.43997" fill="#A1A1A1"/>
<rect x="92.4805" y="119.68" width="5.44" height="5.43997" fill="#A1A1A1"/>
<rect x="54.4023" y="119.68" width="5.44" height="5.43997" fill="#A1A1A1"/>
<rect x="152.32" y="54.3984" width="5.43997" height="5.44" transform="rotate(90 152.32 54.3984)" fill="#A1A1A1"/>
<rect x="152.32" y="92.4805" width="5.43997" height="5.44" transform="rotate(90 152.32 92.4805)" fill="#A1A1A1"/>
<rect x="152.32" y="174.078" width="5.43997" height="5.44" transform="rotate(90 152.32 174.078)" fill="#A1A1A1"/>
<rect x="152.32" y="212.16" width="5.43997" height="5.44" transform="rotate(90 152.32 212.16)" fill="#A1A1A1"/>
<rect x="174.082" y="119.68" width="5.44" height="5.43997" fill="#A1A1A1"/>
<rect x="212.16" y="119.68" width="5.44" height="5.43997" fill="#A1A1A1"/>
<rect x="97.9219" y="119.68" width="5.44" height="5.43997" fill="#A1A1A1"/>
<rect x="59.8438" y="119.68" width="5.44" height="5.43997" fill="#A1A1A1"/>
<rect x="152.32" y="59.8398" width="5.43997" height="5.44" transform="rotate(90 152.32 59.8398)" fill="#A1A1A1"/>
<rect x="152.32" y="97.918" width="5.43997" height="5.44" transform="rotate(90 152.32 97.918)" fill="#A1A1A1"/>
<rect x="152.32" y="179.52" width="5.43997" height="5.44" transform="rotate(90 152.32 179.52)" fill="#A1A1A1"/>
<rect x="152.32" y="217.598" width="5.43997" height="5.44" transform="rotate(90 152.32 217.598)" fill="#A1A1A1"/>
<rect x="179.52" y="119.68" width="5.44" height="5.43997" fill="#A1A1A1"/>
<rect x="217.602" y="119.68" width="5.44" height="5.43997" fill="#A1A1A1"/>
<rect x="103.359" y="119.68" width="5.44" height="5.43997" fill="#A1A1A1"/>
<rect x="65.2812" y="119.68" width="5.44" height="5.43997" fill="#A1A1A1"/>
<rect x="152.32" y="65.2812" width="5.43997" height="5.44" transform="rotate(90 152.32 65.2812)" fill="#A1A1A1"/>
<rect x="152.32" y="103.359" width="5.43997" height="5.44" transform="rotate(90 152.32 103.359)" fill="#A1A1A1"/>
<rect x="146.883" y="174.078" width="5.43997" height="5.44" transform="rotate(90 146.883 174.078)" fill="#A1A1A1"/>
<rect x="146.883" y="212.16" width="5.43997" height="5.44" transform="rotate(90 146.883 212.16)" fill="#A1A1A1"/>
<rect x="174.082" y="125.117" width="5.44" height="5.43997" fill="#A1A1A1"/>
<rect x="212.16" y="125.117" width="5.44" height="5.43997" fill="#A1A1A1"/>
<rect x="97.9219" y="125.117" width="5.44" height="5.43997" fill="#A1A1A1"/>
<rect x="59.8438" y="125.117" width="5.44" height="5.43997" fill="#A1A1A1"/>
<rect x="146.883" y="59.8398" width="5.43997" height="5.44" transform="rotate(90 146.883 59.8398)" fill="#A1A1A1"/>
<rect x="146.883" y="97.918" width="5.43997" height="5.44" transform="rotate(90 146.883 97.918)" fill="#A1A1A1"/>
<rect x="146.883" y="168.637" width="5.43997" height="5.44" transform="rotate(90 146.883 168.637)" fill="#A1A1A1"/>
<rect x="146.883" y="206.719" width="5.43997" height="5.44" transform="rotate(90 146.883 206.719)" fill="#A1A1A1"/>
<rect x="168.641" y="125.117" width="5.44" height="5.43997" fill="#A1A1A1"/>
<rect x="206.719" y="125.117" width="5.44" height="5.43997" fill="#A1A1A1"/>
<rect x="92.4805" y="125.117" width="5.44" height="5.43997" fill="#A1A1A1"/>
<rect x="54.4023" y="125.117" width="5.44" height="5.43997" fill="#A1A1A1"/>
<rect x="146.883" y="54.3984" width="5.43997" height="5.44" transform="rotate(90 146.883 54.3984)" fill="#A1A1A1"/>
<rect x="146.883" y="92.4805" width="5.43997" height="5.44" transform="rotate(90 146.883 92.4805)" fill="#A1A1A1"/>
<rect x="119.684" y="141.438" width="5.43997" height="5.44" transform="rotate(90 119.684 141.438)" fill="#A1A1A1"/>
<rect x="157.762" y="141.438" width="5.43997" height="5.44" transform="rotate(90 157.762 141.438)" fill="#A1A1A1"/>
<rect x="119.684" y="168.637" width="5.43997" height="5.44" transform="rotate(90 119.684 168.637)" fill="#A1A1A1"/>
<rect x="157.762" y="168.637" width="5.43997" height="5.44" transform="rotate(90 157.762 168.637)" fill="#A1A1A1"/>
<rect x="195.844" y="97.918" width="5.43997" height="5.44" transform="rotate(90 195.844 97.918)" fill="#A1A1A1"/>
<rect x="272" y="97.918" width="5.43997" height="5.44" transform="rotate(90 272 97.918)" fill="#A1A1A1"/>
<rect x="5.44141" y="184.961" width="5.43997" height="5.44" transform="rotate(90 5.44141 184.961)" fill="#A1A1A1"/>
<rect x="81.6016" y="184.961" width="5.43997" height="5.44" transform="rotate(90 81.6016 184.961)" fill="#A1A1A1"/>
<rect x="157.762" y="184.961" width="5.43997" height="5.44" transform="rotate(90 157.762 184.961)" fill="#A1A1A1"/>
<rect x="233.922" y="184.961" width="5.43997" height="5.44" transform="rotate(90 233.922 184.961)" fill="#A1A1A1"/>
<rect x="43.5195" y="184.961" width="5.43997" height="5.44" transform="rotate(90 43.5195 184.961)" fill="#A1A1A1"/>
<rect x="119.684" y="184.961" width="5.43997" height="5.44" transform="rotate(90 119.684 184.961)" fill="#A1A1A1"/>
<rect x="195.844" y="184.961" width="5.43997" height="5.44" transform="rotate(90 195.844 184.961)" fill="#A1A1A1"/>
<rect x="272" y="184.961" width="5.43997" height="5.44" transform="rotate(90 272 184.961)" fill="#A1A1A1"/>
<rect x="5.44141" y="54.3984" width="5.43997" height="5.44" transform="rotate(90 5.44141 54.3984)" fill="#A1A1A1"/>
<rect x="81.6016" y="54.3984" width="5.43997" height="5.44" transform="rotate(90 81.6016 54.3984)" fill="#A1A1A1"/>
<rect x="157.762" y="54.3984" width="5.43997" height="5.44" transform="rotate(90 157.762 54.3984)" fill="#A1A1A1"/>
<rect x="233.922" y="54.3984" width="5.43997" height="5.44" transform="rotate(90 233.922 54.3984)" fill="#A1A1A1"/>
<rect x="43.5195" y="54.3984" width="5.43997" height="5.44" transform="rotate(90 43.5195 54.3984)" fill="#A1A1A1"/>
<rect x="119.684" y="54.3984" width="5.43997" height="5.44" transform="rotate(90 119.684 54.3984)" fill="#A1A1A1"/>
<rect x="195.844" y="54.3984" width="5.43997" height="5.44" transform="rotate(90 195.844 54.3984)" fill="#A1A1A1"/>
<rect x="272" y="54.3984" width="5.43997" height="5.44" transform="rotate(90 272 54.3984)" fill="#A1A1A1"/>
<rect x="5.44141" y="141.438" width="5.43997" height="5.44" transform="rotate(90 5.44141 141.438)" fill="#A1A1A1"/>
<rect x="81.6016" y="141.438" width="5.43997" height="5.44" transform="rotate(90 81.6016 141.438)" fill="#A1A1A1"/>
<rect x="233.922" y="141.438" width="5.43997" height="5.44" transform="rotate(90 233.922 141.438)" fill="#A1A1A1"/>
<rect x="43.5195" y="141.438" width="5.43997" height="5.44" transform="rotate(90 43.5195 141.438)" fill="#A1A1A1"/>
<rect x="195.844" y="141.438" width="5.43997" height="5.44" transform="rotate(90 195.844 141.438)" fill="#A1A1A1"/>
<rect x="272" y="141.438" width="5.43997" height="5.44" transform="rotate(90 272 141.438)" fill="#A1A1A1"/>
<rect x="5.44141" y="228.48" width="5.43997" height="5.44" transform="rotate(90 5.44141 228.48)" fill="#A1A1A1"/>
<rect x="81.6016" y="228.48" width="5.43997" height="5.44" transform="rotate(90 81.6016 228.48)" fill="#A1A1A1"/>
<rect x="157.762" y="228.48" width="5.43997" height="5.44" transform="rotate(90 157.762 228.48)" fill="#A1A1A1"/>
<rect x="233.922" y="228.48" width="5.43997" height="5.44" transform="rotate(90 233.922 228.48)" fill="#A1A1A1"/>
<rect x="43.5195" y="228.48" width="5.43997" height="5.44" transform="rotate(90 43.5195 228.48)" fill="#A1A1A1"/>
<rect x="119.684" y="228.48" width="5.43997" height="5.44" transform="rotate(90 119.684 228.48)" fill="#A1A1A1"/>
<rect x="195.844" y="228.48" width="5.43997" height="5.44" transform="rotate(90 195.844 228.48)" fill="#A1A1A1"/>
<rect x="272" y="228.48" width="5.43997" height="5.44" transform="rotate(90 272 228.48)" fill="#A1A1A1"/>
<rect x="5.44141" y="32.6367" width="5.43997" height="5.44" transform="rotate(90 5.44141 32.6367)" fill="#A1A1A1"/>
<rect x="81.6016" y="32.6367" width="5.43997" height="5.44" transform="rotate(90 81.6016 32.6367)" fill="#A1A1A1"/>
<rect x="157.762" y="32.6367" width="5.43997" height="5.44" transform="rotate(90 157.762 32.6367)" fill="#A1A1A1"/>
<rect x="233.922" y="32.6367" width="5.43997" height="5.44" transform="rotate(90 233.922 32.6367)" fill="#A1A1A1"/>
<rect x="43.5195" y="32.6367" width="5.43997" height="5.44" transform="rotate(90 43.5195 32.6367)" fill="#A1A1A1"/>
<rect x="119.684" y="32.6367" width="5.43997" height="5.44" transform="rotate(90 119.684 32.6367)" fill="#A1A1A1"/>
<rect x="195.844" y="32.6367" width="5.43997" height="5.44" transform="rotate(90 195.844 32.6367)" fill="#A1A1A1"/>
<rect x="272" y="32.6367" width="5.43997" height="5.44" transform="rotate(90 272 32.6367)" fill="#A1A1A1"/>
<rect x="5.44141" y="119.68" width="5.43997" height="5.44" transform="rotate(90 5.44141 119.68)" fill="#A1A1A1"/>
<rect x="81.6016" y="119.68" width="5.43997" height="5.44" transform="rotate(90 81.6016 119.68)" fill="#A1A1A1"/>
<rect x="233.922" y="119.68" width="5.43997" height="5.44" transform="rotate(90 233.922 119.68)" fill="#A1A1A1"/>
<rect x="43.5195" y="119.68" width="5.43997" height="5.44" transform="rotate(90 43.5195 119.68)" fill="#A1A1A1"/>
<rect x="195.844" y="119.68" width="5.43997" height="5.44" transform="rotate(90 195.844 119.68)" fill="#A1A1A1"/>
<rect x="272" y="119.68" width="5.43997" height="5.44" transform="rotate(90 272 119.68)" fill="#A1A1A1"/>
<rect x="5.44141" y="206.719" width="5.43997" height="5.44" transform="rotate(90 5.44141 206.719)" fill="#A1A1A1"/>
<rect x="81.6016" y="206.719" width="5.43997" height="5.44" transform="rotate(90 81.6016 206.719)" fill="#A1A1A1"/>
<rect x="157.762" y="206.719" width="5.43997" height="5.44" transform="rotate(90 157.762 206.719)" fill="#A1A1A1"/>
<rect x="233.922" y="206.719" width="5.43997" height="5.44" transform="rotate(90 233.922 206.719)" fill="#A1A1A1"/>
<rect x="43.5195" y="206.719" width="5.43997" height="5.44" transform="rotate(90 43.5195 206.719)" fill="#A1A1A1"/>
<rect x="119.684" y="206.719" width="5.43997" height="5.44" transform="rotate(90 119.684 206.719)" fill="#A1A1A1"/>
<rect x="195.844" y="206.719" width="5.43997" height="5.44" transform="rotate(90 195.844 206.719)" fill="#A1A1A1"/>
<rect x="272" y="206.719" width="5.43997" height="5.44" transform="rotate(90 272 206.719)" fill="#A1A1A1"/>
<rect x="5.44141" y="76.1602" width="5.43997" height="5.44" transform="rotate(90 5.44141 76.1602)" fill="#A1A1A1"/>
<rect x="81.6016" y="76.1602" width="5.43997" height="5.44" transform="rotate(90 81.6016 76.1602)" fill="#A1A1A1"/>
<rect x="157.762" y="76.1602" width="5.43997" height="5.44" transform="rotate(90 157.762 76.1602)" fill="#A1A1A1"/>
<rect x="233.922" y="76.1602" width="5.43997" height="5.44" transform="rotate(90 233.922 76.1602)" fill="#A1A1A1"/>
<rect x="43.5195" y="76.1602" width="5.43997" height="5.44" transform="rotate(90 43.5195 76.1602)" fill="#A1A1A1"/>
<rect x="119.684" y="76.1602" width="5.43997" height="5.44" transform="rotate(90 119.684 76.1602)" fill="#A1A1A1"/>
<rect x="195.844" y="76.1602" width="5.43997" height="5.44" transform="rotate(90 195.844 76.1602)" fill="#A1A1A1"/>
<rect x="272" y="76.1602" width="5.43997" height="5.44" transform="rotate(90 272 76.1602)" fill="#A1A1A1"/>
<rect x="5.44141" y="163.199" width="5.43997" height="5.44" transform="rotate(90 5.44141 163.199)" fill="#A1A1A1"/>
<rect x="81.6016" y="163.199" width="5.43997" height="5.44" transform="rotate(90 81.6016 163.199)" fill="#A1A1A1"/>
<rect x="233.922" y="163.199" width="5.43997" height="5.44" transform="rotate(90 233.922 163.199)" fill="#A1A1A1"/>
<rect x="43.5195" y="163.199" width="5.43997" height="5.44" transform="rotate(90 43.5195 163.199)" fill="#A1A1A1"/>
<rect x="195.844" y="163.199" width="5.43997" height="5.44" transform="rotate(90 195.844 163.199)" fill="#A1A1A1"/>
<rect x="272" y="163.199" width="5.43997" height="5.44" transform="rotate(90 272 163.199)" fill="#A1A1A1"/>
<rect x="5.44141" y="250.238" width="5.43997" height="5.44" transform="rotate(90 5.44141 250.238)" fill="#A1A1A1"/>
<rect x="81.6016" y="250.238" width="5.43997" height="5.44" transform="rotate(90 81.6016 250.238)" fill="#A1A1A1"/>
<rect x="157.762" y="250.238" width="5.43997" height="5.44" transform="rotate(90 157.762 250.238)" fill="#A1A1A1"/>
<rect x="233.922" y="250.238" width="5.43997" height="5.44" transform="rotate(90 233.922 250.238)" fill="#A1A1A1"/>
<rect x="43.5195" y="250.238" width="5.43997" height="5.44" transform="rotate(90 43.5195 250.238)" fill="#A1A1A1"/>
<rect x="119.684" y="250.238" width="5.43997" height="5.44" transform="rotate(90 119.684 250.238)" fill="#A1A1A1"/>
<rect x="195.844" y="250.238" width="5.43997" height="5.44" transform="rotate(90 195.844 250.238)" fill="#A1A1A1"/>
<rect x="272" y="250.238" width="5.43997" height="5.44" transform="rotate(90 272 250.238)" fill="#A1A1A1"/>
<rect x="5.44141" y="21.7617" width="5.43997" height="5.44" transform="rotate(90 5.44141 21.7617)" fill="#A1A1A1"/>
<rect x="81.6016" y="21.7617" width="5.43997" height="5.44" transform="rotate(90 81.6016 21.7617)" fill="#A1A1A1"/>
<rect x="157.762" y="21.7617" width="5.43997" height="5.44" transform="rotate(90 157.762 21.7617)" fill="#A1A1A1"/>
<rect x="233.922" y="21.7617" width="5.43997" height="5.44" transform="rotate(90 233.922 21.7617)" fill="#A1A1A1"/>
<rect x="43.5195" y="21.7617" width="5.43997" height="5.44" transform="rotate(90 43.5195 21.7617)" fill="#A1A1A1"/>
<rect x="119.684" y="21.7617" width="5.43997" height="5.44" transform="rotate(90 119.684 21.7617)" fill="#A1A1A1"/>
<rect x="195.844" y="21.7617" width="5.43997" height="5.44" transform="rotate(90 195.844 21.7617)" fill="#A1A1A1"/>
<rect x="272" y="21.7617" width="5.43997" height="5.44" transform="rotate(90 272 21.7617)" fill="#A1A1A1"/>
<rect x="5.44141" y="108.801" width="5.43997" height="5.44" transform="rotate(90 5.44141 108.801)" fill="#A1A1A1"/>
<rect x="81.6016" y="108.801" width="5.43997" height="5.44" transform="rotate(90 81.6016 108.801)" fill="#A1A1A1"/>
<rect x="233.922" y="108.801" width="5.43997" height="5.44" transform="rotate(90 233.922 108.801)" fill="#A1A1A1"/>
<rect x="43.5195" y="108.801" width="5.43997" height="5.44" transform="rotate(90 43.5195 108.801)" fill="#A1A1A1"/>
<rect x="195.844" y="108.801" width="5.43997" height="5.44" transform="rotate(90 195.844 108.801)" fill="#A1A1A1"/>
<rect x="272" y="108.801" width="5.43997" height="5.44" transform="rotate(90 272 108.801)" fill="#A1A1A1"/>
<rect x="5.44141" y="195.836" width="5.43997" height="5.44" transform="rotate(90 5.44141 195.836)" fill="#A1A1A1"/>
<rect x="81.6016" y="195.836" width="5.43997" height="5.44" transform="rotate(90 81.6016 195.836)" fill="#A1A1A1"/>
<rect x="157.762" y="195.836" width="5.43997" height="5.44" transform="rotate(90 157.762 195.836)" fill="#A1A1A1"/>
<rect x="233.922" y="195.836" width="5.43997" height="5.44" transform="rotate(90 233.922 195.836)" fill="#A1A1A1"/>
<rect x="43.5195" y="195.836" width="5.43997" height="5.44" transform="rotate(90 43.5195 195.836)" fill="#A1A1A1"/>
<rect x="119.684" y="195.836" width="5.43997" height="5.44" transform="rotate(90 119.684 195.836)" fill="#A1A1A1"/>
<rect x="195.844" y="195.836" width="5.43997" height="5.44" transform="rotate(90 195.844 195.836)" fill="#A1A1A1"/>
<rect x="272" y="195.836" width="5.43997" height="5.44" transform="rotate(90 272 195.836)" fill="#A1A1A1"/>
<rect x="5.44141" y="65.2812" width="5.43997" height="5.44" transform="rotate(90 5.44141 65.2812)" fill="#A1A1A1"/>
<rect x="81.6016" y="65.2812" width="5.43997" height="5.44" transform="rotate(90 81.6016 65.2812)" fill="#A1A1A1"/>
<rect x="157.762" y="65.2812" width="5.43997" height="5.44" transform="rotate(90 157.762 65.2812)" fill="#A1A1A1"/>
<rect x="233.922" y="65.2812" width="5.43997" height="5.44" transform="rotate(90 233.922 65.2812)" fill="#A1A1A1"/>
<rect x="43.5195" y="65.2812" width="5.43997" height="5.44" transform="rotate(90 43.5195 65.2812)" fill="#A1A1A1"/>
<rect x="119.684" y="65.2812" width="5.43997" height="5.44" transform="rotate(90 119.684 65.2812)" fill="#A1A1A1"/>
<rect x="195.844" y="65.2812" width="5.43997" height="5.44" transform="rotate(90 195.844 65.2812)" fill="#A1A1A1"/>
<rect x="272" y="65.2812" width="5.43997" height="5.44" transform="rotate(90 272 65.2812)" fill="#A1A1A1"/>
<rect x="5.44141" y="152.316" width="5.43997" height="5.44" transform="rotate(90 5.44141 152.316)" fill="#A1A1A1"/>
<rect x="81.6016" y="152.316" width="5.43997" height="5.44" transform="rotate(90 81.6016 152.316)" fill="#A1A1A1"/>
<rect x="233.922" y="152.316" width="5.43997" height="5.44" transform="rotate(90 233.922 152.316)" fill="#A1A1A1"/>
<rect x="43.5195" y="152.316" width="5.43997" height="5.44" transform="rotate(90 43.5195 152.316)" fill="#A1A1A1"/>
<rect x="195.844" y="152.316" width="5.43997" height="5.44" transform="rotate(90 195.844 152.316)" fill="#A1A1A1"/>
<rect x="272" y="152.316" width="5.43997" height="5.44" transform="rotate(90 272 152.316)" fill="#A1A1A1"/>
<rect x="5.44141" y="239.359" width="5.43997" height="5.44" transform="rotate(90 5.44141 239.359)" fill="#A1A1A1"/>
<rect x="81.6016" y="239.359" width="5.43997" height="5.44" transform="rotate(90 81.6016 239.359)" fill="#A1A1A1"/>
<rect x="157.762" y="239.359" width="5.43997" height="5.44" transform="rotate(90 157.762 239.359)" fill="#A1A1A1"/>
<rect x="233.922" y="239.359" width="5.43997" height="5.44" transform="rotate(90 233.922 239.359)" fill="#A1A1A1"/>
<rect x="43.5195" y="239.359" width="5.43997" height="5.44" transform="rotate(90 43.5195 239.359)" fill="#A1A1A1"/>
<rect x="119.684" y="239.359" width="5.43997" height="5.44" transform="rotate(90 119.684 239.359)" fill="#A1A1A1"/>
<rect x="195.844" y="239.359" width="5.43997" height="5.44" transform="rotate(90 195.844 239.359)" fill="#A1A1A1"/>
<rect x="272" y="239.359" width="5.43997" height="5.44" transform="rotate(90 272 239.359)" fill="#A1A1A1"/>
<rect x="5.44141" y="261.117" width="5.43997" height="5.44" transform="rotate(90 5.44141 261.117)" fill="#A1A1A1"/>
<rect x="81.6016" y="261.117" width="5.43997" height="5.44" transform="rotate(90 81.6016 261.117)" fill="#A1A1A1"/>
<rect x="157.762" y="261.117" width="5.43997" height="5.44" transform="rotate(90 157.762 261.117)" fill="#A1A1A1"/>
<rect x="233.922" y="261.117" width="5.43997" height="5.44" transform="rotate(90 233.922 261.117)" fill="#A1A1A1"/>
<rect x="43.5195" y="261.117" width="5.43997" height="5.44" transform="rotate(90 43.5195 261.117)" fill="#A1A1A1"/>
<rect x="119.684" y="261.117" width="5.43997" height="5.44" transform="rotate(90 119.684 261.117)" fill="#A1A1A1"/>
<rect x="195.844" y="261.117" width="5.43997" height="5.44" transform="rotate(90 195.844 261.117)" fill="#A1A1A1"/>
<rect x="272" y="261.117" width="5.43997" height="5.44" transform="rotate(90 272 261.117)" fill="#A1A1A1"/>
<rect x="5.44141" y="43.5195" width="5.43997" height="5.44" transform="rotate(90 5.44141 43.5195)" fill="#A1A1A1"/>
<rect x="81.6016" y="43.5195" width="5.43997" height="5.44" transform="rotate(90 81.6016 43.5195)" fill="#A1A1A1"/>
<rect x="157.762" y="43.5195" width="5.43997" height="5.44" transform="rotate(90 157.762 43.5195)" fill="#A1A1A1"/>
<rect x="233.922" y="43.5195" width="5.43997" height="5.44" transform="rotate(90 233.922 43.5195)" fill="#A1A1A1"/>
<rect x="43.5195" y="43.5195" width="5.43997" height="5.44" transform="rotate(90 43.5195 43.5195)" fill="#A1A1A1"/>
<rect x="119.684" y="43.5195" width="5.43997" height="5.44" transform="rotate(90 119.684 43.5195)" fill="#A1A1A1"/>
<rect x="195.844" y="43.5195" width="5.43997" height="5.44" transform="rotate(90 195.844 43.5195)" fill="#A1A1A1"/>
<rect x="272" y="43.5195" width="5.43997" height="5.44" transform="rotate(90 272 43.5195)" fill="#A1A1A1"/>
<rect x="5.44141" y="130.562" width="5.43997" height="5.44" transform="rotate(90 5.44141 130.562)" fill="#A1A1A1"/>
<rect x="81.6016" y="130.562" width="5.43997" height="5.44" transform="rotate(90 81.6016 130.562)" fill="#A1A1A1"/>
<rect x="233.922" y="130.562" width="5.43997" height="5.44" transform="rotate(90 233.922 130.562)" fill="#A1A1A1"/>
<rect x="43.5195" y="130.562" width="5.43997" height="5.44" transform="rotate(90 43.5195 130.562)" fill="#A1A1A1"/>
<rect x="195.844" y="130.562" width="5.43997" height="5.44" transform="rotate(90 195.844 130.562)" fill="#A1A1A1"/>
<rect x="272" y="130.562" width="5.43997" height="5.44" transform="rotate(90 272 130.562)" fill="#A1A1A1"/>
<rect x="5.44141" y="217.598" width="5.43997" height="5.44" transform="rotate(90 5.44141 217.598)" fill="#A1A1A1"/>
<rect x="81.6016" y="217.598" width="5.43997" height="5.44" transform="rotate(90 81.6016 217.598)" fill="#A1A1A1"/>
<rect x="157.762" y="217.598" width="5.43997" height="5.44" transform="rotate(90 157.762 217.598)" fill="#A1A1A1"/>
<rect x="233.922" y="217.598" width="5.43997" height="5.44" transform="rotate(90 233.922 217.598)" fill="#A1A1A1"/>
<rect x="43.5195" y="217.598" width="5.43997" height="5.44" transform="rotate(90 43.5195 217.598)" fill="#A1A1A1"/>
<rect x="119.684" y="217.598" width="5.43997" height="5.44" transform="rotate(90 119.684 217.598)" fill="#A1A1A1"/>
<rect x="195.844" y="217.598" width="5.43997" height="5.44" transform="rotate(90 195.844 217.598)" fill="#A1A1A1"/>
<rect x="272" y="217.598" width="5.43997" height="5.44" transform="rotate(90 272 217.598)" fill="#A1A1A1"/>
<rect x="5.44141" y="87.0391" width="5.43997" height="5.44" transform="rotate(90 5.44141 87.0391)" fill="#A1A1A1"/>
<rect x="81.6016" y="87.0391" width="5.43997" height="5.44" transform="rotate(90 81.6016 87.0391)" fill="#A1A1A1"/>
<rect x="157.762" y="87.0391" width="5.43997" height="5.44" transform="rotate(90 157.762 87.0391)" fill="#A1A1A1"/>
<rect x="233.922" y="87.0391" width="5.43997" height="5.44" transform="rotate(90 233.922 87.0391)" fill="#A1A1A1"/>
<rect x="43.5195" y="87.0391" width="5.43997" height="5.44" transform="rotate(90 43.5195 87.0391)" fill="#A1A1A1"/>
<rect x="119.684" y="87.0391" width="5.43997" height="5.44" transform="rotate(90 119.684 87.0391)" fill="#A1A1A1"/>
<rect x="119.684" y="108.801" width="5.43997" height="5.44" transform="rotate(90 119.684 108.801)" fill="#A1A1A1"/>
<rect x="157.762" y="108.801" width="5.43997" height="5.44" transform="rotate(90 157.762 108.801)" fill="#A1A1A1"/>
<rect x="119.684" y="130.562" width="5.43997" height="5.44" transform="rotate(90 119.684 130.562)" fill="#A1A1A1"/>
<rect x="157.762" y="130.562" width="5.43997" height="5.44" transform="rotate(90 157.762 130.562)" fill="#A1A1A1"/>
<rect x="119.684" y="157.762" width="5.43997" height="5.44" transform="rotate(90 119.684 157.762)" fill="#A1A1A1"/>
<rect x="157.762" y="157.762" width="5.43997" height="5.44" transform="rotate(90 157.762 157.762)" fill="#A1A1A1"/>
<rect x="195.844" y="87.0391" width="5.43997" height="5.44" transform="rotate(90 195.844 87.0391)" fill="#A1A1A1"/>
<rect x="272" y="87.0391" width="5.43997" height="5.44" transform="rotate(90 272 87.0391)" fill="#A1A1A1"/>
<rect x="5.44141" y="174.078" width="5.43997" height="5.44" transform="rotate(90 5.44141 174.078)" fill="#A1A1A1"/>
<rect x="81.6016" y="174.078" width="5.43997" height="5.44" transform="rotate(90 81.6016 174.078)" fill="#A1A1A1"/>
<rect x="157.762" y="174.078" width="5.43997" height="5.44" transform="rotate(90 157.762 174.078)" fill="#A1A1A1"/>
<rect x="233.922" y="174.078" width="5.43997" height="5.44" transform="rotate(90 233.922 174.078)" fill="#A1A1A1"/>
<rect x="43.5195" y="174.078" width="5.43997" height="5.44" transform="rotate(90 43.5195 174.078)" fill="#A1A1A1"/>
<rect x="119.684" y="174.078" width="5.43997" height="5.44" transform="rotate(90 119.684 174.078)" fill="#A1A1A1"/>
<rect x="195.844" y="174.078" width="5.43997" height="5.44" transform="rotate(90 195.844 174.078)" fill="#A1A1A1"/>
<rect x="272" y="174.078" width="5.43997" height="5.44" transform="rotate(90 272 174.078)" fill="#A1A1A1"/>
<rect x="5.44141" y="179.52" width="5.43997" height="5.44" transform="rotate(90 5.44141 179.52)" fill="#A1A1A1"/>
<rect x="81.6016" y="179.52" width="5.43997" height="5.44" transform="rotate(90 81.6016 179.52)" fill="#A1A1A1"/>
<rect x="157.762" y="179.52" width="5.43997" height="5.44" transform="rotate(90 157.762 179.52)" fill="#A1A1A1"/>
<rect x="233.922" y="179.52" width="5.43997" height="5.44" transform="rotate(90 233.922 179.52)" fill="#A1A1A1"/>
<rect x="43.5195" y="179.52" width="5.43997" height="5.44" transform="rotate(90 43.5195 179.52)" fill="#A1A1A1"/>
<rect x="119.684" y="179.52" width="5.43997" height="5.44" transform="rotate(90 119.684 179.52)" fill="#A1A1A1"/>
<rect x="195.844" y="179.52" width="5.43997" height="5.44" transform="rotate(90 195.844 179.52)" fill="#A1A1A1"/>
<rect x="272" y="179.52" width="5.43997" height="5.44" transform="rotate(90 272 179.52)" fill="#A1A1A1"/>
<rect y="266.559" width="5.44" height="5.43997" fill="#A1A1A1"/>
<rect y="190.398" width="5.44" height="5.43997" fill="#A1A1A1"/>
<rect y="114.238" width="5.44" height="5.43997" fill="#A1A1A1"/>
<rect y="38.082" width="5.44" height="5.43997" fill="#A1A1A1"/>
<rect y="228.48" width="5.44" height="5.43997" fill="#A1A1A1"/>
<rect y="152.316" width="5.44" height="5.43997" fill="#A1A1A1"/>
<rect y="76.1602" width="5.44" height="5.43997" fill="#A1A1A1"/>
<rect width="5.44" height="5.43997" fill="#A1A1A1"/>
<rect x="87.043" y="266.559" width="5.44" height="5.43997" fill="#A1A1A1"/>
<rect x="87.043" y="190.398" width="5.44" height="5.43997" fill="#A1A1A1"/>
<rect x="87.043" y="114.238" width="5.44" height="5.43997" fill="#A1A1A1"/>
<rect x="103.359" y="114.238" width="5.44" height="5.43997" fill="#A1A1A1"/>
<rect x="125.121" y="114.238" width="5.44" height="5.43997" fill="#A1A1A1"/>
<rect x="141.441" y="114.238" width="5.44" height="5.43997" fill="#A1A1A1"/>
<rect x="163.203" y="114.238" width="5.44" height="5.43997" fill="#A1A1A1"/>
<rect x="163.203" y="152.316" width="5.44" height="5.43997" fill="#A1A1A1"/>
<rect x="141.441" y="152.316" width="5.44" height="5.43997" fill="#A1A1A1"/>
<rect x="125.121" y="152.316" width="5.44" height="5.43997" fill="#A1A1A1"/>
<rect x="103.359" y="152.316" width="5.44" height="5.43997" fill="#A1A1A1"/>
<rect x="87.043" y="38.082" width="5.44" height="5.43997" fill="#A1A1A1"/>
<rect x="87.043" y="228.48" width="5.44" height="5.43997" fill="#A1A1A1"/>
<rect x="87.043" y="152.316" width="5.44" height="5.43997" fill="#A1A1A1"/>
<rect x="87.043" y="76.1602" width="5.44" height="5.43997" fill="#A1A1A1"/>
<rect x="87.043" width="5.44" height="5.43997" fill="#A1A1A1"/>
<rect x="43.5195" y="266.559" width="5.44" height="5.43997" fill="#A1A1A1"/>
<rect x="43.5195" y="190.398" width="5.44" height="5.43997" fill="#A1A1A1"/>
<rect x="43.5195" y="114.238" width="5.44" height="5.43997" fill="#A1A1A1"/>
<rect x="43.5195" y="38.082" width="5.44" height="5.43997" fill="#A1A1A1"/>
<rect x="43.5195" y="228.48" width="5.44" height="5.43997" fill="#A1A1A1"/>
<rect x="43.5195" y="152.316" width="5.44" height="5.43997" fill="#A1A1A1"/>
<rect x="43.5195" y="76.1602" width="5.44" height="5.43997" fill="#A1A1A1"/>
<rect x="43.5195" width="5.44" height="5.43997" fill="#A1A1A1"/>
<rect x="130.562" y="266.559" width="5.44" height="5.43997" fill="#A1A1A1"/>
<rect x="130.562" y="190.398" width="5.44" height="5.43997" fill="#A1A1A1"/>
<rect x="130.562" y="38.082" width="5.44" height="5.43997" fill="#A1A1A1"/>
<rect x="130.562" y="228.48" width="5.44" height="5.43997" fill="#A1A1A1"/>
<rect x="130.562" y="76.1602" width="5.44" height="5.43997" fill="#A1A1A1"/>
<rect x="130.562" width="5.44" height="5.43997" fill="#A1A1A1"/>
<rect x="217.602" y="266.559" width="5.44" height="5.43997" fill="#A1A1A1"/>
<rect x="217.602" y="190.398" width="5.44" height="5.43997" fill="#A1A1A1"/>
<rect x="217.602" y="114.238" width="5.44" height="5.43997" fill="#A1A1A1"/>
<rect x="217.602" y="38.082" width="5.44" height="5.43997" fill="#A1A1A1"/>
<rect x="217.602" y="228.48" width="5.44" height="5.43997" fill="#A1A1A1"/>
<rect x="217.602" y="152.316" width="5.44" height="5.43997" fill="#A1A1A1"/>
<rect x="217.602" y="76.1602" width="5.44" height="5.43997" fill="#A1A1A1"/>
<rect x="217.602" width="5.44" height="5.43997" fill="#A1A1A1"/>
<rect x="21.7617" y="266.559" width="5.44" height="5.43997" fill="#A1A1A1"/>
<rect x="21.7617" y="190.398" width="5.44" height="5.43997" fill="#A1A1A1"/>
<rect x="21.7617" y="114.238" width="5.44" height="5.43997" fill="#A1A1A1"/>
<rect x="21.7617" y="38.082" width="5.44" height="5.43997" fill="#A1A1A1"/>
<rect x="21.7617" y="228.48" width="5.44" height="5.43997" fill="#A1A1A1"/>
<rect x="21.7617" y="152.316" width="5.44" height="5.43997" fill="#A1A1A1"/>
<rect x="21.7617" y="76.1602" width="5.44" height="5.43997" fill="#A1A1A1"/>
<rect x="21.7617" width="5.44" height="5.43997" fill="#A1A1A1"/>
<rect x="108.801" y="266.559" width="5.44" height="5.43997" fill="#A1A1A1"/>
<rect x="108.801" y="190.398" width="5.44" height="5.43997" fill="#A1A1A1"/>
<rect x="108.801" y="38.082" width="5.44" height="5.43997" fill="#A1A1A1"/>
<rect x="108.801" y="228.48" width="5.44" height="5.43997" fill="#A1A1A1"/>
<rect x="108.801" y="76.1602" width="5.44" height="5.43997" fill="#A1A1A1"/>
<rect x="108.801" width="5.44" height="5.43997" fill="#A1A1A1"/>
<rect x="195.844" y="266.559" width="5.44" height="5.43997" fill="#A1A1A1"/>
<rect x="195.844" y="190.398" width="5.44" height="5.43997" fill="#A1A1A1"/>
<rect x="195.844" y="114.238" width="5.44" height="5.43997" fill="#A1A1A1"/>
<rect x="195.844" y="38.082" width="5.44" height="5.43997" fill="#A1A1A1"/>
<rect x="195.844" y="228.48" width="5.44" height="5.43997" fill="#A1A1A1"/>
<rect x="195.844" y="152.316" width="5.44" height="5.43997" fill="#A1A1A1"/>
<rect x="195.844" y="76.1602" width="5.44" height="5.43997" fill="#A1A1A1"/>
<rect x="195.844" width="5.44" height="5.43997" fill="#A1A1A1"/>
<rect x="65.2812" y="266.559" width="5.44" height="5.43997" fill="#A1A1A1"/>
<rect x="65.2812" y="190.398" width="5.44" height="5.43997" fill="#A1A1A1"/>
<rect x="65.2812" y="114.238" width="5.44" height="5.43997" fill="#A1A1A1"/>
<rect x="65.2812" y="38.082" width="5.44" height="5.43997" fill="#A1A1A1"/>
<rect x="65.2812" y="228.48" width="5.44" height="5.43997" fill="#A1A1A1"/>
<rect x="65.2812" y="152.316" width="5.44" height="5.43997" fill="#A1A1A1"/>
<rect x="65.2812" y="76.1602" width="5.44" height="5.43997" fill="#A1A1A1"/>
<rect x="65.2812" width="5.44" height="5.43997" fill="#A1A1A1"/>
<rect x="152.32" y="266.559" width="5.44" height="5.43997" fill="#A1A1A1"/>
<rect x="152.32" y="190.398" width="5.44" height="5.43997" fill="#A1A1A1"/>
<rect x="152.32" y="38.082" width="5.44" height="5.43997" fill="#A1A1A1"/>
<rect x="152.32" y="228.48" width="5.44" height="5.43997" fill="#A1A1A1"/>
<rect x="152.32" y="76.1602" width="5.44" height="5.43997" fill="#A1A1A1"/>
<rect x="152.32" width="5.44" height="5.43997" fill="#A1A1A1"/>
<rect x="239.359" y="266.559" width="5.44" height="5.43997" fill="#A1A1A1"/>
<rect x="239.359" y="190.398" width="5.44" height="5.43997" fill="#A1A1A1"/>
<rect x="239.359" y="114.238" width="5.44" height="5.43997" fill="#A1A1A1"/>
<rect x="239.359" y="38.082" width="5.44" height="5.43997" fill="#A1A1A1"/>
<rect x="239.359" y="228.48" width="5.44" height="5.43997" fill="#A1A1A1"/>
<rect x="239.359" y="152.316" width="5.44" height="5.43997" fill="#A1A1A1"/>
<rect x="239.359" y="76.1602" width="5.44" height="5.43997" fill="#A1A1A1"/>
<rect x="239.359" width="5.44" height="5.43997" fill="#A1A1A1"/>
<rect x="261.121" y="266.559" width="5.44" height="5.43997" fill="#A1A1A1"/>
<rect x="261.121" y="190.398" width="5.44" height="5.43997" fill="#A1A1A1"/>
<rect x="261.121" y="114.238" width="5.44" height="5.43997" fill="#A1A1A1"/>
<rect x="261.121" y="38.082" width="5.44" height="5.43997" fill="#A1A1A1"/>
<rect x="261.121" y="228.48" width="5.44" height="5.43997" fill="#A1A1A1"/>
<rect x="261.121" y="152.316" width="5.44" height="5.43997" fill="#A1A1A1"/>
<rect x="261.121" y="76.1602" width="5.44" height="5.43997" fill="#A1A1A1"/>
<rect x="261.121" width="5.44" height="5.43997" fill="#A1A1A1"/>
<rect x="10.8828" y="266.559" width="5.44" height="5.43997" fill="#A1A1A1"/>
<rect x="10.8828" y="190.398" width="5.44" height="5.43997" fill="#A1A1A1"/>
<rect x="10.8828" y="114.238" width="5.44" height="5.43997" fill="#A1A1A1"/>
<rect x="10.8828" y="38.082" width="5.44" height="5.43997" fill="#A1A1A1"/>
<rect x="10.8828" y="228.48" width="5.44" height="5.43997" fill="#A1A1A1"/>
<rect x="10.8828" y="152.316" width="5.44" height="5.43997" fill="#A1A1A1"/>
<rect x="10.8828" y="76.1602" width="5.44" height="5.43997" fill="#A1A1A1"/>
<rect x="10.8828" width="5.44" height="5.43997" fill="#A1A1A1"/>
<rect x="97.9219" y="266.559" width="5.44" height="5.43997" fill="#A1A1A1"/>
<rect x="97.9219" y="190.398" width="5.44" height="5.43997" fill="#A1A1A1"/>
<rect x="97.9219" y="38.082" width="5.44" height="5.43997" fill="#A1A1A1"/>
<rect x="97.9219" y="228.48" width="5.44" height="5.43997" fill="#A1A1A1"/>
<rect x="97.9219" y="76.1602" width="5.44" height="5.43997" fill="#A1A1A1"/>
<rect x="97.9219" width="5.44" height="5.43997" fill="#A1A1A1"/>
<rect x="184.961" y="266.559" width="5.44" height="5.43997" fill="#A1A1A1"/>
<rect x="184.961" y="190.398" width="5.44" height="5.43997" fill="#A1A1A1"/>
<rect x="184.961" y="114.238" width="5.44" height="5.43997" fill="#A1A1A1"/>
<rect x="184.961" y="38.082" width="5.44" height="5.43997" fill="#A1A1A1"/>
<rect x="184.961" y="228.48" width="5.44" height="5.43997" fill="#A1A1A1"/>
<rect x="184.961" y="152.316" width="5.44" height="5.43997" fill="#A1A1A1"/>
<rect x="184.961" y="76.1602" width="5.44" height="5.43997" fill="#A1A1A1"/>
<rect x="184.961" width="5.44" height="5.43997" fill="#A1A1A1"/>
<rect x="54.4023" y="266.559" width="5.44" height="5.43997" fill="#A1A1A1"/>
<rect x="54.4023" y="190.398" width="5.44" height="5.43997" fill="#A1A1A1"/>
<rect x="54.4023" y="114.238" width="5.44" height="5.43997" fill="#A1A1A1"/>
<rect x="54.4023" y="38.082" width="5.44" height="5.43997" fill="#A1A1A1"/>
<rect x="54.4023" y="228.48" width="5.44" height="5.43997" fill="#A1A1A1"/>
<rect x="54.4023" y="152.316" width="5.44" height="5.43997" fill="#A1A1A1"/>
<rect x="54.4023" y="76.1602" width="5.44" height="5.43997" fill="#A1A1A1"/>
<rect x="54.4023" width="5.44" height="5.43997" fill="#A1A1A1"/>
<rect x="141.441" y="266.559" width="5.44" height="5.43997" fill="#A1A1A1"/>
<rect x="141.441" y="190.398" width="5.44" height="5.43997" fill="#A1A1A1"/>
<rect x="141.441" y="38.082" width="5.44" height="5.43997" fill="#A1A1A1"/>
<rect x="141.441" y="228.48" width="5.44" height="5.43997" fill="#A1A1A1"/>
<rect x="141.441" y="76.1602" width="5.44" height="5.43997" fill="#A1A1A1"/>
<rect x="141.441" width="5.44" height="5.43997" fill="#A1A1A1"/>
<rect x="228.48" y="266.559" width="5.44" height="5.43997" fill="#A1A1A1"/>
<rect x="228.48" y="190.398" width="5.44" height="5.43997" fill="#A1A1A1"/>
<rect x="228.48" y="114.238" width="5.44" height="5.43997" fill="#A1A1A1"/>
<rect x="228.48" y="38.082" width="5.44" height="5.43997" fill="#A1A1A1"/>
<rect x="228.48" y="228.48" width="5.44" height="5.43997" fill="#A1A1A1"/>
<rect x="228.48" y="152.316" width="5.44" height="5.43997" fill="#A1A1A1"/>
<rect x="228.48" y="76.1602" width="5.44" height="5.43997" fill="#A1A1A1"/>
<rect x="228.48" width="5.44" height="5.43997" fill="#A1A1A1"/>
<rect x="250.242" y="266.559" width="5.44" height="5.43997" fill="#A1A1A1"/>
<rect x="250.242" y="190.398" width="5.44" height="5.43997" fill="#A1A1A1"/>
<rect x="250.242" y="114.238" width="5.44" height="5.43997" fill="#A1A1A1"/>
<rect x="250.242" y="38.082" width="5.44" height="5.43997" fill="#A1A1A1"/>
<rect x="250.242" y="228.48" width="5.44" height="5.43997" fill="#A1A1A1"/>
<rect x="250.242" y="152.316" width="5.44" height="5.43997" fill="#A1A1A1"/>
<rect x="250.242" y="76.1602" width="5.44" height="5.43997" fill="#A1A1A1"/>
<rect x="250.242" width="5.44" height="5.43997" fill="#A1A1A1"/>
<rect x="32.6406" y="266.559" width="5.44" height="5.43997" fill="#A1A1A1"/>
<rect x="32.6406" y="190.398" width="5.44" height="5.43997" fill="#A1A1A1"/>
<rect x="32.6406" y="114.238" width="5.44" height="5.43997" fill="#A1A1A1"/>
<rect x="32.6406" y="38.082" width="5.44" height="5.43997" fill="#A1A1A1"/>
<rect x="32.6406" y="228.48" width="5.44" height="5.43997" fill="#A1A1A1"/>
<rect x="32.6406" y="152.316" width="5.44" height="5.43997" fill="#A1A1A1"/>
<rect x="32.6406" y="76.1602" width="5.44" height="5.43997" fill="#A1A1A1"/>
<rect x="32.6406" width="5.44" height="5.43997" fill="#A1A1A1"/>
<rect x="119.684" y="266.559" width="5.44" height="5.43997" fill="#A1A1A1"/>
<rect x="119.684" y="190.398" width="5.44" height="5.43997" fill="#A1A1A1"/>
<rect x="119.684" y="38.082" width="5.44" height="5.43997" fill="#A1A1A1"/>
<rect x="119.684" y="228.48" width="5.44" height="5.43997" fill="#A1A1A1"/>
<rect x="119.684" y="76.1602" width="5.44" height="5.43997" fill="#A1A1A1"/>
<rect x="119.684" width="5.44" height="5.43997" fill="#A1A1A1"/>
<rect x="206.719" y="266.559" width="5.44" height="5.43997" fill="#A1A1A1"/>
<rect x="206.719" y="190.398" width="5.44" height="5.43997" fill="#A1A1A1"/>
<rect x="206.719" y="114.238" width="5.44" height="5.43997" fill="#A1A1A1"/>
<rect x="206.719" y="38.082" width="5.44" height="5.43997" fill="#A1A1A1"/>
<rect x="206.719" y="228.48" width="5.44" height="5.43997" fill="#A1A1A1"/>
<rect x="206.719" y="152.316" width="5.44" height="5.43997" fill="#A1A1A1"/>
<rect x="206.719" y="76.1602" width="5.44" height="5.43997" fill="#A1A1A1"/>
<rect x="206.719" width="5.44" height="5.43997" fill="#A1A1A1"/>
<rect x="76.1602" y="266.559" width="5.44" height="5.43997" fill="#A1A1A1"/>
<rect x="76.1602" y="190.398" width="5.44" height="5.43997" fill="#A1A1A1"/>
<rect x="76.1602" y="114.238" width="5.44" height="5.43997" fill="#A1A1A1"/>
<rect x="76.1602" y="38.082" width="5.44" height="5.43997" fill="#A1A1A1"/>
<rect x="76.1602" y="228.48" width="5.44" height="5.43997" fill="#A1A1A1"/>
<rect x="76.1602" y="152.316" width="5.44" height="5.43997" fill="#A1A1A1"/>
<rect x="76.1602" y="76.1602" width="5.44" height="5.43997" fill="#A1A1A1"/>
<rect x="76.1602" width="5.44" height="5.43997" fill="#A1A1A1"/>
<rect x="163.203" y="266.559" width="5.44" height="5.43997" fill="#A1A1A1"/>
<rect x="163.203" y="190.398" width="5.44" height="5.43997" fill="#A1A1A1"/>
<rect x="163.203" y="38.082" width="5.44" height="5.43997" fill="#A1A1A1"/>
<rect x="163.203" y="228.48" width="5.44" height="5.43997" fill="#A1A1A1"/>
<rect x="163.203" y="76.1602" width="5.44" height="5.43997" fill="#A1A1A1"/>
<rect x="163.199" width="5.44" height="5.43997" fill="#A1A1A1"/>
<rect x="5.44141" y="266.559" width="5.44" height="5.43997" fill="#A1A1A1"/>
<rect x="5.44141" y="190.398" width="5.44" height="5.43997" fill="#A1A1A1"/>
<rect x="5.44141" y="114.238" width="5.44" height="5.43997" fill="#A1A1A1"/>
<rect x="5.44141" y="38.082" width="5.44" height="5.43997" fill="#A1A1A1"/>
<rect x="5.44141" y="228.48" width="5.44" height="5.43997" fill="#A1A1A1"/>
<rect x="5.44141" y="152.316" width="5.44" height="5.43997" fill="#A1A1A1"/>
<rect x="5.44141" y="76.1602" width="5.44" height="5.43997" fill="#A1A1A1"/>
<rect x="5.44141" width="5.44" height="5.43997" fill="#A1A1A1"/>
<rect x="92.4805" y="266.559" width="5.44" height="5.43997" fill="#A1A1A1"/>
<rect x="92.4805" y="190.398" width="5.44" height="5.43997" fill="#A1A1A1"/>
<rect x="92.4805" y="114.238" width="5.44" height="5.43997" fill="#A1A1A1"/>
<rect x="108.801" y="114.238" width="5.44" height="5.43997" fill="#A1A1A1"/>
<rect x="130.562" y="114.238" width="5.44" height="5.43997" fill="#A1A1A1"/>
<rect x="146.883" y="114.238" width="5.44" height="5.43997" fill="#A1A1A1"/>
<rect x="168.641" y="114.238" width="5.44" height="5.43997" fill="#A1A1A1"/>
<rect x="168.641" y="152.316" width="5.44" height="5.43997" fill="#A1A1A1"/>
<rect x="146.883" y="152.316" width="5.44" height="5.43997" fill="#A1A1A1"/>
<rect x="130.562" y="152.316" width="5.44" height="5.43997" fill="#A1A1A1"/>
<rect x="108.801" y="152.316" width="5.44" height="5.43997" fill="#A1A1A1"/>
<rect x="92.4805" y="38.082" width="5.44" height="5.43997" fill="#A1A1A1"/>
<rect x="92.4805" y="228.48" width="5.44" height="5.43997" fill="#A1A1A1"/>
<rect x="92.4805" y="152.316" width="5.44" height="5.43997" fill="#A1A1A1"/>
<rect x="92.4805" y="76.1602" width="5.44" height="5.43997" fill="#A1A1A1"/>
<rect x="92.4805" width="5.44" height="5.43997" fill="#A1A1A1"/>
<rect x="179.52" y="266.559" width="5.44" height="5.43997" fill="#A1A1A1"/>
<rect x="179.52" y="190.398" width="5.44" height="5.43997" fill="#A1A1A1"/>
<rect x="179.52" y="114.238" width="5.44" height="5.43997" fill="#A1A1A1"/>
<rect x="179.52" y="38.082" width="5.44" height="5.43997" fill="#A1A1A1"/>
<rect x="179.52" y="228.48" width="5.44" height="5.43997" fill="#A1A1A1"/>
<rect x="179.52" y="152.316" width="5.44" height="5.43997" fill="#A1A1A1"/>
<rect x="179.52" y="76.1602" width="5.44" height="5.43997" fill="#A1A1A1"/>
<rect x="179.52" width="5.44" height="5.43997" fill="#A1A1A1"/>
<rect x="48.9609" y="266.559" width="5.44" height="5.43997" fill="#A1A1A1"/>
<rect x="48.9609" y="190.398" width="5.44" height="5.43997" fill="#A1A1A1"/>
<rect x="48.9609" y="114.238" width="5.44" height="5.43997" fill="#A1A1A1"/>
<rect x="48.9609" y="38.082" width="5.44" height="5.43997" fill="#A1A1A1"/>
<rect x="48.9609" y="228.48" width="5.44" height="5.43997" fill="#A1A1A1"/>
<rect x="48.9609" y="152.316" width="5.44" height="5.43997" fill="#A1A1A1"/>
<rect x="48.9609" y="76.1602" width="5.44" height="5.43997" fill="#A1A1A1"/>
<rect x="48.9609" width="5.44" height="5.43997" fill="#A1A1A1"/>
<rect x="136" y="266.559" width="5.44" height="5.43997" fill="#A1A1A1"/>
<rect x="136" y="190.398" width="5.44" height="5.43997" fill="#A1A1A1"/>
<rect x="136" y="38.082" width="5.44" height="5.43997" fill="#A1A1A1"/>
<rect x="136" y="228.48" width="5.44" height="5.43997" fill="#A1A1A1"/>
<rect x="136" y="76.1602" width="5.44" height="5.43997" fill="#A1A1A1"/>
<rect x="136" width="5.44" height="5.43997" fill="#A1A1A1"/>
<rect x="223.043" y="266.559" width="5.44" height="5.43997" fill="#A1A1A1"/>
<rect x="223.043" y="190.398" width="5.44" height="5.43997" fill="#A1A1A1"/>
<rect x="223.043" y="114.238" width="5.44" height="5.43997" fill="#A1A1A1"/>
<rect x="223.043" y="38.082" width="5.44" height="5.43997" fill="#A1A1A1"/>
<rect x="223.043" y="228.48" width="5.44" height="5.43997" fill="#A1A1A1"/>
<rect x="223.043" y="152.316" width="5.44" height="5.43997" fill="#A1A1A1"/>
<rect x="223.043" y="76.1602" width="5.44" height="5.43997" fill="#A1A1A1"/>
<rect x="223.043" width="5.44" height="5.43997" fill="#A1A1A1"/>
<rect x="27.2031" y="266.559" width="5.44" height="5.43997" fill="#A1A1A1"/>
<rect x="27.2031" y="190.398" width="5.44" height="5.43997" fill="#A1A1A1"/>
<rect x="27.2031" y="114.238" width="5.44" height="5.43997" fill="#A1A1A1"/>
<rect x="27.2031" y="38.082" width="5.44" height="5.43997" fill="#A1A1A1"/>
<rect x="27.2031" y="228.48" width="5.44" height="5.43997" fill="#A1A1A1"/>
<rect x="27.2031" y="152.316" width="5.44" height="5.43997" fill="#A1A1A1"/>
<rect x="27.2031" y="76.1602" width="5.44" height="5.43997" fill="#A1A1A1"/>
<rect x="27.1992" width="5.44" height="5.43997" fill="#A1A1A1"/>
<rect x="114.242" y="266.559" width="5.44" height="5.43997" fill="#A1A1A1"/>
<rect x="114.242" y="190.398" width="5.44" height="5.43997" fill="#A1A1A1"/>
<rect x="114.242" y="38.082" width="5.44" height="5.43997" fill="#A1A1A1"/>
<rect x="114.242" y="228.48" width="5.44" height="5.43997" fill="#A1A1A1"/>
<rect x="114.242" y="76.1602" width="5.44" height="5.43997" fill="#A1A1A1"/>
<rect x="114.242" width="5.44" height="5.43997" fill="#A1A1A1"/>
<rect x="201.281" y="266.559" width="5.44" height="5.43997" fill="#A1A1A1"/>
<rect x="201.281" y="190.398" width="5.44" height="5.43997" fill="#A1A1A1"/>
<rect x="201.281" y="114.238" width="5.44" height="5.43997" fill="#A1A1A1"/>
<rect x="201.281" y="38.082" width="5.44" height="5.43997" fill="#A1A1A1"/>
<rect x="201.281" y="228.48" width="5.44" height="5.43997" fill="#A1A1A1"/>
<rect x="201.281" y="152.316" width="5.44" height="5.43997" fill="#A1A1A1"/>
<rect x="201.281" y="76.1602" width="5.44" height="5.43997" fill="#A1A1A1"/>
<rect x="201.281" width="5.44" height="5.43997" fill="#A1A1A1"/>
<rect x="70.7188" y="266.559" width="5.44" height="5.43997" fill="#A1A1A1"/>
<rect x="70.7188" y="190.398" width="5.44" height="5.43997" fill="#A1A1A1"/>
<rect x="70.7188" y="114.238" width="5.44" height="5.43997" fill="#A1A1A1"/>
<rect x="70.7188" y="38.082" width="5.44" height="5.43997" fill="#A1A1A1"/>
<rect x="70.7188" y="228.48" width="5.44" height="5.43997" fill="#A1A1A1"/>
<rect x="70.7188" y="152.316" width="5.44" height="5.43997" fill="#A1A1A1"/>
<rect x="70.7188" y="76.1602" width="5.44" height="5.43997" fill="#A1A1A1"/>
<rect x="70.7188" width="5.44" height="5.43997" fill="#A1A1A1"/>
<rect x="157.762" y="266.559" width="5.44" height="5.43997" fill="#A1A1A1"/>
<rect x="157.762" y="190.398" width="5.44" height="5.43997" fill="#A1A1A1"/>
<rect x="157.762" y="38.082" width="5.44" height="5.43997" fill="#A1A1A1"/>
<rect x="157.762" y="228.48" width="5.44" height="5.43997" fill="#A1A1A1"/>
<rect x="157.762" y="76.1602" width="5.44" height="5.43997" fill="#A1A1A1"/>
<rect x="157.762" width="5.44" height="5.43997" fill="#A1A1A1"/>
<rect x="244.801" y="266.559" width="5.44" height="5.43997" fill="#A1A1A1"/>
<rect x="244.801" y="190.398" width="5.44" height="5.43997" fill="#A1A1A1"/>
<rect x="244.801" y="114.238" width="5.44" height="5.43997" fill="#A1A1A1"/>
<rect x="244.801" y="38.082" width="5.44" height="5.43997" fill="#A1A1A1"/>
<rect x="244.801" y="228.48" width="5.44" height="5.43997" fill="#A1A1A1"/>
<rect x="244.801" y="152.316" width="5.44" height="5.43997" fill="#A1A1A1"/>
<rect x="244.801" y="76.1602" width="5.44" height="5.43997" fill="#A1A1A1"/>
<rect x="244.801" width="5.44" height="5.43997" fill="#A1A1A1"/>
<rect x="266.562" y="266.559" width="5.44" height="5.43997" fill="#A1A1A1"/>
<rect x="266.562" y="190.398" width="5.44" height="5.43997" fill="#A1A1A1"/>
<rect x="266.562" y="114.238" width="5.44" height="5.43997" fill="#A1A1A1"/>
<rect x="266.562" y="38.082" width="5.44" height="5.43997" fill="#A1A1A1"/>
<rect x="266.562" y="228.48" width="5.44" height="5.43997" fill="#A1A1A1"/>
<rect x="266.562" y="152.316" width="5.44" height="5.43997" fill="#A1A1A1"/>
<rect x="266.562" y="76.1602" width="5.44" height="5.43997" fill="#A1A1A1"/>
<rect x="266.562" width="5.44" height="5.43997" fill="#A1A1A1"/>
<rect x="16.3203" y="266.559" width="5.44" height="5.43997" fill="#A1A1A1"/>
<rect x="16.3203" y="190.398" width="5.44" height="5.43997" fill="#A1A1A1"/>
<rect x="16.3203" y="114.238" width="5.44" height="5.43997" fill="#A1A1A1"/>
<rect x="16.3203" y="38.082" width="5.44" height="5.43997" fill="#A1A1A1"/>
<rect x="16.3203" y="228.48" width="5.44" height="5.43997" fill="#A1A1A1"/>
<rect x="16.3203" y="152.316" width="5.44" height="5.43997" fill="#A1A1A1"/>
<rect x="16.3203" y="76.1602" width="5.44" height="5.43997" fill="#A1A1A1"/>
<rect x="16.3203" width="5.44" height="5.43997" fill="#A1A1A1"/>
<rect x="103.359" y="266.559" width="5.44" height="5.43997" fill="#A1A1A1"/>
<rect x="103.359" y="190.398" width="5.44" height="5.43997" fill="#A1A1A1"/>
<rect x="103.359" y="38.082" width="5.44" height="5.43997" fill="#A1A1A1"/>
<rect x="103.359" y="228.48" width="5.44" height="5.43997" fill="#A1A1A1"/>
<rect x="103.359" y="76.1602" width="5.44" height="5.43997" fill="#A1A1A1"/>
<rect x="103.359" width="5.44" height="5.43997" fill="#A1A1A1"/>
<rect x="190.402" y="266.559" width="5.44" height="5.43997" fill="#A1A1A1"/>
<rect x="190.402" y="190.398" width="5.44" height="5.43997" fill="#A1A1A1"/>
<rect x="190.402" y="114.238" width="5.44" height="5.43997" fill="#A1A1A1"/>
<rect x="190.402" y="38.082" width="5.44" height="5.43997" fill="#A1A1A1"/>
<rect x="190.402" y="228.48" width="5.44" height="5.43997" fill="#A1A1A1"/>
<rect x="190.402" y="152.316" width="5.44" height="5.43997" fill="#A1A1A1"/>
<rect x="190.402" y="76.1602" width="5.44" height="5.43997" fill="#A1A1A1"/>
<rect x="190.402" width="5.44" height="5.43997" fill="#A1A1A1"/>
<rect x="59.8438" y="266.559" width="5.44" height="5.43997" fill="#A1A1A1"/>
<rect x="59.8438" y="190.398" width="5.44" height="5.43997" fill="#A1A1A1"/>
<rect x="59.8438" y="114.238" width="5.44" height="5.43997" fill="#A1A1A1"/>
<rect x="59.8438" y="38.082" width="5.44" height="5.43997" fill="#A1A1A1"/>
<rect x="59.8438" y="228.48" width="5.44" height="5.43997" fill="#A1A1A1"/>
<rect x="59.8438" y="152.316" width="5.44" height="5.43997" fill="#A1A1A1"/>
<rect x="59.8438" y="76.1602" width="5.44" height="5.43997" fill="#A1A1A1"/>
<rect x="59.8438" width="5.44" height="5.43997" fill="#A1A1A1"/>
<rect x="146.883" y="266.559" width="5.44" height="5.43997" fill="#A1A1A1"/>
<rect x="146.883" y="190.398" width="5.44" height="5.43997" fill="#A1A1A1"/>
<rect x="146.883" y="38.082" width="5.44" height="5.43997" fill="#A1A1A1"/>
<rect x="146.883" y="228.48" width="5.44" height="5.43997" fill="#A1A1A1"/>
<rect x="146.883" y="76.1602" width="5.44" height="5.43997" fill="#A1A1A1"/>
<rect x="146.883" width="5.44" height="5.43997" fill="#A1A1A1"/>
<rect x="233.922" y="266.559" width="5.44" height="5.43997" fill="#A1A1A1"/>
<rect x="233.922" y="190.398" width="5.44" height="5.43997" fill="#A1A1A1"/>
<rect x="233.922" y="114.238" width="5.44" height="5.43997" fill="#A1A1A1"/>
<rect x="233.922" y="38.082" width="5.44" height="5.43997" fill="#A1A1A1"/>
<rect x="233.922" y="228.48" width="5.44" height="5.43997" fill="#A1A1A1"/>
<rect x="233.922" y="152.316" width="5.44" height="5.43997" fill="#A1A1A1"/>
<rect x="233.922" y="76.1602" width="5.44" height="5.43997" fill="#A1A1A1"/>
<rect x="233.922" width="5.44" height="5.43997" fill="#A1A1A1"/>
<rect x="255.684" y="266.559" width="5.44" height="5.43997" fill="#A1A1A1"/>
<rect x="255.684" y="190.398" width="5.44" height="5.43997" fill="#A1A1A1"/>
<rect x="255.684" y="114.238" width="5.44" height="5.43997" fill="#A1A1A1"/>
<rect x="255.684" y="38.082" width="5.44" height="5.43997" fill="#A1A1A1"/>
<rect x="255.684" y="228.48" width="5.44" height="5.43997" fill="#A1A1A1"/>
<rect x="255.684" y="152.316" width="5.44" height="5.43997" fill="#A1A1A1"/>
<rect x="255.684" y="76.1602" width="5.44" height="5.43997" fill="#A1A1A1"/>
<rect x="255.684" width="5.44" height="5.43997" fill="#A1A1A1"/>
<rect x="38.082" y="266.559" width="5.44" height="5.43997" fill="#A1A1A1"/>
<rect x="38.082" y="190.398" width="5.44" height="5.43997" fill="#A1A1A1"/>
<rect x="38.082" y="114.238" width="5.44" height="5.43997" fill="#A1A1A1"/>
<rect x="38.082" y="38.082" width="5.44" height="5.43997" fill="#A1A1A1"/>
<rect x="38.082" y="228.48" width="5.44" height="5.43997" fill="#A1A1A1"/>
<rect x="38.082" y="152.316" width="5.44" height="5.43997" fill="#A1A1A1"/>
<rect x="38.082" y="76.1602" width="5.44" height="5.43997" fill="#A1A1A1"/>
<rect x="38.082" width="5.44" height="5.43997" fill="#A1A1A1"/>
<rect x="125.121" y="266.559" width="5.44" height="5.43997" fill="#A1A1A1"/>
<rect x="125.121" y="190.398" width="5.44" height="5.43997" fill="#A1A1A1"/>
<rect x="125.121" y="38.082" width="5.44" height="5.43997" fill="#A1A1A1"/>
<rect x="125.121" y="228.48" width="5.44" height="5.43997" fill="#A1A1A1"/>
<rect x="125.121" y="76.1602" width="5.44" height="5.43997" fill="#A1A1A1"/>
<rect x="125.121" width="5.44" height="5.43997" fill="#A1A1A1"/>
<rect x="212.16" y="266.559" width="5.44" height="5.43997" fill="#A1A1A1"/>
<rect x="212.16" y="190.398" width="5.44" height="5.43997" fill="#A1A1A1"/>
<rect x="212.16" y="114.238" width="5.44" height="5.43997" fill="#A1A1A1"/>
<rect x="212.16" y="38.082" width="5.44" height="5.43997" fill="#A1A1A1"/>
<rect x="212.16" y="228.48" width="5.44" height="5.43997" fill="#A1A1A1"/>
<rect x="212.16" y="152.316" width="5.44" height="5.43997" fill="#A1A1A1"/>
<rect x="212.16" y="76.1602" width="5.44" height="5.43997" fill="#A1A1A1"/>
<rect x="212.16" width="5.44" height="5.43997" fill="#A1A1A1"/>
<rect x="81.6016" y="266.559" width="5.44" height="5.43997" fill="#A1A1A1"/>
<rect x="81.6016" y="190.398" width="5.44" height="5.43997" fill="#A1A1A1"/>
<rect x="81.6016" y="114.238" width="5.44" height="5.43997" fill="#A1A1A1"/>
<rect x="97.9219" y="114.238" width="5.44" height="5.43997" fill="#A1A1A1"/>
<rect x="119.684" y="114.238" width="5.44" height="5.43997" fill="#A1A1A1"/>
<rect x="136" y="114.238" width="5.44" height="5.43997" fill="#A1A1A1"/>
<rect x="157.762" y="114.238" width="5.44" height="5.43997" fill="#A1A1A1"/>
<rect x="157.762" y="152.316" width="5.44" height="5.43997" fill="#A1A1A1"/>
<rect x="136" y="152.316" width="5.44" height="5.43997" fill="#A1A1A1"/>
<rect x="119.684" y="152.316" width="5.44" height="5.43997" fill="#A1A1A1"/>
<rect x="97.9219" y="152.316" width="5.44" height="5.43997" fill="#A1A1A1"/>
<rect x="81.6016" y="38.082" width="5.44" height="5.43997" fill="#A1A1A1"/>
<rect x="81.6016" y="228.48" width="5.44" height="5.43997" fill="#A1A1A1"/>
<rect x="81.6016" y="152.316" width="5.44" height="5.43997" fill="#A1A1A1"/>
<rect x="81.6016" y="76.1602" width="5.44" height="5.43997" fill="#A1A1A1"/>
<rect x="81.6016" width="5.44" height="5.43997" fill="#A1A1A1"/>
<rect x="168.641" y="266.559" width="5.44" height="5.43997" fill="#A1A1A1"/>
<rect x="168.641" y="190.398" width="5.44" height="5.43997" fill="#A1A1A1"/>
<rect x="168.641" y="38.082" width="5.44" height="5.43997" fill="#A1A1A1"/>
<rect x="168.641" y="228.48" width="5.44" height="5.43997" fill="#A1A1A1"/>
<rect x="168.641" y="76.1602" width="5.44" height="5.43997" fill="#A1A1A1"/>
<rect x="168.641" width="5.44" height="5.43997" fill="#A1A1A1"/>
<rect x="174.082" y="266.559" width="5.44" height="5.43997" fill="#A1A1A1"/>
<rect x="174.082" y="190.398" width="5.44" height="5.43997" fill="#A1A1A1"/>
<rect x="174.082" y="114.238" width="5.44" height="5.43997" fill="#A1A1A1"/>
<rect x="174.082" y="38.082" width="5.44" height="5.43997" fill="#A1A1A1"/>
<rect x="174.082" y="228.48" width="5.44" height="5.43997" fill="#A1A1A1"/>
<rect x="174.082" y="152.316" width="5.44" height="5.43997" fill="#A1A1A1"/>
<rect x="174.082" y="76.1602" width="5.44" height="5.43997" fill="#A1A1A1"/>
<rect x="174.082" width="5.44" height="5.43997" fill="#A1A1A1"/>
<rect x="239.359" y="163.199" width="5.44" height="5.43997" fill="#A1A1A1"/>
<rect x="239.359" y="125.117" width="5.44" height="5.43997" fill="#A1A1A1"/>
<rect x="239.359" y="87.0391" width="5.44" height="5.43997" fill="#A1A1A1"/>
<rect x="163.203" y="10.8789" width="5.44" height="5.43997" fill="#A1A1A1"/>
<rect x="125.121" y="10.8789" width="5.44" height="5.43997" fill="#A1A1A1"/>
<rect x="87.043" y="10.8789" width="5.44" height="5.43997" fill="#A1A1A1"/>
<rect x="10.8828" y="87.0391" width="5.44" height="5.43997" fill="#A1A1A1"/>
<rect x="10.8828" y="125.117" width="5.44" height="5.43997" fill="#A1A1A1"/>
<rect x="10.8828" y="163.199" width="5.44" height="5.43997" fill="#A1A1A1"/>
<rect x="87.043" y="239.359" width="5.44" height="5.43997" fill="#A1A1A1"/>
<rect x="125.121" y="239.359" width="5.44" height="5.43997" fill="#A1A1A1"/>
<rect x="163.203" y="239.359" width="5.44" height="5.43997" fill="#A1A1A1"/>
<rect x="239.359" y="184.961" width="5.43997" height="5.44" transform="rotate(-90 239.359 184.961)" fill="#A1A1A1"/>
<rect x="239.359" y="146.879" width="5.43997" height="5.44" transform="rotate(-90 239.359 146.879)" fill="#A1A1A1"/>
<rect x="239.359" y="108.801" width="5.43997" height="5.44" transform="rotate(-90 239.359 108.801)" fill="#A1A1A1"/>
<rect x="163.203" y="32.6367" width="5.43997" height="5.44" transform="rotate(-90 163.203 32.6367)" fill="#A1A1A1"/>
<rect x="125.121" y="32.6367" width="5.43997" height="5.44" transform="rotate(-90 125.121 32.6367)" fill="#A1A1A1"/>
<rect x="87.043" y="32.6367" width="5.43997" height="5.44" transform="rotate(-90 87.043 32.6367)" fill="#A1A1A1"/>
<rect x="10.8828" y="108.801" width="5.43997" height="5.44" transform="rotate(-90 10.8828 108.801)" fill="#A1A1A1"/>
<rect x="10.8828" y="146.879" width="5.43997" height="5.44" transform="rotate(-90 10.8828 146.879)" fill="#A1A1A1"/>
<rect x="10.8828" y="184.961" width="5.43997" height="5.44" transform="rotate(-90 10.8828 184.961)" fill="#A1A1A1"/>
<rect x="87.043" y="261.117" width="5.43997" height="5.44" transform="rotate(-90 87.043 261.117)" fill="#A1A1A1"/>
<rect x="125.121" y="261.117" width="5.43997" height="5.44" transform="rotate(-90 125.121 261.117)" fill="#A1A1A1"/>
<rect x="163.203" y="261.117" width="5.43997" height="5.44" transform="rotate(-90 163.203 261.117)" fill="#A1A1A1"/>
<rect x="244.801" y="168.637" width="5.44" height="5.43997" fill="#A1A1A1"/>
<rect x="244.801" y="130.562" width="5.44" height="5.43997" fill="#A1A1A1"/>
<rect x="244.801" y="92.4805" width="5.44" height="5.43997" fill="#A1A1A1"/>
<rect x="168.641" y="16.3203" width="5.44" height="5.43997" fill="#A1A1A1"/>
<rect x="130.562" y="16.3203" width="5.44" height="5.43997" fill="#A1A1A1"/>
<rect x="92.4805" y="16.3203" width="5.44" height="5.43997" fill="#A1A1A1"/>
<rect x="16.3203" y="92.4805" width="5.44" height="5.43997" fill="#A1A1A1"/>
<rect x="16.3203" y="130.562" width="5.44" height="5.43997" fill="#A1A1A1"/>
<rect x="16.3203" y="168.637" width="5.44" height="5.43997" fill="#A1A1A1"/>
<rect x="92.4805" y="244.797" width="5.44" height="5.43997" fill="#A1A1A1"/>
<rect x="130.562" y="244.797" width="5.44" height="5.43997" fill="#A1A1A1"/>
<rect x="168.641" y="244.797" width="5.44" height="5.43997" fill="#A1A1A1"/>
<rect x="244.801" y="179.52" width="5.43997" height="5.44" transform="rotate(-90 244.801 179.52)" fill="#A1A1A1"/>
<rect x="244.801" y="141.438" width="5.43997" height="5.44" transform="rotate(-90 244.801 141.438)" fill="#A1A1A1"/>
<rect x="244.801" y="103.359" width="5.43997" height="5.44" transform="rotate(-90 244.801 103.359)" fill="#A1A1A1"/>
<rect x="168.641" y="27.1992" width="5.43997" height="5.44" transform="rotate(-90 168.641 27.1992)" fill="#A1A1A1"/>
<rect x="130.562" y="27.1992" width="5.43997" height="5.44" transform="rotate(-90 130.562 27.1992)" fill="#A1A1A1"/>
<rect x="92.4805" y="27.1992" width="5.43997" height="5.44" transform="rotate(-90 92.4805 27.1992)" fill="#A1A1A1"/>
<rect x="16.3203" y="103.359" width="5.43997" height="5.44" transform="rotate(-90 16.3203 103.359)" fill="#A1A1A1"/>
<rect x="16.3203" y="141.438" width="5.43997" height="5.44" transform="rotate(-90 16.3203 141.438)" fill="#A1A1A1"/>
<rect x="16.3203" y="179.52" width="5.43997" height="5.44" transform="rotate(-90 16.3203 179.52)" fill="#A1A1A1"/>
<rect x="92.4805" y="255.68" width="5.43997" height="5.44" transform="rotate(-90 92.4805 255.68)" fill="#A1A1A1"/>
<rect x="130.562" y="255.68" width="5.43997" height="5.44" transform="rotate(-90 130.562 255.68)" fill="#A1A1A1"/>
<rect x="168.641" y="255.68" width="5.43997" height="5.44" transform="rotate(-90 168.641 255.68)" fill="#A1A1A1"/>
<rect x="250.242" y="174.078" width="5.44" height="5.43997" fill="#A1A1A1"/>
<rect x="250.242" y="136" width="5.44" height="5.43997" fill="#A1A1A1"/>
<rect x="250.242" y="97.918" width="5.44" height="5.43997" fill="#A1A1A1"/>
<rect x="174.082" y="21.7617" width="5.44" height="5.43997" fill="#A1A1A1"/>
<rect x="136" y="21.7617" width="5.44" height="5.43997" fill="#A1A1A1"/>
<rect x="97.9219" y="21.7617" width="5.44" height="5.43997" fill="#A1A1A1"/>
<rect x="21.7617" y="97.918" width="5.44" height="5.43997" fill="#A1A1A1"/>
<rect x="21.7617" y="136" width="5.44" height="5.43997" fill="#A1A1A1"/>
<rect x="21.7617" y="174.078" width="5.44" height="5.43997" fill="#A1A1A1"/>
<rect x="97.9219" y="250.238" width="5.44" height="5.43997" fill="#A1A1A1"/>
<rect x="136" y="250.238" width="5.44" height="5.43997" fill="#A1A1A1"/>
<rect x="174.082" y="250.238" width="5.44" height="5.43997" fill="#A1A1A1"/>
<rect x="250.242" y="174.078" width="5.43997" height="5.44" transform="rotate(-90 250.242 174.078)" fill="#A1A1A1"/>
<rect x="250.242" y="136" width="5.43997" height="5.44" transform="rotate(-90 250.242 136)" fill="#A1A1A1"/>
<rect x="250.242" y="97.918" width="5.43997" height="5.44" transform="rotate(-90 250.242 97.918)" fill="#A1A1A1"/>
<rect x="174.082" y="21.7617" width="5.43997" height="5.44" transform="rotate(-90 174.082 21.7617)" fill="#A1A1A1"/>
<rect x="136" y="21.7617" width="5.43997" height="5.44" transform="rotate(-90 136 21.7617)" fill="#A1A1A1"/>
<rect x="97.9219" y="21.7617" width="5.43997" height="5.44" transform="rotate(-90 97.9219 21.7617)" fill="#A1A1A1"/>
<rect x="21.7617" y="97.918" width="5.43997" height="5.44" transform="rotate(-90 21.7617 97.918)" fill="#A1A1A1"/>
<rect x="21.7617" y="136" width="5.43997" height="5.44" transform="rotate(-90 21.7617 136)" fill="#A1A1A1"/>
<rect x="21.7617" y="174.078" width="5.43997" height="5.44" transform="rotate(-90 21.7617 174.078)" fill="#A1A1A1"/>
<rect x="97.9219" y="250.238" width="5.43997" height="5.44" transform="rotate(-90 97.9219 250.238)" fill="#A1A1A1"/>
<rect x="136" y="250.238" width="5.43997" height="5.44" transform="rotate(-90 136 250.238)" fill="#A1A1A1"/>
<rect x="174.082" y="250.238" width="5.43997" height="5.44" transform="rotate(-90 174.082 250.238)" fill="#A1A1A1"/>
<rect x="255.684" y="179.52" width="5.44" height="5.43997" fill="#A1A1A1"/>
<rect x="255.684" y="141.438" width="5.44" height="5.43997" fill="#A1A1A1"/>
<rect x="255.684" y="103.359" width="5.44" height="5.43997" fill="#A1A1A1"/>
<rect x="179.52" y="27.1992" width="5.44" height="5.43997" fill="#A1A1A1"/>
<rect x="141.441" y="27.1992" width="5.44" height="5.43997" fill="#A1A1A1"/>
<rect x="103.359" y="27.1992" width="5.44" height="5.43997" fill="#A1A1A1"/>
<rect x="27.2031" y="103.359" width="5.44" height="5.43997" fill="#A1A1A1"/>
<rect x="27.2031" y="141.438" width="5.44" height="5.43997" fill="#A1A1A1"/>
<rect x="27.2031" y="179.52" width="5.44" height="5.43997" fill="#A1A1A1"/>
<rect x="103.359" y="255.68" width="5.44" height="5.43997" fill="#A1A1A1"/>
<rect x="141.441" y="255.68" width="5.44" height="5.43997" fill="#A1A1A1"/>
<rect x="179.52" y="255.68" width="5.44" height="5.43997" fill="#A1A1A1"/>
<rect x="255.684" y="168.637" width="5.43997" height="5.44" transform="rotate(-90 255.684 168.637)" fill="#A1A1A1"/>
<rect x="255.684" y="130.562" width="5.43997" height="5.44" transform="rotate(-90 255.684 130.562)" fill="#A1A1A1"/>
<rect x="255.684" y="92.4805" width="5.43997" height="5.44" transform="rotate(-90 255.684 92.4805)" fill="#A1A1A1"/>
<rect x="179.52" y="16.3203" width="5.43997" height="5.44" transform="rotate(-90 179.52 16.3203)" fill="#A1A1A1"/>
<rect x="141.441" y="16.3203" width="5.43997" height="5.44" transform="rotate(-90 141.441 16.3203)" fill="#A1A1A1"/>
<rect x="103.359" y="16.3203" width="5.43997" height="5.44" transform="rotate(-90 103.359 16.3203)" fill="#A1A1A1"/>
<rect x="27.2031" y="92.4805" width="5.43997" height="5.44" transform="rotate(-90 27.2031 92.4805)" fill="#A1A1A1"/>
<rect x="27.2031" y="130.562" width="5.43997" height="5.44" transform="rotate(-90 27.2031 130.562)" fill="#A1A1A1"/>
<rect x="27.2031" y="168.637" width="5.43997" height="5.44" transform="rotate(-90 27.2031 168.637)" fill="#A1A1A1"/>
<rect x="103.359" y="244.797" width="5.43997" height="5.44" transform="rotate(-90 103.359 244.797)" fill="#A1A1A1"/>
<rect x="141.441" y="244.797" width="5.43997" height="5.44" transform="rotate(-90 141.441 244.797)" fill="#A1A1A1"/>
<rect x="179.52" y="244.797" width="5.43997" height="5.44" transform="rotate(-90 179.52 244.797)" fill="#A1A1A1"/>
<rect x="125.121" y="125.117" width="5.43997" height="5.44" transform="rotate(90 125.121 125.117)" fill="#A1A1A1"/>
<rect x="130.562" y="119.68" width="5.43997" height="5.44" transform="rotate(90 130.562 119.68)" fill="#A1A1A1"/>
<rect x="146.883" y="119.68" width="5.43997" height="5.44" transform="rotate(90 146.883 119.68)" fill="#A1A1A1"/>
<rect x="141.441" y="125.117" width="5.43997" height="5.44" transform="rotate(90 141.441 125.117)" fill="#A1A1A1"/>
<rect x="136" y="125.117" width="5.43997" height="5.44" transform="rotate(90 136 125.117)" fill="#A1A1A1"/>
<rect x="130.562" y="146.879" width="5.43997" height="5.44" transform="rotate(90 130.562 146.879)" fill="#A1A1A1"/>
<rect x="146.883" y="146.879" width="5.43997" height="5.44" transform="rotate(90 146.883 146.879)" fill="#A1A1A1"/>
<rect x="141.441" y="141.438" width="5.43997" height="5.44" transform="rotate(90 141.441 141.438)" fill="#A1A1A1"/>
<rect x="136" y="141.438" width="5.43997" height="5.44" transform="rotate(90 136 141.438)" fill="#A1A1A1"/>
<rect x="125.121" y="141.438" width="5.43997" height="5.44" transform="rotate(90 125.121 141.438)" fill="#A1A1A1"/>
<rect x="130.562" y="130.562" width="5.43997" height="5.44" transform="rotate(90 130.562 130.562)" fill="#A1A1A1"/>
<rect x="130.562" y="136" width="5.43997" height="5.44" transform="rotate(90 130.562 136)" fill="#A1A1A1"/>
<rect x="152.32" y="125.117" width="5.43997" height="5.44" transform="rotate(90 152.32 125.117)" fill="#A1A1A1"/>
<rect x="152.32" y="141.438" width="5.43997" height="5.44" transform="rotate(90 152.32 141.438)" fill="#A1A1A1"/>
<rect x="146.883" y="136" width="5.43997" height="5.44" transform="rotate(90 146.883 136)" fill="#A1A1A1"/>
<rect x="146.883" y="130.562" width="5.43997" height="5.44" transform="rotate(90 146.883 130.562)" fill="#A1A1A1"/>
<ellipse cx="97.5926" cy="174.593" rx="12.5926" ry="12.5925" fill="white"/>
<ellipse cx="135.593" cy="212.593" rx="12.5926" ry="12.5925" fill="white"/>
<ellipse cx="174.593" cy="174.593" rx="12.5926" ry="12.5925" fill="white"/>
<ellipse cx="135.593" cy="173.593" rx="12.5926" ry="12.5925" fill="#FF6363"/>
</svg>
