<svg width="36" height="36" viewBox="0 0 36 36" fill="none" xmlns="http://www.w3.org/2000/svg">
<path d="M18 3.17647C17.7192 3.17647 17.4499 3.06492 17.2513 2.86635C17.0527 2.66778 16.9412 2.39846 16.9412 2.11765V1.05882C16.9412 0.778006 17.0527 0.50869 17.2513 0.310122C17.4499 0.111555 17.7192 0 18 0C18.2808 0 18.5501 0.111555 18.7487 0.310122C18.9473 0.50869 19.0588 0.778006 19.0588 1.05882V2.11765C19.0588 2.39846 18.9473 2.66778 18.7487 2.86635C18.5501 3.06492 18.2808 3.17647 18 3.17647ZM34.9412 16.9412H33.8824C33.6015 16.9412 33.3322 17.0527 33.1336 17.2513C32.9351 17.4499 32.8235 17.7192 32.8235 18C32.8235 18.2808 32.9351 18.5501 33.1336 18.7487C33.3322 18.9473 33.6015 19.0588 33.8824 19.0588H34.9412C35.222 19.0588 35.4913 18.9473 35.6899 18.7487C35.8884 18.5501 36 18.2808 36 18C36 17.7192 35.8884 17.4499 35.6899 17.2513C35.4913 17.0527 35.222 16.9412 34.9412 16.9412ZM2.11765 16.9412H1.05882C0.778006 16.9412 0.50869 17.0527 0.310122 17.2513C0.111555 17.4499 0 17.7192 0 18C0 18.2808 0.111555 18.5501 0.310122 18.7487C0.50869 18.9473 0.778006 19.0588 1.05882 19.0588H2.11765C2.39846 19.0588 2.66778 18.9473 2.86635 18.7487C3.06492 18.5501 3.17647 18.2808 3.17647 18C3.17647 17.7192 3.06492 17.4499 2.86635 17.2513C2.66778 17.0527 2.39846 16.9412 2.11765 16.9412ZM29.9795 28.4824C29.7798 28.2895 29.5124 28.1828 29.2348 28.1852C28.9571 28.1876 28.6916 28.2989 28.4953 28.4953C28.2989 28.6916 28.1876 28.9571 28.1852 29.2348C28.1828 29.5124 28.2895 29.7798 28.4824 29.9795L29.2299 30.7292C29.4296 30.922 29.697 31.0288 29.9747 31.0264C30.2523 31.0239 30.5178 30.9126 30.7142 30.7163C30.9105 30.52 31.0218 30.2544 31.0242 29.9768C31.0267 29.6992 30.9199 29.4317 30.7271 29.232L29.9795 28.4824ZM6.02047 7.51765C6.11814 7.61878 6.23498 7.69944 6.36416 7.75493C6.49334 7.81042 6.63228 7.83963 6.77287 7.84085C6.91346 7.84208 7.05288 7.81529 7.18301 7.76205C7.31314 7.70881 7.43136 7.63019 7.53077 7.53077C7.63019 7.43136 7.70881 7.31314 7.76205 7.18301C7.81529 7.05288 7.84208 6.91346 7.84085 6.77287C7.83963 6.63228 7.81042 6.49334 7.75493 6.36416C7.69944 6.23498 7.61878 6.11814 7.51765 6.02047L6.77647 5.27082C6.57681 5.07144 6.30612 4.95954 6.02396 4.95974C5.74179 4.95994 5.47126 5.07222 5.27188 5.27188C5.0725 5.47154 4.9606 5.74223 4.9608 6.0244C4.961 6.30656 5.07328 6.57709 5.27294 6.77647L6.02047 7.51765ZM29.2235 5.27082L28.476 6.02047C28.3749 6.11814 28.2942 6.23498 28.2387 6.36416C28.1832 6.49334 28.154 6.63228 28.1528 6.77287C28.1516 6.91346 28.1784 7.05288 28.2316 7.18301C28.2848 7.31314 28.3635 7.43136 28.4629 7.53077C28.5623 7.63019 28.6805 7.70881 28.8106 7.76205C28.9408 7.81529 29.0802 7.84208 29.2208 7.84085C29.3614 7.83963 29.5003 7.81042 29.6295 7.75493C29.7587 7.69944 29.8755 7.61878 29.9732 7.51765L30.7271 6.77647C30.8282 6.6788 30.9089 6.56196 30.9643 6.43278C31.0198 6.3036 31.049 6.16466 31.0503 6.02407C31.0515 5.88348 31.0247 5.74406 30.9715 5.61393C30.9182 5.48381 30.8396 5.36559 30.7402 5.26617C30.6408 5.16675 30.5225 5.08813 30.3924 5.03489C30.2623 4.98166 30.1229 4.95487 29.9823 4.95609C29.8417 4.95731 29.7028 4.98652 29.5736 5.04201C29.4444 5.0975 29.3276 5.17817 29.2299 5.27929L29.2235 5.27082ZM6.02047 28.4824L5.27294 29.2235C5.08007 29.4232 4.97334 29.6907 4.97576 29.9683C4.97817 30.2459 5.08953 30.5115 5.28584 30.7078C5.48215 30.9041 5.74772 31.0155 6.02534 31.0179C6.30296 31.0203 6.57042 30.9136 6.77012 30.7207L7.51765 29.9711C7.61878 29.8734 7.69944 29.7565 7.75493 29.6274C7.81042 29.4982 7.83963 29.3593 7.84085 29.2187C7.84208 29.0781 7.81529 28.9386 7.76205 28.8085C7.70881 28.6784 7.63019 28.5602 7.53077 28.4608C7.43136 28.3613 7.31314 28.2827 7.18301 28.2295C7.05288 28.1762 6.91346 28.1495 6.77287 28.1507C6.63228 28.1519 6.49334 28.1811 6.36416 28.2366C6.23498 28.2921 6.11814 28.3728 6.02047 28.4739V28.4824ZM30.7059 18C30.7087 20.0176 30.2298 22.0067 29.3089 23.8019C28.3881 25.5971 27.052 27.1466 25.4118 28.3214C25.4118 28.0376 25.4118 32.6054 25.4118 32.8235C25.4118 33.666 25.0771 34.4739 24.4814 35.0696C23.8857 35.6653 23.0777 36 22.2353 36H13.7647C12.9223 36 12.1143 35.6653 11.5186 35.0696C10.9229 34.4739 10.5882 33.666 10.5882 32.8235C10.5882 33.1136 10.5882 28.5395 10.5882 28.3214C8.82011 27.0516 7.40789 25.3487 6.487 23.3763C5.56612 21.4038 5.16746 19.2277 5.32926 17.0569C5.49106 14.886 6.20789 12.7932 7.41101 10.979C8.61413 9.16478 10.2632 7.69013 12.2 6.69643C14.1369 5.70273 16.2965 5.22331 18.4719 5.30416C20.6473 5.38501 22.7654 6.0234 24.6231 7.15813C26.4808 8.29285 28.0159 9.88584 29.081 11.7843C30.1462 13.6828 30.7057 15.8231 30.7059 18ZM23.2941 28.5882H12.7059V30.1765H23.2941V28.5882ZM23.2941 32.8235V32.2941H12.7059V32.8235C12.7059 33.1043 12.8174 33.3737 13.016 33.5722C13.2146 33.7708 13.4839 33.8824 13.7647 33.8824H22.2353C22.5161 33.8824 22.7854 33.7708 22.984 33.5722C23.1826 33.3737 23.2941 33.1043 23.2941 32.8235ZM28.5882 18C28.5923 16.1925 28.1335 14.414 27.2557 12.834C26.3779 11.254 25.1102 9.92495 23.5733 8.97354C22.0364 8.02213 20.2816 7.47999 18.4759 7.39875C16.6702 7.31752 14.8738 7.69988 13.2577 8.50944C11.6416 9.319 10.2597 10.5288 9.24351 12.0236C8.22734 13.5184 7.61075 15.2485 7.45247 17.0491C7.29418 18.8497 7.59948 20.6608 8.33929 22.31C9.07909 23.9592 10.2288 25.3915 11.6788 26.4706H24.3212C25.6445 25.49 26.7197 24.213 27.4607 22.7421C28.2017 21.2711 28.5879 19.6471 28.5882 18ZM23.2941 23.2941C23.2941 23.5749 23.1826 23.8443 22.984 24.0428C22.7854 24.2414 22.5161 24.3529 22.2353 24.3529C21.9545 24.3529 21.6852 24.2414 21.4866 24.0428C21.288 23.8443 21.1765 23.5749 21.1765 23.2941C21.1765 22.4517 20.8418 21.6437 20.2461 21.048C19.6504 20.4523 18.8425 20.1176 18 20.1176C17.1575 20.1176 16.3496 20.4523 15.7539 21.048C15.1582 21.6437 14.8235 22.4517 14.8235 23.2941C14.8235 23.5749 14.712 23.8443 14.5134 24.0428C14.3148 24.2414 14.0455 24.3529 13.7647 24.3529C13.4839 24.3529 13.2146 24.2414 13.016 24.0428C12.8174 23.8443 12.7059 23.5749 12.7059 23.2941C12.703 22.4267 12.9166 21.5722 13.3274 20.8082C13.7383 20.0443 14.3333 19.3949 15.0586 18.9191C14.4513 18.3329 14.033 17.5786 13.8574 16.753C13.6818 15.9275 13.7568 15.0683 14.0729 14.2857C14.389 13.503 14.9317 12.8327 15.6315 12.3607C16.3312 11.8887 17.156 11.6365 18 11.6365C18.844 11.6365 19.6688 11.8887 20.3685 12.3607C21.0683 12.8327 21.611 13.503 21.9271 14.2857C22.2432 15.0683 22.3182 15.9275 22.1426 16.753C21.967 17.5786 21.5487 18.3329 20.9414 18.9191C21.6671 19.3945 22.2625 20.0437 22.6733 20.8078C23.0842 21.5719 23.2976 22.4266 23.2941 23.2941ZM15.8824 15.8824C15.8824 16.3012 16.0066 16.7106 16.2392 17.0589C16.4719 17.4071 16.8027 17.6785 17.1896 17.8388C17.5766 17.9991 18.0024 18.041 18.4131 17.9593C18.8239 17.8776 19.2012 17.6759 19.4974 17.3798C19.7936 17.0836 19.9952 16.7063 20.077 16.2955C20.1587 15.8847 20.1167 15.4589 19.9565 15.072C19.7962 14.685 19.5247 14.3543 19.1765 14.1216C18.8283 13.8889 18.4188 13.7647 18 13.7647C17.4384 13.7647 16.8997 13.9878 16.5026 14.385C16.1055 14.7821 15.8824 15.3207 15.8824 15.8824Z" fill="white"/>
</svg>
