<svg width="259" height="108" viewBox="0 0 259 108" fill="none" xmlns="http://www.w3.org/2000/svg">
<path d="M20.2784 74.06L24.5984 81H22.0384L18.8984 75.96L15.9584 81H13.4184L17.7384 74.06L13.3984 67.1H15.9584L19.1184 72.18L22.0784 67.1H24.6184L20.2784 74.06ZM31.6969 68.5V66.42H35.8569V81H33.5569V68.5H31.6969ZM38.9891 73.52C38.9891 71.2133 39.3757 69.4133 40.1491 68.12C40.9357 66.8133 42.2824 66.16 44.1891 66.16C46.0957 66.16 47.4357 66.8133 48.2091 68.12C48.9957 69.4133 49.3891 71.2133 49.3891 73.52C49.3891 75.8533 48.9957 77.68 48.2091 79C47.4357 80.3067 46.0957 80.96 44.1891 80.96C42.2824 80.96 40.9357 80.3067 40.1491 79C39.3757 77.68 38.9891 75.8533 38.9891 73.52ZM47.1491 73.52C47.1491 72.44 47.0757 71.5267 46.9291 70.78C46.7957 70.0333 46.5157 69.4267 46.0891 68.96C45.6624 68.48 45.0291 68.24 44.1891 68.24C43.3491 68.24 42.7157 68.48 42.2891 68.96C41.8624 69.4267 41.5757 70.0333 41.4291 70.78C41.2957 71.5267 41.2291 72.44 41.2291 73.52C41.2291 74.64 41.2957 75.58 41.4291 76.34C41.5624 77.1 41.8424 77.7133 42.2691 78.18C42.7091 78.6467 43.3491 78.88 44.1891 78.88C45.0291 78.88 45.6624 78.6467 46.0891 78.18C46.5291 77.7133 46.8157 77.1 46.9491 76.34C47.0824 75.58 47.1491 74.64 47.1491 73.52Z" fill="white"/>
<path d="M227.185 74.06L231.505 81H228.945L225.805 75.96L222.865 81H220.325L224.645 74.06L220.305 67.1H222.865L226.025 72.18L228.985 67.1H231.525L227.185 74.06ZM238.603 68.5V66.42H242.763V81H240.463V68.5H238.603Z" fill="white"/>
<circle cx="27" cy="26" r="26" fill="white"/>
<circle cx="232" cy="26" r="26" fill="black"/>
<path d="M16.5571 91.27C17.5931 91.27 18.4984 91.4707 19.2731 91.872C20.0571 92.264 20.6591 92.8333 21.0791 93.58C21.5084 94.3173 21.7231 95.1807 21.7231 96.17C21.7231 97.1593 21.5084 98.018 21.0791 98.746C20.6591 99.474 20.0571 100.034 19.2731 100.426C18.4984 100.809 17.5931 101 16.5571 101H13.3791V91.27H16.5571ZM16.5571 99.698C17.6958 99.698 18.5684 99.39 19.1751 98.774C19.7818 98.158 20.0851 97.29 20.0851 96.17C20.0851 95.0407 19.7818 94.1587 19.1751 93.524C18.5684 92.8893 17.6958 92.572 16.5571 92.572H14.9751V99.698H16.5571ZM26.6509 101.126C25.9229 101.126 25.2649 100.963 24.6769 100.636C24.0889 100.3 23.6269 99.8333 23.2909 99.236C22.9549 98.6293 22.7869 97.9293 22.7869 97.136C22.7869 96.352 22.9595 95.6567 23.3049 95.05C23.6502 94.4433 24.1215 93.9767 24.7189 93.65C25.3162 93.3233 25.9835 93.16 26.7209 93.16C27.4582 93.16 28.1255 93.3233 28.7229 93.65C29.3202 93.9767 29.7915 94.4433 30.1369 95.05C30.4822 95.6567 30.6549 96.352 30.6549 97.136C30.6549 97.92 30.4775 98.6153 30.1229 99.222C29.7682 99.8287 29.2829 100.3 28.6669 100.636C28.0602 100.963 27.3882 101.126 26.6509 101.126ZM26.6509 99.74C27.0615 99.74 27.4442 99.642 27.7989 99.446C28.1629 99.25 28.4569 98.956 28.6809 98.564C28.9049 98.172 29.0169 97.696 29.0169 97.136C29.0169 96.576 28.9095 96.1047 28.6949 95.722C28.4802 95.33 28.1955 95.036 27.8409 94.84C27.4862 94.644 27.1035 94.546 26.6929 94.546C26.2822 94.546 25.8995 94.644 25.5449 94.84C25.1995 95.036 24.9242 95.33 24.7189 95.722C24.5135 96.1047 24.4109 96.576 24.4109 97.136C24.4109 97.9667 24.6209 98.6107 25.0409 99.068C25.4702 99.516 26.0069 99.74 26.6509 99.74ZM35.3406 93.16C35.938 93.16 36.4653 93.2813 36.9226 93.524C37.3893 93.7573 37.7533 94.0513 38.0146 94.406V93.286H39.6246V101.126C39.6246 101.835 39.4753 102.465 39.1766 103.016C38.878 103.576 38.444 104.015 37.8746 104.332C37.3146 104.649 36.6426 104.808 35.8586 104.808C34.8133 104.808 33.9453 104.561 33.2546 104.066C32.564 103.581 32.172 102.918 32.0786 102.078H33.6606C33.782 102.479 34.0386 102.801 34.4306 103.044C34.832 103.296 35.308 103.422 35.8586 103.422C36.5026 103.422 37.0206 103.226 37.4126 102.834C37.814 102.442 38.0146 101.873 38.0146 101.126V99.838C37.744 100.202 37.3753 100.51 36.9086 100.762C36.4513 101.005 35.9286 101.126 35.3406 101.126C34.6686 101.126 34.0526 100.958 33.4926 100.622C32.942 100.277 32.5033 99.8007 32.1766 99.194C31.8593 98.578 31.7006 97.8827 31.7006 97.108C31.7006 96.3333 31.8593 95.6473 32.1766 95.05C32.5033 94.4527 32.942 93.9907 33.4926 93.664C34.0526 93.328 34.6686 93.16 35.3406 93.16ZM38.0146 97.136C38.0146 96.604 37.9026 96.142 37.6786 95.75C37.464 95.358 37.1793 95.0593 36.8246 94.854C36.47 94.6487 36.0873 94.546 35.6766 94.546C35.266 94.546 34.8833 94.6487 34.5286 94.854C34.174 95.05 33.8846 95.344 33.6606 95.736C33.446 96.1187 33.3386 96.576 33.3386 97.108C33.3386 97.64 33.446 98.1067 33.6606 98.508C33.8846 98.9093 34.174 99.2173 34.5286 99.432C34.8926 99.6373 35.2753 99.74 35.6766 99.74C36.0873 99.74 36.47 99.6373 36.8246 99.432C37.1793 99.2267 37.464 98.928 37.6786 98.536C37.9026 98.1347 38.0146 97.668 38.0146 97.136Z" fill="white"/>
<path d="M224.633 91.27V101H223.037V96.744H218.459V101H216.863V91.27H218.459V95.442H223.037V91.27H224.633ZM226.203 97.108C226.203 96.3333 226.361 95.6473 226.679 95.05C227.005 94.4527 227.444 93.9907 227.995 93.664C228.555 93.328 229.171 93.16 229.843 93.16C230.449 93.16 230.977 93.2813 231.425 93.524C231.882 93.7573 232.246 94.0513 232.517 94.406V93.286H234.127V101H232.517V99.852C232.246 100.216 231.877 100.519 231.411 100.762C230.944 101.005 230.412 101.126 229.815 101.126C229.152 101.126 228.545 100.958 227.995 100.622C227.444 100.277 227.005 99.8007 226.679 99.194C226.361 98.578 226.203 97.8827 226.203 97.108ZM232.517 97.136C232.517 96.604 232.405 96.142 232.181 95.75C231.966 95.358 231.681 95.0593 231.327 94.854C230.972 94.6487 230.589 94.546 230.179 94.546C229.768 94.546 229.385 94.6487 229.031 94.854C228.676 95.05 228.387 95.344 228.163 95.736C227.948 96.1187 227.841 96.576 227.841 97.108C227.841 97.64 227.948 98.1067 228.163 98.508C228.387 98.9093 228.676 99.2173 229.031 99.432C229.395 99.6373 229.777 99.74 230.179 99.74C230.589 99.74 230.972 99.6373 231.327 99.432C231.681 99.2267 231.966 98.928 232.181 98.536C232.405 98.1347 232.517 97.668 232.517 97.136ZM237.819 94.406C238.052 94.014 238.36 93.7107 238.743 93.496C239.135 93.272 239.597 93.16 240.129 93.16V94.812H239.723C239.098 94.812 238.622 94.9707 238.295 95.288C237.978 95.6053 237.819 96.156 237.819 96.94V101H236.223V93.286H237.819V94.406ZM248.666 96.954C248.666 97.2433 248.647 97.5047 248.61 97.738H242.716C242.763 98.354 242.991 98.8487 243.402 99.222C243.813 99.5953 244.317 99.782 244.914 99.782C245.773 99.782 246.379 99.4227 246.734 98.704H248.456C248.223 99.4133 247.798 99.9967 247.182 100.454C246.575 100.902 245.819 101.126 244.914 101.126C244.177 101.126 243.514 100.963 242.926 100.636C242.347 100.3 241.89 99.8333 241.554 99.236C241.227 98.6293 241.064 97.9293 241.064 97.136C241.064 96.3427 241.223 95.6473 241.54 95.05C241.867 94.4433 242.319 93.9767 242.898 93.65C243.486 93.3233 244.158 93.16 244.914 93.16C245.642 93.16 246.291 93.3187 246.86 93.636C247.429 93.9533 247.873 94.4013 248.19 94.98C248.507 95.5493 248.666 96.2073 248.666 96.954ZM247 96.45C246.991 95.862 246.781 95.3907 246.37 95.036C245.959 94.6813 245.451 94.504 244.844 94.504C244.293 94.504 243.822 94.6813 243.43 95.036C243.038 95.3813 242.805 95.8527 242.73 96.45H247Z" fill="white"/>
</svg>
