<svg width="272" height="272" viewBox="0 0 272 272" fill="none" xmlns="http://www.w3.org/2000/svg">
<rect x="127.319" y="69.4473" width="5.78723" height="5.78723" fill="#A1A1A1"/>
<rect x="144.681" y="202.553" width="5.78723" height="5.78723" transform="rotate(180 144.681 202.553)" fill="#A1A1A1"/>
<rect x="190.979" y="69.4473" width="5.78723" height="5.78723" fill="#A1A1A1"/>
<rect x="63.6592" y="69.4473" width="5.78723" height="5.78723" fill="#A1A1A1"/>
<rect x="81.0215" y="202.553" width="5.78723" height="5.78723" transform="rotate(180 81.0215 202.553)" fill="#A1A1A1"/>
<rect y="69.4473" width="5.78723" height="5.78723" fill="#A1A1A1"/>
<rect x="272" y="202.553" width="5.78723" height="5.78723" transform="rotate(180 272 202.553)" fill="#A1A1A1"/>
<rect x="254.638" y="69.4473" width="5.78723" height="5.78723" fill="#A1A1A1"/>
<rect x="17.3623" y="202.553" width="5.78723" height="5.78723" transform="rotate(180 17.3623 202.553)" fill="#A1A1A1"/>
<rect x="208.341" y="202.553" width="5.78723" height="5.78723" transform="rotate(180 208.341 202.553)" fill="#A1A1A1"/>
<rect x="127.319" y="5.78711" width="5.78723" height="5.78723" fill="#A1A1A1"/>
<rect x="144.681" y="266.213" width="5.78723" height="5.78723" transform="rotate(180 144.681 266.213)" fill="#A1A1A1"/>
<rect x="190.979" y="5.78711" width="5.78723" height="5.78723" fill="#A1A1A1"/>
<rect x="81.0215" y="266.213" width="5.78723" height="5.78723" transform="rotate(180 81.0215 266.213)" fill="#A1A1A1"/>
<rect y="5.78711" width="5.78723" height="5.78723" fill="#A1A1A1"/>
<rect x="272" y="266.213" width="5.78723" height="5.78723" transform="rotate(180 272 266.213)" fill="#A1A1A1"/>
<rect x="254.638" y="5.78711" width="5.78723" height="5.78723" fill="#A1A1A1"/>
<rect x="17.3623" y="266.213" width="5.78723" height="5.78723" transform="rotate(180 17.3623 266.213)" fill="#A1A1A1"/>
<rect x="63.6592" y="5.78711" width="5.78723" height="5.78723" fill="#A1A1A1"/>
<rect x="208.341" y="266.213" width="5.78723" height="5.78723" transform="rotate(180 208.341 266.213)" fill="#A1A1A1"/>
<rect x="127.319" y="133.107" width="5.78723" height="5.78723" fill="#A1A1A1"/>
<rect x="190.979" y="133.107" width="5.78723" height="5.78723" fill="#A1A1A1"/>
<rect y="133.107" width="5.78723" height="5.78723" fill="#A1A1A1"/>
<rect x="254.638" y="133.107" width="5.78723" height="5.78723" fill="#A1A1A1"/>
<rect x="63.6592" y="133.107" width="5.78723" height="5.78723" fill="#A1A1A1"/>
<rect x="138.894" y="75.2344" width="5.78723" height="5.78723" transform="rotate(90 138.894 75.2344)" fill="#A1A1A1"/>
<rect x="133.106" y="196.766" width="5.78723" height="5.78723" transform="rotate(-90 133.106 196.766)" fill="#A1A1A1"/>
<rect x="202.553" y="75.2344" width="5.78723" height="5.78723" transform="rotate(90 202.553 75.2344)" fill="#A1A1A1"/>
<rect x="75.2334" y="75.2344" width="5.78723" height="5.78723" transform="rotate(90 75.2334 75.2344)" fill="#A1A1A1"/>
<rect x="69.4473" y="196.766" width="5.78723" height="5.78723" transform="rotate(-90 69.4473 196.766)" fill="#A1A1A1"/>
<rect x="11.5742" y="75.2344" width="5.78723" height="5.78723" transform="rotate(90 11.5742 75.2344)" fill="#A1A1A1"/>
<rect x="260.426" y="196.766" width="5.78723" height="5.78723" transform="rotate(-90 260.426 196.766)" fill="#A1A1A1"/>
<rect x="266.213" y="75.2344" width="5.78723" height="5.78723" transform="rotate(90 266.213 75.2344)" fill="#A1A1A1"/>
<rect x="5.78711" y="196.766" width="5.78723" height="5.78723" transform="rotate(-90 5.78711 196.766)" fill="#A1A1A1"/>
<rect x="196.766" y="196.766" width="5.78723" height="5.78723" transform="rotate(-90 196.766 196.766)" fill="#A1A1A1"/>
<rect x="138.894" y="11.5742" width="5.78723" height="5.78723" transform="rotate(90 138.894 11.5742)" fill="#A1A1A1"/>
<rect x="133.106" y="260.426" width="5.78723" height="5.78723" transform="rotate(-90 133.106 260.426)" fill="#A1A1A1"/>
<rect x="202.553" y="11.5742" width="5.78723" height="5.78723" transform="rotate(90 202.553 11.5742)" fill="#A1A1A1"/>
<rect x="69.4473" y="260.426" width="5.78723" height="5.78723" transform="rotate(-90 69.4473 260.426)" fill="#A1A1A1"/>
<rect x="11.5742" y="11.5742" width="5.78723" height="5.78723" transform="rotate(90 11.5742 11.5742)" fill="#A1A1A1"/>
<rect x="260.426" y="260.426" width="5.78723" height="5.78723" transform="rotate(-90 260.426 260.426)" fill="#A1A1A1"/>
<rect x="266.213" y="11.5742" width="5.78723" height="5.78723" transform="rotate(90 266.213 11.5742)" fill="#A1A1A1"/>
<rect x="5.78711" y="260.426" width="5.78723" height="5.78723" transform="rotate(-90 5.78711 260.426)" fill="#A1A1A1"/>
<rect x="75.2334" y="11.5742" width="5.78723" height="5.78723" transform="rotate(90 75.2334 11.5742)" fill="#A1A1A1"/>
<rect x="196.766" y="260.426" width="5.78723" height="5.78723" transform="rotate(-90 196.766 260.426)" fill="#A1A1A1"/>
<rect x="138.894" y="138.893" width="5.78723" height="5.78723" transform="rotate(90 138.894 138.893)" fill="#A1A1A1"/>
<rect x="202.553" y="138.893" width="5.78723" height="5.78723" transform="rotate(90 202.553 138.893)" fill="#A1A1A1"/>
<rect x="11.5742" y="138.893" width="5.78723" height="5.78723" transform="rotate(90 11.5742 138.893)" fill="#A1A1A1"/>
<rect x="266.213" y="138.893" width="5.78723" height="5.78723" transform="rotate(90 266.213 138.893)" fill="#A1A1A1"/>
<rect x="75.2334" y="138.893" width="5.78723" height="5.78723" transform="rotate(90 75.2334 138.893)" fill="#A1A1A1"/>
<rect x="133.106" y="75.2344" width="5.78723" height="5.78723" transform="rotate(90 133.106 75.2344)" fill="#A1A1A1"/>
<rect x="138.894" y="196.766" width="5.78723" height="5.78723" transform="rotate(-90 138.894 196.766)" fill="#A1A1A1"/>
<rect x="196.766" y="75.2344" width="5.78723" height="5.78723" transform="rotate(90 196.766 75.2344)" fill="#A1A1A1"/>
<rect x="69.4473" y="75.2344" width="5.78723" height="5.78723" transform="rotate(90 69.4473 75.2344)" fill="#A1A1A1"/>
<rect x="75.2334" y="196.766" width="5.78723" height="5.78723" transform="rotate(-90 75.2334 196.766)" fill="#A1A1A1"/>
<rect x="5.78711" y="75.2344" width="5.78723" height="5.78723" transform="rotate(90 5.78711 75.2344)" fill="#A1A1A1"/>
<rect x="266.213" y="196.766" width="5.78723" height="5.78723" transform="rotate(-90 266.213 196.766)" fill="#A1A1A1"/>
<rect x="260.426" y="75.2344" width="5.78723" height="5.78723" transform="rotate(90 260.426 75.2344)" fill="#A1A1A1"/>
<rect x="11.5742" y="196.766" width="5.78723" height="5.78723" transform="rotate(-90 11.5742 196.766)" fill="#A1A1A1"/>
<rect x="202.553" y="196.766" width="5.78723" height="5.78723" transform="rotate(-90 202.553 196.766)" fill="#A1A1A1"/>
<rect x="133.106" y="11.5742" width="5.78723" height="5.78723" transform="rotate(90 133.106 11.5742)" fill="#A1A1A1"/>
<rect x="138.894" y="260.426" width="5.78723" height="5.78723" transform="rotate(-90 138.894 260.426)" fill="#A1A1A1"/>
<rect x="196.766" y="11.5742" width="5.78723" height="5.78723" transform="rotate(90 196.766 11.5742)" fill="#A1A1A1"/>
<rect x="75.2334" y="260.426" width="5.78723" height="5.78723" transform="rotate(-90 75.2334 260.426)" fill="#A1A1A1"/>
<rect x="5.78711" y="11.5742" width="5.78723" height="5.78723" transform="rotate(90 5.78711 11.5742)" fill="#A1A1A1"/>
<rect x="266.213" y="260.426" width="5.78723" height="5.78723" transform="rotate(-90 266.213 260.426)" fill="#A1A1A1"/>
<rect x="260.426" y="11.5742" width="5.78723" height="5.78723" transform="rotate(90 260.426 11.5742)" fill="#A1A1A1"/>
<rect x="11.5742" y="260.426" width="5.78723" height="5.78723" transform="rotate(-90 11.5742 260.426)" fill="#A1A1A1"/>
<rect x="254.638" y="17.3613" width="5.78723" height="5.78723" transform="rotate(90 254.638 17.3613)" fill="#A1A1A1"/>
<rect x="17.3623" y="254.639" width="5.78723" height="5.78723" transform="rotate(-90 17.3623 254.639)" fill="#A1A1A1"/>
<rect x="127.319" y="17.3613" width="5.78723" height="5.78723" transform="rotate(90 127.319 17.3613)" fill="#A1A1A1"/>
<rect x="144.681" y="254.639" width="5.78723" height="5.78723" transform="rotate(-90 144.681 254.639)" fill="#A1A1A1"/>
<rect x="190.979" y="81.0215" width="5.78723" height="5.78723" transform="rotate(90 190.979 81.0215)" fill="#A1A1A1"/>
<rect x="63.6592" y="81.0215" width="5.78723" height="5.78723" transform="rotate(90 63.6592 81.0215)" fill="#A1A1A1"/>
<rect x="81.0215" y="190.979" width="5.78723" height="5.78723" transform="rotate(-90 81.0215 190.979)" fill="#A1A1A1"/>
<rect x="208.341" y="190.979" width="5.78723" height="5.78723" transform="rotate(-90 208.341 190.979)" fill="#A1A1A1"/>
<rect x="243.063" y="28.9355" width="5.78723" height="5.78723" transform="rotate(90 243.063 28.9355)" fill="#A1A1A1"/>
<rect x="28.9365" y="243.064" width="5.78723" height="5.78723" transform="rotate(-90 28.9365 243.064)" fill="#A1A1A1"/>
<rect x="115.744" y="28.9355" width="5.78723" height="5.78723" transform="rotate(90 115.744 28.9355)" fill="#A1A1A1"/>
<rect x="156.255" y="243.064" width="5.78723" height="5.78723" transform="rotate(-90 156.255 243.064)" fill="#A1A1A1"/>
<rect x="179.404" y="92.5957" width="5.78723" height="5.78723" transform="rotate(90 179.404 92.5957)" fill="#A1A1A1"/>
<rect x="92.5957" y="179.404" width="5.78723" height="5.78723" transform="rotate(-90 92.5957 179.404)" fill="#A1A1A1"/>
<rect x="52.085" y="92.5957" width="5.78723" height="5.78723" transform="rotate(90 52.085 92.5957)" fill="#A1A1A1"/>
<rect x="219.915" y="179.404" width="5.78723" height="5.78723" transform="rotate(-90 219.915 179.404)" fill="#A1A1A1"/>
<rect x="231.489" y="40.5117" width="5.78723" height="5.78723" transform="rotate(90 231.489 40.5117)" fill="#A1A1A1"/>
<rect x="40.5107" y="231.488" width="5.78723" height="5.78723" transform="rotate(-90 40.5107 231.488)" fill="#A1A1A1"/>
<rect x="104.17" y="40.5117" width="5.78723" height="5.78723" transform="rotate(90 104.17 40.5117)" fill="#A1A1A1"/>
<rect x="167.83" y="231.488" width="5.78723" height="5.78723" transform="rotate(-90 167.83 231.488)" fill="#A1A1A1"/>
<rect x="167.83" y="104.17" width="5.78723" height="5.78723" transform="rotate(90 167.83 104.17)" fill="#A1A1A1"/>
<rect x="104.17" y="167.83" width="5.78723" height="5.78723" transform="rotate(-90 104.17 167.83)" fill="#A1A1A1"/>
<rect x="40.5107" y="104.17" width="5.78723" height="5.78723" transform="rotate(90 40.5107 104.17)" fill="#A1A1A1"/>
<rect x="231.489" y="167.83" width="5.78723" height="5.78723" transform="rotate(-90 231.489 167.83)" fill="#A1A1A1"/>
<rect x="219.915" y="52.0859" width="5.78723" height="5.78723" transform="rotate(90 219.915 52.0859)" fill="#A1A1A1"/>
<rect x="52.085" y="219.914" width="5.78723" height="5.78723" transform="rotate(-90 52.085 219.914)" fill="#A1A1A1"/>
<rect x="92.5957" y="52.0859" width="5.78723" height="5.78723" transform="rotate(90 92.5957 52.0859)" fill="#A1A1A1"/>
<rect x="179.404" y="219.914" width="5.78723" height="5.78723" transform="rotate(-90 179.404 219.914)" fill="#A1A1A1"/>
<rect x="156.255" y="115.744" width="5.78723" height="5.78723" transform="rotate(90 156.255 115.744)" fill="#A1A1A1"/>
<rect x="115.744" y="156.256" width="5.78723" height="5.78723" transform="rotate(-90 115.744 156.256)" fill="#A1A1A1"/>
<rect x="28.9365" y="115.744" width="5.78723" height="5.78723" transform="rotate(90 28.9365 115.744)" fill="#A1A1A1"/>
<rect x="243.063" y="156.256" width="5.78723" height="5.78723" transform="rotate(-90 243.063 156.256)" fill="#A1A1A1"/>
<rect x="248.852" y="23.1484" width="5.78723" height="5.78723" transform="rotate(90 248.852 23.1484)" fill="#A1A1A1"/>
<rect x="23.1484" y="248.852" width="5.78723" height="5.78723" transform="rotate(-90 23.1484 248.852)" fill="#A1A1A1"/>
<rect x="121.532" y="23.1484" width="5.78723" height="5.78723" transform="rotate(90 121.532 23.1484)" fill="#A1A1A1"/>
<rect x="150.468" y="248.852" width="5.78723" height="5.78723" transform="rotate(-90 150.468 248.852)" fill="#A1A1A1"/>
<rect x="185.191" y="86.8086" width="5.78723" height="5.78723" transform="rotate(90 185.191 86.8086)" fill="#A1A1A1"/>
<rect x="86.8086" y="185.191" width="5.78723" height="5.78723" transform="rotate(-90 86.8086 185.191)" fill="#A1A1A1"/>
<rect x="57.8721" y="86.8086" width="5.78723" height="5.78723" transform="rotate(90 57.8721 86.8086)" fill="#A1A1A1"/>
<rect x="214.128" y="185.191" width="5.78723" height="5.78723" transform="rotate(-90 214.128 185.191)" fill="#A1A1A1"/>
<rect x="237.276" y="34.7227" width="5.78723" height="5.78723" transform="rotate(90 237.276 34.7227)" fill="#A1A1A1"/>
<rect x="34.7227" y="237.277" width="5.78723" height="5.78723" transform="rotate(-90 34.7227 237.277)" fill="#A1A1A1"/>
<rect x="109.957" y="34.7227" width="5.78723" height="5.78723" transform="rotate(90 109.957 34.7227)" fill="#A1A1A1"/>
<rect x="162.043" y="237.277" width="5.78723" height="5.78723" transform="rotate(-90 162.043 237.277)" fill="#A1A1A1"/>
<rect x="173.617" y="98.3828" width="5.78723" height="5.78723" transform="rotate(90 173.617 98.3828)" fill="#A1A1A1"/>
<rect x="98.3828" y="173.617" width="5.78723" height="5.78723" transform="rotate(-90 98.3828 173.617)" fill="#A1A1A1"/>
<rect x="46.2979" y="98.3828" width="5.78723" height="5.78723" transform="rotate(90 46.2979 98.3828)" fill="#A1A1A1"/>
<rect x="225.702" y="173.617" width="5.78723" height="5.78723" transform="rotate(-90 225.702 173.617)" fill="#A1A1A1"/>
<rect x="225.702" y="46.2969" width="5.78723" height="5.78723" transform="rotate(90 225.702 46.2969)" fill="#A1A1A1"/>
<rect x="46.2979" y="225.703" width="5.78723" height="5.78723" transform="rotate(-90 46.2979 225.703)" fill="#A1A1A1"/>
<rect x="98.3828" y="46.2969" width="5.78723" height="5.78723" transform="rotate(90 98.3828 46.2969)" fill="#A1A1A1"/>
<rect x="173.617" y="225.703" width="5.78723" height="5.78723" transform="rotate(-90 173.617 225.703)" fill="#A1A1A1"/>
<rect x="162.043" y="109.957" width="5.78723" height="5.78723" transform="rotate(90 162.043 109.957)" fill="#A1A1A1"/>
<rect x="109.957" y="162.043" width="5.78723" height="5.78723" transform="rotate(-90 109.957 162.043)" fill="#A1A1A1"/>
<rect x="34.7227" y="109.957" width="5.78723" height="5.78723" transform="rotate(90 34.7227 109.957)" fill="#A1A1A1"/>
<rect x="237.276" y="162.043" width="5.78723" height="5.78723" transform="rotate(-90 237.276 162.043)" fill="#A1A1A1"/>
<rect x="214.128" y="57.873" width="5.78723" height="5.78723" transform="rotate(90 214.128 57.873)" fill="#A1A1A1"/>
<rect x="86.8086" y="57.873" width="5.78723" height="5.78723" transform="rotate(90 86.8086 57.873)" fill="#A1A1A1"/>
<rect x="57.8721" y="214.127" width="5.78723" height="5.78723" transform="rotate(-90 57.8721 214.127)" fill="#A1A1A1"/>
<rect x="185.191" y="214.127" width="5.78723" height="5.78723" transform="rotate(-90 185.191 214.127)" fill="#A1A1A1"/>
<rect x="150.468" y="121.533" width="5.78723" height="5.78723" transform="rotate(90 150.468 121.533)" fill="#A1A1A1"/>
<rect x="121.532" y="150.467" width="5.78723" height="5.78723" transform="rotate(-90 121.532 150.467)" fill="#A1A1A1"/>
<rect x="23.1484" y="121.533" width="5.78723" height="5.78723" transform="rotate(90 23.1484 121.533)" fill="#A1A1A1"/>
<rect x="248.852" y="150.467" width="5.78723" height="5.78723" transform="rotate(-90 248.852 150.467)" fill="#A1A1A1"/>
<rect x="69.4473" y="11.5742" width="5.78723" height="5.78723" transform="rotate(90 69.4473 11.5742)" fill="#A1A1A1"/>
<rect x="202.553" y="260.426" width="5.78723" height="5.78723" transform="rotate(-90 202.553 260.426)" fill="#A1A1A1"/>
<rect x="133.106" y="138.893" width="5.78723" height="5.78723" transform="rotate(90 133.106 138.893)" fill="#A1A1A1"/>
<rect x="196.766" y="138.893" width="5.78723" height="5.78723" transform="rotate(90 196.766 138.893)" fill="#A1A1A1"/>
<rect x="5.78711" y="138.893" width="5.78723" height="5.78723" transform="rotate(90 5.78711 138.893)" fill="#A1A1A1"/>
<rect x="260.426" y="138.893" width="5.78723" height="5.78723" transform="rotate(90 260.426 138.893)" fill="#A1A1A1"/>
<rect x="69.4473" y="138.893" width="5.78723" height="5.78723" transform="rotate(90 69.4473 138.893)" fill="#A1A1A1"/>
<rect x="133.106" y="63.6602" width="5.78723" height="5.78723" transform="rotate(90 133.106 63.6602)" fill="#A1A1A1"/>
<rect x="138.894" y="208.34" width="5.78723" height="5.78723" transform="rotate(-90 138.894 208.34)" fill="#A1A1A1"/>
<rect x="196.766" y="63.6602" width="5.78723" height="5.78723" transform="rotate(90 196.766 63.6602)" fill="#A1A1A1"/>
<rect x="69.4473" y="63.6602" width="5.78723" height="5.78723" transform="rotate(90 69.4473 63.6602)" fill="#A1A1A1"/>
<rect x="75.2334" y="208.34" width="5.78723" height="5.78723" transform="rotate(-90 75.2334 208.34)" fill="#A1A1A1"/>
<rect x="5.78711" y="63.6602" width="5.78723" height="5.78723" transform="rotate(90 5.78711 63.6602)" fill="#A1A1A1"/>
<rect x="266.213" y="208.34" width="5.78723" height="5.78723" transform="rotate(-90 266.213 208.34)" fill="#A1A1A1"/>
<rect x="260.426" y="63.6602" width="5.78723" height="5.78723" transform="rotate(90 260.426 63.6602)" fill="#A1A1A1"/>
<rect x="11.5742" y="208.34" width="5.78723" height="5.78723" transform="rotate(-90 11.5742 208.34)" fill="#A1A1A1"/>
<rect x="196.766" y="63.6602" width="5.78723" height="5.78723" transform="rotate(90 196.766 63.6602)" fill="#A1A1A1"/>
<rect x="69.4473" y="63.6602" width="5.78723" height="5.78723" transform="rotate(90 69.4473 63.6602)" fill="#A1A1A1"/>
<rect x="75.2334" y="208.34" width="5.78723" height="5.78723" transform="rotate(-90 75.2334 208.34)" fill="#A1A1A1"/>
<rect x="202.553" y="208.34" width="5.78723" height="5.78723" transform="rotate(-90 202.553 208.34)" fill="#A1A1A1"/>
<rect x="69.4473" y="127.318" width="5.78723" height="5.78723" transform="rotate(90 69.4473 127.318)" fill="#A1A1A1"/>
<rect x="202.553" y="208.34" width="5.78723" height="5.78723" transform="rotate(-90 202.553 208.34)" fill="#A1A1A1"/>
<rect x="208.341" y="214.127" width="5.78723" height="5.78723" transform="rotate(-90 208.341 214.127)" fill="#A1A1A1"/>
<rect x="190.979" y="57.873" width="5.78723" height="5.78723" transform="rotate(90 190.979 57.873)" fill="#A1A1A1"/>
<rect x="63.6592" y="57.873" width="5.78723" height="5.78723" transform="rotate(90 63.6592 57.873)" fill="#A1A1A1"/>
<rect x="81.0215" y="214.127" width="5.78723" height="5.78723" transform="rotate(-90 81.0215 214.127)" fill="#A1A1A1"/>
<rect x="254.638" y="121.533" width="5.78723" height="5.78723" transform="rotate(90 254.638 121.533)" fill="#A1A1A1"/>
<rect x="17.3623" y="150.467" width="5.78723" height="5.78723" transform="rotate(-90 17.3623 150.467)" fill="#A1A1A1"/>
<rect x="127.319" y="121.533" width="5.78723" height="5.78723" transform="rotate(90 127.319 121.533)" fill="#A1A1A1"/>
<rect x="144.681" y="150.467" width="5.78723" height="5.78723" transform="rotate(-90 144.681 150.467)" fill="#A1A1A1"/>
<rect x="57.8721" y="52.0859" width="5.78723" height="5.78723" transform="rotate(90 57.8721 52.0859)" fill="#A1A1A1"/>
<rect x="214.128" y="219.914" width="5.78723" height="5.78723" transform="rotate(-90 214.128 219.914)" fill="#A1A1A1"/>
<rect x="185.191" y="52.0859" width="5.78723" height="5.78723" transform="rotate(90 185.191 52.0859)" fill="#A1A1A1"/>
<rect x="86.8086" y="219.914" width="5.78723" height="5.78723" transform="rotate(-90 86.8086 219.914)" fill="#A1A1A1"/>
<rect x="248.852" y="115.744" width="5.78723" height="5.78723" transform="rotate(90 248.852 115.744)" fill="#A1A1A1"/>
<rect x="23.1484" y="156.256" width="5.78723" height="5.78723" transform="rotate(-90 23.1484 156.256)" fill="#A1A1A1"/>
<rect x="121.532" y="115.744" width="5.78723" height="5.78723" transform="rotate(90 121.532 115.744)" fill="#A1A1A1"/>
<rect x="150.468" y="156.256" width="5.78723" height="5.78723" transform="rotate(-90 150.468 156.256)" fill="#A1A1A1"/>
<rect x="52.085" y="46.2969" width="5.78723" height="5.78723" transform="rotate(90 52.085 46.2969)" fill="#A1A1A1"/>
<rect x="219.915" y="225.703" width="5.78723" height="5.78723" transform="rotate(-90 219.915 225.703)" fill="#A1A1A1"/>
<rect x="179.404" y="46.2969" width="5.78723" height="5.78723" transform="rotate(90 179.404 46.2969)" fill="#A1A1A1"/>
<rect x="92.5957" y="225.703" width="5.78723" height="5.78723" transform="rotate(-90 92.5957 225.703)" fill="#A1A1A1"/>
<rect x="243.063" y="109.957" width="5.78723" height="5.78723" transform="rotate(90 243.063 109.957)" fill="#A1A1A1"/>
<rect x="28.9365" y="162.043" width="5.78723" height="5.78723" transform="rotate(-90 28.9365 162.043)" fill="#A1A1A1"/>
<rect x="115.744" y="109.957" width="5.78723" height="5.78723" transform="rotate(90 115.744 109.957)" fill="#A1A1A1"/>
<rect x="156.255" y="162.043" width="5.78723" height="5.78723" transform="rotate(-90 156.255 162.043)" fill="#A1A1A1"/>
<rect x="46.2979" y="40.5117" width="5.78723" height="5.78723" transform="rotate(90 46.2979 40.5117)" fill="#A1A1A1"/>
<rect x="225.702" y="231.488" width="5.78723" height="5.78723" transform="rotate(-90 225.702 231.488)" fill="#A1A1A1"/>
<rect x="173.617" y="40.5117" width="5.78723" height="5.78723" transform="rotate(90 173.617 40.5117)" fill="#A1A1A1"/>
<rect x="98.3828" y="231.488" width="5.78723" height="5.78723" transform="rotate(-90 98.3828 231.488)" fill="#A1A1A1"/>
<rect x="237.276" y="104.17" width="5.78723" height="5.78723" transform="rotate(90 237.276 104.17)" fill="#A1A1A1"/>
<rect x="34.7227" y="167.83" width="5.78723" height="5.78723" transform="rotate(-90 34.7227 167.83)" fill="#A1A1A1"/>
<rect x="109.957" y="104.17" width="5.78723" height="5.78723" transform="rotate(90 109.957 104.17)" fill="#A1A1A1"/>
<rect x="162.043" y="167.83" width="5.78723" height="5.78723" transform="rotate(-90 162.043 167.83)" fill="#A1A1A1"/>
<rect x="40.5107" y="34.7227" width="5.78723" height="5.78723" transform="rotate(90 40.5107 34.7227)" fill="#A1A1A1"/>
<rect x="231.489" y="237.277" width="5.78723" height="5.78723" transform="rotate(-90 231.489 237.277)" fill="#A1A1A1"/>
<rect x="167.83" y="34.7227" width="5.78723" height="5.78723" transform="rotate(90 167.83 34.7227)" fill="#A1A1A1"/>
<rect x="104.17" y="237.277" width="5.78723" height="5.78723" transform="rotate(-90 104.17 237.277)" fill="#A1A1A1"/>
<rect x="231.489" y="98.3828" width="5.78723" height="5.78723" transform="rotate(90 231.489 98.3828)" fill="#A1A1A1"/>
<rect x="40.5107" y="173.617" width="5.78723" height="5.78723" transform="rotate(-90 40.5107 173.617)" fill="#A1A1A1"/>
<rect x="104.17" y="98.3828" width="5.78723" height="5.78723" transform="rotate(90 104.17 98.3828)" fill="#A1A1A1"/>
<rect x="167.83" y="173.617" width="5.78723" height="5.78723" transform="rotate(-90 167.83 173.617)" fill="#A1A1A1"/>
<rect x="34.7227" y="28.9355" width="5.78723" height="5.78723" transform="rotate(90 34.7227 28.9355)" fill="#A1A1A1"/>
<rect x="237.276" y="243.064" width="5.78723" height="5.78723" transform="rotate(-90 237.276 243.064)" fill="#A1A1A1"/>
<rect x="162.043" y="28.9355" width="5.78723" height="5.78723" transform="rotate(90 162.043 28.9355)" fill="#A1A1A1"/>
<rect x="109.957" y="243.064" width="5.78723" height="5.78723" transform="rotate(-90 109.957 243.064)" fill="#A1A1A1"/>
<rect x="225.702" y="92.5957" width="5.78723" height="5.78723" transform="rotate(90 225.702 92.5957)" fill="#A1A1A1"/>
<rect x="46.2979" y="179.404" width="5.78723" height="5.78723" transform="rotate(-90 46.2979 179.404)" fill="#A1A1A1"/>
<rect x="98.3828" y="92.5957" width="5.78723" height="5.78723" transform="rotate(90 98.3828 92.5957)" fill="#A1A1A1"/>
<rect x="173.617" y="179.404" width="5.78723" height="5.78723" transform="rotate(-90 173.617 179.404)" fill="#A1A1A1"/>
<rect x="28.9365" y="23.1484" width="5.78723" height="5.78723" transform="rotate(90 28.9365 23.1484)" fill="#A1A1A1"/>
<rect x="243.063" y="248.852" width="5.78723" height="5.78723" transform="rotate(-90 243.063 248.852)" fill="#A1A1A1"/>
<rect x="23.1484" y="17.3613" width="5.78723" height="5.78723" transform="rotate(90 23.1484 17.3613)" fill="#A1A1A1"/>
<rect x="248.852" y="254.639" width="5.78723" height="5.78723" transform="rotate(-90 248.852 254.639)" fill="#A1A1A1"/>
<rect x="150.468" y="17.3613" width="5.78723" height="5.78723" transform="rotate(90 150.468 17.3613)" fill="#A1A1A1"/>
<rect x="121.532" y="254.639" width="5.78723" height="5.78723" transform="rotate(-90 121.532 254.639)" fill="#A1A1A1"/>
<rect x="214.128" y="81.0215" width="5.78723" height="5.78723" transform="rotate(90 214.128 81.0215)" fill="#A1A1A1"/>
<rect x="86.8086" y="81.0215" width="5.78723" height="5.78723" transform="rotate(90 86.8086 81.0215)" fill="#A1A1A1"/>
<rect x="57.8721" y="190.979" width="5.78723" height="5.78723" transform="rotate(-90 57.8721 190.979)" fill="#A1A1A1"/>
<rect x="185.191" y="190.979" width="5.78723" height="5.78723" transform="rotate(-90 185.191 190.979)" fill="#A1A1A1"/>
<rect x="156.255" y="23.1484" width="5.78723" height="5.78723" transform="rotate(90 156.255 23.1484)" fill="#A1A1A1"/>
<rect x="115.744" y="248.852" width="5.78723" height="5.78723" transform="rotate(-90 115.744 248.852)" fill="#A1A1A1"/>
<rect x="219.915" y="86.8086" width="5.78723" height="5.78723" transform="rotate(90 219.915 86.8086)" fill="#A1A1A1"/>
<rect x="52.085" y="185.191" width="5.78723" height="5.78723" transform="rotate(-90 52.085 185.191)" fill="#A1A1A1"/>
<rect x="92.5957" y="86.8086" width="5.78723" height="5.78723" transform="rotate(90 92.5957 86.8086)" fill="#A1A1A1"/>
<rect x="179.404" y="185.191" width="5.78723" height="5.78723" transform="rotate(-90 179.404 185.191)" fill="#A1A1A1"/>
<rect x="133.106" width="5.78723" height="5.78723" transform="rotate(90 133.106 0)" fill="#A1A1A1"/>
<rect x="138.894" y="272" width="5.78723" height="5.78723" transform="rotate(-90 138.894 272)" fill="#A1A1A1"/>
<rect x="196.766" width="5.78723" height="5.78723" transform="rotate(90 196.766 0)" fill="#A1A1A1"/>
<rect x="75.2334" y="272" width="5.78723" height="5.78723" transform="rotate(-90 75.2334 272)" fill="#A1A1A1"/>
<rect x="5.78711" width="5.78723" height="5.78723" transform="rotate(90 5.78711 0)" fill="#A1A1A1"/>
<rect x="266.213" y="272" width="5.78723" height="5.78723" transform="rotate(-90 266.213 272)" fill="#A1A1A1"/>
<rect x="260.426" width="5.78723" height="5.78723" transform="rotate(90 260.426 0)" fill="#A1A1A1"/>
<rect x="11.5742" y="272" width="5.78723" height="5.78723" transform="rotate(-90 11.5742 272)" fill="#A1A1A1"/>
<rect x="69.4463" width="5.78723" height="5.78723" transform="rotate(90 69.4463 0)" fill="#A1A1A1"/>
<rect x="202.553" y="272" width="5.78723" height="5.78723" transform="rotate(-90 202.553 272)" fill="#A1A1A1"/>
<rect x="133.106" y="127.318" width="5.78723" height="5.78723" transform="rotate(90 133.106 127.318)" fill="#A1A1A1"/>
<rect x="196.766" y="127.318" width="5.78723" height="5.78723" transform="rotate(90 196.766 127.318)" fill="#A1A1A1"/>
<rect x="5.78711" y="127.318" width="5.78723" height="5.78723" transform="rotate(90 5.78711 127.318)" fill="#A1A1A1"/>
<rect x="260.426" y="127.318" width="5.78723" height="5.78723" transform="rotate(90 260.426 127.318)" fill="#A1A1A1"/>
<rect x="69.4473" y="127.318" width="5.78723" height="5.78723" transform="rotate(90 69.4473 127.318)" fill="#A1A1A1"/>
<rect x="138.894" y="63.6602" width="5.78723" height="5.78723" transform="rotate(90 138.894 63.6602)" fill="#A1A1A1"/>
<rect x="133.106" y="208.34" width="5.78723" height="5.78723" transform="rotate(-90 133.106 208.34)" fill="#A1A1A1"/>
<rect x="202.553" y="63.6602" width="5.78723" height="5.78723" transform="rotate(90 202.553 63.6602)" fill="#A1A1A1"/>
<rect x="75.2334" y="63.6602" width="5.78723" height="5.78723" transform="rotate(90 75.2334 63.6602)" fill="#A1A1A1"/>
<rect x="69.4473" y="208.34" width="5.78723" height="5.78723" transform="rotate(-90 69.4473 208.34)" fill="#A1A1A1"/>
<rect x="11.5742" y="63.6602" width="5.78723" height="5.78723" transform="rotate(90 11.5742 63.6602)" fill="#A1A1A1"/>
<rect x="260.426" y="208.34" width="5.78723" height="5.78723" transform="rotate(-90 260.426 208.34)" fill="#A1A1A1"/>
<rect x="266.213" y="63.6602" width="5.78723" height="5.78723" transform="rotate(90 266.213 63.6602)" fill="#A1A1A1"/>
<rect x="5.78711" y="208.34" width="5.78723" height="5.78723" transform="rotate(-90 5.78711 208.34)" fill="#A1A1A1"/>
<rect x="196.766" y="208.34" width="5.78723" height="5.78723" transform="rotate(-90 196.766 208.34)" fill="#A1A1A1"/>
<rect x="138.894" width="5.78723" height="5.78723" transform="rotate(90 138.894 0)" fill="#A1A1A1"/>
<rect x="133.106" y="272" width="5.78723" height="5.78723" transform="rotate(-90 133.106 272)" fill="#A1A1A1"/>
<rect x="202.554" width="5.78723" height="5.78723" transform="rotate(90 202.554 0)" fill="#A1A1A1"/>
<rect x="69.4473" y="272" width="5.78723" height="5.78723" transform="rotate(-90 69.4473 272)" fill="#A1A1A1"/>
<rect x="11.5742" width="5.78723" height="5.78723" transform="rotate(90 11.5742 0)" fill="#A1A1A1"/>
<rect x="260.426" y="272" width="5.78723" height="5.78723" transform="rotate(-90 260.426 272)" fill="#A1A1A1"/>
<rect x="266.213" width="5.78723" height="5.78723" transform="rotate(90 266.213 0)" fill="#A1A1A1"/>
<rect x="5.78711" y="272" width="5.78723" height="5.78723" transform="rotate(-90 5.78711 272)" fill="#A1A1A1"/>
<rect x="75.2334" width="5.78723" height="5.78723" transform="rotate(90 75.2334 0)" fill="#A1A1A1"/>
<rect x="196.766" y="272" width="5.78723" height="5.78723" transform="rotate(-90 196.766 272)" fill="#A1A1A1"/>
<rect x="138.894" y="127.318" width="5.78723" height="5.78723" transform="rotate(90 138.894 127.318)" fill="#A1A1A1"/>
<rect x="202.553" y="127.318" width="5.78723" height="5.78723" transform="rotate(90 202.553 127.318)" fill="#A1A1A1"/>
<rect x="11.5742" y="127.318" width="5.78723" height="5.78723" transform="rotate(90 11.5742 127.318)" fill="#A1A1A1"/>
<rect x="266.213" y="127.318" width="5.78723" height="5.78723" transform="rotate(90 266.213 127.318)" fill="#A1A1A1"/>
<rect x="75.2334" y="127.318" width="5.78723" height="5.78723" transform="rotate(90 75.2334 127.318)" fill="#A1A1A1"/>
<rect x="144.681" y="63.6602" width="5.78723" height="5.78723" transform="rotate(90 144.681 63.6602)" fill="#A1A1A1"/>
<rect x="127.319" y="208.34" width="5.78723" height="5.78723" transform="rotate(-90 127.319 208.34)" fill="#A1A1A1"/>
<rect x="208.341" y="63.6602" width="5.78723" height="5.78723" transform="rotate(90 208.341 63.6602)" fill="#A1A1A1"/>
<rect x="81.0215" y="63.6602" width="5.78723" height="5.78723" transform="rotate(90 81.0215 63.6602)" fill="#A1A1A1"/>
<rect x="63.6592" y="208.34" width="5.78723" height="5.78723" transform="rotate(-90 63.6592 208.34)" fill="#A1A1A1"/>
<rect x="17.3623" y="63.6602" width="5.78723" height="5.78723" transform="rotate(90 17.3623 63.6602)" fill="#A1A1A1"/>
<rect x="254.638" y="208.34" width="5.78723" height="5.78723" transform="rotate(-90 254.638 208.34)" fill="#A1A1A1"/>
<rect x="272" y="63.6602" width="5.78723" height="5.78723" transform="rotate(90 272 63.6602)" fill="#A1A1A1"/>
<rect y="208.34" width="5.78723" height="5.78723" transform="rotate(-90 0 208.34)" fill="#A1A1A1"/>
<rect x="190.979" y="208.34" width="5.78723" height="5.78723" transform="rotate(-90 190.979 208.34)" fill="#A1A1A1"/>
<rect x="144.681" width="5.78723" height="5.78723" transform="rotate(90 144.681 0)" fill="#A1A1A1"/>
<rect x="127.319" y="272" width="5.78723" height="5.78723" transform="rotate(-90 127.319 272)" fill="#A1A1A1"/>
<rect x="208.341" width="5.78723" height="5.78723" transform="rotate(90 208.341 0)" fill="#A1A1A1"/>
<rect x="63.6592" y="272" width="5.78723" height="5.78723" transform="rotate(-90 63.6592 272)" fill="#A1A1A1"/>
<rect x="17.3613" width="5.78723" height="5.78723" transform="rotate(90 17.3613 0)" fill="#A1A1A1"/>
<rect x="254.638" y="272" width="5.78723" height="5.78723" transform="rotate(-90 254.638 272)" fill="#A1A1A1"/>
<rect x="272" width="5.78723" height="5.78723" transform="rotate(90 272 0)" fill="#A1A1A1"/>
<rect y="272" width="5.78723" height="5.78723" transform="rotate(-90 0 272)" fill="#A1A1A1"/>
<rect x="81.0215" width="5.78723" height="5.78723" transform="rotate(90 81.0215 0)" fill="#A1A1A1"/>
<rect x="190.979" y="272" width="5.78723" height="5.78723" transform="rotate(-90 190.979 272)" fill="#A1A1A1"/>
<rect x="144.681" y="127.318" width="5.78723" height="5.78723" transform="rotate(90 144.681 127.318)" fill="#A1A1A1"/>
<rect x="208.341" y="127.318" width="5.78723" height="5.78723" transform="rotate(90 208.341 127.318)" fill="#A1A1A1"/>
<rect x="17.3623" y="127.318" width="5.78723" height="5.78723" transform="rotate(90 17.3623 127.318)" fill="#A1A1A1"/>
<rect x="272" y="127.318" width="5.78723" height="5.78723" transform="rotate(90 272 127.318)" fill="#A1A1A1"/>
<rect x="81.0215" y="127.318" width="5.78723" height="5.78723" transform="rotate(90 81.0215 127.318)" fill="#A1A1A1"/>
<rect x="144.681" y="69.4473" width="5.78723" height="5.78723" transform="rotate(90 144.681 69.4473)" fill="#A1A1A1"/>
<rect x="127.319" y="202.553" width="5.78723" height="5.78723" transform="rotate(-90 127.319 202.553)" fill="#A1A1A1"/>
<rect x="208.341" y="69.4473" width="5.78723" height="5.78723" transform="rotate(90 208.341 69.4473)" fill="#A1A1A1"/>
<rect x="81.0215" y="69.4473" width="5.78723" height="5.78723" transform="rotate(90 81.0215 69.4473)" fill="#A1A1A1"/>
<rect x="63.6592" y="202.553" width="5.78723" height="5.78723" transform="rotate(-90 63.6592 202.553)" fill="#A1A1A1"/>
<rect x="17.3623" y="69.4473" width="5.78723" height="5.78723" transform="rotate(90 17.3623 69.4473)" fill="#A1A1A1"/>
<rect x="254.638" y="202.553" width="5.78723" height="5.78723" transform="rotate(-90 254.638 202.553)" fill="#A1A1A1"/>
<rect x="272" y="69.4473" width="5.78723" height="5.78723" transform="rotate(90 272 69.4473)" fill="#A1A1A1"/>
<rect y="202.553" width="5.78723" height="5.78723" transform="rotate(-90 0 202.553)" fill="#A1A1A1"/>
<rect x="190.979" y="202.553" width="5.78723" height="5.78723" transform="rotate(-90 190.979 202.553)" fill="#A1A1A1"/>
<rect x="144.681" y="5.78711" width="5.78723" height="5.78723" transform="rotate(90 144.681 5.78711)" fill="#A1A1A1"/>
<rect x="127.319" y="266.213" width="5.78723" height="5.78723" transform="rotate(-90 127.319 266.213)" fill="#A1A1A1"/>
<rect x="208.341" y="5.78711" width="5.78723" height="5.78723" transform="rotate(90 208.341 5.78711)" fill="#A1A1A1"/>
<rect x="63.6592" y="266.213" width="5.78723" height="5.78723" transform="rotate(-90 63.6592 266.213)" fill="#A1A1A1"/>
<rect x="17.3623" y="5.78711" width="5.78723" height="5.78723" transform="rotate(90 17.3623 5.78711)" fill="#A1A1A1"/>
<rect x="11.5742" y="5.78711" width="5.78723" height="5.78723" transform="rotate(90 11.5742 5.78711)" fill="#A1A1A1"/>
<rect x="11.5742" y="69.4473" width="5.78723" height="5.78723" transform="rotate(90 11.5742 69.4473)" fill="#A1A1A1"/>
<rect x="11.5742" y="133.107" width="5.78723" height="5.78723" transform="rotate(90 11.5742 133.107)" fill="#A1A1A1"/>
<rect x="11.5742" y="196.766" width="5.78723" height="5.78723" transform="rotate(90 11.5742 196.766)" fill="#A1A1A1"/>
<rect x="11.5742" y="260.426" width="5.78723" height="5.78723" transform="rotate(90 11.5742 260.426)" fill="#A1A1A1"/>
<rect x="75.2334" y="5.78711" width="5.78723" height="5.78723" transform="rotate(90 75.2334 5.78711)" fill="#A1A1A1"/>
<rect x="75.2334" y="69.4473" width="5.78723" height="5.78723" transform="rotate(90 75.2334 69.4473)" fill="#A1A1A1"/>
<rect x="75.2334" y="133.107" width="5.78723" height="5.78723" transform="rotate(90 75.2334 133.107)" fill="#A1A1A1"/>
<rect x="75.2334" y="196.766" width="5.78723" height="5.78723" transform="rotate(90 75.2334 196.766)" fill="#A1A1A1"/>
<rect x="75.2334" y="260.426" width="5.78723" height="5.78723" transform="rotate(90 75.2334 260.426)" fill="#A1A1A1"/>
<rect x="138.894" y="5.78711" width="5.78723" height="5.78723" transform="rotate(90 138.894 5.78711)" fill="#A1A1A1"/>
<rect x="138.894" y="69.4473" width="5.78723" height="5.78723" transform="rotate(90 138.894 69.4473)" fill="#A1A1A1"/>
<rect x="138.894" y="133.107" width="5.78723" height="5.78723" transform="rotate(90 138.894 133.107)" fill="#A1A1A1"/>
<rect x="138.894" y="196.766" width="5.78723" height="5.78723" transform="rotate(90 138.894 196.766)" fill="#A1A1A1"/>
<rect x="138.894" y="260.426" width="5.78723" height="5.78723" transform="rotate(90 138.894 260.426)" fill="#A1A1A1"/>
<rect x="202.553" y="5.78711" width="5.78723" height="5.78723" transform="rotate(90 202.553 5.78711)" fill="#A1A1A1"/>
<rect x="202.553" y="69.4473" width="5.78723" height="5.78723" transform="rotate(90 202.553 69.4473)" fill="#A1A1A1"/>
<rect x="202.553" y="133.107" width="5.78723" height="5.78723" transform="rotate(90 202.553 133.107)" fill="#A1A1A1"/>
<rect x="202.553" y="196.766" width="5.78723" height="5.78723" transform="rotate(90 202.553 196.766)" fill="#A1A1A1"/>
<rect x="202.553" y="260.426" width="5.78723" height="5.78723" transform="rotate(90 202.553 260.426)" fill="#A1A1A1"/>
<rect x="266.213" y="5.78711" width="5.78723" height="5.78723" transform="rotate(90 266.213 5.78711)" fill="#A1A1A1"/>
<rect x="266.213" y="69.4473" width="5.78723" height="5.78723" transform="rotate(90 266.213 69.4473)" fill="#A1A1A1"/>
<rect x="266.213" y="133.107" width="5.78723" height="5.78723" transform="rotate(90 266.213 133.107)" fill="#A1A1A1"/>
<rect x="266.213" y="196.766" width="5.78723" height="5.78723" transform="rotate(90 266.213 196.766)" fill="#A1A1A1"/>
<rect x="266.213" y="260.426" width="5.78723" height="5.78723" transform="rotate(90 266.213 260.426)" fill="#A1A1A1"/>
<rect x="254.638" y="266.213" width="5.78723" height="5.78723" transform="rotate(-90 254.638 266.213)" fill="#A1A1A1"/>
<rect x="272" y="5.78711" width="5.78723" height="5.78723" transform="rotate(90 272 5.78711)" fill="#A1A1A1"/>
<rect y="266.213" width="5.78723" height="5.78723" transform="rotate(-90 0 266.213)" fill="#A1A1A1"/>
<rect x="81.0215" y="5.78711" width="5.78723" height="5.78723" transform="rotate(90 81.0215 5.78711)" fill="#A1A1A1"/>
<rect x="190.979" y="266.213" width="5.78723" height="5.78723" transform="rotate(-90 190.979 266.213)" fill="#A1A1A1"/>
<rect x="144.681" y="133.107" width="5.78723" height="5.78723" transform="rotate(90 144.681 133.107)" fill="#A1A1A1"/>
<rect x="208.341" y="133.107" width="5.78723" height="5.78723" transform="rotate(90 208.341 133.107)" fill="#A1A1A1"/>
<rect x="17.3623" y="133.107" width="5.78723" height="5.78723" transform="rotate(90 17.3623 133.107)" fill="#A1A1A1"/>
<rect x="272" y="133.107" width="5.78723" height="5.78723" transform="rotate(90 272 133.107)" fill="#A1A1A1"/>
<rect x="81.0215" y="133.107" width="5.78723" height="5.78723" transform="rotate(90 81.0215 133.107)" fill="#A1A1A1"/>
<rect x="144.681" y="75.2344" width="5.78723" height="5.78723" transform="rotate(90 144.681 75.2344)" fill="#A1A1A1"/>
<rect x="127.319" y="196.766" width="5.78723" height="5.78723" transform="rotate(-90 127.319 196.766)" fill="#A1A1A1"/>
<rect x="208.341" y="75.2344" width="5.78723" height="5.78723" transform="rotate(90 208.341 75.2344)" fill="#A1A1A1"/>
<rect x="81.0215" y="75.2344" width="5.78723" height="5.78723" transform="rotate(90 81.0215 75.2344)" fill="#A1A1A1"/>
<rect x="63.6592" y="196.766" width="5.78723" height="5.78723" transform="rotate(-90 63.6592 196.766)" fill="#A1A1A1"/>
<rect x="17.3623" y="75.2344" width="5.78723" height="5.78723" transform="rotate(90 17.3623 75.2344)" fill="#A1A1A1"/>
<rect x="254.638" y="196.766" width="5.78723" height="5.78723" transform="rotate(-90 254.638 196.766)" fill="#A1A1A1"/>
<rect x="272" y="75.2344" width="5.78723" height="5.78723" transform="rotate(90 272 75.2344)" fill="#A1A1A1"/>
<rect y="196.766" width="5.78723" height="5.78723" transform="rotate(-90 0 196.766)" fill="#A1A1A1"/>
<rect x="190.979" y="196.766" width="5.78723" height="5.78723" transform="rotate(-90 190.979 196.766)" fill="#A1A1A1"/>
<rect x="144.681" y="11.5742" width="5.78723" height="5.78723" transform="rotate(90 144.681 11.5742)" fill="#A1A1A1"/>
<rect x="127.319" y="260.426" width="5.78723" height="5.78723" transform="rotate(-90 127.319 260.426)" fill="#A1A1A1"/>
<rect x="208.341" y="11.5742" width="5.78723" height="5.78723" transform="rotate(90 208.341 11.5742)" fill="#A1A1A1"/>
<rect x="63.6592" y="260.426" width="5.78723" height="5.78723" transform="rotate(-90 63.6592 260.426)" fill="#A1A1A1"/>
<rect x="17.3623" y="11.5742" width="5.78723" height="5.78723" transform="rotate(90 17.3623 11.5742)" fill="#A1A1A1"/>
<rect x="254.638" y="260.426" width="5.78723" height="5.78723" transform="rotate(-90 254.638 260.426)" fill="#A1A1A1"/>
<rect x="272" y="11.5742" width="5.78723" height="5.78723" transform="rotate(90 272 11.5742)" fill="#A1A1A1"/>
<rect y="260.426" width="5.78723" height="5.78723" transform="rotate(-90 0 260.426)" fill="#A1A1A1"/>
<rect x="81.0215" y="11.5742" width="5.78723" height="5.78723" transform="rotate(90 81.0215 11.5742)" fill="#A1A1A1"/>
<rect x="190.979" y="260.426" width="5.78723" height="5.78723" transform="rotate(-90 190.979 260.426)" fill="#A1A1A1"/>
<rect x="144.681" y="138.893" width="5.78723" height="5.78723" transform="rotate(90 144.681 138.893)" fill="#A1A1A1"/>
<rect x="208.341" y="138.893" width="5.78723" height="5.78723" transform="rotate(90 208.341 138.893)" fill="#A1A1A1"/>
<rect x="17.3623" y="138.893" width="5.78723" height="5.78723" transform="rotate(90 17.3623 138.893)" fill="#A1A1A1"/>
<rect x="272" y="138.893" width="5.78723" height="5.78723" transform="rotate(90 272 138.893)" fill="#A1A1A1"/>
<rect x="81.0215" y="138.893" width="5.78723" height="5.78723" transform="rotate(90 81.0215 138.893)" fill="#A1A1A1"/>
<rect x="138.894" y="121.533" width="5.78723" height="5.78723" transform="rotate(90 138.894 121.533)" fill="#A1A1A1"/>
<rect x="133.106" y="150.467" width="5.78723" height="5.78723" transform="rotate(-90 133.106 150.467)" fill="#A1A1A1"/>
<rect x="202.553" y="121.533" width="5.78723" height="5.78723" transform="rotate(90 202.553 121.533)" fill="#A1A1A1"/>
<rect x="69.4473" y="150.467" width="5.78723" height="5.78723" transform="rotate(-90 69.4473 150.467)" fill="#A1A1A1"/>
<rect x="11.5742" y="121.533" width="5.78723" height="5.78723" transform="rotate(90 11.5742 121.533)" fill="#A1A1A1"/>
<rect x="260.426" y="150.467" width="5.78723" height="5.78723" transform="rotate(-90 260.426 150.467)" fill="#A1A1A1"/>
<rect x="266.213" y="121.533" width="5.78723" height="5.78723" transform="rotate(90 266.213 121.533)" fill="#A1A1A1"/>
<rect x="5.78711" y="150.467" width="5.78723" height="5.78723" transform="rotate(-90 5.78711 150.467)" fill="#A1A1A1"/>
<rect x="75.2334" y="121.533" width="5.78723" height="5.78723" transform="rotate(90 75.2334 121.533)" fill="#A1A1A1"/>
<rect x="196.766" y="150.467" width="5.78723" height="5.78723" transform="rotate(-90 196.766 150.467)" fill="#A1A1A1"/>
<rect x="138.894" y="57.873" width="5.78723" height="5.78723" transform="rotate(90 138.894 57.873)" fill="#A1A1A1"/>
<rect x="133.106" y="214.127" width="5.78723" height="5.78723" transform="rotate(-90 133.106 214.127)" fill="#A1A1A1"/>
<rect x="121.532" y="5.78711" width="5.78723" height="5.78723" fill="#A1A1A1"/>
<rect x="150.468" y="266.213" width="5.78723" height="5.78723" transform="rotate(180 150.468 266.213)" fill="#A1A1A1"/>
<rect x="57.8721" y="5.78711" width="5.78723" height="5.78723" fill="#A1A1A1"/>
<rect x="214.128" y="266.213" width="5.78723" height="5.78723" transform="rotate(180 214.128 266.213)" fill="#A1A1A1"/>
<rect x="185.191" y="5.78711" width="5.78723" height="5.78723" fill="#A1A1A1"/>
<rect x="86.8086" y="266.213" width="5.78723" height="5.78723" transform="rotate(180 86.8086 266.213)" fill="#A1A1A1"/>
<rect x="248.852" y="5.78711" width="5.78723" height="5.78723" fill="#A1A1A1"/>
<rect x="23.1484" y="266.213" width="5.78723" height="5.78723" transform="rotate(180 23.1484 266.213)" fill="#A1A1A1"/>
<rect x="121.532" y="69.4473" width="5.78723" height="5.78723" fill="#A1A1A1"/>
<rect x="150.468" y="202.553" width="5.78723" height="5.78723" transform="rotate(180 150.468 202.553)" fill="#A1A1A1"/>
<rect x="214.128" y="202.553" width="5.78723" height="5.78723" transform="rotate(180 214.128 202.553)" fill="#A1A1A1"/>
<rect x="185.191" y="69.4473" width="5.78723" height="5.78723" fill="#A1A1A1"/>
<rect x="57.8721" y="69.4473" width="5.78723" height="5.78723" fill="#A1A1A1"/>
<rect x="86.8086" y="202.553" width="5.78723" height="5.78723" transform="rotate(180 86.8086 202.553)" fill="#A1A1A1"/>
<rect x="248.852" y="69.4473" width="5.78723" height="5.78723" fill="#A1A1A1"/>
<rect x="23.1484" y="202.553" width="5.78723" height="5.78723" transform="rotate(180 23.1484 202.553)" fill="#A1A1A1"/>
<rect x="121.532" y="133.107" width="5.78723" height="5.78723" fill="#A1A1A1"/>
<rect x="57.8721" y="133.107" width="5.78723" height="5.78723" fill="#A1A1A1"/>
<rect x="185.191" y="133.107" width="5.78723" height="5.78723" fill="#A1A1A1"/>
<rect x="248.852" y="133.107" width="5.78723" height="5.78723" fill="#A1A1A1"/>
<rect x="202.553" y="57.873" width="5.78723" height="5.78723" transform="rotate(90 202.553 57.873)" fill="#A1A1A1"/>
<rect x="75.2334" y="57.873" width="5.78723" height="5.78723" transform="rotate(90 75.2334 57.873)" fill="#A1A1A1"/>
<rect x="69.4473" y="214.127" width="5.78723" height="5.78723" transform="rotate(-90 69.4473 214.127)" fill="#A1A1A1"/>
<rect x="11.5742" y="57.873" width="5.78723" height="5.78723" transform="rotate(90 11.5742 57.873)" fill="#A1A1A1"/>
<rect x="260.426" y="214.127" width="5.78723" height="5.78723" transform="rotate(-90 260.426 214.127)" fill="#A1A1A1"/>
<rect x="266.213" y="57.873" width="5.78723" height="5.78723" transform="rotate(90 266.213 57.873)" fill="#A1A1A1"/>
<rect x="5.78711" y="214.127" width="5.78723" height="5.78723" transform="rotate(-90 5.78711 214.127)" fill="#A1A1A1"/>
<rect x="196.766" y="214.127" width="5.78723" height="5.78723" transform="rotate(-90 196.766 214.127)" fill="#A1A1A1"/>
<rect x="138.894" y="98.3828" width="5.78723" height="5.78723" transform="rotate(90 138.894 98.3828)" fill="#A1A1A1"/>
<rect x="133.106" y="173.617" width="5.78723" height="5.78723" transform="rotate(-90 133.106 173.617)" fill="#A1A1A1"/>
<rect x="202.553" y="98.3828" width="5.78723" height="5.78723" transform="rotate(90 202.553 98.3828)" fill="#A1A1A1"/>
<rect x="69.4473" y="173.617" width="5.78723" height="5.78723" transform="rotate(-90 69.4473 173.617)" fill="#A1A1A1"/>
<rect x="11.5742" y="98.3828" width="5.78723" height="5.78723" transform="rotate(90 11.5742 98.3828)" fill="#A1A1A1"/>
<rect x="260.426" y="173.617" width="5.78723" height="5.78723" transform="rotate(-90 260.426 173.617)" fill="#A1A1A1"/>
<rect x="266.213" y="98.3828" width="5.78723" height="5.78723" transform="rotate(90 266.213 98.3828)" fill="#A1A1A1"/>
<rect x="5.78711" y="173.617" width="5.78723" height="5.78723" transform="rotate(-90 5.78711 173.617)" fill="#A1A1A1"/>
<rect x="75.2334" y="98.3828" width="5.78723" height="5.78723" transform="rotate(90 75.2334 98.3828)" fill="#A1A1A1"/>
<rect x="196.766" y="173.617" width="5.78723" height="5.78723" transform="rotate(-90 196.766 173.617)" fill="#A1A1A1"/>
<rect x="138.894" y="34.7227" width="5.78723" height="5.78723" transform="rotate(90 138.894 34.7227)" fill="#A1A1A1"/>
<rect x="133.106" y="237.277" width="5.78723" height="5.78723" transform="rotate(-90 133.106 237.277)" fill="#A1A1A1"/>
<rect x="98.3828" y="5.78711" width="5.78723" height="5.78723" fill="#A1A1A1"/>
<rect x="173.617" y="266.213" width="5.78723" height="5.78723" transform="rotate(180 173.617 266.213)" fill="#A1A1A1"/>
<rect x="34.7227" y="5.78711" width="5.78723" height="5.78723" fill="#A1A1A1"/>
<rect x="237.276" y="266.213" width="5.78723" height="5.78723" transform="rotate(180 237.276 266.213)" fill="#A1A1A1"/>
<rect x="162.043" y="5.78711" width="5.78723" height="5.78723" fill="#A1A1A1"/>
<rect x="109.957" y="266.213" width="5.78723" height="5.78723" transform="rotate(180 109.957 266.213)" fill="#A1A1A1"/>
<rect x="225.702" y="5.78711" width="5.78723" height="5.78723" fill="#A1A1A1"/>
<rect x="46.2979" y="266.213" width="5.78723" height="5.78723" transform="rotate(180 46.2979 266.213)" fill="#A1A1A1"/>
<rect x="98.3828" y="69.4473" width="5.78723" height="5.78723" fill="#A1A1A1"/>
<rect x="173.617" y="202.553" width="5.78723" height="5.78723" transform="rotate(180 173.617 202.553)" fill="#A1A1A1"/>
<rect x="34.7227" y="69.4473" width="5.78723" height="5.78723" fill="#A1A1A1"/>
<rect x="237.276" y="202.553" width="5.78723" height="5.78723" transform="rotate(180 237.276 202.553)" fill="#A1A1A1"/>
<rect x="162.043" y="69.4473" width="5.78723" height="5.78723" fill="#A1A1A1"/>
<rect x="109.957" y="202.553" width="5.78723" height="5.78723" transform="rotate(180 109.957 202.553)" fill="#A1A1A1"/>
<rect x="225.702" y="69.4473" width="5.78723" height="5.78723" fill="#A1A1A1"/>
<rect x="46.2979" y="202.553" width="5.78723" height="5.78723" transform="rotate(180 46.2979 202.553)" fill="#A1A1A1"/>
<rect x="98.3828" y="133.107" width="5.78723" height="5.78723" fill="#A1A1A1"/>
<rect x="34.7227" y="133.107" width="5.78723" height="5.78723" fill="#A1A1A1"/>
<rect x="162.043" y="133.107" width="5.78723" height="5.78723" fill="#A1A1A1"/>
<rect x="225.702" y="133.107" width="5.78723" height="5.78723" fill="#A1A1A1"/>
<rect x="202.553" y="34.7227" width="5.78723" height="5.78723" transform="rotate(90 202.553 34.7227)" fill="#A1A1A1"/>
<rect x="69.4473" y="237.277" width="5.78723" height="5.78723" transform="rotate(-90 69.4473 237.277)" fill="#A1A1A1"/>
<rect x="11.5742" y="34.7227" width="5.78723" height="5.78723" transform="rotate(90 11.5742 34.7227)" fill="#A1A1A1"/>
<rect x="260.426" y="237.277" width="5.78723" height="5.78723" transform="rotate(-90 260.426 237.277)" fill="#A1A1A1"/>
<rect x="266.213" y="34.7227" width="5.78723" height="5.78723" transform="rotate(90 266.213 34.7227)" fill="#A1A1A1"/>
<rect x="5.78711" y="237.277" width="5.78723" height="5.78723" transform="rotate(-90 5.78711 237.277)" fill="#A1A1A1"/>
<rect x="75.2334" y="34.7227" width="5.78723" height="5.78723" transform="rotate(90 75.2334 34.7227)" fill="#A1A1A1"/>
<rect x="196.766" y="237.277" width="5.78723" height="5.78723" transform="rotate(-90 196.766 237.277)" fill="#A1A1A1"/>
<rect x="138.894" y="86.8086" width="5.78723" height="5.78723" transform="rotate(90 138.894 86.8086)" fill="#A1A1A1"/>
<rect x="133.106" y="185.191" width="5.78723" height="5.78723" transform="rotate(-90 133.106 185.191)" fill="#A1A1A1"/>
<rect x="202.553" y="86.8086" width="5.78723" height="5.78723" transform="rotate(90 202.553 86.8086)" fill="#A1A1A1"/>
<rect x="69.4473" y="185.191" width="5.78723" height="5.78723" transform="rotate(-90 69.4473 185.191)" fill="#A1A1A1"/>
<rect x="11.5742" y="86.8086" width="5.78723" height="5.78723" transform="rotate(90 11.5742 86.8086)" fill="#A1A1A1"/>
<rect x="260.426" y="185.191" width="5.78723" height="5.78723" transform="rotate(-90 260.426 185.191)" fill="#A1A1A1"/>
<rect x="266.213" y="86.8086" width="5.78723" height="5.78723" transform="rotate(90 266.213 86.8086)" fill="#A1A1A1"/>
<rect x="5.78711" y="185.191" width="5.78723" height="5.78723" transform="rotate(-90 5.78711 185.191)" fill="#A1A1A1"/>
<rect x="75.2334" y="86.8086" width="5.78723" height="5.78723" transform="rotate(90 75.2334 86.8086)" fill="#A1A1A1"/>
<rect x="196.766" y="185.191" width="5.78723" height="5.78723" transform="rotate(-90 196.766 185.191)" fill="#A1A1A1"/>
<rect x="138.894" y="23.1484" width="5.78723" height="5.78723" transform="rotate(90 138.894 23.1484)" fill="#A1A1A1"/>
<rect x="133.106" y="248.852" width="5.78723" height="5.78723" transform="rotate(-90 133.106 248.852)" fill="#A1A1A1"/>
<rect x="86.8086" y="5.78711" width="5.78723" height="5.78723" fill="#A1A1A1"/>
<rect x="185.191" y="266.213" width="5.78723" height="5.78723" transform="rotate(180 185.191 266.213)" fill="#A1A1A1"/>
<rect x="23.1484" y="5.78711" width="5.78723" height="5.78723" fill="#A1A1A1"/>
<rect x="248.852" y="266.213" width="5.78723" height="5.78723" transform="rotate(180 248.852 266.213)" fill="#A1A1A1"/>
<rect x="150.468" y="5.78711" width="5.78723" height="5.78723" fill="#A1A1A1"/>
<rect x="121.532" y="266.213" width="5.78723" height="5.78723" transform="rotate(180 121.532 266.213)" fill="#A1A1A1"/>
<rect x="214.128" y="5.78711" width="5.78723" height="5.78723" fill="#A1A1A1"/>
<rect x="57.8721" y="266.213" width="5.78723" height="5.78723" transform="rotate(180 57.8721 266.213)" fill="#A1A1A1"/>
<rect x="86.8086" y="69.4473" width="5.78723" height="5.78723" fill="#A1A1A1"/>
<rect x="185.191" y="202.553" width="5.78723" height="5.78723" transform="rotate(180 185.191 202.553)" fill="#A1A1A1"/>
<rect x="23.1484" y="69.4473" width="5.78723" height="5.78723" fill="#A1A1A1"/>
<rect x="248.852" y="202.553" width="5.78723" height="5.78723" transform="rotate(180 248.852 202.553)" fill="#A1A1A1"/>
<rect x="150.468" y="69.4473" width="5.78723" height="5.78723" fill="#A1A1A1"/>
<rect x="121.532" y="202.553" width="5.78723" height="5.78723" transform="rotate(180 121.532 202.553)" fill="#A1A1A1"/>
<rect x="214.128" y="69.4473" width="5.78723" height="5.78723" fill="#A1A1A1"/>
<rect x="57.8721" y="202.553" width="5.78723" height="5.78723" transform="rotate(180 57.8721 202.553)" fill="#A1A1A1"/>
<rect x="86.8086" y="133.107" width="5.78723" height="5.78723" fill="#A1A1A1"/>
<rect x="23.1484" y="133.107" width="5.78723" height="5.78723" fill="#A1A1A1"/>
<rect x="150.468" y="133.107" width="5.78723" height="5.78723" fill="#A1A1A1"/>
<rect x="214.128" y="133.107" width="5.78723" height="5.78723" fill="#A1A1A1"/>
<rect x="202.553" y="23.1484" width="5.78723" height="5.78723" transform="rotate(90 202.553 23.1484)" fill="#A1A1A1"/>
<rect x="69.4473" y="248.852" width="5.78723" height="5.78723" transform="rotate(-90 69.4473 248.852)" fill="#A1A1A1"/>
<rect x="11.5742" y="23.1484" width="5.78723" height="5.78723" transform="rotate(90 11.5742 23.1484)" fill="#A1A1A1"/>
<rect x="260.426" y="248.852" width="5.78723" height="5.78723" transform="rotate(-90 260.426 248.852)" fill="#A1A1A1"/>
<rect x="266.213" y="23.1484" width="5.78723" height="5.78723" transform="rotate(90 266.213 23.1484)" fill="#A1A1A1"/>
<rect x="5.78711" y="248.852" width="5.78723" height="5.78723" transform="rotate(-90 5.78711 248.852)" fill="#A1A1A1"/>
<rect x="75.2334" y="23.1484" width="5.78723" height="5.78723" transform="rotate(90 75.2334 23.1484)" fill="#A1A1A1"/>
<rect x="196.766" y="248.852" width="5.78723" height="5.78723" transform="rotate(-90 196.766 248.852)" fill="#A1A1A1"/>
<rect x="138.894" y="109.957" width="5.78723" height="5.78723" transform="rotate(90 138.894 109.957)" fill="#A1A1A1"/>
<rect x="133.106" y="162.043" width="5.78723" height="5.78723" transform="rotate(-90 133.106 162.043)" fill="#A1A1A1"/>
<rect x="202.553" y="109.957" width="5.78723" height="5.78723" transform="rotate(90 202.553 109.957)" fill="#A1A1A1"/>
<rect x="69.4473" y="162.043" width="5.78723" height="5.78723" transform="rotate(-90 69.4473 162.043)" fill="#A1A1A1"/>
<rect x="11.5742" y="109.957" width="5.78723" height="5.78723" transform="rotate(90 11.5742 109.957)" fill="#A1A1A1"/>
<rect x="260.426" y="162.043" width="5.78723" height="5.78723" transform="rotate(-90 260.426 162.043)" fill="#A1A1A1"/>
<rect x="266.213" y="109.957" width="5.78723" height="5.78723" transform="rotate(90 266.213 109.957)" fill="#A1A1A1"/>
<rect x="5.78711" y="162.043" width="5.78723" height="5.78723" transform="rotate(-90 5.78711 162.043)" fill="#A1A1A1"/>
<rect x="75.2334" y="109.957" width="5.78723" height="5.78723" transform="rotate(90 75.2334 109.957)" fill="#A1A1A1"/>
<rect x="196.766" y="162.043" width="5.78723" height="5.78723" transform="rotate(-90 196.766 162.043)" fill="#A1A1A1"/>
<rect x="138.894" y="46.2969" width="5.78723" height="5.78723" transform="rotate(90 138.894 46.2969)" fill="#A1A1A1"/>
<rect x="133.106" y="225.703" width="5.78723" height="5.78723" transform="rotate(-90 133.106 225.703)" fill="#A1A1A1"/>
<rect x="109.957" y="5.78711" width="5.78723" height="5.78723" fill="#A1A1A1"/>
<rect x="162.043" y="266.213" width="5.78723" height="5.78723" transform="rotate(180 162.043 266.213)" fill="#A1A1A1"/>
<rect x="46.2979" y="5.78711" width="5.78723" height="5.78723" fill="#A1A1A1"/>
<rect x="225.702" y="266.213" width="5.78723" height="5.78723" transform="rotate(180 225.702 266.213)" fill="#A1A1A1"/>
<rect x="173.617" y="5.78711" width="5.78723" height="5.78723" fill="#A1A1A1"/>
<rect x="98.3828" y="266.213" width="5.78723" height="5.78723" transform="rotate(180 98.3828 266.213)" fill="#A1A1A1"/>
<rect x="237.276" y="5.78711" width="5.78723" height="5.78723" fill="#A1A1A1"/>
<rect x="34.7227" y="266.213" width="5.78723" height="5.78723" transform="rotate(180 34.7227 266.213)" fill="#A1A1A1"/>
<rect x="109.957" y="69.4473" width="5.78723" height="5.78723" fill="#A1A1A1"/>
<rect x="162.043" y="202.553" width="5.78723" height="5.78723" transform="rotate(180 162.043 202.553)" fill="#A1A1A1"/>
<rect x="46.2979" y="69.4473" width="5.78723" height="5.78723" fill="#A1A1A1"/>
<rect x="225.702" y="202.553" width="5.78723" height="5.78723" transform="rotate(180 225.702 202.553)" fill="#A1A1A1"/>
<rect x="173.617" y="69.4473" width="5.78723" height="5.78723" fill="#A1A1A1"/>
<rect x="98.3828" y="202.553" width="5.78723" height="5.78723" transform="rotate(180 98.3828 202.553)" fill="#A1A1A1"/>
<rect x="237.276" y="69.4473" width="5.78723" height="5.78723" fill="#A1A1A1"/>
<rect x="34.7227" y="202.553" width="5.78723" height="5.78723" transform="rotate(180 34.7227 202.553)" fill="#A1A1A1"/>
<rect x="109.957" y="133.107" width="5.78723" height="5.78723" fill="#A1A1A1"/>
<rect x="46.2979" y="133.107" width="5.78723" height="5.78723" fill="#A1A1A1"/>
<rect x="173.617" y="133.107" width="5.78723" height="5.78723" fill="#A1A1A1"/>
<rect x="237.276" y="133.107" width="5.78723" height="5.78723" fill="#A1A1A1"/>
<rect x="202.553" y="46.2969" width="5.78723" height="5.78723" transform="rotate(90 202.553 46.2969)" fill="#A1A1A1"/>
<rect x="69.4473" y="225.703" width="5.78723" height="5.78723" transform="rotate(-90 69.4473 225.703)" fill="#A1A1A1"/>
<rect x="11.5742" y="46.2969" width="5.78723" height="5.78723" transform="rotate(90 11.5742 46.2969)" fill="#A1A1A1"/>
<rect x="260.426" y="225.703" width="5.78723" height="5.78723" transform="rotate(-90 260.426 225.703)" fill="#A1A1A1"/>
<rect x="266.213" y="46.2969" width="5.78723" height="5.78723" transform="rotate(90 266.213 46.2969)" fill="#A1A1A1"/>
<rect x="5.78711" y="225.703" width="5.78723" height="5.78723" transform="rotate(-90 5.78711 225.703)" fill="#A1A1A1"/>
<rect x="75.2334" y="46.2969" width="5.78723" height="5.78723" transform="rotate(90 75.2334 46.2969)" fill="#A1A1A1"/>
<rect x="196.766" y="225.703" width="5.78723" height="5.78723" transform="rotate(-90 196.766 225.703)" fill="#A1A1A1"/>
<rect x="138.894" y="81.0215" width="5.78723" height="5.78723" transform="rotate(90 138.894 81.0215)" fill="#A1A1A1"/>
<rect x="133.106" y="190.979" width="5.78723" height="5.78723" transform="rotate(-90 133.106 190.979)" fill="#A1A1A1"/>
<rect x="202.553" y="81.0215" width="5.78723" height="5.78723" transform="rotate(90 202.553 81.0215)" fill="#A1A1A1"/>
<rect x="75.2334" y="81.0215" width="5.78723" height="5.78723" transform="rotate(90 75.2334 81.0215)" fill="#A1A1A1"/>
<rect x="69.4473" y="190.979" width="5.78723" height="5.78723" transform="rotate(-90 69.4473 190.979)" fill="#A1A1A1"/>
<rect x="11.5742" y="81.0215" width="5.78723" height="5.78723" transform="rotate(90 11.5742 81.0215)" fill="#A1A1A1"/>
<rect x="260.426" y="190.979" width="5.78723" height="5.78723" transform="rotate(-90 260.426 190.979)" fill="#A1A1A1"/>
<rect x="266.213" y="81.0215" width="5.78723" height="5.78723" transform="rotate(90 266.213 81.0215)" fill="#A1A1A1"/>
<rect x="5.78711" y="190.979" width="5.78723" height="5.78723" transform="rotate(-90 5.78711 190.979)" fill="#A1A1A1"/>
<rect x="196.766" y="190.979" width="5.78723" height="5.78723" transform="rotate(-90 196.766 190.979)" fill="#A1A1A1"/>
<rect x="138.894" y="17.3613" width="5.78723" height="5.78723" transform="rotate(90 138.894 17.3613)" fill="#A1A1A1"/>
<rect x="133.106" y="254.639" width="5.78723" height="5.78723" transform="rotate(-90 133.106 254.639)" fill="#A1A1A1"/>
<rect x="81.0215" y="5.78711" width="5.78723" height="5.78723" fill="#A1A1A1"/>
<rect x="190.979" y="266.213" width="5.78723" height="5.78723" transform="rotate(180 190.979 266.213)" fill="#A1A1A1"/>
<rect x="17.3623" y="5.78711" width="5.78723" height="5.78723" fill="#A1A1A1"/>
<rect x="254.638" y="266.213" width="5.78723" height="5.78723" transform="rotate(180 254.638 266.213)" fill="#A1A1A1"/>
<rect x="144.681" y="5.78711" width="5.78723" height="5.78723" fill="#A1A1A1"/>
<rect x="127.319" y="266.213" width="5.78723" height="5.78723" transform="rotate(180 127.319 266.213)" fill="#A1A1A1"/>
<rect x="208.341" y="5.78711" width="5.78723" height="5.78723" fill="#A1A1A1"/>
<rect x="63.6592" y="266.213" width="5.78723" height="5.78723" transform="rotate(180 63.6592 266.213)" fill="#A1A1A1"/>
<rect x="190.979" y="202.553" width="5.78723" height="5.78723" transform="rotate(180 190.979 202.553)" fill="#A1A1A1"/>
<rect x="17.3623" y="69.4473" width="5.78723" height="5.78723" fill="#A1A1A1"/>
<rect x="254.638" y="202.553" width="5.78723" height="5.78723" transform="rotate(180 254.638 202.553)" fill="#A1A1A1"/>
<rect x="144.681" y="69.4473" width="5.78723" height="5.78723" fill="#A1A1A1"/>
<rect x="127.319" y="202.553" width="5.78723" height="5.78723" transform="rotate(180 127.319 202.553)" fill="#A1A1A1"/>
<rect x="208.341" y="69.4473" width="5.78723" height="5.78723" fill="#A1A1A1"/>
<rect x="81.0215" y="69.4473" width="5.78723" height="5.78723" fill="#A1A1A1"/>
<rect x="63.6592" y="202.553" width="5.78723" height="5.78723" transform="rotate(180 63.6592 202.553)" fill="#A1A1A1"/>
<rect x="81.0215" y="133.107" width="5.78723" height="5.78723" fill="#A1A1A1"/>
<rect x="17.3623" y="133.107" width="5.78723" height="5.78723" fill="#A1A1A1"/>
<rect x="144.681" y="133.107" width="5.78723" height="5.78723" fill="#A1A1A1"/>
<rect x="208.341" y="133.107" width="5.78723" height="5.78723" fill="#A1A1A1"/>
<rect x="202.553" y="17.3613" width="5.78723" height="5.78723" transform="rotate(90 202.553 17.3613)" fill="#A1A1A1"/>
<rect x="69.4473" y="254.639" width="5.78723" height="5.78723" transform="rotate(-90 69.4473 254.639)" fill="#A1A1A1"/>
<rect x="11.5742" y="17.3613" width="5.78723" height="5.78723" transform="rotate(90 11.5742 17.3613)" fill="#A1A1A1"/>
<rect x="260.426" y="254.639" width="5.78723" height="5.78723" transform="rotate(-90 260.426 254.639)" fill="#A1A1A1"/>
<rect x="266.213" y="17.3613" width="5.78723" height="5.78723" transform="rotate(90 266.213 17.3613)" fill="#A1A1A1"/>
<rect x="5.78711" y="254.639" width="5.78723" height="5.78723" transform="rotate(-90 5.78711 254.639)" fill="#A1A1A1"/>
<rect x="75.2334" y="17.3613" width="5.78723" height="5.78723" transform="rotate(90 75.2334 17.3613)" fill="#A1A1A1"/>
<rect x="196.766" y="254.639" width="5.78723" height="5.78723" transform="rotate(-90 196.766 254.639)" fill="#A1A1A1"/>
<rect x="138.894" y="104.17" width="5.78723" height="5.78723" transform="rotate(90 138.894 104.17)" fill="#A1A1A1"/>
<rect x="133.106" y="167.83" width="5.78723" height="5.78723" transform="rotate(-90 133.106 167.83)" fill="#A1A1A1"/>
<rect x="202.553" y="104.17" width="5.78723" height="5.78723" transform="rotate(90 202.553 104.17)" fill="#A1A1A1"/>
<rect x="69.4473" y="167.83" width="5.78723" height="5.78723" transform="rotate(-90 69.4473 167.83)" fill="#A1A1A1"/>
<rect x="11.5742" y="104.17" width="5.78723" height="5.78723" transform="rotate(90 11.5742 104.17)" fill="#A1A1A1"/>
<rect x="260.426" y="167.83" width="5.78723" height="5.78723" transform="rotate(-90 260.426 167.83)" fill="#A1A1A1"/>
<rect x="266.213" y="104.17" width="5.78723" height="5.78723" transform="rotate(90 266.213 104.17)" fill="#A1A1A1"/>
<rect x="5.78711" y="167.83" width="5.78723" height="5.78723" transform="rotate(-90 5.78711 167.83)" fill="#A1A1A1"/>
<rect x="75.2334" y="104.17" width="5.78723" height="5.78723" transform="rotate(90 75.2334 104.17)" fill="#A1A1A1"/>
<rect x="196.766" y="167.83" width="5.78723" height="5.78723" transform="rotate(-90 196.766 167.83)" fill="#A1A1A1"/>
<rect x="138.894" y="40.5117" width="5.78723" height="5.78723" transform="rotate(90 138.894 40.5117)" fill="#A1A1A1"/>
<rect x="133.106" y="231.488" width="5.78723" height="5.78723" transform="rotate(-90 133.106 231.488)" fill="#A1A1A1"/>
<rect x="104.17" y="5.78711" width="5.78723" height="5.78723" fill="#A1A1A1"/>
<rect x="167.83" y="266.213" width="5.78723" height="5.78723" transform="rotate(180 167.83 266.213)" fill="#A1A1A1"/>
<rect x="40.5107" y="5.78711" width="5.78723" height="5.78723" fill="#A1A1A1"/>
<rect x="231.489" y="266.213" width="5.78723" height="5.78723" transform="rotate(180 231.489 266.213)" fill="#A1A1A1"/>
<rect x="167.83" y="5.78711" width="5.78723" height="5.78723" fill="#A1A1A1"/>
<rect x="104.17" y="266.213" width="5.78723" height="5.78723" transform="rotate(180 104.17 266.213)" fill="#A1A1A1"/>
<rect x="231.489" y="5.78711" width="5.78723" height="5.78723" fill="#A1A1A1"/>
<rect x="40.5107" y="266.213" width="5.78723" height="5.78723" transform="rotate(180 40.5107 266.213)" fill="#A1A1A1"/>
<rect x="104.17" y="69.4473" width="5.78723" height="5.78723" fill="#A1A1A1"/>
<rect x="167.83" y="202.553" width="5.78723" height="5.78723" transform="rotate(180 167.83 202.553)" fill="#A1A1A1"/>
<rect x="40.5107" y="69.4473" width="5.78723" height="5.78723" fill="#A1A1A1"/>
<rect x="231.489" y="202.553" width="5.78723" height="5.78723" transform="rotate(180 231.489 202.553)" fill="#A1A1A1"/>
<rect x="167.83" y="69.4473" width="5.78723" height="5.78723" fill="#A1A1A1"/>
<rect x="104.17" y="202.553" width="5.78723" height="5.78723" transform="rotate(180 104.17 202.553)" fill="#A1A1A1"/>
<rect x="231.489" y="69.4473" width="5.78723" height="5.78723" fill="#A1A1A1"/>
<rect x="40.5107" y="202.553" width="5.78723" height="5.78723" transform="rotate(180 40.5107 202.553)" fill="#A1A1A1"/>
<rect x="104.17" y="133.107" width="5.78723" height="5.78723" fill="#A1A1A1"/>
<rect x="40.5107" y="133.107" width="5.78723" height="5.78723" fill="#A1A1A1"/>
<rect x="167.83" y="133.107" width="5.78723" height="5.78723" fill="#A1A1A1"/>
<rect x="231.489" y="133.107" width="5.78723" height="5.78723" fill="#A1A1A1"/>
<rect x="202.553" y="40.5117" width="5.78723" height="5.78723" transform="rotate(90 202.553 40.5117)" fill="#A1A1A1"/>
<rect x="69.4473" y="231.488" width="5.78723" height="5.78723" transform="rotate(-90 69.4473 231.488)" fill="#A1A1A1"/>
<rect x="11.5742" y="40.5117" width="5.78723" height="5.78723" transform="rotate(90 11.5742 40.5117)" fill="#A1A1A1"/>
<rect x="260.426" y="231.488" width="5.78723" height="5.78723" transform="rotate(-90 260.426 231.488)" fill="#A1A1A1"/>
<rect x="266.213" y="40.5117" width="5.78723" height="5.78723" transform="rotate(90 266.213 40.5117)" fill="#A1A1A1"/>
<rect x="5.78711" y="231.488" width="5.78723" height="5.78723" transform="rotate(-90 5.78711 231.488)" fill="#A1A1A1"/>
<rect x="75.2334" y="40.5117" width="5.78723" height="5.78723" transform="rotate(90 75.2334 40.5117)" fill="#A1A1A1"/>
<rect x="196.766" y="231.488" width="5.78723" height="5.78723" transform="rotate(-90 196.766 231.488)" fill="#A1A1A1"/>
<rect x="138.894" y="92.5957" width="5.78723" height="5.78723" transform="rotate(90 138.894 92.5957)" fill="#A1A1A1"/>
<rect x="133.106" y="179.404" width="5.78723" height="5.78723" transform="rotate(-90 133.106 179.404)" fill="#A1A1A1"/>
<rect x="202.553" y="92.5957" width="5.78723" height="5.78723" transform="rotate(90 202.553 92.5957)" fill="#A1A1A1"/>
<rect x="69.4473" y="179.404" width="5.78723" height="5.78723" transform="rotate(-90 69.4473 179.404)" fill="#A1A1A1"/>
<rect x="11.5742" y="92.5957" width="5.78723" height="5.78723" transform="rotate(90 11.5742 92.5957)" fill="#A1A1A1"/>
<rect x="260.426" y="179.404" width="5.78723" height="5.78723" transform="rotate(-90 260.426 179.404)" fill="#A1A1A1"/>
<rect x="266.213" y="92.5957" width="5.78723" height="5.78723" transform="rotate(90 266.213 92.5957)" fill="#A1A1A1"/>
<rect x="5.78711" y="179.404" width="5.78723" height="5.78723" transform="rotate(-90 5.78711 179.404)" fill="#A1A1A1"/>
<rect x="75.2334" y="92.5957" width="5.78723" height="5.78723" transform="rotate(90 75.2334 92.5957)" fill="#A1A1A1"/>
<rect x="196.766" y="179.404" width="5.78723" height="5.78723" transform="rotate(-90 196.766 179.404)" fill="#A1A1A1"/>
<rect x="138.894" y="28.9355" width="5.78723" height="5.78723" transform="rotate(90 138.894 28.9355)" fill="#A1A1A1"/>
<rect x="133.106" y="243.064" width="5.78723" height="5.78723" transform="rotate(-90 133.106 243.064)" fill="#A1A1A1"/>
<rect x="92.5957" y="5.78711" width="5.78723" height="5.78723" fill="#A1A1A1"/>
<rect x="179.404" y="266.213" width="5.78723" height="5.78723" transform="rotate(180 179.404 266.213)" fill="#A1A1A1"/>
<rect x="28.9365" y="5.78711" width="5.78723" height="5.78723" fill="#A1A1A1"/>
<rect x="243.063" y="266.213" width="5.78723" height="5.78723" transform="rotate(180 243.063 266.213)" fill="#A1A1A1"/>
<rect x="156.255" y="5.78711" width="5.78723" height="5.78723" fill="#A1A1A1"/>
<rect x="115.744" y="266.213" width="5.78723" height="5.78723" transform="rotate(180 115.744 266.213)" fill="#A1A1A1"/>
<rect x="219.915" y="5.78711" width="5.78723" height="5.78723" fill="#A1A1A1"/>
<rect x="52.085" y="266.213" width="5.78723" height="5.78723" transform="rotate(180 52.085 266.213)" fill="#A1A1A1"/>
<rect x="92.5957" y="69.4473" width="5.78723" height="5.78723" fill="#A1A1A1"/>
<rect x="179.404" y="202.553" width="5.78723" height="5.78723" transform="rotate(180 179.404 202.553)" fill="#A1A1A1"/>
<rect x="28.9365" y="69.4473" width="5.78723" height="5.78723" fill="#A1A1A1"/>
<rect x="243.063" y="202.553" width="5.78723" height="5.78723" transform="rotate(180 243.063 202.553)" fill="#A1A1A1"/>
<rect x="156.255" y="69.4473" width="5.78723" height="5.78723" fill="#A1A1A1"/>
<rect x="115.744" y="202.553" width="5.78723" height="5.78723" transform="rotate(180 115.744 202.553)" fill="#A1A1A1"/>
<rect x="219.915" y="69.4473" width="5.78723" height="5.78723" fill="#A1A1A1"/>
<rect x="52.085" y="202.553" width="5.78723" height="5.78723" transform="rotate(180 52.085 202.553)" fill="#A1A1A1"/>
<rect x="92.5957" y="133.107" width="5.78723" height="5.78723" fill="#A1A1A1"/>
<rect x="28.9365" y="133.107" width="5.78723" height="5.78723" fill="#A1A1A1"/>
<rect x="156.255" y="133.107" width="5.78723" height="5.78723" fill="#A1A1A1"/>
<rect x="219.915" y="133.107" width="5.78723" height="5.78723" fill="#A1A1A1"/>
<rect x="202.553" y="28.9355" width="5.78723" height="5.78723" transform="rotate(90 202.553 28.9355)" fill="#A1A1A1"/>
<rect x="69.4473" y="243.064" width="5.78723" height="5.78723" transform="rotate(-90 69.4473 243.064)" fill="#A1A1A1"/>
<rect x="11.5742" y="28.9355" width="5.78723" height="5.78723" transform="rotate(90 11.5742 28.9355)" fill="#A1A1A1"/>
<rect x="260.426" y="243.064" width="5.78723" height="5.78723" transform="rotate(-90 260.426 243.064)" fill="#A1A1A1"/>
<rect x="266.213" y="28.9355" width="5.78723" height="5.78723" transform="rotate(90 266.213 28.9355)" fill="#A1A1A1"/>
<rect x="5.78711" y="243.064" width="5.78723" height="5.78723" transform="rotate(-90 5.78711 243.064)" fill="#A1A1A1"/>
<rect x="75.2334" y="28.9355" width="5.78723" height="5.78723" transform="rotate(90 75.2334 28.9355)" fill="#A1A1A1"/>
<rect x="196.766" y="243.064" width="5.78723" height="5.78723" transform="rotate(-90 196.766 243.064)" fill="#A1A1A1"/>
<rect x="138.894" y="115.744" width="5.78723" height="5.78723" transform="rotate(90 138.894 115.744)" fill="#A1A1A1"/>
<rect x="133.106" y="156.256" width="5.78723" height="5.78723" transform="rotate(-90 133.106 156.256)" fill="#A1A1A1"/>
<rect x="202.553" y="115.744" width="5.78723" height="5.78723" transform="rotate(90 202.553 115.744)" fill="#A1A1A1"/>
<rect x="69.4473" y="156.256" width="5.78723" height="5.78723" transform="rotate(-90 69.4473 156.256)" fill="#A1A1A1"/>
<rect x="11.5742" y="115.744" width="5.78723" height="5.78723" transform="rotate(90 11.5742 115.744)" fill="#A1A1A1"/>
<rect x="260.426" y="156.256" width="5.78723" height="5.78723" transform="rotate(-90 260.426 156.256)" fill="#A1A1A1"/>
<rect x="266.213" y="115.744" width="5.78723" height="5.78723" transform="rotate(90 266.213 115.744)" fill="#A1A1A1"/>
<rect x="5.78711" y="156.256" width="5.78723" height="5.78723" transform="rotate(-90 5.78711 156.256)" fill="#A1A1A1"/>
<rect x="75.2334" y="115.744" width="5.78723" height="5.78723" transform="rotate(90 75.2334 115.744)" fill="#A1A1A1"/>
<rect x="196.766" y="156.256" width="5.78723" height="5.78723" transform="rotate(-90 196.766 156.256)" fill="#A1A1A1"/>
<rect x="138.894" y="52.0859" width="5.78723" height="5.78723" transform="rotate(90 138.894 52.0859)" fill="#A1A1A1"/>
<rect x="133.106" y="219.914" width="5.78723" height="5.78723" transform="rotate(-90 133.106 219.914)" fill="#A1A1A1"/>
<rect x="115.744" y="5.78711" width="5.78723" height="5.78723" fill="#A1A1A1"/>
<rect x="156.255" y="266.213" width="5.78723" height="5.78723" transform="rotate(180 156.255 266.213)" fill="#A1A1A1"/>
<rect x="52.085" y="5.78711" width="5.78723" height="5.78723" fill="#A1A1A1"/>
<rect x="219.915" y="266.213" width="5.78723" height="5.78723" transform="rotate(180 219.915 266.213)" fill="#A1A1A1"/>
<rect x="179.404" y="5.78711" width="5.78723" height="5.78723" fill="#A1A1A1"/>
<rect x="92.5957" y="266.213" width="5.78723" height="5.78723" transform="rotate(180 92.5957 266.213)" fill="#A1A1A1"/>
<rect x="243.063" y="5.78711" width="5.78723" height="5.78723" fill="#A1A1A1"/>
<rect x="28.9365" y="266.213" width="5.78723" height="5.78723" transform="rotate(180 28.9365 266.213)" fill="#A1A1A1"/>
<rect x="115.744" y="69.4473" width="5.78723" height="5.78723" fill="#A1A1A1"/>
<rect x="156.255" y="202.553" width="5.78723" height="5.78723" transform="rotate(180 156.255 202.553)" fill="#A1A1A1"/>
<rect x="219.915" y="202.553" width="5.78723" height="5.78723" transform="rotate(180 219.915 202.553)" fill="#A1A1A1"/>
<rect x="179.404" y="69.4473" width="5.78723" height="5.78723" fill="#A1A1A1"/>
<rect x="52.085" y="69.4473" width="5.78723" height="5.78723" fill="#A1A1A1"/>
<rect x="92.5957" y="202.553" width="5.78723" height="5.78723" transform="rotate(180 92.5957 202.553)" fill="#A1A1A1"/>
<rect x="243.063" y="69.4473" width="5.78723" height="5.78723" fill="#A1A1A1"/>
<rect x="28.9365" y="202.553" width="5.78723" height="5.78723" transform="rotate(180 28.9365 202.553)" fill="#A1A1A1"/>
<rect x="115.744" y="133.107" width="5.78723" height="5.78723" fill="#A1A1A1"/>
<rect x="52.085" y="133.107" width="5.78723" height="5.78723" fill="#A1A1A1"/>
<rect x="179.404" y="133.107" width="5.78723" height="5.78723" fill="#A1A1A1"/>
<rect x="243.063" y="133.107" width="5.78723" height="5.78723" fill="#A1A1A1"/>
<rect x="202.553" y="52.0859" width="5.78723" height="5.78723" transform="rotate(90 202.553 52.0859)" fill="#A1A1A1"/>
<rect x="69.4473" y="219.914" width="5.78723" height="5.78723" transform="rotate(-90 69.4473 219.914)" fill="#A1A1A1"/>
<rect x="11.5742" y="52.0859" width="5.78723" height="5.78723" transform="rotate(90 11.5742 52.0859)" fill="#A1A1A1"/>
<rect x="260.426" y="219.914" width="5.78723" height="5.78723" transform="rotate(-90 260.426 219.914)" fill="#A1A1A1"/>
<rect x="266.213" y="52.0859" width="5.78723" height="5.78723" transform="rotate(90 266.213 52.0859)" fill="#A1A1A1"/>
<rect x="5.78711" y="219.914" width="5.78723" height="5.78723" transform="rotate(-90 5.78711 219.914)" fill="#A1A1A1"/>
<rect x="75.2334" y="52.0859" width="5.78723" height="5.78723" transform="rotate(90 75.2334 52.0859)" fill="#A1A1A1"/>
<rect x="196.766" y="219.914" width="5.78723" height="5.78723" transform="rotate(-90 196.766 219.914)" fill="#A1A1A1"/>
<rect x="133.106" y="109.957" width="5.78723" height="5.78723" fill="#A1A1A1"/>
<rect x="138.894" y="162.043" width="5.78723" height="5.78723" transform="rotate(180 138.894 162.043)" fill="#A1A1A1"/>
<rect x="196.766" y="109.957" width="5.78723" height="5.78723" fill="#A1A1A1"/>
<rect x="75.2334" y="162.043" width="5.78723" height="5.78723" transform="rotate(180 75.2334 162.043)" fill="#A1A1A1"/>
<rect x="5.78711" y="109.957" width="5.78723" height="5.78723" fill="#A1A1A1"/>
<rect x="266.213" y="162.043" width="5.78723" height="5.78723" transform="rotate(180 266.213 162.043)" fill="#A1A1A1"/>
<rect x="260.426" y="109.957" width="5.78723" height="5.78723" fill="#A1A1A1"/>
<rect x="11.5742" y="162.043" width="5.78723" height="5.78723" transform="rotate(180 11.5742 162.043)" fill="#A1A1A1"/>
<rect x="69.4473" y="109.957" width="5.78723" height="5.78723" fill="#A1A1A1"/>
<rect x="202.553" y="162.043" width="5.78723" height="5.78723" transform="rotate(180 202.553 162.043)" fill="#A1A1A1"/>
<rect x="133.106" y="46.2969" width="5.78723" height="5.78723" fill="#A1A1A1"/>
<rect x="138.894" y="225.703" width="5.78723" height="5.78723" transform="rotate(180 138.894 225.703)" fill="#A1A1A1"/>
<rect x="109.957" y="11.5742" width="5.78723" height="5.78723" transform="rotate(-90 109.957 11.5742)" fill="#A1A1A1"/>
<rect x="162.043" y="260.426" width="5.78723" height="5.78723" transform="rotate(90 162.043 260.426)" fill="#A1A1A1"/>
<rect x="46.2979" y="11.5742" width="5.78723" height="5.78723" transform="rotate(-90 46.2979 11.5742)" fill="#A1A1A1"/>
<rect x="225.702" y="260.426" width="5.78723" height="5.78723" transform="rotate(90 225.702 260.426)" fill="#A1A1A1"/>
<rect x="173.617" y="11.5742" width="5.78723" height="5.78723" transform="rotate(-90 173.617 11.5742)" fill="#A1A1A1"/>
<rect x="98.3828" y="260.426" width="5.78723" height="5.78723" transform="rotate(90 98.3828 260.426)" fill="#A1A1A1"/>
<rect x="237.276" y="11.5742" width="5.78723" height="5.78723" transform="rotate(-90 237.276 11.5742)" fill="#A1A1A1"/>
<rect x="34.7227" y="260.426" width="5.78723" height="5.78723" transform="rotate(90 34.7227 260.426)" fill="#A1A1A1"/>
<rect x="109.957" y="75.2344" width="5.78723" height="5.78723" transform="rotate(-90 109.957 75.2344)" fill="#A1A1A1"/>
<rect x="162.043" y="196.766" width="5.78723" height="5.78723" transform="rotate(90 162.043 196.766)" fill="#A1A1A1"/>
<rect x="46.2979" y="75.2344" width="5.78723" height="5.78723" transform="rotate(-90 46.2979 75.2344)" fill="#A1A1A1"/>
<rect x="225.702" y="196.766" width="5.78723" height="5.78723" transform="rotate(90 225.702 196.766)" fill="#A1A1A1"/>
<rect x="173.617" y="75.2344" width="5.78723" height="5.78723" transform="rotate(-90 173.617 75.2344)" fill="#A1A1A1"/>
<rect x="98.3828" y="196.766" width="5.78723" height="5.78723" transform="rotate(90 98.3828 196.766)" fill="#A1A1A1"/>
<rect x="237.276" y="75.2344" width="5.78723" height="5.78723" transform="rotate(-90 237.276 75.2344)" fill="#A1A1A1"/>
<rect x="34.7227" y="196.766" width="5.78723" height="5.78723" transform="rotate(90 34.7227 196.766)" fill="#A1A1A1"/>
<rect x="109.957" y="138.893" width="5.78723" height="5.78723" transform="rotate(-90 109.957 138.893)" fill="#A1A1A1"/>
<rect x="46.2979" y="138.893" width="5.78723" height="5.78723" transform="rotate(-90 46.2979 138.893)" fill="#A1A1A1"/>
<rect x="173.617" y="138.893" width="5.78723" height="5.78723" transform="rotate(-90 173.617 138.893)" fill="#A1A1A1"/>
<rect x="237.276" y="138.893" width="5.78723" height="5.78723" transform="rotate(-90 237.276 138.893)" fill="#A1A1A1"/>
<rect x="196.766" y="46.2969" width="5.78723" height="5.78723" fill="#A1A1A1"/>
<rect x="75.2334" y="225.703" width="5.78723" height="5.78723" transform="rotate(180 75.2334 225.703)" fill="#A1A1A1"/>
<rect x="5.78711" y="46.2969" width="5.78723" height="5.78723" fill="#A1A1A1"/>
<rect x="266.213" y="225.703" width="5.78723" height="5.78723" transform="rotate(180 266.213 225.703)" fill="#A1A1A1"/>
<rect x="260.426" y="46.2969" width="5.78723" height="5.78723" fill="#A1A1A1"/>
<rect x="11.5742" y="225.703" width="5.78723" height="5.78723" transform="rotate(180 11.5742 225.703)" fill="#A1A1A1"/>
<rect x="69.4473" y="46.2969" width="5.78723" height="5.78723" fill="#A1A1A1"/>
<rect x="202.553" y="225.703" width="5.78723" height="5.78723" transform="rotate(180 202.553 225.703)" fill="#A1A1A1"/>
<path d="M89.6601 83.2304C88.5556 83.2304 87.6601 84.1259 87.6601 85.2304L87.6601 103.23C87.6601 104.335 88.5556 105.23 89.6601 105.23C90.7647 105.23 91.6601 104.335 91.6601 103.23L91.6601 87.2304L107.66 87.2304C108.765 87.2304 109.66 86.335 109.66 85.2304C109.66 84.1259 108.765 83.2304 107.66 83.2304L89.6601 83.2304ZM126.43 122L127.844 120.586L91.0744 83.8162L89.6601 85.2304L88.2459 86.6446L125.015 123.414L126.43 122Z" fill="white"/>
<path d="M137.414 79.5858C136.633 78.8047 135.367 78.8047 134.586 79.5858L121.858 92.3137C121.077 93.0948 121.077 94.3611 121.858 95.1421C122.639 95.9232 123.905 95.9232 124.686 95.1421L136 83.8284L147.314 95.1421C148.095 95.9232 149.361 95.9232 150.142 95.1421C150.923 94.3611 150.923 93.0948 150.142 92.3137L137.414 79.5858ZM136 121L138 121L138 81L136 81L134 81L134 121L136 121Z" fill="white"/>
<path d="M189.661 85.2304C189.661 84.1259 188.766 83.2304 187.661 83.2304L169.661 83.2304C168.557 83.2304 167.661 84.1259 167.661 85.2304C167.661 86.335 168.557 87.2304 169.661 87.2304L185.661 87.2304L185.661 103.23C185.661 104.335 186.557 105.23 187.661 105.23C188.766 105.23 189.661 104.335 189.661 103.23L189.661 85.2304ZM150.892 122L152.306 123.414L189.075 86.6447L187.661 85.2304L186.247 83.8162L149.477 120.586L150.892 122Z" fill="white"/>
<path d="M192.414 137.414C193.195 136.633 193.195 135.367 192.414 134.586L179.686 121.858C178.905 121.077 177.639 121.077 176.858 121.858C176.077 122.639 176.077 123.905 176.858 124.686L188.172 136L176.858 147.314C176.077 148.095 176.077 149.361 176.858 150.142C177.639 150.923 178.905 150.923 179.686 150.142L192.414 137.414ZM151 136V138H191V136V134H151V136Z" fill="white"/>
<path d="M80.5858 134.586C79.8047 135.367 79.8047 136.633 80.5858 137.414L93.3137 150.142C94.0948 150.923 95.3611 150.923 96.1421 150.142C96.9232 149.361 96.9232 148.095 96.1421 147.314L84.8284 136L96.1421 124.686C96.9232 123.905 96.9232 122.639 96.1421 121.858C95.3611 121.077 94.0948 121.077 93.3137 121.858L80.5858 134.586ZM122 136L122 134L82 134L82 136L82 138L122 138L122 136Z" fill="white"/>
<ellipse cx="137.008" cy="133.985" rx="12.5926" ry="12.5926" fill="white"/>
</svg>
