<svg width="270" height="270" viewBox="0 0 270 270" fill="none" xmlns="http://www.w3.org/2000/svg">
<rect x="163.93" y="130.18" width="4.82143" height="4.82143" transform="rotate(90 163.93 130.18)" fill="#A1A1A1"/>
<rect x="188.039" y="154.287" width="4.82143" height="4.82143" transform="rotate(90 188.039 154.287)" fill="#A1A1A1"/>
<rect x="212.141" y="178.393" width="4.82143" height="4.82143" transform="rotate(90 212.141 178.393)" fill="#A1A1A1"/>
<rect x="159.109" y="125.357" width="4.82143" height="4.82143" transform="rotate(90 159.109 125.357)" fill="#A1A1A1"/>
<rect x="183.219" y="149.465" width="4.82143" height="4.82143" transform="rotate(90 183.219 149.465)" fill="#A1A1A1"/>
<rect x="207.32" y="173.572" width="4.82143" height="4.82143" transform="rotate(90 207.32 173.572)" fill="#A1A1A1"/>
<rect x="135" y="101.25" width="4.82143" height="4.82143" transform="rotate(90 135 101.25)" fill="#A1A1A1"/>
<rect x="110.891" y="77.1426" width="4.82143" height="4.82143" transform="rotate(90 110.891 77.1426)" fill="#A1A1A1"/>
<rect x="154.289" y="120.537" width="4.82143" height="4.82143" transform="rotate(90 154.289 120.537)" fill="#A1A1A1"/>
<rect x="178.391" y="144.643" width="4.82143" height="4.82143" transform="rotate(90 178.391 144.643)" fill="#A1A1A1"/>
<rect x="202.5" y="168.75" width="4.82143" height="4.82143" transform="rotate(90 202.5 168.75)" fill="#A1A1A1"/>
<rect x="130.18" y="96.4297" width="4.82143" height="4.82143" transform="rotate(90 130.18 96.4297)" fill="#A1A1A1"/>
<rect x="106.07" y="72.3223" width="4.82143" height="4.82143" transform="rotate(90 106.07 72.3223)" fill="#A1A1A1"/>
<rect x="149.469" y="115.715" width="4.82143" height="4.82143" transform="rotate(90 149.469 115.715)" fill="#A1A1A1"/>
<rect x="173.57" y="139.822" width="4.82143" height="4.82143" transform="rotate(90 173.57 139.822)" fill="#A1A1A1"/>
<rect x="197.68" y="163.93" width="4.82143" height="4.82143" transform="rotate(90 197.68 163.93)" fill="#A1A1A1"/>
<rect x="125.359" y="91.6074" width="4.82143" height="4.82143" transform="rotate(90 125.359 91.6074)" fill="#A1A1A1"/>
<rect x="101.25" y="67.5" width="4.82143" height="4.82143" transform="rotate(90 101.25 67.5)" fill="#A1A1A1"/>
<rect x="144.641" y="110.893" width="4.82143" height="4.82143" transform="rotate(90 144.641 110.893)" fill="#A1A1A1"/>
<rect x="168.75" y="135" width="4.82143" height="4.82143" transform="rotate(90 168.75 135)" fill="#A1A1A1"/>
<rect x="192.859" y="159.107" width="4.82143" height="4.82143" transform="rotate(90 192.859 159.107)" fill="#A1A1A1"/>
<rect x="120.539" y="86.7871" width="4.82143" height="4.82143" transform="rotate(90 120.539 86.7871)" fill="#A1A1A1"/>
<rect x="96.4297" y="62.6797" width="4.82143" height="4.82143" transform="rotate(90 96.4297 62.6797)" fill="#A1A1A1"/>
<rect x="139.82" y="106.072" width="4.82143" height="4.82143" transform="rotate(90 139.82 106.072)" fill="#A1A1A1"/>
<rect x="115.719" y="81.9648" width="4.82143" height="4.82143" transform="rotate(90 115.719 81.9648)" fill="#A1A1A1"/>
<rect x="91.6094" y="57.8574" width="4.82143" height="4.82143" transform="rotate(90 91.6094 57.8574)" fill="#A1A1A1"/>
<rect x="135" y="110.893" width="4.82143" height="4.82143" transform="rotate(90 135 110.893)" fill="#A1A1A1"/>
<rect x="110.891" y="86.7871" width="4.82143" height="4.82143" transform="rotate(90 110.891 86.7871)" fill="#A1A1A1"/>
<rect x="86.7891" y="62.6797" width="4.82143" height="4.82143" transform="rotate(90 86.7891 62.6797)" fill="#A1A1A1"/>
<rect x="130.18" y="115.715" width="4.82143" height="4.82143" transform="rotate(90 130.18 115.715)" fill="#A1A1A1"/>
<rect x="106.07" y="91.6074" width="4.82143" height="4.82143" transform="rotate(90 106.07 91.6074)" fill="#A1A1A1"/>
<rect x="81.9688" y="67.5" width="4.82143" height="4.82143" transform="rotate(90 81.9688 67.5)" fill="#A1A1A1"/>
<rect x="125.359" y="120.537" width="4.82143" height="4.82143" transform="rotate(90 125.359 120.537)" fill="#A1A1A1"/>
<rect x="101.25" y="96.4297" width="4.82143" height="4.82143" transform="rotate(90 101.25 96.4297)" fill="#A1A1A1"/>
<rect x="77.1406" y="72.3223" width="4.82143" height="4.82143" transform="rotate(90 77.1406 72.3223)" fill="#A1A1A1"/>
<rect x="120.539" y="125.357" width="4.82143" height="4.82143" transform="rotate(90 120.539 125.357)" fill="#A1A1A1"/>
<rect x="96.4297" y="101.25" width="4.82143" height="4.82143" transform="rotate(90 96.4297 101.25)" fill="#A1A1A1"/>
<rect x="72.3203" y="77.1426" width="4.82143" height="4.82143" transform="rotate(90 72.3203 77.1426)" fill="#A1A1A1"/>
<rect x="115.719" y="130.18" width="4.82143" height="4.82143" transform="rotate(90 115.719 130.18)" fill="#A1A1A1"/>
<rect x="91.6094" y="106.072" width="4.82143" height="4.82143" transform="rotate(90 91.6094 106.072)" fill="#A1A1A1"/>
<rect x="67.5" y="81.9648" width="4.82143" height="4.82143" transform="rotate(90 67.5 81.9648)" fill="#A1A1A1"/>
<rect x="120.539" y="135" width="4.82143" height="4.82143" transform="rotate(90 120.539 135)" fill="#A1A1A1"/>
<rect x="144.641" y="159.107" width="4.82143" height="4.82143" transform="rotate(90 144.641 159.107)" fill="#A1A1A1"/>
<rect x="168.75" y="183.215" width="4.82143" height="4.82143" transform="rotate(90 168.75 183.215)" fill="#A1A1A1"/>
<rect x="96.4297" y="110.893" width="4.82143" height="4.82143" transform="rotate(90 96.4297 110.893)" fill="#A1A1A1"/>
<rect x="72.3203" y="86.7871" width="4.82143" height="4.82143" transform="rotate(90 72.3203 86.7871)" fill="#A1A1A1"/>
<rect x="125.359" y="139.822" width="4.82143" height="4.82143" transform="rotate(90 125.359 139.822)" fill="#A1A1A1"/>
<rect x="149.469" y="163.93" width="4.82143" height="4.82143" transform="rotate(90 149.469 163.93)" fill="#A1A1A1"/>
<rect x="173.57" y="188.037" width="4.82143" height="4.82143" transform="rotate(90 173.57 188.037)" fill="#A1A1A1"/>
<rect x="101.25" y="115.715" width="4.82143" height="4.82143" transform="rotate(90 101.25 115.715)" fill="#A1A1A1"/>
<rect x="77.1406" y="91.6074" width="4.82143" height="4.82143" transform="rotate(90 77.1406 91.6074)" fill="#A1A1A1"/>
<rect x="130.18" y="144.643" width="4.82143" height="4.82143" transform="rotate(90 130.18 144.643)" fill="#A1A1A1"/>
<rect x="154.289" y="168.75" width="4.82143" height="4.82143" transform="rotate(90 154.289 168.75)" fill="#A1A1A1"/>
<rect x="178.391" y="192.857" width="4.82143" height="4.82143" transform="rotate(90 178.391 192.857)" fill="#A1A1A1"/>
<rect x="106.07" y="120.537" width="4.82143" height="4.82143" transform="rotate(90 106.07 120.537)" fill="#A1A1A1"/>
<rect x="81.9688" y="96.4297" width="4.82143" height="4.82143" transform="rotate(90 81.9688 96.4297)" fill="#A1A1A1"/>
<rect x="135" y="149.465" width="4.82143" height="4.82143" transform="rotate(90 135 149.465)" fill="#A1A1A1"/>
<rect x="159.109" y="173.572" width="4.82143" height="4.82143" transform="rotate(90 159.109 173.572)" fill="#A1A1A1"/>
<rect x="183.219" y="197.68" width="4.82143" height="4.82143" transform="rotate(90 183.219 197.68)" fill="#A1A1A1"/>
<rect x="110.891" y="125.357" width="4.82143" height="4.82143" transform="rotate(90 110.891 125.357)" fill="#A1A1A1"/>
<rect x="86.7891" y="101.25" width="4.82143" height="4.82143" transform="rotate(90 86.7891 101.25)" fill="#A1A1A1"/>
<rect x="139.82" y="154.287" width="4.82143" height="4.82143" transform="rotate(90 139.82 154.287)" fill="#A1A1A1"/>
<rect x="163.93" y="178.393" width="4.82143" height="4.82143" transform="rotate(90 163.93 178.393)" fill="#A1A1A1"/>
<rect x="188.039" y="202.5" width="4.82143" height="4.82143" transform="rotate(90 188.039 202.5)" fill="#A1A1A1"/>
<rect x="144.641" y="149.465" width="4.82143" height="4.82143" transform="rotate(90 144.641 149.465)" fill="#A1A1A1"/>
<rect x="168.75" y="173.572" width="4.82143" height="4.82143" transform="rotate(90 168.75 173.572)" fill="#A1A1A1"/>
<rect x="192.859" y="197.68" width="4.82143" height="4.82143" transform="rotate(90 192.859 197.68)" fill="#A1A1A1"/>
<rect x="149.469" y="144.643" width="4.82143" height="4.82143" transform="rotate(90 149.469 144.643)" fill="#A1A1A1"/>
<rect x="173.57" y="168.75" width="4.82143" height="4.82143" transform="rotate(90 173.57 168.75)" fill="#A1A1A1"/>
<rect x="197.68" y="192.857" width="4.82143" height="4.82143" transform="rotate(90 197.68 192.857)" fill="#A1A1A1"/>
<rect x="154.289" y="139.822" width="4.82143" height="4.82143" transform="rotate(90 154.289 139.822)" fill="#A1A1A1"/>
<rect x="178.391" y="163.93" width="4.82143" height="4.82143" transform="rotate(90 178.391 163.93)" fill="#A1A1A1"/>
<rect x="202.5" y="188.037" width="4.82143" height="4.82143" transform="rotate(90 202.5 188.037)" fill="#A1A1A1"/>
<rect x="159.109" y="135" width="4.82143" height="4.82143" transform="rotate(90 159.109 135)" fill="#A1A1A1"/>
<rect x="183.219" y="159.107" width="4.82143" height="4.82143" transform="rotate(90 183.219 159.107)" fill="#A1A1A1"/>
<rect x="207.32" y="183.215" width="4.82143" height="4.82143" transform="rotate(90 207.32 183.215)" fill="#A1A1A1"/>
<rect x="188.039" y="106.072" width="4.82143" height="4.82143" transform="rotate(90 188.039 106.072)" fill="#A1A1A1"/>
<rect x="212.141" y="81.9648" width="4.82143" height="4.82143" transform="rotate(90 212.141 81.9648)" fill="#A1A1A1"/>
<rect x="212.141" y="130.18" width="4.82143" height="4.82143" transform="rotate(90 212.141 130.18)" fill="#A1A1A1"/>
<rect x="236.25" y="106.072" width="4.82143" height="4.82143" transform="rotate(90 236.25 106.072)" fill="#A1A1A1"/>
<rect x="236.25" y="154.287" width="4.82143" height="4.82143" transform="rotate(90 236.25 154.287)" fill="#A1A1A1"/>
<rect x="260.359" y="130.18" width="4.82143" height="4.82143" transform="rotate(90 260.359 130.18)" fill="#A1A1A1"/>
<rect x="183.219" y="101.25" width="4.82143" height="4.82143" transform="rotate(90 183.219 101.25)" fill="#A1A1A1"/>
<rect x="207.32" y="77.1426" width="4.82143" height="4.82143" transform="rotate(90 207.32 77.1426)" fill="#A1A1A1"/>
<rect x="207.32" y="125.357" width="4.82143" height="4.82143" transform="rotate(90 207.32 125.357)" fill="#A1A1A1"/>
<rect x="231.43" y="101.25" width="4.82143" height="4.82143" transform="rotate(90 231.43 101.25)" fill="#A1A1A1"/>
<rect x="231.43" y="149.465" width="4.82143" height="4.82143" transform="rotate(90 231.43 149.465)" fill="#A1A1A1"/>
<rect x="255.539" y="125.357" width="4.82143" height="4.82143" transform="rotate(90 255.539 125.357)" fill="#A1A1A1"/>
<rect x="178.391" y="96.4297" width="4.82143" height="4.82143" transform="rotate(90 178.391 96.4297)" fill="#A1A1A1"/>
<rect x="202.5" y="72.3223" width="4.82143" height="4.82143" transform="rotate(90 202.5 72.3223)" fill="#A1A1A1"/>
<rect x="202.5" y="120.537" width="4.82143" height="4.82143" transform="rotate(90 202.5 120.537)" fill="#A1A1A1"/>
<rect x="226.609" y="96.4297" width="4.82143" height="4.82143" transform="rotate(90 226.609 96.4297)" fill="#A1A1A1"/>
<rect x="226.609" y="144.643" width="4.82143" height="4.82143" transform="rotate(90 226.609 144.643)" fill="#A1A1A1"/>
<rect x="250.719" y="120.537" width="4.82143" height="4.82143" transform="rotate(90 250.719 120.537)" fill="#A1A1A1"/>
<rect x="173.57" y="91.6074" width="4.82143" height="4.82143" transform="rotate(90 173.57 91.6074)" fill="#A1A1A1"/>
<rect x="197.68" y="67.5" width="4.82143" height="4.82143" transform="rotate(90 197.68 67.5)" fill="#A1A1A1"/>
<rect x="197.68" y="115.715" width="4.82143" height="4.82143" transform="rotate(90 197.68 115.715)" fill="#A1A1A1"/>
<rect x="221.789" y="91.6074" width="4.82143" height="4.82143" transform="rotate(90 221.789 91.6074)" fill="#A1A1A1"/>
<rect x="221.789" y="139.822" width="4.82143" height="4.82143" transform="rotate(90 221.789 139.822)" fill="#A1A1A1"/>
<rect x="245.891" y="115.715" width="4.82143" height="4.82143" transform="rotate(90 245.891 115.715)" fill="#A1A1A1"/>
<rect x="168.75" y="86.7871" width="4.82143" height="4.82143" transform="rotate(90 168.75 86.7871)" fill="#A1A1A1"/>
<rect x="192.859" y="62.6797" width="4.82143" height="4.82143" transform="rotate(90 192.859 62.6797)" fill="#A1A1A1"/>
<rect x="192.859" y="110.893" width="4.82143" height="4.82143" transform="rotate(90 192.859 110.893)" fill="#A1A1A1"/>
<rect x="216.969" y="86.7871" width="4.82143" height="4.82143" transform="rotate(90 216.969 86.7871)" fill="#A1A1A1"/>
<rect x="216.969" y="135" width="4.82143" height="4.82143" transform="rotate(90 216.969 135)" fill="#A1A1A1"/>
<rect x="241.07" y="110.893" width="4.82143" height="4.82143" transform="rotate(90 241.07 110.893)" fill="#A1A1A1"/>
<rect x="163.93" y="81.9648" width="4.82143" height="4.82143" transform="rotate(90 163.93 81.9648)" fill="#A1A1A1"/>
<rect x="188.039" y="57.8574" width="4.82143" height="4.82143" transform="rotate(90 188.039 57.8574)" fill="#A1A1A1"/>
<rect x="159.109" y="86.7871" width="4.82143" height="4.82143" transform="rotate(90 159.109 86.7871)" fill="#A1A1A1"/>
<rect x="183.219" y="62.6797" width="4.82143" height="4.82143" transform="rotate(90 183.219 62.6797)" fill="#A1A1A1"/>
<rect x="154.289" y="91.6074" width="4.82143" height="4.82143" transform="rotate(90 154.289 91.6074)" fill="#A1A1A1"/>
<rect x="178.391" y="67.5" width="4.82143" height="4.82143" transform="rotate(90 178.391 67.5)" fill="#A1A1A1"/>
<rect x="149.469" y="96.4297" width="4.82143" height="4.82143" transform="rotate(90 149.469 96.4297)" fill="#A1A1A1"/>
<rect x="173.57" y="72.3223" width="4.82143" height="4.82143" transform="rotate(90 173.57 72.3223)" fill="#A1A1A1"/>
<rect x="144.641" y="101.25" width="4.82143" height="4.82143" transform="rotate(90 144.641 101.25)" fill="#A1A1A1"/>
<rect x="168.75" y="77.1426" width="4.82143" height="4.82143" transform="rotate(90 168.75 77.1426)" fill="#A1A1A1"/>
<rect x="168.75" y="125.357" width="4.82143" height="4.82143" transform="rotate(90 168.75 125.357)" fill="#A1A1A1"/>
<rect x="192.859" y="101.25" width="4.82143" height="4.82143" transform="rotate(90 192.859 101.25)" fill="#A1A1A1"/>
<rect x="192.859" y="149.465" width="4.82143" height="4.82143" transform="rotate(90 192.859 149.465)" fill="#A1A1A1"/>
<rect x="216.969" y="125.357" width="4.82143" height="4.82143" transform="rotate(90 216.969 125.357)" fill="#A1A1A1"/>
<rect x="216.969" y="173.572" width="4.82143" height="4.82143" transform="rotate(90 216.969 173.572)" fill="#A1A1A1"/>
<rect x="241.07" y="149.465" width="4.82143" height="4.82143" transform="rotate(90 241.07 149.465)" fill="#A1A1A1"/>
<rect x="173.57" y="120.537" width="4.82143" height="4.82143" transform="rotate(90 173.57 120.537)" fill="#A1A1A1"/>
<rect x="197.68" y="96.4297" width="4.82143" height="4.82143" transform="rotate(90 197.68 96.4297)" fill="#A1A1A1"/>
<rect x="197.68" y="144.643" width="4.82143" height="4.82143" transform="rotate(90 197.68 144.643)" fill="#A1A1A1"/>
<rect x="221.789" y="120.537" width="4.82143" height="4.82143" transform="rotate(90 221.789 120.537)" fill="#A1A1A1"/>
<rect x="221.789" y="168.75" width="4.82143" height="4.82143" transform="rotate(90 221.789 168.75)" fill="#A1A1A1"/>
<rect x="245.891" y="144.643" width="4.82143" height="4.82143" transform="rotate(90 245.891 144.643)" fill="#A1A1A1"/>
<rect x="178.391" y="115.715" width="4.82143" height="4.82143" transform="rotate(90 178.391 115.715)" fill="#A1A1A1"/>
<rect x="202.5" y="91.6074" width="4.82143" height="4.82143" transform="rotate(90 202.5 91.6074)" fill="#A1A1A1"/>
<rect x="202.5" y="139.822" width="4.82143" height="4.82143" transform="rotate(90 202.5 139.822)" fill="#A1A1A1"/>
<rect x="226.609" y="115.715" width="4.82143" height="4.82143" transform="rotate(90 226.609 115.715)" fill="#A1A1A1"/>
<rect x="226.609" y="163.93" width="4.82143" height="4.82143" transform="rotate(90 226.609 163.93)" fill="#A1A1A1"/>
<rect x="250.719" y="139.822" width="4.82143" height="4.82143" transform="rotate(90 250.719 139.822)" fill="#A1A1A1"/>
<rect x="183.219" y="110.893" width="4.82143" height="4.82143" transform="rotate(90 183.219 110.893)" fill="#A1A1A1"/>
<rect x="207.32" y="86.7871" width="4.82143" height="4.82143" transform="rotate(90 207.32 86.7871)" fill="#A1A1A1"/>
<rect x="207.32" y="135" width="4.82143" height="4.82143" transform="rotate(90 207.32 135)" fill="#A1A1A1"/>
<rect x="231.43" y="110.893" width="4.82143" height="4.82143" transform="rotate(90 231.43 110.893)" fill="#A1A1A1"/>
<rect x="231.43" y="159.107" width="4.82143" height="4.82143" transform="rotate(90 231.43 159.107)" fill="#A1A1A1"/>
<rect x="255.539" y="135" width="4.82143" height="4.82143" transform="rotate(90 255.539 135)" fill="#A1A1A1"/>
<rect x="139.82" y="154.287" width="4.82143" height="4.82143" transform="rotate(90 139.82 154.287)" fill="#A1A1A1"/>
<rect x="115.719" y="178.393" width="4.82143" height="4.82143" transform="rotate(90 115.719 178.393)" fill="#A1A1A1"/>
<rect x="62.6797" y="86.7871" width="4.82143" height="4.82143" transform="rotate(90 62.6797 86.7871)" fill="#A1A1A1"/>
<rect x="38.5703" y="110.893" width="4.82143" height="4.82143" transform="rotate(90 38.5703 110.893)" fill="#A1A1A1"/>
<rect x="57.8594" y="91.6074" width="4.82143" height="4.82143" transform="rotate(90 57.8594 91.6074)" fill="#A1A1A1"/>
<rect x="33.75" y="115.715" width="4.82143" height="4.82143" transform="rotate(90 33.75 115.715)" fill="#A1A1A1"/>
<rect x="53.0391" y="96.4297" width="4.82143" height="4.82143" transform="rotate(90 53.0391 96.4297)" fill="#A1A1A1"/>
<rect x="28.9297" y="120.537" width="4.82143" height="4.82143" transform="rotate(90 28.9297 120.537)" fill="#A1A1A1"/>
<rect x="48.2188" y="101.25" width="4.82143" height="4.82143" transform="rotate(90 48.2188 101.25)" fill="#A1A1A1"/>
<rect x="24.1094" y="125.357" width="4.82143" height="4.82143" transform="rotate(90 24.1094 125.357)" fill="#A1A1A1"/>
<rect x="43.3906" y="106.072" width="4.82143" height="4.82143" transform="rotate(90 43.3906 106.072)" fill="#A1A1A1"/>
<rect x="19.2891" y="130.18" width="4.82143" height="4.82143" transform="rotate(90 19.2891 130.18)" fill="#A1A1A1"/>
<rect x="48.2188" y="110.893" width="4.82143" height="4.82143" transform="rotate(90 48.2188 110.893)" fill="#A1A1A1"/>
<rect x="24.1094" y="135" width="4.82143" height="4.82143" transform="rotate(90 24.1094 135)" fill="#A1A1A1"/>
<rect x="72.3203" y="135" width="4.82143" height="4.82143" transform="rotate(90 72.3203 135)" fill="#A1A1A1"/>
<rect x="48.2188" y="159.107" width="4.82143" height="4.82143" transform="rotate(90 48.2188 159.107)" fill="#A1A1A1"/>
<rect x="96.4297" y="159.107" width="4.82143" height="4.82143" transform="rotate(90 96.4297 159.107)" fill="#A1A1A1"/>
<rect x="72.3203" y="183.215" width="4.82143" height="4.82143" transform="rotate(90 72.3203 183.215)" fill="#A1A1A1"/>
<rect x="53.0391" y="115.715" width="4.82143" height="4.82143" transform="rotate(90 53.0391 115.715)" fill="#A1A1A1"/>
<rect x="28.9297" y="139.822" width="4.82143" height="4.82143" transform="rotate(90 28.9297 139.822)" fill="#A1A1A1"/>
<rect x="77.1406" y="139.822" width="4.82143" height="4.82143" transform="rotate(90 77.1406 139.822)" fill="#A1A1A1"/>
<rect x="53.0391" y="163.93" width="4.82143" height="4.82143" transform="rotate(90 53.0391 163.93)" fill="#A1A1A1"/>
<rect x="101.25" y="163.93" width="4.82143" height="4.82143" transform="rotate(90 101.25 163.93)" fill="#A1A1A1"/>
<rect x="77.1406" y="188.037" width="4.82143" height="4.82143" transform="rotate(90 77.1406 188.037)" fill="#A1A1A1"/>
<rect x="57.8594" y="120.537" width="4.82143" height="4.82143" transform="rotate(90 57.8594 120.537)" fill="#A1A1A1"/>
<rect x="33.75" y="144.643" width="4.82143" height="4.82143" transform="rotate(90 33.75 144.643)" fill="#A1A1A1"/>
<rect x="81.9688" y="144.643" width="4.82143" height="4.82143" transform="rotate(90 81.9688 144.643)" fill="#A1A1A1"/>
<rect x="57.8594" y="168.75" width="4.82143" height="4.82143" transform="rotate(90 57.8594 168.75)" fill="#A1A1A1"/>
<rect x="106.07" y="168.75" width="4.82143" height="4.82143" transform="rotate(90 106.07 168.75)" fill="#A1A1A1"/>
<rect x="81.9688" y="192.857" width="4.82143" height="4.82143" transform="rotate(90 81.9688 192.857)" fill="#A1A1A1"/>
<rect x="62.6797" y="125.357" width="4.82143" height="4.82143" transform="rotate(90 62.6797 125.357)" fill="#A1A1A1"/>
<rect x="38.5703" y="149.465" width="4.82143" height="4.82143" transform="rotate(90 38.5703 149.465)" fill="#A1A1A1"/>
<rect x="86.7891" y="149.465" width="4.82143" height="4.82143" transform="rotate(90 86.7891 149.465)" fill="#A1A1A1"/>
<rect x="62.6797" y="173.572" width="4.82143" height="4.82143" transform="rotate(90 62.6797 173.572)" fill="#A1A1A1"/>
<rect x="110.891" y="173.572" width="4.82143" height="4.82143" transform="rotate(90 110.891 173.572)" fill="#A1A1A1"/>
<rect x="86.7891" y="197.68" width="4.82143" height="4.82143" transform="rotate(90 86.7891 197.68)" fill="#A1A1A1"/>
<rect x="67.5" y="130.18" width="4.82143" height="4.82143" transform="rotate(90 67.5 130.18)" fill="#A1A1A1"/>
<rect x="43.3906" y="154.287" width="4.82143" height="4.82143" transform="rotate(90 43.3906 154.287)" fill="#A1A1A1"/>
<rect x="91.6094" y="154.287" width="4.82143" height="4.82143" transform="rotate(90 91.6094 154.287)" fill="#A1A1A1"/>
<rect x="67.5" y="178.393" width="4.82143" height="4.82143" transform="rotate(90 67.5 178.393)" fill="#A1A1A1"/>
<rect x="115.719" y="178.393" width="4.82143" height="4.82143" transform="rotate(90 115.719 178.393)" fill="#A1A1A1"/>
<rect x="91.6094" y="202.5" width="4.82143" height="4.82143" transform="rotate(90 91.6094 202.5)" fill="#A1A1A1"/>
<rect x="72.3203" y="125.357" width="4.82143" height="4.82143" transform="rotate(90 72.3203 125.357)" fill="#A1A1A1"/>
<rect x="48.2188" y="149.465" width="4.82143" height="4.82143" transform="rotate(90 48.2188 149.465)" fill="#A1A1A1"/>
<rect x="96.4297" y="149.465" width="4.82143" height="4.82143" transform="rotate(90 96.4297 149.465)" fill="#A1A1A1"/>
<rect x="72.3203" y="173.572" width="4.82143" height="4.82143" transform="rotate(90 72.3203 173.572)" fill="#A1A1A1"/>
<rect x="120.539" y="173.572" width="4.82143" height="4.82143" transform="rotate(90 120.539 173.572)" fill="#A1A1A1"/>
<rect x="96.4297" y="197.68" width="4.82143" height="4.82143" transform="rotate(90 96.4297 197.68)" fill="#A1A1A1"/>
<rect x="77.1406" y="120.537" width="4.82143" height="4.82143" transform="rotate(90 77.1406 120.537)" fill="#A1A1A1"/>
<rect x="53.0391" y="144.643" width="4.82143" height="4.82143" transform="rotate(90 53.0391 144.643)" fill="#A1A1A1"/>
<rect x="101.25" y="144.643" width="4.82143" height="4.82143" transform="rotate(90 101.25 144.643)" fill="#A1A1A1"/>
<rect x="77.1406" y="168.75" width="4.82143" height="4.82143" transform="rotate(90 77.1406 168.75)" fill="#A1A1A1"/>
<rect x="125.359" y="168.75" width="4.82143" height="4.82143" transform="rotate(90 125.359 168.75)" fill="#A1A1A1"/>
<rect x="101.25" y="192.857" width="4.82143" height="4.82143" transform="rotate(90 101.25 192.857)" fill="#A1A1A1"/>
<rect x="81.9688" y="115.715" width="4.82143" height="4.82143" transform="rotate(90 81.9688 115.715)" fill="#A1A1A1"/>
<rect x="57.8594" y="139.822" width="4.82143" height="4.82143" transform="rotate(90 57.8594 139.822)" fill="#A1A1A1"/>
<rect x="106.07" y="139.822" width="4.82143" height="4.82143" transform="rotate(90 106.07 139.822)" fill="#A1A1A1"/>
<rect x="81.9688" y="163.93" width="4.82143" height="4.82143" transform="rotate(90 81.9688 163.93)" fill="#A1A1A1"/>
<rect x="130.18" y="163.93" width="4.82143" height="4.82143" transform="rotate(90 130.18 163.93)" fill="#A1A1A1"/>
<rect x="106.07" y="188.037" width="4.82143" height="4.82143" transform="rotate(90 106.07 188.037)" fill="#A1A1A1"/>
<rect x="86.7891" y="110.893" width="4.82143" height="4.82143" transform="rotate(90 86.7891 110.893)" fill="#A1A1A1"/>
<rect x="62.6797" y="135" width="4.82143" height="4.82143" transform="rotate(90 62.6797 135)" fill="#A1A1A1"/>
<rect x="110.891" y="135" width="4.82143" height="4.82143" transform="rotate(90 110.891 135)" fill="#A1A1A1"/>
<rect x="86.7891" y="159.107" width="4.82143" height="4.82143" transform="rotate(90 86.7891 159.107)" fill="#A1A1A1"/>
<rect x="135" y="159.107" width="4.82143" height="4.82143" transform="rotate(90 135 159.107)" fill="#A1A1A1"/>
<rect x="110.891" y="183.215" width="4.82143" height="4.82143" transform="rotate(90 110.891 183.215)" fill="#A1A1A1"/>
<rect x="250.719" y="14.4648" width="4.82143" height="4.82143" transform="rotate(90 250.719 14.4648)" fill="#A1A1A1"/>
<rect x="241.07" y="14.4648" width="4.82143" height="4.82143" transform="rotate(90 241.07 14.4648)" fill="#A1A1A1"/>
<rect x="19.2891" y="245.893" width="4.82143" height="4.82143" transform="rotate(90 19.2891 245.893)" fill="#A1A1A1"/>
<rect x="19.2891" y="236.25" width="4.82143" height="4.82143" transform="rotate(90 19.2891 236.25)" fill="#A1A1A1"/>
<rect x="255.539" y="19.2871" width="4.82143" height="4.82143" transform="rotate(90 255.539 19.2871)" fill="#A1A1A1"/>
<rect x="245.891" y="19.2871" width="4.82143" height="4.82143" transform="rotate(90 245.891 19.2871)" fill="#A1A1A1"/>
<rect x="24.1094" y="250.715" width="4.82143" height="4.82143" transform="rotate(90 24.1094 250.715)" fill="#A1A1A1"/>
<rect x="24.1094" y="241.072" width="4.82143" height="4.82143" transform="rotate(90 24.1094 241.072)" fill="#A1A1A1"/>
<rect x="260.359" y="24.1074" width="4.82143" height="4.82143" transform="rotate(90 260.359 24.1074)" fill="#A1A1A1"/>
<rect x="250.719" y="24.1074" width="4.82143" height="4.82143" transform="rotate(90 250.719 24.1074)" fill="#A1A1A1"/>
<rect x="28.9297" y="255.537" width="4.82143" height="4.82143" transform="rotate(90 28.9297 255.537)" fill="#A1A1A1"/>
<rect x="28.9297" y="245.893" width="4.82143" height="4.82143" transform="rotate(90 28.9297 245.893)" fill="#A1A1A1"/>
<rect x="236.25" width="4.82143" height="4.82143" transform="rotate(90 236.25 0)" fill="#A1A1A1"/>
<rect x="226.609" width="4.82143" height="4.82143" transform="rotate(90 226.609 0)" fill="#A1A1A1"/>
<rect x="4.82031" y="231.43" width="4.82143" height="4.82143" transform="rotate(90 4.82031 231.43)" fill="#A1A1A1"/>
<rect x="4.82031" y="221.787" width="4.82143" height="4.82143" transform="rotate(90 4.82031 221.787)" fill="#A1A1A1"/>
<rect x="265.18" y="28.9297" width="4.82143" height="4.82143" transform="rotate(90 265.18 28.9297)" fill="#A1A1A1"/>
<rect x="255.539" y="28.9297" width="4.82143" height="4.82143" transform="rotate(90 255.539 28.9297)" fill="#A1A1A1"/>
<rect x="33.75" y="260.357" width="4.82143" height="4.82143" transform="rotate(90 33.75 260.357)" fill="#A1A1A1"/>
<rect x="33.75" y="250.715" width="4.82143" height="4.82143" transform="rotate(90 33.75 250.715)" fill="#A1A1A1"/>
<rect x="241.07" y="4.82227" width="4.82143" height="4.82143" transform="rotate(90 241.07 4.82227)" fill="#A1A1A1"/>
<rect x="231.43" y="4.82227" width="4.82143" height="4.82143" transform="rotate(90 231.43 4.82227)" fill="#A1A1A1"/>
<rect x="9.64062" y="236.25" width="4.82143" height="4.82143" transform="rotate(90 9.64062 236.25)" fill="#A1A1A1"/>
<rect x="9.64062" y="226.607" width="4.82143" height="4.82143" transform="rotate(90 9.64062 226.607)" fill="#A1A1A1"/>
<rect x="270" y="33.75" width="4.82143" height="4.82143" transform="rotate(90 270 33.75)" fill="#A1A1A1"/>
<rect x="260.359" y="33.75" width="4.82143" height="4.82143" transform="rotate(90 260.359 33.75)" fill="#A1A1A1"/>
<rect x="265.18" y="38.5723" width="4.82143" height="4.82143" transform="rotate(90 265.18 38.5723)" fill="#A1A1A1"/>
<rect x="270" y="43.3926" width="4.82143" height="4.82143" transform="rotate(90 270 43.3926)" fill="#A1A1A1"/>
<rect x="38.5703" y="265.18" width="4.82143" height="4.82143" transform="rotate(90 38.5703 265.18)" fill="#A1A1A1"/>
<rect x="38.5703" y="255.537" width="4.82143" height="4.82143" transform="rotate(90 38.5703 255.537)" fill="#A1A1A1"/>
<rect x="43.3906" y="260.357" width="4.82143" height="4.82143" transform="rotate(90 43.3906 260.357)" fill="#A1A1A1"/>
<rect x="48.2188" y="265.18" width="4.82143" height="4.82143" transform="rotate(90 48.2188 265.18)" fill="#A1A1A1"/>
<rect x="245.891" y="9.64258" width="4.82143" height="4.82143" transform="rotate(90 245.891 9.64258)" fill="#A1A1A1"/>
<rect x="236.25" y="9.64258" width="4.82143" height="4.82143" transform="rotate(90 236.25 9.64258)" fill="#A1A1A1"/>
<rect x="14.4688" y="241.072" width="4.82143" height="4.82143" transform="rotate(90 14.4688 241.072)" fill="#A1A1A1"/>
<rect x="14.4688" y="231.43" width="4.82143" height="4.82143" transform="rotate(90 14.4688 231.43)" fill="#A1A1A1"/>
<rect x="255.539" y="245.893" width="4.82143" height="4.82143" transform="rotate(90 255.539 245.893)" fill="#A1A1A1"/>
<rect x="14.3516" y="24.4844" width="4.82143" height="4.82143" transform="rotate(-90.6258 14.3516 24.4844)" fill="#A1A1A1"/>
<rect x="255.539" y="236.25" width="4.82143" height="4.82143" transform="rotate(90 255.539 236.25)" fill="#A1A1A1"/>
<rect x="14.4688" y="34.1094" width="4.82143" height="4.82143" transform="rotate(-90.6258 14.4688 34.1094)" fill="#A1A1A1"/>
<rect x="245.891" y="255.537" width="4.82143" height="4.82143" transform="rotate(90 245.891 255.537)" fill="#A1A1A1"/>
<rect x="23.8828" y="14.7285" width="4.82143" height="4.82143" transform="rotate(-90.6258 23.8828 14.7285)" fill="#A1A1A1"/>
<rect x="245.891" y="245.893" width="4.82143" height="4.82143" transform="rotate(90 245.891 245.893)" fill="#A1A1A1"/>
<rect x="23.9922" y="24.3711" width="4.82143" height="4.82143" transform="rotate(-90.6258 23.9922 24.3711)" fill="#A1A1A1"/>
<rect x="241.07" y="260.357" width="4.82143" height="4.82143" transform="rotate(90 241.07 260.357)" fill="#A1A1A1"/>
<rect x="28.6641" y="9.85156" width="4.82143" height="4.82143" transform="rotate(-90.6258 28.6641 9.85156)" fill="#A1A1A1"/>
<rect x="241.07" y="250.715" width="4.82143" height="4.82143" transform="rotate(90 241.07 250.715)" fill="#A1A1A1"/>
<rect x="28.7812" y="19.4941" width="4.82143" height="4.82143" transform="rotate(-90.6258 28.7812 19.4941)" fill="#A1A1A1"/>
<rect x="236.25" y="265.18" width="4.82143" height="4.82143" transform="rotate(90 236.25 265.18)" fill="#A1A1A1"/>
<rect x="33.4531" y="4.97266" width="4.82143" height="4.82143" transform="rotate(-90.6258 33.4531 4.97266)" fill="#A1A1A1"/>
<rect x="236.25" y="255.537" width="4.82143" height="4.82143" transform="rotate(90 236.25 255.537)" fill="#A1A1A1"/>
<rect x="33.5234" y="14.6152" width="4.82143" height="4.82143" transform="rotate(-90.6258 33.5234 14.6152)" fill="#A1A1A1"/>
<rect x="231.43" y="260.357" width="4.82143" height="4.82143" transform="rotate(90 231.43 260.357)" fill="#A1A1A1"/>
<rect x="38.3125" y="9.75586" width="4.82143" height="4.82143" transform="rotate(-90.6258 38.3125 9.75586)" fill="#A1A1A1"/>
<rect x="226.609" y="265.18" width="4.82143" height="4.82143" transform="rotate(90 226.609 265.18)" fill="#A1A1A1"/>
<rect x="43.0938" y="4.87891" width="4.82143" height="4.82143" transform="rotate(-90.6258 43.0938 4.87891)" fill="#A1A1A1"/>
<rect x="270" y="231.43" width="4.82143" height="4.82143" transform="rotate(90 270 231.43)" fill="#A1A1A1"/>
<rect x="0.078125" y="39.0996" width="4.82143" height="4.82143" transform="rotate(-90.6258 0.078125 39.0996)" fill="#A1A1A1"/>
<rect x="270" y="221.787" width="4.82143" height="4.82143" transform="rotate(90 270 221.787)" fill="#A1A1A1"/>
<rect x="0.148438" y="48.7422" width="4.82143" height="4.82143" transform="rotate(-90.6258 0.148438 48.7422)" fill="#A1A1A1"/>
<rect x="265.18" y="236.25" width="4.82143" height="4.82143" transform="rotate(90 265.18 236.25)" fill="#A1A1A1"/>
<rect x="4.82031" y="34.2207" width="4.82143" height="4.82143" transform="rotate(-90.6258 4.82031 34.2207)" fill="#A1A1A1"/>
<rect x="265.18" y="226.607" width="4.82143" height="4.82143" transform="rotate(90 265.18 226.607)" fill="#A1A1A1"/>
<rect x="4.9375" y="43.8652" width="4.82143" height="4.82143" transform="rotate(-90.6258 4.9375 43.8652)" fill="#A1A1A1"/>
<rect x="260.359" y="241.072" width="4.82143" height="4.82143" transform="rotate(90 260.359 241.072)" fill="#A1A1A1"/>
<rect x="9.57031" y="29.3438" width="4.82143" height="4.82143" transform="rotate(-90.6258 9.57031 29.3438)" fill="#A1A1A1"/>
<rect x="260.359" y="231.43" width="4.82143" height="4.82143" transform="rotate(90 260.359 231.43)" fill="#A1A1A1"/>
<rect x="9.71875" y="38.9863" width="4.82143" height="4.82143" transform="rotate(-90.6258 9.71875 38.9863)" fill="#A1A1A1"/>
<rect x="255.539" y="245.893" width="4.82143" height="4.82143" transform="rotate(90 255.539 245.893)" fill="#A1A1A1"/>
<rect x="14.3516" y="24.4844" width="4.82143" height="4.82143" transform="rotate(-90.6258 14.3516 24.4844)" fill="#A1A1A1"/>
<rect x="255.539" y="236.25" width="4.82143" height="4.82143" transform="rotate(90 255.539 236.25)" fill="#A1A1A1"/>
<rect x="14.4688" y="34.1094" width="4.82143" height="4.82143" transform="rotate(-90.6258 14.4688 34.1094)" fill="#A1A1A1"/>
<rect x="250.719" y="250.715" width="4.82143" height="4.82143" transform="rotate(90 250.719 250.715)" fill="#A1A1A1"/>
<rect x="19.1328" y="19.6055" width="4.82143" height="4.82143" transform="rotate(-90.6258 19.1328 19.6055)" fill="#A1A1A1"/>
<rect x="250.719" y="241.072" width="4.82143" height="4.82143" transform="rotate(90 250.719 241.072)" fill="#A1A1A1"/>
<rect x="19.2109" y="29.25" width="4.82143" height="4.82143" transform="rotate(-90.6258 19.2109 29.25)" fill="#A1A1A1"/>
<rect x="106.07" width="4.82143" height="4.82143" transform="rotate(90 106.07 0)" fill="#A1A1A1"/>
<rect x="106.07" y="9.64258" width="4.82143" height="4.82143" transform="rotate(90 106.07 9.64258)" fill="#A1A1A1"/>
<rect x="163.93" y="270" width="4.82143" height="4.82143" transform="rotate(-90 163.93 270)" fill="#A1A1A1"/>
<rect x="163.93" y="260.357" width="4.82143" height="4.82143" transform="rotate(-90 163.93 260.357)" fill="#A1A1A1"/>
<rect x="168.75" y="4.82227" width="4.82143" height="4.82143" transform="rotate(-180 168.75 4.82227)" fill="#A1A1A1"/>
<rect x="168.75" y="14.4648" width="4.82143" height="4.82143" transform="rotate(-180 168.75 14.4648)" fill="#A1A1A1"/>
<rect x="173.57" y="9.64258" width="4.82143" height="4.82143" transform="rotate(-180 173.57 9.64258)" fill="#A1A1A1"/>
<rect x="178.391" y="4.82227" width="4.82143" height="4.82143" transform="rotate(-180 178.391 4.82227)" fill="#A1A1A1"/>
<rect x="101.25" y="9.64258" width="4.82143" height="4.82143" transform="rotate(-180 101.25 9.64258)" fill="#A1A1A1"/>
<rect x="96.4297" y="4.82227" width="4.82143" height="4.82143" transform="rotate(-180 96.4297 4.82227)" fill="#A1A1A1"/>
<rect x="101.25" y="265.18" width="4.82143" height="4.82143" fill="#A1A1A1"/>
<rect x="101.25" y="255.537" width="4.82143" height="4.82143" fill="#A1A1A1"/>
<rect x="96.4297" y="260.357" width="4.82143" height="4.82143" fill="#A1A1A1"/>
<rect x="91.6094" y="265.18" width="4.82143" height="4.82143" fill="#A1A1A1"/>
<rect x="168.75" y="260.357" width="4.82143" height="4.82143" fill="#A1A1A1"/>
<rect x="173.57" y="265.18" width="4.82143" height="4.82143" fill="#A1A1A1"/>
<rect x="110.891" y="4.82227" width="4.82143" height="4.82143" transform="rotate(90 110.891 4.82227)" fill="#A1A1A1"/>
<rect x="110.891" y="14.4648" width="4.82143" height="4.82143" transform="rotate(90 110.891 14.4648)" fill="#A1A1A1"/>
<rect x="159.109" y="265.18" width="4.82143" height="4.82143" transform="rotate(-90 159.109 265.18)" fill="#A1A1A1"/>
<rect x="159.109" y="255.537" width="4.82143" height="4.82143" transform="rotate(-90 159.109 255.537)" fill="#A1A1A1"/>
<rect x="163.93" y="9.64258" width="4.82143" height="4.82143" transform="rotate(-180 163.93 9.64258)" fill="#A1A1A1"/>
<rect x="163.93" y="19.2871" width="4.82143" height="4.82143" transform="rotate(-180 163.93 19.2871)" fill="#A1A1A1"/>
<rect x="106.07" y="260.357" width="4.82143" height="4.82143" fill="#A1A1A1"/>
<rect x="106.07" y="250.715" width="4.82143" height="4.82143" fill="#A1A1A1"/>
<rect x="115.719" y="9.64258" width="4.82143" height="4.82143" transform="rotate(90 115.719 9.64258)" fill="#A1A1A1"/>
<rect x="115.719" y="19.2871" width="4.82143" height="4.82143" transform="rotate(90 115.719 19.2871)" fill="#A1A1A1"/>
<rect x="154.289" y="260.357" width="4.82143" height="4.82143" transform="rotate(-90 154.289 260.357)" fill="#A1A1A1"/>
<rect x="154.289" y="250.715" width="4.82143" height="4.82143" transform="rotate(-90 154.289 250.715)" fill="#A1A1A1"/>
<rect x="159.109" y="14.4648" width="4.82143" height="4.82143" transform="rotate(-180 159.109 14.4648)" fill="#A1A1A1"/>
<rect x="159.109" y="24.1074" width="4.82143" height="4.82143" transform="rotate(-180 159.109 24.1074)" fill="#A1A1A1"/>
<rect x="110.891" y="255.537" width="4.82143" height="4.82143" fill="#A1A1A1"/>
<rect x="110.891" y="245.893" width="4.82143" height="4.82143" fill="#A1A1A1"/>
<rect x="120.539" y="14.4648" width="4.82143" height="4.82143" transform="rotate(90 120.539 14.4648)" fill="#A1A1A1"/>
<rect x="120.539" y="24.1074" width="4.82143" height="4.82143" transform="rotate(90 120.539 24.1074)" fill="#A1A1A1"/>
<rect x="149.469" y="255.537" width="4.82143" height="4.82143" transform="rotate(-90 149.469 255.537)" fill="#A1A1A1"/>
<rect x="149.469" y="245.893" width="4.82143" height="4.82143" transform="rotate(-90 149.469 245.893)" fill="#A1A1A1"/>
<rect x="154.289" y="19.2871" width="4.82143" height="4.82143" transform="rotate(-180 154.289 19.2871)" fill="#A1A1A1"/>
<rect x="154.289" y="28.9297" width="4.82143" height="4.82143" transform="rotate(-180 154.289 28.9297)" fill="#A1A1A1"/>
<rect x="115.719" y="250.715" width="4.82143" height="4.82143" fill="#A1A1A1"/>
<rect x="115.719" y="241.072" width="4.82143" height="4.82143" fill="#A1A1A1"/>
<rect x="125.359" y="19.2871" width="4.82143" height="4.82143" transform="rotate(90 125.359 19.2871)" fill="#A1A1A1"/>
<rect x="125.359" y="28.9297" width="4.82143" height="4.82143" transform="rotate(90 125.359 28.9297)" fill="#A1A1A1"/>
<rect x="144.641" y="250.715" width="4.82143" height="4.82143" transform="rotate(-90 144.641 250.715)" fill="#A1A1A1"/>
<rect x="144.641" y="241.072" width="4.82143" height="4.82143" transform="rotate(-90 144.641 241.072)" fill="#A1A1A1"/>
<rect x="149.469" y="24.1074" width="4.82143" height="4.82143" transform="rotate(-180 149.469 24.1074)" fill="#A1A1A1"/>
<rect x="149.469" y="33.75" width="4.82143" height="4.82143" transform="rotate(-180 149.469 33.75)" fill="#A1A1A1"/>
<rect x="120.539" y="245.893" width="4.82143" height="4.82143" fill="#A1A1A1"/>
<rect x="120.539" y="236.25" width="4.82143" height="4.82143" fill="#A1A1A1"/>
<rect x="130.18" y="24.1074" width="4.82143" height="4.82143" transform="rotate(90 130.18 24.1074)" fill="#A1A1A1"/>
<rect x="130.18" y="33.75" width="4.82143" height="4.82143" transform="rotate(90 130.18 33.75)" fill="#A1A1A1"/>
<rect x="139.82" y="245.893" width="4.82143" height="4.82143" transform="rotate(-90 139.82 245.893)" fill="#A1A1A1"/>
<rect x="139.82" y="236.25" width="4.82143" height="4.82143" transform="rotate(-90 139.82 236.25)" fill="#A1A1A1"/>
<rect x="135" y="28.9297" width="4.82143" height="4.82143" transform="rotate(90 135 28.9297)" fill="#A1A1A1"/>
<rect x="135" y="38.5723" width="4.82143" height="4.82143" transform="rotate(90 135 38.5723)" fill="#A1A1A1"/>
<rect x="135" y="241.072" width="4.82143" height="4.82143" transform="rotate(-90 135 241.072)" fill="#A1A1A1"/>
<rect x="135" y="231.43" width="4.82143" height="4.82143" transform="rotate(-90 135 231.43)" fill="#A1A1A1"/>
<rect x="139.82" y="28.9297" width="4.82143" height="4.82143" transform="rotate(90 139.82 28.9297)" fill="#A1A1A1"/>
<rect x="139.82" y="38.5723" width="4.82143" height="4.82143" transform="rotate(90 139.82 38.5723)" fill="#A1A1A1"/>
<rect x="130.18" y="241.072" width="4.82143" height="4.82143" transform="rotate(-90 130.18 241.072)" fill="#A1A1A1"/>
<rect x="130.18" y="231.43" width="4.82143" height="4.82143" transform="rotate(-90 130.18 231.43)" fill="#A1A1A1"/>
<rect x="144.641" y="28.9297" width="4.82143" height="4.82143" transform="rotate(-180 144.641 28.9297)" fill="#A1A1A1"/>
<rect x="144.641" y="38.5723" width="4.82143" height="4.82143" transform="rotate(-180 144.641 38.5723)" fill="#A1A1A1"/>
<rect x="125.359" y="241.072" width="4.82143" height="4.82143" fill="#A1A1A1"/>
<rect x="125.359" y="231.43" width="4.82143" height="4.82143" fill="#A1A1A1"/>
<path d="M162.695 158.203C163.8 158.203 164.695 157.308 164.695 156.203L164.695 138.203C164.695 137.099 163.8 136.203 162.695 136.203C161.591 136.203 160.695 137.099 160.695 138.203V154.203L144.695 154.203C143.591 154.203 142.695 155.099 142.695 156.203C142.695 157.308 143.591 158.203 144.695 158.203L162.695 158.203ZM122.695 116.203L121.281 117.617L161.281 157.617L162.695 156.203L164.11 154.789L124.11 114.789L122.695 116.203Z" fill="white"/>
<circle cx="184" cy="84" r="12" fill="black"/>
<circle cx="184" cy="132" r="12" fill="black"/>
<circle cx="210" cy="108" r="12" fill="black"/>
<circle cx="184" cy="182" r="12" fill="black"/>
<circle cx="208" cy="155" r="12" fill="black"/>
<circle cx="235" cy="132" r="12" fill="black"/>
<circle cx="136" cy="130" r="12" fill="black"/>
<circle cx="160" cy="108" r="12" fill="black"/>
<circle cx="37" cy="132" r="12" fill="white"/>
<circle cx="64" cy="155" r="12" fill="white"/>
<circle cx="88" cy="180" r="12" fill="white"/>
<circle cx="63" cy="108" r="12" fill="white"/>
<circle cx="88" cy="132" r="12" fill="white"/>
<circle cx="112" cy="155" r="12" fill="white"/>
<circle cx="88" cy="83" r="12" fill="white"/>
<circle cx="114" cy="108" r="13" fill="white" stroke="#43FF46" stroke-width="2"/>
</svg>
