<svg width="257" height="85" viewBox="0 0 257 85" fill="none" xmlns="http://www.w3.org/2000/svg">
<path d="M22.8038 74.06L27.1238 81H24.5638L21.4238 75.96L18.4838 81H15.9438L20.2638 74.06L15.9238 67.1H18.4838L21.6438 72.18L24.6038 67.1H27.1438L22.8038 74.06ZM36.9823 73.38C35.5956 72.6867 34.9023 71.5933 34.9023 70.1C34.9023 69.38 35.0823 68.72 35.4423 68.12C35.8023 67.52 36.3423 67.0467 37.0623 66.7C37.7823 66.34 38.6623 66.16 39.7023 66.16C40.7289 66.16 41.6023 66.34 42.3223 66.7C43.0556 67.0467 43.6023 67.52 43.9623 68.12C44.3223 68.72 44.5023 69.38 44.5023 70.1C44.5023 70.8467 44.3089 71.5067 43.9223 72.08C43.5489 72.64 43.0489 73.0733 42.4223 73.38C43.1823 73.66 43.7823 74.12 44.2223 74.76C44.6623 75.3867 44.8823 76.1267 44.8823 76.98C44.8823 77.8467 44.6623 78.6133 44.2223 79.28C43.7823 79.9467 43.1689 80.46 42.3823 80.82C41.5956 81.18 40.7023 81.36 39.7023 81.36C38.7023 81.36 37.8089 81.18 37.0223 80.82C36.2489 80.46 35.6423 79.9467 35.2023 79.28C34.7623 78.6133 34.5423 77.8467 34.5423 76.98C34.5423 76.1133 34.7623 75.3667 35.2023 74.74C35.6423 74.1133 36.2356 73.66 36.9823 73.38ZM42.3223 70.38C42.3223 69.6333 42.0889 69.06 41.6223 68.66C41.1556 68.26 40.5156 68.06 39.7023 68.06C38.9023 68.06 38.2689 68.26 37.8023 68.66C37.3356 69.06 37.1023 69.64 37.1023 70.4C37.1023 71.0667 37.3423 71.6133 37.8223 72.04C38.3156 72.4533 38.9423 72.66 39.7023 72.66C40.4623 72.66 41.0889 72.4467 41.5823 72.02C42.0756 71.5933 42.3223 71.0467 42.3223 70.38ZM39.7023 74.38C38.8223 74.38 38.1023 74.6 37.5423 75.04C36.9956 75.4667 36.7223 76.0867 36.7223 76.9C36.7223 77.66 36.9889 78.28 37.5223 78.76C38.0556 79.2267 38.7823 79.46 39.7023 79.46C40.6089 79.46 41.3223 79.22 41.8423 78.74C42.3756 78.26 42.6423 77.6467 42.6423 76.9C42.6423 76.1 42.3689 75.48 41.8223 75.04C41.2889 74.6 40.5823 74.38 39.7023 74.38Z" fill="white"/>
<path d="M223.304 74.06L227.624 81H225.064L221.924 75.96L218.984 81H216.444L220.764 74.06L216.424 67.1H218.984L222.144 72.18L225.104 67.1H227.644L223.304 74.06ZM237.482 73.38C236.096 72.6867 235.402 71.5933 235.402 70.1C235.402 69.38 235.582 68.72 235.942 68.12C236.302 67.52 236.842 67.0467 237.562 66.7C238.282 66.34 239.162 66.16 240.202 66.16C241.229 66.16 242.102 66.34 242.822 66.7C243.556 67.0467 244.102 67.52 244.462 68.12C244.822 68.72 245.002 69.38 245.002 70.1C245.002 70.8467 244.809 71.5067 244.422 72.08C244.049 72.64 243.549 73.0733 242.922 73.38C243.682 73.66 244.282 74.12 244.722 74.76C245.162 75.3867 245.382 76.1267 245.382 76.98C245.382 77.8467 245.162 78.6133 244.722 79.28C244.282 79.9467 243.669 80.46 242.882 80.82C242.096 81.18 241.202 81.36 240.202 81.36C239.202 81.36 238.309 81.18 237.522 80.82C236.749 80.46 236.142 79.9467 235.702 79.28C235.262 78.6133 235.042 77.8467 235.042 76.98C235.042 76.1133 235.262 75.3667 235.702 74.74C236.142 74.1133 236.736 73.66 237.482 73.38ZM242.822 70.38C242.822 69.6333 242.589 69.06 242.122 68.66C241.656 68.26 241.016 68.06 240.202 68.06C239.402 68.06 238.769 68.26 238.302 68.66C237.836 69.06 237.602 69.64 237.602 70.4C237.602 71.0667 237.842 71.6133 238.322 72.04C238.816 72.4533 239.442 72.66 240.202 72.66C240.962 72.66 241.589 72.4467 242.082 72.02C242.576 71.5933 242.822 71.0467 242.822 70.38ZM240.202 74.38C239.322 74.38 238.602 74.6 238.042 75.04C237.496 75.4667 237.222 76.0867 237.222 76.9C237.222 77.66 237.489 78.28 238.022 78.76C238.556 79.2267 239.282 79.46 240.202 79.46C241.109 79.46 241.822 79.22 242.342 78.74C242.876 78.26 243.142 77.6467 243.142 76.9C243.142 76.1 242.869 75.48 242.322 75.04C241.789 74.6 241.082 74.38 240.202 74.38Z" fill="white"/>
<circle cx="26" cy="26" r="26" fill="white"/>
<circle cx="231" cy="26" r="26" fill="black"/>
</svg>
