<svg width="288" height="284" viewBox="0 0 288 284" fill="none" xmlns="http://www.w3.org/2000/svg">
<rect x="92.625" y="42.6748" width="6.27907" height="6.27907" transform="rotate(90 92.625 42.6748)" fill="#A1A1A1"/>
<rect x="86.3516" y="36.3955" width="6.27907" height="6.27907" transform="rotate(90 86.3516 36.3955)" fill="#A1A1A1"/>
<rect x="80.0703" y="30.1162" width="6.27907" height="6.27907" transform="rotate(90 80.0703 30.1162)" fill="#A1A1A1"/>
<rect x="73.7891" y="23.8369" width="6.27907" height="6.27907" transform="rotate(90 73.7891 23.8369)" fill="#A1A1A1"/>
<rect x="67.5078" y="17.5586" width="6.27907" height="6.27907" transform="rotate(90 67.5078 17.5586)" fill="#A1A1A1"/>
<rect x="61.2344" y="11.2793" width="6.27907" height="6.27907" transform="rotate(90 61.2344 11.2793)" fill="#A1A1A1"/>
<rect x="48.6719" y="74.0693" width="6.27907" height="6.27907" transform="rotate(90 48.6719 74.0693)" fill="#A1A1A1"/>
<rect x="54.9531" y="80.3486" width="6.27907" height="6.27907" transform="rotate(90 54.9531 80.3486)" fill="#A1A1A1"/>
<rect x="61.2344" y="74.0693" width="6.27907" height="6.27907" transform="rotate(90 61.2344 74.0693)" fill="#A1A1A1"/>
<rect x="67.5078" y="67.791" width="6.27907" height="6.27907" transform="rotate(90 67.5078 67.791)" fill="#A1A1A1"/>
<rect x="73.7891" y="61.5117" width="6.27907" height="6.27907" transform="rotate(90 73.7891 61.5117)" fill="#A1A1A1"/>
<rect x="80.0703" y="55.2324" width="6.27907" height="6.27907" transform="rotate(90 80.0703 55.2324)" fill="#A1A1A1"/>
<rect x="86.3516" y="48.9531" width="6.27907" height="6.27907" transform="rotate(90 86.3516 48.9531)" fill="#A1A1A1"/>
<rect x="42.3984" y="17.5586" width="6.27907" height="6.27907" transform="rotate(90 42.3984 17.5586)" fill="#A1A1A1"/>
<rect x="48.6719" y="11.2793" width="6.27907" height="6.27907" transform="rotate(90 48.6719 11.2793)" fill="#A1A1A1"/>
<rect x="54.9531" y="5" width="6.27907" height="6.27907" transform="rotate(90 54.9531 5)" fill="#A1A1A1"/>
<rect x="36.1172" y="23.8369" width="6.27907" height="6.27907" transform="rotate(90 36.1172 23.8369)" fill="#A1A1A1"/>
<rect x="29.8359" y="30.1162" width="6.27907" height="6.27907" transform="rotate(90 29.8359 30.1162)" fill="#A1A1A1"/>
<rect x="23.5547" y="36.3955" width="6.27907" height="6.27907" transform="rotate(90 23.5547 36.3955)" fill="#A1A1A1"/>
<rect x="17.2812" y="42.6748" width="6.27907" height="6.27907" transform="rotate(90 17.2812 42.6748)" fill="#A1A1A1"/>
<rect x="23.5547" y="48.9531" width="6.27907" height="6.27907" transform="rotate(90 23.5547 48.9531)" fill="#A1A1A1"/>
<rect x="29.8359" y="55.2324" width="6.27907" height="6.27907" transform="rotate(90 29.8359 55.2324)" fill="#A1A1A1"/>
<rect x="36.1172" y="61.5117" width="6.27907" height="6.27907" transform="rotate(90 36.1172 61.5117)" fill="#A1A1A1"/>
<rect x="42.3984" y="67.791" width="6.27907" height="6.27907" transform="rotate(90 42.3984 67.791)" fill="#A1A1A1"/>
<rect x="130.305" y="80.3486" width="6.27907" height="6.27907" transform="rotate(90 130.305 80.3486)" fill="#A1A1A1"/>
<rect x="167.977" y="118.023" width="6.27907" height="6.27907" transform="rotate(90 167.977 118.023)" fill="#A1A1A1"/>
<rect x="205.648" y="155.697" width="6.27907" height="6.27907" transform="rotate(90 205.648 155.697)" fill="#A1A1A1"/>
<rect x="243.328" y="193.372" width="6.27907" height="6.27907" transform="rotate(90 243.328 193.372)" fill="#A1A1A1"/>
<rect x="281" y="231.047" width="6.27907" height="6.27907" transform="rotate(90 281 231.047)" fill="#A1A1A1"/>
<rect x="124.023" y="74.0693" width="6.27907" height="6.27907" transform="rotate(90 124.023 74.0693)" fill="#A1A1A1"/>
<rect x="161.695" y="111.744" width="6.27907" height="6.27907" transform="rotate(90 161.695 111.744)" fill="#A1A1A1"/>
<rect x="199.375" y="149.419" width="6.27907" height="6.27907" transform="rotate(90 199.375 149.419)" fill="#A1A1A1"/>
<rect x="237.047" y="187.093" width="6.27907" height="6.27907" transform="rotate(90 237.047 187.093)" fill="#A1A1A1"/>
<rect x="274.719" y="224.768" width="6.27907" height="6.27907" transform="rotate(90 274.719 224.768)" fill="#A1A1A1"/>
<rect x="117.742" y="67.791" width="6.27907" height="6.27907" transform="rotate(90 117.742 67.791)" fill="#A1A1A1"/>
<rect x="155.422" y="105.465" width="6.27907" height="6.27907" transform="rotate(90 155.422 105.465)" fill="#A1A1A1"/>
<rect x="193.094" y="143.14" width="6.27907" height="6.27907" transform="rotate(90 193.094 143.14)" fill="#A1A1A1"/>
<rect x="230.766" y="180.813" width="6.27907" height="6.27907" transform="rotate(90 230.766 180.813)" fill="#A1A1A1"/>
<rect x="268.445" y="218.488" width="6.27907" height="6.27907" transform="rotate(90 268.445 218.488)" fill="#A1A1A1"/>
<rect x="111.469" y="61.5117" width="6.27907" height="6.27907" transform="rotate(90 111.469 61.5117)" fill="#A1A1A1"/>
<rect x="149.141" y="99.1865" width="6.27907" height="6.27907" transform="rotate(90 149.141 99.1865)" fill="#A1A1A1"/>
<rect x="186.812" y="136.86" width="6.27907" height="6.27907" transform="rotate(90 186.812 136.86)" fill="#A1A1A1"/>
<rect x="224.492" y="174.535" width="6.27907" height="6.27907" transform="rotate(90 224.492 174.535)" fill="#A1A1A1"/>
<rect x="262.164" y="212.209" width="6.27907" height="6.27907" transform="rotate(90 262.164 212.209)" fill="#A1A1A1"/>
<rect x="105.188" y="55.2324" width="6.27907" height="6.27907" transform="rotate(90 105.188 55.2324)" fill="#A1A1A1"/>
<rect x="142.859" y="92.9072" width="6.27907" height="6.27907" transform="rotate(90 142.859 92.9072)" fill="#A1A1A1"/>
<rect x="180.531" y="130.581" width="6.27907" height="6.27907" transform="rotate(90 180.531 130.581)" fill="#A1A1A1"/>
<rect x="218.211" y="168.256" width="6.27907" height="6.27907" transform="rotate(90 218.211 168.256)" fill="#A1A1A1"/>
<rect x="255.883" y="205.931" width="6.27907" height="6.27907" transform="rotate(90 255.883 205.931)" fill="#A1A1A1"/>
<rect x="98.9062" y="48.9531" width="6.27907" height="6.27907" transform="rotate(90 98.9062 48.9531)" fill="#A1A1A1"/>
<rect x="136.578" y="86.6279" width="6.27907" height="6.27907" transform="rotate(90 136.578 86.6279)" fill="#A1A1A1"/>
<rect x="174.258" y="124.303" width="6.27907" height="6.27907" transform="rotate(90 174.258 124.303)" fill="#A1A1A1"/>
<rect x="211.93" y="161.977" width="6.27907" height="6.27907" transform="rotate(90 211.93 161.977)" fill="#A1A1A1"/>
<rect x="249.602" y="199.651" width="6.27907" height="6.27907" transform="rotate(90 249.602 199.651)" fill="#A1A1A1"/>
<rect x="86.3516" y="111.744" width="6.27907" height="6.27907" transform="rotate(90 86.3516 111.744)" fill="#A1A1A1"/>
<rect x="124.023" y="149.419" width="6.27907" height="6.27907" transform="rotate(90 124.023 149.419)" fill="#A1A1A1"/>
<rect x="161.695" y="187.093" width="6.27907" height="6.27907" transform="rotate(90 161.695 187.093)" fill="#A1A1A1"/>
<rect x="199.375" y="224.768" width="6.27907" height="6.27907" transform="rotate(90 199.375 224.768)" fill="#A1A1A1"/>
<rect x="237.047" y="262.441" width="6.27907" height="6.27907" transform="rotate(90 237.047 262.441)" fill="#A1A1A1"/>
<rect x="92.625" y="118.023" width="6.27907" height="6.27907" transform="rotate(90 92.625 118.023)" fill="#A1A1A1"/>
<rect x="130.305" y="155.697" width="6.27907" height="6.27907" transform="rotate(90 130.305 155.697)" fill="#A1A1A1"/>
<rect x="167.977" y="193.372" width="6.27907" height="6.27907" transform="rotate(90 167.977 193.372)" fill="#A1A1A1"/>
<rect x="205.648" y="231.047" width="6.27907" height="6.27907" transform="rotate(90 205.648 231.047)" fill="#A1A1A1"/>
<rect x="243.328" y="268.721" width="6.27907" height="6.27907" transform="rotate(90 243.328 268.721)" fill="#A1A1A1"/>
<rect x="98.9062" y="111.744" width="6.27907" height="6.27907" transform="rotate(90 98.9062 111.744)" fill="#A1A1A1"/>
<rect x="136.578" y="149.419" width="6.27907" height="6.27907" transform="rotate(90 136.578 149.419)" fill="#A1A1A1"/>
<rect x="174.258" y="187.093" width="6.27907" height="6.27907" transform="rotate(90 174.258 187.093)" fill="#A1A1A1"/>
<rect x="211.93" y="224.768" width="6.27907" height="6.27907" transform="rotate(90 211.93 224.768)" fill="#A1A1A1"/>
<rect x="249.602" y="262.441" width="6.27907" height="6.27907" transform="rotate(90 249.602 262.441)" fill="#A1A1A1"/>
<rect x="105.188" y="105.465" width="6.27907" height="6.27907" transform="rotate(90 105.188 105.465)" fill="#A1A1A1"/>
<rect x="142.859" y="143.14" width="6.27907" height="6.27907" transform="rotate(90 142.859 143.14)" fill="#A1A1A1"/>
<rect x="180.531" y="180.813" width="6.27907" height="6.27907" transform="rotate(90 180.531 180.813)" fill="#A1A1A1"/>
<rect x="218.211" y="218.488" width="6.27907" height="6.27907" transform="rotate(90 218.211 218.488)" fill="#A1A1A1"/>
<rect x="255.883" y="256.163" width="6.27907" height="6.27907" transform="rotate(90 255.883 256.163)" fill="#A1A1A1"/>
<rect x="111.469" y="99.1865" width="6.27907" height="6.27907" transform="rotate(90 111.469 99.1865)" fill="#A1A1A1"/>
<rect x="149.141" y="136.86" width="6.27907" height="6.27907" transform="rotate(90 149.141 136.86)" fill="#A1A1A1"/>
<rect x="186.812" y="174.535" width="6.27907" height="6.27907" transform="rotate(90 186.812 174.535)" fill="#A1A1A1"/>
<rect x="224.492" y="212.209" width="6.27907" height="6.27907" transform="rotate(90 224.492 212.209)" fill="#A1A1A1"/>
<rect x="262.164" y="249.884" width="6.27907" height="6.27907" transform="rotate(90 262.164 249.884)" fill="#A1A1A1"/>
<rect x="117.742" y="92.9072" width="6.27907" height="6.27907" transform="rotate(90 117.742 92.9072)" fill="#A1A1A1"/>
<rect x="155.422" y="130.581" width="6.27907" height="6.27907" transform="rotate(90 155.422 130.581)" fill="#A1A1A1"/>
<rect x="193.094" y="168.256" width="6.27907" height="6.27907" transform="rotate(90 193.094 168.256)" fill="#A1A1A1"/>
<rect x="230.766" y="205.931" width="6.27907" height="6.27907" transform="rotate(90 230.766 205.931)" fill="#A1A1A1"/>
<rect x="268.445" y="243.604" width="6.27907" height="6.27907" transform="rotate(90 268.445 243.604)" fill="#A1A1A1"/>
<rect x="124.023" y="86.6279" width="6.27907" height="6.27907" transform="rotate(90 124.023 86.6279)" fill="#A1A1A1"/>
<rect x="161.695" y="124.303" width="6.27907" height="6.27907" transform="rotate(90 161.695 124.303)" fill="#A1A1A1"/>
<rect x="199.375" y="161.977" width="6.27907" height="6.27907" transform="rotate(90 199.375 161.977)" fill="#A1A1A1"/>
<rect x="237.047" y="199.651" width="6.27907" height="6.27907" transform="rotate(90 237.047 199.651)" fill="#A1A1A1"/>
<rect x="274.719" y="237.325" width="6.27907" height="6.27907" transform="rotate(90 274.719 237.325)" fill="#A1A1A1"/>
<rect x="61.2344" y="86.6279" width="6.27907" height="6.27907" transform="rotate(90 61.2344 86.6279)" fill="#A1A1A1"/>
<rect x="98.9062" y="124.303" width="6.27907" height="6.27907" transform="rotate(90 98.9062 124.303)" fill="#A1A1A1"/>
<rect x="136.578" y="161.977" width="6.27907" height="6.27907" transform="rotate(90 136.578 161.977)" fill="#A1A1A1"/>
<rect x="174.258" y="199.651" width="6.27907" height="6.27907" transform="rotate(90 174.258 199.651)" fill="#A1A1A1"/>
<rect x="211.93" y="237.325" width="6.27907" height="6.27907" transform="rotate(90 211.93 237.325)" fill="#A1A1A1"/>
<rect x="67.5078" y="92.9072" width="6.27907" height="6.27907" transform="rotate(90 67.5078 92.9072)" fill="#A1A1A1"/>
<rect x="105.188" y="130.581" width="6.27907" height="6.27907" transform="rotate(90 105.188 130.581)" fill="#A1A1A1"/>
<rect x="142.859" y="168.256" width="6.27907" height="6.27907" transform="rotate(90 142.859 168.256)" fill="#A1A1A1"/>
<rect x="180.531" y="205.931" width="6.27907" height="6.27907" transform="rotate(90 180.531 205.931)" fill="#A1A1A1"/>
<rect x="218.211" y="243.604" width="6.27907" height="6.27907" transform="rotate(90 218.211 243.604)" fill="#A1A1A1"/>
<rect x="73.7891" y="99.1865" width="6.27907" height="6.27907" transform="rotate(90 73.7891 99.1865)" fill="#A1A1A1"/>
<rect x="111.469" y="136.86" width="6.27907" height="6.27907" transform="rotate(90 111.469 136.86)" fill="#A1A1A1"/>
<rect x="149.141" y="174.535" width="6.27907" height="6.27907" transform="rotate(90 149.141 174.535)" fill="#A1A1A1"/>
<rect x="186.812" y="212.209" width="6.27907" height="6.27907" transform="rotate(90 186.812 212.209)" fill="#A1A1A1"/>
<rect x="224.492" y="249.884" width="6.27907" height="6.27907" transform="rotate(90 224.492 249.884)" fill="#A1A1A1"/>
<rect x="80.0703" y="105.465" width="6.27907" height="6.27907" transform="rotate(90 80.0703 105.465)" fill="#A1A1A1"/>
<rect x="117.742" y="143.14" width="6.27907" height="6.27907" transform="rotate(90 117.742 143.14)" fill="#A1A1A1"/>
<rect x="155.422" y="180.813" width="6.27907" height="6.27907" transform="rotate(90 155.422 180.813)" fill="#A1A1A1"/>
<rect x="193.094" y="218.488" width="6.27907" height="6.27907" transform="rotate(90 193.094 218.488)" fill="#A1A1A1"/>
<rect x="230.766" y="256.163" width="6.27907" height="6.27907" transform="rotate(90 230.766 256.163)" fill="#A1A1A1"/>
<rect x="161.695" y="36.3955" width="6.27907" height="6.27907" transform="rotate(90 161.695 36.3955)" fill="#A1A1A1"/>
<rect x="199.375" y="74.0693" width="6.27907" height="6.27907" transform="rotate(90 199.375 74.0693)" fill="#A1A1A1"/>
<rect x="155.422" y="30.1162" width="6.27907" height="6.27907" transform="rotate(90 155.422 30.1162)" fill="#A1A1A1"/>
<rect x="193.094" y="67.791" width="6.27907" height="6.27907" transform="rotate(90 193.094 67.791)" fill="#A1A1A1"/>
<rect x="149.141" y="23.8369" width="6.27907" height="6.27907" transform="rotate(90 149.141 23.8369)" fill="#A1A1A1"/>
<rect x="186.812" y="61.5117" width="6.27907" height="6.27907" transform="rotate(90 186.812 61.5117)" fill="#A1A1A1"/>
<rect x="142.859" y="17.5586" width="6.27907" height="6.27907" transform="rotate(90 142.859 17.5586)" fill="#A1A1A1"/>
<rect x="180.531" y="55.2324" width="6.27907" height="6.27907" transform="rotate(90 180.531 55.2324)" fill="#A1A1A1"/>
<rect x="136.578" y="11.2793" width="6.27907" height="6.27907" transform="rotate(90 136.578 11.2793)" fill="#A1A1A1"/>
<rect x="174.258" y="48.9531" width="6.27907" height="6.27907" transform="rotate(90 174.258 48.9531)" fill="#A1A1A1"/>
<rect x="136.578" y="74.0693" width="6.27907" height="6.27907" transform="rotate(90 136.578 74.0693)" fill="#A1A1A1"/>
<rect x="142.859" y="67.791" width="6.27907" height="6.27907" transform="rotate(90 142.859 67.791)" fill="#A1A1A1"/>
<rect x="149.141" y="61.5117" width="6.27907" height="6.27907" transform="rotate(90 149.141 61.5117)" fill="#A1A1A1"/>
<rect x="155.422" y="55.2324" width="6.27907" height="6.27907" transform="rotate(90 155.422 55.2324)" fill="#A1A1A1"/>
<rect x="161.695" y="48.9531" width="6.27907" height="6.27907" transform="rotate(90 161.695 48.9531)" fill="#A1A1A1"/>
<rect x="167.977" y="42.6748" width="6.27907" height="6.27907" transform="rotate(90 167.977 42.6748)" fill="#A1A1A1"/>
<rect x="124.023" y="11.2793" width="6.27907" height="6.27907" transform="rotate(90 124.023 11.2793)" fill="#A1A1A1"/>
<rect x="130.305" y="5" width="6.27907" height="6.27907" transform="rotate(90 130.305 5)" fill="#A1A1A1"/>
<rect x="117.742" y="17.5586" width="6.27907" height="6.27907" transform="rotate(90 117.742 17.5586)" fill="#A1A1A1"/>
<rect x="111.469" y="23.8369" width="6.27907" height="6.27907" transform="rotate(90 111.469 23.8369)" fill="#A1A1A1"/>
<rect x="105.188" y="30.1162" width="6.27907" height="6.27907" transform="rotate(90 105.188 30.1162)" fill="#A1A1A1"/>
<rect x="98.9062" y="36.3955" width="6.27907" height="6.27907" transform="rotate(90 98.9062 36.3955)" fill="#A1A1A1"/>
<rect x="174.258" y="111.744" width="6.27907" height="6.27907" transform="rotate(90 174.258 111.744)" fill="#A1A1A1"/>
<rect x="180.531" y="105.465" width="6.27907" height="6.27907" transform="rotate(90 180.531 105.465)" fill="#A1A1A1"/>
<rect x="186.812" y="99.1865" width="6.27907" height="6.27907" transform="rotate(90 186.812 99.1865)" fill="#A1A1A1"/>
<rect x="193.094" y="92.9072" width="6.27907" height="6.27907" transform="rotate(90 193.094 92.9072)" fill="#A1A1A1"/>
<rect x="199.375" y="86.6279" width="6.27907" height="6.27907" transform="rotate(90 199.375 86.6279)" fill="#A1A1A1"/>
<rect x="205.648" y="80.3486" width="6.27907" height="6.27907" transform="rotate(90 205.648 80.3486)" fill="#A1A1A1"/>
<rect x="243.328" y="118.023" width="6.27907" height="6.27907" transform="rotate(90 243.328 118.023)" fill="#A1A1A1"/>
<rect x="281" y="155.697" width="6.27907" height="6.27907" transform="rotate(90 281 155.697)" fill="#A1A1A1"/>
<rect x="281" y="80.3486" width="6.27907" height="6.27907" transform="rotate(90 281 80.3486)" fill="#A1A1A1"/>
<rect x="243.328" y="42.6748" width="6.27907" height="6.27907" transform="rotate(90 243.328 42.6748)" fill="#A1A1A1"/>
<rect x="237.047" y="111.744" width="6.27907" height="6.27907" transform="rotate(90 237.047 111.744)" fill="#A1A1A1"/>
<rect x="274.719" y="149.419" width="6.27907" height="6.27907" transform="rotate(90 274.719 149.419)" fill="#A1A1A1"/>
<rect x="274.719" y="74.0693" width="6.27907" height="6.27907" transform="rotate(90 274.719 74.0693)" fill="#A1A1A1"/>
<rect x="237.047" y="36.3955" width="6.27907" height="6.27907" transform="rotate(90 237.047 36.3955)" fill="#A1A1A1"/>
<rect x="230.766" y="105.465" width="6.27907" height="6.27907" transform="rotate(90 230.766 105.465)" fill="#A1A1A1"/>
<rect x="268.445" y="143.14" width="6.27907" height="6.27907" transform="rotate(90 268.445 143.14)" fill="#A1A1A1"/>
<rect x="268.445" y="67.791" width="6.27907" height="6.27907" transform="rotate(90 268.445 67.791)" fill="#A1A1A1"/>
<rect x="230.766" y="30.1162" width="6.27907" height="6.27907" transform="rotate(90 230.766 30.1162)" fill="#A1A1A1"/>
<rect x="224.492" y="99.1865" width="6.27907" height="6.27907" transform="rotate(90 224.492 99.1865)" fill="#A1A1A1"/>
<rect x="262.164" y="136.86" width="6.27907" height="6.27907" transform="rotate(90 262.164 136.86)" fill="#A1A1A1"/>
<rect x="262.164" y="61.5117" width="6.27907" height="6.27907" transform="rotate(90 262.164 61.5117)" fill="#A1A1A1"/>
<rect x="224.492" y="23.8369" width="6.27907" height="6.27907" transform="rotate(90 224.492 23.8369)" fill="#A1A1A1"/>
<rect x="218.211" y="92.9072" width="6.27907" height="6.27907" transform="rotate(90 218.211 92.9072)" fill="#A1A1A1"/>
<rect x="255.883" y="130.581" width="6.27907" height="6.27907" transform="rotate(90 255.883 130.581)" fill="#A1A1A1"/>
<rect x="255.883" y="55.2324" width="6.27907" height="6.27907" transform="rotate(90 255.883 55.2324)" fill="#A1A1A1"/>
<rect x="218.211" y="17.5586" width="6.27907" height="6.27907" transform="rotate(90 218.211 17.5586)" fill="#A1A1A1"/>
<rect x="211.93" y="86.6279" width="6.27907" height="6.27907" transform="rotate(90 211.93 86.6279)" fill="#A1A1A1"/>
<rect x="249.602" y="124.303" width="6.27907" height="6.27907" transform="rotate(90 249.602 124.303)" fill="#A1A1A1"/>
<rect x="249.602" y="48.9531" width="6.27907" height="6.27907" transform="rotate(90 249.602 48.9531)" fill="#A1A1A1"/>
<rect x="211.93" y="11.2793" width="6.27907" height="6.27907" transform="rotate(90 211.93 11.2793)" fill="#A1A1A1"/>
<rect x="211.93" y="149.419" width="6.27907" height="6.27907" transform="rotate(90 211.93 149.419)" fill="#A1A1A1"/>
<rect x="249.602" y="187.093" width="6.27907" height="6.27907" transform="rotate(90 249.602 187.093)" fill="#A1A1A1"/>
<rect x="249.602" y="111.744" width="6.27907" height="6.27907" transform="rotate(90 249.602 111.744)" fill="#A1A1A1"/>
<rect x="211.93" y="74.0693" width="6.27907" height="6.27907" transform="rotate(90 211.93 74.0693)" fill="#A1A1A1"/>
<rect x="218.211" y="143.14" width="6.27907" height="6.27907" transform="rotate(90 218.211 143.14)" fill="#A1A1A1"/>
<rect x="255.883" y="180.813" width="6.27907" height="6.27907" transform="rotate(90 255.883 180.813)" fill="#A1A1A1"/>
<rect x="255.883" y="105.465" width="6.27907" height="6.27907" transform="rotate(90 255.883 105.465)" fill="#A1A1A1"/>
<rect x="218.211" y="67.791" width="6.27907" height="6.27907" transform="rotate(90 218.211 67.791)" fill="#A1A1A1"/>
<rect x="224.492" y="136.86" width="6.27907" height="6.27907" transform="rotate(90 224.492 136.86)" fill="#A1A1A1"/>
<rect x="262.164" y="174.535" width="6.27907" height="6.27907" transform="rotate(90 262.164 174.535)" fill="#A1A1A1"/>
<rect x="262.164" y="99.1865" width="6.27907" height="6.27907" transform="rotate(90 262.164 99.1865)" fill="#A1A1A1"/>
<rect x="224.492" y="61.5117" width="6.27907" height="6.27907" transform="rotate(90 224.492 61.5117)" fill="#A1A1A1"/>
<rect x="230.766" y="130.581" width="6.27907" height="6.27907" transform="rotate(90 230.766 130.581)" fill="#A1A1A1"/>
<rect x="268.445" y="168.256" width="6.27907" height="6.27907" transform="rotate(90 268.445 168.256)" fill="#A1A1A1"/>
<rect x="268.445" y="92.9072" width="6.27907" height="6.27907" transform="rotate(90 268.445 92.9072)" fill="#A1A1A1"/>
<rect x="230.766" y="55.2324" width="6.27907" height="6.27907" transform="rotate(90 230.766 55.2324)" fill="#A1A1A1"/>
<rect x="237.047" y="124.303" width="6.27907" height="6.27907" transform="rotate(90 237.047 124.303)" fill="#A1A1A1"/>
<rect x="274.719" y="161.977" width="6.27907" height="6.27907" transform="rotate(90 274.719 161.977)" fill="#A1A1A1"/>
<rect x="274.719" y="86.6279" width="6.27907" height="6.27907" transform="rotate(90 274.719 86.6279)" fill="#A1A1A1"/>
<rect x="237.047" y="48.9531" width="6.27907" height="6.27907" transform="rotate(90 237.047 48.9531)" fill="#A1A1A1"/>
<rect x="193.094" y="17.5586" width="6.27907" height="6.27907" transform="rotate(90 193.094 17.5586)" fill="#A1A1A1"/>
<rect x="268.445" y="17.5586" width="6.27907" height="6.27907" transform="rotate(90 268.445 17.5586)" fill="#A1A1A1"/>
<rect x="199.375" y="11.2793" width="6.27907" height="6.27907" transform="rotate(90 199.375 11.2793)" fill="#A1A1A1"/>
<rect x="274.719" y="11.2793" width="6.27907" height="6.27907" transform="rotate(90 274.719 11.2793)" fill="#A1A1A1"/>
<rect x="205.648" y="5" width="6.27907" height="6.27907" transform="rotate(90 205.648 5)" fill="#A1A1A1"/>
<rect x="281" y="5" width="6.27907" height="6.27907" transform="rotate(90 281 5)" fill="#A1A1A1"/>
<rect x="186.812" y="23.8369" width="6.27907" height="6.27907" transform="rotate(90 186.812 23.8369)" fill="#A1A1A1"/>
<rect x="262.164" y="23.8369" width="6.27907" height="6.27907" transform="rotate(90 262.164 23.8369)" fill="#A1A1A1"/>
<rect x="180.531" y="30.1162" width="6.27907" height="6.27907" transform="rotate(90 180.531 30.1162)" fill="#A1A1A1"/>
<rect x="255.883" y="30.1162" width="6.27907" height="6.27907" transform="rotate(90 255.883 30.1162)" fill="#A1A1A1"/>
<rect x="174.258" y="36.3955" width="6.27907" height="6.27907" transform="rotate(90 174.258 36.3955)" fill="#A1A1A1"/>
<rect x="249.602" y="36.3955" width="6.27907" height="6.27907" transform="rotate(90 249.602 36.3955)" fill="#A1A1A1"/>
<rect width="6.27907" height="6.27907" transform="matrix(6.96144e-09 1 1 -2.74467e-07 11 118.023)" fill="#A1A1A1"/>
<rect width="6.27907" height="6.27907" transform="matrix(4.37114e-08 1 1 -4.37114e-08 48.6719 155.697)" fill="#A1A1A1"/>
<rect width="6.27907" height="6.27907" transform="matrix(4.37114e-08 1 1 -4.37114e-08 86.3516 193.372)" fill="#A1A1A1"/>
<rect width="6.27907" height="6.27907" transform="matrix(4.37114e-08 1 1 -4.37114e-08 124.023 231.047)" fill="#A1A1A1"/>
<rect width="6.27907" height="6.27907" transform="matrix(6.96144e-09 1 1 -2.74467e-07 11 193.372)" fill="#A1A1A1"/>
<rect width="6.27907" height="6.27907" transform="matrix(4.37114e-08 1 1 -4.37114e-08 48.6719 231.047)" fill="#A1A1A1"/>
<rect width="6.27907" height="6.27907" transform="matrix(4.37114e-08 1 1 -4.37114e-08 17.2812 111.744)" fill="#A1A1A1"/>
<rect width="6.27907" height="6.27907" transform="matrix(4.37114e-08 1 1 -4.37114e-08 54.9531 149.419)" fill="#A1A1A1"/>
<rect width="6.27907" height="6.27907" transform="matrix(4.37114e-08 1 1 -4.37114e-08 92.625 187.093)" fill="#A1A1A1"/>
<rect width="6.27907" height="6.27907" transform="matrix(4.37114e-08 1 1 -4.37114e-08 130.305 224.768)" fill="#A1A1A1"/>
<rect width="6.27907" height="6.27907" transform="matrix(4.37114e-08 1 1 -4.37114e-08 17.2812 187.093)" fill="#A1A1A1"/>
<rect width="6.27907" height="6.27907" transform="matrix(4.37114e-08 1 1 -4.37114e-08 54.9531 224.768)" fill="#A1A1A1"/>
<rect width="6.27907" height="6.27907" transform="matrix(4.37114e-08 1 1 -4.37114e-08 23.5547 105.465)" fill="#A1A1A1"/>
<rect width="6.27907" height="6.27907" transform="matrix(4.37114e-08 1 1 -4.37114e-08 61.2344 143.14)" fill="#A1A1A1"/>
<rect width="6.27907" height="6.27907" transform="matrix(4.37114e-08 1 1 -4.37114e-08 98.9062 180.813)" fill="#A1A1A1"/>
<rect width="6.27907" height="6.27907" transform="matrix(4.37114e-08 1 1 -4.37114e-08 136.578 218.488)" fill="#A1A1A1"/>
<rect width="6.27907" height="6.27907" transform="matrix(4.37114e-08 1 1 -4.37114e-08 23.5547 180.813)" fill="#A1A1A1"/>
<rect width="6.27907" height="6.27907" transform="matrix(4.37114e-08 1 1 -4.37114e-08 61.2344 218.488)" fill="#A1A1A1"/>
<rect width="6.27907" height="6.27907" transform="matrix(4.37114e-08 1 1 -4.37114e-08 29.8359 99.1865)" fill="#A1A1A1"/>
<rect width="6.27907" height="6.27907" transform="matrix(4.37114e-08 1 1 -4.37114e-08 67.5078 136.86)" fill="#A1A1A1"/>
<rect width="6.27907" height="6.27907" transform="matrix(4.37114e-08 1 1 -4.37114e-08 105.188 174.535)" fill="#A1A1A1"/>
<rect width="6.27907" height="6.27907" transform="matrix(4.37114e-08 1 1 -4.37114e-08 142.859 212.209)" fill="#A1A1A1"/>
<rect width="6.27907" height="6.27907" transform="matrix(4.37114e-08 1 1 -4.37114e-08 29.8359 174.535)" fill="#A1A1A1"/>
<rect width="6.27907" height="6.27907" transform="matrix(4.37114e-08 1 1 -4.37114e-08 67.5078 212.209)" fill="#A1A1A1"/>
<rect width="6.27907" height="6.27907" transform="matrix(4.37114e-08 1 1 -4.37114e-08 36.1172 92.9072)" fill="#A1A1A1"/>
<rect width="6.27907" height="6.27907" transform="matrix(4.37114e-08 1 1 -4.37114e-08 73.7891 130.581)" fill="#A1A1A1"/>
<rect width="6.27907" height="6.27907" transform="matrix(4.37114e-08 1 1 -4.37114e-08 111.469 168.256)" fill="#A1A1A1"/>
<rect width="6.27907" height="6.27907" transform="matrix(4.37114e-08 1 1 -4.37114e-08 149.141 205.931)" fill="#A1A1A1"/>
<rect width="6.27907" height="6.27907" transform="matrix(4.37114e-08 1 1 -4.37114e-08 36.1172 168.256)" fill="#A1A1A1"/>
<rect width="6.27907" height="6.27907" transform="matrix(4.37114e-08 1 1 -4.37114e-08 73.7891 205.931)" fill="#A1A1A1"/>
<rect width="6.27907" height="6.27907" transform="matrix(4.37114e-08 1 1 -4.37114e-08 42.3984 86.6279)" fill="#A1A1A1"/>
<rect width="6.27907" height="6.27907" transform="matrix(4.37114e-08 1 1 -4.37114e-08 80.0703 124.303)" fill="#A1A1A1"/>
<rect width="6.27907" height="6.27907" transform="matrix(4.37114e-08 1 1 -4.37114e-08 117.742 161.977)" fill="#A1A1A1"/>
<rect width="6.27907" height="6.27907" transform="matrix(4.37114e-08 1 1 -4.37114e-08 155.422 199.651)" fill="#A1A1A1"/>
<rect width="6.27907" height="6.27907" transform="matrix(4.37114e-08 1 1 -4.37114e-08 42.3984 161.977)" fill="#A1A1A1"/>
<rect width="6.27907" height="6.27907" transform="matrix(4.37114e-08 1 1 -4.37114e-08 80.0703 199.651)" fill="#A1A1A1"/>
<rect width="6.27907" height="6.27907" transform="matrix(4.37114e-08 1 1 -4.37114e-08 42.3984 149.419)" fill="#A1A1A1"/>
<rect width="6.27907" height="6.27907" transform="matrix(4.37114e-08 1 1 -4.37114e-08 80.0703 187.093)" fill="#A1A1A1"/>
<rect width="6.27907" height="6.27907" transform="matrix(4.37114e-08 1 1 -4.37114e-08 117.742 224.768)" fill="#A1A1A1"/>
<rect width="6.27907" height="6.27907" transform="matrix(4.37114e-08 1 1 -4.37114e-08 155.422 262.441)" fill="#A1A1A1"/>
<rect width="6.27907" height="6.27907" transform="matrix(4.37114e-08 1 1 -4.37114e-08 42.3984 224.768)" fill="#A1A1A1"/>
<rect width="6.27907" height="6.27907" transform="matrix(4.37114e-08 1 1 -4.37114e-08 80.0703 262.441)" fill="#A1A1A1"/>
<rect width="6.27907" height="6.27907" transform="matrix(4.37114e-08 1 1 -4.37114e-08 36.1172 143.14)" fill="#A1A1A1"/>
<rect width="6.27907" height="6.27907" transform="matrix(4.37114e-08 1 1 -4.37114e-08 73.7891 180.813)" fill="#A1A1A1"/>
<rect width="6.27907" height="6.27907" transform="matrix(4.37114e-08 1 1 -4.37114e-08 111.469 218.488)" fill="#A1A1A1"/>
<rect width="6.27907" height="6.27907" transform="matrix(4.37114e-08 1 1 -4.37114e-08 149.141 256.163)" fill="#A1A1A1"/>
<rect width="6.27907" height="6.27907" transform="matrix(4.37114e-08 1 1 -4.37114e-08 36.1172 218.488)" fill="#A1A1A1"/>
<rect width="6.27907" height="6.27907" transform="matrix(4.37114e-08 1 1 -4.37114e-08 73.7891 256.163)" fill="#A1A1A1"/>
<rect width="6.27907" height="6.27907" transform="matrix(4.37114e-08 1 1 -4.37114e-08 29.8359 136.86)" fill="#A1A1A1"/>
<rect width="6.27907" height="6.27907" transform="matrix(4.37114e-08 1 1 -4.37114e-08 67.5078 174.535)" fill="#A1A1A1"/>
<rect width="6.27907" height="6.27907" transform="matrix(4.37114e-08 1 1 -4.37114e-08 105.188 212.209)" fill="#A1A1A1"/>
<rect width="6.27907" height="6.27907" transform="matrix(4.37114e-08 1 1 -4.37114e-08 142.859 249.884)" fill="#A1A1A1"/>
<rect width="6.27907" height="6.27907" transform="matrix(4.37114e-08 1 1 -4.37114e-08 29.8359 212.209)" fill="#A1A1A1"/>
<rect width="6.27907" height="6.27907" transform="matrix(4.37114e-08 1 1 -4.37114e-08 67.5078 249.884)" fill="#A1A1A1"/>
<rect width="6.27907" height="6.27907" transform="matrix(4.37114e-08 1 1 -4.37114e-08 23.5547 130.581)" fill="#A1A1A1"/>
<rect width="6.27907" height="6.27907" transform="matrix(4.37114e-08 1 1 -4.37114e-08 61.2344 168.256)" fill="#A1A1A1"/>
<rect width="6.27907" height="6.27907" transform="matrix(4.37114e-08 1 1 -4.37114e-08 98.9062 205.931)" fill="#A1A1A1"/>
<rect width="6.27907" height="6.27907" transform="matrix(4.37114e-08 1 1 -4.37114e-08 136.578 243.604)" fill="#A1A1A1"/>
<rect width="6.27907" height="6.27907" transform="matrix(4.37114e-08 1 1 -4.37114e-08 23.5547 205.931)" fill="#A1A1A1"/>
<rect width="6.27907" height="6.27907" transform="matrix(4.37114e-08 1 1 -4.37114e-08 61.2344 243.604)" fill="#A1A1A1"/>
<rect width="6.27907" height="6.27907" transform="matrix(4.37114e-08 1 1 -4.37114e-08 17.2812 124.303)" fill="#A1A1A1"/>
<rect width="6.27907" height="6.27907" transform="matrix(4.37114e-08 1 1 -4.37114e-08 54.9531 161.977)" fill="#A1A1A1"/>
<rect width="6.27907" height="6.27907" transform="matrix(4.37114e-08 1 1 -4.37114e-08 92.625 199.651)" fill="#A1A1A1"/>
<rect width="6.27907" height="6.27907" transform="matrix(4.37114e-08 1 1 -4.37114e-08 130.305 237.325)" fill="#A1A1A1"/>
<rect width="6.27907" height="6.27907" transform="matrix(4.37114e-08 1 1 -4.37114e-08 17.2812 199.651)" fill="#A1A1A1"/>
<rect width="6.27907" height="6.27907" transform="matrix(4.37114e-08 1 1 -4.37114e-08 54.9531 237.325)" fill="#A1A1A1"/>
<rect x="186.812" y="249.884" width="6.27907" height="6.27907" transform="rotate(90 186.812 249.884)" fill="#A1A1A1"/>
<rect x="111.469" y="249.884" width="6.27907" height="6.27907" transform="rotate(90 111.469 249.884)" fill="#A1A1A1"/>
<rect x="36.1172" y="249.884" width="6.27907" height="6.27907" transform="rotate(90 36.1172 249.884)" fill="#A1A1A1"/>
<rect x="193.094" y="243.604" width="6.27907" height="6.27907" transform="rotate(90 193.094 243.604)" fill="#A1A1A1"/>
<rect x="117.742" y="243.604" width="6.27907" height="6.27907" transform="rotate(90 117.742 243.604)" fill="#A1A1A1"/>
<rect x="42.3984" y="243.604" width="6.27907" height="6.27907" transform="rotate(90 42.3984 243.604)" fill="#A1A1A1"/>
<rect x="199.375" y="237.325" width="6.27907" height="6.27907" transform="rotate(90 199.375 237.325)" fill="#A1A1A1"/>
<rect x="124.023" y="237.325" width="6.27907" height="6.27907" transform="rotate(90 124.023 237.325)" fill="#A1A1A1"/>
<rect x="48.6719" y="237.325" width="6.27907" height="6.27907" transform="rotate(90 48.6719 237.325)" fill="#A1A1A1"/>
<rect x="180.531" y="256.163" width="6.27907" height="6.27907" transform="rotate(90 180.531 256.163)" fill="#A1A1A1"/>
<rect x="105.188" y="256.163" width="6.27907" height="6.27907" transform="rotate(90 105.188 256.163)" fill="#A1A1A1"/>
<rect x="29.8359" y="256.163" width="6.27907" height="6.27907" transform="rotate(90 29.8359 256.163)" fill="#A1A1A1"/>
<rect x="174.258" y="262.441" width="6.27907" height="6.27907" transform="rotate(90 174.258 262.441)" fill="#A1A1A1"/>
<rect x="98.9062" y="262.441" width="6.27907" height="6.27907" transform="rotate(90 98.9062 262.441)" fill="#A1A1A1"/>
<rect x="23.5547" y="262.441" width="6.27907" height="6.27907" transform="rotate(90 23.5547 262.441)" fill="#A1A1A1"/>
<rect x="167.977" y="268.721" width="6.27907" height="6.27907" transform="rotate(90 167.977 268.721)" fill="#A1A1A1"/>
<rect x="92.625" y="268.721" width="6.27907" height="6.27907" transform="rotate(90 92.625 268.721)" fill="#A1A1A1"/>
<rect x="17.2812" y="268.721" width="6.27907" height="6.27907" transform="rotate(90 17.2812 268.721)" fill="#A1A1A1"/>
<circle cx="90" cy="269" r="12" fill="black"/>
<circle cx="167" cy="272" r="12" fill="black"/>
<circle cx="241" cy="270" r="12" fill="black"/>
<circle cx="276" cy="233" r="12" fill="black"/>
<circle cx="203" cy="231" r="12" fill="black"/>
<circle cx="127" cy="233" r="12" fill="black"/>
<circle cx="52" cy="233" r="12" fill="black"/>
<circle cx="12" cy="194" r="12" fill="black"/>
<circle cx="203" cy="83" r="12" fill="black"/>
<circle cx="241" cy="192" r="12" fill="black"/>
<circle cx="276" cy="12" r="12" fill="white"/>
<circle cx="204" cy="159" r="13" fill="white" stroke="#43FF46" stroke-width="2"/>
<circle cx="127" cy="12" r="12" fill="white"/>
<circle cx="52" cy="12" r="12" fill="white"/>
<circle cx="12" cy="50" r="12" fill="white"/>
<circle cx="90" cy="47" r="12" fill="white"/>
<circle cx="241" cy="48" r="12" fill="white"/>
<circle cx="276" cy="85" r="12" fill="white"/>
<circle cx="238" cy="122" r="12" fill="white"/>
<circle cx="12" cy="272" r="12" fill="black"/>
<path d="M134.25 89.7578C133.145 89.7578 132.25 90.6532 132.25 91.7578L132.25 109.758C132.25 110.862 133.145 111.758 134.25 111.758C135.355 111.758 136.25 110.862 136.25 109.758L136.25 93.7578L152.25 93.7578C153.355 93.7578 154.25 92.8624 154.25 91.7578C154.25 90.6532 153.355 89.7578 152.25 89.7578L134.25 89.7578ZM194.25 151.758L195.664 150.344L135.664 90.3436L134.25 91.7578L132.836 93.172L192.836 153.172L194.25 151.758Z" fill="white"/>
<circle cx="165" cy="119" r="13" fill="black" stroke="#FF6363" stroke-width="2"/>
</svg>
