<svg width="270" height="270" viewBox="0 0 270 270" fill="none" xmlns="http://www.w3.org/2000/svg">
<rect x="81.625" y="37.6758" width="6.27907" height="6.27907" transform="rotate(90 81.625 37.6758)" fill="#A1A1A1"/>
<rect x="75.3516" y="31.3945" width="6.27907" height="6.27907" transform="rotate(90 75.3516 31.3945)" fill="#A1A1A1"/>
<rect x="69.0703" y="25.1172" width="6.27907" height="6.27907" transform="rotate(90 69.0703 25.1172)" fill="#A1A1A1"/>
<rect x="62.7891" y="18.8359" width="6.27907" height="6.27907" transform="rotate(90 62.7891 18.8359)" fill="#A1A1A1"/>
<rect x="56.5078" y="12.5586" width="6.27907" height="6.27907" transform="rotate(90 56.5078 12.5586)" fill="#A1A1A1"/>
<rect x="50.2344" y="6.27734" width="6.27907" height="6.27907" transform="rotate(90 50.2344 6.27734)" fill="#A1A1A1"/>
<rect x="37.6719" y="69.0703" width="6.27907" height="6.27907" transform="rotate(90 37.6719 69.0703)" fill="#A1A1A1"/>
<rect x="43.9531" y="75.3477" width="6.27907" height="6.27907" transform="rotate(90 43.9531 75.3477)" fill="#A1A1A1"/>
<rect x="50.2344" y="69.0703" width="6.27907" height="6.27907" transform="rotate(90 50.2344 69.0703)" fill="#A1A1A1"/>
<rect x="56.5078" y="62.7891" width="6.27907" height="6.27907" transform="rotate(90 56.5078 62.7891)" fill="#A1A1A1"/>
<rect x="62.7891" y="56.5117" width="6.27907" height="6.27907" transform="rotate(90 62.7891 56.5117)" fill="#A1A1A1"/>
<rect x="69.0703" y="50.2344" width="6.27907" height="6.27907" transform="rotate(90 69.0703 50.2344)" fill="#A1A1A1"/>
<rect x="75.3516" y="43.9531" width="6.27907" height="6.27907" transform="rotate(90 75.3516 43.9531)" fill="#A1A1A1"/>
<rect x="31.3984" y="12.5586" width="6.27907" height="6.27907" transform="rotate(90 31.3984 12.5586)" fill="#A1A1A1"/>
<rect x="37.6719" y="6.27734" width="6.27907" height="6.27907" transform="rotate(90 37.6719 6.27734)" fill="#A1A1A1"/>
<rect x="43.9531" width="6.27907" height="6.27907" transform="rotate(90 43.9531 0)" fill="#A1A1A1"/>
<rect x="25.1172" y="18.8359" width="6.27907" height="6.27907" transform="rotate(90 25.1172 18.8359)" fill="#A1A1A1"/>
<rect x="18.8359" y="25.1172" width="6.27907" height="6.27907" transform="rotate(90 18.8359 25.1172)" fill="#A1A1A1"/>
<rect x="12.5547" y="31.3945" width="6.27907" height="6.27907" transform="rotate(90 12.5547 31.3945)" fill="#A1A1A1"/>
<rect x="6.28125" y="37.6758" width="6.27907" height="6.27907" transform="rotate(90 6.28125 37.6758)" fill="#A1A1A1"/>
<rect x="12.5547" y="43.9531" width="6.27907" height="6.27907" transform="rotate(90 12.5547 43.9531)" fill="#A1A1A1"/>
<rect x="18.8359" y="50.2344" width="6.27907" height="6.27907" transform="rotate(90 18.8359 50.2344)" fill="#A1A1A1"/>
<rect x="25.1172" y="56.5117" width="6.27907" height="6.27907" transform="rotate(90 25.1172 56.5117)" fill="#A1A1A1"/>
<rect x="31.3984" y="62.7891" width="6.27907" height="6.27907" transform="rotate(90 31.3984 62.7891)" fill="#A1A1A1"/>
<rect x="119.305" y="75.3477" width="6.27907" height="6.27907" transform="rotate(90 119.305 75.3477)" fill="#A1A1A1"/>
<rect x="156.977" y="113.023" width="6.27907" height="6.27907" transform="rotate(90 156.977 113.023)" fill="#A1A1A1"/>
<rect x="194.648" y="150.699" width="6.27907" height="6.27907" transform="rotate(90 194.648 150.699)" fill="#A1A1A1"/>
<rect x="232.328" y="188.371" width="6.27907" height="6.27907" transform="rotate(90 232.328 188.371)" fill="#A1A1A1"/>
<rect x="270" y="226.047" width="6.27907" height="6.27907" transform="rotate(90 270 226.047)" fill="#A1A1A1"/>
<rect x="113.023" y="69.0703" width="6.27907" height="6.27907" transform="rotate(90 113.023 69.0703)" fill="#A1A1A1"/>
<rect x="150.695" y="106.746" width="6.27907" height="6.27907" transform="rotate(90 150.695 106.746)" fill="#A1A1A1"/>
<rect x="188.375" y="144.418" width="6.27907" height="6.27907" transform="rotate(90 188.375 144.418)" fill="#A1A1A1"/>
<rect x="226.047" y="182.094" width="6.27907" height="6.27907" transform="rotate(90 226.047 182.094)" fill="#A1A1A1"/>
<rect x="263.719" y="219.766" width="6.27907" height="6.27907" transform="rotate(90 263.719 219.766)" fill="#A1A1A1"/>
<rect x="106.742" y="62.7891" width="6.27907" height="6.27907" transform="rotate(90 106.742 62.7891)" fill="#A1A1A1"/>
<rect x="144.422" y="100.465" width="6.27907" height="6.27907" transform="rotate(90 144.422 100.465)" fill="#A1A1A1"/>
<rect x="182.094" y="138.141" width="6.27907" height="6.27907" transform="rotate(90 182.094 138.141)" fill="#A1A1A1"/>
<rect x="219.766" y="175.812" width="6.27907" height="6.27907" transform="rotate(90 219.766 175.812)" fill="#A1A1A1"/>
<rect x="257.445" y="213.488" width="6.27907" height="6.27907" transform="rotate(90 257.445 213.488)" fill="#A1A1A1"/>
<rect x="100.469" y="56.5117" width="6.27907" height="6.27907" transform="rotate(90 100.469 56.5117)" fill="#A1A1A1"/>
<rect x="138.141" y="94.1875" width="6.27907" height="6.27907" transform="rotate(90 138.141 94.1875)" fill="#A1A1A1"/>
<rect x="175.812" y="131.859" width="6.27907" height="6.27907" transform="rotate(90 175.812 131.859)" fill="#A1A1A1"/>
<rect x="213.492" y="169.535" width="6.27907" height="6.27907" transform="rotate(90 213.492 169.535)" fill="#A1A1A1"/>
<rect x="251.164" y="207.211" width="6.27907" height="6.27907" transform="rotate(90 251.164 207.211)" fill="#A1A1A1"/>
<rect x="94.1875" y="50.2344" width="6.27907" height="6.27907" transform="rotate(90 94.1875 50.2344)" fill="#A1A1A1"/>
<rect x="131.859" y="87.9062" width="6.27907" height="6.27907" transform="rotate(90 131.859 87.9062)" fill="#A1A1A1"/>
<rect x="169.531" y="125.582" width="6.27907" height="6.27907" transform="rotate(90 169.531 125.582)" fill="#A1A1A1"/>
<rect x="207.211" y="163.254" width="6.27907" height="6.27907" transform="rotate(90 207.211 163.254)" fill="#A1A1A1"/>
<rect x="244.883" y="200.93" width="6.27907" height="6.27907" transform="rotate(90 244.883 200.93)" fill="#A1A1A1"/>
<rect x="87.9062" y="43.9531" width="6.27907" height="6.27907" transform="rotate(90 87.9062 43.9531)" fill="#A1A1A1"/>
<rect x="125.578" y="81.6289" width="6.27907" height="6.27907" transform="rotate(90 125.578 81.6289)" fill="#A1A1A1"/>
<rect x="163.258" y="119.301" width="6.27907" height="6.27907" transform="rotate(90 163.258 119.301)" fill="#A1A1A1"/>
<rect x="200.93" y="156.977" width="6.27907" height="6.27907" transform="rotate(90 200.93 156.977)" fill="#A1A1A1"/>
<rect x="238.602" y="194.652" width="6.27907" height="6.27907" transform="rotate(90 238.602 194.652)" fill="#A1A1A1"/>
<rect x="75.3516" y="106.746" width="6.27907" height="6.27907" transform="rotate(90 75.3516 106.746)" fill="#A1A1A1"/>
<rect x="113.023" y="144.418" width="6.27907" height="6.27907" transform="rotate(90 113.023 144.418)" fill="#A1A1A1"/>
<rect x="150.695" y="182.094" width="6.27907" height="6.27907" transform="rotate(90 150.695 182.094)" fill="#A1A1A1"/>
<rect x="188.375" y="219.766" width="6.27907" height="6.27907" transform="rotate(90 188.375 219.766)" fill="#A1A1A1"/>
<rect x="226.047" y="257.441" width="6.27907" height="6.27907" transform="rotate(90 226.047 257.441)" fill="#A1A1A1"/>
<rect x="81.625" y="113.023" width="6.27907" height="6.27907" transform="rotate(90 81.625 113.023)" fill="#A1A1A1"/>
<rect x="119.305" y="150.699" width="6.27907" height="6.27907" transform="rotate(90 119.305 150.699)" fill="#A1A1A1"/>
<rect x="156.977" y="188.371" width="6.27907" height="6.27907" transform="rotate(90 156.977 188.371)" fill="#A1A1A1"/>
<rect x="194.648" y="226.047" width="6.27907" height="6.27907" transform="rotate(90 194.648 226.047)" fill="#A1A1A1"/>
<rect x="232.328" y="263.723" width="6.27907" height="6.27907" transform="rotate(90 232.328 263.723)" fill="#A1A1A1"/>
<rect x="87.9062" y="106.746" width="6.27907" height="6.27907" transform="rotate(90 87.9062 106.746)" fill="#A1A1A1"/>
<rect x="125.578" y="144.418" width="6.27907" height="6.27907" transform="rotate(90 125.578 144.418)" fill="#A1A1A1"/>
<rect x="163.258" y="182.094" width="6.27907" height="6.27907" transform="rotate(90 163.258 182.094)" fill="#A1A1A1"/>
<rect x="200.93" y="219.766" width="6.27907" height="6.27907" transform="rotate(90 200.93 219.766)" fill="#A1A1A1"/>
<rect x="238.602" y="257.441" width="6.27907" height="6.27907" transform="rotate(90 238.602 257.441)" fill="#A1A1A1"/>
<rect x="94.1875" y="100.465" width="6.27907" height="6.27907" transform="rotate(90 94.1875 100.465)" fill="#A1A1A1"/>
<rect x="131.859" y="138.141" width="6.27907" height="6.27907" transform="rotate(90 131.859 138.141)" fill="#A1A1A1"/>
<rect x="169.531" y="175.812" width="6.27907" height="6.27907" transform="rotate(90 169.531 175.812)" fill="#A1A1A1"/>
<rect x="207.211" y="213.488" width="6.27907" height="6.27907" transform="rotate(90 207.211 213.488)" fill="#A1A1A1"/>
<rect x="244.883" y="251.164" width="6.27907" height="6.27907" transform="rotate(90 244.883 251.164)" fill="#A1A1A1"/>
<rect x="100.469" y="94.1875" width="6.27907" height="6.27907" transform="rotate(90 100.469 94.1875)" fill="#A1A1A1"/>
<rect x="138.141" y="131.859" width="6.27907" height="6.27907" transform="rotate(90 138.141 131.859)" fill="#A1A1A1"/>
<rect x="175.812" y="169.535" width="6.27907" height="6.27907" transform="rotate(90 175.812 169.535)" fill="#A1A1A1"/>
<rect x="213.492" y="207.211" width="6.27907" height="6.27907" transform="rotate(90 213.492 207.211)" fill="#A1A1A1"/>
<rect x="251.164" y="244.883" width="6.27907" height="6.27907" transform="rotate(90 251.164 244.883)" fill="#A1A1A1"/>
<rect x="106.742" y="87.9062" width="6.27907" height="6.27907" transform="rotate(90 106.742 87.9062)" fill="#A1A1A1"/>
<rect x="144.422" y="125.582" width="6.27907" height="6.27907" transform="rotate(90 144.422 125.582)" fill="#A1A1A1"/>
<rect x="182.094" y="163.254" width="6.27907" height="6.27907" transform="rotate(90 182.094 163.254)" fill="#A1A1A1"/>
<rect x="219.766" y="200.93" width="6.27907" height="6.27907" transform="rotate(90 219.766 200.93)" fill="#A1A1A1"/>
<rect x="257.445" y="238.605" width="6.27907" height="6.27907" transform="rotate(90 257.445 238.605)" fill="#A1A1A1"/>
<rect x="113.023" y="81.6289" width="6.27907" height="6.27907" transform="rotate(90 113.023 81.6289)" fill="#A1A1A1"/>
<rect x="150.695" y="119.301" width="6.27907" height="6.27907" transform="rotate(90 150.695 119.301)" fill="#A1A1A1"/>
<rect x="188.375" y="156.977" width="6.27907" height="6.27907" transform="rotate(90 188.375 156.977)" fill="#A1A1A1"/>
<rect x="226.047" y="194.652" width="6.27907" height="6.27907" transform="rotate(90 226.047 194.652)" fill="#A1A1A1"/>
<rect x="263.719" y="232.324" width="6.27907" height="6.27907" transform="rotate(90 263.719 232.324)" fill="#A1A1A1"/>
<rect x="50.2344" y="81.6289" width="6.27907" height="6.27907" transform="rotate(90 50.2344 81.6289)" fill="#A1A1A1"/>
<rect x="87.9062" y="119.301" width="6.27907" height="6.27907" transform="rotate(90 87.9062 119.301)" fill="#A1A1A1"/>
<rect x="125.578" y="156.977" width="6.27907" height="6.27907" transform="rotate(90 125.578 156.977)" fill="#A1A1A1"/>
<rect x="163.258" y="194.652" width="6.27907" height="6.27907" transform="rotate(90 163.258 194.652)" fill="#A1A1A1"/>
<rect x="200.93" y="232.324" width="6.27907" height="6.27907" transform="rotate(90 200.93 232.324)" fill="#A1A1A1"/>
<rect x="56.5078" y="87.9062" width="6.27907" height="6.27907" transform="rotate(90 56.5078 87.9062)" fill="#A1A1A1"/>
<rect x="94.1875" y="125.582" width="6.27907" height="6.27907" transform="rotate(90 94.1875 125.582)" fill="#A1A1A1"/>
<rect x="131.859" y="163.254" width="6.27907" height="6.27907" transform="rotate(90 131.859 163.254)" fill="#A1A1A1"/>
<rect x="169.531" y="200.93" width="6.27907" height="6.27907" transform="rotate(90 169.531 200.93)" fill="#A1A1A1"/>
<rect x="207.211" y="238.605" width="6.27907" height="6.27907" transform="rotate(90 207.211 238.605)" fill="#A1A1A1"/>
<rect x="62.7891" y="94.1875" width="6.27907" height="6.27907" transform="rotate(90 62.7891 94.1875)" fill="#A1A1A1"/>
<rect x="100.469" y="131.859" width="6.27907" height="6.27907" transform="rotate(90 100.469 131.859)" fill="#A1A1A1"/>
<rect x="138.141" y="169.535" width="6.27907" height="6.27907" transform="rotate(90 138.141 169.535)" fill="#A1A1A1"/>
<rect x="175.812" y="207.211" width="6.27907" height="6.27907" transform="rotate(90 175.812 207.211)" fill="#A1A1A1"/>
<rect x="213.492" y="244.883" width="6.27907" height="6.27907" transform="rotate(90 213.492 244.883)" fill="#A1A1A1"/>
<rect x="69.0703" y="100.465" width="6.27907" height="6.27907" transform="rotate(90 69.0703 100.465)" fill="#A1A1A1"/>
<rect x="106.742" y="138.141" width="6.27907" height="6.27907" transform="rotate(90 106.742 138.141)" fill="#A1A1A1"/>
<rect x="144.422" y="175.812" width="6.27907" height="6.27907" transform="rotate(90 144.422 175.812)" fill="#A1A1A1"/>
<rect x="182.094" y="213.488" width="6.27907" height="6.27907" transform="rotate(90 182.094 213.488)" fill="#A1A1A1"/>
<rect x="219.766" y="251.164" width="6.27907" height="6.27907" transform="rotate(90 219.766 251.164)" fill="#A1A1A1"/>
<rect x="150.695" y="31.3945" width="6.27907" height="6.27907" transform="rotate(90 150.695 31.3945)" fill="#A1A1A1"/>
<rect x="188.375" y="69.0703" width="6.27907" height="6.27907" transform="rotate(90 188.375 69.0703)" fill="#A1A1A1"/>
<rect x="144.422" y="25.1172" width="6.27907" height="6.27907" transform="rotate(90 144.422 25.1172)" fill="#A1A1A1"/>
<rect x="182.094" y="62.7891" width="6.27907" height="6.27907" transform="rotate(90 182.094 62.7891)" fill="#A1A1A1"/>
<rect x="138.141" y="18.8359" width="6.27907" height="6.27907" transform="rotate(90 138.141 18.8359)" fill="#A1A1A1"/>
<rect x="175.812" y="56.5117" width="6.27907" height="6.27907" transform="rotate(90 175.812 56.5117)" fill="#A1A1A1"/>
<rect x="131.859" y="12.5586" width="6.27907" height="6.27907" transform="rotate(90 131.859 12.5586)" fill="#A1A1A1"/>
<rect x="169.531" y="50.2344" width="6.27907" height="6.27907" transform="rotate(90 169.531 50.2344)" fill="#A1A1A1"/>
<rect x="125.578" y="6.27734" width="6.27907" height="6.27907" transform="rotate(90 125.578 6.27734)" fill="#A1A1A1"/>
<rect x="163.258" y="43.9531" width="6.27907" height="6.27907" transform="rotate(90 163.258 43.9531)" fill="#A1A1A1"/>
<rect x="125.578" y="69.0703" width="6.27907" height="6.27907" transform="rotate(90 125.578 69.0703)" fill="#A1A1A1"/>
<rect x="131.859" y="62.7891" width="6.27907" height="6.27907" transform="rotate(90 131.859 62.7891)" fill="#A1A1A1"/>
<rect x="138.141" y="56.5117" width="6.27907" height="6.27907" transform="rotate(90 138.141 56.5117)" fill="#A1A1A1"/>
<rect x="144.422" y="50.2344" width="6.27907" height="6.27907" transform="rotate(90 144.422 50.2344)" fill="#A1A1A1"/>
<rect x="150.695" y="43.9531" width="6.27907" height="6.27907" transform="rotate(90 150.695 43.9531)" fill="#A1A1A1"/>
<rect x="156.977" y="37.6758" width="6.27907" height="6.27907" transform="rotate(90 156.977 37.6758)" fill="#A1A1A1"/>
<rect x="113.023" y="6.27734" width="6.27907" height="6.27907" transform="rotate(90 113.023 6.27734)" fill="#A1A1A1"/>
<rect x="119.305" width="6.27907" height="6.27907" transform="rotate(90 119.305 0)" fill="#A1A1A1"/>
<rect x="106.742" y="12.5586" width="6.27907" height="6.27907" transform="rotate(90 106.742 12.5586)" fill="#A1A1A1"/>
<rect x="100.469" y="18.8359" width="6.27907" height="6.27907" transform="rotate(90 100.469 18.8359)" fill="#A1A1A1"/>
<rect x="94.1875" y="25.1172" width="6.27907" height="6.27907" transform="rotate(90 94.1875 25.1172)" fill="#A1A1A1"/>
<rect x="87.9062" y="31.3945" width="6.27907" height="6.27907" transform="rotate(90 87.9062 31.3945)" fill="#A1A1A1"/>
<rect x="163.258" y="106.746" width="6.27907" height="6.27907" transform="rotate(90 163.258 106.746)" fill="#A1A1A1"/>
<rect x="169.531" y="100.465" width="6.27907" height="6.27907" transform="rotate(90 169.531 100.465)" fill="#A1A1A1"/>
<rect x="175.812" y="94.1875" width="6.27907" height="6.27907" transform="rotate(90 175.812 94.1875)" fill="#A1A1A1"/>
<rect x="182.094" y="87.9062" width="6.27907" height="6.27907" transform="rotate(90 182.094 87.9062)" fill="#A1A1A1"/>
<rect x="188.375" y="81.6289" width="6.27907" height="6.27907" transform="rotate(90 188.375 81.6289)" fill="#A1A1A1"/>
<rect x="194.648" y="75.3477" width="6.27907" height="6.27907" transform="rotate(90 194.648 75.3477)" fill="#A1A1A1"/>
<rect x="232.328" y="113.023" width="6.27907" height="6.27907" transform="rotate(90 232.328 113.023)" fill="#A1A1A1"/>
<rect x="270" y="150.699" width="6.27907" height="6.27907" transform="rotate(90 270 150.699)" fill="#A1A1A1"/>
<rect x="270" y="75.3477" width="6.27907" height="6.27907" transform="rotate(90 270 75.3477)" fill="#A1A1A1"/>
<rect x="232.328" y="37.6758" width="6.27907" height="6.27907" transform="rotate(90 232.328 37.6758)" fill="#A1A1A1"/>
<rect x="226.047" y="106.746" width="6.27907" height="6.27907" transform="rotate(90 226.047 106.746)" fill="#A1A1A1"/>
<rect x="263.719" y="144.418" width="6.27907" height="6.27907" transform="rotate(90 263.719 144.418)" fill="#A1A1A1"/>
<rect x="263.719" y="69.0703" width="6.27907" height="6.27907" transform="rotate(90 263.719 69.0703)" fill="#A1A1A1"/>
<rect x="226.047" y="31.3945" width="6.27907" height="6.27907" transform="rotate(90 226.047 31.3945)" fill="#A1A1A1"/>
<rect x="219.766" y="100.465" width="6.27907" height="6.27907" transform="rotate(90 219.766 100.465)" fill="#A1A1A1"/>
<rect x="257.445" y="138.141" width="6.27907" height="6.27907" transform="rotate(90 257.445 138.141)" fill="#A1A1A1"/>
<rect x="257.445" y="62.7891" width="6.27907" height="6.27907" transform="rotate(90 257.445 62.7891)" fill="#A1A1A1"/>
<rect x="219.766" y="25.1172" width="6.27907" height="6.27907" transform="rotate(90 219.766 25.1172)" fill="#A1A1A1"/>
<rect x="213.492" y="94.1875" width="6.27907" height="6.27907" transform="rotate(90 213.492 94.1875)" fill="#A1A1A1"/>
<rect x="251.164" y="131.859" width="6.27907" height="6.27907" transform="rotate(90 251.164 131.859)" fill="#A1A1A1"/>
<rect x="251.164" y="56.5117" width="6.27907" height="6.27907" transform="rotate(90 251.164 56.5117)" fill="#A1A1A1"/>
<rect x="213.492" y="18.8359" width="6.27907" height="6.27907" transform="rotate(90 213.492 18.8359)" fill="#A1A1A1"/>
<rect x="207.211" y="87.9062" width="6.27907" height="6.27907" transform="rotate(90 207.211 87.9062)" fill="#A1A1A1"/>
<rect x="244.883" y="125.582" width="6.27907" height="6.27907" transform="rotate(90 244.883 125.582)" fill="#A1A1A1"/>
<rect x="244.883" y="50.2344" width="6.27907" height="6.27907" transform="rotate(90 244.883 50.2344)" fill="#A1A1A1"/>
<rect x="207.211" y="12.5586" width="6.27907" height="6.27907" transform="rotate(90 207.211 12.5586)" fill="#A1A1A1"/>
<rect x="200.93" y="81.6289" width="6.27907" height="6.27907" transform="rotate(90 200.93 81.6289)" fill="#A1A1A1"/>
<rect x="238.602" y="119.301" width="6.27907" height="6.27907" transform="rotate(90 238.602 119.301)" fill="#A1A1A1"/>
<rect x="238.602" y="43.9531" width="6.27907" height="6.27907" transform="rotate(90 238.602 43.9531)" fill="#A1A1A1"/>
<rect x="200.93" y="6.27734" width="6.27907" height="6.27907" transform="rotate(90 200.93 6.27734)" fill="#A1A1A1"/>
<rect x="200.93" y="144.418" width="6.27907" height="6.27907" transform="rotate(90 200.93 144.418)" fill="#A1A1A1"/>
<rect x="238.602" y="182.094" width="6.27907" height="6.27907" transform="rotate(90 238.602 182.094)" fill="#A1A1A1"/>
<rect x="238.602" y="106.746" width="6.27907" height="6.27907" transform="rotate(90 238.602 106.746)" fill="#A1A1A1"/>
<rect x="200.93" y="69.0703" width="6.27907" height="6.27907" transform="rotate(90 200.93 69.0703)" fill="#A1A1A1"/>
<rect x="207.211" y="138.141" width="6.27907" height="6.27907" transform="rotate(90 207.211 138.141)" fill="#A1A1A1"/>
<rect x="244.883" y="175.812" width="6.27907" height="6.27907" transform="rotate(90 244.883 175.812)" fill="#A1A1A1"/>
<rect x="244.883" y="100.465" width="6.27907" height="6.27907" transform="rotate(90 244.883 100.465)" fill="#A1A1A1"/>
<rect x="207.211" y="62.7891" width="6.27907" height="6.27907" transform="rotate(90 207.211 62.7891)" fill="#A1A1A1"/>
<rect x="213.492" y="131.859" width="6.27907" height="6.27907" transform="rotate(90 213.492 131.859)" fill="#A1A1A1"/>
<rect x="251.164" y="169.535" width="6.27907" height="6.27907" transform="rotate(90 251.164 169.535)" fill="#A1A1A1"/>
<rect x="251.164" y="94.1875" width="6.27907" height="6.27907" transform="rotate(90 251.164 94.1875)" fill="#A1A1A1"/>
<rect x="213.492" y="56.5117" width="6.27907" height="6.27907" transform="rotate(90 213.492 56.5117)" fill="#A1A1A1"/>
<rect x="219.766" y="125.582" width="6.27907" height="6.27907" transform="rotate(90 219.766 125.582)" fill="#A1A1A1"/>
<rect x="257.445" y="163.254" width="6.27907" height="6.27907" transform="rotate(90 257.445 163.254)" fill="#A1A1A1"/>
<rect x="257.445" y="87.9062" width="6.27907" height="6.27907" transform="rotate(90 257.445 87.9062)" fill="#A1A1A1"/>
<rect x="219.766" y="50.2344" width="6.27907" height="6.27907" transform="rotate(90 219.766 50.2344)" fill="#A1A1A1"/>
<rect x="226.047" y="119.301" width="6.27907" height="6.27907" transform="rotate(90 226.047 119.301)" fill="#A1A1A1"/>
<rect x="263.719" y="156.977" width="6.27907" height="6.27907" transform="rotate(90 263.719 156.977)" fill="#A1A1A1"/>
<rect x="263.719" y="81.6289" width="6.27907" height="6.27907" transform="rotate(90 263.719 81.6289)" fill="#A1A1A1"/>
<rect x="226.047" y="43.9531" width="6.27907" height="6.27907" transform="rotate(90 226.047 43.9531)" fill="#A1A1A1"/>
<rect x="182.094" y="12.5586" width="6.27907" height="6.27907" transform="rotate(90 182.094 12.5586)" fill="#A1A1A1"/>
<rect x="257.445" y="12.5586" width="6.27907" height="6.27907" transform="rotate(90 257.445 12.5586)" fill="#A1A1A1"/>
<rect x="188.375" y="6.27734" width="6.27907" height="6.27907" transform="rotate(90 188.375 6.27734)" fill="#A1A1A1"/>
<rect x="263.719" y="6.27734" width="6.27907" height="6.27907" transform="rotate(90 263.719 6.27734)" fill="#A1A1A1"/>
<rect x="194.648" width="6.27907" height="6.27907" transform="rotate(90 194.648 0)" fill="#A1A1A1"/>
<rect x="270" width="6.27907" height="6.27907" transform="rotate(90 270 0)" fill="#A1A1A1"/>
<rect x="175.812" y="18.8359" width="6.27907" height="6.27907" transform="rotate(90 175.812 18.8359)" fill="#A1A1A1"/>
<rect x="251.164" y="18.8359" width="6.27907" height="6.27907" transform="rotate(90 251.164 18.8359)" fill="#A1A1A1"/>
<rect x="169.531" y="25.1172" width="6.27907" height="6.27907" transform="rotate(90 169.531 25.1172)" fill="#A1A1A1"/>
<rect x="244.883" y="25.1172" width="6.27907" height="6.27907" transform="rotate(90 244.883 25.1172)" fill="#A1A1A1"/>
<rect x="163.258" y="31.3945" width="6.27907" height="6.27907" transform="rotate(90 163.258 31.3945)" fill="#A1A1A1"/>
<rect x="238.602" y="31.3945" width="6.27907" height="6.27907" transform="rotate(90 238.602 31.3945)" fill="#A1A1A1"/>
<rect width="6.27907" height="6.27907" transform="matrix(6.96144e-09 1 1 -2.74467e-07 0 113.023)" fill="#A1A1A1"/>
<rect width="6.27907" height="6.27907" transform="matrix(4.37114e-08 1 1 -4.37114e-08 37.6719 150.699)" fill="#A1A1A1"/>
<rect width="6.27907" height="6.27907" transform="matrix(4.37114e-08 1 1 -4.37114e-08 75.3516 188.371)" fill="#A1A1A1"/>
<rect width="6.27907" height="6.27907" transform="matrix(4.37114e-08 1 1 -4.37114e-08 113.023 226.047)" fill="#A1A1A1"/>
<rect width="6.27907" height="6.27907" transform="matrix(6.96144e-09 1 1 -2.74467e-07 0 188.371)" fill="#A1A1A1"/>
<rect width="6.27907" height="6.27907" transform="matrix(4.37114e-08 1 1 -4.37114e-08 37.6719 226.047)" fill="#A1A1A1"/>
<rect width="6.27907" height="6.27907" transform="matrix(4.37114e-08 1 1 -4.37114e-08 6.28125 106.746)" fill="#A1A1A1"/>
<rect width="6.27907" height="6.27907" transform="matrix(4.37114e-08 1 1 -4.37114e-08 43.9531 144.418)" fill="#A1A1A1"/>
<rect width="6.27907" height="6.27907" transform="matrix(4.37114e-08 1 1 -4.37114e-08 81.625 182.094)" fill="#A1A1A1"/>
<rect width="6.27907" height="6.27907" transform="matrix(4.37114e-08 1 1 -4.37114e-08 119.305 219.766)" fill="#A1A1A1"/>
<rect width="6.27907" height="6.27907" transform="matrix(4.37114e-08 1 1 -4.37114e-08 6.28125 182.094)" fill="#A1A1A1"/>
<rect width="6.27907" height="6.27907" transform="matrix(4.37114e-08 1 1 -4.37114e-08 43.9531 219.766)" fill="#A1A1A1"/>
<rect width="6.27907" height="6.27907" transform="matrix(4.37114e-08 1 1 -4.37114e-08 12.5547 100.465)" fill="#A1A1A1"/>
<rect width="6.27907" height="6.27907" transform="matrix(4.37114e-08 1 1 -4.37114e-08 50.2344 138.141)" fill="#A1A1A1"/>
<rect width="6.27907" height="6.27907" transform="matrix(4.37114e-08 1 1 -4.37114e-08 87.9062 175.812)" fill="#A1A1A1"/>
<rect width="6.27907" height="6.27907" transform="matrix(4.37114e-08 1 1 -4.37114e-08 125.578 213.488)" fill="#A1A1A1"/>
<rect width="6.27907" height="6.27907" transform="matrix(4.37114e-08 1 1 -4.37114e-08 12.5547 175.812)" fill="#A1A1A1"/>
<rect width="6.27907" height="6.27907" transform="matrix(4.37114e-08 1 1 -4.37114e-08 50.2344 213.488)" fill="#A1A1A1"/>
<rect width="6.27907" height="6.27907" transform="matrix(4.37114e-08 1 1 -4.37114e-08 18.8359 94.1875)" fill="#A1A1A1"/>
<rect width="6.27907" height="6.27907" transform="matrix(4.37114e-08 1 1 -4.37114e-08 56.5078 131.859)" fill="#A1A1A1"/>
<rect width="6.27907" height="6.27907" transform="matrix(4.37114e-08 1 1 -4.37114e-08 94.1875 169.535)" fill="#A1A1A1"/>
<rect width="6.27907" height="6.27907" transform="matrix(4.37114e-08 1 1 -4.37114e-08 131.859 207.211)" fill="#A1A1A1"/>
<rect width="6.27907" height="6.27907" transform="matrix(4.37114e-08 1 1 -4.37114e-08 18.8359 169.535)" fill="#A1A1A1"/>
<rect width="6.27907" height="6.27907" transform="matrix(4.37114e-08 1 1 -4.37114e-08 56.5078 207.211)" fill="#A1A1A1"/>
<rect width="6.27907" height="6.27907" transform="matrix(4.37114e-08 1 1 -4.37114e-08 25.1172 87.9062)" fill="#A1A1A1"/>
<rect width="6.27907" height="6.27907" transform="matrix(4.37114e-08 1 1 -4.37114e-08 62.7891 125.582)" fill="#A1A1A1"/>
<rect width="6.27907" height="6.27907" transform="matrix(4.37114e-08 1 1 -4.37114e-08 100.469 163.254)" fill="#A1A1A1"/>
<rect width="6.27907" height="6.27907" transform="matrix(4.37114e-08 1 1 -4.37114e-08 138.141 200.93)" fill="#A1A1A1"/>
<rect width="6.27907" height="6.27907" transform="matrix(4.37114e-08 1 1 -4.37114e-08 25.1172 163.254)" fill="#A1A1A1"/>
<rect width="6.27907" height="6.27907" transform="matrix(4.37114e-08 1 1 -4.37114e-08 62.7891 200.93)" fill="#A1A1A1"/>
<rect width="6.27907" height="6.27907" transform="matrix(4.37114e-08 1 1 -4.37114e-08 31.3984 81.6289)" fill="#A1A1A1"/>
<rect width="6.27907" height="6.27907" transform="matrix(4.37114e-08 1 1 -4.37114e-08 69.0703 119.301)" fill="#A1A1A1"/>
<rect width="6.27907" height="6.27907" transform="matrix(4.37114e-08 1 1 -4.37114e-08 106.742 156.977)" fill="#A1A1A1"/>
<rect width="6.27907" height="6.27907" transform="matrix(4.37114e-08 1 1 -4.37114e-08 144.422 194.652)" fill="#A1A1A1"/>
<rect width="6.27907" height="6.27907" transform="matrix(4.37114e-08 1 1 -4.37114e-08 31.3984 156.977)" fill="#A1A1A1"/>
<rect width="6.27907" height="6.27907" transform="matrix(4.37114e-08 1 1 -4.37114e-08 69.0703 194.652)" fill="#A1A1A1"/>
<rect width="6.27907" height="6.27907" transform="matrix(4.37114e-08 1 1 -4.37114e-08 31.3984 144.418)" fill="#A1A1A1"/>
<rect width="6.27907" height="6.27907" transform="matrix(4.37114e-08 1 1 -4.37114e-08 69.0703 182.094)" fill="#A1A1A1"/>
<rect width="6.27907" height="6.27907" transform="matrix(4.37114e-08 1 1 -4.37114e-08 106.742 219.766)" fill="#A1A1A1"/>
<rect width="6.27907" height="6.27907" transform="matrix(4.37114e-08 1 1 -4.37114e-08 144.422 257.441)" fill="#A1A1A1"/>
<rect width="6.27907" height="6.27907" transform="matrix(4.37114e-08 1 1 -4.37114e-08 31.3984 219.766)" fill="#A1A1A1"/>
<rect width="6.27907" height="6.27907" transform="matrix(4.37114e-08 1 1 -4.37114e-08 69.0703 257.441)" fill="#A1A1A1"/>
<rect width="6.27907" height="6.27907" transform="matrix(4.37114e-08 1 1 -4.37114e-08 25.1172 138.141)" fill="#A1A1A1"/>
<rect width="6.27907" height="6.27907" transform="matrix(4.37114e-08 1 1 -4.37114e-08 62.7891 175.812)" fill="#A1A1A1"/>
<rect width="6.27907" height="6.27907" transform="matrix(4.37114e-08 1 1 -4.37114e-08 100.469 213.488)" fill="#A1A1A1"/>
<rect width="6.27907" height="6.27907" transform="matrix(4.37114e-08 1 1 -4.37114e-08 138.141 251.164)" fill="#A1A1A1"/>
<rect width="6.27907" height="6.27907" transform="matrix(4.37114e-08 1 1 -4.37114e-08 25.1172 213.488)" fill="#A1A1A1"/>
<rect width="6.27907" height="6.27907" transform="matrix(4.37114e-08 1 1 -4.37114e-08 62.7891 251.164)" fill="#A1A1A1"/>
<rect width="6.27907" height="6.27907" transform="matrix(4.37114e-08 1 1 -4.37114e-08 18.8359 131.859)" fill="#A1A1A1"/>
<rect width="6.27907" height="6.27907" transform="matrix(4.37114e-08 1 1 -4.37114e-08 56.5078 169.535)" fill="#A1A1A1"/>
<rect width="6.27907" height="6.27907" transform="matrix(4.37114e-08 1 1 -4.37114e-08 94.1875 207.211)" fill="#A1A1A1"/>
<rect width="6.27907" height="6.27907" transform="matrix(4.37114e-08 1 1 -4.37114e-08 131.859 244.883)" fill="#A1A1A1"/>
<rect width="6.27907" height="6.27907" transform="matrix(4.37114e-08 1 1 -4.37114e-08 18.8359 207.211)" fill="#A1A1A1"/>
<rect width="6.27907" height="6.27907" transform="matrix(4.37114e-08 1 1 -4.37114e-08 56.5078 244.883)" fill="#A1A1A1"/>
<rect width="6.27907" height="6.27907" transform="matrix(4.37114e-08 1 1 -4.37114e-08 12.5547 125.582)" fill="#A1A1A1"/>
<rect width="6.27907" height="6.27907" transform="matrix(4.37114e-08 1 1 -4.37114e-08 50.2344 163.254)" fill="#A1A1A1"/>
<rect width="6.27907" height="6.27907" transform="matrix(4.37114e-08 1 1 -4.37114e-08 87.9062 200.93)" fill="#A1A1A1"/>
<rect width="6.27907" height="6.27907" transform="matrix(4.37114e-08 1 1 -4.37114e-08 125.578 238.605)" fill="#A1A1A1"/>
<rect width="6.27907" height="6.27907" transform="matrix(4.37114e-08 1 1 -4.37114e-08 12.5547 200.93)" fill="#A1A1A1"/>
<rect width="6.27907" height="6.27907" transform="matrix(4.37114e-08 1 1 -4.37114e-08 50.2344 238.605)" fill="#A1A1A1"/>
<rect width="6.27907" height="6.27907" transform="matrix(4.37114e-08 1 1 -4.37114e-08 6.28125 119.301)" fill="#A1A1A1"/>
<rect width="6.27907" height="6.27907" transform="matrix(4.37114e-08 1 1 -4.37114e-08 43.9531 156.977)" fill="#A1A1A1"/>
<rect width="6.27907" height="6.27907" transform="matrix(4.37114e-08 1 1 -4.37114e-08 81.625 194.652)" fill="#A1A1A1"/>
<rect width="6.27907" height="6.27907" transform="matrix(4.37114e-08 1 1 -4.37114e-08 119.305 232.324)" fill="#A1A1A1"/>
<rect width="6.27907" height="6.27907" transform="matrix(4.37114e-08 1 1 -4.37114e-08 6.28125 194.652)" fill="#A1A1A1"/>
<rect width="6.27907" height="6.27907" transform="matrix(4.37114e-08 1 1 -4.37114e-08 43.9531 232.324)" fill="#A1A1A1"/>
<rect x="175.812" y="244.883" width="6.27907" height="6.27907" transform="rotate(90 175.812 244.883)" fill="#A1A1A1"/>
<rect x="100.469" y="244.883" width="6.27907" height="6.27907" transform="rotate(90 100.469 244.883)" fill="#A1A1A1"/>
<rect x="25.1172" y="244.883" width="6.27907" height="6.27907" transform="rotate(90 25.1172 244.883)" fill="#A1A1A1"/>
<rect x="182.094" y="238.605" width="6.27907" height="6.27907" transform="rotate(90 182.094 238.605)" fill="#A1A1A1"/>
<rect x="106.742" y="238.605" width="6.27907" height="6.27907" transform="rotate(90 106.742 238.605)" fill="#A1A1A1"/>
<rect x="31.3984" y="238.605" width="6.27907" height="6.27907" transform="rotate(90 31.3984 238.605)" fill="#A1A1A1"/>
<rect x="188.375" y="232.324" width="6.27907" height="6.27907" transform="rotate(90 188.375 232.324)" fill="#A1A1A1"/>
<rect x="113.023" y="232.324" width="6.27907" height="6.27907" transform="rotate(90 113.023 232.324)" fill="#A1A1A1"/>
<rect x="37.6719" y="232.324" width="6.27907" height="6.27907" transform="rotate(90 37.6719 232.324)" fill="#A1A1A1"/>
<rect x="169.531" y="251.164" width="6.27907" height="6.27907" transform="rotate(90 169.531 251.164)" fill="#A1A1A1"/>
<rect x="94.1875" y="251.164" width="6.27907" height="6.27907" transform="rotate(90 94.1875 251.164)" fill="#A1A1A1"/>
<rect x="18.8359" y="251.164" width="6.27907" height="6.27907" transform="rotate(90 18.8359 251.164)" fill="#A1A1A1"/>
<rect x="163.258" y="257.441" width="6.27907" height="6.27907" transform="rotate(90 163.258 257.441)" fill="#A1A1A1"/>
<rect x="87.9062" y="257.441" width="6.27907" height="6.27907" transform="rotate(90 87.9062 257.441)" fill="#A1A1A1"/>
<rect x="12.5547" y="257.441" width="6.27907" height="6.27907" transform="rotate(90 12.5547 257.441)" fill="#A1A1A1"/>
<rect x="156.977" y="263.723" width="6.27907" height="6.27907" transform="rotate(90 156.977 263.723)" fill="#A1A1A1"/>
<rect x="81.625" y="263.723" width="6.27907" height="6.27907" transform="rotate(90 81.625 263.723)" fill="#A1A1A1"/>
<rect x="6.28125" y="263.723" width="6.27907" height="6.27907" transform="rotate(90 6.28125 263.723)" fill="#A1A1A1"/>
<circle cx="116" cy="78" r="12" fill="white"/>
<path d="M83 110C83 111.105 83.8954 112 85 112L103 112C104.105 112 105 111.105 105 110C105 108.895 104.105 108 103 108L87 108L87 92C87 90.8954 86.1046 90 85 90C83.8954 90 83 90.8954 83 92L83 110ZM110 85L108.586 83.5858L83.5858 108.586L85 110L86.4142 111.414L111.414 86.4142L110 85Z" fill="white"/>
<path d="M187 160C187 158.895 186.105 158 185 158L167 158C165.895 158 165 158.895 165 160C165 161.105 165.895 162 167 162L183 162L183 178C183 179.105 183.895 180 185 180C186.105 180 187 179.105 187 178L187 160ZM160 185L161.414 186.414L186.414 161.414L185 160L183.586 158.586L158.586 183.586L160 185Z" fill="white"/>
<path d="M148 112C149.105 112 150 111.105 150 110L150 92C150 90.8954 149.105 90 148 90C146.895 90 146 90.8954 146 92L146 108L130 108C128.895 108 128 108.895 128 110C128 111.105 128.895 112 130 112L148 112ZM123 85L121.586 86.4142L146.586 111.414L148 110L149.414 108.586L124.414 83.5858L123 85Z" fill="white"/>
<path d="M122 158C120.895 158 120 158.895 120 160L120 178C120 179.105 120.895 180 122 180C123.105 180 124 179.105 124 178L124 162L140 162C141.105 162 142 161.105 142 160C142 158.895 141.105 158 140 158L122 158ZM147 185L148.414 183.586L123.414 158.586L122 160L120.586 161.414L145.586 186.414L147 185Z" fill="white"/>
<circle cx="153" cy="192" r="12" fill="black"/>
</svg>
