<svg width="36" height="36" viewBox="0 0 36 36" fill="none" xmlns="http://www.w3.org/2000/svg">
<g clip-path="url(#clip0_1802_83)">
<path d="M18.5005 17.9998C18.5005 18.276 18.2765 18.5 18.0002 18.5C17.724 18.5 17.5 18.276 17.5 17.9998C17.5 17.7235 17.724 17.4995 18.0002 17.4995" stroke="#323232" stroke-width="1.5" stroke-linecap="round" stroke-linejoin="round"/>
<path d="M18 17.4995C18.2763 17.4995 18.5002 17.7235 18.5002 17.9998" stroke="#323232" stroke-width="1.5" stroke-linecap="round" stroke-linejoin="round"/>
<path d="M9.5005 17.9998C9.5005 18.276 9.27653 18.5 9.00025 18.5C8.72397 18.5 8.5 18.276 8.5 17.9998C8.5 17.7235 8.72397 17.4995 9.00025 17.4995" stroke="#323232" stroke-width="1.5" stroke-linecap="round" stroke-linejoin="round"/>
<path d="M9 17.4995C9.27628 17.4995 9.50025 17.7235 9.50025 17.9998" stroke="#323232" stroke-width="1.5" stroke-linecap="round" stroke-linejoin="round"/>
<path d="M14.0005 22.4998C14.0005 22.776 13.7765 23 13.5002 23C13.224 23 13 22.776 13 22.4998C13 22.2235 13.224 21.9995 13.5002 21.9995" stroke="#323232" stroke-width="1.5" stroke-linecap="round" stroke-linejoin="round"/>
<path d="M13.5 21.9995C13.7763 21.9995 14.0002 22.2235 14.0002 22.4998" stroke="#323232" stroke-width="1.5" stroke-linecap="round" stroke-linejoin="round"/>
<path d="M18.5005 26.9998C18.5005 27.276 18.2765 27.5 18.0002 27.5C17.724 27.5 17.5 27.276 17.5 26.9998C17.5 26.7235 17.724 26.4995 18.0002 26.4995" stroke="#323232" stroke-width="1.5" stroke-linecap="round" stroke-linejoin="round"/>
<path d="M18 26.4995C18.2763 26.4995 18.5002 26.7235 18.5002 26.9998" stroke="#323232" stroke-width="1.5" stroke-linecap="round" stroke-linejoin="round"/>
<path d="M9.5005 26.9998C9.5005 27.276 9.27653 27.5 9.00025 27.5C8.72397 27.5 8.5 27.276 8.5 26.9998C8.5 26.7235 8.72397 26.4995 9.00025 26.4995" stroke="#323232" stroke-width="1.5" stroke-linecap="round" stroke-linejoin="round"/>
<path d="M9 26.4995C9.27628 26.4995 9.50025 26.7235 9.50025 26.9998" stroke="#323232" stroke-width="1.5" stroke-linecap="round" stroke-linejoin="round"/>
<path d="M23.3327 22.3333H29.7771C31.5546 22.3281 32.9941 20.8885 32.9993 19.1111V6.22221C32.9941 4.44479 31.5545 3.00519 29.7771 3H16.8882C15.1108 3.0052 13.6712 4.4448 13.666 6.22222V12.6667" stroke="#323232" stroke-width="2" stroke-linecap="round" stroke-linejoin="round"/>
<path d="M8.2963 32.0001H19.037C21.4069 31.9931 23.3264 30.0737 23.3333 27.7038V16.963C23.3264 14.5931 21.4069 12.6737 19.037 12.6667H8.2963C5.92639 12.6737 4.00694 14.5931 4 16.963V27.7038C4.00694 30.0737 5.92639 31.9932 8.2963 32.0001ZM19.037 17.5001C19.037 17.7967 18.7966 18.0371 18.5 18.0371C18.2034 18.0371 17.963 17.7967 17.963 17.5001C17.963 17.2035 18.2034 16.963 18.5 16.963M18.5 16.963C18.7966 16.963 19.037 17.2035 19.037 17.5001ZM9.37037 17.4999C9.37037 17.7965 9.12993 18.037 8.83333 18.037C8.53674 18.037 8.2963 17.7965 8.2963 17.4999C8.2963 17.2033 8.53674 16.9629 8.83333 16.9629M8.83333 16.9629C9.12993 16.9629 9.37037 17.2033 9.37037 17.4999ZM14.2036 22.3334C14.2036 22.63 13.9632 22.8705 13.6666 22.8705C13.37 22.8705 13.1295 22.63 13.1295 22.3334C13.1295 22.0368 13.37 21.7964 13.6666 21.7964M13.6666 21.7964C13.9632 21.7964 14.2036 22.0368 14.2036 22.3334ZM19.037 27.1667C19.037 27.4633 18.7966 27.7038 18.5 27.7038C18.2034 27.7038 17.963 27.4633 17.963 27.1667C17.963 26.8702 18.2034 26.6297 18.5 26.6297M18.5 26.6297C18.7966 26.6297 19.037 26.8702 19.037 27.1667ZM9.37037 27.1666C9.37037 27.4632 9.12993 27.7036 8.83333 27.7036C8.53674 27.7036 8.2963 27.4632 8.2963 27.1666C8.2963 26.87 8.53674 26.6296 8.83333 26.6296M8.83333 26.6296C9.12993 26.6296 9.37037 26.87 9.37037 27.1666Z" stroke="#323232" stroke-width="2" stroke-linecap="round" stroke-linejoin="round"/>
<circle cx="19.0388" cy="9.44436" r="1.61111" fill="#323232"/>
<circle cx="27.6287" cy="9.44436" r="1.61111" fill="#323232"/>
<circle cx="27.6287" cy="16.9629" r="1.61111" fill="#323232"/>
</g>
<defs>
<clipPath id="clip0_1802_83">
<rect width="36" height="36" fill="white"/>
</clipPath>
</defs>
</svg>
