<svg width="36" height="36" viewBox="0 0 36 36" fill="none" xmlns="http://www.w3.org/2000/svg">
<path d="M17.9999 21.6072C23.3452 21.6072 27.6785 17.2739 27.6785 11.9286C27.6785 6.58325 23.3452 2.25 17.9999 2.25C12.6545 2.25 8.32129 6.58325 8.32129 11.9286C8.32129 17.2739 12.6545 21.6072 17.9999 21.6072Z" fill="#FD3730"/>
<path d="M24.0712 33.7498C29.4165 33.7498 33.7498 29.4165 33.7498 24.0712C33.7498 18.7258 29.4165 14.3926 24.0712 14.3926C18.7258 14.3926 14.3926 18.7258 14.3926 24.0712C14.3926 29.4165 18.7258 33.7498 24.0712 33.7498Z" fill="#009AE0"/>
<path d="M11.9286 33.7498C17.2739 33.7498 21.6072 29.4165 21.6072 24.0712C21.6072 18.7258 17.2739 14.3926 11.9286 14.3926C6.58325 14.3926 2.25 18.7258 2.25 24.0712C2.25 29.4165 6.58325 33.7498 11.9286 33.7498Z" fill="#FAC100"/>
<path d="M21.6068 24.0705C21.6081 25.5168 21.2847 26.945 20.6604 28.2497C20.0361 29.5544 19.1269 30.7023 17.9998 31.6087C16.4739 30.3778 15.3572 28.7132 14.7969 26.8346C14.2366 24.9559 14.2591 22.9515 14.8614 21.0859C16.8962 21.78 19.1035 21.78 21.1382 21.0859C21.4498 22.0501 21.608 23.0572 21.6068 24.0705Z" fill="#00B157"/>
<path d="M27.2092 14.9133C26.7444 16.3421 25.954 17.6434 24.9004 18.7147C23.8469 19.786 22.5589 20.598 21.138 21.0867C20.5561 19.2964 19.4657 17.7141 18 16.5327C19.2739 15.508 20.7863 14.8222 22.3964 14.5391C24.0066 14.2559 25.6622 14.3846 27.2092 14.9133Z" fill="#A754BA"/>
<path d="M18 16.5328C16.5339 17.714 15.4433 19.2964 14.8612 21.0868C13.4403 20.5981 12.1524 19.7861 11.0988 18.7147C10.0452 17.6434 9.25489 16.342 8.79004 14.9131C10.3372 14.3846 11.993 14.2559 13.6033 14.5392C15.2135 14.8224 16.726 15.5083 18 16.5331V16.5328Z" fill="#F87600"/>
<path d="M21.1381 21.0872C19.1034 21.7812 16.896 21.7812 14.8613 21.0872C15.4434 19.2967 16.534 17.7144 18.0001 16.5332C19.4658 17.7145 20.5562 19.2969 21.1381 21.0872Z" fill="#C6512B"/>
</svg>
