<svg width="275" height="631" viewBox="0 0 275 631" fill="none" xmlns="http://www.w3.org/2000/svg">
<path d="M125.298 6.27V16H123.702V9.336L120.734 16H119.628L116.646 9.336V16H115.05V6.27H116.772L120.188 13.9L123.59 6.27H125.298ZM134.382 8.286V16H132.786V15.09C132.534 15.4073 132.202 15.6593 131.792 15.846C131.39 16.0233 130.961 16.112 130.504 16.112C129.897 16.112 129.351 15.986 128.866 15.734C128.39 15.482 128.012 15.1087 127.732 14.614C127.461 14.1193 127.326 13.522 127.326 12.822V8.286H128.908V12.584C128.908 13.2747 129.08 13.8067 129.426 14.18C129.771 14.544 130.242 14.726 130.84 14.726C131.437 14.726 131.908 14.544 132.254 14.18C132.608 13.8067 132.786 13.2747 132.786 12.584V8.286H134.382ZM138.084 5.64V16H136.488V5.64H138.084ZM141.775 5.64V16H140.179V5.64H141.775ZM143.338 12.108C143.338 11.3333 143.497 10.6473 143.814 10.05C144.141 9.45267 144.58 8.99067 145.13 8.664C145.69 8.328 146.306 8.16 146.978 8.16C147.585 8.16 148.112 8.28133 148.56 8.524C149.018 8.75733 149.382 9.05133 149.652 9.406V8.286H151.262V16H149.652V14.852C149.382 15.216 149.013 15.5193 148.546 15.762C148.08 16.0047 147.548 16.126 146.95 16.126C146.288 16.126 145.681 15.958 145.13 15.622C144.58 15.2767 144.141 14.8007 143.814 14.194C143.497 13.578 143.338 12.8827 143.338 12.108ZM149.652 12.136C149.652 11.604 149.54 11.142 149.316 10.75C149.102 10.358 148.817 10.0593 148.462 9.854C148.108 9.64867 147.725 9.546 147.314 9.546C146.904 9.546 146.521 9.64867 146.166 9.854C145.812 10.05 145.522 10.344 145.298 10.736C145.084 11.1187 144.976 11.576 144.976 12.108C144.976 12.64 145.084 13.1067 145.298 13.508C145.522 13.9093 145.812 14.2173 146.166 14.432C146.53 14.6373 146.913 14.74 147.314 14.74C147.725 14.74 148.108 14.6373 148.462 14.432C148.817 14.2267 149.102 13.928 149.316 13.536C149.54 13.1347 149.652 12.668 149.652 12.136ZM157.349 8.16C157.937 8.16 158.459 8.286 158.917 8.538C159.383 8.79 159.747 9.16333 160.009 9.658C160.279 10.1527 160.415 10.75 160.415 11.45V16H158.833V11.688C158.833 10.9973 158.66 10.47 158.315 10.106C157.969 9.73267 157.498 9.546 156.901 9.546C156.303 9.546 155.827 9.73267 155.473 10.106C155.127 10.47 154.955 10.9973 154.955 11.688V16H153.359V5.64H154.955V9.182C155.225 8.85533 155.566 8.60333 155.977 8.426C156.397 8.24867 156.854 8.16 157.349 8.16ZM165.25 16.126C164.644 16.126 164.098 16.0187 163.612 15.804C163.136 15.58 162.758 15.2813 162.478 14.908C162.198 14.5253 162.049 14.1007 162.03 13.634H163.682C163.71 13.9607 163.864 14.236 164.144 14.46C164.434 14.6747 164.793 14.782 165.222 14.782C165.67 14.782 166.016 14.698 166.258 14.53C166.51 14.3527 166.636 14.1287 166.636 13.858C166.636 13.5687 166.496 13.354 166.216 13.214C165.946 13.074 165.512 12.92 164.914 12.752C164.336 12.5933 163.864 12.4393 163.5 12.29C163.136 12.1407 162.819 11.912 162.548 11.604C162.287 11.296 162.156 10.89 162.156 10.386C162.156 9.97533 162.278 9.602 162.52 9.266C162.763 8.92067 163.108 8.65 163.556 8.454C164.014 8.258 164.536 8.16 165.124 8.16C166.002 8.16 166.706 8.384 167.238 8.832C167.78 9.27067 168.069 9.87267 168.106 10.638H166.51C166.482 10.2927 166.342 10.0173 166.09 9.812C165.838 9.60667 165.498 9.504 165.068 9.504C164.648 9.504 164.326 9.58333 164.102 9.742C163.878 9.90067 163.766 10.1107 163.766 10.372C163.766 10.5773 163.841 10.75 163.99 10.89C164.14 11.03 164.322 11.142 164.536 11.226C164.751 11.3007 165.068 11.3987 165.488 11.52C166.048 11.6693 166.506 11.8233 166.86 11.982C167.224 12.1313 167.537 12.3553 167.798 12.654C168.06 12.9527 168.195 13.3493 168.204 13.844C168.204 14.2827 168.083 14.6747 167.84 15.02C167.598 15.3653 167.252 15.636 166.804 15.832C166.366 16.028 165.848 16.126 165.25 16.126Z" fill="white"/>
<path d="M120.298 329.27V339H118.702V332.336L115.734 339H114.628L111.646 332.336V339H110.05V329.27H111.772L115.188 336.9L118.59 329.27H120.298ZM129.382 331.286V339H127.786V338.09C127.534 338.407 127.202 338.659 126.792 338.846C126.39 339.023 125.961 339.112 125.504 339.112C124.897 339.112 124.351 338.986 123.866 338.734C123.39 338.482 123.012 338.109 122.732 337.614C122.461 337.119 122.326 336.522 122.326 335.822V331.286H123.908V335.584C123.908 336.275 124.08 336.807 124.426 337.18C124.771 337.544 125.242 337.726 125.84 337.726C126.437 337.726 126.908 337.544 127.254 337.18C127.608 336.807 127.786 336.275 127.786 335.584V331.286H129.382ZM133.084 328.64V339H131.488V328.64H133.084ZM136.775 328.64V339H135.179V328.64H136.775ZM138.338 335.108C138.338 334.333 138.497 333.647 138.814 333.05C139.141 332.453 139.58 331.991 140.13 331.664C140.69 331.328 141.306 331.16 141.978 331.16C142.585 331.16 143.112 331.281 143.56 331.524C144.018 331.757 144.382 332.051 144.652 332.406V331.286H146.262V339H144.652V337.852C144.382 338.216 144.013 338.519 143.546 338.762C143.08 339.005 142.548 339.126 141.95 339.126C141.288 339.126 140.681 338.958 140.13 338.622C139.58 338.277 139.141 337.801 138.814 337.194C138.497 336.578 138.338 335.883 138.338 335.108ZM144.652 335.136C144.652 334.604 144.54 334.142 144.316 333.75C144.102 333.358 143.817 333.059 143.462 332.854C143.108 332.649 142.725 332.546 142.314 332.546C141.904 332.546 141.521 332.649 141.166 332.854C140.812 333.05 140.522 333.344 140.298 333.736C140.084 334.119 139.976 334.576 139.976 335.108C139.976 335.64 140.084 336.107 140.298 336.508C140.522 336.909 140.812 337.217 141.166 337.432C141.53 337.637 141.913 337.74 142.314 337.74C142.725 337.74 143.108 337.637 143.462 337.432C143.817 337.227 144.102 336.928 144.316 336.536C144.54 336.135 144.652 335.668 144.652 335.136ZM152.349 331.16C152.937 331.16 153.459 331.286 153.917 331.538C154.383 331.79 154.747 332.163 155.009 332.658C155.279 333.153 155.415 333.75 155.415 334.45V339H153.833V334.688C153.833 333.997 153.66 333.47 153.315 333.106C152.969 332.733 152.498 332.546 151.901 332.546C151.303 332.546 150.827 332.733 150.473 333.106C150.127 333.47 149.955 333.997 149.955 334.688V339H148.359V328.64H149.955V332.182C150.225 331.855 150.566 331.603 150.977 331.426C151.397 331.249 151.854 331.16 152.349 331.16ZM160.25 339.126C159.644 339.126 159.098 339.019 158.612 338.804C158.136 338.58 157.758 338.281 157.478 337.908C157.198 337.525 157.049 337.101 157.03 336.634H158.682C158.71 336.961 158.864 337.236 159.144 337.46C159.434 337.675 159.793 337.782 160.222 337.782C160.67 337.782 161.016 337.698 161.258 337.53C161.51 337.353 161.636 337.129 161.636 336.858C161.636 336.569 161.496 336.354 161.216 336.214C160.946 336.074 160.512 335.92 159.914 335.752C159.336 335.593 158.864 335.439 158.5 335.29C158.136 335.141 157.819 334.912 157.548 334.604C157.287 334.296 157.156 333.89 157.156 333.386C157.156 332.975 157.278 332.602 157.52 332.266C157.763 331.921 158.108 331.65 158.556 331.454C159.014 331.258 159.536 331.16 160.124 331.16C161.002 331.16 161.706 331.384 162.238 331.832C162.78 332.271 163.069 332.873 163.106 333.638H161.51C161.482 333.293 161.342 333.017 161.09 332.812C160.838 332.607 160.498 332.504 160.068 332.504C159.648 332.504 159.326 332.583 159.102 332.742C158.878 332.901 158.766 333.111 158.766 333.372C158.766 333.577 158.841 333.75 158.99 333.89C159.14 334.03 159.322 334.142 159.536 334.226C159.751 334.301 160.068 334.399 160.488 334.52C161.048 334.669 161.506 334.823 161.86 334.982C162.224 335.131 162.537 335.355 162.798 335.654C163.06 335.953 163.195 336.349 163.204 336.844C163.204 337.283 163.083 337.675 162.84 338.02C162.598 338.365 162.252 338.636 161.804 338.832C161.366 339.028 160.848 339.126 160.25 339.126Z" fill="white"/>
<rect x="24.333" y="49.0703" width="5.33333" height="5.19853" fill="#A1A1A1"/>
<rect x="136.334" y="54.2734" width="5.33333" height="5.19853" fill="#A1A1A1"/>
<rect x="136.334" y="189.43" width="5.33333" height="5.19853" fill="#A1A1A1"/>
<rect x="136.334" y="184.234" width="5.33333" height="5.19853" fill="#A1A1A1"/>
<rect x="24.333" y="298.602" width="5.33333" height="5.19853" fill="#A1A1A1"/>
<rect x="136.334" y="303.805" width="5.33333" height="5.19853" fill="#A1A1A1"/>
<rect x="115" y="49.0703" width="5.33333" height="5.19853" fill="#A1A1A1"/>
<rect x="115" y="298.602" width="5.33333" height="5.19853" fill="#A1A1A1"/>
<rect x="157.667" y="49.0703" width="5.33333" height="5.19853" fill="#A1A1A1"/>
<rect x="157.667" y="298.602" width="5.33333" height="5.19853" fill="#A1A1A1"/>
<rect x="243" y="49.0703" width="5.33333" height="5.19853" fill="#A1A1A1"/>
<rect x="243" y="298.602" width="5.33333" height="5.19853" fill="#A1A1A1"/>
<rect x="51" y="49.0703" width="5.33333" height="5.19853" fill="#A1A1A1"/>
<rect x="104.334" y="111.453" width="5.33333" height="5.19853" fill="#A1A1A1"/>
<rect x="168.334" y="111.453" width="5.33333" height="5.19853" fill="#A1A1A1"/>
<rect x="168.334" y="236.219" width="5.33333" height="5.19853" fill="#A1A1A1"/>
<rect x="109.667" y="236.219" width="5.33333" height="5.19853" fill="#A1A1A1"/>
<rect x="104.334" y="236.219" width="5.33333" height="5.19853" fill="#A1A1A1"/>
<rect x="51" y="298.602" width="5.33333" height="5.19853" fill="#A1A1A1"/>
<rect x="221.667" y="49.0703" width="5.33333" height="5.19853" fill="#A1A1A1"/>
<rect x="221.667" y="298.602" width="5.33333" height="5.19853" fill="#A1A1A1"/>
<rect x="93.667" y="49.0703" width="5.33333" height="5.19853" fill="#A1A1A1"/>
<rect x="93.667" y="298.602" width="5.33333" height="5.19853" fill="#A1A1A1"/>
<rect x="179" y="49.0703" width="5.33333" height="5.19853" fill="#A1A1A1"/>
<rect x="179" y="298.602" width="5.33333" height="5.19853" fill="#A1A1A1"/>
<rect x="163.001" y="49.0703" width="5.33333" height="5.19853" fill="#A1A1A1"/>
<rect x="163.001" y="298.602" width="5.33333" height="5.19853" fill="#A1A1A1"/>
<rect x="40.333" y="49.0703" width="5.33333" height="5.19853" fill="#A1A1A1"/>
<rect x="93.667" y="111.453" width="5.33333" height="5.19853" fill="#A1A1A1"/>
<rect x="157.667" y="111.453" width="5.33333" height="5.19853" fill="#A1A1A1"/>
<rect x="157.667" y="236.219" width="5.33333" height="5.19853" fill="#A1A1A1"/>
<rect x="99" y="236.219" width="5.33333" height="5.19853" fill="#A1A1A1"/>
<rect x="93.667" y="236.219" width="5.33333" height="5.19853" fill="#A1A1A1"/>
<rect x="40.333" y="298.602" width="5.33333" height="5.19853" fill="#A1A1A1"/>
<rect x="125.667" y="49.0703" width="5.33333" height="5.19853" fill="#A1A1A1"/>
<rect x="125.667" y="298.602" width="5.33333" height="5.19853" fill="#A1A1A1"/>
<rect x="211" y="49.0703" width="5.33333" height="5.19853" fill="#A1A1A1"/>
<rect x="211" y="298.602" width="5.33333" height="5.19853" fill="#A1A1A1"/>
<rect x="83" y="49.0703" width="5.33333" height="5.19853" fill="#A1A1A1"/>
<rect x="83" y="298.602" width="5.33333" height="5.19853" fill="#A1A1A1"/>
<rect x="168.334" y="49.0703" width="5.33333" height="5.19853" fill="#A1A1A1"/>
<rect x="168.334" y="298.602" width="5.33333" height="5.19853" fill="#A1A1A1"/>
<rect x="253.668" y="49.0703" width="5.33333" height="5.19853" fill="#A1A1A1"/>
<rect x="253.668" y="298.602" width="5.33333" height="5.19853" fill="#A1A1A1"/>
<rect x="61.667" y="49.0703" width="5.33333" height="5.19853" fill="#A1A1A1"/>
<rect x="115" y="111.453" width="5.33333" height="5.19853" fill="#A1A1A1"/>
<rect x="179" y="111.453" width="5.33333" height="5.19853" fill="#A1A1A1"/>
<rect x="179" y="236.219" width="5.33333" height="5.19853" fill="#A1A1A1"/>
<rect x="120.334" y="236.219" width="5.33333" height="5.19853" fill="#A1A1A1"/>
<rect x="115" y="236.219" width="5.33333" height="5.19853" fill="#A1A1A1"/>
<rect x="61.667" y="298.602" width="5.33333" height="5.19853" fill="#A1A1A1"/>
<rect x="147" y="49.0703" width="5.33333" height="5.19853" fill="#A1A1A1"/>
<rect x="232.334" y="49.0703" width="5.33333" height="5.19853" fill="#A1A1A1"/>
<rect x="259.001" y="49.0703" width="5.33333" height="5.19853" fill="#A1A1A1"/>
<rect x="232.334" y="298.602" width="5.33333" height="5.19853" fill="#A1A1A1"/>
<rect x="104.334" y="49.0703" width="5.33333" height="5.19853" fill="#A1A1A1"/>
<rect x="104.334" y="298.602" width="5.33333" height="5.19853" fill="#A1A1A1"/>
<rect x="189.667" y="49.0703" width="5.33333" height="5.19853" fill="#A1A1A1"/>
<rect x="189.667" y="298.602" width="5.33333" height="5.19853" fill="#A1A1A1"/>
<rect x="35" y="49.0703" width="5.33333" height="5.19853" fill="#A1A1A1"/>
<rect x="88.334" y="111.453" width="5.33333" height="5.19853" fill="#A1A1A1"/>
<rect x="152.334" y="111.453" width="5.33333" height="5.19853" fill="#A1A1A1"/>
<rect x="152.334" y="236.219" width="5.33333" height="5.19853" fill="#A1A1A1"/>
<rect x="93.667" y="236.219" width="5.33333" height="5.19853" fill="#A1A1A1"/>
<rect x="88.334" y="236.219" width="5.33333" height="5.19853" fill="#A1A1A1"/>
<rect x="35" y="298.602" width="5.33333" height="5.19853" fill="#A1A1A1"/>
<rect x="120.334" y="49.0703" width="5.33333" height="5.19853" fill="#A1A1A1"/>
<rect x="120.334" y="298.602" width="5.33333" height="5.19853" fill="#A1A1A1"/>
<rect x="205.667" y="49.0703" width="5.33333" height="5.19853" fill="#A1A1A1"/>
<rect x="205.667" y="298.602" width="5.33333" height="5.19853" fill="#A1A1A1"/>
<rect x="77.667" y="49.0703" width="5.33333" height="5.19853" fill="#A1A1A1"/>
<rect x="77.667" y="298.602" width="5.33333" height="5.19853" fill="#A1A1A1"/>
<rect x="163.001" y="49.0703" width="5.33333" height="5.19853" fill="#A1A1A1"/>
<rect x="163.001" y="298.602" width="5.33333" height="5.19853" fill="#A1A1A1"/>
<rect x="248.333" y="49.0703" width="5.33333" height="5.19853" fill="#A1A1A1"/>
<rect x="248.333" y="298.602" width="5.33333" height="5.19853" fill="#A1A1A1"/>
<rect x="56.334" y="49.0703" width="5.33333" height="5.19853" fill="#A1A1A1"/>
<rect x="109.667" y="111.453" width="5.33333" height="5.19853" fill="#A1A1A1"/>
<rect x="173.667" y="111.453" width="5.33333" height="5.19853" fill="#A1A1A1"/>
<rect x="173.667" y="236.219" width="5.33333" height="5.19853" fill="#A1A1A1"/>
<rect x="115" y="236.219" width="5.33333" height="5.19853" fill="#A1A1A1"/>
<rect x="109.667" y="236.219" width="5.33333" height="5.19853" fill="#A1A1A1"/>
<rect x="56.334" y="298.602" width="5.33333" height="5.19853" fill="#A1A1A1"/>
<rect x="141.667" y="49.0703" width="5.33333" height="5.19853" fill="#A1A1A1"/>
<rect x="141.667" y="298.602" width="5.33333" height="5.19853" fill="#A1A1A1"/>
<rect x="227.001" y="49.0703" width="5.33333" height="5.19853" fill="#A1A1A1"/>
<rect x="253.668" y="49.0703" width="5.33333" height="5.19853" fill="#A1A1A1"/>
<rect x="227.001" y="298.602" width="5.33333" height="5.19853" fill="#A1A1A1"/>
<rect x="99" y="49.0703" width="5.33333" height="5.19853" fill="#A1A1A1"/>
<rect x="99" y="298.602" width="5.33333" height="5.19853" fill="#A1A1A1"/>
<rect x="184.334" y="49.0703" width="5.33333" height="5.19853" fill="#A1A1A1"/>
<rect x="184.334" y="298.602" width="5.33333" height="5.19853" fill="#A1A1A1"/>
<rect x="45.667" y="49.0703" width="5.33333" height="5.19853" fill="#A1A1A1"/>
<rect x="99" y="111.453" width="5.33333" height="5.19853" fill="#A1A1A1"/>
<rect x="163.001" y="111.453" width="5.33333" height="5.19853" fill="#A1A1A1"/>
<rect x="163.001" y="236.219" width="5.33333" height="5.19853" fill="#A1A1A1"/>
<rect x="104.334" y="236.219" width="5.33333" height="5.19853" fill="#A1A1A1"/>
<rect x="99" y="236.219" width="5.33333" height="5.19853" fill="#A1A1A1"/>
<rect x="45.667" y="298.602" width="5.33333" height="5.19853" fill="#A1A1A1"/>
<rect x="131" y="49.0703" width="5.33333" height="5.19853" fill="#A1A1A1"/>
<rect x="131" y="298.602" width="5.33333" height="5.19853" fill="#A1A1A1"/>
<rect x="216.333" y="49.0703" width="5.33333" height="5.19853" fill="#A1A1A1"/>
<rect x="216.333" y="298.602" width="5.33333" height="5.19853" fill="#A1A1A1"/>
<rect x="88.334" y="49.0703" width="5.33333" height="5.19853" fill="#A1A1A1"/>
<rect x="88.334" y="298.602" width="5.33333" height="5.19853" fill="#A1A1A1"/>
<rect x="173.667" y="49.0703" width="5.33333" height="5.19853" fill="#A1A1A1"/>
<rect x="173.667" y="298.602" width="5.33333" height="5.19853" fill="#A1A1A1"/>
<rect x="67" y="49.0703" width="5.33333" height="5.19853" fill="#A1A1A1"/>
<rect x="120.334" y="111.453" width="5.33333" height="5.19853" fill="#A1A1A1"/>
<rect x="184.334" y="111.453" width="5.33333" height="5.19853" fill="#A1A1A1"/>
<rect x="184.334" y="236.219" width="5.33333" height="5.19853" fill="#A1A1A1"/>
<rect x="125.667" y="236.219" width="5.33333" height="5.19853" fill="#A1A1A1"/>
<rect x="120.334" y="236.219" width="5.33333" height="5.19853" fill="#A1A1A1"/>
<rect x="125.667" y="111.453" width="5.33333" height="5.19853" fill="#A1A1A1"/>
<rect x="189.667" y="111.453" width="5.33333" height="5.19853" fill="#A1A1A1"/>
<rect x="189.667" y="236.219" width="5.33333" height="5.19853" fill="#A1A1A1"/>
<rect x="67" y="236.219" width="5.33333" height="5.19853" fill="#A1A1A1"/>
<rect x="131" y="236.219" width="5.33333" height="5.19853" fill="#A1A1A1"/>
<rect x="125.667" y="236.219" width="5.33333" height="5.19853" fill="#A1A1A1"/>
<rect x="131" y="111.453" width="5.33333" height="5.19853" fill="#A1A1A1"/>
<rect x="195.001" y="111.453" width="5.33333" height="5.19853" fill="#A1A1A1"/>
<rect x="131" y="173.836" width="5.33333" height="5.19853" fill="#A1A1A1"/>
<rect x="195.001" y="236.219" width="5.33333" height="5.19853" fill="#A1A1A1"/>
<rect x="67" y="298.602" width="5.33333" height="5.19853" fill="#A1A1A1"/>
<rect x="152.334" y="49.0703" width="5.33333" height="5.19853" fill="#A1A1A1"/>
<rect x="237.667" y="49.0703" width="5.33333" height="5.19853" fill="#A1A1A1"/>
<rect x="237.667" y="298.602" width="5.33333" height="5.19853" fill="#A1A1A1"/>
<rect x="109.667" y="49.0703" width="5.33333" height="5.19853" fill="#A1A1A1"/>
<rect x="109.667" y="298.602" width="5.33333" height="5.19853" fill="#A1A1A1"/>
<rect x="195.001" y="49.0703" width="5.33333" height="5.19853" fill="#A1A1A1"/>
<rect x="195.001" y="298.602" width="5.33333" height="5.19853" fill="#A1A1A1"/>
<rect x="269.667" y="54.2734" width="5.19853" height="5.33333" transform="rotate(90 269.667 54.2734)" fill="#A1A1A1"/>
<rect x="264.334" y="54.2734" width="5.19853" height="5.33333" transform="rotate(90 264.334 54.2734)" fill="#A1A1A1"/>
<rect x="259.001" y="59.4688" width="5.19853" height="5.33333" transform="rotate(90 259.001 59.4688)" fill="#A1A1A1"/>
<rect x="195.001" y="121.852" width="5.19853" height="5.33333" transform="rotate(90 195.001 121.852)" fill="#A1A1A1"/>
<rect x="131" y="184.234" width="5.19853" height="5.33333" transform="rotate(90 131 184.234)" fill="#A1A1A1"/>
<rect x="67" y="246.617" width="5.19853" height="5.33333" transform="rotate(90 67 246.617)" fill="#A1A1A1"/>
<rect x="253.668" y="64.6641" width="5.19853" height="5.33333" transform="rotate(90 253.668 64.6641)" fill="#A1A1A1"/>
<rect x="189.667" y="127.055" width="5.19853" height="5.33333" transform="rotate(90 189.667 127.055)" fill="#A1A1A1"/>
<rect x="125.667" y="189.43" width="5.19853" height="5.33333" transform="rotate(90 125.667 189.43)" fill="#A1A1A1"/>
<rect x="61.667" y="251.812" width="5.19853" height="5.33333" transform="rotate(90 61.667 251.812)" fill="#A1A1A1"/>
<rect x="248.333" y="69.8672" width="5.19853" height="5.33333" transform="rotate(90 248.333 69.8672)" fill="#A1A1A1"/>
<rect x="184.334" y="132.25" width="5.19853" height="5.33333" transform="rotate(90 184.334 132.25)" fill="#A1A1A1"/>
<rect x="120.334" y="194.633" width="5.19853" height="5.33333" transform="rotate(90 120.334 194.633)" fill="#A1A1A1"/>
<rect x="56.334" y="257.016" width="5.19853" height="5.33333" transform="rotate(90 56.334 257.016)" fill="#A1A1A1"/>
<rect x="243" y="75.0625" width="5.19853" height="5.33333" transform="rotate(90 243 75.0625)" fill="#A1A1A1"/>
<rect x="179" y="137.445" width="5.19853" height="5.33333" transform="rotate(90 179 137.445)" fill="#A1A1A1"/>
<rect x="115" y="199.828" width="5.19853" height="5.33333" transform="rotate(90 115 199.828)" fill="#A1A1A1"/>
<rect x="51" y="262.211" width="5.19853" height="5.33333" transform="rotate(90 51 262.211)" fill="#A1A1A1"/>
<rect x="237.667" y="80.2656" width="5.19853" height="5.33333" transform="rotate(90 237.667 80.2656)" fill="#A1A1A1"/>
<rect x="173.667" y="142.648" width="5.19853" height="5.33333" transform="rotate(90 173.667 142.648)" fill="#A1A1A1"/>
<rect x="109.667" y="205.031" width="5.19853" height="5.33333" transform="rotate(90 109.667 205.031)" fill="#A1A1A1"/>
<rect x="45.667" y="267.414" width="5.19853" height="5.33333" transform="rotate(90 45.667 267.414)" fill="#A1A1A1"/>
<rect x="232.334" y="85.4609" width="5.19853" height="5.33333" transform="rotate(90 232.334 85.4609)" fill="#A1A1A1"/>
<rect x="168.334" y="147.844" width="5.19853" height="5.33333" transform="rotate(90 168.334 147.844)" fill="#A1A1A1"/>
<rect x="104.334" y="210.227" width="5.19853" height="5.33333" transform="rotate(90 104.334 210.227)" fill="#A1A1A1"/>
<rect x="40.333" y="272.609" width="5.19853" height="5.33333" transform="rotate(90 40.333 272.609)" fill="#A1A1A1"/>
<rect x="227.001" y="90.6641" width="5.19853" height="5.33333" transform="rotate(90 227.001 90.6641)" fill="#A1A1A1"/>
<rect x="163.001" y="153.039" width="5.19853" height="5.33333" transform="rotate(90 163.001 153.039)" fill="#A1A1A1"/>
<rect x="99" y="215.43" width="5.19853" height="5.33333" transform="rotate(90 99 215.43)" fill="#A1A1A1"/>
<rect x="35" y="277.805" width="5.19853" height="5.33333" transform="rotate(90 35 277.805)" fill="#A1A1A1"/>
<rect x="221.667" y="95.8594" width="5.19853" height="5.33333" transform="rotate(90 221.667 95.8594)" fill="#A1A1A1"/>
<rect x="157.667" y="158.242" width="5.19853" height="5.33333" transform="rotate(90 157.667 158.242)" fill="#A1A1A1"/>
<rect x="93.667" y="220.625" width="5.19853" height="5.33333" transform="rotate(90 93.667 220.625)" fill="#A1A1A1"/>
<rect x="29.667" y="283.008" width="5.19853" height="5.33333" transform="rotate(90 29.667 283.008)" fill="#A1A1A1"/>
<rect x="216.333" y="101.055" width="5.19853" height="5.33333" transform="rotate(90 216.333 101.055)" fill="#A1A1A1"/>
<rect x="152.334" y="163.438" width="5.19853" height="5.33333" transform="rotate(90 152.334 163.438)" fill="#A1A1A1"/>
<rect x="88.334" y="225.82" width="5.19853" height="5.33333" transform="rotate(90 88.334 225.82)" fill="#A1A1A1"/>
<rect x="24.333" y="288.203" width="5.19853" height="5.33333" transform="rotate(90 24.333 288.203)" fill="#A1A1A1"/>
<rect x="264.334" y="43.875" width="5.19853" height="5.33333" transform="rotate(90 264.334 43.875)" fill="#A1A1A1"/>
<rect x="269.667" y="43.875" width="5.19853" height="5.33333" transform="rotate(90 269.667 43.875)" fill="#A1A1A1"/>
<rect x="275" y="43.875" width="5.19853" height="5.33333" transform="rotate(90 275 43.875)" fill="#A1A1A1"/>
<rect x="275" y="49.0703" width="5.19853" height="5.33333" transform="rotate(90 275 49.0703)" fill="#A1A1A1"/>
<rect x="275" y="54.2734" width="5.19853" height="5.33333" transform="rotate(90 275 54.2734)" fill="#A1A1A1"/>
<rect x="269.667" y="293.406" width="5.19853" height="5.33333" transform="rotate(90 269.667 293.406)" fill="#A1A1A1"/>
<rect x="264.334" y="293.406" width="5.19853" height="5.33333" transform="rotate(90 264.334 293.406)" fill="#A1A1A1"/>
<rect x="264.334" y="303.805" width="5.19853" height="5.33333" transform="rotate(90 264.334 303.805)" fill="#A1A1A1"/>
<rect x="269.667" y="303.805" width="5.19853" height="5.33333" transform="rotate(90 269.667 303.805)" fill="#A1A1A1"/>
<rect x="275" y="303.805" width="5.19853" height="5.33333" transform="rotate(90 275 303.805)" fill="#A1A1A1"/>
<rect x="275" y="298.602" width="5.19853" height="5.33333" transform="rotate(90 275 298.602)" fill="#A1A1A1"/>
<rect x="275" y="293.406" width="5.19853" height="5.33333" transform="rotate(90 275 293.406)" fill="#A1A1A1"/>
<rect x="163.001" y="298.602" width="5.33333" height="5.19853" fill="#A1A1A1"/>
<rect x="29.667" y="49.0703" width="5.19853" height="5.33333" transform="rotate(90 29.667 49.0703)" fill="black"/>
<rect x="141.667" y="54.2734" width="5.19853" height="5.33333" transform="rotate(90 141.667 54.2734)" fill="black"/>
<rect x="29.667" y="49.0703" width="5.19853" height="5.33333" transform="rotate(90 29.667 49.0703)" fill="#A1A1A1"/>
<rect x="141.667" y="54.2734" width="5.19853" height="5.33333" transform="rotate(90 141.667 54.2734)" fill="#A1A1A1"/>
<rect x="136.334" y="54.2734" width="5.19853" height="5.33333" transform="rotate(90 136.334 54.2734)" fill="#A1A1A1"/>
<rect x="136.334" y="43.875" width="5.19853" height="5.33333" transform="rotate(90 136.334 43.875)" fill="#A1A1A1"/>
<rect x="141.667" y="43.875" width="5.19853" height="5.33333" transform="rotate(90 141.667 43.875)" fill="#A1A1A1"/>
<rect x="147" y="43.875" width="5.19853" height="5.33333" transform="rotate(90 147 43.875)" fill="#A1A1A1"/>
<rect x="147" y="54.2734" width="5.19853" height="5.33333" transform="rotate(90 147 54.2734)" fill="#A1A1A1"/>
<rect x="205.667" y="49.0703" width="5.19853" height="5.33333" transform="rotate(90 205.667 49.0703)" fill="#A1A1A1"/>
<rect width="5.19853" height="5.33333" transform="matrix(4.48448e-08 1 1 -4.26066e-08 72.334 49.0703)" fill="#A1A1A1"/>
<rect x="35" y="49.0703" width="5.19853" height="5.33333" transform="rotate(90 35 49.0703)" fill="#A1A1A1"/>
<rect x="88.334" y="111.453" width="5.19853" height="5.33333" transform="rotate(90 88.334 111.453)" fill="#A1A1A1"/>
<rect x="152.334" y="111.453" width="5.19853" height="5.33333" transform="rotate(90 152.334 111.453)" fill="#A1A1A1"/>
<rect x="152.334" y="236.219" width="5.19853" height="5.33333" transform="rotate(90 152.334 236.219)" fill="#A1A1A1"/>
<rect x="93.667" y="236.219" width="5.19853" height="5.33333" transform="rotate(90 93.667 236.219)" fill="#A1A1A1"/>
<rect x="88.334" y="236.219" width="5.19853" height="5.33333" transform="rotate(90 88.334 236.219)" fill="#A1A1A1"/>
<rect x="141.667" y="189.43" width="5.19853" height="5.33333" transform="rotate(90 141.667 189.43)" fill="#A1A1A1"/>
<rect x="141.667" y="184.234" width="5.19853" height="5.33333" transform="rotate(90 141.667 184.234)" fill="#A1A1A1"/>
<rect x="29.667" y="298.602" width="5.19853" height="5.33333" transform="rotate(90 29.667 298.602)" fill="#A1A1A1"/>
<rect x="141.667" y="303.805" width="5.19853" height="5.33333" transform="rotate(90 141.667 303.805)" fill="#A1A1A1"/>
<rect x="141.667" y="137.445" width="5.19853" height="5.33333" transform="rotate(90 141.667 137.445)" fill="#A1A1A1"/>
<rect x="141.667" y="95.8594" width="5.19853" height="5.33333" transform="rotate(90 141.667 95.8594)" fill="#A1A1A1"/>
<rect x="141.667" y="179.039" width="5.19853" height="5.33333" transform="rotate(90 141.667 179.039)" fill="#A1A1A1"/>
<rect x="141.667" y="262.211" width="5.19853" height="5.33333" transform="rotate(90 141.667 262.211)" fill="#A1A1A1"/>
<rect x="141.667" y="75.0625" width="5.19853" height="5.33333" transform="rotate(90 141.667 75.0625)" fill="#A1A1A1"/>
<rect x="141.667" y="158.242" width="5.19853" height="5.33333" transform="rotate(90 141.667 158.242)" fill="#A1A1A1"/>
<rect x="83" y="236.219" width="5.19853" height="5.33333" transform="rotate(90 83 236.219)" fill="#A1A1A1"/>
<rect x="141.667" y="241.414" width="5.19853" height="5.33333" transform="rotate(90 141.667 241.414)" fill="#A1A1A1"/>
<rect x="205.667" y="241.414" width="5.19853" height="5.33333" transform="rotate(90 205.667 241.414)" fill="#A1A1A1"/>
<rect width="5.19853" height="5.33333" transform="matrix(4.48448e-08 1 1 -4.26066e-08 72.334 241.414)" fill="#A1A1A1"/>
<rect x="83" y="111.453" width="5.19853" height="5.33333" transform="rotate(90 83 111.453)" fill="#A1A1A1"/>
<rect x="147" y="111.453" width="5.19853" height="5.33333" transform="rotate(90 147 111.453)" fill="#A1A1A1"/>
<rect x="211" y="111.453" width="5.19853" height="5.33333" transform="rotate(90 211 111.453)" fill="#A1A1A1"/>
<rect x="141.667" y="116.656" width="5.19853" height="5.33333" transform="rotate(90 141.667 116.656)" fill="#A1A1A1"/>
<rect x="205.667" y="116.656" width="5.19853" height="5.33333" transform="rotate(90 205.667 116.656)" fill="#A1A1A1"/>
<rect width="5.19853" height="5.33333" transform="matrix(4.48448e-08 1 1 -4.26066e-08 72.334 116.656)" fill="#A1A1A1"/>
<rect width="5.19853" height="5.33333" transform="matrix(4.48448e-08 1 1 -4.26066e-08 67 116.656)" fill="#A1A1A1"/>
<rect width="5.19853" height="5.33333" transform="matrix(4.48448e-08 1 1 -4.26066e-08 67 111.453)" fill="#A1A1A1"/>
<rect width="5.19853" height="5.33333" transform="matrix(4.48448e-08 1 1 -4.26066e-08 67 106.258)" fill="#A1A1A1"/>
<rect width="5.19853" height="5.33333" transform="matrix(4.48448e-08 1 1 -4.26066e-08 77.667 106.258)" fill="#A1A1A1"/>
<rect width="5.19853" height="5.33333" transform="matrix(4.48448e-08 1 1 -4.26066e-08 77.667 116.656)" fill="#A1A1A1"/>
<rect x="141.667" y="199.828" width="5.19853" height="5.33333" transform="rotate(90 141.667 199.828)" fill="#A1A1A1"/>
<rect x="141.667" y="283.008" width="5.19853" height="5.33333" transform="rotate(90 141.667 283.008)" fill="#A1A1A1"/>
<rect x="141.667" y="64.6641" width="5.19853" height="5.33333" transform="rotate(90 141.667 64.6641)" fill="#A1A1A1"/>
<rect x="141.667" y="147.844" width="5.19853" height="5.33333" transform="rotate(90 141.667 147.844)" fill="#A1A1A1"/>
<rect x="141.667" y="231.023" width="5.19853" height="5.33333" transform="rotate(90 141.667 231.023)" fill="#A1A1A1"/>
<rect x="205.667" y="231.023" width="5.19853" height="5.33333" transform="rotate(90 205.667 231.023)" fill="#A1A1A1"/>
<rect width="5.19853" height="5.33333" transform="matrix(4.48448e-08 1 1 -4.26066e-08 72.334 231.023)" fill="#A1A1A1"/>
<rect x="141.667" y="106.258" width="5.19853" height="5.33333" transform="rotate(90 141.667 106.258)" fill="#A1A1A1"/>
<rect x="205.667" y="106.258" width="5.19853" height="5.33333" transform="rotate(90 205.667 106.258)" fill="#A1A1A1"/>
<rect x="200.334" y="106.258" width="5.19853" height="5.33333" transform="rotate(90 200.334 106.258)" fill="#A1A1A1"/>
<rect x="200.334" y="116.656" width="5.19853" height="5.33333" transform="rotate(90 200.334 116.656)" fill="#A1A1A1"/>
<rect x="211" y="116.656" width="5.19853" height="5.33333" transform="rotate(90 211 116.656)" fill="#A1A1A1"/>
<rect x="211" y="106.258" width="5.19853" height="5.33333" transform="rotate(90 211 106.258)" fill="#A1A1A1"/>
<rect width="5.19853" height="5.33333" transform="matrix(4.48448e-08 1 1 -4.26066e-08 72.334 106.258)" fill="#A1A1A1"/>
<rect x="141.667" y="189.43" width="5.19853" height="5.33333" transform="rotate(90 141.667 189.43)" fill="#A1A1A1"/>
<rect x="141.667" y="184.234" width="5.19853" height="5.33333" transform="rotate(90 141.667 184.234)" fill="#A1A1A1"/>
<rect x="141.667" y="272.609" width="5.19853" height="5.33333" transform="rotate(90 141.667 272.609)" fill="#A1A1A1"/>
<rect x="141.667" y="293.406" width="5.19853" height="5.33333" transform="rotate(90 141.667 293.406)" fill="#A1A1A1"/>
<rect x="205.667" y="298.602" width="5.19853" height="5.33333" transform="rotate(90 205.667 298.602)" fill="#A1A1A1"/>
<rect width="5.19853" height="5.33333" transform="matrix(4.48448e-08 1 1 -4.26066e-08 72.334 298.602)" fill="#A1A1A1"/>
<rect x="141.667" y="85.4609" width="5.19853" height="5.33333" transform="rotate(90 141.667 85.4609)" fill="#A1A1A1"/>
<rect x="141.667" y="168.641" width="5.19853" height="5.33333" transform="rotate(90 141.667 168.641)" fill="#A1A1A1"/>
<rect x="136.334" y="168.641" width="5.19853" height="5.33333" transform="rotate(90 136.334 168.641)" fill="#A1A1A1"/>
<rect x="136.334" y="179.039" width="5.19853" height="5.33333" transform="rotate(90 136.334 179.039)" fill="#A1A1A1"/>
<rect x="147" y="179.039" width="5.19853" height="5.33333" transform="rotate(90 147 179.039)" fill="#A1A1A1"/>
<rect x="147" y="168.641" width="5.19853" height="5.33333" transform="rotate(90 147 168.641)" fill="#A1A1A1"/>
<rect x="141.667" y="251.812" width="5.19853" height="5.33333" transform="rotate(90 141.667 251.812)" fill="#A1A1A1"/>
<rect x="141.667" y="127.055" width="5.19853" height="5.33333" transform="rotate(90 141.667 127.055)" fill="#A1A1A1"/>
<rect x="141.667" y="210.227" width="5.19853" height="5.33333" transform="rotate(90 141.667 210.227)" fill="#A1A1A1"/>
<rect x="13.667" y="54.2734" width="5.19853" height="5.33333" transform="rotate(90 13.667 54.2734)" fill="#A1A1A1"/>
<rect x="19" y="54.2734" width="5.19853" height="5.33333" transform="rotate(90 19 54.2734)" fill="#A1A1A1"/>
<rect x="24.333" y="59.4688" width="5.19853" height="5.33333" transform="rotate(90 24.333 59.4688)" fill="#A1A1A1"/>
<rect x="29.667" y="64.6641" width="5.19853" height="5.33333" transform="rotate(90 29.667 64.6641)" fill="#A1A1A1"/>
<rect x="35" y="69.8672" width="5.19853" height="5.33333" transform="rotate(90 35 69.8672)" fill="#A1A1A1"/>
<rect x="88.334" y="121.852" width="5.19853" height="5.33333" transform="rotate(90 88.334 121.852)" fill="#A1A1A1"/>
<rect x="152.334" y="184.234" width="5.19853" height="5.33333" transform="rotate(90 152.334 184.234)" fill="#A1A1A1"/>
<rect x="216.333" y="246.617" width="5.19853" height="5.33333" transform="rotate(90 216.333 246.617)" fill="#A1A1A1"/>
<rect x="40.333" y="75.0625" width="5.19853" height="5.33333" transform="rotate(90 40.333 75.0625)" fill="#A1A1A1"/>
<rect x="93.667" y="127.055" width="5.19853" height="5.33333" transform="rotate(90 93.667 127.055)" fill="#A1A1A1"/>
<rect x="157.667" y="189.43" width="5.19853" height="5.33333" transform="rotate(90 157.667 189.43)" fill="#A1A1A1"/>
<rect x="221.667" y="251.812" width="5.19853" height="5.33333" transform="rotate(90 221.667 251.812)" fill="#A1A1A1"/>
<rect x="45.667" y="80.2656" width="5.19853" height="5.33333" transform="rotate(90 45.667 80.2656)" fill="#A1A1A1"/>
<rect x="99" y="132.25" width="5.19853" height="5.33333" transform="rotate(90 99 132.25)" fill="#A1A1A1"/>
<rect x="163.001" y="194.633" width="5.19853" height="5.33333" transform="rotate(90 163.001 194.633)" fill="#A1A1A1"/>
<rect x="227.001" y="257.016" width="5.19853" height="5.33333" transform="rotate(90 227.001 257.016)" fill="#A1A1A1"/>
<rect x="51" y="85.4609" width="5.19853" height="5.33333" transform="rotate(90 51 85.4609)" fill="#A1A1A1"/>
<rect x="104.334" y="137.445" width="5.19853" height="5.33333" transform="rotate(90 104.334 137.445)" fill="#A1A1A1"/>
<rect x="168.334" y="199.828" width="5.19853" height="5.33333" transform="rotate(90 168.334 199.828)" fill="#A1A1A1"/>
<rect x="232.334" y="262.211" width="5.19853" height="5.33333" transform="rotate(90 232.334 262.211)" fill="#A1A1A1"/>
<rect x="56.334" y="90.6641" width="5.19853" height="5.33333" transform="rotate(90 56.334 90.6641)" fill="#A1A1A1"/>
<rect x="109.667" y="142.648" width="5.19853" height="5.33333" transform="rotate(90 109.667 142.648)" fill="#A1A1A1"/>
<rect x="173.667" y="205.031" width="5.19853" height="5.33333" transform="rotate(90 173.667 205.031)" fill="#A1A1A1"/>
<rect x="237.667" y="267.414" width="5.19853" height="5.33333" transform="rotate(90 237.667 267.414)" fill="#A1A1A1"/>
<rect x="61.667" y="95.8594" width="5.19853" height="5.33333" transform="rotate(90 61.667 95.8594)" fill="#A1A1A1"/>
<rect x="115" y="147.844" width="5.19853" height="5.33333" transform="rotate(90 115 147.844)" fill="#A1A1A1"/>
<rect x="179" y="210.227" width="5.19853" height="5.33333" transform="rotate(90 179 210.227)" fill="#A1A1A1"/>
<rect x="189.667" y="220.625" width="5.19853" height="5.33333" transform="rotate(90 189.667 220.625)" fill="#A1A1A1"/>
<rect x="253.668" y="283.008" width="5.19853" height="5.33333" transform="rotate(90 253.668 283.008)" fill="#A1A1A1"/>
<rect x="125.667" y="158.242" width="5.19853" height="5.33333" transform="rotate(90 125.667 158.242)" fill="#A1A1A1"/>
<rect x="243" y="272.609" width="5.19853" height="5.33333" transform="rotate(90 243 272.609)" fill="#A1A1A1"/>
<rect x="67" y="101.055" width="5.19853" height="5.33333" transform="rotate(90 67 101.055)" fill="#A1A1A1"/>
<rect x="120.334" y="153.039" width="5.19853" height="5.33333" transform="rotate(90 120.334 153.039)" fill="#A1A1A1"/>
<rect x="184.334" y="215.43" width="5.19853" height="5.33333" transform="rotate(90 184.334 215.43)" fill="#A1A1A1"/>
<rect x="195.001" y="225.82" width="5.19853" height="5.33333" transform="rotate(90 195.001 225.82)" fill="#A1A1A1"/>
<rect x="259.001" y="288.203" width="5.19853" height="5.33333" transform="rotate(90 259.001 288.203)" fill="#A1A1A1"/>
<rect x="131" y="163.438" width="5.19853" height="5.33333" transform="rotate(90 131 163.438)" fill="#A1A1A1"/>
<rect x="248.333" y="277.805" width="5.19853" height="5.33333" transform="rotate(90 248.333 277.805)" fill="#A1A1A1"/>
<rect x="8.33301" y="54.2734" width="5.19853" height="5.33333" transform="rotate(90 8.33301 54.2734)" fill="#A1A1A1"/>
<rect x="8.33301" y="49.0703" width="5.19853" height="5.33333" transform="rotate(90 8.33301 49.0703)" fill="#A1A1A1"/>
<rect x="8.33301" y="43.875" width="5.19853" height="5.33333" transform="rotate(90 8.33301 43.875)" fill="#A1A1A1"/>
<rect x="13.667" y="43.875" width="5.19853" height="5.33333" transform="rotate(90 13.667 43.875)" fill="#A1A1A1"/>
<rect x="19" y="43.875" width="5.19853" height="5.33333" transform="rotate(90 19 43.875)" fill="#A1A1A1"/>
<rect x="19" y="49.0703" width="5.19853" height="5.33333" transform="rotate(90 19 49.0703)" fill="#A1A1A1"/>
<rect x="19" y="49.0703" width="5.19853" height="5.33333" transform="rotate(90 19 49.0703)" fill="#A1A1A1"/>
<rect x="24.333" y="49.0703" width="5.19853" height="5.33333" transform="rotate(90 24.333 49.0703)" fill="#A1A1A1"/>
<rect x="141.667" y="59.4688" width="5.19853" height="5.33333" transform="rotate(90 141.667 59.4688)" fill="#A1A1A1"/>
<rect x="141.667" y="142.648" width="5.19853" height="5.33333" transform="rotate(90 141.667 142.648)" fill="#A1A1A1"/>
<rect x="141.667" y="225.82" width="5.19853" height="5.33333" transform="rotate(90 141.667 225.82)" fill="#A1A1A1"/>
<rect x="141.667" y="101.055" width="5.19853" height="5.33333" transform="rotate(90 141.667 101.055)" fill="#A1A1A1"/>
<rect x="141.667" y="184.234" width="5.19853" height="5.33333" transform="rotate(90 141.667 184.234)" fill="#A1A1A1"/>
<rect x="147" y="173.836" width="5.19853" height="5.33333" transform="rotate(90 147 173.836)" fill="#A1A1A1"/>
<rect x="211" y="236.219" width="5.19853" height="5.33333" transform="rotate(90 211 236.219)" fill="#A1A1A1"/>
<rect x="147" y="236.219" width="5.19853" height="5.33333" transform="rotate(90 147 236.219)" fill="#A1A1A1"/>
<rect x="141.667" y="179.039" width="5.19853" height="5.33333" transform="rotate(90 141.667 179.039)" fill="#A1A1A1"/>
<rect x="141.667" y="267.414" width="5.19853" height="5.33333" transform="rotate(90 141.667 267.414)" fill="#A1A1A1"/>
<rect x="141.667" y="80.2656" width="5.19853" height="5.33333" transform="rotate(90 141.667 80.2656)" fill="#A1A1A1"/>
<rect x="141.667" y="163.438" width="5.19853" height="5.33333" transform="rotate(90 141.667 163.438)" fill="#A1A1A1"/>
<rect x="141.667" y="246.617" width="5.19853" height="5.33333" transform="rotate(90 141.667 246.617)" fill="#A1A1A1"/>
<rect x="141.667" y="121.852" width="5.19853" height="5.33333" transform="rotate(90 141.667 121.852)" fill="#A1A1A1"/>
<rect x="141.667" y="205.031" width="5.19853" height="5.33333" transform="rotate(90 141.667 205.031)" fill="#A1A1A1"/>
<rect x="141.667" y="288.203" width="5.19853" height="5.33333" transform="rotate(90 141.667 288.203)" fill="#A1A1A1"/>
<rect x="141.667" y="69.8672" width="5.19853" height="5.33333" transform="rotate(90 141.667 69.8672)" fill="#A1A1A1"/>
<rect x="141.667" y="153.039" width="5.19853" height="5.33333" transform="rotate(90 141.667 153.039)" fill="#A1A1A1"/>
<rect x="136.334" y="106.258" width="5.19853" height="5.33333" transform="rotate(90 136.334 106.258)" fill="#A1A1A1"/>
<rect x="136.334" y="116.656" width="5.19853" height="5.33333" transform="rotate(90 136.334 116.656)" fill="#A1A1A1"/>
<rect x="147" y="116.656" width="5.19853" height="5.33333" transform="rotate(90 147 116.656)" fill="#A1A1A1"/>
<rect x="147" y="106.258" width="5.19853" height="5.33333" transform="rotate(90 147 106.258)" fill="#A1A1A1"/>
<rect x="141.667" y="194.633" width="5.19853" height="5.33333" transform="rotate(90 141.667 194.633)" fill="#A1A1A1"/>
<rect x="141.667" y="189.43" width="5.19853" height="5.33333" transform="rotate(90 141.667 189.43)" fill="#A1A1A1"/>
<rect x="141.667" y="277.805" width="5.19853" height="5.33333" transform="rotate(90 141.667 277.805)" fill="#A1A1A1"/>
<rect x="13.667" y="293.406" width="5.19853" height="5.33333" transform="rotate(90 13.667 293.406)" fill="#A1A1A1"/>
<rect x="8.33301" y="293.406" width="5.19853" height="5.33333" transform="rotate(90 8.33301 293.406)" fill="#A1A1A1"/>
<rect x="8.33301" y="298.602" width="5.19853" height="5.33333" transform="rotate(90 8.33301 298.602)" fill="#A1A1A1"/>
<rect x="8.33301" y="303.805" width="5.19853" height="5.33333" transform="rotate(90 8.33301 303.805)" fill="#A1A1A1"/>
<rect x="13.667" y="303.805" width="5.19853" height="5.33333" transform="rotate(90 13.667 303.805)" fill="#A1A1A1"/>
<rect x="19" y="303.805" width="5.19853" height="5.33333" transform="rotate(90 19 303.805)" fill="#A1A1A1"/>
<rect x="19" y="293.406" width="5.19853" height="5.33333" transform="rotate(90 19 293.406)" fill="#A1A1A1"/>
<rect x="141.667" y="303.805" width="5.19853" height="5.33333" transform="rotate(90 141.667 303.805)" fill="#A1A1A1"/>
<rect x="136.334" y="303.805" width="5.19853" height="5.33333" transform="rotate(90 136.334 303.805)" fill="#A1A1A1"/>
<rect x="136.334" y="293.406" width="5.19853" height="5.33333" transform="rotate(90 136.334 293.406)" fill="#A1A1A1"/>
<rect x="147" y="293.406" width="5.19853" height="5.33333" transform="rotate(90 147 293.406)" fill="#A1A1A1"/>
<rect x="147" y="303.805" width="5.19853" height="5.33333" transform="rotate(90 147 303.805)" fill="#A1A1A1"/>
<rect x="141.667" y="90.6641" width="5.19853" height="5.33333" transform="rotate(90 141.667 90.6641)" fill="#A1A1A1"/>
<rect x="141.667" y="257.016" width="5.19853" height="5.33333" transform="rotate(90 141.667 257.016)" fill="#A1A1A1"/>
<rect x="141.667" y="132.25" width="5.19853" height="5.33333" transform="rotate(90 141.667 132.25)" fill="#A1A1A1"/>
<rect x="141.667" y="215.43" width="5.19853" height="5.33333" transform="rotate(90 141.667 215.43)" fill="#A1A1A1"/>
<rect x="141.667" y="220.625" width="5.19853" height="5.33333" transform="rotate(90 141.667 220.625)" fill="#A1A1A1"/>
<rect x="13.667" y="298.602" width="5.33333" height="5.19853" fill="#A1A1A1"/>
<rect x="136.334" y="231.023" width="5.33333" height="5.19853" fill="#A1A1A1"/>
<rect x="131" y="231.023" width="5.33333" height="5.19853" fill="#A1A1A1"/>
<rect x="131" y="241.414" width="5.33333" height="5.19853" fill="#A1A1A1"/>
<rect x="141.667" y="241.414" width="5.33333" height="5.19853" fill="#A1A1A1"/>
<rect x="141.667" y="231.023" width="5.33333" height="5.19853" fill="#A1A1A1"/>
<rect x="200.334" y="231.023" width="5.33333" height="5.19853" fill="#A1A1A1"/>
<rect x="195.001" y="231.023" width="5.33333" height="5.19853" fill="#A1A1A1"/>
<rect x="195.001" y="241.414" width="5.33333" height="5.19853" fill="#A1A1A1"/>
<rect x="205.667" y="241.414" width="5.33333" height="5.19853" fill="#A1A1A1"/>
<rect x="205.667" y="231.023" width="5.33333" height="5.19853" fill="#A1A1A1"/>
<rect width="5.33333" height="5.19853" transform="matrix(-1 0 0 1 77.667 231.023)" fill="#A1A1A1"/>
<rect width="5.33333" height="5.19853" transform="matrix(-1 0 0 1 72.334 231.023)" fill="#A1A1A1"/>
<rect width="5.33333" height="5.19853" transform="matrix(-1 0 0 1 72.334 241.414)" fill="#A1A1A1"/>
<rect width="5.33333" height="5.19853" transform="matrix(-1 0 0 1 83 241.414)" fill="#A1A1A1"/>
<rect width="5.33333" height="5.19853" transform="matrix(-1 0 0 1 83 231.023)" fill="#A1A1A1"/>
<rect x="136.334" y="158.242" width="5.33333" height="5.19853" fill="#A1A1A1"/>
<rect x="136.334" y="85.4609" width="5.33333" height="5.19853" fill="#A1A1A1"/>
<rect x="136.334" y="267.414" width="5.33333" height="5.19853" fill="#A1A1A1"/>
<rect x="136.334" y="194.633" width="5.33333" height="5.19853" fill="#A1A1A1"/>
<rect x="136.334" y="189.43" width="5.33333" height="5.19853" fill="#A1A1A1"/>
<rect x="136.334" y="121.852" width="5.33333" height="5.19853" fill="#A1A1A1"/>
<rect x="35" y="49.0703" width="5.33333" height="5.19853" fill="#A1A1A1"/>
<rect x="88.334" y="111.453" width="5.33333" height="5.19853" fill="#A1A1A1"/>
<rect x="152.334" y="111.453" width="5.33333" height="5.19853" fill="#A1A1A1"/>
<rect x="152.334" y="236.219" width="5.33333" height="5.19853" fill="#A1A1A1"/>
<rect x="93.667" y="236.219" width="5.33333" height="5.19853" fill="#A1A1A1"/>
<rect x="88.334" y="236.219" width="5.33333" height="5.19853" fill="#A1A1A1"/>
<rect x="35" y="298.602" width="5.33333" height="5.19853" fill="#A1A1A1"/>
<rect x="24.333" y="298.602" width="5.33333" height="5.19853" fill="black"/>
<rect x="253.668" y="303.805" width="5.19853" height="5.33333" transform="rotate(-90 253.668 303.805)" fill="#A1A1A1"/>
<rect x="259.001" y="303.805" width="5.19853" height="5.33333" transform="rotate(-90 259.001 303.805)" fill="#A1A1A1"/>
<rect x="29.667" y="298.602" width="5.19853" height="5.33333" transform="rotate(90 29.667 298.602)" fill="#A1A1A1"/>
<rect x="152.334" y="298.602" width="5.19853" height="5.33333" transform="rotate(90 152.334 298.602)" fill="#A1A1A1"/>
<rect x="157.667" y="298.602" width="5.19853" height="5.33333" transform="rotate(90 157.667 298.602)" fill="#A1A1A1"/>
<rect x="24.333" y="298.602" width="5.19853" height="5.33333" transform="rotate(90 24.333 298.602)" fill="#A1A1A1"/>
<rect x="163.001" y="298.602" width="5.19853" height="5.33333" transform="rotate(90 163.001 298.602)" fill="#A1A1A1"/>
<rect x="232.334" y="298.602" width="5.19853" height="5.33333" transform="rotate(90 232.334 298.602)" fill="#A1A1A1"/>
<rect x="93.667" y="298.602" width="5.19853" height="5.33333" transform="rotate(90 93.667 298.602)" fill="#A1A1A1"/>
<rect x="35" y="298.602" width="5.19853" height="5.33333" transform="rotate(90 35 298.602)" fill="#A1A1A1"/>
<ellipse cx="139.503" cy="49.2743" rx="12.5926" ry="12.2743" fill="white"/>
<rect x="21.333" y="370.797" width="5.33333" height="5.07936" fill="#A1A1A1"/>
<rect x="133.334" y="375.875" width="5.33333" height="5.07936" fill="#A1A1A1"/>
<rect x="133.334" y="507.938" width="5.33333" height="5.07936" fill="#A1A1A1"/>
<rect x="133.334" y="502.859" width="5.33333" height="5.07936" fill="#A1A1A1"/>
<rect x="21.333" y="614.602" width="5.33333" height="5.07936" fill="#A1A1A1"/>
<rect x="133.334" y="619.688" width="5.33333" height="5.07936" fill="#A1A1A1"/>
<rect x="112" y="370.797" width="5.33333" height="5.07936" fill="#A1A1A1"/>
<rect x="112" y="614.602" width="5.33333" height="5.07936" fill="#A1A1A1"/>
<rect x="154.667" y="370.797" width="5.33333" height="5.07936" fill="#A1A1A1"/>
<rect x="154.667" y="614.602" width="5.33333" height="5.07936" fill="#A1A1A1"/>
<rect x="240" y="370.797" width="5.33333" height="5.07936" fill="#A1A1A1"/>
<rect x="240" y="614.602" width="5.33333" height="5.07936" fill="#A1A1A1"/>
<rect x="48" y="370.797" width="5.33333" height="5.07936" fill="#A1A1A1"/>
<rect x="101.334" y="431.75" width="5.33333" height="5.07936" fill="#A1A1A1"/>
<rect x="165.334" y="431.75" width="5.33333" height="5.07936" fill="#A1A1A1"/>
<rect x="165.334" y="553.656" width="5.33333" height="5.07936" fill="#A1A1A1"/>
<rect x="106.667" y="553.656" width="5.33333" height="5.07936" fill="#A1A1A1"/>
<rect x="101.334" y="553.656" width="5.33333" height="5.07936" fill="#A1A1A1"/>
<rect x="48" y="614.602" width="5.33333" height="5.07936" fill="#A1A1A1"/>
<rect x="218.667" y="370.797" width="5.33333" height="5.07936" fill="#A1A1A1"/>
<rect x="218.667" y="614.602" width="5.33333" height="5.07936" fill="#A1A1A1"/>
<rect x="90.667" y="370.797" width="5.33333" height="5.07936" fill="#A1A1A1"/>
<rect x="90.667" y="614.602" width="5.33333" height="5.07936" fill="#A1A1A1"/>
<rect x="176" y="370.797" width="5.33333" height="5.07936" fill="#A1A1A1"/>
<rect x="176" y="614.602" width="5.33333" height="5.07936" fill="#A1A1A1"/>
<rect x="160.001" y="370.797" width="5.33333" height="5.07936" fill="#A1A1A1"/>
<rect x="160.001" y="614.602" width="5.33333" height="5.07936" fill="#A1A1A1"/>
<rect x="37.333" y="370.797" width="5.33333" height="5.07936" fill="#A1A1A1"/>
<rect x="90.667" y="431.75" width="5.33333" height="5.07936" fill="#A1A1A1"/>
<rect x="154.667" y="431.75" width="5.33333" height="5.07936" fill="#A1A1A1"/>
<rect x="154.667" y="553.656" width="5.33333" height="5.07936" fill="#A1A1A1"/>
<rect x="96" y="553.656" width="5.33333" height="5.07936" fill="#A1A1A1"/>
<rect x="90.667" y="553.656" width="5.33333" height="5.07936" fill="#A1A1A1"/>
<rect x="37.333" y="614.602" width="5.33333" height="5.07936" fill="#A1A1A1"/>
<rect x="122.667" y="370.797" width="5.33333" height="5.07936" fill="#A1A1A1"/>
<rect x="122.667" y="614.602" width="5.33333" height="5.07936" fill="#A1A1A1"/>
<rect x="208" y="370.797" width="5.33333" height="5.07936" fill="#A1A1A1"/>
<rect x="208" y="614.602" width="5.33333" height="5.07936" fill="#A1A1A1"/>
<rect x="80" y="370.797" width="5.33333" height="5.07936" fill="#A1A1A1"/>
<rect x="80" y="614.602" width="5.33333" height="5.07936" fill="#A1A1A1"/>
<rect x="165.334" y="370.797" width="5.33333" height="5.07936" fill="#A1A1A1"/>
<rect x="165.334" y="614.602" width="5.33333" height="5.07936" fill="#A1A1A1"/>
<rect x="250.668" y="370.797" width="5.33333" height="5.07936" fill="#A1A1A1"/>
<rect x="250.668" y="614.602" width="5.33333" height="5.07936" fill="#A1A1A1"/>
<rect x="58.667" y="370.797" width="5.33333" height="5.07936" fill="#A1A1A1"/>
<rect x="112" y="431.75" width="5.33333" height="5.07936" fill="#A1A1A1"/>
<rect x="176" y="431.75" width="5.33333" height="5.07936" fill="#A1A1A1"/>
<rect x="176" y="553.656" width="5.33333" height="5.07936" fill="#A1A1A1"/>
<rect x="117.334" y="553.656" width="5.33333" height="5.07936" fill="#A1A1A1"/>
<rect x="112" y="553.656" width="5.33333" height="5.07936" fill="#A1A1A1"/>
<rect x="58.667" y="614.602" width="5.33333" height="5.07936" fill="#A1A1A1"/>
<rect x="144" y="370.797" width="5.33333" height="5.07936" fill="#A1A1A1"/>
<rect x="229.334" y="370.797" width="5.33333" height="5.07936" fill="#A1A1A1"/>
<rect x="256.001" y="370.797" width="5.33333" height="5.07936" fill="#A1A1A1"/>
<rect x="229.334" y="614.602" width="5.33333" height="5.07936" fill="#A1A1A1"/>
<rect x="101.334" y="370.797" width="5.33333" height="5.07936" fill="#A1A1A1"/>
<rect x="101.334" y="614.602" width="5.33333" height="5.07936" fill="#A1A1A1"/>
<rect x="186.667" y="370.797" width="5.33333" height="5.07936" fill="#A1A1A1"/>
<rect x="186.667" y="614.602" width="5.33333" height="5.07936" fill="#A1A1A1"/>
<rect x="32" y="370.797" width="5.33333" height="5.07936" fill="#A1A1A1"/>
<rect x="85.334" y="431.75" width="5.33333" height="5.07936" fill="#A1A1A1"/>
<rect x="149.334" y="431.75" width="5.33333" height="5.07936" fill="#A1A1A1"/>
<rect x="149.334" y="553.656" width="5.33333" height="5.07936" fill="#A1A1A1"/>
<rect x="90.667" y="553.656" width="5.33333" height="5.07936" fill="#A1A1A1"/>
<rect x="85.334" y="553.656" width="5.33333" height="5.07936" fill="#A1A1A1"/>
<rect x="32" y="614.602" width="5.33333" height="5.07936" fill="#A1A1A1"/>
<rect x="117.334" y="370.797" width="5.33333" height="5.07936" fill="#A1A1A1"/>
<rect x="117.334" y="614.602" width="5.33333" height="5.07936" fill="#A1A1A1"/>
<rect x="202.667" y="370.797" width="5.33333" height="5.07936" fill="#A1A1A1"/>
<rect x="202.667" y="614.602" width="5.33333" height="5.07936" fill="#A1A1A1"/>
<rect x="74.667" y="370.797" width="5.33333" height="5.07936" fill="#A1A1A1"/>
<rect x="74.667" y="614.602" width="5.33333" height="5.07936" fill="#A1A1A1"/>
<rect x="160.001" y="370.797" width="5.33333" height="5.07936" fill="#A1A1A1"/>
<rect x="160.001" y="614.602" width="5.33333" height="5.07936" fill="#A1A1A1"/>
<rect x="245.333" y="370.797" width="5.33333" height="5.07936" fill="#A1A1A1"/>
<rect x="245.333" y="614.602" width="5.33333" height="5.07936" fill="#A1A1A1"/>
<rect x="53.334" y="370.797" width="5.33333" height="5.07936" fill="#A1A1A1"/>
<rect x="106.667" y="431.75" width="5.33333" height="5.07936" fill="#A1A1A1"/>
<rect x="170.667" y="431.75" width="5.33333" height="5.07936" fill="#A1A1A1"/>
<rect x="170.667" y="553.656" width="5.33333" height="5.07936" fill="#A1A1A1"/>
<rect x="112" y="553.656" width="5.33333" height="5.07936" fill="#A1A1A1"/>
<rect x="106.667" y="553.656" width="5.33333" height="5.07936" fill="#A1A1A1"/>
<rect x="53.334" y="614.602" width="5.33333" height="5.07936" fill="#A1A1A1"/>
<rect x="138.667" y="370.797" width="5.33333" height="5.07936" fill="#A1A1A1"/>
<rect x="138.667" y="614.602" width="5.33333" height="5.07936" fill="#A1A1A1"/>
<rect x="224.001" y="370.797" width="5.33333" height="5.07936" fill="#A1A1A1"/>
<rect x="250.668" y="370.797" width="5.33333" height="5.07936" fill="#A1A1A1"/>
<rect x="224.001" y="614.602" width="5.33333" height="5.07936" fill="#A1A1A1"/>
<rect x="96" y="370.797" width="5.33333" height="5.07936" fill="#A1A1A1"/>
<rect x="96" y="614.602" width="5.33333" height="5.07936" fill="#A1A1A1"/>
<rect x="181.334" y="370.797" width="5.33333" height="5.07936" fill="#A1A1A1"/>
<rect x="181.334" y="614.602" width="5.33333" height="5.07936" fill="#A1A1A1"/>
<rect x="42.667" y="370.797" width="5.33333" height="5.07936" fill="#A1A1A1"/>
<rect x="96" y="431.75" width="5.33333" height="5.07936" fill="#A1A1A1"/>
<rect x="160.001" y="431.75" width="5.33333" height="5.07936" fill="#A1A1A1"/>
<rect x="160.001" y="553.656" width="5.33333" height="5.07936" fill="#A1A1A1"/>
<rect x="101.334" y="553.656" width="5.33333" height="5.07936" fill="#A1A1A1"/>
<rect x="96" y="553.656" width="5.33333" height="5.07936" fill="#A1A1A1"/>
<rect x="42.667" y="614.602" width="5.33333" height="5.07936" fill="#A1A1A1"/>
<rect x="128" y="370.797" width="5.33333" height="5.07936" fill="#A1A1A1"/>
<rect x="128" y="614.602" width="5.33333" height="5.07936" fill="#A1A1A1"/>
<rect x="213.333" y="370.797" width="5.33333" height="5.07936" fill="#A1A1A1"/>
<rect x="213.333" y="614.602" width="5.33333" height="5.07936" fill="#A1A1A1"/>
<rect x="85.334" y="370.797" width="5.33333" height="5.07936" fill="#A1A1A1"/>
<rect x="85.334" y="614.602" width="5.33333" height="5.07936" fill="#A1A1A1"/>
<rect x="170.667" y="370.797" width="5.33333" height="5.07936" fill="#A1A1A1"/>
<rect x="170.667" y="614.602" width="5.33333" height="5.07936" fill="#A1A1A1"/>
<rect x="64" y="370.797" width="5.33333" height="5.07936" fill="#A1A1A1"/>
<rect x="117.334" y="431.75" width="5.33333" height="5.07936" fill="#A1A1A1"/>
<rect x="181.334" y="431.75" width="5.33333" height="5.07936" fill="#A1A1A1"/>
<rect x="181.334" y="553.656" width="5.33333" height="5.07936" fill="#A1A1A1"/>
<rect x="122.667" y="553.656" width="5.33333" height="5.07936" fill="#A1A1A1"/>
<rect x="117.334" y="553.656" width="5.33333" height="5.07936" fill="#A1A1A1"/>
<rect x="122.667" y="431.75" width="5.33333" height="5.07936" fill="#A1A1A1"/>
<rect x="186.667" y="431.75" width="5.33333" height="5.07936" fill="#A1A1A1"/>
<rect x="186.667" y="553.656" width="5.33333" height="5.07936" fill="#A1A1A1"/>
<rect x="64" y="553.656" width="5.33333" height="5.07936" fill="#A1A1A1"/>
<rect x="128" y="553.656" width="5.33333" height="5.07936" fill="#A1A1A1"/>
<rect x="122.667" y="553.656" width="5.33333" height="5.07936" fill="#A1A1A1"/>
<rect x="128" y="431.75" width="5.33333" height="5.07936" fill="#A1A1A1"/>
<rect x="192.001" y="431.75" width="5.33333" height="5.07936" fill="#A1A1A1"/>
<rect x="128" y="492.695" width="5.33333" height="5.07936" fill="#A1A1A1"/>
<rect x="192.001" y="553.656" width="5.33333" height="5.07936" fill="#A1A1A1"/>
<rect x="64" y="614.602" width="5.33333" height="5.07936" fill="#A1A1A1"/>
<rect x="149.334" y="370.797" width="5.33333" height="5.07936" fill="#A1A1A1"/>
<rect x="234.667" y="370.797" width="5.33333" height="5.07936" fill="#A1A1A1"/>
<rect x="234.667" y="614.602" width="5.33333" height="5.07936" fill="#A1A1A1"/>
<rect x="106.667" y="370.797" width="5.33333" height="5.07936" fill="#A1A1A1"/>
<rect x="106.667" y="614.602" width="5.33333" height="5.07936" fill="#A1A1A1"/>
<rect x="192.001" y="370.797" width="5.33333" height="5.07936" fill="#A1A1A1"/>
<rect x="192.001" y="614.602" width="5.33333" height="5.07936" fill="#A1A1A1"/>
<rect x="266.667" y="375.875" width="5.07936" height="5.33333" transform="rotate(90 266.667 375.875)" fill="#A1A1A1"/>
<rect x="261.334" y="375.875" width="5.07936" height="5.33333" transform="rotate(90 261.334 375.875)" fill="#A1A1A1"/>
<rect x="256.001" y="380.953" width="5.07936" height="5.33333" transform="rotate(90 256.001 380.953)" fill="#A1A1A1"/>
<rect x="192.001" y="441.906" width="5.07936" height="5.33333" transform="rotate(90 192.001 441.906)" fill="#A1A1A1"/>
<rect x="128" y="502.859" width="5.07936" height="5.33333" transform="rotate(90 128 502.859)" fill="#A1A1A1"/>
<rect x="64" y="563.812" width="5.07936" height="5.33333" transform="rotate(90 64 563.812)" fill="#A1A1A1"/>
<rect x="250.668" y="386.031" width="5.07936" height="5.33333" transform="rotate(90 250.668 386.031)" fill="#A1A1A1"/>
<rect x="186.667" y="446.984" width="5.07936" height="5.33333" transform="rotate(90 186.667 446.984)" fill="#A1A1A1"/>
<rect x="122.667" y="507.938" width="5.07936" height="5.33333" transform="rotate(90 122.667 507.938)" fill="#A1A1A1"/>
<rect x="58.667" y="568.891" width="5.07936" height="5.33333" transform="rotate(90 58.667 568.891)" fill="#A1A1A1"/>
<rect x="245.333" y="391.109" width="5.07936" height="5.33333" transform="rotate(90 245.333 391.109)" fill="#A1A1A1"/>
<rect x="181.334" y="452.062" width="5.07936" height="5.33333" transform="rotate(90 181.334 452.062)" fill="#A1A1A1"/>
<rect x="117.334" y="513.016" width="5.07936" height="5.33333" transform="rotate(90 117.334 513.016)" fill="#A1A1A1"/>
<rect x="53.334" y="573.969" width="5.07936" height="5.33333" transform="rotate(90 53.334 573.969)" fill="#A1A1A1"/>
<rect x="240" y="396.195" width="5.07936" height="5.33333" transform="rotate(90 240 396.195)" fill="#A1A1A1"/>
<rect x="176" y="457.141" width="5.07936" height="5.33333" transform="rotate(90 176 457.141)" fill="#A1A1A1"/>
<rect x="112" y="518.094" width="5.07936" height="5.33333" transform="rotate(90 112 518.094)" fill="#A1A1A1"/>
<rect x="48" y="579.047" width="5.07936" height="5.33333" transform="rotate(90 48 579.047)" fill="#A1A1A1"/>
<rect x="234.667" y="401.273" width="5.07936" height="5.33333" transform="rotate(90 234.667 401.273)" fill="#A1A1A1"/>
<rect x="170.667" y="462.227" width="5.07936" height="5.33333" transform="rotate(90 170.667 462.227)" fill="#A1A1A1"/>
<rect x="106.667" y="523.18" width="5.07936" height="5.33333" transform="rotate(90 106.667 523.18)" fill="#A1A1A1"/>
<rect x="42.667" y="584.133" width="5.07936" height="5.33333" transform="rotate(90 42.667 584.133)" fill="#A1A1A1"/>
<rect x="229.334" y="406.352" width="5.07936" height="5.33333" transform="rotate(90 229.334 406.352)" fill="#A1A1A1"/>
<rect x="165.334" y="467.305" width="5.07936" height="5.33333" transform="rotate(90 165.334 467.305)" fill="#A1A1A1"/>
<rect x="101.334" y="528.258" width="5.07936" height="5.33333" transform="rotate(90 101.334 528.258)" fill="#A1A1A1"/>
<rect x="37.333" y="589.211" width="5.07936" height="5.33333" transform="rotate(90 37.333 589.211)" fill="#A1A1A1"/>
<rect x="224.001" y="411.43" width="5.07936" height="5.33333" transform="rotate(90 224.001 411.43)" fill="#A1A1A1"/>
<rect x="160.001" y="472.383" width="5.07936" height="5.33333" transform="rotate(90 160.001 472.383)" fill="#A1A1A1"/>
<rect x="96" y="533.336" width="5.07936" height="5.33333" transform="rotate(90 96 533.336)" fill="#A1A1A1"/>
<rect x="32" y="594.289" width="5.07936" height="5.33333" transform="rotate(90 32 594.289)" fill="#A1A1A1"/>
<rect x="218.667" y="416.508" width="5.07936" height="5.33333" transform="rotate(90 218.667 416.508)" fill="#A1A1A1"/>
<rect x="154.667" y="477.461" width="5.07936" height="5.33333" transform="rotate(90 154.667 477.461)" fill="#A1A1A1"/>
<rect x="90.667" y="538.414" width="5.07936" height="5.33333" transform="rotate(90 90.667 538.414)" fill="#A1A1A1"/>
<rect x="26.667" y="599.367" width="5.07936" height="5.33333" transform="rotate(90 26.667 599.367)" fill="#A1A1A1"/>
<rect x="213.333" y="421.586" width="5.07936" height="5.33333" transform="rotate(90 213.333 421.586)" fill="#A1A1A1"/>
<rect x="149.334" y="482.539" width="5.07936" height="5.33333" transform="rotate(90 149.334 482.539)" fill="#A1A1A1"/>
<rect x="85.334" y="543.492" width="5.07936" height="5.33333" transform="rotate(90 85.334 543.492)" fill="#A1A1A1"/>
<rect x="21.333" y="604.445" width="5.07936" height="5.33333" transform="rotate(90 21.333 604.445)" fill="#A1A1A1"/>
<rect x="261.334" y="365.719" width="5.07936" height="5.33333" transform="rotate(90 261.334 365.719)" fill="#A1A1A1"/>
<rect x="266.667" y="365.719" width="5.07936" height="5.33333" transform="rotate(90 266.667 365.719)" fill="#A1A1A1"/>
<rect x="272" y="365.719" width="5.07936" height="5.33333" transform="rotate(90 272 365.719)" fill="#A1A1A1"/>
<rect x="272" y="370.797" width="5.07936" height="5.33333" transform="rotate(90 272 370.797)" fill="#A1A1A1"/>
<rect x="272" y="375.875" width="5.07936" height="5.33333" transform="rotate(90 272 375.875)" fill="#A1A1A1"/>
<rect x="266.667" y="609.523" width="5.07936" height="5.33333" transform="rotate(90 266.667 609.523)" fill="#A1A1A1"/>
<rect x="261.334" y="609.523" width="5.07936" height="5.33333" transform="rotate(90 261.334 609.523)" fill="#A1A1A1"/>
<rect x="261.334" y="619.688" width="5.07936" height="5.33333" transform="rotate(90 261.334 619.688)" fill="#A1A1A1"/>
<rect x="266.667" y="619.688" width="5.07936" height="5.33333" transform="rotate(90 266.667 619.688)" fill="#A1A1A1"/>
<rect x="272" y="619.688" width="5.07936" height="5.33333" transform="rotate(90 272 619.688)" fill="#A1A1A1"/>
<rect x="272" y="614.602" width="5.07936" height="5.33333" transform="rotate(90 272 614.602)" fill="#A1A1A1"/>
<rect x="272" y="609.523" width="5.07936" height="5.33333" transform="rotate(90 272 609.523)" fill="#A1A1A1"/>
<rect x="160.001" y="614.602" width="5.33333" height="5.07936" fill="#A1A1A1"/>
<rect x="26.667" y="370.797" width="5.07936" height="5.33333" transform="rotate(90 26.667 370.797)" fill="black"/>
<rect x="138.667" y="375.875" width="5.07936" height="5.33333" transform="rotate(90 138.667 375.875)" fill="black"/>
<rect x="26.667" y="370.797" width="5.07936" height="5.33333" transform="rotate(90 26.667 370.797)" fill="#A1A1A1"/>
<rect x="138.667" y="375.875" width="5.07936" height="5.33333" transform="rotate(90 138.667 375.875)" fill="#A1A1A1"/>
<rect x="133.334" y="375.875" width="5.07936" height="5.33333" transform="rotate(90 133.334 375.875)" fill="#A1A1A1"/>
<rect x="133.334" y="365.719" width="5.07936" height="5.33333" transform="rotate(90 133.334 365.719)" fill="#A1A1A1"/>
<rect x="138.667" y="365.719" width="5.07936" height="5.33333" transform="rotate(90 138.667 365.719)" fill="#A1A1A1"/>
<rect x="144" y="365.719" width="5.07936" height="5.33333" transform="rotate(90 144 365.719)" fill="#A1A1A1"/>
<rect x="144" y="375.875" width="5.07936" height="5.33333" transform="rotate(90 144 375.875)" fill="#A1A1A1"/>
<rect x="202.667" y="370.797" width="5.07936" height="5.33333" transform="rotate(90 202.667 370.797)" fill="#A1A1A1"/>
<rect width="5.07936" height="5.33333" transform="matrix(4.58969e-08 1 1 -4.16299e-08 69.334 370.797)" fill="#A1A1A1"/>
<rect x="32" y="370.797" width="5.07936" height="5.33333" transform="rotate(90 32 370.797)" fill="#A1A1A1"/>
<rect x="85.334" y="431.75" width="5.07936" height="5.33333" transform="rotate(90 85.334 431.75)" fill="#A1A1A1"/>
<rect x="149.334" y="431.75" width="5.07936" height="5.33333" transform="rotate(90 149.334 431.75)" fill="#A1A1A1"/>
<rect x="149.334" y="553.656" width="5.07936" height="5.33333" transform="rotate(90 149.334 553.656)" fill="#A1A1A1"/>
<rect x="90.667" y="553.656" width="5.07936" height="5.33333" transform="rotate(90 90.667 553.656)" fill="#A1A1A1"/>
<rect x="85.334" y="553.656" width="5.07936" height="5.33333" transform="rotate(90 85.334 553.656)" fill="#A1A1A1"/>
<rect x="138.667" y="507.938" width="5.07936" height="5.33333" transform="rotate(90 138.667 507.938)" fill="#A1A1A1"/>
<rect x="138.667" y="502.859" width="5.07936" height="5.33333" transform="rotate(90 138.667 502.859)" fill="#A1A1A1"/>
<rect x="26.667" y="614.602" width="5.07936" height="5.33333" transform="rotate(90 26.667 614.602)" fill="#A1A1A1"/>
<rect x="138.667" y="619.688" width="5.07936" height="5.33333" transform="rotate(90 138.667 619.688)" fill="#A1A1A1"/>
<rect x="138.667" y="457.141" width="5.07936" height="5.33333" transform="rotate(90 138.667 457.141)" fill="#A1A1A1"/>
<rect x="138.667" y="416.508" width="5.07936" height="5.33333" transform="rotate(90 138.667 416.508)" fill="#A1A1A1"/>
<rect x="138.667" y="497.781" width="5.07936" height="5.33333" transform="rotate(90 138.667 497.781)" fill="#A1A1A1"/>
<rect x="138.667" y="579.047" width="5.07936" height="5.33333" transform="rotate(90 138.667 579.047)" fill="#A1A1A1"/>
<rect x="138.667" y="396.195" width="5.07936" height="5.33333" transform="rotate(90 138.667 396.195)" fill="#A1A1A1"/>
<rect x="138.667" y="477.461" width="5.07936" height="5.33333" transform="rotate(90 138.667 477.461)" fill="#A1A1A1"/>
<rect x="80" y="553.656" width="5.07936" height="5.33333" transform="rotate(90 80 553.656)" fill="#A1A1A1"/>
<rect x="138.667" y="558.734" width="5.07936" height="5.33333" transform="rotate(90 138.667 558.734)" fill="#A1A1A1"/>
<rect x="202.667" y="558.734" width="5.07936" height="5.33333" transform="rotate(90 202.667 558.734)" fill="#A1A1A1"/>
<rect width="5.07936" height="5.33333" transform="matrix(4.58969e-08 1 1 -4.16299e-08 69.334 558.734)" fill="#A1A1A1"/>
<rect x="80" y="431.75" width="5.07936" height="5.33333" transform="rotate(90 80 431.75)" fill="#A1A1A1"/>
<rect x="144" y="431.75" width="5.07936" height="5.33333" transform="rotate(90 144 431.75)" fill="#A1A1A1"/>
<rect x="208" y="431.75" width="5.07936" height="5.33333" transform="rotate(90 208 431.75)" fill="#A1A1A1"/>
<rect x="138.667" y="436.828" width="5.07936" height="5.33333" transform="rotate(90 138.667 436.828)" fill="#A1A1A1"/>
<rect x="202.667" y="436.828" width="5.07936" height="5.33333" transform="rotate(90 202.667 436.828)" fill="#A1A1A1"/>
<rect width="5.07936" height="5.33333" transform="matrix(4.58969e-08 1 1 -4.16299e-08 69.334 436.828)" fill="#A1A1A1"/>
<rect width="5.07936" height="5.33333" transform="matrix(4.58969e-08 1 1 -4.16299e-08 64 436.828)" fill="#A1A1A1"/>
<rect width="5.07936" height="5.33333" transform="matrix(4.58969e-08 1 1 -4.16299e-08 64 431.75)" fill="#A1A1A1"/>
<rect width="5.07936" height="5.33333" transform="matrix(4.58969e-08 1 1 -4.16299e-08 64 426.672)" fill="#A1A1A1"/>
<rect width="5.07936" height="5.33333" transform="matrix(4.58969e-08 1 1 -4.16299e-08 74.667 426.672)" fill="#A1A1A1"/>
<rect width="5.07936" height="5.33333" transform="matrix(4.58969e-08 1 1 -4.16299e-08 74.667 436.828)" fill="#A1A1A1"/>
<rect x="138.667" y="518.094" width="5.07936" height="5.33333" transform="rotate(90 138.667 518.094)" fill="#A1A1A1"/>
<rect x="138.667" y="599.367" width="5.07936" height="5.33333" transform="rotate(90 138.667 599.367)" fill="#A1A1A1"/>
<rect x="138.667" y="386.031" width="5.07936" height="5.33333" transform="rotate(90 138.667 386.031)" fill="#A1A1A1"/>
<rect x="138.667" y="467.305" width="5.07936" height="5.33333" transform="rotate(90 138.667 467.305)" fill="#A1A1A1"/>
<rect x="138.667" y="548.578" width="5.07936" height="5.33333" transform="rotate(90 138.667 548.578)" fill="#A1A1A1"/>
<rect x="202.667" y="548.578" width="5.07936" height="5.33333" transform="rotate(90 202.667 548.578)" fill="#A1A1A1"/>
<rect width="5.07936" height="5.33333" transform="matrix(4.58969e-08 1 1 -4.16299e-08 69.334 548.578)" fill="#A1A1A1"/>
<rect x="138.667" y="426.672" width="5.07936" height="5.33333" transform="rotate(90 138.667 426.672)" fill="#A1A1A1"/>
<rect x="202.667" y="426.672" width="5.07936" height="5.33333" transform="rotate(90 202.667 426.672)" fill="#A1A1A1"/>
<rect x="197.334" y="426.672" width="5.07936" height="5.33333" transform="rotate(90 197.334 426.672)" fill="#A1A1A1"/>
<rect x="197.334" y="436.828" width="5.07936" height="5.33333" transform="rotate(90 197.334 436.828)" fill="#A1A1A1"/>
<rect x="208" y="436.828" width="5.07936" height="5.33333" transform="rotate(90 208 436.828)" fill="#A1A1A1"/>
<rect x="208" y="426.672" width="5.07936" height="5.33333" transform="rotate(90 208 426.672)" fill="#A1A1A1"/>
<rect width="5.07936" height="5.33333" transform="matrix(4.58969e-08 1 1 -4.16299e-08 69.334 426.672)" fill="#A1A1A1"/>
<rect x="138.667" y="507.938" width="5.07936" height="5.33333" transform="rotate(90 138.667 507.938)" fill="#A1A1A1"/>
<rect x="138.667" y="502.859" width="5.07936" height="5.33333" transform="rotate(90 138.667 502.859)" fill="#A1A1A1"/>
<rect x="138.667" y="589.211" width="5.07936" height="5.33333" transform="rotate(90 138.667 589.211)" fill="#A1A1A1"/>
<rect x="138.667" y="609.523" width="5.07936" height="5.33333" transform="rotate(90 138.667 609.523)" fill="#A1A1A1"/>
<rect x="202.667" y="614.602" width="5.07936" height="5.33333" transform="rotate(90 202.667 614.602)" fill="#A1A1A1"/>
<rect width="5.07936" height="5.33333" transform="matrix(4.58969e-08 1 1 -4.16299e-08 69.334 614.602)" fill="#A1A1A1"/>
<rect x="138.667" y="406.352" width="5.07936" height="5.33333" transform="rotate(90 138.667 406.352)" fill="#A1A1A1"/>
<rect x="138.667" y="487.617" width="5.07936" height="5.33333" transform="rotate(90 138.667 487.617)" fill="#A1A1A1"/>
<rect x="133.334" y="487.617" width="5.07936" height="5.33333" transform="rotate(90 133.334 487.617)" fill="#A1A1A1"/>
<rect x="133.334" y="497.781" width="5.07936" height="5.33333" transform="rotate(90 133.334 497.781)" fill="#A1A1A1"/>
<rect x="144" y="497.781" width="5.07936" height="5.33333" transform="rotate(90 144 497.781)" fill="#A1A1A1"/>
<rect x="144" y="487.617" width="5.07936" height="5.33333" transform="rotate(90 144 487.617)" fill="#A1A1A1"/>
<rect x="138.667" y="568.891" width="5.07936" height="5.33333" transform="rotate(90 138.667 568.891)" fill="#A1A1A1"/>
<rect x="138.667" y="446.984" width="5.07936" height="5.33333" transform="rotate(90 138.667 446.984)" fill="#A1A1A1"/>
<rect x="138.667" y="528.258" width="5.07936" height="5.33333" transform="rotate(90 138.667 528.258)" fill="#A1A1A1"/>
<rect x="10.667" y="375.875" width="5.07936" height="5.33333" transform="rotate(90 10.667 375.875)" fill="#A1A1A1"/>
<rect x="16" y="375.875" width="5.07936" height="5.33333" transform="rotate(90 16 375.875)" fill="#A1A1A1"/>
<rect x="21.333" y="380.953" width="5.07936" height="5.33333" transform="rotate(90 21.333 380.953)" fill="#A1A1A1"/>
<rect x="26.667" y="386.031" width="5.07936" height="5.33333" transform="rotate(90 26.667 386.031)" fill="#A1A1A1"/>
<rect x="32" y="391.109" width="5.07936" height="5.33333" transform="rotate(90 32 391.109)" fill="#A1A1A1"/>
<rect x="85.334" y="441.906" width="5.07936" height="5.33333" transform="rotate(90 85.334 441.906)" fill="#A1A1A1"/>
<rect x="149.334" y="502.859" width="5.07936" height="5.33333" transform="rotate(90 149.334 502.859)" fill="#A1A1A1"/>
<rect x="213.333" y="563.812" width="5.07936" height="5.33333" transform="rotate(90 213.333 563.812)" fill="#A1A1A1"/>
<rect x="37.333" y="396.195" width="5.07936" height="5.33333" transform="rotate(90 37.333 396.195)" fill="#A1A1A1"/>
<rect x="90.667" y="446.984" width="5.07936" height="5.33333" transform="rotate(90 90.667 446.984)" fill="#A1A1A1"/>
<rect x="154.667" y="507.938" width="5.07936" height="5.33333" transform="rotate(90 154.667 507.938)" fill="#A1A1A1"/>
<rect x="218.667" y="568.891" width="5.07936" height="5.33333" transform="rotate(90 218.667 568.891)" fill="#A1A1A1"/>
<rect x="42.667" y="401.273" width="5.07936" height="5.33333" transform="rotate(90 42.667 401.273)" fill="#A1A1A1"/>
<rect x="96" y="452.062" width="5.07936" height="5.33333" transform="rotate(90 96 452.062)" fill="#A1A1A1"/>
<rect x="160.001" y="513.016" width="5.07936" height="5.33333" transform="rotate(90 160.001 513.016)" fill="#A1A1A1"/>
<rect x="224.001" y="573.969" width="5.07936" height="5.33333" transform="rotate(90 224.001 573.969)" fill="#A1A1A1"/>
<rect x="48" y="406.352" width="5.07936" height="5.33333" transform="rotate(90 48 406.352)" fill="#A1A1A1"/>
<rect x="101.334" y="457.141" width="5.07936" height="5.33333" transform="rotate(90 101.334 457.141)" fill="#A1A1A1"/>
<rect x="165.334" y="518.094" width="5.07936" height="5.33333" transform="rotate(90 165.334 518.094)" fill="#A1A1A1"/>
<rect x="229.334" y="579.047" width="5.07936" height="5.33333" transform="rotate(90 229.334 579.047)" fill="#A1A1A1"/>
<rect x="53.334" y="411.43" width="5.07936" height="5.33333" transform="rotate(90 53.334 411.43)" fill="#A1A1A1"/>
<rect x="106.667" y="462.227" width="5.07936" height="5.33333" transform="rotate(90 106.667 462.227)" fill="#A1A1A1"/>
<rect x="170.667" y="523.18" width="5.07936" height="5.33333" transform="rotate(90 170.667 523.18)" fill="#A1A1A1"/>
<rect x="234.667" y="584.133" width="5.07936" height="5.33333" transform="rotate(90 234.667 584.133)" fill="#A1A1A1"/>
<rect x="58.667" y="416.508" width="5.07936" height="5.33333" transform="rotate(90 58.667 416.508)" fill="#A1A1A1"/>
<rect x="112" y="467.305" width="5.07936" height="5.33333" transform="rotate(90 112 467.305)" fill="#A1A1A1"/>
<rect x="176" y="528.258" width="5.07936" height="5.33333" transform="rotate(90 176 528.258)" fill="#A1A1A1"/>
<rect x="186.667" y="538.414" width="5.07936" height="5.33333" transform="rotate(90 186.667 538.414)" fill="#A1A1A1"/>
<rect x="250.668" y="599.367" width="5.07936" height="5.33333" transform="rotate(90 250.668 599.367)" fill="#A1A1A1"/>
<rect x="122.667" y="477.461" width="5.07936" height="5.33333" transform="rotate(90 122.667 477.461)" fill="#A1A1A1"/>
<rect x="240" y="589.211" width="5.07936" height="5.33333" transform="rotate(90 240 589.211)" fill="#A1A1A1"/>
<rect x="64" y="421.586" width="5.07936" height="5.33333" transform="rotate(90 64 421.586)" fill="#A1A1A1"/>
<rect x="117.334" y="472.383" width="5.07936" height="5.33333" transform="rotate(90 117.334 472.383)" fill="#A1A1A1"/>
<rect x="181.334" y="533.336" width="5.07936" height="5.33333" transform="rotate(90 181.334 533.336)" fill="#A1A1A1"/>
<rect x="192.001" y="543.492" width="5.07936" height="5.33333" transform="rotate(90 192.001 543.492)" fill="#A1A1A1"/>
<rect x="256.001" y="604.445" width="5.07936" height="5.33333" transform="rotate(90 256.001 604.445)" fill="#A1A1A1"/>
<rect x="128" y="482.539" width="5.07936" height="5.33333" transform="rotate(90 128 482.539)" fill="#A1A1A1"/>
<rect x="245.333" y="594.289" width="5.07936" height="5.33333" transform="rotate(90 245.333 594.289)" fill="#A1A1A1"/>
<rect x="5.33301" y="375.875" width="5.07936" height="5.33333" transform="rotate(90 5.33301 375.875)" fill="#A1A1A1"/>
<rect x="5.33301" y="370.797" width="5.07936" height="5.33333" transform="rotate(90 5.33301 370.797)" fill="#A1A1A1"/>
<rect x="5.33301" y="365.719" width="5.07936" height="5.33333" transform="rotate(90 5.33301 365.719)" fill="#A1A1A1"/>
<rect x="10.667" y="365.719" width="5.07936" height="5.33333" transform="rotate(90 10.667 365.719)" fill="#A1A1A1"/>
<rect x="16" y="365.719" width="5.07936" height="5.33333" transform="rotate(90 16 365.719)" fill="#A1A1A1"/>
<rect x="16" y="370.797" width="5.07936" height="5.33333" transform="rotate(90 16 370.797)" fill="#A1A1A1"/>
<rect x="16" y="370.797" width="5.07936" height="5.33333" transform="rotate(90 16 370.797)" fill="#A1A1A1"/>
<rect x="21.333" y="370.797" width="5.07936" height="5.33333" transform="rotate(90 21.333 370.797)" fill="#A1A1A1"/>
<rect x="138.667" y="380.953" width="5.07936" height="5.33333" transform="rotate(90 138.667 380.953)" fill="#A1A1A1"/>
<rect x="138.667" y="462.227" width="5.07936" height="5.33333" transform="rotate(90 138.667 462.227)" fill="#A1A1A1"/>
<rect x="138.667" y="543.492" width="5.07936" height="5.33333" transform="rotate(90 138.667 543.492)" fill="#A1A1A1"/>
<rect x="138.667" y="421.586" width="5.07936" height="5.33333" transform="rotate(90 138.667 421.586)" fill="#A1A1A1"/>
<rect x="138.667" y="502.859" width="5.07936" height="5.33333" transform="rotate(90 138.667 502.859)" fill="#A1A1A1"/>
<rect x="144" y="492.695" width="5.07936" height="5.33333" transform="rotate(90 144 492.695)" fill="#A1A1A1"/>
<rect x="208" y="553.656" width="5.07936" height="5.33333" transform="rotate(90 208 553.656)" fill="#A1A1A1"/>
<rect x="144" y="553.656" width="5.07936" height="5.33333" transform="rotate(90 144 553.656)" fill="#A1A1A1"/>
<rect x="138.667" y="497.781" width="5.07936" height="5.33333" transform="rotate(90 138.667 497.781)" fill="#A1A1A1"/>
<rect x="138.667" y="584.133" width="5.07936" height="5.33333" transform="rotate(90 138.667 584.133)" fill="#A1A1A1"/>
<rect x="138.667" y="401.273" width="5.07936" height="5.33333" transform="rotate(90 138.667 401.273)" fill="#A1A1A1"/>
<rect x="138.667" y="482.539" width="5.07936" height="5.33333" transform="rotate(90 138.667 482.539)" fill="#A1A1A1"/>
<rect x="138.667" y="563.812" width="5.07936" height="5.33333" transform="rotate(90 138.667 563.812)" fill="#A1A1A1"/>
<rect x="138.667" y="441.906" width="5.07936" height="5.33333" transform="rotate(90 138.667 441.906)" fill="#A1A1A1"/>
<rect x="138.667" y="523.18" width="5.07936" height="5.33333" transform="rotate(90 138.667 523.18)" fill="#A1A1A1"/>
<rect x="138.667" y="604.445" width="5.07936" height="5.33333" transform="rotate(90 138.667 604.445)" fill="#A1A1A1"/>
<rect x="138.667" y="391.109" width="5.07936" height="5.33333" transform="rotate(90 138.667 391.109)" fill="#A1A1A1"/>
<rect x="138.667" y="472.383" width="5.07936" height="5.33333" transform="rotate(90 138.667 472.383)" fill="#A1A1A1"/>
<rect x="133.334" y="426.672" width="5.07936" height="5.33333" transform="rotate(90 133.334 426.672)" fill="#A1A1A1"/>
<rect x="133.334" y="436.828" width="5.07936" height="5.33333" transform="rotate(90 133.334 436.828)" fill="#A1A1A1"/>
<rect x="144" y="436.828" width="5.07936" height="5.33333" transform="rotate(90 144 436.828)" fill="#A1A1A1"/>
<rect x="144" y="426.672" width="5.07936" height="5.33333" transform="rotate(90 144 426.672)" fill="#A1A1A1"/>
<rect x="138.667" y="513.016" width="5.07936" height="5.33333" transform="rotate(90 138.667 513.016)" fill="#A1A1A1"/>
<rect x="138.667" y="507.938" width="5.07936" height="5.33333" transform="rotate(90 138.667 507.938)" fill="#A1A1A1"/>
<rect x="138.667" y="594.289" width="5.07936" height="5.33333" transform="rotate(90 138.667 594.289)" fill="#A1A1A1"/>
<rect x="10.667" y="609.523" width="5.07936" height="5.33333" transform="rotate(90 10.667 609.523)" fill="#A1A1A1"/>
<rect x="5.33301" y="609.523" width="5.07936" height="5.33333" transform="rotate(90 5.33301 609.523)" fill="#A1A1A1"/>
<rect x="5.33301" y="614.602" width="5.07936" height="5.33333" transform="rotate(90 5.33301 614.602)" fill="#A1A1A1"/>
<rect x="5.33301" y="619.688" width="5.07936" height="5.33333" transform="rotate(90 5.33301 619.688)" fill="#A1A1A1"/>
<rect x="10.667" y="619.688" width="5.07936" height="5.33333" transform="rotate(90 10.667 619.688)" fill="#A1A1A1"/>
<rect x="16" y="619.688" width="5.07936" height="5.33333" transform="rotate(90 16 619.688)" fill="#A1A1A1"/>
<rect x="16" y="609.523" width="5.07936" height="5.33333" transform="rotate(90 16 609.523)" fill="#A1A1A1"/>
<rect x="138.667" y="619.688" width="5.07936" height="5.33333" transform="rotate(90 138.667 619.688)" fill="#A1A1A1"/>
<rect x="133.334" y="619.688" width="5.07936" height="5.33333" transform="rotate(90 133.334 619.688)" fill="#A1A1A1"/>
<rect x="133.334" y="609.523" width="5.07936" height="5.33333" transform="rotate(90 133.334 609.523)" fill="#A1A1A1"/>
<rect x="144" y="609.523" width="5.07936" height="5.33333" transform="rotate(90 144 609.523)" fill="#A1A1A1"/>
<rect x="144" y="619.688" width="5.07936" height="5.33333" transform="rotate(90 144 619.688)" fill="#A1A1A1"/>
<rect x="138.667" y="411.43" width="5.07936" height="5.33333" transform="rotate(90 138.667 411.43)" fill="#A1A1A1"/>
<rect x="138.667" y="573.969" width="5.07936" height="5.33333" transform="rotate(90 138.667 573.969)" fill="#A1A1A1"/>
<rect x="138.667" y="452.062" width="5.07936" height="5.33333" transform="rotate(90 138.667 452.062)" fill="#A1A1A1"/>
<rect x="138.667" y="533.336" width="5.07936" height="5.33333" transform="rotate(90 138.667 533.336)" fill="#A1A1A1"/>
<rect x="138.667" y="538.414" width="5.07936" height="5.33333" transform="rotate(90 138.667 538.414)" fill="#A1A1A1"/>
<rect x="10.667" y="614.602" width="5.33333" height="5.07936" fill="#A1A1A1"/>
<rect x="133.334" y="548.578" width="5.33333" height="5.07936" fill="#A1A1A1"/>
<rect x="128" y="548.578" width="5.33333" height="5.07936" fill="#A1A1A1"/>
<rect x="128" y="558.734" width="5.33333" height="5.07936" fill="#A1A1A1"/>
<rect x="138.667" y="558.734" width="5.33333" height="5.07936" fill="#A1A1A1"/>
<rect x="138.667" y="548.578" width="5.33333" height="5.07936" fill="#A1A1A1"/>
<rect x="197.334" y="548.578" width="5.33333" height="5.07936" fill="#A1A1A1"/>
<rect x="192.001" y="548.578" width="5.33333" height="5.07936" fill="#A1A1A1"/>
<rect x="192.001" y="558.734" width="5.33333" height="5.07936" fill="#A1A1A1"/>
<rect x="202.667" y="558.734" width="5.33333" height="5.07936" fill="#A1A1A1"/>
<rect x="202.667" y="548.578" width="5.33333" height="5.07936" fill="#A1A1A1"/>
<rect width="5.33333" height="5.07936" transform="matrix(-1 0 0 1 74.667 548.578)" fill="#A1A1A1"/>
<rect width="5.33333" height="5.07936" transform="matrix(-1 0 0 1 69.334 548.578)" fill="#A1A1A1"/>
<rect width="5.33333" height="5.07936" transform="matrix(-1 0 0 1 69.334 558.734)" fill="#A1A1A1"/>
<rect width="5.33333" height="5.07936" transform="matrix(-1 0 0 1 80 558.734)" fill="#A1A1A1"/>
<rect width="5.33333" height="5.07936" transform="matrix(-1 0 0 1 80 548.578)" fill="#A1A1A1"/>
<rect x="133.334" y="477.461" width="5.33333" height="5.07936" fill="#A1A1A1"/>
<rect x="133.334" y="406.352" width="5.33333" height="5.07936" fill="#A1A1A1"/>
<rect x="133.334" y="584.133" width="5.33333" height="5.07936" fill="#A1A1A1"/>
<rect x="133.334" y="513.016" width="5.33333" height="5.07936" fill="#A1A1A1"/>
<rect x="133.334" y="507.938" width="5.33333" height="5.07936" fill="#A1A1A1"/>
<rect x="133.334" y="441.906" width="5.33333" height="5.07936" fill="#A1A1A1"/>
<rect x="32" y="370.797" width="5.33333" height="5.07936" fill="#A1A1A1"/>
<rect x="85.334" y="431.75" width="5.33333" height="5.07936" fill="#A1A1A1"/>
<rect x="149.334" y="431.75" width="5.33333" height="5.07936" fill="#A1A1A1"/>
<rect x="149.334" y="553.656" width="5.33333" height="5.07936" fill="#A1A1A1"/>
<rect x="90.667" y="553.656" width="5.33333" height="5.07936" fill="#A1A1A1"/>
<rect x="85.334" y="553.656" width="5.33333" height="5.07936" fill="#A1A1A1"/>
<rect x="32" y="614.602" width="5.33333" height="5.07936" fill="#A1A1A1"/>
<rect x="21.333" y="614.602" width="5.33333" height="5.07936" fill="black"/>
<rect x="250.668" y="619.688" width="5.07936" height="5.33333" transform="rotate(-90 250.668 619.688)" fill="#A1A1A1"/>
<rect x="256.001" y="619.688" width="5.07936" height="5.33333" transform="rotate(-90 256.001 619.688)" fill="#A1A1A1"/>
<rect x="26.667" y="614.602" width="5.07936" height="5.33333" transform="rotate(90 26.667 614.602)" fill="#A1A1A1"/>
<rect x="149.334" y="614.602" width="5.07936" height="5.33333" transform="rotate(90 149.334 614.602)" fill="#A1A1A1"/>
<rect x="154.667" y="614.602" width="5.07936" height="5.33333" transform="rotate(90 154.667 614.602)" fill="#A1A1A1"/>
<rect x="21.333" y="614.602" width="5.07936" height="5.33333" transform="rotate(90 21.333 614.602)" fill="#A1A1A1"/>
<rect x="160.001" y="614.602" width="5.07936" height="5.33333" transform="rotate(90 160.001 614.602)" fill="#A1A1A1"/>
<rect x="229.334" y="614.602" width="5.07936" height="5.33333" transform="rotate(90 229.334 614.602)" fill="#A1A1A1"/>
<rect x="90.667" y="614.602" width="5.07936" height="5.33333" transform="rotate(90 90.667 614.602)" fill="#A1A1A1"/>
<rect x="32" y="614.602" width="5.07936" height="5.33333" transform="rotate(90 32 614.602)" fill="#A1A1A1"/>
<ellipse cx="136.503" cy="370.993" rx="12.5926" ry="11.9929" fill="white"/>
<ellipse cx="134.992" cy="619.009" rx="12.5926" ry="11.9929" fill="#43FF46" fill-opacity="0.65"/>
<path d="M137.007 420.844C144.467 420.844 150.6 426.616 150.6 433.837C150.599 441.058 144.467 446.83 137.007 446.83C129.546 446.83 123.414 441.058 123.414 433.837C123.414 426.616 129.546 420.844 137.007 420.844Z" fill="black" stroke="#FF6363" stroke-width="2"/>
<path d="M137.007 542.687C144.467 542.688 150.6 548.459 150.6 555.681C150.599 562.902 144.467 568.674 137.007 568.674C129.546 568.674 123.414 562.902 123.414 555.681C123.414 548.459 129.546 542.687 137.007 542.687Z" fill="black" stroke="#FF6363" stroke-width="2"/>
<path d="M133.578 599.313C134.359 600.094 135.625 600.094 136.406 599.313L149.134 586.585C149.915 585.804 149.915 584.538 149.134 583.757C148.353 582.976 147.087 582.976 146.306 583.757L134.992 595.071L123.678 583.757C122.897 582.976 121.631 582.976 120.85 583.757C120.069 584.538 120.069 585.804 120.85 586.585L133.578 599.313ZM134.992 388.742L132.992 388.742L132.992 597.899L134.992 597.899L136.992 597.899L136.992 388.742L134.992 388.742Z" fill="white"/>
</svg>
