<svg width="272" height="272" viewBox="0 0 272 272" fill="none" xmlns="http://www.w3.org/2000/svg">
<rect x="20.9072" y="11.6016" width="5.22686" height="5.20793" fill="#A1A1A1"/>
<rect x="130.672" y="16.8125" width="5.22686" height="5.20793" fill="#A1A1A1"/>
<rect x="130.672" y="152.219" width="5.22686" height="5.20793" fill="#A1A1A1"/>
<rect x="130.672" y="147.008" width="5.22686" height="5.20793" fill="#A1A1A1"/>
<rect x="20.9072" y="261.578" width="5.22686" height="5.20793" fill="#A1A1A1"/>
<rect x="130.672" y="266.789" width="5.22686" height="5.20793" fill="#A1A1A1"/>
<rect x="109.765" y="11.6016" width="5.22686" height="5.20793" fill="#A1A1A1"/>
<rect x="109.765" y="261.578" width="5.22686" height="5.20793" fill="#A1A1A1"/>
<rect x="151.579" y="11.6016" width="5.22686" height="5.20793" fill="#A1A1A1"/>
<rect x="151.579" y="261.578" width="5.22686" height="5.20793" fill="#A1A1A1"/>
<rect x="235.209" y="11.6016" width="5.22686" height="5.20793" fill="#A1A1A1"/>
<rect x="235.209" y="261.578" width="5.22686" height="5.20793" fill="#A1A1A1"/>
<rect x="47.042" y="11.6016" width="5.22686" height="5.20793" fill="#A1A1A1"/>
<rect x="99.3105" y="74.1016" width="5.22686" height="5.20793" fill="#A1A1A1"/>
<rect x="162.033" y="74.1016" width="5.22686" height="5.20793" fill="#A1A1A1"/>
<rect x="162.033" y="199.086" width="5.22686" height="5.20793" fill="#A1A1A1"/>
<rect x="104.537" y="199.086" width="5.22686" height="5.20793" fill="#A1A1A1"/>
<rect x="99.3105" y="199.086" width="5.22686" height="5.20793" fill="#A1A1A1"/>
<rect x="47.042" y="261.578" width="5.22686" height="5.20793" fill="#A1A1A1"/>
<rect x="214.302" y="11.6016" width="5.22686" height="5.20793" fill="#A1A1A1"/>
<rect x="214.302" y="261.578" width="5.22686" height="5.20793" fill="#A1A1A1"/>
<rect x="88.8564" y="11.6016" width="5.22686" height="5.20793" fill="#A1A1A1"/>
<rect x="88.8564" y="261.578" width="5.22686" height="5.20793" fill="#A1A1A1"/>
<rect x="172.487" y="11.6016" width="5.22686" height="5.20793" fill="#A1A1A1"/>
<rect x="172.487" y="261.578" width="5.22686" height="5.20793" fill="#A1A1A1"/>
<rect x="156.807" y="11.6016" width="5.22686" height="5.20793" fill="#A1A1A1"/>
<rect x="156.807" y="261.578" width="5.22686" height="5.20793" fill="#A1A1A1"/>
<rect x="36.5879" y="11.6016" width="5.22686" height="5.20793" fill="#A1A1A1"/>
<rect x="88.8564" y="74.1016" width="5.22686" height="5.20793" fill="#A1A1A1"/>
<rect x="151.579" y="74.1016" width="5.22686" height="5.20793" fill="#A1A1A1"/>
<rect x="151.579" y="199.086" width="5.22686" height="5.20793" fill="#A1A1A1"/>
<rect x="94.084" y="199.086" width="5.22686" height="5.20793" fill="#A1A1A1"/>
<rect x="88.8564" y="199.086" width="5.22686" height="5.20793" fill="#A1A1A1"/>
<rect x="36.5879" y="261.578" width="5.22686" height="5.20793" fill="#A1A1A1"/>
<rect x="120.218" y="11.6016" width="5.22686" height="5.20793" fill="#A1A1A1"/>
<rect x="120.218" y="261.578" width="5.22686" height="5.20793" fill="#A1A1A1"/>
<rect x="203.848" y="11.6016" width="5.22686" height="5.20793" fill="#A1A1A1"/>
<rect x="203.848" y="261.578" width="5.22686" height="5.20793" fill="#A1A1A1"/>
<rect x="78.4033" y="11.6016" width="5.22686" height="5.20793" fill="#A1A1A1"/>
<rect x="78.4033" y="261.578" width="5.22686" height="5.20793" fill="#A1A1A1"/>
<rect x="162.033" y="11.6016" width="5.22686" height="5.20793" fill="#A1A1A1"/>
<rect x="162.033" y="261.578" width="5.22686" height="5.20793" fill="#A1A1A1"/>
<rect x="245.663" y="11.6016" width="5.22686" height="5.20793" fill="#A1A1A1"/>
<rect x="245.663" y="261.578" width="5.22686" height="5.20793" fill="#A1A1A1"/>
<rect x="57.4961" y="11.6016" width="5.22686" height="5.20793" fill="#A1A1A1"/>
<rect x="109.765" y="74.1016" width="5.22686" height="5.20793" fill="#A1A1A1"/>
<rect x="172.487" y="74.1016" width="5.22686" height="5.20793" fill="#A1A1A1"/>
<rect x="172.487" y="199.086" width="5.22686" height="5.20793" fill="#A1A1A1"/>
<rect x="114.991" y="199.086" width="5.22686" height="5.20793" fill="#A1A1A1"/>
<rect x="109.765" y="199.086" width="5.22686" height="5.20793" fill="#A1A1A1"/>
<rect x="57.4961" y="261.578" width="5.22686" height="5.20793" fill="#A1A1A1"/>
<rect x="141.126" y="11.6016" width="5.22686" height="5.20793" fill="#A1A1A1"/>
<rect x="224.755" y="11.6016" width="5.22686" height="5.20793" fill="#A1A1A1"/>
<rect x="250.89" y="11.6016" width="5.22686" height="5.20793" fill="#A1A1A1"/>
<rect x="224.755" y="261.578" width="5.22686" height="5.20793" fill="#A1A1A1"/>
<rect x="99.3105" y="11.6016" width="5.22686" height="5.20793" fill="#A1A1A1"/>
<rect x="99.3105" y="261.578" width="5.22686" height="5.20793" fill="#A1A1A1"/>
<rect x="182.94" y="11.6016" width="5.22686" height="5.20793" fill="#A1A1A1"/>
<rect x="182.94" y="261.578" width="5.22686" height="5.20793" fill="#A1A1A1"/>
<rect x="31.3613" y="11.6016" width="5.22686" height="5.20793" fill="#A1A1A1"/>
<rect x="83.6299" y="74.1016" width="5.22686" height="5.20793" fill="#A1A1A1"/>
<rect x="146.353" y="74.1016" width="5.22686" height="5.20793" fill="#A1A1A1"/>
<rect x="146.353" y="199.086" width="5.22686" height="5.20793" fill="#A1A1A1"/>
<rect x="88.8564" y="199.086" width="5.22686" height="5.20793" fill="#A1A1A1"/>
<rect x="83.6299" y="199.086" width="5.22686" height="5.20793" fill="#A1A1A1"/>
<rect x="31.3613" y="261.578" width="5.22686" height="5.20793" fill="#A1A1A1"/>
<rect x="114.991" y="11.6016" width="5.22686" height="5.20793" fill="#A1A1A1"/>
<rect x="114.991" y="261.578" width="5.22686" height="5.20793" fill="#A1A1A1"/>
<rect x="198.621" y="11.6016" width="5.22686" height="5.20793" fill="#A1A1A1"/>
<rect x="198.621" y="261.578" width="5.22686" height="5.20793" fill="#A1A1A1"/>
<rect x="73.1768" y="11.6016" width="5.22686" height="5.20793" fill="#A1A1A1"/>
<rect x="73.1768" y="261.578" width="5.22686" height="5.20793" fill="#A1A1A1"/>
<rect x="156.807" y="11.6016" width="5.22686" height="5.20793" fill="#A1A1A1"/>
<rect x="156.807" y="261.578" width="5.22686" height="5.20793" fill="#A1A1A1"/>
<rect x="240.436" y="11.6016" width="5.22686" height="5.20793" fill="#A1A1A1"/>
<rect x="240.436" y="261.578" width="5.22686" height="5.20793" fill="#A1A1A1"/>
<rect x="52.2695" y="11.6016" width="5.22686" height="5.20793" fill="#A1A1A1"/>
<rect x="104.537" y="74.1016" width="5.22686" height="5.20793" fill="#A1A1A1"/>
<rect x="167.26" y="74.1016" width="5.22686" height="5.20793" fill="#A1A1A1"/>
<rect x="167.26" y="199.086" width="5.22686" height="5.20793" fill="#A1A1A1"/>
<rect x="109.765" y="199.086" width="5.22686" height="5.20793" fill="#A1A1A1"/>
<rect x="104.537" y="199.086" width="5.22686" height="5.20793" fill="#A1A1A1"/>
<rect x="52.2695" y="261.578" width="5.22686" height="5.20793" fill="#A1A1A1"/>
<rect x="135.898" y="11.6016" width="5.22686" height="5.20793" fill="#A1A1A1"/>
<rect x="135.898" y="261.578" width="5.22686" height="5.20793" fill="#A1A1A1"/>
<rect x="219.528" y="11.6016" width="5.22686" height="5.20793" fill="#A1A1A1"/>
<rect x="245.663" y="11.6016" width="5.22686" height="5.20793" fill="#A1A1A1"/>
<rect x="219.528" y="261.578" width="5.22686" height="5.20793" fill="#A1A1A1"/>
<rect x="94.084" y="11.6016" width="5.22686" height="5.20793" fill="#A1A1A1"/>
<rect x="94.084" y="261.578" width="5.22686" height="5.20793" fill="#A1A1A1"/>
<rect x="177.714" y="11.6016" width="5.22686" height="5.20793" fill="#A1A1A1"/>
<rect x="177.714" y="261.578" width="5.22686" height="5.20793" fill="#A1A1A1"/>
<rect x="41.8154" y="11.6016" width="5.22686" height="5.20793" fill="#A1A1A1"/>
<rect x="94.084" y="74.1016" width="5.22686" height="5.20793" fill="#A1A1A1"/>
<rect x="156.807" y="74.1016" width="5.22686" height="5.20793" fill="#A1A1A1"/>
<rect x="156.807" y="199.086" width="5.22686" height="5.20793" fill="#A1A1A1"/>
<rect x="99.3105" y="199.086" width="5.22686" height="5.20793" fill="#A1A1A1"/>
<rect x="94.084" y="199.086" width="5.22686" height="5.20793" fill="#A1A1A1"/>
<rect x="41.8154" y="261.578" width="5.22686" height="5.20793" fill="#A1A1A1"/>
<rect x="125.444" y="11.6016" width="5.22686" height="5.20793" fill="#A1A1A1"/>
<rect x="125.444" y="261.578" width="5.22686" height="5.20793" fill="#A1A1A1"/>
<rect x="209.074" y="11.6016" width="5.22686" height="5.20793" fill="#A1A1A1"/>
<rect x="209.074" y="261.578" width="5.22686" height="5.20793" fill="#A1A1A1"/>
<rect x="83.6299" y="11.6016" width="5.22686" height="5.20793" fill="#A1A1A1"/>
<rect x="83.6299" y="261.578" width="5.22686" height="5.20793" fill="#A1A1A1"/>
<rect x="167.26" y="11.6016" width="5.22686" height="5.20793" fill="#A1A1A1"/>
<rect x="167.26" y="261.578" width="5.22686" height="5.20793" fill="#A1A1A1"/>
<rect x="62.7227" y="11.6016" width="5.22686" height="5.20793" fill="#A1A1A1"/>
<rect x="114.991" y="74.1016" width="5.22686" height="5.20793" fill="#A1A1A1"/>
<rect x="177.714" y="74.1016" width="5.22686" height="5.20793" fill="#A1A1A1"/>
<rect x="177.714" y="199.086" width="5.22686" height="5.20793" fill="#A1A1A1"/>
<rect x="120.218" y="199.086" width="5.22686" height="5.20793" fill="#A1A1A1"/>
<rect x="114.991" y="199.086" width="5.22686" height="5.20793" fill="#A1A1A1"/>
<rect x="120.218" y="74.1016" width="5.22686" height="5.20793" fill="#A1A1A1"/>
<rect x="182.94" y="74.1016" width="5.22686" height="5.20793" fill="#A1A1A1"/>
<rect x="182.94" y="199.086" width="5.22686" height="5.20793" fill="#A1A1A1"/>
<rect x="62.7227" y="199.086" width="5.22686" height="5.20793" fill="#A1A1A1"/>
<rect x="125.444" y="199.086" width="5.22686" height="5.20793" fill="#A1A1A1"/>
<rect x="120.218" y="199.086" width="5.22686" height="5.20793" fill="#A1A1A1"/>
<rect x="125.444" y="74.1016" width="5.22686" height="5.20793" fill="#A1A1A1"/>
<rect x="188.167" y="74.1016" width="5.22686" height="5.20793" fill="#A1A1A1"/>
<rect x="125.444" y="136.594" width="5.22686" height="5.20793" fill="#A1A1A1"/>
<rect x="188.167" y="199.086" width="5.22686" height="5.20793" fill="#A1A1A1"/>
<rect x="62.7227" y="261.578" width="5.22686" height="5.20793" fill="#A1A1A1"/>
<rect x="146.353" y="11.6016" width="5.22686" height="5.20793" fill="#A1A1A1"/>
<rect x="229.982" y="11.6016" width="5.22686" height="5.20793" fill="#A1A1A1"/>
<rect x="229.982" y="261.578" width="5.22686" height="5.20793" fill="#A1A1A1"/>
<rect x="104.537" y="11.6016" width="5.22686" height="5.20793" fill="#A1A1A1"/>
<rect x="104.537" y="261.578" width="5.22686" height="5.20793" fill="#A1A1A1"/>
<rect x="188.167" y="11.6016" width="5.22686" height="5.20793" fill="#A1A1A1"/>
<rect x="188.167" y="261.578" width="5.22686" height="5.20793" fill="#A1A1A1"/>
<rect x="261.344" y="16.8125" width="5.20793" height="5.22686" transform="rotate(90 261.344 16.8125)" fill="#A1A1A1"/>
<rect x="256.116" y="16.8125" width="5.20793" height="5.22686" transform="rotate(90 256.116 16.8125)" fill="#A1A1A1"/>
<rect x="250.89" y="22.0156" width="5.20793" height="5.22686" transform="rotate(90 250.89 22.0156)" fill="#A1A1A1"/>
<rect x="188.167" y="84.5078" width="5.20793" height="5.22686" transform="rotate(90 188.167 84.5078)" fill="#A1A1A1"/>
<rect x="125.444" y="147.008" width="5.20793" height="5.22686" transform="rotate(90 125.444 147.008)" fill="#A1A1A1"/>
<rect x="62.7227" y="209.5" width="5.20793" height="5.22686" transform="rotate(90 62.7227 209.5)" fill="#A1A1A1"/>
<rect x="245.663" y="27.2266" width="5.20793" height="5.22686" transform="rotate(90 245.663 27.2266)" fill="#A1A1A1"/>
<rect x="182.94" y="89.7188" width="5.20793" height="5.22686" transform="rotate(90 182.94 89.7188)" fill="#A1A1A1"/>
<rect x="120.218" y="152.219" width="5.20793" height="5.22686" transform="rotate(90 120.218 152.219)" fill="#A1A1A1"/>
<rect x="57.4961" y="214.711" width="5.20793" height="5.22686" transform="rotate(90 57.4961 214.711)" fill="#A1A1A1"/>
<rect x="240.436" y="32.4297" width="5.20793" height="5.22686" transform="rotate(90 240.436 32.4297)" fill="#A1A1A1"/>
<rect x="177.714" y="94.9297" width="5.20793" height="5.22686" transform="rotate(90 177.714 94.9297)" fill="#A1A1A1"/>
<rect x="114.991" y="157.43" width="5.20793" height="5.22686" transform="rotate(90 114.991 157.43)" fill="#A1A1A1"/>
<rect x="52.2695" y="219.922" width="5.20793" height="5.22686" transform="rotate(90 52.2695 219.922)" fill="#A1A1A1"/>
<rect x="235.209" y="37.6406" width="5.20793" height="5.22686" transform="rotate(90 235.209 37.6406)" fill="#A1A1A1"/>
<rect x="172.487" y="100.133" width="5.20793" height="5.22686" transform="rotate(90 172.487 100.133)" fill="#A1A1A1"/>
<rect x="109.765" y="162.633" width="5.20793" height="5.22686" transform="rotate(90 109.765 162.633)" fill="#A1A1A1"/>
<rect x="47.042" y="225.125" width="5.20793" height="5.22686" transform="rotate(90 47.042 225.125)" fill="#A1A1A1"/>
<rect x="229.982" y="42.8516" width="5.20793" height="5.22686" transform="rotate(90 229.982 42.8516)" fill="#A1A1A1"/>
<rect x="167.26" y="105.344" width="5.20793" height="5.22686" transform="rotate(90 167.26 105.344)" fill="#A1A1A1"/>
<rect x="104.537" y="167.836" width="5.20793" height="5.22686" transform="rotate(90 104.537 167.836)" fill="#A1A1A1"/>
<rect x="41.8154" y="230.336" width="5.20793" height="5.22686" transform="rotate(90 41.8154 230.336)" fill="#A1A1A1"/>
<rect x="224.755" y="48.0547" width="5.20793" height="5.22686" transform="rotate(90 224.755 48.0547)" fill="#A1A1A1"/>
<rect x="162.033" y="110.555" width="5.20793" height="5.22686" transform="rotate(90 162.033 110.555)" fill="#A1A1A1"/>
<rect x="99.3105" y="173.047" width="5.20793" height="5.22686" transform="rotate(90 99.3105 173.047)" fill="#A1A1A1"/>
<rect x="36.5879" y="235.547" width="5.20793" height="5.22686" transform="rotate(90 36.5879 235.547)" fill="#A1A1A1"/>
<rect x="219.528" y="53.2656" width="5.20793" height="5.22686" transform="rotate(90 219.528 53.2656)" fill="#A1A1A1"/>
<rect x="156.807" y="115.758" width="5.20793" height="5.22686" transform="rotate(90 156.807 115.758)" fill="#A1A1A1"/>
<rect x="94.084" y="178.258" width="5.20793" height="5.22686" transform="rotate(90 94.084 178.258)" fill="#A1A1A1"/>
<rect x="31.3613" y="240.75" width="5.20793" height="5.22686" transform="rotate(90 31.3613 240.75)" fill="#A1A1A1"/>
<rect x="214.302" y="58.4766" width="5.20793" height="5.22686" transform="rotate(90 214.302 58.4766)" fill="#A1A1A1"/>
<rect x="151.579" y="120.969" width="5.20793" height="5.22686" transform="rotate(90 151.579 120.969)" fill="#A1A1A1"/>
<rect x="88.8564" y="183.461" width="5.20793" height="5.22686" transform="rotate(90 88.8564 183.461)" fill="#A1A1A1"/>
<rect x="26.1348" y="245.961" width="5.20793" height="5.22686" transform="rotate(90 26.1348 245.961)" fill="#A1A1A1"/>
<rect x="209.074" y="63.6797" width="5.20793" height="5.22686" transform="rotate(90 209.074 63.6797)" fill="#A1A1A1"/>
<rect x="146.353" y="126.18" width="5.20793" height="5.22686" transform="rotate(90 146.353 126.18)" fill="#A1A1A1"/>
<rect x="83.6299" y="188.672" width="5.20793" height="5.22686" transform="rotate(90 83.6299 188.672)" fill="#A1A1A1"/>
<rect x="20.9072" y="251.164" width="5.20793" height="5.22686" transform="rotate(90 20.9072 251.164)" fill="#A1A1A1"/>
<rect x="256.116" y="6.39062" width="5.20793" height="5.22686" transform="rotate(90 256.116 6.39062)" fill="#A1A1A1"/>
<rect x="261.344" y="6.39062" width="5.20793" height="5.22686" transform="rotate(90 261.344 6.39062)" fill="#A1A1A1"/>
<rect x="266.57" y="6.39062" width="5.20793" height="5.22686" transform="rotate(90 266.57 6.39062)" fill="#A1A1A1"/>
<rect x="266.57" y="11.6016" width="5.20793" height="5.22686" transform="rotate(90 266.57 11.6016)" fill="#A1A1A1"/>
<rect x="266.57" y="16.8125" width="5.20793" height="5.22686" transform="rotate(90 266.57 16.8125)" fill="#A1A1A1"/>
<rect x="261.344" y="256.375" width="5.20793" height="5.22686" transform="rotate(90 261.344 256.375)" fill="#A1A1A1"/>
<rect x="256.116" y="256.375" width="5.20793" height="5.22686" transform="rotate(90 256.116 256.375)" fill="#A1A1A1"/>
<rect x="256.116" y="266.789" width="5.20793" height="5.22686" transform="rotate(90 256.116 266.789)" fill="#A1A1A1"/>
<rect x="261.344" y="266.789" width="5.20793" height="5.22686" transform="rotate(90 261.344 266.789)" fill="#A1A1A1"/>
<rect x="266.57" y="266.789" width="5.20793" height="5.22686" transform="rotate(90 266.57 266.789)" fill="#A1A1A1"/>
<rect x="266.57" y="261.578" width="5.20793" height="5.22686" transform="rotate(90 266.57 261.578)" fill="#A1A1A1"/>
<rect x="266.57" y="256.375" width="5.20793" height="5.22686" transform="rotate(90 266.57 256.375)" fill="#A1A1A1"/>
<rect x="156.807" y="261.578" width="5.22686" height="5.20793" fill="#A1A1A1"/>
<rect x="26.1348" y="11.6016" width="5.20793" height="5.22686" transform="rotate(90 26.1348 11.6016)" fill="black"/>
<rect x="135.898" y="16.8125" width="5.20793" height="5.22686" transform="rotate(90 135.898 16.8125)" fill="black"/>
<rect x="26.1348" y="11.6016" width="5.20793" height="5.22686" transform="rotate(90 26.1348 11.6016)" fill="#A1A1A1"/>
<rect x="135.898" y="16.8125" width="5.20793" height="5.22686" transform="rotate(90 135.898 16.8125)" fill="#A1A1A1"/>
<rect x="130.672" y="16.8125" width="5.20793" height="5.22686" transform="rotate(90 130.672 16.8125)" fill="#A1A1A1"/>
<rect x="130.672" y="6.39062" width="5.20793" height="5.22686" transform="rotate(90 130.672 6.39062)" fill="#A1A1A1"/>
<rect x="135.899" y="6.39062" width="5.20793" height="5.22686" transform="rotate(90 135.899 6.39062)" fill="#A1A1A1"/>
<rect x="141.126" y="6.39062" width="5.20793" height="5.22686" transform="rotate(90 141.126 6.39062)" fill="#A1A1A1"/>
<rect x="141.126" y="16.8125" width="5.20793" height="5.22686" transform="rotate(90 141.126 16.8125)" fill="#A1A1A1"/>
<rect x="198.621" y="11.6016" width="5.20793" height="5.22686" transform="rotate(90 198.621 11.6016)" fill="#A1A1A1"/>
<rect width="5.20793" height="5.22686" transform="matrix(4.38702e-08 1 1 -4.35531e-08 67.9492 11.6016)" fill="#A1A1A1"/>
<rect x="31.3613" y="11.6016" width="5.20793" height="5.22686" transform="rotate(90 31.3613 11.6016)" fill="#A1A1A1"/>
<rect x="83.6299" y="74.1016" width="5.20793" height="5.22686" transform="rotate(90 83.6299 74.1016)" fill="#A1A1A1"/>
<rect x="146.353" y="74.1016" width="5.20793" height="5.22686" transform="rotate(90 146.353 74.1016)" fill="#A1A1A1"/>
<rect x="146.353" y="199.086" width="5.20793" height="5.22686" transform="rotate(90 146.353 199.086)" fill="#A1A1A1"/>
<rect x="88.8564" y="199.086" width="5.20793" height="5.22686" transform="rotate(90 88.8564 199.086)" fill="#A1A1A1"/>
<rect x="83.6299" y="199.086" width="5.20793" height="5.22686" transform="rotate(90 83.6299 199.086)" fill="#A1A1A1"/>
<rect x="135.898" y="152.219" width="5.20793" height="5.22686" transform="rotate(90 135.898 152.219)" fill="#A1A1A1"/>
<rect x="135.898" y="147.008" width="5.20793" height="5.22686" transform="rotate(90 135.898 147.008)" fill="#A1A1A1"/>
<rect x="26.1348" y="261.578" width="5.20793" height="5.22686" transform="rotate(90 26.1348 261.578)" fill="#A1A1A1"/>
<rect x="135.898" y="266.789" width="5.20793" height="5.22686" transform="rotate(90 135.898 266.789)" fill="#A1A1A1"/>
<rect x="135.898" y="100.133" width="5.20793" height="5.22686" transform="rotate(90 135.898 100.133)" fill="#A1A1A1"/>
<rect x="135.898" y="58.4766" width="5.20793" height="5.22686" transform="rotate(90 135.898 58.4766)" fill="#A1A1A1"/>
<rect x="135.898" y="141.805" width="5.20793" height="5.22686" transform="rotate(90 135.898 141.805)" fill="#A1A1A1"/>
<rect x="135.898" y="225.125" width="5.20793" height="5.22686" transform="rotate(90 135.898 225.125)" fill="#A1A1A1"/>
<rect x="135.898" y="37.6406" width="5.20793" height="5.22686" transform="rotate(90 135.898 37.6406)" fill="#A1A1A1"/>
<rect x="135.898" y="120.969" width="5.20793" height="5.22686" transform="rotate(90 135.898 120.969)" fill="#A1A1A1"/>
<rect x="78.4033" y="199.086" width="5.20793" height="5.22686" transform="rotate(90 78.4033 199.086)" fill="#A1A1A1"/>
<rect x="135.898" y="204.297" width="5.20793" height="5.22686" transform="rotate(90 135.898 204.297)" fill="#A1A1A1"/>
<rect x="198.621" y="204.297" width="5.20793" height="5.22686" transform="rotate(90 198.621 204.297)" fill="#A1A1A1"/>
<rect width="5.20793" height="5.22686" transform="matrix(4.38702e-08 1 1 -4.35531e-08 67.9492 204.297)" fill="#A1A1A1"/>
<rect x="78.4033" y="74.1016" width="5.20793" height="5.22686" transform="rotate(90 78.4033 74.1016)" fill="#A1A1A1"/>
<rect x="141.126" y="74.1016" width="5.20793" height="5.22686" transform="rotate(90 141.126 74.1016)" fill="#A1A1A1"/>
<rect x="203.848" y="74.1016" width="5.20793" height="5.22686" transform="rotate(90 203.848 74.1016)" fill="#A1A1A1"/>
<rect x="135.898" y="79.3047" width="5.20793" height="5.22686" transform="rotate(90 135.898 79.3047)" fill="#A1A1A1"/>
<rect x="198.621" y="79.3047" width="5.20793" height="5.22686" transform="rotate(90 198.621 79.3047)" fill="#A1A1A1"/>
<rect width="5.20793" height="5.22686" transform="matrix(4.38702e-08 1 1 -4.35531e-08 67.9492 79.3047)" fill="#A1A1A1"/>
<rect width="5.20793" height="5.22686" transform="matrix(4.38702e-08 1 1 -4.35531e-08 62.7227 79.3047)" fill="#A1A1A1"/>
<rect width="5.20793" height="5.22686" transform="matrix(4.38702e-08 1 1 -4.35531e-08 62.7227 74.1016)" fill="#A1A1A1"/>
<rect width="5.20793" height="5.22686" transform="matrix(4.38702e-08 1 1 -4.35531e-08 62.7227 68.8906)" fill="#A1A1A1"/>
<rect width="5.20793" height="5.22686" transform="matrix(4.38702e-08 1 1 -4.35531e-08 73.1768 68.8906)" fill="#A1A1A1"/>
<rect width="5.20793" height="5.22686" transform="matrix(4.38702e-08 1 1 -4.35531e-08 73.1768 79.3047)" fill="#A1A1A1"/>
<rect x="135.898" y="162.633" width="5.20793" height="5.22686" transform="rotate(90 135.898 162.633)" fill="#A1A1A1"/>
<rect x="135.898" y="245.961" width="5.20793" height="5.22686" transform="rotate(90 135.898 245.961)" fill="#A1A1A1"/>
<rect x="135.898" y="27.2266" width="5.20793" height="5.22686" transform="rotate(90 135.898 27.2266)" fill="#A1A1A1"/>
<rect x="135.898" y="110.555" width="5.20793" height="5.22686" transform="rotate(90 135.898 110.555)" fill="#A1A1A1"/>
<rect x="135.898" y="193.883" width="5.20793" height="5.22686" transform="rotate(90 135.898 193.883)" fill="#A1A1A1"/>
<rect x="198.621" y="193.883" width="5.20793" height="5.22686" transform="rotate(90 198.621 193.883)" fill="#A1A1A1"/>
<rect width="5.20793" height="5.22686" transform="matrix(4.38702e-08 1 1 -4.35531e-08 67.9492 193.883)" fill="#A1A1A1"/>
<rect x="135.898" y="68.8906" width="5.20793" height="5.22686" transform="rotate(90 135.898 68.8906)" fill="#A1A1A1"/>
<rect x="198.621" y="68.8906" width="5.20793" height="5.22686" transform="rotate(90 198.621 68.8906)" fill="#A1A1A1"/>
<rect x="193.395" y="68.8906" width="5.20793" height="5.22686" transform="rotate(90 193.395 68.8906)" fill="#A1A1A1"/>
<rect x="193.395" y="79.3047" width="5.20793" height="5.22686" transform="rotate(90 193.395 79.3047)" fill="#A1A1A1"/>
<rect x="203.848" y="79.3047" width="5.20793" height="5.22686" transform="rotate(90 203.848 79.3047)" fill="#A1A1A1"/>
<rect x="203.848" y="68.8906" width="5.20793" height="5.22686" transform="rotate(90 203.848 68.8906)" fill="#A1A1A1"/>
<rect width="5.20793" height="5.22686" transform="matrix(4.38702e-08 1 1 -4.35531e-08 67.9492 68.8906)" fill="#A1A1A1"/>
<rect x="135.898" y="152.219" width="5.20793" height="5.22686" transform="rotate(90 135.898 152.219)" fill="#A1A1A1"/>
<rect x="135.898" y="147.008" width="5.20793" height="5.22686" transform="rotate(90 135.898 147.008)" fill="#A1A1A1"/>
<rect x="135.898" y="235.547" width="5.20793" height="5.22686" transform="rotate(90 135.898 235.547)" fill="#A1A1A1"/>
<rect x="135.898" y="256.375" width="5.20793" height="5.22686" transform="rotate(90 135.898 256.375)" fill="#A1A1A1"/>
<rect x="198.621" y="261.578" width="5.20793" height="5.22686" transform="rotate(90 198.621 261.578)" fill="#A1A1A1"/>
<rect width="5.20793" height="5.22686" transform="matrix(4.38702e-08 1 1 -4.35531e-08 67.9492 261.578)" fill="#A1A1A1"/>
<rect x="135.898" y="48.0547" width="5.20793" height="5.22686" transform="rotate(90 135.898 48.0547)" fill="#A1A1A1"/>
<rect x="135.898" y="131.383" width="5.20793" height="5.22686" transform="rotate(90 135.898 131.383)" fill="#A1A1A1"/>
<rect x="130.672" y="131.383" width="5.20793" height="5.22686" transform="rotate(90 130.672 131.383)" fill="#A1A1A1"/>
<rect x="130.672" y="141.805" width="5.20793" height="5.22686" transform="rotate(90 130.672 141.805)" fill="#A1A1A1"/>
<rect x="141.126" y="141.805" width="5.20793" height="5.22686" transform="rotate(90 141.126 141.805)" fill="#A1A1A1"/>
<rect x="141.126" y="131.383" width="5.20793" height="5.22686" transform="rotate(90 141.126 131.383)" fill="#A1A1A1"/>
<rect x="135.898" y="214.711" width="5.20793" height="5.22686" transform="rotate(90 135.898 214.711)" fill="#A1A1A1"/>
<rect x="135.898" y="89.7188" width="5.20793" height="5.22686" transform="rotate(90 135.898 89.7188)" fill="#A1A1A1"/>
<rect x="135.898" y="173.047" width="5.20793" height="5.22686" transform="rotate(90 135.898 173.047)" fill="#A1A1A1"/>
<rect x="10.4541" y="16.8125" width="5.20793" height="5.22686" transform="rotate(90 10.4541 16.8125)" fill="#A1A1A1"/>
<rect x="15.6807" y="16.8125" width="5.20793" height="5.22686" transform="rotate(90 15.6807 16.8125)" fill="#A1A1A1"/>
<rect x="20.9072" y="22.0156" width="5.20793" height="5.22686" transform="rotate(90 20.9072 22.0156)" fill="#A1A1A1"/>
<rect x="26.1348" y="27.2266" width="5.20793" height="5.22686" transform="rotate(90 26.1348 27.2266)" fill="#A1A1A1"/>
<rect x="31.3613" y="32.4297" width="5.20793" height="5.22686" transform="rotate(90 31.3613 32.4297)" fill="#A1A1A1"/>
<rect x="83.6299" y="84.5078" width="5.20793" height="5.22686" transform="rotate(90 83.6299 84.5078)" fill="#A1A1A1"/>
<rect x="146.353" y="147.008" width="5.20793" height="5.22686" transform="rotate(90 146.353 147.008)" fill="#A1A1A1"/>
<rect x="209.074" y="209.5" width="5.20793" height="5.22686" transform="rotate(90 209.074 209.5)" fill="#A1A1A1"/>
<rect x="36.5879" y="37.6406" width="5.20793" height="5.22686" transform="rotate(90 36.5879 37.6406)" fill="#A1A1A1"/>
<rect x="88.8564" y="89.7188" width="5.20793" height="5.22686" transform="rotate(90 88.8564 89.7188)" fill="#A1A1A1"/>
<rect x="151.579" y="152.219" width="5.20793" height="5.22686" transform="rotate(90 151.579 152.219)" fill="#A1A1A1"/>
<rect x="214.302" y="214.711" width="5.20793" height="5.22686" transform="rotate(90 214.302 214.711)" fill="#A1A1A1"/>
<rect x="41.8154" y="42.8516" width="5.20793" height="5.22686" transform="rotate(90 41.8154 42.8516)" fill="#A1A1A1"/>
<rect x="94.084" y="94.9297" width="5.20793" height="5.22686" transform="rotate(90 94.084 94.9297)" fill="#A1A1A1"/>
<rect x="156.807" y="157.43" width="5.20793" height="5.22686" transform="rotate(90 156.807 157.43)" fill="#A1A1A1"/>
<rect x="219.528" y="219.922" width="5.20793" height="5.22686" transform="rotate(90 219.528 219.922)" fill="#A1A1A1"/>
<rect x="47.042" y="48.0547" width="5.20793" height="5.22686" transform="rotate(90 47.042 48.0547)" fill="#A1A1A1"/>
<rect x="99.3105" y="100.133" width="5.20793" height="5.22686" transform="rotate(90 99.3105 100.133)" fill="#A1A1A1"/>
<rect x="162.033" y="162.633" width="5.20793" height="5.22686" transform="rotate(90 162.033 162.633)" fill="#A1A1A1"/>
<rect x="224.755" y="225.125" width="5.20793" height="5.22686" transform="rotate(90 224.755 225.125)" fill="#A1A1A1"/>
<rect x="52.2695" y="53.2656" width="5.20793" height="5.22686" transform="rotate(90 52.2695 53.2656)" fill="#A1A1A1"/>
<rect x="104.537" y="105.344" width="5.20793" height="5.22686" transform="rotate(90 104.537 105.344)" fill="#A1A1A1"/>
<rect x="167.26" y="167.836" width="5.20793" height="5.22686" transform="rotate(90 167.26 167.836)" fill="#A1A1A1"/>
<rect x="229.982" y="230.336" width="5.20793" height="5.22686" transform="rotate(90 229.982 230.336)" fill="#A1A1A1"/>
<rect x="57.4961" y="58.4766" width="5.20793" height="5.22686" transform="rotate(90 57.4961 58.4766)" fill="#A1A1A1"/>
<rect x="109.765" y="110.555" width="5.20793" height="5.22686" transform="rotate(90 109.765 110.555)" fill="#A1A1A1"/>
<rect x="172.487" y="173.047" width="5.20793" height="5.22686" transform="rotate(90 172.487 173.047)" fill="#A1A1A1"/>
<rect x="182.94" y="183.461" width="5.20793" height="5.22686" transform="rotate(90 182.94 183.461)" fill="#A1A1A1"/>
<rect x="245.663" y="245.961" width="5.20793" height="5.22686" transform="rotate(90 245.663 245.961)" fill="#A1A1A1"/>
<rect x="120.218" y="120.969" width="5.20793" height="5.22686" transform="rotate(90 120.218 120.969)" fill="#A1A1A1"/>
<rect x="235.209" y="235.547" width="5.20793" height="5.22686" transform="rotate(90 235.209 235.547)" fill="#A1A1A1"/>
<rect x="62.7227" y="63.6797" width="5.20793" height="5.22686" transform="rotate(90 62.7227 63.6797)" fill="#A1A1A1"/>
<rect x="114.991" y="115.758" width="5.20793" height="5.22686" transform="rotate(90 114.991 115.758)" fill="#A1A1A1"/>
<rect x="177.714" y="178.258" width="5.20793" height="5.22686" transform="rotate(90 177.714 178.258)" fill="#A1A1A1"/>
<rect x="188.167" y="188.672" width="5.20793" height="5.22686" transform="rotate(90 188.167 188.672)" fill="#A1A1A1"/>
<rect x="250.89" y="251.164" width="5.20793" height="5.22686" transform="rotate(90 250.89 251.164)" fill="#A1A1A1"/>
<rect x="125.444" y="126.18" width="5.20793" height="5.22686" transform="rotate(90 125.444 126.18)" fill="#A1A1A1"/>
<rect x="240.436" y="240.75" width="5.20793" height="5.22686" transform="rotate(90 240.436 240.75)" fill="#A1A1A1"/>
<rect x="5.22656" y="16.8125" width="5.20793" height="5.22686" transform="rotate(90 5.22656 16.8125)" fill="#A1A1A1"/>
<rect x="5.22656" y="11.6016" width="5.20793" height="5.22686" transform="rotate(90 5.22656 11.6016)" fill="#A1A1A1"/>
<rect x="5.22656" y="6.39062" width="5.20793" height="5.22686" transform="rotate(90 5.22656 6.39062)" fill="#A1A1A1"/>
<rect x="10.4541" y="6.39062" width="5.20793" height="5.22686" transform="rotate(90 10.4541 6.39062)" fill="#A1A1A1"/>
<rect x="15.6807" y="6.39062" width="5.20793" height="5.22686" transform="rotate(90 15.6807 6.39062)" fill="#A1A1A1"/>
<rect x="15.6807" y="11.6016" width="5.20793" height="5.22686" transform="rotate(90 15.6807 11.6016)" fill="#A1A1A1"/>
<rect x="15.6807" y="11.6016" width="5.20793" height="5.22686" transform="rotate(90 15.6807 11.6016)" fill="#A1A1A1"/>
<rect x="20.9072" y="11.6016" width="5.20793" height="5.22686" transform="rotate(90 20.9072 11.6016)" fill="#A1A1A1"/>
<rect x="135.898" y="22.0156" width="5.20793" height="5.22686" transform="rotate(90 135.898 22.0156)" fill="#A1A1A1"/>
<rect x="135.898" y="105.344" width="5.20793" height="5.22686" transform="rotate(90 135.898 105.344)" fill="#A1A1A1"/>
<rect x="135.898" y="188.672" width="5.20793" height="5.22686" transform="rotate(90 135.898 188.672)" fill="#A1A1A1"/>
<rect x="135.898" y="63.6797" width="5.20793" height="5.22686" transform="rotate(90 135.898 63.6797)" fill="#A1A1A1"/>
<rect x="135.898" y="147.008" width="5.20793" height="5.22686" transform="rotate(90 135.898 147.008)" fill="#A1A1A1"/>
<rect x="141.126" y="136.594" width="5.20793" height="5.22686" transform="rotate(90 141.126 136.594)" fill="#A1A1A1"/>
<rect x="203.848" y="199.086" width="5.20793" height="5.22686" transform="rotate(90 203.848 199.086)" fill="#A1A1A1"/>
<rect x="141.126" y="199.086" width="5.20793" height="5.22686" transform="rotate(90 141.126 199.086)" fill="#A1A1A1"/>
<rect x="135.898" y="141.805" width="5.20793" height="5.22686" transform="rotate(90 135.898 141.805)" fill="#A1A1A1"/>
<rect x="135.898" y="230.336" width="5.20793" height="5.22686" transform="rotate(90 135.898 230.336)" fill="#A1A1A1"/>
<rect x="135.898" y="42.8516" width="5.20793" height="5.22686" transform="rotate(90 135.898 42.8516)" fill="#A1A1A1"/>
<rect x="135.898" y="126.18" width="5.20793" height="5.22686" transform="rotate(90 135.898 126.18)" fill="#A1A1A1"/>
<rect x="135.898" y="209.5" width="5.20793" height="5.22686" transform="rotate(90 135.898 209.5)" fill="#A1A1A1"/>
<rect x="135.898" y="84.5078" width="5.20793" height="5.22686" transform="rotate(90 135.898 84.5078)" fill="#A1A1A1"/>
<rect x="135.898" y="167.836" width="5.20793" height="5.22686" transform="rotate(90 135.898 167.836)" fill="#A1A1A1"/>
<rect x="135.898" y="251.164" width="5.20793" height="5.22686" transform="rotate(90 135.898 251.164)" fill="#A1A1A1"/>
<rect x="135.898" y="32.4297" width="5.20793" height="5.22686" transform="rotate(90 135.898 32.4297)" fill="#A1A1A1"/>
<rect x="135.898" y="115.758" width="5.20793" height="5.22686" transform="rotate(90 135.898 115.758)" fill="#A1A1A1"/>
<rect x="130.672" y="68.8906" width="5.20793" height="5.22686" transform="rotate(90 130.672 68.8906)" fill="#A1A1A1"/>
<rect x="130.672" y="79.3047" width="5.20793" height="5.22686" transform="rotate(90 130.672 79.3047)" fill="#A1A1A1"/>
<rect x="141.126" y="79.3047" width="5.20793" height="5.22686" transform="rotate(90 141.126 79.3047)" fill="#A1A1A1"/>
<rect x="141.126" y="68.8906" width="5.20793" height="5.22686" transform="rotate(90 141.126 68.8906)" fill="#A1A1A1"/>
<rect x="135.898" y="157.43" width="5.20793" height="5.22686" transform="rotate(90 135.898 157.43)" fill="#A1A1A1"/>
<rect x="135.898" y="152.219" width="5.20793" height="5.22686" transform="rotate(90 135.898 152.219)" fill="#A1A1A1"/>
<rect x="135.898" y="240.75" width="5.20793" height="5.22686" transform="rotate(90 135.898 240.75)" fill="#A1A1A1"/>
<rect x="10.4541" y="256.375" width="5.20793" height="5.22686" transform="rotate(90 10.4541 256.375)" fill="#A1A1A1"/>
<rect x="5.22656" y="256.375" width="5.20793" height="5.22686" transform="rotate(90 5.22656 256.375)" fill="#A1A1A1"/>
<rect x="5.22656" y="261.578" width="5.20793" height="5.22686" transform="rotate(90 5.22656 261.578)" fill="#A1A1A1"/>
<rect x="5.22656" y="266.789" width="5.20793" height="5.22686" transform="rotate(90 5.22656 266.789)" fill="#A1A1A1"/>
<rect x="10.4541" y="266.789" width="5.20793" height="5.22686" transform="rotate(90 10.4541 266.789)" fill="#A1A1A1"/>
<rect x="15.6807" y="266.789" width="5.20793" height="5.22686" transform="rotate(90 15.6807 266.789)" fill="#A1A1A1"/>
<rect x="15.6807" y="256.375" width="5.20793" height="5.22686" transform="rotate(90 15.6807 256.375)" fill="#A1A1A1"/>
<rect x="135.898" y="266.789" width="5.20793" height="5.22686" transform="rotate(90 135.898 266.789)" fill="#A1A1A1"/>
<rect x="130.672" y="266.789" width="5.20793" height="5.22686" transform="rotate(90 130.672 266.789)" fill="#A1A1A1"/>
<rect x="130.672" y="256.375" width="5.20793" height="5.22686" transform="rotate(90 130.672 256.375)" fill="#A1A1A1"/>
<rect x="141.126" y="256.375" width="5.20793" height="5.22686" transform="rotate(90 141.126 256.375)" fill="#A1A1A1"/>
<rect x="141.126" y="266.789" width="5.20793" height="5.22686" transform="rotate(90 141.126 266.789)" fill="#A1A1A1"/>
<rect x="135.898" y="53.2656" width="5.20793" height="5.22686" transform="rotate(90 135.898 53.2656)" fill="#A1A1A1"/>
<rect x="135.898" y="219.922" width="5.20793" height="5.22686" transform="rotate(90 135.898 219.922)" fill="#A1A1A1"/>
<rect x="135.898" y="94.9297" width="5.20793" height="5.22686" transform="rotate(90 135.898 94.9297)" fill="#A1A1A1"/>
<rect x="135.898" y="178.258" width="5.20793" height="5.22686" transform="rotate(90 135.898 178.258)" fill="#A1A1A1"/>
<rect x="135.898" y="183.461" width="5.20793" height="5.22686" transform="rotate(90 135.898 183.461)" fill="#A1A1A1"/>
<rect x="10.4541" y="261.578" width="5.22686" height="5.20793" fill="#A1A1A1"/>
<rect x="130.672" y="193.883" width="5.22686" height="5.20793" fill="#A1A1A1"/>
<rect x="125.444" y="193.883" width="5.22686" height="5.20793" fill="#A1A1A1"/>
<rect x="125.444" y="204.297" width="5.22686" height="5.20793" fill="#A1A1A1"/>
<rect x="135.898" y="204.297" width="5.22686" height="5.20793" fill="#A1A1A1"/>
<rect x="135.898" y="193.883" width="5.22686" height="5.20793" fill="#A1A1A1"/>
<rect x="193.395" y="193.883" width="5.22686" height="5.20793" fill="#A1A1A1"/>
<rect x="188.167" y="193.883" width="5.22686" height="5.20793" fill="#A1A1A1"/>
<rect x="188.167" y="204.297" width="5.22686" height="5.20793" fill="#A1A1A1"/>
<rect x="198.621" y="204.297" width="5.22686" height="5.20793" fill="#A1A1A1"/>
<rect x="198.621" y="193.883" width="5.22686" height="5.20793" fill="#A1A1A1"/>
<rect width="5.22686" height="5.20793" transform="matrix(-1 0 0 1 73.1768 193.883)" fill="#A1A1A1"/>
<rect width="5.22686" height="5.20793" transform="matrix(-1 0 0 1 67.9492 193.883)" fill="#A1A1A1"/>
<rect width="5.22686" height="5.20793" transform="matrix(-1 0 0 1 67.9492 204.297)" fill="#A1A1A1"/>
<rect width="5.22686" height="5.20793" transform="matrix(-1 0 0 1 78.4033 204.297)" fill="#A1A1A1"/>
<rect width="5.22686" height="5.20793" transform="matrix(-1 0 0 1 78.4033 193.883)" fill="#A1A1A1"/>
<rect x="130.672" y="120.969" width="5.22686" height="5.20793" fill="#A1A1A1"/>
<rect x="130.672" y="48.0547" width="5.22686" height="5.20793" fill="#A1A1A1"/>
<rect x="130.672" y="230.336" width="5.22686" height="5.20793" fill="#A1A1A1"/>
<rect x="130.672" y="157.43" width="5.22686" height="5.20793" fill="#A1A1A1"/>
<rect x="130.672" y="152.219" width="5.22686" height="5.20793" fill="#A1A1A1"/>
<rect x="130.672" y="84.5078" width="5.22686" height="5.20793" fill="#A1A1A1"/>
<rect x="31.3613" y="11.6016" width="5.22686" height="5.20793" fill="#A1A1A1"/>
<rect x="83.6299" y="74.1016" width="5.22686" height="5.20793" fill="#A1A1A1"/>
<rect x="146.353" y="74.1016" width="5.22686" height="5.20793" fill="#A1A1A1"/>
<rect x="146.353" y="199.086" width="5.22686" height="5.20793" fill="#A1A1A1"/>
<rect x="88.8564" y="199.086" width="5.22686" height="5.20793" fill="#A1A1A1"/>
<rect x="83.6299" y="199.086" width="5.22686" height="5.20793" fill="#A1A1A1"/>
<rect x="31.3613" y="261.578" width="5.22686" height="5.20793" fill="#A1A1A1"/>
<rect x="20.9072" y="261.578" width="5.22686" height="5.20793" fill="black"/>
<rect x="245.663" y="266.789" width="5.20793" height="5.22686" transform="rotate(-90 245.663 266.789)" fill="#A1A1A1"/>
<rect x="250.89" y="266.789" width="5.20793" height="5.22686" transform="rotate(-90 250.89 266.789)" fill="#A1A1A1"/>
<rect x="26.1348" y="261.578" width="5.20793" height="5.22686" transform="rotate(90 26.1348 261.578)" fill="#A1A1A1"/>
<rect x="146.353" y="261.578" width="5.20793" height="5.22686" transform="rotate(90 146.353 261.578)" fill="#A1A1A1"/>
<rect x="151.579" y="261.578" width="5.20793" height="5.22686" transform="rotate(90 151.579 261.578)" fill="#A1A1A1"/>
<rect x="20.9072" y="261.578" width="5.20793" height="5.22686" transform="rotate(90 20.9072 261.578)" fill="#A1A1A1"/>
<rect x="156.807" y="261.578" width="5.20793" height="5.22686" transform="rotate(90 156.807 261.578)" fill="#A1A1A1"/>
<rect x="224.755" y="261.578" width="5.20793" height="5.22686" transform="rotate(90 224.755 261.578)" fill="#A1A1A1"/>
<rect x="88.8564" y="261.578" width="5.20793" height="5.22686" transform="rotate(90 88.8564 261.578)" fill="#A1A1A1"/>
<rect x="31.3613" y="261.578" width="5.20793" height="5.22686" transform="rotate(90 31.3613 261.578)" fill="#A1A1A1"/>
<ellipse cx="259.659" cy="12.2965" rx="12.3412" ry="12.2965" fill="black"/>
<ellipse cx="196.965" cy="205.109" rx="12.3412" ry="12.2965" fill="white"/>
<ellipse cx="72.5658" cy="76.734" rx="12.3412" ry="12.2965" fill="black"/>
<path d="M72.5654 187.875C79.9301 187.875 85.9072 193.825 85.9072 201.172C85.907 208.519 79.93 214.468 72.5654 214.468C65.201 214.468 59.2248 208.518 59.2246 201.172C59.2246 193.825 65.2009 187.875 72.5654 187.875Z" fill="white" stroke="#43FF46" stroke-width="2"/>
<ellipse cx="195.485" cy="77.2184" rx="12.3412" ry="12.2965" fill="#43FF46" fill-opacity="0.65"/>
<path d="M186.628 88.5351C186.628 87.4326 185.731 86.5388 184.625 86.5388L166.592 86.5388C165.485 86.5388 164.588 87.4326 164.588 88.5351C164.588 89.6377 165.485 90.5315 166.592 90.5315L182.621 90.5315L182.621 106.502C182.621 107.605 183.518 108.499 184.625 108.499C185.731 108.499 186.628 107.605 186.628 106.502L186.628 88.5351ZM84.4141 188.383L85.8308 189.794L186.041 89.9468L184.625 88.5351L183.208 87.1235L82.9973 186.971L84.4141 188.383Z" fill="white"/>
<path d="M135.259 123.437C142.624 123.437 148.601 129.387 148.601 136.734C148.6 144.081 142.623 150.03 135.259 150.03C127.894 150.03 121.918 144.081 121.918 136.734C121.918 129.388 127.894 123.438 135.259 123.437Z" fill="black" stroke="#FF6363" stroke-width="2"/>
</svg>
