<svg width="257" height="85" viewBox="0 0 257 85" fill="none" xmlns="http://www.w3.org/2000/svg">
<path d="M17.7648 74.06L22.0848 81H19.5248L16.3848 75.96L13.4448 81H10.9048L15.2248 74.06L10.8848 67.1H13.4448L16.6048 72.18L19.5648 67.1H22.1048L17.7648 74.06ZM37.3232 69.8C37.1765 69.1867 36.9099 68.7267 36.5232 68.42C36.1365 68.1133 35.5965 67.96 34.9032 67.96C33.8499 67.96 33.0632 68.3667 32.5432 69.18C32.0232 69.98 31.7499 71.3133 31.7232 73.18C32.0699 72.5933 32.5765 72.14 33.2432 71.82C33.9099 71.5 34.6299 71.34 35.4032 71.34C36.2832 71.34 37.0565 71.5333 37.7232 71.92C38.4032 72.2933 38.9299 72.84 39.3032 73.56C39.6899 74.28 39.8832 75.14 39.8832 76.14C39.8832 77.0733 39.6965 77.9067 39.3232 78.64C38.9632 79.3733 38.4232 79.9533 37.7032 80.38C36.9832 80.7933 36.1165 81 35.1032 81C33.7299 81 32.6499 80.7 31.8632 80.1C31.0899 79.4867 30.5432 78.6267 30.2232 77.52C29.9165 76.4133 29.7632 75.0333 29.7632 73.38C29.7632 68.5 31.4832 66.06 34.9232 66.06C36.2565 66.06 37.3032 66.42 38.0632 67.14C38.8365 67.86 39.2899 68.7467 39.4232 69.8H37.3232ZM34.9032 73.26C34.0899 73.26 33.3965 73.5067 32.8232 74C32.2632 74.48 31.9832 75.18 31.9832 76.1C31.9832 77.02 32.2432 77.7533 32.7632 78.3C33.2965 78.8333 34.0365 79.1 34.9832 79.1C35.8232 79.1 36.4832 78.84 36.9632 78.32C37.4565 77.8 37.7032 77.1067 37.7032 76.24C37.7032 75.3333 37.4632 74.6133 36.9832 74.08C36.5165 73.5333 35.8232 73.26 34.9032 73.26Z" fill="white"/>
<path d="M223.265 74.06L227.585 81H225.025L221.885 75.96L218.945 81H216.405L220.725 74.06L216.385 67.1H218.945L222.105 72.18L225.065 67.1H227.605L223.265 74.06ZM242.823 69.8C242.677 69.1867 242.41 68.7267 242.023 68.42C241.637 68.1133 241.097 67.96 240.403 67.96C239.35 67.96 238.563 68.3667 238.043 69.18C237.523 69.98 237.25 71.3133 237.223 73.18C237.57 72.5933 238.077 72.14 238.743 71.82C239.41 71.5 240.13 71.34 240.903 71.34C241.783 71.34 242.557 71.5333 243.223 71.92C243.903 72.2933 244.43 72.84 244.803 73.56C245.19 74.28 245.383 75.14 245.383 76.14C245.383 77.0733 245.197 77.9067 244.823 78.64C244.463 79.3733 243.923 79.9533 243.203 80.38C242.483 80.7933 241.617 81 240.603 81C239.23 81 238.15 80.7 237.363 80.1C236.59 79.4867 236.043 78.6267 235.723 77.52C235.417 76.4133 235.263 75.0333 235.263 73.38C235.263 68.5 236.983 66.06 240.423 66.06C241.757 66.06 242.803 66.42 243.563 67.14C244.337 67.86 244.79 68.7467 244.923 69.8H242.823ZM240.403 73.26C239.59 73.26 238.897 73.5067 238.323 74C237.763 74.48 237.483 75.18 237.483 76.1C237.483 77.02 237.743 77.7533 238.263 78.3C238.797 78.8333 239.537 79.1 240.483 79.1C241.323 79.1 241.983 78.84 242.463 78.32C242.957 77.8 243.203 77.1067 243.203 76.24C243.203 75.3333 242.963 74.6133 242.483 74.08C242.017 73.5333 241.323 73.26 240.403 73.26Z" fill="white"/>
<circle cx="26" cy="26" r="26" fill="white"/>
<circle cx="231" cy="26" r="26" fill="black"/>
</svg>
