<svg width="275" height="272" viewBox="0 0 275 272" fill="none" xmlns="http://www.w3.org/2000/svg">
<rect x="254.482" y="11.7979" width="5.14909" height="5.07936" fill="#A1A1A1"/>
<rect x="254.482" y="72.75" width="5.14909" height="5.07936" fill="#A1A1A1"/>
<rect x="7.32422" y="11.7979" width="5.14909" height="5.07936" fill="#A1A1A1"/>
<rect x="7.32422" y="72.75" width="5.14909" height="5.07936" fill="#A1A1A1"/>
<rect x="7.32422" y="133.702" width="5.14909" height="5.07936" fill="#A1A1A1"/>
<rect x="7.32422" y="255.607" width="5.14909" height="5.07936" fill="#A1A1A1"/>
<rect x="7.32422" y="194.654" width="5.14909" height="5.07936" fill="#A1A1A1"/>
<rect x="254.482" y="194.654" width="5.14909" height="5.07936" fill="#A1A1A1"/>
<rect x="254.482" y="133.702" width="5.14909" height="5.07936" fill="#A1A1A1"/>
<rect x="259.631" y="11.7979" width="5.14909" height="5.07936" fill="#A1A1A1"/>
<rect x="259.631" y="72.75" width="5.14909" height="5.07936" fill="#A1A1A1"/>
<rect x="12.4746" y="11.7979" width="5.14909" height="5.07936" fill="#A1A1A1"/>
<rect x="12.4746" y="72.75" width="5.14909" height="5.07936" fill="#A1A1A1"/>
<rect x="12.4746" y="255.607" width="5.14909" height="5.07936" fill="#A1A1A1"/>
<rect x="12.4746" y="194.654" width="5.14909" height="5.07936" fill="#A1A1A1"/>
<rect x="259.631" y="194.654" width="5.14909" height="5.07936" fill="#A1A1A1"/>
<rect x="259.631" y="133.702" width="5.14909" height="5.07936" fill="#A1A1A1"/>
<rect x="264.779" y="16.876" width="5.07936" height="5.14909" transform="rotate(90 264.779 16.876)" fill="#A1A1A1"/>
<rect x="264.779" y="77.8281" width="5.07936" height="5.14909" transform="rotate(90 264.779 77.8281)" fill="#A1A1A1"/>
<rect x="17.623" y="16.876" width="5.07936" height="5.14909" transform="rotate(90 17.623 16.876)" fill="#A1A1A1"/>
<rect x="17.623" y="77.8281" width="5.07936" height="5.14909" transform="rotate(90 17.623 77.8281)" fill="#A1A1A1"/>
<rect x="17.623" y="260.685" width="5.07936" height="5.14909" transform="rotate(90 17.623 260.685)" fill="#A1A1A1"/>
<rect x="17.623" y="199.733" width="5.07936" height="5.14909" transform="rotate(90 17.623 199.733)" fill="#A1A1A1"/>
<rect x="264.779" y="199.733" width="5.07936" height="5.14909" transform="rotate(90 264.779 199.733)" fill="#A1A1A1"/>
<rect x="264.779" y="138.78" width="5.07936" height="5.14909" transform="rotate(90 264.779 138.78)" fill="#A1A1A1"/>
<rect x="259.631" y="16.876" width="5.07936" height="5.14909" transform="rotate(90 259.631 16.876)" fill="#A1A1A1"/>
<rect x="259.631" y="77.8281" width="5.07936" height="5.14909" transform="rotate(90 259.631 77.8281)" fill="#A1A1A1"/>
<rect x="12.4746" y="16.876" width="5.07936" height="5.14909" transform="rotate(90 12.4746 16.876)" fill="#A1A1A1"/>
<rect x="12.4746" y="77.8281" width="5.07936" height="5.14909" transform="rotate(90 12.4746 77.8281)" fill="#A1A1A1"/>
<rect x="12.4746" y="138.78" width="5.07936" height="5.14909" transform="rotate(90 12.4746 138.78)" fill="#A1A1A1"/>
<rect x="17.623" y="138.78" width="5.07936" height="5.14909" transform="rotate(90 17.623 138.78)" fill="#A1A1A1"/>
<rect x="233.885" y="42.2729" width="5.07936" height="5.14909" transform="rotate(90 233.885 42.2729)" fill="#A1A1A1"/>
<rect x="187.543" y="87.9868" width="5.07936" height="5.14909" transform="rotate(90 187.543 87.9868)" fill="#A1A1A1"/>
<rect x="187.543" y="27.0342" width="5.07936" height="5.14909" transform="rotate(90 187.543 27.0342)" fill="#A1A1A1"/>
<rect x="125.754" y="27.0342" width="5.07936" height="5.14909" transform="rotate(90 125.754 27.0342)" fill="#A1A1A1"/>
<rect x="94.8594" y="179.416" width="5.07936" height="5.14909" transform="rotate(90 94.8594 179.416)" fill="#A1A1A1"/>
<rect x="115.457" y="220.051" width="5.07936" height="5.14909" transform="rotate(90 115.457 220.051)" fill="#A1A1A1"/>
<rect x="63.9648" y="148.939" width="5.07936" height="5.14909" transform="rotate(90 63.9648 148.939)" fill="#A1A1A1"/>
<rect x="33.0703" y="118.464" width="5.07936" height="5.14909" transform="rotate(90 33.0703 118.464)" fill="#A1A1A1"/>
<rect x="48.5176" y="225.13" width="5.07936" height="5.14909" transform="rotate(90 48.5176 225.13)" fill="#A1A1A1"/>
<rect x="151.5" y="184.496" width="5.07936" height="5.14909" transform="rotate(90 151.5 184.496)" fill="#A1A1A1"/>
<rect x="100.01" y="113.383" width="5.07936" height="5.14909" transform="rotate(90 100.01 113.383)" fill="#A1A1A1"/>
<rect x="69.1133" y="82.9082" width="5.07936" height="5.14909" transform="rotate(90 69.1133 82.9082)" fill="#A1A1A1"/>
<rect x="254.482" y="21.9561" width="5.07936" height="5.14909" transform="rotate(90 254.482 21.9561)" fill="#A1A1A1"/>
<rect x="161.799" y="113.383" width="5.07936" height="5.14909" transform="rotate(90 161.799 113.383)" fill="#A1A1A1"/>
<rect x="161.799" y="52.4312" width="5.07936" height="5.14909" transform="rotate(90 161.799 52.4312)" fill="#A1A1A1"/>
<rect x="130.904" y="82.9082" width="5.07936" height="5.14909" transform="rotate(90 130.904 82.9082)" fill="#A1A1A1"/>
<rect x="100.01" y="52.4312" width="5.07936" height="5.14909" transform="rotate(90 100.01 52.4312)" fill="#A1A1A1"/>
<rect x="239.035" y="98.147" width="5.07936" height="5.14909" transform="rotate(90 239.035 98.147)" fill="#A1A1A1"/>
<rect x="233.885" y="103.225" width="5.07936" height="5.14909" transform="rotate(90 233.885 103.225)" fill="#A1A1A1"/>
<rect x="115.457" y="159.099" width="5.07936" height="5.14909" transform="rotate(90 115.457 159.099)" fill="#A1A1A1"/>
<rect x="218.438" y="118.464" width="5.07936" height="5.14909" transform="rotate(90 218.438 118.464)" fill="#A1A1A1"/>
<rect x="259.631" y="138.78" width="5.07936" height="5.14909" transform="rotate(90 259.631 138.78)" fill="#A1A1A1"/>
<rect x="43.3691" y="169.257" width="5.07936" height="5.14909" transform="rotate(90 43.3691 169.257)" fill="#A1A1A1"/>
<rect x="249.332" y="148.939" width="5.07936" height="5.14909" transform="rotate(90 249.332 148.939)" fill="#A1A1A1"/>
<rect x="249.332" y="209.893" width="5.07936" height="5.14909" transform="rotate(90 249.332 209.893)" fill="#A1A1A1"/>
<rect x="33.0703" y="179.416" width="5.07936" height="5.14909" transform="rotate(90 33.0703 179.416)" fill="#A1A1A1"/>
<rect x="223.588" y="174.336" width="5.07936" height="5.14909" transform="rotate(90 223.588 174.336)" fill="#A1A1A1"/>
<rect x="192.693" y="204.813" width="5.07936" height="5.14909" transform="rotate(90 192.693 204.813)" fill="#A1A1A1"/>
<rect x="161.799" y="235.288" width="5.07936" height="5.14909" transform="rotate(90 161.799 235.288)" fill="#A1A1A1"/>
<rect x="223.588" y="235.288" width="5.07936" height="5.14909" transform="rotate(90 223.588 235.288)" fill="#A1A1A1"/>
<rect x="228.736" y="230.21" width="5.07936" height="5.14909" transform="rotate(90 228.736 230.21)" fill="#A1A1A1"/>
<rect x="53.666" y="98.147" width="5.07936" height="5.14909" transform="rotate(90 53.666 98.147)" fill="#A1A1A1"/>
<rect x="69.1133" y="204.813" width="5.07936" height="5.14909" transform="rotate(90 69.1133 204.813)" fill="#A1A1A1"/>
<rect x="172.096" y="164.177" width="5.07936" height="5.14909" transform="rotate(90 172.096 164.177)" fill="#A1A1A1"/>
<rect x="228.736" y="47.353" width="5.07936" height="5.14909" transform="rotate(90 228.736 47.353)" fill="#A1A1A1"/>
<rect x="182.395" y="93.0669" width="5.07936" height="5.14909" transform="rotate(90 182.395 93.0669)" fill="#A1A1A1"/>
<rect x="182.395" y="32.1143" width="5.07936" height="5.14909" transform="rotate(90 182.395 32.1143)" fill="#A1A1A1"/>
<rect x="120.605" y="32.1143" width="5.07936" height="5.14909" transform="rotate(90 120.605 32.1143)" fill="#A1A1A1"/>
<rect x="89.7109" y="184.496" width="5.07936" height="5.14909" transform="rotate(90 89.7109 184.496)" fill="#A1A1A1"/>
<rect x="192.693" y="143.86" width="5.07936" height="5.14909" transform="rotate(90 192.693 143.86)" fill="#A1A1A1"/>
<rect x="110.307" y="225.13" width="5.07936" height="5.14909" transform="rotate(90 110.307 225.13)" fill="#A1A1A1"/>
<rect x="58.8164" y="154.019" width="5.07936" height="5.14909" transform="rotate(90 58.8164 154.019)" fill="#A1A1A1"/>
<rect x="27.9219" y="123.544" width="5.07936" height="5.14909" transform="rotate(90 27.9219 123.544)" fill="#A1A1A1"/>
<rect x="94.8594" y="240.368" width="5.07936" height="5.14909" transform="rotate(90 94.8594 240.368)" fill="#A1A1A1"/>
<rect x="43.3691" y="230.21" width="5.07936" height="5.14909" transform="rotate(90 43.3691 230.21)" fill="#A1A1A1"/>
<rect x="94.8594" y="118.464" width="5.07936" height="5.14909" transform="rotate(90 94.8594 118.464)" fill="#A1A1A1"/>
<rect x="63.9648" y="87.9868" width="5.07936" height="5.14909" transform="rotate(90 63.9648 87.9868)" fill="#A1A1A1"/>
<rect x="249.332" y="27.0342" width="5.07936" height="5.14909" transform="rotate(90 249.332 27.0342)" fill="#A1A1A1"/>
<rect x="156.648" y="118.464" width="5.07936" height="5.14909" transform="rotate(90 156.648 118.464)" fill="#A1A1A1"/>
<rect x="156.648" y="57.5112" width="5.07936" height="5.14909" transform="rotate(90 156.648 57.5112)" fill="#A1A1A1"/>
<rect x="125.754" y="87.9868" width="5.07936" height="5.14909" transform="rotate(90 125.754 87.9868)" fill="#A1A1A1"/>
<rect x="94.8594" y="57.5112" width="5.07936" height="5.14909" transform="rotate(90 94.8594 57.5112)" fill="#A1A1A1"/>
<rect x="110.307" y="164.177" width="5.07936" height="5.14909" transform="rotate(90 110.307 164.177)" fill="#A1A1A1"/>
<rect x="213.289" y="123.544" width="5.07936" height="5.14909" transform="rotate(90 213.289 123.544)" fill="#A1A1A1"/>
<rect x="254.482" y="143.86" width="5.07936" height="5.14909" transform="rotate(90 254.482 143.86)" fill="#A1A1A1"/>
<rect x="254.482" y="204.813" width="5.07936" height="5.14909" transform="rotate(90 254.482 204.813)" fill="#A1A1A1"/>
<rect x="38.2188" y="174.336" width="5.07936" height="5.14909" transform="rotate(90 38.2188 174.336)" fill="#A1A1A1"/>
<rect x="228.736" y="169.257" width="5.07936" height="5.14909" transform="rotate(90 228.736 169.257)" fill="#A1A1A1"/>
<rect x="166.947" y="230.21" width="5.07936" height="5.14909" transform="rotate(90 166.947 230.21)" fill="#A1A1A1"/>
<rect x="244.184" y="154.019" width="5.07936" height="5.14909" transform="rotate(90 244.184 154.019)" fill="#A1A1A1"/>
<rect x="244.184" y="214.971" width="5.07936" height="5.14909" transform="rotate(90 244.184 214.971)" fill="#A1A1A1"/>
<rect x="27.9219" y="184.496" width="5.07936" height="5.14909" transform="rotate(90 27.9219 184.496)" fill="#A1A1A1"/>
<rect x="218.438" y="179.416" width="5.07936" height="5.14909" transform="rotate(90 218.438 179.416)" fill="#A1A1A1"/>
<rect x="187.543" y="209.893" width="5.07936" height="5.14909" transform="rotate(90 187.543 209.893)" fill="#A1A1A1"/>
<rect x="156.648" y="240.368" width="5.07936" height="5.14909" transform="rotate(90 156.648 240.368)" fill="#A1A1A1"/>
<rect x="218.438" y="240.368" width="5.07936" height="5.14909" transform="rotate(90 218.438 240.368)" fill="#A1A1A1"/>
<rect x="239.035" y="159.099" width="5.07936" height="5.14909" transform="rotate(90 239.035 159.099)" fill="#A1A1A1"/>
<rect x="239.035" y="220.051" width="5.07936" height="5.14909" transform="rotate(90 239.035 220.051)" fill="#A1A1A1"/>
<rect x="213.289" y="184.496" width="5.07936" height="5.14909" transform="rotate(90 213.289 184.496)" fill="#A1A1A1"/>
<rect x="182.395" y="214.971" width="5.07936" height="5.14909" transform="rotate(90 182.395 214.971)" fill="#A1A1A1"/>
<rect x="151.5" y="245.448" width="5.07936" height="5.14909" transform="rotate(90 151.5 245.448)" fill="#A1A1A1"/>
<rect x="213.289" y="245.448" width="5.07936" height="5.14909" transform="rotate(90 213.289 245.448)" fill="#A1A1A1"/>
<rect x="130.904" y="204.813" width="5.07936" height="5.14909" transform="rotate(90 130.904 204.813)" fill="#A1A1A1"/>
<rect x="48.5176" y="103.225" width="5.07936" height="5.14909" transform="rotate(90 48.5176 103.225)" fill="#A1A1A1"/>
<rect x="63.9648" y="209.893" width="5.07936" height="5.14909" transform="rotate(90 63.9648 209.893)" fill="#A1A1A1"/>
<rect x="166.947" y="169.257" width="5.07936" height="5.14909" transform="rotate(90 166.947 169.257)" fill="#A1A1A1"/>
<rect x="223.588" y="52.4312" width="5.07936" height="5.14909" transform="rotate(90 223.588 52.4312)" fill="#A1A1A1"/>
<rect x="254.482" y="82.9082" width="5.07936" height="5.14909" transform="rotate(90 254.482 82.9082)" fill="#A1A1A1"/>
<rect x="130.904" y="143.86" width="5.07936" height="5.14909" transform="rotate(90 130.904 143.86)" fill="#A1A1A1"/>
<rect x="177.246" y="98.147" width="5.07936" height="5.14909" transform="rotate(90 177.246 98.147)" fill="#A1A1A1"/>
<rect x="177.246" y="37.1948" width="5.07936" height="5.14909" transform="rotate(90 177.246 37.1948)" fill="#A1A1A1"/>
<rect x="115.457" y="37.1948" width="5.07936" height="5.14909" transform="rotate(90 115.457 37.1948)" fill="#A1A1A1"/>
<rect x="187.543" y="148.939" width="5.07936" height="5.14909" transform="rotate(90 187.543 148.939)" fill="#A1A1A1"/>
<rect x="105.158" y="230.21" width="5.07936" height="5.14909" transform="rotate(90 105.158 230.21)" fill="#A1A1A1"/>
<rect x="53.666" y="159.099" width="5.07936" height="5.14909" transform="rotate(90 53.666 159.099)" fill="#A1A1A1"/>
<rect x="22.7715" y="128.622" width="5.07936" height="5.14909" transform="rotate(90 22.7715 128.622)" fill="#A1A1A1"/>
<rect x="22.7715" y="133.702" width="5.07936" height="5.14909" transform="rotate(90 22.7715 133.702)" fill="#A1A1A1"/>
<rect x="89.7109" y="245.448" width="5.07936" height="5.14909" transform="rotate(90 89.7109 245.448)" fill="#A1A1A1"/>
<rect x="38.2188" y="235.288" width="5.07936" height="5.14909" transform="rotate(90 38.2188 235.288)" fill="#A1A1A1"/>
<rect x="244.184" y="32.1143" width="5.07936" height="5.14909" transform="rotate(90 244.184 32.1143)" fill="#A1A1A1"/>
<rect x="151.5" y="123.544" width="5.07936" height="5.14909" transform="rotate(90 151.5 123.544)" fill="#A1A1A1"/>
<rect x="151.5" y="62.5898" width="5.07936" height="5.14909" transform="rotate(90 151.5 62.5898)" fill="#A1A1A1"/>
<rect x="120.605" y="93.0669" width="5.07936" height="5.14909" transform="rotate(90 120.605 93.0669)" fill="#A1A1A1"/>
<rect x="89.7109" y="62.5898" width="5.07936" height="5.14909" transform="rotate(90 89.7109 62.5898)" fill="#A1A1A1"/>
<rect x="115.457" y="98.147" width="5.07936" height="5.14909" transform="rotate(90 115.457 98.147)" fill="#A1A1A1"/>
<rect x="105.158" y="169.257" width="5.07936" height="5.14909" transform="rotate(90 105.158 169.257)" fill="#A1A1A1"/>
<rect x="125.754" y="209.893" width="5.07936" height="5.14909" transform="rotate(90 125.754 209.893)" fill="#A1A1A1"/>
<rect x="43.3691" y="108.305" width="5.07936" height="5.14909" transform="rotate(90 43.3691 108.305)" fill="#A1A1A1"/>
<rect x="58.8164" y="214.971" width="5.07936" height="5.14909" transform="rotate(90 58.8164 214.971)" fill="#A1A1A1"/>
<rect x="161.799" y="174.336" width="5.07936" height="5.14909" transform="rotate(90 161.799 174.336)" fill="#A1A1A1"/>
<rect x="218.438" y="57.5112" width="5.07936" height="5.14909" transform="rotate(90 218.438 57.5112)" fill="#A1A1A1"/>
<rect x="249.332" y="87.9868" width="5.07936" height="5.14909" transform="rotate(90 249.332 87.9868)" fill="#A1A1A1"/>
<rect x="125.754" y="148.939" width="5.07936" height="5.14909" transform="rotate(90 125.754 148.939)" fill="#A1A1A1"/>
<rect x="228.736" y="108.305" width="5.07936" height="5.14909" transform="rotate(90 228.736 108.305)" fill="#A1A1A1"/>
<rect x="172.096" y="103.225" width="5.07936" height="5.14909" transform="rotate(90 172.096 103.225)" fill="#A1A1A1"/>
<rect x="110.307" y="42.2729" width="5.07936" height="5.14909" transform="rotate(90 110.307 42.2729)" fill="#A1A1A1"/>
<rect x="182.395" y="154.019" width="5.07936" height="5.14909" transform="rotate(90 182.395 154.019)" fill="#A1A1A1"/>
<rect x="100.01" y="235.288" width="5.07936" height="5.14909" transform="rotate(90 100.01 235.288)" fill="#A1A1A1"/>
<rect x="48.5176" y="164.177" width="5.07936" height="5.14909" transform="rotate(90 48.5176 164.177)" fill="#A1A1A1"/>
<rect x="33.0703" y="240.368" width="5.07936" height="5.14909" transform="rotate(90 33.0703 240.368)" fill="#A1A1A1"/>
<rect x="239.035" y="37.1948" width="5.07936" height="5.14909" transform="rotate(90 239.035 37.1948)" fill="#A1A1A1"/>
<rect x="192.693" y="82.9082" width="5.07936" height="5.14909" transform="rotate(90 192.693 82.9082)" fill="#A1A1A1"/>
<rect x="192.693" y="21.9561" width="5.07936" height="5.14909" transform="rotate(90 192.693 21.9561)" fill="#A1A1A1"/>
<rect x="130.904" y="21.9561" width="5.07936" height="5.14909" transform="rotate(90 130.904 21.9561)" fill="#A1A1A1"/>
<rect x="100.01" y="174.336" width="5.07936" height="5.14909" transform="rotate(90 100.01 174.336)" fill="#A1A1A1"/>
<rect x="120.605" y="214.971" width="5.07936" height="5.14909" transform="rotate(90 120.605 214.971)" fill="#A1A1A1"/>
<rect x="69.1133" y="143.86" width="5.07936" height="5.14909" transform="rotate(90 69.1133 143.86)" fill="#A1A1A1"/>
<rect x="38.2188" y="113.383" width="5.07936" height="5.14909" transform="rotate(90 38.2188 113.383)" fill="#A1A1A1"/>
<rect x="53.666" y="220.051" width="5.07936" height="5.14909" transform="rotate(90 53.666 220.051)" fill="#A1A1A1"/>
<rect x="156.648" y="179.416" width="5.07936" height="5.14909" transform="rotate(90 156.648 179.416)" fill="#A1A1A1"/>
<rect x="105.158" y="108.305" width="5.07936" height="5.14909" transform="rotate(90 105.158 108.305)" fill="#A1A1A1"/>
<rect x="213.289" y="62.5898" width="5.07936" height="5.14909" transform="rotate(90 213.289 62.5898)" fill="#A1A1A1"/>
<rect x="244.184" y="93.0669" width="5.07936" height="5.14909" transform="rotate(90 244.184 93.0669)" fill="#A1A1A1"/>
<rect x="120.605" y="154.019" width="5.07936" height="5.14909" transform="rotate(90 120.605 154.019)" fill="#A1A1A1"/>
<rect x="223.588" y="113.383" width="5.07936" height="5.14909" transform="rotate(90 223.588 113.383)" fill="#A1A1A1"/>
<rect x="89.7109" y="123.544" width="5.07936" height="5.14909" transform="rotate(90 89.7109 123.544)" fill="#A1A1A1"/>
<rect x="58.8164" y="93.0669" width="5.07936" height="5.14909" transform="rotate(90 58.8164 93.0669)" fill="#A1A1A1"/>
<rect x="166.947" y="108.305" width="5.07936" height="5.14909" transform="rotate(90 166.947 108.305)" fill="#A1A1A1"/>
<rect x="166.947" y="47.353" width="5.07936" height="5.14909" transform="rotate(90 166.947 47.353)" fill="#A1A1A1"/>
<rect x="105.158" y="47.353" width="5.07936" height="5.14909" transform="rotate(90 105.158 47.353)" fill="#A1A1A1"/>
<rect x="177.246" y="159.099" width="5.07936" height="5.14909" transform="rotate(90 177.246 159.099)" fill="#A1A1A1"/>
<rect x="27.9219" y="245.448" width="5.07936" height="5.14909" transform="rotate(90 27.9219 245.448)" fill="#A1A1A1"/>
<rect x="22.7715" y="250.526" width="5.07936" height="5.14909" transform="rotate(90 22.7715 250.526)" fill="#A1A1A1"/>
<rect x="12.4746" y="260.685" width="5.07936" height="5.14909" transform="rotate(90 12.4746 260.685)" fill="#A1A1A1"/>
<rect x="12.4746" y="199.733" width="5.07936" height="5.14909" transform="rotate(90 12.4746 199.733)" fill="#A1A1A1"/>
<rect x="259.631" y="199.733" width="5.07936" height="5.14909" transform="rotate(90 259.631 199.733)" fill="#A1A1A1"/>
<rect x="259.631" y="6.71729" width="5.07936" height="5.14909" transform="rotate(90 259.631 6.71729)" fill="#A1A1A1"/>
<rect x="259.631" y="67.6699" width="5.07936" height="5.14909" transform="rotate(90 259.631 67.6699)" fill="#A1A1A1"/>
<rect x="12.4746" y="6.71729" width="5.07936" height="5.14909" transform="rotate(90 12.4746 6.71729)" fill="#A1A1A1"/>
<rect x="12.4746" y="67.6699" width="5.07936" height="5.14909" transform="rotate(90 12.4746 67.6699)" fill="#A1A1A1"/>
<rect x="12.4746" y="128.622" width="5.07936" height="5.14909" transform="rotate(90 12.4746 128.622)" fill="#A1A1A1"/>
<rect x="17.623" y="128.622" width="5.07936" height="5.14909" transform="rotate(90 17.623 128.622)" fill="#A1A1A1"/>
<rect x="12.4746" y="250.526" width="5.07936" height="5.14909" transform="rotate(90 12.4746 250.526)" fill="#A1A1A1"/>
<rect x="12.4746" y="189.574" width="5.07936" height="5.14909" transform="rotate(90 12.4746 189.574)" fill="#A1A1A1"/>
<rect x="259.631" y="189.574" width="5.07936" height="5.14909" transform="rotate(90 259.631 189.574)" fill="#A1A1A1"/>
<rect x="259.631" y="128.622" width="5.07936" height="5.14909" transform="rotate(90 259.631 128.622)" fill="#A1A1A1"/>
<rect x="264.779" y="6.71729" width="5.07936" height="5.14909" transform="rotate(90 264.779 6.71729)" fill="#A1A1A1"/>
<rect x="264.779" y="67.6699" width="5.07936" height="5.14909" transform="rotate(90 264.779 67.6699)" fill="#A1A1A1"/>
<rect x="17.623" y="6.71729" width="5.07936" height="5.14909" transform="rotate(90 17.623 6.71729)" fill="#A1A1A1"/>
<rect x="17.623" y="67.6699" width="5.07936" height="5.14909" transform="rotate(90 17.623 67.6699)" fill="#A1A1A1"/>
<rect x="17.623" y="250.526" width="5.07936" height="5.14909" transform="rotate(90 17.623 250.526)" fill="#A1A1A1"/>
<rect x="17.623" y="189.574" width="5.07936" height="5.14909" transform="rotate(90 17.623 189.574)" fill="#A1A1A1"/>
<rect x="264.779" y="189.574" width="5.07936" height="5.14909" transform="rotate(90 264.779 189.574)" fill="#A1A1A1"/>
<rect x="264.779" y="128.622" width="5.07936" height="5.14909" transform="rotate(90 264.779 128.622)" fill="#A1A1A1"/>
<rect x="269.93" y="6.71729" width="5.07936" height="5.14909" transform="rotate(90 269.93 6.71729)" fill="#A1A1A1"/>
<rect x="269.93" y="67.6699" width="5.07936" height="5.14909" transform="rotate(90 269.93 67.6699)" fill="#A1A1A1"/>
<rect x="22.7715" y="6.71729" width="5.07936" height="5.14909" transform="rotate(90 22.7715 6.71729)" fill="#A1A1A1"/>
<rect x="22.7715" y="67.6699" width="5.07936" height="5.14909" transform="rotate(90 22.7715 67.6699)" fill="#A1A1A1"/>
<rect x="27.9219" y="62.5898" width="5.07936" height="5.14909" transform="rotate(90 27.9219 62.5898)" fill="#A1A1A1"/>
<rect x="74.2637" y="6.71729" width="5.07936" height="5.14909" transform="rotate(90 74.2637 6.71729)" fill="#A1A1A1"/>
<rect x="74.2637" y="67.6699" width="5.07936" height="5.14909" transform="rotate(90 74.2637 67.6699)" fill="#A1A1A1"/>
<rect x="74.2637" y="128.622" width="5.07936" height="5.14909" transform="rotate(90 74.2637 128.622)" fill="#A1A1A1"/>
<rect x="74.2637" y="189.574" width="5.07936" height="5.14909" transform="rotate(90 74.2637 189.574)" fill="#A1A1A1"/>
<rect x="136.053" y="6.71729" width="5.07936" height="5.14909" transform="rotate(90 136.053 6.71729)" fill="#A1A1A1"/>
<rect x="136.053" y="67.6699" width="5.07936" height="5.14909" transform="rotate(90 136.053 67.6699)" fill="#A1A1A1"/>
<rect x="136.053" y="128.622" width="5.07936" height="5.14909" transform="rotate(90 136.053 128.622)" fill="#A1A1A1"/>
<rect x="136.053" y="189.574" width="5.07936" height="5.14909" transform="rotate(90 136.053 189.574)" fill="#A1A1A1"/>
<rect x="136.053" y="250.526" width="5.07936" height="5.14909" transform="rotate(90 136.053 250.526)" fill="#A1A1A1"/>
<rect x="74.2637" y="250.526" width="5.07937" height="5.14909" transform="rotate(90 74.2637 250.526)" fill="#A1A1A1"/>
<rect x="197.842" y="250.526" width="5.07936" height="5.14909" transform="rotate(90 197.842 250.526)" fill="#A1A1A1"/>
<rect x="197.842" y="6.71729" width="5.07936" height="5.14909" transform="rotate(90 197.842 6.71729)" fill="#A1A1A1"/>
<rect x="197.842" y="67.6699" width="5.07936" height="5.14909" transform="rotate(90 197.842 67.6699)" fill="#A1A1A1"/>
<rect x="197.842" y="128.622" width="5.07936" height="5.14909" transform="rotate(90 197.842 128.622)" fill="#A1A1A1"/>
<rect x="197.842" y="189.574" width="5.07936" height="5.14909" transform="rotate(90 197.842 189.574)" fill="#A1A1A1"/>
<rect x="79.4121" y="6.71729" width="5.07936" height="5.14909" transform="rotate(90 79.4121 6.71729)" fill="#A1A1A1"/>
<rect x="79.4121" y="67.6699" width="5.07936" height="5.14909" transform="rotate(90 79.4121 67.6699)" fill="#A1A1A1"/>
<rect x="79.4121" y="128.622" width="5.07936" height="5.14909" transform="rotate(90 79.4121 128.622)" fill="#A1A1A1"/>
<rect x="79.4121" y="189.574" width="5.07936" height="5.14909" transform="rotate(90 79.4121 189.574)" fill="#A1A1A1"/>
<rect x="141.201" y="6.71729" width="5.07936" height="5.14909" transform="rotate(90 141.201 6.71729)" fill="#A1A1A1"/>
<rect x="141.201" y="67.6699" width="5.07936" height="5.14909" transform="rotate(90 141.201 67.6699)" fill="#A1A1A1"/>
<rect x="141.201" y="128.622" width="5.07936" height="5.14909" transform="rotate(90 141.201 128.622)" fill="#A1A1A1"/>
<rect x="141.201" y="189.574" width="5.07936" height="5.14909" transform="rotate(90 141.201 189.574)" fill="#A1A1A1"/>
<rect x="141.201" y="250.526" width="5.07936" height="5.14909" transform="rotate(90 141.201 250.526)" fill="#A1A1A1"/>
<rect x="79.4121" y="250.526" width="5.07936" height="5.14909" transform="rotate(90 79.4121 250.526)" fill="#A1A1A1"/>
<rect x="202.99" y="250.526" width="5.07936" height="5.14909" transform="rotate(90 202.99 250.526)" fill="#A1A1A1"/>
<rect x="202.99" y="6.71729" width="5.07936" height="5.14909" transform="rotate(90 202.99 6.71729)" fill="#A1A1A1"/>
<rect x="202.99" y="67.6699" width="5.07936" height="5.14909" transform="rotate(90 202.99 67.6699)" fill="#A1A1A1"/>
<rect x="202.99" y="128.622" width="5.07936" height="5.14909" transform="rotate(90 202.99 128.622)" fill="#A1A1A1"/>
<rect x="202.99" y="189.574" width="5.07936" height="5.14909" transform="rotate(90 202.99 189.574)" fill="#A1A1A1"/>
<rect x="84.5625" y="6.71729" width="5.07936" height="5.14909" transform="rotate(90 84.5625 6.71729)" fill="#A1A1A1"/>
<rect x="84.5625" y="67.6699" width="5.07936" height="5.14909" transform="rotate(90 84.5625 67.6699)" fill="#A1A1A1"/>
<rect x="84.5625" y="128.622" width="5.07936" height="5.14909" transform="rotate(90 84.5625 128.622)" fill="#A1A1A1"/>
<rect x="84.5625" y="189.574" width="5.07936" height="5.14909" transform="rotate(90 84.5625 189.574)" fill="#A1A1A1"/>
<rect x="146.352" y="6.71729" width="5.07936" height="5.14909" transform="rotate(90 146.352 6.71729)" fill="#A1A1A1"/>
<rect x="146.352" y="67.6699" width="5.07936" height="5.14909" transform="rotate(90 146.352 67.6699)" fill="#A1A1A1"/>
<rect x="146.352" y="128.622" width="5.07936" height="5.14909" transform="rotate(90 146.352 128.622)" fill="#A1A1A1"/>
<rect x="146.352" y="189.574" width="5.07936" height="5.14909" transform="rotate(90 146.352 189.574)" fill="#A1A1A1"/>
<rect x="146.352" y="250.526" width="5.07936" height="5.14909" transform="rotate(90 146.352 250.526)" fill="#A1A1A1"/>
<rect x="84.5625" y="250.526" width="5.07937" height="5.14909" transform="rotate(90 84.5625 250.526)" fill="#A1A1A1"/>
<rect x="208.141" y="250.526" width="5.07936" height="5.14909" transform="rotate(90 208.141 250.526)" fill="#A1A1A1"/>
<rect x="208.141" y="6.71729" width="5.07936" height="5.14909" transform="rotate(90 208.141 6.71729)" fill="#A1A1A1"/>
<rect x="208.141" y="67.6699" width="5.07936" height="5.14909" transform="rotate(90 208.141 67.6699)" fill="#A1A1A1"/>
<rect x="208.141" y="128.622" width="5.07936" height="5.14909" transform="rotate(90 208.141 128.622)" fill="#A1A1A1"/>
<rect x="208.141" y="189.574" width="5.07936" height="5.14909" transform="rotate(90 208.141 189.574)" fill="#A1A1A1"/>
<rect x="84.5625" y="11.7979" width="5.07936" height="5.14909" transform="rotate(90 84.5625 11.7979)" fill="#A1A1A1"/>
<rect x="84.5625" y="72.75" width="5.07936" height="5.14909" transform="rotate(90 84.5625 72.75)" fill="#A1A1A1"/>
<rect x="84.5625" y="133.702" width="5.07936" height="5.14909" transform="rotate(90 84.5625 133.702)" fill="#A1A1A1"/>
<rect x="84.5625" y="194.654" width="5.07936" height="5.14909" transform="rotate(90 84.5625 194.654)" fill="#A1A1A1"/>
<rect x="146.352" y="11.7979" width="5.07936" height="5.14909" transform="rotate(90 146.352 11.7979)" fill="#A1A1A1"/>
<rect x="146.352" y="72.75" width="5.07936" height="5.14909" transform="rotate(90 146.352 72.75)" fill="#A1A1A1"/>
<rect x="146.352" y="133.702" width="5.07936" height="5.14909" transform="rotate(90 146.352 133.702)" fill="#A1A1A1"/>
<rect x="146.352" y="194.654" width="5.07936" height="5.14909" transform="rotate(90 146.352 194.654)" fill="#A1A1A1"/>
<rect x="146.352" y="255.607" width="5.07936" height="5.14909" transform="rotate(90 146.352 255.607)" fill="#A1A1A1"/>
<rect x="84.5625" y="255.607" width="5.07937" height="5.14909" transform="rotate(90 84.5625 255.607)" fill="#A1A1A1"/>
<rect x="208.141" y="255.607" width="5.07936" height="5.14909" transform="rotate(90 208.141 255.607)" fill="#A1A1A1"/>
<rect x="208.141" y="11.7979" width="5.07936" height="5.14909" transform="rotate(90 208.141 11.7979)" fill="#A1A1A1"/>
<rect x="208.141" y="72.75" width="5.07936" height="5.14909" transform="rotate(90 208.141 72.75)" fill="#A1A1A1"/>
<rect x="208.141" y="133.702" width="5.07936" height="5.14909" transform="rotate(90 208.141 133.702)" fill="#A1A1A1"/>
<rect x="208.141" y="194.654" width="5.07936" height="5.14909" transform="rotate(90 208.141 194.654)" fill="#A1A1A1"/>
<rect x="79.4121" y="11.7979" width="5.07936" height="5.14909" transform="rotate(90 79.4121 11.7979)" fill="#A1A1A1"/>
<rect x="79.4121" y="72.75" width="5.07936" height="5.14909" transform="rotate(90 79.4121 72.75)" fill="#A1A1A1"/>
<rect x="79.4121" y="133.702" width="5.07936" height="5.14909" transform="rotate(90 79.4121 133.702)" fill="#A1A1A1"/>
<rect x="79.4121" y="194.654" width="5.07936" height="5.14909" transform="rotate(90 79.4121 194.654)" fill="#A1A1A1"/>
<rect x="141.201" y="11.7979" width="5.07936" height="5.14909" transform="rotate(90 141.201 11.7979)" fill="#A1A1A1"/>
<rect x="141.201" y="72.75" width="5.07936" height="5.14909" transform="rotate(90 141.201 72.75)" fill="#A1A1A1"/>
<rect x="141.201" y="133.702" width="5.07936" height="5.14909" transform="rotate(90 141.201 133.702)" fill="#A1A1A1"/>
<rect x="141.201" y="194.654" width="5.07936" height="5.14909" transform="rotate(90 141.201 194.654)" fill="#A1A1A1"/>
<rect x="141.201" y="255.607" width="5.07936" height="5.14909" transform="rotate(90 141.201 255.607)" fill="#A1A1A1"/>
<rect x="79.4121" y="255.607" width="5.07936" height="5.14909" transform="rotate(90 79.4121 255.607)" fill="#A1A1A1"/>
<rect x="202.99" y="255.607" width="5.07936" height="5.14909" transform="rotate(90 202.99 255.607)" fill="#A1A1A1"/>
<rect x="202.99" y="11.7979" width="5.07936" height="5.14909" transform="rotate(90 202.99 11.7979)" fill="#A1A1A1"/>
<rect x="202.99" y="72.75" width="5.07936" height="5.14909" transform="rotate(90 202.99 72.75)" fill="#A1A1A1"/>
<rect x="202.99" y="133.702" width="5.07936" height="5.14909" transform="rotate(90 202.99 133.702)" fill="#A1A1A1"/>
<rect x="202.99" y="194.654" width="5.07936" height="5.14909" transform="rotate(90 202.99 194.654)" fill="#A1A1A1"/>
<rect x="74.2637" y="11.7979" width="5.07936" height="5.14909" transform="rotate(90 74.2637 11.7979)" fill="#A1A1A1"/>
<rect x="74.2637" y="72.75" width="5.07936" height="5.14909" transform="rotate(90 74.2637 72.75)" fill="#A1A1A1"/>
<rect x="74.2637" y="133.702" width="5.07936" height="5.14909" transform="rotate(90 74.2637 133.702)" fill="#A1A1A1"/>
<rect x="74.2637" y="194.654" width="5.07936" height="5.14909" transform="rotate(90 74.2637 194.654)" fill="#A1A1A1"/>
<rect x="136.053" y="11.7979" width="5.07936" height="5.14909" transform="rotate(90 136.053 11.7979)" fill="#A1A1A1"/>
<rect x="136.053" y="72.75" width="5.07936" height="5.14909" transform="rotate(90 136.053 72.75)" fill="#A1A1A1"/>
<rect x="136.053" y="133.702" width="5.07936" height="5.14909" transform="rotate(90 136.053 133.702)" fill="#A1A1A1"/>
<rect x="136.053" y="194.654" width="5.07936" height="5.14909" transform="rotate(90 136.053 194.654)" fill="#A1A1A1"/>
<rect x="136.053" y="255.607" width="5.07936" height="5.14909" transform="rotate(90 136.053 255.607)" fill="#A1A1A1"/>
<rect x="74.2637" y="255.607" width="5.07937" height="5.14909" transform="rotate(90 74.2637 255.607)" fill="#A1A1A1"/>
<rect x="197.842" y="255.607" width="5.07936" height="5.14909" transform="rotate(90 197.842 255.607)" fill="#A1A1A1"/>
<rect x="197.842" y="11.7979" width="5.07936" height="5.14909" transform="rotate(90 197.842 11.7979)" fill="#A1A1A1"/>
<rect x="197.842" y="72.75" width="5.07936" height="5.14909" transform="rotate(90 197.842 72.75)" fill="#A1A1A1"/>
<rect x="197.842" y="133.702" width="5.07936" height="5.14909" transform="rotate(90 197.842 133.702)" fill="#A1A1A1"/>
<rect x="197.842" y="194.654" width="5.07936" height="5.14909" transform="rotate(90 197.842 194.654)" fill="#A1A1A1"/>
<rect x="74.2637" y="16.876" width="5.07936" height="5.14909" transform="rotate(90 74.2637 16.876)" fill="#A1A1A1"/>
<rect x="74.2637" y="77.8281" width="5.07936" height="5.14909" transform="rotate(90 74.2637 77.8281)" fill="#A1A1A1"/>
<rect x="74.2637" y="138.78" width="5.07936" height="5.14909" transform="rotate(90 74.2637 138.78)" fill="#A1A1A1"/>
<rect x="74.2637" y="199.733" width="5.07936" height="5.14909" transform="rotate(90 74.2637 199.733)" fill="#A1A1A1"/>
<rect x="69.1133" y="21.9561" width="5.07936" height="5.14909" transform="rotate(90 69.1133 21.9561)" fill="#A1A1A1"/>
<rect x="63.9648" y="27.0342" width="5.07936" height="5.14909" transform="rotate(90 63.9648 27.0342)" fill="#A1A1A1"/>
<rect x="58.8164" y="32.1143" width="5.07936" height="5.14909" transform="rotate(90 58.8164 32.1143)" fill="#A1A1A1"/>
<rect x="53.666" y="37.1948" width="5.07936" height="5.14909" transform="rotate(90 53.666 37.1948)" fill="#A1A1A1"/>
<rect x="43.3691" y="47.353" width="5.07936" height="5.14909" transform="rotate(90 43.3691 47.353)" fill="#A1A1A1"/>
<rect x="38.2188" y="52.4312" width="5.07936" height="5.14909" transform="rotate(90 38.2188 52.4312)" fill="#A1A1A1"/>
<rect x="33.0703" y="57.5112" width="5.07936" height="5.14909" transform="rotate(90 33.0703 57.5112)" fill="#A1A1A1"/>
<rect x="136.053" y="16.876" width="5.07936" height="5.14909" transform="rotate(90 136.053 16.876)" fill="#A1A1A1"/>
<rect x="136.053" y="77.8281" width="5.07936" height="5.14909" transform="rotate(90 136.053 77.8281)" fill="#A1A1A1"/>
<rect x="136.053" y="138.78" width="5.07936" height="5.14909" transform="rotate(90 136.053 138.78)" fill="#A1A1A1"/>
<rect x="136.053" y="199.733" width="5.07936" height="5.14909" transform="rotate(90 136.053 199.733)" fill="#A1A1A1"/>
<rect x="136.053" y="260.685" width="5.07936" height="5.14909" transform="rotate(90 136.053 260.685)" fill="#A1A1A1"/>
<rect x="74.2637" y="260.685" width="5.07937" height="5.14909" transform="rotate(90 74.2637 260.685)" fill="#A1A1A1"/>
<rect x="197.842" y="260.685" width="5.07936" height="5.14909" transform="rotate(90 197.842 260.685)" fill="#A1A1A1"/>
<rect x="197.842" y="16.876" width="5.07936" height="5.14909" transform="rotate(90 197.842 16.876)" fill="#A1A1A1"/>
<rect x="197.842" y="77.8281" width="5.07936" height="5.14909" transform="rotate(90 197.842 77.8281)" fill="#A1A1A1"/>
<rect x="197.842" y="138.78" width="5.07936" height="5.14909" transform="rotate(90 197.842 138.78)" fill="#A1A1A1"/>
<rect x="197.842" y="199.733" width="5.07936" height="5.14909" transform="rotate(90 197.842 199.733)" fill="#A1A1A1"/>
<rect x="79.4121" y="16.876" width="5.07936" height="5.14909" transform="rotate(90 79.4121 16.876)" fill="#A1A1A1"/>
<rect x="79.4121" y="77.8281" width="5.07936" height="5.14909" transform="rotate(90 79.4121 77.8281)" fill="#A1A1A1"/>
<rect x="79.4121" y="138.78" width="5.07936" height="5.14909" transform="rotate(90 79.4121 138.78)" fill="#A1A1A1"/>
<rect x="79.4121" y="199.733" width="5.07936" height="5.14909" transform="rotate(90 79.4121 199.733)" fill="#A1A1A1"/>
<rect x="141.201" y="16.876" width="5.07936" height="5.14909" transform="rotate(90 141.201 16.876)" fill="#A1A1A1"/>
<rect x="141.201" y="77.8281" width="5.07936" height="5.14909" transform="rotate(90 141.201 77.8281)" fill="#A1A1A1"/>
<rect x="141.201" y="138.78" width="5.07936" height="5.14909" transform="rotate(90 141.201 138.78)" fill="#A1A1A1"/>
<rect x="141.201" y="199.733" width="5.07936" height="5.14909" transform="rotate(90 141.201 199.733)" fill="#A1A1A1"/>
<rect x="141.201" y="260.685" width="5.07936" height="5.14909" transform="rotate(90 141.201 260.685)" fill="#A1A1A1"/>
<rect x="79.4121" y="260.685" width="5.07936" height="5.14909" transform="rotate(90 79.4121 260.685)" fill="#A1A1A1"/>
<rect x="202.99" y="260.685" width="5.07936" height="5.14909" transform="rotate(90 202.99 260.685)" fill="#A1A1A1"/>
<rect x="202.99" y="16.876" width="5.07936" height="5.14909" transform="rotate(90 202.99 16.876)" fill="#A1A1A1"/>
<rect x="202.99" y="77.8281" width="5.07936" height="5.14909" transform="rotate(90 202.99 77.8281)" fill="#A1A1A1"/>
<rect x="202.99" y="138.78" width="5.07936" height="5.14909" transform="rotate(90 202.99 138.78)" fill="#A1A1A1"/>
<rect x="202.99" y="199.733" width="5.07936" height="5.14909" transform="rotate(90 202.99 199.733)" fill="#A1A1A1"/>
<rect x="84.5625" y="16.876" width="5.07936" height="5.14909" transform="rotate(90 84.5625 16.876)" fill="#A1A1A1"/>
<rect x="84.5625" y="77.8281" width="5.07936" height="5.14909" transform="rotate(90 84.5625 77.8281)" fill="#A1A1A1"/>
<rect x="84.5625" y="138.78" width="5.07936" height="5.14909" transform="rotate(90 84.5625 138.78)" fill="#A1A1A1"/>
<rect x="84.5625" y="199.733" width="5.07936" height="5.14909" transform="rotate(90 84.5625 199.733)" fill="#A1A1A1"/>
<rect x="146.352" y="16.876" width="5.07936" height="5.14909" transform="rotate(90 146.352 16.876)" fill="#A1A1A1"/>
<rect x="146.352" y="77.8281" width="5.07936" height="5.14909" transform="rotate(90 146.352 77.8281)" fill="#A1A1A1"/>
<rect x="146.352" y="138.78" width="5.07936" height="5.14909" transform="rotate(90 146.352 138.78)" fill="#A1A1A1"/>
<rect x="146.352" y="199.733" width="5.07936" height="5.14909" transform="rotate(90 146.352 199.733)" fill="#A1A1A1"/>
<rect x="151.5" y="21.9561" width="5.07936" height="5.14909" transform="rotate(90 151.5 21.9561)" fill="#A1A1A1"/>
<rect x="89.7109" y="21.9561" width="5.07936" height="5.14909" transform="rotate(90 89.7109 21.9561)" fill="#A1A1A1"/>
<rect x="146.352" y="260.685" width="5.07936" height="5.14909" transform="rotate(90 146.352 260.685)" fill="#A1A1A1"/>
<rect x="84.5625" y="260.685" width="5.07937" height="5.14909" transform="rotate(90 84.5625 260.685)" fill="#A1A1A1"/>
<rect x="208.141" y="260.685" width="5.07936" height="5.14909" transform="rotate(90 208.141 260.685)" fill="#A1A1A1"/>
<rect x="208.141" y="16.876" width="5.07936" height="5.14909" transform="rotate(90 208.141 16.876)" fill="#A1A1A1"/>
<rect x="208.141" y="77.8281" width="5.07936" height="5.14909" transform="rotate(90 208.141 77.8281)" fill="#A1A1A1"/>
<rect x="208.141" y="138.78" width="5.07936" height="5.14909" transform="rotate(90 208.141 138.78)" fill="#A1A1A1"/>
<rect x="208.141" y="199.733" width="5.07936" height="5.14909" transform="rotate(90 208.141 199.733)" fill="#A1A1A1"/>
<rect x="213.289" y="21.9561" width="5.07936" height="5.14909" transform="rotate(90 213.289 21.9561)" fill="#A1A1A1"/>
<rect x="239.035" y="47.353" width="5.07936" height="5.14909" transform="rotate(90 239.035 47.353)" fill="#A1A1A1"/>
<rect x="218.438" y="27.0342" width="5.07936" height="5.14909" transform="rotate(90 218.438 27.0342)" fill="#A1A1A1"/>
<rect x="244.184" y="52.4312" width="5.07936" height="5.14909" transform="rotate(90 244.184 52.4312)" fill="#A1A1A1"/>
<rect x="223.588" y="32.1143" width="5.07936" height="5.14909" transform="rotate(90 223.588 32.1143)" fill="#A1A1A1"/>
<rect x="249.332" y="57.5112" width="5.07936" height="5.14909" transform="rotate(90 249.332 57.5112)" fill="#A1A1A1"/>
<rect x="228.736" y="37.1948" width="5.07936" height="5.14909" transform="rotate(90 228.736 37.1948)" fill="#A1A1A1"/>
<rect x="254.482" y="62.5898" width="5.07936" height="5.14909" transform="rotate(90 254.482 62.5898)" fill="#A1A1A1"/>
<rect x="22.7715" y="189.574" width="5.07936" height="5.14909" transform="rotate(90 22.7715 189.574)" fill="#A1A1A1"/>
<rect x="269.93" y="189.574" width="5.07936" height="5.14909" transform="rotate(90 269.93 189.574)" fill="#A1A1A1"/>
<rect x="269.93" y="128.622" width="5.07936" height="5.14909" transform="rotate(90 269.93 128.622)" fill="#A1A1A1"/>
<rect x="269.93" y="11.7979" width="5.07936" height="5.14909" transform="rotate(90 269.93 11.7979)" fill="#A1A1A1"/>
<rect x="269.93" y="72.75" width="5.07936" height="5.14909" transform="rotate(90 269.93 72.75)" fill="#A1A1A1"/>
<rect x="22.7715" y="11.7979" width="5.07936" height="5.14909" transform="rotate(90 22.7715 11.7979)" fill="#A1A1A1"/>
<rect x="22.7715" y="72.75" width="5.07936" height="5.14909" transform="rotate(90 22.7715 72.75)" fill="#A1A1A1"/>
<rect x="22.7715" y="255.607" width="5.07936" height="5.14909" transform="rotate(90 22.7715 255.607)" fill="#A1A1A1"/>
<rect x="22.7715" y="194.654" width="5.07936" height="5.14909" transform="rotate(90 22.7715 194.654)" fill="#A1A1A1"/>
<rect x="269.93" y="194.654" width="5.07936" height="5.14909" transform="rotate(90 269.93 194.654)" fill="#A1A1A1"/>
<rect x="269.93" y="133.702" width="5.07936" height="5.14909" transform="rotate(90 269.93 133.702)" fill="#A1A1A1"/>
<rect x="269.93" y="16.876" width="5.07936" height="5.14909" transform="rotate(90 269.93 16.876)" fill="#A1A1A1"/>
<rect x="269.93" y="77.8281" width="5.07936" height="5.14909" transform="rotate(90 269.93 77.8281)" fill="#A1A1A1"/>
<rect x="22.7715" y="16.876" width="5.07936" height="5.14909" transform="rotate(90 22.7715 16.876)" fill="#A1A1A1"/>
<rect x="22.7715" y="77.8281" width="5.07936" height="5.14909" transform="rotate(90 22.7715 77.8281)" fill="#A1A1A1"/>
<rect x="27.9219" y="21.9561" width="5.07936" height="5.14909" transform="rotate(90 27.9219 21.9561)" fill="#A1A1A1"/>
<rect x="177.246" y="47.353" width="5.07936" height="5.14909" transform="rotate(90 177.246 47.353)" fill="#A1A1A1"/>
<rect x="151.5" y="82.9082" width="5.07936" height="5.14909" transform="rotate(90 151.5 82.9082)" fill="#A1A1A1"/>
<rect x="115.457" y="47.353" width="5.07936" height="5.14909" transform="rotate(90 115.457 47.353)" fill="#A1A1A1"/>
<rect x="156.648" y="209.893" width="5.07936" height="5.14909" transform="rotate(90 156.648 209.893)" fill="#A1A1A1"/>
<rect x="43.3691" y="98.147" width="5.07936" height="5.14909" transform="rotate(90 43.3691 98.147)" fill="#A1A1A1"/>
<rect x="33.0703" y="27.0342" width="5.07936" height="5.14909" transform="rotate(90 33.0703 27.0342)" fill="#A1A1A1"/>
<rect x="182.395" y="52.4312" width="5.07936" height="5.14909" transform="rotate(90 182.395 52.4312)" fill="#A1A1A1"/>
<rect x="156.648" y="87.9868" width="5.07936" height="5.14909" transform="rotate(90 156.648 87.9868)" fill="#A1A1A1"/>
<rect x="120.605" y="52.4312" width="5.07936" height="5.14909" transform="rotate(90 120.605 52.4312)" fill="#A1A1A1"/>
<rect x="151.5" y="143.86" width="5.07936" height="5.14909" transform="rotate(90 151.5 143.86)" fill="#A1A1A1"/>
<rect x="177.246" y="108.305" width="5.07936" height="5.14909" transform="rotate(90 177.246 108.305)" fill="#A1A1A1"/>
<rect x="161.799" y="214.971" width="5.07936" height="5.14909" transform="rotate(90 161.799 214.971)" fill="#A1A1A1"/>
<rect x="38.2188" y="32.1143" width="5.07936" height="5.14909" transform="rotate(90 38.2188 32.1143)" fill="#A1A1A1"/>
<rect x="89.7109" y="82.9082" width="5.07936" height="5.14909" transform="rotate(90 89.7109 82.9082)" fill="#A1A1A1"/>
<rect x="187.543" y="57.5112" width="5.07936" height="5.14909" transform="rotate(90 187.543 57.5112)" fill="#A1A1A1"/>
<rect x="161.799" y="93.0669" width="5.07936" height="5.14909" transform="rotate(90 161.799 93.0669)" fill="#A1A1A1"/>
<rect x="125.754" y="57.5112" width="5.07936" height="5.14909" transform="rotate(90 125.754 57.5112)" fill="#A1A1A1"/>
<rect x="156.648" y="148.939" width="5.07936" height="5.14909" transform="rotate(90 156.648 148.939)" fill="#A1A1A1"/>
<rect x="182.395" y="113.383" width="5.07936" height="5.14909" transform="rotate(90 182.395 113.383)" fill="#A1A1A1"/>
<rect x="166.947" y="220.051" width="5.07936" height="5.14909" transform="rotate(90 166.947 220.051)" fill="#A1A1A1"/>
<rect x="53.666" y="108.305" width="5.07936" height="5.14909" transform="rotate(90 53.666 108.305)" fill="#A1A1A1"/>
<rect x="43.3691" y="37.1948" width="5.07936" height="5.14909" transform="rotate(90 43.3691 37.1948)" fill="#A1A1A1"/>
<rect x="94.8594" y="87.9868" width="5.07936" height="5.14909" transform="rotate(90 94.8594 87.9868)" fill="#A1A1A1"/>
<rect x="192.693" y="62.5898" width="5.07936" height="5.14909" transform="rotate(90 192.693 62.5898)" fill="#A1A1A1"/>
<rect x="166.947" y="98.147" width="5.07936" height="5.14909" transform="rotate(90 166.947 98.147)" fill="#A1A1A1"/>
<rect x="161.799" y="154.019" width="5.07936" height="5.14909" transform="rotate(90 161.799 154.019)" fill="#A1A1A1"/>
<rect x="187.543" y="118.464" width="5.07936" height="5.14909" transform="rotate(90 187.543 118.464)" fill="#A1A1A1"/>
<rect x="213.289" y="204.813" width="5.07936" height="5.14909" transform="rotate(90 213.289 204.813)" fill="#A1A1A1"/>
<rect x="239.035" y="169.257" width="5.07936" height="5.14909" transform="rotate(90 239.035 169.257)" fill="#A1A1A1"/>
<rect x="172.096" y="225.13" width="5.07936" height="5.14909" transform="rotate(90 172.096 225.13)" fill="#A1A1A1"/>
<rect x="58.8164" y="113.383" width="5.07936" height="5.14909" transform="rotate(90 58.8164 113.383)" fill="#A1A1A1"/>
<rect x="27.9219" y="143.86" width="5.07936" height="5.14909" transform="rotate(90 27.9219 143.86)" fill="#A1A1A1"/>
<rect x="63.9648" y="179.416" width="5.07936" height="5.14909" transform="rotate(90 63.9648 179.416)" fill="#A1A1A1"/>
<rect x="33.0703" y="209.893" width="5.07936" height="5.14909" transform="rotate(90 33.0703 209.893)" fill="#A1A1A1"/>
<rect x="22.7715" y="138.78" width="5.07936" height="5.14909" transform="rotate(90 22.7715 138.78)" fill="#A1A1A1"/>
<rect x="58.8164" y="174.336" width="5.07936" height="5.14909" transform="rotate(90 58.8164 174.336)" fill="#A1A1A1"/>
<rect x="27.9219" y="204.813" width="5.07936" height="5.14909" transform="rotate(90 27.9219 204.813)" fill="#A1A1A1"/>
<rect x="17.623" y="133.702" width="5.07936" height="5.14909" transform="rotate(90 17.623 133.702)" fill="#A1A1A1"/>
<rect x="53.666" y="169.257" width="5.07936" height="5.14909" transform="rotate(90 53.666 169.257)" fill="#A1A1A1"/>
<rect x="48.5176" y="42.2729" width="5.07936" height="5.14909" transform="rotate(90 48.5176 42.2729)" fill="#A1A1A1"/>
<rect x="100.01" y="93.0669" width="5.07936" height="5.14909" transform="rotate(90 100.01 93.0669)" fill="#A1A1A1"/>
<rect x="166.947" y="159.099" width="5.07936" height="5.14909" transform="rotate(90 166.947 159.099)" fill="#A1A1A1"/>
<rect x="192.693" y="123.544" width="5.07936" height="5.14909" transform="rotate(90 192.693 123.544)" fill="#A1A1A1"/>
<rect x="218.438" y="209.893" width="5.07936" height="5.14909" transform="rotate(90 218.438 209.893)" fill="#A1A1A1"/>
<rect x="244.184" y="174.336" width="5.07936" height="5.14909" transform="rotate(90 244.184 174.336)" fill="#A1A1A1"/>
<rect x="177.246" y="230.21" width="5.07936" height="5.14909" transform="rotate(90 177.246 230.21)" fill="#A1A1A1"/>
<rect x="63.9648" y="118.464" width="5.07936" height="5.14909" transform="rotate(90 63.9648 118.464)" fill="#A1A1A1"/>
<rect x="33.0703" y="148.939" width="5.07936" height="5.14909" transform="rotate(90 33.0703 148.939)" fill="#A1A1A1"/>
<rect x="69.1133" y="184.496" width="5.07936" height="5.14909" transform="rotate(90 69.1133 184.496)" fill="#A1A1A1"/>
<rect x="38.2188" y="214.971" width="5.07936" height="5.14909" transform="rotate(90 38.2188 214.971)" fill="#A1A1A1"/>
<rect x="53.666" y="47.353" width="5.07936" height="5.14909" transform="rotate(90 53.666 47.353)" fill="#A1A1A1"/>
<rect x="105.158" y="98.147" width="5.07936" height="5.14909" transform="rotate(90 105.158 98.147)" fill="#A1A1A1"/>
<rect x="223.588" y="214.971" width="5.07936" height="5.14909" transform="rotate(90 223.588 214.971)" fill="#A1A1A1"/>
<rect x="249.332" y="179.416" width="5.07936" height="5.14909" transform="rotate(90 249.332 179.416)" fill="#A1A1A1"/>
<rect x="182.395" y="235.288" width="5.07936" height="5.14909" transform="rotate(90 182.395 235.288)" fill="#A1A1A1"/>
<rect x="69.1133" y="123.544" width="5.07936" height="5.14909" transform="rotate(90 69.1133 123.544)" fill="#A1A1A1"/>
<rect x="38.2188" y="154.019" width="5.07936" height="5.14909" transform="rotate(90 38.2188 154.019)" fill="#A1A1A1"/>
<rect x="43.3691" y="220.051" width="5.07936" height="5.14909" transform="rotate(90 43.3691 220.051)" fill="#A1A1A1"/>
<rect x="58.8164" y="52.4312" width="5.07936" height="5.14909" transform="rotate(90 58.8164 52.4312)" fill="#A1A1A1"/>
<rect x="156.648" y="27.0342" width="5.07936" height="5.14909" transform="rotate(90 156.648 27.0342)" fill="#A1A1A1"/>
<rect x="130.904" y="62.5898" width="5.07936" height="5.14909" transform="rotate(90 130.904 62.5898)" fill="#A1A1A1"/>
<rect x="94.8594" y="27.0342" width="5.07936" height="5.14909" transform="rotate(90 94.8594 27.0342)" fill="#A1A1A1"/>
<rect x="110.307" y="103.225" width="5.07936" height="5.14909" transform="rotate(90 110.307 103.225)" fill="#A1A1A1"/>
<rect x="177.246" y="169.257" width="5.07936" height="5.14909" transform="rotate(90 177.246 169.257)" fill="#A1A1A1"/>
<rect x="228.736" y="220.051" width="5.07936" height="5.14909" transform="rotate(90 228.736 220.051)" fill="#A1A1A1"/>
<rect x="254.482" y="184.496" width="5.07936" height="5.14909" transform="rotate(90 254.482 184.496)" fill="#A1A1A1"/>
<rect x="187.543" y="240.368" width="5.07936" height="5.14909" transform="rotate(90 187.543 240.368)" fill="#A1A1A1"/>
<rect x="43.3691" y="159.099" width="5.07936" height="5.14909" transform="rotate(90 43.3691 159.099)" fill="#A1A1A1"/>
<rect x="105.158" y="220.051" width="5.07936" height="5.14909" transform="rotate(90 105.158 220.051)" fill="#A1A1A1"/>
<rect x="69.1133" y="245.448" width="5.07936" height="5.14909" transform="rotate(90 69.1133 245.448)" fill="#A1A1A1"/>
<rect x="130.904" y="245.448" width="5.07936" height="5.14909" transform="rotate(90 130.904 245.448)" fill="#A1A1A1"/>
<rect x="249.332" y="240.368" width="5.07936" height="5.14909" transform="rotate(90 249.332 240.368)" fill="#A1A1A1"/>
<rect x="254.482" y="123.544" width="5.07936" height="5.14909" transform="rotate(90 254.482 123.544)" fill="#A1A1A1"/>
<rect x="223.588" y="154.019" width="5.07936" height="5.14909" transform="rotate(90 223.588 154.019)" fill="#A1A1A1"/>
<rect x="130.904" y="184.496" width="5.07936" height="5.14909" transform="rotate(90 130.904 184.496)" fill="#A1A1A1"/>
<rect x="100.01" y="214.971" width="5.07936" height="5.14909" transform="rotate(90 100.01 214.971)" fill="#A1A1A1"/>
<rect x="63.9648" y="240.368" width="5.07936" height="5.14909" transform="rotate(90 63.9648 240.368)" fill="#A1A1A1"/>
<rect x="125.754" y="240.368" width="5.07936" height="5.14909" transform="rotate(90 125.754 240.368)" fill="#A1A1A1"/>
<rect x="94.8594" y="148.939" width="5.07936" height="5.14909" transform="rotate(90 94.8594 148.939)" fill="#A1A1A1"/>
<rect x="63.9648" y="57.5112" width="5.07936" height="5.14909" transform="rotate(90 63.9648 57.5112)" fill="#A1A1A1"/>
<rect x="161.799" y="32.1143" width="5.07936" height="5.14909" transform="rotate(90 161.799 32.1143)" fill="#A1A1A1"/>
<rect x="100.01" y="32.1143" width="5.07936" height="5.14909" transform="rotate(90 100.01 32.1143)" fill="#A1A1A1"/>
<rect x="115.457" y="108.305" width="5.07936" height="5.14909" transform="rotate(90 115.457 108.305)" fill="#A1A1A1"/>
<rect x="213.289" y="82.9082" width="5.07936" height="5.14909" transform="rotate(90 213.289 82.9082)" fill="#A1A1A1"/>
<rect x="182.395" y="174.336" width="5.07936" height="5.14909" transform="rotate(90 182.395 174.336)" fill="#A1A1A1"/>
<rect x="27.9219" y="82.9082" width="5.07936" height="5.14909" transform="rotate(90 27.9219 82.9082)" fill="#A1A1A1"/>
<rect x="233.885" y="225.13" width="5.07936" height="5.14909" transform="rotate(90 233.885 225.13)" fill="#A1A1A1"/>
<rect x="192.693" y="245.448" width="5.07936" height="5.14909" transform="rotate(90 192.693 245.448)" fill="#A1A1A1"/>
<rect x="239.035" y="108.305" width="5.07936" height="5.14909" transform="rotate(90 239.035 108.305)" fill="#A1A1A1"/>
<rect x="115.457" y="169.257" width="5.07936" height="5.14909" transform="rotate(90 115.457 169.257)" fill="#A1A1A1"/>
<rect x="254.482" y="245.448" width="5.07936" height="5.14909" transform="rotate(90 254.482 245.448)" fill="#A1A1A1"/>
<rect x="228.736" y="159.099" width="5.07936" height="5.14909" transform="rotate(90 228.736 159.099)" fill="#A1A1A1"/>
<rect x="100.01" y="154.019" width="5.07936" height="5.14909" transform="rotate(90 100.01 154.019)" fill="#A1A1A1"/>
<rect x="105.158" y="159.099" width="5.07936" height="5.14909" transform="rotate(90 105.158 159.099)" fill="#A1A1A1"/>
<rect x="69.1133" y="62.5898" width="5.07936" height="5.14909" transform="rotate(90 69.1133 62.5898)" fill="#A1A1A1"/>
<rect x="166.947" y="37.1948" width="5.07936" height="5.14909" transform="rotate(90 166.947 37.1948)" fill="#A1A1A1"/>
<rect x="105.158" y="37.1948" width="5.07936" height="5.14909" transform="rotate(90 105.158 37.1948)" fill="#A1A1A1"/>
<rect x="120.605" y="113.383" width="5.07936" height="5.14909" transform="rotate(90 120.605 113.383)" fill="#A1A1A1"/>
<rect x="218.438" y="87.9868" width="5.07936" height="5.14909" transform="rotate(90 218.438 87.9868)" fill="#A1A1A1"/>
<rect x="130.904" y="123.544" width="5.07936" height="5.14909" transform="rotate(90 130.904 123.544)" fill="#A1A1A1"/>
<rect x="228.736" y="98.147" width="5.07936" height="5.14909" transform="rotate(90 228.736 98.147)" fill="#A1A1A1"/>
<rect x="187.543" y="179.416" width="5.07936" height="5.14909" transform="rotate(90 187.543 179.416)" fill="#A1A1A1"/>
<rect x="33.0703" y="87.9868" width="5.07936" height="5.14909" transform="rotate(90 33.0703 87.9868)" fill="#A1A1A1"/>
<rect x="239.035" y="230.21" width="5.07936" height="5.14909" transform="rotate(90 239.035 230.21)" fill="#A1A1A1"/>
<rect x="244.184" y="113.383" width="5.07936" height="5.14909" transform="rotate(90 244.184 113.383)" fill="#A1A1A1"/>
<rect x="213.289" y="143.86" width="5.07936" height="5.14909" transform="rotate(90 213.289 143.86)" fill="#A1A1A1"/>
<rect x="120.605" y="174.336" width="5.07936" height="5.14909" transform="rotate(90 120.605 174.336)" fill="#A1A1A1"/>
<rect x="89.7109" y="204.813" width="5.07936" height="5.14909" transform="rotate(90 89.7109 204.813)" fill="#A1A1A1"/>
<rect x="53.666" y="230.21" width="5.07936" height="5.14909" transform="rotate(90 53.666 230.21)" fill="#A1A1A1"/>
<rect x="115.457" y="230.21" width="5.07936" height="5.14909" transform="rotate(90 115.457 230.21)" fill="#A1A1A1"/>
<rect x="259.631" y="250.526" width="5.07936" height="5.14909" transform="rotate(90 259.631 250.526)" fill="#A1A1A1"/>
<rect x="48.5176" y="164.177" width="5.07936" height="5.14909" transform="rotate(90 48.5176 164.177)" fill="#A1A1A1"/>
<rect x="233.885" y="164.177" width="5.07936" height="5.14909" transform="rotate(90 233.885 164.177)" fill="#A1A1A1"/>
<rect x="177.246" y="220.051" width="5.07936" height="5.14909" transform="rotate(90 177.246 220.051)" fill="#A1A1A1"/>
<rect x="172.096" y="42.2729" width="5.07936" height="5.14909" transform="rotate(90 172.096 42.2729)" fill="#A1A1A1"/>
<rect x="125.754" y="118.464" width="5.07936" height="5.14909" transform="rotate(90 125.754 118.464)" fill="#A1A1A1"/>
<rect x="223.588" y="93.0669" width="5.07936" height="5.14909" transform="rotate(90 223.588 93.0669)" fill="#A1A1A1"/>
<rect x="192.693" y="184.496" width="5.07936" height="5.14909" transform="rotate(90 192.693 184.496)" fill="#A1A1A1"/>
<rect x="151.5" y="204.813" width="5.07936" height="5.14909" transform="rotate(90 151.5 204.813)" fill="#A1A1A1"/>
<rect x="38.2188" y="93.0669" width="5.07936" height="5.14909" transform="rotate(90 38.2188 93.0669)" fill="#A1A1A1"/>
<rect x="244.184" y="235.288" width="5.07936" height="5.14909" transform="rotate(90 244.184 235.288)" fill="#A1A1A1"/>
<rect x="202.99" y="250.526" width="5.07936" height="5.14909" transform="rotate(90 202.99 250.526)" fill="#A1A1A1"/>
<rect x="249.332" y="118.464" width="5.07936" height="5.14909" transform="rotate(90 249.332 118.464)" fill="#A1A1A1"/>
<rect x="218.438" y="148.939" width="5.07936" height="5.14909" transform="rotate(90 218.438 148.939)" fill="#A1A1A1"/>
<rect x="125.754" y="179.416" width="5.07936" height="5.14909" transform="rotate(90 125.754 179.416)" fill="#A1A1A1"/>
<rect x="94.8594" y="209.893" width="5.07936" height="5.14909" transform="rotate(90 94.8594 209.893)" fill="#A1A1A1"/>
<rect x="58.8164" y="235.288" width="5.07936" height="5.14909" transform="rotate(90 58.8164 235.288)" fill="#A1A1A1"/>
<rect x="120.605" y="235.288" width="5.07936" height="5.14909" transform="rotate(90 120.605 235.288)" fill="#A1A1A1"/>
<rect x="89.7109" y="143.86" width="5.07936" height="5.14909" transform="rotate(90 89.7109 143.86)" fill="#A1A1A1"/>
<rect x="22.7715" y="260.685" width="5.07936" height="5.14909" transform="rotate(90 22.7715 260.685)" fill="#A1A1A1"/>
<rect x="22.7715" y="199.733" width="5.07936" height="5.14909" transform="rotate(90 22.7715 199.733)" fill="#A1A1A1"/>
<rect x="269.93" y="199.733" width="5.07936" height="5.14909" transform="rotate(90 269.93 199.733)" fill="#A1A1A1"/>
<rect x="269.93" y="138.78" width="5.07936" height="5.14909" transform="rotate(90 269.93 138.78)" fill="#A1A1A1"/>
<rect x="264.779" y="250.526" width="5.07936" height="5.14909" transform="rotate(90 264.779 250.526)" fill="#A1A1A1"/>
<rect x="264.779" y="255.607" width="5.07936" height="5.14909" transform="rotate(90 264.779 255.607)" fill="#A1A1A1"/>
<rect x="259.631" y="260.685" width="5.07936" height="5.14909" transform="rotate(90 259.631 260.685)" fill="#A1A1A1"/>
<rect x="264.779" y="260.685" width="5.07936" height="5.14909" transform="rotate(90 264.779 260.685)" fill="#A1A1A1"/>
<rect x="269.93" y="260.685" width="5.07936" height="5.14909" transform="rotate(90 269.93 260.685)" fill="#A1A1A1"/>
<rect x="269.93" y="255.607" width="5.07936" height="5.14909" transform="rotate(90 269.93 255.607)" fill="#A1A1A1"/>
<rect x="269.93" y="250.526" width="5.07936" height="5.14909" transform="rotate(90 269.93 250.526)" fill="#A1A1A1"/>
<rect x="254.482" y="260.685" width="5.07936" height="5.14909" transform="rotate(-90 254.482 260.685)" fill="#A1A1A1"/>
<ellipse cx="262.941" cy="259.992" rx="11.94" ry="11.9929" transform="rotate(180 262.941 259.992)" fill="black"/>
<ellipse cx="76.2154" cy="75.3152" rx="11.94" ry="11.9929" fill="white"/>
<ellipse cx="76.9423" cy="259.992" rx="11.9405" ry="11.9929" transform="rotate(180 76.9423 259.992)" fill="black"/>
<ellipse cx="76.7022" cy="11.9929" rx="11.9405" ry="11.9929" fill="white"/>
<ellipse cx="137.942" cy="259.992" rx="11.9405" ry="11.9929" transform="rotate(180 137.942 259.992)" fill="black"/>
<ellipse cx="138.464" cy="11.9929" rx="11.9405" ry="11.9929" fill="white"/>
<ellipse cx="75.9423" cy="197.993" rx="11.9405" ry="11.9929" transform="rotate(180 75.9423 197.993)" fill="black"/>
<ellipse cx="200.71" cy="11.9929" rx="11.9405" ry="11.9929" fill="white"/>
<ellipse cx="11.9409" cy="196.993" rx="11.94" ry="11.9929" transform="rotate(180 11.9409 196.993)" fill="black"/>
<ellipse cx="261.94" cy="11.9929" rx="11.94" ry="11.9929" fill="white"/>
<ellipse cx="200.941" cy="259.992" rx="11.94" ry="11.9929" transform="rotate(180 200.941 259.992)" fill="black"/>
<ellipse cx="199.942" cy="136.993" rx="11.94" ry="11.9929" fill="white"/>
<ellipse cx="263.062" cy="197.164" rx="11.94" ry="11.9929" transform="rotate(180 263.062 197.164)" fill="black"/>
<ellipse cx="75.942" cy="136.993" rx="11.94" ry="11.9929" fill="white"/>
</svg>
