<svg width="272" height="272" viewBox="0 0 272 272" fill="none" xmlns="http://www.w3.org/2000/svg">
<rect x="138.093" y="5.31641" width="5.16129" height="5.31365" fill="#A1A1A1"/>
<rect x="132.932" y="95.6484" width="5.16129" height="5.31365" fill="#A1A1A1"/>
<rect x="132.932" y="191.293" width="5.16129" height="5.31365" fill="#A1A1A1"/>
<rect x="50.3516" y="106.273" width="5.16129" height="5.31365" fill="#A1A1A1"/>
<rect x="215.513" y="106.273" width="5.16129" height="5.31365" fill="#A1A1A1"/>
<rect x="174.223" y="233.801" width="5.16129" height="5.31365" fill="#A1A1A1"/>
<rect x="256.803" y="148.781" width="5.16129" height="5.31365" fill="#A1A1A1"/>
<rect x="127.771" y="5.31641" width="5.16129" height="5.31365" fill="#A1A1A1"/>
<rect x="132.932" y="143.469" width="5.16129" height="5.31365" fill="#A1A1A1"/>
<rect x="132.932" y="239.113" width="5.16129" height="5.31365" fill="#A1A1A1"/>
<rect x="50.3516" y="154.098" width="5.16129" height="5.31365" fill="#A1A1A1"/>
<rect x="215.513" y="154.098" width="5.16129" height="5.31365" fill="#A1A1A1"/>
<rect x="127.771" y="90.332" width="5.16129" height="5.31365" fill="#A1A1A1"/>
<rect x="45.1904" y="90.332" width="5.16129" height="5.31365" fill="#A1A1A1"/>
<rect x="210.352" y="90.332" width="5.16129" height="5.31365" fill="#A1A1A1"/>
<rect x="174.223" y="143.469" width="5.16129" height="5.31365" fill="#A1A1A1"/>
<rect x="138.093" y="217.859" width="5.16129" height="5.31365" fill="#A1A1A1"/>
<rect x="55.5127" y="132.844" width="5.16129" height="5.31365" fill="#A1A1A1"/>
<rect x="220.674" y="132.844" width="5.16129" height="5.31365" fill="#A1A1A1"/>
<rect x="174.223" y="95.6484" width="5.16129" height="5.31365" fill="#A1A1A1"/>
<rect x="122.609" y="5.31641" width="5.16129" height="5.31365" fill="#A1A1A1"/>
<rect x="122.609" y="47.8242" width="5.16129" height="5.31365" fill="#A1A1A1"/>
<rect x="122.609" y="132.844" width="5.16129" height="5.31365" fill="#A1A1A1"/>
<rect x="122.609" y="217.859" width="5.16129" height="5.31365" fill="#A1A1A1"/>
<rect x="40.0283" y="132.844" width="5.16129" height="5.31365" fill="#A1A1A1"/>
<rect x="205.19" y="132.844" width="5.16129" height="5.31365" fill="#A1A1A1"/>
<rect x="122.609" y="90.332" width="5.16129" height="5.31365" fill="#A1A1A1"/>
<rect x="122.609" y="175.352" width="5.16129" height="5.31365" fill="#A1A1A1"/>
<rect x="40.0283" y="90.332" width="5.16129" height="5.31365" fill="#A1A1A1"/>
<rect x="205.19" y="90.332" width="5.16129" height="5.31365" fill="#A1A1A1"/>
<rect x="122.609" y="260.371" width="5.16129" height="5.31365" fill="#A1A1A1"/>
<rect x="205.19" y="175.352" width="5.16129" height="5.31365" fill="#A1A1A1"/>
<rect x="40.0283" y="175.352" width="5.16129" height="5.31365" fill="#A1A1A1"/>
<rect x="169.062" y="47.8242" width="5.16129" height="5.31365" fill="#A1A1A1"/>
<rect x="169.062" y="132.844" width="5.16129" height="5.31365" fill="#A1A1A1"/>
<rect x="169.062" y="217.859" width="5.16129" height="5.31365" fill="#A1A1A1"/>
<rect x="86.4805" y="132.844" width="5.16129" height="5.31365" fill="#A1A1A1"/>
<rect x="251.642" y="132.844" width="5.16129" height="5.31365" fill="#A1A1A1"/>
<rect x="169.062" y="260.371" width="5.16129" height="5.31365" fill="#A1A1A1"/>
<rect x="127.771" y="260.371" width="5.16129" height="5.31365" fill="#A1A1A1"/>
<rect x="251.642" y="175.352" width="5.16129" height="5.31365" fill="#A1A1A1"/>
<rect x="45.1904" y="175.352" width="5.16129" height="5.31365" fill="#A1A1A1"/>
<rect x="210.352" y="175.352" width="5.16129" height="5.31365" fill="#A1A1A1"/>
<rect x="86.4805" y="175.352" width="5.16129" height="5.31365" fill="#A1A1A1"/>
<rect x="169.062" y="10.6289" width="5.16129" height="5.31365" fill="#A1A1A1"/>
<rect x="163.899" y="15.9414" width="5.16129" height="5.31365" fill="#A1A1A1"/>
<rect x="127.771" y="53.1367" width="5.16129" height="5.31365" fill="#A1A1A1"/>
<rect x="158.738" y="21.2539" width="5.16129" height="5.31365" fill="#A1A1A1"/>
<rect x="122.609" y="58.4492" width="5.16129" height="5.31365" fill="#A1A1A1"/>
<rect x="86.4805" y="95.6484" width="5.16129" height="5.31365" fill="#A1A1A1"/>
<rect x="153.577" y="26.5703" width="5.16129" height="5.31365" fill="#A1A1A1"/>
<rect x="117.448" y="63.7656" width="5.16129" height="5.31365" fill="#A1A1A1"/>
<rect x="81.3193" y="100.961" width="5.16129" height="5.31365" fill="#A1A1A1"/>
<rect x="169.062" y="95.6484" width="5.16129" height="5.31365" fill="#A1A1A1"/>
<rect x="45.1904" y="138.156" width="5.16129" height="5.31365" fill="#A1A1A1"/>
<rect x="148.416" y="31.8828" width="5.16129" height="5.31365" fill="#A1A1A1"/>
<rect x="112.287" y="69.0781" width="5.16129" height="5.31365" fill="#A1A1A1"/>
<rect x="76.1582" y="106.273" width="5.16129" height="5.31365" fill="#A1A1A1"/>
<rect x="163.899" y="100.961" width="5.16129" height="5.31365" fill="#A1A1A1"/>
<rect x="127.771" y="138.156" width="5.16129" height="5.31365" fill="#A1A1A1"/>
<rect x="127.771" y="180.664" width="5.16129" height="5.31365" fill="#A1A1A1"/>
<rect x="169.062" y="180.664" width="5.16129" height="5.31365" fill="#A1A1A1"/>
<rect x="127.771" y="223.176" width="5.16129" height="5.31365" fill="#A1A1A1"/>
<rect x="210.352" y="138.156" width="5.16129" height="5.31365" fill="#A1A1A1"/>
<rect x="251.642" y="95.6484" width="5.16129" height="5.31365" fill="#A1A1A1"/>
<rect x="40.0283" y="143.469" width="5.16129" height="5.31365" fill="#A1A1A1"/>
<rect x="143.255" y="37.1953" width="5.16129" height="5.31365" fill="#A1A1A1"/>
<rect x="107.125" y="74.3906" width="5.16129" height="5.31365" fill="#A1A1A1"/>
<rect x="70.9961" y="111.586" width="5.16129" height="5.31365" fill="#A1A1A1"/>
<rect x="158.738" y="106.273" width="5.16129" height="5.31365" fill="#A1A1A1"/>
<rect x="122.609" y="143.469" width="5.16129" height="5.31365" fill="#A1A1A1"/>
<rect x="163.899" y="185.98" width="5.16129" height="5.31365" fill="#A1A1A1"/>
<rect x="122.609" y="228.488" width="5.16129" height="5.31365" fill="#A1A1A1"/>
<rect x="205.19" y="143.469" width="5.16129" height="5.31365" fill="#A1A1A1"/>
<rect x="246.48" y="100.961" width="5.16129" height="5.31365" fill="#A1A1A1"/>
<rect x="34.8672" y="148.781" width="5.16129" height="5.31365" fill="#A1A1A1"/>
<rect x="138.093" y="42.5117" width="5.16129" height="5.31365" fill="#A1A1A1"/>
<rect x="101.964" y="79.707" width="5.16129" height="5.31365" fill="#A1A1A1"/>
<rect x="65.835" y="116.902" width="5.16129" height="5.31365" fill="#A1A1A1"/>
<rect x="153.577" y="111.586" width="5.16129" height="5.31365" fill="#A1A1A1"/>
<rect x="117.448" y="148.781" width="5.16129" height="5.31365" fill="#A1A1A1"/>
<rect x="158.738" y="191.293" width="5.16129" height="5.31365" fill="#A1A1A1"/>
<rect x="117.448" y="233.801" width="5.16129" height="5.31365" fill="#A1A1A1"/>
<rect x="200.029" y="148.781" width="5.16129" height="5.31365" fill="#A1A1A1"/>
<rect x="241.319" y="106.273" width="5.16129" height="5.31365" fill="#A1A1A1"/>
<rect x="29.7061" y="154.098" width="5.16129" height="5.31365" fill="#A1A1A1"/>
<rect x="96.8027" y="85.0195" width="5.16129" height="5.31365" fill="#A1A1A1"/>
<rect x="60.6738" y="122.215" width="5.16129" height="5.31365" fill="#A1A1A1"/>
<rect x="148.416" y="116.902" width="5.16129" height="5.31365" fill="#A1A1A1"/>
<rect x="112.287" y="154.098" width="5.16129" height="5.31365" fill="#A1A1A1"/>
<rect x="153.577" y="196.605" width="5.16129" height="5.31365" fill="#A1A1A1"/>
<rect x="112.287" y="239.113" width="5.16129" height="5.31365" fill="#A1A1A1"/>
<rect x="194.867" y="154.098" width="5.16129" height="5.31365" fill="#A1A1A1"/>
<rect x="236.158" y="111.586" width="5.16129" height="5.31365" fill="#A1A1A1"/>
<rect x="24.5449" y="159.41" width="5.16129" height="5.31365" fill="#A1A1A1"/>
<rect x="55.5127" y="127.527" width="5.16129" height="5.31365" fill="#A1A1A1"/>
<rect x="143.255" y="122.215" width="5.16129" height="5.31365" fill="#A1A1A1"/>
<rect x="107.125" y="159.41" width="5.16129" height="5.31365" fill="#A1A1A1"/>
<rect x="148.416" y="201.918" width="5.16129" height="5.31365" fill="#A1A1A1"/>
<rect x="107.125" y="244.43" width="5.16129" height="5.31365" fill="#A1A1A1"/>
<rect x="189.706" y="159.41" width="5.16129" height="5.31365" fill="#A1A1A1"/>
<rect x="230.997" y="116.902" width="5.16129" height="5.31365" fill="#A1A1A1"/>
<rect x="138.093" y="127.527" width="5.16129" height="5.31365" fill="#A1A1A1"/>
<rect x="138.093" y="170.039" width="5.16129" height="5.31365" fill="#A1A1A1"/>
<rect x="101.964" y="164.723" width="5.16129" height="5.31365" fill="#A1A1A1"/>
<rect x="143.255" y="207.234" width="5.16129" height="5.31365" fill="#A1A1A1"/>
<rect x="101.964" y="249.742" width="5.16129" height="5.31365" fill="#A1A1A1"/>
<rect x="184.545" y="164.723" width="5.16129" height="5.31365" fill="#A1A1A1"/>
<rect x="225.835" y="122.215" width="5.16129" height="5.31365" fill="#A1A1A1"/>
<rect x="220.674" y="127.527" width="5.16129" height="5.31365" fill="#A1A1A1"/>
<rect x="179.384" y="170.039" width="5.16129" height="5.31365" fill="#A1A1A1"/>
<rect x="138.093" y="212.547" width="5.16129" height="5.31365" fill="#A1A1A1"/>
<rect x="96.8027" y="170.039" width="5.16129" height="5.31365" fill="#A1A1A1"/>
<rect x="96.8027" y="255.055" width="5.16129" height="5.31365" fill="#A1A1A1"/>
<rect x="19.3838" y="164.723" width="5.16129" height="5.31365" fill="#A1A1A1"/>
<rect x="14.2217" y="170.039" width="5.16129" height="5.31365" fill="#A1A1A1"/>
<rect x="14.2217" y="180.664" width="5.16129" height="5.31365" fill="#A1A1A1"/>
<rect x="9.06055" y="180.664" width="5.16129" height="5.31365" fill="#A1A1A1"/>
<rect x="3.89941" y="180.664" width="5.16129" height="5.31365" fill="#A1A1A1"/>
<rect x="3.89941" y="175.352" width="5.16129" height="5.31365" fill="#A1A1A1"/>
<rect x="3.89941" y="170.039" width="5.16129" height="5.31365" fill="#A1A1A1"/>
<rect x="117.448" y="5.31641" width="5.16129" height="5.31365" fill="#A1A1A1"/>
<rect x="117.448" y="47.8242" width="5.16129" height="5.31365" fill="#A1A1A1"/>
<rect x="117.448" y="132.844" width="5.16129" height="5.31365" fill="#A1A1A1"/>
<rect x="117.448" y="217.859" width="5.16129" height="5.31365" fill="#A1A1A1"/>
<rect x="34.8672" y="132.844" width="5.16129" height="5.31365" fill="#A1A1A1"/>
<rect x="200.029" y="132.844" width="5.16129" height="5.31365" fill="#A1A1A1"/>
<rect x="117.448" y="90.332" width="5.16129" height="5.31365" fill="#A1A1A1"/>
<rect x="117.448" y="175.352" width="5.16129" height="5.31365" fill="#A1A1A1"/>
<rect x="34.8672" y="90.332" width="5.16129" height="5.31365" fill="#A1A1A1"/>
<rect x="200.029" y="90.332" width="5.16129" height="5.31365" fill="#A1A1A1"/>
<rect x="117.448" y="260.371" width="5.16129" height="5.31365" fill="#A1A1A1"/>
<rect x="200.029" y="175.352" width="5.16129" height="5.31365" fill="#A1A1A1"/>
<rect x="34.8672" y="175.352" width="5.16129" height="5.31365" fill="#A1A1A1"/>
<rect x="163.899" y="47.8242" width="5.16129" height="5.31365" fill="#A1A1A1"/>
<rect x="163.899" y="132.844" width="5.16129" height="5.31365" fill="#A1A1A1"/>
<rect x="163.899" y="217.859" width="5.16129" height="5.31365" fill="#A1A1A1"/>
<rect x="81.3193" y="132.844" width="5.16129" height="5.31365" fill="#A1A1A1"/>
<rect x="246.48" y="132.844" width="5.16129" height="5.31365" fill="#A1A1A1"/>
<rect x="169.062" y="90.332" width="5.16129" height="5.31365" fill="#A1A1A1"/>
<rect x="169.062" y="175.352" width="5.16129" height="5.31365" fill="#A1A1A1"/>
<rect x="86.4805" y="90.332" width="5.16129" height="5.31365" fill="#A1A1A1"/>
<rect x="251.642" y="90.332" width="5.16129" height="5.31365" fill="#A1A1A1"/>
<rect x="169.062" y="5.31641" width="5.16129" height="5.31365" fill="#A1A1A1"/>
<rect x="112.287" y="5.31641" width="5.16129" height="5.31365" fill="#A1A1A1"/>
<rect x="112.287" y="47.8242" width="5.16129" height="5.31365" fill="#A1A1A1"/>
<rect x="112.287" y="132.844" width="5.16129" height="5.31365" fill="#A1A1A1"/>
<rect x="112.287" y="217.859" width="5.16129" height="5.31365" fill="#A1A1A1"/>
<rect x="29.7061" y="132.844" width="5.16129" height="5.31365" fill="#A1A1A1"/>
<rect x="194.867" y="132.844" width="5.16129" height="5.31365" fill="#A1A1A1"/>
<rect x="112.287" y="90.332" width="5.16129" height="5.31365" fill="#A1A1A1"/>
<rect x="112.287" y="175.352" width="5.16129" height="5.31365" fill="#A1A1A1"/>
<rect x="29.7061" y="90.332" width="5.16129" height="5.31365" fill="#A1A1A1"/>
<rect x="194.867" y="90.332" width="5.16129" height="5.31365" fill="#A1A1A1"/>
<rect x="112.287" y="260.371" width="5.16129" height="5.31365" fill="#A1A1A1"/>
<rect x="194.867" y="175.352" width="5.16129" height="5.31365" fill="#A1A1A1"/>
<rect x="29.7061" y="175.352" width="5.16129" height="5.31365" fill="#A1A1A1"/>
<rect x="158.738" y="47.8242" width="5.16129" height="5.31365" fill="#A1A1A1"/>
<rect x="158.738" y="132.844" width="5.16129" height="5.31365" fill="#A1A1A1"/>
<rect x="158.738" y="217.859" width="5.16129" height="5.31365" fill="#A1A1A1"/>
<rect x="76.1582" y="132.844" width="5.16129" height="5.31365" fill="#A1A1A1"/>
<rect x="241.319" y="132.844" width="5.16129" height="5.31365" fill="#A1A1A1"/>
<rect x="163.899" y="90.332" width="5.16129" height="5.31365" fill="#A1A1A1"/>
<rect x="163.899" y="175.352" width="5.16129" height="5.31365" fill="#A1A1A1"/>
<rect x="81.3193" y="90.332" width="5.16129" height="5.31365" fill="#A1A1A1"/>
<rect x="246.48" y="90.332" width="5.16129" height="5.31365" fill="#A1A1A1"/>
<rect x="163.899" y="260.371" width="5.16129" height="5.31365" fill="#A1A1A1"/>
<rect x="246.48" y="175.352" width="5.16129" height="5.31365" fill="#A1A1A1"/>
<rect x="81.3193" y="175.352" width="5.16129" height="5.31365" fill="#A1A1A1"/>
<rect x="163.899" y="5.31641" width="5.16129" height="5.31365" fill="#A1A1A1"/>
<rect x="107.125" y="5.31641" width="5.16129" height="5.31365" fill="#A1A1A1"/>
<rect x="107.125" y="47.8242" width="5.16129" height="5.31365" fill="#A1A1A1"/>
<rect x="107.125" y="132.844" width="5.16129" height="5.31365" fill="#A1A1A1"/>
<rect x="107.125" y="217.859" width="5.16129" height="5.31365" fill="#A1A1A1"/>
<rect x="24.5449" y="132.844" width="5.16129" height="5.31365" fill="#A1A1A1"/>
<rect x="189.706" y="132.844" width="5.16129" height="5.31365" fill="#A1A1A1"/>
<rect x="107.125" y="90.332" width="5.16129" height="5.31365" fill="#A1A1A1"/>
<rect x="107.125" y="175.352" width="5.16129" height="5.31365" fill="#A1A1A1"/>
<rect x="24.5449" y="90.332" width="5.16129" height="5.31365" fill="#A1A1A1"/>
<rect x="189.706" y="90.332" width="5.16129" height="5.31365" fill="#A1A1A1"/>
<rect x="107.125" y="260.371" width="5.16129" height="5.31365" fill="#A1A1A1"/>
<rect x="189.706" y="175.352" width="5.16129" height="5.31365" fill="#A1A1A1"/>
<rect x="24.5449" y="175.352" width="5.16129" height="5.31365" fill="#A1A1A1"/>
<rect x="153.577" y="47.8242" width="5.16129" height="5.31365" fill="#A1A1A1"/>
<rect x="153.577" y="132.844" width="5.16129" height="5.31365" fill="#A1A1A1"/>
<rect x="153.577" y="217.859" width="5.16129" height="5.31365" fill="#A1A1A1"/>
<rect x="70.9961" y="132.844" width="5.16129" height="5.31365" fill="#A1A1A1"/>
<rect x="236.158" y="132.844" width="5.16129" height="5.31365" fill="#A1A1A1"/>
<rect x="158.738" y="90.332" width="5.16129" height="5.31365" fill="#A1A1A1"/>
<rect x="158.738" y="175.352" width="5.16129" height="5.31365" fill="#A1A1A1"/>
<rect x="76.1582" y="90.332" width="5.16129" height="5.31365" fill="#A1A1A1"/>
<rect x="241.319" y="90.332" width="5.16129" height="5.31365" fill="#A1A1A1"/>
<rect x="158.738" y="260.371" width="5.16129" height="5.31365" fill="#A1A1A1"/>
<rect x="241.319" y="175.352" width="5.16129" height="5.31365" fill="#A1A1A1"/>
<rect x="76.1582" y="175.352" width="5.16129" height="5.31365" fill="#A1A1A1"/>
<rect x="158.738" y="5.31641" width="5.16129" height="5.31365" fill="#A1A1A1"/>
<rect x="101.964" y="5.31641" width="5.16129" height="5.31365" fill="#A1A1A1"/>
<rect x="101.964" y="47.8242" width="5.16129" height="5.31365" fill="#A1A1A1"/>
<rect x="101.964" y="132.844" width="5.16129" height="5.31365" fill="#A1A1A1"/>
<rect x="101.964" y="217.859" width="5.16129" height="5.31365" fill="#A1A1A1"/>
<rect x="19.3838" y="132.844" width="5.16129" height="5.31365" fill="#A1A1A1"/>
<rect x="184.545" y="132.844" width="5.16129" height="5.31365" fill="#A1A1A1"/>
<rect x="101.964" y="90.332" width="5.16129" height="5.31365" fill="#A1A1A1"/>
<rect x="101.964" y="175.352" width="5.16129" height="5.31365" fill="#A1A1A1"/>
<rect x="19.3838" y="90.332" width="5.16129" height="5.31365" fill="#A1A1A1"/>
<rect x="184.545" y="90.332" width="5.16129" height="5.31365" fill="#A1A1A1"/>
<rect x="101.964" y="260.371" width="5.16129" height="5.31365" fill="#A1A1A1"/>
<rect x="184.545" y="175.352" width="5.16129" height="5.31365" fill="#A1A1A1"/>
<rect x="19.3838" y="175.352" width="5.16129" height="5.31365" fill="#A1A1A1"/>
<rect x="148.416" y="47.8242" width="5.16129" height="5.31365" fill="#A1A1A1"/>
<rect x="148.416" y="132.844" width="5.16129" height="5.31365" fill="#A1A1A1"/>
<rect x="148.416" y="217.859" width="5.16129" height="5.31365" fill="#A1A1A1"/>
<rect x="65.835" y="132.844" width="5.16129" height="5.31365" fill="#A1A1A1"/>
<rect x="230.997" y="132.844" width="5.16129" height="5.31365" fill="#A1A1A1"/>
<rect x="153.577" y="90.332" width="5.16129" height="5.31365" fill="#A1A1A1"/>
<rect x="153.577" y="175.352" width="5.16129" height="5.31365" fill="#A1A1A1"/>
<rect x="70.9961" y="90.332" width="5.16129" height="5.31365" fill="#A1A1A1"/>
<rect x="236.158" y="90.332" width="5.16129" height="5.31365" fill="#A1A1A1"/>
<rect x="153.577" y="260.371" width="5.16129" height="5.31365" fill="#A1A1A1"/>
<rect x="236.158" y="175.352" width="5.16129" height="5.31365" fill="#A1A1A1"/>
<rect x="70.9961" y="175.352" width="5.16129" height="5.31365" fill="#A1A1A1"/>
<rect x="153.577" y="5.31641" width="5.16129" height="5.31365" fill="#A1A1A1"/>
<rect x="96.8027" y="5.31641" width="5.16129" height="5.31365" fill="#A1A1A1"/>
<rect x="96.8027" y="47.8242" width="5.16129" height="5.31365" fill="#A1A1A1"/>
<rect x="96.8027" y="132.844" width="5.16129" height="5.31365" fill="#A1A1A1"/>
<rect x="96.8027" y="217.859" width="5.16129" height="5.31365" fill="#A1A1A1"/>
<rect x="9.06055" y="85.0195" width="5.16129" height="5.31365" fill="#A1A1A1"/>
<rect x="50.3516" y="85.0195" width="5.16129" height="5.31365" fill="#A1A1A1"/>
<rect x="14.2217" y="85.0195" width="5.16129" height="5.31365" fill="#A1A1A1"/>
<rect x="55.5127" y="85.0195" width="5.16129" height="5.31365" fill="#A1A1A1"/>
<rect x="3.89941" y="85.0195" width="5.16129" height="5.31365" fill="#A1A1A1"/>
<rect x="3.89941" y="127.527" width="5.16129" height="5.31365" fill="#A1A1A1"/>
<rect x="86.4805" y="42.5117" width="5.16129" height="5.31365" fill="#A1A1A1"/>
<rect x="86.4805" width="5.16129" height="5.31365" fill="#A1A1A1"/>
<rect x="91.6416" width="5.16129" height="5.31365" fill="#A1A1A1"/>
<rect x="96.8027" width="5.16129" height="5.31365" fill="#A1A1A1"/>
<rect x="96.8027" y="42.5117" width="5.16129" height="5.31365" fill="#A1A1A1"/>
<rect x="96.8027" y="53.1367" width="5.16129" height="5.31365" fill="#A1A1A1"/>
<rect x="45.1904" y="85.0195" width="5.16129" height="5.31365" fill="#A1A1A1"/>
<rect x="55.5127" y="95.6484" width="5.16129" height="5.31365" fill="#A1A1A1"/>
<rect x="45.1904" y="95.6484" width="5.16129" height="5.31365" fill="#A1A1A1"/>
<rect x="3.89941" y="90.332" width="5.16129" height="5.31365" fill="#A1A1A1"/>
<rect x="3.89941" y="132.844" width="5.16129" height="5.31365" fill="#A1A1A1"/>
<rect x="86.4805" y="47.8242" width="5.16129" height="5.31365" fill="#A1A1A1"/>
<rect x="86.4805" y="5.31641" width="5.16129" height="5.31365" fill="#A1A1A1"/>
<rect x="3.89941" y="95.6484" width="5.16129" height="5.31365" fill="#A1A1A1"/>
<rect x="3.89941" y="138.156" width="5.16129" height="5.31365" fill="#A1A1A1"/>
<rect x="86.4805" y="53.1367" width="5.16129" height="5.31365" fill="#A1A1A1"/>
<rect x="86.4805" y="10.6289" width="5.16129" height="5.31365" fill="#A1A1A1"/>
<rect x="14.2217" y="132.844" width="5.16129" height="5.31365" fill="#A1A1A1"/>
<rect x="179.384" y="132.844" width="5.16129" height="5.31365" fill="#A1A1A1"/>
<rect x="96.8027" y="90.332" width="5.16129" height="5.31365" fill="#A1A1A1"/>
<rect x="96.8027" y="175.352" width="5.16129" height="5.31365" fill="#A1A1A1"/>
<rect x="14.2217" y="90.332" width="5.16129" height="5.31365" fill="#A1A1A1"/>
<rect x="179.384" y="90.332" width="5.16129" height="5.31365" fill="#A1A1A1"/>
<rect x="96.8027" y="260.371" width="5.16129" height="5.31365" fill="#A1A1A1"/>
<rect x="96.8027" y="265.684" width="5.16129" height="5.31365" fill="#A1A1A1"/>
<rect x="179.384" y="175.352" width="5.16129" height="5.31365" fill="#A1A1A1"/>
<rect x="179.384" y="180.664" width="5.16129" height="5.31365" fill="#A1A1A1"/>
<rect x="14.2217" y="175.352" width="5.16129" height="5.31365" fill="#A1A1A1"/>
<rect x="143.255" y="47.8242" width="5.16129" height="5.31365" fill="#A1A1A1"/>
<rect x="143.255" y="132.844" width="5.16129" height="5.31365" fill="#A1A1A1"/>
<rect x="143.255" y="217.859" width="5.16129" height="5.31365" fill="#A1A1A1"/>
<rect x="60.6738" y="132.844" width="5.16129" height="5.31365" fill="#A1A1A1"/>
<rect x="225.835" y="132.844" width="5.16129" height="5.31365" fill="#A1A1A1"/>
<rect x="148.416" y="90.332" width="5.16129" height="5.31365" fill="#A1A1A1"/>
<rect x="148.416" y="175.352" width="5.16129" height="5.31365" fill="#A1A1A1"/>
<rect x="65.835" y="90.332" width="5.16129" height="5.31365" fill="#A1A1A1"/>
<rect x="230.997" y="90.332" width="5.16129" height="5.31365" fill="#A1A1A1"/>
<rect x="148.416" y="260.371" width="5.16129" height="5.31365" fill="#A1A1A1"/>
<rect x="230.997" y="175.352" width="5.16129" height="5.31365" fill="#A1A1A1"/>
<rect x="65.835" y="175.352" width="5.16129" height="5.31365" fill="#A1A1A1"/>
<rect x="148.416" y="5.31641" width="5.16129" height="5.31365" fill="#A1A1A1"/>
<rect x="96.8027" y="10.6289" width="5.16129" height="5.31365" fill="#A1A1A1"/>
<rect x="101.964" y="15.9414" width="5.16129" height="5.31365" fill="#A1A1A1"/>
<rect x="138.093" y="53.1367" width="5.16129" height="5.31365" fill="#A1A1A1"/>
<rect x="107.125" y="21.2539" width="5.16129" height="5.31365" fill="#A1A1A1"/>
<rect x="143.255" y="58.4492" width="5.16129" height="5.31365" fill="#A1A1A1"/>
<rect x="179.384" y="95.6484" width="5.16129" height="5.31365" fill="#A1A1A1"/>
<rect x="112.287" y="26.5703" width="5.16129" height="5.31365" fill="#A1A1A1"/>
<rect x="148.416" y="63.7656" width="5.16129" height="5.31365" fill="#A1A1A1"/>
<rect x="184.545" y="100.961" width="5.16129" height="5.31365" fill="#A1A1A1"/>
<rect x="96.8027" y="95.6484" width="5.16129" height="5.31365" fill="#A1A1A1"/>
<rect x="138.093" y="138.156" width="5.16129" height="5.31365" fill="#A1A1A1"/>
<rect x="138.093" y="180.664" width="5.16129" height="5.31365" fill="#A1A1A1"/>
<rect x="14.2217" y="95.6484" width="5.16129" height="5.31365" fill="#A1A1A1"/>
<rect x="55.5127" y="138.156" width="5.16129" height="5.31365" fill="#A1A1A1"/>
<rect x="96.8027" y="180.664" width="5.16129" height="5.31365" fill="#A1A1A1"/>
<rect x="138.093" y="223.176" width="5.16129" height="5.31365" fill="#A1A1A1"/>
<rect x="220.674" y="138.156" width="5.16129" height="5.31365" fill="#A1A1A1"/>
<rect x="117.448" y="31.8828" width="5.16129" height="5.31365" fill="#A1A1A1"/>
<rect x="153.577" y="69.0781" width="5.16129" height="5.31365" fill="#A1A1A1"/>
<rect x="189.706" y="106.273" width="5.16129" height="5.31365" fill="#A1A1A1"/>
<rect x="101.964" y="100.961" width="5.16129" height="5.31365" fill="#A1A1A1"/>
<rect x="143.255" y="143.469" width="5.16129" height="5.31365" fill="#A1A1A1"/>
<rect x="19.3838" y="100.961" width="5.16129" height="5.31365" fill="#A1A1A1"/>
<rect x="60.6738" y="143.469" width="5.16129" height="5.31365" fill="#A1A1A1"/>
<rect x="101.964" y="185.98" width="5.16129" height="5.31365" fill="#A1A1A1"/>
<rect x="143.255" y="228.488" width="5.16129" height="5.31365" fill="#A1A1A1"/>
<rect x="225.835" y="143.469" width="5.16129" height="5.31365" fill="#A1A1A1"/>
<rect x="122.609" y="37.1953" width="5.16129" height="5.31365" fill="#A1A1A1"/>
<rect x="158.738" y="74.3906" width="5.16129" height="5.31365" fill="#A1A1A1"/>
<rect x="194.867" y="111.586" width="5.16129" height="5.31365" fill="#A1A1A1"/>
<rect x="107.125" y="106.273" width="5.16129" height="5.31365" fill="#A1A1A1"/>
<rect x="148.416" y="148.781" width="5.16129" height="5.31365" fill="#A1A1A1"/>
<rect x="24.5449" y="106.273" width="5.16129" height="5.31365" fill="#A1A1A1"/>
<rect x="65.835" y="148.781" width="5.16129" height="5.31365" fill="#A1A1A1"/>
<rect x="107.125" y="191.293" width="5.16129" height="5.31365" fill="#A1A1A1"/>
<rect x="148.416" y="233.801" width="5.16129" height="5.31365" fill="#A1A1A1"/>
<rect x="230.997" y="148.781" width="5.16129" height="5.31365" fill="#A1A1A1"/>
<rect x="127.771" y="42.5117" width="5.16129" height="5.31365" fill="#A1A1A1"/>
<rect x="163.899" y="79.707" width="5.16129" height="5.31365" fill="#A1A1A1"/>
<rect x="200.029" y="116.902" width="5.16129" height="5.31365" fill="#A1A1A1"/>
<rect x="112.287" y="111.586" width="5.16129" height="5.31365" fill="#A1A1A1"/>
<rect x="153.577" y="154.098" width="5.16129" height="5.31365" fill="#A1A1A1"/>
<rect x="29.7061" y="111.586" width="5.16129" height="5.31365" fill="#A1A1A1"/>
<rect x="70.9961" y="154.098" width="5.16129" height="5.31365" fill="#A1A1A1"/>
<rect x="112.287" y="196.605" width="5.16129" height="5.31365" fill="#A1A1A1"/>
<rect x="153.577" y="239.113" width="5.16129" height="5.31365" fill="#A1A1A1"/>
<rect x="236.158" y="154.098" width="5.16129" height="5.31365" fill="#A1A1A1"/>
<rect x="169.062" y="85.0195" width="5.16129" height="5.31365" fill="#A1A1A1"/>
<rect x="205.19" y="122.215" width="5.16129" height="5.31365" fill="#A1A1A1"/>
<rect x="117.448" y="116.902" width="5.16129" height="5.31365" fill="#A1A1A1"/>
<rect x="158.738" y="159.41" width="5.16129" height="5.31365" fill="#A1A1A1"/>
<rect x="34.8672" y="116.902" width="5.16129" height="5.31365" fill="#A1A1A1"/>
<rect x="76.1582" y="159.41" width="5.16129" height="5.31365" fill="#A1A1A1"/>
<rect x="117.448" y="201.918" width="5.16129" height="5.31365" fill="#A1A1A1"/>
<rect x="158.738" y="244.43" width="5.16129" height="5.31365" fill="#A1A1A1"/>
<rect x="241.319" y="159.41" width="5.16129" height="5.31365" fill="#A1A1A1"/>
<rect x="210.352" y="127.527" width="5.16129" height="5.31365" fill="#A1A1A1"/>
<rect x="122.609" y="122.215" width="5.16129" height="5.31365" fill="#A1A1A1"/>
<rect x="127.771" y="127.527" width="5.16129" height="5.31365" fill="#A1A1A1"/>
<rect x="127.771" y="170.039" width="5.16129" height="5.31365" fill="#A1A1A1"/>
<rect x="163.899" y="164.723" width="5.16129" height="5.31365" fill="#A1A1A1"/>
<rect x="169.062" y="170.039" width="5.16129" height="5.31365" fill="#A1A1A1"/>
<rect x="45.1904" y="127.527" width="5.16129" height="5.31365" transform="rotate(180 45.1904 127.527)" fill="#A1A1A1"/>
<rect x="50.3516" y="132.844" width="5.16129" height="5.31365" transform="rotate(180 50.3516 132.844)" fill="#A1A1A1"/>
<rect x="81.3193" y="164.723" width="5.16129" height="5.31365" fill="#A1A1A1"/>
<rect x="86.4805" y="170.039" width="5.16129" height="5.31365" fill="#A1A1A1"/>
<rect x="86.4805" y="180.664" width="5.16129" height="5.31365" fill="#A1A1A1"/>
<rect x="122.609" y="207.234" width="5.16129" height="5.31365" fill="#A1A1A1"/>
<rect x="127.771" y="212.547" width="5.16129" height="5.31365" fill="#A1A1A1"/>
<rect x="163.899" y="249.742" width="5.16129" height="5.31365" fill="#A1A1A1"/>
<rect x="169.062" y="255.055" width="5.16129" height="5.31365" fill="#A1A1A1"/>
<rect x="127.771" y="255.055" width="5.16129" height="5.31365" fill="#A1A1A1"/>
<rect x="246.48" y="164.723" width="5.16129" height="5.31365" fill="#A1A1A1"/>
<rect x="251.642" y="170.039" width="5.16129" height="5.31365" fill="#A1A1A1"/>
<rect x="45.1904" y="170.039" width="5.16129" height="5.31365" fill="#A1A1A1"/>
<rect x="210.352" y="170.039" width="5.16129" height="5.31365" fill="#A1A1A1"/>
<rect x="143.255" y="5.31641" width="5.16129" height="5.31365" fill="#A1A1A1"/>
<rect x="91.6416" y="10.6289" width="5.16129" height="5.31365" fill="#A1A1A1"/>
<rect x="91.6416" y="106.273" width="5.16129" height="5.31365" fill="#A1A1A1"/>
<rect x="91.6416" y="201.918" width="5.16129" height="5.31365" fill="#A1A1A1"/>
<rect x="9.06055" y="116.902" width="5.16129" height="5.31365" fill="#A1A1A1"/>
<rect x="91.6416" y="63.7656" width="5.16129" height="5.31365" fill="#A1A1A1"/>
<rect x="91.6416" y="159.41" width="5.16129" height="5.31365" fill="#A1A1A1"/>
<rect x="91.6416" y="255.055" width="5.16129" height="5.31365" fill="#A1A1A1"/>
<rect x="9.06055" y="170.039" width="5.16129" height="5.31365" fill="#A1A1A1"/>
<rect x="132.932" y="15.9414" width="5.16129" height="5.31365" fill="#A1A1A1"/>
<rect x="132.932" y="111.586" width="5.16129" height="5.31365" fill="#A1A1A1"/>
<rect x="132.932" y="207.234" width="5.16129" height="5.31365" fill="#A1A1A1"/>
<rect x="50.3516" y="122.215" width="5.16129" height="5.31365" fill="#A1A1A1"/>
<rect x="215.513" y="122.215" width="5.16129" height="5.31365" fill="#A1A1A1"/>
<rect x="132.932" y="69.0781" width="5.16129" height="5.31365" fill="#A1A1A1"/>
<rect x="132.932" y="164.723" width="5.16129" height="5.31365" fill="#A1A1A1"/>
<rect x="174.223" y="69.0781" width="5.16129" height="5.31365" fill="#A1A1A1"/>
<rect x="174.223" y="164.723" width="5.16129" height="5.31365" fill="#A1A1A1"/>
<rect x="174.223" y="255.055" width="5.16129" height="5.31365" fill="#A1A1A1"/>
<rect x="132.932" y="255.055" width="5.16129" height="5.31365" fill="#A1A1A1"/>
<rect x="179.384" y="255.055" width="5.16129" height="5.31365" fill="#A1A1A1"/>
<rect x="138.093" y="255.055" width="5.16129" height="5.31365" fill="#A1A1A1"/>
<rect x="179.384" y="212.547" width="5.16129" height="5.31365" fill="#A1A1A1"/>
<rect x="86.4805" y="212.547" width="5.16129" height="5.31365" fill="#A1A1A1"/>
<rect x="86.4805" y="255.055" width="5.16129" height="5.31365" fill="#A1A1A1"/>
<rect x="179.384" y="260.371" width="5.16129" height="5.31365" fill="#A1A1A1"/>
<rect x="138.093" y="260.371" width="5.16129" height="5.31365" fill="#A1A1A1"/>
<rect x="179.384" y="217.859" width="5.16129" height="5.31365" fill="#A1A1A1"/>
<rect x="86.4805" y="217.859" width="5.16129" height="5.31365" fill="#A1A1A1"/>
<rect x="86.4805" y="260.371" width="5.16129" height="5.31365" fill="#A1A1A1"/>
<rect x="169.062" y="212.547" width="5.16129" height="5.31365" fill="#A1A1A1"/>
<rect x="169.062" y="223.176" width="5.16129" height="5.31365" fill="#A1A1A1"/>
<rect x="179.384" y="265.684" width="5.16129" height="5.31365" fill="#A1A1A1"/>
<rect x="138.093" y="265.684" width="5.16129" height="5.31365" fill="#A1A1A1"/>
<rect x="179.384" y="223.176" width="5.16129" height="5.31365" fill="#A1A1A1"/>
<rect x="86.4805" y="223.176" width="5.16129" height="5.31365" fill="#A1A1A1"/>
<rect x="86.4805" y="265.684" width="5.16129" height="5.31365" fill="#A1A1A1"/>
<rect x="174.223" y="265.684" width="5.16129" height="5.31365" fill="#A1A1A1"/>
<rect x="132.932" y="265.684" width="5.16129" height="5.31365" fill="#A1A1A1"/>
<rect x="169.062" y="265.684" width="5.16129" height="5.31365" fill="#A1A1A1"/>
<rect x="127.771" y="265.684" width="5.16129" height="5.31365" fill="#A1A1A1"/>
<rect x="256.803" y="170.039" width="5.16129" height="5.31365" fill="#A1A1A1"/>
<rect x="50.3516" y="170.039" width="5.16129" height="5.31365" fill="#A1A1A1"/>
<rect x="215.513" y="170.039" width="5.16129" height="5.31365" fill="#A1A1A1"/>
<rect x="261.964" y="170.039" width="5.16129" height="5.31365" fill="#A1A1A1"/>
<rect x="55.5127" y="170.039" width="5.16129" height="5.31365" fill="#A1A1A1"/>
<rect x="220.674" y="170.039" width="5.16129" height="5.31365" fill="#A1A1A1"/>
<rect x="261.964" y="175.352" width="5.16129" height="5.31365" fill="#A1A1A1"/>
<rect x="55.5127" y="175.352" width="5.16129" height="5.31365" fill="#A1A1A1"/>
<rect x="220.674" y="175.352" width="5.16129" height="5.31365" fill="#A1A1A1"/>
<rect x="261.964" y="180.664" width="5.16129" height="5.31365" fill="#A1A1A1"/>
<rect x="55.5127" y="180.664" width="5.16129" height="5.31365" fill="#A1A1A1"/>
<rect x="220.674" y="180.664" width="5.16129" height="5.31365" fill="#A1A1A1"/>
<rect x="256.803" y="180.664" width="5.16129" height="5.31365" fill="#A1A1A1"/>
<rect x="50.3516" y="180.664" width="5.16129" height="5.31365" fill="#A1A1A1"/>
<rect x="215.513" y="180.664" width="5.16129" height="5.31365" fill="#A1A1A1"/>
<rect x="251.642" y="180.664" width="5.16129" height="5.31365" fill="#A1A1A1"/>
<rect x="45.1904" y="180.664" width="5.16129" height="5.31365" fill="#A1A1A1"/>
<rect x="210.352" y="180.664" width="5.16129" height="5.31365" fill="#A1A1A1"/>
<rect x="261.964" y="85.0195" width="5.16129" height="5.31365" fill="#A1A1A1"/>
<rect x="261.964" y="127.527" width="5.16129" height="5.31365" fill="#A1A1A1"/>
<rect x="179.384" y="42.5117" width="5.16129" height="5.31365" fill="#A1A1A1"/>
<rect x="179.384" width="5.16129" height="5.31365" fill="#A1A1A1"/>
<rect x="138.093" width="5.16129" height="5.31365" fill="#A1A1A1"/>
<rect x="138.093" y="10.6289" width="5.16129" height="5.31365" fill="#A1A1A1"/>
<rect x="127.771" y="10.6289" width="5.16129" height="5.31365" fill="#A1A1A1"/>
<rect x="174.223" width="5.16129" height="5.31365" fill="#A1A1A1"/>
<rect x="132.932" width="5.16129" height="5.31365" fill="#A1A1A1"/>
<rect x="169.061" width="5.16129" height="5.31365" fill="#A1A1A1"/>
<rect x="127.771" width="5.16129" height="5.31365" fill="#A1A1A1"/>
<rect x="169.062" y="42.5117" width="5.16129" height="5.31365" fill="#A1A1A1"/>
<rect x="220.674" y="85.0195" width="5.16129" height="5.31365" fill="#A1A1A1"/>
<rect x="220.674" y="95.6484" width="5.16129" height="5.31365" fill="#A1A1A1"/>
<rect x="210.352" y="95.6484" width="5.16129" height="5.31365" fill="#A1A1A1"/>
<rect x="256.803" y="85.0195" width="5.16129" height="5.31365" fill="#A1A1A1"/>
<rect x="215.513" y="85.0195" width="5.16129" height="5.31365" fill="#A1A1A1"/>
<rect x="251.642" y="85.0195" width="5.16129" height="5.31365" fill="#A1A1A1"/>
<rect x="210.352" y="85.0195" width="5.16129" height="5.31365" fill="#A1A1A1"/>
<rect x="179.384" y="85.0195" width="5.16129" height="5.31365" fill="#A1A1A1"/>
<rect x="86.4805" y="85.0195" width="5.16129" height="5.31365" fill="#A1A1A1"/>
<rect x="174.223" y="15.9414" width="5.16129" height="5.31365" fill="#A1A1A1"/>
<rect x="174.223" y="111.586" width="5.16129" height="5.31365" fill="#A1A1A1"/>
<rect x="174.223" y="201.918" width="5.16129" height="5.31365" fill="#A1A1A1"/>
<rect x="256.803" y="116.902" width="5.16129" height="5.31365" fill="#A1A1A1"/>
<rect x="91.6416" y="26.5703" width="5.16129" height="5.31365" fill="#A1A1A1"/>
<rect x="91.6416" y="122.215" width="5.16129" height="5.31365" fill="#A1A1A1"/>
<rect x="91.6416" y="79.707" width="5.16129" height="5.31365" fill="#A1A1A1"/>
<rect x="132.932" y="31.8828" width="5.16129" height="5.31365" fill="#A1A1A1"/>
<rect x="132.932" y="127.527" width="5.16129" height="5.31365" fill="#A1A1A1"/>
<rect x="132.932" y="170.039" width="5.16129" height="5.31365" fill="#A1A1A1"/>
<rect x="132.932" y="223.176" width="5.16129" height="5.31365" fill="#A1A1A1"/>
<rect x="50.3516" y="138.156" width="5.16129" height="5.31365" fill="#A1A1A1"/>
<rect x="215.513" y="138.156" width="5.16129" height="5.31365" fill="#A1A1A1"/>
<rect x="132.932" y="85.0195" width="5.16129" height="5.31365" fill="#A1A1A1"/>
<rect x="50.3516" y="95.6484" width="5.16129" height="5.31365" fill="#A1A1A1"/>
<rect x="215.513" y="95.6484" width="5.16129" height="5.31365" fill="#A1A1A1"/>
<rect x="174.223" y="85.0195" width="5.16129" height="5.31365" fill="#A1A1A1"/>
<rect x="174.223" y="180.664" width="5.16129" height="5.31365" fill="#A1A1A1"/>
<rect x="256.803" y="95.6484" width="5.16129" height="5.31365" fill="#A1A1A1"/>
<rect x="174.223" y="31.8828" width="5.16129" height="5.31365" fill="#A1A1A1"/>
<rect x="174.223" y="127.527" width="5.16129" height="5.31365" fill="#A1A1A1"/>
<rect x="179.384" y="127.527" width="5.16129" height="5.31365" fill="#A1A1A1"/>
<rect x="179.384" y="132.844" width="5.16129" height="5.31365" fill="#A1A1A1"/>
<rect x="179.384" y="138.156" width="5.16129" height="5.31365" fill="#A1A1A1"/>
<rect x="169.062" y="138.156" width="5.16129" height="5.31365" fill="#A1A1A1"/>
<rect x="169.062" y="127.527" width="5.16129" height="5.31365" fill="#A1A1A1"/>
<rect x="91.6416" y="42.5117" width="5.16129" height="5.31365" fill="#A1A1A1"/>
<rect x="91.6416" y="138.156" width="5.16129" height="5.31365" fill="#A1A1A1"/>
<rect x="91.6416" y="233.801" width="5.16129" height="5.31365" fill="#A1A1A1"/>
<rect x="9.06055" y="148.781" width="5.16129" height="5.31365" fill="#A1A1A1"/>
<rect x="91.6416" y="95.6484" width="5.16129" height="5.31365" fill="#A1A1A1"/>
<rect x="127.771" y="47.8242" width="5.16129" height="5.31365" fill="#A1A1A1"/>
<rect x="127.771" y="132.844" width="5.16129" height="5.31365" fill="#A1A1A1"/>
<rect x="127.771" y="175.352" width="5.16129" height="5.31365" fill="#A1A1A1"/>
<rect x="127.771" y="217.859" width="5.16129" height="5.31365" fill="#A1A1A1"/>
<rect x="45.1904" y="132.844" width="5.16129" height="5.31365" fill="#A1A1A1"/>
<rect x="210.352" y="132.844" width="5.16129" height="5.31365" fill="#A1A1A1"/>
<rect x="132.932" y="185.98" width="5.16129" height="5.31365" fill="#A1A1A1"/>
<rect x="50.3516" y="100.961" width="5.16129" height="5.31365" fill="#A1A1A1"/>
<rect x="215.513" y="100.961" width="5.16129" height="5.31365" fill="#A1A1A1"/>
<rect x="174.223" y="185.98" width="5.16129" height="5.31365" fill="#A1A1A1"/>
<rect x="256.803" y="100.961" width="5.16129" height="5.31365" fill="#A1A1A1"/>
<rect x="91.6416" y="100.961" width="5.16129" height="5.31365" fill="#A1A1A1"/>
<rect x="91.6416" y="196.605" width="5.16129" height="5.31365" fill="#A1A1A1"/>
<rect x="9.06055" y="111.586" width="5.16129" height="5.31365" fill="#A1A1A1"/>
<rect x="91.6416" y="58.4492" width="5.16129" height="5.31365" fill="#A1A1A1"/>
<rect x="91.6416" y="154.098" width="5.16129" height="5.31365" fill="#A1A1A1"/>
<rect x="91.6416" y="249.742" width="5.16129" height="5.31365" fill="#A1A1A1"/>
<rect x="9.06055" y="164.723" width="5.16129" height="5.31365" fill="#A1A1A1"/>
<rect x="132.932" y="10.6289" width="5.16129" height="5.31365" fill="#A1A1A1"/>
<rect x="132.932" y="106.273" width="5.16129" height="5.31365" fill="#A1A1A1"/>
<rect x="132.932" y="201.918" width="5.16129" height="5.31365" fill="#A1A1A1"/>
<rect x="50.3516" y="116.902" width="5.16129" height="5.31365" fill="#A1A1A1"/>
<rect x="215.513" y="116.902" width="5.16129" height="5.31365" fill="#A1A1A1"/>
<rect x="132.932" y="63.7656" width="5.16129" height="5.31365" fill="#A1A1A1"/>
<rect x="132.932" y="159.41" width="5.16129" height="5.31365" fill="#A1A1A1"/>
<rect x="174.223" y="63.7656" width="5.16129" height="5.31365" fill="#A1A1A1"/>
<rect x="174.223" y="159.41" width="5.16129" height="5.31365" fill="#A1A1A1"/>
<rect x="174.223" y="249.742" width="5.16129" height="5.31365" fill="#A1A1A1"/>
<rect x="256.803" y="164.723" width="5.16129" height="5.31365" fill="#A1A1A1"/>
<rect x="174.223" y="10.6289" width="5.16129" height="5.31365" fill="#A1A1A1"/>
<rect x="174.223" y="106.273" width="5.16129" height="5.31365" fill="#A1A1A1"/>
<rect x="174.223" y="196.605" width="5.16129" height="5.31365" fill="#A1A1A1"/>
<rect x="256.803" y="111.586" width="5.16129" height="5.31365" fill="#A1A1A1"/>
<rect x="91.6416" y="21.2539" width="5.16129" height="5.31365" fill="#A1A1A1"/>
<rect x="91.6416" y="116.902" width="5.16129" height="5.31365" fill="#A1A1A1"/>
<rect x="91.6416" y="212.547" width="5.16129" height="5.31365" fill="#A1A1A1"/>
<rect x="9.06055" y="127.527" width="5.16129" height="5.31365" fill="#A1A1A1"/>
<rect x="14.2217" y="127.527" width="5.16129" height="5.31365" fill="#A1A1A1"/>
<rect x="14.2217" y="138.156" width="5.16129" height="5.31365" fill="#A1A1A1"/>
<rect x="91.6416" y="74.3906" width="5.16129" height="5.31365" fill="#A1A1A1"/>
<rect x="91.6416" y="170.039" width="5.16129" height="5.31365" fill="#A1A1A1"/>
<rect x="132.932" y="26.5703" width="5.16129" height="5.31365" fill="#A1A1A1"/>
<rect x="132.932" y="122.215" width="5.16129" height="5.31365" fill="#A1A1A1"/>
<rect x="132.932" y="79.707" width="5.16129" height="5.31365" fill="#A1A1A1"/>
<rect x="174.223" y="79.707" width="5.16129" height="5.31365" fill="#A1A1A1"/>
<rect x="174.223" y="26.5703" width="5.16129" height="5.31365" fill="#A1A1A1"/>
<rect x="174.223" y="122.215" width="5.16129" height="5.31365" fill="#A1A1A1"/>
<rect x="174.223" y="212.547" width="5.16129" height="5.31365" fill="#A1A1A1"/>
<rect x="256.803" y="127.527" width="5.16129" height="5.31365" fill="#A1A1A1"/>
<rect x="251.642" y="127.527" width="5.16129" height="5.31365" fill="#A1A1A1"/>
<rect x="251.642" y="138.156" width="5.16129" height="5.31365" fill="#A1A1A1"/>
<rect x="91.6416" y="37.1953" width="5.16129" height="5.31365" fill="#A1A1A1"/>
<rect x="91.6416" y="228.488" width="5.16129" height="5.31365" fill="#A1A1A1"/>
<rect x="9.06055" y="143.469" width="5.16129" height="5.31365" fill="#A1A1A1"/>
<rect x="91.6416" y="185.98" width="5.16129" height="5.31365" fill="#A1A1A1"/>
<rect x="9.06055" y="100.961" width="5.16129" height="5.31365" fill="#A1A1A1"/>
<rect x="132.932" y="42.5117" width="5.16129" height="5.31365" fill="#A1A1A1"/>
<rect x="132.932" y="138.156" width="5.16129" height="5.31365" fill="#A1A1A1"/>
<rect x="132.932" y="180.664" width="5.16129" height="5.31365" fill="#A1A1A1"/>
<rect x="132.932" y="233.801" width="5.16129" height="5.31365" fill="#A1A1A1"/>
<rect x="50.3516" y="148.781" width="5.16129" height="5.31365" fill="#A1A1A1"/>
<rect x="215.513" y="148.781" width="5.16129" height="5.31365" fill="#A1A1A1"/>
<rect x="174.223" y="42.5117" width="5.16129" height="5.31365" fill="#A1A1A1"/>
<rect x="174.223" y="138.156" width="5.16129" height="5.31365" fill="#A1A1A1"/>
<rect x="174.223" y="228.488" width="5.16129" height="5.31365" fill="#A1A1A1"/>
<rect x="256.803" y="143.469" width="5.16129" height="5.31365" fill="#A1A1A1"/>
<rect x="91.6416" y="15.9414" width="5.16129" height="5.31365" fill="#A1A1A1"/>
<rect x="91.6416" y="111.586" width="5.16129" height="5.31365" fill="#A1A1A1"/>
<rect x="91.6416" y="207.234" width="5.16129" height="5.31365" fill="#A1A1A1"/>
<rect x="9.06055" y="122.215" width="5.16129" height="5.31365" fill="#A1A1A1"/>
<rect x="91.6416" y="69.0781" width="5.16129" height="5.31365" fill="#A1A1A1"/>
<rect x="91.6416" y="164.723" width="5.16129" height="5.31365" fill="#A1A1A1"/>
<rect x="91.6416" y="265.684" width="5.16129" height="5.31365" fill="#A1A1A1"/>
<rect x="132.932" y="21.2539" width="5.16129" height="5.31365" fill="#A1A1A1"/>
<rect x="132.932" y="116.902" width="5.16129" height="5.31365" fill="#A1A1A1"/>
<rect x="132.932" y="212.547" width="5.16129" height="5.31365" fill="#A1A1A1"/>
<rect x="50.3516" y="127.527" width="5.16129" height="5.31365" fill="#A1A1A1"/>
<rect x="215.513" y="127.527" width="5.16129" height="5.31365" fill="#A1A1A1"/>
<rect x="132.932" y="74.3906" width="5.16129" height="5.31365" fill="#A1A1A1"/>
<rect x="174.223" y="74.3906" width="5.16129" height="5.31365" fill="#A1A1A1"/>
<rect x="174.223" y="170.039" width="5.16129" height="5.31365" fill="#A1A1A1"/>
<rect x="261.964" y="90.332" width="5.16129" height="5.31365" fill="#A1A1A1"/>
<rect x="261.964" y="132.844" width="5.16129" height="5.31365" fill="#A1A1A1"/>
<rect x="179.384" y="47.8242" width="5.16129" height="5.31365" fill="#A1A1A1"/>
<rect x="179.384" y="5.31641" width="5.16129" height="5.31365" fill="#A1A1A1"/>
<rect x="261.964" y="95.6484" width="5.16129" height="5.31365" fill="#A1A1A1"/>
<rect x="261.964" y="138.156" width="5.16129" height="5.31365" fill="#A1A1A1"/>
<rect x="179.384" y="53.1367" width="5.16129" height="5.31365" fill="#A1A1A1"/>
<rect x="179.384" y="10.6289" width="5.16129" height="5.31365" fill="#A1A1A1"/>
<rect x="169.062" y="53.1367" width="5.16129" height="5.31365" fill="#A1A1A1"/>
<rect x="174.223" y="21.2539" width="5.16129" height="5.31365" fill="#A1A1A1"/>
<rect x="174.223" y="116.902" width="5.16129" height="5.31365" fill="#A1A1A1"/>
<rect x="174.223" y="207.234" width="5.16129" height="5.31365" fill="#A1A1A1"/>
<rect x="256.803" y="122.215" width="5.16129" height="5.31365" fill="#A1A1A1"/>
<rect x="91.6416" y="31.8828" width="5.16129" height="5.31365" fill="#A1A1A1"/>
<rect x="91.6416" y="127.527" width="5.16129" height="5.31365" fill="#A1A1A1"/>
<rect x="86.4805" y="127.527" width="5.16129" height="5.31365" fill="#A1A1A1"/>
<rect x="86.4805" y="138.156" width="5.16129" height="5.31365" fill="#A1A1A1"/>
<rect x="96.8027" y="138.156" width="5.16129" height="5.31365" fill="#A1A1A1"/>
<rect x="96.8027" y="127.527" width="5.16129" height="5.31365" fill="#A1A1A1"/>
<rect x="91.6416" y="223.176" width="5.16129" height="5.31365" fill="#A1A1A1"/>
<rect x="96.8027" y="223.176" width="5.16129" height="5.31365" fill="#A1A1A1"/>
<rect x="96.8027" y="212.547" width="5.16129" height="5.31365" fill="#A1A1A1"/>
<rect x="9.06055" y="138.156" width="5.16129" height="5.31365" fill="#A1A1A1"/>
<rect x="91.6416" y="85.0195" width="5.16129" height="5.31365" fill="#A1A1A1"/>
<rect x="91.6416" y="180.664" width="5.16129" height="5.31365" fill="#A1A1A1"/>
<rect x="9.06055" y="95.6484" width="5.16129" height="5.31365" fill="#A1A1A1"/>
<rect x="132.932" y="37.1953" width="5.16129" height="5.31365" fill="#A1A1A1"/>
<rect x="132.932" y="228.488" width="5.16129" height="5.31365" fill="#A1A1A1"/>
<rect x="50.3516" y="143.469" width="5.16129" height="5.31365" fill="#A1A1A1"/>
<rect x="215.513" y="143.469" width="5.16129" height="5.31365" fill="#A1A1A1"/>
<rect x="127.771" y="85.0195" width="5.16129" height="5.31365" fill="#A1A1A1"/>
<rect x="127.771" y="95.6484" width="5.16129" height="5.31365" fill="#A1A1A1"/>
<rect x="138.093" y="95.6484" width="5.16129" height="5.31365" fill="#A1A1A1"/>
<rect x="138.093" y="85.0195" width="5.16129" height="5.31365" fill="#A1A1A1"/>
<rect x="132.932" y="185.98" width="5.16129" height="5.31365" fill="#A1A1A1"/>
<rect x="50.3516" y="100.961" width="5.16129" height="5.31365" fill="#A1A1A1"/>
<rect x="215.513" y="100.961" width="5.16129" height="5.31365" fill="#A1A1A1"/>
<rect x="174.223" y="37.1953" width="5.16129" height="5.31365" fill="#A1A1A1"/>
<rect x="174.223" y="223.176" width="5.16129" height="5.31365" fill="#A1A1A1"/>
<rect x="256.803" y="138.156" width="5.16129" height="5.31365" fill="#A1A1A1"/>
<rect x="91.6416" y="185.98" width="5.16129" height="5.31365" fill="#A1A1A1"/>
<rect x="9.06055" y="100.961" width="5.16129" height="5.31365" fill="#A1A1A1"/>
<rect x="132.932" y="53.1367" width="5.16129" height="5.31365" fill="#A1A1A1"/>
<rect x="132.932" y="148.781" width="5.16129" height="5.31365" fill="#A1A1A1"/>
<rect x="132.932" y="244.43" width="5.16129" height="5.31365" fill="#A1A1A1"/>
<rect x="50.3516" y="159.41" width="5.16129" height="5.31365" fill="#A1A1A1"/>
<rect x="215.513" y="159.41" width="5.16129" height="5.31365" fill="#A1A1A1"/>
<rect x="174.223" y="53.1367" width="5.16129" height="5.31365" fill="#A1A1A1"/>
<rect x="174.223" y="148.781" width="5.16129" height="5.31365" fill="#A1A1A1"/>
<rect x="174.223" y="239.113" width="5.16129" height="5.31365" fill="#A1A1A1"/>
<rect x="256.803" y="154.098" width="5.16129" height="5.31365" fill="#A1A1A1"/>
<rect x="138.093" y="90.332" width="5.16129" height="5.31365" fill="#A1A1A1"/>
<rect x="55.5127" y="90.332" width="5.16129" height="5.31365" fill="#A1A1A1"/>
<rect x="220.674" y="90.332" width="5.16129" height="5.31365" fill="#A1A1A1"/>
<rect x="91.6416" y="53.1367" width="5.16129" height="5.31365" fill="#A1A1A1"/>
<rect x="91.6416" y="148.781" width="5.16129" height="5.31365" fill="#A1A1A1"/>
<rect x="91.6416" y="244.43" width="5.16129" height="5.31365" fill="#A1A1A1"/>
<rect x="9.06055" y="159.41" width="5.16129" height="5.31365" fill="#A1A1A1"/>
<rect x="91.6416" y="95.6484" width="5.16129" height="5.31365" fill="#A1A1A1"/>
<rect x="91.6416" y="143.469" width="5.16129" height="5.31365" fill="#A1A1A1"/>
<rect x="91.6416" y="239.113" width="5.16129" height="5.31365" fill="#A1A1A1"/>
<rect x="9.06055" y="154.098" width="5.16129" height="5.31365" fill="#A1A1A1"/>
<rect x="91.6416" y="191.293" width="5.16129" height="5.31365" fill="#A1A1A1"/>
<rect x="9.06055" y="106.273" width="5.16129" height="5.31365" fill="#A1A1A1"/>
<rect x="138.093" y="47.8242" width="5.16129" height="5.31365" fill="#A1A1A1"/>
<rect x="138.093" y="132.844" width="5.16129" height="5.31365" fill="#A1A1A1"/>
<rect x="138.093" y="175.352" width="5.16129" height="5.31365" fill="#A1A1A1"/>
<rect x="143.255" y="90.332" width="5.16129" height="5.31365" fill="#A1A1A1"/>
<rect x="143.255" y="175.352" width="5.16129" height="5.31365" fill="#A1A1A1"/>
<rect x="60.6738" y="90.332" width="5.16129" height="5.31365" fill="#A1A1A1"/>
<rect x="225.835" y="90.332" width="5.16129" height="5.31365" fill="#A1A1A1"/>
<rect x="143.255" y="260.371" width="5.16129" height="5.31365" fill="#A1A1A1"/>
<rect x="225.835" y="175.352" width="5.16129" height="5.31365" fill="#A1A1A1"/>
<rect x="60.6738" y="175.352" width="5.16129" height="5.31365" fill="#A1A1A1"/>
<rect x="132.932" y="100.961" width="5.16129" height="5.31365" fill="#A1A1A1"/>
<rect x="132.932" y="196.605" width="5.16129" height="5.31365" fill="#A1A1A1"/>
<rect x="50.3516" y="111.586" width="5.16129" height="5.31365" fill="#A1A1A1"/>
<rect x="215.513" y="111.586" width="5.16129" height="5.31365" fill="#A1A1A1"/>
<rect x="132.932" y="58.4492" width="5.16129" height="5.31365" fill="#A1A1A1"/>
<rect x="132.932" y="154.098" width="5.16129" height="5.31365" fill="#A1A1A1"/>
<rect x="132.932" y="249.742" width="5.16129" height="5.31365" fill="#A1A1A1"/>
<rect x="50.3516" y="164.723" width="5.16129" height="5.31365" fill="#A1A1A1"/>
<rect x="215.513" y="164.723" width="5.16129" height="5.31365" fill="#A1A1A1"/>
<rect x="174.223" y="58.4492" width="5.16129" height="5.31365" fill="#A1A1A1"/>
<rect x="174.223" y="154.098" width="5.16129" height="5.31365" fill="#A1A1A1"/>
<rect x="174.223" y="244.43" width="5.16129" height="5.31365" fill="#A1A1A1"/>
<rect x="256.803" y="159.41" width="5.16129" height="5.31365" fill="#A1A1A1"/>
<rect x="174.223" y="100.961" width="5.16129" height="5.31365" fill="#A1A1A1"/>
<rect x="174.223" y="191.293" width="5.16129" height="5.31365" fill="#A1A1A1"/>
<rect x="256.803" y="106.273" width="5.16129" height="5.31365" fill="#A1A1A1"/>
<path d="M96.6357 107.391C89.326 107.391 83.4493 101.298 83.4492 93.8447C83.4492 86.3911 89.3259 80.2989 96.6357 80.2988C103.946 80.2988 109.822 86.391 109.822 93.8447C109.822 101.298 103.946 107.391 96.6357 107.391Z" fill="black" stroke="#43FF46" stroke-width="2"/>
<ellipse cx="12.6737" cy="174.644" rx="12.1864" ry="12.5461" fill="white"/>
<ellipse cx="52.1581" cy="174.644" rx="12.1864" ry="12.5461" fill="white"/>
<ellipse cx="218.867" cy="174.644" rx="12.1864" ry="12.5461" fill="white"/>
<ellipse cx="259.813" cy="174.644" rx="12.1864" ry="12.5461" fill="white"/>
<ellipse cx="95.5409" cy="216.796" rx="12.1864" ry="12.5461" fill="white"/>
<ellipse cx="136.974" cy="217.3" rx="12.1864" ry="12.5461" fill="white"/>
<ellipse cx="177.433" cy="216.796" rx="12.1864" ry="12.5461" fill="white"/>
<ellipse cx="177.433" cy="258.952" rx="12.1864" ry="12.5461" fill="white"/>
<ellipse cx="136.974" cy="259.452" rx="12.1864" ry="12.5461" fill="white"/>
<ellipse cx="95.5409" cy="258.952" rx="12.1864" ry="12.5461" fill="white"/>
<path d="M167.198 167.135C168.286 167.135 169.168 166.226 169.168 165.106L169.168 146.846C169.168 145.725 168.286 144.817 167.198 144.817C166.109 144.817 165.227 145.725 165.227 146.846L165.227 163.077L149.461 163.077C148.373 163.077 147.491 163.985 147.491 165.106C147.491 166.226 148.373 167.135 149.461 167.135L167.198 167.135ZM106.266 102.375L104.872 103.81L165.804 166.54L167.198 165.106L168.591 163.671L107.659 100.94L106.266 102.375Z" fill="white"/>
<path d="M136 121.449C143.31 121.449 149.186 127.542 149.187 134.995C149.187 142.449 143.31 148.541 136 148.541C128.69 148.541 122.813 142.449 122.813 134.995C122.814 127.542 128.69 121.449 136 121.449Z" fill="white" stroke="#FF6363" stroke-width="2"/>
<ellipse cx="177.433" cy="174.644" rx="12.1864" ry="12.5461" fill="#43FF46" fill-opacity="0.65"/>
<ellipse cx="95.5409" cy="174.644" rx="12.1864" ry="12.5461" fill="#43FF46" fill-opacity="0.65"/>
<ellipse cx="12.1864" cy="92.843" rx="12.1864" ry="12.5461" fill="#43FF46" fill-opacity="0.65"/>
<path d="M103.389 173.226C102.608 174.007 102.608 175.274 103.389 176.055L116.117 188.783C116.898 189.564 118.164 189.564 118.945 188.783C119.726 188.002 119.726 186.735 118.945 185.954L107.632 174.641L118.945 163.327C119.726 162.546 119.726 161.28 118.945 160.498C118.164 159.717 116.898 159.717 116.117 160.498L103.389 173.226ZM166.71 174.641V172.641H104.803V174.641V176.641H166.71V174.641Z" fill="white"/>
<path d="M22.4994 101.065C21.4111 101.065 20.5287 101.973 20.5287 103.094L20.5287 121.354C20.5287 122.474 21.411 123.383 22.4994 123.383C23.5878 123.383 24.4701 122.474 24.4701 121.354L24.4701 105.123L40.2357 105.123C41.3241 105.123 42.2064 104.214 42.2064 103.094C42.2064 101.973 41.3241 101.065 40.2357 101.065L22.4994 101.065ZM84.4062 166.828L85.7997 165.393L23.8929 101.659L22.4994 103.094L21.1059 104.528L83.0128 168.263L84.4062 166.828Z" fill="white"/>
<path d="M136.975 161.098C144.284 161.098 150.161 167.19 150.161 174.644C150.161 182.097 144.284 188.189 136.975 188.189C129.665 188.189 123.788 182.097 123.788 174.644C123.788 167.19 129.665 161.098 136.975 161.098Z" fill="white" stroke="#FF6363" stroke-width="2"/>
<path d="M52.1582 117.434C59.4679 117.434 65.3446 123.526 65.3447 130.979C65.3447 138.433 59.468 144.525 52.1582 144.525C44.8483 144.525 38.9717 138.433 38.9717 130.979C38.9718 123.526 44.8484 117.434 52.1582 117.434Z" fill="white" stroke="#FF6363" stroke-width="2"/>
</svg>
