<svg width="275" height="275" viewBox="0 0 275 275" fill="none" xmlns="http://www.w3.org/2000/svg">
<rect x="7.79883" y="1.01172" width="5.78731" height="5.78699" transform="rotate(90.1159 7.79883 1.01172)" fill="#A1A1A1"/>
<rect x="7.79883" y="255.641" width="5.78731" height="5.78699" transform="rotate(90.1159 7.79883 255.641)" fill="#A1A1A1"/>
<rect x="135.112" y="1.01172" width="5.78731" height="5.78699" transform="rotate(90.1159 135.112 1.01172)" fill="#A1A1A1"/>
<rect x="77.2422" y="70.4609" width="5.78731" height="5.78699" transform="rotate(90.1159 77.2422 70.4609)" fill="#A1A1A1"/>
<rect x="135.112" y="70.4609" width="5.78731" height="5.78699" transform="rotate(90.1159 135.112 70.4609)" fill="#A1A1A1"/>
<rect x="192.982" y="186.199" width="5.78731" height="5.78699" transform="rotate(90.1159 192.982 186.199)" fill="#A1A1A1"/>
<rect x="77.2422" y="186.199" width="5.78731" height="5.78699" transform="rotate(90.1159 77.2422 186.199)" fill="#A1A1A1"/>
<rect x="192.982" y="70.4609" width="5.78731" height="5.78699" transform="rotate(90.1159 192.982 70.4609)" fill="#A1A1A1"/>
<rect x="135.112" y="186.199" width="5.78731" height="5.78699" transform="rotate(90.1159 135.112 186.199)" fill="#A1A1A1"/>
<rect x="256.638" y="139.891" width="5.78699" height="5.78731" transform="rotate(0.115898 256.638 139.891)" fill="#A1A1A1"/>
<rect x="2.01172" y="139.891" width="5.78699" height="5.78731" transform="rotate(0.115898 2.01172 139.891)" fill="#A1A1A1"/>
<rect x="135.112" y="255.641" width="5.78731" height="5.78699" transform="rotate(90.1159 135.112 255.641)" fill="#A1A1A1"/>
<rect x="135.112" y="12.582" width="5.78731" height="5.78699" transform="rotate(90.1159 135.112 12.582)" fill="#A1A1A1"/>
<rect x="77.2422" y="82.0273" width="5.78731" height="5.78699" transform="rotate(90.1159 77.2422 82.0273)" fill="#A1A1A1"/>
<rect x="135.112" y="82.0273" width="5.78731" height="5.78699" transform="rotate(90.1159 135.112 82.0273)" fill="#A1A1A1"/>
<rect x="192.982" y="197.773" width="5.78731" height="5.78699" transform="rotate(90.1159 192.982 197.773)" fill="#A1A1A1"/>
<rect x="77.2422" y="197.773" width="5.78731" height="5.78699" transform="rotate(90.1159 77.2422 197.773)" fill="#A1A1A1"/>
<rect x="192.982" y="82.0273" width="5.78731" height="5.78699" transform="rotate(90.1159 192.982 82.0273)" fill="#A1A1A1"/>
<rect x="83.0293" y="139.891" width="5.78699" height="5.78731" transform="rotate(0.115898 83.0293 139.891)" fill="#A1A1A1"/>
<rect x="187.194" y="139.891" width="5.78699" height="5.78731" transform="rotate(0.115898 187.194 139.891)" fill="#A1A1A1"/>
<rect x="198.77" y="139.891" width="5.78699" height="5.78731" transform="rotate(0.115898 198.77 139.891)" fill="#A1A1A1"/>
<rect x="71.4561" y="139.891" width="5.78699" height="5.78731" transform="rotate(0.115898 71.4561 139.891)" fill="#A1A1A1"/>
<rect x="135.112" y="197.773" width="5.78731" height="5.78699" transform="rotate(90.1159 135.112 197.773)" fill="#A1A1A1"/>
<rect x="268.211" y="139.891" width="5.78699" height="5.78731" transform="rotate(0.115898 268.211 139.891)" fill="#A1A1A1"/>
<rect x="13.585" y="139.891" width="5.78699" height="5.78731" transform="rotate(0.115898 13.585 139.891)" fill="#A1A1A1"/>
<rect x="135.112" y="267.211" width="5.78731" height="5.78699" transform="rotate(90.1159 135.112 267.211)" fill="#A1A1A1"/>
<rect x="262.424" y="1.01172" width="5.78731" height="5.78699" transform="rotate(90.1159 262.424 1.01172)" fill="#A1A1A1"/>
<rect x="262.424" y="255.641" width="5.78731" height="5.78699" transform="rotate(90.1159 262.424 255.641)" fill="#A1A1A1"/>
<rect x="19.3711" y="1.01172" width="5.78731" height="5.78699" transform="rotate(90.1159 19.3711 1.01172)" fill="#A1A1A1"/>
<rect x="19.3711" y="255.641" width="5.78731" height="5.78699" transform="rotate(90.1159 19.3711 255.641)" fill="#A1A1A1"/>
<rect x="146.687" y="1.01172" width="5.78731" height="5.78699" transform="rotate(90.1159 146.687 1.01172)" fill="#A1A1A1"/>
<rect x="88.8164" y="70.4609" width="5.78731" height="5.78699" transform="rotate(90.1159 88.8164 70.4609)" fill="#A1A1A1"/>
<rect x="146.687" y="70.4609" width="5.78731" height="5.78699" transform="rotate(90.1159 146.687 70.4609)" fill="#A1A1A1"/>
<rect x="204.556" y="186.199" width="5.78731" height="5.78699" transform="rotate(90.1159 204.556 186.199)" fill="#A1A1A1"/>
<rect x="88.8164" y="186.199" width="5.78731" height="5.78699" transform="rotate(90.1159 88.8164 186.199)" fill="#A1A1A1"/>
<rect x="204.556" y="70.4609" width="5.78731" height="5.78699" transform="rotate(90.1159 204.556 70.4609)" fill="#A1A1A1"/>
<rect x="146.687" y="186.199" width="5.78731" height="5.78699" transform="rotate(90.1159 146.687 186.199)" fill="#A1A1A1"/>
<rect x="256.638" y="128.32" width="5.78699" height="5.78731" transform="rotate(0.115898 256.638 128.32)" fill="#A1A1A1"/>
<rect x="2.01172" y="128.32" width="5.78699" height="5.78731" transform="rotate(0.115898 2.01172 128.32)" fill="#A1A1A1"/>
<rect x="146.687" y="255.641" width="5.78731" height="5.78699" transform="rotate(90.1159 146.687 255.641)" fill="#A1A1A1"/>
<rect x="146.687" y="12.582" width="5.78731" height="5.78699" transform="rotate(90.1159 146.687 12.582)" fill="#A1A1A1"/>
<rect x="88.8164" y="82.0273" width="5.78731" height="5.78699" transform="rotate(90.1159 88.8164 82.0273)" fill="#A1A1A1"/>
<rect x="146.687" y="82.0273" width="5.78731" height="5.78699" transform="rotate(90.1159 146.687 82.0273)" fill="#A1A1A1"/>
<rect x="204.556" y="197.773" width="5.78731" height="5.78699" transform="rotate(90.1159 204.556 197.773)" fill="#A1A1A1"/>
<rect x="88.8164" y="197.773" width="5.78731" height="5.78699" transform="rotate(90.1159 88.8164 197.773)" fill="#A1A1A1"/>
<rect x="204.556" y="82.0273" width="5.78731" height="5.78699" transform="rotate(90.1159 204.556 82.0273)" fill="#A1A1A1"/>
<rect x="83.0293" y="128.32" width="5.78699" height="5.78731" transform="rotate(0.115898 83.0293 128.32)" fill="#A1A1A1"/>
<rect x="187.194" y="128.32" width="5.78699" height="5.78731" transform="rotate(0.115898 187.194 128.32)" fill="#A1A1A1"/>
<rect x="198.77" y="128.32" width="5.78699" height="5.78731" transform="rotate(0.115898 198.77 128.32)" fill="#A1A1A1"/>
<rect x="71.4561" y="128.32" width="5.78699" height="5.78731" transform="rotate(0.115898 71.4561 128.32)" fill="#A1A1A1"/>
<rect x="146.687" y="197.773" width="5.78731" height="5.78699" transform="rotate(90.1159 146.687 197.773)" fill="#A1A1A1"/>
<rect x="268.211" y="128.32" width="5.78699" height="5.78731" transform="rotate(0.115898 268.211 128.32)" fill="#A1A1A1"/>
<rect x="13.585" y="128.32" width="5.78699" height="5.78731" transform="rotate(0.115898 13.585 128.32)" fill="#A1A1A1"/>
<rect x="146.687" y="267.211" width="5.78731" height="5.78699" transform="rotate(90.1159 146.687 267.211)" fill="#A1A1A1"/>
<rect x="274" y="1.01172" width="5.78731" height="5.78699" transform="rotate(90.1159 274 1.01172)" fill="#A1A1A1"/>
<rect x="274" y="255.641" width="5.78731" height="5.78699" transform="rotate(90.1159 274 255.641)" fill="#A1A1A1"/>
<rect x="7.79883" y="12.582" width="5.78731" height="5.78699" transform="rotate(90.1159 7.79883 12.582)" fill="#A1A1A1"/>
<rect x="7.79883" y="267.211" width="5.78731" height="5.78699" transform="rotate(90.1159 7.79883 267.211)" fill="#A1A1A1"/>
<rect x="262.424" y="12.582" width="5.78731" height="5.78699" transform="rotate(90.1159 262.424 12.582)" fill="#A1A1A1"/>
<rect x="262.424" y="267.211" width="5.78731" height="5.78699" transform="rotate(90.1159 262.424 267.211)" fill="#A1A1A1"/>
<rect x="19.3711" y="12.582" width="5.78731" height="5.78699" transform="rotate(90.1159 19.3711 12.582)" fill="#A1A1A1"/>
<rect x="19.3711" y="267.211" width="5.78731" height="5.78699" transform="rotate(90.1159 19.3711 267.211)" fill="#A1A1A1"/>
<rect x="274" y="12.582" width="5.78731" height="5.78699" transform="rotate(90.1159 274 12.582)" fill="#A1A1A1"/>
<rect x="274" y="267.211" width="5.78731" height="5.78699" transform="rotate(90.1159 274 267.211)" fill="#A1A1A1"/>
<rect x="7.79883" y="6.79297" width="5.78731" height="5.78699" transform="rotate(90.1159 7.79883 6.79297)" fill="#A1A1A1"/>
<rect x="7.79883" y="261.422" width="5.78731" height="5.78699" transform="rotate(90.1159 7.79883 261.422)" fill="#A1A1A1"/>
<rect x="262.424" y="6.79297" width="5.78731" height="5.78699" transform="rotate(90.1159 262.424 6.79297)" fill="#A1A1A1"/>
<rect x="262.424" y="261.422" width="5.78731" height="5.78699" transform="rotate(90.1159 262.424 261.422)" fill="#A1A1A1"/>
<rect x="19.3711" y="6.79297" width="5.78731" height="5.78699" transform="rotate(90.1159 19.3711 6.79297)" fill="#A1A1A1"/>
<rect x="19.3711" y="261.422" width="5.78731" height="5.78699" transform="rotate(90.1159 19.3711 261.422)" fill="#A1A1A1"/>
<rect x="274" y="6.79297" width="5.78731" height="5.78699" transform="rotate(90.1159 274 6.79297)" fill="#A1A1A1"/>
<rect x="274" y="261.422" width="5.78731" height="5.78699" transform="rotate(90.1159 274 261.422)" fill="#A1A1A1"/>
<rect x="30.9463" y="6.79297" width="5.78731" height="5.78699" transform="rotate(90.1159 30.9463 6.79297)" fill="#A1A1A1"/>
<rect x="25.1592" y="6.79297" width="5.78731" height="5.78699" transform="rotate(90.1159 25.1592 6.79297)" fill="#A1A1A1"/>
<rect x="262.424" y="244.059" width="5.78699" height="5.78731" transform="rotate(0.115898 262.424 244.059)" fill="#A1A1A1"/>
<rect x="262.424" y="249.848" width="5.78699" height="5.78731" transform="rotate(0.115898 262.424 249.848)" fill="#A1A1A1"/>
<rect x="7.79883" y="244.059" width="5.78699" height="5.78731" transform="rotate(0.115898 7.79883 244.059)" fill="#A1A1A1"/>
<rect x="7.79883" y="249.848" width="5.78699" height="5.78731" transform="rotate(0.115898 7.79883 249.848)" fill="#A1A1A1"/>
<rect x="30.9463" y="261.422" width="5.78731" height="5.78699" transform="rotate(90.1159 30.9463 261.422)" fill="#A1A1A1"/>
<rect x="25.1592" y="261.422" width="5.78731" height="5.78699" transform="rotate(90.1159 25.1592 261.422)" fill="#A1A1A1"/>
<rect x="30.9463" y="134.113" width="5.78731" height="5.78699" transform="rotate(90.1159 30.9463 134.113)" fill="#A1A1A1"/>
<rect x="135.112" y="58.8711" width="5.78699" height="5.78731" transform="rotate(0.115898 135.112 58.8711)" fill="#A1A1A1"/>
<rect x="135.112" y="244.059" width="5.78699" height="5.78731" transform="rotate(0.115898 135.112 244.059)" fill="#A1A1A1"/>
<rect x="77.2422" y="122.527" width="5.78699" height="5.78731" transform="rotate(0.115898 77.2422 122.527)" fill="#A1A1A1"/>
<rect x="192.982" y="122.527" width="5.78699" height="5.78731" transform="rotate(0.115898 192.982 122.527)" fill="#A1A1A1"/>
<rect x="123.526" y="82.0195" width="5.78731" height="5.78699" transform="rotate(-89.8841 123.526 82.0195)" fill="#A1A1A1"/>
<rect x="123.526" y="197.758" width="5.78731" height="5.78699" transform="rotate(-89.8841 123.526 197.758)" fill="#A1A1A1"/>
<rect x="77.2422" y="174.613" width="5.78699" height="5.78731" transform="rotate(0.115898 77.2422 174.613)" fill="#A1A1A1"/>
<rect x="192.982" y="174.613" width="5.78699" height="5.78731" transform="rotate(0.115898 192.982 174.613)" fill="#A1A1A1"/>
<rect x="175.608" y="82.0195" width="5.78731" height="5.78699" transform="rotate(-89.8841 175.608 82.0195)" fill="#A1A1A1"/>
<rect x="175.608" y="197.758" width="5.78731" height="5.78699" transform="rotate(-89.8841 175.608 197.758)" fill="#A1A1A1"/>
<rect x="25.1592" y="134.113" width="5.78731" height="5.78699" transform="rotate(90.1159 25.1592 134.113)" fill="#A1A1A1"/>
<rect x="135.112" y="64.6523" width="5.78699" height="5.78731" transform="rotate(0.115898 135.112 64.6523)" fill="#A1A1A1"/>
<rect x="135.112" y="249.848" width="5.78699" height="5.78731" transform="rotate(0.115898 135.112 249.848)" fill="#A1A1A1"/>
<rect x="77.2422" y="128.32" width="5.78699" height="5.78731" transform="rotate(0.115898 77.2422 128.32)" fill="#A1A1A1"/>
<rect x="192.982" y="128.32" width="5.78699" height="5.78731" transform="rotate(0.115898 192.982 128.32)" fill="#A1A1A1"/>
<rect x="71.4434" y="82.0195" width="5.78731" height="5.78699" transform="rotate(-89.8841 71.4434 82.0195)" fill="#A1A1A1"/>
<rect x="129.314" y="82.0195" width="5.78731" height="5.78699" transform="rotate(-89.8841 129.314 82.0195)" fill="#A1A1A1"/>
<rect x="187.185" y="197.758" width="5.78731" height="5.78699" transform="rotate(-89.8841 187.185 197.758)" fill="#A1A1A1"/>
<rect x="71.4434" y="197.758" width="5.78731" height="5.78699" transform="rotate(-89.8841 71.4434 197.758)" fill="#A1A1A1"/>
<rect x="187.185" y="82.0195" width="5.78731" height="5.78699" transform="rotate(-89.8841 187.185 82.0195)" fill="#A1A1A1"/>
<rect x="129.314" y="197.758" width="5.78731" height="5.78699" transform="rotate(-89.8841 129.314 197.758)" fill="#A1A1A1"/>
<rect x="77.2422" y="180.395" width="5.78699" height="5.78731" transform="rotate(0.115898 77.2422 180.395)" fill="#A1A1A1"/>
<rect x="192.982" y="180.395" width="5.78699" height="5.78731" transform="rotate(0.115898 192.982 180.395)" fill="#A1A1A1"/>
<rect x="181.397" y="82.0195" width="5.78731" height="5.78699" transform="rotate(-89.8841 181.397 82.0195)" fill="#A1A1A1"/>
<rect x="181.397" y="197.758" width="5.78731" height="5.78699" transform="rotate(-89.8841 181.397 197.758)" fill="#A1A1A1"/>
<rect x="123.538" y="6.79297" width="5.78731" height="5.78699" transform="rotate(90.1159 123.538 6.79297)" fill="#A1A1A1"/>
<rect x="262.424" y="151.465" width="5.78699" height="5.78731" transform="rotate(0.115898 262.424 151.465)" fill="#A1A1A1"/>
<rect x="7.79883" y="151.465" width="5.78699" height="5.78731" transform="rotate(0.115898 7.79883 151.465)" fill="#A1A1A1"/>
<rect x="123.538" y="261.422" width="5.78731" height="5.78699" transform="rotate(90.1159 123.538 261.422)" fill="#A1A1A1"/>
<rect x="245.064" y="134.113" width="5.78731" height="5.78699" transform="rotate(90.1159 245.064 134.113)" fill="#A1A1A1"/>
<rect x="77.2422" y="6.79297" width="5.78731" height="5.78699" transform="rotate(90.1159 77.2422 6.79297)" fill="#A1A1A1"/>
<rect x="262.424" y="197.758" width="5.78699" height="5.78731" transform="rotate(0.115898 262.424 197.758)" fill="#A1A1A1"/>
<rect x="7.79883" y="197.758" width="5.78699" height="5.78731" transform="rotate(0.115898 7.79883 197.758)" fill="#A1A1A1"/>
<rect x="77.2422" y="261.422" width="5.78731" height="5.78699" transform="rotate(90.1159 77.2422 261.422)" fill="#A1A1A1"/>
<rect x="169.834" y="6.79297" width="5.78731" height="5.78699" transform="rotate(90.1159 169.834 6.79297)" fill="#A1A1A1"/>
<rect x="262.424" y="105.168" width="5.78699" height="5.78731" transform="rotate(0.115898 262.424 105.168)" fill="#A1A1A1"/>
<rect x="7.79883" y="105.168" width="5.78699" height="5.78731" transform="rotate(0.115898 7.79883 105.168)" fill="#A1A1A1"/>
<rect x="169.834" y="261.422" width="5.78731" height="5.78699" transform="rotate(90.1159 169.834 261.422)" fill="#A1A1A1"/>
<rect x="227.703" y="6.79297" width="5.78731" height="5.78699" transform="rotate(90.1159 227.703 6.79297)" fill="#A1A1A1"/>
<rect x="262.424" y="47.293" width="5.78699" height="5.78731" transform="rotate(0.115898 262.424 47.293)" fill="#A1A1A1"/>
<rect x="7.79883" y="47.293" width="5.78699" height="5.78731" transform="rotate(0.115898 7.79883 47.293)" fill="#A1A1A1"/>
<rect x="227.703" y="261.422" width="5.78731" height="5.78699" transform="rotate(90.1159 227.703 261.422)" fill="#A1A1A1"/>
<rect x="54.0957" y="6.79297" width="5.78731" height="5.78699" transform="rotate(90.1159 54.0957 6.79297)" fill="#A1A1A1"/>
<rect x="262.424" y="220.914" width="5.78699" height="5.78731" transform="rotate(0.115898 262.424 220.914)" fill="#A1A1A1"/>
<rect x="7.79883" y="220.914" width="5.78699" height="5.78731" transform="rotate(0.115898 7.79883 220.914)" fill="#A1A1A1"/>
<rect x="54.0957" y="261.422" width="5.78731" height="5.78699" transform="rotate(90.1159 54.0957 261.422)" fill="#A1A1A1"/>
<rect x="54.0957" y="134.113" width="5.78731" height="5.78699" transform="rotate(90.1159 54.0957 134.113)" fill="#A1A1A1"/>
<rect x="135.112" y="35.7227" width="5.78699" height="5.78731" transform="rotate(0.115898 135.112 35.7227)" fill="#A1A1A1"/>
<rect x="135.112" y="220.914" width="5.78699" height="5.78731" transform="rotate(0.115898 135.112 220.914)" fill="#A1A1A1"/>
<rect x="77.2422" y="99.375" width="5.78699" height="5.78731" transform="rotate(0.115898 77.2422 99.375)" fill="#A1A1A1"/>
<rect x="192.982" y="99.375" width="5.78699" height="5.78731" transform="rotate(0.115898 192.982 99.375)" fill="#A1A1A1"/>
<rect x="100.378" y="82.0195" width="5.78731" height="5.78699" transform="rotate(-89.8841 100.378 82.0195)" fill="#A1A1A1"/>
<rect x="100.378" y="197.758" width="5.78731" height="5.78699" transform="rotate(-89.8841 100.378 197.758)" fill="#A1A1A1"/>
<rect x="77.2422" y="151.465" width="5.78699" height="5.78731" transform="rotate(0.115898 77.2422 151.465)" fill="#A1A1A1"/>
<rect x="192.982" y="151.465" width="5.78699" height="5.78731" transform="rotate(0.115898 192.982 151.465)" fill="#A1A1A1"/>
<rect x="152.461" y="82.0195" width="5.78731" height="5.78699" transform="rotate(-89.8841 152.461 82.0195)" fill="#A1A1A1"/>
<rect x="152.461" y="197.758" width="5.78731" height="5.78699" transform="rotate(-89.8841 152.461 197.758)" fill="#A1A1A1"/>
<rect x="146.687" y="6.79297" width="5.78731" height="5.78699" transform="rotate(90.1159 146.687 6.79297)" fill="#A1A1A1"/>
<rect x="262.424" y="128.32" width="5.78699" height="5.78731" transform="rotate(0.115898 262.424 128.32)" fill="#A1A1A1"/>
<rect x="7.79883" y="128.32" width="5.78699" height="5.78731" transform="rotate(0.115898 7.79883 128.32)" fill="#A1A1A1"/>
<rect x="146.687" y="261.422" width="5.78731" height="5.78699" transform="rotate(90.1159 146.687 261.422)" fill="#A1A1A1"/>
<rect x="100.391" y="6.79297" width="5.78731" height="5.78699" transform="rotate(90.1159 100.391 6.79297)" fill="#A1A1A1"/>
<rect x="262.424" y="174.613" width="5.78699" height="5.78731" transform="rotate(0.115898 262.424 174.613)" fill="#A1A1A1"/>
<rect x="7.79883" y="174.613" width="5.78699" height="5.78731" transform="rotate(0.115898 7.79883 174.613)" fill="#A1A1A1"/>
<rect x="100.391" y="261.422" width="5.78731" height="5.78699" transform="rotate(90.1159 100.391 261.422)" fill="#A1A1A1"/>
<rect x="221.916" y="134.113" width="5.78731" height="5.78699" transform="rotate(90.1159 221.916 134.113)" fill="#A1A1A1"/>
<rect x="192.982" y="6.79297" width="5.78731" height="5.78699" transform="rotate(90.1159 192.982 6.79297)" fill="#A1A1A1"/>
<rect x="262.424" y="82.0195" width="5.78699" height="5.78731" transform="rotate(0.115898 262.424 82.0195)" fill="#A1A1A1"/>
<rect x="7.79883" y="82.0195" width="5.78699" height="5.78731" transform="rotate(0.115898 7.79883 82.0195)" fill="#A1A1A1"/>
<rect x="192.982" y="261.422" width="5.78731" height="5.78699" transform="rotate(90.1159 192.982 261.422)" fill="#A1A1A1"/>
<rect x="250.852" y="6.79297" width="5.78731" height="5.78699" transform="rotate(90.1159 250.852 6.79297)" fill="#A1A1A1"/>
<rect x="262.424" y="24.1445" width="5.78699" height="5.78731" transform="rotate(0.115898 262.424 24.1445)" fill="#A1A1A1"/>
<rect x="7.79883" y="24.1445" width="5.78699" height="5.78731" transform="rotate(0.115898 7.79883 24.1445)" fill="#A1A1A1"/>
<rect x="250.852" y="261.422" width="5.78731" height="5.78699" transform="rotate(90.1159 250.852 261.422)" fill="#A1A1A1"/>
<rect x="36.7324" y="6.79297" width="5.78731" height="5.78699" transform="rotate(90.1159 36.7324 6.79297)" fill="#A1A1A1"/>
<rect x="262.424" y="238.27" width="5.78699" height="5.78731" transform="rotate(0.115898 262.424 238.27)" fill="#A1A1A1"/>
<rect x="7.79883" y="238.27" width="5.78699" height="5.78731" transform="rotate(0.115898 7.79883 238.27)" fill="#A1A1A1"/>
<rect x="36.7324" y="261.422" width="5.78731" height="5.78699" transform="rotate(90.1159 36.7324 261.422)" fill="#A1A1A1"/>
<rect x="36.7324" y="134.113" width="5.78731" height="5.78699" transform="rotate(90.1159 36.7324 134.113)" fill="#A1A1A1"/>
<rect x="135.112" y="53.082" width="5.78699" height="5.78731" transform="rotate(0.115898 135.112 53.082)" fill="#A1A1A1"/>
<rect x="135.112" y="238.27" width="5.78699" height="5.78731" transform="rotate(0.115898 135.112 238.27)" fill="#A1A1A1"/>
<rect x="77.2422" y="116.738" width="5.78699" height="5.78731" transform="rotate(0.115898 77.2422 116.738)" fill="#A1A1A1"/>
<rect x="192.982" y="116.738" width="5.78699" height="5.78731" transform="rotate(0.115898 192.982 116.738)" fill="#A1A1A1"/>
<rect x="117.739" y="82.0195" width="5.78731" height="5.78699" transform="rotate(-89.8841 117.739 82.0195)" fill="#A1A1A1"/>
<rect x="117.739" y="197.758" width="5.78731" height="5.78699" transform="rotate(-89.8841 117.739 197.758)" fill="#A1A1A1"/>
<rect x="77.2422" y="168.824" width="5.78699" height="5.78731" transform="rotate(0.115898 77.2422 168.824)" fill="#A1A1A1"/>
<rect x="192.982" y="168.824" width="5.78699" height="5.78731" transform="rotate(0.115898 192.982 168.824)" fill="#A1A1A1"/>
<rect x="169.822" y="82.0195" width="5.78731" height="5.78699" transform="rotate(-89.8841 169.822 82.0195)" fill="#A1A1A1"/>
<rect x="169.822" y="197.758" width="5.78731" height="5.78699" transform="rotate(-89.8841 169.822 197.758)" fill="#A1A1A1"/>
<rect x="129.325" y="6.79297" width="5.78731" height="5.78699" transform="rotate(90.1159 129.325 6.79297)" fill="#A1A1A1"/>
<rect x="262.424" y="145.676" width="5.78699" height="5.78731" transform="rotate(0.115898 262.424 145.676)" fill="#A1A1A1"/>
<rect x="7.79883" y="145.676" width="5.78699" height="5.78731" transform="rotate(0.115898 7.79883 145.676)" fill="#A1A1A1"/>
<rect x="129.325" y="261.422" width="5.78731" height="5.78699" transform="rotate(90.1159 129.325 261.422)" fill="#A1A1A1"/>
<rect x="250.852" y="134.113" width="5.78731" height="5.78699" transform="rotate(90.1159 250.852 134.113)" fill="#A1A1A1"/>
<rect x="83.0293" y="6.79297" width="5.78731" height="5.78699" transform="rotate(90.1159 83.0293 6.79297)" fill="#A1A1A1"/>
<rect x="262.424" y="191.969" width="5.78699" height="5.78731" transform="rotate(0.115898 262.424 191.969)" fill="#A1A1A1"/>
<rect x="7.79883" y="191.969" width="5.78699" height="5.78731" transform="rotate(0.115898 7.79883 191.969)" fill="#A1A1A1"/>
<rect x="83.0293" y="261.422" width="5.78731" height="5.78699" transform="rotate(90.1159 83.0293 261.422)" fill="#A1A1A1"/>
<rect x="175.621" y="6.79297" width="5.78731" height="5.78699" transform="rotate(90.1159 175.621 6.79297)" fill="#A1A1A1"/>
<rect x="262.424" y="99.375" width="5.78699" height="5.78731" transform="rotate(0.115898 262.424 99.375)" fill="#A1A1A1"/>
<rect x="7.79883" y="99.375" width="5.78699" height="5.78731" transform="rotate(0.115898 7.79883 99.375)" fill="#A1A1A1"/>
<rect x="175.621" y="261.422" width="5.78731" height="5.78699" transform="rotate(90.1159 175.621 261.422)" fill="#A1A1A1"/>
<rect x="233.49" y="6.79297" width="5.78731" height="5.78699" transform="rotate(90.1159 233.49 6.79297)" fill="#A1A1A1"/>
<rect x="262.424" y="41.5039" width="5.78699" height="5.78731" transform="rotate(0.115898 262.424 41.5039)" fill="#A1A1A1"/>
<rect x="7.79883" y="41.5039" width="5.78699" height="5.78731" transform="rotate(0.115898 7.79883 41.5039)" fill="#A1A1A1"/>
<rect x="233.49" y="261.422" width="5.78731" height="5.78699" transform="rotate(90.1159 233.49 261.422)" fill="#A1A1A1"/>
<rect x="59.8809" y="6.79297" width="5.78731" height="5.78699" transform="rotate(90.1159 59.8809 6.79297)" fill="#A1A1A1"/>
<rect x="262.424" y="215.125" width="5.78699" height="5.78731" transform="rotate(0.115898 262.424 215.125)" fill="#A1A1A1"/>
<rect x="7.79883" y="215.125" width="5.78699" height="5.78731" transform="rotate(0.115898 7.79883 215.125)" fill="#A1A1A1"/>
<rect x="59.8809" y="261.422" width="5.78731" height="5.78699" transform="rotate(90.1159 59.8809 261.422)" fill="#A1A1A1"/>
<rect x="59.8809" y="134.113" width="5.78731" height="5.78699" transform="rotate(90.1159 59.8809 134.113)" fill="#A1A1A1"/>
<rect x="135.112" y="29.9336" width="5.78699" height="5.78731" transform="rotate(0.115898 135.112 29.9336)" fill="#A1A1A1"/>
<rect x="135.112" y="215.125" width="5.78699" height="5.78731" transform="rotate(0.115898 135.112 215.125)" fill="#A1A1A1"/>
<rect x="77.2422" y="93.5898" width="5.78699" height="5.78731" transform="rotate(0.115898 77.2422 93.5898)" fill="#A1A1A1"/>
<rect x="192.982" y="93.5898" width="5.78699" height="5.78731" transform="rotate(0.115898 192.982 93.5898)" fill="#A1A1A1"/>
<rect x="94.5908" y="82.0195" width="5.78731" height="5.78699" transform="rotate(-89.8841 94.5908 82.0195)" fill="#A1A1A1"/>
<rect x="94.5908" y="197.758" width="5.78731" height="5.78699" transform="rotate(-89.8841 94.5908 197.758)" fill="#A1A1A1"/>
<rect x="77.2422" y="145.676" width="5.78699" height="5.78731" transform="rotate(0.115898 77.2422 145.676)" fill="#A1A1A1"/>
<rect x="192.982" y="145.676" width="5.78699" height="5.78731" transform="rotate(0.115898 192.982 145.676)" fill="#A1A1A1"/>
<rect x="146.674" y="82.0195" width="5.78731" height="5.78699" transform="rotate(-89.8841 146.674 82.0195)" fill="#A1A1A1"/>
<rect x="146.674" y="197.758" width="5.78731" height="5.78699" transform="rotate(-89.8841 146.674 197.758)" fill="#A1A1A1"/>
<rect x="152.474" y="6.79297" width="5.78731" height="5.78699" transform="rotate(90.1159 152.474 6.79297)" fill="#A1A1A1"/>
<rect x="262.424" y="122.527" width="5.78699" height="5.78731" transform="rotate(0.115898 262.424 122.527)" fill="#A1A1A1"/>
<rect x="7.79883" y="122.527" width="5.78699" height="5.78731" transform="rotate(0.115898 7.79883 122.527)" fill="#A1A1A1"/>
<rect x="152.474" y="261.422" width="5.78731" height="5.78699" transform="rotate(90.1159 152.474 261.422)" fill="#A1A1A1"/>
<rect x="106.178" y="6.79297" width="5.78731" height="5.78699" transform="rotate(90.1159 106.178 6.79297)" fill="#A1A1A1"/>
<rect x="262.424" y="168.824" width="5.78699" height="5.78731" transform="rotate(0.115898 262.424 168.824)" fill="#A1A1A1"/>
<rect x="7.79883" y="168.824" width="5.78699" height="5.78731" transform="rotate(0.115898 7.79883 168.824)" fill="#A1A1A1"/>
<rect x="106.178" y="261.422" width="5.78731" height="5.78699" transform="rotate(90.1159 106.178 261.422)" fill="#A1A1A1"/>
<rect x="227.703" y="134.113" width="5.78731" height="5.78699" transform="rotate(90.1159 227.703 134.113)" fill="#A1A1A1"/>
<rect x="198.77" y="6.79297" width="5.78731" height="5.78699" transform="rotate(90.1159 198.77 6.79297)" fill="#A1A1A1"/>
<rect x="262.424" y="76.2305" width="5.78699" height="5.78731" transform="rotate(0.115898 262.424 76.2305)" fill="#A1A1A1"/>
<rect x="7.79883" y="76.2305" width="5.78699" height="5.78731" transform="rotate(0.115898 7.79883 76.2305)" fill="#A1A1A1"/>
<rect x="198.77" y="261.422" width="5.78731" height="5.78699" transform="rotate(90.1159 198.77 261.422)" fill="#A1A1A1"/>
<rect x="256.638" y="6.79297" width="5.78731" height="5.78699" transform="rotate(90.1159 256.638 6.79297)" fill="#A1A1A1"/>
<rect x="262.424" y="18.3594" width="5.78699" height="5.78731" transform="rotate(0.115898 262.424 18.3594)" fill="#A1A1A1"/>
<rect x="7.79883" y="18.3594" width="5.78699" height="5.78731" transform="rotate(0.115898 7.79883 18.3594)" fill="#A1A1A1"/>
<rect x="256.638" y="261.422" width="5.78731" height="5.78699" transform="rotate(90.1159 256.638 261.422)" fill="#A1A1A1"/>
<rect x="42.5195" y="6.79297" width="5.78731" height="5.78699" transform="rotate(90.1159 42.5195 6.79297)" fill="#A1A1A1"/>
<rect x="262.424" y="232.484" width="5.78699" height="5.78731" transform="rotate(0.115898 262.424 232.484)" fill="#A1A1A1"/>
<rect x="7.79883" y="232.484" width="5.78699" height="5.78731" transform="rotate(0.115898 7.79883 232.484)" fill="#A1A1A1"/>
<rect x="42.5195" y="261.422" width="5.78731" height="5.78699" transform="rotate(90.1159 42.5195 261.422)" fill="#A1A1A1"/>
<rect x="42.5195" y="134.113" width="5.78731" height="5.78699" transform="rotate(90.1159 42.5195 134.113)" fill="#A1A1A1"/>
<rect x="135.112" y="47.293" width="5.78699" height="5.78731" transform="rotate(0.115898 135.112 47.293)" fill="#A1A1A1"/>
<rect x="135.112" y="232.484" width="5.78699" height="5.78731" transform="rotate(0.115898 135.112 232.484)" fill="#A1A1A1"/>
<rect x="77.2422" y="110.945" width="5.78699" height="5.78731" transform="rotate(0.115898 77.2422 110.945)" fill="#A1A1A1"/>
<rect x="192.982" y="110.945" width="5.78699" height="5.78731" transform="rotate(0.115898 192.982 110.945)" fill="#A1A1A1"/>
<rect x="111.953" y="82.0195" width="5.78731" height="5.78699" transform="rotate(-89.8841 111.953 82.0195)" fill="#A1A1A1"/>
<rect x="111.953" y="197.758" width="5.78731" height="5.78699" transform="rotate(-89.8841 111.953 197.758)" fill="#A1A1A1"/>
<rect x="77.2422" y="163.035" width="5.78699" height="5.78731" transform="rotate(0.115898 77.2422 163.035)" fill="#A1A1A1"/>
<rect x="192.982" y="163.035" width="5.78699" height="5.78731" transform="rotate(0.115898 192.982 163.035)" fill="#A1A1A1"/>
<rect x="164.035" y="82.0195" width="5.78731" height="5.78699" transform="rotate(-89.8841 164.035 82.0195)" fill="#A1A1A1"/>
<rect x="164.035" y="197.758" width="5.78731" height="5.78699" transform="rotate(-89.8841 164.035 197.758)" fill="#A1A1A1"/>
<rect x="135.112" y="6.79297" width="5.78731" height="5.78699" transform="rotate(90.1159 135.112 6.79297)" fill="#A1A1A1"/>
<rect x="262.424" y="139.891" width="5.78699" height="5.78731" transform="rotate(0.115898 262.424 139.891)" fill="#A1A1A1"/>
<rect x="7.79883" y="139.891" width="5.78699" height="5.78731" transform="rotate(0.115898 7.79883 139.891)" fill="#A1A1A1"/>
<rect x="135.112" y="261.422" width="5.78731" height="5.78699" transform="rotate(90.1159 135.112 261.422)" fill="#A1A1A1"/>
<rect x="256.638" y="134.113" width="5.78731" height="5.78699" transform="rotate(90.1159 256.638 134.113)" fill="#A1A1A1"/>
<rect x="88.8164" y="6.79297" width="5.78731" height="5.78699" transform="rotate(90.1159 88.8164 6.79297)" fill="#A1A1A1"/>
<rect x="262.424" y="186.184" width="5.78699" height="5.78731" transform="rotate(0.115898 262.424 186.184)" fill="#A1A1A1"/>
<rect x="7.79883" y="186.184" width="5.78699" height="5.78731" transform="rotate(0.115898 7.79883 186.184)" fill="#A1A1A1"/>
<rect x="88.8164" y="261.422" width="5.78731" height="5.78699" transform="rotate(90.1159 88.8164 261.422)" fill="#A1A1A1"/>
<rect x="210.342" y="134.113" width="5.78731" height="5.78699" transform="rotate(90.1159 210.342 134.113)" fill="#A1A1A1"/>
<rect x="204.556" y="134.113" width="5.78731" height="5.78699" transform="rotate(90.1159 204.556 134.113)" fill="#A1A1A1"/>
<rect x="181.407" y="6.79297" width="5.78731" height="5.78699" transform="rotate(90.1159 181.407 6.79297)" fill="#A1A1A1"/>
<rect x="262.424" y="93.5898" width="5.78699" height="5.78731" transform="rotate(0.115898 262.424 93.5898)" fill="#A1A1A1"/>
<rect x="7.79883" y="93.5898" width="5.78699" height="5.78731" transform="rotate(0.115898 7.79883 93.5898)" fill="#A1A1A1"/>
<rect x="181.407" y="261.422" width="5.78731" height="5.78699" transform="rotate(90.1159 181.407 261.422)" fill="#A1A1A1"/>
<rect x="239.277" y="6.79297" width="5.78731" height="5.78699" transform="rotate(90.1159 239.277 6.79297)" fill="#A1A1A1"/>
<rect x="262.424" y="35.7227" width="5.78699" height="5.78731" transform="rotate(0.115898 262.424 35.7227)" fill="#A1A1A1"/>
<rect x="7.79883" y="35.7227" width="5.78699" height="5.78731" transform="rotate(0.115898 7.79883 35.7227)" fill="#A1A1A1"/>
<rect x="239.277" y="261.422" width="5.78731" height="5.78699" transform="rotate(90.1159 239.277 261.422)" fill="#A1A1A1"/>
<rect x="65.6699" y="6.79297" width="5.78731" height="5.78699" transform="rotate(90.1159 65.6699 6.79297)" fill="#A1A1A1"/>
<rect x="262.424" y="209.332" width="5.78699" height="5.78731" transform="rotate(0.115898 262.424 209.332)" fill="#A1A1A1"/>
<rect x="7.79883" y="209.332" width="5.78699" height="5.78731" transform="rotate(0.115898 7.79883 209.332)" fill="#A1A1A1"/>
<rect x="65.6699" y="261.422" width="5.78731" height="5.78699" transform="rotate(90.1159 65.6699 261.422)" fill="#A1A1A1"/>
<rect x="65.6699" y="134.113" width="5.78731" height="5.78699" transform="rotate(90.1159 65.6699 134.113)" fill="#A1A1A1"/>
<rect x="135.112" y="24.1445" width="5.78699" height="5.78731" transform="rotate(0.115898 135.112 24.1445)" fill="#A1A1A1"/>
<rect x="135.112" y="209.332" width="5.78699" height="5.78731" transform="rotate(0.115898 135.112 209.332)" fill="#A1A1A1"/>
<rect x="77.2422" y="87.8008" width="5.78699" height="5.78731" transform="rotate(0.115898 77.2422 87.8008)" fill="#A1A1A1"/>
<rect x="77.2422" y="82.0195" width="5.78699" height="5.78731" transform="rotate(0.115898 77.2422 82.0195)" fill="#A1A1A1"/>
<rect x="135.112" y="82.0195" width="5.78699" height="5.78731" transform="rotate(0.115898 135.112 82.0195)" fill="#A1A1A1"/>
<rect x="192.982" y="197.758" width="5.78699" height="5.78731" transform="rotate(0.115898 192.982 197.758)" fill="#A1A1A1"/>
<rect x="77.2422" y="197.758" width="5.78699" height="5.78731" transform="rotate(0.115898 77.2422 197.758)" fill="#A1A1A1"/>
<rect x="192.982" y="82.0195" width="5.78699" height="5.78731" transform="rotate(0.115898 192.982 82.0195)" fill="#A1A1A1"/>
<rect x="192.982" y="87.8008" width="5.78699" height="5.78731" transform="rotate(0.115898 192.982 87.8008)" fill="#A1A1A1"/>
<rect x="88.8057" y="82.0195" width="5.78731" height="5.78699" transform="rotate(-89.8841 88.8057 82.0195)" fill="#A1A1A1"/>
<rect x="88.8057" y="197.758" width="5.78731" height="5.78699" transform="rotate(-89.8841 88.8057 197.758)" fill="#A1A1A1"/>
<rect x="77.2422" y="139.891" width="5.78699" height="5.78731" transform="rotate(0.115898 77.2422 139.891)" fill="#A1A1A1"/>
<rect x="192.982" y="139.891" width="5.78699" height="5.78731" transform="rotate(0.115898 192.982 139.891)" fill="#A1A1A1"/>
<rect x="83.0186" y="82.0195" width="5.78731" height="5.78699" transform="rotate(-89.8841 83.0186 82.0195)" fill="#A1A1A1"/>
<rect x="140.887" y="82.0195" width="5.78731" height="5.78699" transform="rotate(-89.8841 140.887 82.0195)" fill="#A1A1A1"/>
<rect x="198.758" y="197.758" width="5.78731" height="5.78699" transform="rotate(-89.8841 198.758 197.758)" fill="#A1A1A1"/>
<rect x="83.0186" y="197.758" width="5.78731" height="5.78699" transform="rotate(-89.8841 83.0186 197.758)" fill="#A1A1A1"/>
<rect x="198.758" y="82.0195" width="5.78731" height="5.78699" transform="rotate(-89.8841 198.758 82.0195)" fill="#A1A1A1"/>
<rect x="140.887" y="197.758" width="5.78731" height="5.78699" transform="rotate(-89.8841 140.887 197.758)" fill="#A1A1A1"/>
<rect x="158.26" y="6.79297" width="5.78731" height="5.78699" transform="rotate(90.1159 158.26 6.79297)" fill="#A1A1A1"/>
<rect x="262.424" y="116.738" width="5.78699" height="5.78731" transform="rotate(0.115898 262.424 116.738)" fill="#A1A1A1"/>
<rect x="7.79883" y="116.738" width="5.78699" height="5.78731" transform="rotate(0.115898 7.79883 116.738)" fill="#A1A1A1"/>
<rect x="158.26" y="261.422" width="5.78731" height="5.78699" transform="rotate(90.1159 158.26 261.422)" fill="#A1A1A1"/>
<rect x="216.129" y="6.79297" width="5.78731" height="5.78699" transform="rotate(90.1159 216.129 6.79297)" fill="#A1A1A1"/>
<rect x="262.424" y="58.8711" width="5.78699" height="5.78731" transform="rotate(0.115898 262.424 58.8711)" fill="#A1A1A1"/>
<rect x="7.79883" y="58.8711" width="5.78699" height="5.78731" transform="rotate(0.115898 7.79883 58.8711)" fill="#A1A1A1"/>
<rect x="216.129" y="261.422" width="5.78731" height="5.78699" transform="rotate(90.1159 216.129 261.422)" fill="#A1A1A1"/>
<rect x="111.964" y="6.79297" width="5.78731" height="5.78699" transform="rotate(90.1159 111.964 6.79297)" fill="#A1A1A1"/>
<rect x="262.424" y="163.035" width="5.78699" height="5.78731" transform="rotate(0.115898 262.424 163.035)" fill="#A1A1A1"/>
<rect x="7.79883" y="163.035" width="5.78699" height="5.78731" transform="rotate(0.115898 7.79883 163.035)" fill="#A1A1A1"/>
<rect x="111.964" y="261.422" width="5.78731" height="5.78699" transform="rotate(90.1159 111.964 261.422)" fill="#A1A1A1"/>
<rect x="233.49" y="134.113" width="5.78731" height="5.78699" transform="rotate(90.1159 233.49 134.113)" fill="#A1A1A1"/>
<rect x="204.556" y="6.79297" width="5.78731" height="5.78699" transform="rotate(90.1159 204.556 6.79297)" fill="#A1A1A1"/>
<rect x="262.424" y="70.4414" width="5.78699" height="5.78731" transform="rotate(0.115898 262.424 70.4414)" fill="#A1A1A1"/>
<rect x="7.79883" y="70.4414" width="5.78699" height="5.78731" transform="rotate(0.115898 7.79883 70.4414)" fill="#A1A1A1"/>
<rect x="204.556" y="261.422" width="5.78731" height="5.78699" transform="rotate(90.1159 204.556 261.422)" fill="#A1A1A1"/>
<rect x="48.3086" y="6.79297" width="5.78731" height="5.78699" transform="rotate(90.1159 48.3086 6.79297)" fill="#A1A1A1"/>
<rect x="262.424" y="226.695" width="5.78699" height="5.78731" transform="rotate(0.115898 262.424 226.695)" fill="#A1A1A1"/>
<rect x="7.79883" y="226.695" width="5.78699" height="5.78731" transform="rotate(0.115898 7.79883 226.695)" fill="#A1A1A1"/>
<rect x="48.3086" y="261.422" width="5.78731" height="5.78699" transform="rotate(90.1159 48.3086 261.422)" fill="#A1A1A1"/>
<rect x="48.3086" y="134.113" width="5.78731" height="5.78699" transform="rotate(90.1159 48.3086 134.113)" fill="#A1A1A1"/>
<rect x="135.112" y="41.5039" width="5.78699" height="5.78731" transform="rotate(0.115898 135.112 41.5039)" fill="#A1A1A1"/>
<rect x="135.112" y="226.695" width="5.78699" height="5.78731" transform="rotate(0.115898 135.112 226.695)" fill="#A1A1A1"/>
<rect x="77.2422" y="105.168" width="5.78699" height="5.78731" transform="rotate(0.115898 77.2422 105.168)" fill="#A1A1A1"/>
<rect x="192.982" y="105.168" width="5.78699" height="5.78731" transform="rotate(0.115898 192.982 105.168)" fill="#A1A1A1"/>
<rect x="106.166" y="82.0195" width="5.78731" height="5.78699" transform="rotate(-89.8841 106.166 82.0195)" fill="#A1A1A1"/>
<rect x="106.166" y="197.758" width="5.78731" height="5.78699" transform="rotate(-89.8841 106.166 197.758)" fill="#A1A1A1"/>
<rect x="77.2422" y="157.246" width="5.78699" height="5.78731" transform="rotate(0.115898 77.2422 157.246)" fill="#A1A1A1"/>
<rect x="192.982" y="157.246" width="5.78699" height="5.78731" transform="rotate(0.115898 192.982 157.246)" fill="#A1A1A1"/>
<rect x="158.248" y="82.0195" width="5.78731" height="5.78699" transform="rotate(-89.8841 158.248 82.0195)" fill="#A1A1A1"/>
<rect x="158.248" y="197.758" width="5.78731" height="5.78699" transform="rotate(-89.8841 158.248 197.758)" fill="#A1A1A1"/>
<rect x="94.6045" y="6.79297" width="5.78731" height="5.78699" transform="rotate(90.1159 94.6045 6.79297)" fill="#A1A1A1"/>
<rect x="262.424" y="180.395" width="5.78699" height="5.78731" transform="rotate(0.115898 262.424 180.395)" fill="#A1A1A1"/>
<rect x="7.79883" y="180.395" width="5.78699" height="5.78731" transform="rotate(0.115898 7.79883 180.395)" fill="#A1A1A1"/>
<rect x="94.6045" y="261.422" width="5.78731" height="5.78699" transform="rotate(90.1159 94.6045 261.422)" fill="#A1A1A1"/>
<rect x="216.129" y="134.113" width="5.78731" height="5.78699" transform="rotate(90.1159 216.129 134.113)" fill="#A1A1A1"/>
<rect x="187.194" y="6.79297" width="5.78731" height="5.78699" transform="rotate(90.1159 187.194 6.79297)" fill="#A1A1A1"/>
<rect x="262.424" y="87.8008" width="5.78699" height="5.78731" transform="rotate(0.115898 262.424 87.8008)" fill="#A1A1A1"/>
<rect x="7.79883" y="87.8008" width="5.78699" height="5.78731" transform="rotate(0.115898 7.79883 87.8008)" fill="#A1A1A1"/>
<rect x="187.194" y="261.422" width="5.78731" height="5.78699" transform="rotate(90.1159 187.194 261.422)" fill="#A1A1A1"/>
<rect x="245.064" y="6.79297" width="5.78731" height="5.78699" transform="rotate(90.1159 245.064 6.79297)" fill="#A1A1A1"/>
<rect x="262.424" y="29.9336" width="5.78699" height="5.78731" transform="rotate(0.115898 262.424 29.9336)" fill="#A1A1A1"/>
<rect x="7.79883" y="29.9336" width="5.78699" height="5.78731" transform="rotate(0.115898 7.79883 29.9336)" fill="#A1A1A1"/>
<rect x="245.064" y="261.422" width="5.78731" height="5.78699" transform="rotate(90.1159 245.064 261.422)" fill="#A1A1A1"/>
<rect x="71.4561" y="6.79297" width="5.78731" height="5.78699" transform="rotate(90.1159 71.4561 6.79297)" fill="#A1A1A1"/>
<rect x="262.424" y="203.539" width="5.78699" height="5.78731" transform="rotate(0.115898 262.424 203.539)" fill="#A1A1A1"/>
<rect x="7.79883" y="203.539" width="5.78699" height="5.78731" transform="rotate(0.115898 7.79883 203.539)" fill="#A1A1A1"/>
<rect x="71.4561" y="261.422" width="5.78731" height="5.78699" transform="rotate(90.1159 71.4561 261.422)" fill="#A1A1A1"/>
<rect x="71.4561" y="134.113" width="5.78731" height="5.78699" transform="rotate(90.1159 71.4561 134.113)" fill="#A1A1A1"/>
<rect x="135.112" y="18.3594" width="5.78699" height="5.78731" transform="rotate(0.115898 135.112 18.3594)" fill="#A1A1A1"/>
<rect x="135.112" y="203.539" width="5.78699" height="5.78731" transform="rotate(0.115898 135.112 203.539)" fill="#A1A1A1"/>
<rect x="77.2422" y="134.113" width="5.78731" height="5.78699" transform="rotate(90.1159 77.2422 134.113)" fill="#A1A1A1"/>
<rect x="164.046" y="6.79297" width="5.78731" height="5.78699" transform="rotate(90.1159 164.046 6.79297)" fill="#A1A1A1"/>
<rect x="262.424" y="110.945" width="5.78699" height="5.78731" transform="rotate(0.115898 262.424 110.945)" fill="#A1A1A1"/>
<rect x="7.79883" y="110.945" width="5.78699" height="5.78731" transform="rotate(0.115898 7.79883 110.945)" fill="#A1A1A1"/>
<rect x="164.046" y="261.422" width="5.78731" height="5.78699" transform="rotate(90.1159 164.046 261.422)" fill="#A1A1A1"/>
<rect x="221.916" y="6.79297" width="5.78731" height="5.78699" transform="rotate(90.1159 221.916 6.79297)" fill="#A1A1A1"/>
<rect x="262.424" y="53.082" width="5.78699" height="5.78731" transform="rotate(0.115898 262.424 53.082)" fill="#A1A1A1"/>
<rect x="7.79883" y="53.082" width="5.78699" height="5.78731" transform="rotate(0.115898 7.79883 53.082)" fill="#A1A1A1"/>
<rect x="221.916" y="261.422" width="5.78731" height="5.78699" transform="rotate(90.1159 221.916 261.422)" fill="#A1A1A1"/>
<rect x="117.75" y="6.79297" width="5.78731" height="5.78699" transform="rotate(90.1159 117.75 6.79297)" fill="#A1A1A1"/>
<rect x="262.424" y="157.246" width="5.78699" height="5.78731" transform="rotate(0.115898 262.424 157.246)" fill="#A1A1A1"/>
<rect x="7.79883" y="157.246" width="5.78699" height="5.78731" transform="rotate(0.115898 7.79883 157.246)" fill="#A1A1A1"/>
<rect x="117.75" y="261.422" width="5.78731" height="5.78699" transform="rotate(90.1159 117.75 261.422)" fill="#A1A1A1"/>
<rect x="239.277" y="134.113" width="5.78731" height="5.78699" transform="rotate(90.1159 239.277 134.113)" fill="#A1A1A1"/>
<rect x="210.342" y="6.79297" width="5.78731" height="5.78699" transform="rotate(90.1159 210.342 6.79297)" fill="#A1A1A1"/>
<rect x="262.424" y="64.6523" width="5.78699" height="5.78731" transform="rotate(0.115898 262.424 64.6523)" fill="#A1A1A1"/>
<rect x="7.79883" y="64.6523" width="5.78699" height="5.78731" transform="rotate(0.115898 7.79883 64.6523)" fill="#A1A1A1"/>
<rect x="210.342" y="261.422" width="5.78731" height="5.78699" transform="rotate(90.1159 210.342 261.422)" fill="#A1A1A1"/>
<rect x="13.585" y="1.01172" width="5.78731" height="5.78699" transform="rotate(90.1159 13.585 1.01172)" fill="#A1A1A1"/>
<rect x="13.585" y="255.641" width="5.78731" height="5.78699" transform="rotate(90.1159 13.585 255.641)" fill="#A1A1A1"/>
<rect x="140.898" y="1.01172" width="5.78731" height="5.78699" transform="rotate(90.1159 140.898 1.01172)" fill="#A1A1A1"/>
<rect x="83.0293" y="70.4609" width="5.78731" height="5.78699" transform="rotate(90.1159 83.0293 70.4609)" fill="#A1A1A1"/>
<rect x="140.898" y="70.4609" width="5.78731" height="5.78699" transform="rotate(90.1159 140.898 70.4609)" fill="#A1A1A1"/>
<rect x="198.77" y="186.199" width="5.78731" height="5.78699" transform="rotate(90.1159 198.77 186.199)" fill="#A1A1A1"/>
<rect x="83.0293" y="186.199" width="5.78731" height="5.78699" transform="rotate(90.1159 83.0293 186.199)" fill="#A1A1A1"/>
<rect x="198.77" y="70.4609" width="5.78731" height="5.78699" transform="rotate(90.1159 198.77 70.4609)" fill="#A1A1A1"/>
<rect x="140.898" y="186.199" width="5.78731" height="5.78699" transform="rotate(90.1159 140.898 186.199)" fill="#A1A1A1"/>
<rect x="256.638" y="134.102" width="5.78699" height="5.78731" transform="rotate(0.115898 256.638 134.102)" fill="#A1A1A1"/>
<rect x="2.01172" y="134.102" width="5.78699" height="5.78731" transform="rotate(0.115898 2.01172 134.102)" fill="#A1A1A1"/>
<rect x="140.898" y="255.641" width="5.78731" height="5.78699" transform="rotate(90.1159 140.898 255.641)" fill="#A1A1A1"/>
<rect x="140.898" y="12.582" width="5.78731" height="5.78699" transform="rotate(90.1159 140.898 12.582)" fill="#A1A1A1"/>
<rect x="83.0293" y="134.102" width="5.78699" height="5.78731" transform="rotate(0.115898 83.0293 134.102)" fill="#A1A1A1"/>
<rect x="187.194" y="134.102" width="5.78699" height="5.78731" transform="rotate(0.115898 187.194 134.102)" fill="#A1A1A1"/>
<rect x="140.898" y="197.773" width="5.78731" height="5.78699" transform="rotate(90.1159 140.898 197.773)" fill="#A1A1A1"/>
<rect x="268.211" y="134.102" width="5.78699" height="5.78731" transform="rotate(0.115898 268.211 134.102)" fill="#A1A1A1"/>
<rect x="13.585" y="134.102" width="5.78699" height="5.78731" transform="rotate(0.115898 13.585 134.102)" fill="#A1A1A1"/>
<rect x="140.898" y="267.211" width="5.78731" height="5.78699" transform="rotate(90.1159 140.898 267.211)" fill="#A1A1A1"/>
<rect x="268.211" y="1.01172" width="5.78731" height="5.78699" transform="rotate(90.1159 268.211 1.01172)" fill="#A1A1A1"/>
<rect x="268.211" y="255.641" width="5.78731" height="5.78699" transform="rotate(90.1159 268.211 255.641)" fill="#A1A1A1"/>
<rect x="13.585" y="12.582" width="5.78731" height="5.78699" transform="rotate(90.1159 13.585 12.582)" fill="#A1A1A1"/>
<rect x="13.585" y="267.211" width="5.78731" height="5.78699" transform="rotate(90.1159 13.585 267.211)" fill="#A1A1A1"/>
<rect x="268.211" y="12.582" width="5.78731" height="5.78699" transform="rotate(90.1159 268.211 12.582)" fill="#A1A1A1"/>
<rect x="268.211" y="267.211" width="5.78731" height="5.78699" transform="rotate(90.1159 268.211 267.211)" fill="#A1A1A1"/>
<circle cx="265" cy="10" r="10" fill="white"/>
<circle cx="80" cy="194" r="10" fill="white"/>
<circle cx="196" cy="194" r="10" fill="white"/>
<circle cx="81" cy="79" r="10" fill="white"/>
<circle cx="196" cy="79" r="10" fill="black"/>
<circle cx="196" cy="137" r="10" fill="black"/>
<circle cx="10" cy="10" r="10" fill="black"/>
<circle cx="265" cy="137" r="10" fill="black"/>
<circle cx="138" cy="265" r="10" fill="white"/>
<circle cx="10" cy="265" r="10" fill="black"/>
<circle cx="265" cy="265" r="10" fill="black"/>
<circle cx="10" cy="137" r="10" fill="white"/>
</svg>
