<svg width="276" height="272" viewBox="0 0 276 272" fill="none" xmlns="http://www.w3.org/2000/svg">
<rect x="255.582" y="7.81006" width="5.26239" height="5.20574" fill="#A1A1A1"/>
<rect x="255.582" y="70.2788" width="5.26239" height="5.20574" fill="#A1A1A1"/>
<rect x="2.98633" y="7.81006" width="5.26239" height="5.20574" fill="#A1A1A1"/>
<rect x="2.98633" y="70.2788" width="5.26239" height="5.20574" fill="#A1A1A1"/>
<rect x="2.98633" y="132.748" width="5.26239" height="5.20574" fill="#A1A1A1"/>
<rect x="2.98633" y="257.686" width="5.26239" height="5.20574" fill="#A1A1A1"/>
<rect x="2.98633" y="195.217" width="5.26239" height="5.20574" fill="#A1A1A1"/>
<rect x="255.582" y="195.217" width="5.26239" height="5.20574" fill="#A1A1A1"/>
<rect x="255.582" y="132.748" width="5.26239" height="5.20574" fill="#A1A1A1"/>
<rect x="260.844" y="7.81006" width="5.26239" height="5.20574" fill="#A1A1A1"/>
<rect x="260.844" y="70.2788" width="5.26239" height="5.20574" fill="#A1A1A1"/>
<rect x="8.25" y="7.81006" width="5.26239" height="5.20574" fill="#A1A1A1"/>
<rect x="8.25" y="70.2788" width="5.26239" height="5.20574" fill="#A1A1A1"/>
<rect x="8.25" y="257.686" width="5.26239" height="5.20574" fill="#A1A1A1"/>
<rect x="8.25" y="195.217" width="5.26239" height="5.20574" fill="#A1A1A1"/>
<rect x="260.844" y="195.217" width="5.26239" height="5.20574" fill="#A1A1A1"/>
<rect x="260.844" y="132.748" width="5.26239" height="5.20574" fill="#A1A1A1"/>
<rect x="266.107" y="13.0156" width="5.20574" height="5.26239" transform="rotate(90 266.107 13.0156)" fill="#A1A1A1"/>
<rect x="266.107" y="75.4849" width="5.20574" height="5.26239" transform="rotate(90 266.107 75.4849)" fill="#A1A1A1"/>
<rect x="13.5117" y="13.0156" width="5.20574" height="5.26239" transform="rotate(90 13.5117 13.0156)" fill="#A1A1A1"/>
<rect x="13.5117" y="75.4849" width="5.20574" height="5.26239" transform="rotate(90 13.5117 75.4849)" fill="#A1A1A1"/>
<rect x="13.5117" y="262.892" width="5.20574" height="5.26239" transform="rotate(90 13.5117 262.892)" fill="#A1A1A1"/>
<rect x="13.5117" y="200.422" width="5.20574" height="5.26239" transform="rotate(90 13.5117 200.422)" fill="#A1A1A1"/>
<rect x="266.107" y="200.422" width="5.20574" height="5.26239" transform="rotate(90 266.107 200.422)" fill="#A1A1A1"/>
<rect x="266.107" y="137.954" width="5.20574" height="5.26239" transform="rotate(90 266.107 137.954)" fill="#A1A1A1"/>
<rect x="260.844" y="13.0156" width="5.20574" height="5.26239" transform="rotate(90 260.844 13.0156)" fill="#A1A1A1"/>
<rect x="260.844" y="75.4849" width="5.20574" height="5.26239" transform="rotate(90 260.844 75.4849)" fill="#A1A1A1"/>
<rect x="8.25" y="13.0156" width="5.20574" height="5.26239" transform="rotate(90 8.25 13.0156)" fill="#A1A1A1"/>
<rect x="8.25" y="75.4849" width="5.20574" height="5.26239" transform="rotate(90 8.25 75.4849)" fill="#A1A1A1"/>
<rect x="8.25" y="137.954" width="5.20574" height="5.26239" transform="rotate(90 8.25 137.954)" fill="#A1A1A1"/>
<rect x="13.5117" y="137.954" width="5.20574" height="5.26239" transform="rotate(90 13.5117 137.954)" fill="#A1A1A1"/>
<rect x="234.533" y="39.0444" width="5.20574" height="5.26239" transform="rotate(90 234.533 39.0444)" fill="#A1A1A1"/>
<rect x="187.172" y="85.896" width="5.20574" height="5.26239" transform="rotate(90 187.172 85.896)" fill="#A1A1A1"/>
<rect x="187.172" y="23.4272" width="5.20574" height="5.26239" transform="rotate(90 187.172 23.4272)" fill="#A1A1A1"/>
<rect x="124.021" y="23.4272" width="5.20574" height="5.26239" transform="rotate(90 124.021 23.4272)" fill="#A1A1A1"/>
<rect x="92.4473" y="179.6" width="5.20574" height="5.26239" transform="rotate(90 92.4473 179.6)" fill="#A1A1A1"/>
<rect x="113.498" y="221.246" width="5.20574" height="5.26239" transform="rotate(90 113.498 221.246)" fill="#A1A1A1"/>
<rect x="60.873" y="148.365" width="5.20574" height="5.26239" transform="rotate(90 60.873 148.365)" fill="#A1A1A1"/>
<rect x="29.2988" y="117.131" width="5.20574" height="5.26239" transform="rotate(90 29.2988 117.131)" fill="#A1A1A1"/>
<rect x="45.0859" y="226.451" width="5.20574" height="5.26239" transform="rotate(90 45.0859 226.451)" fill="#A1A1A1"/>
<rect x="150.334" y="184.805" width="5.20574" height="5.26239" transform="rotate(90 150.334 184.805)" fill="#A1A1A1"/>
<rect x="97.7109" y="111.925" width="5.20574" height="5.26239" transform="rotate(90 97.7109 111.925)" fill="#A1A1A1"/>
<rect x="66.1367" y="80.6904" width="5.20574" height="5.26239" transform="rotate(90 66.1367 80.6904)" fill="#A1A1A1"/>
<rect x="255.582" y="18.2217" width="5.20574" height="5.26239" transform="rotate(90 255.582 18.2217)" fill="#A1A1A1"/>
<rect x="160.859" y="111.925" width="5.20574" height="5.26239" transform="rotate(90 160.859 111.925)" fill="#A1A1A1"/>
<rect x="160.859" y="49.4561" width="5.20574" height="5.26239" transform="rotate(90 160.859 49.4561)" fill="#A1A1A1"/>
<rect x="129.285" y="80.6904" width="5.20574" height="5.26239" transform="rotate(90 129.285 80.6904)" fill="#A1A1A1"/>
<rect x="97.7109" y="49.4561" width="5.20574" height="5.26239" transform="rotate(90 97.7109 49.4561)" fill="#A1A1A1"/>
<rect x="239.795" y="96.3076" width="5.20574" height="5.26239" transform="rotate(90 239.795 96.3076)" fill="#A1A1A1"/>
<rect x="234.533" y="101.514" width="5.20574" height="5.26239" transform="rotate(90 234.533 101.514)" fill="#A1A1A1"/>
<rect x="113.498" y="158.776" width="5.20574" height="5.26239" transform="rotate(90 113.498 158.776)" fill="#A1A1A1"/>
<rect x="218.746" y="117.131" width="5.20574" height="5.26239" transform="rotate(90 218.746 117.131)" fill="#A1A1A1"/>
<rect x="260.844" y="137.954" width="5.20574" height="5.26239" transform="rotate(90 260.844 137.954)" fill="#A1A1A1"/>
<rect x="39.8242" y="169.188" width="5.20574" height="5.26239" transform="rotate(90 39.8242 169.188)" fill="#A1A1A1"/>
<rect x="250.32" y="148.365" width="5.20574" height="5.26239" transform="rotate(90 250.32 148.365)" fill="#A1A1A1"/>
<rect x="250.32" y="210.834" width="5.20574" height="5.26239" transform="rotate(90 250.32 210.834)" fill="#A1A1A1"/>
<rect x="29.2988" y="179.6" width="5.20574" height="5.26239" transform="rotate(90 29.2988 179.6)" fill="#A1A1A1"/>
<rect x="224.008" y="174.394" width="5.20574" height="5.26239" transform="rotate(90 224.008 174.394)" fill="#A1A1A1"/>
<rect x="192.434" y="205.628" width="5.20574" height="5.26239" transform="rotate(90 192.434 205.628)" fill="#A1A1A1"/>
<rect x="160.859" y="236.863" width="5.20574" height="5.26239" transform="rotate(90 160.859 236.863)" fill="#A1A1A1"/>
<rect x="224.008" y="236.863" width="5.20574" height="5.26239" transform="rotate(90 224.008 236.863)" fill="#A1A1A1"/>
<rect x="229.27" y="231.657" width="5.20574" height="5.26239" transform="rotate(90 229.27 231.657)" fill="#A1A1A1"/>
<rect x="50.3496" y="96.3076" width="5.20574" height="5.26239" transform="rotate(90 50.3496 96.3076)" fill="#A1A1A1"/>
<rect x="66.1367" y="205.628" width="5.20574" height="5.26239" transform="rotate(90 66.1367 205.628)" fill="#A1A1A1"/>
<rect x="171.385" y="163.982" width="5.20574" height="5.26239" transform="rotate(90 171.385 163.982)" fill="#A1A1A1"/>
<rect x="229.27" y="44.2505" width="5.20574" height="5.26239" transform="rotate(90 229.27 44.2505)" fill="#A1A1A1"/>
<rect x="181.908" y="91.1021" width="5.20574" height="5.26239" transform="rotate(90 181.908 91.1021)" fill="#A1A1A1"/>
<rect x="181.908" y="28.6328" width="5.20574" height="5.26239" transform="rotate(90 181.908 28.6328)" fill="#A1A1A1"/>
<rect x="118.76" y="28.6328" width="5.20574" height="5.26239" transform="rotate(90 118.76 28.6328)" fill="#A1A1A1"/>
<rect x="87.1855" y="184.805" width="5.20574" height="5.26239" transform="rotate(90 87.1855 184.805)" fill="#A1A1A1"/>
<rect x="192.434" y="143.159" width="5.20574" height="5.26239" transform="rotate(90 192.434 143.159)" fill="#A1A1A1"/>
<rect x="108.234" y="226.451" width="5.20574" height="5.26239" transform="rotate(90 108.234 226.451)" fill="#A1A1A1"/>
<rect x="55.6113" y="153.571" width="5.20574" height="5.26239" transform="rotate(90 55.6113 153.571)" fill="#A1A1A1"/>
<rect x="24.0371" y="122.336" width="5.20574" height="5.26239" transform="rotate(90 24.0371 122.336)" fill="#A1A1A1"/>
<rect x="92.4473" y="242.068" width="5.20574" height="5.26239" transform="rotate(90 92.4473 242.068)" fill="#A1A1A1"/>
<rect x="39.8242" y="231.657" width="5.20574" height="5.26239" transform="rotate(90 39.8242 231.657)" fill="#A1A1A1"/>
<rect x="92.4473" y="117.131" width="5.20574" height="5.26239" transform="rotate(90 92.4473 117.131)" fill="#A1A1A1"/>
<rect x="60.873" y="85.896" width="5.20574" height="5.26239" transform="rotate(90 60.873 85.896)" fill="#A1A1A1"/>
<rect x="250.32" y="23.4272" width="5.20574" height="5.26239" transform="rotate(90 250.32 23.4272)" fill="#A1A1A1"/>
<rect x="155.596" y="117.131" width="5.20574" height="5.26239" transform="rotate(90 155.596 117.131)" fill="#A1A1A1"/>
<rect x="155.596" y="54.6616" width="5.20574" height="5.26239" transform="rotate(90 155.596 54.6616)" fill="#A1A1A1"/>
<rect x="124.021" y="85.896" width="5.20574" height="5.26239" transform="rotate(90 124.021 85.896)" fill="#A1A1A1"/>
<rect x="92.4473" y="54.6616" width="5.20574" height="5.26239" transform="rotate(90 92.4473 54.6616)" fill="#A1A1A1"/>
<rect x="108.234" y="163.982" width="5.20574" height="5.26239" transform="rotate(90 108.234 163.982)" fill="#A1A1A1"/>
<rect x="213.482" y="122.336" width="5.20574" height="5.26239" transform="rotate(90 213.482 122.336)" fill="#A1A1A1"/>
<rect x="255.582" y="143.159" width="5.20574" height="5.26239" transform="rotate(90 255.582 143.159)" fill="#A1A1A1"/>
<rect x="255.582" y="205.628" width="5.20574" height="5.26239" transform="rotate(90 255.582 205.628)" fill="#A1A1A1"/>
<rect x="34.5625" y="174.394" width="5.20574" height="5.26239" transform="rotate(90 34.5625 174.394)" fill="#A1A1A1"/>
<rect x="229.27" y="169.188" width="5.20574" height="5.26239" transform="rotate(90 229.27 169.188)" fill="#A1A1A1"/>
<rect x="166.121" y="231.657" width="5.20574" height="5.26239" transform="rotate(90 166.121 231.657)" fill="#A1A1A1"/>
<rect x="245.057" y="153.571" width="5.20574" height="5.26239" transform="rotate(90 245.057 153.571)" fill="#A1A1A1"/>
<rect x="245.057" y="216.04" width="5.20574" height="5.26239" transform="rotate(90 245.057 216.04)" fill="#A1A1A1"/>
<rect x="24.0371" y="184.805" width="5.20574" height="5.26239" transform="rotate(90 24.0371 184.805)" fill="#A1A1A1"/>
<rect x="218.746" y="179.6" width="5.20574" height="5.26239" transform="rotate(90 218.746 179.6)" fill="#A1A1A1"/>
<rect x="187.172" y="210.834" width="5.20574" height="5.26239" transform="rotate(90 187.172 210.834)" fill="#A1A1A1"/>
<rect x="155.596" y="242.068" width="5.20574" height="5.26239" transform="rotate(90 155.596 242.068)" fill="#A1A1A1"/>
<rect x="218.746" y="242.068" width="5.20574" height="5.26239" transform="rotate(90 218.746 242.068)" fill="#A1A1A1"/>
<rect x="239.795" y="158.776" width="5.20574" height="5.26239" transform="rotate(90 239.795 158.776)" fill="#A1A1A1"/>
<rect x="239.795" y="221.246" width="5.20574" height="5.26239" transform="rotate(90 239.795 221.246)" fill="#A1A1A1"/>
<rect x="213.482" y="184.805" width="5.20574" height="5.26239" transform="rotate(90 213.482 184.805)" fill="#A1A1A1"/>
<rect x="181.908" y="216.04" width="5.20574" height="5.26239" transform="rotate(90 181.908 216.04)" fill="#A1A1A1"/>
<rect x="150.334" y="247.274" width="5.20574" height="5.26239" transform="rotate(90 150.334 247.274)" fill="#A1A1A1"/>
<rect x="213.482" y="247.274" width="5.20574" height="5.26239" transform="rotate(90 213.482 247.274)" fill="#A1A1A1"/>
<rect x="129.285" y="205.628" width="5.20574" height="5.26239" transform="rotate(90 129.285 205.628)" fill="#A1A1A1"/>
<rect x="45.0859" y="101.514" width="5.20574" height="5.26239" transform="rotate(90 45.0859 101.514)" fill="#A1A1A1"/>
<rect x="60.873" y="210.834" width="5.20574" height="5.26239" transform="rotate(90 60.873 210.834)" fill="#A1A1A1"/>
<rect x="166.121" y="169.188" width="5.20574" height="5.26239" transform="rotate(90 166.121 169.188)" fill="#A1A1A1"/>
<rect x="224.008" y="49.4561" width="5.20574" height="5.26239" transform="rotate(90 224.008 49.4561)" fill="#A1A1A1"/>
<rect x="255.582" y="80.6904" width="5.20574" height="5.26239" transform="rotate(90 255.582 80.6904)" fill="#A1A1A1"/>
<rect x="129.285" y="143.159" width="5.20574" height="5.26239" transform="rotate(90 129.285 143.159)" fill="#A1A1A1"/>
<rect x="176.646" y="96.3076" width="5.20574" height="5.26239" transform="rotate(90 176.646 96.3076)" fill="#A1A1A1"/>
<rect x="176.646" y="33.8389" width="5.20574" height="5.26239" transform="rotate(90 176.646 33.8389)" fill="#A1A1A1"/>
<rect x="113.498" y="33.8389" width="5.20574" height="5.26239" transform="rotate(90 113.498 33.8389)" fill="#A1A1A1"/>
<rect x="187.172" y="148.365" width="5.20574" height="5.26239" transform="rotate(90 187.172 148.365)" fill="#A1A1A1"/>
<rect x="102.973" y="231.657" width="5.20574" height="5.26239" transform="rotate(90 102.973 231.657)" fill="#A1A1A1"/>
<rect x="50.3496" y="158.776" width="5.20574" height="5.26239" transform="rotate(90 50.3496 158.776)" fill="#A1A1A1"/>
<rect x="18.7734" y="127.542" width="5.20574" height="5.26239" transform="rotate(90 18.7734 127.542)" fill="#A1A1A1"/>
<rect x="18.7734" y="132.748" width="5.20574" height="5.26239" transform="rotate(90 18.7734 132.748)" fill="#A1A1A1"/>
<rect x="87.1855" y="247.274" width="5.20574" height="5.26239" transform="rotate(90 87.1855 247.274)" fill="#A1A1A1"/>
<rect x="34.5625" y="236.863" width="5.20574" height="5.26239" transform="rotate(90 34.5625 236.863)" fill="#A1A1A1"/>
<rect x="245.057" y="28.6328" width="5.20574" height="5.26239" transform="rotate(90 245.057 28.6328)" fill="#A1A1A1"/>
<rect x="150.334" y="122.336" width="5.20574" height="5.26239" transform="rotate(90 150.334 122.336)" fill="#A1A1A1"/>
<rect x="150.334" y="59.8677" width="5.20574" height="5.26239" transform="rotate(90 150.334 59.8677)" fill="#A1A1A1"/>
<rect x="118.76" y="91.1021" width="5.20574" height="5.26239" transform="rotate(90 118.76 91.1021)" fill="#A1A1A1"/>
<rect x="87.1855" y="59.8677" width="5.20574" height="5.26239" transform="rotate(90 87.1855 59.8677)" fill="#A1A1A1"/>
<rect x="113.498" y="96.3076" width="5.20574" height="5.26239" transform="rotate(90 113.498 96.3076)" fill="#A1A1A1"/>
<rect x="102.973" y="169.188" width="5.20574" height="5.26239" transform="rotate(90 102.973 169.188)" fill="#A1A1A1"/>
<rect x="124.021" y="210.834" width="5.20574" height="5.26239" transform="rotate(90 124.021 210.834)" fill="#A1A1A1"/>
<rect x="39.8242" y="106.719" width="5.20574" height="5.26239" transform="rotate(90 39.8242 106.719)" fill="#A1A1A1"/>
<rect x="55.6113" y="216.04" width="5.20574" height="5.26239" transform="rotate(90 55.6113 216.04)" fill="#A1A1A1"/>
<rect x="160.859" y="174.394" width="5.20574" height="5.26239" transform="rotate(90 160.859 174.394)" fill="#A1A1A1"/>
<rect x="218.746" y="54.6616" width="5.20574" height="5.26239" transform="rotate(90 218.746 54.6616)" fill="#A1A1A1"/>
<rect x="250.32" y="85.896" width="5.20574" height="5.26239" transform="rotate(90 250.32 85.896)" fill="#A1A1A1"/>
<rect x="124.021" y="148.365" width="5.20574" height="5.26239" transform="rotate(90 124.021 148.365)" fill="#A1A1A1"/>
<rect x="229.27" y="106.719" width="5.20574" height="5.26239" transform="rotate(90 229.27 106.719)" fill="#A1A1A1"/>
<rect x="171.385" y="101.514" width="5.20574" height="5.26239" transform="rotate(90 171.385 101.514)" fill="#A1A1A1"/>
<rect x="108.234" y="39.0444" width="5.20574" height="5.26239" transform="rotate(90 108.234 39.0444)" fill="#A1A1A1"/>
<rect x="181.908" y="153.571" width="5.20574" height="5.26239" transform="rotate(90 181.908 153.571)" fill="#A1A1A1"/>
<rect x="97.7109" y="236.863" width="5.20574" height="5.26239" transform="rotate(90 97.7109 236.863)" fill="#A1A1A1"/>
<rect x="45.0859" y="163.982" width="5.20574" height="5.26239" transform="rotate(90 45.0859 163.982)" fill="#A1A1A1"/>
<rect x="29.2988" y="242.068" width="5.20574" height="5.26239" transform="rotate(90 29.2988 242.068)" fill="#A1A1A1"/>
<rect x="239.795" y="33.8389" width="5.20574" height="5.26239" transform="rotate(90 239.795 33.8389)" fill="#A1A1A1"/>
<rect x="192.434" y="80.6904" width="5.20574" height="5.26239" transform="rotate(90 192.434 80.6904)" fill="#A1A1A1"/>
<rect x="192.434" y="18.2217" width="5.20574" height="5.26239" transform="rotate(90 192.434 18.2217)" fill="#A1A1A1"/>
<rect x="129.285" y="18.2217" width="5.20574" height="5.26239" transform="rotate(90 129.285 18.2217)" fill="#A1A1A1"/>
<rect x="97.7109" y="174.394" width="5.20574" height="5.26239" transform="rotate(90 97.7109 174.394)" fill="#A1A1A1"/>
<rect x="118.76" y="216.04" width="5.20574" height="5.26239" transform="rotate(90 118.76 216.04)" fill="#A1A1A1"/>
<rect x="66.1367" y="143.159" width="5.20574" height="5.26239" transform="rotate(90 66.1367 143.159)" fill="#A1A1A1"/>
<rect x="34.5625" y="111.925" width="5.20574" height="5.26239" transform="rotate(90 34.5625 111.925)" fill="#A1A1A1"/>
<rect x="50.3496" y="221.246" width="5.20574" height="5.26239" transform="rotate(90 50.3496 221.246)" fill="#A1A1A1"/>
<rect x="155.596" y="179.6" width="5.20574" height="5.26239" transform="rotate(90 155.596 179.6)" fill="#A1A1A1"/>
<rect x="102.973" y="106.719" width="5.20574" height="5.26239" transform="rotate(90 102.973 106.719)" fill="#A1A1A1"/>
<rect x="213.482" y="59.8677" width="5.20574" height="5.26239" transform="rotate(90 213.482 59.8677)" fill="#A1A1A1"/>
<rect x="245.057" y="91.1021" width="5.20574" height="5.26239" transform="rotate(90 245.057 91.1021)" fill="#A1A1A1"/>
<rect x="118.76" y="153.571" width="5.20574" height="5.26239" transform="rotate(90 118.76 153.571)" fill="#A1A1A1"/>
<rect x="224.008" y="111.925" width="5.20574" height="5.26239" transform="rotate(90 224.008 111.925)" fill="#A1A1A1"/>
<rect x="87.1855" y="122.336" width="5.20574" height="5.26239" transform="rotate(90 87.1855 122.336)" fill="#A1A1A1"/>
<rect x="55.6113" y="91.1021" width="5.20574" height="5.26239" transform="rotate(90 55.6113 91.1021)" fill="#A1A1A1"/>
<rect x="166.121" y="106.719" width="5.20574" height="5.26239" transform="rotate(90 166.121 106.719)" fill="#A1A1A1"/>
<rect x="166.121" y="44.2505" width="5.20574" height="5.26239" transform="rotate(90 166.121 44.2505)" fill="#A1A1A1"/>
<rect x="102.973" y="44.2505" width="5.20574" height="5.26239" transform="rotate(90 102.973 44.2505)" fill="#A1A1A1"/>
<rect x="176.646" y="158.776" width="5.20574" height="5.26239" transform="rotate(90 176.646 158.776)" fill="#A1A1A1"/>
<rect x="24.0371" y="247.274" width="5.20574" height="5.26239" transform="rotate(90 24.0371 247.274)" fill="#A1A1A1"/>
<rect x="18.7734" y="252.48" width="5.20574" height="5.26239" transform="rotate(90 18.7734 252.48)" fill="#A1A1A1"/>
<rect x="8.25" y="262.892" width="5.20574" height="5.26239" transform="rotate(90 8.25 262.892)" fill="#A1A1A1"/>
<rect x="8.25" y="200.422" width="5.20574" height="5.26239" transform="rotate(90 8.25 200.422)" fill="#A1A1A1"/>
<rect x="260.844" y="200.422" width="5.20574" height="5.26239" transform="rotate(90 260.844 200.422)" fill="#A1A1A1"/>
<rect x="260.844" y="2.60449" width="5.20574" height="5.26239" transform="rotate(90 260.844 2.60449)" fill="#A1A1A1"/>
<rect x="260.844" y="65.0732" width="5.20574" height="5.26239" transform="rotate(90 260.844 65.0732)" fill="#A1A1A1"/>
<rect x="8.25" y="2.60449" width="5.20574" height="5.26239" transform="rotate(90 8.25 2.60449)" fill="#A1A1A1"/>
<rect x="8.25" y="65.0732" width="5.20574" height="5.26239" transform="rotate(90 8.25 65.0732)" fill="#A1A1A1"/>
<rect x="8.25" y="127.542" width="5.20574" height="5.26239" transform="rotate(90 8.25 127.542)" fill="#A1A1A1"/>
<rect x="13.5117" y="127.542" width="5.20574" height="5.26239" transform="rotate(90 13.5117 127.542)" fill="#A1A1A1"/>
<rect x="8.25" y="252.48" width="5.20574" height="5.26239" transform="rotate(90 8.25 252.48)" fill="#A1A1A1"/>
<rect x="8.25" y="190.011" width="5.20574" height="5.26239" transform="rotate(90 8.25 190.011)" fill="#A1A1A1"/>
<rect x="260.844" y="190.011" width="5.20574" height="5.26239" transform="rotate(90 260.844 190.011)" fill="#A1A1A1"/>
<rect x="260.844" y="127.542" width="5.20574" height="5.26239" transform="rotate(90 260.844 127.542)" fill="#A1A1A1"/>
<rect x="266.107" y="2.60449" width="5.20574" height="5.26239" transform="rotate(90 266.107 2.60449)" fill="#A1A1A1"/>
<rect x="266.107" y="65.0732" width="5.20574" height="5.26239" transform="rotate(90 266.107 65.0732)" fill="#A1A1A1"/>
<rect x="13.5117" y="2.60449" width="5.20574" height="5.26239" transform="rotate(90 13.5117 2.60449)" fill="#A1A1A1"/>
<rect x="13.5117" y="65.0732" width="5.20574" height="5.26239" transform="rotate(90 13.5117 65.0732)" fill="#A1A1A1"/>
<rect x="13.5117" y="252.48" width="5.20574" height="5.26239" transform="rotate(90 13.5117 252.48)" fill="#A1A1A1"/>
<rect x="13.5117" y="190.011" width="5.20574" height="5.26239" transform="rotate(90 13.5117 190.011)" fill="#A1A1A1"/>
<rect x="266.107" y="190.011" width="5.20574" height="5.26239" transform="rotate(90 266.107 190.011)" fill="#A1A1A1"/>
<rect x="266.107" y="127.542" width="5.20574" height="5.26239" transform="rotate(90 266.107 127.542)" fill="#A1A1A1"/>
<rect x="271.369" y="2.60449" width="5.20574" height="5.26239" transform="rotate(90 271.369 2.60449)" fill="#A1A1A1"/>
<rect x="271.369" y="65.0732" width="5.20574" height="5.26239" transform="rotate(90 271.369 65.0732)" fill="#A1A1A1"/>
<rect x="18.7734" y="2.60449" width="5.20574" height="5.26239" transform="rotate(90 18.7734 2.60449)" fill="#A1A1A1"/>
<rect x="18.7734" y="65.0732" width="5.20574" height="5.26239" transform="rotate(90 18.7734 65.0732)" fill="#A1A1A1"/>
<rect x="24.0371" y="59.8677" width="5.20574" height="5.26239" transform="rotate(90 24.0371 59.8677)" fill="#A1A1A1"/>
<rect x="71.3984" y="2.60449" width="5.20574" height="5.26239" transform="rotate(90 71.3984 2.60449)" fill="#A1A1A1"/>
<rect x="71.3984" y="65.0732" width="5.20574" height="5.26239" transform="rotate(90 71.3984 65.0732)" fill="#A1A1A1"/>
<rect x="71.3984" y="127.542" width="5.20574" height="5.26239" transform="rotate(90 71.3984 127.542)" fill="#A1A1A1"/>
<rect x="71.3984" y="190.011" width="5.20574" height="5.26239" transform="rotate(90 71.3984 190.011)" fill="#A1A1A1"/>
<rect x="134.547" y="2.60449" width="5.20574" height="5.26239" transform="rotate(90 134.547 2.60449)" fill="#A1A1A1"/>
<rect x="134.547" y="65.0732" width="5.20574" height="5.26239" transform="rotate(90 134.547 65.0732)" fill="#A1A1A1"/>
<rect x="134.547" y="127.542" width="5.20574" height="5.26239" transform="rotate(90 134.547 127.542)" fill="#A1A1A1"/>
<rect x="134.547" y="190.011" width="5.20574" height="5.26239" transform="rotate(90 134.547 190.011)" fill="#A1A1A1"/>
<rect x="134.547" y="252.48" width="5.20574" height="5.26239" transform="rotate(90 134.547 252.48)" fill="#A1A1A1"/>
<rect x="71.3984" y="252.48" width="5.20574" height="5.26239" transform="rotate(90 71.3984 252.48)" fill="#A1A1A1"/>
<rect x="197.695" y="252.48" width="5.20574" height="5.26239" transform="rotate(90 197.695 252.48)" fill="#A1A1A1"/>
<rect x="197.695" y="2.60449" width="5.20574" height="5.26239" transform="rotate(90 197.695 2.60449)" fill="#A1A1A1"/>
<rect x="197.695" y="65.0732" width="5.20574" height="5.26239" transform="rotate(90 197.695 65.0732)" fill="#A1A1A1"/>
<rect x="197.695" y="127.542" width="5.20574" height="5.26239" transform="rotate(90 197.695 127.542)" fill="#A1A1A1"/>
<rect x="197.695" y="190.011" width="5.20574" height="5.26239" transform="rotate(90 197.695 190.011)" fill="#A1A1A1"/>
<rect x="76.6602" y="2.60449" width="5.20574" height="5.26239" transform="rotate(90 76.6602 2.60449)" fill="#A1A1A1"/>
<rect x="76.6602" y="65.0732" width="5.20574" height="5.26239" transform="rotate(90 76.6602 65.0732)" fill="#A1A1A1"/>
<rect x="76.6602" y="127.542" width="5.20574" height="5.26239" transform="rotate(90 76.6602 127.542)" fill="#A1A1A1"/>
<rect x="76.6602" y="190.011" width="5.20574" height="5.26239" transform="rotate(90 76.6602 190.011)" fill="#A1A1A1"/>
<rect x="139.809" y="2.60449" width="5.20574" height="5.26239" transform="rotate(90 139.809 2.60449)" fill="#A1A1A1"/>
<rect x="139.809" y="65.0732" width="5.20574" height="5.26239" transform="rotate(90 139.809 65.0732)" fill="#A1A1A1"/>
<rect x="139.809" y="127.542" width="5.20574" height="5.26239" transform="rotate(90 139.809 127.542)" fill="#A1A1A1"/>
<rect x="139.809" y="190.011" width="5.20574" height="5.26239" transform="rotate(90 139.809 190.011)" fill="#A1A1A1"/>
<rect x="139.809" y="252.48" width="5.20574" height="5.26239" transform="rotate(90 139.809 252.48)" fill="#A1A1A1"/>
<rect x="76.6602" y="252.48" width="5.20574" height="5.26239" transform="rotate(90 76.6602 252.48)" fill="#A1A1A1"/>
<rect x="202.959" y="252.48" width="5.20574" height="5.26239" transform="rotate(90 202.959 252.48)" fill="#A1A1A1"/>
<rect x="202.959" y="2.60449" width="5.20574" height="5.26239" transform="rotate(90 202.959 2.60449)" fill="#A1A1A1"/>
<rect x="202.959" y="65.0732" width="5.20574" height="5.26239" transform="rotate(90 202.959 65.0732)" fill="#A1A1A1"/>
<rect x="202.959" y="127.542" width="5.20574" height="5.26239" transform="rotate(90 202.959 127.542)" fill="#A1A1A1"/>
<rect x="202.959" y="190.011" width="5.20574" height="5.26239" transform="rotate(90 202.959 190.011)" fill="#A1A1A1"/>
<rect x="81.9238" y="2.60449" width="5.20574" height="5.26239" transform="rotate(90 81.9238 2.60449)" fill="#A1A1A1"/>
<rect x="81.9238" y="65.0732" width="5.20574" height="5.26239" transform="rotate(90 81.9238 65.0732)" fill="#A1A1A1"/>
<rect x="81.9238" y="127.542" width="5.20574" height="5.26239" transform="rotate(90 81.9238 127.542)" fill="#A1A1A1"/>
<rect x="81.9238" y="190.011" width="5.20574" height="5.26239" transform="rotate(90 81.9238 190.011)" fill="#A1A1A1"/>
<rect x="145.072" y="2.60449" width="5.20574" height="5.26239" transform="rotate(90 145.072 2.60449)" fill="#A1A1A1"/>
<rect x="145.072" y="65.0732" width="5.20574" height="5.26239" transform="rotate(90 145.072 65.0732)" fill="#A1A1A1"/>
<rect x="145.072" y="127.542" width="5.20574" height="5.26239" transform="rotate(90 145.072 127.542)" fill="#A1A1A1"/>
<rect x="145.072" y="190.011" width="5.20574" height="5.26239" transform="rotate(90 145.072 190.011)" fill="#A1A1A1"/>
<rect x="145.072" y="252.48" width="5.20574" height="5.26239" transform="rotate(90 145.072 252.48)" fill="#A1A1A1"/>
<rect x="81.9238" y="252.48" width="5.20574" height="5.26239" transform="rotate(90 81.9238 252.48)" fill="#A1A1A1"/>
<rect x="208.221" y="252.48" width="5.20574" height="5.26239" transform="rotate(90 208.221 252.48)" fill="#A1A1A1"/>
<rect x="208.221" y="2.60449" width="5.20574" height="5.26239" transform="rotate(90 208.221 2.60449)" fill="#A1A1A1"/>
<rect x="208.221" y="65.0732" width="5.20574" height="5.26239" transform="rotate(90 208.221 65.0732)" fill="#A1A1A1"/>
<rect x="208.221" y="127.542" width="5.20574" height="5.26239" transform="rotate(90 208.221 127.542)" fill="#A1A1A1"/>
<rect x="208.221" y="190.011" width="5.20574" height="5.26239" transform="rotate(90 208.221 190.011)" fill="#A1A1A1"/>
<rect x="81.9238" y="7.81006" width="5.20574" height="5.26239" transform="rotate(90 81.9238 7.81006)" fill="#A1A1A1"/>
<rect x="81.9238" y="70.2788" width="5.20574" height="5.26239" transform="rotate(90 81.9238 70.2788)" fill="#A1A1A1"/>
<rect x="81.9238" y="132.748" width="5.20574" height="5.26239" transform="rotate(90 81.9238 132.748)" fill="#A1A1A1"/>
<rect x="81.9238" y="195.217" width="5.20574" height="5.26239" transform="rotate(90 81.9238 195.217)" fill="#A1A1A1"/>
<rect x="145.072" y="7.81006" width="5.20574" height="5.26239" transform="rotate(90 145.072 7.81006)" fill="#A1A1A1"/>
<rect x="145.072" y="70.2788" width="5.20574" height="5.26239" transform="rotate(90 145.072 70.2788)" fill="#A1A1A1"/>
<rect x="145.072" y="132.748" width="5.20574" height="5.26239" transform="rotate(90 145.072 132.748)" fill="#A1A1A1"/>
<rect x="145.072" y="195.217" width="5.20574" height="5.26239" transform="rotate(90 145.072 195.217)" fill="#A1A1A1"/>
<rect x="145.072" y="257.686" width="5.20574" height="5.26239" transform="rotate(90 145.072 257.686)" fill="#A1A1A1"/>
<rect x="81.9238" y="257.686" width="5.20574" height="5.26239" transform="rotate(90 81.9238 257.686)" fill="#A1A1A1"/>
<rect x="208.221" y="257.686" width="5.20574" height="5.26239" transform="rotate(90 208.221 257.686)" fill="#A1A1A1"/>
<rect x="208.221" y="7.81006" width="5.20574" height="5.26239" transform="rotate(90 208.221 7.81006)" fill="#A1A1A1"/>
<rect x="208.221" y="70.2788" width="5.20574" height="5.26239" transform="rotate(90 208.221 70.2788)" fill="#A1A1A1"/>
<rect x="208.221" y="132.748" width="5.20574" height="5.26239" transform="rotate(90 208.221 132.748)" fill="#A1A1A1"/>
<rect x="208.221" y="195.217" width="5.20574" height="5.26239" transform="rotate(90 208.221 195.217)" fill="#A1A1A1"/>
<rect x="76.6602" y="7.81006" width="5.20574" height="5.26239" transform="rotate(90 76.6602 7.81006)" fill="#A1A1A1"/>
<rect x="76.6602" y="70.2788" width="5.20574" height="5.26239" transform="rotate(90 76.6602 70.2788)" fill="#A1A1A1"/>
<rect x="76.6602" y="132.748" width="5.20574" height="5.26239" transform="rotate(90 76.6602 132.748)" fill="#A1A1A1"/>
<rect x="76.6602" y="195.217" width="5.20574" height="5.26239" transform="rotate(90 76.6602 195.217)" fill="#A1A1A1"/>
<rect x="139.809" y="7.81006" width="5.20574" height="5.26239" transform="rotate(90 139.809 7.81006)" fill="#A1A1A1"/>
<rect x="139.809" y="70.2788" width="5.20574" height="5.26239" transform="rotate(90 139.809 70.2788)" fill="#A1A1A1"/>
<rect x="139.809" y="132.748" width="5.20574" height="5.26239" transform="rotate(90 139.809 132.748)" fill="#A1A1A1"/>
<rect x="139.809" y="195.217" width="5.20574" height="5.26239" transform="rotate(90 139.809 195.217)" fill="#A1A1A1"/>
<rect x="139.809" y="257.686" width="5.20574" height="5.26239" transform="rotate(90 139.809 257.686)" fill="#A1A1A1"/>
<rect x="76.6602" y="257.686" width="5.20574" height="5.26239" transform="rotate(90 76.6602 257.686)" fill="#A1A1A1"/>
<rect x="202.959" y="257.686" width="5.20574" height="5.26239" transform="rotate(90 202.959 257.686)" fill="#A1A1A1"/>
<rect x="202.959" y="7.81006" width="5.20574" height="5.26239" transform="rotate(90 202.959 7.81006)" fill="#A1A1A1"/>
<rect x="202.959" y="70.2788" width="5.20574" height="5.26239" transform="rotate(90 202.959 70.2788)" fill="#A1A1A1"/>
<rect x="202.959" y="132.748" width="5.20574" height="5.26239" transform="rotate(90 202.959 132.748)" fill="#A1A1A1"/>
<rect x="202.959" y="195.217" width="5.20574" height="5.26239" transform="rotate(90 202.959 195.217)" fill="#A1A1A1"/>
<rect x="71.3984" y="7.81006" width="5.20574" height="5.26239" transform="rotate(90 71.3984 7.81006)" fill="#A1A1A1"/>
<rect x="71.3984" y="70.2788" width="5.20574" height="5.26239" transform="rotate(90 71.3984 70.2788)" fill="#A1A1A1"/>
<rect x="71.3984" y="132.748" width="5.20574" height="5.26239" transform="rotate(90 71.3984 132.748)" fill="#A1A1A1"/>
<rect x="71.3984" y="195.217" width="5.20574" height="5.26239" transform="rotate(90 71.3984 195.217)" fill="#A1A1A1"/>
<rect x="134.547" y="7.81006" width="5.20574" height="5.26239" transform="rotate(90 134.547 7.81006)" fill="#A1A1A1"/>
<rect x="134.547" y="70.2788" width="5.20574" height="5.26239" transform="rotate(90 134.547 70.2788)" fill="#A1A1A1"/>
<rect x="134.547" y="132.748" width="5.20574" height="5.26239" transform="rotate(90 134.547 132.748)" fill="#A1A1A1"/>
<rect x="134.547" y="195.217" width="5.20574" height="5.26239" transform="rotate(90 134.547 195.217)" fill="#A1A1A1"/>
<rect x="134.547" y="257.686" width="5.20574" height="5.26239" transform="rotate(90 134.547 257.686)" fill="#A1A1A1"/>
<rect x="71.3984" y="257.686" width="5.20574" height="5.26239" transform="rotate(90 71.3984 257.686)" fill="#A1A1A1"/>
<rect x="197.695" y="257.686" width="5.20574" height="5.26239" transform="rotate(90 197.695 257.686)" fill="#A1A1A1"/>
<rect x="197.695" y="7.81006" width="5.20574" height="5.26239" transform="rotate(90 197.695 7.81006)" fill="#A1A1A1"/>
<rect x="197.695" y="70.2788" width="5.20574" height="5.26239" transform="rotate(90 197.695 70.2788)" fill="#A1A1A1"/>
<rect x="197.695" y="132.748" width="5.20574" height="5.26239" transform="rotate(90 197.695 132.748)" fill="#A1A1A1"/>
<rect x="197.695" y="195.217" width="5.20574" height="5.26239" transform="rotate(90 197.695 195.217)" fill="#A1A1A1"/>
<rect x="71.3984" y="13.0156" width="5.20574" height="5.26239" transform="rotate(90 71.3984 13.0156)" fill="#A1A1A1"/>
<rect x="71.3984" y="75.4849" width="5.20574" height="5.26239" transform="rotate(90 71.3984 75.4849)" fill="#A1A1A1"/>
<rect x="71.3984" y="137.954" width="5.20574" height="5.26239" transform="rotate(90 71.3984 137.954)" fill="#A1A1A1"/>
<rect x="71.3984" y="200.422" width="5.20574" height="5.26239" transform="rotate(90 71.3984 200.422)" fill="#A1A1A1"/>
<rect x="66.1367" y="18.2217" width="5.20574" height="5.26239" transform="rotate(90 66.1367 18.2217)" fill="#A1A1A1"/>
<rect x="60.873" y="23.4272" width="5.20574" height="5.26239" transform="rotate(90 60.873 23.4272)" fill="#A1A1A1"/>
<rect x="55.6113" y="28.6328" width="5.20574" height="5.26239" transform="rotate(90 55.6113 28.6328)" fill="#A1A1A1"/>
<rect x="50.3496" y="33.8389" width="5.20574" height="5.26239" transform="rotate(90 50.3496 33.8389)" fill="#A1A1A1"/>
<rect x="39.8242" y="44.2505" width="5.20574" height="5.26239" transform="rotate(90 39.8242 44.2505)" fill="#A1A1A1"/>
<rect x="34.5625" y="49.4561" width="5.20574" height="5.26239" transform="rotate(90 34.5625 49.4561)" fill="#A1A1A1"/>
<rect x="29.2988" y="54.6616" width="5.20574" height="5.26239" transform="rotate(90 29.2988 54.6616)" fill="#A1A1A1"/>
<rect x="134.547" y="13.0156" width="5.20574" height="5.26239" transform="rotate(90 134.547 13.0156)" fill="#A1A1A1"/>
<rect x="134.547" y="75.4849" width="5.20574" height="5.26239" transform="rotate(90 134.547 75.4849)" fill="#A1A1A1"/>
<rect x="134.547" y="137.954" width="5.20574" height="5.26239" transform="rotate(90 134.547 137.954)" fill="#A1A1A1"/>
<rect x="134.547" y="200.422" width="5.20574" height="5.26239" transform="rotate(90 134.547 200.422)" fill="#A1A1A1"/>
<rect x="134.547" y="262.892" width="5.20574" height="5.26239" transform="rotate(90 134.547 262.892)" fill="#A1A1A1"/>
<rect x="71.3984" y="262.892" width="5.20574" height="5.26239" transform="rotate(90 71.3984 262.892)" fill="#A1A1A1"/>
<rect x="197.695" y="262.892" width="5.20574" height="5.26239" transform="rotate(90 197.695 262.892)" fill="#A1A1A1"/>
<rect x="197.695" y="13.0156" width="5.20574" height="5.26239" transform="rotate(90 197.695 13.0156)" fill="#A1A1A1"/>
<rect x="197.695" y="75.4849" width="5.20574" height="5.26239" transform="rotate(90 197.695 75.4849)" fill="#A1A1A1"/>
<rect x="197.695" y="137.954" width="5.20574" height="5.26239" transform="rotate(90 197.695 137.954)" fill="#A1A1A1"/>
<rect x="197.695" y="200.422" width="5.20574" height="5.26239" transform="rotate(90 197.695 200.422)" fill="#A1A1A1"/>
<rect x="76.6602" y="13.0156" width="5.20574" height="5.26239" transform="rotate(90 76.6602 13.0156)" fill="#A1A1A1"/>
<rect x="76.6602" y="75.4849" width="5.20574" height="5.26239" transform="rotate(90 76.6602 75.4849)" fill="#A1A1A1"/>
<rect x="76.6602" y="137.954" width="5.20574" height="5.26239" transform="rotate(90 76.6602 137.954)" fill="#A1A1A1"/>
<rect x="76.6602" y="200.422" width="5.20574" height="5.26239" transform="rotate(90 76.6602 200.422)" fill="#A1A1A1"/>
<rect x="139.809" y="13.0156" width="5.20574" height="5.26239" transform="rotate(90 139.809 13.0156)" fill="#A1A1A1"/>
<rect x="139.809" y="75.4849" width="5.20574" height="5.26239" transform="rotate(90 139.809 75.4849)" fill="#A1A1A1"/>
<rect x="139.809" y="137.954" width="5.20574" height="5.26239" transform="rotate(90 139.809 137.954)" fill="#A1A1A1"/>
<rect x="139.809" y="200.422" width="5.20574" height="5.26239" transform="rotate(90 139.809 200.422)" fill="#A1A1A1"/>
<rect x="139.809" y="262.892" width="5.20574" height="5.26239" transform="rotate(90 139.809 262.892)" fill="#A1A1A1"/>
<rect x="76.6602" y="262.892" width="5.20574" height="5.26239" transform="rotate(90 76.6602 262.892)" fill="#A1A1A1"/>
<rect x="202.959" y="262.892" width="5.20574" height="5.26239" transform="rotate(90 202.959 262.892)" fill="#A1A1A1"/>
<rect x="202.959" y="13.0156" width="5.20574" height="5.26239" transform="rotate(90 202.959 13.0156)" fill="#A1A1A1"/>
<rect x="202.959" y="75.4849" width="5.20574" height="5.26239" transform="rotate(90 202.959 75.4849)" fill="#A1A1A1"/>
<rect x="202.959" y="137.954" width="5.20574" height="5.26239" transform="rotate(90 202.959 137.954)" fill="#A1A1A1"/>
<rect x="202.959" y="200.422" width="5.20574" height="5.26239" transform="rotate(90 202.959 200.422)" fill="#A1A1A1"/>
<rect x="81.9238" y="13.0156" width="5.20574" height="5.26239" transform="rotate(90 81.9238 13.0156)" fill="#A1A1A1"/>
<rect x="81.9238" y="75.4849" width="5.20574" height="5.26239" transform="rotate(90 81.9238 75.4849)" fill="#A1A1A1"/>
<rect x="81.9238" y="137.954" width="5.20574" height="5.26239" transform="rotate(90 81.9238 137.954)" fill="#A1A1A1"/>
<rect x="81.9238" y="200.422" width="5.20574" height="5.26239" transform="rotate(90 81.9238 200.422)" fill="#A1A1A1"/>
<rect x="145.072" y="13.0156" width="5.20574" height="5.26239" transform="rotate(90 145.072 13.0156)" fill="#A1A1A1"/>
<rect x="145.072" y="75.4849" width="5.20574" height="5.26239" transform="rotate(90 145.072 75.4849)" fill="#A1A1A1"/>
<rect x="145.072" y="137.954" width="5.20574" height="5.26239" transform="rotate(90 145.072 137.954)" fill="#A1A1A1"/>
<rect x="145.072" y="200.422" width="5.20574" height="5.26239" transform="rotate(90 145.072 200.422)" fill="#A1A1A1"/>
<rect x="150.334" y="18.2217" width="5.20574" height="5.26239" transform="rotate(90 150.334 18.2217)" fill="#A1A1A1"/>
<rect x="87.1855" y="18.2217" width="5.20574" height="5.26239" transform="rotate(90 87.1855 18.2217)" fill="#A1A1A1"/>
<rect x="145.072" y="262.892" width="5.20574" height="5.26239" transform="rotate(90 145.072 262.892)" fill="#A1A1A1"/>
<rect x="81.9238" y="262.892" width="5.20574" height="5.26239" transform="rotate(90 81.9238 262.892)" fill="#A1A1A1"/>
<rect x="208.221" y="262.892" width="5.20574" height="5.26239" transform="rotate(90 208.221 262.892)" fill="#A1A1A1"/>
<rect x="208.221" y="13.0156" width="5.20574" height="5.26239" transform="rotate(90 208.221 13.0156)" fill="#A1A1A1"/>
<rect x="208.221" y="75.4849" width="5.20574" height="5.26239" transform="rotate(90 208.221 75.4849)" fill="#A1A1A1"/>
<rect x="208.221" y="137.954" width="5.20574" height="5.26239" transform="rotate(90 208.221 137.954)" fill="#A1A1A1"/>
<rect x="208.221" y="200.422" width="5.20574" height="5.26239" transform="rotate(90 208.221 200.422)" fill="#A1A1A1"/>
<rect x="213.482" y="18.2217" width="5.20574" height="5.26239" transform="rotate(90 213.482 18.2217)" fill="#A1A1A1"/>
<rect x="239.795" y="44.2505" width="5.20574" height="5.26239" transform="rotate(90 239.795 44.2505)" fill="#A1A1A1"/>
<rect x="218.746" y="23.4272" width="5.20574" height="5.26239" transform="rotate(90 218.746 23.4272)" fill="#A1A1A1"/>
<rect x="245.057" y="49.4561" width="5.20574" height="5.26239" transform="rotate(90 245.057 49.4561)" fill="#A1A1A1"/>
<rect x="224.008" y="28.6328" width="5.20574" height="5.26239" transform="rotate(90 224.008 28.6328)" fill="#A1A1A1"/>
<rect x="250.32" y="54.6616" width="5.20574" height="5.26239" transform="rotate(90 250.32 54.6616)" fill="#A1A1A1"/>
<rect x="229.27" y="33.8389" width="5.20574" height="5.26239" transform="rotate(90 229.27 33.8389)" fill="#A1A1A1"/>
<rect x="255.582" y="59.8677" width="5.20574" height="5.26239" transform="rotate(90 255.582 59.8677)" fill="#A1A1A1"/>
<rect x="18.7734" y="190.011" width="5.20574" height="5.26239" transform="rotate(90 18.7734 190.011)" fill="#A1A1A1"/>
<rect x="271.369" y="190.011" width="5.20574" height="5.26239" transform="rotate(90 271.369 190.011)" fill="#A1A1A1"/>
<rect x="271.369" y="127.542" width="5.20574" height="5.26239" transform="rotate(90 271.369 127.542)" fill="#A1A1A1"/>
<rect x="271.369" y="7.81006" width="5.20574" height="5.26239" transform="rotate(90 271.369 7.81006)" fill="#A1A1A1"/>
<rect x="271.369" y="70.2788" width="5.20574" height="5.26239" transform="rotate(90 271.369 70.2788)" fill="#A1A1A1"/>
<rect x="18.7734" y="7.81006" width="5.20574" height="5.26239" transform="rotate(90 18.7734 7.81006)" fill="#A1A1A1"/>
<rect x="18.7734" y="70.2788" width="5.20574" height="5.26239" transform="rotate(90 18.7734 70.2788)" fill="#A1A1A1"/>
<rect x="18.7734" y="257.686" width="5.20574" height="5.26239" transform="rotate(90 18.7734 257.686)" fill="#A1A1A1"/>
<rect x="18.7734" y="195.217" width="5.20574" height="5.26239" transform="rotate(90 18.7734 195.217)" fill="#A1A1A1"/>
<rect x="271.369" y="195.217" width="5.20574" height="5.26239" transform="rotate(90 271.369 195.217)" fill="#A1A1A1"/>
<rect x="271.369" y="132.748" width="5.20574" height="5.26239" transform="rotate(90 271.369 132.748)" fill="#A1A1A1"/>
<rect x="271.369" y="13.0156" width="5.20574" height="5.26239" transform="rotate(90 271.369 13.0156)" fill="#A1A1A1"/>
<rect x="271.369" y="75.4849" width="5.20574" height="5.26239" transform="rotate(90 271.369 75.4849)" fill="#A1A1A1"/>
<rect x="18.7734" y="13.0156" width="5.20574" height="5.26239" transform="rotate(90 18.7734 13.0156)" fill="#A1A1A1"/>
<rect x="18.7734" y="75.4849" width="5.20574" height="5.26239" transform="rotate(90 18.7734 75.4849)" fill="#A1A1A1"/>
<rect x="24.0371" y="18.2217" width="5.20574" height="5.26239" transform="rotate(90 24.0371 18.2217)" fill="#A1A1A1"/>
<rect x="176.646" y="44.2505" width="5.20574" height="5.26239" transform="rotate(90 176.646 44.2505)" fill="#A1A1A1"/>
<rect x="150.334" y="80.6904" width="5.20574" height="5.26239" transform="rotate(90 150.334 80.6904)" fill="#A1A1A1"/>
<rect x="113.498" y="44.2505" width="5.20574" height="5.26239" transform="rotate(90 113.498 44.2505)" fill="#A1A1A1"/>
<rect x="155.596" y="210.834" width="5.20574" height="5.26239" transform="rotate(90 155.596 210.834)" fill="#A1A1A1"/>
<rect x="39.8242" y="96.3076" width="5.20574" height="5.26239" transform="rotate(90 39.8242 96.3076)" fill="#A1A1A1"/>
<rect x="29.2988" y="23.4272" width="5.20574" height="5.26239" transform="rotate(90 29.2988 23.4272)" fill="#A1A1A1"/>
<rect x="181.908" y="49.4561" width="5.20574" height="5.26239" transform="rotate(90 181.908 49.4561)" fill="#A1A1A1"/>
<rect x="155.596" y="85.896" width="5.20574" height="5.26239" transform="rotate(90 155.596 85.896)" fill="#A1A1A1"/>
<rect x="118.76" y="49.4561" width="5.20574" height="5.26239" transform="rotate(90 118.76 49.4561)" fill="#A1A1A1"/>
<rect x="150.334" y="143.159" width="5.20574" height="5.26239" transform="rotate(90 150.334 143.159)" fill="#A1A1A1"/>
<rect x="176.646" y="106.719" width="5.20574" height="5.26239" transform="rotate(90 176.646 106.719)" fill="#A1A1A1"/>
<rect x="160.859" y="216.04" width="5.20574" height="5.26239" transform="rotate(90 160.859 216.04)" fill="#A1A1A1"/>
<rect x="34.5625" y="28.6328" width="5.20574" height="5.26239" transform="rotate(90 34.5625 28.6328)" fill="#A1A1A1"/>
<rect x="87.1855" y="80.6904" width="5.20574" height="5.26239" transform="rotate(90 87.1855 80.6904)" fill="#A1A1A1"/>
<rect x="187.172" y="54.6616" width="5.20574" height="5.26239" transform="rotate(90 187.172 54.6616)" fill="#A1A1A1"/>
<rect x="160.859" y="91.1021" width="5.20574" height="5.26239" transform="rotate(90 160.859 91.1021)" fill="#A1A1A1"/>
<rect x="124.021" y="54.6616" width="5.20574" height="5.26239" transform="rotate(90 124.021 54.6616)" fill="#A1A1A1"/>
<rect x="155.596" y="148.365" width="5.20574" height="5.26239" transform="rotate(90 155.596 148.365)" fill="#A1A1A1"/>
<rect x="181.908" y="111.925" width="5.20574" height="5.26239" transform="rotate(90 181.908 111.925)" fill="#A1A1A1"/>
<rect x="166.121" y="221.246" width="5.20574" height="5.26239" transform="rotate(90 166.121 221.246)" fill="#A1A1A1"/>
<rect x="50.3496" y="106.719" width="5.20574" height="5.26239" transform="rotate(90 50.3496 106.719)" fill="#A1A1A1"/>
<rect x="39.8242" y="33.8389" width="5.20574" height="5.26239" transform="rotate(90 39.8242 33.8389)" fill="#A1A1A1"/>
<rect x="92.4473" y="85.896" width="5.20574" height="5.26239" transform="rotate(90 92.4473 85.896)" fill="#A1A1A1"/>
<rect x="192.434" y="59.8677" width="5.20574" height="5.26239" transform="rotate(90 192.434 59.8677)" fill="#A1A1A1"/>
<rect x="166.121" y="96.3076" width="5.20574" height="5.26239" transform="rotate(90 166.121 96.3076)" fill="#A1A1A1"/>
<rect x="160.859" y="153.571" width="5.20574" height="5.26239" transform="rotate(90 160.859 153.571)" fill="#A1A1A1"/>
<rect x="187.172" y="117.131" width="5.20574" height="5.26239" transform="rotate(90 187.172 117.131)" fill="#A1A1A1"/>
<rect x="213.482" y="205.628" width="5.20574" height="5.26239" transform="rotate(90 213.482 205.628)" fill="#A1A1A1"/>
<rect x="239.795" y="169.188" width="5.20574" height="5.26239" transform="rotate(90 239.795 169.188)" fill="#A1A1A1"/>
<rect x="171.385" y="226.451" width="5.20574" height="5.26239" transform="rotate(90 171.385 226.451)" fill="#A1A1A1"/>
<rect x="55.6113" y="111.925" width="5.20574" height="5.26239" transform="rotate(90 55.6113 111.925)" fill="#A1A1A1"/>
<rect x="24.0371" y="143.159" width="5.20574" height="5.26239" transform="rotate(90 24.0371 143.159)" fill="#A1A1A1"/>
<rect x="60.873" y="179.6" width="5.20574" height="5.26239" transform="rotate(90 60.873 179.6)" fill="#A1A1A1"/>
<rect x="29.2988" y="210.834" width="5.20574" height="5.26239" transform="rotate(90 29.2988 210.834)" fill="#A1A1A1"/>
<rect x="18.7734" y="137.954" width="5.20574" height="5.26239" transform="rotate(90 18.7734 137.954)" fill="#A1A1A1"/>
<rect x="55.6113" y="174.394" width="5.20574" height="5.26239" transform="rotate(90 55.6113 174.394)" fill="#A1A1A1"/>
<rect x="24.0371" y="205.628" width="5.20574" height="5.26239" transform="rotate(90 24.0371 205.628)" fill="#A1A1A1"/>
<rect x="13.5117" y="132.748" width="5.20574" height="5.26239" transform="rotate(90 13.5117 132.748)" fill="#A1A1A1"/>
<rect x="50.3496" y="169.188" width="5.20574" height="5.26239" transform="rotate(90 50.3496 169.188)" fill="#A1A1A1"/>
<rect x="45.0859" y="39.0444" width="5.20574" height="5.26239" transform="rotate(90 45.0859 39.0444)" fill="#A1A1A1"/>
<rect x="97.7109" y="91.1021" width="5.20574" height="5.26239" transform="rotate(90 97.7109 91.1021)" fill="#A1A1A1"/>
<rect x="166.121" y="158.776" width="5.20574" height="5.26239" transform="rotate(90 166.121 158.776)" fill="#A1A1A1"/>
<rect x="192.434" y="122.336" width="5.20574" height="5.26239" transform="rotate(90 192.434 122.336)" fill="#A1A1A1"/>
<rect x="218.746" y="210.834" width="5.20574" height="5.26239" transform="rotate(90 218.746 210.834)" fill="#A1A1A1"/>
<rect x="245.057" y="174.394" width="5.20574" height="5.26239" transform="rotate(90 245.057 174.394)" fill="#A1A1A1"/>
<rect x="176.646" y="231.657" width="5.20574" height="5.26239" transform="rotate(90 176.646 231.657)" fill="#A1A1A1"/>
<rect x="60.873" y="117.131" width="5.20574" height="5.26239" transform="rotate(90 60.873 117.131)" fill="#A1A1A1"/>
<rect x="29.2988" y="148.365" width="5.20574" height="5.26239" transform="rotate(90 29.2988 148.365)" fill="#A1A1A1"/>
<rect x="66.1367" y="184.805" width="5.20574" height="5.26239" transform="rotate(90 66.1367 184.805)" fill="#A1A1A1"/>
<rect x="34.5625" y="216.04" width="5.20574" height="5.26239" transform="rotate(90 34.5625 216.04)" fill="#A1A1A1"/>
<rect x="50.3496" y="44.2505" width="5.20574" height="5.26239" transform="rotate(90 50.3496 44.2505)" fill="#A1A1A1"/>
<rect x="102.973" y="96.3076" width="5.20574" height="5.26239" transform="rotate(90 102.973 96.3076)" fill="#A1A1A1"/>
<rect x="224.008" y="216.04" width="5.20574" height="5.26239" transform="rotate(90 224.008 216.04)" fill="#A1A1A1"/>
<rect x="250.32" y="179.6" width="5.20574" height="5.26239" transform="rotate(90 250.32 179.6)" fill="#A1A1A1"/>
<rect x="181.908" y="236.863" width="5.20574" height="5.26239" transform="rotate(90 181.908 236.863)" fill="#A1A1A1"/>
<rect x="66.1367" y="122.336" width="5.20574" height="5.26239" transform="rotate(90 66.1367 122.336)" fill="#A1A1A1"/>
<rect x="34.5625" y="153.571" width="5.20574" height="5.26239" transform="rotate(90 34.5625 153.571)" fill="#A1A1A1"/>
<rect x="39.8242" y="221.246" width="5.20574" height="5.26239" transform="rotate(90 39.8242 221.246)" fill="#A1A1A1"/>
<rect x="55.6113" y="49.4561" width="5.20574" height="5.26239" transform="rotate(90 55.6113 49.4561)" fill="#A1A1A1"/>
<rect x="155.596" y="23.4272" width="5.20574" height="5.26239" transform="rotate(90 155.596 23.4272)" fill="#A1A1A1"/>
<rect x="129.285" y="59.8677" width="5.20574" height="5.26239" transform="rotate(90 129.285 59.8677)" fill="#A1A1A1"/>
<rect x="92.4473" y="23.4272" width="5.20574" height="5.26239" transform="rotate(90 92.4473 23.4272)" fill="#A1A1A1"/>
<rect x="108.234" y="101.514" width="5.20574" height="5.26239" transform="rotate(90 108.234 101.514)" fill="#A1A1A1"/>
<rect x="176.646" y="169.188" width="5.20574" height="5.26239" transform="rotate(90 176.646 169.188)" fill="#A1A1A1"/>
<rect x="229.27" y="221.246" width="5.20574" height="5.26239" transform="rotate(90 229.27 221.246)" fill="#A1A1A1"/>
<rect x="255.582" y="184.805" width="5.20574" height="5.26239" transform="rotate(90 255.582 184.805)" fill="#A1A1A1"/>
<rect x="187.172" y="242.068" width="5.20574" height="5.26239" transform="rotate(90 187.172 242.068)" fill="#A1A1A1"/>
<rect x="39.8242" y="158.776" width="5.20574" height="5.26239" transform="rotate(90 39.8242 158.776)" fill="#A1A1A1"/>
<rect x="102.973" y="221.246" width="5.20574" height="5.26239" transform="rotate(90 102.973 221.246)" fill="#A1A1A1"/>
<rect x="66.1367" y="247.274" width="5.20574" height="5.26239" transform="rotate(90 66.1367 247.274)" fill="#A1A1A1"/>
<rect x="129.285" y="247.274" width="5.20574" height="5.26239" transform="rotate(90 129.285 247.274)" fill="#A1A1A1"/>
<rect x="250.32" y="242.068" width="5.20574" height="5.26239" transform="rotate(90 250.32 242.068)" fill="#A1A1A1"/>
<rect x="255.582" y="122.336" width="5.20574" height="5.26239" transform="rotate(90 255.582 122.336)" fill="#A1A1A1"/>
<rect x="224.008" y="153.571" width="5.20574" height="5.26239" transform="rotate(90 224.008 153.571)" fill="#A1A1A1"/>
<rect x="129.285" y="184.805" width="5.20574" height="5.26239" transform="rotate(90 129.285 184.805)" fill="#A1A1A1"/>
<rect x="97.7109" y="216.04" width="5.20574" height="5.26239" transform="rotate(90 97.7109 216.04)" fill="#A1A1A1"/>
<rect x="60.873" y="242.068" width="5.20574" height="5.26239" transform="rotate(90 60.873 242.068)" fill="#A1A1A1"/>
<rect x="124.021" y="242.068" width="5.20574" height="5.26239" transform="rotate(90 124.021 242.068)" fill="#A1A1A1"/>
<rect x="92.4473" y="148.365" width="5.20574" height="5.26239" transform="rotate(90 92.4473 148.365)" fill="#A1A1A1"/>
<rect x="60.873" y="54.6616" width="5.20574" height="5.26239" transform="rotate(90 60.873 54.6616)" fill="#A1A1A1"/>
<rect x="160.859" y="28.6328" width="5.20574" height="5.26239" transform="rotate(90 160.859 28.6328)" fill="#A1A1A1"/>
<rect x="97.7109" y="28.6328" width="5.20574" height="5.26239" transform="rotate(90 97.7109 28.6328)" fill="#A1A1A1"/>
<rect x="113.498" y="106.719" width="5.20574" height="5.26239" transform="rotate(90 113.498 106.719)" fill="#A1A1A1"/>
<rect x="213.482" y="80.6904" width="5.20574" height="5.26239" transform="rotate(90 213.482 80.6904)" fill="#A1A1A1"/>
<rect x="181.908" y="174.394" width="5.20574" height="5.26239" transform="rotate(90 181.908 174.394)" fill="#A1A1A1"/>
<rect x="24.0371" y="80.6904" width="5.20574" height="5.26239" transform="rotate(90 24.0371 80.6904)" fill="#A1A1A1"/>
<rect x="234.533" y="226.451" width="5.20574" height="5.26239" transform="rotate(90 234.533 226.451)" fill="#A1A1A1"/>
<rect x="192.434" y="247.274" width="5.20574" height="5.26239" transform="rotate(90 192.434 247.274)" fill="#A1A1A1"/>
<rect x="239.795" y="106.719" width="5.20574" height="5.26239" transform="rotate(90 239.795 106.719)" fill="#A1A1A1"/>
<rect x="113.498" y="169.188" width="5.20574" height="5.26239" transform="rotate(90 113.498 169.188)" fill="#A1A1A1"/>
<rect x="255.582" y="247.274" width="5.20574" height="5.26239" transform="rotate(90 255.582 247.274)" fill="#A1A1A1"/>
<rect x="229.27" y="158.776" width="5.20574" height="5.26239" transform="rotate(90 229.27 158.776)" fill="#A1A1A1"/>
<rect x="97.7109" y="153.571" width="5.20574" height="5.26239" transform="rotate(90 97.7109 153.571)" fill="#A1A1A1"/>
<rect x="102.973" y="158.776" width="5.20574" height="5.26239" transform="rotate(90 102.973 158.776)" fill="#A1A1A1"/>
<rect x="66.1367" y="59.8677" width="5.20574" height="5.26239" transform="rotate(90 66.1367 59.8677)" fill="#A1A1A1"/>
<rect x="166.121" y="33.8389" width="5.20574" height="5.26239" transform="rotate(90 166.121 33.8389)" fill="#A1A1A1"/>
<rect x="102.973" y="33.8389" width="5.20574" height="5.26239" transform="rotate(90 102.973 33.8389)" fill="#A1A1A1"/>
<rect x="118.76" y="111.925" width="5.20574" height="5.26239" transform="rotate(90 118.76 111.925)" fill="#A1A1A1"/>
<rect x="218.746" y="85.896" width="5.20574" height="5.26239" transform="rotate(90 218.746 85.896)" fill="#A1A1A1"/>
<rect x="129.285" y="122.336" width="5.20574" height="5.26239" transform="rotate(90 129.285 122.336)" fill="#A1A1A1"/>
<rect x="229.27" y="96.3076" width="5.20574" height="5.26239" transform="rotate(90 229.27 96.3076)" fill="#A1A1A1"/>
<rect x="187.172" y="179.6" width="5.20574" height="5.26239" transform="rotate(90 187.172 179.6)" fill="#A1A1A1"/>
<rect x="29.2988" y="85.896" width="5.20574" height="5.26239" transform="rotate(90 29.2988 85.896)" fill="#A1A1A1"/>
<rect x="239.795" y="231.657" width="5.20574" height="5.26239" transform="rotate(90 239.795 231.657)" fill="#A1A1A1"/>
<rect x="245.057" y="111.925" width="5.20574" height="5.26239" transform="rotate(90 245.057 111.925)" fill="#A1A1A1"/>
<rect x="213.482" y="143.159" width="5.20574" height="5.26239" transform="rotate(90 213.482 143.159)" fill="#A1A1A1"/>
<rect x="118.76" y="174.394" width="5.20574" height="5.26239" transform="rotate(90 118.76 174.394)" fill="#A1A1A1"/>
<rect x="87.1855" y="205.628" width="5.20574" height="5.26239" transform="rotate(90 87.1855 205.628)" fill="#A1A1A1"/>
<rect x="50.3496" y="231.657" width="5.20574" height="5.26239" transform="rotate(90 50.3496 231.657)" fill="#A1A1A1"/>
<rect x="113.498" y="231.657" width="5.20574" height="5.26239" transform="rotate(90 113.498 231.657)" fill="#A1A1A1"/>
<rect x="260.844" y="252.48" width="5.20574" height="5.26239" transform="rotate(90 260.844 252.48)" fill="#A1A1A1"/>
<rect x="45.0859" y="163.982" width="5.20574" height="5.26239" transform="rotate(90 45.0859 163.982)" fill="#A1A1A1"/>
<rect x="234.533" y="163.982" width="5.20574" height="5.26239" transform="rotate(90 234.533 163.982)" fill="#A1A1A1"/>
<rect x="176.646" y="221.246" width="5.20574" height="5.26239" transform="rotate(90 176.646 221.246)" fill="#A1A1A1"/>
<rect x="171.385" y="39.0444" width="5.20574" height="5.26239" transform="rotate(90 171.385 39.0444)" fill="#A1A1A1"/>
<rect x="124.021" y="117.131" width="5.20574" height="5.26239" transform="rotate(90 124.021 117.131)" fill="#A1A1A1"/>
<rect x="224.008" y="91.1021" width="5.20574" height="5.26239" transform="rotate(90 224.008 91.1021)" fill="#A1A1A1"/>
<rect x="192.434" y="184.805" width="5.20574" height="5.26239" transform="rotate(90 192.434 184.805)" fill="#A1A1A1"/>
<rect x="150.334" y="205.628" width="5.20574" height="5.26239" transform="rotate(90 150.334 205.628)" fill="#A1A1A1"/>
<rect x="34.5625" y="91.1021" width="5.20574" height="5.26239" transform="rotate(90 34.5625 91.1021)" fill="#A1A1A1"/>
<rect x="245.057" y="236.863" width="5.20574" height="5.26239" transform="rotate(90 245.057 236.863)" fill="#A1A1A1"/>
<rect x="202.959" y="252.48" width="5.20574" height="5.26239" transform="rotate(90 202.959 252.48)" fill="#A1A1A1"/>
<rect x="250.32" y="117.131" width="5.20574" height="5.26239" transform="rotate(90 250.32 117.131)" fill="#A1A1A1"/>
<rect x="218.746" y="148.365" width="5.20574" height="5.26239" transform="rotate(90 218.746 148.365)" fill="#A1A1A1"/>
<rect x="124.021" y="179.6" width="5.20574" height="5.26239" transform="rotate(90 124.021 179.6)" fill="#A1A1A1"/>
<rect x="92.4473" y="210.834" width="5.20574" height="5.26239" transform="rotate(90 92.4473 210.834)" fill="#A1A1A1"/>
<rect x="55.6113" y="236.863" width="5.20574" height="5.26239" transform="rotate(90 55.6113 236.863)" fill="#A1A1A1"/>
<rect x="118.76" y="236.863" width="5.20574" height="5.26239" transform="rotate(90 118.76 236.863)" fill="#A1A1A1"/>
<rect x="87.1855" y="143.159" width="5.20574" height="5.26239" transform="rotate(90 87.1855 143.159)" fill="#A1A1A1"/>
<rect x="18.7734" y="262.892" width="5.20574" height="5.26239" transform="rotate(90 18.7734 262.892)" fill="#A1A1A1"/>
<rect x="18.7734" y="200.422" width="5.20574" height="5.26239" transform="rotate(90 18.7734 200.422)" fill="#A1A1A1"/>
<rect x="271.369" y="200.422" width="5.20574" height="5.26239" transform="rotate(90 271.369 200.422)" fill="#A1A1A1"/>
<rect x="271.369" y="137.954" width="5.20574" height="5.26239" transform="rotate(90 271.369 137.954)" fill="#A1A1A1"/>
<rect x="266.107" y="252.48" width="5.20574" height="5.26239" transform="rotate(90 266.107 252.48)" fill="#A1A1A1"/>
<rect x="266.107" y="257.686" width="5.20574" height="5.26239" transform="rotate(90 266.107 257.686)" fill="#A1A1A1"/>
<rect x="260.844" y="262.892" width="5.20574" height="5.26239" transform="rotate(90 260.844 262.892)" fill="#A1A1A1"/>
<rect x="266.107" y="262.892" width="5.20574" height="5.26239" transform="rotate(90 266.107 262.892)" fill="#A1A1A1"/>
<rect x="271.369" y="262.892" width="5.20574" height="5.26239" transform="rotate(90 271.369 262.892)" fill="#A1A1A1"/>
<rect x="271.369" y="257.686" width="5.20574" height="5.26239" transform="rotate(90 271.369 257.686)" fill="#A1A1A1"/>
<rect x="271.369" y="252.48" width="5.20574" height="5.26239" transform="rotate(90 271.369 252.48)" fill="#A1A1A1"/>
<rect x="255.582" y="262.892" width="5.20574" height="5.26239" transform="rotate(-90 255.582 262.892)" fill="#A1A1A1"/>
<ellipse cx="10.5248" cy="10.4115" rx="10.5248" ry="10.4115" fill="black"/>
<ellipse cx="264.524" cy="261.411" rx="10.5248" ry="10.4115" transform="rotate(180 264.524 261.411)" fill="white"/>
<ellipse cx="73.5248" cy="10.4115" rx="10.5248" ry="10.4115" fill="black"/>
<ellipse cx="199.34" cy="261.589" rx="10.5248" ry="10.4115" transform="rotate(180 199.34 261.589)" fill="white"/>
<ellipse cx="137.525" cy="10.4115" rx="10.5248" ry="10.4115" fill="black"/>
<ellipse cx="136.52" cy="261.589" rx="10.5248" ry="10.4115" transform="rotate(180 136.52 261.589)" fill="white"/>
<ellipse cx="200.525" cy="10.4115" rx="10.5248" ry="10.4115" fill="black"/>
<ellipse cx="73.6998" cy="261.589" rx="10.5248" ry="10.4115" transform="rotate(180 73.6998 261.589)" fill="white"/>
<ellipse cx="263.525" cy="10.4115" rx="10.5248" ry="10.4115" fill="black"/>
<ellipse cx="10.526" cy="261.411" rx="10.5248" ry="10.4115" transform="rotate(180 10.526 261.411)" fill="white"/>
<ellipse cx="263.525" cy="72.4115" rx="10.5248" ry="10.4115" fill="black"/>
<ellipse cx="10.524" cy="198.411" rx="10.5248" ry="10.4115" transform="rotate(180 10.524 198.411)" fill="white"/>
<ellipse cx="10.5248" cy="72.4115" rx="10.5248" ry="10.4115" fill="black"/>
<ellipse cx="264.526" cy="198.411" rx="10.5248" ry="10.4115" transform="rotate(180 264.526 198.411)" fill="white"/>
</svg>
