<svg width="272" height="272" viewBox="0 0 272 272" fill="none" xmlns="http://www.w3.org/2000/svg">
<rect x="119.68" y="16" width="5.44" height="5.33333" transform="rotate(180 119.68 16)" fill="#A1A1A1"/>
<rect x="119.68" y="64" width="5.44" height="5.33333" transform="rotate(180 119.68 64)" fill="#A1A1A1"/>
<rect x="119.68" y="111.996" width="5.44" height="5.33333" transform="rotate(180 119.68 111.996)" fill="#A1A1A1"/>
<rect x="114.239" y="111.996" width="5.44" height="5.33333" transform="rotate(180 114.239 111.996)" fill="#A1A1A1"/>
<rect x="119.68" y="170.668" width="5.44" height="5.33333" transform="rotate(180 119.68 170.668)" fill="#A1A1A1"/>
<rect x="114.239" y="170.668" width="5.44" height="5.33333" transform="rotate(180 114.239 170.668)" fill="#A1A1A1"/>
<rect x="103.359" y="138.668" width="5.33333" height="5.44" transform="rotate(90 103.359 138.668)" fill="#A1A1A1"/>
<rect x="168.641" y="138.668" width="5.33333" height="5.44" transform="rotate(90 168.641 138.668)" fill="#A1A1A1"/>
<rect x="59.8398" y="154.664" width="5.33333" height="5.44" transform="rotate(90 59.8398 154.664)" fill="#A1A1A1"/>
<rect x="217.601" y="138.668" width="5.33333" height="5.44" transform="rotate(90 217.601 138.668)" fill="#A1A1A1"/>
<rect x="119.68" y="266.668" width="5.44" height="5.33333" transform="rotate(180 119.68 266.668)" fill="#A1A1A1"/>
<rect x="65.2803" y="16" width="5.44" height="5.33333" transform="rotate(180 65.2803 16)" fill="#A1A1A1"/>
<rect x="70.7197" y="218.664" width="5.44" height="5.33333" transform="rotate(180 70.7197 218.664)" fill="#A1A1A1"/>
<rect x="217.601" y="192" width="5.33333" height="5.44" transform="rotate(90 217.601 192)" fill="#A1A1A1"/>
<rect x="65.2803" y="266.668" width="5.44" height="5.33333" transform="rotate(180 65.2803 266.668)" fill="#A1A1A1"/>
<rect x="174.079" y="16" width="5.44" height="5.33333" transform="rotate(180 174.079 16)" fill="#A1A1A1"/>
<rect x="174.079" y="64" width="5.44" height="5.33333" transform="rotate(180 174.079 64)" fill="#A1A1A1"/>
<rect x="179.52" y="218.664" width="5.44" height="5.33333" transform="rotate(180 179.52 218.664)" fill="#A1A1A1"/>
<rect x="59.8398" y="101.332" width="5.33333" height="5.44" transform="rotate(90 59.8398 101.332)" fill="#A1A1A1"/>
<rect x="217.601" y="85.332" width="5.33333" height="5.44" transform="rotate(90 217.601 85.332)" fill="#A1A1A1"/>
<rect x="136" y="85.332" width="5.33333" height="5.44" transform="rotate(90 136 85.332)" fill="#A1A1A1"/>
<rect x="136" y="37.3359" width="5.33333" height="5.44" transform="rotate(90 136 37.3359)" fill="#A1A1A1"/>
<rect x="136" y="192" width="5.33333" height="5.44" transform="rotate(90 136 192)" fill="#A1A1A1"/>
<rect x="136" y="240" width="5.33333" height="5.44" transform="rotate(90 136 240)" fill="#A1A1A1"/>
<rect x="190.399" y="138.668" width="5.44" height="5.33333" transform="rotate(180 190.399 138.668)" fill="#A1A1A1"/>
<rect x="239.359" y="138.668" width="5.44" height="5.33333" transform="rotate(180 239.359 138.668)" fill="#A1A1A1"/>
<rect x="81.6006" y="138.668" width="5.44" height="5.33333" transform="rotate(180 81.6006 138.668)" fill="#A1A1A1"/>
<rect x="32.6406" y="138.668" width="5.44" height="5.33333" transform="rotate(180 32.6406 138.668)" fill="#A1A1A1"/>
<rect x="174.079" y="266.668" width="5.44" height="5.33333" transform="rotate(180 174.079 266.668)" fill="#A1A1A1"/>
<rect x="38.0791" y="16" width="5.44" height="5.33333" transform="rotate(180 38.0791 16)" fill="#A1A1A1"/>
<rect x="38.0791" y="266.668" width="5.44" height="5.33333" transform="rotate(180 38.0791 266.668)" fill="#A1A1A1"/>
<rect x="146.88" y="16" width="5.44" height="5.33333" transform="rotate(180 146.88 16)" fill="#A1A1A1"/>
<rect x="152.32" y="218.664" width="5.44" height="5.33333" transform="rotate(180 152.32 218.664)" fill="#A1A1A1"/>
<rect x="59.8398" y="128" width="5.33333" height="5.44" transform="rotate(90 59.8398 128)" fill="#A1A1A1"/>
<rect x="217.601" y="111.996" width="5.33333" height="5.44" transform="rotate(90 217.601 111.996)" fill="#A1A1A1"/>
<rect x="92.4805" y="16" width="5.44" height="5.33333" transform="rotate(180 92.4805 16)" fill="#A1A1A1"/>
<rect x="92.4805" y="64" width="5.44" height="5.33333" transform="rotate(180 92.4805 64)" fill="#A1A1A1"/>
<rect x="97.9209" y="218.664" width="5.44" height="5.33333" transform="rotate(180 97.9209 218.664)" fill="#A1A1A1"/>
<rect x="59.8398" y="181.336" width="5.33333" height="5.44" transform="rotate(90 59.8398 181.336)" fill="#A1A1A1"/>
<rect x="217.601" y="165.332" width="5.33333" height="5.44" transform="rotate(90 217.601 165.332)" fill="#A1A1A1"/>
<rect x="92.4805" y="266.668" width="5.44" height="5.33333" transform="rotate(180 92.4805 266.668)" fill="#A1A1A1"/>
<rect x="201.28" y="16" width="5.44" height="5.33333" transform="rotate(180 201.28 16)" fill="#A1A1A1"/>
<rect x="201.28" y="64" width="5.44" height="5.33333" transform="rotate(180 201.28 64)" fill="#A1A1A1"/>
<rect x="206.72" y="218.664" width="5.44" height="5.33333" transform="rotate(180 206.72 218.664)" fill="#A1A1A1"/>
<rect x="59.8398" y="74.668" width="5.33333" height="5.44" transform="rotate(90 59.8398 74.668)" fill="#A1A1A1"/>
<rect x="201.28" y="266.668" width="5.44" height="5.33333" transform="rotate(180 201.28 266.668)" fill="#A1A1A1"/>
<rect x="244.8" y="16" width="5.44" height="5.33333" transform="rotate(180 244.8 16)" fill="#A1A1A1"/>
<rect x="244.8" y="266.668" width="5.44" height="5.33333" transform="rotate(180 244.8 266.668)" fill="#A1A1A1"/>
<rect x="125.12" y="16" width="5.44" height="5.33333" transform="rotate(180 125.12 16)" fill="#A1A1A1"/>
<rect x="130.56" y="218.664" width="5.44" height="5.33333" transform="rotate(180 130.56 218.664)" fill="#A1A1A1"/>
<rect x="59.8398" y="149.332" width="5.33333" height="5.44" transform="rotate(90 59.8398 149.332)" fill="#A1A1A1"/>
<rect x="70.7197" y="16" width="5.44" height="5.33333" transform="rotate(180 70.7197 16)" fill="#A1A1A1"/>
<rect x="70.7197" y="64" width="5.44" height="5.33333" transform="rotate(180 70.7197 64)" fill="#A1A1A1"/>
<rect x="76.1602" y="218.664" width="5.44" height="5.33333" transform="rotate(180 76.1602 218.664)" fill="#A1A1A1"/>
<rect x="59.8398" y="202.668" width="5.33333" height="5.44" transform="rotate(90 59.8398 202.668)" fill="#A1A1A1"/>
<rect x="217.601" y="186.668" width="5.33333" height="5.44" transform="rotate(90 217.601 186.668)" fill="#A1A1A1"/>
<rect x="70.7197" y="266.668" width="5.44" height="5.33333" transform="rotate(180 70.7197 266.668)" fill="#A1A1A1"/>
<rect x="179.52" y="16" width="5.44" height="5.33333" transform="rotate(180 179.52 16)" fill="#A1A1A1"/>
<rect x="179.52" y="64" width="5.44" height="5.33333" transform="rotate(180 179.52 64)" fill="#A1A1A1"/>
<rect x="184.96" y="218.664" width="5.44" height="5.33333" transform="rotate(180 184.96 218.664)" fill="#A1A1A1"/>
<rect x="59.8398" y="96" width="5.33333" height="5.44" transform="rotate(90 59.8398 96)" fill="#A1A1A1"/>
<rect x="217.601" y="80" width="5.33333" height="5.44" transform="rotate(90 217.601 80)" fill="#A1A1A1"/>
<rect x="136" y="80" width="5.33333" height="5.44" transform="rotate(90 136 80)" fill="#A1A1A1"/>
<rect x="136" y="32" width="5.33333" height="5.44" transform="rotate(90 136 32)" fill="#A1A1A1"/>
<rect x="136" y="186.668" width="5.33333" height="5.44" transform="rotate(90 136 186.668)" fill="#A1A1A1"/>
<rect x="136" y="234.664" width="5.33333" height="5.44" transform="rotate(90 136 234.664)" fill="#A1A1A1"/>
<rect x="195.84" y="138.668" width="5.44" height="5.33333" transform="rotate(180 195.84 138.668)" fill="#A1A1A1"/>
<rect x="244.8" y="138.668" width="5.44" height="5.33333" transform="rotate(180 244.8 138.668)" fill="#A1A1A1"/>
<rect x="87.04" y="138.668" width="5.44" height="5.33333" transform="rotate(180 87.04 138.668)" fill="#A1A1A1"/>
<rect x="38.0791" y="138.668" width="5.44" height="5.33333" transform="rotate(180 38.0791 138.668)" fill="#A1A1A1"/>
<rect x="179.52" y="266.668" width="5.44" height="5.33333" transform="rotate(180 179.52 266.668)" fill="#A1A1A1"/>
<rect x="43.5195" y="16" width="5.44" height="5.33333" transform="rotate(180 43.5195 16)" fill="#A1A1A1"/>
<rect x="43.5195" y="266.668" width="5.44" height="5.33333" transform="rotate(180 43.5195 266.668)" fill="#A1A1A1"/>
<rect x="152.32" y="16" width="5.44" height="5.33333" transform="rotate(180 152.32 16)" fill="#A1A1A1"/>
<rect x="152.32" y="64" width="5.44" height="5.33333" transform="rotate(180 152.32 64)" fill="#A1A1A1"/>
<rect x="152.32" y="111.996" width="5.44" height="5.33333" transform="rotate(180 152.32 111.996)" fill="#A1A1A1"/>
<rect x="152.32" y="170.668" width="5.44" height="5.33333" transform="rotate(180 152.32 170.668)" fill="#A1A1A1"/>
<rect x="157.761" y="218.664" width="5.44" height="5.33333" transform="rotate(180 157.761 218.664)" fill="#A1A1A1"/>
<rect x="217.601" y="106.668" width="5.33333" height="5.44" transform="rotate(90 217.601 106.668)" fill="#A1A1A1"/>
<rect x="152.32" y="266.668" width="5.44" height="5.33333" transform="rotate(180 152.32 266.668)" fill="#A1A1A1"/>
<rect x="97.9209" y="16" width="5.44" height="5.33333" transform="rotate(180 97.9209 16)" fill="#A1A1A1"/>
<rect x="97.9209" y="64" width="5.44" height="5.33333" transform="rotate(180 97.9209 64)" fill="#A1A1A1"/>
<rect x="103.359" y="218.664" width="5.44" height="5.33333" transform="rotate(180 103.359 218.664)" fill="#A1A1A1"/>
<rect x="59.8398" y="176" width="5.33333" height="5.44" transform="rotate(90 59.8398 176)" fill="#A1A1A1"/>
<rect x="217.601" y="160.004" width="5.33333" height="5.44" transform="rotate(90 217.601 160.004)" fill="#A1A1A1"/>
<rect x="97.9209" y="266.668" width="5.44" height="5.33333" transform="rotate(180 97.9209 266.668)" fill="#A1A1A1"/>
<rect x="206.72" y="16" width="5.44" height="5.33333" transform="rotate(180 206.72 16)" fill="#A1A1A1"/>
<rect x="206.72" y="64" width="5.44" height="5.33333" transform="rotate(180 206.72 64)" fill="#A1A1A1"/>
<rect x="59.8398" y="69.332" width="5.33333" height="5.44" transform="rotate(90 59.8398 69.332)" fill="#A1A1A1"/>
<rect x="206.72" y="266.668" width="5.44" height="5.33333" transform="rotate(180 206.72 266.668)" fill="#A1A1A1"/>
<rect x="250.239" y="16" width="5.44" height="5.33333" transform="rotate(180 250.239 16)" fill="#A1A1A1"/>
<rect x="250.239" y="266.668" width="5.44" height="5.33333" transform="rotate(180 250.239 266.668)" fill="#A1A1A1"/>
<rect x="21.7607" y="16" width="5.44" height="5.33333" transform="rotate(180 21.7607 16)" fill="#A1A1A1"/>
<rect x="21.7607" y="266.668" width="5.44" height="5.33333" transform="rotate(180 21.7607 266.668)" fill="#A1A1A1"/>
<rect x="130.56" y="64" width="5.44" height="5.33333" transform="rotate(180 130.56 64)" fill="#A1A1A1"/>
<rect x="130.56" y="111.996" width="5.44" height="5.33333" transform="rotate(180 130.56 111.996)" fill="#A1A1A1"/>
<rect x="130.56" y="170.668" width="5.44" height="5.33333" transform="rotate(180 130.56 170.668)" fill="#A1A1A1"/>
<rect x="103.359" y="128" width="5.33333" height="5.44" transform="rotate(90 103.359 128)" fill="#A1A1A1"/>
<rect x="168.641" y="128" width="5.33333" height="5.44" transform="rotate(90 168.641 128)" fill="#A1A1A1"/>
<rect x="217.601" y="128" width="5.33333" height="5.44" transform="rotate(90 217.601 128)" fill="#A1A1A1"/>
<rect x="130.56" y="266.668" width="5.44" height="5.33333" transform="rotate(180 130.56 266.668)" fill="#A1A1A1"/>
<rect x="76.1602" y="16" width="5.44" height="5.33333" transform="rotate(180 76.1602 16)" fill="#A1A1A1"/>
<rect x="76.1602" y="64" width="5.44" height="5.33333" transform="rotate(180 76.1602 64)" fill="#A1A1A1"/>
<rect x="81.6006" y="218.664" width="5.44" height="5.33333" transform="rotate(180 81.6006 218.664)" fill="#A1A1A1"/>
<rect x="59.8398" y="197.332" width="5.33333" height="5.44" transform="rotate(90 59.8398 197.332)" fill="#A1A1A1"/>
<rect x="217.601" y="181.336" width="5.33333" height="5.44" transform="rotate(90 217.601 181.336)" fill="#A1A1A1"/>
<rect x="76.1602" y="266.668" width="5.44" height="5.33333" transform="rotate(180 76.1602 266.668)" fill="#A1A1A1"/>
<rect x="184.96" y="16" width="5.44" height="5.33333" transform="rotate(180 184.96 16)" fill="#A1A1A1"/>
<rect x="184.96" y="64" width="5.44" height="5.33333" transform="rotate(180 184.96 64)" fill="#A1A1A1"/>
<rect x="190.399" y="218.664" width="5.44" height="5.33333" transform="rotate(180 190.399 218.664)" fill="#A1A1A1"/>
<rect x="59.8398" y="90.6641" width="5.33333" height="5.44" transform="rotate(90 59.8398 90.6641)" fill="#A1A1A1"/>
<rect x="217.601" y="74.668" width="5.33333" height="5.44" transform="rotate(90 217.601 74.668)" fill="#A1A1A1"/>
<rect x="136" y="74.668" width="5.33333" height="5.44" transform="rotate(90 136 74.668)" fill="#A1A1A1"/>
<rect x="136" y="26.6641" width="5.33333" height="5.44" transform="rotate(90 136 26.6641)" fill="#A1A1A1"/>
<rect x="136" y="181.336" width="5.33333" height="5.44" transform="rotate(90 136 181.336)" fill="#A1A1A1"/>
<rect x="136" y="229.336" width="5.33333" height="5.44" transform="rotate(90 136 229.336)" fill="#A1A1A1"/>
<rect x="201.28" y="138.668" width="5.44" height="5.33333" transform="rotate(180 201.28 138.668)" fill="#A1A1A1"/>
<rect x="250.239" y="138.668" width="5.44" height="5.33333" transform="rotate(180 250.239 138.668)" fill="#A1A1A1"/>
<rect x="43.5195" y="138.668" width="5.44" height="5.33333" transform="rotate(180 43.5195 138.668)" fill="#A1A1A1"/>
<rect x="184.96" y="266.668" width="5.44" height="5.33333" transform="rotate(180 184.96 266.668)" fill="#A1A1A1"/>
<rect x="228.48" y="16" width="5.44" height="5.33333" transform="rotate(180 228.48 16)" fill="#A1A1A1"/>
<rect x="228.48" y="266.668" width="5.44" height="5.33333" transform="rotate(180 228.48 266.668)" fill="#A1A1A1"/>
<rect x="48.96" y="16" width="5.44" height="5.33333" transform="rotate(180 48.96 16)" fill="#A1A1A1"/>
<rect x="48.96" y="266.668" width="5.44" height="5.33333" transform="rotate(180 48.96 266.668)" fill="#A1A1A1"/>
<rect x="157.761" y="16" width="5.44" height="5.33333" transform="rotate(180 157.761 16)" fill="#A1A1A1"/>
<rect x="157.761" y="64" width="5.44" height="5.33333" transform="rotate(180 157.761 64)" fill="#A1A1A1"/>
<rect x="157.761" y="111.996" width="5.44" height="5.33333" transform="rotate(180 157.761 111.996)" fill="#A1A1A1"/>
<rect x="157.761" y="170.668" width="5.44" height="5.33333" transform="rotate(180 157.761 170.668)" fill="#A1A1A1"/>
<rect x="163.2" y="218.664" width="5.44" height="5.33333" transform="rotate(180 163.2 218.664)" fill="#A1A1A1"/>
<rect x="59.8398" y="117.336" width="5.33333" height="5.44" transform="rotate(90 59.8398 117.336)" fill="#A1A1A1"/>
<rect x="217.601" y="101.332" width="5.33333" height="5.44" transform="rotate(90 217.601 101.332)" fill="#A1A1A1"/>
<rect x="157.761" y="266.668" width="5.44" height="5.33333" transform="rotate(180 157.761 266.668)" fill="#A1A1A1"/>
<rect x="103.359" y="16" width="5.44" height="5.33333" transform="rotate(180 103.359 16)" fill="#A1A1A1"/>
<rect x="103.359" y="64" width="5.44" height="5.33333" transform="rotate(180 103.359 64)" fill="#A1A1A1"/>
<rect x="103.359" y="154.664" width="5.33333" height="5.44" transform="rotate(90 103.359 154.664)" fill="#A1A1A1"/>
<rect x="168.641" y="154.664" width="5.33333" height="5.44" transform="rotate(90 168.641 154.664)" fill="#A1A1A1"/>
<rect x="108.8" y="218.664" width="5.44" height="5.33333" transform="rotate(180 108.8 218.664)" fill="#A1A1A1"/>
<rect x="59.8398" y="170.668" width="5.33333" height="5.44" transform="rotate(90 59.8398 170.668)" fill="#A1A1A1"/>
<rect x="217.601" y="154.664" width="5.33333" height="5.44" transform="rotate(90 217.601 154.664)" fill="#A1A1A1"/>
<rect x="103.359" y="266.668" width="5.44" height="5.33333" transform="rotate(180 103.359 266.668)" fill="#A1A1A1"/>
<rect x="212.16" y="16" width="5.44" height="5.33333" transform="rotate(180 212.16 16)" fill="#A1A1A1"/>
<rect x="212.16" y="266.668" width="5.44" height="5.33333" transform="rotate(180 212.16 266.668)" fill="#A1A1A1"/>
<rect x="255.68" y="16" width="5.44" height="5.33333" transform="rotate(180 255.68 16)" fill="#A1A1A1"/>
<rect x="255.68" y="266.668" width="5.44" height="5.33333" transform="rotate(180 255.68 266.668)" fill="#A1A1A1"/>
<rect x="32.6406" y="16" width="5.44" height="5.33333" transform="rotate(180 32.6406 16)" fill="#A1A1A1"/>
<rect x="32.6406" y="266.668" width="5.44" height="5.33333" transform="rotate(180 32.6406 266.668)" fill="#A1A1A1"/>
<rect x="141.44" y="64" width="5.44" height="5.33333" transform="rotate(180 141.44 64)" fill="#A1A1A1"/>
<rect x="141.44" y="111.996" width="5.44" height="5.33333" transform="rotate(180 141.44 111.996)" fill="#A1A1A1"/>
<rect x="141.44" y="170.668" width="5.44" height="5.33333" transform="rotate(180 141.44 170.668)" fill="#A1A1A1"/>
<rect x="103.359" y="117.336" width="5.33333" height="5.44" transform="rotate(90 103.359 117.336)" fill="#A1A1A1"/>
<rect x="168.641" y="117.336" width="5.33333" height="5.44" transform="rotate(90 168.641 117.336)" fill="#A1A1A1"/>
<rect x="217.601" y="117.336" width="5.33333" height="5.44" transform="rotate(90 217.601 117.336)" fill="#A1A1A1"/>
<rect x="141.44" y="266.668" width="5.44" height="5.33333" transform="rotate(180 141.44 266.668)" fill="#A1A1A1"/>
<rect x="87.04" y="16" width="5.44" height="5.33333" transform="rotate(180 87.04 16)" fill="#A1A1A1"/>
<rect x="87.04" y="64" width="5.44" height="5.33333" transform="rotate(180 87.04 64)" fill="#A1A1A1"/>
<rect x="92.4805" y="218.664" width="5.44" height="5.33333" transform="rotate(180 92.4805 218.664)" fill="#A1A1A1"/>
<rect x="59.8398" y="186.668" width="5.33333" height="5.44" transform="rotate(90 59.8398 186.668)" fill="#A1A1A1"/>
<rect x="217.601" y="170.668" width="5.33333" height="5.44" transform="rotate(90 217.601 170.668)" fill="#A1A1A1"/>
<rect x="87.04" y="266.668" width="5.44" height="5.33333" transform="rotate(180 87.04 266.668)" fill="#A1A1A1"/>
<rect x="195.84" y="16" width="5.44" height="5.33333" transform="rotate(180 195.84 16)" fill="#A1A1A1"/>
<rect x="195.84" y="64" width="5.44" height="5.33333" transform="rotate(180 195.84 64)" fill="#A1A1A1"/>
<rect x="201.28" y="218.664" width="5.44" height="5.33333" transform="rotate(180 201.28 218.664)" fill="#A1A1A1"/>
<rect x="59.8398" y="80" width="5.33333" height="5.44" transform="rotate(90 59.8398 80)" fill="#A1A1A1"/>
<rect x="136" y="64" width="5.33333" height="5.44" transform="rotate(90 136 64)" fill="#A1A1A1"/>
<rect x="136" y="170.668" width="5.33333" height="5.44" transform="rotate(90 136 170.668)" fill="#A1A1A1"/>
<rect x="136" y="160.004" width="5.33333" height="5.44" transform="rotate(90 136 160.004)" fill="#A1A1A1"/>
<rect x="136" y="218.664" width="5.33333" height="5.44" transform="rotate(90 136 218.664)" fill="#A1A1A1"/>
<rect x="212.16" y="138.668" width="5.44" height="5.33333" transform="rotate(180 212.16 138.668)" fill="#A1A1A1"/>
<rect x="261.12" y="138.668" width="5.44" height="5.33333" transform="rotate(180 261.12 138.668)" fill="#A1A1A1"/>
<rect x="272" y="138.668" width="5.44" height="5.33333" transform="rotate(180 272 138.668)" fill="#A1A1A1"/>
<rect x="54.3994" y="138.668" width="5.44" height="5.33333" transform="rotate(180 54.3994 138.668)" fill="#A1A1A1"/>
<rect x="195.84" y="266.668" width="5.44" height="5.33333" transform="rotate(180 195.84 266.668)" fill="#A1A1A1"/>
<rect x="239.359" y="16" width="5.44" height="5.33333" transform="rotate(180 239.359 16)" fill="#A1A1A1"/>
<rect x="239.359" y="266.668" width="5.44" height="5.33333" transform="rotate(180 239.359 266.668)" fill="#A1A1A1"/>
<rect x="59.8398" y="16" width="5.44" height="5.33333" transform="rotate(180 59.8398 16)" fill="#A1A1A1"/>
<rect x="217.601" y="197.332" width="5.33333" height="5.44" transform="rotate(90 217.601 197.332)" fill="#A1A1A1"/>
<rect x="59.8398" y="266.668" width="5.44" height="5.33333" transform="rotate(180 59.8398 266.668)" fill="#A1A1A1"/>
<rect x="168.641" y="16" width="5.44" height="5.33333" transform="rotate(180 168.641 16)" fill="#A1A1A1"/>
<rect x="168.641" y="64" width="5.44" height="5.33333" transform="rotate(180 168.641 64)" fill="#A1A1A1"/>
<rect x="174.079" y="218.664" width="5.44" height="5.33333" transform="rotate(180 174.079 218.664)" fill="#A1A1A1"/>
<rect x="59.8398" y="106.668" width="5.33333" height="5.44" transform="rotate(90 59.8398 106.668)" fill="#A1A1A1"/>
<rect x="217.601" y="90.6641" width="5.33333" height="5.44" transform="rotate(90 217.601 90.6641)" fill="#A1A1A1"/>
<rect x="136" y="90.6641" width="5.33333" height="5.44" transform="rotate(90 136 90.6641)" fill="#A1A1A1"/>
<rect x="136" y="42.6641" width="5.33333" height="5.44" transform="rotate(90 136 42.6641)" fill="#A1A1A1"/>
<rect x="136" y="197.332" width="5.33333" height="5.44" transform="rotate(90 136 197.332)" fill="#A1A1A1"/>
<rect x="136" y="245.336" width="5.33333" height="5.44" transform="rotate(90 136 245.336)" fill="#A1A1A1"/>
<rect x="184.96" y="138.668" width="5.44" height="5.33333" transform="rotate(180 184.96 138.668)" fill="#A1A1A1"/>
<rect x="233.921" y="138.668" width="5.44" height="5.33333" transform="rotate(180 233.921 138.668)" fill="#A1A1A1"/>
<rect x="76.1602" y="138.668" width="5.44" height="5.33333" transform="rotate(180 76.1602 138.668)" fill="#A1A1A1"/>
<rect x="27.2002" y="138.668" width="5.44" height="5.33333" transform="rotate(180 27.2002 138.668)" fill="#A1A1A1"/>
<rect x="168.641" y="266.668" width="5.44" height="5.33333" transform="rotate(180 168.641 266.668)" fill="#A1A1A1"/>
<rect x="114.239" y="16" width="5.44" height="5.33333" transform="rotate(180 114.239 16)" fill="#A1A1A1"/>
<rect x="114.239" y="64" width="5.44" height="5.33333" transform="rotate(180 114.239 64)" fill="#A1A1A1"/>
<rect x="119.68" y="218.664" width="5.44" height="5.33333" transform="rotate(180 119.68 218.664)" fill="#A1A1A1"/>
<rect x="59.8398" y="160.004" width="5.33333" height="5.44" transform="rotate(90 59.8398 160.004)" fill="#A1A1A1"/>
<rect x="114.239" y="266.668" width="5.44" height="5.33333" transform="rotate(180 114.239 266.668)" fill="#A1A1A1"/>
<rect x="223.04" y="16" width="5.44" height="5.33333" transform="rotate(180 223.04 16)" fill="#A1A1A1"/>
<rect x="223.04" y="266.668" width="5.44" height="5.33333" transform="rotate(180 223.04 266.668)" fill="#A1A1A1"/>
<rect x="27.2002" y="16" width="5.44" height="5.33333" transform="rotate(180 27.2002 16)" fill="#A1A1A1"/>
<rect x="27.2002" y="266.668" width="5.44" height="5.33333" transform="rotate(180 27.2002 266.668)" fill="#A1A1A1"/>
<rect x="141.44" y="218.664" width="5.44" height="5.33333" transform="rotate(180 141.44 218.664)" fill="#A1A1A1"/>
<rect x="59.8398" y="138.668" width="5.33333" height="5.44" transform="rotate(90 59.8398 138.668)" fill="#A1A1A1"/>
<rect x="81.6006" y="16" width="5.44" height="5.33333" transform="rotate(180 81.6006 16)" fill="#A1A1A1"/>
<rect x="81.6006" y="64" width="5.44" height="5.33333" transform="rotate(180 81.6006 64)" fill="#A1A1A1"/>
<rect x="87.04" y="218.664" width="5.44" height="5.33333" transform="rotate(180 87.04 218.664)" fill="#A1A1A1"/>
<rect x="59.8398" y="192" width="5.33333" height="5.44" transform="rotate(90 59.8398 192)" fill="#A1A1A1"/>
<rect x="217.601" y="176" width="5.33333" height="5.44" transform="rotate(90 217.601 176)" fill="#A1A1A1"/>
<rect x="81.6006" y="266.668" width="5.44" height="5.33333" transform="rotate(180 81.6006 266.668)" fill="#A1A1A1"/>
<rect x="190.399" y="16" width="5.44" height="5.33333" transform="rotate(180 190.399 16)" fill="#A1A1A1"/>
<rect x="190.399" y="64" width="5.44" height="5.33333" transform="rotate(180 190.399 64)" fill="#A1A1A1"/>
<rect x="195.84" y="218.664" width="5.44" height="5.33333" transform="rotate(180 195.84 218.664)" fill="#A1A1A1"/>
<rect x="59.8398" y="85.332" width="5.33333" height="5.44" transform="rotate(90 59.8398 85.332)" fill="#A1A1A1"/>
<rect x="217.601" y="69.332" width="5.33333" height="5.44" transform="rotate(90 217.601 69.332)" fill="#A1A1A1"/>
<rect x="136" y="21.332" width="5.33333" height="5.44" transform="rotate(90 136 21.332)" fill="#A1A1A1"/>
<rect x="136" y="10.668" width="5.33333" height="5.44" transform="rotate(90 136 10.668)" fill="#A1A1A1"/>
<rect x="141.44" y="5.33203" width="5.33333" height="5.44" transform="rotate(90 141.44 5.33203)" fill="#A1A1A1"/>
<rect x="130.56" y="5.33203" width="5.33333" height="5.44" transform="rotate(90 130.56 5.33203)" fill="#A1A1A1"/>
<rect width="5.33333" height="5.44" transform="matrix(4.11325e-06 1 -1 1.60674e-08 136 0)" fill="#A1A1A1"/>
<rect x="97.9209" y="138.668" width="5.44" height="5.33333" transform="rotate(180 97.9209 138.668)" fill="#A1A1A1"/>
<rect x="108.8" y="138.668" width="5.44" height="5.33333" transform="rotate(180 108.8 138.668)" fill="#A1A1A1"/>
<rect x="190.399" y="266.668" width="5.44" height="5.33333" transform="rotate(180 190.399 266.668)" fill="#A1A1A1"/>
<rect x="233.921" y="16" width="5.44" height="5.33333" transform="rotate(180 233.921 16)" fill="#A1A1A1"/>
<rect x="233.921" y="266.668" width="5.44" height="5.33333" transform="rotate(180 233.921 266.668)" fill="#A1A1A1"/>
<rect x="54.3994" y="16" width="5.44" height="5.33333" transform="rotate(180 54.3994 16)" fill="#A1A1A1"/>
<rect x="217.601" y="202.668" width="5.33333" height="5.44" transform="rotate(90 217.601 202.668)" fill="#A1A1A1"/>
<rect x="54.3994" y="266.668" width="5.44" height="5.33333" transform="rotate(180 54.3994 266.668)" fill="#A1A1A1"/>
<rect x="163.2" y="16" width="5.44" height="5.33333" transform="rotate(180 163.2 16)" fill="#A1A1A1"/>
<rect x="163.2" y="64" width="5.44" height="5.33333" transform="rotate(180 163.2 64)" fill="#A1A1A1"/>
<rect x="168.641" y="218.664" width="5.44" height="5.33333" transform="rotate(180 168.641 218.664)" fill="#A1A1A1"/>
<rect x="59.8398" y="111.996" width="5.33333" height="5.44" transform="rotate(90 59.8398 111.996)" fill="#A1A1A1"/>
<rect x="217.601" y="96" width="5.33333" height="5.44" transform="rotate(90 217.601 96)" fill="#A1A1A1"/>
<rect x="136" y="101.332" width="5.33333" height="5.44" transform="rotate(90 136 101.332)" fill="#A1A1A1"/>
<rect x="136" y="111.996" width="5.33333" height="5.44" transform="rotate(90 136 111.996)" fill="#A1A1A1"/>
<rect x="136" y="53.3359" width="5.33333" height="5.44" transform="rotate(90 136 53.3359)" fill="#A1A1A1"/>
<rect x="136" y="208" width="5.33333" height="5.44" transform="rotate(90 136 208)" fill="#A1A1A1"/>
<rect x="136" y="256" width="5.33333" height="5.44" transform="rotate(90 136 256)" fill="#A1A1A1"/>
<rect x="136" y="266.668" width="5.33333" height="5.44" transform="rotate(90 136 266.668)" fill="#A1A1A1"/>
<rect x="174.079" y="138.668" width="5.44" height="5.33333" transform="rotate(180 174.079 138.668)" fill="#A1A1A1"/>
<rect x="163.2" y="138.668" width="5.44" height="5.33333" transform="rotate(180 163.2 138.668)" fill="#A1A1A1"/>
<rect x="223.04" y="138.668" width="5.44" height="5.33333" transform="rotate(180 223.04 138.668)" fill="#A1A1A1"/>
<rect x="65.2803" y="138.668" width="5.44" height="5.33333" transform="rotate(180 65.2803 138.668)" fill="#A1A1A1"/>
<rect x="16.3203" y="138.668" width="5.44" height="5.33333" transform="rotate(180 16.3203 138.668)" fill="#A1A1A1"/>
<rect x="5.44043" y="138.668" width="5.44" height="5.33333" transform="rotate(180 5.44043 138.668)" fill="#A1A1A1"/>
<rect x="163.2" y="266.668" width="5.44" height="5.33333" transform="rotate(180 163.2 266.668)" fill="#A1A1A1"/>
<rect x="108.8" y="16" width="5.44" height="5.33333" transform="rotate(180 108.8 16)" fill="#A1A1A1"/>
<rect x="108.8" y="64" width="5.44" height="5.33333" transform="rotate(180 108.8 64)" fill="#A1A1A1"/>
<rect x="103.359" y="149.332" width="5.33333" height="5.44" transform="rotate(90 103.359 149.332)" fill="#A1A1A1"/>
<rect x="168.641" y="149.332" width="5.33333" height="5.44" transform="rotate(90 168.641 149.332)" fill="#A1A1A1"/>
<rect x="114.239" y="218.664" width="5.44" height="5.33333" transform="rotate(180 114.239 218.664)" fill="#A1A1A1"/>
<rect x="59.8398" y="165.332" width="5.33333" height="5.44" transform="rotate(90 59.8398 165.332)" fill="#A1A1A1"/>
<rect x="217.601" y="149.332" width="5.33333" height="5.44" transform="rotate(90 217.601 149.332)" fill="#A1A1A1"/>
<rect x="108.8" y="266.668" width="5.44" height="5.33333" transform="rotate(180 108.8 266.668)" fill="#A1A1A1"/>
<rect x="217.601" y="16" width="5.44" height="5.33333" transform="rotate(180 217.601 16)" fill="#A1A1A1"/>
<rect x="217.601" y="266.668" width="5.44" height="5.33333" transform="rotate(180 217.601 266.668)" fill="#A1A1A1"/>
<rect x="261.12" y="101.332" width="5.33333" height="5.44" transform="rotate(-90 261.12 101.332)" fill="#A1A1A1"/>
<rect x="5.44043" y="101.332" width="5.33333" height="5.44" transform="rotate(-90 5.44043 101.332)" fill="#A1A1A1"/>
<rect x="261.12" y="48" width="5.33333" height="5.44" transform="rotate(-90 261.12 48)" fill="#A1A1A1"/>
<rect x="5.44043" y="48" width="5.33333" height="5.44" transform="rotate(-90 5.44043 48)" fill="#A1A1A1"/>
<rect x="261.12" y="154.664" width="5.33333" height="5.44" transform="rotate(-90 261.12 154.664)" fill="#A1A1A1"/>
<rect x="5.44043" y="154.664" width="5.33333" height="5.44" transform="rotate(-90 5.44043 154.664)" fill="#A1A1A1"/>
<rect x="261.12" y="74.668" width="5.33333" height="5.44" transform="rotate(-90 261.12 74.668)" fill="#A1A1A1"/>
<rect x="5.44043" y="74.668" width="5.33333" height="5.44" transform="rotate(-90 5.44043 74.668)" fill="#A1A1A1"/>
<rect x="261.12" y="181.336" width="5.33333" height="5.44" transform="rotate(-90 261.12 181.336)" fill="#A1A1A1"/>
<rect x="5.44043" y="181.336" width="5.33333" height="5.44" transform="rotate(-90 5.44043 181.336)" fill="#A1A1A1"/>
<rect x="261.12" y="224" width="5.33333" height="5.44" transform="rotate(-90 261.12 224)" fill="#A1A1A1"/>
<rect x="5.44043" y="224" width="5.33333" height="5.44" transform="rotate(-90 5.44043 224)" fill="#A1A1A1"/>
<rect x="261.12" y="106.668" width="5.33333" height="5.44" transform="rotate(-90 261.12 106.668)" fill="#A1A1A1"/>
<rect x="5.44043" y="106.668" width="5.33333" height="5.44" transform="rotate(-90 5.44043 106.668)" fill="#A1A1A1"/>
<rect x="261.12" y="53.3359" width="5.33333" height="5.44" transform="rotate(-90 261.12 53.3359)" fill="#A1A1A1"/>
<rect x="5.44043" y="53.3359" width="5.33333" height="5.44" transform="rotate(-90 5.44043 53.3359)" fill="#A1A1A1"/>
<rect x="261.12" y="160.004" width="5.33333" height="5.44" transform="rotate(-90 261.12 160.004)" fill="#A1A1A1"/>
<rect x="5.44043" y="160.004" width="5.33333" height="5.44" transform="rotate(-90 5.44043 160.004)" fill="#A1A1A1"/>
<rect x="261.12" y="26.6641" width="5.33333" height="5.44" transform="rotate(-90 261.12 26.6641)" fill="#A1A1A1"/>
<rect x="261.12" y="16" width="5.33333" height="5.44" transform="rotate(-90 261.12 16)" fill="#A1A1A1"/>
<rect x="261.12" y="272" width="5.33333" height="5.44" transform="rotate(-90 261.12 272)" fill="#A1A1A1"/>
<rect width="5.33333" height="5.44" transform="matrix(-1.43624e-08 -1 1 -3.53399e-06 0 272)" fill="#A1A1A1"/>
<rect x="261.12" y="10.668" width="5.33333" height="5.44" transform="rotate(-90 261.12 10.668)" fill="#A1A1A1"/>
<rect x="261.12" y="266.668" width="5.33333" height="5.44" transform="rotate(-90 261.12 266.668)" fill="#A1A1A1"/>
<rect width="5.33333" height="5.44" transform="matrix(-1.43624e-08 -1 1 -3.53399e-06 0 266.668)" fill="#A1A1A1"/>
<rect x="266.56" y="10.668" width="5.33333" height="5.44" transform="rotate(-90 266.56 10.668)" fill="#A1A1A1"/>
<rect x="266.56" y="266.668" width="5.33333" height="5.44" transform="rotate(-90 266.56 266.668)" fill="#A1A1A1"/>
<rect x="5.44043" y="266.668" width="5.33333" height="5.44" transform="rotate(-90 5.44043 266.668)" fill="#A1A1A1"/>
<rect x="266.56" y="16" width="5.33333" height="5.44" transform="rotate(-90 266.56 16)" fill="#A1A1A1"/>
<rect x="266.56" y="272" width="5.33333" height="5.44" transform="rotate(-90 266.56 272)" fill="#A1A1A1"/>
<rect x="5.44043" y="272" width="5.33333" height="5.44" transform="rotate(-90 5.44043 272)" fill="#A1A1A1"/>
<rect x="5.44043" y="26.6641" width="5.33333" height="5.44" transform="rotate(-90 5.44043 26.6641)" fill="#A1A1A1"/>
<rect x="5.44043" y="16" width="5.33333" height="5.44" transform="rotate(-90 5.44043 16)" fill="#A1A1A1"/>
<rect x="54.3994" y="64" width="5.33333" height="5.44" transform="rotate(-90 54.3994 64)" fill="#A1A1A1"/>
<rect x="217.601" y="64" width="5.33333" height="5.44" transform="rotate(-90 217.601 64)" fill="#A1A1A1"/>
<rect x="168.641" y="111.996" width="5.33333" height="5.44" transform="rotate(-90 168.641 111.996)" fill="#A1A1A1"/>
<rect x="97.9209" y="111.996" width="5.33333" height="5.44" transform="rotate(-90 97.9209 111.996)" fill="#A1A1A1"/>
<rect x="97.9209" y="176" width="5.33333" height="5.44" transform="rotate(-90 97.9209 176)" fill="#A1A1A1"/>
<rect x="168.641" y="176" width="5.33333" height="5.44" transform="rotate(-90 168.641 176)" fill="#A1A1A1"/>
<rect x="217.601" y="224" width="5.33333" height="5.44" transform="rotate(-90 217.601 224)" fill="#A1A1A1"/>
<rect x="54.3994" y="224" width="5.33333" height="5.44" transform="rotate(-90 54.3994 224)" fill="#A1A1A1"/>
<rect x="5.44043" y="10.668" width="5.33333" height="5.44" transform="rotate(-90 5.44043 10.668)" fill="#A1A1A1"/>
<rect x="54.3994" y="58.668" width="5.33333" height="5.44" transform="rotate(-90 54.3994 58.668)" fill="#A1A1A1"/>
<rect x="217.601" y="58.668" width="5.33333" height="5.44" transform="rotate(-90 217.601 58.668)" fill="#A1A1A1"/>
<rect x="168.641" y="106.668" width="5.33333" height="5.44" transform="rotate(-90 168.641 106.668)" fill="#A1A1A1"/>
<rect x="97.9209" y="106.668" width="5.33333" height="5.44" transform="rotate(-90 97.9209 106.668)" fill="#A1A1A1"/>
<rect x="97.9209" y="170.668" width="5.33333" height="5.44" transform="rotate(-90 97.9209 170.668)" fill="#A1A1A1"/>
<rect x="168.641" y="170.668" width="5.33333" height="5.44" transform="rotate(-90 168.641 170.668)" fill="#A1A1A1"/>
<rect x="217.601" y="218.664" width="5.33333" height="5.44" transform="rotate(-90 217.601 218.664)" fill="#A1A1A1"/>
<rect x="54.3994" y="218.664" width="5.33333" height="5.44" transform="rotate(-90 54.3994 218.664)" fill="#A1A1A1"/>
<rect width="5.33333" height="5.44" transform="matrix(-1.43624e-08 -1 1 -3.53399e-06 0 10.668)" fill="#A1A1A1"/>
<rect x="48.96" y="58.668" width="5.33333" height="5.44" transform="rotate(-90 48.96 58.668)" fill="#A1A1A1"/>
<rect x="212.16" y="58.668" width="5.33333" height="5.44" transform="rotate(-90 212.16 58.668)" fill="#A1A1A1"/>
<rect x="163.2" y="106.668" width="5.33333" height="5.44" transform="rotate(-90 163.2 106.668)" fill="#A1A1A1"/>
<rect x="92.4805" y="106.668" width="5.33333" height="5.44" transform="rotate(-90 92.4805 106.668)" fill="#A1A1A1"/>
<rect x="92.4805" y="170.668" width="5.33333" height="5.44" transform="rotate(-90 92.4805 170.668)" fill="#A1A1A1"/>
<rect x="163.2" y="170.668" width="5.33333" height="5.44" transform="rotate(-90 163.2 170.668)" fill="#A1A1A1"/>
<rect x="212.16" y="218.664" width="5.33333" height="5.44" transform="rotate(-90 212.16 218.664)" fill="#A1A1A1"/>
<rect x="48.96" y="218.664" width="5.33333" height="5.44" transform="rotate(-90 48.96 218.664)" fill="#A1A1A1"/>
<rect width="5.33333" height="5.44" transform="matrix(-1.43624e-08 -1 1 -3.53399e-06 0 16)" fill="#A1A1A1"/>
<rect x="48.96" y="64" width="5.33333" height="5.44" transform="rotate(-90 48.96 64)" fill="#A1A1A1"/>
<rect x="212.16" y="64" width="5.33333" height="5.44" transform="rotate(-90 212.16 64)" fill="#A1A1A1"/>
<rect x="163.2" y="111.996" width="5.33333" height="5.44" transform="rotate(-90 163.2 111.996)" fill="#A1A1A1"/>
<rect x="92.4805" y="111.996" width="5.33333" height="5.44" transform="rotate(-90 92.4805 111.996)" fill="#A1A1A1"/>
<rect x="92.4805" y="176" width="5.33333" height="5.44" transform="rotate(-90 92.4805 176)" fill="#A1A1A1"/>
<rect x="163.2" y="176" width="5.33333" height="5.44" transform="rotate(-90 163.2 176)" fill="#A1A1A1"/>
<rect x="212.16" y="224" width="5.33333" height="5.44" transform="rotate(-90 212.16 224)" fill="#A1A1A1"/>
<rect x="48.96" y="224" width="5.33333" height="5.44" transform="rotate(-90 48.96 224)" fill="#A1A1A1"/>
<rect x="261.12" y="133.332" width="5.33333" height="5.44" transform="rotate(-90 261.12 133.332)" fill="#A1A1A1"/>
<rect x="5.44043" y="133.332" width="5.33333" height="5.44" transform="rotate(-90 5.44043 133.332)" fill="#A1A1A1"/>
<rect x="261.12" y="80" width="5.33333" height="5.44" transform="rotate(-90 261.12 80)" fill="#A1A1A1"/>
<rect x="5.44043" y="80" width="5.33333" height="5.44" transform="rotate(-90 5.44043 80)" fill="#A1A1A1"/>
<rect x="261.12" y="186.668" width="5.33333" height="5.44" transform="rotate(-90 261.12 186.668)" fill="#A1A1A1"/>
<rect x="5.44043" y="186.668" width="5.33333" height="5.44" transform="rotate(-90 5.44043 186.668)" fill="#A1A1A1"/>
<rect x="261.12" y="229.336" width="5.33333" height="5.44" transform="rotate(-90 261.12 229.336)" fill="#A1A1A1"/>
<rect x="5.44043" y="229.336" width="5.33333" height="5.44" transform="rotate(-90 5.44043 229.336)" fill="#A1A1A1"/>
<rect x="261.12" y="111.996" width="5.33333" height="5.44" transform="rotate(-90 261.12 111.996)" fill="#A1A1A1"/>
<rect x="5.44043" y="111.996" width="5.33333" height="5.44" transform="rotate(-90 5.44043 111.996)" fill="#A1A1A1"/>
<rect x="261.12" y="58.668" width="5.33333" height="5.44" transform="rotate(-90 261.12 58.668)" fill="#A1A1A1"/>
<rect x="5.44043" y="58.668" width="5.33333" height="5.44" transform="rotate(-90 5.44043 58.668)" fill="#A1A1A1"/>
<rect x="261.12" y="165.332" width="5.33333" height="5.44" transform="rotate(-90 261.12 165.332)" fill="#A1A1A1"/>
<rect x="5.44043" y="165.332" width="5.33333" height="5.44" transform="rotate(-90 5.44043 165.332)" fill="#A1A1A1"/>
<rect x="261.12" y="208" width="5.33333" height="5.44" transform="rotate(-90 261.12 208)" fill="#A1A1A1"/>
<rect x="5.44043" y="208" width="5.33333" height="5.44" transform="rotate(-90 5.44043 208)" fill="#A1A1A1"/>
<rect x="261.12" y="32" width="5.33333" height="5.44" transform="rotate(-90 261.12 32)" fill="#A1A1A1"/>
<rect x="5.44043" y="32" width="5.33333" height="5.44" transform="rotate(-90 5.44043 32)" fill="#A1A1A1"/>
<rect x="261.12" y="85.332" width="5.33333" height="5.44" transform="rotate(-90 261.12 85.332)" fill="#A1A1A1"/>
<rect x="5.44043" y="85.332" width="5.33333" height="5.44" transform="rotate(-90 5.44043 85.332)" fill="#A1A1A1"/>
<rect x="261.12" y="192" width="5.33333" height="5.44" transform="rotate(-90 261.12 192)" fill="#A1A1A1"/>
<rect x="5.44043" y="192" width="5.33333" height="5.44" transform="rotate(-90 5.44043 192)" fill="#A1A1A1"/>
<rect x="261.12" y="234.664" width="5.33333" height="5.44" transform="rotate(-90 261.12 234.664)" fill="#A1A1A1"/>
<rect x="5.44043" y="234.664" width="5.33333" height="5.44" transform="rotate(-90 5.44043 234.664)" fill="#A1A1A1"/>
<rect x="261.12" y="250.668" width="5.33333" height="5.44" transform="rotate(-90 261.12 250.668)" fill="#A1A1A1"/>
<rect x="5.44043" y="250.668" width="5.33333" height="5.44" transform="rotate(-90 5.44043 250.668)" fill="#A1A1A1"/>
<rect x="261.12" y="122.668" width="5.33333" height="5.44" transform="rotate(-90 261.12 122.668)" fill="#A1A1A1"/>
<rect x="5.44043" y="122.668" width="5.33333" height="5.44" transform="rotate(-90 5.44043 122.668)" fill="#A1A1A1"/>
<rect x="261.12" y="69.332" width="5.33333" height="5.44" transform="rotate(-90 261.12 69.332)" fill="#A1A1A1"/>
<rect x="5.44043" y="69.332" width="5.33333" height="5.44" transform="rotate(-90 5.44043 69.332)" fill="#A1A1A1"/>
<rect x="261.12" y="176" width="5.33333" height="5.44" transform="rotate(-90 261.12 176)" fill="#A1A1A1"/>
<rect x="5.44043" y="176" width="5.33333" height="5.44" transform="rotate(-90 5.44043 176)" fill="#A1A1A1"/>
<rect x="261.12" y="218.664" width="5.33333" height="5.44" transform="rotate(-90 261.12 218.664)" fill="#A1A1A1"/>
<rect x="5.44043" y="218.664" width="5.33333" height="5.44" transform="rotate(-90 5.44043 218.664)" fill="#A1A1A1"/>
<rect x="261.12" y="42.6641" width="5.33333" height="5.44" transform="rotate(-90 261.12 42.6641)" fill="#A1A1A1"/>
<rect x="5.44043" y="42.6641" width="5.33333" height="5.44" transform="rotate(-90 5.44043 42.6641)" fill="#A1A1A1"/>
<rect x="261.12" y="96" width="5.33333" height="5.44" transform="rotate(-90 261.12 96)" fill="#A1A1A1"/>
<rect x="5.44043" y="96" width="5.33333" height="5.44" transform="rotate(-90 5.44043 96)" fill="#A1A1A1"/>
<rect x="261.12" y="202.668" width="5.33333" height="5.44" transform="rotate(-90 261.12 202.668)" fill="#A1A1A1"/>
<rect x="5.44043" y="202.668" width="5.33333" height="5.44" transform="rotate(-90 5.44043 202.668)" fill="#A1A1A1"/>
<rect x="261.12" y="245.336" width="5.33333" height="5.44" transform="rotate(-90 261.12 245.336)" fill="#A1A1A1"/>
<rect x="5.44043" y="245.336" width="5.33333" height="5.44" transform="rotate(-90 5.44043 245.336)" fill="#A1A1A1"/>
<rect x="261.12" y="117.336" width="5.33333" height="5.44" transform="rotate(-90 261.12 117.336)" fill="#A1A1A1"/>
<rect x="5.44043" y="117.336" width="5.33333" height="5.44" transform="rotate(-90 5.44043 117.336)" fill="#A1A1A1"/>
<rect x="261.12" y="64" width="5.33333" height="5.44" transform="rotate(-90 261.12 64)" fill="#A1A1A1"/>
<rect x="5.44043" y="64" width="5.33333" height="5.44" transform="rotate(-90 5.44043 64)" fill="#A1A1A1"/>
<rect x="261.12" y="170.668" width="5.33333" height="5.44" transform="rotate(-90 261.12 170.668)" fill="#A1A1A1"/>
<rect x="5.44043" y="170.668" width="5.33333" height="5.44" transform="rotate(-90 5.44043 170.668)" fill="#A1A1A1"/>
<rect x="261.12" y="213.332" width="5.33333" height="5.44" transform="rotate(-90 261.12 213.332)" fill="#A1A1A1"/>
<rect x="5.44043" y="213.332" width="5.33333" height="5.44" transform="rotate(-90 5.44043 213.332)" fill="#A1A1A1"/>
<rect x="261.12" y="37.3359" width="5.33333" height="5.44" transform="rotate(-90 261.12 37.3359)" fill="#A1A1A1"/>
<rect x="5.44043" y="37.3359" width="5.33333" height="5.44" transform="rotate(-90 5.44043 37.3359)" fill="#A1A1A1"/>
<rect x="261.12" y="144" width="5.33333" height="5.44" transform="rotate(-90 261.12 144)" fill="#A1A1A1"/>
<rect x="5.44043" y="144" width="5.33333" height="5.44" transform="rotate(-90 5.44043 144)" fill="#A1A1A1"/>
<rect x="261.12" y="90.6641" width="5.33333" height="5.44" transform="rotate(-90 261.12 90.6641)" fill="#A1A1A1"/>
<rect x="5.44043" y="90.6641" width="5.33333" height="5.44" transform="rotate(-90 5.44043 90.6641)" fill="#A1A1A1"/>
<rect x="261.12" y="197.332" width="5.33333" height="5.44" transform="rotate(-90 261.12 197.332)" fill="#A1A1A1"/>
<rect x="5.44043" y="197.332" width="5.33333" height="5.44" transform="rotate(-90 5.44043 197.332)" fill="#A1A1A1"/>
<rect x="261.12" y="240" width="5.33333" height="5.44" transform="rotate(-90 261.12 240)" fill="#A1A1A1"/>
<rect x="5.44043" y="240" width="5.33333" height="5.44" transform="rotate(-90 5.44043 240)" fill="#A1A1A1"/>
<rect x="261.12" y="256" width="5.33333" height="5.44" transform="rotate(-90 261.12 256)" fill="#A1A1A1"/>
<rect x="5.44043" y="256" width="5.33333" height="5.44" transform="rotate(-90 5.44043 256)" fill="#A1A1A1"/>
</svg>
