<svg width="276" height="276" viewBox="0 0 276 276" fill="none" xmlns="http://www.w3.org/2000/svg">
<rect width="4.92874" height="4.92877" transform="matrix(4.54958e-08 -1 -1 -4.1997e-08 98.5713 44.3594)" fill="#A1A1A1"/>
<rect width="4.92874" height="4.92877" transform="matrix(4.54958e-08 -1 -1 -4.1997e-08 4.92871 34.5039)" fill="#A1A1A1"/>
<rect width="4.92874" height="4.92877" transform="matrix(4.54958e-08 -1 -1 -4.1997e-08 276.001 34.5039)" fill="#A1A1A1"/>
<rect width="4.92874" height="4.92877" transform="matrix(4.54958e-08 -1 -1 -4.1997e-08 4.92871 113.359)" fill="#A1A1A1"/>
<rect width="4.92874" height="4.92877" transform="matrix(4.54958e-08 -1 -1 -4.1997e-08 276.001 113.359)" fill="#A1A1A1"/>
<rect width="4.92877" height="4.92874" transform="matrix(-1 -1.18098e-10 2.58964e-08 1 69 0)" fill="#A1A1A1"/>
<rect width="4.92877" height="4.92874" transform="matrix(-1 -1.78413e-09 1.71418e-09 1 64.0713 271.07)" fill="#A1A1A1"/>
<rect width="4.92874" height="4.92877" transform="matrix(4.54958e-08 -1 -1 -4.1997e-08 4.92871 192.215)" fill="#A1A1A1"/>
<rect width="4.92874" height="4.92877" transform="matrix(4.54958e-08 -1 -1 -4.1997e-08 276.001 192.215)" fill="#A1A1A1"/>
<rect width="4.92877" height="4.92874" transform="matrix(-1 -1.18098e-10 2.58964e-08 1 147.857 0)" fill="#A1A1A1"/>
<rect width="4.92877" height="4.92874" transform="matrix(-1 -1.78413e-09 1.71418e-09 1 142.929 271.07)" fill="#A1A1A1"/>
<rect width="4.92874" height="4.92877" transform="matrix(4.54958e-08 -1 -1 -4.1997e-08 34.501 59.1406)" fill="#A1A1A1"/>
<rect width="4.92874" height="4.92877" transform="matrix(4.54958e-08 -1 -1 -4.1997e-08 118.286 59.1406)" fill="#A1A1A1"/>
<rect width="4.92874" height="4.92877" transform="matrix(4.54958e-08 -1 -1 -4.1997e-08 202.071 59.1406)" fill="#A1A1A1"/>
<rect width="4.92874" height="4.92877" transform="matrix(4.54958e-08 -1 -1 -4.1997e-08 202.071 142.93)" fill="#A1A1A1"/>
<rect width="4.92874" height="4.92877" transform="matrix(4.54958e-08 -1 -1 -4.1997e-08 118.286 142.93)" fill="#A1A1A1"/>
<rect width="4.92874" height="4.92877" transform="matrix(4.54958e-08 -1 -1 -4.1997e-08 34.501 142.93)" fill="#A1A1A1"/>
<rect width="4.92874" height="4.92877" transform="matrix(4.54958e-08 -1 -1 -4.1997e-08 34.501 231.641)" fill="#A1A1A1"/>
<rect width="4.92874" height="4.92877" transform="matrix(4.54958e-08 -1 -1 -4.1997e-08 118.286 231.641)" fill="#A1A1A1"/>
<rect width="4.92874" height="4.92877" transform="matrix(4.54958e-08 -1 -1 -4.1997e-08 202.071 231.641)" fill="#A1A1A1"/>
<rect width="4.92874" height="4.92877" transform="matrix(4.54958e-08 -1 -1 -4.1997e-08 78.8574 59.1406)" fill="#A1A1A1"/>
<rect width="4.92874" height="4.92877" transform="matrix(4.54958e-08 -1 -1 -4.1997e-08 162.643 59.1406)" fill="#A1A1A1"/>
<rect width="4.92874" height="4.92877" transform="matrix(4.54958e-08 -1 -1 -4.1997e-08 246.429 59.1406)" fill="#A1A1A1"/>
<rect width="4.92874" height="4.92877" transform="matrix(4.54958e-08 -1 -1 -4.1997e-08 246.429 142.93)" fill="#A1A1A1"/>
<rect width="4.92874" height="4.92877" transform="matrix(4.54958e-08 -1 -1 -4.1997e-08 162.643 142.93)" fill="#A1A1A1"/>
<rect width="4.92874" height="4.92877" transform="matrix(4.54958e-08 -1 -1 -4.1997e-08 78.8574 142.93)" fill="#A1A1A1"/>
<rect width="4.92874" height="4.92877" transform="matrix(4.54958e-08 -1 -1 -4.1997e-08 78.8574 231.641)" fill="#A1A1A1"/>
<rect width="4.92874" height="4.92877" transform="matrix(4.54958e-08 -1 -1 -4.1997e-08 162.643 231.641)" fill="#A1A1A1"/>
<rect width="4.92874" height="4.92877" transform="matrix(4.54958e-08 -1 -1 -4.1997e-08 246.429 231.641)" fill="#A1A1A1"/>
<rect width="4.92877" height="4.92874" transform="matrix(-1 -1.78413e-09 1.71418e-09 1 64.0713 69)" fill="#A1A1A1"/>
<rect width="4.92877" height="4.92874" transform="matrix(-1 -1.78413e-09 1.71418e-09 1 147.857 69)" fill="#A1A1A1"/>
<rect width="4.92877" height="4.92874" transform="matrix(-1 -1.78413e-09 1.71418e-09 1 231.643 69)" fill="#A1A1A1"/>
<rect width="4.92877" height="4.92874" transform="matrix(-1 -1.78413e-09 1.71418e-09 1 231.643 152.785)" fill="#A1A1A1"/>
<rect width="4.92877" height="4.92874" transform="matrix(-1 -1.78413e-09 1.71418e-09 1 147.857 152.785)" fill="#A1A1A1"/>
<rect width="4.92877" height="4.92874" transform="matrix(-1 -1.78413e-09 1.71418e-09 1 64.0713 152.785)" fill="#A1A1A1"/>
<rect width="4.92877" height="4.92874" transform="matrix(-1 -1.78413e-09 1.71418e-09 1 64.0713 241.5)" fill="#A1A1A1"/>
<rect width="4.92877" height="4.92874" transform="matrix(-1 -1.78413e-09 1.71418e-09 1 147.857 241.5)" fill="#A1A1A1"/>
<rect width="4.92877" height="4.92874" transform="matrix(-1 -1.78413e-09 1.71418e-09 1 231.643 241.5)" fill="#A1A1A1"/>
<rect width="4.92877" height="4.92874" transform="matrix(-1 -1.78413e-09 1.71418e-09 1 64.0713 29.5703)" fill="#A1A1A1"/>
<rect width="4.92877" height="4.92874" transform="matrix(-1 -1.78413e-09 1.71418e-09 1 147.857 29.5703)" fill="#A1A1A1"/>
<rect width="4.92877" height="4.92874" transform="matrix(-1 -1.78413e-09 1.71418e-09 1 231.643 29.5703)" fill="#A1A1A1"/>
<rect width="4.92877" height="4.92874" transform="matrix(-1 -1.78413e-09 1.71418e-09 1 231.643 113.359)" fill="#A1A1A1"/>
<rect width="4.92877" height="4.92874" transform="matrix(-1 -1.78413e-09 1.71418e-09 1 147.857 113.359)" fill="#A1A1A1"/>
<rect width="4.92877" height="4.92874" transform="matrix(-1 -1.78413e-09 1.71418e-09 1 64.0713 113.359)" fill="#A1A1A1"/>
<rect width="4.92877" height="4.92874" transform="matrix(-1 -1.78413e-09 1.71418e-09 1 64.0713 202.07)" fill="#A1A1A1"/>
<rect width="4.92877" height="4.92874" transform="matrix(-1 -1.78413e-09 1.71418e-09 1 147.857 202.07)" fill="#A1A1A1"/>
<rect width="4.92877" height="4.92874" transform="matrix(-1 -1.78413e-09 1.71418e-09 1 231.643 202.07)" fill="#A1A1A1"/>
<rect width="4.92874" height="4.92877" transform="matrix(4.54958e-08 -1 -1 -4.1997e-08 98.5713 19.7148)" fill="#A1A1A1"/>
<rect width="4.92874" height="4.92877" transform="matrix(4.54958e-08 -1 -1 -4.1997e-08 4.92871 9.85938)" fill="#A1A1A1"/>
<rect width="4.92874" height="4.92877" transform="matrix(4.54958e-08 -1 -1 -4.1997e-08 276.001 9.85938)" fill="#A1A1A1"/>
<rect width="4.92874" height="4.92877" transform="matrix(4.54958e-08 -1 -1 -4.1997e-08 276.001 4.92969)" fill="#A1A1A1"/>
<rect width="4.92874" height="4.92877" transform="matrix(4.54958e-08 -1 -1 -4.1997e-08 271.071 4.92969)" fill="#A1A1A1"/>
<rect width="4.92874" height="4.92877" transform="matrix(4.54958e-08 -1 -1 -4.1997e-08 266.144 276)" fill="#A1A1A1"/>
<rect width="4.92874" height="4.92877" transform="matrix(4.54958e-08 -1 -1 -4.1997e-08 276.001 276)" fill="#A1A1A1"/>
<rect width="4.92874" height="4.92877" transform="matrix(4.54958e-08 -1 -1 -4.1997e-08 4.92871 88.7188)" fill="#A1A1A1"/>
<rect width="4.92874" height="4.92877" transform="matrix(4.54958e-08 -1 -1 -4.1997e-08 276.001 88.7188)" fill="#A1A1A1"/>
<rect width="4.92877" height="4.92874" transform="matrix(-1 -1.18098e-10 2.58964e-08 1 44.3584 0)" fill="#A1A1A1"/>
<rect width="4.92877" height="4.92874" transform="matrix(-1 -1.78413e-09 1.71418e-09 1 39.4287 271.07)" fill="#A1A1A1"/>
<rect width="4.92874" height="4.92877" transform="matrix(4.54958e-08 -1 -1 -4.1997e-08 4.92871 167.574)" fill="#A1A1A1"/>
<rect width="4.92874" height="4.92877" transform="matrix(4.54958e-08 -1 -1 -4.1997e-08 276.001 167.574)" fill="#A1A1A1"/>
<rect width="4.92877" height="4.92874" transform="matrix(-1 -1.18098e-10 2.58964e-08 1 123.216 0)" fill="#A1A1A1"/>
<rect width="4.92877" height="4.92874" transform="matrix(-1 -1.78413e-09 1.71418e-09 1 118.286 271.07)" fill="#A1A1A1"/>
<rect width="4.92874" height="4.92877" transform="matrix(4.54958e-08 -1 -1 -4.1997e-08 34.501 34.5039)" fill="#A1A1A1"/>
<rect width="4.92874" height="4.92877" transform="matrix(4.54958e-08 -1 -1 -4.1997e-08 118.286 34.5039)" fill="#A1A1A1"/>
<rect width="4.92874" height="4.92877" transform="matrix(4.54958e-08 -1 -1 -4.1997e-08 202.071 34.5039)" fill="#A1A1A1"/>
<rect width="4.92874" height="4.92877" transform="matrix(4.54958e-08 -1 -1 -4.1997e-08 202.071 118.289)" fill="#A1A1A1"/>
<rect width="4.92874" height="4.92877" transform="matrix(4.54958e-08 -1 -1 -4.1997e-08 118.286 118.289)" fill="#A1A1A1"/>
<rect width="4.92874" height="4.92877" transform="matrix(4.54958e-08 -1 -1 -4.1997e-08 34.501 118.289)" fill="#A1A1A1"/>
<rect width="4.92874" height="4.92877" transform="matrix(4.54958e-08 -1 -1 -4.1997e-08 34.501 207)" fill="#A1A1A1"/>
<rect width="4.92874" height="4.92877" transform="matrix(4.54958e-08 -1 -1 -4.1997e-08 118.286 207)" fill="#A1A1A1"/>
<rect width="4.92874" height="4.92877" transform="matrix(4.54958e-08 -1 -1 -4.1997e-08 202.071 207)" fill="#A1A1A1"/>
<rect width="4.92877" height="4.92874" transform="matrix(-1 -1.78413e-09 1.71418e-09 1 39.4287 69)" fill="#A1A1A1"/>
<rect width="4.92877" height="4.92874" transform="matrix(-1 -1.78413e-09 1.71418e-09 1 123.216 69)" fill="#A1A1A1"/>
<rect width="4.92877" height="4.92874" transform="matrix(-1 -1.78413e-09 1.71418e-09 1 207 69)" fill="#A1A1A1"/>
<rect width="4.92877" height="4.92874" transform="matrix(-1 -1.78413e-09 1.71418e-09 1 207 152.785)" fill="#A1A1A1"/>
<rect width="4.92877" height="4.92874" transform="matrix(-1 -1.78413e-09 1.71418e-09 1 123.216 152.785)" fill="#A1A1A1"/>
<rect width="4.92877" height="4.92874" transform="matrix(-1 -1.78413e-09 1.71418e-09 1 39.4287 152.785)" fill="#A1A1A1"/>
<rect width="4.92877" height="4.92874" transform="matrix(-1 -1.78413e-09 1.71418e-09 1 39.4287 241.5)" fill="#A1A1A1"/>
<rect width="4.92877" height="4.92874" transform="matrix(-1 -1.78413e-09 1.71418e-09 1 123.216 241.5)" fill="#A1A1A1"/>
<rect width="4.92877" height="4.92874" transform="matrix(-1 -1.78413e-09 1.71418e-09 1 207 241.5)" fill="#A1A1A1"/>
<rect width="4.92874" height="4.92877" transform="matrix(4.54958e-08 -1 -1 -4.1997e-08 78.8574 34.5039)" fill="#A1A1A1"/>
<rect width="4.92874" height="4.92877" transform="matrix(4.54958e-08 -1 -1 -4.1997e-08 162.643 34.5039)" fill="#A1A1A1"/>
<rect width="4.92874" height="4.92877" transform="matrix(4.54958e-08 -1 -1 -4.1997e-08 246.429 34.5039)" fill="#A1A1A1"/>
<rect width="4.92874" height="4.92877" transform="matrix(4.54958e-08 -1 -1 -4.1997e-08 246.429 118.289)" fill="#A1A1A1"/>
<rect width="4.92874" height="4.92877" transform="matrix(4.54958e-08 -1 -1 -4.1997e-08 162.643 118.289)" fill="#A1A1A1"/>
<rect width="4.92874" height="4.92877" transform="matrix(4.54958e-08 -1 -1 -4.1997e-08 78.8574 118.289)" fill="#A1A1A1"/>
<rect width="4.92874" height="4.92877" transform="matrix(4.54958e-08 -1 -1 -4.1997e-08 78.8574 207)" fill="#A1A1A1"/>
<rect width="4.92874" height="4.92877" transform="matrix(4.54958e-08 -1 -1 -4.1997e-08 162.643 207)" fill="#A1A1A1"/>
<rect width="4.92874" height="4.92877" transform="matrix(4.54958e-08 -1 -1 -4.1997e-08 246.429 207)" fill="#A1A1A1"/>
<rect width="4.92877" height="4.92874" transform="matrix(-1 -1.78413e-09 1.71418e-09 1 39.4287 29.5703)" fill="#A1A1A1"/>
<rect width="4.92877" height="4.92874" transform="matrix(-1 -1.78413e-09 1.71418e-09 1 123.216 29.5703)" fill="#A1A1A1"/>
<rect width="4.92877" height="4.92874" transform="matrix(-1 -1.78413e-09 1.71418e-09 1 207 29.5703)" fill="#A1A1A1"/>
<rect width="4.92877" height="4.92874" transform="matrix(-1 -1.78413e-09 1.71418e-09 1 207 113.359)" fill="#A1A1A1"/>
<rect width="4.92877" height="4.92874" transform="matrix(-1 -1.78413e-09 1.71418e-09 1 123.216 113.359)" fill="#A1A1A1"/>
<rect width="4.92877" height="4.92874" transform="matrix(-1 -1.78413e-09 1.71418e-09 1 39.4287 113.359)" fill="#A1A1A1"/>
<rect width="4.92877" height="4.92874" transform="matrix(-1 -1.78413e-09 1.71418e-09 1 39.4287 202.07)" fill="#A1A1A1"/>
<rect width="4.92877" height="4.92874" transform="matrix(-1 -1.78413e-09 1.71418e-09 1 123.216 202.07)" fill="#A1A1A1"/>
<rect width="4.92877" height="4.92874" transform="matrix(-1 -1.78413e-09 1.71418e-09 1 207 202.07)" fill="#A1A1A1"/>
<rect width="4.92874" height="4.92877" transform="matrix(4.54958e-08 -1 -1 -4.1997e-08 182.357 19.7148)" fill="#A1A1A1"/>
<rect width="4.92874" height="4.92877" transform="matrix(4.54958e-08 -1 -1 -4.1997e-08 182.357 241.5)" fill="#A1A1A1"/>
<rect width="4.92874" height="4.92877" transform="matrix(4.54958e-08 -1 -1 -4.1997e-08 98.5713 241.5)" fill="#A1A1A1"/>
<rect width="4.92877" height="4.92874" transform="matrix(-1 -1.78413e-09 1.71418e-09 1 44.3584 177.426)" fill="#A1A1A1"/>
<rect width="4.92877" height="4.92874" transform="matrix(-1 -1.78413e-09 1.71418e-09 1 29.5723 177.426)" fill="#A1A1A1"/>
<rect width="4.92877" height="4.92874" transform="matrix(-1 -1.78413e-09 1.71418e-09 1 29.5723 93.6406)" fill="#A1A1A1"/>
<rect width="4.92877" height="4.92874" transform="matrix(-1 -1.78413e-09 1.71418e-09 1 251.357 93.6406)" fill="#A1A1A1"/>
<rect width="4.92877" height="4.92874" transform="matrix(-1 -1.78413e-09 1.71418e-09 1 251.357 177.426)" fill="#A1A1A1"/>
<rect width="4.92874" height="4.92877" transform="matrix(4.54958e-08 -1 -1 -4.1997e-08 182.357 44.3594)" fill="#A1A1A1"/>
<rect width="4.92877" height="4.92874" transform="matrix(-1 -1.78413e-09 1.71418e-09 1 44.3584 93.6406)" fill="#A1A1A1"/>
<rect width="4.92874" height="4.92877" transform="matrix(4.54958e-08 -1 -1 -4.1997e-08 98.5713 93.6406)" fill="#A1A1A1"/>
<rect width="4.92874" height="4.92877" transform="matrix(4.54958e-08 -1 -1 -4.1997e-08 4.92871 83.7852)" fill="#A1A1A1"/>
<rect width="4.92874" height="4.92877" transform="matrix(4.54958e-08 -1 -1 -4.1997e-08 276.001 83.7852)" fill="#A1A1A1"/>
<rect width="4.92877" height="4.92874" transform="matrix(-1 -1.18098e-10 2.58964e-08 1 39.4287 0)" fill="#A1A1A1"/>
<rect width="4.92877" height="4.92874" transform="matrix(-1 -1.78413e-09 1.71418e-09 1 34.501 271.07)" fill="#A1A1A1"/>
<rect width="4.92874" height="4.92877" transform="matrix(4.54958e-08 -1 -1 -4.1997e-08 4.92871 162.641)" fill="#A1A1A1"/>
<rect width="4.92874" height="4.92877" transform="matrix(4.54958e-08 -1 -1 -4.1997e-08 276.001 162.641)" fill="#A1A1A1"/>
<rect width="4.92877" height="4.92874" transform="matrix(-1 -1.18098e-10 2.58964e-08 1 118.286 0)" fill="#A1A1A1"/>
<rect width="4.92877" height="4.92874" transform="matrix(-1 -1.78413e-09 1.71418e-09 1 113.358 271.07)" fill="#A1A1A1"/>
<rect width="4.92874" height="4.92877" transform="matrix(4.54958e-08 -1 -1 -4.1997e-08 4.92871 241.5)" fill="#A1A1A1"/>
<rect width="4.92874" height="4.92877" transform="matrix(4.54958e-08 -1 -1 -4.1997e-08 276.001 241.5)" fill="#A1A1A1"/>
<rect width="4.92877" height="4.92874" transform="matrix(-1 -1.18098e-10 2.58964e-08 1 197.144 0)" fill="#A1A1A1"/>
<rect width="4.92877" height="4.92874" transform="matrix(-1 -1.78413e-09 1.71418e-09 1 192.215 271.07)" fill="#A1A1A1"/>
<rect width="4.92877" height="4.92874" transform="matrix(-1 -1.18098e-10 2.58964e-08 1 236.571 0)" fill="#A1A1A1"/>
<rect width="4.92877" height="4.92874" transform="matrix(-1 -1.78413e-09 1.71418e-09 1 231.643 271.07)" fill="#A1A1A1"/>
<rect width="4.92874" height="4.92877" transform="matrix(4.54958e-08 -1 -1 -4.1997e-08 4.92871 266.141)" fill="#A1A1A1"/>
<rect width="4.92874" height="4.92877" transform="matrix(4.54958e-08 -1 -1 -4.1997e-08 276.001 266.141)" fill="#A1A1A1"/>
<rect width="4.92877" height="4.92874" transform="matrix(-1 -1.18098e-10 2.58964e-08 1 221.785 0)" fill="#A1A1A1"/>
<rect width="4.92877" height="4.92874" transform="matrix(-1 -1.78413e-09 1.71418e-09 1 216.857 271.07)" fill="#A1A1A1"/>
<rect width="4.92877" height="4.92874" transform="matrix(-1 -1.18098e-10 2.58964e-08 1 261.215 0)" fill="#A1A1A1"/>
<rect width="4.92877" height="4.92874" transform="matrix(-1 -1.78413e-09 1.71418e-09 1 256.286 271.07)" fill="#A1A1A1"/>
<rect width="4.92874" height="4.92877" transform="matrix(4.54958e-08 -1 -1 -4.1997e-08 4.92871 271.07)" fill="#A1A1A1"/>
<rect width="4.92874" height="4.92877" transform="matrix(4.54958e-08 -1 -1 -4.1997e-08 276.001 271.07)" fill="#A1A1A1"/>
<rect width="4.92877" height="4.92874" transform="matrix(-1 -1.18098e-10 2.58964e-08 1 226.715 0)" fill="#A1A1A1"/>
<rect width="4.92877" height="4.92874" transform="matrix(-1 -1.78413e-09 1.71418e-09 1 221.785 271.07)" fill="#A1A1A1"/>
<rect width="4.92877" height="4.92874" transform="matrix(-1 -1.18098e-10 2.58964e-08 1 266.144 0)" fill="#A1A1A1"/>
<rect width="4.92877" height="4.92874" transform="matrix(-1 -1.78413e-09 1.71418e-09 1 261.215 271.07)" fill="#A1A1A1"/>
<rect width="4.92877" height="4.92874" transform="matrix(-1 -1.78413e-09 1.71418e-09 1 271.071 271.07)" fill="#A1A1A1"/>
<rect width="4.92877" height="4.92874" transform="matrix(-1 -1.78413e-09 1.71418e-09 1 93.6436 177.426)" fill="#A1A1A1"/>
<rect width="4.92874" height="4.92877" transform="matrix(4.54958e-08 -1 -1 -4.1997e-08 182.357 93.6406)" fill="#A1A1A1"/>
<rect width="4.92877" height="4.92874" transform="matrix(-1 -1.78413e-09 1.71418e-09 1 93.6436 93.6406)" fill="#A1A1A1"/>
<rect width="4.92874" height="4.92877" transform="matrix(4.54958e-08 -1 -1 -4.1997e-08 98.5713 142.93)" fill="#A1A1A1"/>
<rect width="4.92877" height="4.92874" transform="matrix(-1 -1.78413e-09 1.71418e-09 1 142.929 177.426)" fill="#A1A1A1"/>
<rect width="4.92874" height="4.92877" transform="matrix(4.54958e-08 -1 -1 -4.1997e-08 182.357 142.93)" fill="#A1A1A1"/>
<rect width="4.92877" height="4.92874" transform="matrix(-1 -1.78413e-09 1.71418e-09 1 142.929 93.6406)" fill="#A1A1A1"/>
<rect width="4.92874" height="4.92877" transform="matrix(4.54958e-08 -1 -1 -4.1997e-08 98.5713 192.215)" fill="#A1A1A1"/>
<rect width="4.92877" height="4.92874" transform="matrix(-1 -1.78413e-09 1.71418e-09 1 192.215 177.426)" fill="#A1A1A1"/>
<rect width="4.92874" height="4.92877" transform="matrix(4.54958e-08 -1 -1 -4.1997e-08 182.357 192.215)" fill="#A1A1A1"/>
<rect width="4.92877" height="4.92874" transform="matrix(-1 -1.78413e-09 1.71418e-09 1 192.215 93.6406)" fill="#A1A1A1"/>
<rect width="4.92874" height="4.92877" transform="matrix(4.54958e-08 -1 -1 -4.1997e-08 98.5713 49.2891)" fill="#A1A1A1"/>
<rect width="4.92874" height="4.92877" transform="matrix(4.54958e-08 -1 -1 -4.1997e-08 4.92871 39.4297)" fill="#A1A1A1"/>
<rect width="4.92874" height="4.92877" transform="matrix(4.54958e-08 -1 -1 -4.1997e-08 276.001 39.4297)" fill="#A1A1A1"/>
<rect width="4.92874" height="4.92877" transform="matrix(4.54958e-08 -1 -1 -4.1997e-08 4.92871 118.289)" fill="#A1A1A1"/>
<rect width="4.92874" height="4.92877" transform="matrix(4.54958e-08 -1 -1 -4.1997e-08 276.001 118.289)" fill="#A1A1A1"/>
<rect width="4.92877" height="4.92874" transform="matrix(-1 -1.18098e-10 2.58964e-08 1 73.9287 0)" fill="#A1A1A1"/>
<rect width="4.92877" height="4.92874" transform="matrix(-1 -1.78413e-09 1.71418e-09 1 69 271.07)" fill="#A1A1A1"/>
<rect width="4.92874" height="4.92877" transform="matrix(4.54958e-08 -1 -1 -4.1997e-08 4.92871 197.141)" fill="#A1A1A1"/>
<rect width="4.92874" height="4.92877" transform="matrix(4.54958e-08 -1 -1 -4.1997e-08 276.001 197.141)" fill="#A1A1A1"/>
<rect width="4.92877" height="4.92874" transform="matrix(-1 -1.18098e-10 2.58964e-08 1 152.786 0)" fill="#A1A1A1"/>
<rect width="4.92877" height="4.92874" transform="matrix(-1 -1.78413e-09 1.71418e-09 1 147.857 271.07)" fill="#A1A1A1"/>
<rect width="4.92877" height="4.92874" transform="matrix(-1 -1.78413e-09 1.71418e-09 1 69 69)" fill="#A1A1A1"/>
<rect width="4.92877" height="4.92874" transform="matrix(-1 -1.78413e-09 1.71418e-09 1 152.786 69)" fill="#A1A1A1"/>
<rect width="4.92877" height="4.92874" transform="matrix(-1 -1.78413e-09 1.71418e-09 1 236.571 69)" fill="#A1A1A1"/>
<rect width="4.92877" height="4.92874" transform="matrix(-1 -1.78413e-09 1.71418e-09 1 236.571 152.785)" fill="#A1A1A1"/>
<rect width="4.92877" height="4.92874" transform="matrix(-1 -1.78413e-09 1.71418e-09 1 152.786 152.785)" fill="#A1A1A1"/>
<rect width="4.92877" height="4.92874" transform="matrix(-1 -1.78413e-09 1.71418e-09 1 69 152.785)" fill="#A1A1A1"/>
<rect width="4.92877" height="4.92874" transform="matrix(-1 -1.78413e-09 1.71418e-09 1 69 241.5)" fill="#A1A1A1"/>
<rect width="4.92877" height="4.92874" transform="matrix(-1 -1.78413e-09 1.71418e-09 1 152.786 241.5)" fill="#A1A1A1"/>
<rect width="4.92877" height="4.92874" transform="matrix(-1 -1.78413e-09 1.71418e-09 1 236.571 241.5)" fill="#A1A1A1"/>
<rect width="4.92874" height="4.92877" transform="matrix(4.54958e-08 -1 -1 -4.1997e-08 34.501 64.0703)" fill="#A1A1A1"/>
<rect width="4.92874" height="4.92877" transform="matrix(4.54958e-08 -1 -1 -4.1997e-08 118.286 64.0703)" fill="#A1A1A1"/>
<rect width="4.92874" height="4.92877" transform="matrix(4.54958e-08 -1 -1 -4.1997e-08 202.071 64.0703)" fill="#A1A1A1"/>
<rect width="4.92874" height="4.92877" transform="matrix(4.54958e-08 -1 -1 -4.1997e-08 202.071 147.859)" fill="#A1A1A1"/>
<rect width="4.92874" height="4.92877" transform="matrix(4.54958e-08 -1 -1 -4.1997e-08 118.286 147.859)" fill="#A1A1A1"/>
<rect width="4.92874" height="4.92877" transform="matrix(4.54958e-08 -1 -1 -4.1997e-08 34.501 147.859)" fill="#A1A1A1"/>
<rect width="4.92874" height="4.92877" transform="matrix(4.54958e-08 -1 -1 -4.1997e-08 34.501 236.57)" fill="#A1A1A1"/>
<rect width="4.92874" height="4.92877" transform="matrix(4.54958e-08 -1 -1 -4.1997e-08 118.286 236.57)" fill="#A1A1A1"/>
<rect width="4.92874" height="4.92877" transform="matrix(4.54958e-08 -1 -1 -4.1997e-08 202.071 236.57)" fill="#A1A1A1"/>
<rect width="4.92874" height="4.92877" transform="matrix(4.54958e-08 -1 -1 -4.1997e-08 78.8574 64.0703)" fill="#A1A1A1"/>
<rect width="4.92874" height="4.92877" transform="matrix(4.54958e-08 -1 -1 -4.1997e-08 162.643 64.0703)" fill="#A1A1A1"/>
<rect width="4.92874" height="4.92877" transform="matrix(4.54958e-08 -1 -1 -4.1997e-08 246.429 64.0703)" fill="#A1A1A1"/>
<rect width="4.92874" height="4.92877" transform="matrix(4.54958e-08 -1 -1 -4.1997e-08 246.429 147.859)" fill="#A1A1A1"/>
<rect width="4.92874" height="4.92877" transform="matrix(4.54958e-08 -1 -1 -4.1997e-08 162.643 147.859)" fill="#A1A1A1"/>
<rect width="4.92874" height="4.92877" transform="matrix(4.54958e-08 -1 -1 -4.1997e-08 78.8574 147.859)" fill="#A1A1A1"/>
<rect width="4.92874" height="4.92877" transform="matrix(4.54958e-08 -1 -1 -4.1997e-08 78.8574 236.57)" fill="#A1A1A1"/>
<rect width="4.92874" height="4.92877" transform="matrix(4.54958e-08 -1 -1 -4.1997e-08 162.643 236.57)" fill="#A1A1A1"/>
<rect width="4.92874" height="4.92877" transform="matrix(4.54958e-08 -1 -1 -4.1997e-08 246.429 236.57)" fill="#A1A1A1"/>
<rect width="4.92877" height="4.92874" transform="matrix(-1 -1.78413e-09 1.71418e-09 1 69 29.5703)" fill="#A1A1A1"/>
<rect width="4.92877" height="4.92874" transform="matrix(-1 -1.78413e-09 1.71418e-09 1 152.786 29.5703)" fill="#A1A1A1"/>
<rect width="4.92877" height="4.92874" transform="matrix(-1 -1.78413e-09 1.71418e-09 1 236.571 29.5703)" fill="#A1A1A1"/>
<rect width="4.92877" height="4.92874" transform="matrix(-1 -1.78413e-09 1.71418e-09 1 236.571 113.359)" fill="#A1A1A1"/>
<rect width="4.92877" height="4.92874" transform="matrix(-1 -1.78413e-09 1.71418e-09 1 152.786 113.359)" fill="#A1A1A1"/>
<rect width="4.92877" height="4.92874" transform="matrix(-1 -1.78413e-09 1.71418e-09 1 69 113.359)" fill="#A1A1A1"/>
<rect width="4.92877" height="4.92874" transform="matrix(-1 -1.78413e-09 1.71418e-09 1 69 202.07)" fill="#A1A1A1"/>
<rect width="4.92877" height="4.92874" transform="matrix(-1 -1.78413e-09 1.71418e-09 1 152.786 202.07)" fill="#A1A1A1"/>
<rect width="4.92877" height="4.92874" transform="matrix(-1 -1.78413e-09 1.71418e-09 1 236.571 202.07)" fill="#A1A1A1"/>
<rect width="4.92877" height="4.92874" transform="matrix(-1 -1.78413e-09 1.71418e-09 1 44.3584 69)" fill="#A1A1A1"/>
<rect width="4.92877" height="4.92874" transform="matrix(-1 -1.78413e-09 1.71418e-09 1 128.143 69)" fill="#A1A1A1"/>
<rect width="4.92877" height="4.92874" transform="matrix(-1 -1.78413e-09 1.71418e-09 1 211.928 69)" fill="#A1A1A1"/>
<rect width="4.92877" height="4.92874" transform="matrix(-1 -1.78413e-09 1.71418e-09 1 211.928 152.785)" fill="#A1A1A1"/>
<rect width="4.92877" height="4.92874" transform="matrix(-1 -1.78413e-09 1.71418e-09 1 128.143 152.785)" fill="#A1A1A1"/>
<rect width="4.92877" height="4.92874" transform="matrix(-1 -1.78413e-09 1.71418e-09 1 44.3584 152.785)" fill="#A1A1A1"/>
<rect width="4.92877" height="4.92874" transform="matrix(-1 -1.78413e-09 1.71418e-09 1 44.3584 241.5)" fill="#A1A1A1"/>
<rect width="4.92877" height="4.92874" transform="matrix(-1 -1.78413e-09 1.71418e-09 1 128.143 241.5)" fill="#A1A1A1"/>
<rect width="4.92877" height="4.92874" transform="matrix(-1 -1.78413e-09 1.71418e-09 1 211.928 241.5)" fill="#A1A1A1"/>
<rect width="4.92874" height="4.92877" transform="matrix(4.54958e-08 -1 -1 -4.1997e-08 98.5713 24.6445)" fill="#A1A1A1"/>
<rect width="4.92874" height="4.92877" transform="matrix(4.54958e-08 -1 -1 -4.1997e-08 4.92871 14.7891)" fill="#A1A1A1"/>
<rect width="4.92874" height="4.92877" transform="matrix(4.54958e-08 -1 -1 -4.1997e-08 276.001 14.7891)" fill="#A1A1A1"/>
<rect width="4.92874" height="4.92877" transform="matrix(4.54958e-08 -1 -1 -4.1997e-08 4.92871 93.6406)" fill="#A1A1A1"/>
<rect width="4.92874" height="4.92877" transform="matrix(4.54958e-08 -1 -1 -4.1997e-08 276.001 93.6406)" fill="#A1A1A1"/>
<rect width="4.92877" height="4.92874" transform="matrix(-1 -1.18098e-10 2.58964e-08 1 49.2852 0)" fill="#A1A1A1"/>
<rect width="4.92877" height="4.92874" transform="matrix(-1 -1.78413e-09 1.71418e-09 1 44.3584 271.07)" fill="#A1A1A1"/>
<rect width="4.92874" height="4.92877" transform="matrix(4.54958e-08 -1 -1 -4.1997e-08 4.92871 172.5)" fill="#A1A1A1"/>
<rect width="4.92874" height="4.92877" transform="matrix(4.54958e-08 -1 -1 -4.1997e-08 276.001 172.5)" fill="#A1A1A1"/>
<rect width="4.92877" height="4.92874" transform="matrix(-1 -1.18098e-10 2.58964e-08 1 128.143 0)" fill="#A1A1A1"/>
<rect width="4.92877" height="4.92874" transform="matrix(-1 -1.78413e-09 1.71418e-09 1 123.216 271.07)" fill="#A1A1A1"/>
<rect width="4.92874" height="4.92877" transform="matrix(4.54958e-08 -1 -1 -4.1997e-08 34.501 39.4297)" fill="#A1A1A1"/>
<rect width="4.92874" height="4.92877" transform="matrix(4.54958e-08 -1 -1 -4.1997e-08 118.286 39.4297)" fill="#A1A1A1"/>
<rect width="4.92874" height="4.92877" transform="matrix(4.54958e-08 -1 -1 -4.1997e-08 202.071 39.4297)" fill="#A1A1A1"/>
<rect width="4.92874" height="4.92877" transform="matrix(4.54958e-08 -1 -1 -4.1997e-08 202.071 123.215)" fill="#A1A1A1"/>
<rect width="4.92874" height="4.92877" transform="matrix(4.54958e-08 -1 -1 -4.1997e-08 118.286 123.215)" fill="#A1A1A1"/>
<rect width="4.92874" height="4.92877" transform="matrix(4.54958e-08 -1 -1 -4.1997e-08 34.501 123.215)" fill="#A1A1A1"/>
<rect width="4.92874" height="4.92877" transform="matrix(4.54958e-08 -1 -1 -4.1997e-08 34.501 211.93)" fill="#A1A1A1"/>
<rect width="4.92874" height="4.92877" transform="matrix(4.54958e-08 -1 -1 -4.1997e-08 118.286 211.93)" fill="#A1A1A1"/>
<rect width="4.92874" height="4.92877" transform="matrix(4.54958e-08 -1 -1 -4.1997e-08 202.071 211.93)" fill="#A1A1A1"/>
<rect width="4.92874" height="4.92877" transform="matrix(4.54958e-08 -1 -1 -4.1997e-08 78.8574 39.4297)" fill="#A1A1A1"/>
<rect width="4.92874" height="4.92877" transform="matrix(4.54958e-08 -1 -1 -4.1997e-08 162.643 39.4297)" fill="#A1A1A1"/>
<rect width="4.92874" height="4.92877" transform="matrix(4.54958e-08 -1 -1 -4.1997e-08 246.429 39.4297)" fill="#A1A1A1"/>
<rect width="4.92874" height="4.92877" transform="matrix(4.54958e-08 -1 -1 -4.1997e-08 246.429 123.215)" fill="#A1A1A1"/>
<rect width="4.92874" height="4.92877" transform="matrix(4.54958e-08 -1 -1 -4.1997e-08 162.643 123.215)" fill="#A1A1A1"/>
<rect width="4.92874" height="4.92877" transform="matrix(4.54958e-08 -1 -1 -4.1997e-08 78.8574 123.215)" fill="#A1A1A1"/>
<rect width="4.92874" height="4.92877" transform="matrix(4.54958e-08 -1 -1 -4.1997e-08 78.8574 211.93)" fill="#A1A1A1"/>
<rect width="4.92874" height="4.92877" transform="matrix(4.54958e-08 -1 -1 -4.1997e-08 162.643 211.93)" fill="#A1A1A1"/>
<rect width="4.92874" height="4.92877" transform="matrix(4.54958e-08 -1 -1 -4.1997e-08 246.429 211.93)" fill="#A1A1A1"/>
<rect width="4.92877" height="4.92874" transform="matrix(-1 -1.78413e-09 1.71418e-09 1 44.3584 29.5703)" fill="#A1A1A1"/>
<rect width="4.92877" height="4.92874" transform="matrix(-1 -1.78413e-09 1.71418e-09 1 128.143 29.5703)" fill="#A1A1A1"/>
<rect width="4.92877" height="4.92874" transform="matrix(-1 -1.78413e-09 1.71418e-09 1 211.928 29.5703)" fill="#A1A1A1"/>
<rect width="4.92877" height="4.92874" transform="matrix(-1 -1.78413e-09 1.71418e-09 1 211.928 113.359)" fill="#A1A1A1"/>
<rect width="4.92877" height="4.92874" transform="matrix(-1 -1.78413e-09 1.71418e-09 1 128.143 113.359)" fill="#A1A1A1"/>
<rect width="4.92877" height="4.92874" transform="matrix(-1 -1.78413e-09 1.71418e-09 1 44.3584 113.359)" fill="#A1A1A1"/>
<rect width="4.92877" height="4.92874" transform="matrix(-1 -1.78413e-09 1.71418e-09 1 44.3584 202.07)" fill="#A1A1A1"/>
<rect width="4.92877" height="4.92874" transform="matrix(-1 -1.78413e-09 1.71418e-09 1 128.143 202.07)" fill="#A1A1A1"/>
<rect width="4.92877" height="4.92874" transform="matrix(-1 -1.78413e-09 1.71418e-09 1 211.928 202.07)" fill="#A1A1A1"/>
<rect width="4.92874" height="4.92877" transform="matrix(4.54958e-08 -1 -1 -4.1997e-08 182.357 24.6445)" fill="#A1A1A1"/>
<rect width="4.92874" height="4.92877" transform="matrix(4.54958e-08 -1 -1 -4.1997e-08 182.357 246.426)" fill="#A1A1A1"/>
<rect width="4.92874" height="4.92877" transform="matrix(4.54958e-08 -1 -1 -4.1997e-08 98.5713 246.426)" fill="#A1A1A1"/>
<rect width="4.92877" height="4.92874" transform="matrix(-1 -1.78413e-09 1.71418e-09 1 49.2852 177.426)" fill="#A1A1A1"/>
<rect width="4.92877" height="4.92874" transform="matrix(-1 -1.78413e-09 1.71418e-09 1 34.501 177.426)" fill="#A1A1A1"/>
<rect width="4.92877" height="4.92874" transform="matrix(-1 -1.78413e-09 1.71418e-09 1 34.501 93.6406)" fill="#A1A1A1"/>
<rect width="4.92877" height="4.92874" transform="matrix(-1 -1.78413e-09 1.71418e-09 1 256.286 93.6406)" fill="#A1A1A1"/>
<rect width="4.92877" height="4.92874" transform="matrix(-1 -1.78413e-09 1.71418e-09 1 256.286 177.426)" fill="#A1A1A1"/>
<rect width="4.92874" height="4.92877" transform="matrix(4.54958e-08 -1 -1 -4.1997e-08 182.357 49.2891)" fill="#A1A1A1"/>
<rect width="4.92877" height="4.92874" transform="matrix(-1 -1.78413e-09 1.71418e-09 1 49.2852 93.6406)" fill="#A1A1A1"/>
<rect width="4.92874" height="4.92877" transform="matrix(4.54958e-08 -1 -1 -4.1997e-08 98.5713 98.5703)" fill="#A1A1A1"/>
<rect width="4.92877" height="4.92874" transform="matrix(-1 -1.78413e-09 1.71418e-09 1 98.5713 177.426)" fill="#A1A1A1"/>
<rect width="4.92874" height="4.92877" transform="matrix(4.54958e-08 -1 -1 -4.1997e-08 182.357 98.5703)" fill="#A1A1A1"/>
<rect width="4.92877" height="4.92874" transform="matrix(-1 -1.78413e-09 1.71418e-09 1 98.5713 93.6406)" fill="#A1A1A1"/>
<rect width="4.92874" height="4.92877" transform="matrix(4.54958e-08 -1 -1 -4.1997e-08 98.5713 147.859)" fill="#A1A1A1"/>
<rect width="4.92877" height="4.92874" transform="matrix(-1 -1.78413e-09 1.71418e-09 1 147.857 177.426)" fill="#A1A1A1"/>
<rect width="4.92874" height="4.92877" transform="matrix(4.54958e-08 -1 -1 -4.1997e-08 182.357 147.859)" fill="#A1A1A1"/>
<rect width="4.92877" height="4.92874" transform="matrix(-1 -1.78413e-09 1.71418e-09 1 147.857 93.6406)" fill="#A1A1A1"/>
<rect width="4.92874" height="4.92877" transform="matrix(4.54958e-08 -1 -1 -4.1997e-08 98.5713 197.141)" fill="#A1A1A1"/>
<rect width="4.92877" height="4.92874" transform="matrix(-1 -1.78413e-09 1.71418e-09 1 197.144 177.426)" fill="#A1A1A1"/>
<rect width="4.92874" height="4.92877" transform="matrix(4.54958e-08 -1 -1 -4.1997e-08 182.357 197.141)" fill="#A1A1A1"/>
<rect width="4.92877" height="4.92874" transform="matrix(-1 -1.78413e-09 1.71418e-09 1 73.9287 69)" fill="#A1A1A1"/>
<rect width="4.92877" height="4.92874" transform="matrix(-1 -1.78413e-09 1.71418e-09 1 157.715 69)" fill="#A1A1A1"/>
<rect width="4.92877" height="4.92874" transform="matrix(-1 -1.78413e-09 1.71418e-09 1 241.5 69)" fill="#A1A1A1"/>
<rect width="4.92877" height="4.92874" transform="matrix(-1 -1.78413e-09 1.71418e-09 1 241.5 152.785)" fill="#A1A1A1"/>
<rect width="4.92877" height="4.92874" transform="matrix(-1 -1.78413e-09 1.71418e-09 1 157.715 152.785)" fill="#A1A1A1"/>
<rect width="4.92877" height="4.92874" transform="matrix(-1 -1.78413e-09 1.71418e-09 1 73.9287 152.785)" fill="#A1A1A1"/>
<rect width="4.92877" height="4.92874" transform="matrix(-1 -1.78413e-09 1.71418e-09 1 73.9287 241.5)" fill="#A1A1A1"/>
<rect width="4.92877" height="4.92874" transform="matrix(-1 -1.78413e-09 1.71418e-09 1 157.715 241.5)" fill="#A1A1A1"/>
<rect width="4.92877" height="4.92874" transform="matrix(-1 -1.78413e-09 1.71418e-09 1 241.5 241.5)" fill="#A1A1A1"/>
<rect width="4.92877" height="4.92874" transform="matrix(-1 -1.78413e-09 1.71418e-09 1 197.144 93.6406)" fill="#A1A1A1"/>
<rect width="4.92874" height="4.92877" transform="matrix(4.54958e-08 -1 -1 -4.1997e-08 98.5713 54.2188)" fill="#A1A1A1"/>
<rect width="4.92874" height="4.92877" transform="matrix(4.54958e-08 -1 -1 -4.1997e-08 4.92871 44.3594)" fill="#A1A1A1"/>
<rect width="4.92874" height="4.92877" transform="matrix(4.54958e-08 -1 -1 -4.1997e-08 276.001 44.3594)" fill="#A1A1A1"/>
<rect width="4.92874" height="4.92877" transform="matrix(4.54958e-08 -1 -1 -4.1997e-08 4.92871 123.215)" fill="#A1A1A1"/>
<rect width="4.92874" height="4.92877" transform="matrix(4.54958e-08 -1 -1 -4.1997e-08 276.001 123.215)" fill="#A1A1A1"/>
<rect width="4.92877" height="4.92874" transform="matrix(-1 -1.18098e-10 2.58964e-08 1 78.8574 0)" fill="#A1A1A1"/>
<rect width="4.92877" height="4.92874" transform="matrix(-1 -1.78413e-09 1.71418e-09 1 73.9287 271.07)" fill="#A1A1A1"/>
<rect width="4.92874" height="4.92877" transform="matrix(4.54958e-08 -1 -1 -4.1997e-08 4.92871 202.07)" fill="#A1A1A1"/>
<rect width="4.92874" height="4.92877" transform="matrix(4.54958e-08 -1 -1 -4.1997e-08 276.001 202.07)" fill="#A1A1A1"/>
<rect width="4.92877" height="4.92874" transform="matrix(-1 -1.18098e-10 2.58964e-08 1 157.715 0)" fill="#A1A1A1"/>
<rect width="4.92877" height="4.92874" transform="matrix(-1 -1.78413e-09 1.71418e-09 1 152.786 271.07)" fill="#A1A1A1"/>
<rect width="4.92874" height="4.92877" transform="matrix(4.54958e-08 -1 -1 -4.1997e-08 34.501 69)" fill="#A1A1A1"/>
<rect width="4.92874" height="4.92877" transform="matrix(4.54958e-08 -1 -1 -4.1997e-08 118.286 69)" fill="#A1A1A1"/>
<rect width="4.92874" height="4.92877" transform="matrix(4.54958e-08 -1 -1 -4.1997e-08 202.071 69)" fill="#A1A1A1"/>
<rect width="4.92874" height="4.92877" transform="matrix(4.54958e-08 -1 -1 -4.1997e-08 202.071 152.785)" fill="#A1A1A1"/>
<rect width="4.92874" height="4.92877" transform="matrix(4.54958e-08 -1 -1 -4.1997e-08 118.286 152.785)" fill="#A1A1A1"/>
<rect width="4.92874" height="4.92877" transform="matrix(4.54958e-08 -1 -1 -4.1997e-08 34.501 152.785)" fill="#A1A1A1"/>
<rect width="4.92874" height="4.92877" transform="matrix(4.54958e-08 -1 -1 -4.1997e-08 34.501 241.5)" fill="#A1A1A1"/>
<rect width="4.92874" height="4.92877" transform="matrix(4.54958e-08 -1 -1 -4.1997e-08 118.286 241.5)" fill="#A1A1A1"/>
<rect width="4.92874" height="4.92877" transform="matrix(4.54958e-08 -1 -1 -4.1997e-08 202.071 241.5)" fill="#A1A1A1"/>
<rect width="4.92877" height="4.92874" transform="matrix(-1 -1.78413e-09 1.71418e-09 1 49.2852 69)" fill="#A1A1A1"/>
<rect width="4.92877" height="4.92874" transform="matrix(-1 -1.78413e-09 1.71418e-09 1 133.071 69)" fill="#A1A1A1"/>
<rect width="4.92877" height="4.92874" transform="matrix(-1 -1.78413e-09 1.71418e-09 1 216.857 69)" fill="#A1A1A1"/>
<rect width="4.92877" height="4.92874" transform="matrix(-1 -1.78413e-09 1.71418e-09 1 216.857 152.785)" fill="#A1A1A1"/>
<rect width="4.92877" height="4.92874" transform="matrix(-1 -1.78413e-09 1.71418e-09 1 133.071 152.785)" fill="#A1A1A1"/>
<rect width="4.92877" height="4.92874" transform="matrix(-1 -1.78413e-09 1.71418e-09 1 49.2852 152.785)" fill="#A1A1A1"/>
<rect width="4.92877" height="4.92874" transform="matrix(-1 -1.78413e-09 1.71418e-09 1 49.2852 241.5)" fill="#A1A1A1"/>
<rect width="4.92877" height="4.92874" transform="matrix(-1 -1.78413e-09 1.71418e-09 1 133.071 241.5)" fill="#A1A1A1"/>
<rect width="4.92877" height="4.92874" transform="matrix(-1 -1.78413e-09 1.71418e-09 1 216.857 241.5)" fill="#A1A1A1"/>
<rect width="4.92874" height="4.92877" transform="matrix(4.54958e-08 -1 -1 -4.1997e-08 78.8574 69)" fill="#A1A1A1"/>
<rect width="4.92874" height="4.92877" transform="matrix(4.54958e-08 -1 -1 -4.1997e-08 162.643 69)" fill="#A1A1A1"/>
<rect width="4.92874" height="4.92877" transform="matrix(4.54958e-08 -1 -1 -4.1997e-08 246.429 69)" fill="#A1A1A1"/>
<rect width="4.92874" height="4.92877" transform="matrix(4.54958e-08 -1 -1 -4.1997e-08 246.429 152.785)" fill="#A1A1A1"/>
<rect width="4.92874" height="4.92877" transform="matrix(4.54958e-08 -1 -1 -4.1997e-08 162.643 152.785)" fill="#A1A1A1"/>
<rect width="4.92874" height="4.92877" transform="matrix(4.54958e-08 -1 -1 -4.1997e-08 78.8574 152.785)" fill="#A1A1A1"/>
<rect width="4.92874" height="4.92877" transform="matrix(4.54958e-08 -1 -1 -4.1997e-08 78.8574 241.5)" fill="#A1A1A1"/>
<rect width="4.92874" height="4.92877" transform="matrix(4.54958e-08 -1 -1 -4.1997e-08 162.643 241.5)" fill="#A1A1A1"/>
<rect width="4.92874" height="4.92877" transform="matrix(4.54958e-08 -1 -1 -4.1997e-08 246.429 241.5)" fill="#A1A1A1"/>
<rect width="4.92877" height="4.92874" transform="matrix(-1 -1.78413e-09 1.71418e-09 1 73.9287 29.5703)" fill="#A1A1A1"/>
<rect width="4.92877" height="4.92874" transform="matrix(-1 -1.78413e-09 1.71418e-09 1 157.715 29.5703)" fill="#A1A1A1"/>
<rect width="4.92877" height="4.92874" transform="matrix(-1 -1.78413e-09 1.71418e-09 1 241.5 29.5703)" fill="#A1A1A1"/>
<rect width="4.92877" height="4.92874" transform="matrix(-1 -1.78413e-09 1.71418e-09 1 241.5 113.359)" fill="#A1A1A1"/>
<rect width="4.92877" height="4.92874" transform="matrix(-1 -1.78413e-09 1.71418e-09 1 157.715 113.359)" fill="#A1A1A1"/>
<rect width="4.92877" height="4.92874" transform="matrix(-1 -1.78413e-09 1.71418e-09 1 73.9287 113.359)" fill="#A1A1A1"/>
<rect width="4.92877" height="4.92874" transform="matrix(-1 -1.78413e-09 1.71418e-09 1 73.9287 202.07)" fill="#A1A1A1"/>
<rect width="4.92877" height="4.92874" transform="matrix(-1 -1.78413e-09 1.71418e-09 1 157.715 202.07)" fill="#A1A1A1"/>
<rect width="4.92877" height="4.92874" transform="matrix(-1 -1.78413e-09 1.71418e-09 1 241.5 202.07)" fill="#A1A1A1"/>
<rect width="4.92874" height="4.92877" transform="matrix(4.54958e-08 -1 -1 -4.1997e-08 98.5713 29.5703)" fill="#A1A1A1"/>
<rect width="4.92874" height="4.92877" transform="matrix(4.54958e-08 -1 -1 -4.1997e-08 4.92871 19.7148)" fill="#A1A1A1"/>
<rect width="4.92874" height="4.92877" transform="matrix(4.54958e-08 -1 -1 -4.1997e-08 276.001 19.7148)" fill="#A1A1A1"/>
<rect width="4.92874" height="4.92877" transform="matrix(4.54958e-08 -1 -1 -4.1997e-08 4.92871 98.5703)" fill="#A1A1A1"/>
<rect width="4.92874" height="4.92877" transform="matrix(4.54958e-08 -1 -1 -4.1997e-08 276.001 98.5703)" fill="#A1A1A1"/>
<rect width="4.92877" height="4.92874" transform="matrix(-1 -1.18098e-10 2.58964e-08 1 54.2148 0)" fill="#A1A1A1"/>
<rect width="4.92877" height="4.92874" transform="matrix(-1 -1.78413e-09 1.71418e-09 1 49.2852 271.07)" fill="#A1A1A1"/>
<rect width="4.92874" height="4.92877" transform="matrix(4.54958e-08 -1 -1 -4.1997e-08 4.92871 177.426)" fill="#A1A1A1"/>
<rect width="4.92874" height="4.92877" transform="matrix(4.54958e-08 -1 -1 -4.1997e-08 276.001 177.426)" fill="#A1A1A1"/>
<rect width="4.92877" height="4.92874" transform="matrix(-1 -1.18098e-10 2.58964e-08 1 133.071 0)" fill="#A1A1A1"/>
<rect width="4.92877" height="4.92874" transform="matrix(-1 -1.78413e-09 1.71418e-09 1 128.143 271.07)" fill="#A1A1A1"/>
<rect width="4.92874" height="4.92877" transform="matrix(4.54958e-08 -1 -1 -4.1997e-08 34.501 44.3594)" fill="#A1A1A1"/>
<rect width="4.92874" height="4.92877" transform="matrix(4.54958e-08 -1 -1 -4.1997e-08 118.286 44.3594)" fill="#A1A1A1"/>
<rect width="4.92874" height="4.92877" transform="matrix(4.54958e-08 -1 -1 -4.1997e-08 202.071 44.3594)" fill="#A1A1A1"/>
<rect width="4.92874" height="4.92877" transform="matrix(4.54958e-08 -1 -1 -4.1997e-08 202.071 128.145)" fill="#A1A1A1"/>
<rect width="4.92874" height="4.92877" transform="matrix(4.54958e-08 -1 -1 -4.1997e-08 118.286 128.145)" fill="#A1A1A1"/>
<rect width="4.92874" height="4.92877" transform="matrix(4.54958e-08 -1 -1 -4.1997e-08 34.501 128.145)" fill="#A1A1A1"/>
<rect width="4.92874" height="4.92877" transform="matrix(4.54958e-08 -1 -1 -4.1997e-08 34.501 216.855)" fill="#A1A1A1"/>
<rect width="4.92874" height="4.92877" transform="matrix(4.54958e-08 -1 -1 -4.1997e-08 118.286 216.855)" fill="#A1A1A1"/>
<rect width="4.92874" height="4.92877" transform="matrix(4.54958e-08 -1 -1 -4.1997e-08 202.071 216.855)" fill="#A1A1A1"/>
<rect width="4.92874" height="4.92877" transform="matrix(4.54958e-08 -1 -1 -4.1997e-08 78.8574 44.3594)" fill="#A1A1A1"/>
<rect width="4.92874" height="4.92877" transform="matrix(4.54958e-08 -1 -1 -4.1997e-08 162.643 44.3594)" fill="#A1A1A1"/>
<rect width="4.92874" height="4.92877" transform="matrix(4.54958e-08 -1 -1 -4.1997e-08 246.429 44.3594)" fill="#A1A1A1"/>
<rect width="4.92874" height="4.92877" transform="matrix(4.54958e-08 -1 -1 -4.1997e-08 246.429 128.145)" fill="#A1A1A1"/>
<rect width="4.92874" height="4.92877" transform="matrix(4.54958e-08 -1 -1 -4.1997e-08 162.643 128.145)" fill="#A1A1A1"/>
<rect width="4.92874" height="4.92877" transform="matrix(4.54958e-08 -1 -1 -4.1997e-08 78.8574 128.145)" fill="#A1A1A1"/>
<rect width="4.92874" height="4.92877" transform="matrix(4.54958e-08 -1 -1 -4.1997e-08 78.8574 216.855)" fill="#A1A1A1"/>
<rect width="4.92874" height="4.92877" transform="matrix(4.54958e-08 -1 -1 -4.1997e-08 162.643 216.855)" fill="#A1A1A1"/>
<rect width="4.92874" height="4.92877" transform="matrix(4.54958e-08 -1 -1 -4.1997e-08 246.429 216.855)" fill="#A1A1A1"/>
<rect width="4.92877" height="4.92874" transform="matrix(-1 -1.78413e-09 1.71418e-09 1 49.2852 29.5703)" fill="#A1A1A1"/>
<rect width="4.92877" height="4.92874" transform="matrix(-1 -1.78413e-09 1.71418e-09 1 133.071 29.5703)" fill="#A1A1A1"/>
<rect width="4.92877" height="4.92874" transform="matrix(-1 -1.78413e-09 1.71418e-09 1 216.857 29.5703)" fill="#A1A1A1"/>
<rect width="4.92877" height="4.92874" transform="matrix(-1 -1.78413e-09 1.71418e-09 1 216.857 113.359)" fill="#A1A1A1"/>
<rect width="4.92877" height="4.92874" transform="matrix(-1 -1.78413e-09 1.71418e-09 1 133.071 113.359)" fill="#A1A1A1"/>
<rect width="4.92877" height="4.92874" transform="matrix(-1 -1.78413e-09 1.71418e-09 1 49.2852 113.359)" fill="#A1A1A1"/>
<rect width="4.92877" height="4.92874" transform="matrix(-1 -1.78413e-09 1.71418e-09 1 49.2852 202.07)" fill="#A1A1A1"/>
<rect width="4.92877" height="4.92874" transform="matrix(-1 -1.78413e-09 1.71418e-09 1 133.071 202.07)" fill="#A1A1A1"/>
<rect width="4.92877" height="4.92874" transform="matrix(-1 -1.78413e-09 1.71418e-09 1 216.857 202.07)" fill="#A1A1A1"/>
<rect width="4.92874" height="4.92877" transform="matrix(4.54958e-08 -1 -1 -4.1997e-08 182.357 29.5703)" fill="#A1A1A1"/>
<rect width="4.92874" height="4.92877" transform="matrix(4.54958e-08 -1 -1 -4.1997e-08 182.357 251.359)" fill="#A1A1A1"/>
<rect width="4.92874" height="4.92877" transform="matrix(4.54958e-08 -1 -1 -4.1997e-08 98.5713 251.359)" fill="#A1A1A1"/>
<rect width="4.92877" height="4.92874" transform="matrix(-1 -1.78413e-09 1.71418e-09 1 54.2148 177.426)" fill="#A1A1A1"/>
<rect width="4.92874" height="4.92877" transform="matrix(4.54958e-08 -1 -1 -4.1997e-08 182.357 54.2188)" fill="#A1A1A1"/>
<rect width="4.92877" height="4.92874" transform="matrix(-1 -1.78413e-09 1.71418e-09 1 54.2148 93.6406)" fill="#A1A1A1"/>
<rect width="4.92874" height="4.92877" transform="matrix(4.54958e-08 -1 -1 -4.1997e-08 98.5713 103.5)" fill="#A1A1A1"/>
<rect width="4.92877" height="4.92874" transform="matrix(-1 -1.78413e-09 1.71418e-09 1 103.501 177.426)" fill="#A1A1A1"/>
<rect width="4.92874" height="4.92877" transform="matrix(4.54958e-08 -1 -1 -4.1997e-08 182.357 103.5)" fill="#A1A1A1"/>
<rect width="4.92877" height="4.92874" transform="matrix(-1 -1.78413e-09 1.71418e-09 1 103.501 93.6406)" fill="#A1A1A1"/>
<rect width="4.92874" height="4.92877" transform="matrix(4.54958e-08 -1 -1 -4.1997e-08 98.5713 152.785)" fill="#A1A1A1"/>
<rect width="4.92877" height="4.92874" transform="matrix(-1 -1.78413e-09 1.71418e-09 1 152.786 177.426)" fill="#A1A1A1"/>
<rect width="4.92874" height="4.92877" transform="matrix(4.54958e-08 -1 -1 -4.1997e-08 182.357 152.785)" fill="#A1A1A1"/>
<rect width="4.92877" height="4.92874" transform="matrix(-1 -1.78413e-09 1.71418e-09 1 152.786 93.6406)" fill="#A1A1A1"/>
<rect width="4.92874" height="4.92877" transform="matrix(4.54958e-08 -1 -1 -4.1997e-08 98.5713 202.07)" fill="#A1A1A1"/>
<rect width="4.92877" height="4.92874" transform="matrix(-1 -1.78413e-09 1.71418e-09 1 78.8574 59.1406)" fill="#A1A1A1"/>
<rect width="4.92877" height="4.92874" transform="matrix(-1 -1.78413e-09 1.71418e-09 1 162.643 59.1406)" fill="#A1A1A1"/>
<rect width="4.92877" height="4.92874" transform="matrix(-1 -1.78413e-09 1.71418e-09 1 246.429 59.1406)" fill="#A1A1A1"/>
<rect width="4.92877" height="4.92874" transform="matrix(-1 -1.78413e-09 1.71418e-09 1 246.429 142.93)" fill="#A1A1A1"/>
<rect width="4.92877" height="4.92874" transform="matrix(-1 -1.78413e-09 1.71418e-09 1 162.643 142.93)" fill="#A1A1A1"/>
<rect width="4.92877" height="4.92874" transform="matrix(-1 -1.78413e-09 1.71418e-09 1 78.8574 142.93)" fill="#A1A1A1"/>
<rect width="4.92877" height="4.92874" transform="matrix(-1 -1.78413e-09 1.71418e-09 1 78.8574 231.641)" fill="#A1A1A1"/>
<rect width="4.92877" height="4.92874" transform="matrix(-1 -1.78413e-09 1.71418e-09 1 162.643 231.641)" fill="#A1A1A1"/>
<rect width="4.92877" height="4.92874" transform="matrix(-1 -1.78413e-09 1.71418e-09 1 246.429 231.641)" fill="#A1A1A1"/>
<rect width="4.92877" height="4.92874" transform="matrix(-1 -1.78413e-09 1.71418e-09 1 202.071 177.426)" fill="#A1A1A1"/>
<rect width="4.92874" height="4.92877" transform="matrix(4.54958e-08 -1 -1 -4.1997e-08 182.357 202.07)" fill="#A1A1A1"/>
<rect width="4.92877" height="4.92874" transform="matrix(-1 -1.78413e-09 1.71418e-09 1 202.071 93.6406)" fill="#A1A1A1"/>
<rect width="4.92877" height="4.92874" transform="matrix(-1 -1.78413e-09 1.71418e-09 1 54.2148 69)" fill="#A1A1A1"/>
<rect width="4.92877" height="4.92874" transform="matrix(-1 -1.78413e-09 1.71418e-09 1 138 69)" fill="#A1A1A1"/>
<rect width="4.92877" height="4.92874" transform="matrix(-1 -1.78413e-09 1.71418e-09 1 221.785 69)" fill="#A1A1A1"/>
<rect width="4.92877" height="4.92874" transform="matrix(-1 -1.78413e-09 1.71418e-09 1 221.785 152.785)" fill="#A1A1A1"/>
<rect width="4.92877" height="4.92874" transform="matrix(-1 -1.78413e-09 1.71418e-09 1 138 152.785)" fill="#A1A1A1"/>
<rect width="4.92877" height="4.92874" transform="matrix(-1 -1.78413e-09 1.71418e-09 1 54.2148 152.785)" fill="#A1A1A1"/>
<rect width="4.92877" height="4.92874" transform="matrix(-1 -1.78413e-09 1.71418e-09 1 54.2148 241.5)" fill="#A1A1A1"/>
<rect width="4.92877" height="4.92874" transform="matrix(-1 -1.78413e-09 1.71418e-09 1 138 241.5)" fill="#A1A1A1"/>
<rect width="4.92877" height="4.92874" transform="matrix(-1 -1.78413e-09 1.71418e-09 1 221.785 241.5)" fill="#A1A1A1"/>
<rect width="4.92874" height="4.92877" transform="matrix(4.54958e-08 -1 -1 -4.1997e-08 98.5713 59.1406)" fill="#A1A1A1"/>
<rect width="4.92874" height="4.92877" transform="matrix(4.54958e-08 -1 -1 -4.1997e-08 4.92871 49.2891)" fill="#A1A1A1"/>
<rect width="4.92874" height="4.92877" transform="matrix(4.54958e-08 -1 -1 -4.1997e-08 276.001 49.2891)" fill="#A1A1A1"/>
<rect width="4.92877" height="4.92874" transform="matrix(-1 -1.18098e-10 2.58964e-08 1 4.92871 0)" fill="#A1A1A1"/>
<rect width="4.92874" height="4.92877" transform="matrix(4.54958e-08 -1 -1 -4.1997e-08 4.92871 128.145)" fill="#A1A1A1"/>
<rect width="4.92874" height="4.92877" transform="matrix(4.54958e-08 -1 -1 -4.1997e-08 276.001 128.145)" fill="#A1A1A1"/>
<rect width="4.92877" height="4.92874" transform="matrix(-1 -1.18098e-10 2.58964e-08 1 83.7861 0)" fill="#A1A1A1"/>
<rect width="4.92877" height="4.92874" transform="matrix(-1 -1.78413e-09 1.71418e-09 1 78.8574 271.07)" fill="#A1A1A1"/>
<rect width="4.92874" height="4.92877" transform="matrix(4.54958e-08 -1 -1 -4.1997e-08 4.92871 207)" fill="#A1A1A1"/>
<rect width="4.92874" height="4.92877" transform="matrix(4.54958e-08 -1 -1 -4.1997e-08 276.001 207)" fill="#A1A1A1"/>
<rect width="4.92877" height="4.92874" transform="matrix(-1 -1.18098e-10 2.58964e-08 1 162.643 0)" fill="#A1A1A1"/>
<rect width="4.92877" height="4.92874" transform="matrix(-1 -1.78413e-09 1.71418e-09 1 157.715 271.07)" fill="#A1A1A1"/>
<rect width="4.92874" height="4.92877" transform="matrix(4.54958e-08 -1 -1 -4.1997e-08 34.501 73.9297)" fill="#A1A1A1"/>
<rect width="4.92874" height="4.92877" transform="matrix(4.54958e-08 -1 -1 -4.1997e-08 118.286 73.9297)" fill="#A1A1A1"/>
<rect width="4.92874" height="4.92877" transform="matrix(4.54958e-08 -1 -1 -4.1997e-08 202.071 73.9297)" fill="#A1A1A1"/>
<rect width="4.92874" height="4.92877" transform="matrix(4.54958e-08 -1 -1 -4.1997e-08 202.071 157.719)" fill="#A1A1A1"/>
<rect width="4.92874" height="4.92877" transform="matrix(4.54958e-08 -1 -1 -4.1997e-08 118.286 157.719)" fill="#A1A1A1"/>
<rect width="4.92874" height="4.92877" transform="matrix(4.54958e-08 -1 -1 -4.1997e-08 34.501 157.719)" fill="#A1A1A1"/>
<rect width="4.92874" height="4.92877" transform="matrix(4.54958e-08 -1 -1 -4.1997e-08 34.501 246.426)" fill="#A1A1A1"/>
<rect width="4.92874" height="4.92877" transform="matrix(4.54958e-08 -1 -1 -4.1997e-08 118.286 246.426)" fill="#A1A1A1"/>
<rect width="4.92874" height="4.92877" transform="matrix(4.54958e-08 -1 -1 -4.1997e-08 202.071 246.426)" fill="#A1A1A1"/>
<rect width="4.92874" height="4.92877" transform="matrix(4.54958e-08 -1 -1 -4.1997e-08 78.8574 73.9297)" fill="#A1A1A1"/>
<rect width="4.92874" height="4.92877" transform="matrix(4.54958e-08 -1 -1 -4.1997e-08 162.643 73.9297)" fill="#A1A1A1"/>
<rect width="4.92874" height="4.92877" transform="matrix(4.54958e-08 -1 -1 -4.1997e-08 246.429 73.9297)" fill="#A1A1A1"/>
<rect width="4.92874" height="4.92877" transform="matrix(4.54958e-08 -1 -1 -4.1997e-08 246.429 157.719)" fill="#A1A1A1"/>
<rect width="4.92874" height="4.92877" transform="matrix(4.54958e-08 -1 -1 -4.1997e-08 162.643 157.719)" fill="#A1A1A1"/>
<rect width="4.92874" height="4.92877" transform="matrix(4.54958e-08 -1 -1 -4.1997e-08 78.8574 157.719)" fill="#A1A1A1"/>
<rect width="4.92874" height="4.92877" transform="matrix(4.54958e-08 -1 -1 -4.1997e-08 78.8574 246.426)" fill="#A1A1A1"/>
<rect width="4.92874" height="4.92877" transform="matrix(4.54958e-08 -1 -1 -4.1997e-08 162.643 246.426)" fill="#A1A1A1"/>
<rect width="4.92874" height="4.92877" transform="matrix(4.54958e-08 -1 -1 -4.1997e-08 246.429 246.426)" fill="#A1A1A1"/>
<rect width="4.92874" height="4.92877" transform="matrix(4.54958e-08 -1 -1 -4.1997e-08 98.5713 34.5039)" fill="#A1A1A1"/>
<rect width="4.92874" height="4.92877" transform="matrix(4.54958e-08 -1 -1 -4.1997e-08 4.92871 24.6445)" fill="#A1A1A1"/>
<rect width="4.92874" height="4.92877" transform="matrix(4.54958e-08 -1 -1 -4.1997e-08 276.001 24.6445)" fill="#A1A1A1"/>
<rect width="4.92874" height="4.92877" transform="matrix(4.54958e-08 -1 -1 -4.1997e-08 4.92871 103.5)" fill="#A1A1A1"/>
<rect width="4.92874" height="4.92877" transform="matrix(4.54958e-08 -1 -1 -4.1997e-08 276.001 103.5)" fill="#A1A1A1"/>
<rect width="4.92877" height="4.92874" transform="matrix(-1 -1.18098e-10 2.58964e-08 1 59.1426 0)" fill="#A1A1A1"/>
<rect width="4.92877" height="4.92874" transform="matrix(-1 -1.78413e-09 1.71418e-09 1 54.2148 271.07)" fill="#A1A1A1"/>
<rect width="4.92874" height="4.92877" transform="matrix(4.54958e-08 -1 -1 -4.1997e-08 4.92871 182.359)" fill="#A1A1A1"/>
<rect width="4.92874" height="4.92877" transform="matrix(4.54958e-08 -1 -1 -4.1997e-08 276.001 182.359)" fill="#A1A1A1"/>
<rect width="4.92877" height="4.92874" transform="matrix(-1 -1.18098e-10 2.58964e-08 1 138 0)" fill="#A1A1A1"/>
<rect width="4.92877" height="4.92874" transform="matrix(-1 -1.78413e-09 1.71418e-09 1 133.071 271.07)" fill="#A1A1A1"/>
<rect width="4.92874" height="4.92877" transform="matrix(4.54958e-08 -1 -1 -4.1997e-08 34.501 49.2891)" fill="#A1A1A1"/>
<rect width="4.92874" height="4.92877" transform="matrix(4.54958e-08 -1 -1 -4.1997e-08 118.286 49.2891)" fill="#A1A1A1"/>
<rect width="4.92874" height="4.92877" transform="matrix(4.54958e-08 -1 -1 -4.1997e-08 202.071 49.2891)" fill="#A1A1A1"/>
<rect width="4.92874" height="4.92877" transform="matrix(4.54958e-08 -1 -1 -4.1997e-08 202.071 133.07)" fill="#A1A1A1"/>
<rect width="4.92874" height="4.92877" transform="matrix(4.54958e-08 -1 -1 -4.1997e-08 118.286 133.07)" fill="#A1A1A1"/>
<rect width="4.92874" height="4.92877" transform="matrix(4.54958e-08 -1 -1 -4.1997e-08 34.501 133.07)" fill="#A1A1A1"/>
<rect width="4.92874" height="4.92877" transform="matrix(4.54958e-08 -1 -1 -4.1997e-08 34.501 221.789)" fill="#A1A1A1"/>
<rect width="4.92874" height="4.92877" transform="matrix(4.54958e-08 -1 -1 -4.1997e-08 118.286 221.789)" fill="#A1A1A1"/>
<rect width="4.92874" height="4.92877" transform="matrix(4.54958e-08 -1 -1 -4.1997e-08 202.071 221.789)" fill="#A1A1A1"/>
<rect width="4.92874" height="4.92877" transform="matrix(4.54958e-08 -1 -1 -4.1997e-08 78.8574 49.2891)" fill="#A1A1A1"/>
<rect width="4.92874" height="4.92877" transform="matrix(4.54958e-08 -1 -1 -4.1997e-08 162.643 49.2891)" fill="#A1A1A1"/>
<rect width="4.92874" height="4.92877" transform="matrix(4.54958e-08 -1 -1 -4.1997e-08 246.429 49.2891)" fill="#A1A1A1"/>
<rect width="4.92874" height="4.92877" transform="matrix(4.54958e-08 -1 -1 -4.1997e-08 246.429 133.07)" fill="#A1A1A1"/>
<rect width="4.92874" height="4.92877" transform="matrix(4.54958e-08 -1 -1 -4.1997e-08 162.643 133.07)" fill="#A1A1A1"/>
<rect width="4.92874" height="4.92877" transform="matrix(4.54958e-08 -1 -1 -4.1997e-08 78.8574 133.07)" fill="#A1A1A1"/>
<rect width="4.92874" height="4.92877" transform="matrix(4.54958e-08 -1 -1 -4.1997e-08 78.8574 221.789)" fill="#A1A1A1"/>
<rect width="4.92874" height="4.92877" transform="matrix(4.54958e-08 -1 -1 -4.1997e-08 162.643 221.789)" fill="#A1A1A1"/>
<rect width="4.92874" height="4.92877" transform="matrix(4.54958e-08 -1 -1 -4.1997e-08 246.429 221.789)" fill="#A1A1A1"/>
<rect width="4.92877" height="4.92874" transform="matrix(-1 -1.78413e-09 1.71418e-09 1 54.2148 29.5703)" fill="#A1A1A1"/>
<rect width="4.92877" height="4.92874" transform="matrix(-1 -1.78413e-09 1.71418e-09 1 138 29.5703)" fill="#A1A1A1"/>
<rect width="4.92877" height="4.92874" transform="matrix(-1 -1.78413e-09 1.71418e-09 1 221.785 29.5703)" fill="#A1A1A1"/>
<rect width="4.92877" height="4.92874" transform="matrix(-1 -1.78413e-09 1.71418e-09 1 221.785 113.359)" fill="#A1A1A1"/>
<rect width="4.92877" height="4.92874" transform="matrix(-1 -1.78413e-09 1.71418e-09 1 138 113.359)" fill="#A1A1A1"/>
<rect width="4.92877" height="4.92874" transform="matrix(-1 -1.78413e-09 1.71418e-09 1 54.2148 113.359)" fill="#A1A1A1"/>
<rect width="4.92877" height="4.92874" transform="matrix(-1 -1.78413e-09 1.71418e-09 1 54.2148 202.07)" fill="#A1A1A1"/>
<rect width="4.92877" height="4.92874" transform="matrix(-1 -1.78413e-09 1.71418e-09 1 138 202.07)" fill="#A1A1A1"/>
<rect width="4.92877" height="4.92874" transform="matrix(-1 -1.78413e-09 1.71418e-09 1 221.785 202.07)" fill="#A1A1A1"/>
<rect width="4.92874" height="4.92877" transform="matrix(4.54958e-08 -1 -1 -4.1997e-08 182.357 34.5039)" fill="#A1A1A1"/>
<rect width="4.92874" height="4.92877" transform="matrix(4.54958e-08 -1 -1 -4.1997e-08 182.357 256.285)" fill="#A1A1A1"/>
<rect width="4.92874" height="4.92877" transform="matrix(4.54958e-08 -1 -1 -4.1997e-08 98.5713 256.285)" fill="#A1A1A1"/>
<rect width="4.92877" height="4.92874" transform="matrix(-1 -1.78413e-09 1.71418e-09 1 59.1426 177.426)" fill="#A1A1A1"/>
<rect width="4.92874" height="4.92877" transform="matrix(4.54958e-08 -1 -1 -4.1997e-08 182.357 59.1406)" fill="#A1A1A1"/>
<rect width="4.92877" height="4.92874" transform="matrix(-1 -1.78413e-09 1.71418e-09 1 59.1426 93.6406)" fill="#A1A1A1"/>
<rect width="4.92874" height="4.92877" transform="matrix(4.54958e-08 -1 -1 -4.1997e-08 98.5713 108.43)" fill="#A1A1A1"/>
<rect width="4.92877" height="4.92874" transform="matrix(-1 -1.78413e-09 1.71418e-09 1 108.429 177.426)" fill="#A1A1A1"/>
<rect width="4.92874" height="4.92877" transform="matrix(4.54958e-08 -1 -1 -4.1997e-08 182.357 108.43)" fill="#A1A1A1"/>
<rect width="4.92877" height="4.92874" transform="matrix(-1 -1.78413e-09 1.71418e-09 1 108.429 93.6406)" fill="#A1A1A1"/>
<rect width="4.92874" height="4.92877" transform="matrix(4.54958e-08 -1 -1 -4.1997e-08 98.5713 157.719)" fill="#A1A1A1"/>
<rect width="4.92877" height="4.92874" transform="matrix(-1 -1.78413e-09 1.71418e-09 1 157.715 177.426)" fill="#A1A1A1"/>
<rect width="4.92874" height="4.92877" transform="matrix(4.54958e-08 -1 -1 -4.1997e-08 182.357 157.719)" fill="#A1A1A1"/>
<rect width="4.92877" height="4.92874" transform="matrix(-1 -1.78413e-09 1.71418e-09 1 157.715 93.6406)" fill="#A1A1A1"/>
<rect width="4.92877" height="4.92874" transform="matrix(-1 -1.78413e-09 1.71418e-09 1 59.1426 69)" fill="#A1A1A1"/>
<rect width="4.92877" height="4.92874" transform="matrix(-1 -1.78413e-09 1.71418e-09 1 142.929 69)" fill="#A1A1A1"/>
<rect width="4.92877" height="4.92874" transform="matrix(-1 -1.78413e-09 1.71418e-09 1 226.715 69)" fill="#A1A1A1"/>
<rect width="4.92877" height="4.92874" transform="matrix(-1 -1.78413e-09 1.71418e-09 1 226.715 152.785)" fill="#A1A1A1"/>
<rect width="4.92877" height="4.92874" transform="matrix(-1 -1.78413e-09 1.71418e-09 1 142.929 152.785)" fill="#A1A1A1"/>
<rect width="4.92877" height="4.92874" transform="matrix(-1 -1.78413e-09 1.71418e-09 1 59.1426 152.785)" fill="#A1A1A1"/>
<rect width="4.92877" height="4.92874" transform="matrix(-1 -1.78413e-09 1.71418e-09 1 59.1426 241.5)" fill="#A1A1A1"/>
<rect width="4.92877" height="4.92874" transform="matrix(-1 -1.78413e-09 1.71418e-09 1 142.929 241.5)" fill="#A1A1A1"/>
<rect width="4.92877" height="4.92874" transform="matrix(-1 -1.78413e-09 1.71418e-09 1 226.715 241.5)" fill="#A1A1A1"/>
<rect width="4.92874" height="4.92877" transform="matrix(4.54958e-08 -1 -1 -4.1997e-08 98.5713 207)" fill="#A1A1A1"/>
<rect width="4.92877" height="4.92874" transform="matrix(-1 -1.78413e-09 1.71418e-09 1 207 177.426)" fill="#A1A1A1"/>
<rect width="4.92874" height="4.92877" transform="matrix(4.54958e-08 -1 -1 -4.1997e-08 182.357 207)" fill="#A1A1A1"/>
<rect width="4.92877" height="4.92874" transform="matrix(-1 -1.78413e-09 1.71418e-09 1 207 93.6406)" fill="#A1A1A1"/>
<rect width="4.92874" height="4.92877" transform="matrix(4.54958e-08 -1 -1 -4.1997e-08 98.5713 64.0703)" fill="#A1A1A1"/>
<rect width="4.92874" height="4.92877" transform="matrix(4.54958e-08 -1 -1 -4.1997e-08 4.92871 54.2188)" fill="#A1A1A1"/>
<rect width="4.92874" height="4.92877" transform="matrix(4.54958e-08 -1 -1 -4.1997e-08 276.001 54.2188)" fill="#A1A1A1"/>
<rect width="4.92877" height="4.92874" transform="matrix(-1 -1.18098e-10 2.58964e-08 1 9.8584 0)" fill="#A1A1A1"/>
<rect width="4.92877" height="4.92874" transform="matrix(-1 -1.78413e-09 1.71418e-09 1 4.92871 271.07)" fill="#A1A1A1"/>
<rect width="4.92874" height="4.92877" transform="matrix(4.54958e-08 -1 -1 -4.1997e-08 4.92871 133.07)" fill="#A1A1A1"/>
<rect width="4.92874" height="4.92877" transform="matrix(4.54958e-08 -1 -1 -4.1997e-08 276.001 133.07)" fill="#A1A1A1"/>
<rect width="4.92877" height="4.92874" transform="matrix(-1 -1.18098e-10 2.58964e-08 1 88.7148 0)" fill="#A1A1A1"/>
<rect width="4.92877" height="4.92874" transform="matrix(-1 -1.78413e-09 1.71418e-09 1 83.7861 271.07)" fill="#A1A1A1"/>
<rect width="4.92874" height="4.92877" transform="matrix(4.54958e-08 -1 -1 -4.1997e-08 4.92871 211.93)" fill="#A1A1A1"/>
<rect width="4.92874" height="4.92877" transform="matrix(4.54958e-08 -1 -1 -4.1997e-08 276.001 211.93)" fill="#A1A1A1"/>
<rect width="4.92877" height="4.92874" transform="matrix(-1 -1.18098e-10 2.58964e-08 1 167.571 0)" fill="#A1A1A1"/>
<rect width="4.92877" height="4.92874" transform="matrix(-1 -1.78413e-09 1.71418e-09 1 162.643 271.07)" fill="#A1A1A1"/>
<rect width="4.92874" height="4.92877" transform="matrix(4.54958e-08 -1 -1 -4.1997e-08 98.5713 39.4297)" fill="#A1A1A1"/>
<rect width="4.92874" height="4.92877" transform="matrix(4.54958e-08 -1 -1 -4.1997e-08 4.92871 29.5703)" fill="#A1A1A1"/>
<rect width="4.92874" height="4.92877" transform="matrix(4.54958e-08 -1 -1 -4.1997e-08 276.001 29.5703)" fill="#A1A1A1"/>
<rect width="4.92874" height="4.92877" transform="matrix(4.54958e-08 -1 -1 -4.1997e-08 4.92871 108.43)" fill="#A1A1A1"/>
<rect width="4.92874" height="4.92877" transform="matrix(4.54958e-08 -1 -1 -4.1997e-08 276.001 108.43)" fill="#A1A1A1"/>
<rect width="4.92877" height="4.92874" transform="matrix(-1 -1.18098e-10 2.58964e-08 1 64.0713 0)" fill="#A1A1A1"/>
<rect width="4.92877" height="4.92874" transform="matrix(-1 -1.78413e-09 1.71418e-09 1 59.1426 271.07)" fill="#A1A1A1"/>
<rect width="4.92874" height="4.92877" transform="matrix(4.54958e-08 -1 -1 -4.1997e-08 4.92871 187.285)" fill="#A1A1A1"/>
<rect width="4.92874" height="4.92877" transform="matrix(4.54958e-08 -1 -1 -4.1997e-08 276.001 187.285)" fill="#A1A1A1"/>
<rect width="4.92877" height="4.92874" transform="matrix(-1 -1.18098e-10 2.58964e-08 1 142.929 0)" fill="#A1A1A1"/>
<rect width="4.92877" height="4.92874" transform="matrix(-1 -1.78413e-09 1.71418e-09 1 138 271.07)" fill="#A1A1A1"/>
<rect width="4.92874" height="4.92877" transform="matrix(4.54958e-08 -1 -1 -4.1997e-08 34.501 54.2188)" fill="#A1A1A1"/>
<rect width="4.92874" height="4.92877" transform="matrix(4.54958e-08 -1 -1 -4.1997e-08 118.286 54.2188)" fill="#A1A1A1"/>
<rect width="4.92874" height="4.92877" transform="matrix(4.54958e-08 -1 -1 -4.1997e-08 202.071 54.2188)" fill="#A1A1A1"/>
<rect width="4.92874" height="4.92877" transform="matrix(4.54958e-08 -1 -1 -4.1997e-08 202.071 138)" fill="#A1A1A1"/>
<rect width="4.92874" height="4.92877" transform="matrix(4.54958e-08 -1 -1 -4.1997e-08 118.286 138)" fill="#A1A1A1"/>
<rect width="4.92874" height="4.92877" transform="matrix(4.54958e-08 -1 -1 -4.1997e-08 34.501 138)" fill="#A1A1A1"/>
<rect width="4.92874" height="4.92877" transform="matrix(4.54958e-08 -1 -1 -4.1997e-08 34.501 226.715)" fill="#A1A1A1"/>
<rect width="4.92874" height="4.92877" transform="matrix(4.54958e-08 -1 -1 -4.1997e-08 118.286 226.715)" fill="#A1A1A1"/>
<rect width="4.92874" height="4.92877" transform="matrix(4.54958e-08 -1 -1 -4.1997e-08 202.071 226.715)" fill="#A1A1A1"/>
<rect width="4.92874" height="4.92877" transform="matrix(4.54958e-08 -1 -1 -4.1997e-08 78.8574 54.2188)" fill="#A1A1A1"/>
<rect width="4.92874" height="4.92877" transform="matrix(4.54958e-08 -1 -1 -4.1997e-08 162.643 54.2188)" fill="#A1A1A1"/>
<rect width="4.92874" height="4.92877" transform="matrix(4.54958e-08 -1 -1 -4.1997e-08 246.429 54.2188)" fill="#A1A1A1"/>
<rect width="4.92874" height="4.92877" transform="matrix(4.54958e-08 -1 -1 -4.1997e-08 246.429 138)" fill="#A1A1A1"/>
<rect width="4.92874" height="4.92877" transform="matrix(4.54958e-08 -1 -1 -4.1997e-08 162.643 138)" fill="#A1A1A1"/>
<rect width="4.92874" height="4.92877" transform="matrix(4.54958e-08 -1 -1 -4.1997e-08 78.8574 138)" fill="#A1A1A1"/>
<rect width="4.92874" height="4.92877" transform="matrix(4.54958e-08 -1 -1 -4.1997e-08 78.8574 226.715)" fill="#A1A1A1"/>
<rect width="4.92874" height="4.92877" transform="matrix(4.54958e-08 -1 -1 -4.1997e-08 162.643 226.715)" fill="#A1A1A1"/>
<rect width="4.92874" height="4.92877" transform="matrix(4.54958e-08 -1 -1 -4.1997e-08 246.429 226.715)" fill="#A1A1A1"/>
<rect width="4.92877" height="4.92874" transform="matrix(-1 -1.78413e-09 1.71418e-09 1 59.1426 29.5703)" fill="#A1A1A1"/>
<rect width="4.92877" height="4.92874" transform="matrix(-1 -1.78413e-09 1.71418e-09 1 142.929 29.5703)" fill="#A1A1A1"/>
<rect width="4.92877" height="4.92874" transform="matrix(-1 -1.78413e-09 1.71418e-09 1 226.715 29.5703)" fill="#A1A1A1"/>
<rect width="4.92877" height="4.92874" transform="matrix(-1 -1.78413e-09 1.71418e-09 1 226.715 113.359)" fill="#A1A1A1"/>
<rect width="4.92877" height="4.92874" transform="matrix(-1 -1.78413e-09 1.71418e-09 1 142.929 113.359)" fill="#A1A1A1"/>
<rect width="4.92877" height="4.92874" transform="matrix(-1 -1.78413e-09 1.71418e-09 1 59.1426 113.359)" fill="#A1A1A1"/>
<rect width="4.92877" height="4.92874" transform="matrix(-1 -1.78413e-09 1.71418e-09 1 59.1426 202.07)" fill="#A1A1A1"/>
<rect width="4.92877" height="4.92874" transform="matrix(-1 -1.78413e-09 1.71418e-09 1 142.929 202.07)" fill="#A1A1A1"/>
<rect width="4.92877" height="4.92874" transform="matrix(-1 -1.78413e-09 1.71418e-09 1 226.715 202.07)" fill="#A1A1A1"/>
<rect width="4.92874" height="4.92877" transform="matrix(4.54958e-08 -1 -1 -4.1997e-08 182.357 39.4297)" fill="#A1A1A1"/>
<rect width="4.92874" height="4.92877" transform="matrix(4.54958e-08 -1 -1 -4.1997e-08 182.357 261.219)" fill="#A1A1A1"/>
<rect width="4.92874" height="4.92877" transform="matrix(4.54958e-08 -1 -1 -4.1997e-08 98.5713 261.219)" fill="#A1A1A1"/>
<rect width="4.92877" height="4.92874" transform="matrix(-1 -1.78413e-09 1.71418e-09 1 64.0713 177.426)" fill="#A1A1A1"/>
<rect width="4.92874" height="4.92877" transform="matrix(4.54958e-08 -1 -1 -4.1997e-08 182.357 64.0703)" fill="#A1A1A1"/>
<rect width="4.92877" height="4.92874" transform="matrix(-1 -1.78413e-09 1.71418e-09 1 64.0713 93.6406)" fill="#A1A1A1"/>
<rect width="4.92874" height="4.92877" transform="matrix(4.54958e-08 -1 -1 -4.1997e-08 98.5713 113.359)" fill="#A1A1A1"/>
<rect width="4.92877" height="4.92874" transform="matrix(-1 -1.78413e-09 1.71418e-09 1 113.358 177.426)" fill="#A1A1A1"/>
<rect width="4.92874" height="4.92877" transform="matrix(4.54958e-08 -1 -1 -4.1997e-08 182.357 113.359)" fill="#A1A1A1"/>
<rect width="4.92877" height="4.92874" transform="matrix(-1 -1.78413e-09 1.71418e-09 1 113.358 93.6406)" fill="#A1A1A1"/>
<rect width="4.92874" height="4.92877" transform="matrix(4.54958e-08 -1 -1 -4.1997e-08 98.5713 162.641)" fill="#A1A1A1"/>
<rect width="4.92877" height="4.92874" transform="matrix(-1 -1.78413e-09 1.71418e-09 1 162.643 177.426)" fill="#A1A1A1"/>
<rect width="4.92874" height="4.92877" transform="matrix(4.54958e-08 -1 -1 -4.1997e-08 182.357 162.641)" fill="#A1A1A1"/>
<rect width="4.92877" height="4.92874" transform="matrix(-1 -1.78413e-09 1.71418e-09 1 162.643 93.6406)" fill="#A1A1A1"/>
<rect width="4.92874" height="4.92877" transform="matrix(4.54958e-08 -1 -1 -4.1997e-08 98.5713 211.93)" fill="#A1A1A1"/>
<rect width="4.92877" height="4.92874" transform="matrix(-1 -1.78413e-09 1.71418e-09 1 211.928 177.426)" fill="#A1A1A1"/>
<rect width="4.92874" height="4.92877" transform="matrix(4.54958e-08 -1 -1 -4.1997e-08 182.357 211.93)" fill="#A1A1A1"/>
<rect width="4.92877" height="4.92874" transform="matrix(-1 -1.78413e-09 1.71418e-09 1 211.928 93.6406)" fill="#A1A1A1"/>
<rect width="4.92874" height="4.92877" transform="matrix(4.54958e-08 -1 -1 -4.1997e-08 98.5713 69)" fill="#A1A1A1"/>
<rect width="4.92874" height="4.92877" transform="matrix(4.54958e-08 -1 -1 -4.1997e-08 4.92871 59.1406)" fill="#A1A1A1"/>
<rect width="4.92874" height="4.92877" transform="matrix(4.54958e-08 -1 -1 -4.1997e-08 276.001 59.1406)" fill="#A1A1A1"/>
<rect width="4.92877" height="4.92874" transform="matrix(-1 -1.18098e-10 2.58964e-08 1 14.7861 0)" fill="#A1A1A1"/>
<rect width="4.92877" height="4.92874" transform="matrix(-1 -1.78413e-09 1.71418e-09 1 9.8584 271.07)" fill="#A1A1A1"/>
<rect width="4.92874" height="4.92877" transform="matrix(4.54958e-08 -1 -1 -4.1997e-08 4.92871 138)" fill="#A1A1A1"/>
<rect width="4.92874" height="4.92877" transform="matrix(4.54958e-08 -1 -1 -4.1997e-08 276.001 138)" fill="#A1A1A1"/>
<rect width="4.92877" height="4.92874" transform="matrix(-1 -1.18098e-10 2.58964e-08 1 93.6436 0)" fill="#A1A1A1"/>
<rect width="4.92877" height="4.92874" transform="matrix(-1 -1.78413e-09 1.71418e-09 1 88.7148 271.07)" fill="#A1A1A1"/>
<rect width="4.92874" height="4.92877" transform="matrix(4.54958e-08 -1 -1 -4.1997e-08 4.92871 216.855)" fill="#A1A1A1"/>
<rect width="4.92874" height="4.92877" transform="matrix(4.54958e-08 -1 -1 -4.1997e-08 276.001 216.855)" fill="#A1A1A1"/>
<rect width="4.92877" height="4.92874" transform="matrix(-1 -1.18098e-10 2.58964e-08 1 172.5 0)" fill="#A1A1A1"/>
<rect width="4.92877" height="4.92874" transform="matrix(-1 -1.78413e-09 1.71418e-09 1 167.571 271.07)" fill="#A1A1A1"/>
<rect width="4.92877" height="4.92874" transform="matrix(-1 -1.78413e-09 1.71418e-09 1 69 177.426)" fill="#A1A1A1"/>
<rect width="4.92874" height="4.92877" transform="matrix(4.54958e-08 -1 -1 -4.1997e-08 182.357 69)" fill="#A1A1A1"/>
<rect width="4.92877" height="4.92874" transform="matrix(-1 -1.78413e-09 1.71418e-09 1 69 93.6406)" fill="#A1A1A1"/>
<rect width="4.92874" height="4.92877" transform="matrix(4.54958e-08 -1 -1 -4.1997e-08 98.5713 118.289)" fill="#A1A1A1"/>
<rect width="4.92877" height="4.92874" transform="matrix(-1 -1.78413e-09 1.71418e-09 1 118.286 177.426)" fill="#A1A1A1"/>
<rect width="4.92874" height="4.92877" transform="matrix(4.54958e-08 -1 -1 -4.1997e-08 182.357 118.289)" fill="#A1A1A1"/>
<rect width="4.92877" height="4.92874" transform="matrix(-1 -1.78413e-09 1.71418e-09 1 118.286 93.6406)" fill="#A1A1A1"/>
<rect width="4.92874" height="4.92877" transform="matrix(4.54958e-08 -1 -1 -4.1997e-08 98.5713 167.574)" fill="#A1A1A1"/>
<rect width="4.92877" height="4.92874" transform="matrix(-1 -1.78413e-09 1.71418e-09 1 167.571 177.426)" fill="#A1A1A1"/>
<rect width="4.92874" height="4.92877" transform="matrix(4.54958e-08 -1 -1 -4.1997e-08 182.357 167.574)" fill="#A1A1A1"/>
<rect width="4.92877" height="4.92874" transform="matrix(-1 -1.78413e-09 1.71418e-09 1 167.571 93.6406)" fill="#A1A1A1"/>
<rect width="4.92874" height="4.92877" transform="matrix(4.54958e-08 -1 -1 -4.1997e-08 98.5713 216.855)" fill="#A1A1A1"/>
<rect width="4.92877" height="4.92874" transform="matrix(-1 -1.78413e-09 1.71418e-09 1 216.857 177.426)" fill="#A1A1A1"/>
<rect width="4.92874" height="4.92877" transform="matrix(4.54958e-08 -1 -1 -4.1997e-08 182.357 216.855)" fill="#A1A1A1"/>
<rect width="4.92877" height="4.92874" transform="matrix(-1 -1.78413e-09 1.71418e-09 1 216.857 93.6406)" fill="#A1A1A1"/>
<rect width="4.92874" height="4.92877" transform="matrix(4.54958e-08 -1 -1 -4.1997e-08 98.5713 73.9297)" fill="#A1A1A1"/>
<rect width="4.92874" height="4.92877" transform="matrix(4.54958e-08 -1 -1 -4.1997e-08 4.92871 64.0703)" fill="#A1A1A1"/>
<rect width="4.92874" height="4.92877" transform="matrix(4.54958e-08 -1 -1 -4.1997e-08 276.001 64.0703)" fill="#A1A1A1"/>
<rect width="4.92877" height="4.92874" transform="matrix(-1 -1.18098e-10 2.58964e-08 1 19.7158 0)" fill="#A1A1A1"/>
<rect width="4.92877" height="4.92874" transform="matrix(-1 -1.78413e-09 1.71418e-09 1 14.7861 271.07)" fill="#A1A1A1"/>
<rect width="4.92874" height="4.92877" transform="matrix(4.54958e-08 -1 -1 -4.1997e-08 4.92871 142.93)" fill="#A1A1A1"/>
<rect width="4.92874" height="4.92877" transform="matrix(4.54958e-08 -1 -1 -4.1997e-08 276.001 142.93)" fill="#A1A1A1"/>
<rect width="4.92877" height="4.92874" transform="matrix(-1 -1.18098e-10 2.58964e-08 1 98.5713 0)" fill="#A1A1A1"/>
<rect width="4.92877" height="4.92874" transform="matrix(-1 -1.78413e-09 1.71418e-09 1 93.6436 271.07)" fill="#A1A1A1"/>
<rect width="4.92874" height="4.92877" transform="matrix(4.54958e-08 -1 -1 -4.1997e-08 4.92871 221.789)" fill="#A1A1A1"/>
<rect width="4.92874" height="4.92877" transform="matrix(4.54958e-08 -1 -1 -4.1997e-08 276.001 221.789)" fill="#A1A1A1"/>
<rect width="4.92877" height="4.92874" transform="matrix(-1 -1.18098e-10 2.58964e-08 1 177.429 0)" fill="#A1A1A1"/>
<rect width="4.92877" height="4.92874" transform="matrix(-1 -1.78413e-09 1.71418e-09 1 172.5 271.07)" fill="#A1A1A1"/>
<rect width="4.92874" height="4.92877" transform="matrix(4.54958e-08 -1 -1 -4.1997e-08 4.92871 246.426)" fill="#A1A1A1"/>
<rect width="4.92874" height="4.92877" transform="matrix(4.54958e-08 -1 -1 -4.1997e-08 276.001 246.426)" fill="#A1A1A1"/>
<rect width="4.92877" height="4.92874" transform="matrix(-1 -1.18098e-10 2.58964e-08 1 202.071 0)" fill="#A1A1A1"/>
<rect width="4.92877" height="4.92874" transform="matrix(-1 -1.78413e-09 1.71418e-09 1 197.144 271.07)" fill="#A1A1A1"/>
<rect width="4.92877" height="4.92874" transform="matrix(-1 -1.18098e-10 2.58964e-08 1 241.5 0)" fill="#A1A1A1"/>
<rect width="4.92877" height="4.92874" transform="matrix(-1 -1.78413e-09 1.71418e-09 1 236.571 271.07)" fill="#A1A1A1"/>
<rect width="4.92877" height="4.92874" transform="matrix(-1 -1.78413e-09 1.71418e-09 1 73.9287 177.426)" fill="#A1A1A1"/>
<rect width="4.92874" height="4.92877" transform="matrix(4.54958e-08 -1 -1 -4.1997e-08 182.357 73.9297)" fill="#A1A1A1"/>
<rect width="4.92877" height="4.92874" transform="matrix(-1 -1.78413e-09 1.71418e-09 1 73.9287 93.6406)" fill="#A1A1A1"/>
<rect width="4.92874" height="4.92877" transform="matrix(4.54958e-08 -1 -1 -4.1997e-08 98.5713 123.215)" fill="#A1A1A1"/>
<rect width="4.92877" height="4.92874" transform="matrix(-1 -1.78413e-09 1.71418e-09 1 123.216 177.426)" fill="#A1A1A1"/>
<rect width="4.92874" height="4.92877" transform="matrix(4.54958e-08 -1 -1 -4.1997e-08 182.357 123.215)" fill="#A1A1A1"/>
<rect width="4.92877" height="4.92874" transform="matrix(-1 -1.78413e-09 1.71418e-09 1 123.216 93.6406)" fill="#A1A1A1"/>
<rect width="4.92874" height="4.92877" transform="matrix(4.54958e-08 -1 -1 -4.1997e-08 98.5713 172.5)" fill="#A1A1A1"/>
<rect width="4.92877" height="4.92874" transform="matrix(-1 -1.78413e-09 1.71418e-09 1 172.5 177.426)" fill="#A1A1A1"/>
<rect width="4.92874" height="4.92877" transform="matrix(4.54958e-08 -1 -1 -4.1997e-08 182.357 172.5)" fill="#A1A1A1"/>
<rect width="4.92877" height="4.92874" transform="matrix(-1 -1.78413e-09 1.71418e-09 1 172.5 93.6406)" fill="#A1A1A1"/>
<rect width="4.92874" height="4.92877" transform="matrix(4.54958e-08 -1 -1 -4.1997e-08 98.5713 221.789)" fill="#A1A1A1"/>
<rect width="4.92877" height="4.92874" transform="matrix(-1 -1.78413e-09 1.71418e-09 1 221.785 177.426)" fill="#A1A1A1"/>
<rect width="4.92874" height="4.92877" transform="matrix(4.54958e-08 -1 -1 -4.1997e-08 182.357 221.789)" fill="#A1A1A1"/>
<rect width="4.92877" height="4.92874" transform="matrix(-1 -1.78413e-09 1.71418e-09 1 221.785 93.6406)" fill="#A1A1A1"/>
<rect width="4.92874" height="4.92877" transform="matrix(4.54958e-08 -1 -1 -4.1997e-08 98.5713 78.8594)" fill="#A1A1A1"/>
<rect width="4.92874" height="4.92877" transform="matrix(4.54958e-08 -1 -1 -4.1997e-08 4.92871 69)" fill="#A1A1A1"/>
<rect width="4.92874" height="4.92877" transform="matrix(4.54958e-08 -1 -1 -4.1997e-08 276.001 69)" fill="#A1A1A1"/>
<rect width="4.92877" height="4.92874" transform="matrix(-1 -1.18098e-10 2.58964e-08 1 24.6436 0)" fill="#A1A1A1"/>
<rect width="4.92877" height="4.92874" transform="matrix(-1 -1.78413e-09 1.71418e-09 1 19.7158 271.07)" fill="#A1A1A1"/>
<rect width="4.92874" height="4.92877" transform="matrix(4.54958e-08 -1 -1 -4.1997e-08 4.92871 147.859)" fill="#A1A1A1"/>
<rect width="4.92874" height="4.92877" transform="matrix(4.54958e-08 -1 -1 -4.1997e-08 276.001 147.859)" fill="#A1A1A1"/>
<rect width="4.92877" height="4.92874" transform="matrix(-1 -1.18098e-10 2.58964e-08 1 103.501 0)" fill="#A1A1A1"/>
<rect width="4.92877" height="4.92874" transform="matrix(-1 -1.78413e-09 1.71418e-09 1 98.5713 271.07)" fill="#A1A1A1"/>
<rect width="4.92874" height="4.92877" transform="matrix(4.54958e-08 -1 -1 -4.1997e-08 4.92871 226.715)" fill="#A1A1A1"/>
<rect width="4.92874" height="4.92877" transform="matrix(4.54958e-08 -1 -1 -4.1997e-08 276.001 226.715)" fill="#A1A1A1"/>
<rect width="4.92877" height="4.92874" transform="matrix(-1 -1.18098e-10 2.58964e-08 1 182.357 0)" fill="#A1A1A1"/>
<rect width="4.92877" height="4.92874" transform="matrix(-1 -1.78413e-09 1.71418e-09 1 177.429 271.07)" fill="#A1A1A1"/>
<rect width="4.92874" height="4.92877" transform="matrix(4.54958e-08 -1 -1 -4.1997e-08 4.92871 251.359)" fill="#A1A1A1"/>
<rect width="4.92874" height="4.92877" transform="matrix(4.54958e-08 -1 -1 -4.1997e-08 276.001 251.359)" fill="#A1A1A1"/>
<rect width="4.92877" height="4.92874" transform="matrix(-1 -1.18098e-10 2.58964e-08 1 207 0)" fill="#A1A1A1"/>
<rect width="4.92877" height="4.92874" transform="matrix(-1 -1.78413e-09 1.71418e-09 1 202.071 271.07)" fill="#A1A1A1"/>
<rect width="4.92877" height="4.92874" transform="matrix(-1 -1.18098e-10 2.58964e-08 1 246.429 0)" fill="#A1A1A1"/>
<rect width="4.92877" height="4.92874" transform="matrix(-1 -1.78413e-09 1.71418e-09 1 241.5 271.07)" fill="#A1A1A1"/>
<rect width="4.92877" height="4.92874" transform="matrix(-1 -1.78413e-09 1.71418e-09 1 78.8574 177.426)" fill="#A1A1A1"/>
<rect width="4.92874" height="4.92877" transform="matrix(4.54958e-08 -1 -1 -4.1997e-08 182.357 78.8594)" fill="#A1A1A1"/>
<rect width="4.92877" height="4.92874" transform="matrix(-1 -1.78413e-09 1.71418e-09 1 78.8574 93.6406)" fill="#A1A1A1"/>
<rect width="4.92874" height="4.92877" transform="matrix(4.54958e-08 -1 -1 -4.1997e-08 98.5713 128.145)" fill="#A1A1A1"/>
<rect width="4.92877" height="4.92874" transform="matrix(-1 -1.78413e-09 1.71418e-09 1 128.143 177.426)" fill="#A1A1A1"/>
<rect width="4.92874" height="4.92877" transform="matrix(4.54958e-08 -1 -1 -4.1997e-08 182.357 128.145)" fill="#A1A1A1"/>
<rect width="4.92877" height="4.92874" transform="matrix(-1 -1.78413e-09 1.71418e-09 1 128.143 93.6406)" fill="#A1A1A1"/>
<rect width="4.92874" height="4.92877" transform="matrix(4.54958e-08 -1 -1 -4.1997e-08 98.5713 177.426)" fill="#A1A1A1"/>
<rect width="4.92877" height="4.92874" transform="matrix(-1 -1.78413e-09 1.71418e-09 1 177.429 177.426)" fill="#A1A1A1"/>
<rect width="4.92874" height="4.92877" transform="matrix(4.54958e-08 -1 -1 -4.1997e-08 182.357 177.426)" fill="#A1A1A1"/>
<rect width="4.92877" height="4.92874" transform="matrix(-1 -1.78413e-09 1.71418e-09 1 177.429 93.6406)" fill="#A1A1A1"/>
<rect width="4.92874" height="4.92877" transform="matrix(4.54958e-08 -1 -1 -4.1997e-08 98.5713 226.715)" fill="#A1A1A1"/>
<rect width="4.92877" height="4.92874" transform="matrix(-1 -1.78413e-09 1.71418e-09 1 226.715 177.426)" fill="#A1A1A1"/>
<rect width="4.92874" height="4.92877" transform="matrix(4.54958e-08 -1 -1 -4.1997e-08 182.357 226.715)" fill="#A1A1A1"/>
<rect width="4.92877" height="4.92874" transform="matrix(-1 -1.78413e-09 1.71418e-09 1 226.715 93.6406)" fill="#A1A1A1"/>
<rect width="4.92874" height="4.92877" transform="matrix(4.54958e-08 -1 -1 -4.1997e-08 98.5713 88.7188)" fill="#A1A1A1"/>
<rect width="4.92874" height="4.92877" transform="matrix(4.54958e-08 -1 -1 -4.1997e-08 4.92871 78.8594)" fill="#A1A1A1"/>
<rect width="4.92874" height="4.92877" transform="matrix(4.54958e-08 -1 -1 -4.1997e-08 276.001 78.8594)" fill="#A1A1A1"/>
<rect width="4.92877" height="4.92874" transform="matrix(-1 -1.18098e-10 2.58964e-08 1 34.501 0)" fill="#A1A1A1"/>
<rect width="4.92877" height="4.92874" transform="matrix(-1 -1.78413e-09 1.71418e-09 1 29.5723 271.07)" fill="#A1A1A1"/>
<rect width="4.92874" height="4.92877" transform="matrix(4.54958e-08 -1 -1 -4.1997e-08 4.92871 157.719)" fill="#A1A1A1"/>
<rect width="4.92874" height="4.92877" transform="matrix(4.54958e-08 -1 -1 -4.1997e-08 276.001 157.719)" fill="#A1A1A1"/>
<rect width="4.92877" height="4.92874" transform="matrix(-1 -1.18098e-10 2.58964e-08 1 113.358 0)" fill="#A1A1A1"/>
<rect width="4.92877" height="4.92874" transform="matrix(-1 -1.78413e-09 1.71418e-09 1 108.429 271.07)" fill="#A1A1A1"/>
<rect width="4.92874" height="4.92877" transform="matrix(4.54958e-08 -1 -1 -4.1997e-08 4.92871 236.57)" fill="#A1A1A1"/>
<rect width="4.92874" height="4.92877" transform="matrix(4.54958e-08 -1 -1 -4.1997e-08 276.001 236.57)" fill="#A1A1A1"/>
<rect width="4.92877" height="4.92874" transform="matrix(-1 -1.18098e-10 2.58964e-08 1 192.215 0)" fill="#A1A1A1"/>
<rect width="4.92877" height="4.92874" transform="matrix(-1 -1.78413e-09 1.71418e-09 1 187.286 271.07)" fill="#A1A1A1"/>
<rect width="4.92877" height="4.92874" transform="matrix(-1 -1.18098e-10 2.58964e-08 1 231.643 0)" fill="#A1A1A1"/>
<rect width="4.92877" height="4.92874" transform="matrix(-1 -1.78413e-09 1.71418e-09 1 226.715 271.07)" fill="#A1A1A1"/>
<rect width="4.92874" height="4.92877" transform="matrix(4.54958e-08 -1 -1 -4.1997e-08 4.92871 261.219)" fill="#A1A1A1"/>
<rect width="4.92874" height="4.92877" transform="matrix(4.54958e-08 -1 -1 -4.1997e-08 276.001 261.219)" fill="#A1A1A1"/>
<rect width="4.92877" height="4.92874" transform="matrix(-1 -1.18098e-10 2.58964e-08 1 216.857 0)" fill="#A1A1A1"/>
<rect width="4.92877" height="4.92874" transform="matrix(-1 -1.78413e-09 1.71418e-09 1 211.928 271.07)" fill="#A1A1A1"/>
<rect width="4.92877" height="4.92874" transform="matrix(-1 -1.18098e-10 2.58964e-08 1 256.286 0)" fill="#A1A1A1"/>
<rect width="4.92877" height="4.92874" transform="matrix(-1 -1.78413e-09 1.71418e-09 1 251.357 271.07)" fill="#A1A1A1"/>
<rect width="4.92877" height="4.92874" transform="matrix(-1 -1.78413e-09 1.71418e-09 1 88.7148 177.426)" fill="#A1A1A1"/>
<rect width="4.92874" height="4.92877" transform="matrix(4.54958e-08 -1 -1 -4.1997e-08 182.357 88.7188)" fill="#A1A1A1"/>
<rect width="4.92877" height="4.92874" transform="matrix(-1 -1.78413e-09 1.71418e-09 1 88.7148 93.6406)" fill="#A1A1A1"/>
<rect width="4.92874" height="4.92877" transform="matrix(4.54958e-08 -1 -1 -4.1997e-08 98.5713 138)" fill="#A1A1A1"/>
<rect width="4.92877" height="4.92874" transform="matrix(-1 -1.78413e-09 1.71418e-09 1 138 177.426)" fill="#A1A1A1"/>
<rect width="4.92874" height="4.92877" transform="matrix(4.54958e-08 -1 -1 -4.1997e-08 182.357 138)" fill="#A1A1A1"/>
<rect width="4.92877" height="4.92874" transform="matrix(-1 -1.78413e-09 1.71418e-09 1 138 93.6406)" fill="#A1A1A1"/>
<rect width="4.92874" height="4.92877" transform="matrix(4.54958e-08 -1 -1 -4.1997e-08 98.5713 187.285)" fill="#A1A1A1"/>
<rect width="4.92877" height="4.92874" transform="matrix(-1 -1.78413e-09 1.71418e-09 1 187.286 177.426)" fill="#A1A1A1"/>
<rect width="4.92874" height="4.92877" transform="matrix(4.54958e-08 -1 -1 -4.1997e-08 182.357 187.285)" fill="#A1A1A1"/>
<rect width="4.92877" height="4.92874" transform="matrix(-1 -1.78413e-09 1.71418e-09 1 187.286 93.6406)" fill="#A1A1A1"/>
<rect width="4.92874" height="4.92877" transform="matrix(4.54958e-08 -1 -1 -4.1997e-08 98.5713 236.57)" fill="#A1A1A1"/>
<rect width="4.92877" height="4.92874" transform="matrix(-1 -1.78413e-09 1.71418e-09 1 236.571 177.426)" fill="#A1A1A1"/>
<rect width="4.92874" height="4.92877" transform="matrix(4.54958e-08 -1 -1 -4.1997e-08 182.357 236.57)" fill="#A1A1A1"/>
<rect width="4.92877" height="4.92874" transform="matrix(-1 -1.78413e-09 1.71418e-09 1 236.571 93.6406)" fill="#A1A1A1"/>
<rect width="4.92877" height="4.92874" transform="matrix(-1 -1.78413e-09 1.71418e-09 1 241.5 93.6406)" fill="#A1A1A1"/>
<rect width="4.92877" height="4.92874" transform="matrix(-1 -1.78413e-09 1.71418e-09 1 241.5 177.426)" fill="#A1A1A1"/>
<rect width="4.92877" height="4.92874" transform="matrix(-1 -1.78413e-09 1.71418e-09 1 39.4287 93.6406)" fill="#A1A1A1"/>
<rect width="4.92877" height="4.92874" transform="matrix(-1 -1.78413e-09 1.71418e-09 1 39.4287 177.426)" fill="#A1A1A1"/>
<rect width="4.92877" height="4.92874" transform="matrix(-1 -1.78413e-09 1.71418e-09 1 24.6436 177.426)" fill="#A1A1A1"/>
<rect width="4.92877" height="4.92874" transform="matrix(-1 -1.78413e-09 1.71418e-09 1 24.6436 93.6406)" fill="#A1A1A1"/>
<rect width="4.92877" height="4.92874" transform="matrix(-1 -1.78413e-09 1.71418e-09 1 246.429 93.6406)" fill="#A1A1A1"/>
<rect width="4.92877" height="4.92874" transform="matrix(-1 -1.78413e-09 1.71418e-09 1 246.429 177.426)" fill="#A1A1A1"/>
<rect width="4.92874" height="4.92877" transform="matrix(4.54958e-08 -1 -1 -4.1997e-08 98.5713 83.7852)" fill="#A1A1A1"/>
<rect width="4.92874" height="4.92877" transform="matrix(4.54958e-08 -1 -1 -4.1997e-08 4.92871 73.9297)" fill="#A1A1A1"/>
<rect width="4.92874" height="4.92877" transform="matrix(4.54958e-08 -1 -1 -4.1997e-08 276.001 73.9297)" fill="#A1A1A1"/>
<rect width="4.92877" height="4.92874" transform="matrix(-1 -1.18098e-10 2.58964e-08 1 29.5723 0)" fill="#A1A1A1"/>
<rect width="4.92877" height="4.92874" transform="matrix(-1 -1.78413e-09 1.71418e-09 1 24.6436 271.07)" fill="#A1A1A1"/>
<rect width="4.92874" height="4.92877" transform="matrix(4.54958e-08 -1 -1 -4.1997e-08 4.92871 152.785)" fill="#A1A1A1"/>
<rect width="4.92874" height="4.92877" transform="matrix(4.54958e-08 -1 -1 -4.1997e-08 276.001 152.785)" fill="#A1A1A1"/>
<rect width="4.92877" height="4.92874" transform="matrix(-1 -1.18098e-10 2.58964e-08 1 108.429 0)" fill="#A1A1A1"/>
<rect width="4.92877" height="4.92874" transform="matrix(-1 -1.78413e-09 1.71418e-09 1 103.501 271.07)" fill="#A1A1A1"/>
<rect width="4.92874" height="4.92877" transform="matrix(4.54958e-08 -1 -1 -4.1997e-08 4.92871 231.641)" fill="#A1A1A1"/>
<rect width="4.92874" height="4.92877" transform="matrix(4.54958e-08 -1 -1 -4.1997e-08 276.001 231.641)" fill="#A1A1A1"/>
<rect width="4.92877" height="4.92874" transform="matrix(-1 -1.18098e-10 2.58964e-08 1 187.286 0)" fill="#A1A1A1"/>
<rect width="4.92877" height="4.92874" transform="matrix(-1 -1.78413e-09 1.71418e-09 1 182.357 271.07)" fill="#A1A1A1"/>
<rect width="4.92877" height="4.92874" transform="matrix(-1 -1.18098e-10 2.58964e-08 1 226.715 0)" fill="#A1A1A1"/>
<rect width="4.92877" height="4.92874" transform="matrix(-1 -1.78413e-09 1.71418e-09 1 221.785 271.07)" fill="#A1A1A1"/>
<rect width="4.92874" height="4.92877" transform="matrix(4.54958e-08 -1 -1 -4.1997e-08 4.92871 256.285)" fill="#A1A1A1"/>
<rect width="4.92874" height="4.92877" transform="matrix(4.54958e-08 -1 -1 -4.1997e-08 276.001 256.285)" fill="#A1A1A1"/>
<rect width="4.92877" height="4.92874" transform="matrix(-1 -1.18098e-10 2.58964e-08 1 211.928 0)" fill="#A1A1A1"/>
<rect width="4.92877" height="4.92874" transform="matrix(-1 -1.78413e-09 1.71418e-09 1 207 271.07)" fill="#A1A1A1"/>
<rect width="4.92877" height="4.92874" transform="matrix(-1 -1.18098e-10 2.58964e-08 1 251.357 0)" fill="#A1A1A1"/>
<rect width="4.92877" height="4.92874" transform="matrix(-1 -1.78413e-09 1.71418e-09 1 246.429 271.07)" fill="#A1A1A1"/>
<rect width="4.92877" height="4.92874" transform="matrix(-1 -1.78413e-09 1.71418e-09 1 83.7861 177.426)" fill="#A1A1A1"/>
<rect width="4.92874" height="4.92877" transform="matrix(4.54958e-08 -1 -1 -4.1997e-08 182.357 83.7852)" fill="#A1A1A1"/>
<rect width="4.92877" height="4.92874" transform="matrix(-1 -1.78413e-09 1.71418e-09 1 83.7861 93.6406)" fill="#A1A1A1"/>
<rect width="4.92874" height="4.92877" transform="matrix(4.54958e-08 -1 -1 -4.1997e-08 98.5713 133.07)" fill="#A1A1A1"/>
<rect width="4.92877" height="4.92874" transform="matrix(-1 -1.78413e-09 1.71418e-09 1 133.071 177.426)" fill="#A1A1A1"/>
<rect width="4.92874" height="4.92877" transform="matrix(4.54958e-08 -1 -1 -4.1997e-08 182.357 133.07)" fill="#A1A1A1"/>
<rect width="4.92877" height="4.92874" transform="matrix(-1 -1.78413e-09 1.71418e-09 1 133.071 93.6406)" fill="#A1A1A1"/>
<rect width="4.92874" height="4.92877" transform="matrix(4.54958e-08 -1 -1 -4.1997e-08 98.5713 182.359)" fill="#A1A1A1"/>
<rect width="4.92877" height="4.92874" transform="matrix(-1 -1.78413e-09 1.71418e-09 1 182.357 177.426)" fill="#A1A1A1"/>
<rect width="4.92874" height="4.92877" transform="matrix(4.54958e-08 -1 -1 -4.1997e-08 182.357 182.359)" fill="#A1A1A1"/>
<rect width="4.92877" height="4.92874" transform="matrix(-1 -1.78413e-09 1.71418e-09 1 182.357 93.6406)" fill="#A1A1A1"/>
<rect width="4.92874" height="4.92877" transform="matrix(4.54958e-08 -1 -1 -4.1997e-08 98.5713 231.641)" fill="#A1A1A1"/>
<rect width="4.92877" height="4.92874" transform="matrix(-1 -1.78413e-09 1.71418e-09 1 231.643 177.426)" fill="#A1A1A1"/>
<rect width="4.92874" height="4.92877" transform="matrix(4.54958e-08 -1 -1 -4.1997e-08 182.357 231.641)" fill="#A1A1A1"/>
<rect width="4.92877" height="4.92874" transform="matrix(-1 -1.78413e-09 1.71418e-09 1 231.643 93.6406)" fill="#A1A1A1"/>
</svg>
