<svg width="272" height="272" viewBox="0 0 272 272" fill="none" xmlns="http://www.w3.org/2000/svg">
<rect x="5.55078" width="5.55102" height="5.55102" transform="rotate(90 5.55078 0)" fill="#A1A1A1"/>
<rect x="11.1011" width="5.55102" height="5.55102" transform="rotate(90 11.1011 0)" fill="#A1A1A1"/>
<rect x="55.5083" width="5.55102" height="5.55102" transform="rotate(90 55.5083 0)" fill="#A1A1A1"/>
<rect x="99.9268" width="5.55102" height="5.55102" transform="rotate(90 99.9268 0)" fill="#A1A1A1"/>
<rect x="144.334" width="5.55102" height="5.55102" transform="rotate(90 144.334 0)" fill="#A1A1A1"/>
<rect x="188.742" width="5.55102" height="5.55102" transform="rotate(90 188.742 0)" fill="#A1A1A1"/>
<rect x="233.148" width="5.55102" height="5.55102" transform="rotate(90 233.148 0)" fill="#A1A1A1"/>
<rect x="16.6528" width="5.55102" height="5.55102" transform="rotate(90 16.6528 0)" fill="#A1A1A1"/>
<rect x="61.0596" width="5.55102" height="5.55102" transform="rotate(90 61.0596 0)" fill="#A1A1A1"/>
<rect x="105.479" width="5.55102" height="5.55102" transform="rotate(90 105.479 0)" fill="#A1A1A1"/>
<rect x="149.885" width="5.55102" height="5.55102" transform="rotate(90 149.885 0)" fill="#A1A1A1"/>
<rect x="194.292" width="5.55102" height="5.55102" transform="rotate(90 194.292 0)" fill="#A1A1A1"/>
<rect x="238.699" width="5.55102" height="5.55102" transform="rotate(90 238.699 0)" fill="#A1A1A1"/>
<rect x="22.2036" width="5.55102" height="5.55102" transform="rotate(90 22.2036 0)" fill="#A1A1A1"/>
<rect x="66.6221" width="5.55102" height="5.55102" transform="rotate(90 66.6221 0)" fill="#A1A1A1"/>
<rect x="111.029" width="5.55102" height="5.55102" transform="rotate(90 111.029 0)" fill="#A1A1A1"/>
<rect x="155.436" width="5.55102" height="5.55102" transform="rotate(90 155.436 0)" fill="#A1A1A1"/>
<rect x="199.843" width="5.55102" height="5.55102" transform="rotate(90 199.843 0)" fill="#A1A1A1"/>
<rect x="244.25" width="5.55102" height="5.55102" transform="rotate(90 244.25 0)" fill="#A1A1A1"/>
<rect x="27.7539" width="5.55102" height="5.55102" transform="rotate(90 27.7539 0)" fill="#A1A1A1"/>
<rect x="72.1729" width="5.55102" height="5.55102" transform="rotate(90 72.1729 0)" fill="#A1A1A1"/>
<rect x="116.58" width="5.55102" height="5.55102" transform="rotate(90 116.58 0)" fill="#A1A1A1"/>
<rect x="160.986" width="5.55102" height="5.55102" transform="rotate(90 160.986 0)" fill="#A1A1A1"/>
<rect x="205.394" width="5.55102" height="5.55102" transform="rotate(90 205.394 0)" fill="#A1A1A1"/>
<rect x="249.8" width="5.55102" height="5.55102" transform="rotate(90 249.8 0)" fill="#A1A1A1"/>
<rect x="33.3047" width="5.55102" height="5.55102" transform="rotate(90 33.3047 0)" fill="#A1A1A1"/>
<rect x="77.7231" width="5.55102" height="5.55102" transform="rotate(90 77.7231 0)" fill="#A1A1A1"/>
<rect x="122.13" width="5.55102" height="5.55102" transform="rotate(90 122.13 0)" fill="#A1A1A1"/>
<rect x="166.538" width="5.55102" height="5.55102" transform="rotate(90 166.538 0)" fill="#A1A1A1"/>
<rect x="210.945" width="5.55102" height="5.55102" transform="rotate(90 210.945 0)" fill="#A1A1A1"/>
<rect x="255.352" width="5.55102" height="5.55102" transform="rotate(90 255.352 0)" fill="#A1A1A1"/>
<rect x="49.9575" width="5.55102" height="5.55102" transform="rotate(90 49.9575 0)" fill="#A1A1A1"/>
<rect x="94.376" width="5.55102" height="5.55102" transform="rotate(90 94.376 0)" fill="#A1A1A1"/>
<rect x="138.783" width="5.55102" height="5.55102" transform="rotate(90 138.783 0)" fill="#A1A1A1"/>
<rect x="183.19" width="5.55102" height="5.55102" transform="rotate(90 183.19 0)" fill="#A1A1A1"/>
<rect x="227.597" width="5.55102" height="5.55102" transform="rotate(90 227.597 0)" fill="#A1A1A1"/>
<rect x="272.004" width="5.55102" height="5.55102" transform="rotate(90 272.004 0)" fill="#A1A1A1"/>
<rect x="5.55078" y="33.3047" width="5.55102" height="5.55102" transform="rotate(-180 5.55078 33.3047)" fill="#A1A1A1"/>
<rect x="5.55078" y="77.7109" width="5.55102" height="5.55102" transform="rotate(-180 5.55078 77.7109)" fill="#A1A1A1"/>
<rect x="5.55078" y="122.125" width="5.55102" height="5.55102" transform="rotate(-180 5.55078 122.125)" fill="#A1A1A1"/>
<rect x="5.55078" y="166.531" width="5.55102" height="5.55102" transform="rotate(-180 5.55078 166.531)" fill="#A1A1A1"/>
<rect x="5.55078" y="210.938" width="5.55102" height="5.55102" transform="rotate(-180 5.55078 210.938)" fill="#A1A1A1"/>
<rect x="5.55078" y="255.344" width="5.55102" height="5.55102" transform="rotate(-180 5.55078 255.344)" fill="#A1A1A1"/>
<rect x="49.9575" y="33.3047" width="5.55102" height="5.55102" transform="rotate(-180 49.9575 33.3047)" fill="#A1A1A1"/>
<rect x="49.9575" y="77.7109" width="5.55102" height="5.55102" transform="rotate(-180 49.9575 77.7109)" fill="#A1A1A1"/>
<rect x="49.9575" y="122.125" width="5.55102" height="5.55102" transform="rotate(-180 49.9575 122.125)" fill="#A1A1A1"/>
<rect x="49.9575" y="166.531" width="5.55102" height="5.55102" transform="rotate(-180 49.9575 166.531)" fill="#A1A1A1"/>
<rect x="49.9575" y="210.938" width="5.55102" height="5.55102" transform="rotate(-180 49.9575 210.938)" fill="#A1A1A1"/>
<rect x="49.9575" y="255.344" width="5.55102" height="5.55102" transform="rotate(-180 49.9575 255.344)" fill="#A1A1A1"/>
<rect x="94.376" y="33.3047" width="5.55102" height="5.55102" transform="rotate(-180 94.376 33.3047)" fill="#A1A1A1"/>
<rect x="94.376" y="77.7109" width="5.55102" height="5.55102" transform="rotate(-180 94.376 77.7109)" fill="#A1A1A1"/>
<rect x="94.376" y="122.125" width="5.55102" height="5.55102" transform="rotate(-180 94.376 122.125)" fill="#A1A1A1"/>
<rect x="94.376" y="166.531" width="5.55102" height="5.55102" transform="rotate(-180 94.376 166.531)" fill="#A1A1A1"/>
<rect x="94.376" y="210.938" width="5.55102" height="5.55102" transform="rotate(-180 94.376 210.938)" fill="#A1A1A1"/>
<rect x="94.376" y="255.344" width="5.55102" height="5.55102" transform="rotate(-180 94.376 255.344)" fill="#A1A1A1"/>
<rect x="138.783" y="33.3047" width="5.55102" height="5.55102" transform="rotate(-180 138.783 33.3047)" fill="#A1A1A1"/>
<rect x="138.783" y="77.7109" width="5.55102" height="5.55102" transform="rotate(-180 138.783 77.7109)" fill="#A1A1A1"/>
<rect x="138.783" y="122.125" width="5.55102" height="5.55102" transform="rotate(-180 138.783 122.125)" fill="#A1A1A1"/>
<rect x="138.783" y="166.531" width="5.55102" height="5.55102" transform="rotate(-180 138.783 166.531)" fill="#A1A1A1"/>
<rect x="138.783" y="210.938" width="5.55102" height="5.55102" transform="rotate(-180 138.783 210.938)" fill="#A1A1A1"/>
<rect x="138.783" y="255.344" width="5.55102" height="5.55102" transform="rotate(-180 138.783 255.344)" fill="#A1A1A1"/>
<rect x="183.19" y="33.3047" width="5.55102" height="5.55102" transform="rotate(-180 183.19 33.3047)" fill="#A1A1A1"/>
<rect x="183.19" y="77.7109" width="5.55102" height="5.55102" transform="rotate(-180 183.19 77.7109)" fill="#A1A1A1"/>
<rect x="183.19" y="122.125" width="5.55102" height="5.55102" transform="rotate(-180 183.19 122.125)" fill="#A1A1A1"/>
<rect x="183.19" y="166.531" width="5.55102" height="5.55102" transform="rotate(-180 183.19 166.531)" fill="#A1A1A1"/>
<rect x="183.19" y="210.938" width="5.55102" height="5.55102" transform="rotate(-180 183.19 210.938)" fill="#A1A1A1"/>
<rect x="183.19" y="255.344" width="5.55102" height="5.55102" transform="rotate(-180 183.19 255.344)" fill="#A1A1A1"/>
<rect x="227.597" y="33.3047" width="5.55102" height="5.55102" transform="rotate(-180 227.597 33.3047)" fill="#A1A1A1"/>
<rect x="227.597" y="77.7109" width="5.55102" height="5.55102" transform="rotate(-180 227.597 77.7109)" fill="#A1A1A1"/>
<rect x="227.597" y="122.125" width="5.55102" height="5.55102" transform="rotate(-180 227.597 122.125)" fill="#A1A1A1"/>
<rect x="227.597" y="166.531" width="5.55102" height="5.55102" transform="rotate(-180 227.597 166.531)" fill="#A1A1A1"/>
<rect x="227.597" y="210.938" width="5.55102" height="5.55102" transform="rotate(-180 227.597 210.938)" fill="#A1A1A1"/>
<rect x="227.597" y="255.344" width="5.55102" height="5.55102" transform="rotate(-180 227.597 255.344)" fill="#A1A1A1"/>
<rect x="272.004" y="33.3047" width="5.55102" height="5.55102" transform="rotate(-180 272.004 33.3047)" fill="#A1A1A1"/>
<rect x="272.004" y="77.7109" width="5.55102" height="5.55102" transform="rotate(-180 272.004 77.7109)" fill="#A1A1A1"/>
<rect x="272.004" y="122.125" width="5.55102" height="5.55102" transform="rotate(-180 272.004 122.125)" fill="#A1A1A1"/>
<rect x="272.004" y="166.531" width="5.55102" height="5.55102" transform="rotate(-180 272.004 166.531)" fill="#A1A1A1"/>
<rect x="272.004" y="210.938" width="5.55102" height="5.55102" transform="rotate(-180 272.004 210.938)" fill="#A1A1A1"/>
<rect x="272.004" y="255.344" width="5.55102" height="5.55102" transform="rotate(-180 272.004 255.344)" fill="#A1A1A1"/>
<rect x="5.55078" y="49.9609" width="5.55102" height="5.55102" transform="rotate(-180 5.55078 49.9609)" fill="#A1A1A1"/>
<rect x="5.55078" y="94.3672" width="5.55102" height="5.55102" transform="rotate(-180 5.55078 94.3672)" fill="#A1A1A1"/>
<rect x="5.55078" y="138.773" width="5.55102" height="5.55102" transform="rotate(-180 5.55078 138.773)" fill="#A1A1A1"/>
<rect x="5.55078" y="183.188" width="5.55102" height="5.55102" transform="rotate(-180 5.55078 183.188)" fill="#A1A1A1"/>
<rect x="5.55078" y="227.594" width="5.55102" height="5.55102" transform="rotate(-180 5.55078 227.594)" fill="#A1A1A1"/>
<rect x="5.55078" y="272" width="5.55102" height="5.55102" transform="rotate(-180 5.55078 272)" fill="#A1A1A1"/>
<rect x="5.55078" y="44.4062" width="5.55102" height="5.55102" transform="rotate(-180 5.55078 44.4062)" fill="#A1A1A1"/>
<rect x="5.55078" y="88.8125" width="5.55102" height="5.55102" transform="rotate(-180 5.55078 88.8125)" fill="#A1A1A1"/>
<rect x="5.55078" y="133.227" width="5.55102" height="5.55102" transform="rotate(-180 5.55078 133.227)" fill="#A1A1A1"/>
<rect x="5.55078" y="177.633" width="5.55102" height="5.55102" transform="rotate(-180 5.55078 177.633)" fill="#A1A1A1"/>
<rect x="5.55078" y="222.039" width="5.55102" height="5.55102" transform="rotate(-180 5.55078 222.039)" fill="#A1A1A1"/>
<rect x="5.55078" y="266.445" width="5.55102" height="5.55102" transform="rotate(-180 5.55078 266.445)" fill="#A1A1A1"/>
<rect x="5.55078" y="38.8594" width="5.55102" height="5.55102" transform="rotate(-180 5.55078 38.8594)" fill="#A1A1A1"/>
<rect x="5.55078" y="83.2656" width="5.55102" height="5.55102" transform="rotate(-180 5.55078 83.2656)" fill="#A1A1A1"/>
<rect x="5.55078" y="127.672" width="5.55102" height="5.55102" transform="rotate(-180 5.55078 127.672)" fill="#A1A1A1"/>
<rect x="5.55078" y="172.078" width="5.55102" height="5.55102" transform="rotate(-180 5.55078 172.078)" fill="#A1A1A1"/>
<rect x="5.55078" y="216.492" width="5.55102" height="5.55102" transform="rotate(-180 5.55078 216.492)" fill="#A1A1A1"/>
<rect x="5.55078" y="260.898" width="5.55102" height="5.55102" transform="rotate(-180 5.55078 260.898)" fill="#A1A1A1"/>
<rect x="38.8564" y="5.55469" width="5.55102" height="5.55102" transform="rotate(-180 38.8564 5.55469)" fill="#A1A1A1"/>
<rect x="83.2749" y="5.55469" width="5.55102" height="5.55102" transform="rotate(-180 83.2749 5.55469)" fill="#A1A1A1"/>
<rect x="127.682" y="5.55469" width="5.55102" height="5.55102" transform="rotate(-180 127.682 5.55469)" fill="#A1A1A1"/>
<rect x="172.089" y="5.55469" width="5.55102" height="5.55102" transform="rotate(-180 172.089 5.55469)" fill="#A1A1A1"/>
<rect x="216.496" y="5.55469" width="5.55102" height="5.55102" transform="rotate(-180 216.496 5.55469)" fill="#A1A1A1"/>
<rect x="260.902" y="5.55469" width="5.55102" height="5.55102" transform="rotate(-180 260.902 5.55469)" fill="#A1A1A1"/>
<rect x="44.4067" y="5.55469" width="5.55102" height="5.55102" transform="rotate(-180 44.4067 5.55469)" fill="#A1A1A1"/>
<rect x="88.8257" y="5.55469" width="5.55102" height="5.55102" transform="rotate(-180 88.8257 5.55469)" fill="#A1A1A1"/>
<rect x="133.232" y="5.55469" width="5.55102" height="5.55102" transform="rotate(-180 133.232 5.55469)" fill="#A1A1A1"/>
<rect x="177.639" y="5.55469" width="5.55102" height="5.55102" transform="rotate(-180 177.639 5.55469)" fill="#A1A1A1"/>
<rect x="222.046" y="5.55469" width="5.55102" height="5.55102" transform="rotate(-180 222.046 5.55469)" fill="#A1A1A1"/>
<rect x="266.453" y="5.55469" width="5.55102" height="5.55102" transform="rotate(-180 266.453 5.55469)" fill="#A1A1A1"/>
<rect x="49.9575" y="38.8594" width="5.55102" height="5.55102" transform="rotate(-180 49.9575 38.8594)" fill="#A1A1A1"/>
<rect x="49.9575" y="83.2656" width="5.55102" height="5.55102" transform="rotate(-180 49.9575 83.2656)" fill="#A1A1A1"/>
<rect x="49.9575" y="127.672" width="5.55102" height="5.55102" transform="rotate(-180 49.9575 127.672)" fill="#A1A1A1"/>
<rect x="49.9575" y="172.078" width="5.55102" height="5.55102" transform="rotate(-180 49.9575 172.078)" fill="#A1A1A1"/>
<rect x="49.9575" y="216.492" width="5.55102" height="5.55102" transform="rotate(-180 49.9575 216.492)" fill="#A1A1A1"/>
<rect x="49.9575" y="260.898" width="5.55102" height="5.55102" transform="rotate(-180 49.9575 260.898)" fill="#A1A1A1"/>
<rect x="94.376" y="38.8594" width="5.55102" height="5.55102" transform="rotate(-180 94.376 38.8594)" fill="#A1A1A1"/>
<rect x="94.376" y="83.2656" width="5.55102" height="5.55102" transform="rotate(-180 94.376 83.2656)" fill="#A1A1A1"/>
<rect x="94.376" y="127.672" width="5.55102" height="5.55102" transform="rotate(-180 94.376 127.672)" fill="#A1A1A1"/>
<rect x="94.376" y="172.078" width="5.55102" height="5.55102" transform="rotate(-180 94.376 172.078)" fill="#A1A1A1"/>
<rect x="94.376" y="216.492" width="5.55102" height="5.55102" transform="rotate(-180 94.376 216.492)" fill="#A1A1A1"/>
<rect x="94.376" y="260.898" width="5.55102" height="5.55102" transform="rotate(-180 94.376 260.898)" fill="#A1A1A1"/>
<rect x="138.783" y="38.8594" width="5.55102" height="5.55102" transform="rotate(-180 138.783 38.8594)" fill="#A1A1A1"/>
<rect x="138.783" y="83.2656" width="5.55102" height="5.55102" transform="rotate(-180 138.783 83.2656)" fill="#A1A1A1"/>
<rect x="138.783" y="127.672" width="5.55102" height="5.55102" transform="rotate(-180 138.783 127.672)" fill="#A1A1A1"/>
<rect x="138.783" y="172.078" width="5.55102" height="5.55102" transform="rotate(-180 138.783 172.078)" fill="#A1A1A1"/>
<rect x="138.783" y="216.492" width="5.55102" height="5.55102" transform="rotate(-180 138.783 216.492)" fill="#A1A1A1"/>
<rect x="138.783" y="260.898" width="5.55102" height="5.55102" transform="rotate(-180 138.783 260.898)" fill="#A1A1A1"/>
<rect x="183.19" y="38.8594" width="5.55102" height="5.55102" transform="rotate(-180 183.19 38.8594)" fill="#A1A1A1"/>
<rect x="183.19" y="83.2656" width="5.55102" height="5.55102" transform="rotate(-180 183.19 83.2656)" fill="#A1A1A1"/>
<rect x="183.19" y="127.672" width="5.55102" height="5.55102" transform="rotate(-180 183.19 127.672)" fill="#A1A1A1"/>
<rect x="183.19" y="172.078" width="5.55102" height="5.55102" transform="rotate(-180 183.19 172.078)" fill="#A1A1A1"/>
<rect x="183.19" y="216.492" width="5.55102" height="5.55102" transform="rotate(-180 183.19 216.492)" fill="#A1A1A1"/>
<rect x="183.19" y="260.898" width="5.55102" height="5.55102" transform="rotate(-180 183.19 260.898)" fill="#A1A1A1"/>
<rect x="227.597" y="38.8594" width="5.55102" height="5.55102" transform="rotate(-180 227.597 38.8594)" fill="#A1A1A1"/>
<rect x="227.597" y="83.2656" width="5.55102" height="5.55102" transform="rotate(-180 227.597 83.2656)" fill="#A1A1A1"/>
<rect x="227.597" y="127.672" width="5.55102" height="5.55102" transform="rotate(-180 227.597 127.672)" fill="#A1A1A1"/>
<rect x="227.597" y="172.078" width="5.55102" height="5.55102" transform="rotate(-180 227.597 172.078)" fill="#A1A1A1"/>
<rect x="227.597" y="216.492" width="5.55102" height="5.55102" transform="rotate(-180 227.597 216.492)" fill="#A1A1A1"/>
<rect x="227.597" y="260.898" width="5.55102" height="5.55102" transform="rotate(-180 227.597 260.898)" fill="#A1A1A1"/>
<rect x="272.004" y="38.8594" width="5.55102" height="5.55102" transform="rotate(-180 272.004 38.8594)" fill="#A1A1A1"/>
<rect x="272.004" y="83.2656" width="5.55102" height="5.55102" transform="rotate(-180 272.004 83.2656)" fill="#A1A1A1"/>
<rect x="272.004" y="127.672" width="5.55102" height="5.55102" transform="rotate(-180 272.004 127.672)" fill="#A1A1A1"/>
<rect x="272.004" y="172.078" width="5.55102" height="5.55102" transform="rotate(-180 272.004 172.078)" fill="#A1A1A1"/>
<rect x="272.004" y="216.492" width="5.55102" height="5.55102" transform="rotate(-180 272.004 216.492)" fill="#A1A1A1"/>
<rect x="272.004" y="260.898" width="5.55102" height="5.55102" transform="rotate(-180 272.004 260.898)" fill="#A1A1A1"/>
<rect x="5.55078" y="11.1016" width="5.55102" height="5.55102" transform="rotate(-180 5.55078 11.1016)" fill="#A1A1A1"/>
<rect x="5.55078" y="55.5078" width="5.55102" height="5.55102" transform="rotate(-180 5.55078 55.5078)" fill="#A1A1A1"/>
<rect x="5.55078" y="99.9219" width="5.55102" height="5.55102" transform="rotate(-180 5.55078 99.9219)" fill="#A1A1A1"/>
<rect x="5.55078" y="144.328" width="5.55102" height="5.55102" transform="rotate(-180 5.55078 144.328)" fill="#A1A1A1"/>
<rect x="5.55078" y="188.734" width="5.55102" height="5.55102" transform="rotate(-180 5.55078 188.734)" fill="#A1A1A1"/>
<rect x="5.55078" y="233.141" width="5.55102" height="5.55102" transform="rotate(-180 5.55078 233.141)" fill="#A1A1A1"/>
<rect x="49.9575" y="11.1016" width="5.55102" height="5.55102" transform="rotate(-180 49.9575 11.1016)" fill="#A1A1A1"/>
<rect x="49.9575" y="55.5078" width="5.55102" height="5.55102" transform="rotate(-180 49.9575 55.5078)" fill="#A1A1A1"/>
<rect x="49.9575" y="99.9219" width="5.55102" height="5.55102" transform="rotate(-180 49.9575 99.9219)" fill="#A1A1A1"/>
<rect x="49.9575" y="144.328" width="5.55102" height="5.55102" transform="rotate(-180 49.9575 144.328)" fill="#A1A1A1"/>
<rect x="49.9575" y="188.734" width="5.55102" height="5.55102" transform="rotate(-180 49.9575 188.734)" fill="#A1A1A1"/>
<rect x="49.9575" y="233.141" width="5.55102" height="5.55102" transform="rotate(-180 49.9575 233.141)" fill="#A1A1A1"/>
<rect x="94.376" y="11.1016" width="5.55102" height="5.55102" transform="rotate(-180 94.376 11.1016)" fill="#A1A1A1"/>
<rect x="94.376" y="55.5078" width="5.55102" height="5.55102" transform="rotate(-180 94.376 55.5078)" fill="#A1A1A1"/>
<rect x="94.376" y="99.9219" width="5.55102" height="5.55102" transform="rotate(-180 94.376 99.9219)" fill="#A1A1A1"/>
<rect x="94.376" y="144.328" width="5.55102" height="5.55102" transform="rotate(-180 94.376 144.328)" fill="#A1A1A1"/>
<rect x="94.376" y="188.734" width="5.55102" height="5.55102" transform="rotate(-180 94.376 188.734)" fill="#A1A1A1"/>
<rect x="94.376" y="233.141" width="5.55102" height="5.55102" transform="rotate(-180 94.376 233.141)" fill="#A1A1A1"/>
<rect x="138.783" y="11.1016" width="5.55102" height="5.55102" transform="rotate(-180 138.783 11.1016)" fill="#A1A1A1"/>
<rect x="138.783" y="55.5078" width="5.55102" height="5.55102" transform="rotate(-180 138.783 55.5078)" fill="#A1A1A1"/>
<rect x="138.783" y="99.9219" width="5.55102" height="5.55102" transform="rotate(-180 138.783 99.9219)" fill="#A1A1A1"/>
<rect x="138.783" y="144.328" width="5.55102" height="5.55102" transform="rotate(-180 138.783 144.328)" fill="#A1A1A1"/>
<rect x="138.783" y="188.734" width="5.55102" height="5.55102" transform="rotate(-180 138.783 188.734)" fill="#A1A1A1"/>
<rect x="138.783" y="233.141" width="5.55102" height="5.55102" transform="rotate(-180 138.783 233.141)" fill="#A1A1A1"/>
<rect x="183.19" y="11.1016" width="5.55102" height="5.55102" transform="rotate(-180 183.19 11.1016)" fill="#A1A1A1"/>
<rect x="183.19" y="55.5078" width="5.55102" height="5.55102" transform="rotate(-180 183.19 55.5078)" fill="#A1A1A1"/>
<rect x="183.19" y="99.9219" width="5.55102" height="5.55102" transform="rotate(-180 183.19 99.9219)" fill="#A1A1A1"/>
<rect x="183.19" y="144.328" width="5.55102" height="5.55102" transform="rotate(-180 183.19 144.328)" fill="#A1A1A1"/>
<rect x="183.19" y="188.734" width="5.55102" height="5.55102" transform="rotate(-180 183.19 188.734)" fill="#A1A1A1"/>
<rect x="183.19" y="233.141" width="5.55102" height="5.55102" transform="rotate(-180 183.19 233.141)" fill="#A1A1A1"/>
<rect x="227.597" y="11.1016" width="5.55102" height="5.55102" transform="rotate(-180 227.597 11.1016)" fill="#A1A1A1"/>
<rect x="227.597" y="55.5078" width="5.55102" height="5.55102" transform="rotate(-180 227.597 55.5078)" fill="#A1A1A1"/>
<rect x="227.597" y="99.9219" width="5.55102" height="5.55102" transform="rotate(-180 227.597 99.9219)" fill="#A1A1A1"/>
<rect x="227.597" y="144.328" width="5.55102" height="5.55102" transform="rotate(-180 227.597 144.328)" fill="#A1A1A1"/>
<rect x="227.597" y="188.734" width="5.55102" height="5.55102" transform="rotate(-180 227.597 188.734)" fill="#A1A1A1"/>
<rect x="227.597" y="233.141" width="5.55102" height="5.55102" transform="rotate(-180 227.597 233.141)" fill="#A1A1A1"/>
<rect x="272.004" y="11.1016" width="5.55102" height="5.55102" transform="rotate(-180 272.004 11.1016)" fill="#A1A1A1"/>
<rect x="272.004" y="55.5078" width="5.55102" height="5.55102" transform="rotate(-180 272.004 55.5078)" fill="#A1A1A1"/>
<rect x="272.004" y="99.9219" width="5.55102" height="5.55102" transform="rotate(-180 272.004 99.9219)" fill="#A1A1A1"/>
<rect x="272.004" y="144.328" width="5.55102" height="5.55102" transform="rotate(-180 272.004 144.328)" fill="#A1A1A1"/>
<rect x="272.004" y="188.734" width="5.55102" height="5.55102" transform="rotate(-180 272.004 188.734)" fill="#A1A1A1"/>
<rect x="272.004" y="233.141" width="5.55102" height="5.55102" transform="rotate(-180 272.004 233.141)" fill="#A1A1A1"/>
<rect x="5.55078" y="16.6562" width="5.55102" height="5.55102" transform="rotate(-180 5.55078 16.6562)" fill="#A1A1A1"/>
<rect x="5.55078" y="61.0625" width="5.55102" height="5.55102" transform="rotate(-180 5.55078 61.0625)" fill="#A1A1A1"/>
<rect x="5.55078" y="105.469" width="5.55102" height="5.55102" transform="rotate(-180 5.55078 105.469)" fill="#A1A1A1"/>
<rect x="5.55078" y="149.875" width="5.55102" height="5.55102" transform="rotate(-180 5.55078 149.875)" fill="#A1A1A1"/>
<rect x="5.55078" y="194.289" width="5.55102" height="5.55102" transform="rotate(-180 5.55078 194.289)" fill="#A1A1A1"/>
<rect x="5.55078" y="238.695" width="5.55102" height="5.55102" transform="rotate(-180 5.55078 238.695)" fill="#A1A1A1"/>
<rect x="49.9575" y="16.6562" width="5.55102" height="5.55102" transform="rotate(-180 49.9575 16.6562)" fill="#A1A1A1"/>
<rect x="49.9575" y="61.0625" width="5.55102" height="5.55102" transform="rotate(-180 49.9575 61.0625)" fill="#A1A1A1"/>
<rect x="49.9575" y="105.469" width="5.55102" height="5.55102" transform="rotate(-180 49.9575 105.469)" fill="#A1A1A1"/>
<rect x="49.9575" y="149.875" width="5.55102" height="5.55102" transform="rotate(-180 49.9575 149.875)" fill="#A1A1A1"/>
<rect x="49.9575" y="194.289" width="5.55102" height="5.55102" transform="rotate(-180 49.9575 194.289)" fill="#A1A1A1"/>
<rect x="49.9575" y="238.695" width="5.55102" height="5.55102" transform="rotate(-180 49.9575 238.695)" fill="#A1A1A1"/>
<rect x="94.376" y="16.6562" width="5.55102" height="5.55102" transform="rotate(-180 94.376 16.6562)" fill="#A1A1A1"/>
<rect x="94.376" y="61.0625" width="5.55102" height="5.55102" transform="rotate(-180 94.376 61.0625)" fill="#A1A1A1"/>
<rect x="94.376" y="105.469" width="5.55102" height="5.55102" transform="rotate(-180 94.376 105.469)" fill="#A1A1A1"/>
<rect x="94.376" y="149.875" width="5.55102" height="5.55102" transform="rotate(-180 94.376 149.875)" fill="#A1A1A1"/>
<rect x="94.376" y="194.289" width="5.55102" height="5.55102" transform="rotate(-180 94.376 194.289)" fill="#A1A1A1"/>
<rect x="94.376" y="238.695" width="5.55102" height="5.55102" transform="rotate(-180 94.376 238.695)" fill="#A1A1A1"/>
<rect x="138.783" y="16.6562" width="5.55102" height="5.55102" transform="rotate(-180 138.783 16.6562)" fill="#A1A1A1"/>
<rect x="138.783" y="61.0625" width="5.55102" height="5.55102" transform="rotate(-180 138.783 61.0625)" fill="#A1A1A1"/>
<rect x="138.783" y="105.469" width="5.55102" height="5.55102" transform="rotate(-180 138.783 105.469)" fill="#A1A1A1"/>
<rect x="138.783" y="149.875" width="5.55102" height="5.55102" transform="rotate(-180 138.783 149.875)" fill="#A1A1A1"/>
<rect x="138.783" y="194.289" width="5.55102" height="5.55102" transform="rotate(-180 138.783 194.289)" fill="#A1A1A1"/>
<rect x="138.783" y="238.695" width="5.55102" height="5.55102" transform="rotate(-180 138.783 238.695)" fill="#A1A1A1"/>
<rect x="183.19" y="16.6562" width="5.55102" height="5.55102" transform="rotate(-180 183.19 16.6562)" fill="#A1A1A1"/>
<rect x="183.19" y="61.0625" width="5.55102" height="5.55102" transform="rotate(-180 183.19 61.0625)" fill="#A1A1A1"/>
<rect x="183.19" y="105.469" width="5.55102" height="5.55102" transform="rotate(-180 183.19 105.469)" fill="#A1A1A1"/>
<rect x="183.19" y="149.875" width="5.55102" height="5.55102" transform="rotate(-180 183.19 149.875)" fill="#A1A1A1"/>
<rect x="183.19" y="194.289" width="5.55102" height="5.55102" transform="rotate(-180 183.19 194.289)" fill="#A1A1A1"/>
<rect x="183.19" y="238.695" width="5.55102" height="5.55102" transform="rotate(-180 183.19 238.695)" fill="#A1A1A1"/>
<rect x="227.597" y="16.6562" width="5.55102" height="5.55102" transform="rotate(-180 227.597 16.6562)" fill="#A1A1A1"/>
<rect x="227.597" y="61.0625" width="5.55102" height="5.55102" transform="rotate(-180 227.597 61.0625)" fill="#A1A1A1"/>
<rect x="227.597" y="105.469" width="5.55102" height="5.55102" transform="rotate(-180 227.597 105.469)" fill="#A1A1A1"/>
<rect x="227.597" y="149.875" width="5.55102" height="5.55102" transform="rotate(-180 227.597 149.875)" fill="#A1A1A1"/>
<rect x="227.597" y="194.289" width="5.55102" height="5.55102" transform="rotate(-180 227.597 194.289)" fill="#A1A1A1"/>
<rect x="227.597" y="238.695" width="5.55102" height="5.55102" transform="rotate(-180 227.597 238.695)" fill="#A1A1A1"/>
<rect x="272.004" y="16.6562" width="5.55102" height="5.55102" transform="rotate(-180 272.004 16.6562)" fill="#A1A1A1"/>
<rect x="272.004" y="61.0625" width="5.55102" height="5.55102" transform="rotate(-180 272.004 61.0625)" fill="#A1A1A1"/>
<rect x="272.004" y="105.469" width="5.55102" height="5.55102" transform="rotate(-180 272.004 105.469)" fill="#A1A1A1"/>
<rect x="272.004" y="149.875" width="5.55102" height="5.55102" transform="rotate(-180 272.004 149.875)" fill="#A1A1A1"/>
<rect x="272.004" y="194.289" width="5.55102" height="5.55102" transform="rotate(-180 272.004 194.289)" fill="#A1A1A1"/>
<rect x="272.004" y="238.695" width="5.55102" height="5.55102" transform="rotate(-180 272.004 238.695)" fill="#A1A1A1"/>
<rect x="5.55078" y="22.2031" width="5.55102" height="5.55102" transform="rotate(-180 5.55078 22.2031)" fill="#A1A1A1"/>
<rect x="5.55078" y="66.6094" width="5.55102" height="5.55102" transform="rotate(-180 5.55078 66.6094)" fill="#A1A1A1"/>
<rect x="5.55078" y="111.023" width="5.55102" height="5.55102" transform="rotate(-180 5.55078 111.023)" fill="#A1A1A1"/>
<rect x="5.55078" y="155.43" width="5.55102" height="5.55102" transform="rotate(-180 5.55078 155.43)" fill="#A1A1A1"/>
<rect x="5.55078" y="199.836" width="5.55102" height="5.55102" transform="rotate(-180 5.55078 199.836)" fill="#A1A1A1"/>
<rect x="5.55078" y="244.242" width="5.55102" height="5.55102" transform="rotate(-180 5.55078 244.242)" fill="#A1A1A1"/>
<rect x="49.9575" y="22.2031" width="5.55102" height="5.55102" transform="rotate(-180 49.9575 22.2031)" fill="#A1A1A1"/>
<rect x="49.9575" y="66.6094" width="5.55102" height="5.55102" transform="rotate(-180 49.9575 66.6094)" fill="#A1A1A1"/>
<rect x="49.9575" y="111.023" width="5.55102" height="5.55102" transform="rotate(-180 49.9575 111.023)" fill="#A1A1A1"/>
<rect x="49.9575" y="155.43" width="5.55102" height="5.55102" transform="rotate(-180 49.9575 155.43)" fill="#A1A1A1"/>
<rect x="49.9575" y="199.836" width="5.55102" height="5.55102" transform="rotate(-180 49.9575 199.836)" fill="#A1A1A1"/>
<rect x="49.9575" y="244.242" width="5.55102" height="5.55102" transform="rotate(-180 49.9575 244.242)" fill="#A1A1A1"/>
<rect x="94.376" y="22.2031" width="5.55102" height="5.55102" transform="rotate(-180 94.376 22.2031)" fill="#A1A1A1"/>
<rect x="94.376" y="66.6094" width="5.55102" height="5.55102" transform="rotate(-180 94.376 66.6094)" fill="#A1A1A1"/>
<rect x="94.376" y="111.023" width="5.55102" height="5.55102" transform="rotate(-180 94.376 111.023)" fill="#A1A1A1"/>
<rect x="94.376" y="155.43" width="5.55102" height="5.55102" transform="rotate(-180 94.376 155.43)" fill="#A1A1A1"/>
<rect x="94.376" y="199.836" width="5.55102" height="5.55102" transform="rotate(-180 94.376 199.836)" fill="#A1A1A1"/>
<rect x="94.376" y="244.242" width="5.55102" height="5.55102" transform="rotate(-180 94.376 244.242)" fill="#A1A1A1"/>
<rect x="138.783" y="22.2031" width="5.55102" height="5.55102" transform="rotate(-180 138.783 22.2031)" fill="#A1A1A1"/>
<rect x="138.783" y="66.6094" width="5.55102" height="5.55102" transform="rotate(-180 138.783 66.6094)" fill="#A1A1A1"/>
<rect x="138.783" y="111.023" width="5.55102" height="5.55102" transform="rotate(-180 138.783 111.023)" fill="#A1A1A1"/>
<rect x="138.783" y="155.43" width="5.55102" height="5.55102" transform="rotate(-180 138.783 155.43)" fill="#A1A1A1"/>
<rect x="138.783" y="199.836" width="5.55102" height="5.55102" transform="rotate(-180 138.783 199.836)" fill="#A1A1A1"/>
<rect x="138.783" y="244.242" width="5.55102" height="5.55102" transform="rotate(-180 138.783 244.242)" fill="#A1A1A1"/>
<rect x="183.19" y="22.2031" width="5.55102" height="5.55102" transform="rotate(-180 183.19 22.2031)" fill="#A1A1A1"/>
<rect x="183.19" y="66.6094" width="5.55102" height="5.55102" transform="rotate(-180 183.19 66.6094)" fill="#A1A1A1"/>
<rect x="183.19" y="111.023" width="5.55102" height="5.55102" transform="rotate(-180 183.19 111.023)" fill="#A1A1A1"/>
<rect x="183.19" y="155.43" width="5.55102" height="5.55102" transform="rotate(-180 183.19 155.43)" fill="#A1A1A1"/>
<rect x="183.19" y="199.836" width="5.55102" height="5.55102" transform="rotate(-180 183.19 199.836)" fill="#A1A1A1"/>
<rect x="183.19" y="244.242" width="5.55102" height="5.55102" transform="rotate(-180 183.19 244.242)" fill="#A1A1A1"/>
<rect x="227.597" y="22.2031" width="5.55102" height="5.55102" transform="rotate(-180 227.597 22.2031)" fill="#A1A1A1"/>
<rect x="227.597" y="66.6094" width="5.55102" height="5.55102" transform="rotate(-180 227.597 66.6094)" fill="#A1A1A1"/>
<rect x="227.597" y="111.023" width="5.55102" height="5.55102" transform="rotate(-180 227.597 111.023)" fill="#A1A1A1"/>
<rect x="227.597" y="155.43" width="5.55102" height="5.55102" transform="rotate(-180 227.597 155.43)" fill="#A1A1A1"/>
<rect x="227.597" y="199.836" width="5.55102" height="5.55102" transform="rotate(-180 227.597 199.836)" fill="#A1A1A1"/>
<rect x="227.597" y="244.242" width="5.55102" height="5.55102" transform="rotate(-180 227.597 244.242)" fill="#A1A1A1"/>
<rect x="272.004" y="22.2031" width="5.55102" height="5.55102" transform="rotate(-180 272.004 22.2031)" fill="#A1A1A1"/>
<rect x="272.004" y="66.6094" width="5.55102" height="5.55102" transform="rotate(-180 272.004 66.6094)" fill="#A1A1A1"/>
<rect x="272.004" y="111.023" width="5.55102" height="5.55102" transform="rotate(-180 272.004 111.023)" fill="#A1A1A1"/>
<rect x="272.004" y="155.43" width="5.55102" height="5.55102" transform="rotate(-180 272.004 155.43)" fill="#A1A1A1"/>
<rect x="272.004" y="199.836" width="5.55102" height="5.55102" transform="rotate(-180 272.004 199.836)" fill="#A1A1A1"/>
<rect x="272.004" y="244.242" width="5.55102" height="5.55102" transform="rotate(-180 272.004 244.242)" fill="#A1A1A1"/>
<rect x="5.55078" y="27.7578" width="5.55102" height="5.55102" transform="rotate(-180 5.55078 27.7578)" fill="#A1A1A1"/>
<rect x="5.55078" y="72.1641" width="5.55102" height="5.55102" transform="rotate(-180 5.55078 72.1641)" fill="#A1A1A1"/>
<rect x="5.55078" y="116.57" width="5.55102" height="5.55102" transform="rotate(-180 5.55078 116.57)" fill="#A1A1A1"/>
<rect x="5.55078" y="160.977" width="5.55102" height="5.55102" transform="rotate(-180 5.55078 160.977)" fill="#A1A1A1"/>
<rect x="5.55078" y="205.391" width="5.55102" height="5.55102" transform="rotate(-180 5.55078 205.391)" fill="#A1A1A1"/>
<rect x="5.55078" y="249.797" width="5.55102" height="5.55102" transform="rotate(-180 5.55078 249.797)" fill="#A1A1A1"/>
<rect x="49.9575" y="27.7578" width="5.55102" height="5.55102" transform="rotate(-180 49.9575 27.7578)" fill="#A1A1A1"/>
<rect x="49.9575" y="72.1641" width="5.55102" height="5.55102" transform="rotate(-180 49.9575 72.1641)" fill="#A1A1A1"/>
<rect x="49.9575" y="116.57" width="5.55102" height="5.55102" transform="rotate(-180 49.9575 116.57)" fill="#A1A1A1"/>
<rect x="49.9575" y="160.977" width="5.55102" height="5.55102" transform="rotate(-180 49.9575 160.977)" fill="#A1A1A1"/>
<rect x="49.9575" y="205.391" width="5.55102" height="5.55102" transform="rotate(-180 49.9575 205.391)" fill="#A1A1A1"/>
<rect x="49.9575" y="249.797" width="5.55102" height="5.55102" transform="rotate(-180 49.9575 249.797)" fill="#A1A1A1"/>
<rect x="94.376" y="27.7578" width="5.55102" height="5.55102" transform="rotate(-180 94.376 27.7578)" fill="#A1A1A1"/>
<rect x="94.376" y="72.1641" width="5.55102" height="5.55102" transform="rotate(-180 94.376 72.1641)" fill="#A1A1A1"/>
<rect x="94.376" y="116.57" width="5.55102" height="5.55102" transform="rotate(-180 94.376 116.57)" fill="#A1A1A1"/>
<rect x="111.029" y="116.57" width="5.55102" height="5.55102" transform="rotate(-180 111.029 116.57)" fill="#A1A1A1"/>
<rect x="155.436" y="116.57" width="5.55102" height="5.55102" transform="rotate(-180 155.436 116.57)" fill="#A1A1A1"/>
<rect x="155.436" y="160.977" width="5.55102" height="5.55102" transform="rotate(-180 155.436 160.977)" fill="#A1A1A1"/>
<rect x="111.029" y="160.977" width="5.55102" height="5.55102" transform="rotate(-180 111.029 160.977)" fill="#A1A1A1"/>
<rect x="116.58" y="116.57" width="5.55102" height="5.55102" transform="rotate(-180 116.58 116.57)" fill="#A1A1A1"/>
<rect x="160.986" y="116.57" width="5.55102" height="5.55102" transform="rotate(-180 160.986 116.57)" fill="#A1A1A1"/>
<rect x="160.986" y="160.977" width="5.55102" height="5.55102" transform="rotate(-180 160.986 160.977)" fill="#A1A1A1"/>
<rect x="116.58" y="160.977" width="5.55102" height="5.55102" transform="rotate(-180 116.58 160.977)" fill="#A1A1A1"/>
<rect x="122.13" y="116.57" width="5.55102" height="5.55102" transform="rotate(-180 122.13 116.57)" fill="#A1A1A1"/>
<rect x="166.538" y="116.57" width="5.55102" height="5.55102" transform="rotate(-180 166.538 116.57)" fill="#A1A1A1"/>
<rect x="166.538" y="160.977" width="5.55102" height="5.55102" transform="rotate(-180 166.538 160.977)" fill="#A1A1A1"/>
<rect x="122.13" y="160.977" width="5.55102" height="5.55102" transform="rotate(-180 122.13 160.977)" fill="#A1A1A1"/>
<rect x="116.58" y="111.023" width="5.55102" height="5.55102" transform="rotate(-180 116.58 111.023)" fill="#A1A1A1"/>
<rect x="160.986" y="111.023" width="5.55102" height="5.55102" transform="rotate(-180 160.986 111.023)" fill="#A1A1A1"/>
<rect x="160.986" y="155.43" width="5.55102" height="5.55102" transform="rotate(-180 160.986 155.43)" fill="#A1A1A1"/>
<rect x="116.58" y="155.43" width="5.55102" height="5.55102" transform="rotate(-180 116.58 155.43)" fill="#A1A1A1"/>
<rect x="116.58" y="122.125" width="5.55102" height="5.55102" transform="rotate(-180 116.58 122.125)" fill="#A1A1A1"/>
<rect x="160.986" y="122.125" width="5.55102" height="5.55102" transform="rotate(-180 160.986 122.125)" fill="#A1A1A1"/>
<rect x="160.986" y="166.531" width="5.55102" height="5.55102" transform="rotate(-180 160.986 166.531)" fill="#A1A1A1"/>
<rect x="116.58" y="166.531" width="5.55102" height="5.55102" transform="rotate(-180 116.58 166.531)" fill="#A1A1A1"/>
<rect x="122.13" y="105.469" width="5.55102" height="5.55102" transform="rotate(-180 122.13 105.469)" fill="#A1A1A1"/>
<rect x="166.538" y="105.469" width="5.55102" height="5.55102" transform="rotate(-180 166.538 105.469)" fill="#A1A1A1"/>
<rect x="166.538" y="149.875" width="5.55102" height="5.55102" transform="rotate(-180 166.538 149.875)" fill="#A1A1A1"/>
<rect x="122.13" y="149.875" width="5.55102" height="5.55102" transform="rotate(-180 122.13 149.875)" fill="#A1A1A1"/>
<rect x="127.682" y="105.469" width="5.55102" height="5.55102" transform="rotate(-180 127.682 105.469)" fill="#A1A1A1"/>
<rect x="172.089" y="105.469" width="5.55102" height="5.55102" transform="rotate(-180 172.089 105.469)" fill="#A1A1A1"/>
<rect x="172.089" y="149.875" width="5.55102" height="5.55102" transform="rotate(-180 172.089 149.875)" fill="#A1A1A1"/>
<rect x="127.682" y="149.875" width="5.55102" height="5.55102" transform="rotate(-180 127.682 149.875)" fill="#A1A1A1"/>
<rect x="127.682" y="111.023" width="5.55102" height="5.55102" transform="rotate(-180 127.682 111.023)" fill="#A1A1A1"/>
<rect x="172.089" y="111.023" width="5.55102" height="5.55102" transform="rotate(-180 172.089 111.023)" fill="#A1A1A1"/>
<rect x="172.089" y="155.43" width="5.55102" height="5.55102" transform="rotate(-180 172.089 155.43)" fill="#A1A1A1"/>
<rect x="127.682" y="155.43" width="5.55102" height="5.55102" transform="rotate(-180 127.682 155.43)" fill="#A1A1A1"/>
<rect x="127.682" y="122.125" width="5.55102" height="5.55102" transform="rotate(-180 127.682 122.125)" fill="#A1A1A1"/>
<rect x="172.089" y="122.125" width="5.55102" height="5.55102" transform="rotate(-180 172.089 122.125)" fill="#A1A1A1"/>
<rect x="172.089" y="166.531" width="5.55102" height="5.55102" transform="rotate(-180 172.089 166.531)" fill="#A1A1A1"/>
<rect x="127.682" y="166.531" width="5.55102" height="5.55102" transform="rotate(-180 127.682 166.531)" fill="#A1A1A1"/>
<rect x="127.682" y="127.672" width="5.55102" height="5.55102" transform="rotate(-180 127.682 127.672)" fill="#A1A1A1"/>
<rect x="172.089" y="127.672" width="5.55102" height="5.55102" transform="rotate(-180 172.089 127.672)" fill="#A1A1A1"/>
<rect x="172.089" y="172.078" width="5.55102" height="5.55102" transform="rotate(-180 172.089 172.078)" fill="#A1A1A1"/>
<rect x="127.682" y="172.078" width="5.55102" height="5.55102" transform="rotate(-180 127.682 172.078)" fill="#A1A1A1"/>
<rect x="122.13" y="127.672" width="5.55102" height="5.55102" transform="rotate(-180 122.13 127.672)" fill="#A1A1A1"/>
<rect x="166.538" y="127.672" width="5.55102" height="5.55102" transform="rotate(-180 166.538 127.672)" fill="#A1A1A1"/>
<rect x="166.538" y="172.078" width="5.55102" height="5.55102" transform="rotate(-180 166.538 172.078)" fill="#A1A1A1"/>
<rect x="122.13" y="172.078" width="5.55102" height="5.55102" transform="rotate(-180 122.13 172.078)" fill="#A1A1A1"/>
<rect x="111.029" y="127.672" width="5.55102" height="5.55102" transform="rotate(-180 111.029 127.672)" fill="#A1A1A1"/>
<rect x="155.436" y="127.672" width="5.55102" height="5.55102" transform="rotate(-180 155.436 127.672)" fill="#A1A1A1"/>
<rect x="155.436" y="172.078" width="5.55102" height="5.55102" transform="rotate(-180 155.436 172.078)" fill="#A1A1A1"/>
<rect x="111.029" y="172.078" width="5.55102" height="5.55102" transform="rotate(-180 111.029 172.078)" fill="#A1A1A1"/>
<rect x="105.479" y="127.672" width="5.55102" height="5.55102" transform="rotate(-180 105.479 127.672)" fill="#A1A1A1"/>
<rect x="149.885" y="127.672" width="5.55102" height="5.55102" transform="rotate(-180 149.885 127.672)" fill="#A1A1A1"/>
<rect x="149.885" y="172.078" width="5.55102" height="5.55102" transform="rotate(-180 149.885 172.078)" fill="#A1A1A1"/>
<rect x="105.479" y="172.078" width="5.55102" height="5.55102" transform="rotate(-180 105.479 172.078)" fill="#A1A1A1"/>
<rect x="105.479" y="122.125" width="5.55102" height="5.55102" transform="rotate(-180 105.479 122.125)" fill="#A1A1A1"/>
<rect x="149.885" y="122.125" width="5.55102" height="5.55102" transform="rotate(-180 149.885 122.125)" fill="#A1A1A1"/>
<rect x="149.885" y="166.531" width="5.55102" height="5.55102" transform="rotate(-180 149.885 166.531)" fill="#A1A1A1"/>
<rect x="105.479" y="166.531" width="5.55102" height="5.55102" transform="rotate(-180 105.479 166.531)" fill="#A1A1A1"/>
<rect x="105.479" y="111.023" width="5.55102" height="5.55102" transform="rotate(-180 105.479 111.023)" fill="#A1A1A1"/>
<rect x="149.885" y="111.023" width="5.55102" height="5.55102" transform="rotate(-180 149.885 111.023)" fill="#A1A1A1"/>
<rect x="149.885" y="155.43" width="5.55102" height="5.55102" transform="rotate(-180 149.885 155.43)" fill="#A1A1A1"/>
<rect x="105.479" y="155.43" width="5.55102" height="5.55102" transform="rotate(-180 105.479 155.43)" fill="#A1A1A1"/>
<rect x="105.479" y="105.469" width="5.55102" height="5.55102" transform="rotate(-180 105.479 105.469)" fill="#A1A1A1"/>
<rect x="149.885" y="105.469" width="5.55102" height="5.55102" transform="rotate(-180 149.885 105.469)" fill="#A1A1A1"/>
<rect x="149.885" y="149.875" width="5.55102" height="5.55102" transform="rotate(-180 149.885 149.875)" fill="#A1A1A1"/>
<rect x="105.479" y="149.875" width="5.55102" height="5.55102" transform="rotate(-180 105.479 149.875)" fill="#A1A1A1"/>
<rect x="111.029" y="105.469" width="5.55102" height="5.55102" transform="rotate(-180 111.029 105.469)" fill="#A1A1A1"/>
<rect x="155.436" y="105.469" width="5.55102" height="5.55102" transform="rotate(-180 155.436 105.469)" fill="#A1A1A1"/>
<rect x="155.436" y="149.875" width="5.55102" height="5.55102" transform="rotate(-180 155.436 149.875)" fill="#A1A1A1"/>
<rect x="111.029" y="149.875" width="5.55102" height="5.55102" transform="rotate(-180 111.029 149.875)" fill="#A1A1A1"/>
<rect x="94.376" y="160.977" width="5.55102" height="5.55102" transform="rotate(-180 94.376 160.977)" fill="#A1A1A1"/>
<rect x="94.376" y="205.391" width="5.55102" height="5.55102" transform="rotate(-180 94.376 205.391)" fill="#A1A1A1"/>
<rect x="94.376" y="249.797" width="5.55102" height="5.55102" transform="rotate(-180 94.376 249.797)" fill="#A1A1A1"/>
<rect x="138.783" y="27.7578" width="5.55102" height="5.55102" transform="rotate(-180 138.783 27.7578)" fill="#A1A1A1"/>
<rect x="138.783" y="72.1641" width="5.55102" height="5.55102" transform="rotate(-180 138.783 72.1641)" fill="#A1A1A1"/>
<rect x="138.783" y="116.57" width="5.55102" height="5.55102" transform="rotate(-180 138.783 116.57)" fill="#A1A1A1"/>
<rect x="138.783" y="160.977" width="5.55102" height="5.55102" transform="rotate(-180 138.783 160.977)" fill="#A1A1A1"/>
<rect x="138.783" y="205.391" width="5.55102" height="5.55102" transform="rotate(-180 138.783 205.391)" fill="#A1A1A1"/>
<rect x="138.783" y="249.797" width="5.55102" height="5.55102" transform="rotate(-180 138.783 249.797)" fill="#A1A1A1"/>
<rect x="183.19" y="27.7578" width="5.55102" height="5.55102" transform="rotate(-180 183.19 27.7578)" fill="#A1A1A1"/>
<rect x="183.19" y="72.1641" width="5.55102" height="5.55102" transform="rotate(-180 183.19 72.1641)" fill="#A1A1A1"/>
<rect x="183.19" y="116.57" width="5.55102" height="5.55102" transform="rotate(-180 183.19 116.57)" fill="#A1A1A1"/>
<rect x="183.19" y="160.977" width="5.55102" height="5.55102" transform="rotate(-180 183.19 160.977)" fill="#A1A1A1"/>
<rect x="183.19" y="205.391" width="5.55102" height="5.55102" transform="rotate(-180 183.19 205.391)" fill="#A1A1A1"/>
<rect x="183.19" y="249.797" width="5.55102" height="5.55102" transform="rotate(-180 183.19 249.797)" fill="#A1A1A1"/>
<rect x="227.597" y="27.7578" width="5.55102" height="5.55102" transform="rotate(-180 227.597 27.7578)" fill="#A1A1A1"/>
<rect x="227.597" y="72.1641" width="5.55102" height="5.55102" transform="rotate(-180 227.597 72.1641)" fill="#A1A1A1"/>
<rect x="227.597" y="116.57" width="5.55102" height="5.55102" transform="rotate(-180 227.597 116.57)" fill="#A1A1A1"/>
<rect x="227.597" y="160.977" width="5.55102" height="5.55102" transform="rotate(-180 227.597 160.977)" fill="#A1A1A1"/>
<rect x="227.597" y="205.391" width="5.55102" height="5.55102" transform="rotate(-180 227.597 205.391)" fill="#A1A1A1"/>
<rect x="227.597" y="249.797" width="5.55102" height="5.55102" transform="rotate(-180 227.597 249.797)" fill="#A1A1A1"/>
<rect x="272.004" y="27.7578" width="5.55102" height="5.55102" transform="rotate(-180 272.004 27.7578)" fill="#A1A1A1"/>
<rect x="272.004" y="72.1641" width="5.55102" height="5.55102" transform="rotate(-180 272.004 72.1641)" fill="#A1A1A1"/>
<rect x="272.004" y="116.57" width="5.55102" height="5.55102" transform="rotate(-180 272.004 116.57)" fill="#A1A1A1"/>
<rect x="272.004" y="160.977" width="5.55102" height="5.55102" transform="rotate(-180 272.004 160.977)" fill="#A1A1A1"/>
<rect x="272.004" y="205.391" width="5.55102" height="5.55102" transform="rotate(-180 272.004 205.391)" fill="#A1A1A1"/>
<rect x="272.004" y="249.797" width="5.55102" height="5.55102" transform="rotate(-180 272.004 249.797)" fill="#A1A1A1"/>
<rect x="22.2036" y="44.4062" width="5.55102" height="5.55102" transform="rotate(90 22.2036 44.4062)" fill="#A1A1A1"/>
<rect x="22.2036" y="88.8125" width="5.55102" height="5.55102" transform="rotate(90 22.2036 88.8125)" fill="#A1A1A1"/>
<rect x="22.2036" y="133.227" width="5.55102" height="5.55102" transform="rotate(90 22.2036 133.227)" fill="#A1A1A1"/>
<rect x="22.2036" y="177.633" width="5.55102" height="5.55102" transform="rotate(90 22.2036 177.633)" fill="#A1A1A1"/>
<rect x="22.2036" y="222.039" width="5.55102" height="5.55102" transform="rotate(90 22.2036 222.039)" fill="#A1A1A1"/>
<rect x="22.2036" y="266.445" width="5.55102" height="5.55102" transform="rotate(90 22.2036 266.445)" fill="#A1A1A1"/>
<rect x="66.6221" y="44.4062" width="5.55102" height="5.55102" transform="rotate(90 66.6221 44.4062)" fill="#A1A1A1"/>
<rect x="66.6221" y="88.8125" width="5.55102" height="5.55102" transform="rotate(90 66.6221 88.8125)" fill="#A1A1A1"/>
<rect x="66.6221" y="133.227" width="5.55102" height="5.55102" transform="rotate(90 66.6221 133.227)" fill="#A1A1A1"/>
<rect x="66.6221" y="177.633" width="5.55102" height="5.55102" transform="rotate(90 66.6221 177.633)" fill="#A1A1A1"/>
<rect x="66.6221" y="222.039" width="5.55102" height="5.55102" transform="rotate(90 66.6221 222.039)" fill="#A1A1A1"/>
<rect x="66.6221" y="266.445" width="5.55102" height="5.55102" transform="rotate(90 66.6221 266.445)" fill="#A1A1A1"/>
<rect x="111.029" y="44.4062" width="5.55102" height="5.55102" transform="rotate(90 111.029 44.4062)" fill="#A1A1A1"/>
<rect x="111.029" y="88.8125" width="5.55102" height="5.55102" transform="rotate(90 111.029 88.8125)" fill="#A1A1A1"/>
<rect x="111.029" y="133.227" width="5.55102" height="5.55102" transform="rotate(90 111.029 133.227)" fill="#A1A1A1"/>
<rect x="111.029" y="177.633" width="5.55102" height="5.55102" transform="rotate(90 111.029 177.633)" fill="#A1A1A1"/>
<rect x="111.029" y="222.039" width="5.55102" height="5.55102" transform="rotate(90 111.029 222.039)" fill="#A1A1A1"/>
<rect x="111.029" y="266.445" width="5.55102" height="5.55102" transform="rotate(90 111.029 266.445)" fill="#A1A1A1"/>
<rect x="155.436" y="44.4062" width="5.55102" height="5.55102" transform="rotate(90 155.436 44.4062)" fill="#A1A1A1"/>
<rect x="155.436" y="88.8125" width="5.55102" height="5.55102" transform="rotate(90 155.436 88.8125)" fill="#A1A1A1"/>
<rect x="155.436" y="133.227" width="5.55102" height="5.55102" transform="rotate(90 155.436 133.227)" fill="#A1A1A1"/>
<rect x="155.436" y="177.633" width="5.55102" height="5.55102" transform="rotate(90 155.436 177.633)" fill="#A1A1A1"/>
<rect x="155.436" y="222.039" width="5.55102" height="5.55102" transform="rotate(90 155.436 222.039)" fill="#A1A1A1"/>
<rect x="155.436" y="266.445" width="5.55102" height="5.55102" transform="rotate(90 155.436 266.445)" fill="#A1A1A1"/>
<rect x="199.843" y="44.4062" width="5.55102" height="5.55102" transform="rotate(90 199.843 44.4062)" fill="#A1A1A1"/>
<rect x="199.843" y="88.8125" width="5.55102" height="5.55102" transform="rotate(90 199.843 88.8125)" fill="#A1A1A1"/>
<rect x="199.843" y="133.227" width="5.55102" height="5.55102" transform="rotate(90 199.843 133.227)" fill="#A1A1A1"/>
<rect x="199.843" y="177.633" width="5.55102" height="5.55102" transform="rotate(90 199.843 177.633)" fill="#A1A1A1"/>
<rect x="199.843" y="222.039" width="5.55102" height="5.55102" transform="rotate(90 199.843 222.039)" fill="#A1A1A1"/>
<rect x="199.843" y="266.445" width="5.55102" height="5.55102" transform="rotate(90 199.843 266.445)" fill="#A1A1A1"/>
<rect x="244.25" y="44.4062" width="5.55102" height="5.55102" transform="rotate(90 244.25 44.4062)" fill="#A1A1A1"/>
<rect x="244.25" y="88.8125" width="5.55102" height="5.55102" transform="rotate(90 244.25 88.8125)" fill="#A1A1A1"/>
<rect x="244.25" y="133.227" width="5.55102" height="5.55102" transform="rotate(90 244.25 133.227)" fill="#A1A1A1"/>
<rect x="244.25" y="177.633" width="5.55102" height="5.55102" transform="rotate(90 244.25 177.633)" fill="#A1A1A1"/>
<rect x="244.25" y="222.039" width="5.55102" height="5.55102" transform="rotate(90 244.25 222.039)" fill="#A1A1A1"/>
<rect x="244.25" y="266.445" width="5.55102" height="5.55102" transform="rotate(90 244.25 266.445)" fill="#A1A1A1"/>
<rect x="27.7539" y="44.4062" width="5.55102" height="5.55102" transform="rotate(90 27.7539 44.4062)" fill="#A1A1A1"/>
<rect x="27.7539" y="88.8125" width="5.55102" height="5.55102" transform="rotate(90 27.7539 88.8125)" fill="#A1A1A1"/>
<rect x="27.7539" y="133.227" width="5.55102" height="5.55102" transform="rotate(90 27.7539 133.227)" fill="#A1A1A1"/>
<rect x="27.7539" y="177.633" width="5.55102" height="5.55102" transform="rotate(90 27.7539 177.633)" fill="#A1A1A1"/>
<rect x="27.7539" y="222.039" width="5.55102" height="5.55102" transform="rotate(90 27.7539 222.039)" fill="#A1A1A1"/>
<rect x="27.7539" y="266.445" width="5.55102" height="5.55102" transform="rotate(90 27.7539 266.445)" fill="#A1A1A1"/>
<rect x="72.1729" y="44.4062" width="5.55102" height="5.55102" transform="rotate(90 72.1729 44.4062)" fill="#A1A1A1"/>
<rect x="72.1729" y="88.8125" width="5.55102" height="5.55102" transform="rotate(90 72.1729 88.8125)" fill="#A1A1A1"/>
<rect x="72.1729" y="133.227" width="5.55102" height="5.55102" transform="rotate(90 72.1729 133.227)" fill="#A1A1A1"/>
<rect x="72.1729" y="177.633" width="5.55102" height="5.55102" transform="rotate(90 72.1729 177.633)" fill="#A1A1A1"/>
<rect x="72.1729" y="222.039" width="5.55102" height="5.55102" transform="rotate(90 72.1729 222.039)" fill="#A1A1A1"/>
<rect x="72.1729" y="266.445" width="5.55102" height="5.55102" transform="rotate(90 72.1729 266.445)" fill="#A1A1A1"/>
<rect x="116.58" y="44.4062" width="5.55102" height="5.55102" transform="rotate(90 116.58 44.4062)" fill="#A1A1A1"/>
<rect x="116.58" y="88.8125" width="5.55102" height="5.55102" transform="rotate(90 116.58 88.8125)" fill="#A1A1A1"/>
<rect x="116.58" y="133.227" width="5.55102" height="5.55102" transform="rotate(90 116.58 133.227)" fill="#A1A1A1"/>
<rect x="116.58" y="177.633" width="5.55102" height="5.55102" transform="rotate(90 116.58 177.633)" fill="#A1A1A1"/>
<rect x="116.58" y="222.039" width="5.55102" height="5.55102" transform="rotate(90 116.58 222.039)" fill="#A1A1A1"/>
<rect x="116.58" y="266.445" width="5.55102" height="5.55102" transform="rotate(90 116.58 266.445)" fill="#A1A1A1"/>
<rect x="160.986" y="44.4062" width="5.55102" height="5.55102" transform="rotate(90 160.986 44.4062)" fill="#A1A1A1"/>
<rect x="160.986" y="88.8125" width="5.55102" height="5.55102" transform="rotate(90 160.986 88.8125)" fill="#A1A1A1"/>
<rect x="160.986" y="133.227" width="5.55102" height="5.55102" transform="rotate(90 160.986 133.227)" fill="#A1A1A1"/>
<rect x="160.986" y="177.633" width="5.55102" height="5.55102" transform="rotate(90 160.986 177.633)" fill="#A1A1A1"/>
<rect x="160.986" y="222.039" width="5.55102" height="5.55102" transform="rotate(90 160.986 222.039)" fill="#A1A1A1"/>
<rect x="160.986" y="266.445" width="5.55102" height="5.55102" transform="rotate(90 160.986 266.445)" fill="#A1A1A1"/>
<rect x="205.394" y="44.4062" width="5.55102" height="5.55102" transform="rotate(90 205.394 44.4062)" fill="#A1A1A1"/>
<rect x="205.394" y="88.8125" width="5.55102" height="5.55102" transform="rotate(90 205.394 88.8125)" fill="#A1A1A1"/>
<rect x="205.394" y="133.227" width="5.55102" height="5.55102" transform="rotate(90 205.394 133.227)" fill="#A1A1A1"/>
<rect x="205.394" y="177.633" width="5.55102" height="5.55102" transform="rotate(90 205.394 177.633)" fill="#A1A1A1"/>
<rect x="205.394" y="222.039" width="5.55102" height="5.55102" transform="rotate(90 205.394 222.039)" fill="#A1A1A1"/>
<rect x="205.394" y="266.445" width="5.55102" height="5.55102" transform="rotate(90 205.394 266.445)" fill="#A1A1A1"/>
<rect x="249.8" y="44.4062" width="5.55102" height="5.55102" transform="rotate(90 249.8 44.4062)" fill="#A1A1A1"/>
<rect x="249.8" y="88.8125" width="5.55102" height="5.55102" transform="rotate(90 249.8 88.8125)" fill="#A1A1A1"/>
<rect x="249.8" y="133.227" width="5.55102" height="5.55102" transform="rotate(90 249.8 133.227)" fill="#A1A1A1"/>
<rect x="249.8" y="177.633" width="5.55102" height="5.55102" transform="rotate(90 249.8 177.633)" fill="#A1A1A1"/>
<rect x="249.8" y="222.039" width="5.55102" height="5.55102" transform="rotate(90 249.8 222.039)" fill="#A1A1A1"/>
<rect x="249.8" y="266.445" width="5.55102" height="5.55102" transform="rotate(90 249.8 266.445)" fill="#A1A1A1"/>
<rect x="33.3047" y="44.4062" width="5.55102" height="5.55102" transform="rotate(90 33.3047 44.4062)" fill="#A1A1A1"/>
<rect x="33.3047" y="88.8125" width="5.55102" height="5.55102" transform="rotate(90 33.3047 88.8125)" fill="#A1A1A1"/>
<rect x="33.3047" y="133.227" width="5.55102" height="5.55102" transform="rotate(90 33.3047 133.227)" fill="#A1A1A1"/>
<rect x="33.3047" y="177.633" width="5.55102" height="5.55102" transform="rotate(90 33.3047 177.633)" fill="#A1A1A1"/>
<rect x="33.3047" y="222.039" width="5.55102" height="5.55102" transform="rotate(90 33.3047 222.039)" fill="#A1A1A1"/>
<rect x="33.3047" y="266.445" width="5.55102" height="5.55102" transform="rotate(90 33.3047 266.445)" fill="#A1A1A1"/>
<rect x="77.7231" y="44.4062" width="5.55102" height="5.55102" transform="rotate(90 77.7231 44.4062)" fill="#A1A1A1"/>
<rect x="77.7231" y="88.8125" width="5.55102" height="5.55102" transform="rotate(90 77.7231 88.8125)" fill="#A1A1A1"/>
<rect x="77.7231" y="133.227" width="5.55102" height="5.55102" transform="rotate(90 77.7231 133.227)" fill="#A1A1A1"/>
<rect x="77.7231" y="177.633" width="5.55102" height="5.55102" transform="rotate(90 77.7231 177.633)" fill="#A1A1A1"/>
<rect x="77.7231" y="222.039" width="5.55102" height="5.55102" transform="rotate(90 77.7231 222.039)" fill="#A1A1A1"/>
<rect x="77.7231" y="266.445" width="5.55102" height="5.55102" transform="rotate(90 77.7231 266.445)" fill="#A1A1A1"/>
<rect x="122.13" y="44.4062" width="5.55102" height="5.55102" transform="rotate(90 122.13 44.4062)" fill="#A1A1A1"/>
<rect x="122.13" y="88.8125" width="5.55102" height="5.55102" transform="rotate(90 122.13 88.8125)" fill="#A1A1A1"/>
<rect x="122.13" y="133.227" width="5.55102" height="5.55102" transform="rotate(90 122.13 133.227)" fill="#A1A1A1"/>
<rect x="122.13" y="177.633" width="5.55102" height="5.55102" transform="rotate(90 122.13 177.633)" fill="#A1A1A1"/>
<rect x="122.13" y="222.039" width="5.55102" height="5.55102" transform="rotate(90 122.13 222.039)" fill="#A1A1A1"/>
<rect x="122.13" y="266.445" width="5.55102" height="5.55102" transform="rotate(90 122.13 266.445)" fill="#A1A1A1"/>
<rect x="166.538" y="44.4062" width="5.55102" height="5.55102" transform="rotate(90 166.538 44.4062)" fill="#A1A1A1"/>
<rect x="166.538" y="88.8125" width="5.55102" height="5.55102" transform="rotate(90 166.538 88.8125)" fill="#A1A1A1"/>
<rect x="166.538" y="133.227" width="5.55102" height="5.55102" transform="rotate(90 166.538 133.227)" fill="#A1A1A1"/>
<rect x="166.538" y="177.633" width="5.55102" height="5.55102" transform="rotate(90 166.538 177.633)" fill="#A1A1A1"/>
<rect x="166.538" y="222.039" width="5.55102" height="5.55102" transform="rotate(90 166.538 222.039)" fill="#A1A1A1"/>
<rect x="166.538" y="266.445" width="5.55102" height="5.55102" transform="rotate(90 166.538 266.445)" fill="#A1A1A1"/>
<rect x="210.945" y="44.4062" width="5.55102" height="5.55102" transform="rotate(90 210.945 44.4062)" fill="#A1A1A1"/>
<rect x="210.945" y="88.8125" width="5.55102" height="5.55102" transform="rotate(90 210.945 88.8125)" fill="#A1A1A1"/>
<rect x="210.945" y="133.227" width="5.55102" height="5.55102" transform="rotate(90 210.945 133.227)" fill="#A1A1A1"/>
<rect x="210.945" y="177.633" width="5.55102" height="5.55102" transform="rotate(90 210.945 177.633)" fill="#A1A1A1"/>
<rect x="210.945" y="222.039" width="5.55102" height="5.55102" transform="rotate(90 210.945 222.039)" fill="#A1A1A1"/>
<rect x="210.945" y="266.445" width="5.55102" height="5.55102" transform="rotate(90 210.945 266.445)" fill="#A1A1A1"/>
<rect x="255.352" y="44.4062" width="5.55102" height="5.55102" transform="rotate(90 255.352 44.4062)" fill="#A1A1A1"/>
<rect x="255.352" y="88.8125" width="5.55102" height="5.55102" transform="rotate(90 255.352 88.8125)" fill="#A1A1A1"/>
<rect x="255.352" y="133.227" width="5.55102" height="5.55102" transform="rotate(90 255.352 133.227)" fill="#A1A1A1"/>
<rect x="255.352" y="177.633" width="5.55102" height="5.55102" transform="rotate(90 255.352 177.633)" fill="#A1A1A1"/>
<rect x="255.352" y="222.039" width="5.55102" height="5.55102" transform="rotate(90 255.352 222.039)" fill="#A1A1A1"/>
<rect x="255.352" y="266.445" width="5.55102" height="5.55102" transform="rotate(90 255.352 266.445)" fill="#A1A1A1"/>
<rect x="38.8564" y="44.4062" width="5.55102" height="5.55102" transform="rotate(90 38.8564 44.4062)" fill="#A1A1A1"/>
<rect x="38.8564" y="88.8125" width="5.55102" height="5.55102" transform="rotate(90 38.8564 88.8125)" fill="#A1A1A1"/>
<rect x="38.8564" y="133.227" width="5.55102" height="5.55102" transform="rotate(90 38.8564 133.227)" fill="#A1A1A1"/>
<rect x="38.8564" y="177.633" width="5.55102" height="5.55102" transform="rotate(90 38.8564 177.633)" fill="#A1A1A1"/>
<rect x="38.8564" y="222.039" width="5.55102" height="5.55102" transform="rotate(90 38.8564 222.039)" fill="#A1A1A1"/>
<rect x="38.8564" y="266.445" width="5.55102" height="5.55102" transform="rotate(90 38.8564 266.445)" fill="#A1A1A1"/>
<rect x="83.2749" y="44.4062" width="5.55102" height="5.55102" transform="rotate(90 83.2749 44.4062)" fill="#A1A1A1"/>
<rect x="83.2749" y="88.8125" width="5.55102" height="5.55102" transform="rotate(90 83.2749 88.8125)" fill="#A1A1A1"/>
<rect x="83.2749" y="133.227" width="5.55102" height="5.55102" transform="rotate(90 83.2749 133.227)" fill="#A1A1A1"/>
<rect x="83.2749" y="177.633" width="5.55102" height="5.55102" transform="rotate(90 83.2749 177.633)" fill="#A1A1A1"/>
<rect x="83.2749" y="222.039" width="5.55102" height="5.55102" transform="rotate(90 83.2749 222.039)" fill="#A1A1A1"/>
<rect x="83.2749" y="266.445" width="5.55102" height="5.55102" transform="rotate(90 83.2749 266.445)" fill="#A1A1A1"/>
<rect x="127.682" y="44.4062" width="5.55102" height="5.55102" transform="rotate(90 127.682 44.4062)" fill="#A1A1A1"/>
<rect x="127.682" y="88.8125" width="5.55102" height="5.55102" transform="rotate(90 127.682 88.8125)" fill="#A1A1A1"/>
<rect x="127.682" y="133.227" width="5.55102" height="5.55102" transform="rotate(90 127.682 133.227)" fill="#A1A1A1"/>
<rect x="127.682" y="177.633" width="5.55102" height="5.55102" transform="rotate(90 127.682 177.633)" fill="#A1A1A1"/>
<rect x="127.682" y="222.039" width="5.55102" height="5.55102" transform="rotate(90 127.682 222.039)" fill="#A1A1A1"/>
<rect x="127.682" y="266.445" width="5.55102" height="5.55102" transform="rotate(90 127.682 266.445)" fill="#A1A1A1"/>
<rect x="172.089" y="44.4062" width="5.55102" height="5.55102" transform="rotate(90 172.089 44.4062)" fill="#A1A1A1"/>
<rect x="172.089" y="88.8125" width="5.55102" height="5.55102" transform="rotate(90 172.089 88.8125)" fill="#A1A1A1"/>
<rect x="172.089" y="133.227" width="5.55102" height="5.55102" transform="rotate(90 172.089 133.227)" fill="#A1A1A1"/>
<rect x="172.089" y="177.633" width="5.55102" height="5.55102" transform="rotate(90 172.089 177.633)" fill="#A1A1A1"/>
<rect x="172.089" y="222.039" width="5.55102" height="5.55102" transform="rotate(90 172.089 222.039)" fill="#A1A1A1"/>
<rect x="172.089" y="266.445" width="5.55102" height="5.55102" transform="rotate(90 172.089 266.445)" fill="#A1A1A1"/>
<rect x="216.496" y="44.4062" width="5.55102" height="5.55102" transform="rotate(90 216.496 44.4062)" fill="#A1A1A1"/>
<rect x="216.496" y="88.8125" width="5.55102" height="5.55102" transform="rotate(90 216.496 88.8125)" fill="#A1A1A1"/>
<rect x="216.496" y="133.227" width="5.55102" height="5.55102" transform="rotate(90 216.496 133.227)" fill="#A1A1A1"/>
<rect x="216.496" y="177.633" width="5.55102" height="5.55102" transform="rotate(90 216.496 177.633)" fill="#A1A1A1"/>
<rect x="216.496" y="222.039" width="5.55102" height="5.55102" transform="rotate(90 216.496 222.039)" fill="#A1A1A1"/>
<rect x="216.496" y="266.445" width="5.55102" height="5.55102" transform="rotate(90 216.496 266.445)" fill="#A1A1A1"/>
<rect x="260.902" y="44.4062" width="5.55102" height="5.55102" transform="rotate(90 260.902 44.4062)" fill="#A1A1A1"/>
<rect x="260.902" y="88.8125" width="5.55102" height="5.55102" transform="rotate(90 260.902 88.8125)" fill="#A1A1A1"/>
<rect x="260.902" y="133.227" width="5.55102" height="5.55102" transform="rotate(90 260.902 133.227)" fill="#A1A1A1"/>
<rect x="260.902" y="177.633" width="5.55102" height="5.55102" transform="rotate(90 260.902 177.633)" fill="#A1A1A1"/>
<rect x="260.902" y="222.039" width="5.55102" height="5.55102" transform="rotate(90 260.902 222.039)" fill="#A1A1A1"/>
<rect x="260.902" y="266.445" width="5.55102" height="5.55102" transform="rotate(90 260.902 266.445)" fill="#A1A1A1"/>
<rect x="44.4067" y="44.4062" width="5.55102" height="5.55102" transform="rotate(90 44.4067 44.4062)" fill="#A1A1A1"/>
<rect x="44.4067" y="88.8125" width="5.55102" height="5.55102" transform="rotate(90 44.4067 88.8125)" fill="#A1A1A1"/>
<rect x="44.4067" y="133.227" width="5.55102" height="5.55102" transform="rotate(90 44.4067 133.227)" fill="#A1A1A1"/>
<rect x="44.4067" y="177.633" width="5.55102" height="5.55102" transform="rotate(90 44.4067 177.633)" fill="#A1A1A1"/>
<rect x="44.4067" y="222.039" width="5.55102" height="5.55102" transform="rotate(90 44.4067 222.039)" fill="#A1A1A1"/>
<rect x="44.4067" y="266.445" width="5.55102" height="5.55102" transform="rotate(90 44.4067 266.445)" fill="#A1A1A1"/>
<rect x="88.8257" y="44.4062" width="5.55102" height="5.55102" transform="rotate(90 88.8257 44.4062)" fill="#A1A1A1"/>
<rect x="88.8257" y="88.8125" width="5.55102" height="5.55102" transform="rotate(90 88.8257 88.8125)" fill="#A1A1A1"/>
<rect x="88.8257" y="133.227" width="5.55102" height="5.55102" transform="rotate(90 88.8257 133.227)" fill="#A1A1A1"/>
<rect x="88.8257" y="177.633" width="5.55102" height="5.55102" transform="rotate(90 88.8257 177.633)" fill="#A1A1A1"/>
<rect x="88.8257" y="222.039" width="5.55102" height="5.55102" transform="rotate(90 88.8257 222.039)" fill="#A1A1A1"/>
<rect x="88.8257" y="266.445" width="5.55102" height="5.55102" transform="rotate(90 88.8257 266.445)" fill="#A1A1A1"/>
<rect x="133.232" y="44.4062" width="5.55102" height="5.55102" transform="rotate(90 133.232 44.4062)" fill="#A1A1A1"/>
<rect x="133.232" y="88.8125" width="5.55102" height="5.55102" transform="rotate(90 133.232 88.8125)" fill="#A1A1A1"/>
<rect x="133.232" y="133.227" width="5.55102" height="5.55102" transform="rotate(90 133.232 133.227)" fill="#A1A1A1"/>
<rect x="133.232" y="177.633" width="5.55102" height="5.55102" transform="rotate(90 133.232 177.633)" fill="#A1A1A1"/>
<rect x="133.232" y="222.039" width="5.55102" height="5.55102" transform="rotate(90 133.232 222.039)" fill="#A1A1A1"/>
<rect x="133.232" y="266.445" width="5.55102" height="5.55102" transform="rotate(90 133.232 266.445)" fill="#A1A1A1"/>
<rect x="177.639" y="44.4062" width="5.55102" height="5.55102" transform="rotate(90 177.639 44.4062)" fill="#A1A1A1"/>
<rect x="177.639" y="88.8125" width="5.55102" height="5.55102" transform="rotate(90 177.639 88.8125)" fill="#A1A1A1"/>
<rect x="177.639" y="133.227" width="5.55102" height="5.55102" transform="rotate(90 177.639 133.227)" fill="#A1A1A1"/>
<rect x="177.639" y="177.633" width="5.55102" height="5.55102" transform="rotate(90 177.639 177.633)" fill="#A1A1A1"/>
<rect x="177.639" y="222.039" width="5.55102" height="5.55102" transform="rotate(90 177.639 222.039)" fill="#A1A1A1"/>
<rect x="177.639" y="266.445" width="5.55102" height="5.55102" transform="rotate(90 177.639 266.445)" fill="#A1A1A1"/>
<rect x="222.046" y="44.4062" width="5.55102" height="5.55102" transform="rotate(90 222.046 44.4062)" fill="#A1A1A1"/>
<rect x="222.046" y="88.8125" width="5.55102" height="5.55102" transform="rotate(90 222.046 88.8125)" fill="#A1A1A1"/>
<rect x="222.046" y="133.227" width="5.55102" height="5.55102" transform="rotate(90 222.046 133.227)" fill="#A1A1A1"/>
<rect x="222.046" y="177.633" width="5.55102" height="5.55102" transform="rotate(90 222.046 177.633)" fill="#A1A1A1"/>
<rect x="222.046" y="222.039" width="5.55102" height="5.55102" transform="rotate(90 222.046 222.039)" fill="#A1A1A1"/>
<rect x="222.046" y="266.445" width="5.55102" height="5.55102" transform="rotate(90 222.046 266.445)" fill="#A1A1A1"/>
<rect x="266.453" y="44.4062" width="5.55102" height="5.55102" transform="rotate(90 266.453 44.4062)" fill="#A1A1A1"/>
<rect x="266.453" y="88.8125" width="5.55102" height="5.55102" transform="rotate(90 266.453 88.8125)" fill="#A1A1A1"/>
<rect x="266.453" y="133.227" width="5.55102" height="5.55102" transform="rotate(90 266.453 133.227)" fill="#A1A1A1"/>
<rect x="266.453" y="177.633" width="5.55102" height="5.55102" transform="rotate(90 266.453 177.633)" fill="#A1A1A1"/>
<rect x="266.453" y="222.039" width="5.55102" height="5.55102" transform="rotate(90 266.453 222.039)" fill="#A1A1A1"/>
<rect x="266.453" y="266.445" width="5.55102" height="5.55102" transform="rotate(90 266.453 266.445)" fill="#A1A1A1"/>
<rect x="49.9575" y="44.4062" width="5.55102" height="5.55102" transform="rotate(90 49.9575 44.4062)" fill="#A1A1A1"/>
<rect x="49.9575" y="88.8125" width="5.55102" height="5.55102" transform="rotate(90 49.9575 88.8125)" fill="#A1A1A1"/>
<rect x="49.9575" y="133.227" width="5.55102" height="5.55102" transform="rotate(90 49.9575 133.227)" fill="#A1A1A1"/>
<rect x="49.9575" y="177.633" width="5.55102" height="5.55102" transform="rotate(90 49.9575 177.633)" fill="#A1A1A1"/>
<rect x="49.9575" y="222.039" width="5.55102" height="5.55102" transform="rotate(90 49.9575 222.039)" fill="#A1A1A1"/>
<rect x="49.9575" y="266.445" width="5.55102" height="5.55102" transform="rotate(90 49.9575 266.445)" fill="#A1A1A1"/>
<rect x="94.376" y="44.4062" width="5.55102" height="5.55102" transform="rotate(90 94.376 44.4062)" fill="#A1A1A1"/>
<rect x="94.376" y="88.8125" width="5.55102" height="5.55102" transform="rotate(90 94.376 88.8125)" fill="#A1A1A1"/>
<rect x="94.376" y="133.227" width="5.55102" height="5.55102" transform="rotate(90 94.376 133.227)" fill="#A1A1A1"/>
<rect x="94.376" y="177.633" width="5.55102" height="5.55102" transform="rotate(90 94.376 177.633)" fill="#A1A1A1"/>
<rect x="94.376" y="222.039" width="5.55102" height="5.55102" transform="rotate(90 94.376 222.039)" fill="#A1A1A1"/>
<rect x="94.376" y="266.445" width="5.55102" height="5.55102" transform="rotate(90 94.376 266.445)" fill="#A1A1A1"/>
<rect x="138.783" y="44.4062" width="5.55102" height="5.55102" transform="rotate(90 138.783 44.4062)" fill="#A1A1A1"/>
<rect x="138.783" y="88.8125" width="5.55102" height="5.55102" transform="rotate(90 138.783 88.8125)" fill="#A1A1A1"/>
<rect x="138.783" y="133.227" width="5.55102" height="5.55102" transform="rotate(90 138.783 133.227)" fill="#A1A1A1"/>
<rect x="138.783" y="177.633" width="5.55102" height="5.55102" transform="rotate(90 138.783 177.633)" fill="#A1A1A1"/>
<rect x="138.783" y="222.039" width="5.55102" height="5.55102" transform="rotate(90 138.783 222.039)" fill="#A1A1A1"/>
<rect x="138.783" y="266.445" width="5.55102" height="5.55102" transform="rotate(90 138.783 266.445)" fill="#A1A1A1"/>
<rect x="183.19" y="44.4062" width="5.55102" height="5.55102" transform="rotate(90 183.19 44.4062)" fill="#A1A1A1"/>
<rect x="183.19" y="88.8125" width="5.55102" height="5.55102" transform="rotate(90 183.19 88.8125)" fill="#A1A1A1"/>
<rect x="183.19" y="133.227" width="5.55102" height="5.55102" transform="rotate(90 183.19 133.227)" fill="#A1A1A1"/>
<rect x="183.19" y="177.633" width="5.55102" height="5.55102" transform="rotate(90 183.19 177.633)" fill="#A1A1A1"/>
<rect x="183.19" y="222.039" width="5.55102" height="5.55102" transform="rotate(90 183.19 222.039)" fill="#A1A1A1"/>
<rect x="183.19" y="266.445" width="5.55102" height="5.55102" transform="rotate(90 183.19 266.445)" fill="#A1A1A1"/>
<rect x="227.597" y="44.4062" width="5.55102" height="5.55102" transform="rotate(90 227.597 44.4062)" fill="#A1A1A1"/>
<rect x="227.597" y="88.8125" width="5.55102" height="5.55102" transform="rotate(90 227.597 88.8125)" fill="#A1A1A1"/>
<rect x="227.597" y="133.227" width="5.55102" height="5.55102" transform="rotate(90 227.597 133.227)" fill="#A1A1A1"/>
<rect x="227.597" y="177.633" width="5.55102" height="5.55102" transform="rotate(90 227.597 177.633)" fill="#A1A1A1"/>
<rect x="227.597" y="222.039" width="5.55102" height="5.55102" transform="rotate(90 227.597 222.039)" fill="#A1A1A1"/>
<rect x="227.597" y="266.445" width="5.55102" height="5.55102" transform="rotate(90 227.597 266.445)" fill="#A1A1A1"/>
<rect x="272.004" y="44.4062" width="5.55102" height="5.55102" transform="rotate(90 272.004 44.4062)" fill="#A1A1A1"/>
<rect x="272.004" y="88.8125" width="5.55102" height="5.55102" transform="rotate(90 272.004 88.8125)" fill="#A1A1A1"/>
<rect x="272.004" y="133.227" width="5.55102" height="5.55102" transform="rotate(90 272.004 133.227)" fill="#A1A1A1"/>
<rect x="272.004" y="177.633" width="5.55102" height="5.55102" transform="rotate(90 272.004 177.633)" fill="#A1A1A1"/>
<rect x="272.004" y="222.039" width="5.55102" height="5.55102" transform="rotate(90 272.004 222.039)" fill="#A1A1A1"/>
<rect x="272.004" y="266.445" width="5.55102" height="5.55102" transform="rotate(90 272.004 266.445)" fill="#A1A1A1"/>
<rect x="49.9575" y="38.8594" width="5.55102" height="5.55102" transform="rotate(90 49.9575 38.8594)" fill="#A1A1A1"/>
<rect x="49.9575" y="83.2656" width="5.55102" height="5.55102" transform="rotate(90 49.9575 83.2656)" fill="#A1A1A1"/>
<rect x="49.9575" y="127.672" width="5.55102" height="5.55102" transform="rotate(90 49.9575 127.672)" fill="#A1A1A1"/>
<rect x="49.9575" y="172.078" width="5.55102" height="5.55102" transform="rotate(90 49.9575 172.078)" fill="#A1A1A1"/>
<rect x="49.9575" y="216.492" width="5.55102" height="5.55102" transform="rotate(90 49.9575 216.492)" fill="#A1A1A1"/>
<rect x="49.9575" y="260.898" width="5.55102" height="5.55102" transform="rotate(90 49.9575 260.898)" fill="#A1A1A1"/>
<rect x="94.376" y="38.8594" width="5.55102" height="5.55102" transform="rotate(90 94.376 38.8594)" fill="#A1A1A1"/>
<rect x="94.376" y="83.2656" width="5.55102" height="5.55102" transform="rotate(90 94.376 83.2656)" fill="#A1A1A1"/>
<rect x="94.376" y="127.672" width="5.55102" height="5.55102" transform="rotate(90 94.376 127.672)" fill="#A1A1A1"/>
<rect x="94.376" y="172.078" width="5.55102" height="5.55102" transform="rotate(90 94.376 172.078)" fill="#A1A1A1"/>
<rect x="94.376" y="216.492" width="5.55102" height="5.55102" transform="rotate(90 94.376 216.492)" fill="#A1A1A1"/>
<rect x="94.376" y="260.898" width="5.55102" height="5.55102" transform="rotate(90 94.376 260.898)" fill="#A1A1A1"/>
<rect x="138.783" y="38.8594" width="5.55102" height="5.55102" transform="rotate(90 138.783 38.8594)" fill="#A1A1A1"/>
<rect x="138.783" y="83.2656" width="5.55102" height="5.55102" transform="rotate(90 138.783 83.2656)" fill="#A1A1A1"/>
<rect x="138.783" y="127.672" width="5.55102" height="5.55102" transform="rotate(90 138.783 127.672)" fill="#A1A1A1"/>
<rect x="138.783" y="172.078" width="5.55102" height="5.55102" transform="rotate(90 138.783 172.078)" fill="#A1A1A1"/>
<rect x="138.783" y="216.492" width="5.55102" height="5.55102" transform="rotate(90 138.783 216.492)" fill="#A1A1A1"/>
<rect x="138.783" y="260.898" width="5.55102" height="5.55102" transform="rotate(90 138.783 260.898)" fill="#A1A1A1"/>
<rect x="183.19" y="38.8594" width="5.55102" height="5.55102" transform="rotate(90 183.19 38.8594)" fill="#A1A1A1"/>
<rect x="183.19" y="83.2656" width="5.55102" height="5.55102" transform="rotate(90 183.19 83.2656)" fill="#A1A1A1"/>
<rect x="183.19" y="127.672" width="5.55102" height="5.55102" transform="rotate(90 183.19 127.672)" fill="#A1A1A1"/>
<rect x="183.19" y="172.078" width="5.55102" height="5.55102" transform="rotate(90 183.19 172.078)" fill="#A1A1A1"/>
<rect x="183.19" y="216.492" width="5.55102" height="5.55102" transform="rotate(90 183.19 216.492)" fill="#A1A1A1"/>
<rect x="183.19" y="260.898" width="5.55102" height="5.55102" transform="rotate(90 183.19 260.898)" fill="#A1A1A1"/>
<rect x="227.597" y="38.8594" width="5.55102" height="5.55102" transform="rotate(90 227.597 38.8594)" fill="#A1A1A1"/>
<rect x="227.597" y="83.2656" width="5.55102" height="5.55102" transform="rotate(90 227.597 83.2656)" fill="#A1A1A1"/>
<rect x="227.597" y="127.672" width="5.55102" height="5.55102" transform="rotate(90 227.597 127.672)" fill="#A1A1A1"/>
<rect x="227.597" y="172.078" width="5.55102" height="5.55102" transform="rotate(90 227.597 172.078)" fill="#A1A1A1"/>
<rect x="227.597" y="216.492" width="5.55102" height="5.55102" transform="rotate(90 227.597 216.492)" fill="#A1A1A1"/>
<rect x="227.597" y="260.898" width="5.55102" height="5.55102" transform="rotate(90 227.597 260.898)" fill="#A1A1A1"/>
<rect x="272.004" y="38.8594" width="5.55102" height="5.55102" transform="rotate(90 272.004 38.8594)" fill="#A1A1A1"/>
<rect x="272.004" y="83.2656" width="5.55102" height="5.55102" transform="rotate(90 272.004 83.2656)" fill="#A1A1A1"/>
<rect x="272.004" y="127.672" width="5.55102" height="5.55102" transform="rotate(90 272.004 127.672)" fill="#A1A1A1"/>
<rect x="272.004" y="172.078" width="5.55102" height="5.55102" transform="rotate(90 272.004 172.078)" fill="#A1A1A1"/>
<rect x="272.004" y="216.492" width="5.55102" height="5.55102" transform="rotate(90 272.004 216.492)" fill="#A1A1A1"/>
<rect x="272.004" y="260.898" width="5.55102" height="5.55102" transform="rotate(90 272.004 260.898)" fill="#A1A1A1"/>
<rect x="11.1011" y="44.4062" width="5.55102" height="5.55102" transform="rotate(90 11.1011 44.4062)" fill="#A1A1A1"/>
<rect x="11.1011" y="88.8125" width="5.55102" height="5.55102" transform="rotate(90 11.1011 88.8125)" fill="#A1A1A1"/>
<rect x="11.1011" y="133.227" width="5.55102" height="5.55102" transform="rotate(90 11.1011 133.227)" fill="#A1A1A1"/>
<rect x="11.1011" y="177.633" width="5.55102" height="5.55102" transform="rotate(90 11.1011 177.633)" fill="#A1A1A1"/>
<rect x="11.1011" y="222.039" width="5.55102" height="5.55102" transform="rotate(90 11.1011 222.039)" fill="#A1A1A1"/>
<rect x="11.1011" y="266.445" width="5.55102" height="5.55102" transform="rotate(90 11.1011 266.445)" fill="#A1A1A1"/>
<rect x="55.5083" y="44.4062" width="5.55102" height="5.55102" transform="rotate(90 55.5083 44.4062)" fill="#A1A1A1"/>
<rect x="55.5083" y="88.8125" width="5.55102" height="5.55102" transform="rotate(90 55.5083 88.8125)" fill="#A1A1A1"/>
<rect x="55.5083" y="133.227" width="5.55102" height="5.55102" transform="rotate(90 55.5083 133.227)" fill="#A1A1A1"/>
<rect x="55.5083" y="177.633" width="5.55102" height="5.55102" transform="rotate(90 55.5083 177.633)" fill="#A1A1A1"/>
<rect x="55.5083" y="222.039" width="5.55102" height="5.55102" transform="rotate(90 55.5083 222.039)" fill="#A1A1A1"/>
<rect x="55.5083" y="266.445" width="5.55102" height="5.55102" transform="rotate(90 55.5083 266.445)" fill="#A1A1A1"/>
<rect x="99.9268" y="44.4062" width="5.55102" height="5.55102" transform="rotate(90 99.9268 44.4062)" fill="#A1A1A1"/>
<rect x="99.9268" y="88.8125" width="5.55102" height="5.55102" transform="rotate(90 99.9268 88.8125)" fill="#A1A1A1"/>
<rect x="99.9268" y="133.227" width="5.55102" height="5.55102" transform="rotate(90 99.9268 133.227)" fill="#A1A1A1"/>
<rect x="99.9268" y="177.633" width="5.55102" height="5.55102" transform="rotate(90 99.9268 177.633)" fill="#A1A1A1"/>
<rect x="99.9268" y="222.039" width="5.55102" height="5.55102" transform="rotate(90 99.9268 222.039)" fill="#A1A1A1"/>
<rect x="99.9268" y="266.445" width="5.55102" height="5.55102" transform="rotate(90 99.9268 266.445)" fill="#A1A1A1"/>
<rect x="144.334" y="44.4062" width="5.55102" height="5.55102" transform="rotate(90 144.334 44.4062)" fill="#A1A1A1"/>
<rect x="144.334" y="88.8125" width="5.55102" height="5.55102" transform="rotate(90 144.334 88.8125)" fill="#A1A1A1"/>
<rect x="144.334" y="133.227" width="5.55102" height="5.55102" transform="rotate(90 144.334 133.227)" fill="#A1A1A1"/>
<rect x="144.334" y="177.633" width="5.55102" height="5.55102" transform="rotate(90 144.334 177.633)" fill="#A1A1A1"/>
<rect x="144.334" y="222.039" width="5.55102" height="5.55102" transform="rotate(90 144.334 222.039)" fill="#A1A1A1"/>
<rect x="144.334" y="266.445" width="5.55102" height="5.55102" transform="rotate(90 144.334 266.445)" fill="#A1A1A1"/>
<rect x="188.742" y="44.4062" width="5.55102" height="5.55102" transform="rotate(90 188.742 44.4062)" fill="#A1A1A1"/>
<rect x="188.742" y="88.8125" width="5.55102" height="5.55102" transform="rotate(90 188.742 88.8125)" fill="#A1A1A1"/>
<rect x="188.742" y="133.227" width="5.55102" height="5.55102" transform="rotate(90 188.742 133.227)" fill="#A1A1A1"/>
<rect x="188.742" y="177.633" width="5.55102" height="5.55102" transform="rotate(90 188.742 177.633)" fill="#A1A1A1"/>
<rect x="188.742" y="222.039" width="5.55102" height="5.55102" transform="rotate(90 188.742 222.039)" fill="#A1A1A1"/>
<rect x="188.742" y="266.445" width="5.55102" height="5.55102" transform="rotate(90 188.742 266.445)" fill="#A1A1A1"/>
<rect x="233.148" y="44.4062" width="5.55102" height="5.55102" transform="rotate(90 233.148 44.4062)" fill="#A1A1A1"/>
<rect x="233.148" y="88.8125" width="5.55102" height="5.55102" transform="rotate(90 233.148 88.8125)" fill="#A1A1A1"/>
<rect x="233.148" y="133.227" width="5.55102" height="5.55102" transform="rotate(90 233.148 133.227)" fill="#A1A1A1"/>
<rect x="233.148" y="177.633" width="5.55102" height="5.55102" transform="rotate(90 233.148 177.633)" fill="#A1A1A1"/>
<rect x="233.148" y="222.039" width="5.55102" height="5.55102" transform="rotate(90 233.148 222.039)" fill="#A1A1A1"/>
<rect x="233.148" y="266.445" width="5.55102" height="5.55102" transform="rotate(90 233.148 266.445)" fill="#A1A1A1"/>
<rect x="16.6528" y="44.4062" width="5.55102" height="5.55102" transform="rotate(90 16.6528 44.4062)" fill="#A1A1A1"/>
<rect x="16.6528" y="88.8125" width="5.55102" height="5.55102" transform="rotate(90 16.6528 88.8125)" fill="#A1A1A1"/>
<rect x="16.6528" y="133.227" width="5.55102" height="5.55102" transform="rotate(90 16.6528 133.227)" fill="#A1A1A1"/>
<rect x="16.6528" y="177.633" width="5.55102" height="5.55102" transform="rotate(90 16.6528 177.633)" fill="#A1A1A1"/>
<rect x="16.6528" y="222.039" width="5.55102" height="5.55102" transform="rotate(90 16.6528 222.039)" fill="#A1A1A1"/>
<rect x="16.6528" y="266.445" width="5.55102" height="5.55102" transform="rotate(90 16.6528 266.445)" fill="#A1A1A1"/>
<rect x="61.0596" y="44.4062" width="5.55102" height="5.55102" transform="rotate(90 61.0596 44.4062)" fill="#A1A1A1"/>
<rect x="61.0596" y="88.8125" width="5.55102" height="5.55102" transform="rotate(90 61.0596 88.8125)" fill="#A1A1A1"/>
<rect x="61.0596" y="133.227" width="5.55102" height="5.55102" transform="rotate(90 61.0596 133.227)" fill="#A1A1A1"/>
<rect x="61.0596" y="177.633" width="5.55102" height="5.55102" transform="rotate(90 61.0596 177.633)" fill="#A1A1A1"/>
<rect x="61.0596" y="222.039" width="5.55102" height="5.55102" transform="rotate(90 61.0596 222.039)" fill="#A1A1A1"/>
<rect x="61.0596" y="266.445" width="5.55102" height="5.55102" transform="rotate(90 61.0596 266.445)" fill="#A1A1A1"/>
<rect x="105.479" y="44.4062" width="5.55102" height="5.55102" transform="rotate(90 105.479 44.4062)" fill="#A1A1A1"/>
<rect x="105.479" y="88.8125" width="5.55102" height="5.55102" transform="rotate(90 105.479 88.8125)" fill="#A1A1A1"/>
<rect x="105.479" y="133.227" width="5.55102" height="5.55102" transform="rotate(90 105.479 133.227)" fill="#A1A1A1"/>
<rect x="105.479" y="177.633" width="5.55102" height="5.55102" transform="rotate(90 105.479 177.633)" fill="#A1A1A1"/>
<rect x="105.479" y="222.039" width="5.55102" height="5.55102" transform="rotate(90 105.479 222.039)" fill="#A1A1A1"/>
<rect x="105.479" y="266.445" width="5.55102" height="5.55102" transform="rotate(90 105.479 266.445)" fill="#A1A1A1"/>
<rect x="149.885" y="44.4062" width="5.55102" height="5.55102" transform="rotate(90 149.885 44.4062)" fill="#A1A1A1"/>
<rect x="149.885" y="88.8125" width="5.55102" height="5.55102" transform="rotate(90 149.885 88.8125)" fill="#A1A1A1"/>
<rect x="149.885" y="133.227" width="5.55102" height="5.55102" transform="rotate(90 149.885 133.227)" fill="#A1A1A1"/>
<rect x="149.885" y="177.633" width="5.55102" height="5.55102" transform="rotate(90 149.885 177.633)" fill="#A1A1A1"/>
<rect x="149.885" y="222.039" width="5.55102" height="5.55102" transform="rotate(90 149.885 222.039)" fill="#A1A1A1"/>
<rect x="149.885" y="266.445" width="5.55102" height="5.55102" transform="rotate(90 149.885 266.445)" fill="#A1A1A1"/>
<rect x="194.292" y="44.4062" width="5.55102" height="5.55102" transform="rotate(90 194.292 44.4062)" fill="#A1A1A1"/>
<rect x="194.292" y="88.8125" width="5.55102" height="5.55102" transform="rotate(90 194.292 88.8125)" fill="#A1A1A1"/>
<rect x="194.292" y="133.227" width="5.55102" height="5.55102" transform="rotate(90 194.292 133.227)" fill="#A1A1A1"/>
<rect x="194.292" y="177.633" width="5.55102" height="5.55102" transform="rotate(90 194.292 177.633)" fill="#A1A1A1"/>
<rect x="194.292" y="222.039" width="5.55102" height="5.55102" transform="rotate(90 194.292 222.039)" fill="#A1A1A1"/>
<rect x="194.292" y="266.445" width="5.55102" height="5.55102" transform="rotate(90 194.292 266.445)" fill="#A1A1A1"/>
<rect x="238.699" y="44.4062" width="5.55102" height="5.55102" transform="rotate(90 238.699 44.4062)" fill="#A1A1A1"/>
<rect x="238.699" y="88.8125" width="5.55102" height="5.55102" transform="rotate(90 238.699 88.8125)" fill="#A1A1A1"/>
<rect x="238.699" y="133.227" width="5.55102" height="5.55102" transform="rotate(90 238.699 133.227)" fill="#A1A1A1"/>
<rect x="238.699" y="177.633" width="5.55102" height="5.55102" transform="rotate(90 238.699 177.633)" fill="#A1A1A1"/>
<rect x="238.699" y="222.039" width="5.55102" height="5.55102" transform="rotate(90 238.699 222.039)" fill="#A1A1A1"/>
<rect x="238.699" y="266.445" width="5.55102" height="5.55102" transform="rotate(90 238.699 266.445)" fill="#A1A1A1"/>
<circle cx="158.103" cy="114.102" r="11.102" fill="black"/>
<circle cx="114.103" cy="158.102" r="11.102" fill="black"/>
<circle cx="158.103" cy="158.102" r="11.102" fill="white"/>
<circle cx="114.103" cy="114.102" r="11.102" fill="white"/>
</svg>
