<svg width="272" height="272" viewBox="0 0 272 272" fill="none" xmlns="http://www.w3.org/2000/svg">
<rect width="5.55088" height="5.55098" transform="matrix(1 0 0 -1 22.2109 38.8555)" fill="#A1A1A1"/>
<rect width="5.55088" height="5.55098" transform="matrix(1 0 0 -1 22.2109 5.55273)" fill="#A1A1A1"/>
<rect width="5.55088" height="5.55098" transform="matrix(1 0 0 -1 22.2109 72.1631)" fill="#A1A1A1"/>
<rect width="5.55088" height="5.55098" transform="matrix(1 0 0 -1 22.2109 105.471)" fill="#A1A1A1"/>
<rect width="5.55088" height="5.55098" transform="matrix(1 0 0 -1 22.2109 138.773)" fill="#A1A1A1"/>
<rect width="5.55088" height="5.55098" transform="matrix(1 0 0 -1 22.2109 172.081)" fill="#A1A1A1"/>
<rect width="5.55088" height="5.55098" transform="matrix(1 0 0 -1 22.2109 205.385)" fill="#A1A1A1"/>
<rect width="5.55088" height="5.55098" transform="matrix(1 0 0 -1 22.2109 238.691)" fill="#A1A1A1"/>
<rect width="5.55088" height="5.55098" transform="matrix(1 0 0 -1 22.2109 271.999)" fill="#A1A1A1"/>
<rect width="5.55088" height="5.55098" transform="matrix(1 0 0 -1 116.57 271.999)" fill="#A1A1A1"/>
<rect width="5.55088" height="5.55098" transform="matrix(1 0 0 -1 116.57 38.8555)" fill="#A1A1A1"/>
<rect width="5.55088" height="5.55098" transform="matrix(1 0 0 -1 116.57 5.55273)" fill="#A1A1A1"/>
<rect width="5.55088" height="5.55098" transform="matrix(1 0 0 -1 116.57 72.1631)" fill="#A1A1A1"/>
<rect width="5.55088" height="5.55098" transform="matrix(1 0 0 -1 160.977 271.999)" fill="#A1A1A1"/>
<rect width="5.55088" height="5.55098" transform="matrix(1 0 0 -1 160.977 38.8555)" fill="#A1A1A1"/>
<rect width="5.55088" height="5.55098" transform="matrix(1 0 0 -1 160.977 5.55273)" fill="#A1A1A1"/>
<rect width="5.55088" height="5.55098" transform="matrix(1 0 0 -1 160.977 72.1631)" fill="#A1A1A1"/>
<rect width="5.55088" height="5.55098" transform="matrix(1 0 0 -1 249.797 271.999)" fill="#A1A1A1"/>
<rect width="5.55088" height="5.55098" transform="matrix(1 0 0 -1 249.797 38.8555)" fill="#A1A1A1"/>
<rect width="5.55088" height="5.55098" transform="matrix(1 0 0 -1 249.797 5.55273)" fill="#A1A1A1"/>
<rect width="5.55088" height="5.55098" transform="matrix(1 0 0 -1 249.797 72.1631)" fill="#A1A1A1"/>
<rect width="5.55088" height="5.55098" transform="matrix(1 0 0 -1 49.9609 271.999)" fill="#A1A1A1"/>
<rect width="5.55088" height="5.55098" transform="matrix(1 0 0 -1 49.9609 38.8555)" fill="#A1A1A1"/>
<rect width="5.55088" height="5.55098" transform="matrix(1 0 0 -1 49.9609 5.55273)" fill="#A1A1A1"/>
<rect width="5.55088" height="5.55098" transform="matrix(1 0 0 -1 49.9609 72.1631)" fill="#A1A1A1"/>
<rect width="5.55088" height="5.55098" transform="matrix(1 0 0 -1 49.9609 105.471)" fill="#A1A1A1"/>
<rect width="5.55088" height="5.55098" transform="matrix(1 0 0 -1 49.9609 138.773)" fill="#A1A1A1"/>
<rect width="5.55088" height="5.55098" transform="matrix(1 0 0 -1 49.9609 172.081)" fill="#A1A1A1"/>
<rect width="5.55088" height="5.55098" transform="matrix(1 0 0 -1 49.9609 205.385)" fill="#A1A1A1"/>
<rect width="5.55088" height="5.55098" transform="matrix(1 0 0 -1 49.9609 238.691)" fill="#A1A1A1"/>
<rect width="5.55088" height="5.55098" transform="matrix(1 0 0 -1 83.2656 238.691)" fill="#A1A1A1"/>
<rect width="5.55088" height="5.55098" transform="matrix(1 0 0 -1 83.2656 205.385)" fill="#A1A1A1"/>
<rect width="5.55088" height="5.55098" transform="matrix(1 0 0 -1 83.2656 172.081)" fill="#A1A1A1"/>
<rect width="5.55088" height="5.55098" transform="matrix(1 0 0 -1 83.2656 138.773)" fill="#A1A1A1"/>
<rect width="5.55088" height="5.55098" transform="matrix(1 0 0 -1 83.2656 105.471)" fill="#A1A1A1"/>
<rect width="5.55088" height="5.55098" transform="matrix(1 0 0 -1 116.57 105.471)" fill="#A1A1A1"/>
<rect width="5.55088" height="5.55098" transform="matrix(1 0 0 -1 149.883 105.471)" fill="#A1A1A1"/>
<rect width="5.55088" height="5.55098" transform="matrix(1 0 0 -1 183.18 105.471)" fill="#A1A1A1"/>
<rect width="5.55088" height="5.55098" transform="matrix(1 0 0 -1 183.18 138.773)" fill="#A1A1A1"/>
<rect width="5.55088" height="5.55098" transform="matrix(1 0 0 -1 149.883 138.773)" fill="#A1A1A1"/>
<rect width="5.55088" height="5.55098" transform="matrix(1 0 0 -1 116.57 138.773)" fill="#A1A1A1"/>
<rect width="5.55088" height="5.55098" transform="matrix(1 0 0 -1 116.57 172.081)" fill="#A1A1A1"/>
<rect width="5.55088" height="5.55098" transform="matrix(1 0 0 -1 116.57 205.385)" fill="#A1A1A1"/>
<rect width="5.55088" height="5.55098" transform="matrix(1 0 0 -1 116.57 238.691)" fill="#A1A1A1"/>
<rect width="5.55088" height="5.55098" transform="matrix(1 0 0 -1 149.883 172.081)" fill="#A1A1A1"/>
<rect width="5.55088" height="5.55098" transform="matrix(1 0 0 -1 149.883 205.385)" fill="#A1A1A1"/>
<rect width="5.55088" height="5.55098" transform="matrix(1 0 0 -1 149.883 238.691)" fill="#A1A1A1"/>
<rect width="5.55088" height="5.55098" transform="matrix(1 0 0 -1 183.18 172.081)" fill="#A1A1A1"/>
<rect width="5.55088" height="5.55098" transform="matrix(1 0 0 -1 183.18 205.385)" fill="#A1A1A1"/>
<rect width="5.55088" height="5.55098" transform="matrix(1 0 0 -1 183.18 238.691)" fill="#A1A1A1"/>
<rect width="5.55088" height="5.55098" transform="matrix(1 0 0 -1 216.484 238.691)" fill="#A1A1A1"/>
<rect width="5.55088" height="5.55098" transform="matrix(1 0 0 -1 216.484 205.385)" fill="#A1A1A1"/>
<rect width="5.55088" height="5.55098" transform="matrix(1 0 0 -1 216.484 172.081)" fill="#A1A1A1"/>
<rect width="5.55088" height="5.55098" transform="matrix(1 0 0 -1 216.484 138.773)" fill="#A1A1A1"/>
<rect width="5.55088" height="5.55098" transform="matrix(1 0 0 -1 216.484 105.471)" fill="#A1A1A1"/>
<rect width="5.55088" height="5.55098" transform="matrix(1 0 0 -1 249.797 105.471)" fill="#A1A1A1"/>
<rect width="5.55088" height="5.55098" transform="matrix(1 0 0 -1 249.797 138.773)" fill="#A1A1A1"/>
<rect width="5.55088" height="5.55098" transform="matrix(1 0 0 -1 249.797 172.081)" fill="#A1A1A1"/>
<rect width="5.55088" height="5.55098" transform="matrix(1 0 0 -1 249.797 205.385)" fill="#A1A1A1"/>
<rect width="5.55088" height="5.55098" transform="matrix(1 0 0 -1 249.797 238.691)" fill="#A1A1A1"/>
<rect width="5.55088" height="5.55098" transform="matrix(1 0 0 -1 227.586 271.999)" fill="#A1A1A1"/>
<rect width="5.55088" height="5.55098" transform="matrix(1 0 0 -1 227.586 38.8555)" fill="#A1A1A1"/>
<rect width="5.55088" height="5.55098" transform="matrix(1 0 0 -1 227.586 5.55273)" fill="#A1A1A1"/>
<rect width="5.55088" height="5.55098" transform="matrix(1 0 0 -1 227.586 72.1631)" fill="#A1A1A1"/>
<rect width="5.55088" height="5.55098" transform="matrix(1 0 0 -1 94.3672 271.999)" fill="#A1A1A1"/>
<rect width="5.55088" height="5.55098" transform="matrix(1 0 0 -1 94.3672 38.8555)" fill="#A1A1A1"/>
<rect width="5.55088" height="5.55098" transform="matrix(1 0 0 -1 94.3672 5.55273)" fill="#A1A1A1"/>
<rect width="5.55088" height="5.55098" transform="matrix(1 0 0 -1 94.3672 72.1631)" fill="#A1A1A1"/>
<rect width="5.55088" height="5.55098" transform="matrix(1 0 0 -1 183.18 271.999)" fill="#A1A1A1"/>
<rect width="5.55088" height="5.55098" transform="matrix(1 0 0 -1 183.18 38.8555)" fill="#A1A1A1"/>
<rect width="5.55088" height="5.55098" transform="matrix(1 0 0 -1 183.18 5.55273)" fill="#A1A1A1"/>
<rect width="5.55088" height="5.55098" transform="matrix(1 0 0 -1 183.18 72.1631)" fill="#A1A1A1"/>
<rect width="5.55088" height="5.55098" transform="matrix(1 0 0 -1 166.531 271.999)" fill="#A1A1A1"/>
<rect width="5.55088" height="5.55098" transform="matrix(1 0 0 -1 166.531 38.8555)" fill="#A1A1A1"/>
<rect width="5.55088" height="5.55098" transform="matrix(1 0 0 -1 166.531 5.55273)" fill="#A1A1A1"/>
<rect width="5.55088" height="5.55098" transform="matrix(1 0 0 -1 38.8594 271.999)" fill="#A1A1A1"/>
<rect width="5.55088" height="5.55098" transform="matrix(1 0 0 -1 38.8594 38.8555)" fill="#A1A1A1"/>
<rect width="5.55088" height="5.55098" transform="matrix(1 0 0 -1 38.8594 5.55273)" fill="#A1A1A1"/>
<rect width="5.55088" height="5.55098" transform="matrix(1 0 0 -1 38.8594 72.1631)" fill="#A1A1A1"/>
<rect width="5.55088" height="5.55098" transform="matrix(1 0 0 -1 38.8594 105.471)" fill="#A1A1A1"/>
<rect width="5.55088" height="5.55098" transform="matrix(1 0 0 -1 38.8594 138.773)" fill="#A1A1A1"/>
<rect width="5.55088" height="5.55098" transform="matrix(1 0 0 -1 38.8594 172.081)" fill="#A1A1A1"/>
<rect width="5.55088" height="5.55098" transform="matrix(1 0 0 -1 38.8594 205.385)" fill="#A1A1A1"/>
<rect width="5.55088" height="5.55098" transform="matrix(1 0 0 -1 38.8594 238.691)" fill="#A1A1A1"/>
<rect width="5.55088" height="5.55098" transform="matrix(1 0 0 -1 72.1641 238.691)" fill="#A1A1A1"/>
<rect width="5.55088" height="5.55098" transform="matrix(1 0 0 -1 72.1641 205.385)" fill="#A1A1A1"/>
<rect width="5.55088" height="5.55098" transform="matrix(1 0 0 -1 72.1641 172.081)" fill="#A1A1A1"/>
<rect width="5.55088" height="5.55098" transform="matrix(1 0 0 -1 72.1641 138.773)" fill="#A1A1A1"/>
<rect width="5.55088" height="5.55098" transform="matrix(1 0 0 -1 72.1641 105.471)" fill="#A1A1A1"/>
<rect width="5.55088" height="5.55098" transform="matrix(1 0 0 -1 105.469 105.471)" fill="#A1A1A1"/>
<rect width="5.55088" height="5.55098" transform="matrix(1 0 0 -1 138.773 105.471)" fill="#A1A1A1"/>
<rect width="5.55088" height="5.55098" transform="matrix(1 0 0 -1 172.078 105.471)" fill="#A1A1A1"/>
<rect width="5.55088" height="5.55098" transform="matrix(1 0 0 -1 172.078 138.773)" fill="#A1A1A1"/>
<rect width="5.55088" height="5.55098" transform="matrix(1 0 0 -1 138.773 138.773)" fill="#A1A1A1"/>
<rect width="5.55088" height="5.55098" transform="matrix(1 0 0 -1 105.469 138.773)" fill="#A1A1A1"/>
<rect width="5.55088" height="5.55098" transform="matrix(1 0 0 -1 105.469 172.081)" fill="#A1A1A1"/>
<rect width="5.55088" height="5.55098" transform="matrix(1 0 0 -1 105.469 205.385)" fill="#A1A1A1"/>
<rect width="5.55088" height="5.55098" transform="matrix(1 0 0 -1 105.469 238.691)" fill="#A1A1A1"/>
<rect width="5.55088" height="5.55098" transform="matrix(1 0 0 -1 138.773 172.081)" fill="#A1A1A1"/>
<rect width="5.55088" height="5.55098" transform="matrix(1 0 0 -1 138.773 205.385)" fill="#A1A1A1"/>
<rect width="5.55088" height="5.55098" transform="matrix(1 0 0 -1 138.773 238.691)" fill="#A1A1A1"/>
<rect width="5.55088" height="5.55098" transform="matrix(1 0 0 -1 172.078 172.081)" fill="#A1A1A1"/>
<rect width="5.55088" height="5.55098" transform="matrix(1 0 0 -1 172.078 205.385)" fill="#A1A1A1"/>
<rect width="5.55088" height="5.55098" transform="matrix(1 0 0 -1 172.078 238.691)" fill="#A1A1A1"/>
<rect width="5.55088" height="5.55098" transform="matrix(1 0 0 -1 205.391 238.691)" fill="#A1A1A1"/>
<rect width="5.55088" height="5.55098" transform="matrix(1 0 0 -1 205.391 205.385)" fill="#A1A1A1"/>
<rect width="5.55088" height="5.55098" transform="matrix(1 0 0 -1 205.391 172.081)" fill="#A1A1A1"/>
<rect width="5.55088" height="5.55098" transform="matrix(1 0 0 -1 205.391 138.773)" fill="#A1A1A1"/>
<rect width="5.55088" height="5.55098" transform="matrix(1 0 0 -1 205.391 105.471)" fill="#A1A1A1"/>
<rect width="5.55088" height="5.55098" transform="matrix(1 0 0 -1 238.695 105.471)" fill="#A1A1A1"/>
<rect width="5.55088" height="5.55098" transform="matrix(1 0 0 -1 238.695 138.773)" fill="#A1A1A1"/>
<rect width="5.55088" height="5.55098" transform="matrix(1 0 0 -1 238.695 172.081)" fill="#A1A1A1"/>
<rect width="5.55088" height="5.55098" transform="matrix(1 0 0 -1 238.695 205.385)" fill="#A1A1A1"/>
<rect width="5.55088" height="5.55098" transform="matrix(1 0 0 -1 238.695 238.691)" fill="#A1A1A1"/>
<rect width="5.55088" height="5.55098" transform="matrix(1 0 0 -1 127.672 271.999)" fill="#A1A1A1"/>
<rect width="5.55088" height="5.55098" transform="matrix(1 0 0 -1 127.672 38.8555)" fill="#A1A1A1"/>
<rect width="5.55088" height="5.55098" transform="matrix(1 0 0 -1 127.672 5.55273)" fill="#A1A1A1"/>
<rect width="5.55088" height="5.55098" transform="matrix(1 0 0 -1 127.672 72.1631)" fill="#A1A1A1"/>
<rect width="5.55088" height="5.55098" transform="matrix(1 0 0 -1 216.484 271.999)" fill="#A1A1A1"/>
<rect width="5.55088" height="5.55098" transform="matrix(1 0 0 -1 216.484 38.8555)" fill="#A1A1A1"/>
<rect width="5.55088" height="5.55098" transform="matrix(1 0 0 -1 216.484 5.55273)" fill="#A1A1A1"/>
<rect width="5.55088" height="5.55098" transform="matrix(1 0 0 -1 216.484 72.1631)" fill="#A1A1A1"/>
<rect width="5.55088" height="5.55098" transform="matrix(1 0 0 -1 83.2656 271.999)" fill="#A1A1A1"/>
<rect width="5.55088" height="5.55098" transform="matrix(1 0 0 -1 83.2656 38.8555)" fill="#A1A1A1"/>
<rect width="5.55088" height="5.55098" transform="matrix(1 0 0 -1 83.2656 5.55273)" fill="#A1A1A1"/>
<rect width="5.55088" height="5.55098" transform="matrix(1 0 0 -1 83.2656 72.1631)" fill="#A1A1A1"/>
<rect width="5.55088" height="5.55098" transform="matrix(1 0 0 -1 172.078 271.999)" fill="#A1A1A1"/>
<rect width="5.55088" height="5.55098" transform="matrix(1 0 0 -1 172.078 38.8555)" fill="#A1A1A1"/>
<rect width="5.55088" height="5.55098" transform="matrix(1 0 0 -1 172.078 5.55273)" fill="#A1A1A1"/>
<rect width="5.55088" height="5.55098" transform="matrix(1 0 0 -1 172.078 72.1631)" fill="#A1A1A1"/>
<rect width="5.55088" height="5.55098" transform="matrix(1 0 0 -1 260.898 271.999)" fill="#A1A1A1"/>
<rect width="5.55088" height="5.55098" transform="matrix(1 0 0 -1 260.898 38.8555)" fill="#A1A1A1"/>
<rect width="5.55088" height="5.55098" transform="matrix(1 0 0 -1 260.898 5.55273)" fill="#A1A1A1"/>
<rect width="5.55088" height="5.55098" transform="matrix(1 0 0 -1 260.898 72.1631)" fill="#A1A1A1"/>
<rect width="5.55088" height="5.55098" transform="matrix(1 0 0 -1 61.0625 271.999)" fill="#A1A1A1"/>
<rect width="5.55088" height="5.55098" transform="matrix(1 0 0 -1 61.0625 38.8555)" fill="#A1A1A1"/>
<rect width="5.55088" height="5.55098" transform="matrix(1 0 0 -1 61.0625 5.55273)" fill="#A1A1A1"/>
<rect width="5.55088" height="5.55098" transform="matrix(1 0 0 -1 61.0625 72.1631)" fill="#A1A1A1"/>
<rect width="5.55088" height="5.55098" transform="matrix(1 0 0 -1 61.0625 105.471)" fill="#A1A1A1"/>
<rect width="5.55088" height="5.55098" transform="matrix(1 0 0 -1 61.0625 138.773)" fill="#A1A1A1"/>
<rect width="5.55088" height="5.55098" transform="matrix(1 0 0 -1 61.0625 172.081)" fill="#A1A1A1"/>
<rect width="5.55088" height="5.55098" transform="matrix(1 0 0 -1 61.0625 205.385)" fill="#A1A1A1"/>
<rect width="5.55088" height="5.55098" transform="matrix(1 0 0 -1 61.0625 238.691)" fill="#A1A1A1"/>
<rect width="5.55088" height="5.55098" transform="matrix(1 0 0 -1 94.3672 238.691)" fill="#A1A1A1"/>
<rect width="5.55088" height="5.55098" transform="matrix(1 0 0 -1 94.3672 205.385)" fill="#A1A1A1"/>
<rect width="5.55088" height="5.55098" transform="matrix(1 0 0 -1 94.3672 172.081)" fill="#A1A1A1"/>
<rect width="5.55088" height="5.55098" transform="matrix(1 0 0 -1 94.3672 138.773)" fill="#A1A1A1"/>
<rect width="5.55088" height="5.55098" transform="matrix(1 0 0 -1 94.3672 105.471)" fill="#A1A1A1"/>
<rect width="5.55088" height="5.55098" transform="matrix(1 0 0 -1 127.672 105.471)" fill="#A1A1A1"/>
<rect width="5.55088" height="5.55098" transform="matrix(1 0 0 -1 160.977 105.471)" fill="#A1A1A1"/>
<rect width="5.55088" height="5.55098" transform="matrix(1 0 0 -1 194.289 105.471)" fill="#A1A1A1"/>
<rect width="5.55088" height="5.55098" transform="matrix(1 0 0 -1 194.289 138.773)" fill="#A1A1A1"/>
<rect width="5.55088" height="5.55098" transform="matrix(1 0 0 -1 160.977 138.773)" fill="#A1A1A1"/>
<rect width="5.55088" height="5.55098" transform="matrix(1 0 0 -1 127.672 138.773)" fill="#A1A1A1"/>
<rect width="5.55088" height="5.55098" transform="matrix(1 0 0 -1 127.672 172.081)" fill="#A1A1A1"/>
<rect width="5.55088" height="5.55098" transform="matrix(1 0 0 -1 127.672 205.385)" fill="#A1A1A1"/>
<rect width="5.55088" height="5.55098" transform="matrix(1 0 0 -1 127.672 238.691)" fill="#A1A1A1"/>
<rect width="5.55088" height="5.55098" transform="matrix(1 0 0 -1 160.977 172.081)" fill="#A1A1A1"/>
<rect width="5.55088" height="5.55098" transform="matrix(1 0 0 -1 160.977 205.385)" fill="#A1A1A1"/>
<rect width="5.55088" height="5.55098" transform="matrix(1 0 0 -1 160.977 238.691)" fill="#A1A1A1"/>
<rect width="5.55088" height="5.55098" transform="matrix(1 0 0 -1 194.289 172.081)" fill="#A1A1A1"/>
<rect width="5.55088" height="5.55098" transform="matrix(1 0 0 -1 194.289 205.385)" fill="#A1A1A1"/>
<rect width="5.55088" height="5.55098" transform="matrix(1 0 0 -1 194.289 238.691)" fill="#A1A1A1"/>
<rect width="5.55088" height="5.55098" transform="matrix(1 0 0 -1 227.586 238.691)" fill="#A1A1A1"/>
<rect width="5.55088" height="5.55098" transform="matrix(1 0 0 -1 227.586 205.385)" fill="#A1A1A1"/>
<rect width="5.55088" height="5.55098" transform="matrix(1 0 0 -1 227.586 172.081)" fill="#A1A1A1"/>
<rect width="5.55088" height="5.55098" transform="matrix(1 0 0 -1 227.586 138.773)" fill="#A1A1A1"/>
<rect width="5.55088" height="5.55098" transform="matrix(1 0 0 -1 227.586 105.471)" fill="#A1A1A1"/>
<rect width="5.55088" height="5.55098" transform="matrix(1 0 0 -1 260.898 105.471)" fill="#A1A1A1"/>
<rect width="5.55088" height="5.55098" transform="matrix(1 0 0 -1 260.898 138.773)" fill="#A1A1A1"/>
<rect width="5.55088" height="5.55098" transform="matrix(1 0 0 -1 260.898 172.081)" fill="#A1A1A1"/>
<rect width="5.55088" height="5.55098" transform="matrix(1 0 0 -1 260.898 205.385)" fill="#A1A1A1"/>
<rect width="5.55088" height="5.55098" transform="matrix(1 0 0 -1 260.898 238.691)" fill="#A1A1A1"/>
<rect width="5.55088" height="5.55098" transform="matrix(1 0 0 -1 149.883 271.999)" fill="#A1A1A1"/>
<rect width="5.55088" height="5.55098" transform="matrix(1 0 0 -1 149.883 38.8555)" fill="#A1A1A1"/>
<rect width="5.55088" height="5.55098" transform="matrix(1 0 0 -1 149.883 5.55273)" fill="#A1A1A1"/>
<rect width="5.55088" height="5.55098" transform="matrix(1 0 0 -1 149.883 72.1631)" fill="#A1A1A1"/>
<rect width="5.55088" height="5.55098" transform="matrix(1 0 0 -1 238.695 271.999)" fill="#A1A1A1"/>
<rect width="5.55088" height="5.55098" transform="matrix(1 0 0 -1 238.695 38.8555)" fill="#A1A1A1"/>
<rect width="5.55088" height="5.55098" transform="matrix(1 0 0 -1 238.695 5.55273)" fill="#A1A1A1"/>
<rect width="5.55088" height="5.55098" transform="matrix(1 0 0 -1 238.695 72.1631)" fill="#A1A1A1"/>
<rect width="5.55088" height="5.55098" transform="matrix(1 0 0 -1 266.445 271.999)" fill="#A1A1A1"/>
<rect width="5.55088" height="5.55098" transform="matrix(1 0 0 -1 105.469 271.999)" fill="#A1A1A1"/>
<rect width="5.55088" height="5.55098" transform="matrix(1 0 0 -1 105.469 38.8555)" fill="#A1A1A1"/>
<rect width="5.55088" height="5.55098" transform="matrix(1 0 0 -1 105.469 5.55273)" fill="#A1A1A1"/>
<rect width="5.55088" height="5.55098" transform="matrix(1 0 0 -1 105.469 72.1631)" fill="#A1A1A1"/>
<rect width="5.55088" height="5.55098" transform="matrix(1 0 0 -1 194.289 271.999)" fill="#A1A1A1"/>
<rect width="5.55088" height="5.55098" transform="matrix(1 0 0 -1 194.289 38.8555)" fill="#A1A1A1"/>
<rect width="5.55088" height="5.55098" transform="matrix(1 0 0 -1 194.289 5.55273)" fill="#A1A1A1"/>
<rect width="5.55088" height="5.55098" transform="matrix(1 0 0 -1 194.289 72.1631)" fill="#A1A1A1"/>
<rect width="5.55098" height="5.55088" transform="matrix(-0.000189678 1 1 0.000189684 0.0078125 33.3076)" fill="#A1A1A1"/>
<rect width="5.55098" height="5.55088" transform="matrix(-9.55411e-05 1 1 0.000376581 0.0078125 0)" fill="#A1A1A1"/>
<rect width="5.55098" height="5.55088" transform="matrix(-0.000189678 1 1 0.000189684 33.3125 33.3076)" fill="#A1A1A1"/>
<rect width="5.55098" height="5.55088" transform="matrix(-0.000189678 1 1 0.000189684 33.3125 0)" fill="#A1A1A1"/>
<rect width="5.55098" height="5.55088" transform="matrix(-0.000189678 1 1 0.000189684 66.6172 33.3076)" fill="#A1A1A1"/>
<rect width="5.55098" height="5.55088" transform="matrix(-9.55411e-05 1 1 0.000376581 66.6172 0)" fill="#A1A1A1"/>
<rect width="5.55098" height="5.55088" transform="matrix(-0.000189678 1 1 0.000189684 99.9219 33.3076)" fill="#A1A1A1"/>
<rect width="5.55098" height="5.55088" transform="matrix(-0.000189678 1 1 0.000189684 99.9219 0)" fill="#A1A1A1"/>
<rect width="5.55098" height="5.55088" transform="matrix(-0.000189678 1 1 0.000189684 133.227 33.3076)" fill="#A1A1A1"/>
<rect width="5.55098" height="5.55088" transform="matrix(-0.000189678 1 1 0.000189684 133.227 0)" fill="#A1A1A1"/>
<rect width="5.55098" height="5.55088" transform="matrix(-0.000189678 1 1 0.000189684 166.531 33.3076)" fill="#A1A1A1"/>
<rect width="5.55098" height="5.55088" transform="matrix(-0.000189678 1 1 0.000189684 166.531 0)" fill="#A1A1A1"/>
<rect width="5.55098" height="5.55088" transform="matrix(-0.000189678 1 1 0.000189684 199.836 33.3076)" fill="#A1A1A1"/>
<rect width="5.55098" height="5.55088" transform="matrix(-0.000130646 1 1 0.000275394 199.836 0)" fill="#A1A1A1"/>
<rect width="5.55098" height="5.55088" transform="matrix(-0.000189678 1 1 0.000189684 233.141 33.3076)" fill="#A1A1A1"/>
<rect width="5.55098" height="5.55088" transform="matrix(-0.000189678 1 1 0.000189684 233.141 0)" fill="#A1A1A1"/>
<rect width="5.55098" height="5.55088" transform="matrix(-0.000189678 1 1 0.000189684 266.445 33.3076)" fill="#A1A1A1"/>
<rect width="5.55098" height="5.55088" transform="matrix(-0.000189678 1 1 0.000189684 266.445 0)" fill="#A1A1A1"/>
<rect width="5.55088" height="5.55098" transform="matrix(1 0 0 -1 33.3125 38.8555)" fill="#A1A1A1"/>
<rect width="5.55088" height="5.55098" transform="matrix(1 0 0 -1 33.3125 5.55273)" fill="#A1A1A1"/>
<rect width="5.55088" height="5.55098" transform="matrix(1 0 0 -1 122.125 271.999)" fill="#A1A1A1"/>
<rect width="5.55088" height="5.55098" transform="matrix(1 0 0 -1 122.125 38.8555)" fill="#A1A1A1"/>
<rect width="5.55088" height="5.55098" transform="matrix(1 0 0 -1 122.125 5.55273)" fill="#A1A1A1"/>
<rect width="5.55088" height="5.55098" transform="matrix(1 0 0 -1 122.125 72.1631)" fill="#A1A1A1"/>
<rect width="5.55088" height="5.55098" transform="matrix(1 0 0 -1 210.938 271.999)" fill="#A1A1A1"/>
<rect width="5.55088" height="5.55098" transform="matrix(1 0 0 -1 210.938 38.8555)" fill="#A1A1A1"/>
<rect width="5.55088" height="5.55098" transform="matrix(1 0 0 -1 210.938 5.55273)" fill="#A1A1A1"/>
<rect width="5.55088" height="5.55098" transform="matrix(1 0 0 -1 210.938 72.1631)" fill="#A1A1A1"/>
<rect width="5.55088" height="5.55098" transform="matrix(1 0 0 -1 77.7188 271.999)" fill="#A1A1A1"/>
<rect width="5.55088" height="5.55098" transform="matrix(1 0 0 -1 77.7188 38.8555)" fill="#A1A1A1"/>
<rect width="5.55088" height="5.55098" transform="matrix(1 0 0 -1 77.7188 5.55273)" fill="#A1A1A1"/>
<rect width="5.55088" height="5.55098" transform="matrix(1 0 0 -1 77.7188 72.1631)" fill="#A1A1A1"/>
<rect width="5.55088" height="5.55098" transform="matrix(1 0 0 -1 166.531 271.999)" fill="#A1A1A1"/>
<rect width="5.55088" height="5.55098" transform="matrix(1 0 0 -1 255.344 271.999)" fill="#A1A1A1"/>
<rect width="5.55088" height="5.55098" transform="matrix(1 0 0 -1 255.344 38.8555)" fill="#A1A1A1"/>
<rect width="5.55088" height="5.55098" transform="matrix(1 0 0 -1 255.344 5.55273)" fill="#A1A1A1"/>
<rect width="5.55088" height="5.55098" transform="matrix(1 0 0 -1 255.344 72.1631)" fill="#A1A1A1"/>
<rect width="5.55088" height="5.55098" transform="matrix(1 0 0 -1 55.5156 271.999)" fill="#A1A1A1"/>
<rect width="5.55088" height="5.55098" transform="matrix(1 0 0 -1 55.5156 38.8555)" fill="#A1A1A1"/>
<rect width="5.55088" height="5.55098" transform="matrix(1 0 0 -1 55.5156 5.55273)" fill="#A1A1A1"/>
<rect width="5.55088" height="5.55098" transform="matrix(1 0 0 -1 55.5156 72.1631)" fill="#A1A1A1"/>
<rect width="5.55088" height="5.55098" transform="matrix(1 0 0 -1 55.5156 105.471)" fill="#A1A1A1"/>
<rect width="5.55088" height="5.55098" transform="matrix(1 0 0 -1 55.5156 138.773)" fill="#A1A1A1"/>
<rect width="5.55088" height="5.55098" transform="matrix(1 0 0 -1 55.5156 172.081)" fill="#A1A1A1"/>
<rect width="5.55088" height="5.55098" transform="matrix(1 0 0 -1 55.5156 205.385)" fill="#A1A1A1"/>
<rect width="5.55088" height="5.55098" transform="matrix(1 0 0 -1 55.5156 238.691)" fill="#A1A1A1"/>
<rect width="5.55088" height="5.55098" transform="matrix(1 0 0 -1 88.8203 238.691)" fill="#A1A1A1"/>
<rect width="5.55088" height="5.55098" transform="matrix(1 0 0 -1 88.8203 205.385)" fill="#A1A1A1"/>
<rect width="5.55088" height="5.55098" transform="matrix(1 0 0 -1 88.8203 172.081)" fill="#A1A1A1"/>
<rect width="5.55088" height="5.55098" transform="matrix(1 0 0 -1 88.8203 138.773)" fill="#A1A1A1"/>
<rect width="5.55088" height="5.55098" transform="matrix(1 0 0 -1 88.8203 105.471)" fill="#A1A1A1"/>
<rect width="5.55088" height="5.55098" transform="matrix(1 0 0 -1 122.125 105.471)" fill="#A1A1A1"/>
<rect width="5.55088" height="5.55098" transform="matrix(1 0 0 -1 155.43 105.471)" fill="#A1A1A1"/>
<rect width="5.55088" height="5.55098" transform="matrix(1 0 0 -1 188.734 105.471)" fill="#A1A1A1"/>
<rect width="5.55088" height="5.55098" transform="matrix(1 0 0 -1 188.734 138.773)" fill="#A1A1A1"/>
<rect width="5.55088" height="5.55098" transform="matrix(1 0 0 -1 155.43 138.773)" fill="#A1A1A1"/>
<rect width="5.55088" height="5.55098" transform="matrix(1 0 0 -1 122.125 138.773)" fill="#A1A1A1"/>
<rect width="5.55088" height="5.55098" transform="matrix(1 0 0 -1 122.125 172.081)" fill="#A1A1A1"/>
<rect width="5.55088" height="5.55098" transform="matrix(1 0 0 -1 122.125 205.385)" fill="#A1A1A1"/>
<rect width="5.55088" height="5.55098" transform="matrix(1 0 0 -1 122.125 238.691)" fill="#A1A1A1"/>
<rect width="5.55088" height="5.55098" transform="matrix(1 0 0 -1 155.43 172.081)" fill="#A1A1A1"/>
<rect width="5.55088" height="5.55098" transform="matrix(1 0 0 -1 155.43 205.385)" fill="#A1A1A1"/>
<rect width="5.55088" height="5.55098" transform="matrix(1 0 0 -1 155.43 238.691)" fill="#A1A1A1"/>
<rect width="5.55088" height="5.55098" transform="matrix(1 0 0 -1 188.734 172.081)" fill="#A1A1A1"/>
<rect width="5.55088" height="5.55098" transform="matrix(1 0 0 -1 188.734 205.385)" fill="#A1A1A1"/>
<rect width="5.55088" height="5.55098" transform="matrix(1 0 0 -1 188.734 238.691)" fill="#A1A1A1"/>
<rect width="5.55088" height="5.55098" transform="matrix(1 0 0 -1 222.039 238.691)" fill="#A1A1A1"/>
<rect width="5.55088" height="5.55098" transform="matrix(1 0 0 -1 222.039 205.385)" fill="#A1A1A1"/>
<rect width="5.55088" height="5.55098" transform="matrix(1 0 0 -1 222.039 172.081)" fill="#A1A1A1"/>
<rect width="5.55088" height="5.55098" transform="matrix(1 0 0 -1 222.039 138.773)" fill="#A1A1A1"/>
<rect width="5.55088" height="5.55098" transform="matrix(1 0 0 -1 222.039 105.471)" fill="#A1A1A1"/>
<rect width="5.55088" height="5.55098" transform="matrix(1 0 0 -1 255.344 105.471)" fill="#A1A1A1"/>
<rect width="5.55088" height="5.55098" transform="matrix(1 0 0 -1 255.344 138.773)" fill="#A1A1A1"/>
<rect width="5.55088" height="5.55098" transform="matrix(1 0 0 -1 255.344 172.081)" fill="#A1A1A1"/>
<rect width="5.55088" height="5.55098" transform="matrix(1 0 0 -1 255.344 205.385)" fill="#A1A1A1"/>
<rect width="5.55088" height="5.55098" transform="matrix(1 0 0 -1 255.344 238.691)" fill="#A1A1A1"/>
<rect width="5.55088" height="5.55098" transform="matrix(1 0 0 -1 144.328 271.999)" fill="#A1A1A1"/>
<rect width="5.55088" height="5.55098" transform="matrix(1 0 0 -1 144.328 38.8555)" fill="#A1A1A1"/>
<rect width="5.55088" height="5.55098" transform="matrix(1 0 0 -1 144.328 5.55273)" fill="#A1A1A1"/>
<rect width="5.55088" height="5.55098" transform="matrix(1 0 0 -1 144.328 72.1631)" fill="#A1A1A1"/>
<rect width="5.55088" height="5.55098" transform="matrix(1 0 0 -1 233.141 271.999)" fill="#A1A1A1"/>
<rect width="5.55088" height="5.55098" transform="matrix(1 0 0 -1 260.898 271.999)" fill="#A1A1A1"/>
<rect width="5.55088" height="5.55098" transform="matrix(1 0 0 -1 260.898 38.8555)" fill="#A1A1A1"/>
<rect width="5.55088" height="5.55098" transform="matrix(1 0 0 -1 260.898 5.55273)" fill="#A1A1A1"/>
<rect width="5.55088" height="5.55098" transform="matrix(1 0 0 -1 260.898 72.1631)" fill="#A1A1A1"/>
<rect width="5.55088" height="5.55098" transform="matrix(1 0 0 -1 99.9219 271.999)" fill="#A1A1A1"/>
<rect width="5.55088" height="5.55098" transform="matrix(1 0 0 -1 188.734 271.999)" fill="#A1A1A1"/>
<rect width="5.55088" height="5.55098" transform="matrix(1 0 0 -1 188.734 38.8555)" fill="#A1A1A1"/>
<rect width="5.55088" height="5.55098" transform="matrix(1 0 0 -1 188.734 5.55273)" fill="#A1A1A1"/>
<rect width="5.55088" height="5.55098" transform="matrix(1 0 0 -1 188.734 72.1631)" fill="#A1A1A1"/>
<rect width="5.55088" height="5.55098" transform="matrix(1 0 0 -1 44.4141 271.999)" fill="#A1A1A1"/>
<rect width="5.55088" height="5.55098" transform="matrix(1 0 0 -1 44.4141 38.8555)" fill="#A1A1A1"/>
<rect width="5.55088" height="5.55098" transform="matrix(1 0 0 -1 44.4141 5.55273)" fill="#A1A1A1"/>
<rect width="5.55088" height="5.55098" transform="matrix(1 0 0 -1 44.4141 72.1631)" fill="#A1A1A1"/>
<rect width="5.55088" height="5.55098" transform="matrix(1 0 0 -1 44.4141 105.471)" fill="#A1A1A1"/>
<rect width="5.55088" height="5.55098" transform="matrix(1 0 0 -1 44.4141 138.773)" fill="#A1A1A1"/>
<rect width="5.55088" height="5.55098" transform="matrix(1 0 0 -1 44.4141 172.081)" fill="#A1A1A1"/>
<rect width="5.55088" height="5.55098" transform="matrix(1 0 0 -1 44.4141 205.385)" fill="#A1A1A1"/>
<rect width="5.55088" height="5.55098" transform="matrix(1 0 0 -1 44.4141 238.691)" fill="#A1A1A1"/>
<rect width="5.55088" height="5.55098" transform="matrix(1 0 0 -1 77.7188 238.691)" fill="#A1A1A1"/>
<rect width="5.55088" height="5.55098" transform="matrix(1 0 0 -1 77.7188 205.385)" fill="#A1A1A1"/>
<rect width="5.55088" height="5.55098" transform="matrix(1 0 0 -1 77.7188 172.081)" fill="#A1A1A1"/>
<rect width="5.55088" height="5.55098" transform="matrix(1 0 0 -1 77.7188 138.773)" fill="#A1A1A1"/>
<rect width="5.55088" height="5.55098" transform="matrix(1 0 0 -1 77.7188 105.471)" fill="#A1A1A1"/>
<rect width="5.55088" height="5.55098" transform="matrix(1 0 0 -1 111.023 105.471)" fill="#A1A1A1"/>
<rect width="5.55088" height="5.55098" transform="matrix(1 0 0 -1 144.328 105.471)" fill="#A1A1A1"/>
<rect width="5.55088" height="5.55098" transform="matrix(1 0 0 -1 177.633 105.471)" fill="#A1A1A1"/>
<rect width="5.55088" height="5.55098" transform="matrix(1 0 0 -1 177.633 138.773)" fill="#A1A1A1"/>
<rect width="5.55088" height="5.55098" transform="matrix(1 0 0 -1 144.328 138.773)" fill="#A1A1A1"/>
<rect width="5.55088" height="5.55098" transform="matrix(1 0 0 -1 111.023 138.773)" fill="#A1A1A1"/>
<rect width="5.55088" height="5.55098" transform="matrix(1 0 0 -1 111.023 172.081)" fill="#A1A1A1"/>
<rect width="5.55088" height="5.55098" transform="matrix(1 0 0 -1 111.023 205.385)" fill="#A1A1A1"/>
<rect width="5.55088" height="5.55098" transform="matrix(1 0 0 -1 111.023 238.691)" fill="#A1A1A1"/>
<rect width="5.55088" height="5.55098" transform="matrix(1 0 0 -1 144.328 172.081)" fill="#A1A1A1"/>
<rect width="5.55088" height="5.55098" transform="matrix(1 0 0 -1 144.328 205.385)" fill="#A1A1A1"/>
<rect width="5.55088" height="5.55098" transform="matrix(1 0 0 -1 144.328 238.691)" fill="#A1A1A1"/>
<rect width="5.55088" height="5.55098" transform="matrix(1 0 0 -1 177.633 172.081)" fill="#A1A1A1"/>
<rect width="5.55088" height="5.55098" transform="matrix(1 0 0 -1 177.633 205.385)" fill="#A1A1A1"/>
<rect width="5.55088" height="5.55098" transform="matrix(1 0 0 -1 177.633 238.691)" fill="#A1A1A1"/>
<rect width="5.55088" height="5.55098" transform="matrix(1 0 0 -1 210.938 238.691)" fill="#A1A1A1"/>
<rect width="5.55088" height="5.55098" transform="matrix(1 0 0 -1 210.938 205.385)" fill="#A1A1A1"/>
<rect width="5.55088" height="5.55098" transform="matrix(1 0 0 -1 210.938 172.081)" fill="#A1A1A1"/>
<rect width="5.55088" height="5.55098" transform="matrix(1 0 0 -1 210.938 138.773)" fill="#A1A1A1"/>
<rect width="5.55088" height="5.55098" transform="matrix(1 0 0 -1 210.938 105.471)" fill="#A1A1A1"/>
<rect width="5.55088" height="5.55098" transform="matrix(1 0 0 -1 244.242 105.471)" fill="#A1A1A1"/>
<rect width="5.55088" height="5.55098" transform="matrix(1 0 0 -1 244.242 138.773)" fill="#A1A1A1"/>
<rect width="5.55088" height="5.55098" transform="matrix(1 0 0 -1 244.242 172.081)" fill="#A1A1A1"/>
<rect width="5.55088" height="5.55098" transform="matrix(1 0 0 -1 244.242 205.385)" fill="#A1A1A1"/>
<rect width="5.55088" height="5.55098" transform="matrix(1 0 0 -1 244.242 238.691)" fill="#A1A1A1"/>
<rect width="5.55088" height="5.55098" transform="matrix(1 0 0 -1 133.227 271.999)" fill="#A1A1A1"/>
<rect width="5.55088" height="5.55098" transform="matrix(1 0 0 -1 138.773 271.999)" fill="#A1A1A1"/>
<rect width="5.55088" height="5.55098" transform="matrix(1 0 0 -1 138.773 38.8555)" fill="#A1A1A1"/>
<rect width="5.55088" height="5.55098" transform="matrix(1 0 0 -1 138.773 5.55273)" fill="#A1A1A1"/>
<rect width="5.55088" height="5.55098" transform="matrix(1 0 0 -1 138.773 72.1631)" fill="#A1A1A1"/>
<rect width="5.55088" height="5.55098" transform="matrix(1 0 0 -1 222.039 271.999)" fill="#A1A1A1"/>
<rect width="5.55088" height="5.55098" transform="matrix(1 0 0 -1 222.039 38.8555)" fill="#A1A1A1"/>
<rect width="5.55088" height="5.55098" transform="matrix(1 0 0 -1 222.039 5.55273)" fill="#A1A1A1"/>
<rect width="5.55088" height="5.55098" transform="matrix(1 0 0 -1 222.039 72.1631)" fill="#A1A1A1"/>
<rect width="5.55088" height="5.55098" transform="matrix(1 0 0 -1 88.8203 271.999)" fill="#A1A1A1"/>
<rect width="5.55088" height="5.55098" transform="matrix(1 0 0 -1 88.8203 38.8555)" fill="#A1A1A1"/>
<rect width="5.55088" height="5.55098" transform="matrix(1 0 0 -1 88.8203 5.55273)" fill="#A1A1A1"/>
<rect width="5.55088" height="5.55098" transform="matrix(1 0 0 -1 88.8203 72.1631)" fill="#A1A1A1"/>
<rect width="5.55088" height="5.55098" transform="matrix(1 0 0 -1 177.633 271.999)" fill="#A1A1A1"/>
<rect width="5.55088" height="5.55098" transform="matrix(1 0 0 -1 177.633 38.8555)" fill="#A1A1A1"/>
<rect width="5.55088" height="5.55098" transform="matrix(1 0 0 -1 177.633 5.55273)" fill="#A1A1A1"/>
<rect width="5.55088" height="5.55098" transform="matrix(1 0 0 -1 177.633 72.1631)" fill="#A1A1A1"/>
<rect width="5.55088" height="5.55098" transform="matrix(1 0 0 -1 66.6172 271.999)" fill="#A1A1A1"/>
<rect width="5.55088" height="5.55098" transform="matrix(1 0 0 -1 155.43 271.999)" fill="#A1A1A1"/>
<rect width="5.55088" height="5.55098" transform="matrix(1 0 0 -1 155.43 38.8555)" fill="#A1A1A1"/>
<rect width="5.55088" height="5.55098" transform="matrix(1 0 0 -1 155.43 5.55273)" fill="#A1A1A1"/>
<rect width="5.55088" height="5.55098" transform="matrix(1 0 0 -1 155.43 72.1631)" fill="#A1A1A1"/>
<rect width="5.55088" height="5.55098" transform="matrix(1 0 0 -1 244.242 271.999)" fill="#A1A1A1"/>
<rect width="5.55088" height="5.55098" transform="matrix(1 0 0 -1 244.242 38.8555)" fill="#A1A1A1"/>
<rect width="5.55088" height="5.55098" transform="matrix(1 0 0 -1 244.242 5.55273)" fill="#A1A1A1"/>
<rect width="5.55088" height="5.55098" transform="matrix(1 0 0 -1 244.242 72.1631)" fill="#A1A1A1"/>
<rect width="5.55088" height="5.55098" transform="matrix(1 0 0 -1 111.023 271.999)" fill="#A1A1A1"/>
<rect width="5.55088" height="5.55098" transform="matrix(1 0 0 -1 111.023 38.8555)" fill="#A1A1A1"/>
<rect width="5.55088" height="5.55098" transform="matrix(1 0 0 -1 111.023 5.55273)" fill="#A1A1A1"/>
<rect width="5.55088" height="5.55098" transform="matrix(1 0 0 -1 111.023 72.1631)" fill="#A1A1A1"/>
<rect width="5.55088" height="5.55098" transform="matrix(1 0 0 -1 199.836 271.999)" fill="#A1A1A1"/>
<rect width="5.55098" height="5.55088" transform="matrix(-4.37106e-08 -1 -1 4.37121e-08 27.7578 38.8555)" fill="#A1A1A1"/>
<rect width="5.55098" height="5.55088" transform="matrix(-4.37106e-08 -1 -1 4.37121e-08 27.7578 5.55273)" fill="#A1A1A1"/>
<rect width="5.55098" height="5.55088" transform="matrix(-4.37106e-08 -1 -1 4.37121e-08 27.7578 72.1631)" fill="#A1A1A1"/>
<rect width="5.55098" height="5.55088" transform="matrix(-4.37106e-08 -1 -1 4.37121e-08 27.7578 105.471)" fill="#A1A1A1"/>
<rect width="5.55098" height="5.55088" transform="matrix(-4.37106e-08 -1 -1 4.37121e-08 27.7578 138.773)" fill="#A1A1A1"/>
<rect width="5.55098" height="5.55088" transform="matrix(-4.37106e-08 -1 -1 4.37121e-08 27.7578 172.081)" fill="#A1A1A1"/>
<rect width="5.55098" height="5.55088" transform="matrix(-4.37106e-08 -1 -1 4.37121e-08 27.7578 205.385)" fill="#A1A1A1"/>
<rect width="5.55098" height="5.55088" transform="matrix(-4.37106e-08 -1 -1 4.37121e-08 27.7578 238.691)" fill="#A1A1A1"/>
<rect width="5.55098" height="5.55088" transform="matrix(-4.37106e-08 -1 -1 4.37121e-08 27.7578 271.999)" fill="#A1A1A1"/>
<rect width="5.55098" height="5.55088" transform="matrix(-4.37106e-08 -1 -1 4.37121e-08 27.7578 38.8555)" fill="#A1A1A1"/>
<rect width="5.55098" height="5.55088" transform="matrix(-4.37106e-08 -1 -1 4.37121e-08 27.7578 5.55273)" fill="#A1A1A1"/>
<rect width="5.55098" height="5.55088" transform="matrix(-4.37106e-08 -1 -1 4.37121e-08 27.7578 72.1631)" fill="#A1A1A1"/>
<rect width="5.55098" height="5.55088" transform="matrix(-4.37106e-08 -1 -1 4.37121e-08 27.7578 105.471)" fill="#A1A1A1"/>
<rect width="5.55098" height="5.55088" transform="matrix(-4.37106e-08 -1 -1 4.37121e-08 27.7578 138.773)" fill="#A1A1A1"/>
<rect width="5.55098" height="5.55088" transform="matrix(-4.37106e-08 -1 -1 4.37121e-08 27.7578 172.081)" fill="#A1A1A1"/>
<rect width="5.55098" height="5.55088" transform="matrix(-4.37106e-08 -1 -1 4.37121e-08 27.7578 205.385)" fill="#A1A1A1"/>
<rect width="5.55098" height="5.55088" transform="matrix(-4.37106e-08 -1 -1 4.37121e-08 27.7578 238.691)" fill="#A1A1A1"/>
<rect width="5.55098" height="5.55088" transform="matrix(-4.37106e-08 -1 -1 4.37121e-08 27.7578 271.999)" fill="#A1A1A1"/>
<rect width="5.55098" height="5.55088" transform="matrix(-4.37106e-08 -1 -1 4.37121e-08 210.938 271.999)" fill="#A1A1A1"/>
<rect width="5.55098" height="5.55088" transform="matrix(-4.37106e-08 -1 -1 4.37121e-08 210.938 38.8555)" fill="#A1A1A1"/>
<rect width="5.55098" height="5.55088" transform="matrix(-4.37106e-08 -1 -1 4.37121e-08 210.938 5.55273)" fill="#A1A1A1"/>
<rect width="5.55098" height="5.55088" transform="matrix(-4.37106e-08 -1 -1 4.37121e-08 210.938 72.1631)" fill="#A1A1A1"/>
<rect x="72.1641" y="271.999" width="5.55098" height="5.55088" transform="rotate(-90 72.1641 271.999)" fill="#A1A1A1"/>
<rect x="72.1641" y="38.8555" width="5.55098" height="5.55088" transform="rotate(-90 72.1641 38.8555)" fill="#A1A1A1"/>
<rect x="72.1641" y="5.55273" width="5.55098" height="5.55088" transform="rotate(-90 72.1641 5.55273)" fill="#A1A1A1"/>
<rect x="72.1641" y="72.1631" width="5.55098" height="5.55088" transform="rotate(-90 72.1641 72.1631)" fill="#A1A1A1"/>
<rect width="5.55098" height="5.55088" transform="matrix(-4.37106e-08 -1 -1 4.37121e-08 33.3125 38.8555)" fill="#A1A1A1"/>
<rect width="5.55098" height="5.55088" transform="matrix(-4.37106e-08 -1 -1 4.37121e-08 33.3125 5.55273)" fill="#A1A1A1"/>
<rect width="5.55098" height="5.55088" transform="matrix(-4.37106e-08 -1 -1 4.37121e-08 33.3125 72.1631)" fill="#A1A1A1"/>
<rect width="5.55098" height="5.55088" transform="matrix(-4.37106e-08 -1 -1 4.37121e-08 33.3125 105.471)" fill="#A1A1A1"/>
<rect width="5.55098" height="5.55088" transform="matrix(-4.37106e-08 -1 -1 4.37121e-08 33.3125 138.773)" fill="#A1A1A1"/>
<rect width="5.55098" height="5.55088" transform="matrix(-4.37106e-08 -1 -1 4.37121e-08 33.3125 172.081)" fill="#A1A1A1"/>
<rect width="5.55098" height="5.55088" transform="matrix(-4.37106e-08 -1 -1 4.37121e-08 33.3125 205.385)" fill="#A1A1A1"/>
<rect width="5.55098" height="5.55088" transform="matrix(-4.37106e-08 -1 -1 4.37121e-08 33.3125 238.691)" fill="#A1A1A1"/>
<rect width="5.55098" height="5.55088" transform="matrix(-4.37106e-08 -1 -1 4.37121e-08 33.3125 271.999)" fill="#A1A1A1"/>
<rect width="5.55088" height="5.55098" transform="matrix(0.999999 -0.00125212 -0.00125208 -0.999999 0.0078125 55.5137)" fill="#A1A1A1"/>
<rect width="5.55088" height="5.55098" transform="matrix(0.999999 -0.00125212 -0.00125208 -0.999999 0.0078125 22.21)" fill="#A1A1A1"/>
<rect width="5.55088" height="5.55098" transform="matrix(0.999999 -0.00125212 -0.00125208 -0.999999 33.3125 55.5137)" fill="#A1A1A1"/>
<rect width="5.55088" height="5.55098" transform="matrix(0.999999 -0.00125212 -0.00125208 -0.999999 33.3125 22.21)" fill="#A1A1A1"/>
<rect width="5.55088" height="5.55098" transform="matrix(0.999999 -0.00125212 -0.00125208 -0.999999 66.6172 55.5137)" fill="#A1A1A1"/>
<rect width="5.55088" height="5.55098" transform="matrix(0.999999 -0.00125212 -0.00125208 -0.999999 66.6172 22.21)" fill="#A1A1A1"/>
<rect width="5.55088" height="5.55098" transform="matrix(0.999999 -0.00125212 -0.00125208 -0.999999 99.9219 55.5137)" fill="#A1A1A1"/>
<rect width="5.55088" height="5.55098" transform="matrix(0.999999 -0.00125212 -0.00125208 -0.999999 99.9219 22.21)" fill="#A1A1A1"/>
<rect width="5.55088" height="5.55098" transform="matrix(0.999999 -0.00125212 -0.00125208 -0.999999 133.227 55.5137)" fill="#A1A1A1"/>
<rect width="5.55088" height="5.55098" transform="matrix(0.999999 -0.00125212 -0.00125208 -0.999999 133.227 22.21)" fill="#A1A1A1"/>
<rect width="5.55088" height="5.55098" transform="matrix(0.999999 -0.00125212 -0.00125208 -0.999999 166.531 55.5137)" fill="#A1A1A1"/>
<rect width="5.55088" height="5.55098" transform="matrix(0.999999 -0.00125212 -0.00125208 -0.999999 166.531 22.21)" fill="#A1A1A1"/>
<rect width="5.55088" height="5.55098" transform="matrix(0.999999 -0.00125212 -0.00125208 -0.999999 199.836 55.5137)" fill="#A1A1A1"/>
<rect width="5.55088" height="5.55098" transform="matrix(0.999999 -0.00125212 -0.00125208 -0.999999 199.836 22.21)" fill="#A1A1A1"/>
<rect width="5.55088" height="5.55098" transform="matrix(0.999999 -0.00125212 -0.00125208 -0.999999 233.141 55.5137)" fill="#A1A1A1"/>
<rect width="5.55088" height="5.55098" transform="matrix(0.999999 -0.00125212 -0.00125208 -0.999999 233.141 22.21)" fill="#A1A1A1"/>
<rect width="5.55088" height="5.55098" transform="matrix(0.999999 -0.00125212 -0.00125208 -0.999999 266.445 55.5137)" fill="#A1A1A1"/>
<rect width="5.55088" height="5.55098" transform="matrix(0.999999 -0.00125212 -0.00125208 -0.999999 266.445 22.21)" fill="#A1A1A1"/>
<rect width="5.55088" height="5.55098" transform="matrix(0.999999 -0.00125212 -0.00125208 -0.999999 0.0078125 77.7197)" fill="#A1A1A1"/>
<rect width="5.55088" height="5.55098" transform="matrix(0.999999 -0.00125212 -0.00125208 -0.999999 33.3125 77.7197)" fill="#A1A1A1"/>
<rect width="5.55088" height="5.55098" transform="matrix(0.999999 -0.00125212 -0.00125208 -0.999999 66.6172 77.7197)" fill="#A1A1A1"/>
<rect width="5.55088" height="5.55098" transform="matrix(0.999999 -0.00125212 -0.00125208 -0.999999 99.9219 77.7197)" fill="#A1A1A1"/>
<rect width="5.55088" height="5.55098" transform="matrix(0.999999 -0.00125212 -0.00125208 -0.999999 133.227 77.7197)" fill="#A1A1A1"/>
<rect width="5.55088" height="5.55098" transform="matrix(0.999999 -0.00125212 -0.00125208 -0.999999 166.531 77.7197)" fill="#A1A1A1"/>
<rect width="5.55088" height="5.55098" transform="matrix(0.999999 -0.00125212 -0.00125208 -0.999999 199.836 77.7197)" fill="#A1A1A1"/>
<rect width="5.55088" height="5.55098" transform="matrix(0.999999 -0.00125212 -0.00125208 -0.999999 233.141 77.7197)" fill="#A1A1A1"/>
<rect width="5.55088" height="5.55098" transform="matrix(0.999999 -0.00125212 -0.00125208 -0.999999 266.445 77.7197)" fill="#A1A1A1"/>
<rect width="5.55088" height="5.55098" transform="matrix(0.999999 -0.00125212 -0.00125208 -0.999999 0.0078125 99.9219)" fill="#A1A1A1"/>
<rect width="5.55088" height="5.55098" transform="matrix(0.999999 -0.00125212 -0.00125208 -0.999999 33.3125 99.9219)" fill="#A1A1A1"/>
<rect width="5.55088" height="5.55098" transform="matrix(0.999999 -0.00125212 -0.00125208 -0.999999 66.6172 99.9219)" fill="#A1A1A1"/>
<rect width="5.55088" height="5.55098" transform="matrix(0.999999 -0.00125212 -0.00125208 -0.999999 99.9219 99.9219)" fill="#A1A1A1"/>
<rect width="5.55088" height="5.55098" transform="matrix(0.999999 -0.00125212 -0.00125208 -0.999999 133.227 99.9219)" fill="#A1A1A1"/>
<rect width="5.55088" height="5.55098" transform="matrix(0.999999 -0.00125212 -0.00125208 -0.999999 166.531 99.9219)" fill="#A1A1A1"/>
<rect width="5.55088" height="5.55098" transform="matrix(0.999999 -0.00125212 -0.00125208 -0.999999 199.836 99.9219)" fill="#A1A1A1"/>
<rect width="5.55088" height="5.55098" transform="matrix(0.999999 -0.00125212 -0.00125208 -0.999999 233.141 99.9219)" fill="#A1A1A1"/>
<rect width="5.55088" height="5.55098" transform="matrix(0.999999 -0.00125212 -0.00125208 -0.999999 266.445 99.9219)" fill="#A1A1A1"/>
<rect width="5.55088" height="5.55098" transform="matrix(0.999999 -0.00125212 -0.00125208 -0.999999 0.0078125 122.128)" fill="#A1A1A1"/>
<rect width="5.55088" height="5.55098" transform="matrix(0.999999 -0.00125212 -0.00125208 -0.999999 33.3125 122.128)" fill="#A1A1A1"/>
<rect width="5.55088" height="5.55098" transform="matrix(0.999999 -0.00125212 -0.00125208 -0.999999 66.6172 122.128)" fill="#A1A1A1"/>
<rect width="5.55088" height="5.55098" transform="matrix(0.999999 -0.00125212 -0.00125208 -0.999999 99.9219 122.128)" fill="#A1A1A1"/>
<rect width="5.55088" height="5.55098" transform="matrix(0.999999 -0.00125212 -0.00125208 -0.999999 133.227 122.128)" fill="#A1A1A1"/>
<rect width="5.55088" height="5.55098" transform="matrix(0.999999 -0.00125212 -0.00125208 -0.999999 166.531 122.128)" fill="#A1A1A1"/>
<rect width="5.55088" height="5.55098" transform="matrix(0.999999 -0.00125212 -0.00125208 -0.999999 199.836 122.128)" fill="#A1A1A1"/>
<rect width="5.55088" height="5.55098" transform="matrix(0.999999 -0.00125212 -0.00125208 -0.999999 233.141 122.128)" fill="#A1A1A1"/>
<rect width="5.55088" height="5.55098" transform="matrix(0.999999 -0.00125212 -0.00125208 -0.999999 266.445 122.128)" fill="#A1A1A1"/>
<rect width="5.55088" height="5.55098" transform="matrix(0.999999 -0.00125212 -0.00125208 -0.999999 0.0078125 144.33)" fill="#A1A1A1"/>
<rect width="5.55088" height="5.55098" transform="matrix(0.999999 -0.00125212 -0.00125208 -0.999999 33.3125 144.33)" fill="#A1A1A1"/>
<rect width="5.55088" height="5.55098" transform="matrix(0.999999 -0.00125212 -0.00125208 -0.999999 66.6172 144.33)" fill="#A1A1A1"/>
<rect width="5.55088" height="5.55098" transform="matrix(0.999999 -0.00125212 -0.00125208 -0.999999 99.9219 144.33)" fill="#A1A1A1"/>
<rect width="5.55088" height="5.55098" transform="matrix(0.999999 -0.00125212 -0.00125208 -0.999999 133.227 144.33)" fill="#A1A1A1"/>
<rect width="5.55088" height="5.55098" transform="matrix(0.999999 -0.00125212 -0.00125208 -0.999999 166.531 144.33)" fill="#A1A1A1"/>
<rect width="5.55088" height="5.55098" transform="matrix(0.999999 -0.00125212 -0.00125208 -0.999999 199.836 144.33)" fill="#A1A1A1"/>
<rect width="5.55088" height="5.55098" transform="matrix(0.999999 -0.00125212 -0.00125208 -0.999999 233.141 144.33)" fill="#A1A1A1"/>
<rect width="5.55088" height="5.55098" transform="matrix(0.999999 -0.00125212 -0.00125208 -0.999999 266.445 144.33)" fill="#A1A1A1"/>
<rect width="5.55088" height="5.55098" transform="matrix(0.999999 -0.00125212 -0.00125208 -0.999999 0.0078125 166.536)" fill="#A1A1A1"/>
<rect width="5.55088" height="5.55098" transform="matrix(0.999999 -0.00125212 -0.00125208 -0.999999 33.3125 166.536)" fill="#A1A1A1"/>
<rect width="5.55088" height="5.55098" transform="matrix(0.999999 -0.00125212 -0.00125208 -0.999999 66.6172 166.536)" fill="#A1A1A1"/>
<rect width="5.55088" height="5.55098" transform="matrix(0.999999 -0.00125212 -0.00125208 -0.999999 99.9219 166.536)" fill="#A1A1A1"/>
<rect width="5.55088" height="5.55098" transform="matrix(0.999999 -0.00125212 -0.00125208 -0.999999 133.227 166.536)" fill="#A1A1A1"/>
<rect width="5.55088" height="5.55098" transform="matrix(0.999999 -0.00125212 -0.00125208 -0.999999 166.531 166.536)" fill="#A1A1A1"/>
<rect width="5.55088" height="5.55098" transform="matrix(0.999999 -0.00125212 -0.00125208 -0.999999 199.836 166.536)" fill="#A1A1A1"/>
<rect width="5.55088" height="5.55098" transform="matrix(0.999999 -0.00125212 -0.00125208 -0.999999 233.141 166.536)" fill="#A1A1A1"/>
<rect width="5.55088" height="5.55098" transform="matrix(0.999999 -0.00125212 -0.00125208 -0.999999 266.445 166.536)" fill="#A1A1A1"/>
<rect width="5.55088" height="5.55098" transform="matrix(0.999999 -0.00125212 -0.00125208 -0.999999 0.0078125 188.738)" fill="#A1A1A1"/>
<rect width="5.55088" height="5.55098" transform="matrix(0.999999 -0.00125212 -0.00125208 -0.999999 33.3125 188.738)" fill="#A1A1A1"/>
<rect width="5.55088" height="5.55098" transform="matrix(0.999999 -0.00125212 -0.00125208 -0.999999 66.6172 188.738)" fill="#A1A1A1"/>
<rect width="5.55088" height="5.55098" transform="matrix(0.999999 -0.00125212 -0.00125208 -0.999999 99.9219 188.738)" fill="#A1A1A1"/>
<rect width="5.55088" height="5.55098" transform="matrix(0.999999 -0.00125212 -0.00125208 -0.999999 133.227 188.738)" fill="#A1A1A1"/>
<rect width="5.55088" height="5.55098" transform="matrix(0.999999 -0.00125212 -0.00125208 -0.999999 166.531 188.738)" fill="#A1A1A1"/>
<rect width="5.55088" height="5.55098" transform="matrix(0.999999 -0.00125212 -0.00125208 -0.999999 199.836 188.738)" fill="#A1A1A1"/>
<rect width="5.55088" height="5.55098" transform="matrix(0.999999 -0.00125212 -0.00125208 -0.999999 233.141 188.738)" fill="#A1A1A1"/>
<rect width="5.55088" height="5.55098" transform="matrix(0.999999 -0.00125212 -0.00125208 -0.999999 266.445 188.738)" fill="#A1A1A1"/>
<rect width="5.55088" height="5.55098" transform="matrix(0.999999 -0.00125212 -0.00125208 -0.999999 0.0078125 210.94)" fill="#A1A1A1"/>
<rect width="5.55088" height="5.55098" transform="matrix(0.999999 -0.00125212 -0.00125208 -0.999999 33.3125 210.94)" fill="#A1A1A1"/>
<rect width="5.55088" height="5.55098" transform="matrix(0.999999 -0.00125212 -0.00125208 -0.999999 66.6172 210.94)" fill="#A1A1A1"/>
<rect width="5.55088" height="5.55098" transform="matrix(0.999999 -0.00125212 -0.00125208 -0.999999 99.9219 210.94)" fill="#A1A1A1"/>
<rect width="5.55088" height="5.55098" transform="matrix(0.999999 -0.00125212 -0.00125208 -0.999999 133.227 210.94)" fill="#A1A1A1"/>
<rect width="5.55088" height="5.55098" transform="matrix(0.999999 -0.00125212 -0.00125208 -0.999999 166.531 210.94)" fill="#A1A1A1"/>
<rect width="5.55088" height="5.55098" transform="matrix(0.999999 -0.00125212 -0.00125208 -0.999999 199.836 210.94)" fill="#A1A1A1"/>
<rect width="5.55088" height="5.55098" transform="matrix(0.999999 -0.00125212 -0.00125208 -0.999999 233.141 210.94)" fill="#A1A1A1"/>
<rect width="5.55088" height="5.55098" transform="matrix(0.999999 -0.00125212 -0.00125208 -0.999999 266.445 210.94)" fill="#A1A1A1"/>
<rect width="5.55088" height="5.55098" transform="matrix(0.999999 -0.00125212 -0.00125208 -0.999999 0.0078125 233.147)" fill="#A1A1A1"/>
<rect width="5.55088" height="5.55098" transform="matrix(0.999999 -0.00125212 -0.00125208 -0.999999 33.3125 233.147)" fill="#A1A1A1"/>
<rect width="5.55088" height="5.55098" transform="matrix(0.999999 -0.00125212 -0.00125208 -0.999999 66.6172 233.147)" fill="#A1A1A1"/>
<rect width="5.55088" height="5.55098" transform="matrix(0.999999 -0.00125212 -0.00125208 -0.999999 99.9219 233.147)" fill="#A1A1A1"/>
<rect width="5.55088" height="5.55098" transform="matrix(0.999999 -0.00125212 -0.00125208 -0.999999 133.227 233.147)" fill="#A1A1A1"/>
<rect width="5.55088" height="5.55098" transform="matrix(0.999999 -0.00125212 -0.00125208 -0.999999 166.531 233.147)" fill="#A1A1A1"/>
<rect width="5.55088" height="5.55098" transform="matrix(0.999999 -0.00125212 -0.00125208 -0.999999 199.836 233.147)" fill="#A1A1A1"/>
<rect width="5.55088" height="5.55098" transform="matrix(0.999999 -0.00125212 -0.00125208 -0.999999 233.141 233.147)" fill="#A1A1A1"/>
<rect width="5.55088" height="5.55098" transform="matrix(0.999999 -0.00125212 -0.00125208 -0.999999 266.445 233.147)" fill="#A1A1A1"/>
<rect width="5.55088" height="5.55098" transform="matrix(0.999999 -0.00125212 -0.00125208 -0.999999 0.0078125 255.35)" fill="#A1A1A1"/>
<rect width="5.55088" height="5.55098" transform="matrix(0.999999 -0.00125212 -0.00125208 -0.999999 33.3125 255.35)" fill="#A1A1A1"/>
<rect width="5.55088" height="5.55098" transform="matrix(0.999999 -0.00125212 -0.00125208 -0.999999 66.6172 255.35)" fill="#A1A1A1"/>
<rect width="5.55088" height="5.55098" transform="matrix(0.999999 -0.00125212 -0.00125208 -0.999999 99.9219 255.35)" fill="#A1A1A1"/>
<rect width="5.55088" height="5.55098" transform="matrix(0.999999 -0.00125212 -0.00125208 -0.999999 133.227 255.35)" fill="#A1A1A1"/>
<rect width="5.55088" height="5.55098" transform="matrix(0.999999 -0.00125212 -0.00125208 -0.999999 166.531 255.35)" fill="#A1A1A1"/>
<rect width="5.55088" height="5.55098" transform="matrix(0.999999 -0.00125212 -0.00125208 -0.999999 199.836 255.35)" fill="#A1A1A1"/>
<rect width="5.55088" height="5.55098" transform="matrix(0.999999 -0.00125212 -0.00125208 -0.999999 233.141 255.35)" fill="#A1A1A1"/>
<rect width="5.55088" height="5.55098" transform="matrix(0.999999 -0.00125212 -0.00125208 -0.999999 266.445 255.35)" fill="#A1A1A1"/>
<rect width="5.55098" height="5.55088" transform="matrix(-4.37106e-08 -1 -1 4.37121e-08 16.6562 38.8555)" fill="#A1A1A1"/>
<rect width="5.55098" height="5.55088" transform="matrix(-4.37106e-08 -1 -1 4.37121e-08 16.6562 5.55273)" fill="#A1A1A1"/>
<rect width="5.55098" height="5.55088" transform="matrix(-4.37106e-08 -1 -1 4.37121e-08 16.6562 72.1631)" fill="#A1A1A1"/>
<rect width="5.55098" height="5.55088" transform="matrix(-4.37106e-08 -1 -1 4.37121e-08 16.6562 105.471)" fill="#A1A1A1"/>
<rect width="5.55098" height="5.55088" transform="matrix(-4.37106e-08 -1 -1 4.37121e-08 16.6562 138.773)" fill="#A1A1A1"/>
<rect width="5.55098" height="5.55088" transform="matrix(-4.37106e-08 -1 -1 4.37121e-08 16.6562 172.081)" fill="#A1A1A1"/>
<rect width="5.55098" height="5.55088" transform="matrix(-4.37106e-08 -1 -1 4.37121e-08 16.6562 205.385)" fill="#A1A1A1"/>
<rect width="5.55098" height="5.55088" transform="matrix(-4.37106e-08 -1 -1 4.37121e-08 16.6562 238.691)" fill="#A1A1A1"/>
<rect width="5.55098" height="5.55088" transform="matrix(-4.37106e-08 -1 -1 4.37121e-08 16.6562 271.999)" fill="#A1A1A1"/>
<rect width="5.55098" height="5.55088" transform="matrix(-4.37106e-08 -1 -1 4.37121e-08 16.6562 38.8555)" fill="#A1A1A1"/>
<rect width="5.55098" height="5.55088" transform="matrix(-4.37106e-08 -1 -1 4.37121e-08 16.6562 5.55273)" fill="#A1A1A1"/>
<rect width="5.55098" height="5.55088" transform="matrix(-4.37106e-08 -1 -1 4.37121e-08 16.6562 72.1631)" fill="#A1A1A1"/>
<rect width="5.55098" height="5.55088" transform="matrix(-4.37106e-08 -1 -1 4.37121e-08 16.6562 105.471)" fill="#A1A1A1"/>
<rect width="5.55098" height="5.55088" transform="matrix(-4.37106e-08 -1 -1 4.37121e-08 16.6562 138.773)" fill="#A1A1A1"/>
<rect width="5.55098" height="5.55088" transform="matrix(-4.37106e-08 -1 -1 4.37121e-08 16.6562 172.081)" fill="#A1A1A1"/>
<rect width="5.55098" height="5.55088" transform="matrix(-4.37106e-08 -1 -1 4.37121e-08 16.6562 205.385)" fill="#A1A1A1"/>
<rect width="5.55098" height="5.55088" transform="matrix(-4.37106e-08 -1 -1 4.37121e-08 16.6562 238.691)" fill="#A1A1A1"/>
<rect width="5.55098" height="5.55088" transform="matrix(-4.37106e-08 -1 -1 4.37121e-08 16.6562 271.999)" fill="#A1A1A1"/>
<rect width="5.55098" height="5.55088" transform="matrix(-4.37106e-08 -1 -1 4.37121e-08 5.55469 44.4082)" fill="#A1A1A1"/>
<rect width="5.55098" height="5.55088" transform="matrix(-4.37106e-08 -1 -1 4.37121e-08 5.55469 11.1016)" fill="#A1A1A1"/>
<rect width="5.55098" height="5.55088" transform="matrix(-4.37106e-08 -1 -1 4.37121e-08 38.8594 44.4082)" fill="#A1A1A1"/>
<rect width="5.55098" height="5.55088" transform="matrix(-4.37106e-08 -1 -1 4.37121e-08 38.8594 11.1016)" fill="#A1A1A1"/>
<rect width="5.55098" height="5.55088" transform="matrix(-4.37106e-08 -1 -1 4.37121e-08 72.1641 44.4082)" fill="#A1A1A1"/>
<rect width="5.55098" height="5.55088" transform="matrix(-4.37106e-08 -1 -1 4.37121e-08 72.1641 11.1016)" fill="#A1A1A1"/>
<rect width="5.55098" height="5.55088" transform="matrix(-4.37106e-08 -1 -1 4.37121e-08 105.469 44.4082)" fill="#A1A1A1"/>
<rect width="5.55098" height="5.55088" transform="matrix(-4.37106e-08 -1 -1 4.37121e-08 105.469 11.1016)" fill="#A1A1A1"/>
<rect width="5.55098" height="5.55088" transform="matrix(-4.37106e-08 -1 -1 4.37121e-08 138.773 44.4082)" fill="#A1A1A1"/>
<rect width="5.55098" height="5.55088" transform="matrix(-4.37106e-08 -1 -1 4.37121e-08 138.773 11.1016)" fill="#A1A1A1"/>
<rect width="5.55098" height="5.55088" transform="matrix(-4.37106e-08 -1 -1 4.37121e-08 172.078 44.4082)" fill="#A1A1A1"/>
<rect width="5.55098" height="5.55088" transform="matrix(-4.37106e-08 -1 -1 4.37121e-08 172.078 11.1016)" fill="#A1A1A1"/>
<rect width="5.55098" height="5.55088" transform="matrix(-4.37106e-08 -1 -1 4.37121e-08 205.391 44.4082)" fill="#A1A1A1"/>
<rect width="5.55098" height="5.55088" transform="matrix(-4.37106e-08 -1 -1 4.37121e-08 205.391 11.1016)" fill="#A1A1A1"/>
<rect width="5.55098" height="5.55088" transform="matrix(-4.37106e-08 -1 -1 4.37121e-08 238.695 44.4082)" fill="#A1A1A1"/>
<rect width="5.55098" height="5.55088" transform="matrix(-4.37106e-08 -1 -1 4.37121e-08 238.695 11.1016)" fill="#A1A1A1"/>
<rect width="5.55098" height="5.55088" transform="matrix(-4.37106e-08 -1 -1 4.37121e-08 272 44.4082)" fill="#A1A1A1"/>
<rect width="5.55098" height="5.55088" transform="matrix(-4.37106e-08 -1 -1 4.37121e-08 272 11.1016)" fill="#A1A1A1"/>
<rect width="5.55098" height="5.55088" transform="matrix(-4.37106e-08 -1 -1 4.37121e-08 5.55469 66.6104)" fill="#A1A1A1"/>
<rect width="5.55098" height="5.55088" transform="matrix(-4.37106e-08 -1 -1 4.37121e-08 5.55469 33.3076)" fill="#A1A1A1"/>
<rect width="5.55098" height="5.55088" transform="matrix(-4.37106e-08 -1 -1 4.37121e-08 38.8594 66.6104)" fill="#A1A1A1"/>
<rect width="5.55098" height="5.55088" transform="matrix(-4.37106e-08 -1 -1 4.37121e-08 38.8594 33.3076)" fill="#A1A1A1"/>
<rect width="5.55098" height="5.55088" transform="matrix(-4.37106e-08 -1 -1 4.37121e-08 72.1641 66.6104)" fill="#A1A1A1"/>
<rect width="5.55098" height="5.55088" transform="matrix(-4.37106e-08 -1 -1 4.37121e-08 72.1641 33.3076)" fill="#A1A1A1"/>
<rect width="5.55098" height="5.55088" transform="matrix(-4.37106e-08 -1 -1 4.37121e-08 105.469 66.6104)" fill="#A1A1A1"/>
<rect width="5.55098" height="5.55088" transform="matrix(-4.37106e-08 -1 -1 4.37121e-08 105.469 33.3076)" fill="#A1A1A1"/>
<rect width="5.55098" height="5.55088" transform="matrix(-4.37106e-08 -1 -1 4.37121e-08 138.773 66.6104)" fill="#A1A1A1"/>
<rect width="5.55098" height="5.55088" transform="matrix(-4.37106e-08 -1 -1 4.37121e-08 138.773 33.3076)" fill="#A1A1A1"/>
<rect width="5.55098" height="5.55088" transform="matrix(-4.37106e-08 -1 -1 4.37121e-08 172.078 66.6104)" fill="#A1A1A1"/>
<rect width="5.55098" height="5.55088" transform="matrix(-4.37106e-08 -1 -1 4.37121e-08 172.078 33.3076)" fill="#A1A1A1"/>
<rect width="5.55098" height="5.55088" transform="matrix(-4.37106e-08 -1 -1 4.37121e-08 205.391 66.6104)" fill="#A1A1A1"/>
<rect width="5.55098" height="5.55088" transform="matrix(-4.37106e-08 -1 -1 4.37121e-08 205.391 33.3076)" fill="#A1A1A1"/>
<rect width="5.55098" height="5.55088" transform="matrix(-4.37106e-08 -1 -1 4.37121e-08 238.695 66.6104)" fill="#A1A1A1"/>
<rect width="5.55098" height="5.55088" transform="matrix(-4.37106e-08 -1 -1 4.37121e-08 238.695 33.3076)" fill="#A1A1A1"/>
<rect width="5.55098" height="5.55088" transform="matrix(-4.37106e-08 -1 -1 4.37121e-08 272 66.6104)" fill="#A1A1A1"/>
<rect width="5.55098" height="5.55088" transform="matrix(-4.37106e-08 -1 -1 4.37121e-08 272 33.3076)" fill="#A1A1A1"/>
<rect width="5.55098" height="5.55088" transform="matrix(-4.37106e-08 -1 -1 4.37121e-08 5.55469 88.8164)" fill="#A1A1A1"/>
<rect width="5.55098" height="5.55088" transform="matrix(-4.37106e-08 -1 -1 4.37121e-08 38.8594 88.8164)" fill="#A1A1A1"/>
<rect width="5.55098" height="5.55088" transform="matrix(-4.37106e-08 -1 -1 4.37121e-08 72.1641 88.8164)" fill="#A1A1A1"/>
<rect width="5.55098" height="5.55088" transform="matrix(-4.37106e-08 -1 -1 4.37121e-08 105.469 88.8164)" fill="#A1A1A1"/>
<rect width="5.55098" height="5.55088" transform="matrix(-4.37106e-08 -1 -1 4.37121e-08 138.773 88.8164)" fill="#A1A1A1"/>
<rect width="5.55098" height="5.55088" transform="matrix(-4.37106e-08 -1 -1 4.37121e-08 172.078 88.8164)" fill="#A1A1A1"/>
<rect width="5.55098" height="5.55088" transform="matrix(-4.37106e-08 -1 -1 4.37121e-08 205.391 88.8164)" fill="#A1A1A1"/>
<rect width="5.55098" height="5.55088" transform="matrix(-4.37106e-08 -1 -1 4.37121e-08 238.695 88.8164)" fill="#A1A1A1"/>
<rect width="5.55098" height="5.55088" transform="matrix(-4.37106e-08 -1 -1 4.37121e-08 272 88.8164)" fill="#A1A1A1"/>
<rect width="5.55098" height="5.55088" transform="matrix(-4.37106e-08 -1 -1 4.37121e-08 5.55469 111.019)" fill="#A1A1A1"/>
<rect width="5.55098" height="5.55088" transform="matrix(-4.37106e-08 -1 -1 4.37121e-08 38.8594 111.019)" fill="#A1A1A1"/>
<rect width="5.55098" height="5.55088" transform="matrix(-4.37106e-08 -1 -1 4.37121e-08 72.1641 111.019)" fill="#A1A1A1"/>
<rect width="5.55098" height="5.55088" transform="matrix(-4.37106e-08 -1 -1 4.37121e-08 105.469 111.019)" fill="#A1A1A1"/>
<rect width="5.55098" height="5.55088" transform="matrix(-4.37106e-08 -1 -1 4.37121e-08 138.773 111.019)" fill="#A1A1A1"/>
<rect width="5.55098" height="5.55088" transform="matrix(-4.37106e-08 -1 -1 4.37121e-08 172.078 111.019)" fill="#A1A1A1"/>
<rect width="5.55098" height="5.55088" transform="matrix(-4.37106e-08 -1 -1 4.37121e-08 205.391 111.019)" fill="#A1A1A1"/>
<rect width="5.55098" height="5.55088" transform="matrix(-4.37106e-08 -1 -1 4.37121e-08 238.695 111.019)" fill="#A1A1A1"/>
<rect width="5.55098" height="5.55088" transform="matrix(-4.37106e-08 -1 -1 4.37121e-08 272 111.019)" fill="#A1A1A1"/>
<rect width="5.55098" height="5.55088" transform="matrix(-4.37106e-08 -1 -1 4.37121e-08 5.55469 133.226)" fill="#A1A1A1"/>
<rect width="5.55098" height="5.55088" transform="matrix(-4.37106e-08 -1 -1 4.37121e-08 38.8594 133.226)" fill="#A1A1A1"/>
<rect width="5.55098" height="5.55088" transform="matrix(-4.37106e-08 -1 -1 4.37121e-08 72.1641 133.226)" fill="#A1A1A1"/>
<rect width="5.55098" height="5.55088" transform="matrix(-4.37106e-08 -1 -1 4.37121e-08 105.469 133.226)" fill="#A1A1A1"/>
<rect width="5.55098" height="5.55088" transform="matrix(-4.37106e-08 -1 -1 4.37121e-08 138.773 133.226)" fill="#A1A1A1"/>
<rect width="5.55098" height="5.55088" transform="matrix(-4.37106e-08 -1 -1 4.37121e-08 172.078 133.226)" fill="#A1A1A1"/>
<rect width="5.55098" height="5.55088" transform="matrix(-4.37106e-08 -1 -1 4.37121e-08 205.391 133.226)" fill="#A1A1A1"/>
<rect width="5.55098" height="5.55088" transform="matrix(-4.37106e-08 -1 -1 4.37121e-08 238.695 133.226)" fill="#A1A1A1"/>
<rect width="5.55098" height="5.55088" transform="matrix(-4.37106e-08 -1 -1 4.37121e-08 272 133.226)" fill="#A1A1A1"/>
<rect width="5.55098" height="5.55088" transform="matrix(-4.37106e-08 -1 -1 4.37121e-08 5.55469 155.428)" fill="#A1A1A1"/>
<rect width="5.55098" height="5.55088" transform="matrix(-4.37106e-08 -1 -1 4.37121e-08 38.8594 155.428)" fill="#A1A1A1"/>
<rect width="5.55098" height="5.55088" transform="matrix(-4.37106e-08 -1 -1 4.37121e-08 72.1641 155.428)" fill="#A1A1A1"/>
<rect width="5.55098" height="5.55088" transform="matrix(-4.37106e-08 -1 -1 4.37121e-08 105.469 155.428)" fill="#A1A1A1"/>
<rect width="5.55098" height="5.55088" transform="matrix(-4.37106e-08 -1 -1 4.37121e-08 138.773 155.428)" fill="#A1A1A1"/>
<rect width="5.55098" height="5.55088" transform="matrix(-4.37106e-08 -1 -1 4.37121e-08 172.078 155.428)" fill="#A1A1A1"/>
<rect width="5.55098" height="5.55088" transform="matrix(-4.37106e-08 -1 -1 4.37121e-08 205.391 155.428)" fill="#A1A1A1"/>
<rect width="5.55098" height="5.55088" transform="matrix(-4.37106e-08 -1 -1 4.37121e-08 238.695 155.428)" fill="#A1A1A1"/>
<rect width="5.55098" height="5.55088" transform="matrix(-4.37106e-08 -1 -1 4.37121e-08 272 155.428)" fill="#A1A1A1"/>
<rect width="5.55098" height="5.55088" transform="matrix(-4.37106e-08 -1 -1 4.37121e-08 5.55469 177.63)" fill="#A1A1A1"/>
<rect width="5.55098" height="5.55088" transform="matrix(-4.37106e-08 -1 -1 4.37121e-08 38.8594 177.63)" fill="#A1A1A1"/>
<rect width="5.55098" height="5.55088" transform="matrix(-4.37106e-08 -1 -1 4.37121e-08 72.1641 177.63)" fill="#A1A1A1"/>
<rect width="5.55098" height="5.55088" transform="matrix(-4.37106e-08 -1 -1 4.37121e-08 105.469 177.63)" fill="#A1A1A1"/>
<rect width="5.55098" height="5.55088" transform="matrix(-4.37106e-08 -1 -1 4.37121e-08 138.773 177.63)" fill="#A1A1A1"/>
<rect width="5.55098" height="5.55088" transform="matrix(-4.37106e-08 -1 -1 4.37121e-08 172.078 177.63)" fill="#A1A1A1"/>
<rect width="5.55098" height="5.55088" transform="matrix(-4.37106e-08 -1 -1 4.37121e-08 205.391 177.63)" fill="#A1A1A1"/>
<rect width="5.55098" height="5.55088" transform="matrix(-4.37106e-08 -1 -1 4.37121e-08 238.695 177.63)" fill="#A1A1A1"/>
<rect width="5.55098" height="5.55088" transform="matrix(-4.37106e-08 -1 -1 4.37121e-08 272 177.63)" fill="#A1A1A1"/>
<rect width="5.55098" height="5.55088" transform="matrix(-4.37106e-08 -1 -1 4.37121e-08 5.55469 199.836)" fill="#A1A1A1"/>
<rect width="5.55098" height="5.55088" transform="matrix(-4.37106e-08 -1 -1 4.37121e-08 38.8594 199.836)" fill="#A1A1A1"/>
<rect width="5.55098" height="5.55088" transform="matrix(-4.37106e-08 -1 -1 4.37121e-08 72.1641 199.836)" fill="#A1A1A1"/>
<rect width="5.55098" height="5.55088" transform="matrix(-4.37106e-08 -1 -1 4.37121e-08 105.469 199.836)" fill="#A1A1A1"/>
<rect width="5.55098" height="5.55088" transform="matrix(-4.37106e-08 -1 -1 4.37121e-08 138.773 199.836)" fill="#A1A1A1"/>
<rect width="5.55098" height="5.55088" transform="matrix(-4.37106e-08 -1 -1 4.37121e-08 172.078 199.836)" fill="#A1A1A1"/>
<rect width="5.55098" height="5.55088" transform="matrix(-4.37106e-08 -1 -1 4.37121e-08 205.391 199.836)" fill="#A1A1A1"/>
<rect width="5.55098" height="5.55088" transform="matrix(-4.37106e-08 -1 -1 4.37121e-08 238.695 199.836)" fill="#A1A1A1"/>
<rect width="5.55098" height="5.55088" transform="matrix(-4.37106e-08 -1 -1 4.37121e-08 272 199.836)" fill="#A1A1A1"/>
<rect width="5.55098" height="5.55088" transform="matrix(-4.37106e-08 -1 -1 4.37121e-08 5.55469 222.038)" fill="#A1A1A1"/>
<rect width="5.55098" height="5.55088" transform="matrix(-4.37106e-08 -1 -1 4.37121e-08 38.8594 222.038)" fill="#A1A1A1"/>
<rect width="5.55098" height="5.55088" transform="matrix(-4.37106e-08 -1 -1 4.37121e-08 72.1641 222.038)" fill="#A1A1A1"/>
<rect width="5.55098" height="5.55088" transform="matrix(-4.37106e-08 -1 -1 4.37121e-08 105.469 222.038)" fill="#A1A1A1"/>
<rect width="5.55098" height="5.55088" transform="matrix(-4.37106e-08 -1 -1 4.37121e-08 138.773 222.038)" fill="#A1A1A1"/>
<rect width="5.55098" height="5.55088" transform="matrix(-4.37106e-08 -1 -1 4.37121e-08 172.078 222.038)" fill="#A1A1A1"/>
<rect width="5.55098" height="5.55088" transform="matrix(-4.37106e-08 -1 -1 4.37121e-08 205.391 222.038)" fill="#A1A1A1"/>
<rect width="5.55098" height="5.55088" transform="matrix(-4.37106e-08 -1 -1 4.37121e-08 238.695 222.038)" fill="#A1A1A1"/>
<rect width="5.55098" height="5.55088" transform="matrix(-4.37106e-08 -1 -1 4.37121e-08 272 222.038)" fill="#A1A1A1"/>
<rect width="5.55098" height="5.55088" transform="matrix(-4.37106e-08 -1 -1 4.37121e-08 5.55469 244.244)" fill="#A1A1A1"/>
<rect width="5.55098" height="5.55088" transform="matrix(-4.37106e-08 -1 -1 4.37121e-08 38.8594 244.244)" fill="#A1A1A1"/>
<rect width="5.55098" height="5.55088" transform="matrix(-4.37106e-08 -1 -1 4.37121e-08 72.1641 244.244)" fill="#A1A1A1"/>
<rect width="5.55098" height="5.55088" transform="matrix(-4.37106e-08 -1 -1 4.37121e-08 105.469 244.244)" fill="#A1A1A1"/>
<rect width="5.55098" height="5.55088" transform="matrix(-4.37106e-08 -1 -1 4.37121e-08 138.773 244.244)" fill="#A1A1A1"/>
<rect width="5.55098" height="5.55088" transform="matrix(-4.37106e-08 -1 -1 4.37121e-08 172.078 244.244)" fill="#A1A1A1"/>
<rect width="5.55098" height="5.55088" transform="matrix(-4.37106e-08 -1 -1 4.37121e-08 205.391 244.244)" fill="#A1A1A1"/>
<rect width="5.55098" height="5.55088" transform="matrix(-4.37106e-08 -1 -1 4.37121e-08 238.695 244.244)" fill="#A1A1A1"/>
<rect width="5.55098" height="5.55088" transform="matrix(-4.37106e-08 -1 -1 4.37121e-08 272 244.244)" fill="#A1A1A1"/>
<rect width="5.55098" height="5.55088" transform="matrix(-4.37106e-08 -1 -1 4.37121e-08 5.55469 266.446)" fill="#A1A1A1"/>
<rect width="5.55098" height="5.55088" transform="matrix(-4.37106e-08 -1 -1 4.37121e-08 38.8594 266.446)" fill="#A1A1A1"/>
<rect width="5.55098" height="5.55088" transform="matrix(-4.37106e-08 -1 -1 4.37121e-08 72.1641 266.446)" fill="#A1A1A1"/>
<rect width="5.55098" height="5.55088" transform="matrix(-4.37106e-08 -1 -1 4.37121e-08 105.469 266.446)" fill="#A1A1A1"/>
<rect width="5.55098" height="5.55088" transform="matrix(-4.37106e-08 -1 -1 4.37121e-08 138.773 266.446)" fill="#A1A1A1"/>
<rect width="5.55098" height="5.55088" transform="matrix(-4.37106e-08 -1 -1 4.37121e-08 172.078 266.446)" fill="#A1A1A1"/>
<rect width="5.55098" height="5.55088" transform="matrix(-4.37106e-08 -1 -1 4.37121e-08 205.391 266.446)" fill="#A1A1A1"/>
<rect width="5.55098" height="5.55088" transform="matrix(-4.37106e-08 -1 -1 4.37121e-08 238.695 266.446)" fill="#A1A1A1"/>
<rect width="5.55098" height="5.55088" transform="matrix(-4.37106e-08 -1 -1 4.37121e-08 272 266.446)" fill="#A1A1A1"/>
<rect width="5.55088" height="5.55098" transform="matrix(1 0.000189641 0.000189634 -1 0.0078125 49.957)" fill="#A1A1A1"/>
<rect width="5.55088" height="5.55098" transform="matrix(1 0.000189641 0.000189634 -1 0.0078125 16.6533)" fill="#A1A1A1"/>
<rect width="5.55088" height="5.55098" transform="matrix(1 0.000189641 0.000189634 -1 33.3125 49.957)" fill="#A1A1A1"/>
<rect width="5.55088" height="5.55098" transform="matrix(1 0.000189641 0.000189634 -1 33.3125 16.6533)" fill="#A1A1A1"/>
<rect width="5.55088" height="5.55098" transform="matrix(1 0.000189641 0.000189634 -1 66.6172 49.957)" fill="#A1A1A1"/>
<rect width="5.55088" height="5.55098" transform="matrix(1 0.000189641 0.000189634 -1 66.6172 16.6533)" fill="#A1A1A1"/>
<rect width="5.55088" height="5.55098" transform="matrix(1 0.000189641 0.000189634 -1 99.9219 49.957)" fill="#A1A1A1"/>
<rect width="5.55088" height="5.55098" transform="matrix(1 0.000189641 0.000189634 -1 99.9219 16.6533)" fill="#A1A1A1"/>
<rect width="5.55088" height="5.55098" transform="matrix(1 0.000189641 0.000189634 -1 133.227 49.957)" fill="#A1A1A1"/>
<rect width="5.55088" height="5.55098" transform="matrix(1 0.000189641 0.000189634 -1 133.227 16.6533)" fill="#A1A1A1"/>
<rect width="5.55088" height="5.55098" transform="matrix(1 0.000189641 0.000189634 -1 166.531 49.957)" fill="#A1A1A1"/>
<rect width="5.55088" height="5.55098" transform="matrix(1 0.000189641 0.000189634 -1 166.531 16.6533)" fill="#A1A1A1"/>
<rect width="5.55088" height="5.55098" transform="matrix(1 0.000189641 0.000189634 -1 199.836 49.957)" fill="#A1A1A1"/>
<rect width="5.55088" height="5.55098" transform="matrix(1 0.000189641 0.000189634 -1 199.836 16.6533)" fill="#A1A1A1"/>
<rect width="5.55088" height="5.55098" transform="matrix(1 0.000189641 0.000189634 -1 233.141 49.957)" fill="#A1A1A1"/>
<rect width="5.55088" height="5.55098" transform="matrix(1 0.000189641 0.000189634 -1 233.141 16.6533)" fill="#A1A1A1"/>
<rect width="5.55088" height="5.55098" transform="matrix(1 0.000189641 0.000189634 -1 266.445 49.957)" fill="#A1A1A1"/>
<rect width="5.55088" height="5.55098" transform="matrix(1 0.000189641 0.000189634 -1 266.445 16.6533)" fill="#A1A1A1"/>
<rect width="5.55088" height="5.55098" transform="matrix(1 0.000189641 0.000189634 -1 0.0078125 72.1631)" fill="#A1A1A1"/>
<rect width="5.55088" height="5.55098" transform="matrix(1 0.000189641 0.000189634 -1 33.3125 72.1631)" fill="#A1A1A1"/>
<rect width="5.55088" height="5.55098" transform="matrix(1 0.000189641 0.000189634 -1 66.6172 72.1631)" fill="#A1A1A1"/>
<rect width="5.55088" height="5.55098" transform="matrix(1 0.000189641 0.000189634 -1 99.9219 72.1631)" fill="#A1A1A1"/>
<rect width="5.55088" height="5.55098" transform="matrix(1 0.000189641 0.000189634 -1 133.227 72.1631)" fill="#A1A1A1"/>
<rect width="5.55088" height="5.55098" transform="matrix(1 0.000189641 0.000189634 -1 166.531 72.1631)" fill="#A1A1A1"/>
<rect width="5.55088" height="5.55098" transform="matrix(1 0.000189641 0.000189634 -1 199.836 72.1631)" fill="#A1A1A1"/>
<rect width="5.55088" height="5.55098" transform="matrix(1 0.000189641 0.000189634 -1 233.141 72.1631)" fill="#A1A1A1"/>
<rect width="5.55088" height="5.55098" transform="matrix(1 0.000189641 0.000189634 -1 266.445 72.1631)" fill="#A1A1A1"/>
<rect width="5.55088" height="5.55098" transform="matrix(1 0.000189641 0.000189634 -1 0.0078125 94.3652)" fill="#A1A1A1"/>
<rect width="5.55088" height="5.55098" transform="matrix(1 0.000189641 0.000189634 -1 33.3125 94.3652)" fill="#A1A1A1"/>
<rect width="5.55088" height="5.55098" transform="matrix(1 0.000189641 0.000189634 -1 66.6172 94.3652)" fill="#A1A1A1"/>
<rect width="5.55088" height="5.55098" transform="matrix(1 0.000189641 0.000189634 -1 99.9219 94.3652)" fill="#A1A1A1"/>
<rect width="5.55088" height="5.55098" transform="matrix(1 0.000189641 0.000189634 -1 133.227 94.3652)" fill="#A1A1A1"/>
<rect width="5.55088" height="5.55098" transform="matrix(1 0.000189641 0.000189634 -1 166.531 94.3652)" fill="#A1A1A1"/>
<rect width="5.55088" height="5.55098" transform="matrix(1 0.000189641 0.000189634 -1 199.836 94.3652)" fill="#A1A1A1"/>
<rect width="5.55088" height="5.55098" transform="matrix(1 0.000189641 0.000189634 -1 233.141 94.3652)" fill="#A1A1A1"/>
<rect width="5.55088" height="5.55098" transform="matrix(1 0.000189641 0.000189634 -1 266.445 94.3652)" fill="#A1A1A1"/>
<rect width="5.55088" height="5.55098" transform="matrix(1 0.000189641 0.000189634 -1 0.0078125 116.571)" fill="#A1A1A1"/>
<rect width="5.55088" height="5.55098" transform="matrix(1 0.000189641 0.000189634 -1 33.3125 116.571)" fill="#A1A1A1"/>
<rect width="5.55088" height="5.55098" transform="matrix(1 0.000189641 0.000189634 -1 66.6172 116.571)" fill="#A1A1A1"/>
<rect width="5.55088" height="5.55098" transform="matrix(1 0.000189641 0.000189634 -1 99.9219 116.571)" fill="#A1A1A1"/>
<rect width="5.55088" height="5.55098" transform="matrix(1 0.000189641 0.000189634 -1 133.227 116.571)" fill="#A1A1A1"/>
<rect width="5.55088" height="5.55098" transform="matrix(1 0.000189641 0.000189634 -1 166.531 116.571)" fill="#A1A1A1"/>
<rect width="5.55088" height="5.55098" transform="matrix(1 0.000189641 0.000189634 -1 199.836 116.571)" fill="#A1A1A1"/>
<rect width="5.55088" height="5.55098" transform="matrix(1 0.000189641 0.000189634 -1 233.141 116.571)" fill="#A1A1A1"/>
<rect width="5.55088" height="5.55098" transform="matrix(1 0.000189641 0.000189634 -1 266.445 116.571)" fill="#A1A1A1"/>
<rect width="5.55088" height="5.55098" transform="matrix(1 0.000189641 0.000189634 -1 0.0078125 138.773)" fill="#A1A1A1"/>
<rect width="5.55088" height="5.55098" transform="matrix(1 0.000189641 0.000189634 -1 33.3125 138.773)" fill="#A1A1A1"/>
<rect width="5.55088" height="5.55098" transform="matrix(1 0.000189641 0.000189634 -1 66.6172 138.773)" fill="#A1A1A1"/>
<rect width="5.55088" height="5.55098" transform="matrix(1 0.000189641 0.000189634 -1 99.9219 138.773)" fill="#A1A1A1"/>
<rect width="5.55088" height="5.55098" transform="matrix(1 0.000189641 0.000189634 -1 133.227 138.773)" fill="#A1A1A1"/>
<rect width="5.55088" height="5.55098" transform="matrix(1 0.000189641 0.000189634 -1 166.531 138.773)" fill="#A1A1A1"/>
<rect width="5.55088" height="5.55098" transform="matrix(1 0.000189641 0.000189634 -1 199.836 138.773)" fill="#A1A1A1"/>
<rect width="5.55088" height="5.55098" transform="matrix(1 0.000189641 0.000189634 -1 233.141 138.773)" fill="#A1A1A1"/>
<rect width="5.55088" height="5.55098" transform="matrix(1 0.000189641 0.000189634 -1 266.445 138.773)" fill="#A1A1A1"/>
<rect width="5.55088" height="5.55098" transform="matrix(1 0.000189641 0.000189634 -1 0.0078125 160.979)" fill="#A1A1A1"/>
<rect width="5.55088" height="5.55098" transform="matrix(1 0.000189641 0.000189634 -1 33.3125 160.979)" fill="#A1A1A1"/>
<rect width="5.55088" height="5.55098" transform="matrix(1 0.000189641 0.000189634 -1 66.6172 160.979)" fill="#A1A1A1"/>
<rect width="5.55088" height="5.55098" transform="matrix(1 0.000189641 0.000189634 -1 99.9219 160.979)" fill="#A1A1A1"/>
<rect width="5.55088" height="5.55098" transform="matrix(1 0.000189641 0.000189634 -1 133.227 160.979)" fill="#A1A1A1"/>
<rect width="5.55088" height="5.55098" transform="matrix(1 0.000189641 0.000189634 -1 166.531 160.979)" fill="#A1A1A1"/>
<rect width="5.55088" height="5.55098" transform="matrix(1 0.000189641 0.000189634 -1 199.836 160.979)" fill="#A1A1A1"/>
<rect width="5.55088" height="5.55098" transform="matrix(1 0.000189641 0.000189634 -1 233.141 160.979)" fill="#A1A1A1"/>
<rect width="5.55088" height="5.55098" transform="matrix(1 0.000189641 0.000189634 -1 266.445 160.979)" fill="#A1A1A1"/>
<rect width="5.55088" height="5.55098" transform="matrix(1 0.000189641 0.000189634 -1 0.0078125 183.183)" fill="#A1A1A1"/>
<rect width="5.55088" height="5.55098" transform="matrix(1 0.000189641 0.000189634 -1 33.3125 183.183)" fill="#A1A1A1"/>
<rect width="5.55088" height="5.55098" transform="matrix(1 0.000189641 0.000189634 -1 66.6172 183.183)" fill="#A1A1A1"/>
<rect width="5.55088" height="5.55098" transform="matrix(1 0.000189641 0.000189634 -1 99.9219 183.183)" fill="#A1A1A1"/>
<rect width="5.55088" height="5.55098" transform="matrix(1 0.000189641 0.000189634 -1 133.227 183.183)" fill="#A1A1A1"/>
<rect width="5.55088" height="5.55098" transform="matrix(1 0.000189641 0.000189634 -1 166.531 183.183)" fill="#A1A1A1"/>
<rect width="5.55088" height="5.55098" transform="matrix(1 0.000189641 0.000189634 -1 199.836 183.183)" fill="#A1A1A1"/>
<rect width="5.55088" height="5.55098" transform="matrix(1 0.000189641 0.000189634 -1 233.141 183.183)" fill="#A1A1A1"/>
<rect width="5.55088" height="5.55098" transform="matrix(1 0.000189641 0.000189634 -1 266.445 183.183)" fill="#A1A1A1"/>
<rect width="5.55088" height="5.55098" transform="matrix(1 0.000189641 0.000189634 -1 0.0078125 205.385)" fill="#A1A1A1"/>
<rect width="5.55088" height="5.55098" transform="matrix(1 0.000189641 0.000189634 -1 33.3125 205.385)" fill="#A1A1A1"/>
<rect width="5.55088" height="5.55098" transform="matrix(1 0.000189641 0.000189634 -1 66.6172 205.385)" fill="#A1A1A1"/>
<rect width="5.55088" height="5.55098" transform="matrix(1 0.000189641 0.000189634 -1 99.9219 205.385)" fill="#A1A1A1"/>
<rect width="5.55088" height="5.55098" transform="matrix(1 0.000189641 0.000189634 -1 133.227 205.385)" fill="#A1A1A1"/>
<rect width="5.55088" height="5.55098" transform="matrix(1 0.000189641 0.000189634 -1 166.531 205.385)" fill="#A1A1A1"/>
<rect width="5.55088" height="5.55098" transform="matrix(1 0.000189641 0.000189634 -1 199.836 205.385)" fill="#A1A1A1"/>
<rect width="5.55088" height="5.55098" transform="matrix(1 0.000189641 0.000189634 -1 233.141 205.385)" fill="#A1A1A1"/>
<rect width="5.55088" height="5.55098" transform="matrix(1 0.000189641 0.000189634 -1 266.445 205.385)" fill="#A1A1A1"/>
<rect width="5.55088" height="5.55098" transform="matrix(1 0.000189641 0.000189634 -1 0.0078125 227.591)" fill="#A1A1A1"/>
<rect width="5.55088" height="5.55098" transform="matrix(1 0.000189641 0.000189634 -1 33.3125 227.591)" fill="#A1A1A1"/>
<rect width="5.55088" height="5.55098" transform="matrix(1 0.000189641 0.000189634 -1 66.6172 227.591)" fill="#A1A1A1"/>
<rect width="5.55088" height="5.55098" transform="matrix(1 0.000189641 0.000189634 -1 99.9219 227.591)" fill="#A1A1A1"/>
<rect width="5.55088" height="5.55098" transform="matrix(1 0.000189641 0.000189634 -1 133.227 227.591)" fill="#A1A1A1"/>
<rect width="5.55088" height="5.55098" transform="matrix(1 0.000189641 0.000189634 -1 166.531 227.591)" fill="#A1A1A1"/>
<rect width="5.55088" height="5.55098" transform="matrix(1 0.000189641 0.000189634 -1 199.836 227.591)" fill="#A1A1A1"/>
<rect width="5.55088" height="5.55098" transform="matrix(1 0.000189641 0.000189634 -1 233.141 227.591)" fill="#A1A1A1"/>
<rect width="5.55088" height="5.55098" transform="matrix(1 0.000189641 0.000189634 -1 266.445 227.591)" fill="#A1A1A1"/>
<rect width="5.55088" height="5.55098" transform="matrix(1 0.000189641 0.000189634 -1 0.0078125 249.793)" fill="#A1A1A1"/>
<rect width="5.55088" height="5.55098" transform="matrix(1 0.000189641 0.000189634 -1 33.3125 249.793)" fill="#A1A1A1"/>
<rect width="5.55088" height="5.55098" transform="matrix(1 0.000189641 0.000189634 -1 66.6172 249.793)" fill="#A1A1A1"/>
<rect width="5.55088" height="5.55098" transform="matrix(1 0.000189641 0.000189634 -1 99.9219 249.793)" fill="#A1A1A1"/>
<rect width="5.55088" height="5.55098" transform="matrix(1 0.000189641 0.000189634 -1 133.227 249.793)" fill="#A1A1A1"/>
<rect width="5.55088" height="5.55098" transform="matrix(1 0.000189641 0.000189634 -1 166.531 249.793)" fill="#A1A1A1"/>
<rect width="5.55088" height="5.55098" transform="matrix(1 0.000189641 0.000189634 -1 199.836 249.793)" fill="#A1A1A1"/>
<rect width="5.55088" height="5.55098" transform="matrix(1 0.000189641 0.000189634 -1 233.141 249.793)" fill="#A1A1A1"/>
<rect width="5.55088" height="5.55098" transform="matrix(1 0.000189641 0.000189634 -1 266.445 249.793)" fill="#A1A1A1"/>
<rect width="5.55088" height="5.55098" transform="matrix(1 0.000189641 0.000189634 -1 0.0078125 271.999)" fill="#A1A1A1"/>
<rect width="5.55088" height="5.55098" transform="matrix(1 0.000189641 0.000189634 -1 33.3125 271.999)" fill="#A1A1A1"/>
<rect width="5.55088" height="5.55098" transform="matrix(1 0.000189641 0.000189634 -1 0.0078125 61.0625)" fill="#A1A1A1"/>
<rect width="5.55088" height="5.55098" transform="matrix(1 0.000189641 0.000189634 -1 0.0078125 27.7549)" fill="#A1A1A1"/>
<rect width="5.55088" height="5.55098" transform="matrix(1 0.000189641 0.000189634 -1 33.3125 61.0625)" fill="#A1A1A1"/>
<rect width="5.55088" height="5.55098" transform="matrix(1 0.000189641 0.000189634 -1 33.3125 27.7549)" fill="#A1A1A1"/>
<rect width="5.55088" height="5.55098" transform="matrix(1 0.000189641 0.000189634 -1 66.6172 61.0625)" fill="#A1A1A1"/>
<rect width="5.55088" height="5.55098" transform="matrix(1 0.000189641 0.000189634 -1 66.6172 27.7549)" fill="#A1A1A1"/>
<rect width="5.55088" height="5.55098" transform="matrix(1 0.000189641 0.000189634 -1 99.9219 61.0625)" fill="#A1A1A1"/>
<rect width="5.55088" height="5.55098" transform="matrix(1 0.000189641 0.000189634 -1 99.9219 27.7549)" fill="#A1A1A1"/>
<rect width="5.55088" height="5.55098" transform="matrix(1 0.000189641 0.000189634 -1 133.227 61.0625)" fill="#A1A1A1"/>
<rect width="5.55088" height="5.55098" transform="matrix(1 0.000189641 0.000189634 -1 133.227 27.7549)" fill="#A1A1A1"/>
<rect width="5.55088" height="5.55098" transform="matrix(1 0.000189641 0.000189634 -1 166.531 61.0625)" fill="#A1A1A1"/>
<rect width="5.55088" height="5.55098" transform="matrix(1 0.000189641 0.000189634 -1 166.531 27.7549)" fill="#A1A1A1"/>
<rect width="5.55088" height="5.55098" transform="matrix(1 0.000189641 0.000189634 -1 199.836 61.0625)" fill="#A1A1A1"/>
<rect width="5.55088" height="5.55098" transform="matrix(1 0.000189641 0.000189634 -1 199.836 27.7549)" fill="#A1A1A1"/>
<rect width="5.55088" height="5.55098" transform="matrix(1 0.000189641 0.000189634 -1 233.141 61.0625)" fill="#A1A1A1"/>
<rect width="5.55088" height="5.55098" transform="matrix(1 0.000189641 0.000189634 -1 233.141 27.7549)" fill="#A1A1A1"/>
<rect width="5.55088" height="5.55098" transform="matrix(1 0.000189641 0.000189634 -1 266.445 61.0625)" fill="#A1A1A1"/>
<rect width="5.55088" height="5.55098" transform="matrix(1 0.000189641 0.000189634 -1 266.445 27.7549)" fill="#A1A1A1"/>
<rect width="5.55088" height="5.55098" transform="matrix(1 0.000189641 0.000189634 -1 0.0078125 83.2646)" fill="#A1A1A1"/>
<rect width="5.55088" height="5.55098" transform="matrix(1 0.000189641 0.000189634 -1 33.3125 83.2646)" fill="#A1A1A1"/>
<rect width="5.55088" height="5.55098" transform="matrix(1 0.000189641 0.000189634 -1 66.6172 83.2646)" fill="#A1A1A1"/>
<rect width="5.55088" height="5.55098" transform="matrix(1 0.000189641 0.000189634 -1 99.9219 83.2646)" fill="#A1A1A1"/>
<rect width="5.55088" height="5.55098" transform="matrix(1 0.000189641 0.000189634 -1 133.227 83.2646)" fill="#A1A1A1"/>
<rect width="5.55088" height="5.55098" transform="matrix(1 0.000189641 0.000189634 -1 166.531 83.2646)" fill="#A1A1A1"/>
<rect width="5.55088" height="5.55098" transform="matrix(1 0.000189641 0.000189634 -1 199.836 83.2646)" fill="#A1A1A1"/>
<rect width="5.55088" height="5.55098" transform="matrix(1 0.000189641 0.000189634 -1 233.141 83.2646)" fill="#A1A1A1"/>
<rect width="5.55088" height="5.55098" transform="matrix(1 0.000189641 0.000189634 -1 266.445 83.2646)" fill="#A1A1A1"/>
<rect width="5.55088" height="5.55098" transform="matrix(1 0.000189641 0.000189634 -1 0.0078125 105.471)" fill="#A1A1A1"/>
<rect width="5.55088" height="5.55098" transform="matrix(1 0.000189641 0.000189634 -1 33.3125 105.471)" fill="#A1A1A1"/>
<rect width="5.55088" height="5.55098" transform="matrix(1 0.000189641 0.000189634 -1 66.6172 105.471)" fill="#A1A1A1"/>
<rect width="5.55088" height="5.55098" transform="matrix(1 0.000189641 0.000189634 -1 99.9219 105.471)" fill="#A1A1A1"/>
<rect width="5.55088" height="5.55098" transform="matrix(1 0.000189641 0.000189634 -1 133.227 105.471)" fill="#A1A1A1"/>
<rect width="5.55088" height="5.55098" transform="matrix(1 0.000189641 0.000189634 -1 166.531 105.471)" fill="#A1A1A1"/>
<rect width="5.55088" height="5.55098" transform="matrix(1 0.000189641 0.000189634 -1 199.836 105.471)" fill="#A1A1A1"/>
<rect width="5.55088" height="5.55098" transform="matrix(1 0.000189641 0.000189634 -1 233.141 105.471)" fill="#A1A1A1"/>
<rect width="5.55088" height="5.55098" transform="matrix(1 0.000189641 0.000189634 -1 266.445 105.471)" fill="#A1A1A1"/>
<rect width="5.55088" height="5.55098" transform="matrix(1 0.000189641 0.000189634 -1 0.0078125 127.673)" fill="#A1A1A1"/>
<rect width="5.55088" height="5.55098" transform="matrix(1 0.000189641 0.000189634 -1 33.3125 127.673)" fill="#A1A1A1"/>
<rect width="5.55088" height="5.55098" transform="matrix(1 0.000189641 0.000189634 -1 66.6172 127.673)" fill="#A1A1A1"/>
<rect width="5.55088" height="5.55098" transform="matrix(1 0.000189641 0.000189634 -1 99.9219 127.673)" fill="#A1A1A1"/>
<rect width="5.55088" height="5.55098" transform="matrix(1 0.000189641 0.000189634 -1 133.227 127.673)" fill="#A1A1A1"/>
<rect width="5.55088" height="5.55098" transform="matrix(1 0.000189641 0.000189634 -1 166.531 127.673)" fill="#A1A1A1"/>
<rect width="5.55088" height="5.55098" transform="matrix(1 0.000189641 0.000189634 -1 199.836 127.673)" fill="#A1A1A1"/>
<rect width="5.55088" height="5.55098" transform="matrix(1 0.000189641 0.000189634 -1 233.141 127.673)" fill="#A1A1A1"/>
<rect width="5.55088" height="5.55098" transform="matrix(1 0.000189641 0.000189634 -1 266.445 127.673)" fill="#A1A1A1"/>
<rect width="5.55088" height="5.55098" transform="matrix(1 0.000189641 0.000189634 -1 0.0078125 149.875)" fill="#A1A1A1"/>
<rect width="5.55088" height="5.55098" transform="matrix(1 0.000189641 0.000189634 -1 33.3125 149.875)" fill="#A1A1A1"/>
<rect width="5.55088" height="5.55098" transform="matrix(1 0.000189641 0.000189634 -1 66.6172 149.875)" fill="#A1A1A1"/>
<rect width="5.55088" height="5.55098" transform="matrix(1 0.000189641 0.000189634 -1 99.9219 149.875)" fill="#A1A1A1"/>
<rect width="5.55088" height="5.55098" transform="matrix(1 0.000189641 0.000189634 -1 133.227 149.875)" fill="#A1A1A1"/>
<rect width="5.55088" height="5.55098" transform="matrix(1 0.000189641 0.000189634 -1 166.531 149.875)" fill="#A1A1A1"/>
<rect width="5.55088" height="5.55098" transform="matrix(1 0.000189641 0.000189634 -1 199.836 149.875)" fill="#A1A1A1"/>
<rect width="5.55088" height="5.55098" transform="matrix(1 0.000189641 0.000189634 -1 233.141 149.875)" fill="#A1A1A1"/>
<rect width="5.55088" height="5.55098" transform="matrix(1 0.000189641 0.000189634 -1 266.445 149.875)" fill="#A1A1A1"/>
<rect width="5.55088" height="5.55098" transform="matrix(1 0.000189641 0.000189634 -1 0.0078125 172.081)" fill="#A1A1A1"/>
<rect width="5.55088" height="5.55098" transform="matrix(1 0.000189641 0.000189634 -1 33.3125 172.081)" fill="#A1A1A1"/>
<rect width="5.55088" height="5.55098" transform="matrix(1 0.000189641 0.000189634 -1 66.6172 172.081)" fill="#A1A1A1"/>
<rect width="5.55088" height="5.55098" transform="matrix(1 0.000189641 0.000189634 -1 99.9219 172.081)" fill="#A1A1A1"/>
<rect width="5.55088" height="5.55098" transform="matrix(1 0.000189641 0.000189634 -1 133.227 172.081)" fill="#A1A1A1"/>
<rect width="5.55088" height="5.55098" transform="matrix(1 0.000189641 0.000189634 -1 166.531 172.081)" fill="#A1A1A1"/>
<rect width="5.55088" height="5.55098" transform="matrix(1 0.000189641 0.000189634 -1 199.836 172.081)" fill="#A1A1A1"/>
<rect width="5.55088" height="5.55098" transform="matrix(1 0.000189641 0.000189634 -1 233.141 172.081)" fill="#A1A1A1"/>
<rect width="5.55088" height="5.55098" transform="matrix(1 0.000189641 0.000189634 -1 266.445 172.081)" fill="#A1A1A1"/>
<rect width="5.55088" height="5.55098" transform="matrix(1 0.000189641 0.000189634 -1 0.0078125 194.283)" fill="#A1A1A1"/>
<rect width="5.55088" height="5.55098" transform="matrix(1 0.000189641 0.000189634 -1 33.3125 194.283)" fill="#A1A1A1"/>
<rect width="5.55088" height="5.55098" transform="matrix(1 0.000189641 0.000189634 -1 66.6172 194.283)" fill="#A1A1A1"/>
<rect width="5.55088" height="5.55098" transform="matrix(1 0.000189641 0.000189634 -1 99.9219 194.283)" fill="#A1A1A1"/>
<rect width="5.55088" height="5.55098" transform="matrix(1 0.000189641 0.000189634 -1 133.227 194.283)" fill="#A1A1A1"/>
<rect width="5.55088" height="5.55098" transform="matrix(1 0.000189641 0.000189634 -1 166.531 194.283)" fill="#A1A1A1"/>
<rect width="5.55088" height="5.55098" transform="matrix(1 0.000189641 0.000189634 -1 199.836 194.283)" fill="#A1A1A1"/>
<rect width="5.55088" height="5.55098" transform="matrix(1 0.000189641 0.000189634 -1 233.141 194.283)" fill="#A1A1A1"/>
<rect width="5.55088" height="5.55098" transform="matrix(1 0.000189641 0.000189634 -1 266.445 194.283)" fill="#A1A1A1"/>
<rect width="5.55088" height="5.55098" transform="matrix(1 0.000189641 0.000189634 -1 0.0078125 216.489)" fill="#A1A1A1"/>
<rect width="5.55088" height="5.55098" transform="matrix(1 0.000189641 0.000189634 -1 33.3125 216.489)" fill="#A1A1A1"/>
<rect width="5.55088" height="5.55098" transform="matrix(1 0.000189641 0.000189634 -1 66.6172 216.489)" fill="#A1A1A1"/>
<rect width="5.55088" height="5.55098" transform="matrix(1 0.000189641 0.000189634 -1 99.9219 216.489)" fill="#A1A1A1"/>
<rect width="5.55088" height="5.55098" transform="matrix(1 0.000189641 0.000189634 -1 133.227 216.489)" fill="#A1A1A1"/>
<rect width="5.55088" height="5.55098" transform="matrix(1 0.000189641 0.000189634 -1 166.531 216.489)" fill="#A1A1A1"/>
<rect width="5.55088" height="5.55098" transform="matrix(1 0.000189641 0.000189634 -1 199.836 216.489)" fill="#A1A1A1"/>
<rect width="5.55088" height="5.55098" transform="matrix(1 0.000189641 0.000189634 -1 233.141 216.489)" fill="#A1A1A1"/>
<rect width="5.55088" height="5.55098" transform="matrix(1 0.000189641 0.000189634 -1 266.445 216.489)" fill="#A1A1A1"/>
<rect width="5.55088" height="5.55098" transform="matrix(1 0.000189641 0.000189634 -1 0.0078125 238.691)" fill="#A1A1A1"/>
<rect width="5.55088" height="5.55098" transform="matrix(1 0.000189641 0.000189634 -1 33.3125 238.691)" fill="#A1A1A1"/>
<rect width="5.55088" height="5.55098" transform="matrix(1 0.000189641 0.000189634 -1 66.6172 238.691)" fill="#A1A1A1"/>
<rect width="5.55088" height="5.55098" transform="matrix(1 0.000189641 0.000189634 -1 99.9219 238.691)" fill="#A1A1A1"/>
<rect width="5.55088" height="5.55098" transform="matrix(1 0.000189641 0.000189634 -1 133.227 238.691)" fill="#A1A1A1"/>
<rect width="5.55088" height="5.55098" transform="matrix(1 0.000189641 0.000189634 -1 166.531 238.691)" fill="#A1A1A1"/>
<rect width="5.55088" height="5.55098" transform="matrix(1 0.000189641 0.000189634 -1 199.836 238.691)" fill="#A1A1A1"/>
<rect width="5.55088" height="5.55098" transform="matrix(1 0.000189641 0.000189634 -1 233.141 238.691)" fill="#A1A1A1"/>
<rect width="5.55088" height="5.55098" transform="matrix(1 0.000189641 0.000189634 -1 266.445 238.691)" fill="#A1A1A1"/>
<rect width="5.55088" height="5.55098" transform="matrix(1 0.000189641 0.000189634 -1 0.0078125 260.897)" fill="#A1A1A1"/>
<rect width="5.55088" height="5.55098" transform="matrix(1 0.000189641 0.000189634 -1 33.3125 260.897)" fill="#A1A1A1"/>
<rect width="5.55088" height="5.55098" transform="matrix(1 0.000189641 0.000189634 -1 66.6172 260.897)" fill="#A1A1A1"/>
<rect width="5.55088" height="5.55098" transform="matrix(1 0.000189641 0.000189634 -1 99.9219 260.897)" fill="#A1A1A1"/>
<rect width="5.55088" height="5.55098" transform="matrix(1 0.000189641 0.000189634 -1 133.227 260.897)" fill="#A1A1A1"/>
<rect width="5.55088" height="5.55098" transform="matrix(1 0.000189641 0.000189634 -1 166.531 260.897)" fill="#A1A1A1"/>
<rect width="5.55088" height="5.55098" transform="matrix(1 0.000189641 0.000189634 -1 199.836 260.897)" fill="#A1A1A1"/>
<rect width="5.55088" height="5.55098" transform="matrix(1 0.000189641 0.000189634 -1 233.141 260.897)" fill="#A1A1A1"/>
<rect width="5.55088" height="5.55098" transform="matrix(1 0.000189641 0.000189634 -1 266.445 260.897)" fill="#A1A1A1"/>
<rect width="5.55088" height="5.55098" transform="matrix(1 0.000189641 0.000189634 -1 5.55469 38.8555)" fill="#A1A1A1"/>
<rect width="5.55088" height="5.55098" transform="matrix(1 0.000189641 0.000189634 -1 5.55469 5.55273)" fill="#A1A1A1"/>
<rect width="5.55088" height="5.55098" transform="matrix(1 0.000189641 0.000189634 -1 5.55469 72.1631)" fill="#A1A1A1"/>
<rect width="5.55088" height="5.55098" transform="matrix(1 0.000189641 0.000189634 -1 5.55469 105.471)" fill="#A1A1A1"/>
<rect width="5.55088" height="5.55098" transform="matrix(1 0.000189641 0.000189634 -1 5.55469 138.773)" fill="#A1A1A1"/>
<rect width="5.55088" height="5.55098" transform="matrix(1 0.000189641 0.000189634 -1 5.55469 172.081)" fill="#A1A1A1"/>
<rect width="5.55088" height="5.55098" transform="matrix(1 0.000189641 0.000189634 -1 5.55469 205.385)" fill="#A1A1A1"/>
<rect width="5.55088" height="5.55098" transform="matrix(1 0.000189641 0.000189634 -1 5.55469 238.691)" fill="#A1A1A1"/>
<rect width="5.55088" height="5.55098" transform="matrix(1 0.000189641 0.000189634 -1 5.55469 271.999)" fill="#A1A1A1"/>
<rect width="5.55098" height="5.55088" transform="matrix(-4.37106e-08 -1 -1 4.37121e-08 22.2109 38.8555)" fill="#A1A1A1"/>
<rect width="5.55098" height="5.55088" transform="matrix(-4.37106e-08 -1 -1 4.37121e-08 22.2109 5.55273)" fill="#A1A1A1"/>
<rect width="5.55098" height="5.55088" transform="matrix(-4.37106e-08 -1 -1 4.37121e-08 22.2109 72.1631)" fill="#A1A1A1"/>
<rect width="5.55098" height="5.55088" transform="matrix(-4.37106e-08 -1 -1 4.37121e-08 22.2109 105.471)" fill="#A1A1A1"/>
<rect width="5.55098" height="5.55088" transform="matrix(-4.37106e-08 -1 -1 4.37121e-08 22.2109 138.773)" fill="#A1A1A1"/>
<rect width="5.55098" height="5.55088" transform="matrix(-4.37106e-08 -1 -1 4.37121e-08 22.2109 172.081)" fill="#A1A1A1"/>
<rect width="5.55098" height="5.55088" transform="matrix(-4.37106e-08 -1 -1 4.37121e-08 22.2109 205.385)" fill="#A1A1A1"/>
<rect width="5.55098" height="5.55088" transform="matrix(-4.37106e-08 -1 -1 4.37121e-08 22.2109 238.691)" fill="#A1A1A1"/>
<rect width="5.55098" height="5.55088" transform="matrix(-4.37106e-08 -1 -1 4.37121e-08 22.2109 271.999)" fill="#A1A1A1"/>
<ellipse cx="71.0223" cy="102.756" rx="12.5926" ry="12.5925" fill="black"/>
<ellipse cx="203.999" cy="70.5183" rx="12.5926" ry="12.5925" fill="black"/>
<ellipse cx="101.249" cy="166.725" rx="12.5926" ry="12.5925" fill="black"/>
<ellipse cx="135.999" cy="132.977" rx="12.5926" ry="12.5925" fill="white"/>
<ellipse cx="137.515" cy="101.244" rx="12.5926" ry="12.5925" fill="white"/>
<ellipse cx="234.733" cy="199.969" rx="12.5926" ry="12.5925" fill="white"/>
</svg>
