<svg width="272" height="272" viewBox="0 0 272 272" fill="none" xmlns="http://www.w3.org/2000/svg">
<rect width="5.55091" height="5.551" transform="matrix(1 0 0 -1 22.207 38.8569)" fill="#A1A1A1"/>
<rect width="5.55091" height="5.551" transform="matrix(1 0 0 -1 22.207 5.55078)" fill="#A1A1A1"/>
<rect width="5.55091" height="5.551" transform="matrix(1 0 0 -1 22.207 72.1631)" fill="#A1A1A1"/>
<rect width="5.55091" height="5.551" transform="matrix(1 0 0 -1 22.207 105.469)" fill="#A1A1A1"/>
<rect width="5.55091" height="5.551" transform="matrix(1 0 0 -1 22.207 138.775)" fill="#A1A1A1"/>
<rect width="5.55091" height="5.551" transform="matrix(1 0 0 -1 22.207 172.081)" fill="#A1A1A1"/>
<rect width="5.55091" height="5.551" transform="matrix(1 0 0 -1 22.207 205.387)" fill="#A1A1A1"/>
<rect width="5.55091" height="5.551" transform="matrix(1 0 0 -1 22.207 238.693)" fill="#A1A1A1"/>
<rect width="5.55091" height="5.551" transform="matrix(1 0 0 -1 22.207 271.999)" fill="#A1A1A1"/>
<rect width="5.55091" height="5.551" transform="matrix(1 0 0 -1 116.57 271.999)" fill="#A1A1A1"/>
<rect width="5.55091" height="5.551" transform="matrix(1 0 0 -1 116.57 38.8569)" fill="#A1A1A1"/>
<rect width="5.55091" height="5.551" transform="matrix(1 0 0 -1 116.57 5.55078)" fill="#A1A1A1"/>
<rect width="5.55091" height="5.551" transform="matrix(1 0 0 -1 116.57 72.1631)" fill="#A1A1A1"/>
<rect width="5.55091" height="5.551" transform="matrix(1 0 0 -1 160.98 271.999)" fill="#A1A1A1"/>
<rect width="5.55091" height="5.551" transform="matrix(1 0 0 -1 160.98 38.8569)" fill="#A1A1A1"/>
<rect width="5.55091" height="5.551" transform="matrix(1 0 0 -1 160.98 5.55078)" fill="#A1A1A1"/>
<rect width="5.55091" height="5.551" transform="matrix(1 0 0 -1 160.98 72.1631)" fill="#A1A1A1"/>
<rect width="5.55091" height="5.551" transform="matrix(1 0 0 -1 249.793 271.999)" fill="#A1A1A1"/>
<rect width="5.55091" height="5.551" transform="matrix(1 0 0 -1 249.793 38.8569)" fill="#A1A1A1"/>
<rect width="5.55091" height="5.551" transform="matrix(1 0 0 -1 249.793 5.55078)" fill="#A1A1A1"/>
<rect width="5.55091" height="5.551" transform="matrix(1 0 0 -1 249.793 72.1631)" fill="#A1A1A1"/>
<rect width="5.55091" height="5.551" transform="matrix(1 0 0 -1 49.9609 271.999)" fill="#A1A1A1"/>
<rect width="5.55091" height="5.551" transform="matrix(1 0 0 -1 49.9609 38.8569)" fill="#A1A1A1"/>
<rect width="5.55091" height="5.551" transform="matrix(1 0 0 -1 49.9609 5.55078)" fill="#A1A1A1"/>
<rect width="5.55091" height="5.551" transform="matrix(1 0 0 -1 49.9609 72.1631)" fill="#A1A1A1"/>
<rect width="5.55091" height="5.551" transform="matrix(1 0 0 -1 49.9609 105.469)" fill="#A1A1A1"/>
<rect width="5.55091" height="5.551" transform="matrix(1 0 0 -1 49.9609 138.775)" fill="#A1A1A1"/>
<rect width="5.55091" height="5.551" transform="matrix(1 0 0 -1 49.9609 172.081)" fill="#A1A1A1"/>
<rect width="5.55091" height="5.551" transform="matrix(1 0 0 -1 49.9609 205.387)" fill="#A1A1A1"/>
<rect width="5.55091" height="5.551" transform="matrix(1 0 0 -1 49.9609 238.693)" fill="#A1A1A1"/>
<rect width="5.55091" height="5.551" transform="matrix(1 0 0 -1 83.2656 238.693)" fill="#A1A1A1"/>
<rect width="5.55091" height="5.551" transform="matrix(1 0 0 -1 83.2656 205.387)" fill="#A1A1A1"/>
<rect width="5.55091" height="5.551" transform="matrix(1 0 0 -1 83.2656 172.081)" fill="#A1A1A1"/>
<rect width="5.55091" height="5.551" transform="matrix(1 0 0 -1 83.2656 138.775)" fill="#A1A1A1"/>
<rect width="5.55091" height="5.551" transform="matrix(1 0 0 -1 83.2656 105.469)" fill="#A1A1A1"/>
<rect width="5.55091" height="5.551" transform="matrix(1 0 0 -1 116.57 105.469)" fill="#A1A1A1"/>
<rect width="5.55091" height="5.551" transform="matrix(1 0 0 -1 149.875 105.469)" fill="#A1A1A1"/>
<rect width="5.55091" height="5.551" transform="matrix(1 0 0 -1 183.18 105.469)" fill="#A1A1A1"/>
<rect width="5.55091" height="5.551" transform="matrix(1 0 0 -1 183.18 138.775)" fill="#A1A1A1"/>
<rect width="5.55091" height="5.551" transform="matrix(1 0 0 -1 149.875 138.775)" fill="#A1A1A1"/>
<rect width="5.55091" height="5.551" transform="matrix(1 0 0 -1 116.57 138.775)" fill="#A1A1A1"/>
<rect width="5.55091" height="5.551" transform="matrix(1 0 0 -1 116.57 172.081)" fill="#A1A1A1"/>
<rect width="5.55091" height="5.551" transform="matrix(1 0 0 -1 116.57 205.387)" fill="#A1A1A1"/>
<rect width="5.55091" height="5.551" transform="matrix(1 0 0 -1 116.57 238.693)" fill="#A1A1A1"/>
<rect width="5.55091" height="5.551" transform="matrix(1 0 0 -1 149.875 172.081)" fill="#A1A1A1"/>
<rect width="5.55091" height="5.551" transform="matrix(1 0 0 -1 149.875 205.387)" fill="#A1A1A1"/>
<rect width="5.55091" height="5.551" transform="matrix(1 0 0 -1 149.875 238.693)" fill="#A1A1A1"/>
<rect width="5.55091" height="5.551" transform="matrix(1 0 0 -1 183.18 172.081)" fill="#A1A1A1"/>
<rect width="5.55091" height="5.551" transform="matrix(1 0 0 -1 183.18 205.387)" fill="#A1A1A1"/>
<rect width="5.55091" height="5.551" transform="matrix(1 0 0 -1 183.18 238.693)" fill="#A1A1A1"/>
<rect width="5.55091" height="5.551" transform="matrix(1 0 0 -1 216.488 238.693)" fill="#A1A1A1"/>
<rect width="5.55091" height="5.551" transform="matrix(1 0 0 -1 216.488 205.387)" fill="#A1A1A1"/>
<rect width="5.55091" height="5.551" transform="matrix(1 0 0 -1 216.488 172.081)" fill="#A1A1A1"/>
<rect width="5.55091" height="5.551" transform="matrix(1 0 0 -1 216.488 138.775)" fill="#A1A1A1"/>
<rect width="5.55091" height="5.551" transform="matrix(1 0 0 -1 216.488 105.469)" fill="#A1A1A1"/>
<rect width="5.55091" height="5.551" transform="matrix(1 0 0 -1 249.793 105.469)" fill="#A1A1A1"/>
<rect width="5.55091" height="5.551" transform="matrix(1 0 0 -1 249.793 138.775)" fill="#A1A1A1"/>
<rect width="5.55091" height="5.551" transform="matrix(1 0 0 -1 249.793 172.081)" fill="#A1A1A1"/>
<rect width="5.55091" height="5.551" transform="matrix(1 0 0 -1 249.793 205.387)" fill="#A1A1A1"/>
<rect width="5.55091" height="5.551" transform="matrix(1 0 0 -1 249.793 238.693)" fill="#A1A1A1"/>
<rect width="5.55091" height="5.551" transform="matrix(1 0 0 -1 227.59 271.999)" fill="#A1A1A1"/>
<rect width="5.55091" height="5.551" transform="matrix(1 0 0 -1 227.59 38.8569)" fill="#A1A1A1"/>
<rect width="5.55091" height="5.551" transform="matrix(1 0 0 -1 227.59 5.55078)" fill="#A1A1A1"/>
<rect width="5.55091" height="5.551" transform="matrix(1 0 0 -1 227.59 72.1631)" fill="#A1A1A1"/>
<rect width="5.55091" height="5.551" transform="matrix(1 0 0 -1 94.3672 271.999)" fill="#A1A1A1"/>
<rect width="5.55091" height="5.551" transform="matrix(1 0 0 -1 94.3672 38.8569)" fill="#A1A1A1"/>
<rect width="5.55091" height="5.551" transform="matrix(1 0 0 -1 94.3672 5.55078)" fill="#A1A1A1"/>
<rect width="5.55091" height="5.551" transform="matrix(1 0 0 -1 94.3672 72.1631)" fill="#A1A1A1"/>
<rect width="5.55091" height="5.551" transform="matrix(1 0 0 -1 183.18 271.999)" fill="#A1A1A1"/>
<rect width="5.55091" height="5.551" transform="matrix(1 0 0 -1 183.18 38.8569)" fill="#A1A1A1"/>
<rect width="5.55091" height="5.551" transform="matrix(1 0 0 -1 183.18 5.55078)" fill="#A1A1A1"/>
<rect width="5.55091" height="5.551" transform="matrix(1 0 0 -1 183.18 72.1631)" fill="#A1A1A1"/>
<rect width="5.55091" height="5.551" transform="matrix(1 0 0 -1 166.531 271.999)" fill="#A1A1A1"/>
<rect width="5.55091" height="5.551" transform="matrix(1 0 0 -1 166.531 38.8569)" fill="#A1A1A1"/>
<rect width="5.55091" height="5.551" transform="matrix(1 0 0 -1 166.531 5.55078)" fill="#A1A1A1"/>
<rect width="5.55091" height="5.551" transform="matrix(1 0 0 -1 38.8594 271.999)" fill="#A1A1A1"/>
<rect width="5.55091" height="5.551" transform="matrix(1 0 0 -1 38.8594 38.8569)" fill="#A1A1A1"/>
<rect width="5.55091" height="5.551" transform="matrix(1 0 0 -1 38.8594 5.55078)" fill="#A1A1A1"/>
<rect width="5.55091" height="5.551" transform="matrix(1 0 0 -1 38.8594 72.1631)" fill="#A1A1A1"/>
<rect width="5.55091" height="5.551" transform="matrix(1 0 0 -1 38.8594 105.469)" fill="#A1A1A1"/>
<rect width="5.55091" height="5.551" transform="matrix(1 0 0 -1 38.8594 138.775)" fill="#A1A1A1"/>
<rect width="5.55091" height="5.551" transform="matrix(1 0 0 -1 38.8594 172.081)" fill="#A1A1A1"/>
<rect width="5.55091" height="5.551" transform="matrix(1 0 0 -1 38.8594 205.387)" fill="#A1A1A1"/>
<rect width="5.55091" height="5.551" transform="matrix(1 0 0 -1 38.8594 238.693)" fill="#A1A1A1"/>
<rect width="5.55091" height="5.551" transform="matrix(1 0 0 -1 72.1641 238.693)" fill="#A1A1A1"/>
<rect width="5.55091" height="5.551" transform="matrix(1 0 0 -1 72.1641 205.387)" fill="#A1A1A1"/>
<rect width="5.55091" height="5.551" transform="matrix(1 0 0 -1 72.1641 172.081)" fill="#A1A1A1"/>
<rect width="5.55091" height="5.551" transform="matrix(1 0 0 -1 72.1641 138.775)" fill="#A1A1A1"/>
<rect width="5.55091" height="5.551" transform="matrix(1 0 0 -1 72.1641 105.469)" fill="#A1A1A1"/>
<rect width="5.55091" height="5.551" transform="matrix(1 0 0 -1 105.469 105.469)" fill="#A1A1A1"/>
<rect width="5.55091" height="5.551" transform="matrix(1 0 0 -1 138.773 105.469)" fill="#A1A1A1"/>
<rect width="5.55091" height="5.551" transform="matrix(1 0 0 -1 172.082 105.469)" fill="#A1A1A1"/>
<rect width="5.55091" height="5.551" transform="matrix(1 0 0 -1 172.082 138.775)" fill="#A1A1A1"/>
<rect width="5.55091" height="5.551" transform="matrix(1 0 0 -1 138.773 138.775)" fill="#A1A1A1"/>
<rect width="5.55091" height="5.551" transform="matrix(1 0 0 -1 105.469 138.775)" fill="#A1A1A1"/>
<rect width="5.55091" height="5.551" transform="matrix(1 0 0 -1 105.469 172.081)" fill="#A1A1A1"/>
<rect width="5.55091" height="5.551" transform="matrix(1 0 0 -1 105.469 205.387)" fill="#A1A1A1"/>
<rect width="5.55091" height="5.551" transform="matrix(1 0 0 -1 105.469 238.693)" fill="#A1A1A1"/>
<rect width="5.55091" height="5.551" transform="matrix(1 0 0 -1 138.773 172.081)" fill="#A1A1A1"/>
<rect width="5.55091" height="5.551" transform="matrix(1 0 0 -1 138.773 205.387)" fill="#A1A1A1"/>
<rect width="5.55091" height="5.551" transform="matrix(1 0 0 -1 138.773 238.693)" fill="#A1A1A1"/>
<rect width="5.55091" height="5.551" transform="matrix(1 0 0 -1 172.082 172.081)" fill="#A1A1A1"/>
<rect width="5.55091" height="5.551" transform="matrix(1 0 0 -1 172.082 205.387)" fill="#A1A1A1"/>
<rect width="5.55091" height="5.551" transform="matrix(1 0 0 -1 172.082 238.693)" fill="#A1A1A1"/>
<rect width="5.55091" height="5.551" transform="matrix(1 0 0 -1 205.387 238.693)" fill="#A1A1A1"/>
<rect width="5.55091" height="5.551" transform="matrix(1 0 0 -1 205.387 205.387)" fill="#A1A1A1"/>
<rect width="5.55091" height="5.551" transform="matrix(1 0 0 -1 205.387 172.081)" fill="#A1A1A1"/>
<rect width="5.55091" height="5.551" transform="matrix(1 0 0 -1 205.387 138.775)" fill="#A1A1A1"/>
<rect width="5.55091" height="5.551" transform="matrix(1 0 0 -1 205.387 105.469)" fill="#A1A1A1"/>
<rect width="5.55091" height="5.551" transform="matrix(1 0 0 -1 238.691 105.469)" fill="#A1A1A1"/>
<rect width="5.55091" height="5.551" transform="matrix(1 0 0 -1 238.691 138.775)" fill="#A1A1A1"/>
<rect width="5.55091" height="5.551" transform="matrix(1 0 0 -1 238.691 172.081)" fill="#A1A1A1"/>
<rect width="5.55091" height="5.551" transform="matrix(1 0 0 -1 238.691 205.387)" fill="#A1A1A1"/>
<rect width="5.55091" height="5.551" transform="matrix(1 0 0 -1 238.691 238.693)" fill="#A1A1A1"/>
<rect width="5.55091" height="5.551" transform="matrix(1 0 0 -1 127.672 271.999)" fill="#A1A1A1"/>
<rect width="5.55091" height="5.551" transform="matrix(1 0 0 -1 127.672 38.8569)" fill="#A1A1A1"/>
<rect width="5.55091" height="5.551" transform="matrix(1 0 0 -1 127.672 5.55078)" fill="#A1A1A1"/>
<rect width="5.55091" height="5.551" transform="matrix(1 0 0 -1 127.672 72.1631)" fill="#A1A1A1"/>
<rect width="5.55091" height="5.551" transform="matrix(1 0 0 -1 216.488 271.999)" fill="#A1A1A1"/>
<rect width="5.55091" height="5.551" transform="matrix(1 0 0 -1 216.488 38.8569)" fill="#A1A1A1"/>
<rect width="5.55091" height="5.551" transform="matrix(1 0 0 -1 216.488 5.55078)" fill="#A1A1A1"/>
<rect width="5.55091" height="5.551" transform="matrix(1 0 0 -1 216.488 72.1631)" fill="#A1A1A1"/>
<rect width="5.55091" height="5.551" transform="matrix(1 0 0 -1 83.2656 271.999)" fill="#A1A1A1"/>
<rect width="5.55091" height="5.551" transform="matrix(1 0 0 -1 83.2656 38.8569)" fill="#A1A1A1"/>
<rect width="5.55091" height="5.551" transform="matrix(1 0 0 -1 83.2656 5.55078)" fill="#A1A1A1"/>
<rect width="5.55091" height="5.551" transform="matrix(1 0 0 -1 83.2656 72.1631)" fill="#A1A1A1"/>
<rect width="5.55091" height="5.551" transform="matrix(1 0 0 -1 172.082 271.999)" fill="#A1A1A1"/>
<rect width="5.55091" height="5.551" transform="matrix(1 0 0 -1 172.082 38.8569)" fill="#A1A1A1"/>
<rect width="5.55091" height="5.551" transform="matrix(1 0 0 -1 172.082 5.55078)" fill="#A1A1A1"/>
<rect width="5.55091" height="5.551" transform="matrix(1 0 0 -1 172.082 72.1631)" fill="#A1A1A1"/>
<rect width="5.55091" height="5.551" transform="matrix(1 0 0 -1 260.895 271.999)" fill="#A1A1A1"/>
<rect width="5.55091" height="5.551" transform="matrix(1 0 0 -1 260.895 38.8569)" fill="#A1A1A1"/>
<rect width="5.55091" height="5.551" transform="matrix(1 0 0 -1 260.895 5.55078)" fill="#A1A1A1"/>
<rect width="5.55091" height="5.551" transform="matrix(1 0 0 -1 260.895 72.1631)" fill="#A1A1A1"/>
<rect width="5.55091" height="5.551" transform="matrix(1 0 0 -1 61.0625 271.999)" fill="#A1A1A1"/>
<rect width="5.55091" height="5.551" transform="matrix(1 0 0 -1 61.0625 38.8569)" fill="#A1A1A1"/>
<rect width="5.55091" height="5.551" transform="matrix(1 0 0 -1 61.0625 5.55078)" fill="#A1A1A1"/>
<rect width="5.55091" height="5.551" transform="matrix(1 0 0 -1 61.0625 72.1631)" fill="#A1A1A1"/>
<rect width="5.55091" height="5.551" transform="matrix(1 0 0 -1 61.0625 105.469)" fill="#A1A1A1"/>
<rect width="5.55091" height="5.551" transform="matrix(1 0 0 -1 61.0625 138.775)" fill="#A1A1A1"/>
<rect width="5.55091" height="5.551" transform="matrix(1 0 0 -1 61.0625 172.081)" fill="#A1A1A1"/>
<rect width="5.55091" height="5.551" transform="matrix(1 0 0 -1 61.0625 205.387)" fill="#A1A1A1"/>
<rect width="5.55091" height="5.551" transform="matrix(1 0 0 -1 61.0625 238.693)" fill="#A1A1A1"/>
<rect width="5.55091" height="5.551" transform="matrix(1 0 0 -1 94.3672 238.693)" fill="#A1A1A1"/>
<rect width="5.55091" height="5.551" transform="matrix(1 0 0 -1 94.3672 205.387)" fill="#A1A1A1"/>
<rect width="5.55091" height="5.551" transform="matrix(1 0 0 -1 94.3672 172.081)" fill="#A1A1A1"/>
<rect width="5.55091" height="5.551" transform="matrix(1 0 0 -1 94.3672 138.775)" fill="#A1A1A1"/>
<rect width="5.55091" height="5.551" transform="matrix(1 0 0 -1 94.3672 105.469)" fill="#A1A1A1"/>
<rect width="5.55091" height="5.551" transform="matrix(1 0 0 -1 127.672 105.469)" fill="#A1A1A1"/>
<rect width="5.55091" height="5.551" transform="matrix(1 0 0 -1 160.98 105.469)" fill="#A1A1A1"/>
<rect width="5.55091" height="5.551" transform="matrix(1 0 0 -1 194.285 105.469)" fill="#A1A1A1"/>
<rect width="5.55091" height="5.551" transform="matrix(1 0 0 -1 194.285 138.775)" fill="#A1A1A1"/>
<rect width="5.55091" height="5.551" transform="matrix(1 0 0 -1 160.98 138.775)" fill="#A1A1A1"/>
<rect width="5.55091" height="5.551" transform="matrix(1 0 0 -1 127.672 138.775)" fill="#A1A1A1"/>
<rect width="5.55091" height="5.551" transform="matrix(1 0 0 -1 127.672 172.081)" fill="#A1A1A1"/>
<rect width="5.55091" height="5.551" transform="matrix(1 0 0 -1 127.672 205.387)" fill="#A1A1A1"/>
<rect width="5.55091" height="5.551" transform="matrix(1 0 0 -1 127.672 238.693)" fill="#A1A1A1"/>
<rect width="5.55091" height="5.551" transform="matrix(1 0 0 -1 160.98 172.081)" fill="#A1A1A1"/>
<rect width="5.55091" height="5.551" transform="matrix(1 0 0 -1 160.98 205.387)" fill="#A1A1A1"/>
<rect width="5.55091" height="5.551" transform="matrix(1 0 0 -1 160.98 238.693)" fill="#A1A1A1"/>
<rect width="5.55091" height="5.551" transform="matrix(1 0 0 -1 194.285 172.081)" fill="#A1A1A1"/>
<rect width="5.55091" height="5.551" transform="matrix(1 0 0 -1 194.285 205.387)" fill="#A1A1A1"/>
<rect width="5.55091" height="5.551" transform="matrix(1 0 0 -1 194.285 238.693)" fill="#A1A1A1"/>
<rect width="5.55091" height="5.551" transform="matrix(1 0 0 -1 227.59 238.693)" fill="#A1A1A1"/>
<rect width="5.55091" height="5.551" transform="matrix(1 0 0 -1 227.59 205.387)" fill="#A1A1A1"/>
<rect width="5.55091" height="5.551" transform="matrix(1 0 0 -1 227.59 172.081)" fill="#A1A1A1"/>
<rect width="5.55091" height="5.551" transform="matrix(1 0 0 -1 227.59 138.775)" fill="#A1A1A1"/>
<rect width="5.55091" height="5.551" transform="matrix(1 0 0 -1 227.59 105.469)" fill="#A1A1A1"/>
<rect width="5.55091" height="5.551" transform="matrix(1 0 0 -1 260.895 105.469)" fill="#A1A1A1"/>
<rect width="5.55091" height="5.551" transform="matrix(1 0 0 -1 260.895 138.775)" fill="#A1A1A1"/>
<rect width="5.55091" height="5.551" transform="matrix(1 0 0 -1 260.895 172.081)" fill="#A1A1A1"/>
<rect width="5.55091" height="5.551" transform="matrix(1 0 0 -1 260.895 205.387)" fill="#A1A1A1"/>
<rect width="5.55091" height="5.551" transform="matrix(1 0 0 -1 260.895 238.693)" fill="#A1A1A1"/>
<rect width="5.55091" height="5.551" transform="matrix(1 0 0 -1 149.875 271.999)" fill="#A1A1A1"/>
<rect width="5.55091" height="5.551" transform="matrix(1 0 0 -1 149.875 38.8569)" fill="#A1A1A1"/>
<rect width="5.55091" height="5.551" transform="matrix(1 0 0 -1 149.875 5.55078)" fill="#A1A1A1"/>
<rect width="5.55091" height="5.551" transform="matrix(1 0 0 -1 149.875 72.1631)" fill="#A1A1A1"/>
<rect width="5.55091" height="5.551" transform="matrix(1 0 0 -1 238.691 271.999)" fill="#A1A1A1"/>
<rect width="5.55091" height="5.551" transform="matrix(1 0 0 -1 238.691 38.8569)" fill="#A1A1A1"/>
<rect width="5.55091" height="5.551" transform="matrix(1 0 0 -1 238.691 5.55078)" fill="#A1A1A1"/>
<rect width="5.55091" height="5.551" transform="matrix(1 0 0 -1 238.691 72.1631)" fill="#A1A1A1"/>
<rect width="5.55091" height="5.551" transform="matrix(1 0 0 -1 266.445 271.999)" fill="#A1A1A1"/>
<rect width="5.55091" height="5.551" transform="matrix(1 0 0 -1 105.469 271.999)" fill="#A1A1A1"/>
<rect width="5.55091" height="5.551" transform="matrix(1 0 0 -1 105.469 38.8569)" fill="#A1A1A1"/>
<rect width="5.55091" height="5.551" transform="matrix(1 0 0 -1 105.469 5.55078)" fill="#A1A1A1"/>
<rect width="5.55091" height="5.551" transform="matrix(1 0 0 -1 105.469 72.1631)" fill="#A1A1A1"/>
<rect width="5.55091" height="5.551" transform="matrix(1 0 0 -1 194.285 271.999)" fill="#A1A1A1"/>
<rect width="5.55091" height="5.551" transform="matrix(1 0 0 -1 194.285 38.8569)" fill="#A1A1A1"/>
<rect width="5.55091" height="5.551" transform="matrix(1 0 0 -1 194.285 5.55078)" fill="#A1A1A1"/>
<rect width="5.55091" height="5.551" transform="matrix(1 0 0 -1 194.285 72.1631)" fill="#A1A1A1"/>
<rect width="5.551" height="5.55091" transform="matrix(-0.000189678 1 1 0.000189684 0.00390625 33.3062)" fill="#A1A1A1"/>
<rect width="5.551" height="5.55091" transform="matrix(-0.000189678 1 1 0.000189684 0.00390625 0)" fill="#A1A1A1"/>
<rect width="5.551" height="5.55091" transform="matrix(-0.000189678 1 1 0.000189684 33.3086 33.3062)" fill="#A1A1A1"/>
<rect width="5.551" height="5.55091" transform="matrix(-0.000189678 1 1 0.000189684 33.3086 0)" fill="#A1A1A1"/>
<rect width="5.551" height="5.55091" transform="matrix(-0.000189678 1 1 0.000189684 66.6133 33.3062)" fill="#A1A1A1"/>
<rect width="5.551" height="5.55091" transform="matrix(-0.000189678 1 1 0.000189684 66.6133 0)" fill="#A1A1A1"/>
<rect width="5.551" height="5.55091" transform="matrix(-0.000189678 1 1 0.000189684 99.918 33.3062)" fill="#A1A1A1"/>
<rect width="5.551" height="5.55091" transform="matrix(-0.000189678 1 1 0.000189684 99.918 0)" fill="#A1A1A1"/>
<rect width="5.551" height="5.55091" transform="matrix(-0.000189678 1 1 0.000189684 133.223 33.3062)" fill="#A1A1A1"/>
<rect width="5.551" height="5.55091" transform="matrix(-0.000189678 1 1 0.000189684 133.223 0)" fill="#A1A1A1"/>
<rect width="5.551" height="5.55091" transform="matrix(-0.000189678 1 1 0.000189684 166.531 33.3062)" fill="#A1A1A1"/>
<rect width="5.551" height="5.55091" transform="matrix(-0.000189678 1 1 0.000189684 166.531 0)" fill="#A1A1A1"/>
<rect width="5.551" height="5.55091" transform="matrix(-0.000189678 1 1 0.000189684 199.836 33.3062)" fill="#A1A1A1"/>
<rect width="5.551" height="5.55091" transform="matrix(-0.000189678 1 1 0.000189684 199.836 0)" fill="#A1A1A1"/>
<rect width="5.551" height="5.55091" transform="matrix(-0.000189678 1 1 0.000189684 233.141 33.3062)" fill="#A1A1A1"/>
<rect width="5.551" height="5.55091" transform="matrix(-0.000189678 1 1 0.000189684 233.141 0)" fill="#A1A1A1"/>
<rect width="5.551" height="5.55091" transform="matrix(-0.000189678 1 1 0.000189684 266.445 33.3062)" fill="#A1A1A1"/>
<rect width="5.551" height="5.55091" transform="matrix(-0.000189678 1 1 0.000189684 266.445 0)" fill="#A1A1A1"/>
<rect width="5.55091" height="5.551" transform="matrix(1 0 0 -1 33.3086 38.8569)" fill="#A1A1A1"/>
<rect width="5.55091" height="5.551" transform="matrix(1 0 0 -1 33.3086 5.55078)" fill="#A1A1A1"/>
<rect width="5.55091" height="5.551" transform="matrix(1 0 0 -1 122.121 271.999)" fill="#A1A1A1"/>
<rect width="5.55091" height="5.551" transform="matrix(1 0 0 -1 122.121 38.8569)" fill="#A1A1A1"/>
<rect width="5.55091" height="5.551" transform="matrix(1 0 0 -1 122.121 5.55078)" fill="#A1A1A1"/>
<rect width="5.55091" height="5.551" transform="matrix(1 0 0 -1 122.121 72.1631)" fill="#A1A1A1"/>
<rect width="5.55091" height="5.551" transform="matrix(1 0 0 -1 210.938 271.999)" fill="#A1A1A1"/>
<rect width="5.55091" height="5.551" transform="matrix(1 0 0 -1 210.938 38.8569)" fill="#A1A1A1"/>
<rect width="5.55091" height="5.551" transform="matrix(1 0 0 -1 210.938 5.55078)" fill="#A1A1A1"/>
<rect width="5.55091" height="5.551" transform="matrix(1 0 0 -1 210.938 72.1631)" fill="#A1A1A1"/>
<rect width="5.55091" height="5.551" transform="matrix(1 0 0 -1 77.7148 271.999)" fill="#A1A1A1"/>
<rect width="5.55091" height="5.551" transform="matrix(1 0 0 -1 77.7148 38.8569)" fill="#A1A1A1"/>
<rect width="5.55091" height="5.551" transform="matrix(1 0 0 -1 77.7148 5.55078)" fill="#A1A1A1"/>
<rect width="5.55091" height="5.551" transform="matrix(1 0 0 -1 77.7148 72.1631)" fill="#A1A1A1"/>
<rect width="5.55091" height="5.551" transform="matrix(1 0 0 -1 166.531 271.999)" fill="#A1A1A1"/>
<rect width="5.55091" height="5.551" transform="matrix(1 0 0 -1 255.344 271.999)" fill="#A1A1A1"/>
<rect width="5.55091" height="5.551" transform="matrix(1 0 0 -1 255.344 38.8569)" fill="#A1A1A1"/>
<rect width="5.55091" height="5.551" transform="matrix(1 0 0 -1 255.344 5.55078)" fill="#A1A1A1"/>
<rect width="5.55091" height="5.551" transform="matrix(1 0 0 -1 255.344 72.1631)" fill="#A1A1A1"/>
<rect width="5.55091" height="5.551" transform="matrix(1 0 0 -1 55.5117 271.999)" fill="#A1A1A1"/>
<rect width="5.55091" height="5.551" transform="matrix(1 0 0 -1 55.5117 38.8569)" fill="#A1A1A1"/>
<rect width="5.55091" height="5.551" transform="matrix(1 0 0 -1 55.5117 5.55078)" fill="#A1A1A1"/>
<rect width="5.55091" height="5.551" transform="matrix(1 0 0 -1 55.5117 72.1631)" fill="#A1A1A1"/>
<rect width="5.55091" height="5.551" transform="matrix(1 0 0 -1 55.5117 105.469)" fill="#A1A1A1"/>
<rect width="5.55091" height="5.551" transform="matrix(1 0 0 -1 55.5117 138.775)" fill="#A1A1A1"/>
<rect width="5.55091" height="5.551" transform="matrix(1 0 0 -1 55.5117 172.081)" fill="#A1A1A1"/>
<rect width="5.55091" height="5.551" transform="matrix(1 0 0 -1 55.5117 205.387)" fill="#A1A1A1"/>
<rect width="5.55091" height="5.551" transform="matrix(1 0 0 -1 55.5117 238.693)" fill="#A1A1A1"/>
<rect width="5.55091" height="5.551" transform="matrix(1 0 0 -1 88.8164 238.693)" fill="#A1A1A1"/>
<rect width="5.55091" height="5.551" transform="matrix(1 0 0 -1 88.8164 205.387)" fill="#A1A1A1"/>
<rect width="5.55091" height="5.551" transform="matrix(1 0 0 -1 88.8164 172.081)" fill="#A1A1A1"/>
<rect width="5.55091" height="5.551" transform="matrix(1 0 0 -1 88.8164 138.775)" fill="#A1A1A1"/>
<rect width="5.55091" height="5.551" transform="matrix(1 0 0 -1 88.8164 105.469)" fill="#A1A1A1"/>
<rect width="5.55091" height="5.551" transform="matrix(1 0 0 -1 122.121 105.469)" fill="#A1A1A1"/>
<rect width="5.55091" height="5.551" transform="matrix(1 0 0 -1 155.426 105.469)" fill="#A1A1A1"/>
<rect width="5.55091" height="5.551" transform="matrix(1 0 0 -1 188.734 105.469)" fill="#A1A1A1"/>
<rect width="5.55091" height="5.551" transform="matrix(1 0 0 -1 188.734 138.775)" fill="#A1A1A1"/>
<rect width="5.55091" height="5.551" transform="matrix(1 0 0 -1 155.426 138.775)" fill="#A1A1A1"/>
<rect width="5.55091" height="5.551" transform="matrix(1 0 0 -1 122.121 138.775)" fill="#A1A1A1"/>
<rect width="5.55091" height="5.551" transform="matrix(1 0 0 -1 122.121 172.081)" fill="#A1A1A1"/>
<rect width="5.55091" height="5.551" transform="matrix(1 0 0 -1 122.121 205.387)" fill="#A1A1A1"/>
<rect width="5.55091" height="5.551" transform="matrix(1 0 0 -1 122.121 238.693)" fill="#A1A1A1"/>
<rect width="5.55091" height="5.551" transform="matrix(1 0 0 -1 155.426 172.081)" fill="#A1A1A1"/>
<rect width="5.55091" height="5.551" transform="matrix(1 0 0 -1 155.426 205.387)" fill="#A1A1A1"/>
<rect width="5.55091" height="5.551" transform="matrix(1 0 0 -1 155.426 238.693)" fill="#A1A1A1"/>
<rect width="5.55091" height="5.551" transform="matrix(1 0 0 -1 188.734 172.081)" fill="#A1A1A1"/>
<rect width="5.55091" height="5.551" transform="matrix(1 0 0 -1 188.734 205.387)" fill="#A1A1A1"/>
<rect width="5.55091" height="5.551" transform="matrix(1 0 0 -1 188.734 238.693)" fill="#A1A1A1"/>
<rect width="5.55091" height="5.551" transform="matrix(1 0 0 -1 222.039 238.693)" fill="#A1A1A1"/>
<rect width="5.55091" height="5.551" transform="matrix(1 0 0 -1 222.039 205.387)" fill="#A1A1A1"/>
<rect width="5.55091" height="5.551" transform="matrix(1 0 0 -1 222.039 172.081)" fill="#A1A1A1"/>
<rect width="5.55091" height="5.551" transform="matrix(1 0 0 -1 222.039 138.775)" fill="#A1A1A1"/>
<rect width="5.55091" height="5.551" transform="matrix(1 0 0 -1 222.039 105.469)" fill="#A1A1A1"/>
<rect width="5.55091" height="5.551" transform="matrix(1 0 0 -1 255.344 105.469)" fill="#A1A1A1"/>
<rect width="5.55091" height="5.551" transform="matrix(1 0 0 -1 255.344 138.775)" fill="#A1A1A1"/>
<rect width="5.55091" height="5.551" transform="matrix(1 0 0 -1 255.344 172.081)" fill="#A1A1A1"/>
<rect width="5.55091" height="5.551" transform="matrix(1 0 0 -1 255.344 205.387)" fill="#A1A1A1"/>
<rect width="5.55091" height="5.551" transform="matrix(1 0 0 -1 255.344 238.693)" fill="#A1A1A1"/>
<rect width="5.55091" height="5.551" transform="matrix(1 0 0 -1 144.324 271.999)" fill="#A1A1A1"/>
<rect width="5.55091" height="5.551" transform="matrix(1 0 0 -1 144.324 38.8569)" fill="#A1A1A1"/>
<rect width="5.55091" height="5.551" transform="matrix(1 0 0 -1 144.324 5.55078)" fill="#A1A1A1"/>
<rect width="5.55091" height="5.551" transform="matrix(1 0 0 -1 144.324 72.1631)" fill="#A1A1A1"/>
<rect width="5.55091" height="5.551" transform="matrix(1 0 0 -1 233.141 271.999)" fill="#A1A1A1"/>
<rect width="5.55091" height="5.551" transform="matrix(1 0 0 -1 260.895 271.999)" fill="#A1A1A1"/>
<rect width="5.55091" height="5.551" transform="matrix(1 0 0 -1 260.895 38.8569)" fill="#A1A1A1"/>
<rect width="5.55091" height="5.551" transform="matrix(1 0 0 -1 260.895 5.55078)" fill="#A1A1A1"/>
<rect width="5.55091" height="5.551" transform="matrix(1 0 0 -1 260.895 72.1631)" fill="#A1A1A1"/>
<rect width="5.55091" height="5.551" transform="matrix(1 0 0 -1 99.918 271.999)" fill="#A1A1A1"/>
<rect width="5.55091" height="5.551" transform="matrix(1 0 0 -1 188.734 271.999)" fill="#A1A1A1"/>
<rect width="5.55091" height="5.551" transform="matrix(1 0 0 -1 188.734 38.8569)" fill="#A1A1A1"/>
<rect width="5.55091" height="5.551" transform="matrix(1 0 0 -1 188.734 5.55078)" fill="#A1A1A1"/>
<rect width="5.55091" height="5.551" transform="matrix(1 0 0 -1 188.734 72.1631)" fill="#A1A1A1"/>
<rect width="5.55091" height="5.551" transform="matrix(1 0 0 -1 44.4102 271.999)" fill="#A1A1A1"/>
<rect width="5.55091" height="5.551" transform="matrix(1 0 0 -1 44.4102 38.8569)" fill="#A1A1A1"/>
<rect width="5.55091" height="5.551" transform="matrix(1 0 0 -1 44.4102 5.55078)" fill="#A1A1A1"/>
<rect width="5.55091" height="5.551" transform="matrix(1 0 0 -1 44.4102 72.1631)" fill="#A1A1A1"/>
<rect width="5.55091" height="5.551" transform="matrix(1 0 0 -1 44.4102 105.469)" fill="#A1A1A1"/>
<rect width="5.55091" height="5.551" transform="matrix(1 0 0 -1 44.4102 138.775)" fill="#A1A1A1"/>
<rect width="5.55091" height="5.551" transform="matrix(1 0 0 -1 44.4102 172.081)" fill="#A1A1A1"/>
<rect width="5.55091" height="5.551" transform="matrix(1 0 0 -1 44.4102 205.387)" fill="#A1A1A1"/>
<rect width="5.55091" height="5.551" transform="matrix(1 0 0 -1 44.4102 238.693)" fill="#A1A1A1"/>
<rect width="5.55091" height="5.551" transform="matrix(1 0 0 -1 77.7148 238.693)" fill="#A1A1A1"/>
<rect width="5.55091" height="5.551" transform="matrix(1 0 0 -1 77.7148 205.387)" fill="#A1A1A1"/>
<rect width="5.55091" height="5.551" transform="matrix(1 0 0 -1 77.7148 172.081)" fill="#A1A1A1"/>
<rect width="5.55091" height="5.551" transform="matrix(1 0 0 -1 77.7148 138.775)" fill="#A1A1A1"/>
<rect width="5.55091" height="5.551" transform="matrix(1 0 0 -1 77.7148 105.469)" fill="#A1A1A1"/>
<rect width="5.55091" height="5.551" transform="matrix(1 0 0 -1 111.02 105.469)" fill="#A1A1A1"/>
<rect width="5.55091" height="5.551" transform="matrix(1 0 0 -1 144.324 105.469)" fill="#A1A1A1"/>
<rect width="5.55091" height="5.551" transform="matrix(1 0 0 -1 177.629 105.469)" fill="#A1A1A1"/>
<rect width="5.55091" height="5.551" transform="matrix(1 0 0 -1 177.629 138.775)" fill="#A1A1A1"/>
<rect width="5.55091" height="5.551" transform="matrix(1 0 0 -1 144.324 138.775)" fill="#A1A1A1"/>
<rect width="5.55091" height="5.551" transform="matrix(1 0 0 -1 111.02 138.775)" fill="#A1A1A1"/>
<rect width="5.55091" height="5.551" transform="matrix(1 0 0 -1 111.02 172.081)" fill="#A1A1A1"/>
<rect width="5.55091" height="5.551" transform="matrix(1 0 0 -1 111.02 205.387)" fill="#A1A1A1"/>
<rect width="5.55091" height="5.551" transform="matrix(1 0 0 -1 111.02 238.693)" fill="#A1A1A1"/>
<rect width="5.55091" height="5.551" transform="matrix(1 0 0 -1 144.324 172.081)" fill="#A1A1A1"/>
<rect width="5.55091" height="5.551" transform="matrix(1 0 0 -1 144.324 205.387)" fill="#A1A1A1"/>
<rect width="5.55091" height="5.551" transform="matrix(1 0 0 -1 144.324 238.693)" fill="#A1A1A1"/>
<rect width="5.55091" height="5.551" transform="matrix(1 0 0 -1 177.629 172.081)" fill="#A1A1A1"/>
<rect width="5.55091" height="5.551" transform="matrix(1 0 0 -1 177.629 205.387)" fill="#A1A1A1"/>
<rect width="5.55091" height="5.551" transform="matrix(1 0 0 -1 177.629 238.693)" fill="#A1A1A1"/>
<rect width="5.55091" height="5.551" transform="matrix(1 0 0 -1 210.938 238.693)" fill="#A1A1A1"/>
<rect width="5.55091" height="5.551" transform="matrix(1 0 0 -1 210.938 205.387)" fill="#A1A1A1"/>
<rect width="5.55091" height="5.551" transform="matrix(1 0 0 -1 210.938 172.081)" fill="#A1A1A1"/>
<rect width="5.55091" height="5.551" transform="matrix(1 0 0 -1 210.938 138.775)" fill="#A1A1A1"/>
<rect width="5.55091" height="5.551" transform="matrix(1 0 0 -1 210.938 105.469)" fill="#A1A1A1"/>
<rect width="5.55091" height="5.551" transform="matrix(1 0 0 -1 244.242 105.469)" fill="#A1A1A1"/>
<rect width="5.55091" height="5.551" transform="matrix(1 0 0 -1 244.242 138.775)" fill="#A1A1A1"/>
<rect width="5.55091" height="5.551" transform="matrix(1 0 0 -1 244.242 172.081)" fill="#A1A1A1"/>
<rect width="5.55091" height="5.551" transform="matrix(1 0 0 -1 244.242 205.387)" fill="#A1A1A1"/>
<rect width="5.55091" height="5.551" transform="matrix(1 0 0 -1 244.242 238.693)" fill="#A1A1A1"/>
<rect width="5.55091" height="5.551" transform="matrix(1 0 0 -1 133.223 271.999)" fill="#A1A1A1"/>
<rect width="5.55091" height="5.551" transform="matrix(1 0 0 -1 138.773 271.999)" fill="#A1A1A1"/>
<rect width="5.55091" height="5.551" transform="matrix(1 0 0 -1 138.773 38.8569)" fill="#A1A1A1"/>
<rect width="5.55091" height="5.551" transform="matrix(1 0 0 -1 138.773 5.55078)" fill="#A1A1A1"/>
<rect width="5.55091" height="5.551" transform="matrix(1 0 0 -1 138.773 72.1631)" fill="#A1A1A1"/>
<rect width="5.55091" height="5.551" transform="matrix(1 0 0 -1 222.039 271.999)" fill="#A1A1A1"/>
<rect width="5.55091" height="5.551" transform="matrix(1 0 0 -1 222.039 38.8569)" fill="#A1A1A1"/>
<rect width="5.55091" height="5.551" transform="matrix(1 0 0 -1 222.039 5.55078)" fill="#A1A1A1"/>
<rect width="5.55091" height="5.551" transform="matrix(1 0 0 -1 222.039 72.1631)" fill="#A1A1A1"/>
<rect width="5.55091" height="5.551" transform="matrix(1 0 0 -1 88.8164 271.999)" fill="#A1A1A1"/>
<rect width="5.55091" height="5.551" transform="matrix(1 0 0 -1 88.8164 38.8569)" fill="#A1A1A1"/>
<rect width="5.55091" height="5.551" transform="matrix(1 0 0 -1 88.8164 5.55078)" fill="#A1A1A1"/>
<rect width="5.55091" height="5.551" transform="matrix(1 0 0 -1 88.8164 72.1631)" fill="#A1A1A1"/>
<rect width="5.55091" height="5.551" transform="matrix(1 0 0 -1 177.629 271.999)" fill="#A1A1A1"/>
<rect width="5.55091" height="5.551" transform="matrix(1 0 0 -1 177.629 38.8569)" fill="#A1A1A1"/>
<rect width="5.55091" height="5.551" transform="matrix(1 0 0 -1 177.629 5.55078)" fill="#A1A1A1"/>
<rect width="5.55091" height="5.551" transform="matrix(1 0 0 -1 177.629 72.1631)" fill="#A1A1A1"/>
<rect width="5.55091" height="5.551" transform="matrix(1 0 0 -1 66.6133 271.999)" fill="#A1A1A1"/>
<rect width="5.55091" height="5.551" transform="matrix(1 0 0 -1 155.426 271.999)" fill="#A1A1A1"/>
<rect width="5.55091" height="5.551" transform="matrix(1 0 0 -1 155.426 38.8569)" fill="#A1A1A1"/>
<rect width="5.55091" height="5.551" transform="matrix(1 0 0 -1 155.426 5.55078)" fill="#A1A1A1"/>
<rect width="5.55091" height="5.551" transform="matrix(1 0 0 -1 155.426 72.1631)" fill="#A1A1A1"/>
<rect width="5.55091" height="5.551" transform="matrix(1 0 0 -1 244.242 271.999)" fill="#A1A1A1"/>
<rect width="5.55091" height="5.551" transform="matrix(1 0 0 -1 244.242 38.8569)" fill="#A1A1A1"/>
<rect width="5.55091" height="5.551" transform="matrix(1 0 0 -1 244.242 5.55078)" fill="#A1A1A1"/>
<rect width="5.55091" height="5.551" transform="matrix(1 0 0 -1 244.242 72.1631)" fill="#A1A1A1"/>
<rect width="5.55091" height="5.551" transform="matrix(1 0 0 -1 111.02 271.999)" fill="#A1A1A1"/>
<rect width="5.55091" height="5.551" transform="matrix(1 0 0 -1 111.02 38.8569)" fill="#A1A1A1"/>
<rect width="5.55091" height="5.551" transform="matrix(1 0 0 -1 111.02 5.55078)" fill="#A1A1A1"/>
<rect width="5.55091" height="5.551" transform="matrix(1 0 0 -1 111.02 72.1631)" fill="#A1A1A1"/>
<rect width="5.55091" height="5.551" transform="matrix(1 0 0 -1 199.836 271.999)" fill="#A1A1A1"/>
<rect width="5.551" height="5.55091" transform="matrix(-4.37107e-08 -1 -1 4.37121e-08 27.7578 38.8569)" fill="black"/>
<rect width="5.551" height="5.55091" transform="matrix(-4.37107e-08 -1 -1 4.37121e-08 27.7578 5.55078)" fill="black"/>
<rect width="5.551" height="5.55091" transform="matrix(-4.37107e-08 -1 -1 4.37121e-08 27.7578 72.1631)" fill="black"/>
<rect width="5.551" height="5.55091" transform="matrix(-4.37107e-08 -1 -1 4.37121e-08 27.7578 105.469)" fill="black"/>
<rect width="5.551" height="5.55091" transform="matrix(-4.37107e-08 -1 -1 4.37121e-08 27.7578 138.775)" fill="black"/>
<rect width="5.551" height="5.55091" transform="matrix(-4.37107e-08 -1 -1 4.37121e-08 27.7578 172.081)" fill="black"/>
<rect width="5.551" height="5.55091" transform="matrix(-4.37107e-08 -1 -1 4.37121e-08 27.7578 205.387)" fill="black"/>
<rect width="5.551" height="5.55091" transform="matrix(-4.37107e-08 -1 -1 4.37121e-08 27.7578 238.693)" fill="black"/>
<rect width="5.551" height="5.55091" transform="matrix(-4.37107e-08 -1 -1 4.37121e-08 27.7578 271.999)" fill="black"/>
<rect width="5.551" height="5.55091" transform="matrix(-4.37107e-08 -1 -1 4.37121e-08 27.7578 38.8569)" fill="#A1A1A1"/>
<rect width="5.551" height="5.55091" transform="matrix(-4.37107e-08 -1 -1 4.37121e-08 27.7578 5.55078)" fill="#A1A1A1"/>
<rect width="5.551" height="5.55091" transform="matrix(-4.37107e-08 -1 -1 4.37121e-08 27.7578 72.1631)" fill="#A1A1A1"/>
<rect width="5.551" height="5.55091" transform="matrix(-4.37107e-08 -1 -1 4.37121e-08 27.7578 105.469)" fill="#A1A1A1"/>
<rect width="5.551" height="5.55091" transform="matrix(-4.37107e-08 -1 -1 4.37121e-08 27.7578 138.775)" fill="#A1A1A1"/>
<rect width="5.551" height="5.55091" transform="matrix(-4.37107e-08 -1 -1 4.37121e-08 27.7578 172.081)" fill="#A1A1A1"/>
<rect width="5.551" height="5.55091" transform="matrix(-4.37107e-08 -1 -1 4.37121e-08 27.7578 205.387)" fill="#A1A1A1"/>
<rect width="5.551" height="5.55091" transform="matrix(-4.37107e-08 -1 -1 4.37121e-08 27.7578 238.693)" fill="#A1A1A1"/>
<rect width="5.551" height="5.55091" transform="matrix(-4.37107e-08 -1 -1 4.37121e-08 27.7578 271.999)" fill="#A1A1A1"/>
<rect width="5.551" height="5.55091" transform="matrix(-4.37107e-08 -1 -1 4.37121e-08 210.938 271.999)" fill="#A1A1A1"/>
<rect width="5.551" height="5.55091" transform="matrix(-4.37107e-08 -1 -1 4.37121e-08 210.938 38.8569)" fill="#A1A1A1"/>
<rect width="5.551" height="5.55091" transform="matrix(-4.37107e-08 -1 -1 4.37121e-08 210.938 5.55078)" fill="#A1A1A1"/>
<rect width="5.551" height="5.55091" transform="matrix(-4.37107e-08 -1 -1 4.37121e-08 210.938 72.1631)" fill="#A1A1A1"/>
<rect x="72.1641" y="271.999" width="5.551" height="5.55091" transform="rotate(-90 72.1641 271.999)" fill="#A1A1A1"/>
<rect x="72.1641" y="38.8569" width="5.551" height="5.55091" transform="rotate(-90 72.1641 38.8569)" fill="#A1A1A1"/>
<rect x="72.1641" y="5.55078" width="5.551" height="5.55091" transform="rotate(-90 72.1641 5.55078)" fill="#A1A1A1"/>
<rect x="72.1641" y="72.1631" width="5.551" height="5.55091" transform="rotate(-90 72.1641 72.1631)" fill="#A1A1A1"/>
<rect width="5.551" height="5.55091" transform="matrix(-4.37107e-08 -1 -1 4.37121e-08 33.3086 38.8569)" fill="#A1A1A1"/>
<rect width="5.551" height="5.55091" transform="matrix(-4.37107e-08 -1 -1 4.37121e-08 33.3086 5.55078)" fill="#A1A1A1"/>
<rect width="5.551" height="5.55091" transform="matrix(-4.37107e-08 -1 -1 4.37121e-08 33.3086 72.1631)" fill="#A1A1A1"/>
<rect width="5.551" height="5.55091" transform="matrix(-4.37107e-08 -1 -1 4.37121e-08 33.3086 105.469)" fill="#A1A1A1"/>
<rect width="5.551" height="5.55091" transform="matrix(-4.37107e-08 -1 -1 4.37121e-08 33.3086 138.775)" fill="#A1A1A1"/>
<rect width="5.551" height="5.55091" transform="matrix(-4.37107e-08 -1 -1 4.37121e-08 33.3086 172.081)" fill="#A1A1A1"/>
<rect width="5.551" height="5.55091" transform="matrix(-4.37107e-08 -1 -1 4.37121e-08 33.3086 205.387)" fill="#A1A1A1"/>
<rect width="5.551" height="5.55091" transform="matrix(-4.37107e-08 -1 -1 4.37121e-08 33.3086 238.693)" fill="#A1A1A1"/>
<rect width="5.551" height="5.55091" transform="matrix(-4.37107e-08 -1 -1 4.37121e-08 33.3086 271.999)" fill="#A1A1A1"/>
<rect width="5.55091" height="5.551" transform="matrix(0.999999 -0.00125212 -0.00125208 -0.999999 0.0078125 55.5098)" fill="#A1A1A1"/>
<rect width="5.55091" height="5.551" transform="matrix(0.999999 -0.00125212 -0.00125208 -0.999999 0.0078125 22.2041)" fill="#A1A1A1"/>
<rect width="5.55091" height="5.551" transform="matrix(0.999999 -0.00125212 -0.00125208 -0.999999 33.3125 55.5098)" fill="#A1A1A1"/>
<rect width="5.55091" height="5.551" transform="matrix(0.999999 -0.00125212 -0.00125208 -0.999999 33.3125 22.2041)" fill="#A1A1A1"/>
<rect width="5.55091" height="5.551" transform="matrix(0.999999 -0.00125212 -0.00125208 -0.999999 66.6172 55.5098)" fill="#A1A1A1"/>
<rect width="5.55091" height="5.551" transform="matrix(0.999999 -0.00125212 -0.00125208 -0.999999 66.6172 22.2041)" fill="#A1A1A1"/>
<rect width="5.55091" height="5.551" transform="matrix(0.999999 -0.00125212 -0.00125208 -0.999999 99.9258 55.5098)" fill="#A1A1A1"/>
<rect width="5.55091" height="5.551" transform="matrix(0.999999 -0.00125212 -0.00125208 -0.999999 99.9258 22.2041)" fill="#A1A1A1"/>
<rect width="5.55091" height="5.551" transform="matrix(0.999999 -0.00125212 -0.00125208 -0.999999 133.23 55.5098)" fill="#A1A1A1"/>
<rect width="5.55091" height="5.551" transform="matrix(0.999999 -0.00125212 -0.00125208 -0.999999 133.23 22.2041)" fill="#A1A1A1"/>
<rect width="5.55091" height="5.551" transform="matrix(0.999999 -0.00125212 -0.00125208 -0.999999 166.535 55.5098)" fill="#A1A1A1"/>
<rect width="5.55091" height="5.551" transform="matrix(0.999999 -0.00125212 -0.00125208 -0.999999 166.535 22.2041)" fill="#A1A1A1"/>
<rect width="5.55091" height="5.551" transform="matrix(0.999999 -0.00125212 -0.00125208 -0.999999 199.84 55.5098)" fill="#A1A1A1"/>
<rect width="5.55091" height="5.551" transform="matrix(0.999999 -0.00125212 -0.00125208 -0.999999 199.84 22.2041)" fill="#A1A1A1"/>
<rect width="5.55091" height="5.551" transform="matrix(0.999999 -0.00125212 -0.00125208 -0.999999 233.145 55.5098)" fill="#A1A1A1"/>
<rect width="5.55091" height="5.551" transform="matrix(0.999999 -0.00125212 -0.00125208 -0.999999 233.145 22.2041)" fill="#A1A1A1"/>
<rect width="5.55091" height="5.551" transform="matrix(0.999999 -0.00125212 -0.00125208 -0.999999 266.453 55.5098)" fill="#A1A1A1"/>
<rect width="5.55091" height="5.551" transform="matrix(0.999999 -0.00125212 -0.00125208 -0.999999 266.453 22.2041)" fill="#A1A1A1"/>
<rect width="5.55091" height="5.551" transform="matrix(0.999999 -0.00125212 -0.00125208 -0.999999 0.0078125 77.7139)" fill="#A1A1A1"/>
<rect width="5.55091" height="5.551" transform="matrix(0.999999 -0.00125212 -0.00125208 -0.999999 33.3125 77.7139)" fill="#A1A1A1"/>
<rect width="5.55091" height="5.551" transform="matrix(0.999999 -0.00125212 -0.00125208 -0.999999 66.6172 77.7139)" fill="#A1A1A1"/>
<rect width="5.55091" height="5.551" transform="matrix(0.999999 -0.00125212 -0.00125208 -0.999999 99.9258 77.7139)" fill="#A1A1A1"/>
<rect width="5.55091" height="5.551" transform="matrix(0.999999 -0.00125212 -0.00125208 -0.999999 133.23 77.7139)" fill="#A1A1A1"/>
<rect width="5.55091" height="5.551" transform="matrix(0.999999 -0.00125212 -0.00125208 -0.999999 166.535 77.7139)" fill="#A1A1A1"/>
<rect width="5.55091" height="5.551" transform="matrix(0.999999 -0.00125212 -0.00125208 -0.999999 199.84 77.7139)" fill="#A1A1A1"/>
<rect width="5.55091" height="5.551" transform="matrix(0.999999 -0.00125212 -0.00125208 -0.999999 233.145 77.7139)" fill="#A1A1A1"/>
<rect width="5.55091" height="5.551" transform="matrix(0.999999 -0.00125212 -0.00125208 -0.999999 266.453 77.7139)" fill="#A1A1A1"/>
<rect width="5.55091" height="5.551" transform="matrix(0.999999 -0.00125212 -0.00125208 -0.999999 0.0078125 99.918)" fill="#A1A1A1"/>
<rect width="5.55091" height="5.551" transform="matrix(0.999999 -0.00125212 -0.00125208 -0.999999 33.3125 99.918)" fill="#A1A1A1"/>
<rect width="5.55091" height="5.551" transform="matrix(0.999999 -0.00125212 -0.00125208 -0.999999 66.6172 99.918)" fill="#A1A1A1"/>
<rect width="5.55091" height="5.551" transform="matrix(0.999999 -0.00125212 -0.00125208 -0.999999 99.9258 99.918)" fill="#A1A1A1"/>
<rect width="5.55091" height="5.551" transform="matrix(0.999999 -0.00125212 -0.00125208 -0.999999 133.23 99.918)" fill="#A1A1A1"/>
<rect width="5.55091" height="5.551" transform="matrix(0.999999 -0.00125212 -0.00125208 -0.999999 166.535 99.918)" fill="#A1A1A1"/>
<rect width="5.55091" height="5.551" transform="matrix(0.999999 -0.00125212 -0.00125208 -0.999999 199.84 99.918)" fill="#A1A1A1"/>
<rect width="5.55091" height="5.551" transform="matrix(0.999999 -0.00125212 -0.00125208 -0.999999 233.145 99.918)" fill="#A1A1A1"/>
<rect width="5.55091" height="5.551" transform="matrix(0.999999 -0.00125212 -0.00125208 -0.999999 266.453 99.918)" fill="#A1A1A1"/>
<rect width="5.55091" height="5.551" transform="matrix(0.999999 -0.00125212 -0.00125208 -0.999999 0.0078125 122.122)" fill="#A1A1A1"/>
<rect width="5.55091" height="5.551" transform="matrix(0.999999 -0.00125212 -0.00125208 -0.999999 33.3125 122.122)" fill="#A1A1A1"/>
<rect width="5.55091" height="5.551" transform="matrix(0.999999 -0.00125212 -0.00125208 -0.999999 66.6172 122.122)" fill="#A1A1A1"/>
<rect width="5.55091" height="5.551" transform="matrix(0.999999 -0.00125212 -0.00125208 -0.999999 99.9258 122.122)" fill="#A1A1A1"/>
<rect width="5.55091" height="5.551" transform="matrix(0.999999 -0.00125212 -0.00125208 -0.999999 133.23 122.122)" fill="#A1A1A1"/>
<rect width="5.55091" height="5.551" transform="matrix(0.999999 -0.00125212 -0.00125208 -0.999999 166.535 122.122)" fill="#A1A1A1"/>
<rect width="5.55091" height="5.551" transform="matrix(0.999999 -0.00125212 -0.00125208 -0.999999 199.84 122.122)" fill="#A1A1A1"/>
<rect width="5.55091" height="5.551" transform="matrix(0.999999 -0.00125212 -0.00125208 -0.999999 233.145 122.122)" fill="#A1A1A1"/>
<rect width="5.55091" height="5.551" transform="matrix(0.999999 -0.00125212 -0.00125208 -0.999999 266.453 122.122)" fill="#A1A1A1"/>
<rect width="5.55091" height="5.551" transform="matrix(0.999999 -0.00125212 -0.00125208 -0.999999 0.0078125 144.326)" fill="#A1A1A1"/>
<rect width="5.55091" height="5.551" transform="matrix(0.999999 -0.00125212 -0.00125208 -0.999999 33.3125 144.326)" fill="#A1A1A1"/>
<rect width="5.55091" height="5.551" transform="matrix(0.999999 -0.00125212 -0.00125208 -0.999999 66.6172 144.326)" fill="#A1A1A1"/>
<rect width="5.55091" height="5.551" transform="matrix(0.999999 -0.00125212 -0.00125208 -0.999999 99.9258 144.326)" fill="#A1A1A1"/>
<rect width="5.55091" height="5.551" transform="matrix(0.999999 -0.00125212 -0.00125208 -0.999999 133.23 144.326)" fill="#A1A1A1"/>
<rect width="5.55091" height="5.551" transform="matrix(0.999999 -0.00125212 -0.00125208 -0.999999 166.535 144.326)" fill="#A1A1A1"/>
<rect width="5.55091" height="5.551" transform="matrix(0.999999 -0.00125212 -0.00125208 -0.999999 199.84 144.326)" fill="#A1A1A1"/>
<rect width="5.55091" height="5.551" transform="matrix(0.999999 -0.00125212 -0.00125208 -0.999999 233.145 144.326)" fill="#A1A1A1"/>
<rect width="5.55091" height="5.551" transform="matrix(0.999999 -0.00125212 -0.00125208 -0.999999 266.453 144.326)" fill="#A1A1A1"/>
<rect width="5.55091" height="5.551" transform="matrix(0.999999 -0.00125212 -0.00125208 -0.999999 0.0078125 166.53)" fill="#A1A1A1"/>
<rect width="5.55091" height="5.551" transform="matrix(0.999999 -0.00125212 -0.00125208 -0.999999 33.3125 166.53)" fill="#A1A1A1"/>
<rect width="5.55091" height="5.551" transform="matrix(0.999999 -0.00125212 -0.00125208 -0.999999 66.6172 166.53)" fill="#A1A1A1"/>
<rect width="5.55091" height="5.551" transform="matrix(0.999999 -0.00125212 -0.00125208 -0.999999 99.9258 166.53)" fill="#A1A1A1"/>
<rect width="5.55091" height="5.551" transform="matrix(0.999999 -0.00125212 -0.00125208 -0.999999 133.23 166.53)" fill="#A1A1A1"/>
<rect width="5.55091" height="5.551" transform="matrix(0.999999 -0.00125212 -0.00125208 -0.999999 166.535 166.53)" fill="#A1A1A1"/>
<rect width="5.55091" height="5.551" transform="matrix(0.999999 -0.00125212 -0.00125208 -0.999999 199.84 166.53)" fill="#A1A1A1"/>
<rect width="5.55091" height="5.551" transform="matrix(0.999999 -0.00125212 -0.00125208 -0.999999 233.145 166.53)" fill="#A1A1A1"/>
<rect width="5.55091" height="5.551" transform="matrix(0.999999 -0.00125212 -0.00125208 -0.999999 266.453 166.53)" fill="#A1A1A1"/>
<rect width="5.55091" height="5.551" transform="matrix(0.999999 -0.00125212 -0.00125208 -0.999999 0.0078125 188.734)" fill="#A1A1A1"/>
<rect width="5.55091" height="5.551" transform="matrix(0.999999 -0.00125212 -0.00125208 -0.999999 33.3125 188.734)" fill="#A1A1A1"/>
<rect width="5.55091" height="5.551" transform="matrix(0.999999 -0.00125212 -0.00125208 -0.999999 66.6172 188.734)" fill="#A1A1A1"/>
<rect width="5.55091" height="5.551" transform="matrix(0.999999 -0.00125212 -0.00125208 -0.999999 99.9258 188.734)" fill="#A1A1A1"/>
<rect width="5.55091" height="5.551" transform="matrix(0.999999 -0.00125212 -0.00125208 -0.999999 133.23 188.734)" fill="#A1A1A1"/>
<rect width="5.55091" height="5.551" transform="matrix(0.999999 -0.00125212 -0.00125208 -0.999999 166.535 188.734)" fill="#A1A1A1"/>
<rect width="5.55091" height="5.551" transform="matrix(0.999999 -0.00125212 -0.00125208 -0.999999 199.84 188.734)" fill="#A1A1A1"/>
<rect width="5.55091" height="5.551" transform="matrix(0.999999 -0.00125212 -0.00125208 -0.999999 233.145 188.734)" fill="#A1A1A1"/>
<rect width="5.55091" height="5.551" transform="matrix(0.999999 -0.00125212 -0.00125208 -0.999999 266.453 188.734)" fill="#A1A1A1"/>
<rect width="5.55091" height="5.551" transform="matrix(0.999999 -0.00125212 -0.00125208 -0.999999 0.0078125 210.938)" fill="#A1A1A1"/>
<rect width="5.55091" height="5.551" transform="matrix(0.999999 -0.00125212 -0.00125208 -0.999999 33.3125 210.938)" fill="#A1A1A1"/>
<rect width="5.55091" height="5.551" transform="matrix(0.999999 -0.00125212 -0.00125208 -0.999999 66.6172 210.938)" fill="#A1A1A1"/>
<rect width="5.55091" height="5.551" transform="matrix(0.999999 -0.00125212 -0.00125208 -0.999999 99.9258 210.938)" fill="#A1A1A1"/>
<rect width="5.55091" height="5.551" transform="matrix(0.999999 -0.00125212 -0.00125208 -0.999999 133.23 210.938)" fill="#A1A1A1"/>
<rect width="5.55091" height="5.551" transform="matrix(0.999999 -0.00125212 -0.00125208 -0.999999 166.535 210.938)" fill="#A1A1A1"/>
<rect width="5.55091" height="5.551" transform="matrix(0.999999 -0.00125212 -0.00125208 -0.999999 199.84 210.938)" fill="#A1A1A1"/>
<rect width="5.55091" height="5.551" transform="matrix(0.999999 -0.00125212 -0.00125208 -0.999999 233.145 210.938)" fill="#A1A1A1"/>
<rect width="5.55091" height="5.551" transform="matrix(0.999999 -0.00125212 -0.00125208 -0.999999 266.453 210.938)" fill="#A1A1A1"/>
<rect width="5.55091" height="5.551" transform="matrix(0.999999 -0.00125212 -0.00125208 -0.999999 0.0078125 233.142)" fill="#A1A1A1"/>
<rect width="5.55091" height="5.551" transform="matrix(0.999999 -0.00125212 -0.00125208 -0.999999 33.3125 233.142)" fill="#A1A1A1"/>
<rect width="5.55091" height="5.551" transform="matrix(0.999999 -0.00125212 -0.00125208 -0.999999 66.6172 233.142)" fill="#A1A1A1"/>
<rect width="5.55091" height="5.551" transform="matrix(0.999999 -0.00125212 -0.00125208 -0.999999 99.9258 233.142)" fill="#A1A1A1"/>
<rect width="5.55091" height="5.551" transform="matrix(0.999999 -0.00125212 -0.00125208 -0.999999 133.23 233.142)" fill="#A1A1A1"/>
<rect width="5.55091" height="5.551" transform="matrix(0.999999 -0.00125212 -0.00125208 -0.999999 166.535 233.142)" fill="#A1A1A1"/>
<rect width="5.55091" height="5.551" transform="matrix(0.999999 -0.00125212 -0.00125208 -0.999999 199.84 233.142)" fill="#A1A1A1"/>
<rect width="5.55091" height="5.551" transform="matrix(0.999999 -0.00125212 -0.00125208 -0.999999 233.145 233.142)" fill="#A1A1A1"/>
<rect width="5.55091" height="5.551" transform="matrix(0.999999 -0.00125212 -0.00125208 -0.999999 266.453 233.142)" fill="#A1A1A1"/>
<rect width="5.55091" height="5.551" transform="matrix(0.999999 -0.00125212 -0.00125208 -0.999999 0.0078125 255.346)" fill="#A1A1A1"/>
<rect width="5.55091" height="5.551" transform="matrix(0.999999 -0.00125212 -0.00125208 -0.999999 33.3125 255.346)" fill="#A1A1A1"/>
<rect width="5.55091" height="5.551" transform="matrix(0.999999 -0.00125212 -0.00125208 -0.999999 66.6172 255.346)" fill="#A1A1A1"/>
<rect width="5.55091" height="5.551" transform="matrix(0.999999 -0.00125212 -0.00125208 -0.999999 99.9258 255.346)" fill="#A1A1A1"/>
<rect width="5.55091" height="5.551" transform="matrix(0.999999 -0.00125212 -0.00125208 -0.999999 133.23 255.346)" fill="#A1A1A1"/>
<rect width="5.55091" height="5.551" transform="matrix(0.999999 -0.00125212 -0.00125208 -0.999999 166.535 255.346)" fill="#A1A1A1"/>
<rect width="5.55091" height="5.551" transform="matrix(0.999999 -0.00125212 -0.00125208 -0.999999 199.84 255.346)" fill="#A1A1A1"/>
<rect width="5.55091" height="5.551" transform="matrix(0.999999 -0.00125212 -0.00125208 -0.999999 233.145 255.346)" fill="#A1A1A1"/>
<rect width="5.55091" height="5.551" transform="matrix(0.999999 -0.00125212 -0.00125208 -0.999999 266.453 255.346)" fill="#A1A1A1"/>
<rect width="5.551" height="5.55091" transform="matrix(-4.37107e-08 -1 -1 4.37121e-08 16.6523 38.8569)" fill="#A1A1A1"/>
<rect width="5.551" height="5.55091" transform="matrix(-4.37107e-08 -1 -1 4.37121e-08 16.6523 5.55078)" fill="#A1A1A1"/>
<rect width="5.551" height="5.55091" transform="matrix(-4.37107e-08 -1 -1 4.37121e-08 16.6523 72.1631)" fill="#A1A1A1"/>
<rect width="5.551" height="5.55091" transform="matrix(-4.37107e-08 -1 -1 4.37121e-08 16.6523 105.469)" fill="#A1A1A1"/>
<rect width="5.551" height="5.55091" transform="matrix(-4.37107e-08 -1 -1 4.37121e-08 16.6523 138.775)" fill="#A1A1A1"/>
<rect width="5.551" height="5.55091" transform="matrix(-4.37107e-08 -1 -1 4.37121e-08 16.6523 172.081)" fill="#A1A1A1"/>
<rect width="5.551" height="5.55091" transform="matrix(-4.37107e-08 -1 -1 4.37121e-08 16.6523 205.387)" fill="#A1A1A1"/>
<rect width="5.551" height="5.55091" transform="matrix(-4.37107e-08 -1 -1 4.37121e-08 16.6523 238.693)" fill="#A1A1A1"/>
<rect width="5.551" height="5.55091" transform="matrix(-4.37107e-08 -1 -1 4.37121e-08 16.6523 271.999)" fill="#A1A1A1"/>
<rect width="5.551" height="5.55091" transform="matrix(-4.37107e-08 -1 -1 4.37121e-08 16.6523 38.8569)" fill="#A1A1A1"/>
<rect width="5.551" height="5.55091" transform="matrix(-4.37107e-08 -1 -1 4.37121e-08 16.6523 5.55078)" fill="#A1A1A1"/>
<rect width="5.551" height="5.55091" transform="matrix(-4.37107e-08 -1 -1 4.37121e-08 16.6523 72.1631)" fill="#A1A1A1"/>
<rect width="5.551" height="5.55091" transform="matrix(-4.37107e-08 -1 -1 4.37121e-08 16.6523 105.469)" fill="#A1A1A1"/>
<rect width="5.551" height="5.55091" transform="matrix(-4.37107e-08 -1 -1 4.37121e-08 16.6523 138.775)" fill="#A1A1A1"/>
<rect width="5.551" height="5.55091" transform="matrix(-4.37107e-08 -1 -1 4.37121e-08 16.6523 172.081)" fill="#A1A1A1"/>
<rect width="5.551" height="5.55091" transform="matrix(-4.37107e-08 -1 -1 4.37121e-08 16.6523 205.387)" fill="#A1A1A1"/>
<rect width="5.551" height="5.55091" transform="matrix(-4.37107e-08 -1 -1 4.37121e-08 16.6523 238.693)" fill="#A1A1A1"/>
<rect width="5.551" height="5.55091" transform="matrix(-4.37107e-08 -1 -1 4.37121e-08 16.6523 271.999)" fill="#A1A1A1"/>
<rect width="5.551" height="5.55091" transform="matrix(-4.37107e-08 -1 -1 4.37121e-08 5.55469 44.4077)" fill="#A1A1A1"/>
<rect width="5.551" height="5.55091" transform="matrix(-4.37107e-08 -1 -1 4.37121e-08 5.55469 11.1021)" fill="#A1A1A1"/>
<rect width="5.551" height="5.55091" transform="matrix(-4.37107e-08 -1 -1 4.37121e-08 38.8594 44.4077)" fill="#A1A1A1"/>
<rect width="5.551" height="5.55091" transform="matrix(-4.37107e-08 -1 -1 4.37121e-08 38.8594 11.1021)" fill="#A1A1A1"/>
<rect width="5.551" height="5.55091" transform="matrix(-4.37107e-08 -1 -1 4.37121e-08 72.1641 44.4077)" fill="#A1A1A1"/>
<rect width="5.551" height="5.55091" transform="matrix(-4.37107e-08 -1 -1 4.37121e-08 72.1641 11.1021)" fill="#A1A1A1"/>
<rect width="5.551" height="5.55091" transform="matrix(-4.37107e-08 -1 -1 4.37121e-08 105.469 44.4077)" fill="#A1A1A1"/>
<rect width="5.551" height="5.55091" transform="matrix(-4.37107e-08 -1 -1 4.37121e-08 105.469 11.1021)" fill="#A1A1A1"/>
<rect width="5.551" height="5.55091" transform="matrix(-4.37107e-08 -1 -1 4.37121e-08 138.773 44.4077)" fill="#A1A1A1"/>
<rect width="5.551" height="5.55091" transform="matrix(-4.37107e-08 -1 -1 4.37121e-08 138.773 11.1021)" fill="#A1A1A1"/>
<rect width="5.551" height="5.55091" transform="matrix(-4.37107e-08 -1 -1 4.37121e-08 172.082 44.4077)" fill="#A1A1A1"/>
<rect width="5.551" height="5.55091" transform="matrix(-4.37107e-08 -1 -1 4.37121e-08 172.082 11.1021)" fill="#A1A1A1"/>
<rect width="5.551" height="5.55091" transform="matrix(-4.37107e-08 -1 -1 4.37121e-08 205.387 44.4077)" fill="#A1A1A1"/>
<rect width="5.551" height="5.55091" transform="matrix(-4.37107e-08 -1 -1 4.37121e-08 205.387 11.1021)" fill="#A1A1A1"/>
<rect width="5.551" height="5.55091" transform="matrix(-4.37107e-08 -1 -1 4.37121e-08 238.691 44.4077)" fill="#A1A1A1"/>
<rect width="5.551" height="5.55091" transform="matrix(-4.37107e-08 -1 -1 4.37121e-08 238.691 11.1021)" fill="#A1A1A1"/>
<rect width="5.551" height="5.55091" transform="matrix(-4.37107e-08 -1 -1 4.37121e-08 271.996 44.4077)" fill="#A1A1A1"/>
<rect width="5.551" height="5.55091" transform="matrix(-4.37107e-08 -1 -1 4.37121e-08 271.996 11.1021)" fill="#A1A1A1"/>
<rect width="5.551" height="5.55091" transform="matrix(-4.37107e-08 -1 -1 4.37121e-08 5.55469 66.6118)" fill="#A1A1A1"/>
<rect width="5.551" height="5.55091" transform="matrix(-4.37107e-08 -1 -1 4.37121e-08 5.55469 33.3062)" fill="#A1A1A1"/>
<rect width="5.551" height="5.55091" transform="matrix(-4.37107e-08 -1 -1 4.37121e-08 38.8594 66.6118)" fill="#A1A1A1"/>
<rect width="5.551" height="5.55091" transform="matrix(-4.37107e-08 -1 -1 4.37121e-08 38.8594 33.3062)" fill="#A1A1A1"/>
<rect width="5.551" height="5.55091" transform="matrix(-4.37107e-08 -1 -1 4.37121e-08 72.1641 66.6118)" fill="#A1A1A1"/>
<rect width="5.551" height="5.55091" transform="matrix(-4.37107e-08 -1 -1 4.37121e-08 72.1641 33.3062)" fill="#A1A1A1"/>
<rect width="5.551" height="5.55091" transform="matrix(-4.37107e-08 -1 -1 4.37121e-08 105.469 66.6118)" fill="#A1A1A1"/>
<rect width="5.551" height="5.55091" transform="matrix(-4.37107e-08 -1 -1 4.37121e-08 105.469 33.3062)" fill="#A1A1A1"/>
<rect width="5.551" height="5.55091" transform="matrix(-4.37107e-08 -1 -1 4.37121e-08 138.773 66.6118)" fill="#A1A1A1"/>
<rect width="5.551" height="5.55091" transform="matrix(-4.37107e-08 -1 -1 4.37121e-08 138.773 33.3062)" fill="#A1A1A1"/>
<rect width="5.551" height="5.55091" transform="matrix(-4.37107e-08 -1 -1 4.37121e-08 172.082 66.6118)" fill="#A1A1A1"/>
<rect width="5.551" height="5.55091" transform="matrix(-4.37107e-08 -1 -1 4.37121e-08 172.082 33.3062)" fill="#A1A1A1"/>
<rect width="5.551" height="5.55091" transform="matrix(-4.37107e-08 -1 -1 4.37121e-08 205.387 66.6118)" fill="#A1A1A1"/>
<rect width="5.551" height="5.55091" transform="matrix(-4.37107e-08 -1 -1 4.37121e-08 205.387 33.3062)" fill="#A1A1A1"/>
<rect width="5.551" height="5.55091" transform="matrix(-4.37107e-08 -1 -1 4.37121e-08 238.691 66.6118)" fill="#A1A1A1"/>
<rect width="5.551" height="5.55091" transform="matrix(-4.37107e-08 -1 -1 4.37121e-08 238.691 33.3062)" fill="#A1A1A1"/>
<rect width="5.551" height="5.55091" transform="matrix(-4.37107e-08 -1 -1 4.37121e-08 271.996 66.6118)" fill="#A1A1A1"/>
<rect width="5.551" height="5.55091" transform="matrix(-4.37107e-08 -1 -1 4.37121e-08 271.996 33.3062)" fill="#A1A1A1"/>
<rect width="5.551" height="5.55091" transform="matrix(-4.37107e-08 -1 -1 4.37121e-08 5.55469 88.8159)" fill="#A1A1A1"/>
<rect width="5.551" height="5.55091" transform="matrix(-4.37107e-08 -1 -1 4.37121e-08 38.8594 88.8159)" fill="#A1A1A1"/>
<rect width="5.551" height="5.55091" transform="matrix(-4.37107e-08 -1 -1 4.37121e-08 72.1641 88.8159)" fill="#A1A1A1"/>
<rect width="5.551" height="5.55091" transform="matrix(-4.37107e-08 -1 -1 4.37121e-08 105.469 88.8159)" fill="#A1A1A1"/>
<rect width="5.551" height="5.55091" transform="matrix(-4.37107e-08 -1 -1 4.37121e-08 138.773 88.8159)" fill="#A1A1A1"/>
<rect width="5.551" height="5.55091" transform="matrix(-4.37107e-08 -1 -1 4.37121e-08 172.082 88.8159)" fill="#A1A1A1"/>
<rect width="5.551" height="5.55091" transform="matrix(-4.37107e-08 -1 -1 4.37121e-08 205.387 88.8159)" fill="#A1A1A1"/>
<rect width="5.551" height="5.55091" transform="matrix(-4.37107e-08 -1 -1 4.37121e-08 238.691 88.8159)" fill="#A1A1A1"/>
<rect width="5.551" height="5.55091" transform="matrix(-4.37107e-08 -1 -1 4.37121e-08 271.996 88.8159)" fill="#A1A1A1"/>
<rect width="5.551" height="5.55091" transform="matrix(-4.37107e-08 -1 -1 4.37121e-08 5.55469 111.02)" fill="#A1A1A1"/>
<rect width="5.551" height="5.55091" transform="matrix(-4.37107e-08 -1 -1 4.37121e-08 38.8594 111.02)" fill="#A1A1A1"/>
<rect width="5.551" height="5.55091" transform="matrix(-4.37107e-08 -1 -1 4.37121e-08 72.1641 111.02)" fill="#A1A1A1"/>
<rect width="5.551" height="5.55091" transform="matrix(-4.37107e-08 -1 -1 4.37121e-08 105.469 111.02)" fill="#A1A1A1"/>
<rect width="5.551" height="5.55091" transform="matrix(-4.37107e-08 -1 -1 4.37121e-08 138.773 111.02)" fill="#A1A1A1"/>
<rect width="5.551" height="5.55091" transform="matrix(-4.37107e-08 -1 -1 4.37121e-08 172.082 111.02)" fill="#A1A1A1"/>
<rect width="5.551" height="5.55091" transform="matrix(-4.37107e-08 -1 -1 4.37121e-08 205.387 111.02)" fill="#A1A1A1"/>
<rect width="5.551" height="5.55091" transform="matrix(-4.37107e-08 -1 -1 4.37121e-08 238.691 111.02)" fill="#A1A1A1"/>
<rect width="5.551" height="5.55091" transform="matrix(-4.37107e-08 -1 -1 4.37121e-08 271.996 111.02)" fill="#A1A1A1"/>
<rect width="5.551" height="5.55091" transform="matrix(-4.37107e-08 -1 -1 4.37121e-08 5.55469 133.224)" fill="#A1A1A1"/>
<rect width="5.551" height="5.55091" transform="matrix(-4.37107e-08 -1 -1 4.37121e-08 38.8594 133.224)" fill="#A1A1A1"/>
<rect width="5.551" height="5.55091" transform="matrix(-4.37107e-08 -1 -1 4.37121e-08 72.1641 133.224)" fill="#A1A1A1"/>
<rect width="5.551" height="5.55091" transform="matrix(-4.37107e-08 -1 -1 4.37121e-08 105.469 133.224)" fill="#A1A1A1"/>
<rect width="5.551" height="5.55091" transform="matrix(-4.37107e-08 -1 -1 4.37121e-08 138.773 133.224)" fill="#A1A1A1"/>
<rect width="5.551" height="5.55091" transform="matrix(-4.37107e-08 -1 -1 4.37121e-08 172.082 133.224)" fill="#A1A1A1"/>
<rect width="5.551" height="5.55091" transform="matrix(-4.37107e-08 -1 -1 4.37121e-08 205.387 133.224)" fill="#A1A1A1"/>
<rect width="5.551" height="5.55091" transform="matrix(-4.37107e-08 -1 -1 4.37121e-08 238.691 133.224)" fill="#A1A1A1"/>
<rect width="5.551" height="5.55091" transform="matrix(-4.37107e-08 -1 -1 4.37121e-08 271.996 133.224)" fill="#A1A1A1"/>
<rect width="5.551" height="5.55091" transform="matrix(-4.37107e-08 -1 -1 4.37121e-08 5.55469 155.428)" fill="#A1A1A1"/>
<rect width="5.551" height="5.55091" transform="matrix(-4.37107e-08 -1 -1 4.37121e-08 38.8594 155.428)" fill="#A1A1A1"/>
<rect width="5.551" height="5.55091" transform="matrix(-4.37107e-08 -1 -1 4.37121e-08 72.1641 155.428)" fill="#A1A1A1"/>
<rect width="5.551" height="5.55091" transform="matrix(-4.37107e-08 -1 -1 4.37121e-08 105.469 155.428)" fill="#A1A1A1"/>
<rect width="5.551" height="5.55091" transform="matrix(-4.37107e-08 -1 -1 4.37121e-08 138.773 155.428)" fill="#A1A1A1"/>
<rect width="5.551" height="5.55091" transform="matrix(-4.37107e-08 -1 -1 4.37121e-08 172.082 155.428)" fill="#A1A1A1"/>
<rect width="5.551" height="5.55091" transform="matrix(-4.37107e-08 -1 -1 4.37121e-08 205.387 155.428)" fill="#A1A1A1"/>
<rect width="5.551" height="5.55091" transform="matrix(-4.37107e-08 -1 -1 4.37121e-08 238.691 155.428)" fill="#A1A1A1"/>
<rect width="5.551" height="5.55091" transform="matrix(-4.37107e-08 -1 -1 4.37121e-08 271.996 155.428)" fill="#A1A1A1"/>
<rect width="5.551" height="5.55091" transform="matrix(-4.37107e-08 -1 -1 4.37121e-08 5.55469 177.632)" fill="#A1A1A1"/>
<rect width="5.551" height="5.55091" transform="matrix(-4.37107e-08 -1 -1 4.37121e-08 38.8594 177.632)" fill="#A1A1A1"/>
<rect width="5.551" height="5.55091" transform="matrix(-4.37107e-08 -1 -1 4.37121e-08 72.1641 177.632)" fill="#A1A1A1"/>
<rect width="5.551" height="5.55091" transform="matrix(-4.37107e-08 -1 -1 4.37121e-08 105.469 177.632)" fill="#A1A1A1"/>
<rect width="5.551" height="5.55091" transform="matrix(-4.37107e-08 -1 -1 4.37121e-08 138.773 177.632)" fill="#A1A1A1"/>
<rect width="5.551" height="5.55091" transform="matrix(-4.37107e-08 -1 -1 4.37121e-08 172.082 177.632)" fill="#A1A1A1"/>
<rect width="5.551" height="5.55091" transform="matrix(-4.37107e-08 -1 -1 4.37121e-08 205.387 177.632)" fill="#A1A1A1"/>
<rect width="5.551" height="5.55091" transform="matrix(-4.37107e-08 -1 -1 4.37121e-08 238.691 177.632)" fill="#A1A1A1"/>
<rect width="5.551" height="5.55091" transform="matrix(-4.37107e-08 -1 -1 4.37121e-08 271.996 177.632)" fill="#A1A1A1"/>
<rect width="5.551" height="5.55091" transform="matrix(-4.37107e-08 -1 -1 4.37121e-08 5.55469 199.836)" fill="#A1A1A1"/>
<rect width="5.551" height="5.55091" transform="matrix(-4.37107e-08 -1 -1 4.37121e-08 38.8594 199.836)" fill="#A1A1A1"/>
<rect width="5.551" height="5.55091" transform="matrix(-4.37107e-08 -1 -1 4.37121e-08 72.1641 199.836)" fill="#A1A1A1"/>
<rect width="5.551" height="5.55091" transform="matrix(-4.37107e-08 -1 -1 4.37121e-08 105.469 199.836)" fill="#A1A1A1"/>
<rect width="5.551" height="5.55091" transform="matrix(-4.37107e-08 -1 -1 4.37121e-08 138.773 199.836)" fill="#A1A1A1"/>
<rect width="5.551" height="5.55091" transform="matrix(-4.37107e-08 -1 -1 4.37121e-08 172.082 199.836)" fill="#A1A1A1"/>
<rect width="5.551" height="5.55091" transform="matrix(-4.37107e-08 -1 -1 4.37121e-08 205.387 199.836)" fill="#A1A1A1"/>
<rect width="5.551" height="5.55091" transform="matrix(-4.37107e-08 -1 -1 4.37121e-08 238.691 199.836)" fill="#A1A1A1"/>
<rect width="5.551" height="5.55091" transform="matrix(-4.37107e-08 -1 -1 4.37121e-08 271.996 199.836)" fill="#A1A1A1"/>
<rect width="5.551" height="5.55091" transform="matrix(-4.37107e-08 -1 -1 4.37121e-08 5.55469 222.04)" fill="#A1A1A1"/>
<rect width="5.551" height="5.55091" transform="matrix(-4.37107e-08 -1 -1 4.37121e-08 38.8594 222.04)" fill="#A1A1A1"/>
<rect width="5.551" height="5.55091" transform="matrix(-4.37107e-08 -1 -1 4.37121e-08 72.1641 222.04)" fill="#A1A1A1"/>
<rect width="5.551" height="5.55091" transform="matrix(-4.37107e-08 -1 -1 4.37121e-08 105.469 222.04)" fill="#A1A1A1"/>
<rect width="5.551" height="5.55091" transform="matrix(-4.37107e-08 -1 -1 4.37121e-08 138.773 222.04)" fill="#A1A1A1"/>
<rect width="5.551" height="5.55091" transform="matrix(-4.37107e-08 -1 -1 4.37121e-08 172.082 222.04)" fill="#A1A1A1"/>
<rect width="5.551" height="5.55091" transform="matrix(-4.37107e-08 -1 -1 4.37121e-08 205.387 222.04)" fill="#A1A1A1"/>
<rect width="5.551" height="5.55091" transform="matrix(-4.37107e-08 -1 -1 4.37121e-08 238.691 222.04)" fill="#A1A1A1"/>
<rect width="5.551" height="5.55091" transform="matrix(-4.37107e-08 -1 -1 4.37121e-08 271.996 222.04)" fill="#A1A1A1"/>
<rect width="5.551" height="5.55091" transform="matrix(-4.37107e-08 -1 -1 4.37121e-08 5.55469 244.244)" fill="#A1A1A1"/>
<rect width="5.551" height="5.55091" transform="matrix(-4.37107e-08 -1 -1 4.37121e-08 38.8594 244.244)" fill="#A1A1A1"/>
<rect width="5.551" height="5.55091" transform="matrix(-4.37107e-08 -1 -1 4.37121e-08 72.1641 244.244)" fill="#A1A1A1"/>
<rect width="5.551" height="5.55091" transform="matrix(-4.37107e-08 -1 -1 4.37121e-08 105.469 244.244)" fill="#A1A1A1"/>
<rect width="5.551" height="5.55091" transform="matrix(-4.37107e-08 -1 -1 4.37121e-08 138.773 244.244)" fill="#A1A1A1"/>
<rect width="5.551" height="5.55091" transform="matrix(-4.37107e-08 -1 -1 4.37121e-08 172.082 244.244)" fill="#A1A1A1"/>
<rect width="5.551" height="5.55091" transform="matrix(-4.37107e-08 -1 -1 4.37121e-08 205.387 244.244)" fill="#A1A1A1"/>
<rect width="5.551" height="5.55091" transform="matrix(-4.37107e-08 -1 -1 4.37121e-08 238.691 244.244)" fill="#A1A1A1"/>
<rect width="5.551" height="5.55091" transform="matrix(-4.37107e-08 -1 -1 4.37121e-08 271.996 244.244)" fill="#A1A1A1"/>
<rect width="5.551" height="5.55091" transform="matrix(-4.37107e-08 -1 -1 4.37121e-08 5.55469 266.448)" fill="#A1A1A1"/>
<rect width="5.551" height="5.55091" transform="matrix(-4.37107e-08 -1 -1 4.37121e-08 38.8594 266.448)" fill="#A1A1A1"/>
<rect width="5.551" height="5.55091" transform="matrix(-4.37107e-08 -1 -1 4.37121e-08 72.1641 266.448)" fill="#A1A1A1"/>
<rect width="5.551" height="5.55091" transform="matrix(-4.37107e-08 -1 -1 4.37121e-08 105.469 266.448)" fill="#A1A1A1"/>
<rect width="5.551" height="5.55091" transform="matrix(-4.37107e-08 -1 -1 4.37121e-08 138.773 266.448)" fill="#A1A1A1"/>
<rect width="5.551" height="5.55091" transform="matrix(-4.37107e-08 -1 -1 4.37121e-08 172.082 266.448)" fill="#A1A1A1"/>
<rect width="5.551" height="5.55091" transform="matrix(-4.37107e-08 -1 -1 4.37121e-08 205.387 266.448)" fill="#A1A1A1"/>
<rect width="5.551" height="5.55091" transform="matrix(-4.37107e-08 -1 -1 4.37121e-08 238.691 266.448)" fill="#A1A1A1"/>
<rect width="5.551" height="5.55091" transform="matrix(-4.37107e-08 -1 -1 4.37121e-08 271.996 266.448)" fill="#A1A1A1"/>
<rect width="5.55091" height="5.551" transform="matrix(1 0.000189641 0.000189634 -1 0.00390625 49.959)" fill="#A1A1A1"/>
<rect width="5.55091" height="5.551" transform="matrix(1 0.000189641 0.000189634 -1 0.00390625 16.6528)" fill="#A1A1A1"/>
<rect width="5.55091" height="5.551" transform="matrix(1 0.000189641 0.000189634 -1 33.3086 49.959)" fill="#A1A1A1"/>
<rect width="5.55091" height="5.551" transform="matrix(1 0.000189641 0.000189634 -1 33.3086 16.6528)" fill="#A1A1A1"/>
<rect width="5.55091" height="5.551" transform="matrix(1 0.000189641 0.000189634 -1 66.6133 49.959)" fill="#A1A1A1"/>
<rect width="5.55091" height="5.551" transform="matrix(1 0.000189641 0.000189634 -1 66.6133 16.6528)" fill="#A1A1A1"/>
<rect width="5.55091" height="5.551" transform="matrix(1 0.000189641 0.000189634 -1 99.918 49.959)" fill="#A1A1A1"/>
<rect width="5.55091" height="5.551" transform="matrix(1 0.000189641 0.000189634 -1 99.918 16.6528)" fill="#A1A1A1"/>
<rect width="5.55091" height="5.551" transform="matrix(1 0.000189641 0.000189634 -1 133.223 49.959)" fill="#A1A1A1"/>
<rect width="5.55091" height="5.551" transform="matrix(1 0.000189641 0.000189634 -1 133.223 16.6528)" fill="#A1A1A1"/>
<rect width="5.55091" height="5.551" transform="matrix(1 0.000189641 0.000189634 -1 166.531 49.959)" fill="#A1A1A1"/>
<rect width="5.55091" height="5.551" transform="matrix(1 0.000189641 0.000189634 -1 166.531 16.6528)" fill="#A1A1A1"/>
<rect width="5.55091" height="5.551" transform="matrix(1 0.000189641 0.000189634 -1 199.836 49.959)" fill="#A1A1A1"/>
<rect width="5.55091" height="5.551" transform="matrix(1 0.000189641 0.000189634 -1 199.836 16.6528)" fill="#A1A1A1"/>
<rect width="5.55091" height="5.551" transform="matrix(1 0.000189641 0.000189634 -1 233.141 49.959)" fill="#A1A1A1"/>
<rect width="5.55091" height="5.551" transform="matrix(1 0.000189641 0.000189634 -1 233.141 16.6528)" fill="#A1A1A1"/>
<rect width="5.55091" height="5.551" transform="matrix(1 0.000189641 0.000189634 -1 266.445 49.959)" fill="#A1A1A1"/>
<rect width="5.55091" height="5.551" transform="matrix(1 0.000189641 0.000189634 -1 266.445 16.6528)" fill="#A1A1A1"/>
<rect width="5.55091" height="5.551" transform="matrix(1 0.000189641 0.000189634 -1 0.00390625 72.1631)" fill="#A1A1A1"/>
<rect width="5.55091" height="5.551" transform="matrix(1 0.000189641 0.000189634 -1 33.3086 72.1631)" fill="#A1A1A1"/>
<rect width="5.55091" height="5.551" transform="matrix(1 0.000189641 0.000189634 -1 66.6133 72.1631)" fill="#A1A1A1"/>
<rect width="5.55091" height="5.551" transform="matrix(1 0.000189641 0.000189634 -1 99.918 72.1631)" fill="#A1A1A1"/>
<rect width="5.55091" height="5.551" transform="matrix(1 0.000189641 0.000189634 -1 133.223 72.1631)" fill="#A1A1A1"/>
<rect width="5.55091" height="5.551" transform="matrix(1 0.000189641 0.000189634 -1 166.531 72.1631)" fill="#A1A1A1"/>
<rect width="5.55091" height="5.551" transform="matrix(1 0.000189641 0.000189634 -1 199.836 72.1631)" fill="#A1A1A1"/>
<rect width="5.55091" height="5.551" transform="matrix(1 0.000189641 0.000189634 -1 233.141 72.1631)" fill="#A1A1A1"/>
<rect width="5.55091" height="5.551" transform="matrix(1 0.000189641 0.000189634 -1 266.445 72.1631)" fill="#A1A1A1"/>
<rect width="5.55091" height="5.551" transform="matrix(1 0.000189641 0.000189634 -1 0.00390625 94.3667)" fill="#A1A1A1"/>
<rect width="5.55091" height="5.551" transform="matrix(1 0.000189641 0.000189634 -1 33.3086 94.3667)" fill="#A1A1A1"/>
<rect width="5.55091" height="5.551" transform="matrix(1 0.000189641 0.000189634 -1 66.6133 94.3667)" fill="#A1A1A1"/>
<rect width="5.55091" height="5.551" transform="matrix(1 0.000189641 0.000189634 -1 99.918 94.3667)" fill="#A1A1A1"/>
<rect width="5.55091" height="5.551" transform="matrix(1 0.000189641 0.000189634 -1 133.223 94.3667)" fill="#A1A1A1"/>
<rect width="5.55091" height="5.551" transform="matrix(1 0.000189641 0.000189634 -1 166.531 94.3667)" fill="#A1A1A1"/>
<rect width="5.55091" height="5.551" transform="matrix(1 0.000189641 0.000189634 -1 199.836 94.3667)" fill="#A1A1A1"/>
<rect width="5.55091" height="5.551" transform="matrix(1 0.000189641 0.000189634 -1 233.141 94.3667)" fill="#A1A1A1"/>
<rect width="5.55091" height="5.551" transform="matrix(1 0.000189641 0.000189634 -1 266.445 94.3667)" fill="#A1A1A1"/>
<rect width="5.55091" height="5.551" transform="matrix(1 0.000189641 0.000189634 -1 0.00390625 116.571)" fill="#A1A1A1"/>
<rect width="5.55091" height="5.551" transform="matrix(1 0.000189641 0.000189634 -1 33.3086 116.571)" fill="#A1A1A1"/>
<rect width="5.55091" height="5.551" transform="matrix(1 0.000189641 0.000189634 -1 66.6133 116.571)" fill="#A1A1A1"/>
<rect width="5.55091" height="5.551" transform="matrix(1 0.000189641 0.000189634 -1 99.918 116.571)" fill="#A1A1A1"/>
<rect width="5.55091" height="5.551" transform="matrix(1 0.000189641 0.000189634 -1 133.223 116.571)" fill="#A1A1A1"/>
<rect width="5.55091" height="5.551" transform="matrix(1 0.000189641 0.000189634 -1 166.531 116.571)" fill="#A1A1A1"/>
<rect width="5.55091" height="5.551" transform="matrix(1 0.000189641 0.000189634 -1 199.836 116.571)" fill="#A1A1A1"/>
<rect width="5.55091" height="5.551" transform="matrix(1 0.000189641 0.000189634 -1 233.141 116.571)" fill="#A1A1A1"/>
<rect width="5.55091" height="5.551" transform="matrix(1 0.000189641 0.000189634 -1 266.445 116.571)" fill="#A1A1A1"/>
<rect width="5.55091" height="5.551" transform="matrix(1 0.000189641 0.000189634 -1 0.00390625 138.775)" fill="#A1A1A1"/>
<rect width="5.55091" height="5.551" transform="matrix(1 0.000189641 0.000189634 -1 33.3086 138.775)" fill="#A1A1A1"/>
<rect width="5.55091" height="5.551" transform="matrix(1 0.000189641 0.000189634 -1 66.6133 138.775)" fill="#A1A1A1"/>
<rect width="5.55091" height="5.551" transform="matrix(1 0.000189641 0.000189634 -1 99.918 138.775)" fill="#A1A1A1"/>
<rect width="5.55091" height="5.551" transform="matrix(1 0.000189641 0.000189634 -1 133.223 138.775)" fill="#A1A1A1"/>
<rect width="5.55091" height="5.551" transform="matrix(1 0.000189641 0.000189634 -1 166.531 138.775)" fill="#A1A1A1"/>
<rect width="5.55091" height="5.551" transform="matrix(1 0.000189641 0.000189634 -1 199.836 138.775)" fill="#A1A1A1"/>
<rect width="5.55091" height="5.551" transform="matrix(1 0.000189641 0.000189634 -1 233.141 138.775)" fill="#A1A1A1"/>
<rect width="5.55091" height="5.551" transform="matrix(1 0.000189641 0.000189634 -1 266.445 138.775)" fill="#A1A1A1"/>
<rect width="5.55091" height="5.551" transform="matrix(1 0.000189641 0.000189634 -1 0.00390625 160.979)" fill="#A1A1A1"/>
<rect width="5.55091" height="5.551" transform="matrix(1 0.000189641 0.000189634 -1 33.3086 160.979)" fill="#A1A1A1"/>
<rect width="5.55091" height="5.551" transform="matrix(1 0.000189641 0.000189634 -1 66.6133 160.979)" fill="#A1A1A1"/>
<rect width="5.55091" height="5.551" transform="matrix(1 0.000189641 0.000189634 -1 99.918 160.979)" fill="#A1A1A1"/>
<rect width="5.55091" height="5.551" transform="matrix(1 0.000189641 0.000189634 -1 133.223 160.979)" fill="#A1A1A1"/>
<rect width="5.55091" height="5.551" transform="matrix(1 0.000189641 0.000189634 -1 166.531 160.979)" fill="#A1A1A1"/>
<rect width="5.55091" height="5.551" transform="matrix(1 0.000189641 0.000189634 -1 199.836 160.979)" fill="#A1A1A1"/>
<rect width="5.55091" height="5.551" transform="matrix(1 0.000189641 0.000189634 -1 233.141 160.979)" fill="#A1A1A1"/>
<rect width="5.55091" height="5.551" transform="matrix(1 0.000189641 0.000189634 -1 266.445 160.979)" fill="#A1A1A1"/>
<rect width="5.55091" height="5.551" transform="matrix(1 0.000189641 0.000189634 -1 0.00390625 183.183)" fill="#A1A1A1"/>
<rect width="5.55091" height="5.551" transform="matrix(1 0.000189641 0.000189634 -1 33.3086 183.183)" fill="#A1A1A1"/>
<rect width="5.55091" height="5.551" transform="matrix(1 0.000189641 0.000189634 -1 66.6133 183.183)" fill="#A1A1A1"/>
<rect width="5.55091" height="5.551" transform="matrix(1 0.000189641 0.000189634 -1 99.918 183.183)" fill="#A1A1A1"/>
<rect width="5.55091" height="5.551" transform="matrix(1 0.000189641 0.000189634 -1 133.223 183.183)" fill="#A1A1A1"/>
<rect width="5.55091" height="5.551" transform="matrix(1 0.000189641 0.000189634 -1 166.531 183.183)" fill="#A1A1A1"/>
<rect width="5.55091" height="5.551" transform="matrix(1 0.000189641 0.000189634 -1 199.836 183.183)" fill="#A1A1A1"/>
<rect width="5.55091" height="5.551" transform="matrix(1 0.000189641 0.000189634 -1 233.141 183.183)" fill="#A1A1A1"/>
<rect width="5.55091" height="5.551" transform="matrix(1 0.000189641 0.000189634 -1 266.445 183.183)" fill="#A1A1A1"/>
<rect width="5.55091" height="5.551" transform="matrix(1 0.000189641 0.000189634 -1 0.00390625 205.387)" fill="#A1A1A1"/>
<rect width="5.55091" height="5.551" transform="matrix(1 0.000189641 0.000189634 -1 33.3086 205.387)" fill="#A1A1A1"/>
<rect width="5.55091" height="5.551" transform="matrix(1 0.000189641 0.000189634 -1 66.6133 205.387)" fill="#A1A1A1"/>
<rect width="5.55091" height="5.551" transform="matrix(1 0.000189641 0.000189634 -1 99.918 205.387)" fill="#A1A1A1"/>
<rect width="5.55091" height="5.551" transform="matrix(1 0.000189641 0.000189634 -1 133.223 205.387)" fill="#A1A1A1"/>
<rect width="5.55091" height="5.551" transform="matrix(1 0.000189641 0.000189634 -1 166.531 205.387)" fill="#A1A1A1"/>
<rect width="5.55091" height="5.551" transform="matrix(1 0.000189641 0.000189634 -1 199.836 205.387)" fill="#A1A1A1"/>
<rect width="5.55091" height="5.551" transform="matrix(1 0.000189641 0.000189634 -1 233.141 205.387)" fill="#A1A1A1"/>
<rect width="5.55091" height="5.551" transform="matrix(1 0.000189641 0.000189634 -1 266.445 205.387)" fill="#A1A1A1"/>
<rect width="5.55091" height="5.551" transform="matrix(1 0.000189641 0.000189634 -1 0.00390625 227.591)" fill="#A1A1A1"/>
<rect width="5.55091" height="5.551" transform="matrix(1 0.000189641 0.000189634 -1 33.3086 227.591)" fill="#A1A1A1"/>
<rect width="5.55091" height="5.551" transform="matrix(1 0.000189641 0.000189634 -1 66.6133 227.591)" fill="#A1A1A1"/>
<rect width="5.55091" height="5.551" transform="matrix(1 0.000189641 0.000189634 -1 99.918 227.591)" fill="#A1A1A1"/>
<rect width="5.55091" height="5.551" transform="matrix(1 0.000189641 0.000189634 -1 133.223 227.591)" fill="#A1A1A1"/>
<rect width="5.55091" height="5.551" transform="matrix(1 0.000189641 0.000189634 -1 166.531 227.591)" fill="#A1A1A1"/>
<rect width="5.55091" height="5.551" transform="matrix(1 0.000189641 0.000189634 -1 199.836 227.591)" fill="#A1A1A1"/>
<rect width="5.55091" height="5.551" transform="matrix(1 0.000189641 0.000189634 -1 233.141 227.591)" fill="#A1A1A1"/>
<rect width="5.55091" height="5.551" transform="matrix(1 0.000189641 0.000189634 -1 266.445 227.591)" fill="#A1A1A1"/>
<rect width="5.55091" height="5.551" transform="matrix(1 0.000189641 0.000189634 -1 0.00390625 249.795)" fill="#A1A1A1"/>
<rect width="5.55091" height="5.551" transform="matrix(1 0.000189641 0.000189634 -1 33.3086 249.795)" fill="#A1A1A1"/>
<rect width="5.55091" height="5.551" transform="matrix(1 0.000189641 0.000189634 -1 66.6133 249.795)" fill="#A1A1A1"/>
<rect width="5.55091" height="5.551" transform="matrix(1 0.000189641 0.000189634 -1 99.918 249.795)" fill="#A1A1A1"/>
<rect width="5.55091" height="5.551" transform="matrix(1 0.000189641 0.000189634 -1 133.223 249.795)" fill="#A1A1A1"/>
<rect width="5.55091" height="5.551" transform="matrix(1 0.000189641 0.000189634 -1 166.531 249.795)" fill="#A1A1A1"/>
<rect width="5.55091" height="5.551" transform="matrix(1 0.000189641 0.000189634 -1 199.836 249.795)" fill="#A1A1A1"/>
<rect width="5.55091" height="5.551" transform="matrix(1 0.000189641 0.000189634 -1 233.141 249.795)" fill="#A1A1A1"/>
<rect width="5.55091" height="5.551" transform="matrix(1 0.000189641 0.000189634 -1 266.445 249.795)" fill="#A1A1A1"/>
<rect width="5.55091" height="5.551" transform="matrix(1 0.000189641 0.000189634 -1 0.00390625 271.999)" fill="#A1A1A1"/>
<rect width="5.55091" height="5.551" transform="matrix(1 0.000189641 0.000189634 -1 33.3086 271.999)" fill="#A1A1A1"/>
<rect width="5.55091" height="5.551" transform="matrix(1 0.000189641 0.000189634 -1 0.00390625 61.061)" fill="#A1A1A1"/>
<rect width="5.55091" height="5.551" transform="matrix(1 0.000189641 0.000189634 -1 0.00390625 27.7549)" fill="#A1A1A1"/>
<rect width="5.55091" height="5.551" transform="matrix(1 0.000189641 0.000189634 -1 33.3086 61.061)" fill="#A1A1A1"/>
<rect width="5.55091" height="5.551" transform="matrix(1 0.000189641 0.000189634 -1 33.3086 27.7549)" fill="#A1A1A1"/>
<rect width="5.55091" height="5.551" transform="matrix(1 0.000189641 0.000189634 -1 66.6133 61.061)" fill="#A1A1A1"/>
<rect width="5.55091" height="5.551" transform="matrix(1 0.000189641 0.000189634 -1 66.6133 27.7549)" fill="#A1A1A1"/>
<rect width="5.55091" height="5.551" transform="matrix(1 0.000189641 0.000189634 -1 99.918 61.061)" fill="#A1A1A1"/>
<rect width="5.55091" height="5.551" transform="matrix(1 0.000189641 0.000189634 -1 99.918 27.7549)" fill="#A1A1A1"/>
<rect width="5.55091" height="5.551" transform="matrix(1 0.000189641 0.000189634 -1 133.223 61.061)" fill="#A1A1A1"/>
<rect width="5.55091" height="5.551" transform="matrix(1 0.000189641 0.000189634 -1 133.223 27.7549)" fill="#A1A1A1"/>
<rect width="5.55091" height="5.551" transform="matrix(1 0.000189641 0.000189634 -1 166.531 61.061)" fill="#A1A1A1"/>
<rect width="5.55091" height="5.551" transform="matrix(1 0.000189641 0.000189634 -1 166.531 27.7549)" fill="#A1A1A1"/>
<rect width="5.55091" height="5.551" transform="matrix(1 0.000189641 0.000189634 -1 199.836 61.061)" fill="#A1A1A1"/>
<rect width="5.55091" height="5.551" transform="matrix(1 0.000189641 0.000189634 -1 199.836 27.7549)" fill="#A1A1A1"/>
<rect width="5.55091" height="5.551" transform="matrix(1 0.000189641 0.000189634 -1 233.141 61.061)" fill="#A1A1A1"/>
<rect width="5.55091" height="5.551" transform="matrix(1 0.000189641 0.000189634 -1 233.141 27.7549)" fill="#A1A1A1"/>
<rect width="5.55091" height="5.551" transform="matrix(1 0.000189641 0.000189634 -1 266.445 61.061)" fill="#A1A1A1"/>
<rect width="5.55091" height="5.551" transform="matrix(1 0.000189641 0.000189634 -1 266.445 27.7549)" fill="#A1A1A1"/>
<rect width="5.55091" height="5.551" transform="matrix(1 0.000189641 0.000189634 -1 0.00390625 83.2646)" fill="#A1A1A1"/>
<rect width="5.55091" height="5.551" transform="matrix(1 0.000189641 0.000189634 -1 33.3086 83.2646)" fill="#A1A1A1"/>
<rect width="5.55091" height="5.551" transform="matrix(1 0.000189641 0.000189634 -1 66.6133 83.2646)" fill="#A1A1A1"/>
<rect width="5.55091" height="5.551" transform="matrix(1 0.000189641 0.000189634 -1 99.918 83.2646)" fill="#A1A1A1"/>
<rect width="5.55091" height="5.551" transform="matrix(1 0.000189641 0.000189634 -1 133.223 83.2646)" fill="#A1A1A1"/>
<rect width="5.55091" height="5.551" transform="matrix(1 0.000189641 0.000189634 -1 166.531 83.2646)" fill="#A1A1A1"/>
<rect width="5.55091" height="5.551" transform="matrix(1 0.000189641 0.000189634 -1 199.836 83.2646)" fill="#A1A1A1"/>
<rect width="5.55091" height="5.551" transform="matrix(1 0.000189641 0.000189634 -1 233.141 83.2646)" fill="#A1A1A1"/>
<rect width="5.55091" height="5.551" transform="matrix(1 0.000189641 0.000189634 -1 266.445 83.2646)" fill="#A1A1A1"/>
<rect width="5.55091" height="5.551" transform="matrix(1 0.000189641 0.000189634 -1 0.00390625 105.469)" fill="#A1A1A1"/>
<rect width="5.55091" height="5.551" transform="matrix(1 0.000189641 0.000189634 -1 33.3086 105.469)" fill="#A1A1A1"/>
<rect width="5.55091" height="5.551" transform="matrix(1 0.000189641 0.000189634 -1 66.6133 105.469)" fill="#A1A1A1"/>
<rect width="5.55091" height="5.551" transform="matrix(1 0.000189641 0.000189634 -1 99.918 105.469)" fill="#A1A1A1"/>
<rect width="5.55091" height="5.551" transform="matrix(1 0.000189641 0.000189634 -1 133.223 105.469)" fill="#A1A1A1"/>
<rect width="5.55091" height="5.551" transform="matrix(1 0.000189641 0.000189634 -1 166.531 105.469)" fill="#A1A1A1"/>
<rect width="5.55091" height="5.551" transform="matrix(1 0.000189641 0.000189634 -1 199.836 105.469)" fill="#A1A1A1"/>
<rect width="5.55091" height="5.551" transform="matrix(1 0.000189641 0.000189634 -1 233.141 105.469)" fill="#A1A1A1"/>
<rect width="5.55091" height="5.551" transform="matrix(1 0.000189641 0.000189634 -1 266.445 105.469)" fill="#A1A1A1"/>
<rect width="5.55091" height="5.551" transform="matrix(1 0.000189641 0.000189634 -1 0.00390625 127.673)" fill="#A1A1A1"/>
<rect width="5.55091" height="5.551" transform="matrix(1 0.000189641 0.000189634 -1 33.3086 127.673)" fill="#A1A1A1"/>
<rect width="5.55091" height="5.551" transform="matrix(1 0.000189641 0.000189634 -1 66.6133 127.673)" fill="#A1A1A1"/>
<rect width="5.55091" height="5.551" transform="matrix(1 0.000189641 0.000189634 -1 99.918 127.673)" fill="#A1A1A1"/>
<rect width="5.55091" height="5.551" transform="matrix(1 0.000189641 0.000189634 -1 133.223 127.673)" fill="#A1A1A1"/>
<rect width="5.55091" height="5.551" transform="matrix(1 0.000189641 0.000189634 -1 166.531 127.673)" fill="#A1A1A1"/>
<rect width="5.55091" height="5.551" transform="matrix(1 0.000189641 0.000189634 -1 199.836 127.673)" fill="#A1A1A1"/>
<rect width="5.55091" height="5.551" transform="matrix(1 0.000189641 0.000189634 -1 233.141 127.673)" fill="#A1A1A1"/>
<rect width="5.55091" height="5.551" transform="matrix(1 0.000189641 0.000189634 -1 266.445 127.673)" fill="#A1A1A1"/>
<rect width="5.55091" height="5.551" transform="matrix(1 0.000189641 0.000189634 -1 0.00390625 149.877)" fill="#A1A1A1"/>
<rect width="5.55091" height="5.551" transform="matrix(1 0.000189641 0.000189634 -1 33.3086 149.877)" fill="#A1A1A1"/>
<rect width="5.55091" height="5.551" transform="matrix(1 0.000189641 0.000189634 -1 66.6133 149.877)" fill="#A1A1A1"/>
<rect width="5.55091" height="5.551" transform="matrix(1 0.000189641 0.000189634 -1 99.918 149.877)" fill="#A1A1A1"/>
<rect width="5.55091" height="5.551" transform="matrix(1 0.000189641 0.000189634 -1 133.223 149.877)" fill="#A1A1A1"/>
<rect width="5.55091" height="5.551" transform="matrix(1 0.000189641 0.000189634 -1 166.531 149.877)" fill="#A1A1A1"/>
<rect width="5.55091" height="5.551" transform="matrix(1 0.000189641 0.000189634 -1 199.836 149.877)" fill="#A1A1A1"/>
<rect width="5.55091" height="5.551" transform="matrix(1 0.000189641 0.000189634 -1 233.141 149.877)" fill="#A1A1A1"/>
<rect width="5.55091" height="5.551" transform="matrix(1 0.000189641 0.000189634 -1 266.445 149.877)" fill="#A1A1A1"/>
<rect width="5.55091" height="5.551" transform="matrix(1 0.000189641 0.000189634 -1 0.00390625 172.081)" fill="#A1A1A1"/>
<rect width="5.55091" height="5.551" transform="matrix(1 0.000189641 0.000189634 -1 33.3086 172.081)" fill="#A1A1A1"/>
<rect width="5.55091" height="5.551" transform="matrix(1 0.000189641 0.000189634 -1 66.6133 172.081)" fill="#A1A1A1"/>
<rect width="5.55091" height="5.551" transform="matrix(1 0.000189641 0.000189634 -1 99.918 172.081)" fill="#A1A1A1"/>
<rect width="5.55091" height="5.551" transform="matrix(1 0.000189641 0.000189634 -1 133.223 172.081)" fill="#A1A1A1"/>
<rect width="5.55091" height="5.551" transform="matrix(1 0.000189641 0.000189634 -1 166.531 172.081)" fill="#A1A1A1"/>
<rect width="5.55091" height="5.551" transform="matrix(1 0.000189641 0.000189634 -1 199.836 172.081)" fill="#A1A1A1"/>
<rect width="5.55091" height="5.551" transform="matrix(1 0.000189641 0.000189634 -1 233.141 172.081)" fill="#A1A1A1"/>
<rect width="5.55091" height="5.551" transform="matrix(1 0.000189641 0.000189634 -1 266.445 172.081)" fill="#A1A1A1"/>
<rect width="5.55091" height="5.551" transform="matrix(1 0.000189641 0.000189634 -1 0.00390625 194.285)" fill="#A1A1A1"/>
<rect width="5.55091" height="5.551" transform="matrix(1 0.000189641 0.000189634 -1 33.3086 194.285)" fill="#A1A1A1"/>
<rect width="5.55091" height="5.551" transform="matrix(1 0.000189641 0.000189634 -1 66.6133 194.285)" fill="#A1A1A1"/>
<rect width="5.55091" height="5.551" transform="matrix(1 0.000189641 0.000189634 -1 99.918 194.285)" fill="#A1A1A1"/>
<rect width="5.55091" height="5.551" transform="matrix(1 0.000189641 0.000189634 -1 133.223 194.285)" fill="#A1A1A1"/>
<rect width="5.55091" height="5.551" transform="matrix(1 0.000189641 0.000189634 -1 166.531 194.285)" fill="#A1A1A1"/>
<rect width="5.55091" height="5.551" transform="matrix(1 0.000189641 0.000189634 -1 199.836 194.285)" fill="#A1A1A1"/>
<rect width="5.55091" height="5.551" transform="matrix(1 0.000189641 0.000189634 -1 233.141 194.285)" fill="#A1A1A1"/>
<rect width="5.55091" height="5.551" transform="matrix(1 0.000189641 0.000189634 -1 266.445 194.285)" fill="#A1A1A1"/>
<rect width="5.55091" height="5.551" transform="matrix(1 0.000189641 0.000189634 -1 0.00390625 216.489)" fill="#A1A1A1"/>
<rect width="5.55091" height="5.551" transform="matrix(1 0.000189641 0.000189634 -1 33.3086 216.489)" fill="#A1A1A1"/>
<rect width="5.55091" height="5.551" transform="matrix(1 0.000189641 0.000189634 -1 66.6133 216.489)" fill="#A1A1A1"/>
<rect width="5.55091" height="5.551" transform="matrix(1 0.000189641 0.000189634 -1 99.918 216.489)" fill="#A1A1A1"/>
<rect width="5.55091" height="5.551" transform="matrix(1 0.000189641 0.000189634 -1 133.223 216.489)" fill="#A1A1A1"/>
<rect width="5.55091" height="5.551" transform="matrix(1 0.000189641 0.000189634 -1 166.531 216.489)" fill="#A1A1A1"/>
<rect width="5.55091" height="5.551" transform="matrix(1 0.000189641 0.000189634 -1 199.836 216.489)" fill="#A1A1A1"/>
<rect width="5.55091" height="5.551" transform="matrix(1 0.000189641 0.000189634 -1 233.141 216.489)" fill="#A1A1A1"/>
<rect width="5.55091" height="5.551" transform="matrix(1 0.000189641 0.000189634 -1 266.445 216.489)" fill="#A1A1A1"/>
<rect width="5.55091" height="5.551" transform="matrix(1 0.000189641 0.000189634 -1 0.00390625 238.693)" fill="#A1A1A1"/>
<rect width="5.55091" height="5.551" transform="matrix(1 0.000189641 0.000189634 -1 33.3086 238.693)" fill="#A1A1A1"/>
<rect width="5.55091" height="5.551" transform="matrix(1 0.000189641 0.000189634 -1 66.6133 238.693)" fill="#A1A1A1"/>
<rect width="5.55091" height="5.551" transform="matrix(1 0.000189641 0.000189634 -1 99.918 238.693)" fill="#A1A1A1"/>
<rect width="5.55091" height="5.551" transform="matrix(1 0.000189641 0.000189634 -1 133.223 238.693)" fill="#A1A1A1"/>
<rect width="5.55091" height="5.551" transform="matrix(1 0.000189641 0.000189634 -1 166.531 238.693)" fill="#A1A1A1"/>
<rect width="5.55091" height="5.551" transform="matrix(1 0.000189641 0.000189634 -1 199.836 238.693)" fill="#A1A1A1"/>
<rect width="5.55091" height="5.551" transform="matrix(1 0.000189641 0.000189634 -1 233.141 238.693)" fill="#A1A1A1"/>
<rect width="5.55091" height="5.551" transform="matrix(1 0.000189641 0.000189634 -1 266.445 238.693)" fill="#A1A1A1"/>
<rect width="5.55091" height="5.551" transform="matrix(1 0.000189641 0.000189634 -1 0.00390625 260.897)" fill="#A1A1A1"/>
<rect width="5.55091" height="5.551" transform="matrix(1 0.000189641 0.000189634 -1 33.3086 260.897)" fill="#A1A1A1"/>
<rect width="5.55091" height="5.551" transform="matrix(1 0.000189641 0.000189634 -1 66.6133 260.897)" fill="#A1A1A1"/>
<rect width="5.55091" height="5.551" transform="matrix(1 0.000189641 0.000189634 -1 99.918 260.897)" fill="#A1A1A1"/>
<rect width="5.55091" height="5.551" transform="matrix(1 0.000189641 0.000189634 -1 133.223 260.897)" fill="#A1A1A1"/>
<rect width="5.55091" height="5.551" transform="matrix(1 0.000189641 0.000189634 -1 166.531 260.897)" fill="#A1A1A1"/>
<rect width="5.55091" height="5.551" transform="matrix(1 0.000189641 0.000189634 -1 199.836 260.897)" fill="#A1A1A1"/>
<rect width="5.55091" height="5.551" transform="matrix(1 0.000189641 0.000189634 -1 233.141 260.897)" fill="#A1A1A1"/>
<rect width="5.55091" height="5.551" transform="matrix(1 0.000189641 0.000189634 -1 266.445 260.897)" fill="#A1A1A1"/>
<rect width="5.55091" height="5.551" transform="matrix(1 0.000189641 0.000189634 -1 5.55469 38.8569)" fill="#A1A1A1"/>
<rect width="5.55091" height="5.551" transform="matrix(1 0.000189641 0.000189634 -1 5.55469 5.55078)" fill="#A1A1A1"/>
<rect width="5.55091" height="5.551" transform="matrix(1 0.000189641 0.000189634 -1 5.55469 72.1631)" fill="#A1A1A1"/>
<rect width="5.55091" height="5.551" transform="matrix(1 0.000189641 0.000189634 -1 5.55469 105.469)" fill="#A1A1A1"/>
<rect width="5.55091" height="5.551" transform="matrix(1 0.000189641 0.000189634 -1 5.55469 138.775)" fill="#A1A1A1"/>
<rect width="5.55091" height="5.551" transform="matrix(1 0.000189641 0.000189634 -1 5.55469 172.081)" fill="#A1A1A1"/>
<rect width="5.55091" height="5.551" transform="matrix(1 0.000189641 0.000189634 -1 5.55469 205.387)" fill="#A1A1A1"/>
<rect width="5.55091" height="5.551" transform="matrix(1 0.000189641 0.000189634 -1 5.55469 238.693)" fill="#A1A1A1"/>
<rect width="5.55091" height="5.551" transform="matrix(1 0.000189641 0.000189634 -1 5.55469 271.999)" fill="#A1A1A1"/>
<rect width="5.551" height="5.55091" transform="matrix(-4.37107e-08 -1 -1 4.37121e-08 22.207 38.8569)" fill="#A1A1A1"/>
<rect width="5.551" height="5.55091" transform="matrix(-4.37107e-08 -1 -1 4.37121e-08 22.207 5.55078)" fill="#A1A1A1"/>
<rect width="5.551" height="5.55091" transform="matrix(-4.37107e-08 -1 -1 4.37121e-08 22.207 72.1631)" fill="#A1A1A1"/>
<rect width="5.551" height="5.55091" transform="matrix(-4.37107e-08 -1 -1 4.37121e-08 22.207 105.469)" fill="#A1A1A1"/>
<rect width="5.551" height="5.55091" transform="matrix(-4.37107e-08 -1 -1 4.37121e-08 22.207 138.775)" fill="#A1A1A1"/>
<rect width="5.551" height="5.55091" transform="matrix(-4.37107e-08 -1 -1 4.37121e-08 22.207 172.081)" fill="#A1A1A1"/>
<rect width="5.551" height="5.55091" transform="matrix(-4.37107e-08 -1 -1 4.37121e-08 22.207 205.387)" fill="#A1A1A1"/>
<rect width="5.551" height="5.55091" transform="matrix(-4.37107e-08 -1 -1 4.37121e-08 22.207 238.693)" fill="#A1A1A1"/>
<rect width="5.551" height="5.55091" transform="matrix(-4.37107e-08 -1 -1 4.37121e-08 22.207 271.999)" fill="#A1A1A1"/>
</svg>
