<svg width="250" height="85" viewBox="0 0 250 85" fill="none" xmlns="http://www.w3.org/2000/svg">
<path d="M18.7648 74.06L23.0848 81H20.5248L17.3848 75.96L14.4448 81H11.9048L16.2248 74.06L11.8848 67.1H14.4448L17.6048 72.18L20.5648 67.1H23.1048L18.7648 74.06ZM38.3232 69.8C38.1765 69.1867 37.9099 68.7267 37.5232 68.42C37.1365 68.1133 36.5965 67.96 35.9032 67.96C34.8499 67.96 34.0632 68.3667 33.5432 69.18C33.0232 69.98 32.7499 71.3133 32.7232 73.18C33.0699 72.5933 33.5765 72.14 34.2432 71.82C34.9099 71.5 35.6299 71.34 36.4032 71.34C37.2832 71.34 38.0565 71.5333 38.7232 71.92C39.4032 72.2933 39.9299 72.84 40.3032 73.56C40.6899 74.28 40.8832 75.14 40.8832 76.14C40.8832 77.0733 40.6965 77.9067 40.3232 78.64C39.9632 79.3733 39.4232 79.9533 38.7032 80.38C37.9832 80.7933 37.1165 81 36.1032 81C34.7299 81 33.6499 80.7 32.8632 80.1C32.0899 79.4867 31.5432 78.6267 31.2232 77.52C30.9165 76.4133 30.7632 75.0333 30.7632 73.38C30.7632 68.5 32.4832 66.06 35.9232 66.06C37.2565 66.06 38.3032 66.42 39.0632 67.14C39.8365 67.86 40.2899 68.7467 40.4232 69.8H38.3232ZM35.9032 73.26C35.0899 73.26 34.3965 73.5067 33.8232 74C33.2632 74.48 32.9832 75.18 32.9832 76.1C32.9832 77.02 33.2432 77.7533 33.7632 78.3C34.2965 78.8333 35.0365 79.1 35.9832 79.1C36.8232 79.1 37.4832 78.84 37.9632 78.32C38.4565 77.8 38.7032 77.1067 38.7032 76.24C38.7032 75.3333 38.4632 74.6133 37.9832 74.08C37.5165 73.5333 36.8232 73.26 35.9032 73.26Z" fill="white"/>
<path d="M216.765 74.06L221.085 81H218.525L215.385 75.96L212.445 81H209.905L214.225 74.06L209.885 67.1H212.445L215.605 72.18L218.565 67.1H221.105L216.765 74.06ZM236.323 69.8C236.177 69.1867 235.91 68.7267 235.523 68.42C235.137 68.1133 234.597 67.96 233.903 67.96C232.85 67.96 232.063 68.3667 231.543 69.18C231.023 69.98 230.75 71.3133 230.723 73.18C231.07 72.5933 231.577 72.14 232.243 71.82C232.91 71.5 233.63 71.34 234.403 71.34C235.283 71.34 236.057 71.5333 236.723 71.92C237.403 72.2933 237.93 72.84 238.303 73.56C238.69 74.28 238.883 75.14 238.883 76.14C238.883 77.0733 238.697 77.9067 238.323 78.64C237.963 79.3733 237.423 79.9533 236.703 80.38C235.983 80.7933 235.117 81 234.103 81C232.73 81 231.65 80.7 230.863 80.1C230.09 79.4867 229.543 78.6267 229.223 77.52C228.917 76.4133 228.763 75.0333 228.763 73.38C228.763 68.5 230.483 66.06 233.923 66.06C235.257 66.06 236.303 66.42 237.063 67.14C237.837 67.86 238.29 68.7467 238.423 69.8H236.323ZM233.903 73.26C233.09 73.26 232.397 73.5067 231.823 74C231.263 74.48 230.983 75.18 230.983 76.1C230.983 77.02 231.243 77.7533 231.763 78.3C232.297 78.8333 233.037 79.1 233.983 79.1C234.823 79.1 235.483 78.84 235.963 78.32C236.457 77.8 236.703 77.1067 236.703 76.24C236.703 75.3333 236.463 74.6133 235.983 74.08C235.517 73.5333 234.823 73.26 233.903 73.26Z" fill="white"/>
<circle cx="26" cy="26" r="26" fill="white"/>
<circle cx="224" cy="26" r="26" fill="black"/>
</svg>
