<svg width="272" height="272" viewBox="0 0 272 272" fill="none" xmlns="http://www.w3.org/2000/svg">
<rect x="5.79883" y="0.0117188" width="5.78731" height="5.78699" transform="rotate(90.1159 5.79883 0.0117188)" fill="#A1A1A1"/>
<rect x="5.79883" y="254.641" width="5.78731" height="5.78699" transform="rotate(90.1159 5.79883 254.641)" fill="#A1A1A1"/>
<rect x="133.112" y="0.0117188" width="5.78731" height="5.78699" transform="rotate(90.1159 133.112 0.0117188)" fill="#A1A1A1"/>
<rect x="75.2422" y="69.4609" width="5.78731" height="5.78699" transform="rotate(90.1159 75.2422 69.4609)" fill="#A1A1A1"/>
<rect x="133.112" y="69.4609" width="5.78731" height="5.78699" transform="rotate(90.1159 133.112 69.4609)" fill="#A1A1A1"/>
<rect x="190.982" y="185.199" width="5.78731" height="5.78699" transform="rotate(90.1159 190.982 185.199)" fill="#A1A1A1"/>
<rect x="75.2422" y="185.199" width="5.78731" height="5.78699" transform="rotate(90.1159 75.2422 185.199)" fill="#A1A1A1"/>
<rect x="190.982" y="69.4609" width="5.78731" height="5.78699" transform="rotate(90.1159 190.982 69.4609)" fill="#A1A1A1"/>
<rect x="133.112" y="185.199" width="5.78731" height="5.78699" transform="rotate(90.1159 133.112 185.199)" fill="#A1A1A1"/>
<rect x="254.638" y="138.891" width="5.78699" height="5.78731" transform="rotate(0.115898 254.638 138.891)" fill="#A1A1A1"/>
<rect x="0.0117188" y="138.891" width="5.78699" height="5.78731" transform="rotate(0.115898 0.0117188 138.891)" fill="#A1A1A1"/>
<rect x="133.112" y="254.641" width="5.78731" height="5.78699" transform="rotate(90.1159 133.112 254.641)" fill="#A1A1A1"/>
<rect x="133.112" y="11.582" width="5.78731" height="5.78699" transform="rotate(90.1159 133.112 11.582)" fill="#A1A1A1"/>
<rect x="75.2422" y="81.0273" width="5.78731" height="5.78699" transform="rotate(90.1159 75.2422 81.0273)" fill="#A1A1A1"/>
<rect x="133.112" y="81.0273" width="5.78731" height="5.78699" transform="rotate(90.1159 133.112 81.0273)" fill="#A1A1A1"/>
<rect x="190.982" y="196.773" width="5.78731" height="5.78699" transform="rotate(90.1159 190.982 196.773)" fill="#A1A1A1"/>
<rect x="75.2422" y="196.773" width="5.78731" height="5.78699" transform="rotate(90.1159 75.2422 196.773)" fill="#A1A1A1"/>
<rect x="190.982" y="81.0273" width="5.78731" height="5.78699" transform="rotate(90.1159 190.982 81.0273)" fill="#A1A1A1"/>
<rect x="81.0293" y="138.891" width="5.78699" height="5.78731" transform="rotate(0.115898 81.0293 138.891)" fill="#A1A1A1"/>
<rect x="185.194" y="138.891" width="5.78699" height="5.78731" transform="rotate(0.115898 185.194 138.891)" fill="#A1A1A1"/>
<rect x="196.77" y="138.891" width="5.78699" height="5.78731" transform="rotate(0.115898 196.77 138.891)" fill="#A1A1A1"/>
<rect x="69.4561" y="138.891" width="5.78699" height="5.78731" transform="rotate(0.115898 69.4561 138.891)" fill="#A1A1A1"/>
<rect x="133.112" y="196.773" width="5.78731" height="5.78699" transform="rotate(90.1159 133.112 196.773)" fill="#A1A1A1"/>
<rect x="266.211" y="138.891" width="5.78699" height="5.78731" transform="rotate(0.115898 266.211 138.891)" fill="#A1A1A1"/>
<rect x="11.585" y="138.891" width="5.78699" height="5.78731" transform="rotate(0.115898 11.585 138.891)" fill="#A1A1A1"/>
<rect x="133.112" y="266.211" width="5.78731" height="5.78699" transform="rotate(90.1159 133.112 266.211)" fill="#A1A1A1"/>
<rect x="260.424" y="0.0117188" width="5.78731" height="5.78699" transform="rotate(90.1159 260.424 0.0117188)" fill="#A1A1A1"/>
<rect x="260.424" y="254.641" width="5.78731" height="5.78699" transform="rotate(90.1159 260.424 254.641)" fill="#A1A1A1"/>
<rect x="17.3711" y="0.0117188" width="5.78731" height="5.78699" transform="rotate(90.1159 17.3711 0.0117188)" fill="#A1A1A1"/>
<rect x="17.3711" y="254.641" width="5.78731" height="5.78699" transform="rotate(90.1159 17.3711 254.641)" fill="#A1A1A1"/>
<rect x="144.687" y="0.0117188" width="5.78731" height="5.78699" transform="rotate(90.1159 144.687 0.0117188)" fill="#A1A1A1"/>
<rect x="86.8164" y="69.4609" width="5.78731" height="5.78699" transform="rotate(90.1159 86.8164 69.4609)" fill="#A1A1A1"/>
<rect x="144.687" y="69.4609" width="5.78731" height="5.78699" transform="rotate(90.1159 144.687 69.4609)" fill="#A1A1A1"/>
<rect x="202.556" y="185.199" width="5.78731" height="5.78699" transform="rotate(90.1159 202.556 185.199)" fill="#A1A1A1"/>
<rect x="86.8164" y="185.199" width="5.78731" height="5.78699" transform="rotate(90.1159 86.8164 185.199)" fill="#A1A1A1"/>
<rect x="202.556" y="69.4609" width="5.78731" height="5.78699" transform="rotate(90.1159 202.556 69.4609)" fill="#A1A1A1"/>
<rect x="144.687" y="185.199" width="5.78731" height="5.78699" transform="rotate(90.1159 144.687 185.199)" fill="#A1A1A1"/>
<rect x="254.638" y="127.32" width="5.78699" height="5.78731" transform="rotate(0.115898 254.638 127.32)" fill="#A1A1A1"/>
<rect x="0.0117188" y="127.32" width="5.78699" height="5.78731" transform="rotate(0.115898 0.0117188 127.32)" fill="#A1A1A1"/>
<rect x="144.687" y="254.641" width="5.78731" height="5.78699" transform="rotate(90.1159 144.687 254.641)" fill="#A1A1A1"/>
<rect x="144.687" y="11.582" width="5.78731" height="5.78699" transform="rotate(90.1159 144.687 11.582)" fill="#A1A1A1"/>
<rect x="86.8164" y="81.0273" width="5.78731" height="5.78699" transform="rotate(90.1159 86.8164 81.0273)" fill="#A1A1A1"/>
<rect x="144.687" y="81.0273" width="5.78731" height="5.78699" transform="rotate(90.1159 144.687 81.0273)" fill="#A1A1A1"/>
<rect x="202.556" y="196.773" width="5.78731" height="5.78699" transform="rotate(90.1159 202.556 196.773)" fill="#A1A1A1"/>
<rect x="86.8164" y="196.773" width="5.78731" height="5.78699" transform="rotate(90.1159 86.8164 196.773)" fill="#A1A1A1"/>
<rect x="202.556" y="81.0273" width="5.78731" height="5.78699" transform="rotate(90.1159 202.556 81.0273)" fill="#A1A1A1"/>
<rect x="81.0293" y="127.32" width="5.78699" height="5.78731" transform="rotate(0.115898 81.0293 127.32)" fill="#A1A1A1"/>
<rect x="185.194" y="127.32" width="5.78699" height="5.78731" transform="rotate(0.115898 185.194 127.32)" fill="#A1A1A1"/>
<rect x="196.77" y="127.32" width="5.78699" height="5.78731" transform="rotate(0.115898 196.77 127.32)" fill="#A1A1A1"/>
<rect x="69.4561" y="127.32" width="5.78699" height="5.78731" transform="rotate(0.115898 69.4561 127.32)" fill="#A1A1A1"/>
<rect x="144.687" y="196.773" width="5.78731" height="5.78699" transform="rotate(90.1159 144.687 196.773)" fill="#A1A1A1"/>
<rect x="266.211" y="127.32" width="5.78699" height="5.78731" transform="rotate(0.115898 266.211 127.32)" fill="#A1A1A1"/>
<rect x="11.585" y="127.32" width="5.78699" height="5.78731" transform="rotate(0.115898 11.585 127.32)" fill="#A1A1A1"/>
<rect x="144.687" y="266.211" width="5.78731" height="5.78699" transform="rotate(90.1159 144.687 266.211)" fill="#A1A1A1"/>
<rect x="272" y="0.0117188" width="5.78731" height="5.78699" transform="rotate(90.1159 272 0.0117188)" fill="#A1A1A1"/>
<rect x="272" y="254.641" width="5.78731" height="5.78699" transform="rotate(90.1159 272 254.641)" fill="#A1A1A1"/>
<rect x="5.79883" y="11.582" width="5.78731" height="5.78699" transform="rotate(90.1159 5.79883 11.582)" fill="#A1A1A1"/>
<rect x="5.79883" y="266.211" width="5.78731" height="5.78699" transform="rotate(90.1159 5.79883 266.211)" fill="#A1A1A1"/>
<rect x="260.424" y="11.582" width="5.78731" height="5.78699" transform="rotate(90.1159 260.424 11.582)" fill="#A1A1A1"/>
<rect x="260.424" y="266.211" width="5.78731" height="5.78699" transform="rotate(90.1159 260.424 266.211)" fill="#A1A1A1"/>
<rect x="17.3711" y="11.582" width="5.78731" height="5.78699" transform="rotate(90.1159 17.3711 11.582)" fill="#A1A1A1"/>
<rect x="17.3711" y="266.211" width="5.78731" height="5.78699" transform="rotate(90.1159 17.3711 266.211)" fill="#A1A1A1"/>
<rect x="272" y="11.582" width="5.78731" height="5.78699" transform="rotate(90.1159 272 11.582)" fill="#A1A1A1"/>
<rect x="272" y="266.211" width="5.78731" height="5.78699" transform="rotate(90.1159 272 266.211)" fill="#A1A1A1"/>
<rect x="5.79883" y="5.79297" width="5.78731" height="5.78699" transform="rotate(90.1159 5.79883 5.79297)" fill="#A1A1A1"/>
<rect x="5.79883" y="260.422" width="5.78731" height="5.78699" transform="rotate(90.1159 5.79883 260.422)" fill="#A1A1A1"/>
<rect x="260.424" y="5.79297" width="5.78731" height="5.78699" transform="rotate(90.1159 260.424 5.79297)" fill="#A1A1A1"/>
<rect x="260.424" y="260.422" width="5.78731" height="5.78699" transform="rotate(90.1159 260.424 260.422)" fill="#A1A1A1"/>
<rect x="17.3711" y="5.79297" width="5.78731" height="5.78699" transform="rotate(90.1159 17.3711 5.79297)" fill="#A1A1A1"/>
<rect x="17.3711" y="260.422" width="5.78731" height="5.78699" transform="rotate(90.1159 17.3711 260.422)" fill="#A1A1A1"/>
<rect x="272" y="5.79297" width="5.78731" height="5.78699" transform="rotate(90.1159 272 5.79297)" fill="#A1A1A1"/>
<rect x="272" y="260.422" width="5.78731" height="5.78699" transform="rotate(90.1159 272 260.422)" fill="#A1A1A1"/>
<rect x="28.9463" y="5.79297" width="5.78731" height="5.78699" transform="rotate(90.1159 28.9463 5.79297)" fill="#A1A1A1"/>
<rect x="23.1592" y="5.79297" width="5.78731" height="5.78699" transform="rotate(90.1159 23.1592 5.79297)" fill="#A1A1A1"/>
<rect x="260.424" y="243.059" width="5.78699" height="5.78731" transform="rotate(0.115898 260.424 243.059)" fill="#A1A1A1"/>
<rect x="260.424" y="248.848" width="5.78699" height="5.78731" transform="rotate(0.115898 260.424 248.848)" fill="#A1A1A1"/>
<rect x="5.79883" y="243.059" width="5.78699" height="5.78731" transform="rotate(0.115898 5.79883 243.059)" fill="#A1A1A1"/>
<rect x="5.79883" y="248.848" width="5.78699" height="5.78731" transform="rotate(0.115898 5.79883 248.848)" fill="#A1A1A1"/>
<rect x="28.9463" y="260.422" width="5.78731" height="5.78699" transform="rotate(90.1159 28.9463 260.422)" fill="#A1A1A1"/>
<rect x="23.1592" y="260.422" width="5.78731" height="5.78699" transform="rotate(90.1159 23.1592 260.422)" fill="#A1A1A1"/>
<rect x="28.9463" y="133.113" width="5.78731" height="5.78699" transform="rotate(90.1159 28.9463 133.113)" fill="#A1A1A1"/>
<rect x="133.112" y="57.8711" width="5.78699" height="5.78731" transform="rotate(0.115898 133.112 57.8711)" fill="#A1A1A1"/>
<rect x="133.112" y="243.059" width="5.78699" height="5.78731" transform="rotate(0.115898 133.112 243.059)" fill="#A1A1A1"/>
<rect x="75.2422" y="121.527" width="5.78699" height="5.78731" transform="rotate(0.115898 75.2422 121.527)" fill="#A1A1A1"/>
<rect x="190.982" y="121.527" width="5.78699" height="5.78731" transform="rotate(0.115898 190.982 121.527)" fill="#A1A1A1"/>
<rect x="121.526" y="81.0195" width="5.78731" height="5.78699" transform="rotate(-89.8841 121.526 81.0195)" fill="#A1A1A1"/>
<rect x="121.526" y="196.758" width="5.78731" height="5.78699" transform="rotate(-89.8841 121.526 196.758)" fill="#A1A1A1"/>
<rect x="75.2422" y="173.613" width="5.78699" height="5.78731" transform="rotate(0.115898 75.2422 173.613)" fill="#A1A1A1"/>
<rect x="190.982" y="173.613" width="5.78699" height="5.78731" transform="rotate(0.115898 190.982 173.613)" fill="#A1A1A1"/>
<rect x="173.608" y="81.0195" width="5.78731" height="5.78699" transform="rotate(-89.8841 173.608 81.0195)" fill="#A1A1A1"/>
<rect x="173.608" y="196.758" width="5.78731" height="5.78699" transform="rotate(-89.8841 173.608 196.758)" fill="#A1A1A1"/>
<rect x="23.1592" y="133.113" width="5.78731" height="5.78699" transform="rotate(90.1159 23.1592 133.113)" fill="#A1A1A1"/>
<rect x="133.112" y="63.6523" width="5.78699" height="5.78731" transform="rotate(0.115898 133.112 63.6523)" fill="#A1A1A1"/>
<rect x="133.112" y="248.848" width="5.78699" height="5.78731" transform="rotate(0.115898 133.112 248.848)" fill="#A1A1A1"/>
<rect x="75.2422" y="127.32" width="5.78699" height="5.78731" transform="rotate(0.115898 75.2422 127.32)" fill="#A1A1A1"/>
<rect x="190.982" y="127.32" width="5.78699" height="5.78731" transform="rotate(0.115898 190.982 127.32)" fill="#A1A1A1"/>
<rect x="69.4434" y="81.0195" width="5.78731" height="5.78699" transform="rotate(-89.8841 69.4434 81.0195)" fill="#A1A1A1"/>
<rect x="127.314" y="81.0195" width="5.78731" height="5.78699" transform="rotate(-89.8841 127.314 81.0195)" fill="#A1A1A1"/>
<rect x="185.185" y="196.758" width="5.78731" height="5.78699" transform="rotate(-89.8841 185.185 196.758)" fill="#A1A1A1"/>
<rect x="69.4434" y="196.758" width="5.78731" height="5.78699" transform="rotate(-89.8841 69.4434 196.758)" fill="#A1A1A1"/>
<rect x="185.185" y="81.0195" width="5.78731" height="5.78699" transform="rotate(-89.8841 185.185 81.0195)" fill="#A1A1A1"/>
<rect x="127.314" y="196.758" width="5.78731" height="5.78699" transform="rotate(-89.8841 127.314 196.758)" fill="#A1A1A1"/>
<rect x="75.2422" y="179.395" width="5.78699" height="5.78731" transform="rotate(0.115898 75.2422 179.395)" fill="#A1A1A1"/>
<rect x="190.982" y="179.395" width="5.78699" height="5.78731" transform="rotate(0.115898 190.982 179.395)" fill="#A1A1A1"/>
<rect x="179.397" y="81.0195" width="5.78731" height="5.78699" transform="rotate(-89.8841 179.397 81.0195)" fill="#A1A1A1"/>
<rect x="179.397" y="196.758" width="5.78731" height="5.78699" transform="rotate(-89.8841 179.397 196.758)" fill="#A1A1A1"/>
<rect x="121.538" y="5.79297" width="5.78731" height="5.78699" transform="rotate(90.1159 121.538 5.79297)" fill="#A1A1A1"/>
<rect x="260.424" y="150.465" width="5.78699" height="5.78731" transform="rotate(0.115898 260.424 150.465)" fill="#A1A1A1"/>
<rect x="5.79883" y="150.465" width="5.78699" height="5.78731" transform="rotate(0.115898 5.79883 150.465)" fill="#A1A1A1"/>
<rect x="121.538" y="260.422" width="5.78731" height="5.78699" transform="rotate(90.1159 121.538 260.422)" fill="#A1A1A1"/>
<rect x="243.064" y="133.113" width="5.78731" height="5.78699" transform="rotate(90.1159 243.064 133.113)" fill="#A1A1A1"/>
<rect x="75.2422" y="5.79297" width="5.78731" height="5.78699" transform="rotate(90.1159 75.2422 5.79297)" fill="#A1A1A1"/>
<rect x="260.424" y="196.758" width="5.78699" height="5.78731" transform="rotate(0.115898 260.424 196.758)" fill="#A1A1A1"/>
<rect x="5.79883" y="196.758" width="5.78699" height="5.78731" transform="rotate(0.115898 5.79883 196.758)" fill="#A1A1A1"/>
<rect x="75.2422" y="260.422" width="5.78731" height="5.78699" transform="rotate(90.1159 75.2422 260.422)" fill="#A1A1A1"/>
<rect x="167.834" y="5.79297" width="5.78731" height="5.78699" transform="rotate(90.1159 167.834 5.79297)" fill="#A1A1A1"/>
<rect x="260.424" y="104.168" width="5.78699" height="5.78731" transform="rotate(0.115898 260.424 104.168)" fill="#A1A1A1"/>
<rect x="5.79883" y="104.168" width="5.78699" height="5.78731" transform="rotate(0.115898 5.79883 104.168)" fill="#A1A1A1"/>
<rect x="167.834" y="260.422" width="5.78731" height="5.78699" transform="rotate(90.1159 167.834 260.422)" fill="#A1A1A1"/>
<rect x="225.703" y="5.79297" width="5.78731" height="5.78699" transform="rotate(90.1159 225.703 5.79297)" fill="#A1A1A1"/>
<rect x="260.424" y="46.293" width="5.78699" height="5.78731" transform="rotate(0.115898 260.424 46.293)" fill="#A1A1A1"/>
<rect x="5.79883" y="46.293" width="5.78699" height="5.78731" transform="rotate(0.115898 5.79883 46.293)" fill="#A1A1A1"/>
<rect x="225.703" y="260.422" width="5.78731" height="5.78699" transform="rotate(90.1159 225.703 260.422)" fill="#A1A1A1"/>
<rect x="52.0957" y="5.79297" width="5.78731" height="5.78699" transform="rotate(90.1159 52.0957 5.79297)" fill="#A1A1A1"/>
<rect x="260.424" y="219.914" width="5.78699" height="5.78731" transform="rotate(0.115898 260.424 219.914)" fill="#A1A1A1"/>
<rect x="5.79883" y="219.914" width="5.78699" height="5.78731" transform="rotate(0.115898 5.79883 219.914)" fill="#A1A1A1"/>
<rect x="52.0957" y="260.422" width="5.78731" height="5.78699" transform="rotate(90.1159 52.0957 260.422)" fill="#A1A1A1"/>
<rect x="52.0957" y="133.113" width="5.78731" height="5.78699" transform="rotate(90.1159 52.0957 133.113)" fill="#A1A1A1"/>
<rect x="133.112" y="34.7227" width="5.78699" height="5.78731" transform="rotate(0.115898 133.112 34.7227)" fill="#A1A1A1"/>
<rect x="133.112" y="219.914" width="5.78699" height="5.78731" transform="rotate(0.115898 133.112 219.914)" fill="#A1A1A1"/>
<rect x="75.2422" y="98.375" width="5.78699" height="5.78731" transform="rotate(0.115898 75.2422 98.375)" fill="#A1A1A1"/>
<rect x="190.982" y="98.375" width="5.78699" height="5.78731" transform="rotate(0.115898 190.982 98.375)" fill="#A1A1A1"/>
<rect x="98.3779" y="81.0195" width="5.78731" height="5.78699" transform="rotate(-89.8841 98.3779 81.0195)" fill="#A1A1A1"/>
<rect x="98.3779" y="196.758" width="5.78731" height="5.78699" transform="rotate(-89.8841 98.3779 196.758)" fill="#A1A1A1"/>
<rect x="75.2422" y="150.465" width="5.78699" height="5.78731" transform="rotate(0.115898 75.2422 150.465)" fill="#A1A1A1"/>
<rect x="190.982" y="150.465" width="5.78699" height="5.78731" transform="rotate(0.115898 190.982 150.465)" fill="#A1A1A1"/>
<rect x="150.461" y="81.0195" width="5.78731" height="5.78699" transform="rotate(-89.8841 150.461 81.0195)" fill="#A1A1A1"/>
<rect x="150.461" y="196.758" width="5.78731" height="5.78699" transform="rotate(-89.8841 150.461 196.758)" fill="#A1A1A1"/>
<rect x="144.687" y="5.79297" width="5.78731" height="5.78699" transform="rotate(90.1159 144.687 5.79297)" fill="#A1A1A1"/>
<rect x="260.424" y="127.32" width="5.78699" height="5.78731" transform="rotate(0.115898 260.424 127.32)" fill="#A1A1A1"/>
<rect x="5.79883" y="127.32" width="5.78699" height="5.78731" transform="rotate(0.115898 5.79883 127.32)" fill="#A1A1A1"/>
<rect x="144.687" y="260.422" width="5.78731" height="5.78699" transform="rotate(90.1159 144.687 260.422)" fill="#A1A1A1"/>
<rect x="98.3906" y="5.79297" width="5.78731" height="5.78699" transform="rotate(90.1159 98.3906 5.79297)" fill="#A1A1A1"/>
<rect x="260.424" y="173.613" width="5.78699" height="5.78731" transform="rotate(0.115898 260.424 173.613)" fill="#A1A1A1"/>
<rect x="5.79883" y="173.613" width="5.78699" height="5.78731" transform="rotate(0.115898 5.79883 173.613)" fill="#A1A1A1"/>
<rect x="98.3906" y="260.422" width="5.78731" height="5.78699" transform="rotate(90.1159 98.3906 260.422)" fill="#A1A1A1"/>
<rect x="219.916" y="133.113" width="5.78731" height="5.78699" transform="rotate(90.1159 219.916 133.113)" fill="#A1A1A1"/>
<rect x="190.982" y="5.79297" width="5.78731" height="5.78699" transform="rotate(90.1159 190.982 5.79297)" fill="#A1A1A1"/>
<rect x="260.424" y="81.0195" width="5.78699" height="5.78731" transform="rotate(0.115898 260.424 81.0195)" fill="#A1A1A1"/>
<rect x="5.79883" y="81.0195" width="5.78699" height="5.78731" transform="rotate(0.115898 5.79883 81.0195)" fill="#A1A1A1"/>
<rect x="190.982" y="260.422" width="5.78731" height="5.78699" transform="rotate(90.1159 190.982 260.422)" fill="#A1A1A1"/>
<rect x="248.852" y="5.79297" width="5.78731" height="5.78699" transform="rotate(90.1159 248.852 5.79297)" fill="#A1A1A1"/>
<rect x="260.424" y="23.1445" width="5.78699" height="5.78731" transform="rotate(0.115898 260.424 23.1445)" fill="#A1A1A1"/>
<rect x="5.79883" y="23.1445" width="5.78699" height="5.78731" transform="rotate(0.115898 5.79883 23.1445)" fill="#A1A1A1"/>
<rect x="248.852" y="260.422" width="5.78731" height="5.78699" transform="rotate(90.1159 248.852 260.422)" fill="#A1A1A1"/>
<rect x="34.7324" y="5.79297" width="5.78731" height="5.78699" transform="rotate(90.1159 34.7324 5.79297)" fill="#A1A1A1"/>
<rect x="260.424" y="237.27" width="5.78699" height="5.78731" transform="rotate(0.115898 260.424 237.27)" fill="#A1A1A1"/>
<rect x="5.79883" y="237.27" width="5.78699" height="5.78731" transform="rotate(0.115898 5.79883 237.27)" fill="#A1A1A1"/>
<rect x="34.7324" y="260.422" width="5.78731" height="5.78699" transform="rotate(90.1159 34.7324 260.422)" fill="#A1A1A1"/>
<rect x="34.7324" y="133.113" width="5.78731" height="5.78699" transform="rotate(90.1159 34.7324 133.113)" fill="#A1A1A1"/>
<rect x="133.112" y="52.082" width="5.78699" height="5.78731" transform="rotate(0.115898 133.112 52.082)" fill="#A1A1A1"/>
<rect x="133.112" y="237.27" width="5.78699" height="5.78731" transform="rotate(0.115898 133.112 237.27)" fill="#A1A1A1"/>
<rect x="75.2422" y="115.738" width="5.78699" height="5.78731" transform="rotate(0.115898 75.2422 115.738)" fill="#A1A1A1"/>
<rect x="190.982" y="115.738" width="5.78699" height="5.78731" transform="rotate(0.115898 190.982 115.738)" fill="#A1A1A1"/>
<rect x="115.739" y="81.0195" width="5.78731" height="5.78699" transform="rotate(-89.8841 115.739 81.0195)" fill="#A1A1A1"/>
<rect x="115.739" y="196.758" width="5.78731" height="5.78699" transform="rotate(-89.8841 115.739 196.758)" fill="#A1A1A1"/>
<rect x="75.2422" y="167.824" width="5.78699" height="5.78731" transform="rotate(0.115898 75.2422 167.824)" fill="#A1A1A1"/>
<rect x="190.982" y="167.824" width="5.78699" height="5.78731" transform="rotate(0.115898 190.982 167.824)" fill="#A1A1A1"/>
<rect x="167.822" y="81.0195" width="5.78731" height="5.78699" transform="rotate(-89.8841 167.822 81.0195)" fill="#A1A1A1"/>
<rect x="167.822" y="196.758" width="5.78731" height="5.78699" transform="rotate(-89.8841 167.822 196.758)" fill="#A1A1A1"/>
<rect x="127.325" y="5.79297" width="5.78731" height="5.78699" transform="rotate(90.1159 127.325 5.79297)" fill="#A1A1A1"/>
<rect x="260.424" y="144.676" width="5.78699" height="5.78731" transform="rotate(0.115898 260.424 144.676)" fill="#A1A1A1"/>
<rect x="5.79883" y="144.676" width="5.78699" height="5.78731" transform="rotate(0.115898 5.79883 144.676)" fill="#A1A1A1"/>
<rect x="127.325" y="260.422" width="5.78731" height="5.78699" transform="rotate(90.1159 127.325 260.422)" fill="#A1A1A1"/>
<rect x="248.852" y="133.113" width="5.78731" height="5.78699" transform="rotate(90.1159 248.852 133.113)" fill="#A1A1A1"/>
<rect x="81.0293" y="5.79297" width="5.78731" height="5.78699" transform="rotate(90.1159 81.0293 5.79297)" fill="#A1A1A1"/>
<rect x="260.424" y="190.969" width="5.78699" height="5.78731" transform="rotate(0.115898 260.424 190.969)" fill="#A1A1A1"/>
<rect x="5.79883" y="190.969" width="5.78699" height="5.78731" transform="rotate(0.115898 5.79883 190.969)" fill="#A1A1A1"/>
<rect x="81.0293" y="260.422" width="5.78731" height="5.78699" transform="rotate(90.1159 81.0293 260.422)" fill="#A1A1A1"/>
<rect x="173.621" y="5.79297" width="5.78731" height="5.78699" transform="rotate(90.1159 173.621 5.79297)" fill="#A1A1A1"/>
<rect x="260.424" y="98.375" width="5.78699" height="5.78731" transform="rotate(0.115898 260.424 98.375)" fill="#A1A1A1"/>
<rect x="5.79883" y="98.375" width="5.78699" height="5.78731" transform="rotate(0.115898 5.79883 98.375)" fill="#A1A1A1"/>
<rect x="173.621" y="260.422" width="5.78731" height="5.78699" transform="rotate(90.1159 173.621 260.422)" fill="#A1A1A1"/>
<rect x="231.49" y="5.79297" width="5.78731" height="5.78699" transform="rotate(90.1159 231.49 5.79297)" fill="#A1A1A1"/>
<rect x="260.424" y="40.5039" width="5.78699" height="5.78731" transform="rotate(0.115898 260.424 40.5039)" fill="#A1A1A1"/>
<rect x="5.79883" y="40.5039" width="5.78699" height="5.78731" transform="rotate(0.115898 5.79883 40.5039)" fill="#A1A1A1"/>
<rect x="231.49" y="260.422" width="5.78731" height="5.78699" transform="rotate(90.1159 231.49 260.422)" fill="#A1A1A1"/>
<rect x="57.8809" y="5.79297" width="5.78731" height="5.78699" transform="rotate(90.1159 57.8809 5.79297)" fill="#A1A1A1"/>
<rect x="260.424" y="214.125" width="5.78699" height="5.78731" transform="rotate(0.115898 260.424 214.125)" fill="#A1A1A1"/>
<rect x="5.79883" y="214.125" width="5.78699" height="5.78731" transform="rotate(0.115898 5.79883 214.125)" fill="#A1A1A1"/>
<rect x="57.8809" y="260.422" width="5.78731" height="5.78699" transform="rotate(90.1159 57.8809 260.422)" fill="#A1A1A1"/>
<rect x="57.8809" y="133.113" width="5.78731" height="5.78699" transform="rotate(90.1159 57.8809 133.113)" fill="#A1A1A1"/>
<rect x="133.112" y="28.9336" width="5.78699" height="5.78731" transform="rotate(0.115898 133.112 28.9336)" fill="#A1A1A1"/>
<rect x="133.112" y="214.125" width="5.78699" height="5.78731" transform="rotate(0.115898 133.112 214.125)" fill="#A1A1A1"/>
<rect x="75.2422" y="92.5898" width="5.78699" height="5.78731" transform="rotate(0.115898 75.2422 92.5898)" fill="#A1A1A1"/>
<rect x="190.982" y="92.5898" width="5.78699" height="5.78731" transform="rotate(0.115898 190.982 92.5898)" fill="#A1A1A1"/>
<rect x="92.5908" y="81.0195" width="5.78731" height="5.78699" transform="rotate(-89.8841 92.5908 81.0195)" fill="#A1A1A1"/>
<rect x="92.5908" y="196.758" width="5.78731" height="5.78699" transform="rotate(-89.8841 92.5908 196.758)" fill="#A1A1A1"/>
<rect x="75.2422" y="144.676" width="5.78699" height="5.78731" transform="rotate(0.115898 75.2422 144.676)" fill="#A1A1A1"/>
<rect x="190.982" y="144.676" width="5.78699" height="5.78731" transform="rotate(0.115898 190.982 144.676)" fill="#A1A1A1"/>
<rect x="144.674" y="81.0195" width="5.78731" height="5.78699" transform="rotate(-89.8841 144.674 81.0195)" fill="#A1A1A1"/>
<rect x="144.674" y="196.758" width="5.78731" height="5.78699" transform="rotate(-89.8841 144.674 196.758)" fill="#A1A1A1"/>
<rect x="150.474" y="5.79297" width="5.78731" height="5.78699" transform="rotate(90.1159 150.474 5.79297)" fill="#A1A1A1"/>
<rect x="260.424" y="121.527" width="5.78699" height="5.78731" transform="rotate(0.115898 260.424 121.527)" fill="#A1A1A1"/>
<rect x="5.79883" y="121.527" width="5.78699" height="5.78731" transform="rotate(0.115898 5.79883 121.527)" fill="#A1A1A1"/>
<rect x="150.474" y="260.422" width="5.78731" height="5.78699" transform="rotate(90.1159 150.474 260.422)" fill="#A1A1A1"/>
<rect x="104.178" y="5.79297" width="5.78731" height="5.78699" transform="rotate(90.1159 104.178 5.79297)" fill="#A1A1A1"/>
<rect x="260.424" y="167.824" width="5.78699" height="5.78731" transform="rotate(0.115898 260.424 167.824)" fill="#A1A1A1"/>
<rect x="5.79883" y="167.824" width="5.78699" height="5.78731" transform="rotate(0.115898 5.79883 167.824)" fill="#A1A1A1"/>
<rect x="104.178" y="260.422" width="5.78731" height="5.78699" transform="rotate(90.1159 104.178 260.422)" fill="#A1A1A1"/>
<rect x="225.703" y="133.113" width="5.78731" height="5.78699" transform="rotate(90.1159 225.703 133.113)" fill="#A1A1A1"/>
<rect x="196.77" y="5.79297" width="5.78731" height="5.78699" transform="rotate(90.1159 196.77 5.79297)" fill="#A1A1A1"/>
<rect x="260.424" y="75.2305" width="5.78699" height="5.78731" transform="rotate(0.115898 260.424 75.2305)" fill="#A1A1A1"/>
<rect x="5.79883" y="75.2305" width="5.78699" height="5.78731" transform="rotate(0.115898 5.79883 75.2305)" fill="#A1A1A1"/>
<rect x="196.77" y="260.422" width="5.78731" height="5.78699" transform="rotate(90.1159 196.77 260.422)" fill="#A1A1A1"/>
<rect x="254.638" y="5.79297" width="5.78731" height="5.78699" transform="rotate(90.1159 254.638 5.79297)" fill="#A1A1A1"/>
<rect x="260.424" y="17.3594" width="5.78699" height="5.78731" transform="rotate(0.115898 260.424 17.3594)" fill="#A1A1A1"/>
<rect x="5.79883" y="17.3594" width="5.78699" height="5.78731" transform="rotate(0.115898 5.79883 17.3594)" fill="#A1A1A1"/>
<rect x="254.638" y="260.422" width="5.78731" height="5.78699" transform="rotate(90.1159 254.638 260.422)" fill="#A1A1A1"/>
<rect x="40.5195" y="5.79297" width="5.78731" height="5.78699" transform="rotate(90.1159 40.5195 5.79297)" fill="#A1A1A1"/>
<rect x="260.424" y="231.484" width="5.78699" height="5.78731" transform="rotate(0.115898 260.424 231.484)" fill="#A1A1A1"/>
<rect x="5.79883" y="231.484" width="5.78699" height="5.78731" transform="rotate(0.115898 5.79883 231.484)" fill="#A1A1A1"/>
<rect x="40.5195" y="260.422" width="5.78731" height="5.78699" transform="rotate(90.1159 40.5195 260.422)" fill="#A1A1A1"/>
<rect x="40.5195" y="133.113" width="5.78731" height="5.78699" transform="rotate(90.1159 40.5195 133.113)" fill="#A1A1A1"/>
<rect x="133.112" y="46.293" width="5.78699" height="5.78731" transform="rotate(0.115898 133.112 46.293)" fill="#A1A1A1"/>
<rect x="133.112" y="231.484" width="5.78699" height="5.78731" transform="rotate(0.115898 133.112 231.484)" fill="#A1A1A1"/>
<rect x="75.2422" y="109.945" width="5.78699" height="5.78731" transform="rotate(0.115898 75.2422 109.945)" fill="#A1A1A1"/>
<rect x="190.982" y="109.945" width="5.78699" height="5.78731" transform="rotate(0.115898 190.982 109.945)" fill="#A1A1A1"/>
<rect x="109.953" y="81.0195" width="5.78731" height="5.78699" transform="rotate(-89.8841 109.953 81.0195)" fill="#A1A1A1"/>
<rect x="109.953" y="196.758" width="5.78731" height="5.78699" transform="rotate(-89.8841 109.953 196.758)" fill="#A1A1A1"/>
<rect x="75.2422" y="162.035" width="5.78699" height="5.78731" transform="rotate(0.115898 75.2422 162.035)" fill="#A1A1A1"/>
<rect x="190.982" y="162.035" width="5.78699" height="5.78731" transform="rotate(0.115898 190.982 162.035)" fill="#A1A1A1"/>
<rect x="162.035" y="81.0195" width="5.78731" height="5.78699" transform="rotate(-89.8841 162.035 81.0195)" fill="#A1A1A1"/>
<rect x="162.035" y="196.758" width="5.78731" height="5.78699" transform="rotate(-89.8841 162.035 196.758)" fill="#A1A1A1"/>
<rect x="133.112" y="5.79297" width="5.78731" height="5.78699" transform="rotate(90.1159 133.112 5.79297)" fill="#A1A1A1"/>
<rect x="260.424" y="138.891" width="5.78699" height="5.78731" transform="rotate(0.115898 260.424 138.891)" fill="#A1A1A1"/>
<rect x="5.79883" y="138.891" width="5.78699" height="5.78731" transform="rotate(0.115898 5.79883 138.891)" fill="#A1A1A1"/>
<rect x="133.112" y="260.422" width="5.78731" height="5.78699" transform="rotate(90.1159 133.112 260.422)" fill="#A1A1A1"/>
<rect x="254.638" y="133.113" width="5.78731" height="5.78699" transform="rotate(90.1159 254.638 133.113)" fill="#A1A1A1"/>
<rect x="86.8164" y="5.79297" width="5.78731" height="5.78699" transform="rotate(90.1159 86.8164 5.79297)" fill="#A1A1A1"/>
<rect x="260.424" y="185.184" width="5.78699" height="5.78731" transform="rotate(0.115898 260.424 185.184)" fill="#A1A1A1"/>
<rect x="5.79883" y="185.184" width="5.78699" height="5.78731" transform="rotate(0.115898 5.79883 185.184)" fill="#A1A1A1"/>
<rect x="86.8164" y="260.422" width="5.78731" height="5.78699" transform="rotate(90.1159 86.8164 260.422)" fill="#A1A1A1"/>
<rect x="208.342" y="133.113" width="5.78731" height="5.78699" transform="rotate(90.1159 208.342 133.113)" fill="#A1A1A1"/>
<rect x="202.556" y="133.113" width="5.78731" height="5.78699" transform="rotate(90.1159 202.556 133.113)" fill="#A1A1A1"/>
<rect x="179.407" y="5.79297" width="5.78731" height="5.78699" transform="rotate(90.1159 179.407 5.79297)" fill="#A1A1A1"/>
<rect x="260.424" y="92.5898" width="5.78699" height="5.78731" transform="rotate(0.115898 260.424 92.5898)" fill="#A1A1A1"/>
<rect x="5.79883" y="92.5898" width="5.78699" height="5.78731" transform="rotate(0.115898 5.79883 92.5898)" fill="#A1A1A1"/>
<rect x="179.407" y="260.422" width="5.78731" height="5.78699" transform="rotate(90.1159 179.407 260.422)" fill="#A1A1A1"/>
<rect x="237.277" y="5.79297" width="5.78731" height="5.78699" transform="rotate(90.1159 237.277 5.79297)" fill="#A1A1A1"/>
<rect x="260.424" y="34.7227" width="5.78699" height="5.78731" transform="rotate(0.115898 260.424 34.7227)" fill="#A1A1A1"/>
<rect x="5.79883" y="34.7227" width="5.78699" height="5.78731" transform="rotate(0.115898 5.79883 34.7227)" fill="#A1A1A1"/>
<rect x="237.277" y="260.422" width="5.78731" height="5.78699" transform="rotate(90.1159 237.277 260.422)" fill="#A1A1A1"/>
<rect x="63.6699" y="5.79297" width="5.78731" height="5.78699" transform="rotate(90.1159 63.6699 5.79297)" fill="#A1A1A1"/>
<rect x="260.424" y="208.332" width="5.78699" height="5.78731" transform="rotate(0.115898 260.424 208.332)" fill="#A1A1A1"/>
<rect x="5.79883" y="208.332" width="5.78699" height="5.78731" transform="rotate(0.115898 5.79883 208.332)" fill="#A1A1A1"/>
<rect x="63.6699" y="260.422" width="5.78731" height="5.78699" transform="rotate(90.1159 63.6699 260.422)" fill="#A1A1A1"/>
<rect x="63.6699" y="133.113" width="5.78731" height="5.78699" transform="rotate(90.1159 63.6699 133.113)" fill="#A1A1A1"/>
<rect x="133.112" y="23.1445" width="5.78699" height="5.78731" transform="rotate(0.115898 133.112 23.1445)" fill="#A1A1A1"/>
<rect x="133.112" y="208.332" width="5.78699" height="5.78731" transform="rotate(0.115898 133.112 208.332)" fill="#A1A1A1"/>
<rect x="75.2422" y="86.8008" width="5.78699" height="5.78731" transform="rotate(0.115898 75.2422 86.8008)" fill="#A1A1A1"/>
<rect x="75.2422" y="81.0195" width="5.78699" height="5.78731" transform="rotate(0.115898 75.2422 81.0195)" fill="#A1A1A1"/>
<rect x="133.112" y="81.0195" width="5.78699" height="5.78731" transform="rotate(0.115898 133.112 81.0195)" fill="#A1A1A1"/>
<rect x="190.982" y="196.758" width="5.78699" height="5.78731" transform="rotate(0.115898 190.982 196.758)" fill="#A1A1A1"/>
<rect x="75.2422" y="196.758" width="5.78699" height="5.78731" transform="rotate(0.115898 75.2422 196.758)" fill="#A1A1A1"/>
<rect x="190.982" y="81.0195" width="5.78699" height="5.78731" transform="rotate(0.115898 190.982 81.0195)" fill="#A1A1A1"/>
<rect x="190.982" y="86.8008" width="5.78699" height="5.78731" transform="rotate(0.115898 190.982 86.8008)" fill="#A1A1A1"/>
<rect x="86.8057" y="81.0195" width="5.78731" height="5.78699" transform="rotate(-89.8841 86.8057 81.0195)" fill="#A1A1A1"/>
<rect x="86.8057" y="196.758" width="5.78731" height="5.78699" transform="rotate(-89.8841 86.8057 196.758)" fill="#A1A1A1"/>
<rect x="75.2422" y="138.891" width="5.78699" height="5.78731" transform="rotate(0.115898 75.2422 138.891)" fill="#A1A1A1"/>
<rect x="190.982" y="138.891" width="5.78699" height="5.78731" transform="rotate(0.115898 190.982 138.891)" fill="#A1A1A1"/>
<rect x="81.0186" y="81.0195" width="5.78731" height="5.78699" transform="rotate(-89.8841 81.0186 81.0195)" fill="#A1A1A1"/>
<rect x="138.887" y="81.0195" width="5.78731" height="5.78699" transform="rotate(-89.8841 138.887 81.0195)" fill="#A1A1A1"/>
<rect x="196.758" y="196.758" width="5.78731" height="5.78699" transform="rotate(-89.8841 196.758 196.758)" fill="#A1A1A1"/>
<rect x="81.0186" y="196.758" width="5.78731" height="5.78699" transform="rotate(-89.8841 81.0186 196.758)" fill="#A1A1A1"/>
<rect x="196.758" y="81.0195" width="5.78731" height="5.78699" transform="rotate(-89.8841 196.758 81.0195)" fill="#A1A1A1"/>
<rect x="138.887" y="196.758" width="5.78731" height="5.78699" transform="rotate(-89.8841 138.887 196.758)" fill="#A1A1A1"/>
<rect x="156.26" y="5.79297" width="5.78731" height="5.78699" transform="rotate(90.1159 156.26 5.79297)" fill="#A1A1A1"/>
<rect x="260.424" y="115.738" width="5.78699" height="5.78731" transform="rotate(0.115898 260.424 115.738)" fill="#A1A1A1"/>
<rect x="5.79883" y="115.738" width="5.78699" height="5.78731" transform="rotate(0.115898 5.79883 115.738)" fill="#A1A1A1"/>
<rect x="156.26" y="260.422" width="5.78731" height="5.78699" transform="rotate(90.1159 156.26 260.422)" fill="#A1A1A1"/>
<rect x="214.129" y="5.79297" width="5.78731" height="5.78699" transform="rotate(90.1159 214.129 5.79297)" fill="#A1A1A1"/>
<rect x="260.424" y="57.8711" width="5.78699" height="5.78731" transform="rotate(0.115898 260.424 57.8711)" fill="#A1A1A1"/>
<rect x="5.79883" y="57.8711" width="5.78699" height="5.78731" transform="rotate(0.115898 5.79883 57.8711)" fill="#A1A1A1"/>
<rect x="214.129" y="260.422" width="5.78731" height="5.78699" transform="rotate(90.1159 214.129 260.422)" fill="#A1A1A1"/>
<rect x="109.964" y="5.79297" width="5.78731" height="5.78699" transform="rotate(90.1159 109.964 5.79297)" fill="#A1A1A1"/>
<rect x="260.424" y="162.035" width="5.78699" height="5.78731" transform="rotate(0.115898 260.424 162.035)" fill="#A1A1A1"/>
<rect x="5.79883" y="162.035" width="5.78699" height="5.78731" transform="rotate(0.115898 5.79883 162.035)" fill="#A1A1A1"/>
<rect x="109.964" y="260.422" width="5.78731" height="5.78699" transform="rotate(90.1159 109.964 260.422)" fill="#A1A1A1"/>
<rect x="231.49" y="133.113" width="5.78731" height="5.78699" transform="rotate(90.1159 231.49 133.113)" fill="#A1A1A1"/>
<rect x="202.556" y="5.79297" width="5.78731" height="5.78699" transform="rotate(90.1159 202.556 5.79297)" fill="#A1A1A1"/>
<rect x="260.424" y="69.4414" width="5.78699" height="5.78731" transform="rotate(0.115898 260.424 69.4414)" fill="#A1A1A1"/>
<rect x="5.79883" y="69.4414" width="5.78699" height="5.78731" transform="rotate(0.115898 5.79883 69.4414)" fill="#A1A1A1"/>
<rect x="202.556" y="260.422" width="5.78731" height="5.78699" transform="rotate(90.1159 202.556 260.422)" fill="#A1A1A1"/>
<rect x="46.3086" y="5.79297" width="5.78731" height="5.78699" transform="rotate(90.1159 46.3086 5.79297)" fill="#A1A1A1"/>
<rect x="260.424" y="225.695" width="5.78699" height="5.78731" transform="rotate(0.115898 260.424 225.695)" fill="#A1A1A1"/>
<rect x="5.79883" y="225.695" width="5.78699" height="5.78731" transform="rotate(0.115898 5.79883 225.695)" fill="#A1A1A1"/>
<rect x="46.3086" y="260.422" width="5.78731" height="5.78699" transform="rotate(90.1159 46.3086 260.422)" fill="#A1A1A1"/>
<rect x="46.3086" y="133.113" width="5.78731" height="5.78699" transform="rotate(90.1159 46.3086 133.113)" fill="#A1A1A1"/>
<rect x="133.112" y="40.5039" width="5.78699" height="5.78731" transform="rotate(0.115898 133.112 40.5039)" fill="#A1A1A1"/>
<rect x="133.112" y="225.695" width="5.78699" height="5.78731" transform="rotate(0.115898 133.112 225.695)" fill="#A1A1A1"/>
<rect x="75.2422" y="104.168" width="5.78699" height="5.78731" transform="rotate(0.115898 75.2422 104.168)" fill="#A1A1A1"/>
<rect x="190.982" y="104.168" width="5.78699" height="5.78731" transform="rotate(0.115898 190.982 104.168)" fill="#A1A1A1"/>
<rect x="104.166" y="81.0195" width="5.78731" height="5.78699" transform="rotate(-89.8841 104.166 81.0195)" fill="#A1A1A1"/>
<rect x="104.166" y="196.758" width="5.78731" height="5.78699" transform="rotate(-89.8841 104.166 196.758)" fill="#A1A1A1"/>
<rect x="75.2422" y="156.246" width="5.78699" height="5.78731" transform="rotate(0.115898 75.2422 156.246)" fill="#A1A1A1"/>
<rect x="190.982" y="156.246" width="5.78699" height="5.78731" transform="rotate(0.115898 190.982 156.246)" fill="#A1A1A1"/>
<rect x="156.248" y="81.0195" width="5.78731" height="5.78699" transform="rotate(-89.8841 156.248 81.0195)" fill="#A1A1A1"/>
<rect x="156.248" y="196.758" width="5.78731" height="5.78699" transform="rotate(-89.8841 156.248 196.758)" fill="#A1A1A1"/>
<rect x="92.6045" y="5.79297" width="5.78731" height="5.78699" transform="rotate(90.1159 92.6045 5.79297)" fill="#A1A1A1"/>
<rect x="260.424" y="179.395" width="5.78699" height="5.78731" transform="rotate(0.115898 260.424 179.395)" fill="#A1A1A1"/>
<rect x="5.79883" y="179.395" width="5.78699" height="5.78731" transform="rotate(0.115898 5.79883 179.395)" fill="#A1A1A1"/>
<rect x="92.6045" y="260.422" width="5.78731" height="5.78699" transform="rotate(90.1159 92.6045 260.422)" fill="#A1A1A1"/>
<rect x="214.129" y="133.113" width="5.78731" height="5.78699" transform="rotate(90.1159 214.129 133.113)" fill="#A1A1A1"/>
<rect x="185.194" y="5.79297" width="5.78731" height="5.78699" transform="rotate(90.1159 185.194 5.79297)" fill="#A1A1A1"/>
<rect x="260.424" y="86.8008" width="5.78699" height="5.78731" transform="rotate(0.115898 260.424 86.8008)" fill="#A1A1A1"/>
<rect x="5.79883" y="86.8008" width="5.78699" height="5.78731" transform="rotate(0.115898 5.79883 86.8008)" fill="#A1A1A1"/>
<rect x="185.194" y="260.422" width="5.78731" height="5.78699" transform="rotate(90.1159 185.194 260.422)" fill="#A1A1A1"/>
<rect x="243.064" y="5.79297" width="5.78731" height="5.78699" transform="rotate(90.1159 243.064 5.79297)" fill="#A1A1A1"/>
<rect x="260.424" y="28.9336" width="5.78699" height="5.78731" transform="rotate(0.115898 260.424 28.9336)" fill="#A1A1A1"/>
<rect x="5.79883" y="28.9336" width="5.78699" height="5.78731" transform="rotate(0.115898 5.79883 28.9336)" fill="#A1A1A1"/>
<rect x="243.064" y="260.422" width="5.78731" height="5.78699" transform="rotate(90.1159 243.064 260.422)" fill="#A1A1A1"/>
<rect x="69.4561" y="5.79297" width="5.78731" height="5.78699" transform="rotate(90.1159 69.4561 5.79297)" fill="#A1A1A1"/>
<rect x="260.424" y="202.539" width="5.78699" height="5.78731" transform="rotate(0.115898 260.424 202.539)" fill="#A1A1A1"/>
<rect x="5.79883" y="202.539" width="5.78699" height="5.78731" transform="rotate(0.115898 5.79883 202.539)" fill="#A1A1A1"/>
<rect x="69.4561" y="260.422" width="5.78731" height="5.78699" transform="rotate(90.1159 69.4561 260.422)" fill="#A1A1A1"/>
<rect x="69.4561" y="133.113" width="5.78731" height="5.78699" transform="rotate(90.1159 69.4561 133.113)" fill="#A1A1A1"/>
<rect x="133.112" y="17.3594" width="5.78699" height="5.78731" transform="rotate(0.115898 133.112 17.3594)" fill="#A1A1A1"/>
<rect x="133.112" y="202.539" width="5.78699" height="5.78731" transform="rotate(0.115898 133.112 202.539)" fill="#A1A1A1"/>
<rect x="75.2422" y="133.113" width="5.78731" height="5.78699" transform="rotate(90.1159 75.2422 133.113)" fill="#A1A1A1"/>
<rect x="162.046" y="5.79297" width="5.78731" height="5.78699" transform="rotate(90.1159 162.046 5.79297)" fill="#A1A1A1"/>
<rect x="260.424" y="109.945" width="5.78699" height="5.78731" transform="rotate(0.115898 260.424 109.945)" fill="#A1A1A1"/>
<rect x="5.79883" y="109.945" width="5.78699" height="5.78731" transform="rotate(0.115898 5.79883 109.945)" fill="#A1A1A1"/>
<rect x="162.046" y="260.422" width="5.78731" height="5.78699" transform="rotate(90.1159 162.046 260.422)" fill="#A1A1A1"/>
<rect x="219.916" y="5.79297" width="5.78731" height="5.78699" transform="rotate(90.1159 219.916 5.79297)" fill="#A1A1A1"/>
<rect x="260.424" y="52.082" width="5.78699" height="5.78731" transform="rotate(0.115898 260.424 52.082)" fill="#A1A1A1"/>
<rect x="5.79883" y="52.082" width="5.78699" height="5.78731" transform="rotate(0.115898 5.79883 52.082)" fill="#A1A1A1"/>
<rect x="219.916" y="260.422" width="5.78731" height="5.78699" transform="rotate(90.1159 219.916 260.422)" fill="#A1A1A1"/>
<rect x="115.75" y="5.79297" width="5.78731" height="5.78699" transform="rotate(90.1159 115.75 5.79297)" fill="#A1A1A1"/>
<rect x="260.424" y="156.246" width="5.78699" height="5.78731" transform="rotate(0.115898 260.424 156.246)" fill="#A1A1A1"/>
<rect x="5.79883" y="156.246" width="5.78699" height="5.78731" transform="rotate(0.115898 5.79883 156.246)" fill="#A1A1A1"/>
<rect x="115.75" y="260.422" width="5.78731" height="5.78699" transform="rotate(90.1159 115.75 260.422)" fill="#A1A1A1"/>
<rect x="237.277" y="133.113" width="5.78731" height="5.78699" transform="rotate(90.1159 237.277 133.113)" fill="#A1A1A1"/>
<rect x="208.342" y="5.79297" width="5.78731" height="5.78699" transform="rotate(90.1159 208.342 5.79297)" fill="#A1A1A1"/>
<rect x="260.424" y="63.6523" width="5.78699" height="5.78731" transform="rotate(0.115898 260.424 63.6523)" fill="#A1A1A1"/>
<rect x="5.79883" y="63.6523" width="5.78699" height="5.78731" transform="rotate(0.115898 5.79883 63.6523)" fill="#A1A1A1"/>
<rect x="208.342" y="260.422" width="5.78731" height="5.78699" transform="rotate(90.1159 208.342 260.422)" fill="#A1A1A1"/>
<rect x="11.585" y="0.0117188" width="5.78731" height="5.78699" transform="rotate(90.1159 11.585 0.0117188)" fill="#A1A1A1"/>
<rect x="11.585" y="254.641" width="5.78731" height="5.78699" transform="rotate(90.1159 11.585 254.641)" fill="#A1A1A1"/>
<rect x="138.898" y="0.0117188" width="5.78731" height="5.78699" transform="rotate(90.1159 138.898 0.0117188)" fill="#A1A1A1"/>
<rect x="81.0293" y="69.4609" width="5.78731" height="5.78699" transform="rotate(90.1159 81.0293 69.4609)" fill="#A1A1A1"/>
<rect x="138.898" y="69.4609" width="5.78731" height="5.78699" transform="rotate(90.1159 138.898 69.4609)" fill="#A1A1A1"/>
<rect x="196.77" y="185.199" width="5.78731" height="5.78699" transform="rotate(90.1159 196.77 185.199)" fill="#A1A1A1"/>
<rect x="81.0293" y="185.199" width="5.78731" height="5.78699" transform="rotate(90.1159 81.0293 185.199)" fill="#A1A1A1"/>
<rect x="196.77" y="69.4609" width="5.78731" height="5.78699" transform="rotate(90.1159 196.77 69.4609)" fill="#A1A1A1"/>
<rect x="138.898" y="185.199" width="5.78731" height="5.78699" transform="rotate(90.1159 138.898 185.199)" fill="#A1A1A1"/>
<rect x="254.638" y="133.102" width="5.78699" height="5.78731" transform="rotate(0.115898 254.638 133.102)" fill="#A1A1A1"/>
<rect x="0.0117188" y="133.102" width="5.78699" height="5.78731" transform="rotate(0.115898 0.0117188 133.102)" fill="#A1A1A1"/>
<rect x="138.898" y="254.641" width="5.78731" height="5.78699" transform="rotate(90.1159 138.898 254.641)" fill="#A1A1A1"/>
<rect x="138.898" y="11.582" width="5.78731" height="5.78699" transform="rotate(90.1159 138.898 11.582)" fill="#A1A1A1"/>
<rect x="81.0293" y="133.102" width="5.78699" height="5.78731" transform="rotate(0.115898 81.0293 133.102)" fill="#A1A1A1"/>
<rect x="185.194" y="133.102" width="5.78699" height="5.78731" transform="rotate(0.115898 185.194 133.102)" fill="#A1A1A1"/>
<rect x="138.898" y="196.773" width="5.78731" height="5.78699" transform="rotate(90.1159 138.898 196.773)" fill="#A1A1A1"/>
<rect x="266.211" y="133.102" width="5.78699" height="5.78731" transform="rotate(0.115898 266.211 133.102)" fill="#A1A1A1"/>
<rect x="11.585" y="133.102" width="5.78699" height="5.78731" transform="rotate(0.115898 11.585 133.102)" fill="#A1A1A1"/>
<rect x="138.898" y="266.211" width="5.78731" height="5.78699" transform="rotate(90.1159 138.898 266.211)" fill="#A1A1A1"/>
<rect x="266.211" y="0.0117188" width="5.78731" height="5.78699" transform="rotate(90.1159 266.211 0.0117188)" fill="#A1A1A1"/>
<rect x="266.211" y="254.641" width="5.78731" height="5.78699" transform="rotate(90.1159 266.211 254.641)" fill="#A1A1A1"/>
<rect x="11.585" y="11.582" width="5.78731" height="5.78699" transform="rotate(90.1159 11.585 11.582)" fill="#A1A1A1"/>
<rect x="11.585" y="266.211" width="5.78731" height="5.78699" transform="rotate(90.1159 11.585 266.211)" fill="#A1A1A1"/>
<rect x="266.211" y="11.582" width="5.78731" height="5.78699" transform="rotate(90.1159 266.211 11.582)" fill="#A1A1A1"/>
<rect x="266.211" y="266.211" width="5.78731" height="5.78699" transform="rotate(90.1159 266.211 266.211)" fill="#A1A1A1"/>
</svg>
