<svg width="250" height="85" viewBox="0 0 250 85" fill="none" xmlns="http://www.w3.org/2000/svg">
<path d="M14.9132 74.06L19.2332 81H16.6732L13.5332 75.96L10.5932 81H8.0532L12.3732 74.06L8.0332 67.1H10.5932L13.7532 72.18L16.7132 67.1H19.2532L14.9132 74.06ZM26.3316 68.5V66.42H30.4916V81H28.1916V68.5H26.3316ZM34.8838 77.9C36.1638 76.7933 37.1705 75.8867 37.9038 75.18C38.6505 74.46 39.2705 73.7133 39.7638 72.94C40.2572 72.1667 40.5038 71.3933 40.5038 70.62C40.5038 69.82 40.3105 69.1933 39.9238 68.74C39.5505 68.2867 38.9572 68.06 38.1438 68.06C37.3572 68.06 36.7438 68.3133 36.3038 68.82C35.8772 69.3133 35.6505 69.98 35.6238 70.82H33.4238C33.4638 69.3 33.9172 68.14 34.7838 67.34C35.6638 66.5267 36.7772 66.12 38.1238 66.12C39.5772 66.12 40.7105 66.52 41.5238 67.32C42.3505 68.12 42.7638 69.1867 42.7638 70.52C42.7638 71.48 42.5172 72.4067 42.0238 73.3C41.5438 74.18 40.9638 74.9733 40.2838 75.68C39.6172 76.3733 38.7638 77.18 37.7238 78.1L36.8238 78.9H43.1638V80.8H33.4438V79.14L34.8838 77.9Z" fill="white"/>
<path d="M213.413 74.06L217.733 81H215.173L212.033 75.96L209.093 81H206.553L210.873 74.06L206.533 67.1H209.093L212.253 72.18L215.213 67.1H217.753L213.413 74.06ZM224.832 68.5V66.42H228.992V81H226.692V68.5H224.832ZM233.384 77.9C234.664 76.7933 235.67 75.8867 236.404 75.18C237.15 74.46 237.77 73.7133 238.264 72.94C238.757 72.1667 239.004 71.3933 239.004 70.62C239.004 69.82 238.81 69.1933 238.424 68.74C238.05 68.2867 237.457 68.06 236.644 68.06C235.857 68.06 235.244 68.3133 234.804 68.82C234.377 69.3133 234.15 69.98 234.124 70.82H231.924C231.964 69.3 232.417 68.14 233.284 67.34C234.164 66.5267 235.277 66.12 236.624 66.12C238.077 66.12 239.21 66.52 240.024 67.32C240.85 68.12 241.264 69.1867 241.264 70.52C241.264 71.48 241.017 72.4067 240.524 73.3C240.044 74.18 239.464 74.9733 238.784 75.68C238.117 76.3733 237.264 77.18 236.224 78.1L235.324 78.9H241.664V80.8H231.944V79.14L233.384 77.9Z" fill="white"/>
<circle cx="26" cy="26" r="26" fill="white"/>
<circle cx="224" cy="26" r="26" fill="black"/>
</svg>
