<svg width="15" height="14" viewBox="0 0 15 14" fill="none" xmlns="http://www.w3.org/2000/svg">
<path d="M5.625 7.5C7.69606 7.5 9.375 5.82106 9.375 3.75C9.375 1.67893 7.69606 0 5.625 0C3.55393 0 1.875 1.67893 1.875 3.75C1.875 5.82106 3.55393 7.5 5.625 7.5Z" fill="white"/>
<path d="M4.01786 8.125C1.79886 8.125 0 9.92388 0 12.1429C0 13.0304 0.719544 13.75 1.60714 13.75H9.64288C10.5304 13.75 11.25 13.0304 11.25 12.1429C11.25 9.92388 9.45113 8.125 7.23212 8.125H4.01786Z" fill="white"/>
<path d="M9.89967 6.34719C9.78723 6.53181 9.87092 6.77994 10.0835 6.81925C10.2664 6.85313 10.4554 6.875 10.6263 6.875C12.3522 6.875 13.7513 5.47589 13.7513 3.75C13.7513 2.02411 12.3522 0.625 10.6263 0.625C10.4554 0.625 10.2664 0.646906 10.0835 0.68075C9.87092 0.720081 9.78723 0.9682 9.89967 1.15279C10.3607 1.90976 10.6263 2.79887 10.6263 3.75C10.6263 4.70113 10.3607 5.59024 9.89967 6.34719Z" fill="white"/>
<path d="M12.2854 13.2306C12.1898 13.4628 12.3454 13.75 12.5964 13.75H13.3927C14.2803 13.75 14.9998 13.0304 14.9998 12.1429C14.9998 9.92388 13.201 8.125 10.982 8.125C10.865 8.12794 10.8114 8.27606 10.8954 8.35744C11.8847 9.31512 12.4998 10.6572 12.4998 12.1429C12.4998 12.528 12.4236 12.8954 12.2854 13.2306Z" fill="white"/>
</svg>
