<svg width="250" height="85" viewBox="0 0 250 85" fill="none" xmlns="http://www.w3.org/2000/svg">
<path d="M22.1827 74.06L26.5027 81H23.9427L20.8027 75.96L17.8627 81H15.3227L19.6427 74.06L15.3027 67.1H17.8627L21.0227 72.18L23.9827 67.1H26.5227L22.1827 74.06ZM37.9459 68.18L32.3859 81H30.0859L35.7059 68.42H28.3059V66.48H37.9459V68.18Z" fill="white"/>
<path d="M217.585 74.06L221.905 81H219.345L216.205 75.96L213.265 81H210.725L215.045 74.06L210.705 67.1H213.265L216.425 72.18L219.385 67.1H221.925L217.585 74.06ZM238.544 68.18L232.984 81H230.684L236.304 68.42H228.904V66.48H238.544V68.18Z" fill="white"/>
<circle cx="26" cy="26" r="26" fill="white"/>
<circle cx="224" cy="26" r="26" fill="black"/>
</svg>
