<svg width="250" height="85" viewBox="0 0 250 85" fill="none" xmlns="http://www.w3.org/2000/svg">
<path d="M18.2433 74.06L22.5633 81H20.0033L16.8633 75.96L13.9233 81H11.3833L15.7033 74.06L11.3633 67.1H13.9233L17.0833 72.18L20.0433 67.1H22.5833L18.2433 74.06ZM29.9217 70.02C30.0017 68.78 30.4751 67.8133 31.3417 67.12C32.2217 66.4267 33.3417 66.08 34.7017 66.08C35.6351 66.08 36.4417 66.2467 37.1217 66.58C37.8017 66.9133 38.3151 67.3667 38.6617 67.94C39.0084 68.5133 39.1817 69.16 39.1817 69.88C39.1817 70.7067 38.9617 71.4133 38.5217 72C38.0817 72.5867 37.5551 72.98 36.9417 73.18V73.26C37.7284 73.5 38.3417 73.94 38.7817 74.58C39.2217 75.2067 39.4417 76.0133 39.4417 77C39.4417 77.7867 39.2617 78.4867 38.9017 79.1C38.5417 79.7133 38.0084 80.2 37.3017 80.56C36.5951 80.9067 35.7484 81.08 34.7617 81.08C33.3217 81.08 32.1351 80.7133 31.2017 79.98C30.2817 79.2333 29.7884 78.1667 29.7217 76.78H31.9217C31.9751 77.4867 32.2484 78.0667 32.7417 78.52C33.2351 78.96 33.9017 79.18 34.7417 79.18C35.5551 79.18 36.1817 78.96 36.6217 78.52C37.0617 78.0667 37.2817 77.4867 37.2817 76.78C37.2817 75.8467 36.9817 75.1867 36.3817 74.8C35.7951 74.4 34.8884 74.2 33.6617 74.2H33.1417V72.32H33.6817C34.7617 72.3067 35.5817 72.1267 36.1417 71.78C36.7151 71.4333 37.0017 70.8867 37.0017 70.14C37.0017 69.5 36.7951 68.9933 36.3817 68.62C35.9684 68.2333 35.3817 68.04 34.6217 68.04C33.8751 68.04 33.2951 68.2333 32.8817 68.62C32.4684 68.9933 32.2217 69.46 32.1417 70.02H29.9217Z" fill="white"/>
<path d="M216.743 74.06L221.063 81H218.503L215.363 75.96L212.423 81H209.883L214.203 74.06L209.863 67.1H212.423L215.583 72.18L218.543 67.1H221.083L216.743 74.06ZM228.422 70.02C228.502 68.78 228.975 67.8133 229.842 67.12C230.722 66.4267 231.842 66.08 233.202 66.08C234.135 66.08 234.942 66.2467 235.622 66.58C236.302 66.9133 236.815 67.3667 237.162 67.94C237.508 68.5133 237.682 69.16 237.682 69.88C237.682 70.7067 237.462 71.4133 237.022 72C236.582 72.5867 236.055 72.98 235.442 73.18V73.26C236.228 73.5 236.842 73.94 237.282 74.58C237.722 75.2067 237.942 76.0133 237.942 77C237.942 77.7867 237.762 78.4867 237.402 79.1C237.042 79.7133 236.508 80.2 235.802 80.56C235.095 80.9067 234.248 81.08 233.262 81.08C231.822 81.08 230.635 80.7133 229.702 79.98C228.782 79.2333 228.288 78.1667 228.222 76.78H230.422C230.475 77.4867 230.748 78.0667 231.242 78.52C231.735 78.96 232.402 79.18 233.242 79.18C234.055 79.18 234.682 78.96 235.122 78.52C235.562 78.0667 235.782 77.4867 235.782 76.78C235.782 75.8467 235.482 75.1867 234.882 74.8C234.295 74.4 233.388 74.2 232.162 74.2H231.642V72.32H232.182C233.262 72.3067 234.082 72.1267 234.642 71.78C235.215 71.4333 235.502 70.8867 235.502 70.14C235.502 69.5 235.295 68.9933 234.882 68.62C234.468 68.2333 233.882 68.04 233.122 68.04C232.375 68.04 231.795 68.2333 231.382 68.62C230.968 68.9933 230.722 69.46 230.642 70.02H228.422Z" fill="white"/>
<circle cx="26" cy="26" r="26" fill="white"/>
<circle cx="224" cy="26" r="26" fill="black"/>
</svg>
