<svg width="272" height="272" viewBox="0 0 272 272" fill="none" xmlns="http://www.w3.org/2000/svg">
<rect x="10.6641" y="37.3359" width="5.33333" height="5.33331" transform="rotate(90 10.6641 37.3359)" fill="#A1A1A1"/>
<rect x="10.6641" y="69.3359" width="5.33333" height="5.33331" transform="rotate(90 10.6641 69.3359)" fill="#A1A1A1"/>
<rect x="10.6641" y="101.336" width="5.33333" height="5.33331" transform="rotate(90 10.6641 101.336)" fill="#A1A1A1"/>
<rect x="10.6641" y="133.336" width="5.33333" height="5.33331" transform="rotate(90 10.6641 133.336)" fill="#A1A1A1"/>
<rect x="10.6641" y="165.336" width="5.33333" height="5.33331" transform="rotate(90 10.6641 165.336)" fill="#A1A1A1"/>
<rect x="10.6641" y="197.336" width="5.33333" height="5.33331" transform="rotate(90 10.6641 197.336)" fill="#A1A1A1"/>
<rect x="10.6641" y="229.336" width="5.33333" height="5.33331" transform="rotate(90 10.6641 229.336)" fill="#A1A1A1"/>
<rect x="10.6641" y="16" width="5.33331" height="5.33333" transform="rotate(180 10.6641 16)" fill="#A1A1A1"/>
<rect x="5.32812" y="10.6641" width="5.33331" height="5.33333" transform="rotate(180 5.32812 10.6641)" fill="#A1A1A1"/>
<rect x="5.32812" y="5.33594" width="5.33331" height="5.33333" transform="rotate(180 5.32812 5.33594)" fill="#A1A1A1"/>
<rect x="10.6641" y="5.33594" width="5.33331" height="5.33333" transform="rotate(180 10.6641 5.33594)" fill="#A1A1A1"/>
<rect x="10.6641" y="48" width="5.33331" height="5.33333" transform="rotate(180 10.6641 48)" fill="#A1A1A1"/>
<rect x="10.6641" y="80" width="5.33331" height="5.33333" transform="rotate(180 10.6641 80)" fill="#A1A1A1"/>
<rect x="10.6641" y="112" width="5.33331" height="5.33333" transform="rotate(180 10.6641 112)" fill="#A1A1A1"/>
<rect x="10.6641" y="144" width="5.33331" height="5.33333" transform="rotate(180 10.6641 144)" fill="#A1A1A1"/>
<rect x="10.6641" y="176" width="5.33331" height="5.33333" transform="rotate(180 10.6641 176)" fill="#A1A1A1"/>
<rect x="10.6641" y="208" width="5.33331" height="5.33333" transform="rotate(180 10.6641 208)" fill="#A1A1A1"/>
<rect x="10.6641" y="240" width="5.33331" height="5.33333" transform="rotate(180 10.6641 240)" fill="#A1A1A1"/>
<rect x="42.6641" y="16" width="5.33331" height="5.33333" transform="rotate(180 42.6641 16)" fill="#A1A1A1"/>
<rect x="42.6641" y="48" width="5.33331" height="5.33333" transform="rotate(180 42.6641 48)" fill="#A1A1A1"/>
<rect x="42.6641" y="80" width="5.33331" height="5.33333" transform="rotate(180 42.6641 80)" fill="#A1A1A1"/>
<rect x="42.6641" y="112" width="5.33331" height="5.33333" transform="rotate(180 42.6641 112)" fill="#A1A1A1"/>
<rect x="42.6641" y="144" width="5.33331" height="5.33333" transform="rotate(180 42.6641 144)" fill="#A1A1A1"/>
<rect x="42.6641" y="176" width="5.33331" height="5.33333" transform="rotate(180 42.6641 176)" fill="#A1A1A1"/>
<rect x="42.6641" y="208" width="5.33331" height="5.33333" transform="rotate(180 42.6641 208)" fill="#A1A1A1"/>
<rect x="42.6641" y="240" width="5.33331" height="5.33333" transform="rotate(180 42.6641 240)" fill="#A1A1A1"/>
<rect x="74.6641" y="16" width="5.33331" height="5.33333" transform="rotate(180 74.6641 16)" fill="#A1A1A1"/>
<rect x="74.6641" y="48" width="5.33331" height="5.33333" transform="rotate(180 74.6641 48)" fill="#A1A1A1"/>
<rect x="74.6641" y="80" width="5.33331" height="5.33333" transform="rotate(180 74.6641 80)" fill="#A1A1A1"/>
<rect x="74.6641" y="112" width="5.33331" height="5.33333" transform="rotate(180 74.6641 112)" fill="#A1A1A1"/>
<rect x="74.6641" y="144" width="5.33331" height="5.33333" transform="rotate(180 74.6641 144)" fill="#A1A1A1"/>
<rect x="74.6641" y="176" width="5.33331" height="5.33333" transform="rotate(180 74.6641 176)" fill="#A1A1A1"/>
<rect x="74.6641" y="208" width="5.33331" height="5.33333" transform="rotate(180 74.6641 208)" fill="#A1A1A1"/>
<rect x="74.6641" y="240" width="5.33331" height="5.33333" transform="rotate(180 74.6641 240)" fill="#A1A1A1"/>
<rect x="106.664" y="16" width="5.33331" height="5.33333" transform="rotate(180 106.664 16)" fill="#A1A1A1"/>
<rect x="106.664" y="48" width="5.33331" height="5.33333" transform="rotate(180 106.664 48)" fill="#A1A1A1"/>
<rect x="106.664" y="80" width="5.33331" height="5.33333" transform="rotate(180 106.664 80)" fill="#A1A1A1"/>
<rect x="106.664" y="112" width="5.33331" height="5.33333" transform="rotate(180 106.664 112)" fill="#A1A1A1"/>
<rect x="106.664" y="144" width="5.33331" height="5.33333" transform="rotate(180 106.664 144)" fill="#A1A1A1"/>
<rect x="106.664" y="176" width="5.33331" height="5.33333" transform="rotate(180 106.664 176)" fill="#A1A1A1"/>
<rect x="106.664" y="208" width="5.33331" height="5.33333" transform="rotate(180 106.664 208)" fill="#A1A1A1"/>
<rect x="106.664" y="240" width="5.33331" height="5.33333" transform="rotate(180 106.664 240)" fill="#A1A1A1"/>
<rect x="138.664" y="16" width="5.33331" height="5.33333" transform="rotate(180 138.664 16)" fill="#A1A1A1"/>
<rect x="138.664" y="48" width="5.33331" height="5.33333" transform="rotate(180 138.664 48)" fill="#A1A1A1"/>
<rect x="138.664" y="80" width="5.33331" height="5.33333" transform="rotate(180 138.664 80)" fill="#A1A1A1"/>
<rect x="138.664" y="112" width="5.33331" height="5.33333" transform="rotate(180 138.664 112)" fill="#A1A1A1"/>
<rect x="138.664" y="144" width="5.33331" height="5.33333" transform="rotate(180 138.664 144)" fill="#A1A1A1"/>
<rect x="138.664" y="176" width="5.33331" height="5.33333" transform="rotate(180 138.664 176)" fill="#A1A1A1"/>
<rect x="138.664" y="208" width="5.33331" height="5.33333" transform="rotate(180 138.664 208)" fill="#A1A1A1"/>
<rect x="138.664" y="240" width="5.33331" height="5.33333" transform="rotate(180 138.664 240)" fill="#A1A1A1"/>
<rect x="170.664" y="16" width="5.33331" height="5.33333" transform="rotate(180 170.664 16)" fill="#A1A1A1"/>
<rect x="170.664" y="48" width="5.33331" height="5.33333" transform="rotate(180 170.664 48)" fill="#A1A1A1"/>
<rect x="170.664" y="80" width="5.33331" height="5.33333" transform="rotate(180 170.664 80)" fill="#A1A1A1"/>
<rect x="170.664" y="112" width="5.33331" height="5.33333" transform="rotate(180 170.664 112)" fill="#A1A1A1"/>
<rect x="170.664" y="144" width="5.33331" height="5.33333" transform="rotate(180 170.664 144)" fill="#A1A1A1"/>
<rect x="170.664" y="176" width="5.33331" height="5.33333" transform="rotate(180 170.664 176)" fill="#A1A1A1"/>
<rect x="170.664" y="208" width="5.33331" height="5.33333" transform="rotate(180 170.664 208)" fill="#A1A1A1"/>
<rect x="170.664" y="240" width="5.33331" height="5.33333" transform="rotate(180 170.664 240)" fill="#A1A1A1"/>
<rect x="202.664" y="16" width="5.33331" height="5.33333" transform="rotate(180 202.664 16)" fill="#A1A1A1"/>
<rect x="202.664" y="48" width="5.33331" height="5.33333" transform="rotate(180 202.664 48)" fill="#A1A1A1"/>
<rect x="202.664" y="80" width="5.33331" height="5.33333" transform="rotate(180 202.664 80)" fill="#A1A1A1"/>
<rect x="202.664" y="112" width="5.33331" height="5.33333" transform="rotate(180 202.664 112)" fill="#A1A1A1"/>
<rect x="202.664" y="144" width="5.33331" height="5.33333" transform="rotate(180 202.664 144)" fill="#A1A1A1"/>
<rect x="202.664" y="176" width="5.33331" height="5.33333" transform="rotate(180 202.664 176)" fill="#A1A1A1"/>
<rect x="202.664" y="208" width="5.33331" height="5.33333" transform="rotate(180 202.664 208)" fill="#A1A1A1"/>
<rect x="202.664" y="240" width="5.33331" height="5.33333" transform="rotate(180 202.664 240)" fill="#A1A1A1"/>
<rect x="234.664" y="16" width="5.33331" height="5.33333" transform="rotate(180 234.664 16)" fill="#A1A1A1"/>
<rect x="234.664" y="48" width="5.33331" height="5.33333" transform="rotate(180 234.664 48)" fill="#A1A1A1"/>
<rect x="234.664" y="80" width="5.33331" height="5.33333" transform="rotate(180 234.664 80)" fill="#A1A1A1"/>
<rect x="234.664" y="112" width="5.33331" height="5.33333" transform="rotate(180 234.664 112)" fill="#A1A1A1"/>
<rect x="234.664" y="144" width="5.33331" height="5.33333" transform="rotate(180 234.664 144)" fill="#A1A1A1"/>
<rect x="234.664" y="176" width="5.33331" height="5.33333" transform="rotate(180 234.664 176)" fill="#A1A1A1"/>
<rect x="234.664" y="208" width="5.33331" height="5.33333" transform="rotate(180 234.664 208)" fill="#A1A1A1"/>
<rect x="234.664" y="240" width="5.33331" height="5.33333" transform="rotate(180 234.664 240)" fill="#A1A1A1"/>
<rect x="266.664" y="16" width="5.33331" height="5.33333" transform="rotate(180 266.664 16)" fill="#A1A1A1"/>
<rect x="266.664" y="48" width="5.33331" height="5.33333" transform="rotate(180 266.664 48)" fill="#A1A1A1"/>
<rect x="266.664" y="80" width="5.33331" height="5.33333" transform="rotate(180 266.664 80)" fill="#A1A1A1"/>
<rect x="266.664" y="112" width="5.33331" height="5.33333" transform="rotate(180 266.664 112)" fill="#A1A1A1"/>
<rect x="266.664" y="144" width="5.33331" height="5.33333" transform="rotate(180 266.664 144)" fill="#A1A1A1"/>
<rect x="266.664" y="176" width="5.33331" height="5.33333" transform="rotate(180 266.664 176)" fill="#A1A1A1"/>
<rect x="266.664" y="208" width="5.33331" height="5.33333" transform="rotate(180 266.664 208)" fill="#A1A1A1"/>
<rect x="266.664" y="240" width="5.33331" height="5.33333" transform="rotate(180 266.664 240)" fill="#A1A1A1"/>
<rect x="138.664" y="5.33594" width="5.33333" height="5.33331" transform="rotate(90 138.664 5.33594)" fill="#A1A1A1"/>
<rect x="138.664" y="37.3359" width="5.33333" height="5.33331" transform="rotate(90 138.664 37.3359)" fill="#A1A1A1"/>
<rect x="138.664" y="69.3359" width="5.33333" height="5.33331" transform="rotate(90 138.664 69.3359)" fill="#A1A1A1"/>
<rect x="138.664" y="101.336" width="5.33333" height="5.33331" transform="rotate(90 138.664 101.336)" fill="#A1A1A1"/>
<rect x="138.664" y="133.336" width="5.33333" height="5.33331" transform="rotate(90 138.664 133.336)" fill="#A1A1A1"/>
<rect x="138.664" y="165.336" width="5.33333" height="5.33331" transform="rotate(90 138.664 165.336)" fill="#A1A1A1"/>
<rect x="138.664" y="197.336" width="5.33333" height="5.33331" transform="rotate(90 138.664 197.336)" fill="#A1A1A1"/>
<rect x="138.664" y="229.336" width="5.33333" height="5.33331" transform="rotate(90 138.664 229.336)" fill="#A1A1A1"/>
<rect x="138.664" y="261.336" width="5.33333" height="5.33331" transform="rotate(90 138.664 261.336)" fill="#A1A1A1"/>
<rect x="74.6641" y="5.33594" width="5.33333" height="5.33331" transform="rotate(90 74.6641 5.33594)" fill="#A1A1A1"/>
<rect x="74.6641" y="37.3359" width="5.33333" height="5.33331" transform="rotate(90 74.6641 37.3359)" fill="#A1A1A1"/>
<rect x="74.6641" y="69.3359" width="5.33333" height="5.33331" transform="rotate(90 74.6641 69.3359)" fill="#A1A1A1"/>
<rect x="74.6641" y="101.336" width="5.33333" height="5.33331" transform="rotate(90 74.6641 101.336)" fill="#A1A1A1"/>
<rect x="74.6641" y="133.336" width="5.33333" height="5.33331" transform="rotate(90 74.6641 133.336)" fill="#A1A1A1"/>
<rect x="74.6641" y="165.336" width="5.33333" height="5.33331" transform="rotate(90 74.6641 165.336)" fill="#A1A1A1"/>
<rect x="74.6641" y="197.336" width="5.33333" height="5.33331" transform="rotate(90 74.6641 197.336)" fill="#A1A1A1"/>
<rect x="74.6641" y="229.336" width="5.33333" height="5.33331" transform="rotate(90 74.6641 229.336)" fill="#A1A1A1"/>
<rect x="74.6641" y="261.336" width="5.33333" height="5.33331" transform="rotate(90 74.6641 261.336)" fill="#A1A1A1"/>
<rect x="202.664" y="5.33594" width="5.33333" height="5.33331" transform="rotate(90 202.664 5.33594)" fill="#A1A1A1"/>
<rect x="202.664" y="37.3359" width="5.33333" height="5.33331" transform="rotate(90 202.664 37.3359)" fill="#A1A1A1"/>
<rect x="202.664" y="69.3359" width="5.33333" height="5.33331" transform="rotate(90 202.664 69.3359)" fill="#A1A1A1"/>
<rect x="202.664" y="101.336" width="5.33333" height="5.33331" transform="rotate(90 202.664 101.336)" fill="#A1A1A1"/>
<rect x="202.664" y="133.336" width="5.33333" height="5.33331" transform="rotate(90 202.664 133.336)" fill="#A1A1A1"/>
<rect x="202.664" y="165.336" width="5.33333" height="5.33331" transform="rotate(90 202.664 165.336)" fill="#A1A1A1"/>
<rect x="202.664" y="197.336" width="5.33333" height="5.33331" transform="rotate(90 202.664 197.336)" fill="#A1A1A1"/>
<rect x="202.664" y="229.336" width="5.33333" height="5.33331" transform="rotate(90 202.664 229.336)" fill="#A1A1A1"/>
<rect x="202.664" y="261.336" width="5.33333" height="5.33331" transform="rotate(90 202.664 261.336)" fill="#A1A1A1"/>
<rect x="15.9922" y="5.33594" width="5.33333" height="5.33331" transform="rotate(90 15.9922 5.33594)" fill="#A1A1A1"/>
<rect x="15.9922" y="37.3359" width="5.33333" height="5.33331" transform="rotate(90 15.9922 37.3359)" fill="#A1A1A1"/>
<rect x="15.9922" y="69.3359" width="5.33333" height="5.33331" transform="rotate(90 15.9922 69.3359)" fill="#A1A1A1"/>
<rect x="15.9922" y="101.336" width="5.33333" height="5.33331" transform="rotate(90 15.9922 101.336)" fill="#A1A1A1"/>
<rect x="15.9922" y="133.336" width="5.33333" height="5.33331" transform="rotate(90 15.9922 133.336)" fill="#A1A1A1"/>
<rect x="15.9922" y="165.336" width="5.33333" height="5.33331" transform="rotate(90 15.9922 165.336)" fill="#A1A1A1"/>
<rect x="15.9922" y="197.336" width="5.33333" height="5.33331" transform="rotate(90 15.9922 197.336)" fill="#A1A1A1"/>
<rect x="15.9922" y="229.336" width="5.33333" height="5.33331" transform="rotate(90 15.9922 229.336)" fill="#A1A1A1"/>
<rect x="15.9922" y="261.336" width="5.33333" height="5.33331" transform="rotate(90 15.9922 261.336)" fill="#A1A1A1"/>
<rect x="10.6641" y="21.3359" width="5.33331" height="5.33333" transform="rotate(180 10.6641 21.3359)" fill="#A1A1A1"/>
<rect x="10.6641" y="53.3359" width="5.33331" height="5.33333" transform="rotate(180 10.6641 53.3359)" fill="#A1A1A1"/>
<rect x="10.6641" y="85.3359" width="5.33331" height="5.33333" transform="rotate(180 10.6641 85.3359)" fill="#A1A1A1"/>
<rect x="10.6641" y="117.336" width="5.33331" height="5.33333" transform="rotate(180 10.6641 117.336)" fill="#A1A1A1"/>
<rect x="10.6641" y="149.336" width="5.33331" height="5.33333" transform="rotate(180 10.6641 149.336)" fill="#A1A1A1"/>
<rect x="10.6641" y="181.336" width="5.33331" height="5.33333" transform="rotate(180 10.6641 181.336)" fill="#A1A1A1"/>
<rect x="10.6641" y="213.336" width="5.33331" height="5.33333" transform="rotate(180 10.6641 213.336)" fill="#A1A1A1"/>
<rect x="10.6641" y="245.336" width="5.33331" height="5.33333" transform="rotate(180 10.6641 245.336)" fill="#A1A1A1"/>
<rect x="42.6641" y="21.3359" width="5.33331" height="5.33333" transform="rotate(180 42.6641 21.3359)" fill="#A1A1A1"/>
<rect x="42.6641" y="53.3359" width="5.33331" height="5.33333" transform="rotate(180 42.6641 53.3359)" fill="#A1A1A1"/>
<rect x="42.6641" y="85.3359" width="5.33331" height="5.33333" transform="rotate(180 42.6641 85.3359)" fill="#A1A1A1"/>
<rect x="42.6641" y="117.336" width="5.33331" height="5.33333" transform="rotate(180 42.6641 117.336)" fill="#A1A1A1"/>
<rect x="42.6641" y="149.336" width="5.33331" height="5.33333" transform="rotate(180 42.6641 149.336)" fill="#A1A1A1"/>
<rect x="42.6641" y="181.336" width="5.33331" height="5.33333" transform="rotate(180 42.6641 181.336)" fill="#A1A1A1"/>
<rect x="42.6641" y="213.336" width="5.33331" height="5.33333" transform="rotate(180 42.6641 213.336)" fill="#A1A1A1"/>
<rect x="42.6641" y="245.336" width="5.33331" height="5.33333" transform="rotate(180 42.6641 245.336)" fill="#A1A1A1"/>
<rect x="74.6641" y="21.3359" width="5.33331" height="5.33333" transform="rotate(180 74.6641 21.3359)" fill="#A1A1A1"/>
<rect x="74.6641" y="53.3359" width="5.33331" height="5.33333" transform="rotate(180 74.6641 53.3359)" fill="#A1A1A1"/>
<rect x="74.6641" y="85.3359" width="5.33331" height="5.33333" transform="rotate(180 74.6641 85.3359)" fill="#A1A1A1"/>
<rect x="74.6641" y="117.336" width="5.33331" height="5.33333" transform="rotate(180 74.6641 117.336)" fill="#A1A1A1"/>
<rect x="74.6641" y="149.336" width="5.33331" height="5.33333" transform="rotate(180 74.6641 149.336)" fill="#A1A1A1"/>
<rect x="74.6641" y="181.336" width="5.33331" height="5.33333" transform="rotate(180 74.6641 181.336)" fill="#A1A1A1"/>
<rect x="74.6641" y="213.336" width="5.33331" height="5.33333" transform="rotate(180 74.6641 213.336)" fill="#A1A1A1"/>
<rect x="74.6641" y="245.336" width="5.33331" height="5.33333" transform="rotate(180 74.6641 245.336)" fill="#A1A1A1"/>
<rect x="106.664" y="21.3359" width="5.33331" height="5.33333" transform="rotate(180 106.664 21.3359)" fill="#A1A1A1"/>
<rect x="106.664" y="53.3359" width="5.33331" height="5.33333" transform="rotate(180 106.664 53.3359)" fill="#A1A1A1"/>
<rect x="106.664" y="85.3359" width="5.33331" height="5.33333" transform="rotate(180 106.664 85.3359)" fill="#A1A1A1"/>
<rect x="106.664" y="117.336" width="5.33331" height="5.33333" transform="rotate(180 106.664 117.336)" fill="#A1A1A1"/>
<rect x="106.664" y="149.336" width="5.33331" height="5.33333" transform="rotate(180 106.664 149.336)" fill="#A1A1A1"/>
<rect x="106.664" y="181.336" width="5.33331" height="5.33333" transform="rotate(180 106.664 181.336)" fill="#A1A1A1"/>
<rect x="106.664" y="213.336" width="5.33331" height="5.33333" transform="rotate(180 106.664 213.336)" fill="#A1A1A1"/>
<rect x="106.664" y="245.336" width="5.33331" height="5.33333" transform="rotate(180 106.664 245.336)" fill="#A1A1A1"/>
<rect x="138.664" y="21.3359" width="5.33331" height="5.33333" transform="rotate(180 138.664 21.3359)" fill="#A1A1A1"/>
<rect x="138.664" y="53.3359" width="5.33331" height="5.33333" transform="rotate(180 138.664 53.3359)" fill="#A1A1A1"/>
<rect x="138.664" y="85.3359" width="5.33331" height="5.33333" transform="rotate(180 138.664 85.3359)" fill="#A1A1A1"/>
<rect x="138.664" y="117.336" width="5.33331" height="5.33333" transform="rotate(180 138.664 117.336)" fill="#A1A1A1"/>
<rect x="138.664" y="149.336" width="5.33331" height="5.33333" transform="rotate(180 138.664 149.336)" fill="#A1A1A1"/>
<rect x="138.664" y="181.336" width="5.33331" height="5.33333" transform="rotate(180 138.664 181.336)" fill="#A1A1A1"/>
<rect x="138.664" y="213.336" width="5.33331" height="5.33333" transform="rotate(180 138.664 213.336)" fill="#A1A1A1"/>
<rect x="138.664" y="245.336" width="5.33331" height="5.33333" transform="rotate(180 138.664 245.336)" fill="#A1A1A1"/>
<rect x="170.664" y="21.3359" width="5.33331" height="5.33333" transform="rotate(180 170.664 21.3359)" fill="#A1A1A1"/>
<rect x="170.664" y="53.3359" width="5.33331" height="5.33333" transform="rotate(180 170.664 53.3359)" fill="#A1A1A1"/>
<rect x="170.664" y="85.3359" width="5.33331" height="5.33333" transform="rotate(180 170.664 85.3359)" fill="#A1A1A1"/>
<rect x="170.664" y="117.336" width="5.33331" height="5.33333" transform="rotate(180 170.664 117.336)" fill="#A1A1A1"/>
<rect x="170.664" y="149.336" width="5.33331" height="5.33333" transform="rotate(180 170.664 149.336)" fill="#A1A1A1"/>
<rect x="170.664" y="181.336" width="5.33331" height="5.33333" transform="rotate(180 170.664 181.336)" fill="#A1A1A1"/>
<rect x="170.664" y="213.336" width="5.33331" height="5.33333" transform="rotate(180 170.664 213.336)" fill="#A1A1A1"/>
<rect x="170.664" y="245.336" width="5.33331" height="5.33333" transform="rotate(180 170.664 245.336)" fill="#A1A1A1"/>
<rect x="202.664" y="21.3359" width="5.33331" height="5.33333" transform="rotate(180 202.664 21.3359)" fill="#A1A1A1"/>
<rect x="202.664" y="53.3359" width="5.33331" height="5.33333" transform="rotate(180 202.664 53.3359)" fill="#A1A1A1"/>
<rect x="202.664" y="85.3359" width="5.33331" height="5.33333" transform="rotate(180 202.664 85.3359)" fill="#A1A1A1"/>
<rect x="202.664" y="117.336" width="5.33331" height="5.33333" transform="rotate(180 202.664 117.336)" fill="#A1A1A1"/>
<rect x="202.664" y="149.336" width="5.33331" height="5.33333" transform="rotate(180 202.664 149.336)" fill="#A1A1A1"/>
<rect x="202.664" y="181.336" width="5.33331" height="5.33333" transform="rotate(180 202.664 181.336)" fill="#A1A1A1"/>
<rect x="202.664" y="213.336" width="5.33331" height="5.33333" transform="rotate(180 202.664 213.336)" fill="#A1A1A1"/>
<rect x="202.664" y="245.336" width="5.33331" height="5.33333" transform="rotate(180 202.664 245.336)" fill="#A1A1A1"/>
<rect x="234.664" y="21.3359" width="5.33331" height="5.33333" transform="rotate(180 234.664 21.3359)" fill="#A1A1A1"/>
<rect x="234.664" y="53.3359" width="5.33331" height="5.33333" transform="rotate(180 234.664 53.3359)" fill="#A1A1A1"/>
<rect x="234.664" y="85.3359" width="5.33331" height="5.33333" transform="rotate(180 234.664 85.3359)" fill="#A1A1A1"/>
<rect x="234.664" y="117.336" width="5.33331" height="5.33333" transform="rotate(180 234.664 117.336)" fill="#A1A1A1"/>
<rect x="234.664" y="149.336" width="5.33331" height="5.33333" transform="rotate(180 234.664 149.336)" fill="#A1A1A1"/>
<rect x="234.664" y="181.336" width="5.33331" height="5.33333" transform="rotate(180 234.664 181.336)" fill="#A1A1A1"/>
<rect x="234.664" y="213.336" width="5.33331" height="5.33333" transform="rotate(180 234.664 213.336)" fill="#A1A1A1"/>
<rect x="234.664" y="245.336" width="5.33331" height="5.33333" transform="rotate(180 234.664 245.336)" fill="#A1A1A1"/>
<rect x="266.664" y="21.3359" width="5.33331" height="5.33333" transform="rotate(180 266.664 21.3359)" fill="#A1A1A1"/>
<rect x="266.664" y="53.3359" width="5.33331" height="5.33333" transform="rotate(180 266.664 53.3359)" fill="#A1A1A1"/>
<rect x="266.664" y="85.3359" width="5.33331" height="5.33333" transform="rotate(180 266.664 85.3359)" fill="#A1A1A1"/>
<rect x="266.664" y="117.336" width="5.33331" height="5.33333" transform="rotate(180 266.664 117.336)" fill="#A1A1A1"/>
<rect x="266.664" y="149.336" width="5.33331" height="5.33333" transform="rotate(180 266.664 149.336)" fill="#A1A1A1"/>
<rect x="266.664" y="181.336" width="5.33331" height="5.33333" transform="rotate(180 266.664 181.336)" fill="#A1A1A1"/>
<rect x="266.664" y="213.336" width="5.33331" height="5.33333" transform="rotate(180 266.664 213.336)" fill="#A1A1A1"/>
<rect x="266.664" y="245.336" width="5.33331" height="5.33333" transform="rotate(180 266.664 245.336)" fill="#A1A1A1"/>
<rect x="143.992" y="5.33594" width="5.33333" height="5.33331" transform="rotate(90 143.992 5.33594)" fill="#A1A1A1"/>
<rect x="143.992" y="37.3359" width="5.33333" height="5.33331" transform="rotate(90 143.992 37.3359)" fill="#A1A1A1"/>
<rect x="143.992" y="69.3359" width="5.33333" height="5.33331" transform="rotate(90 143.992 69.3359)" fill="#A1A1A1"/>
<rect x="143.992" y="101.336" width="5.33333" height="5.33331" transform="rotate(90 143.992 101.336)" fill="#A1A1A1"/>
<rect x="143.992" y="133.336" width="5.33333" height="5.33331" transform="rotate(90 143.992 133.336)" fill="#A1A1A1"/>
<rect x="143.992" y="165.336" width="5.33333" height="5.33331" transform="rotate(90 143.992 165.336)" fill="#A1A1A1"/>
<rect x="143.992" y="197.336" width="5.33333" height="5.33331" transform="rotate(90 143.992 197.336)" fill="#A1A1A1"/>
<rect x="143.992" y="229.336" width="5.33333" height="5.33331" transform="rotate(90 143.992 229.336)" fill="#A1A1A1"/>
<rect x="143.992" y="261.336" width="5.33333" height="5.33331" transform="rotate(90 143.992 261.336)" fill="#A1A1A1"/>
<rect x="79.9922" y="5.33594" width="5.33333" height="5.33331" transform="rotate(90 79.9922 5.33594)" fill="#A1A1A1"/>
<rect x="79.9922" y="37.3359" width="5.33333" height="5.33331" transform="rotate(90 79.9922 37.3359)" fill="#A1A1A1"/>
<rect x="79.9922" y="69.3359" width="5.33333" height="5.33331" transform="rotate(90 79.9922 69.3359)" fill="#A1A1A1"/>
<rect x="79.9922" y="101.336" width="5.33333" height="5.33331" transform="rotate(90 79.9922 101.336)" fill="#A1A1A1"/>
<rect x="79.9922" y="133.336" width="5.33333" height="5.33331" transform="rotate(90 79.9922 133.336)" fill="#A1A1A1"/>
<rect x="79.9922" y="165.336" width="5.33333" height="5.33331" transform="rotate(90 79.9922 165.336)" fill="#A1A1A1"/>
<rect x="79.9922" y="197.336" width="5.33333" height="5.33331" transform="rotate(90 79.9922 197.336)" fill="#A1A1A1"/>
<rect x="79.9922" y="229.336" width="5.33333" height="5.33331" transform="rotate(90 79.9922 229.336)" fill="#A1A1A1"/>
<rect x="79.9922" y="261.336" width="5.33333" height="5.33331" transform="rotate(90 79.9922 261.336)" fill="#A1A1A1"/>
<rect x="207.992" y="5.33594" width="5.33333" height="5.33331" transform="rotate(90 207.992 5.33594)" fill="#A1A1A1"/>
<rect x="207.992" y="37.3359" width="5.33333" height="5.33331" transform="rotate(90 207.992 37.3359)" fill="#A1A1A1"/>
<rect x="207.992" y="69.3359" width="5.33333" height="5.33331" transform="rotate(90 207.992 69.3359)" fill="#A1A1A1"/>
<rect x="207.992" y="101.336" width="5.33333" height="5.33331" transform="rotate(90 207.992 101.336)" fill="#A1A1A1"/>
<rect x="207.992" y="133.336" width="5.33333" height="5.33331" transform="rotate(90 207.992 133.336)" fill="#A1A1A1"/>
<rect x="207.992" y="165.336" width="5.33333" height="5.33331" transform="rotate(90 207.992 165.336)" fill="#A1A1A1"/>
<rect x="207.992" y="197.336" width="5.33333" height="5.33331" transform="rotate(90 207.992 197.336)" fill="#A1A1A1"/>
<rect x="207.992" y="229.336" width="5.33333" height="5.33331" transform="rotate(90 207.992 229.336)" fill="#A1A1A1"/>
<rect x="207.992" y="261.336" width="5.33333" height="5.33331" transform="rotate(90 207.992 261.336)" fill="#A1A1A1"/>
<rect x="21.3281" y="5.33594" width="5.33333" height="5.33331" transform="rotate(90 21.3281 5.33594)" fill="#A1A1A1"/>
<rect x="21.3281" y="37.3359" width="5.33333" height="5.33331" transform="rotate(90 21.3281 37.3359)" fill="#A1A1A1"/>
<rect x="21.3281" y="69.3359" width="5.33333" height="5.33331" transform="rotate(90 21.3281 69.3359)" fill="#A1A1A1"/>
<rect x="21.3281" y="101.336" width="5.33333" height="5.33331" transform="rotate(90 21.3281 101.336)" fill="#A1A1A1"/>
<rect x="21.3281" y="133.336" width="5.33333" height="5.33331" transform="rotate(90 21.3281 133.336)" fill="#A1A1A1"/>
<rect x="21.3281" y="165.336" width="5.33333" height="5.33331" transform="rotate(90 21.3281 165.336)" fill="#A1A1A1"/>
<rect x="21.3281" y="197.336" width="5.33333" height="5.33331" transform="rotate(90 21.3281 197.336)" fill="#A1A1A1"/>
<rect x="21.3281" y="229.336" width="5.33333" height="5.33331" transform="rotate(90 21.3281 229.336)" fill="#A1A1A1"/>
<rect x="21.3281" y="261.336" width="5.33333" height="5.33331" transform="rotate(90 21.3281 261.336)" fill="#A1A1A1"/>
<rect x="10.6641" y="26.6641" width="5.33331" height="5.33333" transform="rotate(180 10.6641 26.6641)" fill="#A1A1A1"/>
<rect x="10.6641" y="58.6641" width="5.33331" height="5.33333" transform="rotate(180 10.6641 58.6641)" fill="#A1A1A1"/>
<rect x="10.6641" y="90.6641" width="5.33331" height="5.33333" transform="rotate(180 10.6641 90.6641)" fill="#A1A1A1"/>
<rect x="10.6641" y="122.664" width="5.33331" height="5.33333" transform="rotate(180 10.6641 122.664)" fill="#A1A1A1"/>
<rect x="10.6641" y="154.664" width="5.33331" height="5.33333" transform="rotate(180 10.6641 154.664)" fill="#A1A1A1"/>
<rect x="10.6641" y="186.664" width="5.33331" height="5.33333" transform="rotate(180 10.6641 186.664)" fill="#A1A1A1"/>
<rect x="10.6641" y="218.664" width="5.33331" height="5.33333" transform="rotate(180 10.6641 218.664)" fill="#A1A1A1"/>
<rect x="10.6641" y="250.664" width="5.33331" height="5.33333" transform="rotate(180 10.6641 250.664)" fill="#A1A1A1"/>
<rect x="42.6641" y="26.6641" width="5.33331" height="5.33333" transform="rotate(180 42.6641 26.6641)" fill="#A1A1A1"/>
<rect x="42.6641" y="58.6641" width="5.33331" height="5.33333" transform="rotate(180 42.6641 58.6641)" fill="#A1A1A1"/>
<rect x="42.6641" y="90.6641" width="5.33331" height="5.33333" transform="rotate(180 42.6641 90.6641)" fill="#A1A1A1"/>
<rect x="42.6641" y="122.664" width="5.33331" height="5.33333" transform="rotate(180 42.6641 122.664)" fill="#A1A1A1"/>
<rect x="42.6641" y="154.664" width="5.33331" height="5.33333" transform="rotate(180 42.6641 154.664)" fill="#A1A1A1"/>
<rect x="42.6641" y="186.664" width="5.33331" height="5.33333" transform="rotate(180 42.6641 186.664)" fill="#A1A1A1"/>
<rect x="42.6641" y="218.664" width="5.33331" height="5.33333" transform="rotate(180 42.6641 218.664)" fill="#A1A1A1"/>
<rect x="42.6641" y="250.664" width="5.33331" height="5.33333" transform="rotate(180 42.6641 250.664)" fill="#A1A1A1"/>
<rect x="74.6641" y="26.6641" width="5.33331" height="5.33333" transform="rotate(180 74.6641 26.6641)" fill="#A1A1A1"/>
<rect x="74.6641" y="58.6641" width="5.33331" height="5.33333" transform="rotate(180 74.6641 58.6641)" fill="#A1A1A1"/>
<rect x="74.6641" y="90.6641" width="5.33331" height="5.33333" transform="rotate(180 74.6641 90.6641)" fill="#A1A1A1"/>
<rect x="74.6641" y="122.664" width="5.33331" height="5.33333" transform="rotate(180 74.6641 122.664)" fill="#A1A1A1"/>
<rect x="74.6641" y="154.664" width="5.33331" height="5.33333" transform="rotate(180 74.6641 154.664)" fill="#A1A1A1"/>
<rect x="74.6641" y="186.664" width="5.33331" height="5.33333" transform="rotate(180 74.6641 186.664)" fill="#A1A1A1"/>
<rect x="74.6641" y="218.664" width="5.33331" height="5.33333" transform="rotate(180 74.6641 218.664)" fill="#A1A1A1"/>
<rect x="74.6641" y="250.664" width="5.33331" height="5.33333" transform="rotate(180 74.6641 250.664)" fill="#A1A1A1"/>
<rect x="106.664" y="26.6641" width="5.33331" height="5.33333" transform="rotate(180 106.664 26.6641)" fill="#A1A1A1"/>
<rect x="106.664" y="58.6641" width="5.33331" height="5.33333" transform="rotate(180 106.664 58.6641)" fill="#A1A1A1"/>
<rect x="106.664" y="90.6641" width="5.33331" height="5.33333" transform="rotate(180 106.664 90.6641)" fill="#A1A1A1"/>
<rect x="106.664" y="122.664" width="5.33331" height="5.33333" transform="rotate(180 106.664 122.664)" fill="#A1A1A1"/>
<rect x="106.664" y="154.664" width="5.33331" height="5.33333" transform="rotate(180 106.664 154.664)" fill="#A1A1A1"/>
<rect x="106.664" y="186.664" width="5.33331" height="5.33333" transform="rotate(180 106.664 186.664)" fill="#A1A1A1"/>
<rect x="106.664" y="218.664" width="5.33331" height="5.33333" transform="rotate(180 106.664 218.664)" fill="#A1A1A1"/>
<rect x="106.664" y="250.664" width="5.33331" height="5.33333" transform="rotate(180 106.664 250.664)" fill="#A1A1A1"/>
<rect x="138.664" y="26.6641" width="5.33331" height="5.33333" transform="rotate(180 138.664 26.6641)" fill="#A1A1A1"/>
<rect x="138.664" y="58.6641" width="5.33331" height="5.33333" transform="rotate(180 138.664 58.6641)" fill="#A1A1A1"/>
<rect x="138.664" y="90.6641" width="5.33331" height="5.33333" transform="rotate(180 138.664 90.6641)" fill="#A1A1A1"/>
<rect x="138.664" y="122.664" width="5.33331" height="5.33333" transform="rotate(180 138.664 122.664)" fill="#A1A1A1"/>
<rect x="138.664" y="154.664" width="5.33331" height="5.33333" transform="rotate(180 138.664 154.664)" fill="#A1A1A1"/>
<rect x="138.664" y="186.664" width="5.33331" height="5.33333" transform="rotate(180 138.664 186.664)" fill="#A1A1A1"/>
<rect x="138.664" y="218.664" width="5.33331" height="5.33333" transform="rotate(180 138.664 218.664)" fill="#A1A1A1"/>
<rect x="138.664" y="250.664" width="5.33331" height="5.33333" transform="rotate(180 138.664 250.664)" fill="#A1A1A1"/>
<rect x="170.664" y="26.6641" width="5.33331" height="5.33333" transform="rotate(180 170.664 26.6641)" fill="#A1A1A1"/>
<rect x="170.664" y="58.6641" width="5.33331" height="5.33333" transform="rotate(180 170.664 58.6641)" fill="#A1A1A1"/>
<rect x="170.664" y="90.6641" width="5.33331" height="5.33333" transform="rotate(180 170.664 90.6641)" fill="#A1A1A1"/>
<rect x="170.664" y="122.664" width="5.33331" height="5.33333" transform="rotate(180 170.664 122.664)" fill="#A1A1A1"/>
<rect x="170.664" y="154.664" width="5.33331" height="5.33333" transform="rotate(180 170.664 154.664)" fill="#A1A1A1"/>
<rect x="170.664" y="186.664" width="5.33331" height="5.33333" transform="rotate(180 170.664 186.664)" fill="#A1A1A1"/>
<rect x="170.664" y="218.664" width="5.33331" height="5.33333" transform="rotate(180 170.664 218.664)" fill="#A1A1A1"/>
<rect x="170.664" y="250.664" width="5.33331" height="5.33333" transform="rotate(180 170.664 250.664)" fill="#A1A1A1"/>
<rect x="202.664" y="26.6641" width="5.33331" height="5.33333" transform="rotate(180 202.664 26.6641)" fill="#A1A1A1"/>
<rect x="202.664" y="58.6641" width="5.33331" height="5.33333" transform="rotate(180 202.664 58.6641)" fill="#A1A1A1"/>
<rect x="202.664" y="90.6641" width="5.33331" height="5.33333" transform="rotate(180 202.664 90.6641)" fill="#A1A1A1"/>
<rect x="202.664" y="122.664" width="5.33331" height="5.33333" transform="rotate(180 202.664 122.664)" fill="#A1A1A1"/>
<rect x="202.664" y="154.664" width="5.33331" height="5.33333" transform="rotate(180 202.664 154.664)" fill="#A1A1A1"/>
<rect x="202.664" y="186.664" width="5.33331" height="5.33333" transform="rotate(180 202.664 186.664)" fill="#A1A1A1"/>
<rect x="202.664" y="218.664" width="5.33331" height="5.33333" transform="rotate(180 202.664 218.664)" fill="#A1A1A1"/>
<rect x="202.664" y="250.664" width="5.33331" height="5.33333" transform="rotate(180 202.664 250.664)" fill="#A1A1A1"/>
<rect x="234.664" y="26.6641" width="5.33331" height="5.33333" transform="rotate(180 234.664 26.6641)" fill="#A1A1A1"/>
<rect x="234.664" y="58.6641" width="5.33331" height="5.33333" transform="rotate(180 234.664 58.6641)" fill="#A1A1A1"/>
<rect x="234.664" y="90.6641" width="5.33331" height="5.33333" transform="rotate(180 234.664 90.6641)" fill="#A1A1A1"/>
<rect x="234.664" y="122.664" width="5.33331" height="5.33333" transform="rotate(180 234.664 122.664)" fill="#A1A1A1"/>
<rect x="234.664" y="154.664" width="5.33331" height="5.33333" transform="rotate(180 234.664 154.664)" fill="#A1A1A1"/>
<rect x="234.664" y="186.664" width="5.33331" height="5.33333" transform="rotate(180 234.664 186.664)" fill="#A1A1A1"/>
<rect x="234.664" y="218.664" width="5.33331" height="5.33333" transform="rotate(180 234.664 218.664)" fill="#A1A1A1"/>
<rect x="234.664" y="250.664" width="5.33331" height="5.33333" transform="rotate(180 234.664 250.664)" fill="#A1A1A1"/>
<rect x="266.664" y="26.6641" width="5.33331" height="5.33333" transform="rotate(180 266.664 26.6641)" fill="#A1A1A1"/>
<rect x="266.664" y="58.6641" width="5.33331" height="5.33333" transform="rotate(180 266.664 58.6641)" fill="#A1A1A1"/>
<rect x="266.664" y="90.6641" width="5.33331" height="5.33333" transform="rotate(180 266.664 90.6641)" fill="#A1A1A1"/>
<rect x="266.664" y="122.664" width="5.33331" height="5.33333" transform="rotate(180 266.664 122.664)" fill="#A1A1A1"/>
<rect x="266.664" y="154.664" width="5.33331" height="5.33333" transform="rotate(180 266.664 154.664)" fill="#A1A1A1"/>
<rect x="266.664" y="186.664" width="5.33331" height="5.33333" transform="rotate(180 266.664 186.664)" fill="#A1A1A1"/>
<rect x="266.664" y="218.664" width="5.33331" height="5.33333" transform="rotate(180 266.664 218.664)" fill="#A1A1A1"/>
<rect x="266.664" y="250.664" width="5.33331" height="5.33333" transform="rotate(180 266.664 250.664)" fill="#A1A1A1"/>
<rect x="149.328" y="5.33594" width="5.33333" height="5.33331" transform="rotate(90 149.328 5.33594)" fill="#A1A1A1"/>
<rect x="149.328" y="37.3359" width="5.33333" height="5.33331" transform="rotate(90 149.328 37.3359)" fill="#A1A1A1"/>
<rect x="149.328" y="69.3359" width="5.33333" height="5.33331" transform="rotate(90 149.328 69.3359)" fill="#A1A1A1"/>
<rect x="149.328" y="101.336" width="5.33333" height="5.33331" transform="rotate(90 149.328 101.336)" fill="#A1A1A1"/>
<rect x="149.328" y="133.336" width="5.33333" height="5.33331" transform="rotate(90 149.328 133.336)" fill="#A1A1A1"/>
<rect x="149.328" y="165.336" width="5.33333" height="5.33331" transform="rotate(90 149.328 165.336)" fill="#A1A1A1"/>
<rect x="149.328" y="197.336" width="5.33333" height="5.33331" transform="rotate(90 149.328 197.336)" fill="#A1A1A1"/>
<rect x="149.328" y="229.336" width="5.33333" height="5.33331" transform="rotate(90 149.328 229.336)" fill="#A1A1A1"/>
<rect x="149.328" y="261.336" width="5.33333" height="5.33331" transform="rotate(90 149.328 261.336)" fill="#A1A1A1"/>
<rect x="85.3281" y="5.33594" width="5.33333" height="5.33331" transform="rotate(90 85.3281 5.33594)" fill="#A1A1A1"/>
<rect x="85.3281" y="37.3359" width="5.33333" height="5.33331" transform="rotate(90 85.3281 37.3359)" fill="#A1A1A1"/>
<rect x="85.3281" y="69.3359" width="5.33333" height="5.33331" transform="rotate(90 85.3281 69.3359)" fill="#A1A1A1"/>
<rect x="85.3281" y="101.336" width="5.33333" height="5.33331" transform="rotate(90 85.3281 101.336)" fill="#A1A1A1"/>
<rect x="85.3281" y="133.336" width="5.33333" height="5.33331" transform="rotate(90 85.3281 133.336)" fill="#A1A1A1"/>
<rect x="85.3281" y="165.336" width="5.33333" height="5.33331" transform="rotate(90 85.3281 165.336)" fill="#A1A1A1"/>
<rect x="85.3281" y="197.336" width="5.33333" height="5.33331" transform="rotate(90 85.3281 197.336)" fill="#A1A1A1"/>
<rect x="85.3281" y="229.336" width="5.33333" height="5.33331" transform="rotate(90 85.3281 229.336)" fill="#A1A1A1"/>
<rect x="85.3281" y="261.336" width="5.33333" height="5.33331" transform="rotate(90 85.3281 261.336)" fill="#A1A1A1"/>
<rect x="213.328" y="5.33594" width="5.33333" height="5.33331" transform="rotate(90 213.328 5.33594)" fill="#A1A1A1"/>
<rect x="213.328" y="37.3359" width="5.33333" height="5.33331" transform="rotate(90 213.328 37.3359)" fill="#A1A1A1"/>
<rect x="213.328" y="69.3359" width="5.33333" height="5.33331" transform="rotate(90 213.328 69.3359)" fill="#A1A1A1"/>
<rect x="213.328" y="101.336" width="5.33333" height="5.33331" transform="rotate(90 213.328 101.336)" fill="#A1A1A1"/>
<rect x="213.328" y="133.336" width="5.33333" height="5.33331" transform="rotate(90 213.328 133.336)" fill="#A1A1A1"/>
<rect x="213.328" y="165.336" width="5.33333" height="5.33331" transform="rotate(90 213.328 165.336)" fill="#A1A1A1"/>
<rect x="213.328" y="197.336" width="5.33333" height="5.33331" transform="rotate(90 213.328 197.336)" fill="#A1A1A1"/>
<rect x="213.328" y="229.336" width="5.33333" height="5.33331" transform="rotate(90 213.328 229.336)" fill="#A1A1A1"/>
<rect x="213.328" y="261.336" width="5.33333" height="5.33331" transform="rotate(90 213.328 261.336)" fill="#A1A1A1"/>
<rect x="26.6641" y="5.33594" width="5.33333" height="5.33331" transform="rotate(90 26.6641 5.33594)" fill="#A1A1A1"/>
<rect x="26.6641" y="37.3359" width="5.33333" height="5.33331" transform="rotate(90 26.6641 37.3359)" fill="#A1A1A1"/>
<rect x="26.6641" y="69.3359" width="5.33333" height="5.33331" transform="rotate(90 26.6641 69.3359)" fill="#A1A1A1"/>
<rect x="26.6641" y="101.336" width="5.33333" height="5.33331" transform="rotate(90 26.6641 101.336)" fill="#A1A1A1"/>
<rect x="26.6641" y="133.336" width="5.33333" height="5.33331" transform="rotate(90 26.6641 133.336)" fill="#A1A1A1"/>
<rect x="26.6641" y="165.336" width="5.33333" height="5.33331" transform="rotate(90 26.6641 165.336)" fill="#A1A1A1"/>
<rect x="26.6641" y="197.336" width="5.33333" height="5.33331" transform="rotate(90 26.6641 197.336)" fill="#A1A1A1"/>
<rect x="26.6641" y="229.336" width="5.33333" height="5.33331" transform="rotate(90 26.6641 229.336)" fill="#A1A1A1"/>
<rect x="26.6641" y="261.336" width="5.33333" height="5.33331" transform="rotate(90 26.6641 261.336)" fill="#A1A1A1"/>
<rect x="10.6641" y="32" width="5.33331" height="5.33333" transform="rotate(180 10.6641 32)" fill="#A1A1A1"/>
<rect x="10.6641" y="64" width="5.33331" height="5.33333" transform="rotate(180 10.6641 64)" fill="#A1A1A1"/>
<rect x="10.6641" y="96" width="5.33331" height="5.33333" transform="rotate(180 10.6641 96)" fill="#A1A1A1"/>
<rect x="10.6641" y="128" width="5.33331" height="5.33333" transform="rotate(180 10.6641 128)" fill="#A1A1A1"/>
<rect x="10.6641" y="160" width="5.33331" height="5.33333" transform="rotate(180 10.6641 160)" fill="#A1A1A1"/>
<rect x="10.6641" y="192" width="5.33331" height="5.33333" transform="rotate(180 10.6641 192)" fill="#A1A1A1"/>
<rect x="10.6641" y="224" width="5.33331" height="5.33333" transform="rotate(180 10.6641 224)" fill="#A1A1A1"/>
<rect x="10.6641" y="256" width="5.33331" height="5.33333" transform="rotate(180 10.6641 256)" fill="#A1A1A1"/>
<rect x="42.6641" y="32" width="5.33331" height="5.33333" transform="rotate(180 42.6641 32)" fill="#A1A1A1"/>
<rect x="42.6641" y="64" width="5.33331" height="5.33333" transform="rotate(180 42.6641 64)" fill="#A1A1A1"/>
<rect x="42.6641" y="96" width="5.33331" height="5.33333" transform="rotate(180 42.6641 96)" fill="#A1A1A1"/>
<rect x="42.6641" y="128" width="5.33331" height="5.33333" transform="rotate(180 42.6641 128)" fill="#A1A1A1"/>
<rect x="42.6641" y="160" width="5.33331" height="5.33333" transform="rotate(180 42.6641 160)" fill="#A1A1A1"/>
<rect x="42.6641" y="192" width="5.33331" height="5.33333" transform="rotate(180 42.6641 192)" fill="#A1A1A1"/>
<rect x="42.6641" y="224" width="5.33331" height="5.33333" transform="rotate(180 42.6641 224)" fill="#A1A1A1"/>
<rect x="42.6641" y="256" width="5.33331" height="5.33333" transform="rotate(180 42.6641 256)" fill="#A1A1A1"/>
<rect x="74.6641" y="32" width="5.33331" height="5.33333" transform="rotate(180 74.6641 32)" fill="#A1A1A1"/>
<rect x="74.6641" y="64" width="5.33331" height="5.33333" transform="rotate(180 74.6641 64)" fill="#A1A1A1"/>
<rect x="74.6641" y="96" width="5.33331" height="5.33333" transform="rotate(180 74.6641 96)" fill="#A1A1A1"/>
<rect x="74.6641" y="128" width="5.33331" height="5.33333" transform="rotate(180 74.6641 128)" fill="#A1A1A1"/>
<rect x="74.6641" y="160" width="5.33331" height="5.33333" transform="rotate(180 74.6641 160)" fill="#A1A1A1"/>
<rect x="74.6641" y="192" width="5.33331" height="5.33333" transform="rotate(180 74.6641 192)" fill="#A1A1A1"/>
<rect x="74.6641" y="224" width="5.33331" height="5.33333" transform="rotate(180 74.6641 224)" fill="#A1A1A1"/>
<rect x="74.6641" y="256" width="5.33331" height="5.33333" transform="rotate(180 74.6641 256)" fill="#A1A1A1"/>
<rect x="106.664" y="32" width="5.33331" height="5.33333" transform="rotate(180 106.664 32)" fill="#A1A1A1"/>
<rect x="106.664" y="64" width="5.33331" height="5.33333" transform="rotate(180 106.664 64)" fill="#A1A1A1"/>
<rect x="106.664" y="96" width="5.33331" height="5.33333" transform="rotate(180 106.664 96)" fill="#A1A1A1"/>
<rect x="106.664" y="128" width="5.33331" height="5.33333" transform="rotate(180 106.664 128)" fill="#A1A1A1"/>
<rect x="106.664" y="160" width="5.33331" height="5.33333" transform="rotate(180 106.664 160)" fill="#A1A1A1"/>
<rect x="106.664" y="192" width="5.33331" height="5.33333" transform="rotate(180 106.664 192)" fill="#A1A1A1"/>
<rect x="106.664" y="224" width="5.33331" height="5.33333" transform="rotate(180 106.664 224)" fill="#A1A1A1"/>
<rect x="106.664" y="256" width="5.33331" height="5.33333" transform="rotate(180 106.664 256)" fill="#A1A1A1"/>
<rect x="138.664" y="32" width="5.33331" height="5.33333" transform="rotate(180 138.664 32)" fill="#A1A1A1"/>
<rect x="138.664" y="64" width="5.33331" height="5.33333" transform="rotate(180 138.664 64)" fill="#A1A1A1"/>
<rect x="138.664" y="96" width="5.33331" height="5.33333" transform="rotate(180 138.664 96)" fill="#A1A1A1"/>
<rect x="138.664" y="128" width="5.33331" height="5.33333" transform="rotate(180 138.664 128)" fill="#A1A1A1"/>
<rect x="138.664" y="160" width="5.33331" height="5.33333" transform="rotate(180 138.664 160)" fill="#A1A1A1"/>
<rect x="138.664" y="192" width="5.33331" height="5.33333" transform="rotate(180 138.664 192)" fill="#A1A1A1"/>
<rect x="138.664" y="224" width="5.33331" height="5.33333" transform="rotate(180 138.664 224)" fill="#A1A1A1"/>
<rect x="138.664" y="256" width="5.33331" height="5.33333" transform="rotate(180 138.664 256)" fill="#A1A1A1"/>
<rect x="170.664" y="32" width="5.33331" height="5.33333" transform="rotate(180 170.664 32)" fill="#A1A1A1"/>
<rect x="170.664" y="64" width="5.33331" height="5.33333" transform="rotate(180 170.664 64)" fill="#A1A1A1"/>
<rect x="170.664" y="96" width="5.33331" height="5.33333" transform="rotate(180 170.664 96)" fill="#A1A1A1"/>
<rect x="170.664" y="128" width="5.33331" height="5.33333" transform="rotate(180 170.664 128)" fill="#A1A1A1"/>
<rect x="170.664" y="160" width="5.33331" height="5.33333" transform="rotate(180 170.664 160)" fill="#A1A1A1"/>
<rect x="170.664" y="192" width="5.33331" height="5.33333" transform="rotate(180 170.664 192)" fill="#A1A1A1"/>
<rect x="170.664" y="224" width="5.33331" height="5.33333" transform="rotate(180 170.664 224)" fill="#A1A1A1"/>
<rect x="170.664" y="256" width="5.33331" height="5.33333" transform="rotate(180 170.664 256)" fill="#A1A1A1"/>
<rect x="202.664" y="32" width="5.33331" height="5.33333" transform="rotate(180 202.664 32)" fill="#A1A1A1"/>
<rect x="202.664" y="64" width="5.33331" height="5.33333" transform="rotate(180 202.664 64)" fill="#A1A1A1"/>
<rect x="202.664" y="96" width="5.33331" height="5.33333" transform="rotate(180 202.664 96)" fill="#A1A1A1"/>
<rect x="202.664" y="128" width="5.33331" height="5.33333" transform="rotate(180 202.664 128)" fill="#A1A1A1"/>
<rect x="202.664" y="160" width="5.33331" height="5.33333" transform="rotate(180 202.664 160)" fill="#A1A1A1"/>
<rect x="202.664" y="192" width="5.33331" height="5.33333" transform="rotate(180 202.664 192)" fill="#A1A1A1"/>
<rect x="202.664" y="224" width="5.33331" height="5.33333" transform="rotate(180 202.664 224)" fill="#A1A1A1"/>
<rect x="202.664" y="256" width="5.33331" height="5.33333" transform="rotate(180 202.664 256)" fill="#A1A1A1"/>
<rect x="234.664" y="32" width="5.33331" height="5.33333" transform="rotate(180 234.664 32)" fill="#A1A1A1"/>
<rect x="234.664" y="64" width="5.33331" height="5.33333" transform="rotate(180 234.664 64)" fill="#A1A1A1"/>
<rect x="234.664" y="96" width="5.33331" height="5.33333" transform="rotate(180 234.664 96)" fill="#A1A1A1"/>
<rect x="234.664" y="128" width="5.33331" height="5.33333" transform="rotate(180 234.664 128)" fill="#A1A1A1"/>
<rect x="234.664" y="160" width="5.33331" height="5.33333" transform="rotate(180 234.664 160)" fill="#A1A1A1"/>
<rect x="234.664" y="192" width="5.33331" height="5.33333" transform="rotate(180 234.664 192)" fill="#A1A1A1"/>
<rect x="234.664" y="224" width="5.33331" height="5.33333" transform="rotate(180 234.664 224)" fill="#A1A1A1"/>
<rect x="234.664" y="256" width="5.33331" height="5.33333" transform="rotate(180 234.664 256)" fill="#A1A1A1"/>
<rect x="266.664" y="32" width="5.33331" height="5.33333" transform="rotate(180 266.664 32)" fill="#A1A1A1"/>
<rect x="266.664" y="64" width="5.33331" height="5.33333" transform="rotate(180 266.664 64)" fill="#A1A1A1"/>
<rect x="266.664" y="96" width="5.33331" height="5.33333" transform="rotate(180 266.664 96)" fill="#A1A1A1"/>
<rect x="266.664" y="128" width="5.33331" height="5.33333" transform="rotate(180 266.664 128)" fill="#A1A1A1"/>
<rect x="266.664" y="160" width="5.33331" height="5.33333" transform="rotate(180 266.664 160)" fill="#A1A1A1"/>
<rect x="266.664" y="192" width="5.33331" height="5.33333" transform="rotate(180 266.664 192)" fill="#A1A1A1"/>
<rect x="266.664" y="224" width="5.33331" height="5.33333" transform="rotate(180 266.664 224)" fill="#A1A1A1"/>
<rect x="266.664" y="256" width="5.33331" height="5.33333" transform="rotate(180 266.664 256)" fill="#A1A1A1"/>
<rect x="154.664" y="5.33594" width="5.33333" height="5.33331" transform="rotate(90 154.664 5.33594)" fill="#A1A1A1"/>
<rect x="154.664" y="37.3359" width="5.33333" height="5.33331" transform="rotate(90 154.664 37.3359)" fill="#A1A1A1"/>
<rect x="154.664" y="69.3359" width="5.33333" height="5.33331" transform="rotate(90 154.664 69.3359)" fill="#A1A1A1"/>
<rect x="154.664" y="101.336" width="5.33333" height="5.33331" transform="rotate(90 154.664 101.336)" fill="#A1A1A1"/>
<rect x="154.664" y="133.336" width="5.33333" height="5.33331" transform="rotate(90 154.664 133.336)" fill="#A1A1A1"/>
<rect x="154.664" y="165.336" width="5.33333" height="5.33331" transform="rotate(90 154.664 165.336)" fill="#A1A1A1"/>
<rect x="154.664" y="197.336" width="5.33333" height="5.33331" transform="rotate(90 154.664 197.336)" fill="#A1A1A1"/>
<rect x="154.664" y="229.336" width="5.33333" height="5.33331" transform="rotate(90 154.664 229.336)" fill="#A1A1A1"/>
<rect x="154.664" y="261.336" width="5.33333" height="5.33331" transform="rotate(90 154.664 261.336)" fill="#A1A1A1"/>
<rect x="90.6641" y="5.33594" width="5.33333" height="5.33331" transform="rotate(90 90.6641 5.33594)" fill="#A1A1A1"/>
<rect x="90.6641" y="37.3359" width="5.33333" height="5.33331" transform="rotate(90 90.6641 37.3359)" fill="#A1A1A1"/>
<rect x="90.6641" y="69.3359" width="5.33333" height="5.33331" transform="rotate(90 90.6641 69.3359)" fill="#A1A1A1"/>
<rect x="90.6641" y="101.336" width="5.33333" height="5.33331" transform="rotate(90 90.6641 101.336)" fill="#A1A1A1"/>
<rect x="90.6641" y="133.336" width="5.33333" height="5.33331" transform="rotate(90 90.6641 133.336)" fill="#A1A1A1"/>
<rect x="90.6641" y="165.336" width="5.33333" height="5.33331" transform="rotate(90 90.6641 165.336)" fill="#A1A1A1"/>
<rect x="90.6641" y="197.336" width="5.33333" height="5.33331" transform="rotate(90 90.6641 197.336)" fill="#A1A1A1"/>
<rect x="90.6641" y="229.336" width="5.33333" height="5.33331" transform="rotate(90 90.6641 229.336)" fill="#A1A1A1"/>
<rect x="90.6641" y="261.336" width="5.33333" height="5.33331" transform="rotate(90 90.6641 261.336)" fill="#A1A1A1"/>
<rect x="218.664" y="5.33594" width="5.33333" height="5.33331" transform="rotate(90 218.664 5.33594)" fill="#A1A1A1"/>
<rect x="218.664" y="37.3359" width="5.33333" height="5.33331" transform="rotate(90 218.664 37.3359)" fill="#A1A1A1"/>
<rect x="218.664" y="69.3359" width="5.33333" height="5.33331" transform="rotate(90 218.664 69.3359)" fill="#A1A1A1"/>
<rect x="218.664" y="101.336" width="5.33333" height="5.33331" transform="rotate(90 218.664 101.336)" fill="#A1A1A1"/>
<rect x="218.664" y="133.336" width="5.33333" height="5.33331" transform="rotate(90 218.664 133.336)" fill="#A1A1A1"/>
<rect x="218.664" y="165.336" width="5.33333" height="5.33331" transform="rotate(90 218.664 165.336)" fill="#A1A1A1"/>
<rect x="218.664" y="197.336" width="5.33333" height="5.33331" transform="rotate(90 218.664 197.336)" fill="#A1A1A1"/>
<rect x="218.664" y="229.336" width="5.33333" height="5.33331" transform="rotate(90 218.664 229.336)" fill="#A1A1A1"/>
<rect x="218.664" y="261.336" width="5.33333" height="5.33331" transform="rotate(90 218.664 261.336)" fill="#A1A1A1"/>
<rect x="32" y="5.33594" width="5.33333" height="5.33331" transform="rotate(90 32 5.33594)" fill="#A1A1A1"/>
<rect x="32" y="37.3359" width="5.33333" height="5.33331" transform="rotate(90 32 37.3359)" fill="#A1A1A1"/>
<rect x="32" y="69.3359" width="5.33333" height="5.33331" transform="rotate(90 32 69.3359)" fill="#A1A1A1"/>
<rect x="32" y="101.336" width="5.33333" height="5.33331" transform="rotate(90 32 101.336)" fill="#A1A1A1"/>
<rect x="32" y="133.336" width="5.33333" height="5.33331" transform="rotate(90 32 133.336)" fill="#A1A1A1"/>
<rect x="32" y="165.336" width="5.33333" height="5.33331" transform="rotate(90 32 165.336)" fill="#A1A1A1"/>
<rect x="32" y="197.336" width="5.33333" height="5.33331" transform="rotate(90 32 197.336)" fill="#A1A1A1"/>
<rect x="32" y="229.336" width="5.33333" height="5.33331" transform="rotate(90 32 229.336)" fill="#A1A1A1"/>
<rect x="32" y="261.336" width="5.33333" height="5.33331" transform="rotate(90 32 261.336)" fill="#A1A1A1"/>
<rect x="10.6641" y="37.3359" width="5.33331" height="5.33333" transform="rotate(180 10.6641 37.3359)" fill="#A1A1A1"/>
<rect x="10.6641" y="69.3359" width="5.33331" height="5.33333" transform="rotate(180 10.6641 69.3359)" fill="#A1A1A1"/>
<rect x="10.6641" y="101.336" width="5.33331" height="5.33333" transform="rotate(180 10.6641 101.336)" fill="#A1A1A1"/>
<rect x="10.6641" y="133.336" width="5.33331" height="5.33333" transform="rotate(180 10.6641 133.336)" fill="#A1A1A1"/>
<rect x="10.6641" y="165.336" width="5.33331" height="5.33333" transform="rotate(180 10.6641 165.336)" fill="#A1A1A1"/>
<rect x="10.6641" y="197.336" width="5.33331" height="5.33333" transform="rotate(180 10.6641 197.336)" fill="#A1A1A1"/>
<rect x="10.6641" y="229.336" width="5.33331" height="5.33333" transform="rotate(180 10.6641 229.336)" fill="#A1A1A1"/>
<rect x="10.6641" y="261.336" width="5.33331" height="5.33333" transform="rotate(180 10.6641 261.336)" fill="#A1A1A1"/>
<rect x="5.32812" y="266.664" width="5.33331" height="5.33333" transform="rotate(180 5.32812 266.664)" fill="#A1A1A1"/>
<rect x="5.32812" y="272" width="5.33331" height="5.33333" transform="rotate(180 5.32812 272)" fill="#A1A1A1"/>
<rect x="10.6641" y="272" width="5.33331" height="5.33333" transform="rotate(180 10.6641 272)" fill="#A1A1A1"/>
<rect x="42.6641" y="37.3359" width="5.33331" height="5.33333" transform="rotate(180 42.6641 37.3359)" fill="#A1A1A1"/>
<rect x="42.6641" y="69.3359" width="5.33331" height="5.33333" transform="rotate(180 42.6641 69.3359)" fill="#A1A1A1"/>
<rect x="42.6641" y="101.336" width="5.33331" height="5.33333" transform="rotate(180 42.6641 101.336)" fill="#A1A1A1"/>
<rect x="42.6641" y="133.336" width="5.33331" height="5.33333" transform="rotate(180 42.6641 133.336)" fill="#A1A1A1"/>
<rect x="42.6641" y="165.336" width="5.33331" height="5.33333" transform="rotate(180 42.6641 165.336)" fill="#A1A1A1"/>
<rect x="42.6641" y="197.336" width="5.33331" height="5.33333" transform="rotate(180 42.6641 197.336)" fill="#A1A1A1"/>
<rect x="42.6641" y="229.336" width="5.33331" height="5.33333" transform="rotate(180 42.6641 229.336)" fill="#A1A1A1"/>
<rect x="42.6641" y="261.336" width="5.33331" height="5.33333" transform="rotate(180 42.6641 261.336)" fill="#A1A1A1"/>
<rect x="74.6641" y="37.3359" width="5.33331" height="5.33333" transform="rotate(180 74.6641 37.3359)" fill="#A1A1A1"/>
<rect x="74.6641" y="69.3359" width="5.33331" height="5.33333" transform="rotate(180 74.6641 69.3359)" fill="#A1A1A1"/>
<rect x="74.6641" y="101.336" width="5.33331" height="5.33333" transform="rotate(180 74.6641 101.336)" fill="#A1A1A1"/>
<rect x="74.6641" y="133.336" width="5.33331" height="5.33333" transform="rotate(180 74.6641 133.336)" fill="#A1A1A1"/>
<rect x="74.6641" y="165.336" width="5.33331" height="5.33333" transform="rotate(180 74.6641 165.336)" fill="#A1A1A1"/>
<rect x="74.6641" y="197.336" width="5.33331" height="5.33333" transform="rotate(180 74.6641 197.336)" fill="#A1A1A1"/>
<rect x="74.6641" y="229.336" width="5.33331" height="5.33333" transform="rotate(180 74.6641 229.336)" fill="#A1A1A1"/>
<rect x="74.6641" y="261.336" width="5.33331" height="5.33333" transform="rotate(180 74.6641 261.336)" fill="#A1A1A1"/>
<rect x="106.664" y="37.3359" width="5.33331" height="5.33333" transform="rotate(180 106.664 37.3359)" fill="#A1A1A1"/>
<rect x="106.664" y="69.3359" width="5.33331" height="5.33333" transform="rotate(180 106.664 69.3359)" fill="#A1A1A1"/>
<rect x="106.664" y="101.336" width="5.33331" height="5.33333" transform="rotate(180 106.664 101.336)" fill="#A1A1A1"/>
<rect x="106.664" y="133.336" width="5.33331" height="5.33333" transform="rotate(180 106.664 133.336)" fill="#A1A1A1"/>
<rect x="106.664" y="165.336" width="5.33331" height="5.33333" transform="rotate(180 106.664 165.336)" fill="#A1A1A1"/>
<rect x="106.664" y="197.336" width="5.33331" height="5.33333" transform="rotate(180 106.664 197.336)" fill="#A1A1A1"/>
<rect x="106.664" y="229.336" width="5.33331" height="5.33333" transform="rotate(180 106.664 229.336)" fill="#A1A1A1"/>
<rect x="106.664" y="261.336" width="5.33331" height="5.33333" transform="rotate(180 106.664 261.336)" fill="#A1A1A1"/>
<rect x="138.664" y="37.3359" width="5.33331" height="5.33333" transform="rotate(180 138.664 37.3359)" fill="#A1A1A1"/>
<rect x="138.664" y="69.3359" width="5.33331" height="5.33333" transform="rotate(180 138.664 69.3359)" fill="#A1A1A1"/>
<rect x="138.664" y="101.336" width="5.33331" height="5.33333" transform="rotate(180 138.664 101.336)" fill="#A1A1A1"/>
<rect x="138.664" y="133.336" width="5.33331" height="5.33333" transform="rotate(180 138.664 133.336)" fill="#A1A1A1"/>
<rect x="138.664" y="165.336" width="5.33331" height="5.33333" transform="rotate(180 138.664 165.336)" fill="#A1A1A1"/>
<rect x="138.664" y="197.336" width="5.33331" height="5.33333" transform="rotate(180 138.664 197.336)" fill="#A1A1A1"/>
<rect x="138.664" y="229.336" width="5.33331" height="5.33333" transform="rotate(180 138.664 229.336)" fill="#A1A1A1"/>
<rect x="138.664" y="261.336" width="5.33331" height="5.33333" transform="rotate(180 138.664 261.336)" fill="#A1A1A1"/>
<rect x="170.664" y="37.3359" width="5.33331" height="5.33333" transform="rotate(180 170.664 37.3359)" fill="#A1A1A1"/>
<rect x="170.664" y="69.3359" width="5.33331" height="5.33333" transform="rotate(180 170.664 69.3359)" fill="#A1A1A1"/>
<rect x="170.664" y="101.336" width="5.33331" height="5.33333" transform="rotate(180 170.664 101.336)" fill="#A1A1A1"/>
<rect x="170.664" y="133.336" width="5.33331" height="5.33333" transform="rotate(180 170.664 133.336)" fill="#A1A1A1"/>
<rect x="170.664" y="165.336" width="5.33331" height="5.33333" transform="rotate(180 170.664 165.336)" fill="#A1A1A1"/>
<rect x="170.664" y="197.336" width="5.33331" height="5.33333" transform="rotate(180 170.664 197.336)" fill="#A1A1A1"/>
<rect x="170.664" y="229.336" width="5.33331" height="5.33333" transform="rotate(180 170.664 229.336)" fill="#A1A1A1"/>
<rect x="170.664" y="261.336" width="5.33331" height="5.33333" transform="rotate(180 170.664 261.336)" fill="#A1A1A1"/>
<rect x="202.664" y="37.3359" width="5.33331" height="5.33333" transform="rotate(180 202.664 37.3359)" fill="#A1A1A1"/>
<rect x="202.664" y="69.3359" width="5.33331" height="5.33333" transform="rotate(180 202.664 69.3359)" fill="#A1A1A1"/>
<rect x="202.664" y="101.336" width="5.33331" height="5.33333" transform="rotate(180 202.664 101.336)" fill="#A1A1A1"/>
<rect x="202.664" y="133.336" width="5.33331" height="5.33333" transform="rotate(180 202.664 133.336)" fill="#A1A1A1"/>
<rect x="202.664" y="165.336" width="5.33331" height="5.33333" transform="rotate(180 202.664 165.336)" fill="#A1A1A1"/>
<rect x="202.664" y="197.336" width="5.33331" height="5.33333" transform="rotate(180 202.664 197.336)" fill="#A1A1A1"/>
<rect x="202.664" y="229.336" width="5.33331" height="5.33333" transform="rotate(180 202.664 229.336)" fill="#A1A1A1"/>
<rect x="202.664" y="261.336" width="5.33331" height="5.33333" transform="rotate(180 202.664 261.336)" fill="#A1A1A1"/>
<rect x="234.664" y="37.3359" width="5.33331" height="5.33333" transform="rotate(180 234.664 37.3359)" fill="#A1A1A1"/>
<rect x="234.664" y="69.3359" width="5.33331" height="5.33333" transform="rotate(180 234.664 69.3359)" fill="#A1A1A1"/>
<rect x="234.664" y="101.336" width="5.33331" height="5.33333" transform="rotate(180 234.664 101.336)" fill="#A1A1A1"/>
<rect x="234.664" y="133.336" width="5.33331" height="5.33333" transform="rotate(180 234.664 133.336)" fill="#A1A1A1"/>
<rect x="234.664" y="165.336" width="5.33331" height="5.33333" transform="rotate(180 234.664 165.336)" fill="#A1A1A1"/>
<rect x="234.664" y="197.336" width="5.33331" height="5.33333" transform="rotate(180 234.664 197.336)" fill="#A1A1A1"/>
<rect x="234.664" y="229.336" width="5.33331" height="5.33333" transform="rotate(180 234.664 229.336)" fill="#A1A1A1"/>
<rect x="234.664" y="261.336" width="5.33331" height="5.33333" transform="rotate(180 234.664 261.336)" fill="#A1A1A1"/>
<rect x="266.664" y="37.3359" width="5.33331" height="5.33333" transform="rotate(180 266.664 37.3359)" fill="#A1A1A1"/>
<rect x="266.664" y="69.3359" width="5.33331" height="5.33333" transform="rotate(180 266.664 69.3359)" fill="#A1A1A1"/>
<rect x="266.664" y="101.336" width="5.33331" height="5.33333" transform="rotate(180 266.664 101.336)" fill="#A1A1A1"/>
<rect x="266.664" y="133.336" width="5.33331" height="5.33333" transform="rotate(180 266.664 133.336)" fill="#A1A1A1"/>
<rect x="266.664" y="165.336" width="5.33331" height="5.33333" transform="rotate(180 266.664 165.336)" fill="#A1A1A1"/>
<rect x="266.664" y="197.336" width="5.33331" height="5.33333" transform="rotate(180 266.664 197.336)" fill="#A1A1A1"/>
<rect x="266.664" y="229.336" width="5.33331" height="5.33333" transform="rotate(180 266.664 229.336)" fill="#A1A1A1"/>
<rect x="266.664" y="261.336" width="5.33331" height="5.33333" transform="rotate(180 266.664 261.336)" fill="#A1A1A1"/>
<rect x="271.992" y="266.664" width="5.33331" height="5.33333" transform="rotate(180 271.992 266.664)" fill="#A1A1A1"/>
<rect x="271.992" y="272" width="5.33331" height="5.33333" transform="rotate(180 271.992 272)" fill="#A1A1A1"/>
<rect x="266.664" y="272" width="5.33331" height="5.33333" transform="rotate(180 266.664 272)" fill="#A1A1A1"/>
<rect x="159.992" y="5.33594" width="5.33333" height="5.33331" transform="rotate(90 159.992 5.33594)" fill="#A1A1A1"/>
<rect x="159.992" y="37.3359" width="5.33333" height="5.33331" transform="rotate(90 159.992 37.3359)" fill="#A1A1A1"/>
<rect x="159.992" y="69.3359" width="5.33333" height="5.33331" transform="rotate(90 159.992 69.3359)" fill="#A1A1A1"/>
<rect x="159.992" y="101.336" width="5.33333" height="5.33331" transform="rotate(90 159.992 101.336)" fill="#A1A1A1"/>
<rect x="159.992" y="133.336" width="5.33333" height="5.33331" transform="rotate(90 159.992 133.336)" fill="#A1A1A1"/>
<rect x="159.992" y="165.336" width="5.33333" height="5.33331" transform="rotate(90 159.992 165.336)" fill="#A1A1A1"/>
<rect x="159.992" y="197.336" width="5.33333" height="5.33331" transform="rotate(90 159.992 197.336)" fill="#A1A1A1"/>
<rect x="159.992" y="229.336" width="5.33333" height="5.33331" transform="rotate(90 159.992 229.336)" fill="#A1A1A1"/>
<rect x="159.992" y="261.336" width="5.33333" height="5.33331" transform="rotate(90 159.992 261.336)" fill="#A1A1A1"/>
<rect x="95.9922" y="5.33594" width="5.33333" height="5.33331" transform="rotate(90 95.9922 5.33594)" fill="#A1A1A1"/>
<rect x="95.9922" y="37.3359" width="5.33333" height="5.33331" transform="rotate(90 95.9922 37.3359)" fill="#A1A1A1"/>
<rect x="95.9922" y="69.3359" width="5.33333" height="5.33331" transform="rotate(90 95.9922 69.3359)" fill="#A1A1A1"/>
<rect x="95.9922" y="101.336" width="5.33333" height="5.33331" transform="rotate(90 95.9922 101.336)" fill="#A1A1A1"/>
<rect x="95.9922" y="133.336" width="5.33333" height="5.33331" transform="rotate(90 95.9922 133.336)" fill="#A1A1A1"/>
<rect x="95.9922" y="165.336" width="5.33333" height="5.33331" transform="rotate(90 95.9922 165.336)" fill="#A1A1A1"/>
<rect x="95.9922" y="197.336" width="5.33333" height="5.33331" transform="rotate(90 95.9922 197.336)" fill="#A1A1A1"/>
<rect x="95.9922" y="229.336" width="5.33333" height="5.33331" transform="rotate(90 95.9922 229.336)" fill="#A1A1A1"/>
<rect x="95.9922" y="261.336" width="5.33333" height="5.33331" transform="rotate(90 95.9922 261.336)" fill="#A1A1A1"/>
<rect x="223.992" y="5.33594" width="5.33333" height="5.33331" transform="rotate(90 223.992 5.33594)" fill="#A1A1A1"/>
<rect x="223.992" y="37.3359" width="5.33333" height="5.33331" transform="rotate(90 223.992 37.3359)" fill="#A1A1A1"/>
<rect x="223.992" y="69.3359" width="5.33333" height="5.33331" transform="rotate(90 223.992 69.3359)" fill="#A1A1A1"/>
<rect x="223.992" y="101.336" width="5.33333" height="5.33331" transform="rotate(90 223.992 101.336)" fill="#A1A1A1"/>
<rect x="223.992" y="133.336" width="5.33333" height="5.33331" transform="rotate(90 223.992 133.336)" fill="#A1A1A1"/>
<rect x="223.992" y="165.336" width="5.33333" height="5.33331" transform="rotate(90 223.992 165.336)" fill="#A1A1A1"/>
<rect x="223.992" y="197.336" width="5.33333" height="5.33331" transform="rotate(90 223.992 197.336)" fill="#A1A1A1"/>
<rect x="223.992" y="229.336" width="5.33333" height="5.33331" transform="rotate(90 223.992 229.336)" fill="#A1A1A1"/>
<rect x="223.992" y="261.336" width="5.33333" height="5.33331" transform="rotate(90 223.992 261.336)" fill="#A1A1A1"/>
<rect x="37.3281" y="5.33594" width="5.33333" height="5.33331" transform="rotate(90 37.3281 5.33594)" fill="#A1A1A1"/>
<rect x="37.3281" y="37.3359" width="5.33333" height="5.33331" transform="rotate(90 37.3281 37.3359)" fill="#A1A1A1"/>
<rect x="37.3281" y="69.3359" width="5.33333" height="5.33331" transform="rotate(90 37.3281 69.3359)" fill="#A1A1A1"/>
<rect x="37.3281" y="101.336" width="5.33333" height="5.33331" transform="rotate(90 37.3281 101.336)" fill="#A1A1A1"/>
<rect x="37.3281" y="133.336" width="5.33333" height="5.33331" transform="rotate(90 37.3281 133.336)" fill="#A1A1A1"/>
<rect x="37.3281" y="165.336" width="5.33333" height="5.33331" transform="rotate(90 37.3281 165.336)" fill="#A1A1A1"/>
<rect x="37.3281" y="197.336" width="5.33333" height="5.33331" transform="rotate(90 37.3281 197.336)" fill="#A1A1A1"/>
<rect x="37.3281" y="229.336" width="5.33333" height="5.33331" transform="rotate(90 37.3281 229.336)" fill="#A1A1A1"/>
<rect x="37.3281" y="261.336" width="5.33333" height="5.33331" transform="rotate(90 37.3281 261.336)" fill="#A1A1A1"/>
<rect x="165.328" y="5.33594" width="5.33333" height="5.33331" transform="rotate(90 165.328 5.33594)" fill="#A1A1A1"/>
<rect x="165.328" y="37.3359" width="5.33333" height="5.33331" transform="rotate(90 165.328 37.3359)" fill="#A1A1A1"/>
<rect x="165.328" y="69.3359" width="5.33333" height="5.33331" transform="rotate(90 165.328 69.3359)" fill="#A1A1A1"/>
<rect x="165.328" y="101.336" width="5.33333" height="5.33331" transform="rotate(90 165.328 101.336)" fill="#A1A1A1"/>
<rect x="165.328" y="133.336" width="5.33333" height="5.33331" transform="rotate(90 165.328 133.336)" fill="#A1A1A1"/>
<rect x="165.328" y="165.336" width="5.33333" height="5.33331" transform="rotate(90 165.328 165.336)" fill="#A1A1A1"/>
<rect x="165.328" y="197.336" width="5.33333" height="5.33331" transform="rotate(90 165.328 197.336)" fill="#A1A1A1"/>
<rect x="165.328" y="229.336" width="5.33333" height="5.33331" transform="rotate(90 165.328 229.336)" fill="#A1A1A1"/>
<rect x="165.328" y="261.336" width="5.33333" height="5.33331" transform="rotate(90 165.328 261.336)" fill="#A1A1A1"/>
<rect x="101.328" y="5.33594" width="5.33333" height="5.33331" transform="rotate(90 101.328 5.33594)" fill="#A1A1A1"/>
<rect x="101.328" y="37.3359" width="5.33333" height="5.33331" transform="rotate(90 101.328 37.3359)" fill="#A1A1A1"/>
<rect x="101.328" y="69.3359" width="5.33333" height="5.33331" transform="rotate(90 101.328 69.3359)" fill="#A1A1A1"/>
<rect x="101.328" y="101.336" width="5.33333" height="5.33331" transform="rotate(90 101.328 101.336)" fill="#A1A1A1"/>
<rect x="101.328" y="133.336" width="5.33333" height="5.33331" transform="rotate(90 101.328 133.336)" fill="#A1A1A1"/>
<rect x="101.328" y="165.336" width="5.33333" height="5.33331" transform="rotate(90 101.328 165.336)" fill="#A1A1A1"/>
<rect x="101.328" y="197.336" width="5.33333" height="5.33331" transform="rotate(90 101.328 197.336)" fill="#A1A1A1"/>
<rect x="101.328" y="229.336" width="5.33333" height="5.33331" transform="rotate(90 101.328 229.336)" fill="#A1A1A1"/>
<rect x="101.328" y="261.336" width="5.33333" height="5.33331" transform="rotate(90 101.328 261.336)" fill="#A1A1A1"/>
<rect x="229.328" y="5.33594" width="5.33333" height="5.33331" transform="rotate(90 229.328 5.33594)" fill="#A1A1A1"/>
<rect x="229.328" y="37.3359" width="5.33333" height="5.33331" transform="rotate(90 229.328 37.3359)" fill="#A1A1A1"/>
<rect x="229.328" y="69.3359" width="5.33333" height="5.33331" transform="rotate(90 229.328 69.3359)" fill="#A1A1A1"/>
<rect x="229.328" y="101.336" width="5.33333" height="5.33331" transform="rotate(90 229.328 101.336)" fill="#A1A1A1"/>
<rect x="229.328" y="133.336" width="5.33333" height="5.33331" transform="rotate(90 229.328 133.336)" fill="#A1A1A1"/>
<rect x="229.328" y="165.336" width="5.33333" height="5.33331" transform="rotate(90 229.328 165.336)" fill="#A1A1A1"/>
<rect x="229.328" y="197.336" width="5.33333" height="5.33331" transform="rotate(90 229.328 197.336)" fill="#A1A1A1"/>
<rect x="229.328" y="229.336" width="5.33333" height="5.33331" transform="rotate(90 229.328 229.336)" fill="#A1A1A1"/>
<rect x="229.328" y="261.336" width="5.33333" height="5.33331" transform="rotate(90 229.328 261.336)" fill="#A1A1A1"/>
<rect x="42.6641" y="5.33594" width="5.33333" height="5.33331" transform="rotate(90 42.6641 5.33594)" fill="#A1A1A1"/>
<rect x="42.6641" y="37.3359" width="5.33333" height="5.33331" transform="rotate(90 42.6641 37.3359)" fill="#A1A1A1"/>
<rect x="42.6641" y="69.3359" width="5.33333" height="5.33331" transform="rotate(90 42.6641 69.3359)" fill="#A1A1A1"/>
<rect x="42.6641" y="101.336" width="5.33333" height="5.33331" transform="rotate(90 42.6641 101.336)" fill="#A1A1A1"/>
<rect x="42.6641" y="133.336" width="5.33333" height="5.33331" transform="rotate(90 42.6641 133.336)" fill="#A1A1A1"/>
<rect x="42.6641" y="165.336" width="5.33333" height="5.33331" transform="rotate(90 42.6641 165.336)" fill="#A1A1A1"/>
<rect x="42.6641" y="197.336" width="5.33333" height="5.33331" transform="rotate(90 42.6641 197.336)" fill="#A1A1A1"/>
<rect x="42.6641" y="229.336" width="5.33333" height="5.33331" transform="rotate(90 42.6641 229.336)" fill="#A1A1A1"/>
<rect x="42.6641" y="261.336" width="5.33333" height="5.33331" transform="rotate(90 42.6641 261.336)" fill="#A1A1A1"/>
<rect x="170.664" y="5.33594" width="5.33333" height="5.33331" transform="rotate(90 170.664 5.33594)" fill="#A1A1A1"/>
<rect x="170.664" y="37.3359" width="5.33333" height="5.33331" transform="rotate(90 170.664 37.3359)" fill="#A1A1A1"/>
<rect x="170.664" y="69.3359" width="5.33333" height="5.33331" transform="rotate(90 170.664 69.3359)" fill="#A1A1A1"/>
<rect x="170.664" y="101.336" width="5.33333" height="5.33331" transform="rotate(90 170.664 101.336)" fill="#A1A1A1"/>
<rect x="170.664" y="133.336" width="5.33333" height="5.33331" transform="rotate(90 170.664 133.336)" fill="#A1A1A1"/>
<rect x="170.664" y="165.336" width="5.33333" height="5.33331" transform="rotate(90 170.664 165.336)" fill="#A1A1A1"/>
<rect x="170.664" y="197.336" width="5.33333" height="5.33331" transform="rotate(90 170.664 197.336)" fill="#A1A1A1"/>
<rect x="170.664" y="229.336" width="5.33333" height="5.33331" transform="rotate(90 170.664 229.336)" fill="#A1A1A1"/>
<rect x="170.664" y="261.336" width="5.33333" height="5.33331" transform="rotate(90 170.664 261.336)" fill="#A1A1A1"/>
<rect x="106.664" y="5.33594" width="5.33333" height="5.33331" transform="rotate(90 106.664 5.33594)" fill="#A1A1A1"/>
<rect x="106.664" y="37.3359" width="5.33333" height="5.33331" transform="rotate(90 106.664 37.3359)" fill="#A1A1A1"/>
<rect x="106.664" y="69.3359" width="5.33333" height="5.33331" transform="rotate(90 106.664 69.3359)" fill="#A1A1A1"/>
<rect x="106.664" y="101.336" width="5.33333" height="5.33331" transform="rotate(90 106.664 101.336)" fill="#A1A1A1"/>
<rect x="106.664" y="133.336" width="5.33333" height="5.33331" transform="rotate(90 106.664 133.336)" fill="#A1A1A1"/>
<rect x="106.664" y="165.336" width="5.33333" height="5.33331" transform="rotate(90 106.664 165.336)" fill="#A1A1A1"/>
<rect x="106.664" y="197.336" width="5.33333" height="5.33331" transform="rotate(90 106.664 197.336)" fill="#A1A1A1"/>
<rect x="106.664" y="229.336" width="5.33333" height="5.33331" transform="rotate(90 106.664 229.336)" fill="#A1A1A1"/>
<rect x="106.664" y="261.336" width="5.33333" height="5.33331" transform="rotate(90 106.664 261.336)" fill="#A1A1A1"/>
<rect x="234.664" y="5.33594" width="5.33333" height="5.33331" transform="rotate(90 234.664 5.33594)" fill="#A1A1A1"/>
<rect x="234.664" y="37.3359" width="5.33333" height="5.33331" transform="rotate(90 234.664 37.3359)" fill="#A1A1A1"/>
<rect x="234.664" y="69.3359" width="5.33333" height="5.33331" transform="rotate(90 234.664 69.3359)" fill="#A1A1A1"/>
<rect x="234.664" y="101.336" width="5.33333" height="5.33331" transform="rotate(90 234.664 101.336)" fill="#A1A1A1"/>
<rect x="234.664" y="133.336" width="5.33333" height="5.33331" transform="rotate(90 234.664 133.336)" fill="#A1A1A1"/>
<rect x="234.664" y="165.336" width="5.33333" height="5.33331" transform="rotate(90 234.664 165.336)" fill="#A1A1A1"/>
<rect x="234.664" y="197.336" width="5.33333" height="5.33331" transform="rotate(90 234.664 197.336)" fill="#A1A1A1"/>
<rect x="234.664" y="229.336" width="5.33333" height="5.33331" transform="rotate(90 234.664 229.336)" fill="#A1A1A1"/>
<rect x="234.664" y="261.336" width="5.33333" height="5.33331" transform="rotate(90 234.664 261.336)" fill="#A1A1A1"/>
<rect x="48" y="5.33594" width="5.33333" height="5.33331" transform="rotate(90 48 5.33594)" fill="#A1A1A1"/>
<rect x="48" y="37.3359" width="5.33333" height="5.33331" transform="rotate(90 48 37.3359)" fill="#A1A1A1"/>
<rect x="48" y="69.3359" width="5.33333" height="5.33331" transform="rotate(90 48 69.3359)" fill="#A1A1A1"/>
<rect x="48" y="101.336" width="5.33333" height="5.33331" transform="rotate(90 48 101.336)" fill="#A1A1A1"/>
<rect x="48" y="133.336" width="5.33333" height="5.33331" transform="rotate(90 48 133.336)" fill="#A1A1A1"/>
<rect x="48" y="165.336" width="5.33333" height="5.33331" transform="rotate(90 48 165.336)" fill="#A1A1A1"/>
<rect x="48" y="197.336" width="5.33333" height="5.33331" transform="rotate(90 48 197.336)" fill="#A1A1A1"/>
<rect x="48" y="229.336" width="5.33333" height="5.33331" transform="rotate(90 48 229.336)" fill="#A1A1A1"/>
<rect x="48" y="261.336" width="5.33333" height="5.33331" transform="rotate(90 48 261.336)" fill="#A1A1A1"/>
<rect x="175.992" y="5.33594" width="5.33333" height="5.33331" transform="rotate(90 175.992 5.33594)" fill="#A1A1A1"/>
<rect x="175.992" y="37.3359" width="5.33333" height="5.33331" transform="rotate(90 175.992 37.3359)" fill="#A1A1A1"/>
<rect x="175.992" y="69.3359" width="5.33333" height="5.33331" transform="rotate(90 175.992 69.3359)" fill="#A1A1A1"/>
<rect x="175.992" y="101.336" width="5.33333" height="5.33331" transform="rotate(90 175.992 101.336)" fill="#A1A1A1"/>
<rect x="175.992" y="133.336" width="5.33333" height="5.33331" transform="rotate(90 175.992 133.336)" fill="#A1A1A1"/>
<rect x="175.992" y="165.336" width="5.33333" height="5.33331" transform="rotate(90 175.992 165.336)" fill="#A1A1A1"/>
<rect x="175.992" y="197.336" width="5.33333" height="5.33331" transform="rotate(90 175.992 197.336)" fill="#A1A1A1"/>
<rect x="175.992" y="229.336" width="5.33333" height="5.33331" transform="rotate(90 175.992 229.336)" fill="#A1A1A1"/>
<rect x="175.992" y="261.336" width="5.33333" height="5.33331" transform="rotate(90 175.992 261.336)" fill="#A1A1A1"/>
<rect x="112" y="5.33594" width="5.33333" height="5.33331" transform="rotate(90 112 5.33594)" fill="#A1A1A1"/>
<rect x="112" y="37.3359" width="5.33333" height="5.33331" transform="rotate(90 112 37.3359)" fill="#A1A1A1"/>
<rect x="112" y="69.3359" width="5.33333" height="5.33331" transform="rotate(90 112 69.3359)" fill="#A1A1A1"/>
<rect x="112" y="101.336" width="5.33333" height="5.33331" transform="rotate(90 112 101.336)" fill="#A1A1A1"/>
<rect x="112" y="133.336" width="5.33333" height="5.33331" transform="rotate(90 112 133.336)" fill="#A1A1A1"/>
<rect x="112" y="165.336" width="5.33333" height="5.33331" transform="rotate(90 112 165.336)" fill="#A1A1A1"/>
<rect x="112" y="197.336" width="5.33333" height="5.33331" transform="rotate(90 112 197.336)" fill="#A1A1A1"/>
<rect x="112" y="229.336" width="5.33333" height="5.33331" transform="rotate(90 112 229.336)" fill="#A1A1A1"/>
<rect x="112" y="261.336" width="5.33333" height="5.33331" transform="rotate(90 112 261.336)" fill="#A1A1A1"/>
<rect x="239.992" y="5.33594" width="5.33333" height="5.33331" transform="rotate(90 239.992 5.33594)" fill="#A1A1A1"/>
<rect x="239.992" y="37.3359" width="5.33333" height="5.33331" transform="rotate(90 239.992 37.3359)" fill="#A1A1A1"/>
<rect x="239.992" y="69.3359" width="5.33333" height="5.33331" transform="rotate(90 239.992 69.3359)" fill="#A1A1A1"/>
<rect x="239.992" y="101.336" width="5.33333" height="5.33331" transform="rotate(90 239.992 101.336)" fill="#A1A1A1"/>
<rect x="239.992" y="133.336" width="5.33333" height="5.33331" transform="rotate(90 239.992 133.336)" fill="#A1A1A1"/>
<rect x="239.992" y="165.336" width="5.33333" height="5.33331" transform="rotate(90 239.992 165.336)" fill="#A1A1A1"/>
<rect x="239.992" y="197.336" width="5.33333" height="5.33331" transform="rotate(90 239.992 197.336)" fill="#A1A1A1"/>
<rect x="239.992" y="229.336" width="5.33333" height="5.33331" transform="rotate(90 239.992 229.336)" fill="#A1A1A1"/>
<rect x="239.992" y="261.336" width="5.33333" height="5.33331" transform="rotate(90 239.992 261.336)" fill="#A1A1A1"/>
<rect x="53.3281" y="5.33594" width="5.33333" height="5.33331" transform="rotate(90 53.3281 5.33594)" fill="#A1A1A1"/>
<rect x="53.3281" y="37.3359" width="5.33333" height="5.33331" transform="rotate(90 53.3281 37.3359)" fill="#A1A1A1"/>
<rect x="53.3281" y="69.3359" width="5.33333" height="5.33331" transform="rotate(90 53.3281 69.3359)" fill="#A1A1A1"/>
<rect x="53.3281" y="101.336" width="5.33333" height="5.33331" transform="rotate(90 53.3281 101.336)" fill="#A1A1A1"/>
<rect x="53.3281" y="133.336" width="5.33333" height="5.33331" transform="rotate(90 53.3281 133.336)" fill="#A1A1A1"/>
<rect x="53.3281" y="165.336" width="5.33333" height="5.33331" transform="rotate(90 53.3281 165.336)" fill="#A1A1A1"/>
<rect x="53.3281" y="197.336" width="5.33333" height="5.33331" transform="rotate(90 53.3281 197.336)" fill="#A1A1A1"/>
<rect x="53.3281" y="229.336" width="5.33333" height="5.33331" transform="rotate(90 53.3281 229.336)" fill="#A1A1A1"/>
<rect x="53.3281" y="261.336" width="5.33333" height="5.33331" transform="rotate(90 53.3281 261.336)" fill="#A1A1A1"/>
<rect x="181.328" y="5.33594" width="5.33333" height="5.33331" transform="rotate(90 181.328 5.33594)" fill="#A1A1A1"/>
<rect x="181.328" y="37.3359" width="5.33333" height="5.33331" transform="rotate(90 181.328 37.3359)" fill="#A1A1A1"/>
<rect x="181.328" y="69.3359" width="5.33333" height="5.33331" transform="rotate(90 181.328 69.3359)" fill="#A1A1A1"/>
<rect x="181.328" y="101.336" width="5.33333" height="5.33331" transform="rotate(90 181.328 101.336)" fill="#A1A1A1"/>
<rect x="181.328" y="133.336" width="5.33333" height="5.33331" transform="rotate(90 181.328 133.336)" fill="#A1A1A1"/>
<rect x="181.328" y="165.336" width="5.33333" height="5.33331" transform="rotate(90 181.328 165.336)" fill="#A1A1A1"/>
<rect x="181.328" y="197.336" width="5.33333" height="5.33331" transform="rotate(90 181.328 197.336)" fill="#A1A1A1"/>
<rect x="181.328" y="229.336" width="5.33333" height="5.33331" transform="rotate(90 181.328 229.336)" fill="#A1A1A1"/>
<rect x="181.328" y="261.336" width="5.33333" height="5.33331" transform="rotate(90 181.328 261.336)" fill="#A1A1A1"/>
<rect x="117.328" y="5.33594" width="5.33333" height="5.33331" transform="rotate(90 117.328 5.33594)" fill="#A1A1A1"/>
<rect x="117.328" y="37.3359" width="5.33333" height="5.33331" transform="rotate(90 117.328 37.3359)" fill="#A1A1A1"/>
<rect x="117.328" y="69.3359" width="5.33333" height="5.33331" transform="rotate(90 117.328 69.3359)" fill="#A1A1A1"/>
<rect x="117.328" y="101.336" width="5.33333" height="5.33331" transform="rotate(90 117.328 101.336)" fill="#A1A1A1"/>
<rect x="117.328" y="133.336" width="5.33333" height="5.33331" transform="rotate(90 117.328 133.336)" fill="#A1A1A1"/>
<rect x="117.328" y="165.336" width="5.33333" height="5.33331" transform="rotate(90 117.328 165.336)" fill="#A1A1A1"/>
<rect x="117.328" y="197.336" width="5.33333" height="5.33331" transform="rotate(90 117.328 197.336)" fill="#A1A1A1"/>
<rect x="117.328" y="229.336" width="5.33333" height="5.33331" transform="rotate(90 117.328 229.336)" fill="#A1A1A1"/>
<rect x="117.328" y="261.336" width="5.33333" height="5.33331" transform="rotate(90 117.328 261.336)" fill="#A1A1A1"/>
<rect x="245.328" y="5.33594" width="5.33333" height="5.33331" transform="rotate(90 245.328 5.33594)" fill="#A1A1A1"/>
<rect x="245.328" y="37.3359" width="5.33333" height="5.33331" transform="rotate(90 245.328 37.3359)" fill="#A1A1A1"/>
<rect x="245.328" y="69.3359" width="5.33333" height="5.33331" transform="rotate(90 245.328 69.3359)" fill="#A1A1A1"/>
<rect x="245.328" y="101.336" width="5.33333" height="5.33331" transform="rotate(90 245.328 101.336)" fill="#A1A1A1"/>
<rect x="245.328" y="133.336" width="5.33333" height="5.33331" transform="rotate(90 245.328 133.336)" fill="#A1A1A1"/>
<rect x="245.328" y="165.336" width="5.33333" height="5.33331" transform="rotate(90 245.328 165.336)" fill="#A1A1A1"/>
<rect x="245.328" y="197.336" width="5.33333" height="5.33331" transform="rotate(90 245.328 197.336)" fill="#A1A1A1"/>
<rect x="245.328" y="229.336" width="5.33333" height="5.33331" transform="rotate(90 245.328 229.336)" fill="#A1A1A1"/>
<rect x="245.328" y="261.336" width="5.33333" height="5.33331" transform="rotate(90 245.328 261.336)" fill="#A1A1A1"/>
<rect x="266.664" y="37.3359" width="5.33333" height="5.33331" transform="rotate(90 266.664 37.3359)" fill="#A1A1A1"/>
<rect x="266.664" y="69.3359" width="5.33333" height="5.33331" transform="rotate(90 266.664 69.3359)" fill="#A1A1A1"/>
<rect x="266.664" y="101.336" width="5.33333" height="5.33331" transform="rotate(90 266.664 101.336)" fill="#A1A1A1"/>
<rect x="266.664" y="133.336" width="5.33333" height="5.33331" transform="rotate(90 266.664 133.336)" fill="#A1A1A1"/>
<rect x="266.664" y="165.336" width="5.33333" height="5.33331" transform="rotate(90 266.664 165.336)" fill="#A1A1A1"/>
<rect x="266.664" y="197.336" width="5.33333" height="5.33331" transform="rotate(90 266.664 197.336)" fill="#A1A1A1"/>
<rect x="266.664" y="229.336" width="5.33333" height="5.33331" transform="rotate(90 266.664 229.336)" fill="#A1A1A1"/>
<rect x="58.6641" y="5.33594" width="5.33333" height="5.33331" transform="rotate(90 58.6641 5.33594)" fill="#A1A1A1"/>
<rect x="58.6641" y="37.3359" width="5.33333" height="5.33331" transform="rotate(90 58.6641 37.3359)" fill="#A1A1A1"/>
<rect x="58.6641" y="69.3359" width="5.33333" height="5.33331" transform="rotate(90 58.6641 69.3359)" fill="#A1A1A1"/>
<rect x="58.6641" y="101.336" width="5.33333" height="5.33331" transform="rotate(90 58.6641 101.336)" fill="#A1A1A1"/>
<rect x="58.6641" y="133.336" width="5.33333" height="5.33331" transform="rotate(90 58.6641 133.336)" fill="#A1A1A1"/>
<rect x="58.6641" y="165.336" width="5.33333" height="5.33331" transform="rotate(90 58.6641 165.336)" fill="#A1A1A1"/>
<rect x="58.6641" y="197.336" width="5.33333" height="5.33331" transform="rotate(90 58.6641 197.336)" fill="#A1A1A1"/>
<rect x="58.6641" y="229.336" width="5.33333" height="5.33331" transform="rotate(90 58.6641 229.336)" fill="#A1A1A1"/>
<rect x="58.6641" y="261.336" width="5.33333" height="5.33331" transform="rotate(90 58.6641 261.336)" fill="#A1A1A1"/>
<rect x="186.664" y="5.33594" width="5.33333" height="5.33331" transform="rotate(90 186.664 5.33594)" fill="#A1A1A1"/>
<rect x="186.664" y="37.3359" width="5.33333" height="5.33331" transform="rotate(90 186.664 37.3359)" fill="#A1A1A1"/>
<rect x="186.664" y="69.3359" width="5.33333" height="5.33331" transform="rotate(90 186.664 69.3359)" fill="#A1A1A1"/>
<rect x="186.664" y="101.336" width="5.33333" height="5.33331" transform="rotate(90 186.664 101.336)" fill="#A1A1A1"/>
<rect x="186.664" y="133.336" width="5.33333" height="5.33331" transform="rotate(90 186.664 133.336)" fill="#A1A1A1"/>
<rect x="186.664" y="165.336" width="5.33333" height="5.33331" transform="rotate(90 186.664 165.336)" fill="#A1A1A1"/>
<rect x="186.664" y="197.336" width="5.33333" height="5.33331" transform="rotate(90 186.664 197.336)" fill="#A1A1A1"/>
<rect x="186.664" y="229.336" width="5.33333" height="5.33331" transform="rotate(90 186.664 229.336)" fill="#A1A1A1"/>
<rect x="186.664" y="261.336" width="5.33333" height="5.33331" transform="rotate(90 186.664 261.336)" fill="#A1A1A1"/>
<rect x="122.664" y="5.33594" width="5.33333" height="5.33331" transform="rotate(90 122.664 5.33594)" fill="#A1A1A1"/>
<rect x="122.664" y="37.3359" width="5.33333" height="5.33331" transform="rotate(90 122.664 37.3359)" fill="#A1A1A1"/>
<rect x="122.664" y="69.3359" width="5.33333" height="5.33331" transform="rotate(90 122.664 69.3359)" fill="#A1A1A1"/>
<rect x="122.664" y="101.336" width="5.33333" height="5.33331" transform="rotate(90 122.664 101.336)" fill="#A1A1A1"/>
<rect x="122.664" y="133.336" width="5.33333" height="5.33331" transform="rotate(90 122.664 133.336)" fill="#A1A1A1"/>
<rect x="122.664" y="165.336" width="5.33333" height="5.33331" transform="rotate(90 122.664 165.336)" fill="#A1A1A1"/>
<rect x="122.664" y="197.336" width="5.33333" height="5.33331" transform="rotate(90 122.664 197.336)" fill="#A1A1A1"/>
<rect x="122.664" y="229.336" width="5.33333" height="5.33331" transform="rotate(90 122.664 229.336)" fill="#A1A1A1"/>
<rect x="122.664" y="261.336" width="5.33333" height="5.33331" transform="rotate(90 122.664 261.336)" fill="#A1A1A1"/>
<rect x="250.664" y="5.33594" width="5.33333" height="5.33331" transform="rotate(90 250.664 5.33594)" fill="#A1A1A1"/>
<rect x="250.664" y="37.3359" width="5.33333" height="5.33331" transform="rotate(90 250.664 37.3359)" fill="#A1A1A1"/>
<rect x="250.664" y="69.3359" width="5.33333" height="5.33331" transform="rotate(90 250.664 69.3359)" fill="#A1A1A1"/>
<rect x="250.664" y="101.336" width="5.33333" height="5.33331" transform="rotate(90 250.664 101.336)" fill="#A1A1A1"/>
<rect x="250.664" y="133.336" width="5.33333" height="5.33331" transform="rotate(90 250.664 133.336)" fill="#A1A1A1"/>
<rect x="250.664" y="165.336" width="5.33333" height="5.33331" transform="rotate(90 250.664 165.336)" fill="#A1A1A1"/>
<rect x="250.664" y="197.336" width="5.33333" height="5.33331" transform="rotate(90 250.664 197.336)" fill="#A1A1A1"/>
<rect x="250.664" y="229.336" width="5.33333" height="5.33331" transform="rotate(90 250.664 229.336)" fill="#A1A1A1"/>
<rect x="250.664" y="261.336" width="5.33333" height="5.33331" transform="rotate(90 250.664 261.336)" fill="#A1A1A1"/>
<rect x="63.9922" y="5.33594" width="5.33333" height="5.33331" transform="rotate(90 63.9922 5.33594)" fill="#A1A1A1"/>
<rect x="63.9922" y="37.3359" width="5.33333" height="5.33331" transform="rotate(90 63.9922 37.3359)" fill="#A1A1A1"/>
<rect x="63.9922" y="69.3359" width="5.33333" height="5.33331" transform="rotate(90 63.9922 69.3359)" fill="#A1A1A1"/>
<rect x="63.9922" y="101.336" width="5.33333" height="5.33331" transform="rotate(90 63.9922 101.336)" fill="#A1A1A1"/>
<rect x="63.9922" y="133.336" width="5.33333" height="5.33331" transform="rotate(90 63.9922 133.336)" fill="#A1A1A1"/>
<rect x="63.9922" y="165.336" width="5.33333" height="5.33331" transform="rotate(90 63.9922 165.336)" fill="#A1A1A1"/>
<rect x="63.9922" y="197.336" width="5.33333" height="5.33331" transform="rotate(90 63.9922 197.336)" fill="#A1A1A1"/>
<rect x="63.9922" y="229.336" width="5.33333" height="5.33331" transform="rotate(90 63.9922 229.336)" fill="#A1A1A1"/>
<rect x="63.9922" y="261.336" width="5.33333" height="5.33331" transform="rotate(90 63.9922 261.336)" fill="#A1A1A1"/>
<rect x="192" y="5.33594" width="5.33333" height="5.33331" transform="rotate(90 192 5.33594)" fill="#A1A1A1"/>
<rect x="192" y="37.3359" width="5.33333" height="5.33331" transform="rotate(90 192 37.3359)" fill="#A1A1A1"/>
<rect x="192" y="69.3359" width="5.33333" height="5.33331" transform="rotate(90 192 69.3359)" fill="#A1A1A1"/>
<rect x="192" y="101.336" width="5.33333" height="5.33331" transform="rotate(90 192 101.336)" fill="#A1A1A1"/>
<rect x="192" y="133.336" width="5.33333" height="5.33331" transform="rotate(90 192 133.336)" fill="#A1A1A1"/>
<rect x="192" y="165.336" width="5.33333" height="5.33331" transform="rotate(90 192 165.336)" fill="#A1A1A1"/>
<rect x="192" y="197.336" width="5.33333" height="5.33331" transform="rotate(90 192 197.336)" fill="#A1A1A1"/>
<rect x="192" y="229.336" width="5.33333" height="5.33331" transform="rotate(90 192 229.336)" fill="#A1A1A1"/>
<rect x="192" y="261.336" width="5.33333" height="5.33331" transform="rotate(90 192 261.336)" fill="#A1A1A1"/>
<rect x="127.992" y="5.33594" width="5.33333" height="5.33331" transform="rotate(90 127.992 5.33594)" fill="#A1A1A1"/>
<rect x="127.992" y="37.3359" width="5.33333" height="5.33331" transform="rotate(90 127.992 37.3359)" fill="#A1A1A1"/>
<rect x="127.992" y="69.3359" width="5.33333" height="5.33331" transform="rotate(90 127.992 69.3359)" fill="#A1A1A1"/>
<rect x="127.992" y="101.336" width="5.33333" height="5.33331" transform="rotate(90 127.992 101.336)" fill="#A1A1A1"/>
<rect x="127.992" y="133.336" width="5.33333" height="5.33331" transform="rotate(90 127.992 133.336)" fill="#A1A1A1"/>
<rect x="127.992" y="165.336" width="5.33333" height="5.33331" transform="rotate(90 127.992 165.336)" fill="#A1A1A1"/>
<rect x="127.992" y="197.336" width="5.33333" height="5.33331" transform="rotate(90 127.992 197.336)" fill="#A1A1A1"/>
<rect x="127.992" y="229.336" width="5.33333" height="5.33331" transform="rotate(90 127.992 229.336)" fill="#A1A1A1"/>
<rect x="127.992" y="261.336" width="5.33333" height="5.33331" transform="rotate(90 127.992 261.336)" fill="#A1A1A1"/>
<rect x="255.992" y="5.33594" width="5.33333" height="5.33331" transform="rotate(90 255.992 5.33594)" fill="#A1A1A1"/>
<rect x="255.992" y="37.3359" width="5.33333" height="5.33331" transform="rotate(90 255.992 37.3359)" fill="#A1A1A1"/>
<rect x="255.992" y="69.3359" width="5.33333" height="5.33331" transform="rotate(90 255.992 69.3359)" fill="#A1A1A1"/>
<rect x="255.992" y="101.336" width="5.33333" height="5.33331" transform="rotate(90 255.992 101.336)" fill="#A1A1A1"/>
<rect x="255.992" y="133.336" width="5.33333" height="5.33331" transform="rotate(90 255.992 133.336)" fill="#A1A1A1"/>
<rect x="255.992" y="165.336" width="5.33333" height="5.33331" transform="rotate(90 255.992 165.336)" fill="#A1A1A1"/>
<rect x="255.992" y="197.336" width="5.33333" height="5.33331" transform="rotate(90 255.992 197.336)" fill="#A1A1A1"/>
<rect x="255.992" y="229.336" width="5.33333" height="5.33331" transform="rotate(90 255.992 229.336)" fill="#A1A1A1"/>
<rect x="255.992" y="261.336" width="5.33333" height="5.33331" transform="rotate(90 255.992 261.336)" fill="#A1A1A1"/>
<rect x="69.3281" y="5.33594" width="5.33333" height="5.33331" transform="rotate(90 69.3281 5.33594)" fill="#A1A1A1"/>
<rect x="69.3281" y="37.3359" width="5.33333" height="5.33331" transform="rotate(90 69.3281 37.3359)" fill="#A1A1A1"/>
<rect x="69.3281" y="69.3359" width="5.33333" height="5.33331" transform="rotate(90 69.3281 69.3359)" fill="#A1A1A1"/>
<rect x="69.3281" y="101.336" width="5.33333" height="5.33331" transform="rotate(90 69.3281 101.336)" fill="#A1A1A1"/>
<rect x="69.3281" y="133.336" width="5.33333" height="5.33331" transform="rotate(90 69.3281 133.336)" fill="#A1A1A1"/>
<rect x="69.3281" y="165.336" width="5.33333" height="5.33331" transform="rotate(90 69.3281 165.336)" fill="#A1A1A1"/>
<rect x="69.3281" y="197.336" width="5.33333" height="5.33331" transform="rotate(90 69.3281 197.336)" fill="#A1A1A1"/>
<rect x="69.3281" y="229.336" width="5.33333" height="5.33331" transform="rotate(90 69.3281 229.336)" fill="#A1A1A1"/>
<rect x="69.3281" y="261.336" width="5.33333" height="5.33331" transform="rotate(90 69.3281 261.336)" fill="#A1A1A1"/>
<rect x="197.328" y="5.33594" width="5.33333" height="5.33331" transform="rotate(90 197.328 5.33594)" fill="#A1A1A1"/>
<rect x="197.328" y="37.3359" width="5.33333" height="5.33331" transform="rotate(90 197.328 37.3359)" fill="#A1A1A1"/>
<rect x="197.328" y="69.3359" width="5.33333" height="5.33331" transform="rotate(90 197.328 69.3359)" fill="#A1A1A1"/>
<rect x="197.328" y="101.336" width="5.33333" height="5.33331" transform="rotate(90 197.328 101.336)" fill="#A1A1A1"/>
<rect x="197.328" y="133.336" width="5.33333" height="5.33331" transform="rotate(90 197.328 133.336)" fill="#A1A1A1"/>
<rect x="197.328" y="165.336" width="5.33333" height="5.33331" transform="rotate(90 197.328 165.336)" fill="#A1A1A1"/>
<rect x="197.328" y="197.336" width="5.33333" height="5.33331" transform="rotate(90 197.328 197.336)" fill="#A1A1A1"/>
<rect x="197.328" y="229.336" width="5.33333" height="5.33331" transform="rotate(90 197.328 229.336)" fill="#A1A1A1"/>
<rect x="197.328" y="261.336" width="5.33333" height="5.33331" transform="rotate(90 197.328 261.336)" fill="#A1A1A1"/>
<rect x="133.328" y="5.33594" width="5.33333" height="5.33331" transform="rotate(90 133.328 5.33594)" fill="#A1A1A1"/>
<rect x="133.328" y="37.3359" width="5.33333" height="5.33331" transform="rotate(90 133.328 37.3359)" fill="#A1A1A1"/>
<rect x="133.328" y="69.3359" width="5.33333" height="5.33331" transform="rotate(90 133.328 69.3359)" fill="#A1A1A1"/>
<rect x="133.328" y="101.336" width="5.33333" height="5.33331" transform="rotate(90 133.328 101.336)" fill="#A1A1A1"/>
<rect x="133.328" y="133.336" width="5.33333" height="5.33331" transform="rotate(90 133.328 133.336)" fill="#A1A1A1"/>
<rect x="133.328" y="165.336" width="5.33333" height="5.33331" transform="rotate(90 133.328 165.336)" fill="#A1A1A1"/>
<rect x="133.328" y="197.336" width="5.33333" height="5.33331" transform="rotate(90 133.328 197.336)" fill="#A1A1A1"/>
<rect x="133.328" y="229.336" width="5.33333" height="5.33331" transform="rotate(90 133.328 229.336)" fill="#A1A1A1"/>
<rect x="133.328" y="261.336" width="5.33333" height="5.33331" transform="rotate(90 133.328 261.336)" fill="#A1A1A1"/>
<rect x="261.328" y="5.33594" width="5.33333" height="5.33331" transform="rotate(90 261.328 5.33594)" fill="#A1A1A1"/>
<rect x="261.328" y="5.33594" width="5.33333" height="5.33331" transform="rotate(90 261.328 5.33594)" fill="#A1A1A1"/>
<rect width="5.33333" height="5.33331" transform="matrix(2.07185e-06 1 -1 3.18987e-08 266.664 0)" fill="#A1A1A1"/>
<rect width="5.33333" height="5.33331" transform="matrix(1.37108e-06 1 -1 4.82024e-08 271.992 0)" fill="#A1A1A1"/>
<rect x="271.992" y="5.33594" width="5.33333" height="5.33331" transform="rotate(90 271.992 5.33594)" fill="#A1A1A1"/>
<rect x="261.328" y="37.3359" width="5.33333" height="5.33331" transform="rotate(90 261.328 37.3359)" fill="#A1A1A1"/>
<rect x="261.328" y="69.3359" width="5.33333" height="5.33331" transform="rotate(90 261.328 69.3359)" fill="#A1A1A1"/>
<rect x="261.328" y="101.336" width="5.33333" height="5.33331" transform="rotate(90 261.328 101.336)" fill="#A1A1A1"/>
<rect x="261.328" y="133.336" width="5.33333" height="5.33331" transform="rotate(90 261.328 133.336)" fill="#A1A1A1"/>
<rect x="261.328" y="165.336" width="5.33333" height="5.33331" transform="rotate(90 261.328 165.336)" fill="#A1A1A1"/>
<rect x="261.328" y="197.336" width="5.33333" height="5.33331" transform="rotate(90 261.328 197.336)" fill="#A1A1A1"/>
<rect x="261.328" y="229.336" width="5.33333" height="5.33331" transform="rotate(90 261.328 229.336)" fill="#A1A1A1"/>
<rect x="261.328" y="261.336" width="5.33333" height="5.33331" transform="rotate(90 261.328 261.336)" fill="#A1A1A1"/>
<ellipse cx="88.5" cy="215.5" rx="12.5" ry="12.5" fill="white"/>
<ellipse cx="55.5" cy="55.5" rx="12.5" ry="12.5" fill="white"/>
<ellipse cx="184.5" cy="53.5" rx="12.5" ry="12.5" fill="black"/>
<ellipse cx="216.5" cy="215.5" rx="12.5" ry="12.5" fill="black"/>
<path d="M86.7304 52.4842C85.9493 53.2653 85.9493 54.5316 86.7304 55.3126L99.4583 68.0406C100.239 68.8216 101.506 68.8216 102.287 68.0406C103.068 67.2595 103.068 65.9932 102.287 65.2121L90.973 53.8984L102.287 42.5847C103.068 41.8037 103.068 40.5373 102.287 39.7563C101.506 38.9752 100.239 38.9752 99.4583 39.7563L86.7304 52.4842ZM165.211 53.8984L165.211 51.8984L88.1446 51.8984L88.1446 53.8984L88.1446 55.8984L165.211 55.8984L165.211 53.8984Z" fill="white"/>
<path d="M183.445 153.531C184.226 154.313 185.493 154.313 186.274 153.531L199.002 140.804C199.783 140.022 199.783 138.756 199.002 137.975C198.22 137.194 196.954 137.194 196.173 137.975L184.859 149.289L173.546 137.975C172.765 137.194 171.498 137.194 170.717 137.975C169.936 138.756 169.936 140.022 170.717 140.804L183.445 153.531ZM184.859 74.5469L182.859 74.5469L182.859 152.117L184.859 152.117L186.859 152.117L186.859 74.5469L184.859 74.5469Z" fill="white"/>
<path d="M89.5548 118.469C88.7738 117.687 87.5075 117.687 86.7264 118.469L73.9985 131.196C73.2174 131.978 73.2174 133.244 73.9985 134.025C74.7795 134.806 76.0459 134.806 76.8269 134.025L88.1406 122.711L99.4543 134.025C100.235 134.806 101.502 134.806 102.283 134.025C103.064 133.244 103.064 131.978 102.283 131.196L89.5548 118.469ZM88.1406 197.453L90.1406 197.453L90.1406 119.883L88.1406 119.883L86.1406 119.883L86.1406 197.453L88.1406 197.453Z" fill="white"/>
<path d="M185.766 217.5C186.547 216.719 186.547 215.453 185.766 214.672L173.038 201.944C172.257 201.163 170.99 201.163 170.209 201.944C169.428 202.725 169.428 203.991 170.209 204.772L181.523 216.086L170.209 227.4C169.428 228.181 169.428 229.447 170.209 230.228C170.99 231.009 172.257 231.009 173.038 230.228L185.766 217.5ZM106.781 216.086V218.086H184.351V216.086V214.086H106.781V216.086Z" fill="white"/>
<path d="M186.274 9.67033C185.493 8.88928 184.226 8.88928 183.445 9.67033L170.717 22.3983C169.936 23.1793 169.936 24.4456 170.717 25.2267C171.498 26.0077 172.765 26.0077 173.546 25.2267L184.859 13.913L196.173 25.2267C196.954 26.0077 198.22 26.0077 199.002 25.2267C199.783 24.4456 199.783 23.1793 199.002 22.3983L186.274 9.67033ZM184.859 36.7734L186.859 36.7734L186.859 11.0845L184.859 11.0845L182.859 11.0845L182.859 36.7734L184.859 36.7734Z" fill="white"/>
<path d="M86.7264 260.314C87.5075 261.095 88.7738 261.095 89.5548 260.314L102.283 247.586C103.064 246.805 103.064 245.539 102.283 244.758C101.502 243.977 100.235 243.977 99.4543 244.758L88.1406 256.071L76.8269 244.758C76.0459 243.977 74.7795 243.977 73.9985 244.758C73.2174 245.539 73.2174 246.805 73.9985 247.586L86.7264 260.314ZM88.1406 233.211L86.1406 233.211L86.1406 258.9L88.1406 258.9L90.1406 258.9L90.1406 233.211L88.1406 233.211Z" fill="white"/>
<path d="M250.747 55.3127C251.528 54.5316 251.528 53.2653 250.747 52.4842L238.019 39.7563C237.238 38.9753 235.972 38.9753 235.191 39.7563C234.41 40.5374 234.41 41.8037 235.191 42.5847L246.505 53.8984L235.191 65.2121C234.41 65.9932 234.41 67.2595 235.191 68.0406C235.972 68.8216 237.238 68.8216 238.019 68.0406L250.747 55.3127ZM204 53.8984V55.8984H249.333V53.8984V51.8984H204V53.8984Z" fill="white"/>
<path d="M21.2526 214.672C20.4716 215.453 20.4716 216.719 21.2526 217.5L33.9806 230.228C34.7616 231.009 36.028 231.009 36.809 230.228C37.59 229.447 37.59 228.181 36.809 227.4L25.4953 216.086L36.809 204.772C37.59 203.991 37.59 202.725 36.809 201.944C36.0279 201.163 34.7616 201.163 33.9806 201.944L21.2526 214.672ZM68 216.086L68 214.086L22.6669 214.086L22.6669 216.086L22.6669 218.086L68 218.086L68 216.086Z" fill="white"/>
</svg>
