<svg width="262" height="208" viewBox="0 0 262 208" fill="none" xmlns="http://www.w3.org/2000/svg">
<rect x="118.641" y="198.095" width="4.9434" height="4.95238" transform="rotate(180 118.641 198.095)" fill="#A1A1A1"/>
<rect x="118.641" y="138.666" width="4.9434" height="4.95238" transform="rotate(180 118.641 138.666)" fill="#A1A1A1"/>
<rect x="118.641" y="14.8574" width="4.9434" height="4.95238" transform="rotate(180 118.641 14.8574)" fill="#A1A1A1"/>
<rect x="44.5" y="138.666" width="4.9434" height="4.95238" transform="rotate(180 44.5 138.666)" fill="#A1A1A1"/>
<rect x="192.805" y="138.666" width="4.9434" height="4.95238" transform="rotate(180 192.805 138.666)" fill="#A1A1A1"/>
<rect x="118.641" y="74.2852" width="4.9434" height="4.95238" transform="rotate(180 118.641 74.2852)" fill="#A1A1A1"/>
<rect x="88.9844" y="74.2852" width="4.9434" height="4.95238" transform="rotate(180 88.9844 74.2852)" fill="#A1A1A1"/>
<rect x="133.469" y="193.143" width="4.9434" height="4.95238" transform="rotate(180 133.469 193.143)" fill="#A1A1A1"/>
<rect x="133.469" y="133.715" width="4.9434" height="4.95238" transform="rotate(180 133.469 133.715)" fill="#A1A1A1"/>
<rect x="133.469" y="9.90527" width="4.9434" height="4.95238" transform="rotate(180 133.469 9.90527)" fill="#A1A1A1"/>
<rect x="59.3359" y="133.715" width="4.9434" height="4.95238" transform="rotate(180 59.3359 133.715)" fill="#A1A1A1"/>
<rect x="207.633" y="133.715" width="4.9434" height="4.95238" transform="rotate(180 207.633 133.715)" fill="#A1A1A1"/>
<rect x="133.469" y="69.334" width="4.9434" height="4.95238" transform="rotate(180 133.469 69.334)" fill="#A1A1A1"/>
<rect x="163.141" y="69.334" width="4.9434" height="4.95238" transform="rotate(180 163.141 69.334)" fill="#A1A1A1"/>
<rect x="103.812" y="69.334" width="4.9434" height="4.95238" transform="rotate(180 103.812 69.334)" fill="#A1A1A1"/>
<rect x="123.586" y="188.19" width="4.95238" height="4.9434" transform="rotate(90 123.586 188.19)" fill="#A1A1A1"/>
<rect x="123.586" y="128.762" width="4.95238" height="4.9434" transform="rotate(90 123.586 128.762)" fill="#A1A1A1"/>
<rect x="123.586" y="4.95215" width="4.95238" height="4.9434" transform="rotate(90 123.586 4.95215)" fill="#A1A1A1"/>
<rect x="49.4375" y="128.762" width="4.95238" height="4.9434" transform="rotate(90 49.4375 128.762)" fill="#A1A1A1"/>
<rect x="197.742" y="128.762" width="4.95238" height="4.9434" transform="rotate(90 197.742 128.762)" fill="#A1A1A1"/>
<rect x="123.586" y="64.3809" width="4.95238" height="4.9434" transform="rotate(90 123.586 64.3809)" fill="#A1A1A1"/>
<rect x="153.25" y="64.3809" width="4.95238" height="4.9434" transform="rotate(90 153.25 64.3809)" fill="#A1A1A1"/>
<rect x="93.9219" y="64.3809" width="4.95238" height="4.9434" transform="rotate(90 93.9219 64.3809)" fill="#A1A1A1"/>
<rect x="128.523" y="203.048" width="4.95238" height="4.9434" transform="rotate(90 128.523 203.048)" fill="#A1A1A1"/>
<rect x="128.523" y="143.619" width="4.95238" height="4.9434" transform="rotate(90 128.523 143.619)" fill="#A1A1A1"/>
<rect x="128.523" y="19.8086" width="4.95238" height="4.9434" transform="rotate(90 128.523 19.8086)" fill="#A1A1A1"/>
<rect x="54.3828" y="143.619" width="4.95238" height="4.9434" transform="rotate(90 54.3828 143.619)" fill="#A1A1A1"/>
<rect x="202.68" y="143.619" width="4.95238" height="4.9434" transform="rotate(90 202.68 143.619)" fill="#A1A1A1"/>
<rect x="128.523" y="79.2383" width="4.95238" height="4.9434" transform="rotate(90 128.523 79.2383)" fill="#A1A1A1"/>
<rect x="158.195" y="79.2383" width="4.95238" height="4.9434" transform="rotate(90 158.195 79.2383)" fill="#A1A1A1"/>
<rect x="98.8594" y="79.2383" width="4.95238" height="4.9434" transform="rotate(90 98.8594 79.2383)" fill="#A1A1A1"/>
<rect x="9.89062" y="193.143" width="4.9434" height="4.95238" transform="rotate(180 9.89062 193.143)" fill="#A1A1A1"/>
<rect x="247.172" y="203.048" width="4.9434" height="4.95238" transform="rotate(180 247.172 203.048)" fill="#A1A1A1"/>
<rect x="9.89062" y="198.095" width="4.95238" height="4.9434" transform="rotate(90 9.89062 198.095)" fill="#A1A1A1"/>
<rect x="257.062" y="198.095" width="4.95238" height="4.9434" transform="rotate(90 257.062 198.095)" fill="#A1A1A1"/>
<rect x="19.7812" y="203.048" width="4.9434" height="4.95238" transform="rotate(180 19.7812 203.048)" fill="#A1A1A1"/>
<rect x="257.062" y="193.143" width="4.9434" height="4.95238" transform="rotate(180 257.062 193.143)" fill="#A1A1A1"/>
<rect x="19.7812" y="188.19" width="4.95238" height="4.9434" transform="rotate(90 19.7812 188.19)" fill="#A1A1A1"/>
<rect x="247.172" y="188.19" width="4.95238" height="4.9434" transform="rotate(90 247.172 188.19)" fill="#A1A1A1"/>
<rect x="123.586" y="203.048" width="4.9434" height="4.95238" transform="rotate(180 123.586 203.048)" fill="#A1A1A1"/>
<rect x="123.586" y="143.619" width="4.9434" height="4.95238" transform="rotate(180 123.586 143.619)" fill="#A1A1A1"/>
<rect x="123.586" y="19.8086" width="4.9434" height="4.95238" transform="rotate(180 123.586 19.8086)" fill="#A1A1A1"/>
<rect x="49.4375" y="143.619" width="4.9434" height="4.95238" transform="rotate(180 49.4375 143.619)" fill="#A1A1A1"/>
<rect x="197.742" y="143.619" width="4.9434" height="4.95238" transform="rotate(180 197.742 143.619)" fill="#A1A1A1"/>
<rect x="123.586" y="79.2383" width="4.9434" height="4.95238" transform="rotate(180 123.586 79.2383)" fill="#A1A1A1"/>
<rect x="153.25" y="79.2383" width="4.9434" height="4.95238" transform="rotate(180 153.25 79.2383)" fill="#A1A1A1"/>
<rect x="93.9219" y="79.2383" width="4.9434" height="4.95238" transform="rotate(180 93.9219 79.2383)" fill="#A1A1A1"/>
<rect x="138.414" y="198.095" width="4.9434" height="4.95238" transform="rotate(180 138.414 198.095)" fill="#A1A1A1"/>
<rect x="148.312" y="198.095" width="4.9434" height="4.95238" transform="rotate(180 148.312 198.095)" fill="#A1A1A1"/>
<rect x="182.914" y="198.095" width="4.9434" height="4.95238" transform="rotate(180 182.914 198.095)" fill="#A1A1A1"/>
<rect x="64.2656" y="198.095" width="4.9434" height="4.95238" transform="rotate(180 64.2656 198.095)" fill="#A1A1A1"/>
<rect x="153.25" y="198.095" width="4.9434" height="4.95238" transform="rotate(180 153.25 198.095)" fill="#A1A1A1"/>
<rect x="187.852" y="198.095" width="4.9434" height="4.95238" transform="rotate(180 187.852 198.095)" fill="#A1A1A1"/>
<rect x="69.2109" y="198.095" width="4.9434" height="4.95238" transform="rotate(180 69.2109 198.095)" fill="#A1A1A1"/>
<rect x="158.195" y="198.095" width="4.9434" height="4.95238" transform="rotate(180 158.195 198.095)" fill="#A1A1A1"/>
<rect x="39.5469" y="198.095" width="4.9434" height="4.95238" transform="rotate(180 39.5469 198.095)" fill="#A1A1A1"/>
<rect x="227.398" y="198.095" width="4.9434" height="4.95238" transform="rotate(180 227.398 198.095)" fill="#A1A1A1"/>
<rect x="192.805" y="198.095" width="4.9434" height="4.95238" transform="rotate(180 192.805 198.095)" fill="#A1A1A1"/>
<rect x="74.1562" y="198.095" width="4.9434" height="4.95238" transform="rotate(180 74.1562 198.095)" fill="#A1A1A1"/>
<rect x="163.141" y="198.095" width="4.9434" height="4.95238" transform="rotate(180 163.141 198.095)" fill="#A1A1A1"/>
<rect x="44.5" y="198.095" width="4.9434" height="4.95238" transform="rotate(180 44.5 198.095)" fill="#A1A1A1"/>
<rect x="34.6094" y="198.095" width="4.9434" height="4.95238" transform="rotate(180 34.6094 198.095)" fill="#A1A1A1"/>
<rect x="232.344" y="198.095" width="4.9434" height="4.95238" transform="rotate(180 232.344 198.095)" fill="#A1A1A1"/>
<rect x="197.742" y="198.095" width="4.9434" height="4.95238" transform="rotate(180 197.742 198.095)" fill="#A1A1A1"/>
<rect x="79.1016" y="198.095" width="4.9434" height="4.95238" transform="rotate(180 79.1016 198.095)" fill="#A1A1A1"/>
<rect x="168.078" y="198.095" width="4.9434" height="4.95238" transform="rotate(180 168.078 198.095)" fill="#A1A1A1"/>
<rect x="49.4375" y="198.095" width="4.9434" height="4.95238" transform="rotate(180 49.4375 198.095)" fill="#A1A1A1"/>
<rect x="202.68" y="198.095" width="4.9434" height="4.95238" transform="rotate(180 202.68 198.095)" fill="#A1A1A1"/>
<rect x="84.0391" y="198.095" width="4.9434" height="4.95238" transform="rotate(180 84.0391 198.095)" fill="#A1A1A1"/>
<rect x="177.969" y="198.095" width="4.9434" height="4.95238" transform="rotate(180 177.969 198.095)" fill="#A1A1A1"/>
<rect x="59.3359" y="198.095" width="4.9434" height="4.95238" transform="rotate(180 59.3359 198.095)" fill="#A1A1A1"/>
<rect x="212.57" y="198.095" width="4.9434" height="4.95238" transform="rotate(180 212.57 198.095)" fill="#A1A1A1"/>
<rect x="93.9219" y="198.095" width="4.9434" height="4.95238" transform="rotate(180 93.9219 198.095)" fill="#A1A1A1"/>
<rect x="217.516" y="198.095" width="4.9434" height="4.95238" transform="rotate(180 217.516 198.095)" fill="#A1A1A1"/>
<rect x="98.8594" y="198.095" width="4.9434" height="4.95238" transform="rotate(180 98.8594 198.095)" fill="#A1A1A1"/>
<rect x="222.461" y="198.095" width="4.9434" height="4.95238" transform="rotate(180 222.461 198.095)" fill="#A1A1A1"/>
<rect x="103.812" y="198.095" width="4.9434" height="4.95238" transform="rotate(180 103.812 198.095)" fill="#A1A1A1"/>
<rect x="108.75" y="198.095" width="4.9434" height="4.95238" transform="rotate(180 108.75 198.095)" fill="#A1A1A1"/>
<rect x="173.023" y="198.095" width="4.9434" height="4.95238" transform="rotate(180 173.023 198.095)" fill="#A1A1A1"/>
<rect x="54.3828" y="198.095" width="4.9434" height="4.95238" transform="rotate(180 54.3828 198.095)" fill="#A1A1A1"/>
<rect x="207.633" y="198.095" width="4.9434" height="4.95238" transform="rotate(180 207.633 198.095)" fill="#A1A1A1"/>
<rect x="88.9844" y="198.095" width="4.9434" height="4.95238" transform="rotate(180 88.9844 198.095)" fill="#A1A1A1"/>
<rect x="138.414" y="138.666" width="4.9434" height="4.95238" transform="rotate(180 138.414 138.666)" fill="#A1A1A1"/>
<rect x="138.414" y="14.8574" width="4.9434" height="4.95238" transform="rotate(180 138.414 14.8574)" fill="#A1A1A1"/>
<rect x="64.2656" y="138.666" width="4.9434" height="4.95238" transform="rotate(180 64.2656 138.666)" fill="#A1A1A1"/>
<rect x="79.1016" y="138.666" width="4.9434" height="4.95238" transform="rotate(180 79.1016 138.666)" fill="#A1A1A1"/>
<rect x="74.1562" y="138.666" width="4.9434" height="4.95238" transform="rotate(180 74.1562 138.666)" fill="#A1A1A1"/>
<rect x="148.312" y="138.666" width="4.9434" height="4.95238" transform="rotate(180 148.312 138.666)" fill="#A1A1A1"/>
<rect x="84.0391" y="138.666" width="4.9434" height="4.95238" transform="rotate(180 84.0391 138.666)" fill="#A1A1A1"/>
<rect x="153.25" y="138.666" width="4.9434" height="4.95238" transform="rotate(180 153.25 138.666)" fill="#A1A1A1"/>
<rect x="88.9844" y="138.666" width="4.9434" height="4.95238" transform="rotate(180 88.9844 138.666)" fill="#A1A1A1"/>
<rect x="158.195" y="138.666" width="4.9434" height="4.95238" transform="rotate(180 158.195 138.666)" fill="#A1A1A1"/>
<rect x="93.9219" y="138.666" width="4.9434" height="4.95238" transform="rotate(180 93.9219 138.666)" fill="#A1A1A1"/>
<rect x="163.141" y="138.666" width="4.9434" height="4.95238" transform="rotate(180 163.141 138.666)" fill="#A1A1A1"/>
<rect x="98.8594" y="138.666" width="4.9434" height="4.95238" transform="rotate(180 98.8594 138.666)" fill="#A1A1A1"/>
<rect x="168.078" y="138.666" width="4.9434" height="4.95238" transform="rotate(180 168.078 138.666)" fill="#A1A1A1"/>
<rect x="103.812" y="138.666" width="4.9434" height="4.95238" transform="rotate(180 103.812 138.666)" fill="#A1A1A1"/>
<rect x="173.023" y="138.666" width="4.9434" height="4.95238" transform="rotate(180 173.023 138.666)" fill="#A1A1A1"/>
<rect x="108.75" y="138.666" width="4.9434" height="4.95238" transform="rotate(180 108.75 138.666)" fill="#A1A1A1"/>
<rect x="177.969" y="138.666" width="4.9434" height="4.95238" transform="rotate(180 177.969 138.666)" fill="#A1A1A1"/>
<rect x="182.914" y="138.666" width="4.9434" height="4.95238" transform="rotate(180 182.914 138.666)" fill="#A1A1A1"/>
<rect x="212.57" y="138.666" width="4.9434" height="4.95238" transform="rotate(180 212.57 138.666)" fill="#A1A1A1"/>
<rect x="138.414" y="74.2852" width="4.9434" height="4.95238" transform="rotate(180 138.414 74.2852)" fill="#A1A1A1"/>
<rect x="168.078" y="74.2852" width="4.9434" height="4.95238" transform="rotate(180 168.078 74.2852)" fill="#A1A1A1"/>
<rect x="108.75" y="74.2852" width="4.9434" height="4.95238" transform="rotate(180 108.75 74.2852)" fill="#A1A1A1"/>
<rect x="103.812" y="59.4277" width="4.9434" height="4.95238" transform="rotate(180 103.812 59.4277)" fill="#A1A1A1"/>
<rect x="148.312" y="74.2852" width="4.9434" height="4.95238" transform="rotate(180 148.312 74.2852)" fill="#A1A1A1"/>
<rect x="128.523" y="183.238" width="4.95238" height="4.9434" transform="rotate(90 128.523 183.238)" fill="#A1A1A1"/>
<rect x="128.523" y="123.809" width="4.95238" height="4.9434" transform="rotate(90 128.523 123.809)" fill="#A1A1A1"/>
<rect x="128.523" width="4.95238" height="4.9434" transform="rotate(90 128.523 0)" fill="#A1A1A1"/>
<rect x="54.3828" y="123.809" width="4.95238" height="4.9434" transform="rotate(90 54.3828 123.809)" fill="#A1A1A1"/>
<rect x="59.3359" y="118.857" width="4.95238" height="4.9434" transform="rotate(90 59.3359 118.857)" fill="#A1A1A1"/>
<rect x="64.2656" y="113.905" width="4.95238" height="4.9434" transform="rotate(90 64.2656 113.905)" fill="#A1A1A1"/>
<rect x="69.2109" y="108.952" width="4.95238" height="4.9434" transform="rotate(90 69.2109 108.952)" fill="#A1A1A1"/>
<rect x="74.1562" y="104" width="4.95238" height="4.9434" transform="rotate(90 74.1562 104)" fill="#A1A1A1"/>
<rect x="108.75" y="49.5234" width="4.95238" height="4.9434" transform="rotate(90 108.75 49.5234)" fill="#A1A1A1"/>
<rect x="79.1016" y="99.0479" width="4.95238" height="4.9434" transform="rotate(90 79.1016 99.0479)" fill="#A1A1A1"/>
<rect x="113.695" y="44.5723" width="4.95238" height="4.9434" transform="rotate(90 113.695 44.5723)" fill="#A1A1A1"/>
<rect x="84.0391" y="94.0947" width="4.95238" height="4.9434" transform="rotate(90 84.0391 94.0947)" fill="#A1A1A1"/>
<rect x="118.641" y="39.6191" width="4.95238" height="4.9434" transform="rotate(90 118.641 39.6191)" fill="#A1A1A1"/>
<rect x="123.586" y="34.666" width="4.95238" height="4.9434" transform="rotate(90 123.586 34.666)" fill="#A1A1A1"/>
<rect x="88.9844" y="89.1426" width="4.95238" height="4.9434" transform="rotate(90 88.9844 89.1426)" fill="#A1A1A1"/>
<rect x="93.9219" y="84.1904" width="4.95238" height="4.9434" transform="rotate(90 93.9219 84.1904)" fill="#A1A1A1"/>
<rect x="128.523" y="29.7148" width="4.95238" height="4.9434" transform="rotate(90 128.523 29.7148)" fill="#A1A1A1"/>
<rect x="128.523" y="39.6191" width="4.95238" height="4.9434" transform="rotate(90 128.523 39.6191)" fill="#A1A1A1"/>
<rect x="128.523" y="44.5723" width="4.95238" height="4.9434" transform="rotate(90 128.523 44.5723)" fill="#A1A1A1"/>
<rect x="128.523" y="49.5234" width="4.95238" height="4.9434" transform="rotate(90 128.523 49.5234)" fill="#A1A1A1"/>
<rect x="128.523" y="84.1904" width="4.95238" height="4.9434" transform="rotate(90 128.523 84.1904)" fill="#A1A1A1"/>
<rect x="128.523" y="89.1426" width="4.95238" height="4.9434" transform="rotate(90 128.523 89.1426)" fill="#A1A1A1"/>
<rect x="128.523" y="153.523" width="4.95238" height="4.9434" transform="rotate(90 128.523 153.523)" fill="#A1A1A1"/>
<rect x="128.523" y="94.0947" width="4.95238" height="4.9434" transform="rotate(90 128.523 94.0947)" fill="#A1A1A1"/>
<rect x="128.523" y="158.477" width="4.95238" height="4.9434" transform="rotate(90 128.523 158.477)" fill="#A1A1A1"/>
<rect x="128.523" y="99.0479" width="4.95238" height="4.9434" transform="rotate(90 128.523 99.0479)" fill="#A1A1A1"/>
<rect x="128.523" y="163.428" width="4.95238" height="4.9434" transform="rotate(90 128.523 163.428)" fill="#A1A1A1"/>
<rect x="128.523" y="104" width="4.95238" height="4.9434" transform="rotate(90 128.523 104)" fill="#A1A1A1"/>
<rect x="128.523" y="168.381" width="4.95238" height="4.9434" transform="rotate(90 128.523 168.381)" fill="#A1A1A1"/>
<rect x="128.523" y="108.952" width="4.95238" height="4.9434" transform="rotate(90 128.523 108.952)" fill="#A1A1A1"/>
<rect x="128.523" y="173.334" width="4.95238" height="4.9434" transform="rotate(90 128.523 173.334)" fill="#A1A1A1"/>
<rect x="128.523" y="113.905" width="4.95238" height="4.9434" transform="rotate(90 128.523 113.905)" fill="#A1A1A1"/>
<rect x="128.523" y="178.285" width="4.95238" height="4.9434" transform="rotate(90 128.523 178.285)" fill="#A1A1A1"/>
<rect x="202.68" y="123.809" width="4.95238" height="4.9434" transform="rotate(90 202.68 123.809)" fill="#A1A1A1"/>
<rect x="197.742" y="118.857" width="4.95238" height="4.9434" transform="rotate(90 197.742 118.857)" fill="#A1A1A1"/>
<rect x="192.805" y="113.905" width="4.95238" height="4.9434" transform="rotate(90 192.805 113.905)" fill="#A1A1A1"/>
<rect x="187.852" y="108.952" width="4.95238" height="4.9434" transform="rotate(90 187.852 108.952)" fill="#A1A1A1"/>
<rect x="153.25" y="54.4766" width="4.95238" height="4.9434" transform="rotate(90 153.25 54.4766)" fill="#A1A1A1"/>
<rect x="148.312" y="49.5234" width="4.95238" height="4.9434" transform="rotate(90 148.312 49.5234)" fill="#A1A1A1"/>
<rect x="182.914" y="104" width="4.95238" height="4.9434" transform="rotate(90 182.914 104)" fill="#A1A1A1"/>
<rect x="143.352" y="44.5723" width="4.95238" height="4.9434" transform="rotate(90 143.352 44.5723)" fill="#A1A1A1"/>
<rect x="177.969" y="99.0479" width="4.95238" height="4.9434" transform="rotate(90 177.969 99.0479)" fill="#A1A1A1"/>
<rect x="138.414" y="39.6191" width="4.95238" height="4.9434" transform="rotate(90 138.414 39.6191)" fill="#A1A1A1"/>
<rect x="173.023" y="94.0947" width="4.95238" height="4.9434" transform="rotate(90 173.023 94.0947)" fill="#A1A1A1"/>
<rect x="133.469" y="34.666" width="4.95238" height="4.9434" transform="rotate(90 133.469 34.666)" fill="#A1A1A1"/>
<rect x="168.078" y="89.1426" width="4.95238" height="4.9434" transform="rotate(90 168.078 89.1426)" fill="#A1A1A1"/>
<rect x="163.141" y="84.1904" width="4.95238" height="4.9434" transform="rotate(90 163.141 84.1904)" fill="#A1A1A1"/>
<rect x="128.523" y="59.4277" width="4.95238" height="4.9434" transform="rotate(90 128.523 59.4277)" fill="#A1A1A1"/>
<rect x="158.195" y="59.4277" width="4.95238" height="4.9434" transform="rotate(90 158.195 59.4277)" fill="#A1A1A1"/>
<rect x="98.8594" y="59.4277" width="4.95238" height="4.9434" transform="rotate(90 98.8594 59.4277)" fill="#A1A1A1"/>
<rect x="133.469" y="198.095" width="4.95238" height="4.9434" transform="rotate(90 133.469 198.095)" fill="#A1A1A1"/>
<rect x="133.469" y="138.666" width="4.95238" height="4.9434" transform="rotate(90 133.469 138.666)" fill="#A1A1A1"/>
<rect x="133.469" y="14.8574" width="4.95238" height="4.9434" transform="rotate(90 133.469 14.8574)" fill="#A1A1A1"/>
<rect x="59.3359" y="138.666" width="4.95238" height="4.9434" transform="rotate(90 59.3359 138.666)" fill="#A1A1A1"/>
<rect x="207.633" y="138.666" width="4.95238" height="4.9434" transform="rotate(90 207.633 138.666)" fill="#A1A1A1"/>
<rect x="133.469" y="74.2852" width="4.95238" height="4.9434" transform="rotate(90 133.469 74.2852)" fill="#A1A1A1"/>
<rect x="163.141" y="74.2852" width="4.95238" height="4.9434" transform="rotate(90 163.141 74.2852)" fill="#A1A1A1"/>
<rect x="103.812" y="74.2852" width="4.95238" height="4.9434" transform="rotate(90 103.812 74.2852)" fill="#A1A1A1"/>
<rect x="4.94531" y="198.095" width="4.9434" height="4.95238" transform="rotate(180 4.94531 198.095)" fill="#A1A1A1"/>
<rect x="242.234" y="198.095" width="4.9434" height="4.95238" transform="rotate(180 242.234 198.095)" fill="#A1A1A1"/>
<rect x="14.8359" y="203.048" width="4.95238" height="4.9434" transform="rotate(90 14.8359 203.048)" fill="#A1A1A1"/>
<rect x="252.125" y="203.048" width="4.95238" height="4.9434" transform="rotate(90 252.125 203.048)" fill="#A1A1A1"/>
<rect x="24.7266" y="198.095" width="4.9434" height="4.95238" transform="rotate(180 24.7266 198.095)" fill="#A1A1A1"/>
<rect x="262" y="198.095" width="4.9434" height="4.95238" transform="rotate(180 262 198.095)" fill="#A1A1A1"/>
<rect x="14.8359" y="183.238" width="4.95238" height="4.9434" transform="rotate(90 14.8359 183.238)" fill="#A1A1A1"/>
<rect x="9.89062" y="178.285" width="4.95238" height="4.9434" transform="rotate(90 9.89062 178.285)" fill="#A1A1A1"/>
<rect x="14.8359" y="173.334" width="4.95238" height="4.9434" transform="rotate(90 14.8359 173.334)" fill="#A1A1A1"/>
<rect x="19.7812" y="168.381" width="4.95238" height="4.9434" transform="rotate(90 19.7812 168.381)" fill="#A1A1A1"/>
<rect x="24.7266" y="163.428" width="4.95238" height="4.9434" transform="rotate(90 24.7266 163.428)" fill="#A1A1A1"/>
<rect x="29.6641" y="158.477" width="4.95238" height="4.9434" transform="rotate(90 29.6641 158.477)" fill="#A1A1A1"/>
<rect x="34.6094" y="153.523" width="4.95238" height="4.9434" transform="rotate(90 34.6094 153.523)" fill="#A1A1A1"/>
<rect x="39.5469" y="148.571" width="4.95238" height="4.9434" transform="rotate(90 39.5469 148.571)" fill="#A1A1A1"/>
<rect x="44.5" y="143.619" width="4.95238" height="4.9434" transform="rotate(90 44.5 143.619)" fill="#A1A1A1"/>
<rect x="222.461" y="143.619" width="4.95238" height="4.9434" transform="rotate(90 222.461 143.619)" fill="#A1A1A1"/>
<rect x="217.516" y="138.666" width="4.95238" height="4.9434" transform="rotate(90 217.516 138.666)" fill="#A1A1A1"/>
<rect x="257.062" y="178.285" width="4.95238" height="4.9434" transform="rotate(90 257.062 178.285)" fill="#A1A1A1"/>
<rect x="252.125" y="173.334" width="4.95238" height="4.9434" transform="rotate(90 252.125 173.334)" fill="#A1A1A1"/>
<rect x="247.172" y="168.381" width="4.95238" height="4.9434" transform="rotate(90 247.172 168.381)" fill="#A1A1A1"/>
<rect x="242.234" y="163.428" width="4.95238" height="4.9434" transform="rotate(90 242.234 163.428)" fill="#A1A1A1"/>
<rect x="237.289" y="158.477" width="4.95238" height="4.9434" transform="rotate(90 237.289 158.477)" fill="#A1A1A1"/>
<rect x="232.344" y="153.523" width="4.95238" height="4.9434" transform="rotate(90 232.344 153.523)" fill="#A1A1A1"/>
<rect x="227.398" y="148.571" width="4.95238" height="4.9434" transform="rotate(90 227.398 148.571)" fill="#A1A1A1"/>
<rect x="252.125" y="183.238" width="4.95238" height="4.9434" transform="rotate(90 252.125 183.238)" fill="#A1A1A1"/>
<ellipse cx="249" cy="194" rx="12" ry="12" transform="rotate(180 249 194)" fill="#FFF6F6"/>
<ellipse cx="126" cy="194" rx="12" ry="12" transform="rotate(180 126 194)" fill="#FFF6F6"/>
<ellipse cx="52" cy="135" rx="12" ry="12" transform="rotate(180 52 135)" fill="#FFF6F6"/>
<ellipse cx="157" cy="69" rx="12" ry="12" transform="rotate(180 157 69)" fill="#FFF6F6"/>
<ellipse cx="12" cy="194" rx="12" ry="12" transform="rotate(180 12 194)" fill="#FFF6F6"/>
<path d="M126 149C118.82 149 113 143.18 113 136C113 128.82 118.82 123 126 123C133.18 123 139 128.82 139 136C139 143.18 133.18 149 126 149Z" fill="black" stroke="#43FF46" stroke-width="2"/>
<ellipse cx="126" cy="13" rx="12" ry="12" transform="rotate(180 126 13)" fill="#43FF46" fill-opacity="0.5"/>
<path d="M127.414 29.5858C126.633 28.8047 125.367 28.8047 124.586 29.5858L111.858 42.3137C111.077 43.0948 111.077 44.3611 111.858 45.1421C112.639 45.9232 113.905 45.9232 114.686 45.1421L126 33.8284L137.314 45.1421C138.095 45.9232 139.361 45.9232 140.142 45.1421C140.923 44.3611 140.923 43.0948 140.142 42.3137L127.414 29.5858ZM126 120L128 120L128 31L126 31L124 31L124 120L126 120Z" fill="white"/>
<path d="M126 83C118.82 83 113 77.1797 113 70C113 62.8203 118.82 57 126 57C133.18 57 139 62.8203 139 70C139 77.1797 133.18 83 126 83Z" fill="#FFF6F6" stroke="#FF6363" stroke-width="2"/>
</svg>
