<svg width="262" height="208" viewBox="0 0 262 208" fill="none" xmlns="http://www.w3.org/2000/svg">
<rect x="118.633" y="198.095" width="4.9434" height="4.95238" transform="rotate(180 118.633 198.095)" fill="#A1A1A1"/>
<rect x="118.633" y="138.666" width="4.9434" height="4.95238" transform="rotate(180 118.633 138.666)" fill="#A1A1A1"/>
<rect x="118.633" y="14.8574" width="4.9434" height="4.95238" transform="rotate(180 118.633 14.8574)" fill="#A1A1A1"/>
<rect x="44.4922" y="138.666" width="4.9434" height="4.95238" transform="rotate(180 44.4922 138.666)" fill="#A1A1A1"/>
<rect x="192.797" y="138.666" width="4.9434" height="4.95238" transform="rotate(180 192.797 138.666)" fill="#A1A1A1"/>
<rect x="118.633" y="74.2852" width="4.9434" height="4.95238" transform="rotate(180 118.633 74.2852)" fill="#A1A1A1"/>
<rect x="88.9766" y="74.2852" width="4.9434" height="4.95238" transform="rotate(180 88.9766 74.2852)" fill="#A1A1A1"/>
<rect x="133.461" y="193.143" width="4.9434" height="4.95238" transform="rotate(180 133.461 193.143)" fill="#A1A1A1"/>
<rect x="133.461" y="133.715" width="4.9434" height="4.95238" transform="rotate(180 133.461 133.715)" fill="#A1A1A1"/>
<rect x="133.461" y="9.90527" width="4.9434" height="4.95238" transform="rotate(180 133.461 9.90527)" fill="#A1A1A1"/>
<rect x="59.3281" y="133.715" width="4.9434" height="4.95238" transform="rotate(180 59.3281 133.715)" fill="#A1A1A1"/>
<rect x="207.625" y="133.715" width="4.9434" height="4.95238" transform="rotate(180 207.625 133.715)" fill="#A1A1A1"/>
<rect x="133.461" y="69.334" width="4.9434" height="4.95238" transform="rotate(180 133.461 69.334)" fill="#A1A1A1"/>
<rect x="163.133" y="69.334" width="4.9434" height="4.95238" transform="rotate(180 163.133 69.334)" fill="#A1A1A1"/>
<rect x="103.805" y="69.334" width="4.9434" height="4.95238" transform="rotate(180 103.805 69.334)" fill="#A1A1A1"/>
<rect x="123.578" y="188.19" width="4.95238" height="4.9434" transform="rotate(90 123.578 188.19)" fill="#A1A1A1"/>
<rect x="123.578" y="128.762" width="4.95238" height="4.9434" transform="rotate(90 123.578 128.762)" fill="#A1A1A1"/>
<rect x="123.578" y="4.95215" width="4.95238" height="4.9434" transform="rotate(90 123.578 4.95215)" fill="#A1A1A1"/>
<rect x="49.4297" y="128.762" width="4.95238" height="4.9434" transform="rotate(90 49.4297 128.762)" fill="#A1A1A1"/>
<rect x="197.734" y="128.762" width="4.95238" height="4.9434" transform="rotate(90 197.734 128.762)" fill="#A1A1A1"/>
<rect x="123.578" y="64.3809" width="4.95238" height="4.9434" transform="rotate(90 123.578 64.3809)" fill="#A1A1A1"/>
<rect x="153.234" y="64.3809" width="4.95238" height="4.9434" transform="rotate(90 153.234 64.3809)" fill="#A1A1A1"/>
<rect x="93.9141" y="64.3809" width="4.95238" height="4.9434" transform="rotate(90 93.9141 64.3809)" fill="#A1A1A1"/>
<rect x="128.516" y="203.048" width="4.95238" height="4.9434" transform="rotate(90 128.516 203.048)" fill="#A1A1A1"/>
<rect x="128.516" y="143.619" width="4.95238" height="4.9434" transform="rotate(90 128.516 143.619)" fill="#A1A1A1"/>
<rect x="128.516" y="19.8086" width="4.95238" height="4.9434" transform="rotate(90 128.516 19.8086)" fill="#A1A1A1"/>
<rect x="54.375" y="143.619" width="4.95238" height="4.9434" transform="rotate(90 54.375 143.619)" fill="#A1A1A1"/>
<rect x="202.672" y="143.619" width="4.95238" height="4.9434" transform="rotate(90 202.672 143.619)" fill="#A1A1A1"/>
<rect x="128.516" y="79.2383" width="4.95238" height="4.9434" transform="rotate(90 128.516 79.2383)" fill="#A1A1A1"/>
<rect x="158.188" y="79.2383" width="4.95238" height="4.9434" transform="rotate(90 158.188 79.2383)" fill="#A1A1A1"/>
<rect x="98.8516" y="79.2383" width="4.95238" height="4.9434" transform="rotate(90 98.8516 79.2383)" fill="#A1A1A1"/>
<rect x="9.88281" y="193.143" width="4.9434" height="4.95238" transform="rotate(180 9.88281 193.143)" fill="#A1A1A1"/>
<rect x="247.164" y="203.048" width="4.9434" height="4.95238" transform="rotate(180 247.164 203.048)" fill="#A1A1A1"/>
<rect x="9.88281" y="198.095" width="4.95238" height="4.9434" transform="rotate(90 9.88281 198.095)" fill="#A1A1A1"/>
<rect x="257.055" y="198.095" width="4.95238" height="4.9434" transform="rotate(90 257.055 198.095)" fill="#A1A1A1"/>
<rect x="19.7734" y="203.048" width="4.9434" height="4.95238" transform="rotate(180 19.7734 203.048)" fill="#A1A1A1"/>
<rect x="257.055" y="193.143" width="4.9434" height="4.95238" transform="rotate(180 257.055 193.143)" fill="#A1A1A1"/>
<rect x="19.7734" y="188.19" width="4.95238" height="4.9434" transform="rotate(90 19.7734 188.19)" fill="#A1A1A1"/>
<rect x="247.164" y="188.19" width="4.95238" height="4.9434" transform="rotate(90 247.164 188.19)" fill="#A1A1A1"/>
<rect x="123.578" y="203.048" width="4.9434" height="4.95238" transform="rotate(180 123.578 203.048)" fill="#A1A1A1"/>
<rect x="123.578" y="143.619" width="4.9434" height="4.95238" transform="rotate(180 123.578 143.619)" fill="#A1A1A1"/>
<rect x="123.578" y="19.8086" width="4.9434" height="4.95238" transform="rotate(180 123.578 19.8086)" fill="#A1A1A1"/>
<rect x="49.4297" y="143.619" width="4.9434" height="4.95238" transform="rotate(180 49.4297 143.619)" fill="#A1A1A1"/>
<rect x="197.734" y="143.619" width="4.9434" height="4.95238" transform="rotate(180 197.734 143.619)" fill="#A1A1A1"/>
<rect x="123.578" y="79.2383" width="4.9434" height="4.95238" transform="rotate(180 123.578 79.2383)" fill="#A1A1A1"/>
<rect x="153.234" y="79.2383" width="4.9434" height="4.95238" transform="rotate(180 153.234 79.2383)" fill="#A1A1A1"/>
<rect x="93.9141" y="79.2383" width="4.9434" height="4.95238" transform="rotate(180 93.9141 79.2383)" fill="#A1A1A1"/>
<rect x="138.406" y="198.095" width="4.9434" height="4.95238" transform="rotate(180 138.406 198.095)" fill="#A1A1A1"/>
<rect x="148.297" y="198.095" width="4.9434" height="4.95238" transform="rotate(180 148.297 198.095)" fill="#A1A1A1"/>
<rect x="182.906" y="198.095" width="4.9434" height="4.95238" transform="rotate(180 182.906 198.095)" fill="#A1A1A1"/>
<rect x="64.2578" y="198.095" width="4.9434" height="4.95238" transform="rotate(180 64.2578 198.095)" fill="#A1A1A1"/>
<rect x="153.234" y="198.095" width="4.9434" height="4.95238" transform="rotate(180 153.234 198.095)" fill="#A1A1A1"/>
<rect x="187.844" y="198.095" width="4.9434" height="4.95238" transform="rotate(180 187.844 198.095)" fill="#A1A1A1"/>
<rect x="69.2031" y="198.095" width="4.9434" height="4.95238" transform="rotate(180 69.2031 198.095)" fill="#A1A1A1"/>
<rect x="158.188" y="198.095" width="4.9434" height="4.95238" transform="rotate(180 158.188 198.095)" fill="#A1A1A1"/>
<rect x="39.5391" y="198.095" width="4.9434" height="4.95238" transform="rotate(180 39.5391 198.095)" fill="#A1A1A1"/>
<rect x="227.391" y="198.095" width="4.9434" height="4.95238" transform="rotate(180 227.391 198.095)" fill="#A1A1A1"/>
<rect x="192.797" y="198.095" width="4.9434" height="4.95238" transform="rotate(180 192.797 198.095)" fill="#A1A1A1"/>
<rect x="74.1484" y="198.095" width="4.9434" height="4.95238" transform="rotate(180 74.1484 198.095)" fill="#A1A1A1"/>
<rect x="163.133" y="198.095" width="4.9434" height="4.95238" transform="rotate(180 163.133 198.095)" fill="#A1A1A1"/>
<rect x="44.4922" y="198.095" width="4.9434" height="4.95238" transform="rotate(180 44.4922 198.095)" fill="#A1A1A1"/>
<rect x="34.6016" y="198.095" width="4.9434" height="4.95238" transform="rotate(180 34.6016 198.095)" fill="#A1A1A1"/>
<rect x="232.336" y="198.095" width="4.9434" height="4.95238" transform="rotate(180 232.336 198.095)" fill="#A1A1A1"/>
<rect x="197.734" y="198.095" width="4.9434" height="4.95238" transform="rotate(180 197.734 198.095)" fill="#A1A1A1"/>
<rect x="79.0938" y="198.095" width="4.9434" height="4.95238" transform="rotate(180 79.0938 198.095)" fill="#A1A1A1"/>
<rect x="168.07" y="198.095" width="4.9434" height="4.95238" transform="rotate(180 168.07 198.095)" fill="#A1A1A1"/>
<rect x="49.4297" y="198.095" width="4.9434" height="4.95238" transform="rotate(180 49.4297 198.095)" fill="#A1A1A1"/>
<rect x="202.672" y="198.095" width="4.9434" height="4.95238" transform="rotate(180 202.672 198.095)" fill="#A1A1A1"/>
<rect x="84.0312" y="198.095" width="4.9434" height="4.95238" transform="rotate(180 84.0312 198.095)" fill="#A1A1A1"/>
<rect x="177.961" y="198.095" width="4.9434" height="4.95238" transform="rotate(180 177.961 198.095)" fill="#A1A1A1"/>
<rect x="59.3281" y="198.095" width="4.9434" height="4.95238" transform="rotate(180 59.3281 198.095)" fill="#A1A1A1"/>
<rect x="212.562" y="198.095" width="4.9434" height="4.95238" transform="rotate(180 212.562 198.095)" fill="#A1A1A1"/>
<rect x="93.9141" y="198.095" width="4.9434" height="4.95238" transform="rotate(180 93.9141 198.095)" fill="#A1A1A1"/>
<rect x="217.508" y="198.095" width="4.9434" height="4.95238" transform="rotate(180 217.508 198.095)" fill="#A1A1A1"/>
<rect x="98.8516" y="198.095" width="4.9434" height="4.95238" transform="rotate(180 98.8516 198.095)" fill="#A1A1A1"/>
<rect x="222.453" y="198.095" width="4.9434" height="4.95238" transform="rotate(180 222.453 198.095)" fill="#A1A1A1"/>
<rect x="103.805" y="198.095" width="4.9434" height="4.95238" transform="rotate(180 103.805 198.095)" fill="#A1A1A1"/>
<rect x="108.742" y="198.095" width="4.9434" height="4.95238" transform="rotate(180 108.742 198.095)" fill="#A1A1A1"/>
<rect x="173.016" y="198.095" width="4.9434" height="4.95238" transform="rotate(180 173.016 198.095)" fill="#A1A1A1"/>
<rect x="54.375" y="198.095" width="4.9434" height="4.95238" transform="rotate(180 54.375 198.095)" fill="#A1A1A1"/>
<rect x="207.625" y="198.095" width="4.9434" height="4.95238" transform="rotate(180 207.625 198.095)" fill="#A1A1A1"/>
<rect x="88.9766" y="198.095" width="4.9434" height="4.95238" transform="rotate(180 88.9766 198.095)" fill="#A1A1A1"/>
<rect x="138.406" y="138.666" width="4.9434" height="4.95238" transform="rotate(180 138.406 138.666)" fill="#A1A1A1"/>
<rect x="138.406" y="14.8574" width="4.9434" height="4.95238" transform="rotate(180 138.406 14.8574)" fill="#A1A1A1"/>
<rect x="64.2578" y="138.666" width="4.9434" height="4.95238" transform="rotate(180 64.2578 138.666)" fill="#A1A1A1"/>
<rect x="79.0938" y="138.666" width="4.9434" height="4.95238" transform="rotate(180 79.0938 138.666)" fill="#A1A1A1"/>
<rect x="74.1484" y="138.666" width="4.9434" height="4.95238" transform="rotate(180 74.1484 138.666)" fill="#A1A1A1"/>
<rect x="148.297" y="138.666" width="4.9434" height="4.95238" transform="rotate(180 148.297 138.666)" fill="#A1A1A1"/>
<rect x="84.0312" y="138.666" width="4.9434" height="4.95238" transform="rotate(180 84.0312 138.666)" fill="#A1A1A1"/>
<rect x="153.234" y="138.666" width="4.9434" height="4.95238" transform="rotate(180 153.234 138.666)" fill="#A1A1A1"/>
<rect x="88.9766" y="138.666" width="4.9434" height="4.95238" transform="rotate(180 88.9766 138.666)" fill="#A1A1A1"/>
<rect x="158.188" y="138.666" width="4.9434" height="4.95238" transform="rotate(180 158.188 138.666)" fill="#A1A1A1"/>
<rect x="93.9141" y="138.666" width="4.9434" height="4.95238" transform="rotate(180 93.9141 138.666)" fill="#A1A1A1"/>
<rect x="163.133" y="138.666" width="4.9434" height="4.95238" transform="rotate(180 163.133 138.666)" fill="#A1A1A1"/>
<rect x="98.8516" y="138.666" width="4.9434" height="4.95238" transform="rotate(180 98.8516 138.666)" fill="#A1A1A1"/>
<rect x="168.07" y="138.666" width="4.9434" height="4.95238" transform="rotate(180 168.07 138.666)" fill="#A1A1A1"/>
<rect x="103.805" y="138.666" width="4.9434" height="4.95238" transform="rotate(180 103.805 138.666)" fill="#A1A1A1"/>
<rect x="173.016" y="138.666" width="4.9434" height="4.95238" transform="rotate(180 173.016 138.666)" fill="#A1A1A1"/>
<rect x="108.742" y="138.666" width="4.9434" height="4.95238" transform="rotate(180 108.742 138.666)" fill="#A1A1A1"/>
<rect x="177.961" y="138.666" width="4.9434" height="4.95238" transform="rotate(180 177.961 138.666)" fill="#A1A1A1"/>
<rect x="182.906" y="138.666" width="4.9434" height="4.95238" transform="rotate(180 182.906 138.666)" fill="#A1A1A1"/>
<rect x="212.562" y="138.666" width="4.9434" height="4.95238" transform="rotate(180 212.562 138.666)" fill="#A1A1A1"/>
<rect x="138.406" y="74.2852" width="4.9434" height="4.95238" transform="rotate(180 138.406 74.2852)" fill="#A1A1A1"/>
<rect x="168.07" y="74.2852" width="4.9434" height="4.95238" transform="rotate(180 168.07 74.2852)" fill="#A1A1A1"/>
<rect x="108.742" y="74.2852" width="4.9434" height="4.95238" transform="rotate(180 108.742 74.2852)" fill="#A1A1A1"/>
<rect x="103.805" y="59.4277" width="4.9434" height="4.95238" transform="rotate(180 103.805 59.4277)" fill="#A1A1A1"/>
<rect x="148.297" y="74.2852" width="4.9434" height="4.95238" transform="rotate(180 148.297 74.2852)" fill="#A1A1A1"/>
<rect x="128.516" y="183.238" width="4.95238" height="4.9434" transform="rotate(90 128.516 183.238)" fill="#A1A1A1"/>
<rect x="128.516" y="123.809" width="4.95238" height="4.9434" transform="rotate(90 128.516 123.809)" fill="#A1A1A1"/>
<rect x="128.516" width="4.95238" height="4.9434" transform="rotate(90 128.516 0)" fill="#A1A1A1"/>
<rect x="54.375" y="123.809" width="4.95238" height="4.9434" transform="rotate(90 54.375 123.809)" fill="#A1A1A1"/>
<rect x="59.3281" y="118.857" width="4.95238" height="4.9434" transform="rotate(90 59.3281 118.857)" fill="#A1A1A1"/>
<rect x="64.2578" y="113.905" width="4.95238" height="4.9434" transform="rotate(90 64.2578 113.905)" fill="#A1A1A1"/>
<rect x="69.2031" y="108.952" width="4.95238" height="4.9434" transform="rotate(90 69.2031 108.952)" fill="#A1A1A1"/>
<rect x="74.1484" y="104" width="4.95238" height="4.9434" transform="rotate(90 74.1484 104)" fill="#A1A1A1"/>
<rect x="108.742" y="49.5234" width="4.95238" height="4.9434" transform="rotate(90 108.742 49.5234)" fill="#A1A1A1"/>
<rect x="79.0938" y="99.0479" width="4.95238" height="4.9434" transform="rotate(90 79.0938 99.0479)" fill="#A1A1A1"/>
<rect x="113.688" y="44.5723" width="4.95238" height="4.9434" transform="rotate(90 113.688 44.5723)" fill="#A1A1A1"/>
<rect x="84.0312" y="94.0947" width="4.95238" height="4.9434" transform="rotate(90 84.0312 94.0947)" fill="#A1A1A1"/>
<rect x="118.633" y="39.6191" width="4.95238" height="4.9434" transform="rotate(90 118.633 39.6191)" fill="#A1A1A1"/>
<rect x="123.578" y="34.666" width="4.95238" height="4.9434" transform="rotate(90 123.578 34.666)" fill="#A1A1A1"/>
<rect x="88.9766" y="89.1426" width="4.95238" height="4.9434" transform="rotate(90 88.9766 89.1426)" fill="#A1A1A1"/>
<rect x="93.9141" y="84.1904" width="4.95238" height="4.9434" transform="rotate(90 93.9141 84.1904)" fill="#A1A1A1"/>
<rect x="128.516" y="29.7148" width="4.95238" height="4.9434" transform="rotate(90 128.516 29.7148)" fill="#A1A1A1"/>
<rect x="128.516" y="39.6191" width="4.95238" height="4.9434" transform="rotate(90 128.516 39.6191)" fill="#A1A1A1"/>
<rect x="128.516" y="44.5723" width="4.95238" height="4.9434" transform="rotate(90 128.516 44.5723)" fill="#A1A1A1"/>
<rect x="128.516" y="49.5234" width="4.95238" height="4.9434" transform="rotate(90 128.516 49.5234)" fill="#A1A1A1"/>
<rect x="128.516" y="84.1904" width="4.95238" height="4.9434" transform="rotate(90 128.516 84.1904)" fill="#A1A1A1"/>
<rect x="128.516" y="89.1426" width="4.95238" height="4.9434" transform="rotate(90 128.516 89.1426)" fill="#A1A1A1"/>
<rect x="128.516" y="153.523" width="4.95238" height="4.9434" transform="rotate(90 128.516 153.523)" fill="#A1A1A1"/>
<rect x="128.516" y="94.0947" width="4.95238" height="4.9434" transform="rotate(90 128.516 94.0947)" fill="#A1A1A1"/>
<rect x="128.516" y="158.477" width="4.95238" height="4.9434" transform="rotate(90 128.516 158.477)" fill="#A1A1A1"/>
<rect x="128.516" y="99.0479" width="4.95238" height="4.9434" transform="rotate(90 128.516 99.0479)" fill="#A1A1A1"/>
<rect x="128.516" y="163.428" width="4.95238" height="4.9434" transform="rotate(90 128.516 163.428)" fill="#A1A1A1"/>
<rect x="128.516" y="104" width="4.95238" height="4.9434" transform="rotate(90 128.516 104)" fill="#A1A1A1"/>
<rect x="128.516" y="168.381" width="4.95238" height="4.9434" transform="rotate(90 128.516 168.381)" fill="#A1A1A1"/>
<rect x="128.516" y="108.952" width="4.95238" height="4.9434" transform="rotate(90 128.516 108.952)" fill="#A1A1A1"/>
<rect x="128.516" y="173.334" width="4.95238" height="4.9434" transform="rotate(90 128.516 173.334)" fill="#A1A1A1"/>
<rect x="128.516" y="113.905" width="4.95238" height="4.9434" transform="rotate(90 128.516 113.905)" fill="#A1A1A1"/>
<rect x="128.516" y="178.285" width="4.95238" height="4.9434" transform="rotate(90 128.516 178.285)" fill="#A1A1A1"/>
<rect x="202.672" y="123.809" width="4.95238" height="4.9434" transform="rotate(90 202.672 123.809)" fill="#A1A1A1"/>
<rect x="197.734" y="118.857" width="4.95238" height="4.9434" transform="rotate(90 197.734 118.857)" fill="#A1A1A1"/>
<rect x="192.797" y="113.905" width="4.95238" height="4.9434" transform="rotate(90 192.797 113.905)" fill="#A1A1A1"/>
<rect x="187.844" y="108.952" width="4.95238" height="4.9434" transform="rotate(90 187.844 108.952)" fill="#A1A1A1"/>
<rect x="153.234" y="54.4766" width="4.95238" height="4.9434" transform="rotate(90 153.234 54.4766)" fill="#A1A1A1"/>
<rect x="148.297" y="49.5234" width="4.95238" height="4.9434" transform="rotate(90 148.297 49.5234)" fill="#A1A1A1"/>
<rect x="182.906" y="104" width="4.95238" height="4.9434" transform="rotate(90 182.906 104)" fill="#A1A1A1"/>
<rect x="143.344" y="44.5723" width="4.95238" height="4.9434" transform="rotate(90 143.344 44.5723)" fill="#A1A1A1"/>
<rect x="177.961" y="99.0479" width="4.95238" height="4.9434" transform="rotate(90 177.961 99.0479)" fill="#A1A1A1"/>
<rect x="138.406" y="39.6191" width="4.95238" height="4.9434" transform="rotate(90 138.406 39.6191)" fill="#A1A1A1"/>
<rect x="173.016" y="94.0947" width="4.95238" height="4.9434" transform="rotate(90 173.016 94.0947)" fill="#A1A1A1"/>
<rect x="133.461" y="34.666" width="4.95238" height="4.9434" transform="rotate(90 133.461 34.666)" fill="#A1A1A1"/>
<rect x="168.07" y="89.1426" width="4.95238" height="4.9434" transform="rotate(90 168.07 89.1426)" fill="#A1A1A1"/>
<rect x="163.133" y="84.1904" width="4.95238" height="4.9434" transform="rotate(90 163.133 84.1904)" fill="#A1A1A1"/>
<rect x="128.516" y="59.4277" width="4.95238" height="4.9434" transform="rotate(90 128.516 59.4277)" fill="#A1A1A1"/>
<rect x="158.188" y="59.4277" width="4.95238" height="4.9434" transform="rotate(90 158.188 59.4277)" fill="#A1A1A1"/>
<rect x="98.8516" y="59.4277" width="4.95238" height="4.9434" transform="rotate(90 98.8516 59.4277)" fill="#A1A1A1"/>
<rect x="133.461" y="198.095" width="4.95238" height="4.9434" transform="rotate(90 133.461 198.095)" fill="#A1A1A1"/>
<rect x="133.461" y="138.666" width="4.95238" height="4.9434" transform="rotate(90 133.461 138.666)" fill="#A1A1A1"/>
<rect x="133.461" y="14.8574" width="4.95238" height="4.9434" transform="rotate(90 133.461 14.8574)" fill="#A1A1A1"/>
<rect x="59.3281" y="138.666" width="4.95238" height="4.9434" transform="rotate(90 59.3281 138.666)" fill="#A1A1A1"/>
<rect x="207.625" y="138.666" width="4.95238" height="4.9434" transform="rotate(90 207.625 138.666)" fill="#A1A1A1"/>
<rect x="133.461" y="74.2852" width="4.95238" height="4.9434" transform="rotate(90 133.461 74.2852)" fill="#A1A1A1"/>
<rect x="163.133" y="74.2852" width="4.95238" height="4.9434" transform="rotate(90 163.133 74.2852)" fill="#A1A1A1"/>
<rect x="103.805" y="74.2852" width="4.95238" height="4.9434" transform="rotate(90 103.805 74.2852)" fill="#A1A1A1"/>
<rect x="4.9375" y="198.095" width="4.9434" height="4.95238" transform="rotate(180 4.9375 198.095)" fill="#A1A1A1"/>
<rect x="242.227" y="198.095" width="4.9434" height="4.95238" transform="rotate(180 242.227 198.095)" fill="#A1A1A1"/>
<rect x="14.8281" y="203.048" width="4.95238" height="4.9434" transform="rotate(90 14.8281 203.048)" fill="#A1A1A1"/>
<rect x="252.117" y="203.048" width="4.95238" height="4.9434" transform="rotate(90 252.117 203.048)" fill="#A1A1A1"/>
<rect x="24.7188" y="198.095" width="4.9434" height="4.95238" transform="rotate(180 24.7188 198.095)" fill="#A1A1A1"/>
<rect x="261.992" y="198.095" width="4.9434" height="4.95238" transform="rotate(180 261.992 198.095)" fill="#A1A1A1"/>
<rect x="14.8281" y="183.238" width="4.95238" height="4.9434" transform="rotate(90 14.8281 183.238)" fill="#A1A1A1"/>
<rect x="9.88281" y="178.285" width="4.95238" height="4.9434" transform="rotate(90 9.88281 178.285)" fill="#A1A1A1"/>
<rect x="14.8281" y="173.334" width="4.95238" height="4.9434" transform="rotate(90 14.8281 173.334)" fill="#A1A1A1"/>
<rect x="19.7734" y="168.381" width="4.95238" height="4.9434" transform="rotate(90 19.7734 168.381)" fill="#A1A1A1"/>
<rect x="24.7188" y="163.428" width="4.95238" height="4.9434" transform="rotate(90 24.7188 163.428)" fill="#A1A1A1"/>
<rect x="29.6562" y="158.477" width="4.95238" height="4.9434" transform="rotate(90 29.6562 158.477)" fill="#A1A1A1"/>
<rect x="34.6016" y="153.523" width="4.95238" height="4.9434" transform="rotate(90 34.6016 153.523)" fill="#A1A1A1"/>
<rect x="39.5391" y="148.571" width="4.95238" height="4.9434" transform="rotate(90 39.5391 148.571)" fill="#A1A1A1"/>
<rect x="44.4922" y="143.619" width="4.95238" height="4.9434" transform="rotate(90 44.4922 143.619)" fill="#A1A1A1"/>
<rect x="222.453" y="143.619" width="4.95238" height="4.9434" transform="rotate(90 222.453 143.619)" fill="#A1A1A1"/>
<rect x="217.508" y="138.666" width="4.95238" height="4.9434" transform="rotate(90 217.508 138.666)" fill="#A1A1A1"/>
<rect x="257.055" y="178.285" width="4.95238" height="4.9434" transform="rotate(90 257.055 178.285)" fill="#A1A1A1"/>
<rect x="252.117" y="173.334" width="4.95238" height="4.9434" transform="rotate(90 252.117 173.334)" fill="#A1A1A1"/>
<rect x="247.164" y="168.381" width="4.95238" height="4.9434" transform="rotate(90 247.164 168.381)" fill="#A1A1A1"/>
<rect x="242.227" y="163.428" width="4.95238" height="4.9434" transform="rotate(90 242.227 163.428)" fill="#A1A1A1"/>
<rect x="237.281" y="158.477" width="4.95238" height="4.9434" transform="rotate(90 237.281 158.477)" fill="#A1A1A1"/>
<rect x="232.336" y="153.523" width="4.95238" height="4.9434" transform="rotate(90 232.336 153.523)" fill="#A1A1A1"/>
<rect x="227.391" y="148.571" width="4.95238" height="4.9434" transform="rotate(90 227.391 148.571)" fill="#A1A1A1"/>
<rect x="252.117" y="183.238" width="4.95238" height="4.9434" transform="rotate(90 252.117 183.238)" fill="#A1A1A1"/>
<circle cx="126" cy="12" r="12" fill="black"/>
</svg>
