<svg width="257" height="85" viewBox="0 0 257 85" fill="none" xmlns="http://www.w3.org/2000/svg">
<path d="M18.4093 74.06L22.7293 81H20.1693L17.0293 75.96L14.0893 81H11.5493L15.8693 74.06L11.5293 67.1H14.0893L17.2493 72.18L20.2093 67.1H22.7493L18.4093 74.06ZM31.3877 77.9C32.6677 76.7933 33.6744 75.8867 34.4077 75.18C35.1544 74.46 35.7744 73.7133 36.2677 72.94C36.7611 72.1667 37.0077 71.3933 37.0077 70.62C37.0077 69.82 36.8144 69.1933 36.4277 68.74C36.0544 68.2867 35.4611 68.06 34.6477 68.06C33.8611 68.06 33.2477 68.3133 32.8077 68.82C32.3811 69.3133 32.1544 69.98 32.1277 70.82H29.9277C29.9677 69.3 30.4211 68.14 31.2877 67.34C32.1677 66.5267 33.2811 66.12 34.6277 66.12C36.0811 66.12 37.2144 66.52 38.0277 67.32C38.8544 68.12 39.2677 69.1867 39.2677 70.52C39.2677 71.48 39.0211 72.4067 38.5277 73.3C38.0477 74.18 37.4677 74.9733 36.7877 75.68C36.1211 76.3733 35.2677 77.18 34.2277 78.1L33.3277 78.9H39.6677V80.8H29.9477V79.14L31.3877 77.9Z" fill="white"/>
<path d="M217.435 74.06L221.755 81H219.195L216.055 75.96L213.115 81H210.575L214.895 74.06L210.555 67.1H213.115L216.275 72.18L219.235 67.1H221.775L217.435 74.06ZM230.413 77.9C231.693 76.7933 232.7 75.8867 233.433 75.18C234.18 74.46 234.8 73.7133 235.293 72.94C235.786 72.1667 236.033 71.3933 236.033 70.62C236.033 69.82 235.84 69.1933 235.453 68.74C235.08 68.2867 234.486 68.06 233.673 68.06C232.886 68.06 232.273 68.3133 231.833 68.82C231.406 69.3133 231.18 69.98 231.153 70.82H228.953C228.993 69.3 229.446 68.14 230.313 67.34C231.193 66.5267 232.306 66.12 233.653 66.12C235.106 66.12 236.24 66.52 237.053 67.32C237.88 68.12 238.293 69.1867 238.293 70.52C238.293 71.48 238.046 72.4067 237.553 73.3C237.073 74.18 236.493 74.9733 235.813 75.68C235.146 76.3733 234.293 77.18 233.253 78.1L232.353 78.9H238.693V80.8H228.973V79.14L230.413 77.9ZM240.416 77.96V76.24L247.136 66.6H249.896V75.98H251.756V77.96H249.896V81H247.656V77.96H240.416ZM247.756 68.92L243.036 75.98H247.756V68.92Z" fill="white"/>
<circle cx="26" cy="26" r="26" fill="white"/>
<circle cx="231" cy="26" r="26" fill="black"/>
</svg>
