<svg width="271" height="271" viewBox="0 0 271 271" fill="none" xmlns="http://www.w3.org/2000/svg">
<rect x="107.378" y="10.2266" width="5.11321" height="5.11321" transform="rotate(180 107.378 10.2266)" fill="#A1A1A1"/>
<rect x="107.378" y="153.397" width="5.11321" height="5.11321" transform="rotate(180 107.378 153.397)" fill="#A1A1A1"/>
<rect x="127.831" y="10.2266" width="5.11321" height="5.11321" transform="rotate(180 127.831 10.2266)" fill="#A1A1A1"/>
<rect x="127.831" y="153.397" width="5.11321" height="5.11321" transform="rotate(180 127.831 153.397)" fill="#A1A1A1"/>
<rect x="148.284" y="10.2266" width="5.11321" height="5.11321" transform="rotate(180 148.284 10.2266)" fill="#A1A1A1"/>
<rect x="148.284" y="153.397" width="5.11321" height="5.11321" transform="rotate(180 148.284 153.397)" fill="#A1A1A1"/>
<rect x="168.737" y="10.2266" width="5.11321" height="5.11321" transform="rotate(180 168.737 10.2266)" fill="#A1A1A1"/>
<rect x="168.737" y="153.397" width="5.11321" height="5.11321" transform="rotate(180 168.737 153.397)" fill="#A1A1A1"/>
<rect x="107.378" y="92.0381" width="5.11321" height="5.11321" transform="rotate(180 107.378 92.0381)" fill="#A1A1A1"/>
<rect x="107.378" y="235.209" width="5.11321" height="5.11321" transform="rotate(180 107.378 235.209)" fill="#A1A1A1"/>
<rect x="127.831" y="92.0381" width="5.11321" height="5.11321" transform="rotate(180 127.831 92.0381)" fill="#A1A1A1"/>
<rect x="127.831" y="235.209" width="5.11321" height="5.11321" transform="rotate(180 127.831 235.209)" fill="#A1A1A1"/>
<rect x="148.284" y="92.0381" width="5.11321" height="5.11321" transform="rotate(180 148.284 92.0381)" fill="#A1A1A1"/>
<rect x="148.284" y="235.209" width="5.11321" height="5.11321" transform="rotate(180 148.284 235.209)" fill="#A1A1A1"/>
<rect x="168.737" y="92.0381" width="5.11321" height="5.11321" transform="rotate(180 168.737 92.0381)" fill="#A1A1A1"/>
<rect x="168.737" y="235.209" width="5.11321" height="5.11321" transform="rotate(180 168.737 235.209)" fill="#A1A1A1"/>
<rect x="107.378" y="51.1328" width="5.11321" height="5.11321" transform="rotate(180 107.378 51.1328)" fill="#A1A1A1"/>
<rect x="107.378" y="194.304" width="5.11321" height="5.11321" transform="rotate(180 107.378 194.304)" fill="#A1A1A1"/>
<rect x="127.831" y="51.1328" width="5.11321" height="5.11321" transform="rotate(180 127.831 51.1328)" fill="#A1A1A1"/>
<rect x="127.831" y="194.304" width="5.11321" height="5.11321" transform="rotate(180 127.831 194.304)" fill="#A1A1A1"/>
<rect x="148.284" y="51.1328" width="5.11321" height="5.11321" transform="rotate(180 148.284 51.1328)" fill="#A1A1A1"/>
<rect x="148.284" y="194.304" width="5.11321" height="5.11321" transform="rotate(180 148.284 194.304)" fill="#A1A1A1"/>
<rect x="168.737" y="51.1328" width="5.11321" height="5.11321" transform="rotate(180 168.737 51.1328)" fill="#A1A1A1"/>
<rect x="168.737" y="194.304" width="5.11321" height="5.11321" transform="rotate(180 168.737 194.304)" fill="#A1A1A1"/>
<rect x="107.378" y="30.6797" width="5.11321" height="5.11321" transform="rotate(180 107.378 30.6797)" fill="#A1A1A1"/>
<rect x="107.378" y="173.851" width="5.11321" height="5.11321" transform="rotate(180 107.378 173.851)" fill="#A1A1A1"/>
<rect x="127.831" y="30.6797" width="5.11321" height="5.11321" transform="rotate(180 127.831 30.6797)" fill="#A1A1A1"/>
<rect x="127.831" y="173.851" width="5.11321" height="5.11321" transform="rotate(180 127.831 173.851)" fill="#A1A1A1"/>
<rect x="148.284" y="30.6797" width="5.11321" height="5.11321" transform="rotate(180 148.284 30.6797)" fill="#A1A1A1"/>
<rect x="148.284" y="173.851" width="5.11321" height="5.11321" transform="rotate(180 148.284 173.851)" fill="#A1A1A1"/>
<rect x="168.737" y="30.6797" width="5.11321" height="5.11321" transform="rotate(180 168.737 30.6797)" fill="#A1A1A1"/>
<rect x="168.737" y="173.851" width="5.11321" height="5.11321" transform="rotate(180 168.737 173.851)" fill="#A1A1A1"/>
<rect x="107.378" y="112.491" width="5.11321" height="5.11321" transform="rotate(180 107.378 112.491)" fill="#A1A1A1"/>
<rect x="107.378" y="255.662" width="5.11321" height="5.11321" transform="rotate(180 107.378 255.662)" fill="#A1A1A1"/>
<rect x="127.831" y="112.491" width="5.11321" height="5.11321" transform="rotate(180 127.831 112.491)" fill="#A1A1A1"/>
<rect x="127.831" y="255.662" width="5.11321" height="5.11321" transform="rotate(180 127.831 255.662)" fill="#A1A1A1"/>
<rect x="148.284" y="112.491" width="5.11321" height="5.11321" transform="rotate(180 148.284 112.491)" fill="#A1A1A1"/>
<rect x="148.284" y="255.662" width="5.11321" height="5.11321" transform="rotate(180 148.284 255.662)" fill="#A1A1A1"/>
<rect x="168.737" y="112.491" width="5.11321" height="5.11321" transform="rotate(180 168.737 112.491)" fill="#A1A1A1"/>
<rect x="168.737" y="255.662" width="5.11321" height="5.11321" transform="rotate(180 168.737 255.662)" fill="#A1A1A1"/>
<rect x="107.378" y="71.585" width="5.11321" height="5.11321" transform="rotate(180 107.378 71.585)" fill="#A1A1A1"/>
<rect x="107.378" y="214.756" width="5.11321" height="5.11321" transform="rotate(180 107.378 214.756)" fill="#A1A1A1"/>
<rect x="127.831" y="71.585" width="5.11321" height="5.11321" transform="rotate(180 127.831 71.585)" fill="#A1A1A1"/>
<rect x="127.831" y="214.756" width="5.11321" height="5.11321" transform="rotate(180 127.831 214.756)" fill="#A1A1A1"/>
<rect x="148.284" y="71.585" width="5.11321" height="5.11321" transform="rotate(180 148.284 71.585)" fill="#A1A1A1"/>
<rect x="148.284" y="214.756" width="5.11321" height="5.11321" transform="rotate(180 148.284 214.756)" fill="#A1A1A1"/>
<rect x="168.737" y="71.585" width="5.11321" height="5.11321" transform="rotate(180 168.737 71.585)" fill="#A1A1A1"/>
<rect x="168.737" y="214.756" width="5.11321" height="5.11321" transform="rotate(180 168.737 214.756)" fill="#A1A1A1"/>
<rect x="112.491" width="5.11321" height="5.11321" transform="rotate(90 112.491 0)" fill="#A1A1A1"/>
<rect x="112.491" y="143.171" width="5.11321" height="5.11321" transform="rotate(90 112.491 143.171)" fill="#A1A1A1"/>
<rect x="112.491" y="20.4531" width="5.11321" height="5.11321" transform="rotate(90 112.491 20.4531)" fill="#A1A1A1"/>
<rect x="112.491" y="163.624" width="5.11321" height="5.11321" transform="rotate(90 112.491 163.624)" fill="#A1A1A1"/>
<rect x="112.491" y="40.9062" width="5.11321" height="5.11321" transform="rotate(90 112.491 40.9062)" fill="#A1A1A1"/>
<rect x="112.491" y="184.077" width="5.11321" height="5.11321" transform="rotate(90 112.491 184.077)" fill="#A1A1A1"/>
<rect x="112.491" y="61.3594" width="5.11321" height="5.11321" transform="rotate(90 112.491 61.3594)" fill="#A1A1A1"/>
<rect x="112.491" y="204.529" width="5.11321" height="5.11321" transform="rotate(90 112.491 204.529)" fill="#A1A1A1"/>
<rect x="112.491" y="81.8115" width="5.11321" height="5.11321" transform="rotate(90 112.491 81.8115)" fill="#A1A1A1"/>
<rect x="112.491" y="224.982" width="5.11321" height="5.11321" transform="rotate(90 112.491 224.982)" fill="#A1A1A1"/>
<rect x="112.491" y="102.265" width="5.11321" height="5.11321" transform="rotate(90 112.491 102.265)" fill="#A1A1A1"/>
<rect x="112.491" y="245.436" width="5.11321" height="5.11321" transform="rotate(90 112.491 245.436)" fill="#A1A1A1"/>
<rect x="112.491" y="122.718" width="5.11321" height="5.11321" transform="rotate(90 112.491 122.718)" fill="#A1A1A1"/>
<rect x="112.491" y="265.889" width="5.11321" height="5.11321" transform="rotate(90 112.491 265.889)" fill="#A1A1A1"/>
<rect x="138.058" width="5.11321" height="5.11321" transform="rotate(90 138.058 0)" fill="#A1A1A1"/>
<rect x="138.058" y="20.4531" width="5.11321" height="5.11321" transform="rotate(90 138.058 20.4531)" fill="#A1A1A1"/>
<rect x="138.058" y="163.624" width="5.11321" height="5.11321" transform="rotate(90 138.058 163.624)" fill="#A1A1A1"/>
<rect x="138.058" y="40.9062" width="5.11321" height="5.11321" transform="rotate(90 138.058 40.9062)" fill="#A1A1A1"/>
<rect x="138.058" y="184.077" width="5.11321" height="5.11321" transform="rotate(90 138.058 184.077)" fill="#A1A1A1"/>
<rect x="138.058" y="61.3594" width="5.11321" height="5.11321" transform="rotate(90 138.058 61.3594)" fill="#A1A1A1"/>
<rect x="138.058" y="204.529" width="5.11321" height="5.11321" transform="rotate(90 138.058 204.529)" fill="#A1A1A1"/>
<rect x="138.058" y="81.8115" width="5.11321" height="5.11321" transform="rotate(90 138.058 81.8115)" fill="#A1A1A1"/>
<rect x="138.058" y="224.982" width="5.11321" height="5.11321" transform="rotate(90 138.058 224.982)" fill="#A1A1A1"/>
<rect x="138.058" y="102.265" width="5.11321" height="5.11321" transform="rotate(90 138.058 102.265)" fill="#A1A1A1"/>
<rect x="138.058" y="245.436" width="5.11321" height="5.11321" transform="rotate(90 138.058 245.436)" fill="#A1A1A1"/>
<rect x="138.058" y="265.889" width="5.11321" height="5.11321" transform="rotate(90 138.058 265.889)" fill="#A1A1A1"/>
<rect x="107.378" y="15.3398" width="5.11321" height="5.11321" transform="rotate(180 107.378 15.3398)" fill="#A1A1A1"/>
<rect x="107.378" y="158.511" width="5.11321" height="5.11321" transform="rotate(180 107.378 158.511)" fill="#A1A1A1"/>
<rect x="127.831" y="15.3398" width="5.11321" height="5.11321" transform="rotate(180 127.831 15.3398)" fill="#A1A1A1"/>
<rect x="127.831" y="158.511" width="5.11321" height="5.11321" transform="rotate(180 127.831 158.511)" fill="#A1A1A1"/>
<rect x="148.284" y="15.3398" width="5.11321" height="5.11321" transform="rotate(180 148.284 15.3398)" fill="#A1A1A1"/>
<rect x="148.284" y="158.511" width="5.11321" height="5.11321" transform="rotate(180 148.284 158.511)" fill="#A1A1A1"/>
<rect x="168.737" y="15.3398" width="5.11321" height="5.11321" transform="rotate(180 168.737 15.3398)" fill="#A1A1A1"/>
<rect x="168.737" y="158.511" width="5.11321" height="5.11321" transform="rotate(180 168.737 158.511)" fill="#A1A1A1"/>
<rect x="107.378" y="97.1514" width="5.11321" height="5.11321" transform="rotate(180 107.378 97.1514)" fill="#A1A1A1"/>
<rect x="107.378" y="240.322" width="5.11321" height="5.11321" transform="rotate(180 107.378 240.322)" fill="#A1A1A1"/>
<rect x="127.831" y="97.1514" width="5.11321" height="5.11321" transform="rotate(180 127.831 97.1514)" fill="#A1A1A1"/>
<rect x="127.831" y="240.322" width="5.11321" height="5.11321" transform="rotate(180 127.831 240.322)" fill="#A1A1A1"/>
<rect x="148.284" y="97.1514" width="5.11321" height="5.11321" transform="rotate(180 148.284 97.1514)" fill="#A1A1A1"/>
<rect x="148.284" y="240.322" width="5.11321" height="5.11321" transform="rotate(180 148.284 240.322)" fill="#A1A1A1"/>
<rect x="168.737" y="97.1514" width="5.11321" height="5.11321" transform="rotate(180 168.737 97.1514)" fill="#A1A1A1"/>
<rect x="168.737" y="240.322" width="5.11321" height="5.11321" transform="rotate(180 168.737 240.322)" fill="#A1A1A1"/>
<rect x="107.378" y="56.2461" width="5.11321" height="5.11321" transform="rotate(180 107.378 56.2461)" fill="#A1A1A1"/>
<rect x="107.378" y="199.417" width="5.11321" height="5.11321" transform="rotate(180 107.378 199.417)" fill="#A1A1A1"/>
<rect x="127.831" y="56.2461" width="5.11321" height="5.11321" transform="rotate(180 127.831 56.2461)" fill="#A1A1A1"/>
<rect x="127.831" y="199.417" width="5.11321" height="5.11321" transform="rotate(180 127.831 199.417)" fill="#A1A1A1"/>
<rect x="148.284" y="56.2461" width="5.11321" height="5.11321" transform="rotate(180 148.284 56.2461)" fill="#A1A1A1"/>
<rect x="148.284" y="199.417" width="5.11321" height="5.11321" transform="rotate(180 148.284 199.417)" fill="#A1A1A1"/>
<rect x="168.737" y="56.2461" width="5.11321" height="5.11321" transform="rotate(180 168.737 56.2461)" fill="#A1A1A1"/>
<rect x="168.737" y="199.417" width="5.11321" height="5.11321" transform="rotate(180 168.737 199.417)" fill="#A1A1A1"/>
<rect x="107.378" y="35.793" width="5.11321" height="5.11321" transform="rotate(180 107.378 35.793)" fill="#A1A1A1"/>
<rect x="20.4526" y="30.6797" width="5.11321" height="5.11321" transform="rotate(180 20.4526 30.6797)" fill="#A1A1A1"/>
<rect x="56.2456" y="30.6797" width="5.11321" height="5.11321" transform="rotate(180 56.2456 30.6797)" fill="#A1A1A1"/>
<rect x="56.2456" y="66.4727" width="5.11321" height="5.11321" transform="rotate(180 56.2456 66.4727)" fill="#A1A1A1"/>
<rect x="20.4531" y="66.4727" width="5.11321" height="5.11321" transform="rotate(180 20.4531 66.4727)" fill="#A1A1A1"/>
<rect x="204.53" y="30.6797" width="5.11321" height="5.11321" transform="rotate(180 204.53 30.6797)" fill="#A1A1A1"/>
<rect x="204.53" y="204.529" width="5.11321" height="5.11321" transform="rotate(180 204.53 204.529)" fill="#A1A1A1"/>
<rect x="20.4531" y="204.529" width="5.11321" height="5.11321" transform="rotate(180 20.4531 204.529)" fill="#A1A1A1"/>
<rect x="240.322" y="30.6797" width="5.11321" height="5.11321" transform="rotate(180 240.322 30.6797)" fill="#A1A1A1"/>
<rect x="240.322" y="204.529" width="5.11321" height="5.11321" transform="rotate(180 240.322 204.529)" fill="#A1A1A1"/>
<rect x="56.2456" y="204.529" width="5.11321" height="5.11321" transform="rotate(180 56.2456 204.529)" fill="#A1A1A1"/>
<rect x="240.322" y="66.4727" width="5.11321" height="5.11321" transform="rotate(180 240.322 66.4727)" fill="#A1A1A1"/>
<rect x="240.322" y="240.322" width="5.11321" height="5.11321" transform="rotate(180 240.322 240.322)" fill="#A1A1A1"/>
<rect x="56.2456" y="240.322" width="5.11321" height="5.11321" transform="rotate(180 56.2456 240.322)" fill="#A1A1A1"/>
<rect x="204.53" y="66.4727" width="5.11321" height="5.11321" transform="rotate(180 204.53 66.4727)" fill="#A1A1A1"/>
<rect x="204.53" y="240.322" width="5.11321" height="5.11321" transform="rotate(180 204.53 240.322)" fill="#A1A1A1"/>
<rect x="20.4531" y="240.322" width="5.11321" height="5.11321" transform="rotate(180 20.4531 240.322)" fill="#A1A1A1"/>
<rect x="25.5659" y="25.5664" width="5.11321" height="5.11321" transform="rotate(180 25.5659 25.5664)" fill="#A1A1A1"/>
<rect x="61.3589" y="25.5664" width="5.11321" height="5.11321" transform="rotate(180 61.3589 25.5664)" fill="#A1A1A1"/>
<rect x="61.3589" y="61.3594" width="5.11321" height="5.11321" transform="rotate(180 61.3589 61.3594)" fill="#A1A1A1"/>
<rect x="25.5664" y="61.3594" width="5.11321" height="5.11321" transform="rotate(180 25.5664 61.3594)" fill="#A1A1A1"/>
<rect x="209.643" y="25.5664" width="5.11321" height="5.11321" transform="rotate(180 209.643 25.5664)" fill="#A1A1A1"/>
<rect x="209.643" y="199.417" width="5.11321" height="5.11321" transform="rotate(180 209.643 199.417)" fill="#A1A1A1"/>
<rect x="25.5664" y="199.417" width="5.11321" height="5.11321" transform="rotate(180 25.5664 199.417)" fill="#A1A1A1"/>
<rect x="245.436" y="25.5664" width="5.11321" height="5.11321" transform="rotate(180 245.436 25.5664)" fill="#A1A1A1"/>
<rect x="245.436" y="199.417" width="5.11321" height="5.11321" transform="rotate(180 245.436 199.417)" fill="#A1A1A1"/>
<rect x="61.3589" y="199.417" width="5.11321" height="5.11321" transform="rotate(180 61.3589 199.417)" fill="#A1A1A1"/>
<rect x="245.436" y="61.3594" width="5.11321" height="5.11321" transform="rotate(180 245.436 61.3594)" fill="#A1A1A1"/>
<rect x="245.436" y="235.209" width="5.11321" height="5.11321" transform="rotate(180 245.436 235.209)" fill="#A1A1A1"/>
<rect x="61.3589" y="235.209" width="5.11321" height="5.11321" transform="rotate(180 61.3589 235.209)" fill="#A1A1A1"/>
<rect x="209.643" y="61.3594" width="5.11321" height="5.11321" transform="rotate(180 209.643 61.3594)" fill="#A1A1A1"/>
<rect x="209.643" y="235.209" width="5.11321" height="5.11321" transform="rotate(180 209.643 235.209)" fill="#A1A1A1"/>
<rect x="25.5664" y="235.209" width="5.11321" height="5.11321" transform="rotate(180 25.5664 235.209)" fill="#A1A1A1"/>
<rect x="30.6792" y="25.5664" width="5.11321" height="5.11321" transform="rotate(180 30.6792 25.5664)" fill="#A1A1A1"/>
<rect x="66.4722" y="25.5664" width="5.11321" height="5.11321" transform="rotate(180 66.4722 25.5664)" fill="#A1A1A1"/>
<rect x="66.4722" y="61.3594" width="5.11321" height="5.11321" transform="rotate(180 66.4722 61.3594)" fill="#A1A1A1"/>
<rect x="30.6797" y="61.3594" width="5.11321" height="5.11321" transform="rotate(180 30.6797 61.3594)" fill="#A1A1A1"/>
<rect x="214.756" y="25.5664" width="5.11321" height="5.11321" transform="rotate(180 214.756 25.5664)" fill="#A1A1A1"/>
<rect x="214.756" y="199.417" width="5.11321" height="5.11321" transform="rotate(180 214.756 199.417)" fill="#A1A1A1"/>
<rect x="30.6797" y="199.417" width="5.11321" height="5.11321" transform="rotate(180 30.6797 199.417)" fill="#A1A1A1"/>
<rect x="250.549" y="25.5664" width="5.11321" height="5.11321" transform="rotate(180 250.549 25.5664)" fill="#A1A1A1"/>
<rect x="250.549" y="199.417" width="5.11321" height="5.11321" transform="rotate(180 250.549 199.417)" fill="#A1A1A1"/>
<rect x="66.4722" y="199.417" width="5.11321" height="5.11321" transform="rotate(180 66.4722 199.417)" fill="#A1A1A1"/>
<rect x="250.549" y="61.3594" width="5.11321" height="5.11321" transform="rotate(180 250.549 61.3594)" fill="#A1A1A1"/>
<rect x="250.549" y="235.209" width="5.11321" height="5.11321" transform="rotate(180 250.549 235.209)" fill="#A1A1A1"/>
<rect x="66.4722" y="235.209" width="5.11321" height="5.11321" transform="rotate(180 66.4722 235.209)" fill="#A1A1A1"/>
<rect x="214.756" y="61.3594" width="5.11321" height="5.11321" transform="rotate(180 214.756 61.3594)" fill="#A1A1A1"/>
<rect x="214.756" y="235.209" width="5.11321" height="5.11321" transform="rotate(180 214.756 235.209)" fill="#A1A1A1"/>
<rect x="30.6797" y="235.209" width="5.11321" height="5.11321" transform="rotate(180 30.6797 235.209)" fill="#A1A1A1"/>
<rect x="35.7925" y="30.6797" width="5.11321" height="5.11321" transform="rotate(180 35.7925 30.6797)" fill="#A1A1A1"/>
<rect x="71.5854" y="30.6797" width="5.11321" height="5.11321" transform="rotate(180 71.5854 30.6797)" fill="#A1A1A1"/>
<rect x="71.5854" y="66.4727" width="5.11321" height="5.11321" transform="rotate(180 71.5854 66.4727)" fill="#A1A1A1"/>
<rect x="35.7925" y="66.4727" width="5.11321" height="5.11321" transform="rotate(180 35.7925 66.4727)" fill="#A1A1A1"/>
<rect x="219.87" y="30.6797" width="5.11321" height="5.11321" transform="rotate(180 219.87 30.6797)" fill="#A1A1A1"/>
<rect x="219.87" y="204.529" width="5.11321" height="5.11321" transform="rotate(180 219.87 204.529)" fill="#A1A1A1"/>
<rect x="35.7925" y="204.529" width="5.11321" height="5.11321" transform="rotate(180 35.7925 204.529)" fill="#A1A1A1"/>
<rect x="255.662" y="30.6797" width="5.11321" height="5.11321" transform="rotate(180 255.662 30.6797)" fill="#A1A1A1"/>
<rect x="255.662" y="204.529" width="5.11321" height="5.11321" transform="rotate(180 255.662 204.529)" fill="#A1A1A1"/>
<rect x="71.5854" y="204.529" width="5.11321" height="5.11321" transform="rotate(180 71.5854 204.529)" fill="#A1A1A1"/>
<rect x="255.662" y="66.4727" width="5.11321" height="5.11321" transform="rotate(180 255.662 66.4727)" fill="#A1A1A1"/>
<rect x="255.662" y="240.322" width="5.11321" height="5.11321" transform="rotate(180 255.662 240.322)" fill="#A1A1A1"/>
<rect x="71.5854" y="240.322" width="5.11321" height="5.11321" transform="rotate(180 71.5854 240.322)" fill="#A1A1A1"/>
<rect x="219.87" y="66.4727" width="5.11321" height="5.11321" transform="rotate(180 219.87 66.4727)" fill="#A1A1A1"/>
<rect x="219.87" y="240.322" width="5.11321" height="5.11321" transform="rotate(180 219.87 240.322)" fill="#A1A1A1"/>
<rect x="35.7925" y="240.322" width="5.11321" height="5.11321" transform="rotate(180 35.7925 240.322)" fill="#A1A1A1"/>
<rect x="35.7925" y="35.793" width="5.11321" height="5.11321" transform="rotate(180 35.7925 35.793)" fill="#A1A1A1"/>
<rect x="71.5854" y="35.793" width="5.11321" height="5.11321" transform="rotate(180 71.5854 35.793)" fill="#A1A1A1"/>
<rect x="71.5854" y="71.585" width="5.11321" height="5.11321" transform="rotate(180 71.5854 71.585)" fill="#A1A1A1"/>
<rect x="35.7925" y="71.585" width="5.11321" height="5.11321" transform="rotate(180 35.7925 71.585)" fill="#A1A1A1"/>
<rect x="219.87" y="35.793" width="5.11321" height="5.11321" transform="rotate(180 219.87 35.793)" fill="#A1A1A1"/>
<rect x="219.87" y="209.643" width="5.11321" height="5.11321" transform="rotate(180 219.87 209.643)" fill="#A1A1A1"/>
<rect x="35.7925" y="209.643" width="5.11321" height="5.11321" transform="rotate(180 35.7925 209.643)" fill="#A1A1A1"/>
<rect x="255.662" y="35.793" width="5.11321" height="5.11321" transform="rotate(180 255.662 35.793)" fill="#A1A1A1"/>
<rect x="255.662" y="209.643" width="5.11321" height="5.11321" transform="rotate(180 255.662 209.643)" fill="#A1A1A1"/>
<rect x="71.5854" y="209.643" width="5.11321" height="5.11321" transform="rotate(180 71.5854 209.643)" fill="#A1A1A1"/>
<rect x="255.662" y="71.585" width="5.11321" height="5.11321" transform="rotate(180 255.662 71.585)" fill="#A1A1A1"/>
<rect x="255.662" y="245.436" width="5.11321" height="5.11321" transform="rotate(180 255.662 245.436)" fill="#A1A1A1"/>
<rect x="71.5854" y="245.436" width="5.11321" height="5.11321" transform="rotate(180 71.5854 245.436)" fill="#A1A1A1"/>
<rect x="219.87" y="71.585" width="5.11321" height="5.11321" transform="rotate(180 219.87 71.585)" fill="#A1A1A1"/>
<rect x="219.87" y="245.436" width="5.11321" height="5.11321" transform="rotate(180 219.87 245.436)" fill="#A1A1A1"/>
<rect x="35.7925" y="245.436" width="5.11321" height="5.11321" transform="rotate(180 35.7925 245.436)" fill="#A1A1A1"/>
<rect x="30.6797" y="40.9062" width="5.11321" height="5.11321" transform="rotate(180 30.6797 40.9062)" fill="#A1A1A1"/>
<rect x="66.4722" y="40.9062" width="5.11321" height="5.11321" transform="rotate(180 66.4722 40.9062)" fill="#A1A1A1"/>
<rect x="66.4722" y="76.6982" width="5.11321" height="5.11321" transform="rotate(180 66.4722 76.6982)" fill="#A1A1A1"/>
<rect x="30.6797" y="76.6982" width="5.11321" height="5.11321" transform="rotate(180 30.6797 76.6982)" fill="#A1A1A1"/>
<rect x="214.756" y="40.9062" width="5.11321" height="5.11321" transform="rotate(180 214.756 40.9062)" fill="#A1A1A1"/>
<rect x="214.756" y="214.756" width="5.11321" height="5.11321" transform="rotate(180 214.756 214.756)" fill="#A1A1A1"/>
<rect x="30.6797" y="214.756" width="5.11321" height="5.11321" transform="rotate(180 30.6797 214.756)" fill="#A1A1A1"/>
<rect x="250.549" y="40.9062" width="5.11321" height="5.11321" transform="rotate(180 250.549 40.9062)" fill="#A1A1A1"/>
<rect x="250.549" y="214.756" width="5.11321" height="5.11321" transform="rotate(180 250.549 214.756)" fill="#A1A1A1"/>
<rect x="66.4722" y="214.756" width="5.11321" height="5.11321" transform="rotate(180 66.4722 214.756)" fill="#A1A1A1"/>
<rect x="250.549" y="76.6982" width="5.11321" height="5.11321" transform="rotate(180 250.549 76.6982)" fill="#A1A1A1"/>
<rect x="250.549" y="250.549" width="5.11321" height="5.11321" transform="rotate(180 250.549 250.549)" fill="#A1A1A1"/>
<rect x="66.4722" y="250.549" width="5.11321" height="5.11321" transform="rotate(180 66.4722 250.549)" fill="#A1A1A1"/>
<rect x="214.756" y="76.6982" width="5.11321" height="5.11321" transform="rotate(180 214.756 76.6982)" fill="#A1A1A1"/>
<rect x="214.756" y="250.549" width="5.11321" height="5.11321" transform="rotate(180 214.756 250.549)" fill="#A1A1A1"/>
<rect x="30.6797" y="250.549" width="5.11321" height="5.11321" transform="rotate(180 30.6797 250.549)" fill="#A1A1A1"/>
<rect x="25.5664" y="40.9062" width="5.11321" height="5.11321" transform="rotate(180 25.5664 40.9062)" fill="#A1A1A1"/>
<rect x="61.3589" y="40.9062" width="5.11321" height="5.11321" transform="rotate(180 61.3589 40.9062)" fill="#A1A1A1"/>
<rect x="61.3589" y="76.6982" width="5.11321" height="5.11321" transform="rotate(180 61.3589 76.6982)" fill="#A1A1A1"/>
<rect x="25.5664" y="76.6982" width="5.11321" height="5.11321" transform="rotate(180 25.5664 76.6982)" fill="#A1A1A1"/>
<rect x="209.643" y="40.9062" width="5.11321" height="5.11321" transform="rotate(180 209.643 40.9062)" fill="#A1A1A1"/>
<rect x="209.643" y="214.756" width="5.11321" height="5.11321" transform="rotate(180 209.643 214.756)" fill="#A1A1A1"/>
<rect x="25.5664" y="214.756" width="5.11321" height="5.11321" transform="rotate(180 25.5664 214.756)" fill="#A1A1A1"/>
<rect x="245.436" y="40.9062" width="5.11321" height="5.11321" transform="rotate(180 245.436 40.9062)" fill="#A1A1A1"/>
<rect x="245.436" y="214.756" width="5.11321" height="5.11321" transform="rotate(180 245.436 214.756)" fill="#A1A1A1"/>
<rect x="61.3589" y="214.756" width="5.11321" height="5.11321" transform="rotate(180 61.3589 214.756)" fill="#A1A1A1"/>
<rect x="245.436" y="76.6982" width="5.11321" height="5.11321" transform="rotate(180 245.436 76.6982)" fill="#A1A1A1"/>
<rect x="245.436" y="250.549" width="5.11321" height="5.11321" transform="rotate(180 245.436 250.549)" fill="#A1A1A1"/>
<rect x="61.3589" y="250.549" width="5.11321" height="5.11321" transform="rotate(180 61.3589 250.549)" fill="#A1A1A1"/>
<rect x="209.643" y="76.6982" width="5.11321" height="5.11321" transform="rotate(180 209.643 76.6982)" fill="#A1A1A1"/>
<rect x="209.643" y="250.549" width="5.11321" height="5.11321" transform="rotate(180 209.643 250.549)" fill="#A1A1A1"/>
<rect x="25.5664" y="250.549" width="5.11321" height="5.11321" transform="rotate(180 25.5664 250.549)" fill="#A1A1A1"/>
<rect x="20.4531" y="35.793" width="5.11321" height="5.11321" transform="rotate(180 20.4531 35.793)" fill="#A1A1A1"/>
<rect x="56.2456" y="35.793" width="5.11321" height="5.11321" transform="rotate(180 56.2456 35.793)" fill="#A1A1A1"/>
<rect x="56.2456" y="71.585" width="5.11321" height="5.11321" transform="rotate(180 56.2456 71.585)" fill="#A1A1A1"/>
<rect x="20.4531" y="71.585" width="5.11321" height="5.11321" transform="rotate(180 20.4531 71.585)" fill="#A1A1A1"/>
<rect x="204.53" y="35.793" width="5.11321" height="5.11321" transform="rotate(180 204.53 35.793)" fill="#A1A1A1"/>
<rect x="204.53" y="209.643" width="5.11321" height="5.11321" transform="rotate(180 204.53 209.643)" fill="#A1A1A1"/>
<rect x="20.4531" y="209.643" width="5.11321" height="5.11321" transform="rotate(180 20.4531 209.643)" fill="#A1A1A1"/>
<rect x="240.322" y="35.793" width="5.11321" height="5.11321" transform="rotate(180 240.322 35.793)" fill="#A1A1A1"/>
<rect x="240.322" y="209.643" width="5.11321" height="5.11321" transform="rotate(180 240.322 209.643)" fill="#A1A1A1"/>
<rect x="56.2456" y="209.643" width="5.11321" height="5.11321" transform="rotate(180 56.2456 209.643)" fill="#A1A1A1"/>
<rect x="240.322" y="71.585" width="5.11321" height="5.11321" transform="rotate(180 240.322 71.585)" fill="#A1A1A1"/>
<rect x="240.322" y="245.436" width="5.11321" height="5.11321" transform="rotate(180 240.322 245.436)" fill="#A1A1A1"/>
<rect x="56.2456" y="245.436" width="5.11321" height="5.11321" transform="rotate(180 56.2456 245.436)" fill="#A1A1A1"/>
<rect x="204.53" y="71.585" width="5.11321" height="5.11321" transform="rotate(180 204.53 71.585)" fill="#A1A1A1"/>
<rect x="204.53" y="245.436" width="5.11321" height="5.11321" transform="rotate(180 204.53 245.436)" fill="#A1A1A1"/>
<rect x="20.4531" y="245.436" width="5.11321" height="5.11321" transform="rotate(180 20.4531 245.436)" fill="#A1A1A1"/>
<rect x="107.378" y="178.964" width="5.11321" height="5.11321" transform="rotate(180 107.378 178.964)" fill="#A1A1A1"/>
<rect x="127.831" y="35.793" width="5.11321" height="5.11321" transform="rotate(180 127.831 35.793)" fill="#A1A1A1"/>
<rect x="127.831" y="178.964" width="5.11321" height="5.11321" transform="rotate(180 127.831 178.964)" fill="#A1A1A1"/>
<rect x="148.284" y="35.793" width="5.11321" height="5.11321" transform="rotate(180 148.284 35.793)" fill="#A1A1A1"/>
<rect x="148.284" y="178.964" width="5.11321" height="5.11321" transform="rotate(180 148.284 178.964)" fill="#A1A1A1"/>
<rect x="168.737" y="35.793" width="5.11321" height="5.11321" transform="rotate(180 168.737 35.793)" fill="#A1A1A1"/>
<rect x="168.737" y="178.964" width="5.11321" height="5.11321" transform="rotate(180 168.737 178.964)" fill="#A1A1A1"/>
<rect x="107.378" y="117.604" width="5.11321" height="5.11321" transform="rotate(180 107.378 117.604)" fill="#A1A1A1"/>
<rect x="107.378" y="260.775" width="5.11321" height="5.11321" transform="rotate(180 107.378 260.775)" fill="#A1A1A1"/>
<rect x="127.831" y="117.604" width="5.11321" height="5.11321" transform="rotate(180 127.831 117.604)" fill="#A1A1A1"/>
<rect x="127.831" y="260.775" width="5.11321" height="5.11321" transform="rotate(180 127.831 260.775)" fill="#A1A1A1"/>
<rect x="148.284" y="117.604" width="5.11321" height="5.11321" transform="rotate(180 148.284 117.604)" fill="#A1A1A1"/>
<rect x="148.284" y="260.775" width="5.11321" height="5.11321" transform="rotate(180 148.284 260.775)" fill="#A1A1A1"/>
<rect x="168.737" y="117.604" width="5.11321" height="5.11321" transform="rotate(180 168.737 117.604)" fill="#A1A1A1"/>
<rect x="168.737" y="260.775" width="5.11321" height="5.11321" transform="rotate(180 168.737 260.775)" fill="#A1A1A1"/>
<rect x="107.378" y="76.6982" width="5.11321" height="5.11321" transform="rotate(180 107.378 76.6982)" fill="#A1A1A1"/>
<rect x="107.378" y="219.869" width="5.11321" height="5.11321" transform="rotate(180 107.378 219.869)" fill="#A1A1A1"/>
<rect x="127.831" y="76.6982" width="5.11321" height="5.11321" transform="rotate(180 127.831 76.6982)" fill="#A1A1A1"/>
<rect x="127.831" y="219.869" width="5.11321" height="5.11321" transform="rotate(180 127.831 219.869)" fill="#A1A1A1"/>
<rect x="148.284" y="76.6982" width="5.11321" height="5.11321" transform="rotate(180 148.284 76.6982)" fill="#A1A1A1"/>
<rect x="148.284" y="219.869" width="5.11321" height="5.11321" transform="rotate(180 148.284 219.869)" fill="#A1A1A1"/>
<rect x="168.737" y="76.6982" width="5.11321" height="5.11321" transform="rotate(180 168.737 76.6982)" fill="#A1A1A1"/>
<rect x="168.737" y="219.869" width="5.11321" height="5.11321" transform="rotate(180 168.737 219.869)" fill="#A1A1A1"/>
<rect x="117.604" width="5.11321" height="5.11321" transform="rotate(90 117.604 0)" fill="#A1A1A1"/>
<rect x="158.511" y="5.11328" width="5.11321" height="5.11321" transform="rotate(90 158.511 5.11328)" fill="#EA3434"/>
<rect x="153.397" y="10.2266" width="5.11321" height="5.11321" transform="rotate(90 153.397 10.2266)" fill="#EA3434"/>
<rect x="158.511" y="15.3398" width="5.11321" height="5.11321" transform="rotate(90 158.511 15.3398)" fill="#EA3434"/>
<rect x="163.624" y="10.2266" width="5.11321" height="5.11321" transform="rotate(90 163.624 10.2266)" fill="#EA3434"/>
<rect x="117.604" y="143.171" width="5.11321" height="5.11321" transform="rotate(90 117.604 143.171)" fill="#A1A1A1"/>
<rect x="117.604" y="20.4531" width="5.11321" height="5.11321" transform="rotate(90 117.604 20.4531)" fill="#A1A1A1"/>
<rect x="117.604" y="163.624" width="5.11321" height="5.11321" transform="rotate(90 117.604 163.624)" fill="#A1A1A1"/>
<rect x="117.604" y="40.9062" width="5.11321" height="5.11321" transform="rotate(90 117.604 40.9062)" fill="#A1A1A1"/>
<rect x="117.604" y="184.077" width="5.11321" height="5.11321" transform="rotate(90 117.604 184.077)" fill="#A1A1A1"/>
<rect x="117.604" y="61.3594" width="5.11321" height="5.11321" transform="rotate(90 117.604 61.3594)" fill="#A1A1A1"/>
<rect x="117.604" y="204.529" width="5.11321" height="5.11321" transform="rotate(90 117.604 204.529)" fill="#A1A1A1"/>
<rect x="117.604" y="81.8115" width="5.11321" height="5.11321" transform="rotate(90 117.604 81.8115)" fill="#A1A1A1"/>
<rect x="117.604" y="224.982" width="5.11321" height="5.11321" transform="rotate(90 117.604 224.982)" fill="#A1A1A1"/>
<rect x="117.604" y="102.265" width="5.11321" height="5.11321" transform="rotate(90 117.604 102.265)" fill="#A1A1A1"/>
<rect x="117.604" y="245.436" width="5.11321" height="5.11321" transform="rotate(90 117.604 245.436)" fill="#A1A1A1"/>
<rect x="117.604" y="250.549" width="5.11321" height="5.11321" transform="rotate(90 117.604 250.549)" fill="#00BF4E"/>
<rect x="112.491" y="255.662" width="5.11321" height="5.11321" transform="rotate(90 112.491 255.662)" fill="#00BF4E"/>
<rect x="117.604" y="260.775" width="5.11321" height="5.11321" transform="rotate(90 117.604 260.775)" fill="#00BF4E"/>
<rect x="122.718" y="255.662" width="5.11321" height="5.11321" transform="rotate(90 122.718 255.662)" fill="#00BF4E"/>
<rect x="117.604" y="122.718" width="5.11321" height="5.11321" transform="rotate(90 117.604 122.718)" fill="#A1A1A1"/>
<rect x="117.604" y="265.889" width="5.11321" height="5.11321" transform="rotate(90 117.604 265.889)" fill="#A1A1A1"/>
<rect x="143.171" width="5.11321" height="5.11321" transform="rotate(90 143.171 0)" fill="#A1A1A1"/>
<rect x="143.171" y="20.4531" width="5.11321" height="5.11321" transform="rotate(90 143.171 20.4531)" fill="#A1A1A1"/>
<rect x="143.171" y="163.624" width="5.11321" height="5.11321" transform="rotate(90 143.171 163.624)" fill="#A1A1A1"/>
<rect x="143.171" y="40.9062" width="5.11321" height="5.11321" transform="rotate(90 143.171 40.9062)" fill="#A1A1A1"/>
<rect x="143.171" y="184.077" width="5.11321" height="5.11321" transform="rotate(90 143.171 184.077)" fill="#A1A1A1"/>
<rect x="143.171" y="61.3594" width="5.11321" height="5.11321" transform="rotate(90 143.171 61.3594)" fill="#A1A1A1"/>
<rect x="143.171" y="204.529" width="5.11321" height="5.11321" transform="rotate(90 143.171 204.529)" fill="#A1A1A1"/>
<rect x="143.171" y="81.8115" width="5.11321" height="5.11321" transform="rotate(90 143.171 81.8115)" fill="#A1A1A1"/>
<rect x="143.171" y="224.982" width="5.11321" height="5.11321" transform="rotate(90 143.171 224.982)" fill="#A1A1A1"/>
<rect x="143.171" y="102.265" width="5.11321" height="5.11321" transform="rotate(90 143.171 102.265)" fill="#A1A1A1"/>
<rect x="143.171" y="245.436" width="5.11321" height="5.11321" transform="rotate(90 143.171 245.436)" fill="#A1A1A1"/>
<rect x="143.171" y="265.889" width="5.11321" height="5.11321" transform="rotate(90 143.171 265.889)" fill="#A1A1A1"/>
<rect x="158.511" width="5.11321" height="5.11321" transform="rotate(90 158.511 0)" fill="#A1A1A1"/>
<rect x="158.511" y="143.171" width="5.11321" height="5.11321" transform="rotate(90 158.511 143.171)" fill="#A1A1A1"/>
<rect x="158.511" y="20.4531" width="5.11321" height="5.11321" transform="rotate(90 158.511 20.4531)" fill="#A1A1A1"/>
<rect x="158.511" y="163.624" width="5.11321" height="5.11321" transform="rotate(90 158.511 163.624)" fill="#A1A1A1"/>
<rect x="158.511" y="40.9062" width="5.11321" height="5.11321" transform="rotate(90 158.511 40.9062)" fill="#A1A1A1"/>
<rect x="158.511" y="184.077" width="5.11321" height="5.11321" transform="rotate(90 158.511 184.077)" fill="#A1A1A1"/>
<rect x="158.511" y="61.3594" width="5.11321" height="5.11321" transform="rotate(90 158.511 61.3594)" fill="#A1A1A1"/>
<rect x="158.511" y="204.529" width="5.11321" height="5.11321" transform="rotate(90 158.511 204.529)" fill="#A1A1A1"/>
<rect x="158.511" y="81.8115" width="5.11321" height="5.11321" transform="rotate(90 158.511 81.8115)" fill="#A1A1A1"/>
<rect x="158.511" y="224.982" width="5.11321" height="5.11321" transform="rotate(90 158.511 224.982)" fill="#A1A1A1"/>
<rect x="158.511" y="102.265" width="5.11321" height="5.11321" transform="rotate(90 158.511 102.265)" fill="#A1A1A1"/>
<rect x="158.511" y="245.436" width="5.11321" height="5.11321" transform="rotate(90 158.511 245.436)" fill="#A1A1A1"/>
<rect x="158.511" y="122.718" width="5.11321" height="5.11321" transform="rotate(90 158.511 122.718)" fill="#A1A1A1"/>
<rect x="158.511" y="265.889" width="5.11321" height="5.11321" transform="rotate(90 158.511 265.889)" fill="#A1A1A1"/>
<rect x="107.378" y="20.4531" width="5.11321" height="5.11321" transform="rotate(180 107.378 20.4531)" fill="#A1A1A1"/>
<rect x="107.378" y="163.624" width="5.11321" height="5.11321" transform="rotate(180 107.378 163.624)" fill="#A1A1A1"/>
<rect x="127.831" y="20.4531" width="5.11321" height="5.11321" transform="rotate(180 127.831 20.4531)" fill="#A1A1A1"/>
<rect x="127.831" y="163.624" width="5.11321" height="5.11321" transform="rotate(180 127.831 163.624)" fill="#A1A1A1"/>
<rect x="148.284" y="20.4531" width="5.11321" height="5.11321" transform="rotate(180 148.284 20.4531)" fill="#A1A1A1"/>
<rect x="148.284" y="163.624" width="5.11321" height="5.11321" transform="rotate(180 148.284 163.624)" fill="#A1A1A1"/>
<rect x="168.737" y="20.4531" width="5.11321" height="5.11321" transform="rotate(180 168.737 20.4531)" fill="#A1A1A1"/>
<rect x="168.737" y="163.624" width="5.11321" height="5.11321" transform="rotate(180 168.737 163.624)" fill="#A1A1A1"/>
<rect x="107.378" y="102.265" width="5.11321" height="5.11321" transform="rotate(180 107.378 102.265)" fill="#A1A1A1"/>
<rect x="107.378" y="245.436" width="5.11321" height="5.11321" transform="rotate(180 107.378 245.436)" fill="#A1A1A1"/>
<rect x="127.831" y="102.265" width="5.11321" height="5.11321" transform="rotate(180 127.831 102.265)" fill="#A1A1A1"/>
<rect x="127.831" y="245.436" width="5.11321" height="5.11321" transform="rotate(180 127.831 245.436)" fill="#A1A1A1"/>
<rect x="148.284" y="102.265" width="5.11321" height="5.11321" transform="rotate(180 148.284 102.265)" fill="#A1A1A1"/>
<rect x="148.284" y="245.436" width="5.11321" height="5.11321" transform="rotate(180 148.284 245.436)" fill="#A1A1A1"/>
<rect x="168.737" y="102.265" width="5.11321" height="5.11321" transform="rotate(180 168.737 102.265)" fill="#A1A1A1"/>
<rect x="168.737" y="245.436" width="5.11321" height="5.11321" transform="rotate(180 168.737 245.436)" fill="#A1A1A1"/>
<rect x="107.378" y="61.3594" width="5.11321" height="5.11321" transform="rotate(180 107.378 61.3594)" fill="#A1A1A1"/>
<rect x="107.378" y="204.529" width="5.11321" height="5.11321" transform="rotate(180 107.378 204.529)" fill="#A1A1A1"/>
<rect x="127.831" y="61.3594" width="5.11321" height="5.11321" transform="rotate(180 127.831 61.3594)" fill="#A1A1A1"/>
<rect x="127.831" y="204.529" width="5.11321" height="5.11321" transform="rotate(180 127.831 204.529)" fill="#A1A1A1"/>
<rect x="148.284" y="61.3594" width="5.11321" height="5.11321" transform="rotate(180 148.284 61.3594)" fill="#A1A1A1"/>
<rect x="148.284" y="204.529" width="5.11321" height="5.11321" transform="rotate(180 148.284 204.529)" fill="#A1A1A1"/>
<rect x="168.737" y="61.3594" width="5.11321" height="5.11321" transform="rotate(180 168.737 61.3594)" fill="#A1A1A1"/>
<rect x="168.737" y="204.529" width="5.11321" height="5.11321" transform="rotate(180 168.737 204.529)" fill="#A1A1A1"/>
<rect x="107.378" y="40.9062" width="5.11321" height="5.11321" transform="rotate(180 107.378 40.9062)" fill="#A1A1A1"/>
<rect x="107.378" y="184.077" width="5.11321" height="5.11321" transform="rotate(180 107.378 184.077)" fill="#A1A1A1"/>
<rect x="127.831" y="40.9062" width="5.11321" height="5.11321" transform="rotate(180 127.831 40.9062)" fill="#A1A1A1"/>
<rect x="127.831" y="184.077" width="5.11321" height="5.11321" transform="rotate(180 127.831 184.077)" fill="#A1A1A1"/>
<rect x="148.284" y="40.9062" width="5.11321" height="5.11321" transform="rotate(180 148.284 40.9062)" fill="#A1A1A1"/>
<rect x="148.284" y="184.077" width="5.11321" height="5.11321" transform="rotate(180 148.284 184.077)" fill="#A1A1A1"/>
<rect x="168.737" y="40.9062" width="5.11321" height="5.11321" transform="rotate(180 168.737 40.9062)" fill="#A1A1A1"/>
<rect x="168.737" y="184.077" width="5.11321" height="5.11321" transform="rotate(180 168.737 184.077)" fill="#A1A1A1"/>
<rect x="107.378" y="122.718" width="5.11321" height="5.11321" transform="rotate(180 107.378 122.718)" fill="#A1A1A1"/>
<rect x="107.378" y="265.889" width="5.11321" height="5.11321" transform="rotate(180 107.378 265.889)" fill="#A1A1A1"/>
<rect x="127.831" y="122.718" width="5.11321" height="5.11321" transform="rotate(180 127.831 122.718)" fill="#A1A1A1"/>
<rect x="127.831" y="265.889" width="5.11321" height="5.11321" transform="rotate(180 127.831 265.889)" fill="#A1A1A1"/>
<rect x="148.284" y="122.718" width="5.11321" height="5.11321" transform="rotate(180 148.284 122.718)" fill="#A1A1A1"/>
<rect x="148.284" y="265.889" width="5.11321" height="5.11321" transform="rotate(180 148.284 265.889)" fill="#A1A1A1"/>
<rect x="168.737" y="122.718" width="5.11321" height="5.11321" transform="rotate(180 168.737 122.718)" fill="#A1A1A1"/>
<rect x="168.737" y="265.889" width="5.11321" height="5.11321" transform="rotate(180 168.737 265.889)" fill="#A1A1A1"/>
<rect x="107.378" y="81.8115" width="5.11321" height="5.11321" transform="rotate(180 107.378 81.8115)" fill="#A1A1A1"/>
<rect x="107.378" y="224.982" width="5.11321" height="5.11321" transform="rotate(180 107.378 224.982)" fill="#A1A1A1"/>
<rect x="127.831" y="81.8115" width="5.11321" height="5.11321" transform="rotate(180 127.831 81.8115)" fill="#A1A1A1"/>
<rect x="127.831" y="224.982" width="5.11321" height="5.11321" transform="rotate(180 127.831 224.982)" fill="#A1A1A1"/>
<rect x="148.284" y="81.8115" width="5.11321" height="5.11321" transform="rotate(180 148.284 81.8115)" fill="#A1A1A1"/>
<rect x="148.284" y="224.982" width="5.11321" height="5.11321" transform="rotate(180 148.284 224.982)" fill="#A1A1A1"/>
<rect x="168.737" y="81.8115" width="5.11321" height="5.11321" transform="rotate(180 168.737 81.8115)" fill="#A1A1A1"/>
<rect x="168.737" y="224.982" width="5.11321" height="5.11321" transform="rotate(180 168.737 224.982)" fill="#A1A1A1"/>
<rect x="122.718" width="5.11321" height="5.11321" transform="rotate(90 122.718 0)" fill="#A1A1A1"/>
<rect x="122.718" y="143.171" width="5.11321" height="5.11321" transform="rotate(90 122.718 143.171)" fill="#A1A1A1"/>
<rect x="122.718" y="20.4531" width="5.11321" height="5.11321" transform="rotate(90 122.718 20.4531)" fill="#A1A1A1"/>
<rect x="122.718" y="163.624" width="5.11321" height="5.11321" transform="rotate(90 122.718 163.624)" fill="#A1A1A1"/>
<rect x="122.718" y="40.9062" width="5.11321" height="5.11321" transform="rotate(90 122.718 40.9062)" fill="#A1A1A1"/>
<rect x="122.718" y="184.077" width="5.11321" height="5.11321" transform="rotate(90 122.718 184.077)" fill="#A1A1A1"/>
<rect x="122.718" y="61.3594" width="5.11321" height="5.11321" transform="rotate(90 122.718 61.3594)" fill="#A1A1A1"/>
<rect x="122.718" y="204.529" width="5.11321" height="5.11321" transform="rotate(90 122.718 204.529)" fill="#A1A1A1"/>
<rect x="122.718" y="81.8115" width="5.11321" height="5.11321" transform="rotate(90 122.718 81.8115)" fill="#A1A1A1"/>
<rect x="122.718" y="224.982" width="5.11321" height="5.11321" transform="rotate(90 122.718 224.982)" fill="#A1A1A1"/>
<rect x="122.718" y="102.265" width="5.11321" height="5.11321" transform="rotate(90 122.718 102.265)" fill="#A1A1A1"/>
<rect x="122.718" y="245.436" width="5.11321" height="5.11321" transform="rotate(90 122.718 245.436)" fill="#A1A1A1"/>
<rect x="122.718" y="122.718" width="5.11321" height="5.11321" transform="rotate(90 122.718 122.718)" fill="#A1A1A1"/>
<rect x="122.718" y="265.889" width="5.11321" height="5.11321" transform="rotate(90 122.718 265.889)" fill="#A1A1A1"/>
<rect x="148.284" width="5.11321" height="5.11321" transform="rotate(90 148.284 0)" fill="#A1A1A1"/>
<rect x="148.284" y="143.171" width="5.11321" height="5.11321" transform="rotate(90 148.284 143.171)" fill="#A1A1A1"/>
<rect x="148.284" y="20.4531" width="5.11321" height="5.11321" transform="rotate(90 148.284 20.4531)" fill="#A1A1A1"/>
<rect x="148.284" y="163.624" width="5.11321" height="5.11321" transform="rotate(90 148.284 163.624)" fill="#A1A1A1"/>
<rect x="148.284" y="40.9062" width="5.11321" height="5.11321" transform="rotate(90 148.284 40.9062)" fill="#A1A1A1"/>
<rect x="148.284" y="184.077" width="5.11321" height="5.11321" transform="rotate(90 148.284 184.077)" fill="#A1A1A1"/>
<rect x="148.284" y="61.3594" width="5.11321" height="5.11321" transform="rotate(90 148.284 61.3594)" fill="#A1A1A1"/>
<rect x="148.284" y="204.529" width="5.11321" height="5.11321" transform="rotate(90 148.284 204.529)" fill="#A1A1A1"/>
<rect x="148.284" y="81.8115" width="5.11321" height="5.11321" transform="rotate(90 148.284 81.8115)" fill="#A1A1A1"/>
<rect x="148.284" y="224.982" width="5.11321" height="5.11321" transform="rotate(90 148.284 224.982)" fill="#A1A1A1"/>
<rect x="148.284" y="102.265" width="5.11321" height="5.11321" transform="rotate(90 148.284 102.265)" fill="#A1A1A1"/>
<rect x="148.284" y="245.436" width="5.11321" height="5.11321" transform="rotate(90 148.284 245.436)" fill="#A1A1A1"/>
<rect x="148.284" y="122.718" width="5.11321" height="5.11321" transform="rotate(90 148.284 122.718)" fill="#A1A1A1"/>
<rect x="148.284" y="265.889" width="5.11321" height="5.11321" transform="rotate(90 148.284 265.889)" fill="#A1A1A1"/>
<rect x="163.624" width="5.11321" height="5.11321" transform="rotate(90 163.624 0)" fill="#A1A1A1"/>
<rect x="163.624" y="143.171" width="5.11321" height="5.11321" transform="rotate(90 163.624 143.171)" fill="#A1A1A1"/>
<rect x="163.624" y="20.4531" width="5.11321" height="5.11321" transform="rotate(90 163.624 20.4531)" fill="#A1A1A1"/>
<rect x="163.624" y="163.624" width="5.11321" height="5.11321" transform="rotate(90 163.624 163.624)" fill="#A1A1A1"/>
<rect x="163.624" y="40.9062" width="5.11321" height="5.11321" transform="rotate(90 163.624 40.9062)" fill="#A1A1A1"/>
<rect x="163.624" y="184.077" width="5.11321" height="5.11321" transform="rotate(90 163.624 184.077)" fill="#A1A1A1"/>
<rect x="163.624" y="61.3594" width="5.11321" height="5.11321" transform="rotate(90 163.624 61.3594)" fill="#A1A1A1"/>
<rect x="163.624" y="204.529" width="5.11321" height="5.11321" transform="rotate(90 163.624 204.529)" fill="#A1A1A1"/>
<rect x="163.624" y="81.8115" width="5.11321" height="5.11321" transform="rotate(90 163.624 81.8115)" fill="#A1A1A1"/>
<rect x="163.624" y="224.982" width="5.11321" height="5.11321" transform="rotate(90 163.624 224.982)" fill="#A1A1A1"/>
<rect x="163.624" y="102.265" width="5.11321" height="5.11321" transform="rotate(90 163.624 102.265)" fill="#A1A1A1"/>
<rect x="163.624" y="245.436" width="5.11321" height="5.11321" transform="rotate(90 163.624 245.436)" fill="#A1A1A1"/>
<rect x="163.624" y="122.718" width="5.11321" height="5.11321" transform="rotate(90 163.624 122.718)" fill="#A1A1A1"/>
<rect x="163.624" y="265.889" width="5.11321" height="5.11321" transform="rotate(90 163.624 265.889)" fill="#A1A1A1"/>
<rect x="107.378" y="25.5664" width="5.11321" height="5.11321" transform="rotate(180 107.378 25.5664)" fill="#A1A1A1"/>
<rect x="107.378" y="168.737" width="5.11321" height="5.11321" transform="rotate(180 107.378 168.737)" fill="#A1A1A1"/>
<rect x="127.831" y="25.5664" width="5.11321" height="5.11321" transform="rotate(180 127.831 25.5664)" fill="#A1A1A1"/>
<rect x="127.831" y="168.737" width="5.11321" height="5.11321" transform="rotate(180 127.831 168.737)" fill="#A1A1A1"/>
<rect x="168.737" y="25.5664" width="5.11321" height="5.11321" transform="rotate(180 168.737 25.5664)" fill="#A1A1A1"/>
<rect x="168.737" y="168.737" width="5.11321" height="5.11321" transform="rotate(180 168.737 168.737)" fill="#A1A1A1"/>
<rect x="107.378" y="107.378" width="5.11321" height="5.11321" transform="rotate(180 107.378 107.378)" fill="#A1A1A1"/>
<rect x="107.378" y="250.549" width="5.11321" height="5.11321" transform="rotate(180 107.378 250.549)" fill="#A1A1A1"/>
<rect x="127.831" y="107.378" width="5.11321" height="5.11321" transform="rotate(180 127.831 107.378)" fill="#A1A1A1"/>
<rect x="127.831" y="250.549" width="5.11321" height="5.11321" transform="rotate(180 127.831 250.549)" fill="#A1A1A1"/>
<rect x="168.737" y="107.378" width="5.11321" height="5.11321" transform="rotate(180 168.737 107.378)" fill="#A1A1A1"/>
<rect x="168.737" y="250.549" width="5.11321" height="5.11321" transform="rotate(180 168.737 250.549)" fill="#A1A1A1"/>
<rect x="107.378" y="66.4727" width="5.11321" height="5.11321" transform="rotate(180 107.378 66.4727)" fill="#A1A1A1"/>
<rect x="107.378" y="209.643" width="5.11321" height="5.11321" transform="rotate(180 107.378 209.643)" fill="#A1A1A1"/>
<rect x="127.831" y="66.4727" width="5.11321" height="5.11321" transform="rotate(180 127.831 66.4727)" fill="#A1A1A1"/>
<rect x="127.831" y="209.643" width="5.11321" height="5.11321" transform="rotate(180 127.831 209.643)" fill="#A1A1A1"/>
<rect x="168.737" y="66.4727" width="5.11321" height="5.11321" transform="rotate(180 168.737 66.4727)" fill="#A1A1A1"/>
<rect x="168.737" y="209.643" width="5.11321" height="5.11321" transform="rotate(180 168.737 209.643)" fill="#A1A1A1"/>
<rect x="107.378" width="5.11321" height="5.11321" transform="rotate(90 107.378 0)" fill="#A1A1A1"/>
<rect x="107.378" y="143.171" width="5.11321" height="5.11321" transform="rotate(90 107.378 143.171)" fill="#A1A1A1"/>
<rect x="107.378" y="20.4531" width="5.11321" height="5.11321" transform="rotate(90 107.378 20.4531)" fill="#A1A1A1"/>
<rect x="107.378" y="163.624" width="5.11321" height="5.11321" transform="rotate(90 107.378 163.624)" fill="#A1A1A1"/>
<rect x="107.378" y="40.9062" width="5.11321" height="5.11321" transform="rotate(90 107.378 40.9062)" fill="#A1A1A1"/>
<rect x="107.378" y="184.077" width="5.11321" height="5.11321" transform="rotate(90 107.378 184.077)" fill="#A1A1A1"/>
<rect x="107.378" y="61.3594" width="5.11321" height="5.11321" transform="rotate(90 107.378 61.3594)" fill="#A1A1A1"/>
<rect x="107.378" y="204.529" width="5.11321" height="5.11321" transform="rotate(90 107.378 204.529)" fill="#A1A1A1"/>
<rect x="107.378" y="81.8115" width="5.11321" height="5.11321" transform="rotate(90 107.378 81.8115)" fill="#A1A1A1"/>
<rect x="107.378" y="224.982" width="5.11321" height="5.11321" transform="rotate(90 107.378 224.982)" fill="#A1A1A1"/>
<rect x="107.378" y="102.265" width="5.11321" height="5.11321" transform="rotate(90 107.378 102.265)" fill="#A1A1A1"/>
<rect x="107.378" y="245.436" width="5.11321" height="5.11321" transform="rotate(90 107.378 245.436)" fill="#A1A1A1"/>
<rect x="107.378" y="122.718" width="5.11321" height="5.11321" transform="rotate(90 107.378 122.718)" fill="#A1A1A1"/>
<rect x="107.378" y="265.889" width="5.11321" height="5.11321" transform="rotate(90 107.378 265.889)" fill="#A1A1A1"/>
<rect x="132.944" width="5.11321" height="5.11321" transform="rotate(90 132.944 0)" fill="#A1A1A1"/>
<rect x="132.944" y="20.4531" width="5.11321" height="5.11321" transform="rotate(90 132.944 20.4531)" fill="#A1A1A1"/>
<rect x="132.944" y="163.624" width="5.11321" height="5.11321" transform="rotate(90 132.944 163.624)" fill="#A1A1A1"/>
<rect x="132.944" y="40.9062" width="5.11321" height="5.11321" transform="rotate(90 132.944 40.9062)" fill="#A1A1A1"/>
<rect x="132.944" y="184.077" width="5.11321" height="5.11321" transform="rotate(90 132.944 184.077)" fill="#A1A1A1"/>
<rect x="132.944" y="61.3594" width="5.11321" height="5.11321" transform="rotate(90 132.944 61.3594)" fill="#A1A1A1"/>
<rect x="132.944" y="204.529" width="5.11321" height="5.11321" transform="rotate(90 132.944 204.529)" fill="#A1A1A1"/>
<rect x="132.944" y="81.8115" width="5.11321" height="5.11321" transform="rotate(90 132.944 81.8115)" fill="#A1A1A1"/>
<rect x="132.944" y="224.982" width="5.11321" height="5.11321" transform="rotate(90 132.944 224.982)" fill="#A1A1A1"/>
<rect x="132.944" y="102.265" width="5.11321" height="5.11321" transform="rotate(90 132.944 102.265)" fill="#A1A1A1"/>
<rect x="132.944" y="245.436" width="5.11321" height="5.11321" transform="rotate(90 132.944 245.436)" fill="#A1A1A1"/>
<rect x="132.944" y="265.889" width="5.11321" height="5.11321" transform="rotate(90 132.944 265.889)" fill="#A1A1A1"/>
<rect x="107.378" y="46.0195" width="5.11321" height="5.11321" transform="rotate(180 107.378 46.0195)" fill="#A1A1A1"/>
<rect x="107.378" y="189.19" width="5.11321" height="5.11321" transform="rotate(180 107.378 189.19)" fill="#A1A1A1"/>
<rect x="127.831" y="46.0195" width="5.11321" height="5.11321" transform="rotate(180 127.831 46.0195)" fill="#A1A1A1"/>
<rect x="127.831" y="189.19" width="5.11321" height="5.11321" transform="rotate(180 127.831 189.19)" fill="#A1A1A1"/>
<rect x="168.737" y="46.0195" width="5.11321" height="5.11321" transform="rotate(180 168.737 46.0195)" fill="#A1A1A1"/>
<rect x="168.737" y="189.19" width="5.11321" height="5.11321" transform="rotate(180 168.737 189.19)" fill="#A1A1A1"/>
<rect x="107.378" y="127.831" width="5.11321" height="5.11321" transform="rotate(180 107.378 127.831)" fill="#A1A1A1"/>
<rect x="107.378" y="138.058" width="5.11321" height="5.11321" transform="rotate(180 107.378 138.058)" fill="#A1A1A1"/>
<rect x="117.604" y="138.058" width="5.11321" height="5.11321" transform="rotate(180 117.604 138.058)" fill="#A1A1A1"/>
<rect x="122.718" y="132.944" width="5.11321" height="5.11321" transform="rotate(180 122.718 132.944)" fill="#A1A1A1"/>
<rect x="122.718" y="143.171" width="5.11321" height="5.11321" transform="rotate(180 122.718 143.171)" fill="#A1A1A1"/>
<rect x="127.831" y="138.058" width="5.11321" height="5.11321" transform="rotate(180 127.831 138.058)" fill="#A1A1A1"/>
<rect x="132.944" y="132.944" width="5.11321" height="5.11321" transform="rotate(180 132.944 132.944)" fill="#A1A1A1"/>
<rect x="132.944" y="122.718" width="5.11321" height="5.11321" transform="rotate(180 132.944 122.718)" fill="#A1A1A1"/>
<rect x="138.058" y="138.058" width="5.11321" height="5.11321" transform="rotate(180 138.058 138.058)" fill="#A1A1A1"/>
<rect x="138.058" y="127.831" width="5.11321" height="5.11321" transform="rotate(180 138.058 127.831)" fill="#A1A1A1"/>
<rect x="138.058" y="117.604" width="5.11321" height="5.11321" transform="rotate(180 138.058 117.604)" fill="#A1A1A1"/>
<rect x="138.058" y="148.284" width="5.11321" height="5.11321" transform="rotate(180 138.058 148.284)" fill="#A1A1A1"/>
<rect x="138.058" y="158.511" width="5.11321" height="5.11321" transform="rotate(180 138.058 158.511)" fill="#A1A1A1"/>
<rect x="132.944" y="143.171" width="5.11321" height="5.11321" transform="rotate(180 132.944 143.171)" fill="#A1A1A1"/>
<rect x="132.944" y="153.397" width="5.11321" height="5.11321" transform="rotate(180 132.944 153.397)" fill="#A1A1A1"/>
<rect x="143.171" y="132.944" width="5.11321" height="5.11321" transform="rotate(180 143.171 132.944)" fill="#A1A1A1"/>
<rect x="143.171" y="122.718" width="5.11321" height="5.11321" transform="rotate(180 143.171 122.718)" fill="#A1A1A1"/>
<rect x="143.171" y="143.171" width="5.11321" height="5.11321" transform="rotate(180 143.171 143.171)" fill="#A1A1A1"/>
<rect x="143.171" y="153.397" width="5.11321" height="5.11321" transform="rotate(180 143.171 153.397)" fill="#A1A1A1"/>
<rect x="148.284" y="138.058" width="5.11321" height="5.11321" transform="rotate(180 148.284 138.058)" fill="#A1A1A1"/>
<rect x="153.397" y="132.944" width="5.11321" height="5.11321" transform="rotate(180 153.397 132.944)" fill="#A1A1A1"/>
<rect x="158.511" y="138.058" width="5.11321" height="5.11321" transform="rotate(180 158.511 138.058)" fill="#A1A1A1"/>
<rect x="153.397" y="143.171" width="5.11321" height="5.11321" transform="rotate(180 153.397 143.171)" fill="#A1A1A1"/>
<rect x="107.378" y="143.171" width="5.11321" height="5.11321" transform="rotate(180 107.378 143.171)" fill="#A1A1A1"/>
<rect x="107.378" y="132.944" width="5.11321" height="5.11321" transform="rotate(180 107.378 132.944)" fill="#A1A1A1"/>
<rect x="107.378" y="271.002" width="5.11321" height="5.11321" transform="rotate(180 107.378 271.002)" fill="#A1A1A1"/>
<rect x="127.831" y="127.831" width="5.11321" height="5.11321" transform="rotate(180 127.831 127.831)" fill="#A1A1A1"/>
<rect x="127.831" y="271.002" width="5.11321" height="5.11321" transform="rotate(180 127.831 271.002)" fill="#A1A1A1"/>
<rect x="148.284" y="127.831" width="5.11321" height="5.11321" transform="rotate(180 148.284 127.831)" fill="#A1A1A1"/>
<rect x="148.284" y="271.002" width="5.11321" height="5.11321" transform="rotate(180 148.284 271.002)" fill="#A1A1A1"/>
<rect x="168.737" y="127.831" width="5.11321" height="5.11321" transform="rotate(180 168.737 127.831)" fill="#A1A1A1"/>
<rect x="168.737" y="271.002" width="5.11321" height="5.11321" transform="rotate(180 168.737 271.002)" fill="#A1A1A1"/>
<rect x="107.378" y="86.9248" width="5.11321" height="5.11321" transform="rotate(180 107.378 86.9248)" fill="#A1A1A1"/>
<rect x="107.378" y="230.096" width="5.11321" height="5.11321" transform="rotate(180 107.378 230.096)" fill="#A1A1A1"/>
<rect x="127.831" y="86.9248" width="5.11321" height="5.11321" transform="rotate(180 127.831 86.9248)" fill="#A1A1A1"/>
<rect x="127.831" y="230.096" width="5.11321" height="5.11321" transform="rotate(180 127.831 230.096)" fill="#A1A1A1"/>
<rect x="168.737" y="86.9248" width="5.11321" height="5.11321" transform="rotate(180 168.737 86.9248)" fill="#A1A1A1"/>
<rect x="168.737" y="230.096" width="5.11321" height="5.11321" transform="rotate(180 168.737 230.096)" fill="#A1A1A1"/>
<rect x="127.831" width="5.11321" height="5.11321" transform="rotate(90 127.831 0)" fill="#A1A1A1"/>
<rect x="127.831" y="143.171" width="5.11321" height="5.11321" transform="rotate(90 127.831 143.171)" fill="#A1A1A1"/>
<rect x="127.831" y="122.718" width="5.11321" height="5.11321" transform="rotate(90 127.831 122.718)" fill="#A1A1A1"/>
<rect x="127.831" y="265.889" width="5.11321" height="5.11321" transform="rotate(90 127.831 265.889)" fill="#A1A1A1"/>
<rect x="153.397" width="5.11321" height="5.11321" transform="rotate(90 153.397 0)" fill="#A1A1A1"/>
<rect x="153.397" y="143.171" width="5.11321" height="5.11321" transform="rotate(90 153.397 143.171)" fill="#A1A1A1"/>
<rect x="153.397" y="20.4531" width="5.11321" height="5.11321" transform="rotate(90 153.397 20.4531)" fill="#A1A1A1"/>
<rect x="153.397" y="163.624" width="5.11321" height="5.11321" transform="rotate(90 153.397 163.624)" fill="#A1A1A1"/>
<rect x="153.397" y="40.9062" width="5.11321" height="5.11321" transform="rotate(90 153.397 40.9062)" fill="#A1A1A1"/>
<rect x="153.397" y="184.077" width="5.11321" height="5.11321" transform="rotate(90 153.397 184.077)" fill="#A1A1A1"/>
<rect x="153.397" y="61.3594" width="5.11321" height="5.11321" transform="rotate(90 153.397 61.3594)" fill="#A1A1A1"/>
<rect x="153.397" y="204.529" width="5.11321" height="5.11321" transform="rotate(90 153.397 204.529)" fill="#A1A1A1"/>
<rect x="153.397" y="81.8115" width="5.11321" height="5.11321" transform="rotate(90 153.397 81.8115)" fill="#A1A1A1"/>
<rect x="153.397" y="224.982" width="5.11321" height="5.11321" transform="rotate(90 153.397 224.982)" fill="#A1A1A1"/>
<rect x="153.397" y="102.265" width="5.11321" height="5.11321" transform="rotate(90 153.397 102.265)" fill="#A1A1A1"/>
<rect x="153.397" y="245.436" width="5.11321" height="5.11321" transform="rotate(90 153.397 245.436)" fill="#A1A1A1"/>
<rect x="153.397" y="122.718" width="5.11321" height="5.11321" transform="rotate(90 153.397 122.718)" fill="#A1A1A1"/>
<rect x="153.397" y="265.889" width="5.11321" height="5.11321" transform="rotate(90 153.397 265.889)" fill="#A1A1A1"/>
<rect x="168.737" width="5.11321" height="5.11321" transform="rotate(90 168.737 0)" fill="#A1A1A1"/>
<rect x="168.737" y="143.171" width="5.11321" height="5.11321" transform="rotate(90 168.737 143.171)" fill="#A1A1A1"/>
<rect x="168.737" y="20.4531" width="5.11321" height="5.11321" transform="rotate(90 168.737 20.4531)" fill="#A1A1A1"/>
<rect x="168.737" y="163.624" width="5.11321" height="5.11321" transform="rotate(90 168.737 163.624)" fill="#A1A1A1"/>
<rect x="168.737" y="40.9062" width="5.11321" height="5.11321" transform="rotate(90 168.737 40.9062)" fill="#A1A1A1"/>
<rect x="168.737" y="184.077" width="5.11321" height="5.11321" transform="rotate(90 168.737 184.077)" fill="#A1A1A1"/>
<rect x="168.737" y="61.3594" width="5.11321" height="5.11321" transform="rotate(90 168.737 61.3594)" fill="#A1A1A1"/>
<rect x="168.737" y="204.529" width="5.11321" height="5.11321" transform="rotate(90 168.737 204.529)" fill="#A1A1A1"/>
<rect x="168.737" y="81.8115" width="5.11321" height="5.11321" transform="rotate(90 168.737 81.8115)" fill="#A1A1A1"/>
<rect x="168.737" y="224.982" width="5.11321" height="5.11321" transform="rotate(90 168.737 224.982)" fill="#A1A1A1"/>
<rect x="168.737" y="102.265" width="5.11321" height="5.11321" transform="rotate(90 168.737 102.265)" fill="#A1A1A1"/>
<rect x="168.737" y="245.436" width="5.11321" height="5.11321" transform="rotate(90 168.737 245.436)" fill="#A1A1A1"/>
<rect x="168.737" y="122.718" width="5.11321" height="5.11321" transform="rotate(90 168.737 122.718)" fill="#A1A1A1"/>
<rect x="168.737" y="265.889" width="5.11321" height="5.11321" transform="rotate(90 168.737 265.889)" fill="#A1A1A1"/>
<rect x="153.397" y="122.718" width="5.11321" height="5.11321" transform="rotate(90 153.397 122.718)" fill="#A1A1A1"/>
<rect x="235.209" y="143.171" width="5.11321" height="5.11321" transform="rotate(90 235.209 143.171)" fill="#A1A1A1"/>
<rect x="35.7925" y="127.831" width="5.11321" height="5.11321" transform="rotate(-90 35.7925 127.831)" fill="#A1A1A1"/>
<rect x="235.209" y="163.624" width="5.11321" height="5.11321" transform="rotate(90 235.209 163.624)" fill="#A1A1A1"/>
<rect x="35.7925" y="107.378" width="5.11321" height="5.11321" transform="rotate(-90 35.7925 107.378)" fill="#A1A1A1"/>
<rect x="235.209" y="122.718" width="5.11321" height="5.11321" transform="rotate(90 235.209 122.718)" fill="#A1A1A1"/>
<rect x="35.7925" y="148.284" width="5.11321" height="5.11321" transform="rotate(-90 35.7925 148.284)" fill="#A1A1A1"/>
<rect x="235.209" y="102.265" width="5.11321" height="5.11321" transform="rotate(90 235.209 102.265)" fill="#A1A1A1"/>
<rect x="35.7925" y="168.737" width="5.11321" height="5.11321" transform="rotate(-90 35.7925 168.737)" fill="#A1A1A1"/>
<rect x="194.303" y="143.171" width="5.11321" height="5.11321" transform="rotate(90 194.303 143.171)" fill="#A1A1A1"/>
<rect x="76.6987" y="127.831" width="5.11321" height="5.11321" transform="rotate(-90 76.6987 127.831)" fill="#A1A1A1"/>
<rect x="194.303" y="163.624" width="5.11321" height="5.11321" transform="rotate(90 194.303 163.624)" fill="#A1A1A1"/>
<rect x="76.6987" y="107.378" width="5.11321" height="5.11321" transform="rotate(-90 76.6987 107.378)" fill="#A1A1A1"/>
<rect x="194.303" y="122.718" width="5.11321" height="5.11321" transform="rotate(90 194.303 122.718)" fill="#A1A1A1"/>
<rect x="76.6987" y="148.284" width="5.11321" height="5.11321" transform="rotate(-90 76.6987 148.284)" fill="#A1A1A1"/>
<rect x="194.303" y="102.265" width="5.11321" height="5.11321" transform="rotate(90 194.303 102.265)" fill="#A1A1A1"/>
<rect x="76.6987" y="168.737" width="5.11321" height="5.11321" transform="rotate(-90 76.6987 168.737)" fill="#A1A1A1"/>
<rect x="173.85" y="143.171" width="5.11321" height="5.11321" transform="rotate(90 173.85 143.171)" fill="#A1A1A1"/>
<rect x="173.85" y="163.624" width="5.11321" height="5.11321" transform="rotate(90 173.85 163.624)" fill="#A1A1A1"/>
<rect x="173.85" y="122.718" width="5.11321" height="5.11321" transform="rotate(90 173.85 122.718)" fill="#A1A1A1"/>
<rect x="173.85" y="102.265" width="5.11321" height="5.11321" transform="rotate(90 173.85 102.265)" fill="#A1A1A1"/>
<rect x="255.662" y="143.171" width="5.11321" height="5.11321" transform="rotate(90 255.662 143.171)" fill="#A1A1A1"/>
<rect x="15.3398" y="127.831" width="5.11321" height="5.11321" transform="rotate(-90 15.3398 127.831)" fill="#A1A1A1"/>
<rect x="255.662" y="163.624" width="5.11321" height="5.11321" transform="rotate(90 255.662 163.624)" fill="#A1A1A1"/>
<rect x="15.3398" y="107.378" width="5.11321" height="5.11321" transform="rotate(-90 15.3398 107.378)" fill="#A1A1A1"/>
<rect x="255.662" y="122.718" width="5.11321" height="5.11321" transform="rotate(90 255.662 122.718)" fill="#A1A1A1"/>
<rect x="15.3398" y="148.284" width="5.11321" height="5.11321" transform="rotate(-90 15.3398 148.284)" fill="#A1A1A1"/>
<rect x="255.662" y="102.265" width="5.11321" height="5.11321" transform="rotate(90 255.662 102.265)" fill="#A1A1A1"/>
<rect x="15.3398" y="168.737" width="5.11321" height="5.11321" transform="rotate(-90 15.3398 168.737)" fill="#A1A1A1"/>
<rect x="214.756" y="143.171" width="5.11321" height="5.11321" transform="rotate(90 214.756 143.171)" fill="#A1A1A1"/>
<rect x="56.2456" y="127.831" width="5.11321" height="5.11321" transform="rotate(-90 56.2456 127.831)" fill="#A1A1A1"/>
<rect x="214.756" y="163.624" width="5.11321" height="5.11321" transform="rotate(90 214.756 163.624)" fill="#A1A1A1"/>
<rect x="56.2456" y="107.378" width="5.11321" height="5.11321" transform="rotate(-90 56.2456 107.378)" fill="#A1A1A1"/>
<rect x="214.756" y="122.718" width="5.11321" height="5.11321" transform="rotate(90 214.756 122.718)" fill="#A1A1A1"/>
<rect x="56.2456" y="148.284" width="5.11321" height="5.11321" transform="rotate(-90 56.2456 148.284)" fill="#A1A1A1"/>
<rect x="214.756" y="102.265" width="5.11321" height="5.11321" transform="rotate(90 214.756 102.265)" fill="#A1A1A1"/>
<rect x="56.2456" y="168.737" width="5.11321" height="5.11321" transform="rotate(-90 56.2456 168.737)" fill="#A1A1A1"/>
<rect x="163.624" y="132.944" width="5.11321" height="5.11321" fill="#A1A1A1"/>
<rect x="184.077" y="132.944" width="5.11321" height="5.11321" fill="#A1A1A1"/>
<rect x="86.9253" y="138.058" width="5.11321" height="5.11321" transform="rotate(180 86.9253 138.058)" fill="#A1A1A1"/>
<rect x="184.077" y="153.397" width="5.11321" height="5.11321" fill="#A1A1A1"/>
<rect x="86.9253" y="117.604" width="5.11321" height="5.11321" transform="rotate(180 86.9253 117.604)" fill="#A1A1A1"/>
<rect x="184.077" y="112.491" width="5.11321" height="5.11321" fill="#A1A1A1"/>
<rect x="86.9253" y="158.511" width="5.11321" height="5.11321" transform="rotate(180 86.9253 158.511)" fill="#A1A1A1"/>
<rect x="204.53" y="132.944" width="5.11321" height="5.11321" fill="#A1A1A1"/>
<rect x="66.4722" y="138.058" width="5.11321" height="5.11321" transform="rotate(180 66.4722 138.058)" fill="#A1A1A1"/>
<rect x="204.53" y="153.397" width="5.11321" height="5.11321" fill="#A1A1A1"/>
<rect x="66.4722" y="117.604" width="5.11321" height="5.11321" transform="rotate(180 66.4722 117.604)" fill="#A1A1A1"/>
<rect x="204.53" y="112.491" width="5.11321" height="5.11321" fill="#A1A1A1"/>
<rect x="66.4722" y="158.511" width="5.11321" height="5.11321" transform="rotate(180 66.4722 158.511)" fill="#A1A1A1"/>
<rect x="224.983" y="132.944" width="5.11321" height="5.11321" fill="#A1A1A1"/>
<rect x="46.019" y="138.058" width="5.11321" height="5.11321" transform="rotate(180 46.019 138.058)" fill="#A1A1A1"/>
<rect x="224.983" y="153.397" width="5.11321" height="5.11321" fill="#A1A1A1"/>
<rect x="46.019" y="117.604" width="5.11321" height="5.11321" transform="rotate(180 46.019 117.604)" fill="#A1A1A1"/>
<rect x="224.983" y="112.491" width="5.11321" height="5.11321" fill="#A1A1A1"/>
<rect x="46.019" y="158.511" width="5.11321" height="5.11321" transform="rotate(180 46.019 158.511)" fill="#A1A1A1"/>
<rect x="245.436" y="132.944" width="5.11321" height="5.11321" fill="#A1A1A1"/>
<rect x="25.5664" y="138.058" width="5.11321" height="5.11321" transform="rotate(180 25.5664 138.058)" fill="#A1A1A1"/>
<rect x="245.436" y="153.397" width="5.11321" height="5.11321" fill="#A1A1A1"/>
<rect x="25.5664" y="117.604" width="5.11321" height="5.11321" transform="rotate(180 25.5664 117.604)" fill="#A1A1A1"/>
<rect x="245.436" y="112.491" width="5.11321" height="5.11321" fill="#A1A1A1"/>
<rect x="25.5664" y="158.511" width="5.11321" height="5.11321" transform="rotate(180 25.5664 158.511)" fill="#A1A1A1"/>
<rect x="265.889" y="132.944" width="5.11321" height="5.11321" fill="#A1A1A1"/>
<rect x="5.11328" y="138.058" width="5.11321" height="5.11321" transform="rotate(180 5.11328 138.058)" fill="#A1A1A1"/>
<rect x="265.889" y="153.397" width="5.11321" height="5.11321" fill="#A1A1A1"/>
<rect x="5.11328" y="117.604" width="5.11321" height="5.11321" transform="rotate(180 5.11328 117.604)" fill="#A1A1A1"/>
<rect x="15.3398" y="112.491" width="5.11321" height="5.11321" transform="rotate(180 15.3398 112.491)" fill="#E9C600"/>
<rect x="10.2266" y="117.604" width="5.11321" height="5.11321" transform="rotate(180 10.2266 117.604)" fill="#E9C600"/>
<rect x="15.3398" y="122.718" width="5.11321" height="5.11321" transform="rotate(180 15.3398 122.718)" fill="#E9C600"/>
<rect x="20.4531" y="117.604" width="5.11321" height="5.11321" transform="rotate(180 20.4531 117.604)" fill="#E9C600"/>
<rect x="265.889" y="112.491" width="5.11321" height="5.11321" fill="#A1A1A1"/>
<rect x="5.11328" y="158.511" width="5.11321" height="5.11321" transform="rotate(180 5.11328 158.511)" fill="#A1A1A1"/>
<rect x="158.511" y="122.718" width="5.11321" height="5.11321" transform="rotate(90 158.511 122.718)" fill="#A1A1A1"/>
<rect x="240.322" y="143.171" width="5.11321" height="5.11321" transform="rotate(90 240.322 143.171)" fill="#A1A1A1"/>
<rect x="30.6797" y="127.831" width="5.11321" height="5.11321" transform="rotate(-90 30.6797 127.831)" fill="#A1A1A1"/>
<rect x="240.322" y="163.624" width="5.11321" height="5.11321" transform="rotate(90 240.322 163.624)" fill="#A1A1A1"/>
<rect x="30.6797" y="107.378" width="5.11321" height="5.11321" transform="rotate(-90 30.6797 107.378)" fill="#A1A1A1"/>
<rect x="240.322" y="122.718" width="5.11321" height="5.11321" transform="rotate(90 240.322 122.718)" fill="#A1A1A1"/>
<rect x="30.6797" y="148.284" width="5.11321" height="5.11321" transform="rotate(-90 30.6797 148.284)" fill="#A1A1A1"/>
<rect x="240.322" y="102.265" width="5.11321" height="5.11321" transform="rotate(90 240.322 102.265)" fill="#A1A1A1"/>
<rect x="30.6797" y="168.737" width="5.11321" height="5.11321" transform="rotate(-90 30.6797 168.737)" fill="#A1A1A1"/>
<rect x="199.417" y="143.171" width="5.11321" height="5.11321" transform="rotate(90 199.417 143.171)" fill="#A1A1A1"/>
<rect x="71.5854" y="127.831" width="5.11321" height="5.11321" transform="rotate(-90 71.5854 127.831)" fill="#A1A1A1"/>
<rect x="199.417" y="163.624" width="5.11321" height="5.11321" transform="rotate(90 199.417 163.624)" fill="#A1A1A1"/>
<rect x="71.5854" y="107.378" width="5.11321" height="5.11321" transform="rotate(-90 71.5854 107.378)" fill="#A1A1A1"/>
<rect x="199.417" y="122.718" width="5.11321" height="5.11321" transform="rotate(90 199.417 122.718)" fill="#A1A1A1"/>
<rect x="71.5854" y="148.284" width="5.11321" height="5.11321" transform="rotate(-90 71.5854 148.284)" fill="#A1A1A1"/>
<rect x="199.417" y="102.265" width="5.11321" height="5.11321" transform="rotate(90 199.417 102.265)" fill="#A1A1A1"/>
<rect x="71.5854" y="168.737" width="5.11321" height="5.11321" transform="rotate(-90 71.5854 168.737)" fill="#A1A1A1"/>
<rect x="178.963" y="143.171" width="5.11321" height="5.11321" transform="rotate(90 178.963 143.171)" fill="#A1A1A1"/>
<rect x="92.0386" y="127.831" width="5.11321" height="5.11321" transform="rotate(-90 92.0386 127.831)" fill="#A1A1A1"/>
<rect x="178.963" y="163.624" width="5.11321" height="5.11321" transform="rotate(90 178.963 163.624)" fill="#A1A1A1"/>
<rect x="92.0386" y="107.378" width="5.11321" height="5.11321" transform="rotate(-90 92.0386 107.378)" fill="#A1A1A1"/>
<rect x="97.1519" y="107.378" width="5.11321" height="5.11321" transform="rotate(-90 97.1519 107.378)" fill="#A1A1A1"/>
<rect x="178.963" y="122.718" width="5.11321" height="5.11321" transform="rotate(90 178.963 122.718)" fill="#A1A1A1"/>
<rect x="92.0386" y="148.284" width="5.11321" height="5.11321" transform="rotate(-90 92.0386 148.284)" fill="#A1A1A1"/>
<rect x="178.963" y="102.265" width="5.11321" height="5.11321" transform="rotate(90 178.963 102.265)" fill="#A1A1A1"/>
<rect x="92.0386" y="168.737" width="5.11321" height="5.11321" transform="rotate(-90 92.0386 168.737)" fill="#A1A1A1"/>
<rect x="97.1519" y="168.737" width="5.11321" height="5.11321" transform="rotate(-90 97.1519 168.737)" fill="#A1A1A1"/>
<rect x="260.775" y="143.171" width="5.11321" height="5.11321" transform="rotate(90 260.775 143.171)" fill="#A1A1A1"/>
<rect width="5.11321" height="5.11321" transform="matrix(2.57078e-07 1 1 -2.57078e-07 255.662 148.284)" fill="#008CFF"/>
<rect width="5.11321" height="5.11321" transform="matrix(2.57078e-07 1 1 -2.57078e-07 250.549 153.397)" fill="#008CFF"/>
<rect width="5.11321" height="5.11321" transform="matrix(2.57078e-07 1 1 -2.57078e-07 255.662 158.511)" fill="#008CFF"/>
<rect width="5.11321" height="5.11321" transform="matrix(2.57078e-07 1 1 -2.57078e-07 260.775 153.397)" fill="#008CFF"/>
<rect x="10.2266" y="127.831" width="5.11321" height="5.11321" transform="rotate(-90 10.2266 127.831)" fill="#A1A1A1"/>
<rect x="260.775" y="163.624" width="5.11321" height="5.11321" transform="rotate(90 260.775 163.624)" fill="#A1A1A1"/>
<rect x="10.2266" y="107.378" width="5.11321" height="5.11321" transform="rotate(-90 10.2266 107.378)" fill="#A1A1A1"/>
<rect x="260.775" y="122.718" width="5.11321" height="5.11321" transform="rotate(90 260.775 122.718)" fill="#A1A1A1"/>
<rect x="10.2266" y="148.284" width="5.11321" height="5.11321" transform="rotate(-90 10.2266 148.284)" fill="#A1A1A1"/>
<rect x="260.775" y="102.265" width="5.11321" height="5.11321" transform="rotate(90 260.775 102.265)" fill="#A1A1A1"/>
<rect x="10.2266" y="168.737" width="5.11321" height="5.11321" transform="rotate(-90 10.2266 168.737)" fill="#A1A1A1"/>
<rect x="219.87" y="143.171" width="5.11321" height="5.11321" transform="rotate(90 219.87 143.171)" fill="#A1A1A1"/>
<rect x="51.1323" y="127.831" width="5.11321" height="5.11321" transform="rotate(-90 51.1323 127.831)" fill="#A1A1A1"/>
<rect x="219.87" y="163.624" width="5.11321" height="5.11321" transform="rotate(90 219.87 163.624)" fill="#A1A1A1"/>
<rect x="51.1323" y="107.378" width="5.11321" height="5.11321" transform="rotate(-90 51.1323 107.378)" fill="#A1A1A1"/>
<rect x="219.87" y="122.718" width="5.11321" height="5.11321" transform="rotate(90 219.87 122.718)" fill="#A1A1A1"/>
<rect x="51.1323" y="148.284" width="5.11321" height="5.11321" transform="rotate(-90 51.1323 148.284)" fill="#A1A1A1"/>
<rect x="219.87" y="102.265" width="5.11321" height="5.11321" transform="rotate(90 219.87 102.265)" fill="#A1A1A1"/>
<rect x="51.1323" y="168.737" width="5.11321" height="5.11321" transform="rotate(-90 51.1323 168.737)" fill="#A1A1A1"/>
<rect x="163.624" y="127.831" width="5.11321" height="5.11321" fill="#A1A1A1"/>
<rect x="184.077" y="127.831" width="5.11321" height="5.11321" fill="#A1A1A1"/>
<rect x="86.9253" y="143.171" width="5.11321" height="5.11321" transform="rotate(180 86.9253 143.171)" fill="#A1A1A1"/>
<rect x="184.077" y="148.284" width="5.11321" height="5.11321" fill="#A1A1A1"/>
<rect x="86.9253" y="122.718" width="5.11321" height="5.11321" transform="rotate(180 86.9253 122.718)" fill="#A1A1A1"/>
<rect x="184.077" y="107.378" width="5.11321" height="5.11321" fill="#A1A1A1"/>
<rect x="86.9253" y="163.624" width="5.11321" height="5.11321" transform="rotate(180 86.9253 163.624)" fill="#A1A1A1"/>
<rect x="204.53" y="127.831" width="5.11321" height="5.11321" fill="#A1A1A1"/>
<rect x="66.4722" y="143.171" width="5.11321" height="5.11321" transform="rotate(180 66.4722 143.171)" fill="#A1A1A1"/>
<rect x="204.53" y="148.284" width="5.11321" height="5.11321" fill="#A1A1A1"/>
<rect x="66.4722" y="122.718" width="5.11321" height="5.11321" transform="rotate(180 66.4722 122.718)" fill="#A1A1A1"/>
<rect x="204.53" y="107.378" width="5.11321" height="5.11321" fill="#A1A1A1"/>
<rect x="66.4722" y="163.624" width="5.11321" height="5.11321" transform="rotate(180 66.4722 163.624)" fill="#A1A1A1"/>
<rect x="224.983" y="127.831" width="5.11321" height="5.11321" fill="#A1A1A1"/>
<rect x="46.019" y="143.171" width="5.11321" height="5.11321" transform="rotate(180 46.019 143.171)" fill="#A1A1A1"/>
<rect x="224.983" y="148.284" width="5.11321" height="5.11321" fill="#A1A1A1"/>
<rect x="46.019" y="122.718" width="5.11321" height="5.11321" transform="rotate(180 46.019 122.718)" fill="#A1A1A1"/>
<rect x="224.983" y="107.378" width="5.11321" height="5.11321" fill="#A1A1A1"/>
<rect x="46.019" y="163.624" width="5.11321" height="5.11321" transform="rotate(180 46.019 163.624)" fill="#A1A1A1"/>
<rect x="245.436" y="127.831" width="5.11321" height="5.11321" fill="#A1A1A1"/>
<rect x="25.5664" y="143.171" width="5.11321" height="5.11321" transform="rotate(180 25.5664 143.171)" fill="#A1A1A1"/>
<rect x="245.436" y="148.284" width="5.11321" height="5.11321" fill="#A1A1A1"/>
<rect x="25.5664" y="122.718" width="5.11321" height="5.11321" transform="rotate(180 25.5664 122.718)" fill="#A1A1A1"/>
<rect x="245.436" y="107.378" width="5.11321" height="5.11321" fill="#A1A1A1"/>
<rect x="25.5664" y="163.624" width="5.11321" height="5.11321" transform="rotate(180 25.5664 163.624)" fill="#A1A1A1"/>
<rect x="265.889" y="127.831" width="5.11321" height="5.11321" fill="#A1A1A1"/>
<rect x="5.11328" y="143.171" width="5.11321" height="5.11321" transform="rotate(180 5.11328 143.171)" fill="#A1A1A1"/>
<rect x="265.889" y="148.284" width="5.11321" height="5.11321" fill="#A1A1A1"/>
<rect x="5.11328" y="122.718" width="5.11321" height="5.11321" transform="rotate(180 5.11328 122.718)" fill="#A1A1A1"/>
<rect x="265.889" y="107.378" width="5.11321" height="5.11321" fill="#A1A1A1"/>
<rect x="5.11328" y="163.624" width="5.11321" height="5.11321" transform="rotate(180 5.11328 163.624)" fill="#A1A1A1"/>
<rect x="163.624" y="122.718" width="5.11321" height="5.11321" transform="rotate(90 163.624 122.718)" fill="#A1A1A1"/>
<rect x="245.436" y="143.171" width="5.11321" height="5.11321" transform="rotate(90 245.436 143.171)" fill="#A1A1A1"/>
<rect x="25.5664" y="127.831" width="5.11321" height="5.11321" transform="rotate(-90 25.5664 127.831)" fill="#A1A1A1"/>
<rect x="245.436" y="163.624" width="5.11321" height="5.11321" transform="rotate(90 245.436 163.624)" fill="#A1A1A1"/>
<rect x="25.5664" y="107.378" width="5.11321" height="5.11321" transform="rotate(-90 25.5664 107.378)" fill="#A1A1A1"/>
<rect x="245.436" y="122.718" width="5.11321" height="5.11321" transform="rotate(90 245.436 122.718)" fill="#A1A1A1"/>
<rect x="25.5664" y="148.284" width="5.11321" height="5.11321" transform="rotate(-90 25.5664 148.284)" fill="#A1A1A1"/>
<rect x="245.436" y="102.265" width="5.11321" height="5.11321" transform="rotate(90 245.436 102.265)" fill="#A1A1A1"/>
<rect x="25.5664" y="168.737" width="5.11321" height="5.11321" transform="rotate(-90 25.5664 168.737)" fill="#A1A1A1"/>
<rect x="204.53" y="143.171" width="5.11321" height="5.11321" transform="rotate(90 204.53 143.171)" fill="#A1A1A1"/>
<rect x="66.4722" y="127.831" width="5.11321" height="5.11321" transform="rotate(-90 66.4722 127.831)" fill="#A1A1A1"/>
<rect x="204.53" y="163.624" width="5.11321" height="5.11321" transform="rotate(90 204.53 163.624)" fill="#A1A1A1"/>
<rect x="66.4722" y="107.378" width="5.11321" height="5.11321" transform="rotate(-90 66.4722 107.378)" fill="#A1A1A1"/>
<rect x="204.53" y="122.718" width="5.11321" height="5.11321" transform="rotate(90 204.53 122.718)" fill="#A1A1A1"/>
<rect x="66.4722" y="148.284" width="5.11321" height="5.11321" transform="rotate(-90 66.4722 148.284)" fill="#A1A1A1"/>
<rect x="204.53" y="102.265" width="5.11321" height="5.11321" transform="rotate(90 204.53 102.265)" fill="#A1A1A1"/>
<rect x="66.4722" y="168.737" width="5.11321" height="5.11321" transform="rotate(-90 66.4722 168.737)" fill="#A1A1A1"/>
<rect x="184.077" y="143.171" width="5.11321" height="5.11321" transform="rotate(90 184.077 143.171)" fill="#A1A1A1"/>
<rect x="86.9253" y="127.831" width="5.11321" height="5.11321" transform="rotate(-90 86.9253 127.831)" fill="#A1A1A1"/>
<rect x="92.0386" y="127.831" width="5.11321" height="5.11321" transform="rotate(-90 92.0386 127.831)" fill="#A1A1A1"/>
<rect x="97.1519" y="127.831" width="5.11321" height="5.11321" transform="rotate(-90 97.1519 127.831)" fill="#A1A1A1"/>
<rect x="184.077" y="163.624" width="5.11321" height="5.11321" transform="rotate(90 184.077 163.624)" fill="#A1A1A1"/>
<rect x="86.9253" y="107.378" width="5.11321" height="5.11321" transform="rotate(-90 86.9253 107.378)" fill="#A1A1A1"/>
<rect x="184.077" y="122.718" width="5.11321" height="5.11321" transform="rotate(90 184.077 122.718)" fill="#A1A1A1"/>
<rect x="86.9253" y="148.284" width="5.11321" height="5.11321" transform="rotate(-90 86.9253 148.284)" fill="#A1A1A1"/>
<rect x="97.1519" y="148.284" width="5.11321" height="5.11321" transform="rotate(-90 97.1519 148.284)" fill="#A1A1A1"/>
<rect x="184.077" y="102.265" width="5.11321" height="5.11321" transform="rotate(90 184.077 102.265)" fill="#A1A1A1"/>
<rect x="86.9253" y="168.737" width="5.11321" height="5.11321" transform="rotate(-90 86.9253 168.737)" fill="#A1A1A1"/>
<rect x="265.889" y="143.171" width="5.11321" height="5.11321" transform="rotate(90 265.889 143.171)" fill="#A1A1A1"/>
<rect x="5.11328" y="127.831" width="5.11321" height="5.11321" transform="rotate(-90 5.11328 127.831)" fill="#A1A1A1"/>
<rect x="265.889" y="163.624" width="5.11321" height="5.11321" transform="rotate(90 265.889 163.624)" fill="#A1A1A1"/>
<rect x="5.11328" y="107.378" width="5.11321" height="5.11321" transform="rotate(-90 5.11328 107.378)" fill="#A1A1A1"/>
<rect x="265.889" y="122.718" width="5.11321" height="5.11321" transform="rotate(90 265.889 122.718)" fill="#A1A1A1"/>
<rect x="5.11328" y="148.284" width="5.11321" height="5.11321" transform="rotate(-90 5.11328 148.284)" fill="#A1A1A1"/>
<rect x="265.889" y="102.265" width="5.11321" height="5.11321" transform="rotate(90 265.889 102.265)" fill="#A1A1A1"/>
<rect x="5.11328" y="168.737" width="5.11321" height="5.11321" transform="rotate(-90 5.11328 168.737)" fill="#A1A1A1"/>
<rect x="224.983" y="143.171" width="5.11321" height="5.11321" transform="rotate(90 224.983 143.171)" fill="#A1A1A1"/>
<rect x="46.019" y="127.831" width="5.11321" height="5.11321" transform="rotate(-90 46.019 127.831)" fill="#A1A1A1"/>
<rect x="224.983" y="163.624" width="5.11321" height="5.11321" transform="rotate(90 224.983 163.624)" fill="#A1A1A1"/>
<rect x="46.019" y="107.378" width="5.11321" height="5.11321" transform="rotate(-90 46.019 107.378)" fill="#A1A1A1"/>
<rect x="224.983" y="122.718" width="5.11321" height="5.11321" transform="rotate(90 224.983 122.718)" fill="#A1A1A1"/>
<rect x="46.019" y="148.284" width="5.11321" height="5.11321" transform="rotate(-90 46.019 148.284)" fill="#A1A1A1"/>
<rect x="224.983" y="102.265" width="5.11321" height="5.11321" transform="rotate(90 224.983 102.265)" fill="#A1A1A1"/>
<rect x="46.019" y="168.737" width="5.11321" height="5.11321" transform="rotate(-90 46.019 168.737)" fill="#A1A1A1"/>
<rect x="143.171" y="122.718" width="5.11321" height="5.11321" fill="#A1A1A1"/>
<rect x="163.624" y="122.718" width="5.11321" height="5.11321" fill="#A1A1A1"/>
<rect x="184.077" y="122.718" width="5.11321" height="5.11321" fill="#A1A1A1"/>
<rect x="86.9253" y="148.284" width="5.11321" height="5.11321" transform="rotate(180 86.9253 148.284)" fill="#A1A1A1"/>
<rect x="184.077" y="102.265" width="5.11321" height="5.11321" fill="#A1A1A1"/>
<rect x="86.9253" y="168.737" width="5.11321" height="5.11321" transform="rotate(180 86.9253 168.737)" fill="#A1A1A1"/>
<rect x="204.53" y="122.718" width="5.11321" height="5.11321" fill="#A1A1A1"/>
<rect x="66.4722" y="148.284" width="5.11321" height="5.11321" transform="rotate(180 66.4722 148.284)" fill="#A1A1A1"/>
<rect x="204.53" y="102.265" width="5.11321" height="5.11321" fill="#A1A1A1"/>
<rect x="66.4722" y="168.737" width="5.11321" height="5.11321" transform="rotate(180 66.4722 168.737)" fill="#A1A1A1"/>
<rect x="224.983" y="122.718" width="5.11321" height="5.11321" fill="#A1A1A1"/>
<rect x="46.019" y="148.284" width="5.11321" height="5.11321" transform="rotate(180 46.019 148.284)" fill="#A1A1A1"/>
<rect x="224.983" y="102.265" width="5.11321" height="5.11321" fill="#A1A1A1"/>
<rect x="46.019" y="168.737" width="5.11321" height="5.11321" transform="rotate(180 46.019 168.737)" fill="#A1A1A1"/>
<rect x="245.436" y="122.718" width="5.11321" height="5.11321" fill="#A1A1A1"/>
<rect x="25.5664" y="148.284" width="5.11321" height="5.11321" transform="rotate(180 25.5664 148.284)" fill="#A1A1A1"/>
<rect x="245.436" y="102.265" width="5.11321" height="5.11321" fill="#A1A1A1"/>
<rect x="25.5664" y="168.737" width="5.11321" height="5.11321" transform="rotate(180 25.5664 168.737)" fill="#A1A1A1"/>
<rect x="265.889" y="122.718" width="5.11321" height="5.11321" fill="#A1A1A1"/>
<rect x="5.11328" y="148.284" width="5.11321" height="5.11321" transform="rotate(180 5.11328 148.284)" fill="#A1A1A1"/>
<rect x="265.889" y="102.265" width="5.11321" height="5.11321" fill="#A1A1A1"/>
<rect x="5.11328" y="168.737" width="5.11321" height="5.11321" transform="rotate(180 5.11328 168.737)" fill="#A1A1A1"/>
<rect x="250.549" y="143.171" width="5.11321" height="5.11321" transform="rotate(90 250.549 143.171)" fill="#A1A1A1"/>
<rect x="20.4531" y="127.831" width="5.11321" height="5.11321" transform="rotate(-90 20.4531 127.831)" fill="#A1A1A1"/>
<rect x="250.549" y="163.624" width="5.11321" height="5.11321" transform="rotate(90 250.549 163.624)" fill="#A1A1A1"/>
<rect x="20.4531" y="107.378" width="5.11321" height="5.11321" transform="rotate(-90 20.4531 107.378)" fill="#A1A1A1"/>
<rect x="209.643" y="143.171" width="5.11321" height="5.11321" transform="rotate(90 209.643 143.171)" fill="#A1A1A1"/>
<rect x="61.3589" y="127.831" width="5.11321" height="5.11321" transform="rotate(-90 61.3589 127.831)" fill="#A1A1A1"/>
<rect x="209.643" y="163.624" width="5.11321" height="5.11321" transform="rotate(90 209.643 163.624)" fill="#A1A1A1"/>
<rect x="61.3589" y="107.378" width="5.11321" height="5.11321" transform="rotate(-90 61.3589 107.378)" fill="#A1A1A1"/>
<rect x="163.624" y="138.058" width="5.11321" height="5.11321" fill="#A1A1A1"/>
<rect x="184.077" y="138.058" width="5.11321" height="5.11321" fill="#A1A1A1"/>
<rect x="86.9253" y="132.944" width="5.11321" height="5.11321" transform="rotate(180 86.9253 132.944)" fill="#A1A1A1"/>
<rect x="184.077" y="158.511" width="5.11321" height="5.11321" fill="#A1A1A1"/>
<rect x="86.9253" y="112.491" width="5.11321" height="5.11321" transform="rotate(180 86.9253 112.491)" fill="#A1A1A1"/>
<rect x="184.077" y="117.604" width="5.11321" height="5.11321" fill="#A1A1A1"/>
<rect x="86.9253" y="153.397" width="5.11321" height="5.11321" transform="rotate(180 86.9253 153.397)" fill="#A1A1A1"/>
<rect x="204.53" y="138.058" width="5.11321" height="5.11321" fill="#A1A1A1"/>
<rect x="66.4722" y="132.944" width="5.11321" height="5.11321" transform="rotate(180 66.4722 132.944)" fill="#A1A1A1"/>
<rect x="204.53" y="158.511" width="5.11321" height="5.11321" fill="#A1A1A1"/>
<rect x="66.4722" y="112.491" width="5.11321" height="5.11321" transform="rotate(180 66.4722 112.491)" fill="#A1A1A1"/>
<rect x="204.53" y="117.604" width="5.11321" height="5.11321" fill="#A1A1A1"/>
<rect x="66.4722" y="153.397" width="5.11321" height="5.11321" transform="rotate(180 66.4722 153.397)" fill="#A1A1A1"/>
<rect x="224.983" y="138.058" width="5.11321" height="5.11321" fill="#A1A1A1"/>
<rect x="46.019" y="132.944" width="5.11321" height="5.11321" transform="rotate(180 46.019 132.944)" fill="#A1A1A1"/>
<rect x="224.983" y="158.511" width="5.11321" height="5.11321" fill="#A1A1A1"/>
<rect x="46.019" y="112.491" width="5.11321" height="5.11321" transform="rotate(180 46.019 112.491)" fill="#A1A1A1"/>
<rect x="224.983" y="117.604" width="5.11321" height="5.11321" fill="#A1A1A1"/>
<rect x="46.019" y="153.397" width="5.11321" height="5.11321" transform="rotate(180 46.019 153.397)" fill="#A1A1A1"/>
<rect x="245.436" y="138.058" width="5.11321" height="5.11321" fill="#A1A1A1"/>
<rect x="25.5664" y="132.944" width="5.11321" height="5.11321" transform="rotate(180 25.5664 132.944)" fill="#A1A1A1"/>
<rect x="245.436" y="158.511" width="5.11321" height="5.11321" fill="#A1A1A1"/>
<rect x="25.5664" y="112.491" width="5.11321" height="5.11321" transform="rotate(180 25.5664 112.491)" fill="#A1A1A1"/>
<rect x="245.436" y="117.604" width="5.11321" height="5.11321" fill="#A1A1A1"/>
<rect x="25.5664" y="153.397" width="5.11321" height="5.11321" transform="rotate(180 25.5664 153.397)" fill="#A1A1A1"/>
<rect x="265.889" y="138.058" width="5.11321" height="5.11321" fill="#A1A1A1"/>
<rect x="5.11328" y="132.944" width="5.11321" height="5.11321" transform="rotate(180 5.11328 132.944)" fill="#A1A1A1"/>
<rect x="265.889" y="158.511" width="5.11321" height="5.11321" fill="#A1A1A1"/>
<rect x="5.11328" y="112.491" width="5.11321" height="5.11321" transform="rotate(180 5.11328 112.491)" fill="#A1A1A1"/>
<rect x="265.889" y="117.604" width="5.11321" height="5.11321" fill="#A1A1A1"/>
<rect x="5.11328" y="153.397" width="5.11321" height="5.11321" transform="rotate(180 5.11328 153.397)" fill="#A1A1A1"/>
<rect x="189.19" y="143.171" width="5.11321" height="5.11321" transform="rotate(90 189.19 143.171)" fill="#A1A1A1"/>
<rect x="81.812" y="127.831" width="5.11321" height="5.11321" transform="rotate(-90 81.812 127.831)" fill="#A1A1A1"/>
<rect x="189.19" y="163.624" width="5.11321" height="5.11321" transform="rotate(90 189.19 163.624)" fill="#A1A1A1"/>
<rect x="81.812" y="107.378" width="5.11321" height="5.11321" transform="rotate(-90 81.812 107.378)" fill="#A1A1A1"/>
<rect x="271.002" y="143.171" width="5.11321" height="5.11321" transform="rotate(90 271.002 143.171)" fill="#A1A1A1"/>
<rect y="127.831" width="5.11321" height="5.11321" transform="rotate(-90 0 127.831)" fill="#A1A1A1"/>
<rect x="271.002" y="163.624" width="5.11321" height="5.11321" transform="rotate(90 271.002 163.624)" fill="#A1A1A1"/>
<rect y="107.378" width="5.11321" height="5.11321" transform="rotate(-90 0 107.378)" fill="#A1A1A1"/>
<rect x="271.002" y="122.718" width="5.11321" height="5.11321" transform="rotate(90 271.002 122.718)" fill="#A1A1A1"/>
<rect y="148.284" width="5.11321" height="5.11321" transform="rotate(-90 0 148.284)" fill="#A1A1A1"/>
<rect x="271.002" y="102.265" width="5.11321" height="5.11321" transform="rotate(90 271.002 102.265)" fill="#A1A1A1"/>
<rect y="168.737" width="5.11321" height="5.11321" transform="rotate(-90 0 168.737)" fill="#A1A1A1"/>
<rect x="230.096" y="143.171" width="5.11321" height="5.11321" transform="rotate(90 230.096 143.171)" fill="#A1A1A1"/>
<rect x="40.9058" y="127.831" width="5.11321" height="5.11321" transform="rotate(-90 40.9058 127.831)" fill="#A1A1A1"/>
<rect x="230.096" y="163.624" width="5.11321" height="5.11321" transform="rotate(90 230.096 163.624)" fill="#A1A1A1"/>
<rect x="40.9058" y="107.378" width="5.11321" height="5.11321" transform="rotate(-90 40.9058 107.378)" fill="#A1A1A1"/>
<rect x="265.889" y="143.171" width="5.11321" height="5.11321" fill="#A1A1A1"/>
<rect x="5.11328" y="127.831" width="5.11321" height="5.11321" transform="rotate(180 5.11328 127.831)" fill="#A1A1A1"/>
<rect x="265.889" y="163.624" width="5.11321" height="5.11321" fill="#A1A1A1"/>
<rect x="5.11328" y="107.378" width="5.11321" height="5.11321" transform="rotate(180 5.11328 107.378)" fill="#A1A1A1"/>
<circle cx="61" cy="30" r="10" fill="#E9C600"/>
<rect x="138.058" y="35.793" width="5.11321" height="5.11321" transform="rotate(180 138.058 35.793)" fill="#EA3434"/>
<rect x="138.058" y="178.964" width="5.11321" height="5.11321" transform="rotate(180 138.058 178.964)" fill="#00BF4E"/>
<rect x="138.058" y="56.2461" width="5.11321" height="5.11321" transform="rotate(180 138.058 56.2461)" fill="#EA3434"/>
<rect x="138.058" y="199.417" width="5.11321" height="5.11321" transform="rotate(180 138.058 199.417)" fill="#00BF4E"/>
<rect x="138.058" y="76.6982" width="5.11321" height="5.11321" transform="rotate(180 138.058 76.6982)" fill="#EA3434"/>
<rect x="138.058" y="219.869" width="5.11321" height="5.11321" transform="rotate(180 138.058 219.869)" fill="#00BF4E"/>
<rect x="138.058" y="97.1514" width="5.11321" height="5.11321" transform="rotate(180 138.058 97.1514)" fill="#EA3434"/>
<rect x="138.058" y="240.322" width="5.11321" height="5.11321" transform="rotate(180 138.058 240.322)" fill="#00BF4E"/>
<rect x="178.963" y="138.058" width="5.11321" height="5.11321" transform="rotate(180 178.963 138.058)" fill="#008CFF"/>
<rect x="35.7925" y="138.058" width="5.11321" height="5.11321" transform="rotate(180 35.7925 138.058)" fill="#E9C600"/>
<rect x="199.417" y="138.058" width="5.11321" height="5.11321" transform="rotate(180 199.417 138.058)" fill="#008CFF"/>
<rect x="56.2456" y="138.058" width="5.11321" height="5.11321" transform="rotate(180 56.2456 138.058)" fill="#E9C600"/>
<rect x="219.87" y="138.058" width="5.11321" height="5.11321" transform="rotate(180 219.87 138.058)" fill="#008CFF"/>
<rect x="76.6987" y="138.058" width="5.11321" height="5.11321" transform="rotate(180 76.6987 138.058)" fill="#E9C600"/>
<rect x="240.322" y="138.058" width="5.11321" height="5.11321" transform="rotate(180 240.322 138.058)" fill="#008CFF"/>
<rect x="97.1519" y="138.058" width="5.11321" height="5.11321" transform="rotate(180 97.1519 138.058)" fill="#E9C600"/>
<circle cx="209" cy="30" r="10" fill="#EA3434"/>
<circle cx="25" cy="30" r="10" fill="#E9C600"/>
<circle cx="25" cy="204" r="10" fill="#00BF4E"/>
<circle cx="209" cy="204" r="10" fill="#008CFF"/>
<circle cx="245" cy="30" r="10" fill="#EA3434"/>
<circle cx="61" cy="204" r="10" fill="#00BF4E"/>
<circle cx="245" cy="204" r="10" fill="#008CFF"/>
<circle cx="245" cy="66" r="10" fill="#EA3434"/>
<circle cx="61" cy="66" r="10" fill="#E9C600"/>
<circle cx="61" cy="240" r="10" fill="#00BF4E"/>
<circle cx="245" cy="240" r="10" fill="#008CFF"/>
<circle cx="209" cy="66" r="10" fill="#EA3434"/>
<circle cx="25" cy="66" r="10" fill="#E9C600"/>
<circle cx="25" cy="240" r="10" fill="#00BF4E"/>
<circle cx="209" cy="240" r="10" fill="#008CFF"/>
</svg>
