<svg width="278" height="272" viewBox="0 0 278 272" fill="none" xmlns="http://www.w3.org/2000/svg">
<rect x="220.402" y="260.426" width="5.63082" height="5.78723" fill="#A1A1A1"/>
<rect x="220.402" y="133.105" width="5.63082" height="5.78723" fill="#A1A1A1"/>
<rect x="12.0625" y="156.254" width="5.78723" height="5.63082" transform="rotate(-90 12.0625 156.254)" fill="#A1A1A1"/>
<rect x="265.449" y="115.746" width="5.78723" height="5.63082" transform="rotate(90 265.449 115.746)" fill="#A1A1A1"/>
<rect x="265.449" y="162.043" width="5.78723" height="5.63082" transform="rotate(90 265.449 162.043)" fill="#A1A1A1"/>
<rect x="12.0625" y="109.957" width="5.78723" height="5.63082" transform="rotate(-90 12.0625 109.957)" fill="#A1A1A1"/>
<rect x="265.449" y="214.129" width="5.78723" height="5.63082" transform="rotate(90 265.449 214.129)" fill="#A1A1A1"/>
<rect x="12.0625" y="57.8711" width="5.78723" height="5.63082" transform="rotate(-90 12.0625 57.8711)" fill="#A1A1A1"/>
<rect x="259.816" y="156.254" width="5.78723" height="5.63082" transform="rotate(-90 259.816 156.254)" fill="#A1A1A1"/>
<rect x="17.6914" y="115.746" width="5.78723" height="5.63082" transform="rotate(90 17.6914 115.746)" fill="#A1A1A1"/>
<rect x="17.6914" y="162.043" width="5.78723" height="5.63082" transform="rotate(90 17.6914 162.043)" fill="#A1A1A1"/>
<rect x="259.816" y="109.957" width="5.78723" height="5.63082" transform="rotate(-90 259.816 109.957)" fill="#A1A1A1"/>
<rect x="17.6914" y="214.129" width="5.78723" height="5.63082" transform="rotate(90 17.6914 214.129)" fill="#A1A1A1"/>
<rect x="259.816" y="57.8711" width="5.78723" height="5.63082" transform="rotate(-90 259.816 57.8711)" fill="#A1A1A1"/>
<rect x="180.988" y="260.426" width="5.63082" height="5.78723" fill="#A1A1A1"/>
<rect x="180.988" y="133.105" width="5.63082" height="5.78723" fill="#A1A1A1"/>
<rect x="107.785" y="260.426" width="5.63082" height="5.78723" fill="#A1A1A1"/>
<rect x="107.785" y="133.105" width="5.63082" height="5.78723" fill="#A1A1A1"/>
<rect x="68.3711" y="260.426" width="5.63082" height="5.78723" fill="#A1A1A1"/>
<rect x="68.3711" y="133.105" width="5.63082" height="5.78723" fill="#A1A1A1"/>
<rect x="28.9531" y="260.426" width="5.63082" height="5.78723" fill="#A1A1A1"/>
<rect x="28.9531" y="133.105" width="5.63082" height="5.78723" fill="#A1A1A1"/>
<rect x="23.3242" y="138.895" width="5.63082" height="5.78723" transform="rotate(180 23.3242 138.895)" fill="#A1A1A1"/>
<rect x="175.355" y="173.617" width="5.63082" height="5.78723" transform="rotate(180 175.355 173.617)" fill="#A1A1A1"/>
<rect x="102.156" y="98.3828" width="5.63082" height="5.78723" fill="#A1A1A1"/>
<rect x="214.77" y="214.129" width="5.63082" height="5.78723" transform="rotate(180 214.77 214.129)" fill="#A1A1A1"/>
<rect x="62.7383" y="57.8711" width="5.63082" height="5.78723" fill="#A1A1A1"/>
<rect x="107.785" y="167.828" width="5.78723" height="5.63082" transform="rotate(-90 107.785 167.828)" fill="#A1A1A1"/>
<rect x="169.723" y="104.172" width="5.78723" height="5.63082" transform="rotate(90 169.723 104.172)" fill="#A1A1A1"/>
<rect x="62.7383" y="214.129" width="5.78723" height="5.63082" transform="rotate(-90 62.7383 214.129)" fill="#A1A1A1"/>
<rect x="214.77" y="57.8711" width="5.78723" height="5.63082" transform="rotate(90 214.77 57.8711)" fill="#A1A1A1"/>
<rect x="180.988" y="179.406" width="5.63082" height="5.78723" transform="rotate(180 180.988 179.406)" fill="#A1A1A1"/>
<rect x="96.5234" y="92.5938" width="5.63082" height="5.78723" fill="#A1A1A1"/>
<rect x="254.188" y="266.215" width="5.78723" height="5.63082" transform="rotate(-90 254.188 266.215)" fill="#A1A1A1"/>
<rect x="23.3242" y="5.78516" width="5.78723" height="5.63082" transform="rotate(90 23.3242 5.78516)" fill="#A1A1A1"/>
<rect width="5.78723" height="5.63082" transform="matrix(-1.43672e-08 -1 1 -2.00338e-06 6.42969 266.215)" fill="#A1A1A1"/>
<rect x="271.078" y="5.78516" width="5.78723" height="5.63082" transform="rotate(90 271.078 5.78516)" fill="#A1A1A1"/>
<rect x="254.188" y="138.895" width="5.78723" height="5.63082" transform="rotate(-90 254.188 138.895)" fill="#A1A1A1"/>
<rect x="220.402" y="219.914" width="5.63082" height="5.78723" transform="rotate(180 220.402 219.914)" fill="#A1A1A1"/>
<rect x="57.1055" y="52.0859" width="5.63082" height="5.78723" fill="#A1A1A1"/>
<rect x="102.156" y="173.617" width="5.78723" height="5.63082" transform="rotate(-90 102.156 173.617)" fill="#A1A1A1"/>
<rect x="175.355" y="98.3828" width="5.78723" height="5.63082" transform="rotate(90 175.355 98.3828)" fill="#A1A1A1"/>
<rect x="57.1055" y="219.914" width="5.78723" height="5.63082" transform="rotate(-90 57.1055 219.914)" fill="#A1A1A1"/>
<rect x="220.402" y="52.0859" width="5.78723" height="5.63082" transform="rotate(90 220.402 52.0859)" fill="#A1A1A1"/>
<rect x="197.879" y="196.766" width="5.63082" height="5.78723" transform="rotate(180 197.879 196.766)" fill="#A1A1A1"/>
<rect x="79.6328" y="75.2344" width="5.63082" height="5.78723" fill="#A1A1A1"/>
<rect x="124.68" y="150.469" width="5.78723" height="5.63082" transform="rotate(-90 124.68 150.469)" fill="#A1A1A1"/>
<rect x="152.832" y="121.531" width="5.78723" height="5.63082" transform="rotate(90 152.832 121.531)" fill="#A1A1A1"/>
<rect x="79.6328" y="196.766" width="5.78723" height="5.63082" transform="rotate(-90 79.6328 196.766)" fill="#A1A1A1"/>
<rect x="197.879" y="75.2344" width="5.78723" height="5.63082" transform="rotate(90 197.879 75.2344)" fill="#A1A1A1"/>
<rect x="158.461" y="156.254" width="5.63082" height="5.78723" transform="rotate(180 158.461 156.254)" fill="#A1A1A1"/>
<rect x="119.047" y="115.746" width="5.63082" height="5.78723" fill="#A1A1A1"/>
<rect x="237.293" y="237.277" width="5.63082" height="5.78723" transform="rotate(180 237.293 237.277)" fill="#A1A1A1"/>
<rect x="40.2148" y="34.7227" width="5.63082" height="5.78723" fill="#A1A1A1"/>
<rect x="85.2617" y="190.977" width="5.78723" height="5.63082" transform="rotate(-90 85.2617 190.977)" fill="#A1A1A1"/>
<rect x="192.246" y="81.0234" width="5.78723" height="5.63082" transform="rotate(90 192.246 81.0234)" fill="#A1A1A1"/>
<rect x="40.2148" y="237.277" width="5.78723" height="5.63082" transform="rotate(-90 40.2148 237.277)" fill="#A1A1A1"/>
<rect x="237.293" y="34.7227" width="5.78723" height="5.63082" transform="rotate(90 237.293 34.7227)" fill="#A1A1A1"/>
<rect x="23.3242" y="254.637" width="5.78723" height="5.63082" transform="rotate(-90 23.3242 254.637)" fill="#A1A1A1"/>
<rect x="254.188" y="17.3633" width="5.78723" height="5.63082" transform="rotate(90 254.188 17.3633)" fill="#A1A1A1"/>
<rect x="186.617" y="185.191" width="5.63082" height="5.78723" transform="rotate(180 186.617 185.191)" fill="#A1A1A1"/>
<rect x="90.8945" y="86.8086" width="5.63082" height="5.78723" fill="#A1A1A1"/>
<rect x="226.031" y="225.703" width="5.63082" height="5.78723" transform="rotate(180 226.031 225.703)" fill="#A1A1A1"/>
<rect x="51.4766" y="46.2969" width="5.63082" height="5.78723" fill="#A1A1A1"/>
<rect x="96.5234" y="179.406" width="5.78723" height="5.63082" transform="rotate(-90 96.5234 179.406)" fill="#A1A1A1"/>
<rect x="180.988" y="92.5938" width="5.78723" height="5.63082" transform="rotate(90 180.988 92.5938)" fill="#A1A1A1"/>
<rect x="51.4766" y="225.703" width="5.78723" height="5.63082" transform="rotate(-90 51.4766 225.703)" fill="#A1A1A1"/>
<rect x="226.031" y="46.2969" width="5.78723" height="5.63082" transform="rotate(90 226.031 46.2969)" fill="#A1A1A1"/>
<rect x="203.512" y="202.555" width="5.63082" height="5.78723" transform="rotate(180 203.512 202.555)" fill="#A1A1A1"/>
<rect x="74" y="69.4453" width="5.63082" height="5.78723" fill="#A1A1A1"/>
<rect x="119.047" y="156.254" width="5.78723" height="5.63082" transform="rotate(-90 119.047 156.254)" fill="#A1A1A1"/>
<rect x="158.461" y="115.746" width="5.78723" height="5.63082" transform="rotate(90 158.461 115.746)" fill="#A1A1A1"/>
<rect x="74" y="202.555" width="5.78723" height="5.63082" transform="rotate(-90 74 202.555)" fill="#A1A1A1"/>
<rect x="203.512" y="69.4453" width="5.78723" height="5.63082" transform="rotate(90 203.512 69.4453)" fill="#A1A1A1"/>
<rect x="164.094" y="162.043" width="5.63082" height="5.78723" transform="rotate(180 164.094 162.043)" fill="#A1A1A1"/>
<rect x="113.414" y="109.957" width="5.63082" height="5.78723" fill="#A1A1A1"/>
<rect x="242.926" y="243.066" width="5.63082" height="5.78723" transform="rotate(180 242.926 243.066)" fill="#A1A1A1"/>
<rect x="34.582" y="28.9336" width="5.63082" height="5.78723" fill="#A1A1A1"/>
<rect x="79.6328" y="196.766" width="5.78723" height="5.63082" transform="rotate(-90 79.6328 196.766)" fill="#A1A1A1"/>
<rect x="197.879" y="75.2344" width="5.78723" height="5.63082" transform="rotate(90 197.879 75.2344)" fill="#A1A1A1"/>
<rect x="34.582" y="243.066" width="5.78723" height="5.63082" transform="rotate(-90 34.582 243.066)" fill="#A1A1A1"/>
<rect x="242.926" y="28.9336" width="5.78723" height="5.63082" transform="rotate(90 242.926 28.9336)" fill="#A1A1A1"/>
<rect x="254.188" y="254.637" width="5.63082" height="5.78723" transform="rotate(180 254.188 254.637)" fill="#A1A1A1"/>
<rect x="23.3242" y="17.3633" width="5.63082" height="5.78723" fill="#A1A1A1"/>
<rect x="192.246" y="190.977" width="5.63082" height="5.78723" transform="rotate(180 192.246 190.977)" fill="#A1A1A1"/>
<rect x="85.2617" y="81.0234" width="5.63082" height="5.78723" fill="#A1A1A1"/>
<rect x="135.938" y="144.68" width="5.78723" height="5.63082" transform="rotate(-90 135.938 144.68)" fill="#A1A1A1"/>
<rect x="141.57" y="138.895" width="5.78723" height="5.63082" transform="rotate(-90 141.57 138.895)" fill="#A1A1A1"/>
<rect x="135.938" y="138.895" width="5.78723" height="5.63082" transform="rotate(-90 135.938 138.895)" fill="#A1A1A1"/>
<rect x="130.309" y="138.895" width="5.78723" height="5.63082" transform="rotate(-90 130.309 138.895)" fill="#A1A1A1"/>
<rect x="135.938" y="133.105" width="5.78723" height="5.63082" transform="rotate(-90 135.938 133.105)" fill="#A1A1A1"/>
<rect x="85.2617" y="190.977" width="5.78723" height="5.63082" transform="rotate(-90 85.2617 190.977)" fill="#A1A1A1"/>
<rect x="192.246" y="81.0234" width="5.78723" height="5.63082" transform="rotate(90 192.246 81.0234)" fill="#A1A1A1"/>
<rect x="152.832" y="150.469" width="5.63082" height="5.78723" transform="rotate(180 152.832 150.469)" fill="#A1A1A1"/>
<rect x="124.68" y="121.531" width="5.63082" height="5.78723" fill="#A1A1A1"/>
<rect x="231.664" y="231.488" width="5.63082" height="5.78723" transform="rotate(180 231.664 231.488)" fill="#A1A1A1"/>
<rect x="45.8477" y="40.5117" width="5.63082" height="5.78723" fill="#A1A1A1"/>
<rect x="90.8945" y="185.191" width="5.78723" height="5.63082" transform="rotate(-90 90.8945 185.191)" fill="#A1A1A1"/>
<rect x="186.617" y="86.8086" width="5.78723" height="5.63082" transform="rotate(90 186.617 86.8086)" fill="#A1A1A1"/>
<rect x="45.8477" y="231.488" width="5.78723" height="5.63082" transform="rotate(-90 45.8477 231.488)" fill="#A1A1A1"/>
<rect x="231.664" y="40.5117" width="5.78723" height="5.63082" transform="rotate(90 231.664 40.5117)" fill="#A1A1A1"/>
<rect x="28.9531" y="248.852" width="5.78723" height="5.63082" transform="rotate(-90 28.9531 248.852)" fill="#A1A1A1"/>
<rect x="248.555" y="23.1484" width="5.78723" height="5.63082" transform="rotate(90 248.555 23.1484)" fill="#A1A1A1"/>
<rect x="209.141" y="208.34" width="5.63082" height="5.78723" transform="rotate(180 209.141 208.34)" fill="#A1A1A1"/>
<rect x="68.3711" y="63.6602" width="5.63082" height="5.78723" fill="#A1A1A1"/>
<rect x="113.414" y="162.043" width="5.78723" height="5.63082" transform="rotate(-90 113.414 162.043)" fill="#A1A1A1"/>
<rect x="164.094" y="109.957" width="5.78723" height="5.63082" transform="rotate(90 164.094 109.957)" fill="#A1A1A1"/>
<rect x="68.3711" y="208.34" width="5.78723" height="5.63082" transform="rotate(-90 68.3711 208.34)" fill="#A1A1A1"/>
<rect x="209.141" y="63.6602" width="5.78723" height="5.63082" transform="rotate(90 209.141 63.6602)" fill="#A1A1A1"/>
<rect x="169.723" y="167.828" width="5.63082" height="5.78723" transform="rotate(180 169.723 167.828)" fill="#A1A1A1"/>
<rect x="107.785" y="104.172" width="5.63082" height="5.78723" fill="#A1A1A1"/>
<rect x="248.555" y="248.852" width="5.63082" height="5.78723" transform="rotate(180 248.555 248.852)" fill="#A1A1A1"/>
<rect x="28.9531" y="23.1484" width="5.63082" height="5.78723" fill="#A1A1A1"/>
<rect x="74" y="202.555" width="5.78723" height="5.63082" transform="rotate(-90 74 202.555)" fill="#A1A1A1"/>
<rect x="203.512" y="69.4453" width="5.78723" height="5.63082" transform="rotate(90 203.512 69.4453)" fill="#A1A1A1"/>
<rect x="259.816" y="208.34" width="5.63082" height="5.78723" fill="#A1A1A1"/>
<rect x="17.6914" y="63.6602" width="5.63082" height="5.78723" transform="rotate(180 17.6914 63.6602)" fill="#A1A1A1"/>
<rect x="17.6914" y="162.043" width="5.63082" height="5.78723" transform="rotate(180 17.6914 162.043)" fill="#A1A1A1"/>
<rect x="259.816" y="109.957" width="5.63082" height="5.78723" fill="#A1A1A1"/>
<rect x="265.449" y="202.555" width="5.78723" height="5.63082" transform="rotate(90 265.449 202.555)" fill="#A1A1A1"/>
<rect x="12.0625" y="69.4453" width="5.78723" height="5.63082" transform="rotate(-90 12.0625 69.4453)" fill="#A1A1A1"/>
<rect x="17.6914" y="202.555" width="5.78723" height="5.63082" transform="rotate(90 17.6914 202.555)" fill="#A1A1A1"/>
<rect x="259.816" y="69.4453" width="5.78723" height="5.63082" transform="rotate(-90 259.816 69.4453)" fill="#A1A1A1"/>
<rect x="214.77" y="260.426" width="5.63082" height="5.78723" fill="#A1A1A1"/>
<rect x="214.77" y="133.105" width="5.63082" height="5.78723" fill="#A1A1A1"/>
<rect x="175.355" y="260.426" width="5.63082" height="5.78723" fill="#A1A1A1"/>
<rect x="175.355" y="133.105" width="5.63082" height="5.78723" fill="#A1A1A1"/>
<rect x="141.57" y="260.426" width="5.63082" height="5.78723" fill="#A1A1A1"/>
<rect x="102.156" y="260.426" width="5.63082" height="5.78723" fill="#A1A1A1"/>
<rect x="102.156" y="133.105" width="5.63082" height="5.78723" fill="#A1A1A1"/>
<rect x="62.7383" y="260.426" width="5.63082" height="5.78723" fill="#A1A1A1"/>
<rect x="62.7383" y="133.105" width="5.63082" height="5.78723" fill="#A1A1A1"/>
<rect x="12.0625" y="144.68" width="5.78723" height="5.63082" transform="rotate(-90 12.0625 144.68)" fill="#A1A1A1"/>
<rect width="5.78723" height="5.63082" transform="matrix(-1.43672e-08 -1 1 -2.00338e-06 6.42969 138.895)" fill="#A1A1A1"/>
<rect x="12.0625" y="138.895" width="5.78723" height="5.63082" transform="rotate(-90 12.0625 138.895)" fill="#A1A1A1"/>
<rect x="12.0625" y="133.105" width="5.78723" height="5.63082" transform="rotate(-90 12.0625 133.105)" fill="#A1A1A1"/>
<rect x="265.449" y="196.766" width="5.78723" height="5.63082" transform="rotate(90 265.449 196.766)" fill="#A1A1A1"/>
<rect x="12.0625" y="75.2344" width="5.78723" height="5.63082" transform="rotate(-90 12.0625 75.2344)" fill="#A1A1A1"/>
<rect x="259.816" y="272" width="5.78723" height="5.63082" transform="rotate(-90 259.816 272)" fill="#A1A1A1"/>
<rect width="5.78723" height="5.63082" transform="matrix(4.00209e-06 1 -1 1.65137e-08 17.6914 0)" fill="#A1A1A1"/>
<rect x="12.0625" y="272" width="5.78723" height="5.63082" transform="rotate(-90 12.0625 272)" fill="#A1A1A1"/>
<rect width="5.78723" height="5.63082" transform="matrix(4.00209e-06 1 -1 1.65137e-08 265.449 0)" fill="#A1A1A1"/>
<rect x="259.816" y="144.68" width="5.78723" height="5.63082" transform="rotate(-90 259.816 144.68)" fill="#A1A1A1"/>
<rect x="259.816" y="138.895" width="5.78723" height="5.63082" transform="rotate(-90 259.816 138.895)" fill="#A1A1A1"/>
<rect x="265.449" y="266.215" width="5.78723" height="5.63082" transform="rotate(-90 265.449 266.215)" fill="#A1A1A1"/>
<rect x="12.0625" y="5.78516" width="5.78723" height="5.63082" transform="rotate(90 12.0625 5.78516)" fill="#A1A1A1"/>
<rect x="17.6914" y="266.215" width="5.78723" height="5.63082" transform="rotate(-90 17.6914 266.215)" fill="#A1A1A1"/>
<rect x="259.816" y="5.78516" width="5.78723" height="5.63082" transform="rotate(90 259.816 5.78516)" fill="#A1A1A1"/>
<rect x="265.449" y="138.895" width="5.78723" height="5.63082" transform="rotate(-90 265.449 138.895)" fill="#A1A1A1"/>
<rect x="259.816" y="260.426" width="5.78723" height="5.63082" transform="rotate(-90 259.816 260.426)" fill="#A1A1A1"/>
<rect x="17.6914" y="11.5742" width="5.78723" height="5.63082" transform="rotate(90 17.6914 11.5742)" fill="#A1A1A1"/>
<rect x="259.816" y="266.215" width="5.78723" height="5.63082" transform="rotate(-90 259.816 266.215)" fill="#A1A1A1"/>
<rect x="17.6914" y="5.78516" width="5.78723" height="5.63082" transform="rotate(90 17.6914 5.78516)" fill="#A1A1A1"/>
<rect x="12.0625" y="260.426" width="5.78723" height="5.63082" transform="rotate(-90 12.0625 260.426)" fill="#A1A1A1"/>
<rect x="265.449" y="11.5742" width="5.78723" height="5.63082" transform="rotate(90 265.449 11.5742)" fill="#A1A1A1"/>
<rect x="12.0625" y="266.215" width="5.78723" height="5.63082" transform="rotate(-90 12.0625 266.215)" fill="#A1A1A1"/>
<rect x="265.449" y="5.78516" width="5.78723" height="5.63082" transform="rotate(90 265.449 5.78516)" fill="#A1A1A1"/>
<rect x="17.6914" y="266.215" width="5.78723" height="5.63082" transform="rotate(-90 17.6914 266.215)" fill="#A1A1A1"/>
<rect x="259.816" y="5.78516" width="5.78723" height="5.63082" transform="rotate(90 259.816 5.78516)" fill="#A1A1A1"/>
<rect x="259.816" y="133.105" width="5.78723" height="5.63082" transform="rotate(-90 259.816 133.105)" fill="#A1A1A1"/>
<rect x="17.6914" y="196.766" width="5.78723" height="5.63082" transform="rotate(90 17.6914 196.766)" fill="#A1A1A1"/>
<rect x="259.816" y="75.2344" width="5.78723" height="5.63082" transform="rotate(-90 259.816 75.2344)" fill="#A1A1A1"/>
<rect x="209.141" y="260.426" width="5.63082" height="5.78723" fill="#A1A1A1"/>
<rect x="209.141" y="133.105" width="5.63082" height="5.78723" fill="#A1A1A1"/>
<rect x="169.723" y="260.426" width="5.63082" height="5.78723" fill="#A1A1A1"/>
<rect x="169.723" y="133.105" width="5.63082" height="5.78723" fill="#A1A1A1"/>
<rect x="135.938" y="260.426" width="5.63082" height="5.78723" fill="#A1A1A1"/>
<rect x="96.5234" y="260.426" width="5.63082" height="5.78723" fill="#A1A1A1"/>
<rect x="96.5234" y="133.105" width="5.63082" height="5.78723" fill="#A1A1A1"/>
<rect x="57.1055" y="260.426" width="5.63082" height="5.78723" fill="#A1A1A1"/>
<rect x="57.1055" y="133.105" width="5.63082" height="5.78723" fill="#A1A1A1"/>
<rect x="265.449" y="190.977" width="5.78723" height="5.63082" transform="rotate(90 265.449 190.977)" fill="#A1A1A1"/>
<rect x="12.0625" y="81.0234" width="5.78723" height="5.63082" transform="rotate(-90 12.0625 81.0234)" fill="#A1A1A1"/>
<rect x="265.449" y="243.066" width="5.78723" height="5.63082" transform="rotate(90 265.449 243.066)" fill="#A1A1A1"/>
<rect x="12.0625" y="28.9336" width="5.78723" height="5.63082" transform="rotate(-90 12.0625 28.9336)" fill="#A1A1A1"/>
<rect x="17.6914" y="190.977" width="5.78723" height="5.63082" transform="rotate(90 17.6914 190.977)" fill="#A1A1A1"/>
<rect x="259.816" y="81.0234" width="5.78723" height="5.63082" transform="rotate(-90 259.816 81.0234)" fill="#A1A1A1"/>
<rect x="17.6914" y="243.066" width="5.78723" height="5.63082" transform="rotate(90 17.6914 243.066)" fill="#A1A1A1"/>
<rect x="259.816" y="28.9336" width="5.78723" height="5.63082" transform="rotate(-90 259.816 28.9336)" fill="#A1A1A1"/>
<rect x="203.512" y="260.426" width="5.63082" height="5.78723" fill="#A1A1A1"/>
<rect x="203.512" y="133.105" width="5.63082" height="5.78723" fill="#A1A1A1"/>
<rect x="164.094" y="260.426" width="5.63082" height="5.78723" fill="#A1A1A1"/>
<rect x="164.094" y="133.105" width="5.63082" height="5.78723" fill="#A1A1A1"/>
<rect x="130.309" y="260.426" width="5.63082" height="5.78723" fill="#A1A1A1"/>
<rect x="90.8945" y="260.426" width="5.63082" height="5.78723" fill="#A1A1A1"/>
<rect x="90.8945" y="133.105" width="5.63082" height="5.78723" fill="#A1A1A1"/>
<rect x="51.4766" y="260.426" width="5.63082" height="5.78723" fill="#A1A1A1"/>
<rect x="51.4766" y="133.105" width="5.63082" height="5.78723" fill="#A1A1A1"/>
<rect x="12.0625" y="208.34" width="5.63082" height="5.78723" fill="#A1A1A1"/>
<rect x="265.449" y="63.6602" width="5.63082" height="5.78723" transform="rotate(180 265.449 63.6602)" fill="#A1A1A1"/>
<rect x="265.449" y="162.043" width="5.63082" height="5.78723" transform="rotate(180 265.449 162.043)" fill="#A1A1A1"/>
<rect x="12.0625" y="109.957" width="5.63082" height="5.78723" fill="#A1A1A1"/>
<rect x="242.926" y="260.426" width="5.63082" height="5.78723" fill="#A1A1A1"/>
<rect x="242.926" y="133.105" width="5.63082" height="5.78723" fill="#A1A1A1"/>
<rect x="265.449" y="185.191" width="5.78723" height="5.63082" transform="rotate(90 265.449 185.191)" fill="#A1A1A1"/>
<rect x="12.0625" y="86.8086" width="5.78723" height="5.63082" transform="rotate(-90 12.0625 86.8086)" fill="#A1A1A1"/>
<rect x="265.449" y="237.277" width="5.78723" height="5.63082" transform="rotate(90 265.449 237.277)" fill="#A1A1A1"/>
<rect x="12.0625" y="34.7227" width="5.78723" height="5.63082" transform="rotate(-90 12.0625 34.7227)" fill="#A1A1A1"/>
<rect x="17.6914" y="185.191" width="5.78723" height="5.63082" transform="rotate(90 17.6914 185.191)" fill="#A1A1A1"/>
<rect x="259.816" y="86.8086" width="5.78723" height="5.63082" transform="rotate(-90 259.816 86.8086)" fill="#A1A1A1"/>
<rect x="17.6914" y="237.277" width="5.78723" height="5.63082" transform="rotate(90 17.6914 237.277)" fill="#A1A1A1"/>
<rect x="259.816" y="34.7227" width="5.78723" height="5.63082" transform="rotate(-90 259.816 34.7227)" fill="#A1A1A1"/>
<rect x="197.879" y="260.426" width="5.63082" height="5.78723" fill="#A1A1A1"/>
<rect x="197.879" y="133.105" width="5.63082" height="5.78723" fill="#A1A1A1"/>
<rect x="158.461" y="260.426" width="5.63082" height="5.78723" fill="#A1A1A1"/>
<rect x="158.461" y="133.105" width="5.63082" height="5.78723" fill="#A1A1A1"/>
<rect x="124.68" y="260.426" width="5.63082" height="5.78723" fill="#A1A1A1"/>
<rect x="85.2617" y="260.426" width="5.63082" height="5.78723" fill="#A1A1A1"/>
<rect x="85.2617" y="133.105" width="5.63082" height="5.78723" fill="#A1A1A1"/>
<rect x="45.8477" y="260.426" width="5.63082" height="5.78723" fill="#A1A1A1"/>
<rect x="45.8477" y="133.105" width="5.63082" height="5.78723" fill="#A1A1A1"/>
<rect x="237.293" y="260.426" width="5.63082" height="5.78723" fill="#A1A1A1"/>
<rect x="237.293" y="133.105" width="5.63082" height="5.78723" fill="#A1A1A1"/>
<rect x="265.449" y="179.406" width="5.78723" height="5.63082" transform="rotate(90 265.449 179.406)" fill="#A1A1A1"/>
<rect x="12.0625" y="92.5938" width="5.78723" height="5.63082" transform="rotate(-90 12.0625 92.5938)" fill="#A1A1A1"/>
<rect x="265.449" y="231.488" width="5.78723" height="5.63082" transform="rotate(90 265.449 231.488)" fill="#A1A1A1"/>
<rect x="12.0625" y="40.5117" width="5.78723" height="5.63082" transform="rotate(-90 12.0625 40.5117)" fill="#A1A1A1"/>
<rect x="17.6914" y="179.406" width="5.78723" height="5.63082" transform="rotate(90 17.6914 179.406)" fill="#A1A1A1"/>
<rect x="259.816" y="92.5938" width="5.78723" height="5.63082" transform="rotate(-90 259.816 92.5938)" fill="#A1A1A1"/>
<rect x="17.6914" y="231.488" width="5.78723" height="5.63082" transform="rotate(90 17.6914 231.488)" fill="#A1A1A1"/>
<rect x="259.816" y="40.5117" width="5.78723" height="5.63082" transform="rotate(-90 259.816 40.5117)" fill="#A1A1A1"/>
<rect x="192.246" y="260.426" width="5.63082" height="5.78723" fill="#A1A1A1"/>
<rect x="192.246" y="133.105" width="5.63082" height="5.78723" fill="#A1A1A1"/>
<rect x="152.832" y="260.426" width="5.63082" height="5.78723" fill="#A1A1A1"/>
<rect x="152.832" y="133.105" width="5.63082" height="5.78723" fill="#A1A1A1"/>
<rect x="119.047" y="260.426" width="5.63082" height="5.78723" fill="#A1A1A1"/>
<rect x="119.047" y="133.105" width="5.63082" height="5.78723" fill="#A1A1A1"/>
<rect x="79.6328" y="260.426" width="5.63082" height="5.78723" fill="#A1A1A1"/>
<rect x="79.6328" y="133.105" width="5.63082" height="5.78723" fill="#A1A1A1"/>
<rect x="40.2148" y="260.426" width="5.63082" height="5.78723" fill="#A1A1A1"/>
<rect x="40.2148" y="133.105" width="5.63082" height="5.78723" fill="#A1A1A1"/>
<rect x="231.664" y="260.426" width="5.63082" height="5.78723" fill="#A1A1A1"/>
<rect x="231.664" y="133.105" width="5.63082" height="5.78723" fill="#A1A1A1"/>
<rect x="265.449" y="173.617" width="5.78723" height="5.63082" transform="rotate(90 265.449 173.617)" fill="#A1A1A1"/>
<rect x="12.0625" y="98.3828" width="5.78723" height="5.63082" transform="rotate(-90 12.0625 98.3828)" fill="#A1A1A1"/>
<rect x="265.449" y="225.703" width="5.78723" height="5.63082" transform="rotate(90 265.449 225.703)" fill="#A1A1A1"/>
<rect x="12.0625" y="46.2969" width="5.78723" height="5.63082" transform="rotate(-90 12.0625 46.2969)" fill="#A1A1A1"/>
<rect x="17.6914" y="173.617" width="5.78723" height="5.63082" transform="rotate(90 17.6914 173.617)" fill="#A1A1A1"/>
<rect x="259.816" y="98.3828" width="5.78723" height="5.63082" transform="rotate(-90 259.816 98.3828)" fill="#A1A1A1"/>
<rect x="17.6914" y="225.703" width="5.78723" height="5.63082" transform="rotate(90 17.6914 225.703)" fill="#A1A1A1"/>
<rect x="259.816" y="46.2969" width="5.78723" height="5.63082" transform="rotate(-90 259.816 46.2969)" fill="#A1A1A1"/>
<rect x="186.617" y="260.426" width="5.63082" height="5.78723" fill="#A1A1A1"/>
<rect x="186.617" y="133.105" width="5.63082" height="5.78723" fill="#A1A1A1"/>
<rect x="147.203" y="260.426" width="5.63082" height="5.78723" fill="#A1A1A1"/>
<rect x="113.414" y="260.426" width="5.63082" height="5.78723" fill="#A1A1A1"/>
<rect x="113.414" y="133.105" width="5.63082" height="5.78723" fill="#A1A1A1"/>
<rect x="74" y="260.426" width="5.63082" height="5.78723" fill="#A1A1A1"/>
<rect x="74" y="133.105" width="5.63082" height="5.78723" fill="#A1A1A1"/>
<rect x="34.582" y="260.426" width="5.63082" height="5.78723" fill="#A1A1A1"/>
<rect x="34.582" y="133.105" width="5.63082" height="5.78723" fill="#A1A1A1"/>
<rect x="226.031" y="260.426" width="5.63082" height="5.78723" fill="#A1A1A1"/>
<rect x="226.031" y="133.105" width="5.63082" height="5.78723" fill="#A1A1A1"/>
<rect x="265.449" y="167.828" width="5.78723" height="5.63082" transform="rotate(90 265.449 167.828)" fill="#A1A1A1"/>
<rect x="12.0625" y="104.172" width="5.78723" height="5.63082" transform="rotate(-90 12.0625 104.172)" fill="#A1A1A1"/>
<rect x="265.449" y="219.914" width="5.78723" height="5.63082" transform="rotate(90 265.449 219.914)" fill="#A1A1A1"/>
<rect x="12.0625" y="52.0859" width="5.78723" height="5.63082" transform="rotate(-90 12.0625 52.0859)" fill="#A1A1A1"/>
<rect x="17.6914" y="167.828" width="5.78723" height="5.63082" transform="rotate(90 17.6914 167.828)" fill="#A1A1A1"/>
<rect x="259.816" y="104.172" width="5.78723" height="5.63082" transform="rotate(-90 259.816 104.172)" fill="#A1A1A1"/>
<rect x="17.6914" y="219.914" width="5.78723" height="5.63082" transform="rotate(90 17.6914 219.914)" fill="#A1A1A1"/>
<rect x="259.816" y="52.0859" width="5.78723" height="5.63082" transform="rotate(-90 259.816 52.0859)" fill="#A1A1A1"/>
<ellipse cx="15.2523" cy="135.999" rx="12.2523" ry="12.5926" fill="white"/>
<path d="M261.332 186.775C262.113 187.556 263.379 187.556 264.16 186.775L276.888 174.047C277.669 173.266 277.669 172 276.888 171.219C276.107 170.438 274.841 170.438 274.06 171.219L262.746 182.533L251.432 171.219C250.651 170.438 249.385 170.438 248.604 171.219C247.823 172 247.823 173.266 248.604 174.047L261.332 186.775ZM262.746 150.605L260.746 150.605L260.746 185.361L262.746 185.361L264.746 185.361L264.746 150.605L262.746 150.605Z" fill="white"/>
<path d="M16.1759 85.2248C15.3949 84.4437 14.1286 84.4437 13.3475 85.2248L0.619584 97.9527C-0.161465 98.7337 -0.161465 100 0.619584 100.781C1.40063 101.562 2.66696 101.562 3.44801 100.781L14.7617 89.4674L26.0754 100.781C26.8565 101.562 28.1228 101.562 28.9039 100.781C29.6849 100 29.6849 98.7337 28.9039 97.9527L16.1759 85.2248ZM14.7617 121.395L16.7617 121.395L16.7617 86.639L14.7617 86.639L12.7617 86.639L12.7617 121.395L14.7617 121.395Z" fill="white"/>
<path d="M264.16 85.2248C263.379 84.4437 262.113 84.4437 261.332 85.2248L248.604 97.9527C247.823 98.7337 247.823 100 248.604 100.781C249.385 101.562 250.651 101.562 251.432 100.781L262.746 89.4674L274.06 100.781C274.841 101.562 276.107 101.562 276.888 100.781C277.669 100 277.669 98.7337 276.888 97.9527L264.16 85.2248ZM262.746 121.395L264.746 121.395L264.746 86.639L262.746 86.639L260.746 86.639L260.746 121.395L262.746 121.395Z" fill="white"/>
<path d="M13.3475 186.775C14.1286 187.556 15.3949 187.556 16.1759 186.775L28.9039 174.047C29.6849 173.266 29.6849 172 28.9039 171.219C28.1228 170.438 26.8565 170.438 26.0754 171.219L14.7617 182.533L3.44801 171.219C2.66696 170.438 1.40063 170.438 0.619584 171.219C-0.161465 172 -0.161465 173.266 0.619584 174.047L13.3475 186.775ZM14.7617 150.605L12.7617 150.605L12.7617 185.361L14.7617 185.361L16.7617 185.361L16.7617 150.605L14.7617 150.605Z" fill="white"/>
<path d="M213.305 134.586C212.524 135.367 212.524 136.633 213.305 137.414L226.033 150.142C226.814 150.923 228.08 150.923 228.861 150.142C229.642 149.361 229.642 148.095 228.861 147.314L217.547 136L228.861 124.686C229.642 123.905 229.642 122.639 228.861 121.858C228.08 121.077 226.814 121.077 226.033 121.858L213.305 134.586ZM248.535 136V134H214.719V136V138H248.535V136Z" fill="white"/>
<path d="M64.207 137.414C64.988 136.633 64.988 135.367 64.207 134.586L51.4791 121.858C50.698 121.077 49.4317 121.077 48.6506 121.858C47.8696 122.639 47.8696 123.905 48.6506 124.686L59.9644 136L48.6506 147.314C47.8696 148.095 47.8696 149.361 48.6506 150.142C49.4317 150.923 50.698 150.923 51.4791 150.142L64.207 137.414ZM28.9766 136V138H62.7928V136V134H28.9766V136Z" fill="white"/>
<ellipse cx="262.748" cy="135.999" rx="12.2523" ry="12.5926" fill="black"/>
</svg>
