<svg width="272" height="272" viewBox="0 0 272 272" fill="none" xmlns="http://www.w3.org/2000/svg">
<rect x="128" y="21.334" width="5.33333" height="5.33333" transform="rotate(-90 128 21.334)" fill="#A1A1A1"/>
<rect x="144" y="250.666" width="5.33333" height="5.33333" transform="rotate(90 144 250.666)" fill="#A1A1A1"/>
<rect x="250.668" y="128" width="5.33333" height="5.33333" fill="#A1A1A1"/>
<rect x="21.3359" y="144" width="5.33333" height="5.33333" transform="rotate(180 21.3359 144)" fill="#A1A1A1"/>
<rect x="16" y="133.334" width="5.33333" height="5.33333" transform="rotate(-90 16 133.334)" fill="#A1A1A1"/>
<rect x="256" y="138.666" width="5.33333" height="5.33333" transform="rotate(90 256 138.666)" fill="#A1A1A1"/>
<rect x="138.668" y="16" width="5.33333" height="5.33333" fill="#A1A1A1"/>
<rect x="133.336" y="256" width="5.33333" height="5.33333" transform="rotate(180 133.336 256)" fill="#A1A1A1"/>
<rect x="16" y="128" width="5.33333" height="5.33333" transform="rotate(-90 16 128)" fill="#A1A1A1"/>
<rect x="256" y="144" width="5.33333" height="5.33333" transform="rotate(90 256 144)" fill="#A1A1A1"/>
<rect x="144" y="16" width="5.33333" height="5.33333" fill="#A1A1A1"/>
<rect x="128" y="256" width="5.33333" height="5.33333" transform="rotate(180 128 256)" fill="#A1A1A1"/>
<rect x="16" y="122.666" width="5.33333" height="5.33333" transform="rotate(-90 16 122.666)" fill="#A1A1A1"/>
<rect x="256" y="149.334" width="5.33333" height="5.33333" transform="rotate(90 256 149.334)" fill="#A1A1A1"/>
<rect x="149.336" y="16" width="5.33333" height="5.33333" fill="#A1A1A1"/>
<rect x="122.668" y="256" width="5.33333" height="5.33333" transform="rotate(180 122.668 256)" fill="#A1A1A1"/>
<rect x="16" y="117.334" width="5.33333" height="5.33333" transform="rotate(-90 16 117.334)" fill="#A1A1A1"/>
<rect x="256" y="154.666" width="5.33333" height="5.33333" transform="rotate(90 256 154.666)" fill="#A1A1A1"/>
<rect x="154.668" y="16" width="5.33333" height="5.33333" fill="#A1A1A1"/>
<rect x="117.336" y="256" width="5.33333" height="5.33333" transform="rotate(180 117.336 256)" fill="#A1A1A1"/>
<rect x="21.3359" y="112" width="5.33333" height="5.33333" transform="rotate(-90 21.3359 112)" fill="#A1A1A1"/>
<rect x="250.668" y="160" width="5.33333" height="5.33333" transform="rotate(90 250.668 160)" fill="#A1A1A1"/>
<rect x="160" y="21.334" width="5.33333" height="5.33333" fill="#A1A1A1"/>
<rect x="112" y="250.666" width="5.33333" height="5.33333" transform="rotate(180 112 250.666)" fill="#A1A1A1"/>
<rect x="21.3359" y="106.666" width="5.33333" height="5.33333" transform="rotate(-90 21.3359 106.666)" fill="#A1A1A1"/>
<rect x="250.668" y="165.334" width="5.33333" height="5.33333" transform="rotate(90 250.668 165.334)" fill="#A1A1A1"/>
<rect x="165.336" y="21.334" width="5.33333" height="5.33333" fill="#A1A1A1"/>
<rect x="106.668" y="250.666" width="5.33333" height="5.33333" transform="rotate(180 106.668 250.666)" fill="#A1A1A1"/>
<rect x="21.3359" y="101.334" width="5.33333" height="5.33333" transform="rotate(-90 21.3359 101.334)" fill="#A1A1A1"/>
<rect x="250.668" y="170.666" width="5.33333" height="5.33333" transform="rotate(90 250.668 170.666)" fill="#A1A1A1"/>
<rect x="170.668" y="21.334" width="5.33333" height="5.33333" fill="#A1A1A1"/>
<rect x="101.336" y="250.666" width="5.33333" height="5.33333" transform="rotate(180 101.336 250.666)" fill="#A1A1A1"/>
<rect x="21.3359" y="96" width="5.33333" height="5.33333" transform="rotate(-90 21.3359 96)" fill="#A1A1A1"/>
<rect x="250.668" y="176" width="5.33333" height="5.33333" transform="rotate(90 250.668 176)" fill="#A1A1A1"/>
<rect x="176" y="21.334" width="5.33333" height="5.33333" fill="#A1A1A1"/>
<rect x="96" y="250.666" width="5.33333" height="5.33333" transform="rotate(180 96 250.666)" fill="#A1A1A1"/>
<rect x="26.668" y="90.666" width="5.33333" height="5.33333" transform="rotate(-90 26.668 90.666)" fill="#A1A1A1"/>
<rect x="245.336" y="181.334" width="5.33333" height="5.33333" transform="rotate(90 245.336 181.334)" fill="#A1A1A1"/>
<rect x="181.336" y="26.666" width="5.33333" height="5.33333" fill="#A1A1A1"/>
<rect x="90.668" y="245.334" width="5.33333" height="5.33333" transform="rotate(180 90.668 245.334)" fill="#A1A1A1"/>
<rect x="26.668" y="85.334" width="5.33333" height="5.33333" transform="rotate(-90 26.668 85.334)" fill="#A1A1A1"/>
<rect x="245.336" y="186.666" width="5.33333" height="5.33333" transform="rotate(90 245.336 186.666)" fill="#A1A1A1"/>
<rect x="186.668" y="26.666" width="5.33333" height="5.33333" fill="#A1A1A1"/>
<rect x="85.3359" y="245.334" width="5.33333" height="5.33333" transform="rotate(180 85.3359 245.334)" fill="#A1A1A1"/>
<rect x="32" y="80" width="5.33333" height="5.33333" transform="rotate(-90 32 80)" fill="#A1A1A1"/>
<rect x="240" y="192" width="5.33333" height="5.33333" transform="rotate(90 240 192)" fill="#A1A1A1"/>
<rect x="192" y="32" width="5.33333" height="5.33333" fill="#A1A1A1"/>
<rect x="80" y="240" width="5.33333" height="5.33333" transform="rotate(180 80 240)" fill="#A1A1A1"/>
<rect x="32" y="74.666" width="5.33333" height="5.33333" transform="rotate(-90 32 74.666)" fill="#A1A1A1"/>
<rect x="240" y="197.334" width="5.33333" height="5.33333" transform="rotate(90 240 197.334)" fill="#A1A1A1"/>
<rect x="197.336" y="32" width="5.33333" height="5.33333" fill="#A1A1A1"/>
<rect x="74.668" y="240" width="5.33333" height="5.33333" transform="rotate(180 74.668 240)" fill="#A1A1A1"/>
<rect x="58.668" y="42.666" width="5.33333" height="5.33333" transform="rotate(-90 58.668 42.666)" fill="#A1A1A1"/>
<rect x="213.336" y="229.334" width="5.33333" height="5.33333" transform="rotate(90 213.336 229.334)" fill="#A1A1A1"/>
<rect x="229.336" y="58.666" width="5.33333" height="5.33333" fill="#A1A1A1"/>
<rect x="42.668" y="213.334" width="5.33333" height="5.33333" transform="rotate(180 42.668 213.334)" fill="#A1A1A1"/>
<rect x="69.3359" y="37.334" width="5.33333" height="5.33333" transform="rotate(-90 69.3359 37.334)" fill="#A1A1A1"/>
<rect x="202.668" y="234.666" width="5.33333" height="5.33333" transform="rotate(90 202.668 234.666)" fill="#A1A1A1"/>
<rect x="234.668" y="69.334" width="5.33333" height="5.33333" fill="#A1A1A1"/>
<rect x="37.3359" y="202.666" width="5.33333" height="5.33333" transform="rotate(180 37.3359 202.666)" fill="#A1A1A1"/>
<rect x="74.668" y="37.334" width="5.33333" height="5.33333" transform="rotate(-90 74.668 37.334)" fill="#A1A1A1"/>
<rect x="197.336" y="234.666" width="5.33333" height="5.33333" transform="rotate(90 197.336 234.666)" fill="#A1A1A1"/>
<rect x="234.668" y="74.666" width="5.33333" height="5.33333" fill="#A1A1A1"/>
<rect x="37.3359" y="197.334" width="5.33333" height="5.33333" transform="rotate(180 37.3359 197.334)" fill="#A1A1A1"/>
<rect x="80" y="32" width="5.33333" height="5.33333" transform="rotate(-90 80 32)" fill="#A1A1A1"/>
<rect x="192" y="240" width="5.33333" height="5.33333" transform="rotate(90 192 240)" fill="#A1A1A1"/>
<rect x="240" y="80" width="5.33333" height="5.33333" fill="#A1A1A1"/>
<rect x="138.668" y="128" width="5.33333" height="5.33333" fill="#A1A1A1"/>
<rect x="144" y="138.666" width="5.33333" height="5.33333" transform="rotate(90 144 138.666)" fill="#A1A1A1"/>
<rect x="144" y="122.666" width="5.33333" height="5.33333" fill="#A1A1A1"/>
<rect x="58.668" y="208" width="5.33333" height="5.33333" fill="#A1A1A1"/>
<rect x="64" y="58.666" width="5.33333" height="5.33333" transform="rotate(90 64 58.666)" fill="#A1A1A1"/>
<rect x="149.336" y="144" width="5.33333" height="5.33333" transform="rotate(90 149.336 144)" fill="#A1A1A1"/>
<rect x="165.336" y="101.334" width="5.33333" height="5.33333" fill="#A1A1A1"/>
<rect x="80" y="186.666" width="5.33333" height="5.33333" fill="#A1A1A1"/>
<rect x="85.3359" y="80" width="5.33333" height="5.33333" transform="rotate(90 85.3359 80)" fill="#A1A1A1"/>
<rect x="170.668" y="165.334" width="5.33333" height="5.33333" transform="rotate(90 170.668 165.334)" fill="#A1A1A1"/>
<rect x="186.668" y="80" width="5.33333" height="5.33333" fill="#A1A1A1"/>
<rect x="101.336" y="165.334" width="5.33333" height="5.33333" fill="#A1A1A1"/>
<rect x="106.668" y="101.334" width="5.33333" height="5.33333" transform="rotate(90 106.668 101.334)" fill="#A1A1A1"/>
<rect x="192" y="186.666" width="5.33333" height="5.33333" transform="rotate(90 192 186.666)" fill="#A1A1A1"/>
<rect x="149.336" y="117.334" width="5.33333" height="5.33333" fill="#A1A1A1"/>
<rect x="64" y="202.666" width="5.33333" height="5.33333" fill="#A1A1A1"/>
<rect x="69.3359" y="64" width="5.33333" height="5.33333" transform="rotate(90 69.3359 64)" fill="#A1A1A1"/>
<rect x="154.668" y="149.334" width="5.33333" height="5.33333" transform="rotate(90 154.668 149.334)" fill="#A1A1A1"/>
<rect x="170.668" y="96" width="5.33333" height="5.33333" fill="#A1A1A1"/>
<rect x="85.3359" y="181.334" width="5.33333" height="5.33333" fill="#A1A1A1"/>
<rect x="90.668" y="85.334" width="5.33333" height="5.33333" transform="rotate(90 90.668 85.334)" fill="#A1A1A1"/>
<rect x="176" y="170.666" width="5.33333" height="5.33333" transform="rotate(90 176 170.666)" fill="#A1A1A1"/>
<rect x="192" y="74.666" width="5.33333" height="5.33333" fill="#A1A1A1"/>
<rect x="106.668" y="160" width="5.33333" height="5.33333" fill="#A1A1A1"/>
<rect x="112" y="106.666" width="5.33333" height="5.33333" transform="rotate(90 112 106.666)" fill="#A1A1A1"/>
<rect x="197.336" y="192" width="5.33333" height="5.33333" transform="rotate(90 197.336 192)" fill="#A1A1A1"/>
<rect x="154.668" y="112" width="5.33333" height="5.33333" fill="#A1A1A1"/>
<rect x="69.3359" y="197.334" width="5.33333" height="5.33333" fill="#A1A1A1"/>
<rect x="74.668" y="69.334" width="5.33333" height="5.33333" transform="rotate(90 74.668 69.334)" fill="#A1A1A1"/>
<rect x="160" y="154.666" width="5.33333" height="5.33333" transform="rotate(90 160 154.666)" fill="#A1A1A1"/>
<rect x="176" y="90.666" width="5.33333" height="5.33333" fill="#A1A1A1"/>
<rect x="90.668" y="176" width="5.33333" height="5.33333" fill="#A1A1A1"/>
<rect x="96" y="90.666" width="5.33333" height="5.33333" transform="rotate(90 96 90.666)" fill="#A1A1A1"/>
<rect x="181.336" y="176" width="5.33333" height="5.33333" transform="rotate(90 181.336 176)" fill="#A1A1A1"/>
<rect x="197.336" y="69.334" width="5.33333" height="5.33333" fill="#A1A1A1"/>
<rect x="112" y="154.666" width="5.33333" height="5.33333" fill="#A1A1A1"/>
<rect x="117.336" y="112" width="5.33333" height="5.33333" transform="rotate(90 117.336 112)" fill="#A1A1A1"/>
<rect x="202.668" y="197.334" width="5.33333" height="5.33333" transform="rotate(90 202.668 197.334)" fill="#A1A1A1"/>
<rect x="208" y="58.666" width="5.33333" height="5.33333" fill="#A1A1A1"/>
<rect x="122.668" y="144" width="5.33333" height="5.33333" fill="#A1A1A1"/>
<rect x="128" y="122.666" width="5.33333" height="5.33333" transform="rotate(90 128 122.666)" fill="#A1A1A1"/>
<rect x="213.336" y="208" width="5.33333" height="5.33333" transform="rotate(90 213.336 208)" fill="#A1A1A1"/>
<rect x="160" y="106.666" width="5.33333" height="5.33333" fill="#A1A1A1"/>
<rect x="74.668" y="192" width="5.33333" height="5.33333" fill="#A1A1A1"/>
<rect x="80" y="74.666" width="5.33333" height="5.33333" transform="rotate(90 80 74.666)" fill="#A1A1A1"/>
<rect x="165.336" y="160" width="5.33333" height="5.33333" transform="rotate(90 165.336 160)" fill="#A1A1A1"/>
<rect x="181.336" y="85.334" width="5.33333" height="5.33333" fill="#A1A1A1"/>
<rect x="96" y="170.666" width="5.33333" height="5.33333" fill="#A1A1A1"/>
<rect x="101.336" y="96" width="5.33333" height="5.33333" transform="rotate(90 101.336 96)" fill="#A1A1A1"/>
<rect x="186.668" y="181.334" width="5.33333" height="5.33333" transform="rotate(90 186.668 181.334)" fill="#A1A1A1"/>
<rect x="202.668" y="64" width="5.33333" height="5.33333" fill="#A1A1A1"/>
<rect x="117.336" y="149.334" width="5.33333" height="5.33333" fill="#A1A1A1"/>
<rect x="122.668" y="117.334" width="5.33333" height="5.33333" transform="rotate(90 122.668 117.334)" fill="#A1A1A1"/>
<rect x="208" y="202.666" width="5.33333" height="5.33333" transform="rotate(90 208 202.666)" fill="#A1A1A1"/>
<rect x="128" y="138.666" width="5.33333" height="5.33333" fill="#A1A1A1"/>
<rect x="133.336" y="128" width="5.33333" height="5.33333" transform="rotate(90 133.336 128)" fill="#A1A1A1"/>
<rect x="32" y="192" width="5.33333" height="5.33333" transform="rotate(180 32 192)" fill="#A1A1A1"/>
<rect x="85.3359" y="32" width="5.33333" height="5.33333" transform="rotate(-90 85.3359 32)" fill="#A1A1A1"/>
<rect x="186.668" y="240" width="5.33333" height="5.33333" transform="rotate(90 186.668 240)" fill="#A1A1A1"/>
<rect x="240" y="85.334" width="5.33333" height="5.33333" fill="#A1A1A1"/>
<rect x="32" y="186.666" width="5.33333" height="5.33333" transform="rotate(180 32 186.666)" fill="#A1A1A1"/>
<rect x="90.668" y="26.666" width="5.33333" height="5.33333" transform="rotate(-90 90.668 26.666)" fill="#A1A1A1"/>
<rect x="181.336" y="245.334" width="5.33333" height="5.33333" transform="rotate(90 181.336 245.334)" fill="#A1A1A1"/>
<rect x="245.336" y="90.666" width="5.33333" height="5.33333" fill="#A1A1A1"/>
<rect x="26.668" y="181.334" width="5.33333" height="5.33333" transform="rotate(180 26.668 181.334)" fill="#A1A1A1"/>
<rect x="96" y="26.666" width="5.33333" height="5.33333" transform="rotate(-90 96 26.666)" fill="#A1A1A1"/>
<rect x="176" y="245.334" width="5.33333" height="5.33333" transform="rotate(90 176 245.334)" fill="#A1A1A1"/>
<rect x="245.336" y="96" width="5.33333" height="5.33333" fill="#A1A1A1"/>
<rect x="26.668" y="176" width="5.33333" height="5.33333" transform="rotate(180 26.668 176)" fill="#A1A1A1"/>
<rect x="101.336" y="26.666" width="5.33333" height="5.33333" transform="rotate(-90 101.336 26.666)" fill="#A1A1A1"/>
<rect x="170.668" y="245.334" width="5.33333" height="5.33333" transform="rotate(90 170.668 245.334)" fill="#A1A1A1"/>
<rect x="245.336" y="101.334" width="5.33333" height="5.33333" fill="#A1A1A1"/>
<rect x="26.668" y="170.666" width="5.33333" height="5.33333" transform="rotate(180 26.668 170.666)" fill="#A1A1A1"/>
<rect x="106.668" y="26.666" width="5.33333" height="5.33333" transform="rotate(-90 106.668 26.666)" fill="#A1A1A1"/>
<rect x="165.336" y="245.334" width="5.33333" height="5.33333" transform="rotate(90 165.336 245.334)" fill="#A1A1A1"/>
<rect x="245.336" y="106.666" width="5.33333" height="5.33333" fill="#A1A1A1"/>
<rect x="26.668" y="165.334" width="5.33333" height="5.33333" transform="rotate(180 26.668 165.334)" fill="#A1A1A1"/>
<rect x="112" y="21.334" width="5.33333" height="5.33333" transform="rotate(-90 112 21.334)" fill="#A1A1A1"/>
<rect x="160" y="250.666" width="5.33333" height="5.33333" transform="rotate(90 160 250.666)" fill="#A1A1A1"/>
<rect x="250.668" y="112" width="5.33333" height="5.33333" fill="#A1A1A1"/>
<rect x="21.3359" y="160" width="5.33333" height="5.33333" transform="rotate(180 21.3359 160)" fill="#A1A1A1"/>
<rect x="117.336" y="21.334" width="5.33333" height="5.33333" transform="rotate(-90 117.336 21.334)" fill="#A1A1A1"/>
<rect x="154.668" y="250.666" width="5.33333" height="5.33333" transform="rotate(90 154.668 250.666)" fill="#A1A1A1"/>
<rect x="250.668" y="117.334" width="5.33333" height="5.33333" fill="#A1A1A1"/>
<rect x="21.3359" y="154.666" width="5.33333" height="5.33333" transform="rotate(180 21.3359 154.666)" fill="#A1A1A1"/>
<rect x="122.668" y="21.334" width="5.33333" height="5.33333" transform="rotate(-90 122.668 21.334)" fill="#A1A1A1"/>
<rect x="149.336" y="250.666" width="5.33333" height="5.33333" transform="rotate(90 149.336 250.666)" fill="#A1A1A1"/>
<rect x="250.668" y="122.666" width="5.33333" height="5.33333" fill="#A1A1A1"/>
<rect x="21.3359" y="149.334" width="5.33333" height="5.33333" transform="rotate(180 21.3359 149.334)" fill="#A1A1A1"/>
<rect x="133.336" y="16" width="5.33333" height="5.33333" fill="#A1A1A1"/>
<rect x="16" y="138.666" width="5.33333" height="5.33333" transform="rotate(-90 16 138.666)" fill="#A1A1A1"/>
<rect x="133.336" y="117.334" width="5.33333" height="5.33333" fill="#A1A1A1"/>
<rect x="117.336" y="138.666" width="5.33333" height="5.33333" transform="rotate(-90 117.336 138.666)" fill="#A1A1A1"/>
<rect x="133.336" y="58.666" width="5.33333" height="5.33333" fill="#A1A1A1"/>
<rect x="58.668" y="138.666" width="5.33333" height="5.33333" transform="rotate(-90 58.668 138.666)" fill="#A1A1A1"/>
<rect x="133.336" y="160" width="5.33333" height="5.33333" fill="#A1A1A1"/>
<rect x="160" y="138.666" width="5.33333" height="5.33333" transform="rotate(-90 160 138.666)" fill="#A1A1A1"/>
<rect x="133.336" y="37.334" width="5.33333" height="5.33333" fill="#A1A1A1"/>
<rect x="37.3359" y="138.666" width="5.33333" height="5.33333" transform="rotate(-90 37.3359 138.666)" fill="#A1A1A1"/>
<rect x="133.336" y="138.666" width="5.33333" height="5.33333" fill="#A1A1A1"/>
<rect x="138.668" y="138.666" width="5.33333" height="5.33333" transform="rotate(-90 138.668 138.666)" fill="#A1A1A1"/>
<rect x="133.336" y="80" width="5.33333" height="5.33333" fill="#A1A1A1"/>
<rect x="80" y="138.666" width="5.33333" height="5.33333" transform="rotate(-90 80 138.666)" fill="#A1A1A1"/>
<rect x="133.336" y="181.334" width="5.33333" height="5.33333" fill="#A1A1A1"/>
<rect x="181.336" y="138.666" width="5.33333" height="5.33333" transform="rotate(-90 181.336 138.666)" fill="#A1A1A1"/>
<rect x="133.336" y="26.666" width="5.33333" height="5.33333" fill="#A1A1A1"/>
<rect x="26.668" y="138.666" width="5.33333" height="5.33333" transform="rotate(-90 26.668 138.666)" fill="#A1A1A1"/>
<rect x="133.336" y="128" width="5.33333" height="5.33333" fill="#A1A1A1"/>
<rect x="128" y="138.666" width="5.33333" height="5.33333" transform="rotate(-90 128 138.666)" fill="#A1A1A1"/>
<rect x="133.336" y="69.334" width="5.33333" height="5.33333" fill="#A1A1A1"/>
<rect x="69.3359" y="138.666" width="5.33333" height="5.33333" transform="rotate(-90 69.3359 138.666)" fill="#A1A1A1"/>
<rect x="133.336" y="170.666" width="5.33333" height="5.33333" fill="#A1A1A1"/>
<rect x="170.668" y="138.666" width="5.33333" height="5.33333" transform="rotate(-90 170.668 138.666)" fill="#A1A1A1"/>
<rect x="133.336" y="48" width="5.33333" height="5.33333" fill="#A1A1A1"/>
<rect x="48" y="138.666" width="5.33333" height="5.33333" transform="rotate(-90 48 138.666)" fill="#A1A1A1"/>
<rect x="133.336" y="149.334" width="5.33333" height="5.33333" fill="#A1A1A1"/>
<rect x="149.336" y="138.666" width="5.33333" height="5.33333" transform="rotate(-90 149.336 138.666)" fill="#A1A1A1"/>
<rect x="133.336" y="90.666" width="5.33333" height="5.33333" fill="#A1A1A1"/>
<rect x="90.668" y="138.666" width="5.33333" height="5.33333" transform="rotate(-90 90.668 138.666)" fill="#A1A1A1"/>
<rect x="133.336" y="192" width="5.33333" height="5.33333" fill="#A1A1A1"/>
<rect x="192" y="138.666" width="5.33333" height="5.33333" transform="rotate(-90 192 138.666)" fill="#A1A1A1"/>
<rect x="133.336" y="224" width="5.33333" height="5.33333" fill="#A1A1A1"/>
<rect x="224" y="138.666" width="5.33333" height="5.33333" transform="rotate(-90 224 138.666)" fill="#A1A1A1"/>
<rect x="133.336" y="21.334" width="5.33333" height="5.33333" fill="#A1A1A1"/>
<rect x="21.3359" y="138.666" width="5.33333" height="5.33333" transform="rotate(-90 21.3359 138.666)" fill="#A1A1A1"/>
<rect x="133.336" y="122.666" width="5.33333" height="5.33333" fill="#A1A1A1"/>
<rect x="122.668" y="138.666" width="5.33333" height="5.33333" transform="rotate(-90 122.668 138.666)" fill="#A1A1A1"/>
<rect x="133.336" y="64" width="5.33333" height="5.33333" fill="#A1A1A1"/>
<rect x="64" y="138.666" width="5.33333" height="5.33333" transform="rotate(-90 64 138.666)" fill="#A1A1A1"/>
<rect x="133.336" y="165.334" width="5.33333" height="5.33333" fill="#A1A1A1"/>
<rect x="165.336" y="138.666" width="5.33333" height="5.33333" transform="rotate(-90 165.336 138.666)" fill="#A1A1A1"/>
<rect x="133.336" y="42.666" width="5.33333" height="5.33333" fill="#A1A1A1"/>
<rect x="42.668" y="138.666" width="5.33333" height="5.33333" transform="rotate(-90 42.668 138.666)" fill="#A1A1A1"/>
<rect x="133.336" y="144" width="5.33333" height="5.33333" fill="#A1A1A1"/>
<rect x="144" y="138.666" width="5.33333" height="5.33333" transform="rotate(-90 144 138.666)" fill="#A1A1A1"/>
<rect x="133.336" y="85.334" width="5.33333" height="5.33333" fill="#A1A1A1"/>
<rect x="85.3359" y="138.666" width="5.33333" height="5.33333" transform="rotate(-90 85.3359 138.666)" fill="#A1A1A1"/>
<rect x="133.336" y="186.666" width="5.33333" height="5.33333" fill="#A1A1A1"/>
<rect x="186.668" y="138.666" width="5.33333" height="5.33333" transform="rotate(-90 186.668 138.666)" fill="#A1A1A1"/>
<rect x="133.336" y="218.666" width="5.33333" height="5.33333" fill="#A1A1A1"/>
<rect x="218.668" y="138.666" width="5.33333" height="5.33333" transform="rotate(-90 218.668 138.666)" fill="#A1A1A1"/>
<rect x="133.336" y="32" width="5.33333" height="5.33333" fill="#A1A1A1"/>
<rect x="32" y="138.666" width="5.33333" height="5.33333" transform="rotate(-90 32 138.666)" fill="#A1A1A1"/>
<rect x="133.336" y="133.334" width="5.33333" height="5.33333" fill="#A1A1A1"/>
<rect x="133.336" y="138.666" width="5.33333" height="5.33333" transform="rotate(-90 133.336 138.666)" fill="#A1A1A1"/>
<rect x="133.336" y="74.666" width="5.33333" height="5.33333" fill="#A1A1A1"/>
<rect x="74.668" y="138.666" width="5.33333" height="5.33333" transform="rotate(-90 74.668 138.666)" fill="#A1A1A1"/>
<rect x="133.336" y="176" width="5.33333" height="5.33333" fill="#A1A1A1"/>
<rect x="176" y="138.666" width="5.33333" height="5.33333" transform="rotate(-90 176 138.666)" fill="#A1A1A1"/>
<rect x="133.336" y="53.334" width="5.33333" height="5.33333" fill="#A1A1A1"/>
<rect x="53.3359" y="138.666" width="5.33333" height="5.33333" transform="rotate(-90 53.3359 138.666)" fill="#A1A1A1"/>
<rect x="133.336" y="154.666" width="5.33333" height="5.33333" fill="#A1A1A1"/>
<rect x="154.668" y="138.666" width="5.33333" height="5.33333" transform="rotate(-90 154.668 138.666)" fill="#A1A1A1"/>
<rect x="133.336" y="96" width="5.33333" height="5.33333" fill="#A1A1A1"/>
<rect x="96" y="138.666" width="5.33333" height="5.33333" transform="rotate(-90 96 138.666)" fill="#A1A1A1"/>
<rect x="133.336" y="197.334" width="5.33333" height="5.33333" fill="#A1A1A1"/>
<rect x="197.336" y="138.666" width="5.33333" height="5.33333" transform="rotate(-90 197.336 138.666)" fill="#A1A1A1"/>
<rect x="133.336" y="229.334" width="5.33333" height="5.33333" fill="#A1A1A1"/>
<rect x="229.336" y="138.666" width="5.33333" height="5.33333" transform="rotate(-90 229.336 138.666)" fill="#A1A1A1"/>
<rect x="133.336" y="101.334" width="5.33333" height="5.33333" fill="#A1A1A1"/>
<rect x="101.336" y="138.666" width="5.33333" height="5.33333" transform="rotate(-90 101.336 138.666)" fill="#A1A1A1"/>
<rect x="133.336" y="202.666" width="5.33333" height="5.33333" fill="#A1A1A1"/>
<rect x="202.668" y="138.666" width="5.33333" height="5.33333" transform="rotate(-90 202.668 138.666)" fill="#A1A1A1"/>
<rect x="133.336" y="234.666" width="5.33333" height="5.33333" fill="#A1A1A1"/>
<rect x="234.668" y="138.666" width="5.33333" height="5.33333" transform="rotate(-90 234.668 138.666)" fill="#A1A1A1"/>
<rect x="133.336" y="106.666" width="5.33333" height="5.33333" fill="#A1A1A1"/>
<rect x="106.668" y="138.666" width="5.33333" height="5.33333" transform="rotate(-90 106.668 138.666)" fill="#A1A1A1"/>
<rect x="133.336" y="208" width="5.33333" height="5.33333" fill="#A1A1A1"/>
<rect x="208" y="138.666" width="5.33333" height="5.33333" transform="rotate(-90 208 138.666)" fill="#A1A1A1"/>
<rect x="133.336" y="240" width="5.33333" height="5.33333" fill="#A1A1A1"/>
<rect x="240" y="138.666" width="5.33333" height="5.33333" transform="rotate(-90 240 138.666)" fill="#A1A1A1"/>
<rect x="133.336" y="112" width="5.33333" height="5.33333" fill="#A1A1A1"/>
<rect x="112" y="138.666" width="5.33333" height="5.33333" transform="rotate(-90 112 138.666)" fill="#A1A1A1"/>
<rect x="133.336" y="213.334" width="5.33333" height="5.33333" fill="#A1A1A1"/>
<rect x="213.336" y="138.666" width="5.33333" height="5.33333" transform="rotate(-90 213.336 138.666)" fill="#A1A1A1"/>
<rect x="133.336" y="245.334" width="5.33333" height="5.33333" fill="#A1A1A1"/>
<rect x="245.336" y="138.666" width="5.33333" height="5.33333" transform="rotate(-90 245.336 138.666)" fill="#A1A1A1"/>
<rect x="133.336" y="250.666" width="5.33333" height="5.33333" fill="#A1A1A1"/>
<rect x="250.668" y="138.666" width="5.33333" height="5.33333" transform="rotate(-90 250.668 138.666)" fill="#A1A1A1"/>
<rect x="117.336" y="16" width="5.33333" height="5.33333" transform="rotate(-90 117.336 16)" fill="#A1A1A1"/>
<rect y="133.334" width="5.33333" height="5.33333" transform="rotate(-90 0 133.334)" fill="#A1A1A1"/>
<rect x="234.668" y="133.334" width="5.33333" height="5.33333" transform="rotate(-90 234.668 133.334)" fill="#A1A1A1"/>
<rect x="117.336" y="250.666" width="5.33333" height="5.33333" transform="rotate(-90 117.336 250.666)" fill="#A1A1A1"/>
<rect x="117.336" y="133.334" width="5.33333" height="5.33333" transform="rotate(-90 117.336 133.334)" fill="#A1A1A1"/>
<rect x="154.668" y="21.334" width="5.33333" height="5.33333" transform="rotate(90 154.668 21.334)" fill="#A1A1A1"/>
<rect x="37.3359" y="138.666" width="5.33333" height="5.33333" transform="rotate(90 37.3359 138.666)" fill="#A1A1A1"/>
<rect x="272" y="138.666" width="5.33333" height="5.33333" transform="rotate(90 272 138.666)" fill="#A1A1A1"/>
<rect x="154.668" y="256" width="5.33333" height="5.33333" transform="rotate(90 154.668 256)" fill="#A1A1A1"/>
<rect x="154.668" y="138.666" width="5.33333" height="5.33333" transform="rotate(90 154.668 138.666)" fill="#A1A1A1"/>
<rect x="133.336" y="37.334" width="5.33333" height="5.33333" transform="rotate(180 133.336 37.334)" fill="#A1A1A1"/>
<rect x="16" y="154.666" width="5.33333" height="5.33333" transform="rotate(180 16 154.666)" fill="#A1A1A1"/>
<rect x="250.668" y="154.666" width="5.33333" height="5.33333" transform="rotate(180 250.668 154.666)" fill="#A1A1A1"/>
<rect x="133.336" y="272" width="5.33333" height="5.33333" transform="rotate(180 133.336 272)" fill="#A1A1A1"/>
<rect x="133.336" y="154.666" width="5.33333" height="5.33333" transform="rotate(180 133.336 154.666)" fill="#A1A1A1"/>
<rect x="138.668" width="5.33333" height="5.33333" fill="#A1A1A1"/>
<rect x="21.3359" y="117.334" width="5.33333" height="5.33333" fill="#A1A1A1"/>
<rect x="256" y="117.334" width="5.33333" height="5.33333" fill="#A1A1A1"/>
<rect x="138.668" y="234.666" width="5.33333" height="5.33333" fill="#A1A1A1"/>
<rect x="138.668" y="117.334" width="5.33333" height="5.33333" fill="#A1A1A1"/>
<rect x="138.668" y="5.33398" width="5.33333" height="5.33333" fill="#A1A1A1"/>
<rect x="21.3359" y="122.666" width="5.33333" height="5.33333" fill="#A1A1A1"/>
<rect x="256" y="122.666" width="5.33333" height="5.33333" fill="#A1A1A1"/>
<rect x="138.668" y="240" width="5.33333" height="5.33333" fill="#A1A1A1"/>
<rect x="138.668" y="122.666" width="5.33333" height="5.33333" fill="#A1A1A1"/>
<rect x="138.668" y="10.666" width="5.33333" height="5.33333" fill="#A1A1A1"/>
<rect x="21.3359" y="128" width="5.33333" height="5.33333" fill="#A1A1A1"/>
<rect x="256" y="128" width="5.33333" height="5.33333" fill="#A1A1A1"/>
<rect x="138.668" y="245.334" width="5.33333" height="5.33333" fill="#A1A1A1"/>
<rect x="138.668" y="128" width="5.33333" height="5.33333" fill="#A1A1A1"/>
<rect x="138.668" y="16" width="5.33333" height="5.33333" fill="#A1A1A1"/>
<rect x="21.3359" y="133.334" width="5.33333" height="5.33333" fill="#A1A1A1"/>
<rect x="256" y="133.334" width="5.33333" height="5.33333" fill="#A1A1A1"/>
<rect x="138.668" y="250.666" width="5.33333" height="5.33333" fill="#A1A1A1"/>
<rect x="138.668" y="133.334" width="5.33333" height="5.33333" fill="#A1A1A1"/>
<rect x="138.668" y="21.334" width="5.33333" height="5.33333" fill="#A1A1A1"/>
<rect x="21.3359" y="138.666" width="5.33333" height="5.33333" fill="#A1A1A1"/>
<rect x="256" y="138.666" width="5.33333" height="5.33333" fill="#A1A1A1"/>
<rect x="138.668" y="256" width="5.33333" height="5.33333" fill="#A1A1A1"/>
<rect x="138.668" y="138.666" width="5.33333" height="5.33333" fill="#A1A1A1"/>
<rect x="138.668" y="26.666" width="5.33333" height="5.33333" fill="#A1A1A1"/>
<rect x="21.3359" y="144" width="5.33333" height="5.33333" fill="#A1A1A1"/>
<rect x="256" y="144" width="5.33333" height="5.33333" fill="#A1A1A1"/>
<rect x="138.668" y="261.334" width="5.33333" height="5.33333" fill="#A1A1A1"/>
<rect x="138.668" y="144" width="5.33333" height="5.33333" fill="#A1A1A1"/>
<rect x="128" y="5.33398" width="5.33333" height="5.33333" transform="rotate(-90 128 5.33398)" fill="#A1A1A1"/>
<rect x="10.668" y="122.666" width="5.33333" height="5.33333" transform="rotate(-90 10.668 122.666)" fill="#A1A1A1"/>
<rect x="245.336" y="122.666" width="5.33333" height="5.33333" transform="rotate(-90 245.336 122.666)" fill="#A1A1A1"/>
<rect x="128" y="240" width="5.33333" height="5.33333" transform="rotate(-90 128 240)" fill="#A1A1A1"/>
<rect x="128" y="122.666" width="5.33333" height="5.33333" transform="rotate(-90 128 122.666)" fill="#A1A1A1"/>
<rect x="128" y="10.666" width="5.33333" height="5.33333" transform="rotate(-90 128 10.666)" fill="#A1A1A1"/>
<rect x="10.668" y="128" width="5.33333" height="5.33333" transform="rotate(-90 10.668 128)" fill="#A1A1A1"/>
<rect x="245.336" y="128" width="5.33333" height="5.33333" transform="rotate(-90 245.336 128)" fill="#A1A1A1"/>
<rect x="128" y="245.334" width="5.33333" height="5.33333" transform="rotate(-90 128 245.334)" fill="#A1A1A1"/>
<rect x="128" y="128" width="5.33333" height="5.33333" transform="rotate(-90 128 128)" fill="#A1A1A1"/>
<rect x="128" y="16" width="5.33333" height="5.33333" transform="rotate(-90 128 16)" fill="#A1A1A1"/>
<rect x="10.668" y="133.334" width="5.33333" height="5.33333" transform="rotate(-90 10.668 133.334)" fill="#A1A1A1"/>
<rect x="245.336" y="133.334" width="5.33333" height="5.33333" transform="rotate(-90 245.336 133.334)" fill="#A1A1A1"/>
<rect x="128" y="250.666" width="5.33333" height="5.33333" transform="rotate(-90 128 250.666)" fill="#A1A1A1"/>
<rect x="128" y="133.334" width="5.33333" height="5.33333" transform="rotate(-90 128 133.334)" fill="#A1A1A1"/>
<rect x="128" y="21.334" width="5.33333" height="5.33333" transform="rotate(-90 128 21.334)" fill="#A1A1A1"/>
<rect x="10.668" y="138.666" width="5.33333" height="5.33333" transform="rotate(-90 10.668 138.666)" fill="#A1A1A1"/>
<rect x="245.336" y="138.666" width="5.33333" height="5.33333" transform="rotate(-90 245.336 138.666)" fill="#A1A1A1"/>
<rect x="128" y="256" width="5.33333" height="5.33333" transform="rotate(-90 128 256)" fill="#A1A1A1"/>
<rect x="128" y="138.666" width="5.33333" height="5.33333" transform="rotate(-90 128 138.666)" fill="#A1A1A1"/>
<rect x="128" y="26.666" width="5.33333" height="5.33333" transform="rotate(-90 128 26.666)" fill="#A1A1A1"/>
<rect x="10.668" y="144" width="5.33333" height="5.33333" transform="rotate(-90 10.668 144)" fill="#A1A1A1"/>
<rect x="245.336" y="144" width="5.33333" height="5.33333" transform="rotate(-90 245.336 144)" fill="#A1A1A1"/>
<rect x="128" y="261.334" width="5.33333" height="5.33333" transform="rotate(-90 128 261.334)" fill="#A1A1A1"/>
<rect x="128" y="144" width="5.33333" height="5.33333" transform="rotate(-90 128 144)" fill="#A1A1A1"/>
<rect x="128" y="32" width="5.33333" height="5.33333" transform="rotate(-90 128 32)" fill="#A1A1A1"/>
<rect x="10.668" y="149.334" width="5.33333" height="5.33333" transform="rotate(-90 10.668 149.334)" fill="#A1A1A1"/>
<rect x="245.336" y="149.334" width="5.33333" height="5.33333" transform="rotate(-90 245.336 149.334)" fill="#A1A1A1"/>
<rect x="128" y="266.666" width="5.33333" height="5.33333" transform="rotate(-90 128 266.666)" fill="#A1A1A1"/>
<rect x="128" y="149.334" width="5.33333" height="5.33333" transform="rotate(-90 128 149.334)" fill="#A1A1A1"/>
<rect x="144" y="32" width="5.33333" height="5.33333" transform="rotate(90 144 32)" fill="#A1A1A1"/>
<rect x="26.668" y="149.334" width="5.33333" height="5.33333" transform="rotate(90 26.668 149.334)" fill="#A1A1A1"/>
<rect x="261.336" y="149.334" width="5.33333" height="5.33333" transform="rotate(90 261.336 149.334)" fill="#A1A1A1"/>
<rect x="144" y="266.666" width="5.33333" height="5.33333" transform="rotate(90 144 266.666)" fill="#A1A1A1"/>
<rect x="144" y="149.334" width="5.33333" height="5.33333" transform="rotate(90 144 149.334)" fill="#A1A1A1"/>
<rect x="122.668" y="26.666" width="5.33333" height="5.33333" transform="rotate(180 122.668 26.666)" fill="#A1A1A1"/>
<rect x="5.33594" y="144" width="5.33333" height="5.33333" transform="rotate(180 5.33594 144)" fill="#A1A1A1"/>
<rect x="240" y="144" width="5.33333" height="5.33333" transform="rotate(180 240 144)" fill="#A1A1A1"/>
<rect x="122.668" y="261.334" width="5.33333" height="5.33333" transform="rotate(180 122.668 261.334)" fill="#A1A1A1"/>
<rect x="122.668" y="144" width="5.33333" height="5.33333" transform="rotate(180 122.668 144)" fill="#A1A1A1"/>
<rect x="149.336" y="10.666" width="5.33333" height="5.33333" fill="#A1A1A1"/>
<rect x="32" y="128" width="5.33333" height="5.33333" fill="#A1A1A1"/>
<rect x="266.668" y="128" width="5.33333" height="5.33333" fill="#A1A1A1"/>
<rect x="149.336" y="245.334" width="5.33333" height="5.33333" fill="#A1A1A1"/>
<rect x="149.336" y="128" width="5.33333" height="5.33333" fill="#A1A1A1"/>
<rect x="144" y="5.33398" width="5.33333" height="5.33333" fill="#A1A1A1"/>
<rect x="26.668" y="122.666" width="5.33333" height="5.33333" fill="#A1A1A1"/>
<rect x="261.336" y="122.666" width="5.33333" height="5.33333" fill="#A1A1A1"/>
<rect x="144" y="240" width="5.33333" height="5.33333" fill="#A1A1A1"/>
<rect x="144" y="122.666" width="5.33333" height="5.33333" fill="#A1A1A1"/>
<rect x="144" y="10.666" width="5.33333" height="5.33333" fill="#A1A1A1"/>
<rect x="26.668" y="128" width="5.33333" height="5.33333" fill="#A1A1A1"/>
<rect x="261.336" y="128" width="5.33333" height="5.33333" fill="#A1A1A1"/>
<rect x="144" y="245.334" width="5.33333" height="5.33333" fill="#A1A1A1"/>
<rect x="144" y="128" width="5.33333" height="5.33333" fill="#A1A1A1"/>
<rect x="144" y="16" width="5.33333" height="5.33333" fill="#A1A1A1"/>
<rect x="26.668" y="133.334" width="5.33333" height="5.33333" fill="#A1A1A1"/>
<rect x="261.336" y="133.334" width="5.33333" height="5.33333" fill="#A1A1A1"/>
<rect x="144" y="250.666" width="5.33333" height="5.33333" fill="#A1A1A1"/>
<rect x="144" y="133.334" width="5.33333" height="5.33333" fill="#A1A1A1"/>
<rect x="144" y="21.334" width="5.33333" height="5.33333" fill="#A1A1A1"/>
<rect x="26.668" y="138.666" width="5.33333" height="5.33333" fill="#A1A1A1"/>
<rect x="261.336" y="138.666" width="5.33333" height="5.33333" fill="#A1A1A1"/>
<rect x="144" y="256" width="5.33333" height="5.33333" fill="#A1A1A1"/>
<rect x="144" y="138.666" width="5.33333" height="5.33333" fill="#A1A1A1"/>
<rect x="122.668" y="5.33398" width="5.33333" height="5.33333" fill="#A1A1A1"/>
<rect x="5.33594" y="122.666" width="5.33333" height="5.33333" fill="#A1A1A1"/>
<rect x="240" y="122.666" width="5.33333" height="5.33333" fill="#A1A1A1"/>
<rect x="122.668" y="240" width="5.33333" height="5.33333" fill="#A1A1A1"/>
<rect x="122.668" y="122.666" width="5.33333" height="5.33333" fill="#A1A1A1"/>
<rect x="122.668" y="10.666" width="5.33333" height="5.33333" fill="#A1A1A1"/>
<rect x="5.33594" y="128" width="5.33333" height="5.33333" fill="#A1A1A1"/>
<rect x="240" y="128" width="5.33333" height="5.33333" fill="#A1A1A1"/>
<rect x="122.668" y="245.334" width="5.33333" height="5.33333" fill="#A1A1A1"/>
<rect x="122.668" y="128" width="5.33333" height="5.33333" fill="#A1A1A1"/>
<rect x="122.668" y="16" width="5.33333" height="5.33333" fill="#A1A1A1"/>
<rect x="5.33594" y="133.334" width="5.33333" height="5.33333" fill="#A1A1A1"/>
<rect x="240" y="133.334" width="5.33333" height="5.33333" fill="#A1A1A1"/>
<rect x="122.668" y="250.666" width="5.33333" height="5.33333" fill="#A1A1A1"/>
<rect x="122.668" y="133.334" width="5.33333" height="5.33333" fill="#A1A1A1"/>
<rect x="122.668" y="21.334" width="5.33333" height="5.33333" fill="#A1A1A1"/>
<rect x="5.33594" y="138.666" width="5.33333" height="5.33333" fill="#A1A1A1"/>
<rect x="240" y="138.666" width="5.33333" height="5.33333" fill="#A1A1A1"/>
<rect x="122.668" y="256" width="5.33333" height="5.33333" fill="#A1A1A1"/>
<rect x="122.668" y="138.666" width="5.33333" height="5.33333" fill="#A1A1A1"/>
<rect x="117.336" y="16" width="5.33333" height="5.33333" fill="#A1A1A1"/>
<rect y="133.334" width="5.33333" height="5.33333" fill="#A1A1A1"/>
<rect x="234.668" y="133.334" width="5.33333" height="5.33333" fill="#A1A1A1"/>
<rect x="117.336" y="250.666" width="5.33333" height="5.33333" fill="#A1A1A1"/>
<rect x="117.336" y="133.334" width="5.33333" height="5.33333" fill="#A1A1A1"/>
<rect x="122.668" y="26.666" width="5.33333" height="5.33333" fill="#A1A1A1"/>
<rect x="5.33594" y="144" width="5.33333" height="5.33333" fill="#A1A1A1"/>
<rect x="240" y="144" width="5.33333" height="5.33333" fill="#A1A1A1"/>
<rect x="122.668" y="261.334" width="5.33333" height="5.33333" fill="#A1A1A1"/>
<rect x="122.668" y="144" width="5.33333" height="5.33333" fill="#A1A1A1"/>
<rect x="133.336" y="32" width="5.33333" height="5.33333" fill="#A1A1A1"/>
<rect x="16" y="149.334" width="5.33333" height="5.33333" fill="#A1A1A1"/>
<rect x="250.668" y="149.334" width="5.33333" height="5.33333" fill="#A1A1A1"/>
<rect x="133.336" y="266.666" width="5.33333" height="5.33333" fill="#A1A1A1"/>
<rect x="133.336" y="149.334" width="5.33333" height="5.33333" fill="#A1A1A1"/>
<rect x="144" y="26.666" width="5.33333" height="5.33333" fill="#A1A1A1"/>
<rect x="26.668" y="144" width="5.33333" height="5.33333" fill="#A1A1A1"/>
<rect x="261.336" y="144" width="5.33333" height="5.33333" fill="#A1A1A1"/>
<rect x="144" y="261.334" width="5.33333" height="5.33333" fill="#A1A1A1"/>
<rect x="144" y="144" width="5.33333" height="5.33333" fill="#A1A1A1"/>
<rect x="149.336" y="16" width="5.33333" height="5.33333" fill="#A1A1A1"/>
<rect x="32" y="133.334" width="5.33333" height="5.33333" fill="#A1A1A1"/>
<rect x="266.668" y="133.334" width="5.33333" height="5.33333" fill="#A1A1A1"/>
<rect x="149.336" y="250.666" width="5.33333" height="5.33333" fill="#A1A1A1"/>
<rect x="149.336" y="133.334" width="5.33333" height="5.33333" fill="#A1A1A1"/>
<rect width="5.33333" height="5.33333" transform="matrix(1 -1.09279e-08 2.79753e-06 1 133.336 0)" fill="#A1A1A1"/>
<rect x="16" y="117.334" width="5.33333" height="5.33333" fill="#A1A1A1"/>
<rect x="250.668" y="117.334" width="5.33333" height="5.33333" fill="#A1A1A1"/>
<rect x="133.336" y="234.666" width="5.33333" height="5.33333" fill="#A1A1A1"/>
<rect x="133.336" y="117.334" width="5.33333" height="5.33333" fill="#A1A1A1"/>
<rect x="133.336" y="5.33398" width="5.33333" height="5.33333" fill="#A1A1A1"/>
<rect x="16" y="122.666" width="5.33333" height="5.33333" fill="#A1A1A1"/>
<rect x="250.668" y="122.666" width="5.33333" height="5.33333" fill="#A1A1A1"/>
<rect x="133.336" y="240" width="5.33333" height="5.33333" fill="#A1A1A1"/>
<rect x="133.336" y="122.666" width="5.33333" height="5.33333" fill="#A1A1A1"/>
<rect x="133.336" y="10.666" width="5.33333" height="5.33333" fill="#A1A1A1"/>
<rect x="16" y="128" width="5.33333" height="5.33333" fill="#A1A1A1"/>
<rect x="250.668" y="128" width="5.33333" height="5.33333" fill="#A1A1A1"/>
<rect x="133.336" y="245.334" width="5.33333" height="5.33333" fill="#A1A1A1"/>
<rect x="133.336" y="128" width="5.33333" height="5.33333" fill="#A1A1A1"/>
<rect x="133.336" y="16" width="5.33333" height="5.33333" fill="#A1A1A1"/>
<rect x="16" y="133.334" width="5.33333" height="5.33333" fill="#A1A1A1"/>
<rect x="250.668" y="133.334" width="5.33333" height="5.33333" fill="#A1A1A1"/>
<rect x="133.336" y="250.666" width="5.33333" height="5.33333" fill="#A1A1A1"/>
<rect x="133.336" y="133.334" width="5.33333" height="5.33333" fill="#A1A1A1"/>
<rect x="133.336" y="21.334" width="5.33333" height="5.33333" fill="#A1A1A1"/>
<rect x="16" y="138.666" width="5.33333" height="5.33333" fill="#A1A1A1"/>
<rect x="250.668" y="138.666" width="5.33333" height="5.33333" fill="#A1A1A1"/>
<rect x="133.336" y="256" width="5.33333" height="5.33333" fill="#A1A1A1"/>
<rect x="133.336" y="138.666" width="5.33333" height="5.33333" fill="#A1A1A1"/>
<rect x="133.336" y="26.666" width="5.33333" height="5.33333" fill="#A1A1A1"/>
<rect x="16" y="144" width="5.33333" height="5.33333" fill="#A1A1A1"/>
<rect x="250.668" y="144" width="5.33333" height="5.33333" fill="#A1A1A1"/>
<rect x="133.336" y="261.334" width="5.33333" height="5.33333" fill="#A1A1A1"/>
<rect x="133.336" y="144" width="5.33333" height="5.33333" fill="#A1A1A1"/>
<rect x="32" y="48" width="5.33333" height="5.33333" transform="rotate(-90 32 48)" fill="#A1A1A1"/>
<rect x="202.668" y="48" width="5.33333" height="5.33333" transform="rotate(-90 202.668 48)" fill="#A1A1A1"/>
<rect x="69.3359" y="53.334" width="5.33333" height="5.33333" transform="rotate(90 69.3359 53.334)" fill="#A1A1A1"/>
<rect x="240" y="53.334" width="5.33333" height="5.33333" transform="rotate(90 240 53.334)" fill="#A1A1A1"/>
<rect x="48" y="69.334" width="5.33333" height="5.33333" transform="rotate(180 48 69.334)" fill="#A1A1A1"/>
<rect x="218.668" y="69.334" width="5.33333" height="5.33333" transform="rotate(180 218.668 69.334)" fill="#A1A1A1"/>
<rect x="53.3359" y="32" width="5.33333" height="5.33333" fill="#A1A1A1"/>
<rect x="224" y="32" width="5.33333" height="5.33333" fill="#A1A1A1"/>
<rect x="42.668" y="37.334" width="5.33333" height="5.33333" transform="rotate(-90 42.668 37.334)" fill="#A1A1A1"/>
<rect x="213.336" y="37.334" width="5.33333" height="5.33333" transform="rotate(-90 213.336 37.334)" fill="#A1A1A1"/>
<rect x="58.668" y="64" width="5.33333" height="5.33333" transform="rotate(90 58.668 64)" fill="#A1A1A1"/>
<rect x="229.336" y="64" width="5.33333" height="5.33333" transform="rotate(90 229.336 64)" fill="#A1A1A1"/>
<rect x="37.3359" y="58.666" width="5.33333" height="5.33333" transform="rotate(180 37.3359 58.666)" fill="#A1A1A1"/>
<rect x="208" y="58.666" width="5.33333" height="5.33333" transform="rotate(180 208 58.666)" fill="#A1A1A1"/>
<rect x="64" y="42.666" width="5.33333" height="5.33333" fill="#A1A1A1"/>
<rect x="234.668" y="42.666" width="5.33333" height="5.33333" fill="#A1A1A1"/>
<rect x="58.668" y="37.334" width="5.33333" height="5.33333" fill="#A1A1A1"/>
<rect x="229.336" y="37.334" width="5.33333" height="5.33333" fill="#A1A1A1"/>
<rect x="37.3359" y="37.334" width="5.33333" height="5.33333" fill="#A1A1A1"/>
<rect x="208" y="37.334" width="5.33333" height="5.33333" fill="#A1A1A1"/>
<rect x="32" y="48" width="5.33333" height="5.33333" fill="#A1A1A1"/>
<rect x="202.668" y="48" width="5.33333" height="5.33333" fill="#A1A1A1"/>
<rect x="37.3359" y="58.666" width="5.33333" height="5.33333" fill="#A1A1A1"/>
<rect x="208" y="58.666" width="5.33333" height="5.33333" fill="#A1A1A1"/>
<rect x="48" y="64" width="5.33333" height="5.33333" fill="#A1A1A1"/>
<rect x="218.668" y="64" width="5.33333" height="5.33333" fill="#A1A1A1"/>
<rect x="58.668" y="58.666" width="5.33333" height="5.33333" fill="#A1A1A1"/>
<rect x="229.336" y="58.666" width="5.33333" height="5.33333" fill="#A1A1A1"/>
<rect x="64" y="48" width="5.33333" height="5.33333" fill="#A1A1A1"/>
<rect x="234.668" y="48" width="5.33333" height="5.33333" fill="#A1A1A1"/>
<rect x="48" y="32" width="5.33333" height="5.33333" fill="#A1A1A1"/>
<rect x="218.668" y="32" width="5.33333" height="5.33333" fill="#A1A1A1"/>
<rect x="32" y="218.666" width="5.33333" height="5.33333" transform="rotate(-90 32 218.666)" fill="#A1A1A1"/>
<rect x="69.3359" y="224" width="5.33333" height="5.33333" transform="rotate(90 69.3359 224)" fill="#A1A1A1"/>
<rect x="48" y="240" width="5.33333" height="5.33333" transform="rotate(180 48 240)" fill="#A1A1A1"/>
<rect x="53.3359" y="202.666" width="5.33333" height="5.33333" fill="#A1A1A1"/>
<rect x="42.668" y="208" width="5.33333" height="5.33333" transform="rotate(-90 42.668 208)" fill="#A1A1A1"/>
<rect x="58.668" y="234.666" width="5.33333" height="5.33333" transform="rotate(90 58.668 234.666)" fill="#A1A1A1"/>
<rect x="37.3359" y="229.334" width="5.33333" height="5.33333" transform="rotate(180 37.3359 229.334)" fill="#A1A1A1"/>
<rect x="64" y="213.334" width="5.33333" height="5.33333" fill="#A1A1A1"/>
<rect x="58.668" y="208" width="5.33333" height="5.33333" fill="#A1A1A1"/>
<rect x="37.3359" y="208" width="5.33333" height="5.33333" fill="#A1A1A1"/>
<rect x="32" y="218.666" width="5.33333" height="5.33333" fill="#A1A1A1"/>
<rect x="37.3359" y="229.334" width="5.33333" height="5.33333" fill="#A1A1A1"/>
<rect x="48" y="234.666" width="5.33333" height="5.33333" fill="#A1A1A1"/>
<rect x="58.668" y="229.334" width="5.33333" height="5.33333" fill="#A1A1A1"/>
<rect x="64" y="218.666" width="5.33333" height="5.33333" fill="#A1A1A1"/>
<rect x="48" y="202.666" width="5.33333" height="5.33333" fill="#A1A1A1"/>
<rect x="202.668" y="218.666" width="5.33333" height="5.33333" transform="rotate(-90 202.668 218.666)" fill="#A1A1A1"/>
<rect x="240" y="224" width="5.33333" height="5.33333" transform="rotate(90 240 224)" fill="#A1A1A1"/>
<rect x="218.668" y="240" width="5.33333" height="5.33333" transform="rotate(180 218.668 240)" fill="#A1A1A1"/>
<rect x="224" y="202.666" width="5.33333" height="5.33333" fill="#A1A1A1"/>
<rect x="213.336" y="208" width="5.33333" height="5.33333" transform="rotate(-90 213.336 208)" fill="#A1A1A1"/>
<rect x="229.336" y="234.666" width="5.33333" height="5.33333" transform="rotate(90 229.336 234.666)" fill="#A1A1A1"/>
<rect x="208" y="229.334" width="5.33333" height="5.33333" transform="rotate(180 208 229.334)" fill="#A1A1A1"/>
<rect x="234.668" y="213.334" width="5.33333" height="5.33333" fill="#A1A1A1"/>
<rect x="229.336" y="208" width="5.33333" height="5.33333" fill="#A1A1A1"/>
<rect x="208" y="208" width="5.33333" height="5.33333" fill="#A1A1A1"/>
<rect x="202.668" y="218.666" width="5.33333" height="5.33333" fill="#A1A1A1"/>
<rect x="208" y="229.334" width="5.33333" height="5.33333" fill="#A1A1A1"/>
<rect x="218.668" y="234.666" width="5.33333" height="5.33333" fill="#A1A1A1"/>
<rect x="229.336" y="229.334" width="5.33333" height="5.33333" fill="#A1A1A1"/>
<rect x="234.668" y="218.666" width="5.33333" height="5.33333" fill="#A1A1A1"/>
<rect x="218.668" y="202.666" width="5.33333" height="5.33333" fill="#A1A1A1"/>
<circle cx="221.335" cy="50.6667" r="10.6667" fill="black"/>
<circle cx="253.335" cy="136.001" r="10.6667" fill="black"/>
<circle cx="221.335" cy="221.333" r="10.6667" fill="black"/>
<circle cx="136.667" cy="252.667" r="10.6667" fill="black"/>
<circle cx="50.6667" cy="221.333" r="10.6667" fill="white"/>
<circle cx="18.6667" cy="136.001" r="10.6667" fill="white"/>
<circle cx="50.6667" cy="50.6667" r="10.6667" fill="white"/>
<circle cx="136.667" cy="18.6667" r="10.6667" fill="white"/>
</svg>
