<svg width="319" height="273" viewBox="0 0 319 273" fill="none" xmlns="http://www.w3.org/2000/svg">
<path d="M298.63 134.25V132.794H301.542V143H299.932V134.25H298.63Z" fill="white"/>
<rect x="119.68" y="17.002" width="5.44" height="5.33333" transform="rotate(180 119.68 17.002)" fill="#A1A1A1"/>
<rect x="119.68" y="64.998" width="5.44" height="5.33333" transform="rotate(180 119.68 64.998)" fill="#A1A1A1"/>
<rect x="119.68" y="112.998" width="5.44" height="5.33333" transform="rotate(180 119.68 112.998)" fill="#A1A1A1"/>
<rect x="114.24" y="112.998" width="5.44" height="5.33333" transform="rotate(180 114.24 112.998)" fill="#A1A1A1"/>
<rect x="119.68" y="171.666" width="5.44" height="5.33333" transform="rotate(180 119.68 171.666)" fill="#A1A1A1"/>
<rect x="114.24" y="171.666" width="5.44" height="5.33333" transform="rotate(180 114.24 171.666)" fill="#A1A1A1"/>
<rect x="103.359" y="139.666" width="5.33333" height="5.44" transform="rotate(90 103.359 139.666)" fill="#A1A1A1"/>
<rect x="168.64" y="139.666" width="5.33333" height="5.44" transform="rotate(90 168.64 139.666)" fill="#A1A1A1"/>
<rect x="59.8398" y="155.662" width="5.33333" height="5.44" transform="rotate(90 59.8398 155.662)" fill="#A1A1A1"/>
<rect x="217.6" y="139.666" width="5.33333" height="5.44" transform="rotate(90 217.6 139.666)" fill="#A1A1A1"/>
<rect x="119.68" y="267.662" width="5.44" height="5.33333" transform="rotate(180 119.68 267.662)" fill="#A1A1A1"/>
<rect x="65.2803" y="17.002" width="5.44" height="5.33333" transform="rotate(180 65.2803 17.002)" fill="#A1A1A1"/>
<rect x="70.7207" y="219.662" width="5.44" height="5.33333" transform="rotate(180 70.7207 219.662)" fill="#A1A1A1"/>
<rect x="217.6" y="192.994" width="5.33333" height="5.44" transform="rotate(90 217.6 192.994)" fill="#A1A1A1"/>
<rect x="65.2803" y="267.662" width="5.44" height="5.33333" transform="rotate(180 65.2803 267.662)" fill="#A1A1A1"/>
<rect x="174.08" y="17.002" width="5.44" height="5.33333" transform="rotate(180 174.08 17.002)" fill="#A1A1A1"/>
<rect x="174.08" y="64.998" width="5.44" height="5.33333" transform="rotate(180 174.08 64.998)" fill="#A1A1A1"/>
<rect x="179.521" y="219.662" width="5.44" height="5.33333" transform="rotate(180 179.521 219.662)" fill="#A1A1A1"/>
<rect x="59.8398" y="102.33" width="5.33333" height="5.44" transform="rotate(90 59.8398 102.33)" fill="#A1A1A1"/>
<rect x="217.6" y="86.3301" width="5.33333" height="5.44" transform="rotate(90 217.6 86.3301)" fill="#A1A1A1"/>
<rect x="136" y="86.3301" width="5.33333" height="5.44" transform="rotate(90 136 86.3301)" fill="#A1A1A1"/>
<rect x="136" y="38.3301" width="5.33333" height="5.44" transform="rotate(90 136 38.3301)" fill="#A1A1A1"/>
<rect x="136" y="192.994" width="5.33333" height="5.44" transform="rotate(90 136 192.994)" fill="#A1A1A1"/>
<rect x="136" y="240.998" width="5.33333" height="5.44" transform="rotate(90 136 240.998)" fill="#A1A1A1"/>
<rect x="190.4" y="139.666" width="5.44" height="5.33333" transform="rotate(180 190.4 139.666)" fill="#A1A1A1"/>
<rect x="239.36" y="139.666" width="5.44" height="5.33333" transform="rotate(180 239.36 139.666)" fill="#A1A1A1"/>
<rect x="81.6006" y="139.666" width="5.44" height="5.33333" transform="rotate(180 81.6006 139.666)" fill="#A1A1A1"/>
<rect x="32.6396" y="139.666" width="5.44" height="5.33333" transform="rotate(180 32.6396 139.666)" fill="#A1A1A1"/>
<rect x="174.08" y="267.662" width="5.44" height="5.33333" transform="rotate(180 174.08 267.662)" fill="#A1A1A1"/>
<rect x="38.0801" y="17.002" width="5.44" height="5.33333" transform="rotate(180 38.0801 17.002)" fill="#A1A1A1"/>
<rect x="38.0801" y="267.662" width="5.44" height="5.33333" transform="rotate(180 38.0801 267.662)" fill="#A1A1A1"/>
<rect x="146.88" y="17.002" width="5.44" height="5.33333" transform="rotate(180 146.88 17.002)" fill="#A1A1A1"/>
<rect x="152.32" y="219.662" width="5.44" height="5.33333" transform="rotate(180 152.32 219.662)" fill="#A1A1A1"/>
<rect x="59.8398" y="128.998" width="5.33333" height="5.44" transform="rotate(90 59.8398 128.998)" fill="#A1A1A1"/>
<rect x="217.6" y="112.998" width="5.33333" height="5.44" transform="rotate(90 217.6 112.998)" fill="#A1A1A1"/>
<rect x="92.4795" y="17.002" width="5.44" height="5.33333" transform="rotate(180 92.4795 17.002)" fill="#A1A1A1"/>
<rect x="92.4795" y="64.998" width="5.44" height="5.33333" transform="rotate(180 92.4795 64.998)" fill="#A1A1A1"/>
<rect x="97.9199" y="219.662" width="5.44" height="5.33333" transform="rotate(180 97.9199 219.662)" fill="#A1A1A1"/>
<rect x="59.8398" y="182.33" width="5.33333" height="5.44" transform="rotate(90 59.8398 182.33)" fill="#A1A1A1"/>
<rect x="217.6" y="166.334" width="5.33333" height="5.44" transform="rotate(90 217.6 166.334)" fill="#A1A1A1"/>
<rect x="92.4795" y="267.662" width="5.44" height="5.33333" transform="rotate(180 92.4795 267.662)" fill="#A1A1A1"/>
<rect x="201.279" y="17.002" width="5.44" height="5.33333" transform="rotate(180 201.279 17.002)" fill="#A1A1A1"/>
<rect x="201.279" y="64.998" width="5.44" height="5.33333" transform="rotate(180 201.279 64.998)" fill="#A1A1A1"/>
<rect x="206.721" y="219.662" width="5.44" height="5.33333" transform="rotate(180 206.721 219.662)" fill="#A1A1A1"/>
<rect x="59.8398" y="75.666" width="5.33333" height="5.44" transform="rotate(90 59.8398 75.666)" fill="#A1A1A1"/>
<rect x="201.279" y="267.662" width="5.44" height="5.33333" transform="rotate(180 201.279 267.662)" fill="#A1A1A1"/>
<rect x="244.801" y="17.002" width="5.44" height="5.33333" transform="rotate(180 244.801 17.002)" fill="#A1A1A1"/>
<rect x="244.801" y="267.662" width="5.44" height="5.33333" transform="rotate(180 244.801 267.662)" fill="#A1A1A1"/>
<rect x="125.12" y="17.002" width="5.44" height="5.33333" transform="rotate(180 125.12 17.002)" fill="#A1A1A1"/>
<rect x="130.561" y="219.662" width="5.44" height="5.33333" transform="rotate(180 130.561 219.662)" fill="#A1A1A1"/>
<rect x="59.8398" y="150.33" width="5.33333" height="5.44" transform="rotate(90 59.8398 150.33)" fill="#A1A1A1"/>
<rect x="70.7207" y="17.002" width="5.44" height="5.33333" transform="rotate(180 70.7207 17.002)" fill="#A1A1A1"/>
<rect x="70.7207" y="64.998" width="5.44" height="5.33333" transform="rotate(180 70.7207 64.998)" fill="#A1A1A1"/>
<rect x="76.1602" y="219.662" width="5.44" height="5.33333" transform="rotate(180 76.1602 219.662)" fill="#A1A1A1"/>
<rect x="59.8398" y="203.666" width="5.33333" height="5.44" transform="rotate(90 59.8398 203.666)" fill="#A1A1A1"/>
<rect x="217.6" y="187.666" width="5.33333" height="5.44" transform="rotate(90 217.6 187.666)" fill="#A1A1A1"/>
<rect x="70.7207" y="267.662" width="5.44" height="5.33333" transform="rotate(180 70.7207 267.662)" fill="#A1A1A1"/>
<rect x="179.521" y="17.002" width="5.44" height="5.33333" transform="rotate(180 179.521 17.002)" fill="#A1A1A1"/>
<rect x="179.521" y="64.998" width="5.44" height="5.33333" transform="rotate(180 179.521 64.998)" fill="#A1A1A1"/>
<rect x="184.96" y="219.662" width="5.44" height="5.33333" transform="rotate(180 184.96 219.662)" fill="#A1A1A1"/>
<rect x="59.8398" y="96.998" width="5.33333" height="5.44" transform="rotate(90 59.8398 96.998)" fill="#A1A1A1"/>
<rect x="217.6" y="80.998" width="5.33333" height="5.44" transform="rotate(90 217.6 80.998)" fill="#A1A1A1"/>
<rect x="136" y="80.998" width="5.33333" height="5.44" transform="rotate(90 136 80.998)" fill="#A1A1A1"/>
<rect x="136" y="32.998" width="5.33333" height="5.44" transform="rotate(90 136 32.998)" fill="#A1A1A1"/>
<rect x="136" y="187.666" width="5.33333" height="5.44" transform="rotate(90 136 187.666)" fill="#A1A1A1"/>
<rect x="136" y="235.666" width="5.33333" height="5.44" transform="rotate(90 136 235.666)" fill="#A1A1A1"/>
<rect x="195.84" y="139.666" width="5.44" height="5.33333" transform="rotate(180 195.84 139.666)" fill="#A1A1A1"/>
<rect x="244.801" y="139.666" width="5.44" height="5.33333" transform="rotate(180 244.801 139.666)" fill="#A1A1A1"/>
<rect x="87.0391" y="139.666" width="5.44" height="5.33333" transform="rotate(180 87.0391 139.666)" fill="#A1A1A1"/>
<rect x="38.0801" y="139.666" width="5.44" height="5.33333" transform="rotate(180 38.0801 139.666)" fill="#A1A1A1"/>
<rect x="179.521" y="267.662" width="5.44" height="5.33333" transform="rotate(180 179.521 267.662)" fill="#A1A1A1"/>
<rect x="43.5195" y="17.002" width="5.44" height="5.33333" transform="rotate(180 43.5195 17.002)" fill="#A1A1A1"/>
<rect x="43.5195" y="267.662" width="5.44" height="5.33333" transform="rotate(180 43.5195 267.662)" fill="#A1A1A1"/>
<rect x="152.32" y="17.002" width="5.44" height="5.33333" transform="rotate(180 152.32 17.002)" fill="#A1A1A1"/>
<rect x="152.32" y="64.998" width="5.44" height="5.33333" transform="rotate(180 152.32 64.998)" fill="#A1A1A1"/>
<rect x="152.32" y="112.998" width="5.44" height="5.33333" transform="rotate(180 152.32 112.998)" fill="#A1A1A1"/>
<rect x="152.32" y="171.666" width="5.44" height="5.33333" transform="rotate(180 152.32 171.666)" fill="#A1A1A1"/>
<rect x="157.76" y="219.662" width="5.44" height="5.33333" transform="rotate(180 157.76 219.662)" fill="#A1A1A1"/>
<rect x="217.6" y="107.666" width="5.33333" height="5.44" transform="rotate(90 217.6 107.666)" fill="#A1A1A1"/>
<rect x="152.32" y="267.662" width="5.44" height="5.33333" transform="rotate(180 152.32 267.662)" fill="#A1A1A1"/>
<rect x="97.9199" y="17.002" width="5.44" height="5.33333" transform="rotate(180 97.9199 17.002)" fill="#A1A1A1"/>
<rect x="97.9199" y="64.998" width="5.44" height="5.33333" transform="rotate(180 97.9199 64.998)" fill="#A1A1A1"/>
<rect x="103.359" y="219.662" width="5.44" height="5.33333" transform="rotate(180 103.359 219.662)" fill="#A1A1A1"/>
<rect x="59.8398" y="176.998" width="5.33333" height="5.44" transform="rotate(90 59.8398 176.998)" fill="#A1A1A1"/>
<rect x="217.6" y="160.998" width="5.33333" height="5.44" transform="rotate(90 217.6 160.998)" fill="#A1A1A1"/>
<rect x="97.9199" y="267.662" width="5.44" height="5.33333" transform="rotate(180 97.9199 267.662)" fill="#A1A1A1"/>
<rect x="206.721" y="17.002" width="5.44" height="5.33333" transform="rotate(180 206.721 17.002)" fill="#A1A1A1"/>
<rect x="206.721" y="64.998" width="5.44" height="5.33333" transform="rotate(180 206.721 64.998)" fill="#A1A1A1"/>
<rect x="59.8398" y="70.3301" width="5.33333" height="5.44" transform="rotate(90 59.8398 70.3301)" fill="#A1A1A1"/>
<rect x="206.721" y="267.662" width="5.44" height="5.33333" transform="rotate(180 206.721 267.662)" fill="#A1A1A1"/>
<rect x="250.239" y="17.002" width="5.44" height="5.33333" transform="rotate(180 250.239 17.002)" fill="#A1A1A1"/>
<rect x="250.239" y="267.662" width="5.44" height="5.33333" transform="rotate(180 250.239 267.662)" fill="#A1A1A1"/>
<rect x="21.7607" y="17.002" width="5.44" height="5.33333" transform="rotate(180 21.7607 17.002)" fill="#A1A1A1"/>
<rect x="21.7607" y="267.662" width="5.44" height="5.33333" transform="rotate(180 21.7607 267.662)" fill="#A1A1A1"/>
<rect x="130.561" y="64.998" width="5.44" height="5.33333" transform="rotate(180 130.561 64.998)" fill="#A1A1A1"/>
<rect x="130.561" y="112.998" width="5.44" height="5.33333" transform="rotate(180 130.561 112.998)" fill="#A1A1A1"/>
<rect x="130.561" y="171.666" width="5.44" height="5.33333" transform="rotate(180 130.561 171.666)" fill="#A1A1A1"/>
<rect x="103.359" y="128.998" width="5.33333" height="5.44" transform="rotate(90 103.359 128.998)" fill="#A1A1A1"/>
<rect x="168.64" y="128.998" width="5.33333" height="5.44" transform="rotate(90 168.64 128.998)" fill="#A1A1A1"/>
<rect x="217.6" y="128.998" width="5.33333" height="5.44" transform="rotate(90 217.6 128.998)" fill="#A1A1A1"/>
<rect x="130.561" y="267.662" width="5.44" height="5.33333" transform="rotate(180 130.561 267.662)" fill="#A1A1A1"/>
<rect x="76.1602" y="17.002" width="5.44" height="5.33333" transform="rotate(180 76.1602 17.002)" fill="#A1A1A1"/>
<rect x="76.1602" y="64.998" width="5.44" height="5.33333" transform="rotate(180 76.1602 64.998)" fill="#A1A1A1"/>
<rect x="81.6006" y="219.662" width="5.44" height="5.33333" transform="rotate(180 81.6006 219.662)" fill="#A1A1A1"/>
<rect x="59.8398" y="198.334" width="5.33333" height="5.44" transform="rotate(90 59.8398 198.334)" fill="#A1A1A1"/>
<rect x="217.6" y="182.33" width="5.33333" height="5.44" transform="rotate(90 217.6 182.33)" fill="#A1A1A1"/>
<rect x="76.1602" y="267.662" width="5.44" height="5.33333" transform="rotate(180 76.1602 267.662)" fill="#A1A1A1"/>
<rect x="184.96" y="17.002" width="5.44" height="5.33333" transform="rotate(180 184.96 17.002)" fill="#A1A1A1"/>
<rect x="184.96" y="64.998" width="5.44" height="5.33333" transform="rotate(180 184.96 64.998)" fill="#A1A1A1"/>
<rect x="190.4" y="219.662" width="5.44" height="5.33333" transform="rotate(180 190.4 219.662)" fill="#A1A1A1"/>
<rect x="59.8398" y="91.666" width="5.33333" height="5.44" transform="rotate(90 59.8398 91.666)" fill="#A1A1A1"/>
<rect x="217.6" y="75.666" width="5.33333" height="5.44" transform="rotate(90 217.6 75.666)" fill="#A1A1A1"/>
<rect x="136" y="75.666" width="5.33333" height="5.44" transform="rotate(90 136 75.666)" fill="#A1A1A1"/>
<rect x="136" y="27.666" width="5.33333" height="5.44" transform="rotate(90 136 27.666)" fill="#A1A1A1"/>
<rect x="136" y="182.33" width="5.33333" height="5.44" transform="rotate(90 136 182.33)" fill="#A1A1A1"/>
<rect x="136" y="230.33" width="5.33333" height="5.44" transform="rotate(90 136 230.33)" fill="#A1A1A1"/>
<rect x="201.279" y="139.666" width="5.44" height="5.33333" transform="rotate(180 201.279 139.666)" fill="#A1A1A1"/>
<rect x="250.239" y="139.666" width="5.44" height="5.33333" transform="rotate(180 250.239 139.666)" fill="#A1A1A1"/>
<rect x="43.5195" y="139.666" width="5.44" height="5.33333" transform="rotate(180 43.5195 139.666)" fill="#A1A1A1"/>
<rect x="184.96" y="267.662" width="5.44" height="5.33333" transform="rotate(180 184.96 267.662)" fill="#A1A1A1"/>
<rect x="228.48" y="17.002" width="5.44" height="5.33333" transform="rotate(180 228.48 17.002)" fill="#A1A1A1"/>
<rect x="228.48" y="267.662" width="5.44" height="5.33333" transform="rotate(180 228.48 267.662)" fill="#A1A1A1"/>
<rect x="48.96" y="17.002" width="5.44" height="5.33333" transform="rotate(180 48.96 17.002)" fill="#A1A1A1"/>
<rect x="48.96" y="267.662" width="5.44" height="5.33333" transform="rotate(180 48.96 267.662)" fill="#A1A1A1"/>
<rect x="157.76" y="17.002" width="5.44" height="5.33333" transform="rotate(180 157.76 17.002)" fill="#A1A1A1"/>
<rect x="157.76" y="64.998" width="5.44" height="5.33333" transform="rotate(180 157.76 64.998)" fill="#A1A1A1"/>
<rect x="157.76" y="112.998" width="5.44" height="5.33333" transform="rotate(180 157.76 112.998)" fill="#A1A1A1"/>
<rect x="157.76" y="171.666" width="5.44" height="5.33333" transform="rotate(180 157.76 171.666)" fill="#A1A1A1"/>
<rect x="163.2" y="219.662" width="5.44" height="5.33333" transform="rotate(180 163.2 219.662)" fill="#A1A1A1"/>
<rect x="59.8398" y="118.33" width="5.33333" height="5.44" transform="rotate(90 59.8398 118.33)" fill="#A1A1A1"/>
<rect x="217.6" y="102.33" width="5.33333" height="5.44" transform="rotate(90 217.6 102.33)" fill="#A1A1A1"/>
<rect x="157.76" y="267.662" width="5.44" height="5.33333" transform="rotate(180 157.76 267.662)" fill="#A1A1A1"/>
<rect x="103.359" y="17.002" width="5.44" height="5.33333" transform="rotate(180 103.359 17.002)" fill="#A1A1A1"/>
<rect x="103.359" y="64.998" width="5.44" height="5.33333" transform="rotate(180 103.359 64.998)" fill="#A1A1A1"/>
<rect x="103.359" y="155.662" width="5.33333" height="5.44" transform="rotate(90 103.359 155.662)" fill="#A1A1A1"/>
<rect x="168.64" y="155.662" width="5.33333" height="5.44" transform="rotate(90 168.64 155.662)" fill="#A1A1A1"/>
<rect x="108.8" y="219.662" width="5.44" height="5.33333" transform="rotate(180 108.8 219.662)" fill="#A1A1A1"/>
<rect x="59.8398" y="171.666" width="5.33333" height="5.44" transform="rotate(90 59.8398 171.666)" fill="#A1A1A1"/>
<rect x="217.6" y="155.662" width="5.33333" height="5.44" transform="rotate(90 217.6 155.662)" fill="#A1A1A1"/>
<rect x="103.359" y="267.662" width="5.44" height="5.33333" transform="rotate(180 103.359 267.662)" fill="#A1A1A1"/>
<rect x="212.16" y="17.002" width="5.44" height="5.33333" transform="rotate(180 212.16 17.002)" fill="#A1A1A1"/>
<rect x="212.16" y="267.662" width="5.44" height="5.33333" transform="rotate(180 212.16 267.662)" fill="#A1A1A1"/>
<rect x="255.68" y="17.002" width="5.44" height="5.33333" transform="rotate(180 255.68 17.002)" fill="#A1A1A1"/>
<rect x="255.68" y="267.662" width="5.44" height="5.33333" transform="rotate(180 255.68 267.662)" fill="#A1A1A1"/>
<rect x="32.6396" y="17.002" width="5.44" height="5.33333" transform="rotate(180 32.6396 17.002)" fill="#A1A1A1"/>
<rect x="32.6396" y="267.662" width="5.44" height="5.33333" transform="rotate(180 32.6396 267.662)" fill="#A1A1A1"/>
<rect x="141.439" y="64.998" width="5.44" height="5.33333" transform="rotate(180 141.439 64.998)" fill="#A1A1A1"/>
<rect x="141.439" y="112.998" width="5.44" height="5.33333" transform="rotate(180 141.439 112.998)" fill="#A1A1A1"/>
<rect x="141.439" y="171.666" width="5.44" height="5.33333" transform="rotate(180 141.439 171.666)" fill="#A1A1A1"/>
<rect x="103.359" y="118.33" width="5.33333" height="5.44" transform="rotate(90 103.359 118.33)" fill="#A1A1A1"/>
<rect x="168.64" y="118.33" width="5.33333" height="5.44" transform="rotate(90 168.64 118.33)" fill="#A1A1A1"/>
<rect x="217.6" y="118.33" width="5.33333" height="5.44" transform="rotate(90 217.6 118.33)" fill="#A1A1A1"/>
<rect x="141.439" y="267.662" width="5.44" height="5.33333" transform="rotate(180 141.439 267.662)" fill="#A1A1A1"/>
<rect x="87.0391" y="17.002" width="5.44" height="5.33333" transform="rotate(180 87.0391 17.002)" fill="#A1A1A1"/>
<rect x="87.0391" y="64.998" width="5.44" height="5.33333" transform="rotate(180 87.0391 64.998)" fill="#A1A1A1"/>
<rect x="92.4795" y="219.662" width="5.44" height="5.33333" transform="rotate(180 92.4795 219.662)" fill="#A1A1A1"/>
<rect x="59.8398" y="187.666" width="5.33333" height="5.44" transform="rotate(90 59.8398 187.666)" fill="#A1A1A1"/>
<rect x="217.6" y="171.666" width="5.33333" height="5.44" transform="rotate(90 217.6 171.666)" fill="#A1A1A1"/>
<rect x="87.0391" y="267.662" width="5.44" height="5.33333" transform="rotate(180 87.0391 267.662)" fill="#A1A1A1"/>
<rect x="195.84" y="17.002" width="5.44" height="5.33333" transform="rotate(180 195.84 17.002)" fill="#A1A1A1"/>
<rect x="195.84" y="64.998" width="5.44" height="5.33333" transform="rotate(180 195.84 64.998)" fill="#A1A1A1"/>
<rect x="201.279" y="219.662" width="5.44" height="5.33333" transform="rotate(180 201.279 219.662)" fill="#A1A1A1"/>
<rect x="59.8398" y="80.998" width="5.33333" height="5.44" transform="rotate(90 59.8398 80.998)" fill="#A1A1A1"/>
<rect x="136" y="64.998" width="5.33333" height="5.44" transform="rotate(90 136 64.998)" fill="#A1A1A1"/>
<rect x="136" y="171.666" width="5.33333" height="5.44" transform="rotate(90 136 171.666)" fill="#A1A1A1"/>
<rect x="136" y="160.998" width="5.33333" height="5.44" transform="rotate(90 136 160.998)" fill="#A1A1A1"/>
<rect x="136" y="219.662" width="5.33333" height="5.44" transform="rotate(90 136 219.662)" fill="#A1A1A1"/>
<rect x="212.16" y="139.666" width="5.44" height="5.33333" transform="rotate(180 212.16 139.666)" fill="#A1A1A1"/>
<rect x="261.121" y="139.666" width="5.44" height="5.33333" transform="rotate(180 261.121 139.666)" fill="#A1A1A1"/>
<rect x="272" y="139.666" width="5.44" height="5.33333" transform="rotate(180 272 139.666)" fill="#A1A1A1"/>
<rect x="54.4004" y="139.666" width="5.44" height="5.33333" transform="rotate(180 54.4004 139.666)" fill="#A1A1A1"/>
<rect x="195.84" y="267.662" width="5.44" height="5.33333" transform="rotate(180 195.84 267.662)" fill="#A1A1A1"/>
<rect x="239.36" y="17.002" width="5.44" height="5.33333" transform="rotate(180 239.36 17.002)" fill="#A1A1A1"/>
<rect x="239.36" y="267.662" width="5.44" height="5.33333" transform="rotate(180 239.36 267.662)" fill="#A1A1A1"/>
<rect x="59.8398" y="17.002" width="5.44" height="5.33333" transform="rotate(180 59.8398 17.002)" fill="#A1A1A1"/>
<rect x="217.6" y="198.334" width="5.33333" height="5.44" transform="rotate(90 217.6 198.334)" fill="#A1A1A1"/>
<rect x="59.8398" y="267.662" width="5.44" height="5.33333" transform="rotate(180 59.8398 267.662)" fill="#A1A1A1"/>
<rect x="168.64" y="17.002" width="5.44" height="5.33333" transform="rotate(180 168.64 17.002)" fill="#A1A1A1"/>
<rect x="168.64" y="64.998" width="5.44" height="5.33333" transform="rotate(180 168.64 64.998)" fill="#A1A1A1"/>
<rect x="174.08" y="219.662" width="5.44" height="5.33333" transform="rotate(180 174.08 219.662)" fill="#A1A1A1"/>
<rect x="59.8398" y="107.666" width="5.33333" height="5.44" transform="rotate(90 59.8398 107.666)" fill="#A1A1A1"/>
<rect x="217.6" y="91.666" width="5.33333" height="5.44" transform="rotate(90 217.6 91.666)" fill="#A1A1A1"/>
<rect x="136" y="91.666" width="5.33333" height="5.44" transform="rotate(90 136 91.666)" fill="#A1A1A1"/>
<rect x="136" y="43.6621" width="5.33333" height="5.44" transform="rotate(90 136 43.6621)" fill="#A1A1A1"/>
<rect x="136" y="198.334" width="5.33333" height="5.44" transform="rotate(90 136 198.334)" fill="#A1A1A1"/>
<rect x="136" y="246.33" width="5.33333" height="5.44" transform="rotate(90 136 246.33)" fill="#A1A1A1"/>
<rect x="184.96" y="139.666" width="5.44" height="5.33333" transform="rotate(180 184.96 139.666)" fill="#A1A1A1"/>
<rect x="233.92" y="139.666" width="5.44" height="5.33333" transform="rotate(180 233.92 139.666)" fill="#A1A1A1"/>
<rect x="76.1602" y="139.666" width="5.44" height="5.33333" transform="rotate(180 76.1602 139.666)" fill="#A1A1A1"/>
<rect x="27.2002" y="139.666" width="5.44" height="5.33333" transform="rotate(180 27.2002 139.666)" fill="#A1A1A1"/>
<rect x="168.64" y="267.662" width="5.44" height="5.33333" transform="rotate(180 168.64 267.662)" fill="#A1A1A1"/>
<rect x="114.24" y="17.002" width="5.44" height="5.33333" transform="rotate(180 114.24 17.002)" fill="#A1A1A1"/>
<rect x="114.24" y="64.998" width="5.44" height="5.33333" transform="rotate(180 114.24 64.998)" fill="#A1A1A1"/>
<rect x="119.68" y="219.662" width="5.44" height="5.33333" transform="rotate(180 119.68 219.662)" fill="#A1A1A1"/>
<rect x="59.8398" y="160.998" width="5.33333" height="5.44" transform="rotate(90 59.8398 160.998)" fill="#A1A1A1"/>
<rect x="114.24" y="267.662" width="5.44" height="5.33333" transform="rotate(180 114.24 267.662)" fill="#A1A1A1"/>
<rect x="223.04" y="17.002" width="5.44" height="5.33333" transform="rotate(180 223.04 17.002)" fill="#A1A1A1"/>
<rect x="223.04" y="267.662" width="5.44" height="5.33333" transform="rotate(180 223.04 267.662)" fill="#A1A1A1"/>
<rect x="27.2002" y="17.002" width="5.44" height="5.33333" transform="rotate(180 27.2002 17.002)" fill="#A1A1A1"/>
<rect x="27.2002" y="267.662" width="5.44" height="5.33333" transform="rotate(180 27.2002 267.662)" fill="#A1A1A1"/>
<rect x="141.439" y="219.662" width="5.44" height="5.33333" transform="rotate(180 141.439 219.662)" fill="#A1A1A1"/>
<rect x="59.8398" y="139.666" width="5.33333" height="5.44" transform="rotate(90 59.8398 139.666)" fill="#A1A1A1"/>
<rect x="81.6006" y="17.002" width="5.44" height="5.33333" transform="rotate(180 81.6006 17.002)" fill="#A1A1A1"/>
<rect x="81.6006" y="64.998" width="5.44" height="5.33333" transform="rotate(180 81.6006 64.998)" fill="#A1A1A1"/>
<rect x="87.0391" y="219.662" width="5.44" height="5.33333" transform="rotate(180 87.0391 219.662)" fill="#A1A1A1"/>
<rect x="59.8398" y="192.994" width="5.33333" height="5.44" transform="rotate(90 59.8398 192.994)" fill="#A1A1A1"/>
<rect x="217.6" y="176.998" width="5.33333" height="5.44" transform="rotate(90 217.6 176.998)" fill="#A1A1A1"/>
<rect x="81.6006" y="267.662" width="5.44" height="5.33333" transform="rotate(180 81.6006 267.662)" fill="#A1A1A1"/>
<rect x="190.4" y="17.002" width="5.44" height="5.33333" transform="rotate(180 190.4 17.002)" fill="#A1A1A1"/>
<rect x="190.4" y="64.998" width="5.44" height="5.33333" transform="rotate(180 190.4 64.998)" fill="#A1A1A1"/>
<rect x="195.84" y="219.662" width="5.44" height="5.33333" transform="rotate(180 195.84 219.662)" fill="#A1A1A1"/>
<rect x="59.8398" y="86.3301" width="5.33333" height="5.44" transform="rotate(90 59.8398 86.3301)" fill="#A1A1A1"/>
<rect x="217.6" y="70.3301" width="5.33333" height="5.44" transform="rotate(90 217.6 70.3301)" fill="#A1A1A1"/>
<rect x="136" y="22.3301" width="5.33333" height="5.44" transform="rotate(90 136 22.3301)" fill="#A1A1A1"/>
<rect x="136" y="11.6621" width="5.33333" height="5.44" transform="rotate(90 136 11.6621)" fill="#A1A1A1"/>
<rect x="141.439" y="6.33008" width="5.33333" height="5.44" transform="rotate(90 141.439 6.33008)" fill="#A1A1A1"/>
<rect x="130.561" y="6.33008" width="5.33333" height="5.44" transform="rotate(90 130.561 6.33008)" fill="#A1A1A1"/>
<rect width="5.33333" height="5.44" transform="matrix(2.77645e-06 1 -1 2.38036e-08 136 0.998047)" fill="#A1A1A1"/>
<rect x="97.9199" y="139.666" width="5.44" height="5.33333" transform="rotate(180 97.9199 139.666)" fill="#A1A1A1"/>
<rect x="108.8" y="139.666" width="5.44" height="5.33333" transform="rotate(180 108.8 139.666)" fill="#A1A1A1"/>
<rect x="190.4" y="267.662" width="5.44" height="5.33333" transform="rotate(180 190.4 267.662)" fill="#A1A1A1"/>
<rect x="233.92" y="17.002" width="5.44" height="5.33333" transform="rotate(180 233.92 17.002)" fill="#A1A1A1"/>
<rect x="233.92" y="267.662" width="5.44" height="5.33333" transform="rotate(180 233.92 267.662)" fill="#A1A1A1"/>
<rect x="54.4004" y="17.002" width="5.44" height="5.33333" transform="rotate(180 54.4004 17.002)" fill="#A1A1A1"/>
<rect x="217.6" y="203.666" width="5.33333" height="5.44" transform="rotate(90 217.6 203.666)" fill="#A1A1A1"/>
<rect x="54.4004" y="267.662" width="5.44" height="5.33333" transform="rotate(180 54.4004 267.662)" fill="#A1A1A1"/>
<rect x="163.2" y="17.002" width="5.44" height="5.33333" transform="rotate(180 163.2 17.002)" fill="#A1A1A1"/>
<rect x="163.2" y="64.998" width="5.44" height="5.33333" transform="rotate(180 163.2 64.998)" fill="#A1A1A1"/>
<rect x="168.64" y="219.662" width="5.44" height="5.33333" transform="rotate(180 168.64 219.662)" fill="#A1A1A1"/>
<rect x="59.8398" y="112.998" width="5.33333" height="5.44" transform="rotate(90 59.8398 112.998)" fill="#A1A1A1"/>
<rect x="217.6" y="96.998" width="5.33333" height="5.44" transform="rotate(90 217.6 96.998)" fill="#A1A1A1"/>
<rect x="136" y="102.33" width="5.33333" height="5.44" transform="rotate(90 136 102.33)" fill="#A1A1A1"/>
<rect x="136" y="112.998" width="5.33333" height="5.44" transform="rotate(90 136 112.998)" fill="#A1A1A1"/>
<rect x="136" y="54.334" width="5.33333" height="5.44" transform="rotate(90 136 54.334)" fill="#A1A1A1"/>
<rect x="136" y="208.998" width="5.33333" height="5.44" transform="rotate(90 136 208.998)" fill="#A1A1A1"/>
<rect x="136" y="256.998" width="5.33333" height="5.44" transform="rotate(90 136 256.998)" fill="#A1A1A1"/>
<rect x="136" y="267.662" width="5.33333" height="5.44" transform="rotate(90 136 267.662)" fill="#A1A1A1"/>
<rect x="174.08" y="139.666" width="5.44" height="5.33333" transform="rotate(180 174.08 139.666)" fill="#A1A1A1"/>
<rect x="163.2" y="139.666" width="5.44" height="5.33333" transform="rotate(180 163.2 139.666)" fill="#A1A1A1"/>
<rect x="223.04" y="139.666" width="5.44" height="5.33333" transform="rotate(180 223.04 139.666)" fill="#A1A1A1"/>
<rect x="65.2803" y="139.666" width="5.44" height="5.33333" transform="rotate(180 65.2803 139.666)" fill="#A1A1A1"/>
<rect x="16.3203" y="139.666" width="5.44" height="5.33333" transform="rotate(180 16.3203 139.666)" fill="#A1A1A1"/>
<rect x="5.44043" y="139.666" width="5.44" height="5.33333" transform="rotate(180 5.44043 139.666)" fill="#A1A1A1"/>
<rect x="163.2" y="267.662" width="5.44" height="5.33333" transform="rotate(180 163.2 267.662)" fill="#A1A1A1"/>
<rect x="108.8" y="17.002" width="5.44" height="5.33333" transform="rotate(180 108.8 17.002)" fill="#A1A1A1"/>
<rect x="108.8" y="64.998" width="5.44" height="5.33333" transform="rotate(180 108.8 64.998)" fill="#A1A1A1"/>
<rect x="103.359" y="150.33" width="5.33333" height="5.44" transform="rotate(90 103.359 150.33)" fill="#A1A1A1"/>
<rect x="168.64" y="150.33" width="5.33333" height="5.44" transform="rotate(90 168.64 150.33)" fill="#A1A1A1"/>
<rect x="114.24" y="219.662" width="5.44" height="5.33333" transform="rotate(180 114.24 219.662)" fill="#A1A1A1"/>
<rect x="59.8398" y="166.334" width="5.33333" height="5.44" transform="rotate(90 59.8398 166.334)" fill="#A1A1A1"/>
<rect x="217.6" y="150.33" width="5.33333" height="5.44" transform="rotate(90 217.6 150.33)" fill="#A1A1A1"/>
<rect x="108.8" y="267.662" width="5.44" height="5.33333" transform="rotate(180 108.8 267.662)" fill="#A1A1A1"/>
<rect x="217.6" y="17.002" width="5.44" height="5.33333" transform="rotate(180 217.6 17.002)" fill="#A1A1A1"/>
<rect x="217.6" y="267.662" width="5.44" height="5.33333" transform="rotate(180 217.6 267.662)" fill="#A1A1A1"/>
<rect x="261.121" y="102.33" width="5.33333" height="5.44" transform="rotate(-90 261.121 102.33)" fill="#A1A1A1"/>
<rect x="5.44043" y="102.33" width="5.33333" height="5.44" transform="rotate(-90 5.44043 102.33)" fill="#A1A1A1"/>
<rect x="261.121" y="48.998" width="5.33333" height="5.44" transform="rotate(-90 261.121 48.998)" fill="#A1A1A1"/>
<rect x="5.44043" y="48.998" width="5.33333" height="5.44" transform="rotate(-90 5.44043 48.998)" fill="#A1A1A1"/>
<rect x="261.121" y="155.662" width="5.33333" height="5.44" transform="rotate(-90 261.121 155.662)" fill="#A1A1A1"/>
<rect x="5.44043" y="155.662" width="5.33333" height="5.44" transform="rotate(-90 5.44043 155.662)" fill="#A1A1A1"/>
<rect x="261.121" y="75.666" width="5.33333" height="5.44" transform="rotate(-90 261.121 75.666)" fill="#A1A1A1"/>
<rect x="5.44043" y="75.666" width="5.33333" height="5.44" transform="rotate(-90 5.44043 75.666)" fill="#A1A1A1"/>
<rect x="261.121" y="182.33" width="5.33333" height="5.44" transform="rotate(-90 261.121 182.33)" fill="#A1A1A1"/>
<rect x="5.44043" y="182.33" width="5.33333" height="5.44" transform="rotate(-90 5.44043 182.33)" fill="#A1A1A1"/>
<rect x="261.121" y="225.002" width="5.33333" height="5.44" transform="rotate(-90 261.121 225.002)" fill="#A1A1A1"/>
<rect x="5.44043" y="225.002" width="5.33333" height="5.44" transform="rotate(-90 5.44043 225.002)" fill="#A1A1A1"/>
<rect x="261.121" y="107.666" width="5.33333" height="5.44" transform="rotate(-90 261.121 107.666)" fill="#A1A1A1"/>
<rect x="5.44043" y="107.666" width="5.33333" height="5.44" transform="rotate(-90 5.44043 107.666)" fill="#A1A1A1"/>
<rect x="261.121" y="54.334" width="5.33333" height="5.44" transform="rotate(-90 261.121 54.334)" fill="#A1A1A1"/>
<rect x="5.44043" y="54.334" width="5.33333" height="5.44" transform="rotate(-90 5.44043 54.334)" fill="#A1A1A1"/>
<rect x="261.121" y="160.998" width="5.33333" height="5.44" transform="rotate(-90 261.121 160.998)" fill="#A1A1A1"/>
<rect x="5.44043" y="160.998" width="5.33333" height="5.44" transform="rotate(-90 5.44043 160.998)" fill="#A1A1A1"/>
<rect x="261.121" y="27.666" width="5.33333" height="5.44" transform="rotate(-90 261.121 27.666)" fill="#A1A1A1"/>
<rect x="261.121" y="17.002" width="5.33333" height="5.44" transform="rotate(-90 261.121 17.002)" fill="#A1A1A1"/>
<rect x="261.121" y="272.998" width="5.33333" height="5.44" transform="rotate(-90 261.121 272.998)" fill="#A1A1A1"/>
<rect width="5.33333" height="5.44" transform="matrix(-2.12776e-08 -1 1 -2.38544e-06 0 272.998)" fill="#A1A1A1"/>
<rect x="261.121" y="11.6621" width="5.33333" height="5.44" transform="rotate(-90 261.121 11.6621)" fill="#A1A1A1"/>
<rect x="261.121" y="267.662" width="5.33333" height="5.44" transform="rotate(-90 261.121 267.662)" fill="#A1A1A1"/>
<rect width="5.33333" height="5.44" transform="matrix(-1.43624e-08 -1 1 -3.53399e-06 0 267.662)" fill="#A1A1A1"/>
<rect x="266.56" y="11.6621" width="5.33333" height="5.44" transform="rotate(-90 266.56 11.6621)" fill="#A1A1A1"/>
<rect x="266.56" y="267.662" width="5.33333" height="5.44" transform="rotate(-90 266.56 267.662)" fill="#A1A1A1"/>
<rect x="5.44043" y="267.662" width="5.33333" height="5.44" transform="rotate(-90 5.44043 267.662)" fill="#A1A1A1"/>
<rect x="266.56" y="17.002" width="5.33333" height="5.44" transform="rotate(-90 266.56 17.002)" fill="#A1A1A1"/>
<rect x="266.56" y="272.998" width="5.33333" height="5.44" transform="rotate(-90 266.56 272.998)" fill="#A1A1A1"/>
<rect x="5.44043" y="272.998" width="5.33333" height="5.44" transform="rotate(-90 5.44043 272.998)" fill="#A1A1A1"/>
<rect x="5.44043" y="27.666" width="5.33333" height="5.44" transform="rotate(-90 5.44043 27.666)" fill="#A1A1A1"/>
<rect x="5.44043" y="17.002" width="5.33333" height="5.44" transform="rotate(-90 5.44043 17.002)" fill="#A1A1A1"/>
<rect x="54.4004" y="64.998" width="5.33333" height="5.44" transform="rotate(-90 54.4004 64.998)" fill="#A1A1A1"/>
<rect x="217.6" y="64.998" width="5.33333" height="5.44" transform="rotate(-90 217.6 64.998)" fill="#A1A1A1"/>
<rect x="168.64" y="112.998" width="5.33333" height="5.44" transform="rotate(-90 168.64 112.998)" fill="#A1A1A1"/>
<rect x="97.9199" y="112.998" width="5.33333" height="5.44" transform="rotate(-90 97.9199 112.998)" fill="#A1A1A1"/>
<rect x="97.9199" y="176.998" width="5.33333" height="5.44" transform="rotate(-90 97.9199 176.998)" fill="#A1A1A1"/>
<rect x="168.64" y="176.998" width="5.33333" height="5.44" transform="rotate(-90 168.64 176.998)" fill="#A1A1A1"/>
<rect x="217.6" y="225.002" width="5.33333" height="5.44" transform="rotate(-90 217.6 225.002)" fill="#A1A1A1"/>
<rect x="54.4004" y="225.002" width="5.33333" height="5.44" transform="rotate(-90 54.4004 225.002)" fill="#A1A1A1"/>
<rect x="5.44043" y="11.6621" width="5.33333" height="5.44" transform="rotate(-90 5.44043 11.6621)" fill="#A1A1A1"/>
<rect x="54.4004" y="59.6621" width="5.33333" height="5.44" transform="rotate(-90 54.4004 59.6621)" fill="#A1A1A1"/>
<rect x="217.6" y="59.6621" width="5.33333" height="5.44" transform="rotate(-90 217.6 59.6621)" fill="#A1A1A1"/>
<rect x="168.64" y="107.666" width="5.33333" height="5.44" transform="rotate(-90 168.64 107.666)" fill="#A1A1A1"/>
<rect x="97.9199" y="107.666" width="5.33333" height="5.44" transform="rotate(-90 97.9199 107.666)" fill="#A1A1A1"/>
<rect x="97.9199" y="171.666" width="5.33333" height="5.44" transform="rotate(-90 97.9199 171.666)" fill="#A1A1A1"/>
<rect x="168.64" y="171.666" width="5.33333" height="5.44" transform="rotate(-90 168.64 171.666)" fill="#A1A1A1"/>
<rect x="217.6" y="219.662" width="5.33333" height="5.44" transform="rotate(-90 217.6 219.662)" fill="#A1A1A1"/>
<rect x="54.4004" y="219.662" width="5.33333" height="5.44" transform="rotate(-90 54.4004 219.662)" fill="#A1A1A1"/>
<rect width="5.33333" height="5.44" transform="matrix(-1.43624e-08 -1 1 -3.53399e-06 0 11.6621)" fill="#A1A1A1"/>
<rect x="48.96" y="59.6621" width="5.33333" height="5.44" transform="rotate(-90 48.96 59.6621)" fill="#A1A1A1"/>
<rect x="212.16" y="59.6621" width="5.33333" height="5.44" transform="rotate(-90 212.16 59.6621)" fill="#A1A1A1"/>
<rect x="163.2" y="107.666" width="5.33333" height="5.44" transform="rotate(-90 163.2 107.666)" fill="#A1A1A1"/>
<rect x="92.4795" y="107.666" width="5.33333" height="5.44" transform="rotate(-90 92.4795 107.666)" fill="#A1A1A1"/>
<rect x="92.4795" y="171.666" width="5.33333" height="5.44" transform="rotate(-90 92.4795 171.666)" fill="#A1A1A1"/>
<rect x="163.2" y="171.666" width="5.33333" height="5.44" transform="rotate(-90 163.2 171.666)" fill="#A1A1A1"/>
<rect x="212.16" y="219.662" width="5.33333" height="5.44" transform="rotate(-90 212.16 219.662)" fill="#A1A1A1"/>
<rect x="48.96" y="219.662" width="5.33333" height="5.44" transform="rotate(-90 48.96 219.662)" fill="#A1A1A1"/>
<rect width="5.33333" height="5.44" transform="matrix(-2.12776e-08 -1 1 -2.38544e-06 0 17.002)" fill="#A1A1A1"/>
<rect x="48.96" y="64.998" width="5.33333" height="5.44" transform="rotate(-90 48.96 64.998)" fill="#A1A1A1"/>
<rect x="212.16" y="64.998" width="5.33333" height="5.44" transform="rotate(-90 212.16 64.998)" fill="#A1A1A1"/>
<rect x="163.2" y="112.998" width="5.33333" height="5.44" transform="rotate(-90 163.2 112.998)" fill="#A1A1A1"/>
<rect x="92.4795" y="112.998" width="5.33333" height="5.44" transform="rotate(-90 92.4795 112.998)" fill="#A1A1A1"/>
<rect x="92.4795" y="176.998" width="5.33333" height="5.44" transform="rotate(-90 92.4795 176.998)" fill="#A1A1A1"/>
<rect x="163.2" y="176.998" width="5.33333" height="5.44" transform="rotate(-90 163.2 176.998)" fill="#A1A1A1"/>
<rect x="212.16" y="225.002" width="5.33333" height="5.44" transform="rotate(-90 212.16 225.002)" fill="#A1A1A1"/>
<rect x="48.96" y="225.002" width="5.33333" height="5.44" transform="rotate(-90 48.96 225.002)" fill="#A1A1A1"/>
<rect x="261.121" y="134.334" width="5.33333" height="5.44" transform="rotate(-90 261.121 134.334)" fill="#A1A1A1"/>
<rect x="5.44043" y="134.334" width="5.33333" height="5.44" transform="rotate(-90 5.44043 134.334)" fill="#A1A1A1"/>
<rect x="261.121" y="80.998" width="5.33333" height="5.44" transform="rotate(-90 261.121 80.998)" fill="#A1A1A1"/>
<rect x="5.44043" y="80.998" width="5.33333" height="5.44" transform="rotate(-90 5.44043 80.998)" fill="#A1A1A1"/>
<rect x="261.121" y="187.666" width="5.33333" height="5.44" transform="rotate(-90 261.121 187.666)" fill="#A1A1A1"/>
<rect x="5.44043" y="187.666" width="5.33333" height="5.44" transform="rotate(-90 5.44043 187.666)" fill="#A1A1A1"/>
<rect x="261.121" y="230.33" width="5.33333" height="5.44" transform="rotate(-90 261.121 230.33)" fill="#A1A1A1"/>
<rect x="5.44043" y="230.33" width="5.33333" height="5.44" transform="rotate(-90 5.44043 230.33)" fill="#A1A1A1"/>
<rect x="261.121" y="112.998" width="5.33333" height="5.44" transform="rotate(-90 261.121 112.998)" fill="#A1A1A1"/>
<rect x="5.44043" y="112.998" width="5.33333" height="5.44" transform="rotate(-90 5.44043 112.998)" fill="#A1A1A1"/>
<rect x="261.121" y="59.6621" width="5.33333" height="5.44" transform="rotate(-90 261.121 59.6621)" fill="#A1A1A1"/>
<rect x="5.44043" y="59.6621" width="5.33333" height="5.44" transform="rotate(-90 5.44043 59.6621)" fill="#A1A1A1"/>
<rect x="261.121" y="166.334" width="5.33333" height="5.44" transform="rotate(-90 261.121 166.334)" fill="#A1A1A1"/>
<rect x="5.44043" y="166.334" width="5.33333" height="5.44" transform="rotate(-90 5.44043 166.334)" fill="#A1A1A1"/>
<rect x="261.121" y="208.998" width="5.33333" height="5.44" transform="rotate(-90 261.121 208.998)" fill="#A1A1A1"/>
<rect x="5.44043" y="208.998" width="5.33333" height="5.44" transform="rotate(-90 5.44043 208.998)" fill="#A1A1A1"/>
<rect x="261.121" y="32.998" width="5.33333" height="5.44" transform="rotate(-90 261.121 32.998)" fill="#A1A1A1"/>
<rect x="5.44043" y="32.998" width="5.33333" height="5.44" transform="rotate(-90 5.44043 32.998)" fill="#A1A1A1"/>
<rect x="261.121" y="86.3301" width="5.33333" height="5.44" transform="rotate(-90 261.121 86.3301)" fill="#A1A1A1"/>
<rect x="5.44043" y="86.3301" width="5.33333" height="5.44" transform="rotate(-90 5.44043 86.3301)" fill="#A1A1A1"/>
<rect x="261.121" y="192.994" width="5.33333" height="5.44" transform="rotate(-90 261.121 192.994)" fill="#A1A1A1"/>
<rect x="5.44043" y="192.994" width="5.33333" height="5.44" transform="rotate(-90 5.44043 192.994)" fill="#A1A1A1"/>
<rect x="261.121" y="235.666" width="5.33333" height="5.44" transform="rotate(-90 261.121 235.666)" fill="#A1A1A1"/>
<rect x="5.44043" y="235.666" width="5.33333" height="5.44" transform="rotate(-90 5.44043 235.666)" fill="#A1A1A1"/>
<rect x="261.121" y="251.662" width="5.33333" height="5.44" transform="rotate(-90 261.121 251.662)" fill="#A1A1A1"/>
<rect x="5.44043" y="251.662" width="5.33333" height="5.44" transform="rotate(-90 5.44043 251.662)" fill="#A1A1A1"/>
<rect x="261.121" y="123.666" width="5.33333" height="5.44" transform="rotate(-90 261.121 123.666)" fill="#A1A1A1"/>
<rect x="5.44043" y="123.666" width="5.33333" height="5.44" transform="rotate(-90 5.44043 123.666)" fill="#A1A1A1"/>
<rect x="261.121" y="70.3301" width="5.33333" height="5.44" transform="rotate(-90 261.121 70.3301)" fill="#A1A1A1"/>
<rect x="5.44043" y="70.3301" width="5.33333" height="5.44" transform="rotate(-90 5.44043 70.3301)" fill="#A1A1A1"/>
<rect x="261.121" y="176.998" width="5.33333" height="5.44" transform="rotate(-90 261.121 176.998)" fill="#A1A1A1"/>
<rect x="5.44043" y="176.998" width="5.33333" height="5.44" transform="rotate(-90 5.44043 176.998)" fill="#A1A1A1"/>
<rect x="261.121" y="219.662" width="5.33333" height="5.44" transform="rotate(-90 261.121 219.662)" fill="#A1A1A1"/>
<rect x="5.44043" y="219.662" width="5.33333" height="5.44" transform="rotate(-90 5.44043 219.662)" fill="#A1A1A1"/>
<rect x="261.121" y="43.6621" width="5.33333" height="5.44" transform="rotate(-90 261.121 43.6621)" fill="#A1A1A1"/>
<rect x="5.44043" y="43.6621" width="5.33333" height="5.44" transform="rotate(-90 5.44043 43.6621)" fill="#A1A1A1"/>
<rect x="261.121" y="96.998" width="5.33333" height="5.44" transform="rotate(-90 261.121 96.998)" fill="#A1A1A1"/>
<rect x="5.44043" y="96.998" width="5.33333" height="5.44" transform="rotate(-90 5.44043 96.998)" fill="#A1A1A1"/>
<rect x="261.121" y="203.666" width="5.33333" height="5.44" transform="rotate(-90 261.121 203.666)" fill="#A1A1A1"/>
<rect x="5.44043" y="203.666" width="5.33333" height="5.44" transform="rotate(-90 5.44043 203.666)" fill="#A1A1A1"/>
<rect x="261.121" y="246.33" width="5.33333" height="5.44" transform="rotate(-90 261.121 246.33)" fill="#A1A1A1"/>
<rect x="5.44043" y="246.33" width="5.33333" height="5.44" transform="rotate(-90 5.44043 246.33)" fill="#A1A1A1"/>
<rect x="261.121" y="118.33" width="5.33333" height="5.44" transform="rotate(-90 261.121 118.33)" fill="#A1A1A1"/>
<rect x="5.44043" y="118.33" width="5.33333" height="5.44" transform="rotate(-90 5.44043 118.33)" fill="#A1A1A1"/>
<rect x="261.121" y="64.998" width="5.33333" height="5.44" transform="rotate(-90 261.121 64.998)" fill="#A1A1A1"/>
<rect x="5.44043" y="64.998" width="5.33333" height="5.44" transform="rotate(-90 5.44043 64.998)" fill="#A1A1A1"/>
<rect x="261.121" y="171.666" width="5.33333" height="5.44" transform="rotate(-90 261.121 171.666)" fill="#A1A1A1"/>
<rect x="5.44043" y="171.666" width="5.33333" height="5.44" transform="rotate(-90 5.44043 171.666)" fill="#A1A1A1"/>
<rect x="261.121" y="214.33" width="5.33333" height="5.44" transform="rotate(-90 261.121 214.33)" fill="#A1A1A1"/>
<rect x="5.44043" y="214.33" width="5.33333" height="5.44" transform="rotate(-90 5.44043 214.33)" fill="#A1A1A1"/>
<rect x="261.121" y="38.3301" width="5.33333" height="5.44" transform="rotate(-90 261.121 38.3301)" fill="#A1A1A1"/>
<rect x="5.44043" y="38.3301" width="5.33333" height="5.44" transform="rotate(-90 5.44043 38.3301)" fill="#A1A1A1"/>
<rect x="261.121" y="144.998" width="5.33333" height="5.44" transform="rotate(-90 261.121 144.998)" fill="#A1A1A1"/>
<rect x="5.44043" y="144.998" width="5.33333" height="5.44" transform="rotate(-90 5.44043 144.998)" fill="#A1A1A1"/>
<rect x="261.121" y="91.666" width="5.33333" height="5.44" transform="rotate(-90 261.121 91.666)" fill="#A1A1A1"/>
<rect x="5.44043" y="91.666" width="5.33333" height="5.44" transform="rotate(-90 5.44043 91.666)" fill="#A1A1A1"/>
<rect x="261.121" y="198.334" width="5.33333" height="5.44" transform="rotate(-90 261.121 198.334)" fill="#A1A1A1"/>
<rect x="5.44043" y="198.334" width="5.33333" height="5.44" transform="rotate(-90 5.44043 198.334)" fill="#A1A1A1"/>
<rect x="261.121" y="240.998" width="5.33333" height="5.44" transform="rotate(-90 261.121 240.998)" fill="#A1A1A1"/>
<rect x="5.44043" y="240.998" width="5.33333" height="5.44" transform="rotate(-90 5.44043 240.998)" fill="#A1A1A1"/>
<rect x="261.121" y="256.998" width="5.33333" height="5.44" transform="rotate(-90 261.121 256.998)" fill="#A1A1A1"/>
<rect x="5.44043" y="256.998" width="5.33333" height="5.44" transform="rotate(-90 5.44043 256.998)" fill="#A1A1A1"/>
<circle cx="133" cy="11.998" r="10" fill="black"/>
<circle cx="266" cy="11.998" r="10" fill="#43FF46" fill-opacity="0.65"/>
<circle cx="265" cy="261.998" r="10" fill="black"/>
<circle cx="133" cy="60.998" r="10" fill="white"/>
<circle cx="163" cy="135.998" r="11" fill="white" stroke="#43FF46" stroke-width="2"/>
<circle cx="59" cy="60.998" r="10" fill="white"/>
<path d="M279.072 28.8493C279.854 28.997 280.405 29.1212 280.959 29.2017C281.748 29.317 282.544 29.4628 283.337 29.4825C284.916 29.5215 285.657 28.4534 286.18 27.2121C286.648 26.0958 286.273 25.1373 285.459 24.2892C284.447 23.2337 283.152 22.6085 281.852 22.0294C279.811 21.122 277.686 20.4225 275.466 20.0673C274.569 19.9257 273.642 19.8725 272.737 19.9138C271.711 19.9663 271.311 20.3477 271.165 21.3621C271.054 22.1297 271.033 22.9278 271.103 23.7046C271.312 26.0514 271.571 28.396 271.839 30.7385C271.987 32.027 272.281 33.2924 272.821 34.4809C273.025 34.9298 273.334 35.3719 273.702 35.7003C274.356 36.2886 275.145 36.3737 275.929 35.9355C276.999 35.3383 277.895 34.5406 278.236 33.3475C278.512 32.3856 278.632 31.3777 278.818 30.3906C278.9 29.9634 278.963 29.5322 279.08 28.8581L279.072 28.8493Z" fill="white"/>
<path d="M301.19 87.0311C299.973 85.5841 298.405 85.4993 296.768 85.681C296.56 85.7055 296.328 85.838 296.174 85.9866C294.836 87.2999 293.948 88.8045 294.203 90.7601C294.387 92.177 295.172 93.1079 296.56 93.5751C297.343 93.8405 298.14 93.8824 298.925 93.7482C299.354 93.6726 299.821 93.4872 300.142 93.2101C301.24 92.2588 301.949 91.0845 302.048 89.5933C302.112 88.5872 301.85 87.7128 301.19 87.0256L301.19 87.0311Z" fill="white"/>
<path d="M298.442 53.6171C297.237 52.2585 295.791 52.1517 294.279 52.5197C292.724 52.8986 291.932 54.0262 291.643 55.4994C291.448 56.5051 291.623 57.4859 292.076 58.4442C292.796 59.9678 294.973 60.8761 296.946 60.1881C297.203 60.1011 297.433 59.9028 297.635 59.7135C298.881 58.5721 299.379 57.1348 299.282 55.4827C299.236 54.7212 298.855 54.099 298.44 53.6197L298.442 53.6171Z" fill="white"/>
<path d="M210.754 145.897C209.492 144.271 205.535 143.864 204.041 146.046C202.642 148.089 203.314 151.504 206.795 152.058C209.961 152.563 211.92 149.692 211.349 147.094C211.257 146.672 210.956 146.296 210.754 145.897Z" fill="white"/>
<path d="M290.916 38.4464C289.714 37.0689 287.439 36.5238 285.929 37.1795C285.338 37.436 284.865 37.8646 284.576 38.4233C283.683 40.1439 283.889 42.1318 285.173 43.4435C286.469 44.7699 288.668 45.1483 290.025 44.2416C291.703 43.1206 292.295 40.931 291.388 39.1814C291.233 38.8809 291.026 38.6098 290.921 38.4468L290.916 38.4464Z" fill="white"/>
<path d="M280.792 123.868C282.505 126.07 286.559 125.216 287.255 122.875C287.333 122.606 287.49 122.362 287.568 122.093C288.206 119.89 286.944 117.759 284.355 117.546C281.703 117.326 279.843 119.043 279.841 121.65C279.839 122.498 280.21 123.161 280.792 123.868Z" fill="white"/>
<path d="M227.151 152.191C227.896 151.244 228.581 150.054 228.369 148.531C228.235 147.572 227.723 146.846 226.93 146.325C225.302 145.253 222.503 145.692 221.308 147.151C220.306 148.372 220.213 149.702 220.801 151.107C221.398 152.541 222.657 153.073 224.089 153.187C225.126 153.27 226.152 153.088 227.151 152.191Z" fill="white"/>
<path d="M188.248 140.582C186.549 142.058 186.366 144.231 187.78 145.787C188.867 146.979 190.246 147.593 191.908 147.555C192.79 147.534 193.455 147.168 193.933 146.482C195.599 144.079 194.77 140.582 191.027 139.975C190.005 139.812 188.941 139.81 188.251 140.585L188.248 140.582Z" fill="white"/>
<path d="M274.713 130.501C273.306 128.954 271.08 128.806 269.496 130.084C267.826 131.43 267.432 134.224 268.906 135.817C270.083 137.091 272.797 137.345 274.072 136.236C275.447 135.04 276.307 131.943 274.713 130.501Z" fill="white"/>
<path d="M302.108 70.1475C300.722 68.6454 298.609 68.1987 297.046 68.9768C296.666 69.1652 296.328 69.5343 296.107 69.9003C295.411 71.048 295.198 72.3373 295.508 73.6202C295.832 74.9532 296.764 75.8555 298.13 76.2637C299.042 76.5323 299.945 76.3786 300.831 76.158C301.092 76.0931 301.356 75.9326 301.557 75.7488C302.628 74.7684 303.19 72.3878 302.647 71.0677C302.48 70.6595 302.191 70.2981 302.105 70.15L302.108 70.1475Z" fill="white"/>
<path d="M238.573 149.456C239.863 150.763 241.384 151.11 243.05 150.873C243.467 150.813 243.924 150.553 244.217 150.249C244.763 149.68 245.165 148.998 245.326 148.198C245.819 145.747 244.255 143.768 241.694 143.469C240.206 143.299 239.13 143.803 238.332 144.982C237.539 146.157 237.53 147.405 238.065 148.675C238.191 148.979 238.432 149.241 238.573 149.451L238.573 149.456Z" fill="white"/>
<path d="M173.224 138.848C174.052 139.787 175.055 140.338 176.35 140.421C178.521 140.56 179.764 139.235 180.063 137.458C180.395 135.487 179.409 133.965 177.522 133.432C176.184 133.056 174.899 133.151 173.744 133.94C172.055 135.096 171.94 137.629 173.224 138.842L173.224 138.848Z" fill="white"/>
<path d="M295.566 104.141C293.607 101.98 290.155 102.594 289.116 105.154C287.931 108.077 290.166 110.284 292.635 110.362C293.879 110.401 294.882 109.841 295.5 108.833C295.898 108.18 296.108 107.395 296.282 106.639C296.513 105.644 296.173 104.759 295.568 104.144L295.566 104.141Z" fill="white"/>
<path d="M260.155 144.734C261.568 143.475 261.761 140.999 260.551 139.717C259.17 138.256 256.466 138.014 255.073 139.23C253.57 140.541 253.398 143.284 254.76 144.724C256.144 146.182 258.567 146.212 260.155 144.734Z" fill="white"/>
</svg>
