<svg width="36" height="36" viewBox="0 0 36 36" fill="none" xmlns="http://www.w3.org/2000/svg">
<g clip-path="url(#clip0_2902_11)">
<path d="M17.9993 6.3517e-10C16.2915 2.12605e-05 14.6612 0.341476 13.1791 0.960205C8.69425 2.83266 5.64011 7.18027 5.62365 12.2673C5.6146 15.0636 5.57221 17.5037 4.91183 20.9443C3.9613 25.4006 2.2537 26.6964 0.194902 29.7444C-0.309999 30.4918 0.224662 31.5 1.12643 31.5H12.7244C13.1083 34.0165 15.3228 36 17.9949 36C20.6671 36 22.8587 34.059 23.2743 31.5H34.8722C35.7741 31.5 36.3117 30.4898 35.8038 29.7444C34.0713 27.202 32.6933 25.961 31.702 23.1702C30.9077 20.9342 30.375 17.7811 30.375 12.2673C30.375 7.18024 27.2651 2.81625 22.8195 0.960205C21.3376 0.341531 19.7072 -1.70072e-05 17.9993 6.3517e-10ZM17.9993 2.25C19.4089 2.24998 20.7419 2.52846 21.9539 3.03443C25.649 4.57711 28.1582 8.24402 28.1253 12.2673C28.104 14.8322 28.3174 18.6225 28.8151 21.0981C29.4354 24.1839 30.4178 26.4153 32.6708 29.25H3.33C4.81613 27.2715 6.26392 25.3963 7.11323 21.4146C7.75498 18.3354 7.87339 15.2047 7.87339 12.2673C7.87339 8.09479 10.4084 4.55262 14.0447 3.03443C15.2567 2.52843 16.5897 2.25002 17.9993 2.25ZM19.9305 7.34107C20.598 7.6333 21.1991 8.05855 21.7079 8.58691C22.2166 9.11528 22.626 9.74386 22.9118 10.448C23.4646 11.8654 25.5871 11.0011 24.9946 9.59985C24.6009 8.63018 24.0349 7.75985 23.327 7.02466C22.6191 6.28947 21.771 5.68681 20.8268 5.27344C19.4402 4.69744 18.554 6.69213 19.9305 7.34107ZM15.0246 31.5H20.9719C20.5986 32.8231 19.3931 33.75 17.9949 33.75C16.5967 33.75 15.3898 32.8014 15.0246 31.5Z" fill="white"/>
</g>
<defs>
<clipPath id="clip0_2902_11">
<rect width="36" height="36" fill="white"/>
</clipPath>
</defs>
</svg>
