<svg width="272" height="272" viewBox="0 0 272 272" fill="none" xmlns="http://www.w3.org/2000/svg">
<rect x="47.3047" y="5.91406" width="5.91302" height="5.91302" transform="rotate(180 47.3047 5.91406)" fill="#A1A1A1"/>
<rect x="224.695" y="266.086" width="5.91302" height="5.91302" fill="#A1A1A1"/>
<rect x="224.695" y="106.434" width="5.91302" height="5.91302" fill="#A1A1A1"/>
<rect x="47.3047" y="165.566" width="5.91302" height="5.91302" transform="rotate(180 47.3047 165.566)" fill="#A1A1A1"/>
<rect x="47.3047" y="59.1289" width="5.91302" height="5.91302" transform="rotate(180 47.3047 59.1289)" fill="#A1A1A1"/>
<rect x="224.695" y="212.871" width="5.91302" height="5.91302" fill="#A1A1A1"/>
<rect width="5.91302" height="5.91302" transform="matrix(-1.44522e-08 -1 1 -1.99161e-06 0 53.2188)" fill="#A1A1A1"/>
<rect x="272" y="218.781" width="5.91302" height="5.91302" transform="rotate(90 272 218.781)" fill="#A1A1A1"/>
<rect x="272" y="59.1289" width="5.91302" height="5.91302" transform="rotate(90 272 59.1289)" fill="#A1A1A1"/>
<rect width="5.91302" height="5.91302" transform="matrix(-1.44522e-08 -1 1 -1.99161e-06 0 212.871)" fill="#A1A1A1"/>
<rect x="53.2188" y="53.2188" width="5.91302" height="5.91302" transform="rotate(-90 53.2188 53.2188)" fill="#A1A1A1"/>
<rect x="218.781" y="218.781" width="5.91302" height="5.91302" transform="rotate(90 218.781 218.781)" fill="#A1A1A1"/>
<rect x="218.781" y="59.1289" width="5.91302" height="5.91302" transform="rotate(90 218.781 59.1289)" fill="#A1A1A1"/>
<rect x="53.2188" y="212.871" width="5.91302" height="5.91302" transform="rotate(-90 53.2188 212.871)" fill="#A1A1A1"/>
<rect x="106.434" y="53.2188" width="5.91302" height="5.91302" transform="rotate(-90 106.434 53.2188)" fill="#A1A1A1"/>
<rect x="165.566" y="218.781" width="5.91302" height="5.91302" transform="rotate(90 165.566 218.781)" fill="#A1A1A1"/>
<rect x="165.566" y="59.1289" width="5.91302" height="5.91302" transform="rotate(90 165.566 59.1289)" fill="#A1A1A1"/>
<rect x="106.434" y="212.871" width="5.91302" height="5.91302" transform="rotate(-90 106.434 212.871)" fill="#A1A1A1"/>
<rect x="159.652" y="53.2188" width="5.91302" height="5.91302" transform="rotate(-90 159.652 53.2188)" fill="#A1A1A1"/>
<rect x="112.348" y="218.781" width="5.91302" height="5.91302" transform="rotate(90 112.348 218.781)" fill="#A1A1A1"/>
<rect x="112.348" y="59.1289" width="5.91302" height="5.91302" transform="rotate(90 112.348 59.1289)" fill="#A1A1A1"/>
<rect x="159.652" y="212.871" width="5.91302" height="5.91302" transform="rotate(-90 159.652 212.871)" fill="#A1A1A1"/>
<rect x="212.871" y="53.2188" width="5.91302" height="5.91302" transform="rotate(-90 212.871 53.2188)" fill="#A1A1A1"/>
<rect x="59.1289" y="218.781" width="5.91302" height="5.91302" transform="rotate(90 59.1289 218.781)" fill="#A1A1A1"/>
<rect x="59.1289" y="59.1289" width="5.91302" height="5.91302" transform="rotate(90 59.1289 59.1289)" fill="#A1A1A1"/>
<rect x="212.871" y="212.871" width="5.91302" height="5.91302" transform="rotate(-90 212.871 212.871)" fill="#A1A1A1"/>
<rect x="266.086" y="53.2188" width="5.91302" height="5.91302" transform="rotate(-90 266.086 53.2188)" fill="#A1A1A1"/>
<rect x="5.91406" y="218.781" width="5.91302" height="5.91302" transform="rotate(90 5.91406 218.781)" fill="#A1A1A1"/>
<rect x="5.91406" y="59.1289" width="5.91302" height="5.91302" transform="rotate(90 5.91406 59.1289)" fill="#A1A1A1"/>
<rect x="266.086" y="212.871" width="5.91302" height="5.91302" transform="rotate(-90 266.086 212.871)" fill="#A1A1A1"/>
<rect x="88.6953" y="5.91406" width="5.91302" height="5.91302" transform="rotate(180 88.6953 5.91406)" fill="#A1A1A1"/>
<rect x="183.305" y="266.086" width="5.91302" height="5.91302" fill="#A1A1A1"/>
<rect x="183.305" y="106.434" width="5.91302" height="5.91302" fill="#A1A1A1"/>
<rect x="88.6953" y="165.566" width="5.91302" height="5.91302" transform="rotate(180 88.6953 165.566)" fill="#A1A1A1"/>
<rect x="88.6953" y="59.1289" width="5.91302" height="5.91302" transform="rotate(180 88.6953 59.1289)" fill="#A1A1A1"/>
<rect x="183.305" y="212.871" width="5.91302" height="5.91302" fill="#A1A1A1"/>
<rect x="130.086" y="5.91406" width="5.91302" height="5.91302" transform="rotate(180 130.086 5.91406)" fill="#A1A1A1"/>
<rect x="141.914" y="266.086" width="5.91302" height="5.91302" fill="#A1A1A1"/>
<rect x="141.914" y="106.434" width="5.91302" height="5.91302" fill="#A1A1A1"/>
<rect x="130.086" y="165.566" width="5.91302" height="5.91302" transform="rotate(180 130.086 165.566)" fill="#A1A1A1"/>
<rect x="130.086" y="59.1289" width="5.91302" height="5.91302" transform="rotate(180 130.086 59.1289)" fill="#A1A1A1"/>
<rect x="141.914" y="212.871" width="5.91302" height="5.91302" fill="#A1A1A1"/>
<rect x="171.477" y="5.91406" width="5.91302" height="5.91302" transform="rotate(180 171.477 5.91406)" fill="#A1A1A1"/>
<rect x="100.523" y="266.086" width="5.91302" height="5.91302" fill="#A1A1A1"/>
<rect x="100.523" y="106.434" width="5.91302" height="5.91302" fill="#A1A1A1"/>
<rect x="171.477" y="165.566" width="5.91302" height="5.91302" transform="rotate(180 171.477 165.566)" fill="#A1A1A1"/>
<rect x="171.477" y="59.1289" width="5.91302" height="5.91302" transform="rotate(180 171.477 59.1289)" fill="#A1A1A1"/>
<rect x="100.523" y="212.871" width="5.91302" height="5.91302" fill="#A1A1A1"/>
<rect x="212.871" y="5.91406" width="5.91302" height="5.91302" transform="rotate(180 212.871 5.91406)" fill="#A1A1A1"/>
<rect x="59.1289" y="266.086" width="5.91302" height="5.91302" fill="#A1A1A1"/>
<rect x="59.1289" y="106.434" width="5.91302" height="5.91302" fill="#A1A1A1"/>
<rect x="212.871" y="165.566" width="5.91302" height="5.91302" transform="rotate(180 212.871 165.566)" fill="#A1A1A1"/>
<rect x="212.871" y="59.1289" width="5.91302" height="5.91302" transform="rotate(180 212.871 59.1289)" fill="#A1A1A1"/>
<rect x="59.1289" y="212.871" width="5.91302" height="5.91302" fill="#A1A1A1"/>
<rect x="254.258" y="5.91406" width="5.91302" height="5.91302" transform="rotate(180 254.258 5.91406)" fill="#A1A1A1"/>
<rect x="17.7383" y="266.086" width="5.91302" height="5.91302" fill="#A1A1A1"/>
<rect x="17.7383" y="106.434" width="5.91302" height="5.91302" fill="#A1A1A1"/>
<rect x="254.258" y="165.566" width="5.91302" height="5.91302" transform="rotate(180 254.258 165.566)" fill="#A1A1A1"/>
<rect x="254.258" y="59.1289" width="5.91302" height="5.91302" transform="rotate(180 254.258 59.1289)" fill="#A1A1A1"/>
<rect x="17.7383" y="212.871" width="5.91302" height="5.91302" fill="#A1A1A1"/>
<rect x="5.91406" y="5.91406" width="5.91302" height="5.91302" transform="rotate(180 5.91406 5.91406)" fill="#A1A1A1"/>
<rect x="266.086" y="266.086" width="5.91302" height="5.91302" fill="#A1A1A1"/>
<rect x="266.086" y="106.434" width="5.91302" height="5.91302" fill="#A1A1A1"/>
<rect x="5.91406" y="165.566" width="5.91302" height="5.91302" transform="rotate(180 5.91406 165.566)" fill="#A1A1A1"/>
<rect x="5.91406" y="59.1289" width="5.91302" height="5.91302" transform="rotate(180 5.91406 59.1289)" fill="#A1A1A1"/>
<rect x="266.086" y="212.871" width="5.91302" height="5.91302" fill="#A1A1A1"/>
<rect width="5.91302" height="5.91302" transform="matrix(-1.44522e-08 -1 1 -1.99161e-06 0 11.8281)" fill="#A1A1A1"/>
<rect x="272" y="260.176" width="5.91302" height="5.91302" transform="rotate(90 272 260.176)" fill="#A1A1A1"/>
<rect width="5.91302" height="5.91302" transform="matrix(-1.44522e-08 -1 1 -1.99161e-06 0 118.262)" fill="#A1A1A1"/>
<rect x="272" y="153.738" width="5.91302" height="5.91302" transform="rotate(90 272 153.738)" fill="#A1A1A1"/>
<rect x="272" y="100.523" width="5.91302" height="5.91302" transform="rotate(90 272 100.523)" fill="#A1A1A1"/>
<rect width="5.91302" height="5.91302" transform="matrix(-1.44522e-08 -1 1 -1.99161e-06 0 171.48)" fill="#A1A1A1"/>
<rect x="53.2188" y="11.8281" width="5.91302" height="5.91302" transform="rotate(-90 53.2188 11.8281)" fill="#A1A1A1"/>
<rect x="218.781" y="260.176" width="5.91302" height="5.91302" transform="rotate(90 218.781 260.176)" fill="#A1A1A1"/>
<rect x="53.2188" y="118.262" width="5.91302" height="5.91302" transform="rotate(-90 53.2188 118.262)" fill="#A1A1A1"/>
<rect x="218.781" y="153.738" width="5.91302" height="5.91302" transform="rotate(90 218.781 153.738)" fill="#A1A1A1"/>
<rect x="218.781" y="100.523" width="5.91302" height="5.91302" transform="rotate(90 218.781 100.523)" fill="#A1A1A1"/>
<rect x="53.2188" y="171.48" width="5.91302" height="5.91302" transform="rotate(-90 53.2188 171.48)" fill="#A1A1A1"/>
<rect x="106.434" y="11.8281" width="5.91302" height="5.91302" transform="rotate(-90 106.434 11.8281)" fill="#A1A1A1"/>
<rect x="165.566" y="260.176" width="5.91302" height="5.91302" transform="rotate(90 165.566 260.176)" fill="#A1A1A1"/>
<rect x="106.434" y="118.262" width="5.91302" height="5.91302" transform="rotate(-90 106.434 118.262)" fill="#A1A1A1"/>
<rect x="165.566" y="153.738" width="5.91302" height="5.91302" transform="rotate(90 165.566 153.738)" fill="#A1A1A1"/>
<rect x="165.566" y="100.523" width="5.91302" height="5.91302" transform="rotate(90 165.566 100.523)" fill="#A1A1A1"/>
<rect x="106.434" y="171.48" width="5.91302" height="5.91302" transform="rotate(-90 106.434 171.48)" fill="#A1A1A1"/>
<rect x="159.652" y="11.8281" width="5.91302" height="5.91302" transform="rotate(-90 159.652 11.8281)" fill="#A1A1A1"/>
<rect x="112.348" y="260.176" width="5.91302" height="5.91302" transform="rotate(90 112.348 260.176)" fill="#A1A1A1"/>
<rect x="159.652" y="118.262" width="5.91302" height="5.91302" transform="rotate(-90 159.652 118.262)" fill="#A1A1A1"/>
<rect x="112.348" y="153.738" width="5.91302" height="5.91302" transform="rotate(90 112.348 153.738)" fill="#A1A1A1"/>
<rect x="112.348" y="100.523" width="5.91302" height="5.91302" transform="rotate(90 112.348 100.523)" fill="#A1A1A1"/>
<rect x="159.652" y="171.48" width="5.91302" height="5.91302" transform="rotate(-90 159.652 171.48)" fill="#A1A1A1"/>
<rect x="212.871" y="11.8281" width="5.91302" height="5.91302" transform="rotate(-90 212.871 11.8281)" fill="#A1A1A1"/>
<rect x="59.1289" y="260.176" width="5.91302" height="5.91302" transform="rotate(90 59.1289 260.176)" fill="#A1A1A1"/>
<rect x="212.871" y="118.262" width="5.91302" height="5.91302" transform="rotate(-90 212.871 118.262)" fill="#A1A1A1"/>
<rect x="59.1289" y="153.738" width="5.91302" height="5.91302" transform="rotate(90 59.1289 153.738)" fill="#A1A1A1"/>
<rect x="59.1289" y="100.523" width="5.91302" height="5.91302" transform="rotate(90 59.1289 100.523)" fill="#A1A1A1"/>
<rect x="212.871" y="171.48" width="5.91302" height="5.91302" transform="rotate(-90 212.871 171.48)" fill="#A1A1A1"/>
<rect x="266.086" y="11.8281" width="5.91302" height="5.91302" transform="rotate(-90 266.086 11.8281)" fill="#A1A1A1"/>
<rect x="5.91406" y="260.176" width="5.91302" height="5.91302" transform="rotate(90 5.91406 260.176)" fill="#A1A1A1"/>
<rect x="266.086" y="118.262" width="5.91302" height="5.91302" transform="rotate(-90 266.086 118.262)" fill="#A1A1A1"/>
<rect x="5.91406" y="153.738" width="5.91302" height="5.91302" transform="rotate(90 5.91406 153.738)" fill="#A1A1A1"/>
<rect x="5.91406" y="100.523" width="5.91302" height="5.91302" transform="rotate(90 5.91406 100.523)" fill="#A1A1A1"/>
<rect x="266.086" y="171.48" width="5.91302" height="5.91302" transform="rotate(-90 266.086 171.48)" fill="#A1A1A1"/>
<rect x="53.2188" y="5.91406" width="5.91302" height="5.91302" transform="rotate(180 53.2188 5.91406)" fill="#A1A1A1"/>
<rect x="218.781" y="266.086" width="5.91302" height="5.91302" fill="#A1A1A1"/>
<rect x="218.781" y="106.434" width="5.91302" height="5.91302" fill="#A1A1A1"/>
<rect x="53.2188" y="165.566" width="5.91302" height="5.91302" transform="rotate(180 53.2188 165.566)" fill="#A1A1A1"/>
<rect x="53.2188" y="59.1289" width="5.91302" height="5.91302" transform="rotate(180 53.2188 59.1289)" fill="#A1A1A1"/>
<rect x="218.781" y="212.871" width="5.91302" height="5.91302" fill="#A1A1A1"/>
<rect x="94.6094" y="5.91406" width="5.91302" height="5.91302" transform="rotate(180 94.6094 5.91406)" fill="#A1A1A1"/>
<rect x="177.391" y="266.086" width="5.91302" height="5.91302" fill="#A1A1A1"/>
<rect x="177.391" y="106.434" width="5.91302" height="5.91302" fill="#A1A1A1"/>
<rect x="94.6094" y="165.566" width="5.91302" height="5.91302" transform="rotate(180 94.6094 165.566)" fill="#A1A1A1"/>
<rect x="94.6094" y="59.1289" width="5.91302" height="5.91302" transform="rotate(180 94.6094 59.1289)" fill="#A1A1A1"/>
<rect x="177.391" y="212.871" width="5.91302" height="5.91302" fill="#A1A1A1"/>
<rect x="136" y="5.91406" width="5.91302" height="5.91302" transform="rotate(180 136 5.91406)" fill="#A1A1A1"/>
<rect x="136" y="266.086" width="5.91302" height="5.91302" fill="#A1A1A1"/>
<rect x="136" y="106.434" width="5.91302" height="5.91302" fill="#A1A1A1"/>
<rect x="136" y="165.566" width="5.91302" height="5.91302" transform="rotate(180 136 165.566)" fill="#A1A1A1"/>
<rect x="136" y="59.1289" width="5.91302" height="5.91302" transform="rotate(180 136 59.1289)" fill="#A1A1A1"/>
<rect x="136" y="212.871" width="5.91302" height="5.91302" fill="#A1A1A1"/>
<rect x="177.391" y="5.91406" width="5.91302" height="5.91302" transform="rotate(180 177.391 5.91406)" fill="#A1A1A1"/>
<rect x="94.6094" y="266.086" width="5.91302" height="5.91302" fill="#A1A1A1"/>
<rect x="94.6094" y="106.434" width="5.91302" height="5.91302" fill="#A1A1A1"/>
<rect x="177.391" y="165.566" width="5.91302" height="5.91302" transform="rotate(180 177.391 165.566)" fill="#A1A1A1"/>
<rect x="177.391" y="59.1289" width="5.91302" height="5.91302" transform="rotate(180 177.391 59.1289)" fill="#A1A1A1"/>
<rect x="94.6094" y="212.871" width="5.91302" height="5.91302" fill="#A1A1A1"/>
<rect x="218.781" y="5.91406" width="5.91302" height="5.91302" transform="rotate(180 218.781 5.91406)" fill="#A1A1A1"/>
<rect x="53.2188" y="266.086" width="5.91302" height="5.91302" fill="#A1A1A1"/>
<rect x="53.2188" y="106.434" width="5.91302" height="5.91302" fill="#A1A1A1"/>
<rect x="218.781" y="165.566" width="5.91302" height="5.91302" transform="rotate(180 218.781 165.566)" fill="#A1A1A1"/>
<rect x="218.781" y="59.1289" width="5.91302" height="5.91302" transform="rotate(180 218.781 59.1289)" fill="#A1A1A1"/>
<rect x="53.2188" y="212.871" width="5.91302" height="5.91302" fill="#A1A1A1"/>
<rect x="260.176" y="5.91406" width="5.91302" height="5.91302" transform="rotate(180 260.176 5.91406)" fill="#A1A1A1"/>
<rect x="11.8242" y="266.086" width="5.91302" height="5.91302" fill="#A1A1A1"/>
<rect x="11.8242" y="106.434" width="5.91302" height="5.91302" fill="#A1A1A1"/>
<rect x="260.176" y="165.566" width="5.91302" height="5.91302" transform="rotate(180 260.176 165.566)" fill="#A1A1A1"/>
<rect x="260.176" y="59.1289" width="5.91302" height="5.91302" transform="rotate(180 260.176 59.1289)" fill="#A1A1A1"/>
<rect x="11.8242" y="212.871" width="5.91302" height="5.91302" fill="#A1A1A1"/>
<rect x="11.8242" y="5.91406" width="5.91302" height="5.91302" transform="rotate(180 11.8242 5.91406)" fill="#A1A1A1"/>
<rect x="260.176" y="266.086" width="5.91302" height="5.91302" fill="#A1A1A1"/>
<rect x="260.176" y="106.434" width="5.91302" height="5.91302" fill="#A1A1A1"/>
<rect x="11.8242" y="165.566" width="5.91302" height="5.91302" transform="rotate(180 11.8242 165.566)" fill="#A1A1A1"/>
<rect x="11.8242" y="59.1289" width="5.91302" height="5.91302" transform="rotate(180 11.8242 59.1289)" fill="#A1A1A1"/>
<rect x="260.176" y="212.871" width="5.91302" height="5.91302" fill="#A1A1A1"/>
<rect width="5.91302" height="5.91302" transform="matrix(-1.44522e-08 -1 1 -1.99161e-06 0 17.7383)" fill="#A1A1A1"/>
<rect x="272" y="254.262" width="5.91302" height="5.91302" transform="rotate(90 272 254.262)" fill="#A1A1A1"/>
<rect width="5.91302" height="5.91302" transform="matrix(-1.44522e-08 -1 1 -1.99161e-06 0 124.176)" fill="#A1A1A1"/>
<rect x="272" y="147.828" width="5.91302" height="5.91302" transform="rotate(90 272 147.828)" fill="#A1A1A1"/>
<rect x="272" y="94.6094" width="5.91302" height="5.91302" transform="rotate(90 272 94.6094)" fill="#A1A1A1"/>
<rect width="5.91302" height="5.91302" transform="matrix(-1.44522e-08 -1 1 -1.99161e-06 0 177.391)" fill="#A1A1A1"/>
<rect x="53.2188" y="17.7383" width="5.91302" height="5.91302" transform="rotate(-90 53.2188 17.7383)" fill="#A1A1A1"/>
<rect x="218.781" y="254.262" width="5.91302" height="5.91302" transform="rotate(90 218.781 254.262)" fill="#A1A1A1"/>
<rect x="53.2188" y="124.176" width="5.91302" height="5.91302" transform="rotate(-90 53.2188 124.176)" fill="#A1A1A1"/>
<rect x="218.781" y="147.828" width="5.91302" height="5.91302" transform="rotate(90 218.781 147.828)" fill="#A1A1A1"/>
<rect x="218.781" y="94.6094" width="5.91302" height="5.91302" transform="rotate(90 218.781 94.6094)" fill="#A1A1A1"/>
<rect x="53.2188" y="177.391" width="5.91302" height="5.91302" transform="rotate(-90 53.2188 177.391)" fill="#A1A1A1"/>
<rect x="106.434" y="17.7383" width="5.91302" height="5.91302" transform="rotate(-90 106.434 17.7383)" fill="#A1A1A1"/>
<rect x="165.566" y="254.262" width="5.91302" height="5.91302" transform="rotate(90 165.566 254.262)" fill="#A1A1A1"/>
<rect x="106.434" y="124.176" width="5.91302" height="5.91302" transform="rotate(-90 106.434 124.176)" fill="#A1A1A1"/>
<rect x="165.566" y="147.828" width="5.91302" height="5.91302" transform="rotate(90 165.566 147.828)" fill="#A1A1A1"/>
<rect x="165.566" y="94.6094" width="5.91302" height="5.91302" transform="rotate(90 165.566 94.6094)" fill="#A1A1A1"/>
<rect x="106.434" y="177.391" width="5.91302" height="5.91302" transform="rotate(-90 106.434 177.391)" fill="#A1A1A1"/>
<rect x="159.652" y="17.7383" width="5.91302" height="5.91302" transform="rotate(-90 159.652 17.7383)" fill="#A1A1A1"/>
<rect x="112.348" y="254.262" width="5.91302" height="5.91302" transform="rotate(90 112.348 254.262)" fill="#A1A1A1"/>
<rect x="159.652" y="124.176" width="5.91302" height="5.91302" transform="rotate(-90 159.652 124.176)" fill="#A1A1A1"/>
<rect x="112.348" y="147.828" width="5.91302" height="5.91302" transform="rotate(90 112.348 147.828)" fill="#A1A1A1"/>
<rect x="112.348" y="94.6094" width="5.91302" height="5.91302" transform="rotate(90 112.348 94.6094)" fill="#A1A1A1"/>
<rect x="159.652" y="177.391" width="5.91302" height="5.91302" transform="rotate(-90 159.652 177.391)" fill="#A1A1A1"/>
<rect x="212.871" y="17.7383" width="5.91302" height="5.91302" transform="rotate(-90 212.871 17.7383)" fill="#A1A1A1"/>
<rect x="59.1289" y="254.262" width="5.91302" height="5.91302" transform="rotate(90 59.1289 254.262)" fill="#A1A1A1"/>
<rect x="212.871" y="124.176" width="5.91302" height="5.91302" transform="rotate(-90 212.871 124.176)" fill="#A1A1A1"/>
<rect x="59.1289" y="147.828" width="5.91302" height="5.91302" transform="rotate(90 59.1289 147.828)" fill="#A1A1A1"/>
<rect x="59.1289" y="94.6094" width="5.91302" height="5.91302" transform="rotate(90 59.1289 94.6094)" fill="#A1A1A1"/>
<rect x="212.871" y="177.391" width="5.91302" height="5.91302" transform="rotate(-90 212.871 177.391)" fill="#A1A1A1"/>
<rect x="266.086" y="17.7383" width="5.91302" height="5.91302" transform="rotate(-90 266.086 17.7383)" fill="#A1A1A1"/>
<rect x="5.91406" y="254.262" width="5.91302" height="5.91302" transform="rotate(90 5.91406 254.262)" fill="#A1A1A1"/>
<rect x="266.086" y="124.176" width="5.91302" height="5.91302" transform="rotate(-90 266.086 124.176)" fill="#A1A1A1"/>
<rect x="5.91406" y="147.828" width="5.91302" height="5.91302" transform="rotate(90 5.91406 147.828)" fill="#A1A1A1"/>
<rect x="5.91406" y="94.6094" width="5.91302" height="5.91302" transform="rotate(90 5.91406 94.6094)" fill="#A1A1A1"/>
<rect x="266.086" y="177.391" width="5.91302" height="5.91302" transform="rotate(-90 266.086 177.391)" fill="#A1A1A1"/>
<rect x="59.1289" y="5.91406" width="5.91302" height="5.91302" transform="rotate(180 59.1289 5.91406)" fill="#A1A1A1"/>
<rect x="212.871" y="266.086" width="5.91302" height="5.91302" fill="#A1A1A1"/>
<rect x="212.871" y="106.434" width="5.91302" height="5.91302" fill="#A1A1A1"/>
<rect x="59.1289" y="165.566" width="5.91302" height="5.91302" transform="rotate(180 59.1289 165.566)" fill="#A1A1A1"/>
<rect x="59.1289" y="59.1289" width="5.91302" height="5.91302" transform="rotate(180 59.1289 59.1289)" fill="#A1A1A1"/>
<rect x="212.871" y="212.871" width="5.91302" height="5.91302" fill="#A1A1A1"/>
<rect x="100.523" y="5.91406" width="5.91302" height="5.91302" transform="rotate(180 100.523 5.91406)" fill="#A1A1A1"/>
<rect x="171.477" y="266.086" width="5.91302" height="5.91302" fill="#A1A1A1"/>
<rect x="171.477" y="106.434" width="5.91302" height="5.91302" fill="#A1A1A1"/>
<rect x="100.523" y="165.566" width="5.91302" height="5.91302" transform="rotate(180 100.523 165.566)" fill="#A1A1A1"/>
<rect x="100.523" y="59.1289" width="5.91302" height="5.91302" transform="rotate(180 100.523 59.1289)" fill="#A1A1A1"/>
<rect x="171.477" y="212.871" width="5.91302" height="5.91302" fill="#A1A1A1"/>
<rect x="141.914" y="5.91406" width="5.91302" height="5.91302" transform="rotate(180 141.914 5.91406)" fill="#A1A1A1"/>
<rect x="130.086" y="266.086" width="5.91302" height="5.91302" fill="#A1A1A1"/>
<rect x="130.086" y="106.434" width="5.91302" height="5.91302" fill="#A1A1A1"/>
<rect x="141.914" y="165.566" width="5.91302" height="5.91302" transform="rotate(180 141.914 165.566)" fill="#A1A1A1"/>
<rect x="130.086" y="130.086" width="5.91302" height="5.91302" fill="#A1A1A1"/>
<rect x="141.914" y="141.914" width="5.91302" height="5.91302" transform="rotate(180 141.914 141.914)" fill="#A1A1A1"/>
<rect x="136" y="130.086" width="5.91302" height="5.91302" fill="#A1A1A1"/>
<rect x="136" y="141.914" width="5.91302" height="5.91302" transform="rotate(180 136 141.914)" fill="#A1A1A1"/>
<rect x="124.176" y="130.086" width="5.91302" height="5.91302" fill="#A1A1A1"/>
<rect x="147.824" y="141.914" width="5.91302" height="5.91302" transform="rotate(180 147.824 141.914)" fill="#A1A1A1"/>
<rect x="124.176" y="124.176" width="5.91302" height="5.91302" fill="#A1A1A1"/>
<rect x="147.824" y="147.828" width="5.91302" height="5.91302" transform="rotate(180 147.824 147.828)" fill="#A1A1A1"/>
<rect x="130.086" y="124.176" width="5.91302" height="5.91302" fill="#A1A1A1"/>
<rect x="141.914" y="147.828" width="5.91302" height="5.91302" transform="rotate(180 141.914 147.828)" fill="#A1A1A1"/>
<rect x="136" y="124.176" width="5.91302" height="5.91302" fill="#A1A1A1"/>
<rect x="136" y="147.828" width="5.91302" height="5.91302" transform="rotate(180 136 147.828)" fill="#A1A1A1"/>
<rect x="141.914" y="124.176" width="5.91302" height="5.91302" fill="#A1A1A1"/>
<rect x="130.086" y="147.828" width="5.91302" height="5.91302" transform="rotate(180 130.086 147.828)" fill="#A1A1A1"/>
<rect x="141.914" y="130.086" width="5.91302" height="5.91302" fill="#A1A1A1"/>
<rect x="130.086" y="141.914" width="5.91302" height="5.91302" transform="rotate(180 130.086 141.914)" fill="#A1A1A1"/>
<rect x="147.824" y="130.086" width="5.91302" height="5.91302" fill="#A1A1A1"/>
<rect x="124.176" y="141.914" width="5.91302" height="5.91302" transform="rotate(180 124.176 141.914)" fill="#A1A1A1"/>
<rect x="136" y="118.262" width="5.91302" height="5.91302" fill="#A1A1A1"/>
<rect x="136" y="153.738" width="5.91302" height="5.91302" transform="rotate(180 136 153.738)" fill="#A1A1A1"/>
<rect x="130.086" y="118.262" width="5.91302" height="5.91302" fill="#A1A1A1"/>
<rect x="141.914" y="153.738" width="5.91302" height="5.91302" transform="rotate(180 141.914 153.738)" fill="#A1A1A1"/>
<rect x="118.262" y="130.086" width="5.91302" height="5.91302" fill="#A1A1A1"/>
<rect x="153.738" y="141.914" width="5.91302" height="5.91302" transform="rotate(180 153.738 141.914)" fill="#A1A1A1"/>
<rect x="147.824" y="118.262" width="5.91302" height="5.91302" fill="#A1A1A1"/>
<rect x="124.176" y="153.738" width="5.91302" height="5.91302" transform="rotate(180 124.176 153.738)" fill="#A1A1A1"/>
<rect x="118.262" y="118.262" width="5.91302" height="5.91302" fill="#A1A1A1"/>
<rect x="153.738" y="153.738" width="5.91302" height="5.91302" transform="rotate(180 153.738 153.738)" fill="#A1A1A1"/>
<rect x="141.914" y="59.1289" width="5.91302" height="5.91302" transform="rotate(180 141.914 59.1289)" fill="#A1A1A1"/>
<rect x="130.086" y="212.871" width="5.91302" height="5.91302" fill="#A1A1A1"/>
<rect x="183.305" y="5.91406" width="5.91302" height="5.91302" transform="rotate(180 183.305 5.91406)" fill="#A1A1A1"/>
<rect x="88.6953" y="266.086" width="5.91302" height="5.91302" fill="#A1A1A1"/>
<rect x="88.6953" y="106.434" width="5.91302" height="5.91302" fill="#A1A1A1"/>
<rect x="183.305" y="165.566" width="5.91302" height="5.91302" transform="rotate(180 183.305 165.566)" fill="#A1A1A1"/>
<rect x="183.305" y="59.1289" width="5.91302" height="5.91302" transform="rotate(180 183.305 59.1289)" fill="#A1A1A1"/>
<rect x="88.6953" y="212.871" width="5.91302" height="5.91302" fill="#A1A1A1"/>
<rect x="224.695" y="5.91406" width="5.91302" height="5.91302" transform="rotate(180 224.695 5.91406)" fill="#A1A1A1"/>
<rect x="47.3047" y="266.086" width="5.91302" height="5.91302" fill="#A1A1A1"/>
<rect x="47.3047" y="106.434" width="5.91302" height="5.91302" fill="#A1A1A1"/>
<rect x="224.695" y="165.566" width="5.91302" height="5.91302" transform="rotate(180 224.695 165.566)" fill="#A1A1A1"/>
<rect x="224.695" y="59.1289" width="5.91302" height="5.91302" transform="rotate(180 224.695 59.1289)" fill="#A1A1A1"/>
<rect x="47.3047" y="212.871" width="5.91302" height="5.91302" fill="#A1A1A1"/>
<rect x="266.086" y="5.91406" width="5.91302" height="5.91302" transform="rotate(180 266.086 5.91406)" fill="#A1A1A1"/>
<rect x="5.91406" y="266.086" width="5.91302" height="5.91302" fill="#A1A1A1"/>
<rect x="5.91406" y="106.434" width="5.91302" height="5.91302" fill="#A1A1A1"/>
<rect x="266.086" y="165.566" width="5.91302" height="5.91302" transform="rotate(180 266.086 165.566)" fill="#A1A1A1"/>
<rect x="266.086" y="59.1289" width="5.91302" height="5.91302" transform="rotate(180 266.086 59.1289)" fill="#A1A1A1"/>
<rect x="5.91406" y="212.871" width="5.91302" height="5.91302" fill="#A1A1A1"/>
<rect x="17.7383" y="5.91406" width="5.91302" height="5.91302" transform="rotate(180 17.7383 5.91406)" fill="#A1A1A1"/>
<rect x="254.258" y="266.086" width="5.91302" height="5.91302" fill="#A1A1A1"/>
<rect x="254.258" y="106.434" width="5.91302" height="5.91302" fill="#A1A1A1"/>
<rect x="17.7383" y="165.566" width="5.91302" height="5.91302" transform="rotate(180 17.7383 165.566)" fill="#A1A1A1"/>
<rect x="17.7383" y="59.1289" width="5.91302" height="5.91302" transform="rotate(180 17.7383 59.1289)" fill="#A1A1A1"/>
<rect x="254.258" y="212.871" width="5.91302" height="5.91302" fill="#A1A1A1"/>
<rect width="5.91302" height="5.91302" transform="matrix(-1.44522e-08 -1 1 -1.99161e-06 0 23.6523)" fill="#A1A1A1"/>
<rect x="272" y="248.348" width="5.91302" height="5.91302" transform="rotate(90 272 248.348)" fill="#A1A1A1"/>
<rect width="5.91302" height="5.91302" transform="matrix(-1.44522e-08 -1 1 -1.99161e-06 0 130.086)" fill="#A1A1A1"/>
<rect x="272" y="141.914" width="5.91302" height="5.91302" transform="rotate(90 272 141.914)" fill="#A1A1A1"/>
<rect x="272" y="88.6953" width="5.91302" height="5.91302" transform="rotate(90 272 88.6953)" fill="#A1A1A1"/>
<rect width="5.91302" height="5.91302" transform="matrix(-1.44522e-08 -1 1 -1.99161e-06 0 183.305)" fill="#A1A1A1"/>
<rect x="53.2188" y="23.6523" width="5.91302" height="5.91302" transform="rotate(-90 53.2188 23.6523)" fill="#A1A1A1"/>
<rect x="218.781" y="248.348" width="5.91302" height="5.91302" transform="rotate(90 218.781 248.348)" fill="#A1A1A1"/>
<rect x="53.2188" y="130.086" width="5.91302" height="5.91302" transform="rotate(-90 53.2188 130.086)" fill="#A1A1A1"/>
<rect x="218.781" y="141.914" width="5.91302" height="5.91302" transform="rotate(90 218.781 141.914)" fill="#A1A1A1"/>
<rect x="218.781" y="88.6953" width="5.91302" height="5.91302" transform="rotate(90 218.781 88.6953)" fill="#A1A1A1"/>
<rect x="53.2188" y="183.305" width="5.91302" height="5.91302" transform="rotate(-90 53.2188 183.305)" fill="#A1A1A1"/>
<rect x="106.434" y="23.6523" width="5.91302" height="5.91302" transform="rotate(-90 106.434 23.6523)" fill="#A1A1A1"/>
<rect x="165.566" y="248.348" width="5.91302" height="5.91302" transform="rotate(90 165.566 248.348)" fill="#A1A1A1"/>
<rect x="106.434" y="130.086" width="5.91302" height="5.91302" transform="rotate(-90 106.434 130.086)" fill="#A1A1A1"/>
<rect x="165.566" y="141.914" width="5.91302" height="5.91302" transform="rotate(90 165.566 141.914)" fill="#A1A1A1"/>
<rect x="165.566" y="88.6953" width="5.91302" height="5.91302" transform="rotate(90 165.566 88.6953)" fill="#A1A1A1"/>
<rect x="106.434" y="183.305" width="5.91302" height="5.91302" transform="rotate(-90 106.434 183.305)" fill="#A1A1A1"/>
<rect x="159.652" y="23.6523" width="5.91302" height="5.91302" transform="rotate(-90 159.652 23.6523)" fill="#A1A1A1"/>
<rect x="112.348" y="248.348" width="5.91302" height="5.91302" transform="rotate(90 112.348 248.348)" fill="#A1A1A1"/>
<rect x="159.652" y="130.086" width="5.91302" height="5.91302" transform="rotate(-90 159.652 130.086)" fill="#A1A1A1"/>
<rect x="112.348" y="141.914" width="5.91302" height="5.91302" transform="rotate(90 112.348 141.914)" fill="#A1A1A1"/>
<rect x="112.348" y="88.6953" width="5.91302" height="5.91302" transform="rotate(90 112.348 88.6953)" fill="#A1A1A1"/>
<rect x="159.652" y="183.305" width="5.91302" height="5.91302" transform="rotate(-90 159.652 183.305)" fill="#A1A1A1"/>
<rect x="212.871" y="23.6523" width="5.91302" height="5.91302" transform="rotate(-90 212.871 23.6523)" fill="#A1A1A1"/>
<rect x="59.1289" y="248.348" width="5.91302" height="5.91302" transform="rotate(90 59.1289 248.348)" fill="#A1A1A1"/>
<rect x="212.871" y="130.086" width="5.91302" height="5.91302" transform="rotate(-90 212.871 130.086)" fill="#A1A1A1"/>
<rect x="59.1289" y="141.914" width="5.91302" height="5.91302" transform="rotate(90 59.1289 141.914)" fill="#A1A1A1"/>
<rect x="59.1289" y="88.6953" width="5.91302" height="5.91302" transform="rotate(90 59.1289 88.6953)" fill="#A1A1A1"/>
<rect x="212.871" y="183.305" width="5.91302" height="5.91302" transform="rotate(-90 212.871 183.305)" fill="#A1A1A1"/>
<rect x="266.086" y="23.6523" width="5.91302" height="5.91302" transform="rotate(-90 266.086 23.6523)" fill="#A1A1A1"/>
<rect x="5.91406" y="248.348" width="5.91302" height="5.91302" transform="rotate(90 5.91406 248.348)" fill="#A1A1A1"/>
<rect x="266.086" y="130.086" width="5.91302" height="5.91302" transform="rotate(-90 266.086 130.086)" fill="#A1A1A1"/>
<rect x="5.91406" y="141.914" width="5.91302" height="5.91302" transform="rotate(90 5.91406 141.914)" fill="#A1A1A1"/>
<rect x="5.91406" y="88.6953" width="5.91302" height="5.91302" transform="rotate(90 5.91406 88.6953)" fill="#A1A1A1"/>
<rect x="266.086" y="183.305" width="5.91302" height="5.91302" transform="rotate(-90 266.086 183.305)" fill="#A1A1A1"/>
<rect x="65.043" y="5.91406" width="5.91302" height="5.91302" transform="rotate(180 65.043 5.91406)" fill="#A1A1A1"/>
<rect x="206.957" y="266.086" width="5.91302" height="5.91302" fill="#A1A1A1"/>
<rect x="206.957" y="106.434" width="5.91302" height="5.91302" fill="#A1A1A1"/>
<rect x="65.043" y="165.566" width="5.91302" height="5.91302" transform="rotate(180 65.043 165.566)" fill="#A1A1A1"/>
<rect x="65.043" y="59.1289" width="5.91302" height="5.91302" transform="rotate(180 65.043 59.1289)" fill="#A1A1A1"/>
<rect x="206.957" y="212.871" width="5.91302" height="5.91302" fill="#A1A1A1"/>
<rect x="106.434" y="5.91406" width="5.91302" height="5.91302" transform="rotate(180 106.434 5.91406)" fill="#A1A1A1"/>
<rect x="165.566" y="266.086" width="5.91302" height="5.91302" fill="#A1A1A1"/>
<rect x="165.566" y="106.434" width="5.91302" height="5.91302" fill="#A1A1A1"/>
<rect x="106.434" y="165.566" width="5.91302" height="5.91302" transform="rotate(180 106.434 165.566)" fill="#A1A1A1"/>
<rect x="106.434" y="59.1289" width="5.91302" height="5.91302" transform="rotate(180 106.434 59.1289)" fill="#A1A1A1"/>
<rect x="165.566" y="212.871" width="5.91302" height="5.91302" fill="#A1A1A1"/>
<rect x="147.824" y="5.91406" width="5.91302" height="5.91302" transform="rotate(180 147.824 5.91406)" fill="#A1A1A1"/>
<rect x="124.176" y="266.086" width="5.91302" height="5.91302" fill="#A1A1A1"/>
<rect x="124.176" y="106.434" width="5.91302" height="5.91302" fill="#A1A1A1"/>
<rect x="147.824" y="165.566" width="5.91302" height="5.91302" transform="rotate(180 147.824 165.566)" fill="#A1A1A1"/>
<rect x="147.824" y="59.1289" width="5.91302" height="5.91302" transform="rotate(180 147.824 59.1289)" fill="#A1A1A1"/>
<rect x="124.176" y="212.871" width="5.91302" height="5.91302" fill="#A1A1A1"/>
<rect x="189.219" y="5.91406" width="5.91302" height="5.91302" transform="rotate(180 189.219 5.91406)" fill="#A1A1A1"/>
<rect x="82.7812" y="266.086" width="5.91302" height="5.91302" fill="#A1A1A1"/>
<rect x="82.7812" y="106.434" width="5.91302" height="5.91302" fill="#A1A1A1"/>
<rect x="189.219" y="165.566" width="5.91302" height="5.91302" transform="rotate(180 189.219 165.566)" fill="#A1A1A1"/>
<rect x="189.219" y="59.1289" width="5.91302" height="5.91302" transform="rotate(180 189.219 59.1289)" fill="#A1A1A1"/>
<rect x="82.7812" y="212.871" width="5.91302" height="5.91302" fill="#A1A1A1"/>
<rect x="230.605" y="5.91406" width="5.91302" height="5.91302" transform="rotate(180 230.605 5.91406)" fill="#A1A1A1"/>
<rect x="41.3906" y="266.086" width="5.91302" height="5.91302" fill="#A1A1A1"/>
<rect x="41.3906" y="106.434" width="5.91302" height="5.91302" fill="#A1A1A1"/>
<rect x="230.605" y="165.566" width="5.91302" height="5.91302" transform="rotate(180 230.605 165.566)" fill="#A1A1A1"/>
<rect x="230.605" y="59.1289" width="5.91302" height="5.91302" transform="rotate(180 230.605 59.1289)" fill="#A1A1A1"/>
<rect x="41.3906" y="212.871" width="5.91302" height="5.91302" fill="#A1A1A1"/>
<rect x="272" y="5.91406" width="5.91302" height="5.91302" transform="rotate(180 272 5.91406)" fill="#A1A1A1"/>
<rect width="5.91302" height="5.91302" transform="matrix(1 -1.47848e-06 1.07286e-08 1 0 266.086)" fill="#A1A1A1"/>
<rect width="5.91302" height="5.91302" transform="matrix(1 -3.53101e-06 2.56228e-08 1 0 106.434)" fill="#A1A1A1"/>
<rect x="272" y="165.566" width="5.91302" height="5.91302" transform="rotate(180 272 165.566)" fill="#A1A1A1"/>
<rect x="272" y="59.1289" width="5.91302" height="5.91302" transform="rotate(180 272 59.1289)" fill="#A1A1A1"/>
<rect width="5.91302" height="5.91302" transform="matrix(1 -1.47848e-06 1.07286e-08 1 0 212.871)" fill="#A1A1A1"/>
<rect x="23.6523" y="5.91406" width="5.91302" height="5.91302" transform="rotate(180 23.6523 5.91406)" fill="#A1A1A1"/>
<rect x="248.348" y="266.086" width="5.91302" height="5.91302" fill="#A1A1A1"/>
<rect x="248.348" y="106.434" width="5.91302" height="5.91302" fill="#A1A1A1"/>
<rect x="23.6523" y="165.566" width="5.91302" height="5.91302" transform="rotate(180 23.6523 165.566)" fill="#A1A1A1"/>
<rect x="23.6523" y="59.1289" width="5.91302" height="5.91302" transform="rotate(180 23.6523 59.1289)" fill="#A1A1A1"/>
<rect x="248.348" y="212.871" width="5.91302" height="5.91302" fill="#A1A1A1"/>
<rect width="5.91302" height="5.91302" transform="matrix(-1.44522e-08 -1 1 -1.99161e-06 0 29.5664)" fill="#A1A1A1"/>
<rect x="272" y="242.434" width="5.91302" height="5.91302" transform="rotate(90 272 242.434)" fill="#A1A1A1"/>
<rect width="5.91302" height="5.91302" transform="matrix(-1.44522e-08 -1 1 -1.99161e-06 0 136)" fill="#A1A1A1"/>
<rect x="272" y="136" width="5.91302" height="5.91302" transform="rotate(90 272 136)" fill="#A1A1A1"/>
<rect x="272" y="82.7812" width="5.91302" height="5.91302" transform="rotate(90 272 82.7812)" fill="#A1A1A1"/>
<rect width="5.91302" height="5.91302" transform="matrix(-1.44522e-08 -1 1 -1.99161e-06 0 189.219)" fill="#A1A1A1"/>
<rect x="53.2188" y="29.5664" width="5.91302" height="5.91302" transform="rotate(-90 53.2188 29.5664)" fill="#A1A1A1"/>
<rect x="218.781" y="242.434" width="5.91302" height="5.91302" transform="rotate(90 218.781 242.434)" fill="#A1A1A1"/>
<rect x="53.2188" y="136" width="5.91302" height="5.91302" transform="rotate(-90 53.2188 136)" fill="#A1A1A1"/>
<rect x="218.781" y="136" width="5.91302" height="5.91302" transform="rotate(90 218.781 136)" fill="#A1A1A1"/>
<rect x="218.781" y="82.7812" width="5.91302" height="5.91302" transform="rotate(90 218.781 82.7812)" fill="#A1A1A1"/>
<rect x="53.2188" y="189.219" width="5.91302" height="5.91302" transform="rotate(-90 53.2188 189.219)" fill="#A1A1A1"/>
<rect x="106.434" y="29.5664" width="5.91302" height="5.91302" transform="rotate(-90 106.434 29.5664)" fill="#A1A1A1"/>
<rect x="165.566" y="242.434" width="5.91302" height="5.91302" transform="rotate(90 165.566 242.434)" fill="#A1A1A1"/>
<rect x="106.434" y="136" width="5.91302" height="5.91302" transform="rotate(-90 106.434 136)" fill="#A1A1A1"/>
<rect x="165.566" y="136" width="5.91302" height="5.91302" transform="rotate(90 165.566 136)" fill="#A1A1A1"/>
<rect x="165.566" y="82.7812" width="5.91302" height="5.91302" transform="rotate(90 165.566 82.7812)" fill="#A1A1A1"/>
<rect x="106.434" y="189.219" width="5.91302" height="5.91302" transform="rotate(-90 106.434 189.219)" fill="#A1A1A1"/>
<rect x="159.652" y="29.5664" width="5.91302" height="5.91302" transform="rotate(-90 159.652 29.5664)" fill="#A1A1A1"/>
<rect x="112.348" y="242.434" width="5.91302" height="5.91302" transform="rotate(90 112.348 242.434)" fill="#A1A1A1"/>
<rect x="159.652" y="136" width="5.91302" height="5.91302" transform="rotate(-90 159.652 136)" fill="#A1A1A1"/>
<rect x="112.348" y="136" width="5.91302" height="5.91302" transform="rotate(90 112.348 136)" fill="#A1A1A1"/>
<rect x="112.348" y="82.7812" width="5.91302" height="5.91302" transform="rotate(90 112.348 82.7812)" fill="#A1A1A1"/>
<rect x="159.652" y="189.219" width="5.91302" height="5.91302" transform="rotate(-90 159.652 189.219)" fill="#A1A1A1"/>
<rect x="212.871" y="29.5664" width="5.91302" height="5.91302" transform="rotate(-90 212.871 29.5664)" fill="#A1A1A1"/>
<rect x="59.1289" y="242.434" width="5.91302" height="5.91302" transform="rotate(90 59.1289 242.434)" fill="#A1A1A1"/>
<rect x="212.871" y="136" width="5.91302" height="5.91302" transform="rotate(-90 212.871 136)" fill="#A1A1A1"/>
<rect x="59.1289" y="136" width="5.91302" height="5.91302" transform="rotate(90 59.1289 136)" fill="#A1A1A1"/>
<rect x="59.1289" y="82.7812" width="5.91302" height="5.91302" transform="rotate(90 59.1289 82.7812)" fill="#A1A1A1"/>
<rect x="212.871" y="189.219" width="5.91302" height="5.91302" transform="rotate(-90 212.871 189.219)" fill="#A1A1A1"/>
<rect x="266.086" y="29.5664" width="5.91302" height="5.91302" transform="rotate(-90 266.086 29.5664)" fill="#A1A1A1"/>
<rect x="5.91406" y="242.434" width="5.91302" height="5.91302" transform="rotate(90 5.91406 242.434)" fill="#A1A1A1"/>
<rect x="266.086" y="136" width="5.91302" height="5.91302" transform="rotate(-90 266.086 136)" fill="#A1A1A1"/>
<rect x="5.91406" y="136" width="5.91302" height="5.91302" transform="rotate(90 5.91406 136)" fill="#A1A1A1"/>
<rect x="5.91406" y="82.7812" width="5.91302" height="5.91302" transform="rotate(90 5.91406 82.7812)" fill="#A1A1A1"/>
<rect x="266.086" y="189.219" width="5.91302" height="5.91302" transform="rotate(-90 266.086 189.219)" fill="#A1A1A1"/>
<rect x="70.957" y="5.91406" width="5.91302" height="5.91302" transform="rotate(180 70.957 5.91406)" fill="#A1A1A1"/>
<rect x="201.043" y="266.086" width="5.91302" height="5.91302" fill="#A1A1A1"/>
<rect x="201.043" y="106.434" width="5.91302" height="5.91302" fill="#A1A1A1"/>
<rect x="70.957" y="165.566" width="5.91302" height="5.91302" transform="rotate(180 70.957 165.566)" fill="#A1A1A1"/>
<rect x="70.957" y="59.1289" width="5.91302" height="5.91302" transform="rotate(180 70.957 59.1289)" fill="#A1A1A1"/>
<rect x="201.043" y="212.871" width="5.91302" height="5.91302" fill="#A1A1A1"/>
<rect x="112.348" y="5.91406" width="5.91302" height="5.91302" transform="rotate(180 112.348 5.91406)" fill="#A1A1A1"/>
<rect x="159.652" y="266.086" width="5.91302" height="5.91302" fill="#A1A1A1"/>
<rect x="159.652" y="106.434" width="5.91302" height="5.91302" fill="#A1A1A1"/>
<rect x="112.348" y="165.566" width="5.91302" height="5.91302" transform="rotate(180 112.348 165.566)" fill="#A1A1A1"/>
<rect x="112.348" y="59.1289" width="5.91302" height="5.91302" transform="rotate(180 112.348 59.1289)" fill="#A1A1A1"/>
<rect x="159.652" y="212.871" width="5.91302" height="5.91302" fill="#A1A1A1"/>
<rect x="153.738" y="5.91406" width="5.91302" height="5.91302" transform="rotate(180 153.738 5.91406)" fill="#A1A1A1"/>
<rect x="118.262" y="266.086" width="5.91302" height="5.91302" fill="#A1A1A1"/>
<rect x="118.262" y="106.434" width="5.91302" height="5.91302" fill="#A1A1A1"/>
<rect x="153.738" y="165.566" width="5.91302" height="5.91302" transform="rotate(180 153.738 165.566)" fill="#A1A1A1"/>
<rect x="153.738" y="59.1289" width="5.91302" height="5.91302" transform="rotate(180 153.738 59.1289)" fill="#A1A1A1"/>
<rect x="118.262" y="212.871" width="5.91302" height="5.91302" fill="#A1A1A1"/>
<rect x="195.129" y="5.91406" width="5.91302" height="5.91302" transform="rotate(180 195.129 5.91406)" fill="#A1A1A1"/>
<rect x="76.8711" y="266.086" width="5.91302" height="5.91302" fill="#A1A1A1"/>
<rect x="76.8711" y="106.434" width="5.91302" height="5.91302" fill="#A1A1A1"/>
<rect x="195.129" y="165.566" width="5.91302" height="5.91302" transform="rotate(180 195.129 165.566)" fill="#A1A1A1"/>
<rect x="195.129" y="59.1289" width="5.91302" height="5.91302" transform="rotate(180 195.129 59.1289)" fill="#A1A1A1"/>
<rect x="76.8711" y="212.871" width="5.91302" height="5.91302" fill="#A1A1A1"/>
<rect x="236.523" y="5.91406" width="5.91302" height="5.91302" transform="rotate(180 236.523 5.91406)" fill="#A1A1A1"/>
<rect x="35.4766" y="266.086" width="5.91302" height="5.91302" fill="#A1A1A1"/>
<rect x="35.4766" y="106.434" width="5.91302" height="5.91302" fill="#A1A1A1"/>
<rect x="236.523" y="165.566" width="5.91302" height="5.91302" transform="rotate(180 236.523 165.566)" fill="#A1A1A1"/>
<rect x="236.523" y="59.1289" width="5.91302" height="5.91302" transform="rotate(180 236.523 59.1289)" fill="#A1A1A1"/>
<rect x="35.4766" y="212.871" width="5.91302" height="5.91302" fill="#A1A1A1"/>
<rect x="29.5664" y="5.91406" width="5.91302" height="5.91302" transform="rotate(180 29.5664 5.91406)" fill="#A1A1A1"/>
<rect x="242.434" y="266.086" width="5.91302" height="5.91302" fill="#A1A1A1"/>
<rect x="242.434" y="106.434" width="5.91302" height="5.91302" fill="#A1A1A1"/>
<rect x="29.5664" y="165.566" width="5.91302" height="5.91302" transform="rotate(180 29.5664 165.566)" fill="#A1A1A1"/>
<rect x="29.5664" y="59.1289" width="5.91302" height="5.91302" transform="rotate(180 29.5664 59.1289)" fill="#A1A1A1"/>
<rect x="242.434" y="212.871" width="5.91302" height="5.91302" fill="#A1A1A1"/>
<rect width="5.91302" height="5.91302" transform="matrix(-1.44522e-08 -1 1 -1.99161e-06 0 35.4805)" fill="#A1A1A1"/>
<rect x="272" y="236.523" width="5.91302" height="5.91302" transform="rotate(90 272 236.523)" fill="#A1A1A1"/>
<rect x="272" y="76.8711" width="5.91302" height="5.91302" transform="rotate(90 272 76.8711)" fill="#A1A1A1"/>
<rect width="5.91302" height="5.91302" transform="matrix(-1.44522e-08 -1 1 -1.99161e-06 0 195.129)" fill="#A1A1A1"/>
<rect x="53.2188" y="35.4805" width="5.91302" height="5.91302" transform="rotate(-90 53.2188 35.4805)" fill="#A1A1A1"/>
<rect x="218.781" y="236.523" width="5.91302" height="5.91302" transform="rotate(90 218.781 236.523)" fill="#A1A1A1"/>
<rect x="218.781" y="76.8711" width="5.91302" height="5.91302" transform="rotate(90 218.781 76.8711)" fill="#A1A1A1"/>
<rect x="53.2188" y="195.129" width="5.91302" height="5.91302" transform="rotate(-90 53.2188 195.129)" fill="#A1A1A1"/>
<rect x="106.434" y="35.4805" width="5.91302" height="5.91302" transform="rotate(-90 106.434 35.4805)" fill="#A1A1A1"/>
<rect x="165.566" y="236.523" width="5.91302" height="5.91302" transform="rotate(90 165.566 236.523)" fill="#A1A1A1"/>
<rect x="165.566" y="76.8711" width="5.91302" height="5.91302" transform="rotate(90 165.566 76.8711)" fill="#A1A1A1"/>
<rect x="106.434" y="195.129" width="5.91302" height="5.91302" transform="rotate(-90 106.434 195.129)" fill="#A1A1A1"/>
<rect x="159.652" y="35.4805" width="5.91302" height="5.91302" transform="rotate(-90 159.652 35.4805)" fill="#A1A1A1"/>
<rect x="112.348" y="236.523" width="5.91302" height="5.91302" transform="rotate(90 112.348 236.523)" fill="#A1A1A1"/>
<rect x="112.348" y="76.8711" width="5.91302" height="5.91302" transform="rotate(90 112.348 76.8711)" fill="#A1A1A1"/>
<rect x="159.652" y="195.129" width="5.91302" height="5.91302" transform="rotate(-90 159.652 195.129)" fill="#A1A1A1"/>
<rect x="212.871" y="35.4805" width="5.91302" height="5.91302" transform="rotate(-90 212.871 35.4805)" fill="#A1A1A1"/>
<rect x="59.1289" y="236.523" width="5.91302" height="5.91302" transform="rotate(90 59.1289 236.523)" fill="#A1A1A1"/>
<rect x="59.1289" y="76.8711" width="5.91302" height="5.91302" transform="rotate(90 59.1289 76.8711)" fill="#A1A1A1"/>
<rect x="212.871" y="195.129" width="5.91302" height="5.91302" transform="rotate(-90 212.871 195.129)" fill="#A1A1A1"/>
<rect x="266.086" y="35.4805" width="5.91302" height="5.91302" transform="rotate(-90 266.086 35.4805)" fill="#A1A1A1"/>
<rect x="5.91406" y="236.523" width="5.91302" height="5.91302" transform="rotate(90 5.91406 236.523)" fill="#A1A1A1"/>
<rect x="5.91406" y="76.8711" width="5.91302" height="5.91302" transform="rotate(90 5.91406 76.8711)" fill="#A1A1A1"/>
<rect x="266.086" y="195.129" width="5.91302" height="5.91302" transform="rotate(-90 266.086 195.129)" fill="#A1A1A1"/>
<rect x="76.8711" y="5.91406" width="5.91302" height="5.91302" transform="rotate(180 76.8711 5.91406)" fill="#A1A1A1"/>
<rect x="195.129" y="266.086" width="5.91302" height="5.91302" fill="#A1A1A1"/>
<rect x="195.129" y="106.434" width="5.91302" height="5.91302" fill="#A1A1A1"/>
<rect x="76.8711" y="165.566" width="5.91302" height="5.91302" transform="rotate(180 76.8711 165.566)" fill="#A1A1A1"/>
<rect x="76.8711" y="59.1289" width="5.91302" height="5.91302" transform="rotate(180 76.8711 59.1289)" fill="#A1A1A1"/>
<rect x="195.129" y="212.871" width="5.91302" height="5.91302" fill="#A1A1A1"/>
<rect x="118.262" y="5.91406" width="5.91302" height="5.91302" transform="rotate(180 118.262 5.91406)" fill="#A1A1A1"/>
<rect x="153.738" y="266.086" width="5.91302" height="5.91302" fill="#A1A1A1"/>
<rect x="153.738" y="106.434" width="5.91302" height="5.91302" fill="#A1A1A1"/>
<rect x="118.262" y="165.566" width="5.91302" height="5.91302" transform="rotate(180 118.262 165.566)" fill="#A1A1A1"/>
<rect x="118.262" y="59.1289" width="5.91302" height="5.91302" transform="rotate(180 118.262 59.1289)" fill="#A1A1A1"/>
<rect x="153.738" y="212.871" width="5.91302" height="5.91302" fill="#A1A1A1"/>
<rect x="159.652" y="5.91406" width="5.91302" height="5.91302" transform="rotate(180 159.652 5.91406)" fill="#A1A1A1"/>
<rect x="112.348" y="266.086" width="5.91302" height="5.91302" fill="#A1A1A1"/>
<rect x="112.348" y="106.434" width="5.91302" height="5.91302" fill="#A1A1A1"/>
<rect x="159.652" y="165.566" width="5.91302" height="5.91302" transform="rotate(180 159.652 165.566)" fill="#A1A1A1"/>
<rect x="159.652" y="59.1289" width="5.91302" height="5.91302" transform="rotate(180 159.652 59.1289)" fill="#A1A1A1"/>
<rect x="112.348" y="212.871" width="5.91302" height="5.91302" fill="#A1A1A1"/>
<rect x="201.043" y="5.91406" width="5.91302" height="5.91302" transform="rotate(180 201.043 5.91406)" fill="#A1A1A1"/>
<rect x="70.957" y="266.086" width="5.91302" height="5.91302" fill="#A1A1A1"/>
<rect x="70.957" y="106.434" width="5.91302" height="5.91302" fill="#A1A1A1"/>
<rect x="201.043" y="165.566" width="5.91302" height="5.91302" transform="rotate(180 201.043 165.566)" fill="#A1A1A1"/>
<rect x="201.043" y="59.1289" width="5.91302" height="5.91302" transform="rotate(180 201.043 59.1289)" fill="#A1A1A1"/>
<rect x="70.957" y="212.871" width="5.91302" height="5.91302" fill="#A1A1A1"/>
<rect x="242.434" y="5.91406" width="5.91302" height="5.91302" transform="rotate(180 242.434 5.91406)" fill="#A1A1A1"/>
<rect x="29.5664" y="266.086" width="5.91302" height="5.91302" fill="#A1A1A1"/>
<rect x="29.5664" y="106.434" width="5.91302" height="5.91302" fill="#A1A1A1"/>
<rect x="242.434" y="165.566" width="5.91302" height="5.91302" transform="rotate(180 242.434 165.566)" fill="#A1A1A1"/>
<rect x="242.434" y="59.1289" width="5.91302" height="5.91302" transform="rotate(180 242.434 59.1289)" fill="#A1A1A1"/>
<rect x="29.5664" y="212.871" width="5.91302" height="5.91302" fill="#A1A1A1"/>
<rect x="35.4766" y="5.91406" width="5.91302" height="5.91302" transform="rotate(180 35.4766 5.91406)" fill="#A1A1A1"/>
<rect x="236.523" y="266.086" width="5.91302" height="5.91302" fill="#A1A1A1"/>
<rect x="236.523" y="106.434" width="5.91302" height="5.91302" fill="#A1A1A1"/>
<rect x="35.4766" y="165.566" width="5.91302" height="5.91302" transform="rotate(180 35.4766 165.566)" fill="#A1A1A1"/>
<rect x="35.4766" y="59.1289" width="5.91302" height="5.91302" transform="rotate(180 35.4766 59.1289)" fill="#A1A1A1"/>
<rect x="236.523" y="212.871" width="5.91302" height="5.91302" fill="#A1A1A1"/>
<rect width="5.91302" height="5.91302" transform="matrix(-1.44522e-08 -1 1 -1.99161e-06 0 41.3906)" fill="#A1A1A1"/>
<rect x="272" y="230.609" width="5.91302" height="5.91302" transform="rotate(90 272 230.609)" fill="#A1A1A1"/>
<rect x="272" y="70.957" width="5.91302" height="5.91302" transform="rotate(90 272 70.957)" fill="#A1A1A1"/>
<rect width="5.91302" height="5.91302" transform="matrix(-1.44522e-08 -1 1 -1.99161e-06 0 201.043)" fill="#A1A1A1"/>
<rect x="53.2188" y="41.3906" width="5.91302" height="5.91302" transform="rotate(-90 53.2188 41.3906)" fill="#A1A1A1"/>
<rect x="218.781" y="230.609" width="5.91302" height="5.91302" transform="rotate(90 218.781 230.609)" fill="#A1A1A1"/>
<rect x="218.781" y="70.957" width="5.91302" height="5.91302" transform="rotate(90 218.781 70.957)" fill="#A1A1A1"/>
<rect x="53.2188" y="201.043" width="5.91302" height="5.91302" transform="rotate(-90 53.2188 201.043)" fill="#A1A1A1"/>
<rect x="106.434" y="41.3906" width="5.91302" height="5.91302" transform="rotate(-90 106.434 41.3906)" fill="#A1A1A1"/>
<rect x="165.566" y="230.609" width="5.91302" height="5.91302" transform="rotate(90 165.566 230.609)" fill="#A1A1A1"/>
<rect x="165.566" y="70.957" width="5.91302" height="5.91302" transform="rotate(90 165.566 70.957)" fill="#A1A1A1"/>
<rect x="106.434" y="201.043" width="5.91302" height="5.91302" transform="rotate(-90 106.434 201.043)" fill="#A1A1A1"/>
<rect x="159.652" y="41.3906" width="5.91302" height="5.91302" transform="rotate(-90 159.652 41.3906)" fill="#A1A1A1"/>
<rect x="112.348" y="230.609" width="5.91302" height="5.91302" transform="rotate(90 112.348 230.609)" fill="#A1A1A1"/>
<rect x="112.348" y="70.957" width="5.91302" height="5.91302" transform="rotate(90 112.348 70.957)" fill="#A1A1A1"/>
<rect x="159.652" y="201.043" width="5.91302" height="5.91302" transform="rotate(-90 159.652 201.043)" fill="#A1A1A1"/>
<rect x="212.871" y="41.3906" width="5.91302" height="5.91302" transform="rotate(-90 212.871 41.3906)" fill="#A1A1A1"/>
<rect x="59.1289" y="230.609" width="5.91302" height="5.91302" transform="rotate(90 59.1289 230.609)" fill="#A1A1A1"/>
<rect x="59.1289" y="70.957" width="5.91302" height="5.91302" transform="rotate(90 59.1289 70.957)" fill="#A1A1A1"/>
<rect x="212.871" y="201.043" width="5.91302" height="5.91302" transform="rotate(-90 212.871 201.043)" fill="#A1A1A1"/>
<rect x="266.086" y="41.3906" width="5.91302" height="5.91302" transform="rotate(-90 266.086 41.3906)" fill="#A1A1A1"/>
<rect x="5.91406" y="230.609" width="5.91302" height="5.91302" transform="rotate(90 5.91406 230.609)" fill="#A1A1A1"/>
<rect x="5.91406" y="70.957" width="5.91302" height="5.91302" transform="rotate(90 5.91406 70.957)" fill="#A1A1A1"/>
<rect x="266.086" y="201.043" width="5.91302" height="5.91302" transform="rotate(-90 266.086 201.043)" fill="#A1A1A1"/>
<rect x="82.7812" y="5.91406" width="5.91302" height="5.91302" transform="rotate(180 82.7812 5.91406)" fill="#A1A1A1"/>
<rect x="189.219" y="266.086" width="5.91302" height="5.91302" fill="#A1A1A1"/>
<rect x="189.219" y="106.434" width="5.91302" height="5.91302" fill="#A1A1A1"/>
<rect x="82.7812" y="165.566" width="5.91302" height="5.91302" transform="rotate(180 82.7812 165.566)" fill="#A1A1A1"/>
<rect x="82.7812" y="59.1289" width="5.91302" height="5.91302" transform="rotate(180 82.7812 59.1289)" fill="#A1A1A1"/>
<rect x="189.219" y="212.871" width="5.91302" height="5.91302" fill="#A1A1A1"/>
<rect x="124.176" y="5.91406" width="5.91302" height="5.91302" transform="rotate(180 124.176 5.91406)" fill="#A1A1A1"/>
<rect x="147.824" y="266.086" width="5.91302" height="5.91302" fill="#A1A1A1"/>
<rect x="147.824" y="106.434" width="5.91302" height="5.91302" fill="#A1A1A1"/>
<rect x="124.176" y="165.566" width="5.91302" height="5.91302" transform="rotate(180 124.176 165.566)" fill="#A1A1A1"/>
<rect x="124.176" y="59.1289" width="5.91302" height="5.91302" transform="rotate(180 124.176 59.1289)" fill="#A1A1A1"/>
<rect x="147.824" y="212.871" width="5.91302" height="5.91302" fill="#A1A1A1"/>
<rect x="165.566" y="5.91406" width="5.91302" height="5.91302" transform="rotate(180 165.566 5.91406)" fill="#A1A1A1"/>
<rect x="106.434" y="266.086" width="5.91302" height="5.91302" fill="#A1A1A1"/>
<rect x="106.434" y="106.434" width="5.91302" height="5.91302" fill="#A1A1A1"/>
<rect x="165.566" y="165.566" width="5.91302" height="5.91302" transform="rotate(180 165.566 165.566)" fill="#A1A1A1"/>
<rect x="165.566" y="59.1289" width="5.91302" height="5.91302" transform="rotate(180 165.566 59.1289)" fill="#A1A1A1"/>
<rect x="106.434" y="212.871" width="5.91302" height="5.91302" fill="#A1A1A1"/>
<rect x="206.957" y="5.91406" width="5.91302" height="5.91302" transform="rotate(180 206.957 5.91406)" fill="#A1A1A1"/>
<rect x="65.043" y="266.086" width="5.91302" height="5.91302" fill="#A1A1A1"/>
<rect x="65.043" y="106.434" width="5.91302" height="5.91302" fill="#A1A1A1"/>
<rect x="206.957" y="165.566" width="5.91302" height="5.91302" transform="rotate(180 206.957 165.566)" fill="#A1A1A1"/>
<rect x="206.957" y="59.1289" width="5.91302" height="5.91302" transform="rotate(180 206.957 59.1289)" fill="#A1A1A1"/>
<rect x="65.043" y="212.871" width="5.91302" height="5.91302" fill="#A1A1A1"/>
<rect x="248.348" y="5.91406" width="5.91302" height="5.91302" transform="rotate(180 248.348 5.91406)" fill="#A1A1A1"/>
<rect x="23.6523" y="266.086" width="5.91302" height="5.91302" fill="#A1A1A1"/>
<rect x="23.6523" y="106.434" width="5.91302" height="5.91302" fill="#A1A1A1"/>
<rect x="248.348" y="165.566" width="5.91302" height="5.91302" transform="rotate(180 248.348 165.566)" fill="#A1A1A1"/>
<rect x="248.348" y="59.1289" width="5.91302" height="5.91302" transform="rotate(180 248.348 59.1289)" fill="#A1A1A1"/>
<rect x="23.6523" y="212.871" width="5.91302" height="5.91302" fill="#A1A1A1"/>
<rect x="41.3906" y="5.91406" width="5.91302" height="5.91302" transform="rotate(180 41.3906 5.91406)" fill="#A1A1A1"/>
<rect x="230.605" y="266.086" width="5.91302" height="5.91302" fill="#A1A1A1"/>
<rect x="230.605" y="106.434" width="5.91302" height="5.91302" fill="#A1A1A1"/>
<rect x="41.3906" y="165.566" width="5.91302" height="5.91302" transform="rotate(180 41.3906 165.566)" fill="#A1A1A1"/>
<rect x="41.3906" y="59.1289" width="5.91302" height="5.91302" transform="rotate(180 41.3906 59.1289)" fill="#A1A1A1"/>
<rect x="230.605" y="212.871" width="5.91302" height="5.91302" fill="#A1A1A1"/>
<rect width="5.91302" height="5.91302" transform="matrix(-1.44522e-08 -1 1 -1.99161e-06 0 47.3047)" fill="#A1A1A1"/>
<rect x="272" y="224.695" width="5.91302" height="5.91302" transform="rotate(90 272 224.695)" fill="#A1A1A1"/>
<rect x="272" y="65.043" width="5.91302" height="5.91302" transform="rotate(90 272 65.043)" fill="#A1A1A1"/>
<rect width="5.91302" height="5.91302" transform="matrix(-1.44522e-08 -1 1 -1.99161e-06 0 206.957)" fill="#A1A1A1"/>
<rect x="53.2188" y="47.3047" width="5.91302" height="5.91302" transform="rotate(-90 53.2188 47.3047)" fill="#A1A1A1"/>
<rect x="218.781" y="224.695" width="5.91302" height="5.91302" transform="rotate(90 218.781 224.695)" fill="#A1A1A1"/>
<rect x="218.781" y="65.043" width="5.91302" height="5.91302" transform="rotate(90 218.781 65.043)" fill="#A1A1A1"/>
<rect x="53.2188" y="206.957" width="5.91302" height="5.91302" transform="rotate(-90 53.2188 206.957)" fill="#A1A1A1"/>
<rect x="106.434" y="47.3047" width="5.91302" height="5.91302" transform="rotate(-90 106.434 47.3047)" fill="#A1A1A1"/>
<rect x="165.566" y="224.695" width="5.91302" height="5.91302" transform="rotate(90 165.566 224.695)" fill="#A1A1A1"/>
<rect x="165.566" y="65.043" width="5.91302" height="5.91302" transform="rotate(90 165.566 65.043)" fill="#A1A1A1"/>
<rect x="106.434" y="206.957" width="5.91302" height="5.91302" transform="rotate(-90 106.434 206.957)" fill="#A1A1A1"/>
<rect x="159.652" y="47.3047" width="5.91302" height="5.91302" transform="rotate(-90 159.652 47.3047)" fill="#A1A1A1"/>
<rect x="112.348" y="224.695" width="5.91302" height="5.91302" transform="rotate(90 112.348 224.695)" fill="#A1A1A1"/>
<rect x="112.348" y="65.043" width="5.91302" height="5.91302" transform="rotate(90 112.348 65.043)" fill="#A1A1A1"/>
<rect x="159.652" y="206.957" width="5.91302" height="5.91302" transform="rotate(-90 159.652 206.957)" fill="#A1A1A1"/>
<rect x="212.871" y="47.3047" width="5.91302" height="5.91302" transform="rotate(-90 212.871 47.3047)" fill="#A1A1A1"/>
<rect x="59.1289" y="224.695" width="5.91302" height="5.91302" transform="rotate(90 59.1289 224.695)" fill="#A1A1A1"/>
<rect x="59.1289" y="65.043" width="5.91302" height="5.91302" transform="rotate(90 59.1289 65.043)" fill="#A1A1A1"/>
<rect x="212.871" y="206.957" width="5.91302" height="5.91302" transform="rotate(-90 212.871 206.957)" fill="#A1A1A1"/>
<rect x="266.086" y="47.3047" width="5.91302" height="5.91302" transform="rotate(-90 266.086 47.3047)" fill="#A1A1A1"/>
<rect x="5.91406" y="224.695" width="5.91302" height="5.91302" transform="rotate(90 5.91406 224.695)" fill="#A1A1A1"/>
<rect x="5.91406" y="65.043" width="5.91302" height="5.91302" transform="rotate(90 5.91406 65.043)" fill="#A1A1A1"/>
<rect x="266.086" y="206.957" width="5.91302" height="5.91302" transform="rotate(-90 266.086 206.957)" fill="#A1A1A1"/>
<circle cx="243.288" cy="189.897" r="12.5926" fill="white"/>
<circle cx="82.5926" cy="136.593" r="12.5926" fill="white"/>
<circle cx="30.5926" cy="243.593" r="12.5926" fill="white"/>
<circle cx="188.386" cy="189.897" r="12.5926" fill="white"/>
<circle cx="135.593" cy="243.593" r="12.5926" fill="white"/>
<circle cx="189.897" cy="134.991" r="13.5926" fill="black" stroke="#43FF46" stroke-width="2"/>
<circle cx="82.5926" cy="189.593" r="12.5926" fill="black"/>
<circle cx="135.593" cy="29.5926" r="12.5926" fill="black"/>
<circle cx="82.5926" cy="83.5926" r="12.5926" fill="black"/>
<circle cx="242.593" cy="29.5926" r="12.5926" fill="black"/>
<path d="M235.132 134.391C235.913 133.61 235.913 132.343 235.132 131.562L222.404 118.834C221.623 118.053 220.357 118.053 219.576 118.834C218.795 119.615 218.795 120.882 219.576 121.663L230.889 132.977L219.576 144.29C218.795 145.071 218.795 146.338 219.576 147.119C220.357 147.9 221.623 147.9 222.404 147.119L235.132 134.391ZM202.488 132.977V134.977H233.718V132.977V130.977H202.488V132.977Z" fill="white"/>
<path d="M88.65 31.7476C87.5454 31.7476 86.65 32.643 86.65 33.7476L86.65 51.7476C86.65 52.8522 87.5454 53.7476 88.65 53.7476C89.7545 53.7476 90.65 52.8522 90.65 51.7476L90.65 35.7476L106.65 35.7476C107.755 35.7476 108.65 34.8522 108.65 33.7476C108.65 32.643 107.755 31.7476 106.65 31.7476L88.65 31.7476ZM130.961 76.0586L132.375 74.6444L90.0642 32.3334L88.65 33.7476L87.2357 35.1618L129.547 77.4728L130.961 76.0586Z" fill="white"/>
<circle cx="137.007" cy="83.616" r="13.5926" fill="#FE0D0D" stroke="#43FF46" stroke-width="2"/>
</svg>
