<svg width="272" height="296" viewBox="0 0 272 296" fill="none" xmlns="http://www.w3.org/2000/svg">
<rect x="5.5498" y="24" width="5.55102" height="5.55102" transform="rotate(90 5.5498 24)" fill="#A1A1A1"/>
<rect x="11.1001" y="24" width="5.55102" height="5.55102" transform="rotate(90 11.1001 24)" fill="#A1A1A1"/>
<rect x="55.5073" y="24" width="5.55102" height="5.55102" transform="rotate(90 55.5073 24)" fill="#A1A1A1"/>
<rect x="99.9331" y="24" width="5.55102" height="5.55102" transform="rotate(90 99.9331 24)" fill="#A1A1A1"/>
<rect x="144.341" y="24" width="5.55102" height="5.55102" transform="rotate(90 144.341 24)" fill="#A1A1A1"/>
<rect x="188.748" y="24" width="5.55102" height="5.55102" transform="rotate(90 188.748 24)" fill="#A1A1A1"/>
<rect x="233.155" y="24" width="5.55102" height="5.55102" transform="rotate(90 233.155 24)" fill="#A1A1A1"/>
<rect x="16.6519" y="24" width="5.55102" height="5.55102" transform="rotate(90 16.6519 24)" fill="#A1A1A1"/>
<rect x="61.0586" y="24" width="5.55102" height="5.55102" transform="rotate(90 61.0586 24)" fill="#A1A1A1"/>
<rect x="105.485" y="24" width="5.55102" height="5.55102" transform="rotate(90 105.485 24)" fill="#A1A1A1"/>
<rect x="149.892" y="24" width="5.55102" height="5.55102" transform="rotate(90 149.892 24)" fill="#A1A1A1"/>
<rect x="194.298" y="24" width="5.55102" height="5.55102" transform="rotate(90 194.298 24)" fill="#A1A1A1"/>
<rect x="238.706" y="24" width="5.55102" height="5.55102" transform="rotate(90 238.706 24)" fill="#A1A1A1"/>
<rect x="22.2026" y="24" width="5.55102" height="5.55102" transform="rotate(90 22.2026 24)" fill="#A1A1A1"/>
<rect x="66.6284" y="24" width="5.55102" height="5.55102" transform="rotate(90 66.6284 24)" fill="#A1A1A1"/>
<rect x="111.035" y="24" width="5.55102" height="5.55102" transform="rotate(90 111.035 24)" fill="#A1A1A1"/>
<rect x="155.442" y="24" width="5.55102" height="5.55102" transform="rotate(90 155.442 24)" fill="#A1A1A1"/>
<rect x="199.849" y="24" width="5.55102" height="5.55102" transform="rotate(90 199.849 24)" fill="#A1A1A1"/>
<rect x="244.256" y="24" width="5.55102" height="5.55102" transform="rotate(90 244.256 24)" fill="#A1A1A1"/>
<rect x="27.7529" y="24" width="5.55102" height="5.55102" transform="rotate(90 27.7529 24)" fill="#A1A1A1"/>
<rect x="72.1792" y="24" width="5.55102" height="5.55102" transform="rotate(90 72.1792 24)" fill="#A1A1A1"/>
<rect x="116.586" y="24" width="5.55102" height="5.55102" transform="rotate(90 116.586 24)" fill="#A1A1A1"/>
<rect x="160.993" y="24" width="5.55102" height="5.55102" transform="rotate(90 160.993 24)" fill="#A1A1A1"/>
<rect x="205.4" y="24" width="5.55102" height="5.55102" transform="rotate(90 205.4 24)" fill="#A1A1A1"/>
<rect x="249.807" y="24" width="5.55102" height="5.55102" transform="rotate(90 249.807 24)" fill="#A1A1A1"/>
<rect x="33.3037" y="24" width="5.55102" height="5.55102" transform="rotate(90 33.3037 24)" fill="#A1A1A1"/>
<rect x="77.7295" y="24" width="5.55102" height="5.55102" transform="rotate(90 77.7295 24)" fill="#A1A1A1"/>
<rect x="122.137" y="24" width="5.55102" height="5.55102" transform="rotate(90 122.137 24)" fill="#A1A1A1"/>
<rect x="166.544" y="24" width="5.55102" height="5.55102" transform="rotate(90 166.544 24)" fill="#A1A1A1"/>
<rect x="210.951" y="24" width="5.55102" height="5.55102" transform="rotate(90 210.951 24)" fill="#A1A1A1"/>
<rect x="255.358" y="24" width="5.55102" height="5.55102" transform="rotate(90 255.358 24)" fill="#A1A1A1"/>
<rect x="49.9565" y="24" width="5.55102" height="5.55102" transform="rotate(90 49.9565 24)" fill="#A1A1A1"/>
<rect x="94.3823" y="24" width="5.55102" height="5.55102" transform="rotate(90 94.3823 24)" fill="#A1A1A1"/>
<rect x="138.79" y="24" width="5.55102" height="5.55102" transform="rotate(90 138.79 24)" fill="#A1A1A1"/>
<rect x="183.196" y="24" width="5.55102" height="5.55102" transform="rotate(90 183.196 24)" fill="#A1A1A1"/>
<rect x="227.603" y="24" width="5.55102" height="5.55102" transform="rotate(90 227.603 24)" fill="#A1A1A1"/>
<rect x="272.01" y="24" width="5.55102" height="5.55102" transform="rotate(90 272.01 24)" fill="#A1A1A1"/>
<rect x="5.5498" y="57.3047" width="5.55102" height="5.55102" transform="rotate(-180 5.5498 57.3047)" fill="#A1A1A1"/>
<rect x="5.5498" y="101.711" width="5.55102" height="5.55102" transform="rotate(-180 5.5498 101.711)" fill="#A1A1A1"/>
<rect x="5.5498" y="146.125" width="5.55102" height="5.55102" transform="rotate(-180 5.5498 146.125)" fill="#A1A1A1"/>
<rect x="5.5498" y="190.531" width="5.55102" height="5.55102" transform="rotate(-180 5.5498 190.531)" fill="#A1A1A1"/>
<rect x="5.5498" y="234.938" width="5.55102" height="5.55102" transform="rotate(-180 5.5498 234.938)" fill="#A1A1A1"/>
<rect x="5.5498" y="279.344" width="5.55102" height="5.55102" transform="rotate(-180 5.5498 279.344)" fill="#A1A1A1"/>
<rect x="49.9565" y="57.3047" width="5.55102" height="5.55102" transform="rotate(-180 49.9565 57.3047)" fill="#A1A1A1"/>
<rect x="49.9565" y="101.711" width="5.55102" height="5.55102" transform="rotate(-180 49.9565 101.711)" fill="#A1A1A1"/>
<rect x="49.9565" y="146.125" width="5.55102" height="5.55102" transform="rotate(-180 49.9565 146.125)" fill="#A1A1A1"/>
<rect x="49.9565" y="190.531" width="5.55102" height="5.55102" transform="rotate(-180 49.9565 190.531)" fill="#A1A1A1"/>
<rect x="49.9565" y="234.938" width="5.55102" height="5.55102" transform="rotate(-180 49.9565 234.938)" fill="#A1A1A1"/>
<rect x="49.9565" y="279.344" width="5.55102" height="5.55102" transform="rotate(-180 49.9565 279.344)" fill="#A1A1A1"/>
<rect x="94.3823" y="57.3047" width="5.55102" height="5.55102" transform="rotate(-180 94.3823 57.3047)" fill="#A1A1A1"/>
<rect x="94.3823" y="101.711" width="5.55102" height="5.55102" transform="rotate(-180 94.3823 101.711)" fill="#A1A1A1"/>
<rect x="94.3823" y="146.125" width="5.55102" height="5.55102" transform="rotate(-180 94.3823 146.125)" fill="#A1A1A1"/>
<rect x="94.3823" y="190.531" width="5.55102" height="5.55102" transform="rotate(-180 94.3823 190.531)" fill="#A1A1A1"/>
<rect x="94.3823" y="234.938" width="5.55102" height="5.55102" transform="rotate(-180 94.3823 234.938)" fill="#A1A1A1"/>
<rect x="94.3823" y="279.344" width="5.55102" height="5.55102" transform="rotate(-180 94.3823 279.344)" fill="#A1A1A1"/>
<rect x="138.79" y="57.3047" width="5.55102" height="5.55102" transform="rotate(-180 138.79 57.3047)" fill="#A1A1A1"/>
<rect x="138.79" y="101.711" width="5.55102" height="5.55102" transform="rotate(-180 138.79 101.711)" fill="#A1A1A1"/>
<rect x="138.79" y="146.125" width="5.55102" height="5.55102" transform="rotate(-180 138.79 146.125)" fill="#A1A1A1"/>
<rect x="138.79" y="190.531" width="5.55102" height="5.55102" transform="rotate(-180 138.79 190.531)" fill="#A1A1A1"/>
<rect x="138.79" y="234.938" width="5.55102" height="5.55102" transform="rotate(-180 138.79 234.938)" fill="#A1A1A1"/>
<rect x="138.79" y="279.344" width="5.55102" height="5.55102" transform="rotate(-180 138.79 279.344)" fill="#A1A1A1"/>
<rect x="183.196" y="57.3047" width="5.55102" height="5.55102" transform="rotate(-180 183.196 57.3047)" fill="#A1A1A1"/>
<rect x="183.196" y="101.711" width="5.55102" height="5.55102" transform="rotate(-180 183.196 101.711)" fill="#A1A1A1"/>
<rect x="183.196" y="146.125" width="5.55102" height="5.55102" transform="rotate(-180 183.196 146.125)" fill="#A1A1A1"/>
<rect x="183.196" y="190.531" width="5.55102" height="5.55102" transform="rotate(-180 183.196 190.531)" fill="#A1A1A1"/>
<rect x="183.196" y="234.938" width="5.55102" height="5.55102" transform="rotate(-180 183.196 234.938)" fill="#A1A1A1"/>
<rect x="183.196" y="279.344" width="5.55102" height="5.55102" transform="rotate(-180 183.196 279.344)" fill="#A1A1A1"/>
<rect x="227.603" y="57.3047" width="5.55102" height="5.55102" transform="rotate(-180 227.603 57.3047)" fill="#A1A1A1"/>
<rect x="227.603" y="101.711" width="5.55102" height="5.55102" transform="rotate(-180 227.603 101.711)" fill="#A1A1A1"/>
<rect x="227.603" y="146.125" width="5.55102" height="5.55102" transform="rotate(-180 227.603 146.125)" fill="#A1A1A1"/>
<rect x="227.603" y="190.531" width="5.55102" height="5.55102" transform="rotate(-180 227.603 190.531)" fill="#A1A1A1"/>
<rect x="227.603" y="234.938" width="5.55102" height="5.55102" transform="rotate(-180 227.603 234.938)" fill="#A1A1A1"/>
<rect x="227.603" y="279.344" width="5.55102" height="5.55102" transform="rotate(-180 227.603 279.344)" fill="#A1A1A1"/>
<rect x="272.01" y="57.3047" width="5.55102" height="5.55102" transform="rotate(-180 272.01 57.3047)" fill="#A1A1A1"/>
<rect x="272.01" y="101.711" width="5.55102" height="5.55102" transform="rotate(-180 272.01 101.711)" fill="#A1A1A1"/>
<rect x="272.01" y="146.125" width="5.55102" height="5.55102" transform="rotate(-180 272.01 146.125)" fill="#A1A1A1"/>
<rect x="272.01" y="190.531" width="5.55102" height="5.55102" transform="rotate(-180 272.01 190.531)" fill="#A1A1A1"/>
<rect x="272.01" y="234.938" width="5.55102" height="5.55102" transform="rotate(-180 272.01 234.938)" fill="#A1A1A1"/>
<rect x="272.01" y="279.344" width="5.55102" height="5.55102" transform="rotate(-180 272.01 279.344)" fill="#A1A1A1"/>
<rect x="5.5498" y="73.9609" width="5.55102" height="5.55102" transform="rotate(-180 5.5498 73.9609)" fill="#A1A1A1"/>
<rect x="5.5498" y="118.367" width="5.55102" height="5.55102" transform="rotate(-180 5.5498 118.367)" fill="#A1A1A1"/>
<rect x="5.5498" y="162.773" width="5.55102" height="5.55102" transform="rotate(-180 5.5498 162.773)" fill="#A1A1A1"/>
<rect x="5.5498" y="207.188" width="5.55102" height="5.55102" transform="rotate(-180 5.5498 207.188)" fill="#A1A1A1"/>
<rect x="5.5498" y="251.594" width="5.55102" height="5.55102" transform="rotate(-180 5.5498 251.594)" fill="#A1A1A1"/>
<rect x="5.5498" y="296" width="5.55102" height="5.55102" transform="rotate(-180 5.5498 296)" fill="#A1A1A1"/>
<rect x="5.5498" y="68.4062" width="5.55102" height="5.55102" transform="rotate(-180 5.5498 68.4062)" fill="#A1A1A1"/>
<rect x="5.5498" y="112.812" width="5.55102" height="5.55102" transform="rotate(-180 5.5498 112.812)" fill="#A1A1A1"/>
<rect x="5.5498" y="157.227" width="5.55102" height="5.55102" transform="rotate(-180 5.5498 157.227)" fill="#A1A1A1"/>
<rect x="5.5498" y="201.633" width="5.55102" height="5.55102" transform="rotate(-180 5.5498 201.633)" fill="#A1A1A1"/>
<rect x="5.5498" y="246.039" width="5.55102" height="5.55102" transform="rotate(-180 5.5498 246.039)" fill="#A1A1A1"/>
<rect x="5.5498" y="290.445" width="5.55102" height="5.55102" transform="rotate(-180 5.5498 290.445)" fill="#A1A1A1"/>
<rect x="5.5498" y="62.8594" width="5.55102" height="5.55102" transform="rotate(-180 5.5498 62.8594)" fill="#A1A1A1"/>
<rect x="5.5498" y="107.266" width="5.55102" height="5.55102" transform="rotate(-180 5.5498 107.266)" fill="#A1A1A1"/>
<rect x="5.5498" y="151.672" width="5.55102" height="5.55102" transform="rotate(-180 5.5498 151.672)" fill="#A1A1A1"/>
<rect x="5.5498" y="196.078" width="5.55102" height="5.55102" transform="rotate(-180 5.5498 196.078)" fill="#A1A1A1"/>
<rect x="5.5498" y="240.492" width="5.55102" height="5.55102" transform="rotate(-180 5.5498 240.492)" fill="#A1A1A1"/>
<rect x="5.5498" y="284.898" width="5.55102" height="5.55102" transform="rotate(-180 5.5498 284.898)" fill="#A1A1A1"/>
<rect x="38.8555" y="29.5547" width="5.55102" height="5.55102" transform="rotate(-180 38.8555 29.5547)" fill="#A1A1A1"/>
<rect x="83.2812" y="29.5547" width="5.55102" height="5.55102" transform="rotate(-180 83.2812 29.5547)" fill="#A1A1A1"/>
<rect x="127.688" y="29.5547" width="5.55102" height="5.55102" transform="rotate(-180 127.688 29.5547)" fill="#A1A1A1"/>
<rect x="172.095" y="29.5547" width="5.55102" height="5.55102" transform="rotate(-180 172.095 29.5547)" fill="#A1A1A1"/>
<rect x="216.502" y="29.5547" width="5.55102" height="5.55102" transform="rotate(-180 216.502 29.5547)" fill="#A1A1A1"/>
<rect x="260.909" y="29.5547" width="5.55102" height="5.55102" transform="rotate(-180 260.909 29.5547)" fill="#A1A1A1"/>
<rect x="44.4058" y="29.5547" width="5.55102" height="5.55102" transform="rotate(-180 44.4058 29.5547)" fill="#A1A1A1"/>
<rect x="88.832" y="29.5547" width="5.55102" height="5.55102" transform="rotate(-180 88.832 29.5547)" fill="#A1A1A1"/>
<rect x="133.239" y="29.5547" width="5.55102" height="5.55102" transform="rotate(-180 133.239 29.5547)" fill="#A1A1A1"/>
<rect x="177.646" y="29.5547" width="5.55102" height="5.55102" transform="rotate(-180 177.646 29.5547)" fill="#A1A1A1"/>
<rect x="222.053" y="29.5547" width="5.55102" height="5.55102" transform="rotate(-180 222.053 29.5547)" fill="#A1A1A1"/>
<rect x="266.459" y="29.5547" width="5.55102" height="5.55102" transform="rotate(-180 266.459 29.5547)" fill="#A1A1A1"/>
<rect x="49.9565" y="62.8594" width="5.55102" height="5.55102" transform="rotate(-180 49.9565 62.8594)" fill="#A1A1A1"/>
<rect x="49.9565" y="107.266" width="5.55102" height="5.55102" transform="rotate(-180 49.9565 107.266)" fill="#A1A1A1"/>
<rect x="49.9565" y="151.672" width="5.55102" height="5.55102" transform="rotate(-180 49.9565 151.672)" fill="#A1A1A1"/>
<rect x="49.9565" y="196.078" width="5.55102" height="5.55102" transform="rotate(-180 49.9565 196.078)" fill="#A1A1A1"/>
<rect x="49.9565" y="240.492" width="5.55102" height="5.55102" transform="rotate(-180 49.9565 240.492)" fill="#A1A1A1"/>
<rect x="49.9565" y="284.898" width="5.55102" height="5.55102" transform="rotate(-180 49.9565 284.898)" fill="#A1A1A1"/>
<rect x="94.3823" y="62.8594" width="5.55102" height="5.55102" transform="rotate(-180 94.3823 62.8594)" fill="#A1A1A1"/>
<rect x="94.3823" y="107.266" width="5.55102" height="5.55102" transform="rotate(-180 94.3823 107.266)" fill="#A1A1A1"/>
<rect x="94.3823" y="151.672" width="5.55102" height="5.55102" transform="rotate(-180 94.3823 151.672)" fill="#A1A1A1"/>
<rect x="94.3823" y="196.078" width="5.55102" height="5.55102" transform="rotate(-180 94.3823 196.078)" fill="#A1A1A1"/>
<rect x="94.3823" y="240.492" width="5.55102" height="5.55102" transform="rotate(-180 94.3823 240.492)" fill="#A1A1A1"/>
<rect x="94.3823" y="284.898" width="5.55102" height="5.55102" transform="rotate(-180 94.3823 284.898)" fill="#A1A1A1"/>
<rect x="138.79" y="62.8594" width="5.55102" height="5.55102" transform="rotate(-180 138.79 62.8594)" fill="#A1A1A1"/>
<rect x="138.79" y="107.266" width="5.55102" height="5.55102" transform="rotate(-180 138.79 107.266)" fill="#A1A1A1"/>
<rect x="138.79" y="151.672" width="5.55102" height="5.55102" transform="rotate(-180 138.79 151.672)" fill="#A1A1A1"/>
<rect x="138.79" y="196.078" width="5.55102" height="5.55102" transform="rotate(-180 138.79 196.078)" fill="#A1A1A1"/>
<rect x="138.79" y="240.492" width="5.55102" height="5.55102" transform="rotate(-180 138.79 240.492)" fill="#A1A1A1"/>
<rect x="138.79" y="284.898" width="5.55102" height="5.55102" transform="rotate(-180 138.79 284.898)" fill="#A1A1A1"/>
<rect x="183.196" y="62.8594" width="5.55102" height="5.55102" transform="rotate(-180 183.196 62.8594)" fill="#A1A1A1"/>
<rect x="183.196" y="107.266" width="5.55102" height="5.55102" transform="rotate(-180 183.196 107.266)" fill="#A1A1A1"/>
<rect x="183.196" y="151.672" width="5.55102" height="5.55102" transform="rotate(-180 183.196 151.672)" fill="#A1A1A1"/>
<rect x="183.196" y="196.078" width="5.55102" height="5.55102" transform="rotate(-180 183.196 196.078)" fill="#A1A1A1"/>
<rect x="183.196" y="240.492" width="5.55102" height="5.55102" transform="rotate(-180 183.196 240.492)" fill="#A1A1A1"/>
<rect x="183.196" y="284.898" width="5.55102" height="5.55102" transform="rotate(-180 183.196 284.898)" fill="#A1A1A1"/>
<rect x="227.603" y="62.8594" width="5.55102" height="5.55102" transform="rotate(-180 227.603 62.8594)" fill="#A1A1A1"/>
<rect x="227.603" y="107.266" width="5.55102" height="5.55102" transform="rotate(-180 227.603 107.266)" fill="#A1A1A1"/>
<rect x="227.603" y="151.672" width="5.55102" height="5.55102" transform="rotate(-180 227.603 151.672)" fill="#A1A1A1"/>
<rect x="227.603" y="196.078" width="5.55102" height="5.55102" transform="rotate(-180 227.603 196.078)" fill="#A1A1A1"/>
<rect x="227.603" y="240.492" width="5.55102" height="5.55102" transform="rotate(-180 227.603 240.492)" fill="#A1A1A1"/>
<rect x="227.603" y="284.898" width="5.55102" height="5.55102" transform="rotate(-180 227.603 284.898)" fill="#A1A1A1"/>
<rect x="272.01" y="62.8594" width="5.55102" height="5.55102" transform="rotate(-180 272.01 62.8594)" fill="#A1A1A1"/>
<rect x="272.01" y="107.266" width="5.55102" height="5.55102" transform="rotate(-180 272.01 107.266)" fill="#A1A1A1"/>
<rect x="272.01" y="151.672" width="5.55102" height="5.55102" transform="rotate(-180 272.01 151.672)" fill="#A1A1A1"/>
<rect x="272.01" y="196.078" width="5.55102" height="5.55102" transform="rotate(-180 272.01 196.078)" fill="#A1A1A1"/>
<rect x="272.01" y="240.492" width="5.55102" height="5.55102" transform="rotate(-180 272.01 240.492)" fill="#A1A1A1"/>
<rect x="272.01" y="284.898" width="5.55102" height="5.55102" transform="rotate(-180 272.01 284.898)" fill="#A1A1A1"/>
<rect x="5.5498" y="35.1016" width="5.55102" height="5.55102" transform="rotate(-180 5.5498 35.1016)" fill="#A1A1A1"/>
<rect x="5.5498" y="79.5078" width="5.55102" height="5.55102" transform="rotate(-180 5.5498 79.5078)" fill="#A1A1A1"/>
<rect x="5.5498" y="123.922" width="5.55102" height="5.55102" transform="rotate(-180 5.5498 123.922)" fill="#A1A1A1"/>
<rect x="5.5498" y="168.328" width="5.55102" height="5.55102" transform="rotate(-180 5.5498 168.328)" fill="#A1A1A1"/>
<rect x="5.5498" y="212.734" width="5.55102" height="5.55102" transform="rotate(-180 5.5498 212.734)" fill="#A1A1A1"/>
<rect x="5.5498" y="257.141" width="5.55102" height="5.55102" transform="rotate(-180 5.5498 257.141)" fill="#A1A1A1"/>
<rect x="49.9565" y="35.1016" width="5.55102" height="5.55102" transform="rotate(-180 49.9565 35.1016)" fill="#A1A1A1"/>
<rect x="49.9565" y="79.5078" width="5.55102" height="5.55102" transform="rotate(-180 49.9565 79.5078)" fill="#A1A1A1"/>
<rect x="49.9565" y="123.922" width="5.55102" height="5.55102" transform="rotate(-180 49.9565 123.922)" fill="#A1A1A1"/>
<rect x="49.9565" y="168.328" width="5.55102" height="5.55102" transform="rotate(-180 49.9565 168.328)" fill="#A1A1A1"/>
<rect x="49.9565" y="212.734" width="5.55102" height="5.55102" transform="rotate(-180 49.9565 212.734)" fill="#A1A1A1"/>
<rect x="49.9565" y="257.141" width="5.55102" height="5.55102" transform="rotate(-180 49.9565 257.141)" fill="#A1A1A1"/>
<rect x="94.3823" y="35.1016" width="5.55102" height="5.55102" transform="rotate(-180 94.3823 35.1016)" fill="#A1A1A1"/>
<rect x="94.3823" y="79.5078" width="5.55102" height="5.55102" transform="rotate(-180 94.3823 79.5078)" fill="#A1A1A1"/>
<rect x="94.3823" y="123.922" width="5.55102" height="5.55102" transform="rotate(-180 94.3823 123.922)" fill="#A1A1A1"/>
<rect x="94.3823" y="168.328" width="5.55102" height="5.55102" transform="rotate(-180 94.3823 168.328)" fill="#A1A1A1"/>
<rect x="94.3823" y="212.734" width="5.55102" height="5.55102" transform="rotate(-180 94.3823 212.734)" fill="#A1A1A1"/>
<rect x="94.3823" y="257.141" width="5.55102" height="5.55102" transform="rotate(-180 94.3823 257.141)" fill="#A1A1A1"/>
<rect x="138.79" y="35.1016" width="5.55102" height="5.55102" transform="rotate(-180 138.79 35.1016)" fill="#A1A1A1"/>
<rect x="138.79" y="79.5078" width="5.55102" height="5.55102" transform="rotate(-180 138.79 79.5078)" fill="#A1A1A1"/>
<rect x="138.79" y="123.922" width="5.55102" height="5.55102" transform="rotate(-180 138.79 123.922)" fill="#A1A1A1"/>
<rect x="138.79" y="168.328" width="5.55102" height="5.55102" transform="rotate(-180 138.79 168.328)" fill="#A1A1A1"/>
<rect x="138.79" y="212.734" width="5.55102" height="5.55102" transform="rotate(-180 138.79 212.734)" fill="#A1A1A1"/>
<rect x="138.79" y="257.141" width="5.55102" height="5.55102" transform="rotate(-180 138.79 257.141)" fill="#A1A1A1"/>
<rect x="183.196" y="35.1016" width="5.55102" height="5.55102" transform="rotate(-180 183.196 35.1016)" fill="#A1A1A1"/>
<rect x="183.196" y="79.5078" width="5.55102" height="5.55102" transform="rotate(-180 183.196 79.5078)" fill="#A1A1A1"/>
<rect x="183.196" y="123.922" width="5.55102" height="5.55102" transform="rotate(-180 183.196 123.922)" fill="#A1A1A1"/>
<rect x="183.196" y="168.328" width="5.55102" height="5.55102" transform="rotate(-180 183.196 168.328)" fill="#A1A1A1"/>
<rect x="183.196" y="212.734" width="5.55102" height="5.55102" transform="rotate(-180 183.196 212.734)" fill="#A1A1A1"/>
<rect x="183.196" y="257.141" width="5.55102" height="5.55102" transform="rotate(-180 183.196 257.141)" fill="#A1A1A1"/>
<rect x="227.603" y="35.1016" width="5.55102" height="5.55102" transform="rotate(-180 227.603 35.1016)" fill="#A1A1A1"/>
<rect x="227.603" y="79.5078" width="5.55102" height="5.55102" transform="rotate(-180 227.603 79.5078)" fill="#A1A1A1"/>
<rect x="227.603" y="123.922" width="5.55102" height="5.55102" transform="rotate(-180 227.603 123.922)" fill="#A1A1A1"/>
<rect x="227.603" y="168.328" width="5.55102" height="5.55102" transform="rotate(-180 227.603 168.328)" fill="#A1A1A1"/>
<rect x="227.603" y="212.734" width="5.55102" height="5.55102" transform="rotate(-180 227.603 212.734)" fill="#A1A1A1"/>
<rect x="227.603" y="257.141" width="5.55102" height="5.55102" transform="rotate(-180 227.603 257.141)" fill="#A1A1A1"/>
<rect x="272.01" y="35.1016" width="5.55102" height="5.55102" transform="rotate(-180 272.01 35.1016)" fill="#A1A1A1"/>
<rect x="272.01" y="79.5078" width="5.55102" height="5.55102" transform="rotate(-180 272.01 79.5078)" fill="#A1A1A1"/>
<rect x="272.01" y="123.922" width="5.55102" height="5.55102" transform="rotate(-180 272.01 123.922)" fill="#A1A1A1"/>
<rect x="272.01" y="168.328" width="5.55102" height="5.55102" transform="rotate(-180 272.01 168.328)" fill="#A1A1A1"/>
<rect x="272.01" y="212.734" width="5.55102" height="5.55102" transform="rotate(-180 272.01 212.734)" fill="#A1A1A1"/>
<rect x="272.01" y="257.141" width="5.55102" height="5.55102" transform="rotate(-180 272.01 257.141)" fill="#A1A1A1"/>
<rect x="5.5498" y="40.6562" width="5.55102" height="5.55102" transform="rotate(-180 5.5498 40.6562)" fill="#A1A1A1"/>
<rect x="5.5498" y="85.0625" width="5.55102" height="5.55102" transform="rotate(-180 5.5498 85.0625)" fill="#A1A1A1"/>
<rect x="5.5498" y="129.469" width="5.55102" height="5.55102" transform="rotate(-180 5.5498 129.469)" fill="#A1A1A1"/>
<rect x="5.5498" y="173.875" width="5.55102" height="5.55102" transform="rotate(-180 5.5498 173.875)" fill="#A1A1A1"/>
<rect x="5.5498" y="218.289" width="5.55102" height="5.55102" transform="rotate(-180 5.5498 218.289)" fill="#A1A1A1"/>
<rect x="5.5498" y="262.695" width="5.55102" height="5.55102" transform="rotate(-180 5.5498 262.695)" fill="#A1A1A1"/>
<rect x="49.9565" y="40.6562" width="5.55102" height="5.55102" transform="rotate(-180 49.9565 40.6562)" fill="#A1A1A1"/>
<rect x="49.9565" y="85.0625" width="5.55102" height="5.55102" transform="rotate(-180 49.9565 85.0625)" fill="#A1A1A1"/>
<rect x="49.9565" y="129.469" width="5.55102" height="5.55102" transform="rotate(-180 49.9565 129.469)" fill="#A1A1A1"/>
<rect x="49.9565" y="173.875" width="5.55102" height="5.55102" transform="rotate(-180 49.9565 173.875)" fill="#A1A1A1"/>
<rect x="49.9565" y="218.289" width="5.55102" height="5.55102" transform="rotate(-180 49.9565 218.289)" fill="#A1A1A1"/>
<rect x="49.9565" y="262.695" width="5.55102" height="5.55102" transform="rotate(-180 49.9565 262.695)" fill="#A1A1A1"/>
<rect x="94.3823" y="40.6562" width="5.55102" height="5.55102" transform="rotate(-180 94.3823 40.6562)" fill="#A1A1A1"/>
<rect x="94.3823" y="85.0625" width="5.55102" height="5.55102" transform="rotate(-180 94.3823 85.0625)" fill="#A1A1A1"/>
<rect x="94.3823" y="129.469" width="5.55102" height="5.55102" transform="rotate(-180 94.3823 129.469)" fill="#A1A1A1"/>
<rect x="94.3823" y="173.875" width="5.55102" height="5.55102" transform="rotate(-180 94.3823 173.875)" fill="#A1A1A1"/>
<rect x="94.3823" y="218.289" width="5.55102" height="5.55102" transform="rotate(-180 94.3823 218.289)" fill="#A1A1A1"/>
<rect x="94.3823" y="262.695" width="5.55102" height="5.55102" transform="rotate(-180 94.3823 262.695)" fill="#A1A1A1"/>
<rect x="138.79" y="40.6562" width="5.55102" height="5.55102" transform="rotate(-180 138.79 40.6562)" fill="#A1A1A1"/>
<rect x="138.79" y="85.0625" width="5.55102" height="5.55102" transform="rotate(-180 138.79 85.0625)" fill="#A1A1A1"/>
<rect x="138.79" y="129.469" width="5.55102" height="5.55102" transform="rotate(-180 138.79 129.469)" fill="#A1A1A1"/>
<rect x="138.79" y="173.875" width="5.55102" height="5.55102" transform="rotate(-180 138.79 173.875)" fill="#A1A1A1"/>
<rect x="138.79" y="218.289" width="5.55102" height="5.55102" transform="rotate(-180 138.79 218.289)" fill="#A1A1A1"/>
<rect x="138.79" y="262.695" width="5.55102" height="5.55102" transform="rotate(-180 138.79 262.695)" fill="#A1A1A1"/>
<rect x="183.196" y="40.6562" width="5.55102" height="5.55102" transform="rotate(-180 183.196 40.6562)" fill="#A1A1A1"/>
<rect x="183.196" y="85.0625" width="5.55102" height="5.55102" transform="rotate(-180 183.196 85.0625)" fill="#A1A1A1"/>
<rect x="183.196" y="129.469" width="5.55102" height="5.55102" transform="rotate(-180 183.196 129.469)" fill="#A1A1A1"/>
<rect x="183.196" y="173.875" width="5.55102" height="5.55102" transform="rotate(-180 183.196 173.875)" fill="#A1A1A1"/>
<rect x="183.196" y="218.289" width="5.55102" height="5.55102" transform="rotate(-180 183.196 218.289)" fill="#A1A1A1"/>
<rect x="183.196" y="262.695" width="5.55102" height="5.55102" transform="rotate(-180 183.196 262.695)" fill="#A1A1A1"/>
<rect x="227.603" y="40.6562" width="5.55102" height="5.55102" transform="rotate(-180 227.603 40.6562)" fill="#A1A1A1"/>
<rect x="227.603" y="85.0625" width="5.55102" height="5.55102" transform="rotate(-180 227.603 85.0625)" fill="#A1A1A1"/>
<rect x="227.603" y="129.469" width="5.55102" height="5.55102" transform="rotate(-180 227.603 129.469)" fill="#A1A1A1"/>
<rect x="227.603" y="173.875" width="5.55102" height="5.55102" transform="rotate(-180 227.603 173.875)" fill="#A1A1A1"/>
<rect x="227.603" y="218.289" width="5.55102" height="5.55102" transform="rotate(-180 227.603 218.289)" fill="#A1A1A1"/>
<rect x="227.603" y="262.695" width="5.55102" height="5.55102" transform="rotate(-180 227.603 262.695)" fill="#A1A1A1"/>
<rect x="272.01" y="40.6562" width="5.55102" height="5.55102" transform="rotate(-180 272.01 40.6562)" fill="#A1A1A1"/>
<rect x="272.01" y="85.0625" width="5.55102" height="5.55102" transform="rotate(-180 272.01 85.0625)" fill="#A1A1A1"/>
<rect x="272.01" y="129.469" width="5.55102" height="5.55102" transform="rotate(-180 272.01 129.469)" fill="#A1A1A1"/>
<rect x="272.01" y="173.875" width="5.55102" height="5.55102" transform="rotate(-180 272.01 173.875)" fill="#A1A1A1"/>
<rect x="272.01" y="218.289" width="5.55102" height="5.55102" transform="rotate(-180 272.01 218.289)" fill="#A1A1A1"/>
<rect x="272.01" y="262.695" width="5.55102" height="5.55102" transform="rotate(-180 272.01 262.695)" fill="#A1A1A1"/>
<rect x="5.5498" y="46.2031" width="5.55102" height="5.55102" transform="rotate(-180 5.5498 46.2031)" fill="#A1A1A1"/>
<rect x="5.5498" y="90.6094" width="5.55102" height="5.55102" transform="rotate(-180 5.5498 90.6094)" fill="#A1A1A1"/>
<rect x="5.5498" y="135.023" width="5.55102" height="5.55102" transform="rotate(-180 5.5498 135.023)" fill="#A1A1A1"/>
<rect x="5.5498" y="179.43" width="5.55102" height="5.55102" transform="rotate(-180 5.5498 179.43)" fill="#A1A1A1"/>
<rect x="5.5498" y="223.836" width="5.55102" height="5.55102" transform="rotate(-180 5.5498 223.836)" fill="#A1A1A1"/>
<rect x="5.5498" y="268.242" width="5.55102" height="5.55102" transform="rotate(-180 5.5498 268.242)" fill="#A1A1A1"/>
<rect x="49.9565" y="46.2031" width="5.55102" height="5.55102" transform="rotate(-180 49.9565 46.2031)" fill="#A1A1A1"/>
<rect x="49.9565" y="90.6094" width="5.55102" height="5.55102" transform="rotate(-180 49.9565 90.6094)" fill="#A1A1A1"/>
<rect x="49.9565" y="135.023" width="5.55102" height="5.55102" transform="rotate(-180 49.9565 135.023)" fill="#A1A1A1"/>
<rect x="49.9565" y="179.43" width="5.55102" height="5.55102" transform="rotate(-180 49.9565 179.43)" fill="#A1A1A1"/>
<rect x="49.9565" y="223.836" width="5.55102" height="5.55102" transform="rotate(-180 49.9565 223.836)" fill="#A1A1A1"/>
<rect x="49.9565" y="268.242" width="5.55102" height="5.55102" transform="rotate(-180 49.9565 268.242)" fill="#A1A1A1"/>
<rect x="94.3823" y="46.2031" width="5.55102" height="5.55102" transform="rotate(-180 94.3823 46.2031)" fill="#A1A1A1"/>
<rect x="94.3823" y="90.6094" width="5.55102" height="5.55102" transform="rotate(-180 94.3823 90.6094)" fill="#A1A1A1"/>
<rect x="94.3823" y="135.023" width="5.55102" height="5.55102" transform="rotate(-180 94.3823 135.023)" fill="#A1A1A1"/>
<rect x="94.3823" y="179.43" width="5.55102" height="5.55102" transform="rotate(-180 94.3823 179.43)" fill="#A1A1A1"/>
<rect x="94.3823" y="223.836" width="5.55102" height="5.55102" transform="rotate(-180 94.3823 223.836)" fill="#A1A1A1"/>
<rect x="94.3823" y="268.242" width="5.55102" height="5.55102" transform="rotate(-180 94.3823 268.242)" fill="#A1A1A1"/>
<rect x="138.79" y="46.2031" width="5.55102" height="5.55102" transform="rotate(-180 138.79 46.2031)" fill="#A1A1A1"/>
<rect x="138.79" y="90.6094" width="5.55102" height="5.55102" transform="rotate(-180 138.79 90.6094)" fill="#A1A1A1"/>
<rect x="138.79" y="135.023" width="5.55102" height="5.55102" transform="rotate(-180 138.79 135.023)" fill="#A1A1A1"/>
<rect x="138.79" y="179.43" width="5.55102" height="5.55102" transform="rotate(-180 138.79 179.43)" fill="#A1A1A1"/>
<rect x="138.79" y="223.836" width="5.55102" height="5.55102" transform="rotate(-180 138.79 223.836)" fill="#A1A1A1"/>
<rect x="138.79" y="268.242" width="5.55102" height="5.55102" transform="rotate(-180 138.79 268.242)" fill="#A1A1A1"/>
<rect x="183.196" y="46.2031" width="5.55102" height="5.55102" transform="rotate(-180 183.196 46.2031)" fill="#A1A1A1"/>
<rect x="183.196" y="90.6094" width="5.55102" height="5.55102" transform="rotate(-180 183.196 90.6094)" fill="#A1A1A1"/>
<rect x="183.196" y="135.023" width="5.55102" height="5.55102" transform="rotate(-180 183.196 135.023)" fill="#A1A1A1"/>
<rect x="183.196" y="179.43" width="5.55102" height="5.55102" transform="rotate(-180 183.196 179.43)" fill="#A1A1A1"/>
<rect x="183.196" y="223.836" width="5.55102" height="5.55102" transform="rotate(-180 183.196 223.836)" fill="#A1A1A1"/>
<rect x="183.196" y="268.242" width="5.55102" height="5.55102" transform="rotate(-180 183.196 268.242)" fill="#A1A1A1"/>
<rect x="227.603" y="46.2031" width="5.55102" height="5.55102" transform="rotate(-180 227.603 46.2031)" fill="#A1A1A1"/>
<rect x="227.603" y="90.6094" width="5.55102" height="5.55102" transform="rotate(-180 227.603 90.6094)" fill="#A1A1A1"/>
<rect x="227.603" y="135.023" width="5.55102" height="5.55102" transform="rotate(-180 227.603 135.023)" fill="#A1A1A1"/>
<rect x="227.603" y="179.43" width="5.55102" height="5.55102" transform="rotate(-180 227.603 179.43)" fill="#A1A1A1"/>
<rect x="227.603" y="223.836" width="5.55102" height="5.55102" transform="rotate(-180 227.603 223.836)" fill="#A1A1A1"/>
<rect x="227.603" y="268.242" width="5.55102" height="5.55102" transform="rotate(-180 227.603 268.242)" fill="#A1A1A1"/>
<rect x="272.01" y="46.2031" width="5.55102" height="5.55102" transform="rotate(-180 272.01 46.2031)" fill="#A1A1A1"/>
<rect x="272.01" y="90.6094" width="5.55102" height="5.55102" transform="rotate(-180 272.01 90.6094)" fill="#A1A1A1"/>
<rect x="272.01" y="135.023" width="5.55102" height="5.55102" transform="rotate(-180 272.01 135.023)" fill="#A1A1A1"/>
<rect x="272.01" y="179.43" width="5.55102" height="5.55102" transform="rotate(-180 272.01 179.43)" fill="#A1A1A1"/>
<rect x="272.01" y="223.836" width="5.55102" height="5.55102" transform="rotate(-180 272.01 223.836)" fill="#A1A1A1"/>
<rect x="272.01" y="268.242" width="5.55102" height="5.55102" transform="rotate(-180 272.01 268.242)" fill="#A1A1A1"/>
<rect x="5.5498" y="51.7578" width="5.55102" height="5.55102" transform="rotate(-180 5.5498 51.7578)" fill="#A1A1A1"/>
<rect x="5.5498" y="96.1641" width="5.55102" height="5.55102" transform="rotate(-180 5.5498 96.1641)" fill="#A1A1A1"/>
<rect x="5.5498" y="140.57" width="5.55102" height="5.55102" transform="rotate(-180 5.5498 140.57)" fill="#A1A1A1"/>
<rect x="5.5498" y="184.977" width="5.55102" height="5.55102" transform="rotate(-180 5.5498 184.977)" fill="#A1A1A1"/>
<rect x="5.5498" y="229.391" width="5.55102" height="5.55102" transform="rotate(-180 5.5498 229.391)" fill="#A1A1A1"/>
<rect x="5.5498" y="273.797" width="5.55102" height="5.55102" transform="rotate(-180 5.5498 273.797)" fill="#A1A1A1"/>
<rect x="49.9565" y="51.7578" width="5.55102" height="5.55102" transform="rotate(-180 49.9565 51.7578)" fill="#A1A1A1"/>
<rect x="49.9565" y="96.1641" width="5.55102" height="5.55102" transform="rotate(-180 49.9565 96.1641)" fill="#A1A1A1"/>
<rect x="49.9565" y="140.57" width="5.55102" height="5.55102" transform="rotate(-180 49.9565 140.57)" fill="#A1A1A1"/>
<rect x="49.9565" y="184.977" width="5.55102" height="5.55102" transform="rotate(-180 49.9565 184.977)" fill="#A1A1A1"/>
<rect x="49.9565" y="229.391" width="5.55102" height="5.55102" transform="rotate(-180 49.9565 229.391)" fill="#A1A1A1"/>
<rect x="49.9565" y="273.797" width="5.55102" height="5.55102" transform="rotate(-180 49.9565 273.797)" fill="#A1A1A1"/>
<rect x="94.3823" y="51.7578" width="5.55102" height="5.55102" transform="rotate(-180 94.3823 51.7578)" fill="#A1A1A1"/>
<rect x="94.3823" y="96.1641" width="5.55102" height="5.55102" transform="rotate(-180 94.3823 96.1641)" fill="#A1A1A1"/>
<rect x="94.3823" y="140.57" width="5.55102" height="5.55102" transform="rotate(-180 94.3823 140.57)" fill="#A1A1A1"/>
<rect x="111.035" y="140.57" width="5.55102" height="5.55102" transform="rotate(-180 111.035 140.57)" fill="#A1A1A1"/>
<rect x="155.442" y="140.57" width="5.55102" height="5.55102" transform="rotate(-180 155.442 140.57)" fill="#A1A1A1"/>
<rect x="155.442" y="184.977" width="5.55102" height="5.55102" transform="rotate(-180 155.442 184.977)" fill="#A1A1A1"/>
<rect x="111.035" y="184.977" width="5.55102" height="5.55102" transform="rotate(-180 111.035 184.977)" fill="#A1A1A1"/>
<rect x="116.586" y="140.57" width="5.55102" height="5.55102" transform="rotate(-180 116.586 140.57)" fill="#A1A1A1"/>
<rect x="160.993" y="140.57" width="5.55102" height="5.55102" transform="rotate(-180 160.993 140.57)" fill="#A1A1A1"/>
<rect x="160.993" y="184.977" width="5.55102" height="5.55102" transform="rotate(-180 160.993 184.977)" fill="#A1A1A1"/>
<rect x="116.586" y="184.977" width="5.55102" height="5.55102" transform="rotate(-180 116.586 184.977)" fill="#A1A1A1"/>
<rect x="122.137" y="140.57" width="5.55102" height="5.55102" transform="rotate(-180 122.137 140.57)" fill="#A1A1A1"/>
<rect x="166.544" y="140.57" width="5.55102" height="5.55102" transform="rotate(-180 166.544 140.57)" fill="#A1A1A1"/>
<rect x="166.544" y="184.977" width="5.55102" height="5.55102" transform="rotate(-180 166.544 184.977)" fill="#A1A1A1"/>
<rect x="122.137" y="184.977" width="5.55102" height="5.55102" transform="rotate(-180 122.137 184.977)" fill="#A1A1A1"/>
<rect x="116.586" y="135.023" width="5.55102" height="5.55102" transform="rotate(-180 116.586 135.023)" fill="#A1A1A1"/>
<rect x="160.993" y="135.023" width="5.55102" height="5.55102" transform="rotate(-180 160.993 135.023)" fill="#A1A1A1"/>
<rect x="160.993" y="179.43" width="5.55102" height="5.55102" transform="rotate(-180 160.993 179.43)" fill="#A1A1A1"/>
<rect x="116.586" y="179.43" width="5.55102" height="5.55102" transform="rotate(-180 116.586 179.43)" fill="#A1A1A1"/>
<rect x="116.586" y="146.125" width="5.55102" height="5.55102" transform="rotate(-180 116.586 146.125)" fill="#A1A1A1"/>
<rect x="160.993" y="146.125" width="5.55102" height="5.55102" transform="rotate(-180 160.993 146.125)" fill="#A1A1A1"/>
<rect x="160.993" y="190.531" width="5.55102" height="5.55102" transform="rotate(-180 160.993 190.531)" fill="#A1A1A1"/>
<rect x="116.586" y="190.531" width="5.55102" height="5.55102" transform="rotate(-180 116.586 190.531)" fill="#A1A1A1"/>
<rect x="122.137" y="129.469" width="5.55102" height="5.55102" transform="rotate(-180 122.137 129.469)" fill="#A1A1A1"/>
<rect x="166.544" y="129.469" width="5.55102" height="5.55102" transform="rotate(-180 166.544 129.469)" fill="#A1A1A1"/>
<rect x="166.544" y="173.875" width="5.55102" height="5.55102" transform="rotate(-180 166.544 173.875)" fill="#A1A1A1"/>
<rect x="122.137" y="173.875" width="5.55102" height="5.55102" transform="rotate(-180 122.137 173.875)" fill="#A1A1A1"/>
<rect x="127.688" y="129.469" width="5.55102" height="5.55102" transform="rotate(-180 127.688 129.469)" fill="#A1A1A1"/>
<rect x="172.095" y="129.469" width="5.55102" height="5.55102" transform="rotate(-180 172.095 129.469)" fill="#A1A1A1"/>
<rect x="172.095" y="173.875" width="5.55102" height="5.55102" transform="rotate(-180 172.095 173.875)" fill="#A1A1A1"/>
<rect x="127.688" y="173.875" width="5.55102" height="5.55102" transform="rotate(-180 127.688 173.875)" fill="#A1A1A1"/>
<rect x="127.688" y="135.023" width="5.55102" height="5.55102" transform="rotate(-180 127.688 135.023)" fill="#A1A1A1"/>
<rect x="172.095" y="135.023" width="5.55102" height="5.55102" transform="rotate(-180 172.095 135.023)" fill="#A1A1A1"/>
<rect x="172.095" y="179.43" width="5.55102" height="5.55102" transform="rotate(-180 172.095 179.43)" fill="#A1A1A1"/>
<rect x="127.688" y="179.43" width="5.55102" height="5.55102" transform="rotate(-180 127.688 179.43)" fill="#A1A1A1"/>
<rect x="127.688" y="146.125" width="5.55102" height="5.55102" transform="rotate(-180 127.688 146.125)" fill="#A1A1A1"/>
<rect x="172.095" y="146.125" width="5.55102" height="5.55102" transform="rotate(-180 172.095 146.125)" fill="#A1A1A1"/>
<rect x="172.095" y="190.531" width="5.55102" height="5.55102" transform="rotate(-180 172.095 190.531)" fill="#A1A1A1"/>
<rect x="127.688" y="190.531" width="5.55102" height="5.55102" transform="rotate(-180 127.688 190.531)" fill="#A1A1A1"/>
<rect x="127.688" y="151.672" width="5.55102" height="5.55102" transform="rotate(-180 127.688 151.672)" fill="#A1A1A1"/>
<rect x="172.095" y="151.672" width="5.55102" height="5.55102" transform="rotate(-180 172.095 151.672)" fill="#A1A1A1"/>
<rect x="172.095" y="196.078" width="5.55102" height="5.55102" transform="rotate(-180 172.095 196.078)" fill="#A1A1A1"/>
<rect x="127.688" y="196.078" width="5.55102" height="5.55102" transform="rotate(-180 127.688 196.078)" fill="#A1A1A1"/>
<rect x="122.137" y="151.672" width="5.55102" height="5.55102" transform="rotate(-180 122.137 151.672)" fill="#A1A1A1"/>
<rect x="166.544" y="151.672" width="5.55102" height="5.55102" transform="rotate(-180 166.544 151.672)" fill="#A1A1A1"/>
<rect x="166.544" y="196.078" width="5.55102" height="5.55102" transform="rotate(-180 166.544 196.078)" fill="#A1A1A1"/>
<rect x="122.137" y="196.078" width="5.55102" height="5.55102" transform="rotate(-180 122.137 196.078)" fill="#A1A1A1"/>
<rect x="111.035" y="151.672" width="5.55102" height="5.55102" transform="rotate(-180 111.035 151.672)" fill="#A1A1A1"/>
<rect x="155.442" y="151.672" width="5.55102" height="5.55102" transform="rotate(-180 155.442 151.672)" fill="#A1A1A1"/>
<rect x="155.442" y="196.078" width="5.55102" height="5.55102" transform="rotate(-180 155.442 196.078)" fill="#A1A1A1"/>
<rect x="111.035" y="196.078" width="5.55102" height="5.55102" transform="rotate(-180 111.035 196.078)" fill="#A1A1A1"/>
<rect x="105.485" y="151.672" width="5.55102" height="5.55102" transform="rotate(-180 105.485 151.672)" fill="#A1A1A1"/>
<rect x="149.892" y="151.672" width="5.55102" height="5.55102" transform="rotate(-180 149.892 151.672)" fill="#A1A1A1"/>
<rect x="149.892" y="196.078" width="5.55102" height="5.55102" transform="rotate(-180 149.892 196.078)" fill="#A1A1A1"/>
<rect x="105.485" y="196.078" width="5.55102" height="5.55102" transform="rotate(-180 105.485 196.078)" fill="#A1A1A1"/>
<rect x="105.485" y="146.125" width="5.55102" height="5.55102" transform="rotate(-180 105.485 146.125)" fill="#A1A1A1"/>
<rect x="149.892" y="146.125" width="5.55102" height="5.55102" transform="rotate(-180 149.892 146.125)" fill="#A1A1A1"/>
<rect x="149.892" y="190.531" width="5.55102" height="5.55102" transform="rotate(-180 149.892 190.531)" fill="#A1A1A1"/>
<rect x="105.485" y="190.531" width="5.55102" height="5.55102" transform="rotate(-180 105.485 190.531)" fill="#A1A1A1"/>
<rect x="105.485" y="135.023" width="5.55102" height="5.55102" transform="rotate(-180 105.485 135.023)" fill="#A1A1A1"/>
<rect x="149.892" y="135.023" width="5.55102" height="5.55102" transform="rotate(-180 149.892 135.023)" fill="#A1A1A1"/>
<rect x="149.892" y="179.43" width="5.55102" height="5.55102" transform="rotate(-180 149.892 179.43)" fill="#A1A1A1"/>
<rect x="105.485" y="179.43" width="5.55102" height="5.55102" transform="rotate(-180 105.485 179.43)" fill="#A1A1A1"/>
<rect x="105.485" y="129.469" width="5.55102" height="5.55102" transform="rotate(-180 105.485 129.469)" fill="#A1A1A1"/>
<rect x="149.892" y="129.469" width="5.55102" height="5.55102" transform="rotate(-180 149.892 129.469)" fill="#A1A1A1"/>
<rect x="149.892" y="173.875" width="5.55102" height="5.55102" transform="rotate(-180 149.892 173.875)" fill="#A1A1A1"/>
<rect x="105.485" y="173.875" width="5.55102" height="5.55102" transform="rotate(-180 105.485 173.875)" fill="#A1A1A1"/>
<rect x="111.035" y="129.469" width="5.55102" height="5.55102" transform="rotate(-180 111.035 129.469)" fill="#A1A1A1"/>
<rect x="155.442" y="129.469" width="5.55102" height="5.55102" transform="rotate(-180 155.442 129.469)" fill="#A1A1A1"/>
<rect x="155.442" y="173.875" width="5.55102" height="5.55102" transform="rotate(-180 155.442 173.875)" fill="#A1A1A1"/>
<rect x="111.035" y="173.875" width="5.55102" height="5.55102" transform="rotate(-180 111.035 173.875)" fill="#A1A1A1"/>
<rect x="94.3823" y="184.977" width="5.55102" height="5.55102" transform="rotate(-180 94.3823 184.977)" fill="#A1A1A1"/>
<rect x="94.3823" y="229.391" width="5.55102" height="5.55102" transform="rotate(-180 94.3823 229.391)" fill="#A1A1A1"/>
<rect x="94.3823" y="273.797" width="5.55102" height="5.55102" transform="rotate(-180 94.3823 273.797)" fill="#A1A1A1"/>
<rect x="138.79" y="51.7578" width="5.55102" height="5.55102" transform="rotate(-180 138.79 51.7578)" fill="#A1A1A1"/>
<rect x="138.79" y="96.1641" width="5.55102" height="5.55102" transform="rotate(-180 138.79 96.1641)" fill="#A1A1A1"/>
<rect x="138.79" y="140.57" width="5.55102" height="5.55102" transform="rotate(-180 138.79 140.57)" fill="#A1A1A1"/>
<rect x="138.79" y="184.977" width="5.55102" height="5.55102" transform="rotate(-180 138.79 184.977)" fill="#A1A1A1"/>
<rect x="138.79" y="229.391" width="5.55102" height="5.55102" transform="rotate(-180 138.79 229.391)" fill="#A1A1A1"/>
<rect x="138.79" y="273.797" width="5.55102" height="5.55102" transform="rotate(-180 138.79 273.797)" fill="#A1A1A1"/>
<rect x="183.196" y="51.7578" width="5.55102" height="5.55102" transform="rotate(-180 183.196 51.7578)" fill="#A1A1A1"/>
<rect x="183.196" y="96.1641" width="5.55102" height="5.55102" transform="rotate(-180 183.196 96.1641)" fill="#A1A1A1"/>
<rect x="183.196" y="140.57" width="5.55102" height="5.55102" transform="rotate(-180 183.196 140.57)" fill="#A1A1A1"/>
<rect x="183.196" y="184.977" width="5.55102" height="5.55102" transform="rotate(-180 183.196 184.977)" fill="#A1A1A1"/>
<rect x="183.196" y="229.391" width="5.55102" height="5.55102" transform="rotate(-180 183.196 229.391)" fill="#A1A1A1"/>
<rect x="183.196" y="273.797" width="5.55102" height="5.55102" transform="rotate(-180 183.196 273.797)" fill="#A1A1A1"/>
<rect x="227.603" y="51.7578" width="5.55102" height="5.55102" transform="rotate(-180 227.603 51.7578)" fill="#A1A1A1"/>
<rect x="227.603" y="96.1641" width="5.55102" height="5.55102" transform="rotate(-180 227.603 96.1641)" fill="#A1A1A1"/>
<rect x="227.603" y="140.57" width="5.55102" height="5.55102" transform="rotate(-180 227.603 140.57)" fill="#A1A1A1"/>
<rect x="227.603" y="184.977" width="5.55102" height="5.55102" transform="rotate(-180 227.603 184.977)" fill="#A1A1A1"/>
<rect x="227.603" y="229.391" width="5.55102" height="5.55102" transform="rotate(-180 227.603 229.391)" fill="#A1A1A1"/>
<rect x="227.603" y="273.797" width="5.55102" height="5.55102" transform="rotate(-180 227.603 273.797)" fill="#A1A1A1"/>
<rect x="272.01" y="51.7578" width="5.55102" height="5.55102" transform="rotate(-180 272.01 51.7578)" fill="#A1A1A1"/>
<rect x="272.01" y="96.1641" width="5.55102" height="5.55102" transform="rotate(-180 272.01 96.1641)" fill="#A1A1A1"/>
<rect x="272.01" y="140.57" width="5.55102" height="5.55102" transform="rotate(-180 272.01 140.57)" fill="#A1A1A1"/>
<rect x="272.01" y="184.977" width="5.55102" height="5.55102" transform="rotate(-180 272.01 184.977)" fill="#A1A1A1"/>
<rect x="272.01" y="229.391" width="5.55102" height="5.55102" transform="rotate(-180 272.01 229.391)" fill="#A1A1A1"/>
<rect x="272.01" y="273.797" width="5.55102" height="5.55102" transform="rotate(-180 272.01 273.797)" fill="#A1A1A1"/>
<rect x="22.2026" y="68.4062" width="5.55102" height="5.55102" transform="rotate(90 22.2026 68.4062)" fill="#A1A1A1"/>
<rect x="22.2026" y="112.812" width="5.55102" height="5.55102" transform="rotate(90 22.2026 112.812)" fill="#A1A1A1"/>
<rect x="22.2026" y="157.227" width="5.55102" height="5.55102" transform="rotate(90 22.2026 157.227)" fill="#A1A1A1"/>
<rect x="22.2026" y="201.633" width="5.55102" height="5.55102" transform="rotate(90 22.2026 201.633)" fill="#A1A1A1"/>
<rect x="22.2026" y="246.039" width="5.55102" height="5.55102" transform="rotate(90 22.2026 246.039)" fill="#A1A1A1"/>
<rect x="22.2026" y="290.445" width="5.55102" height="5.55102" transform="rotate(90 22.2026 290.445)" fill="#A1A1A1"/>
<rect x="66.6284" y="68.4062" width="5.55102" height="5.55102" transform="rotate(90 66.6284 68.4062)" fill="#A1A1A1"/>
<rect x="66.6284" y="112.812" width="5.55102" height="5.55102" transform="rotate(90 66.6284 112.812)" fill="#A1A1A1"/>
<rect x="66.6284" y="157.227" width="5.55102" height="5.55102" transform="rotate(90 66.6284 157.227)" fill="#A1A1A1"/>
<rect x="66.6284" y="201.633" width="5.55102" height="5.55102" transform="rotate(90 66.6284 201.633)" fill="#A1A1A1"/>
<rect x="66.6284" y="246.039" width="5.55102" height="5.55102" transform="rotate(90 66.6284 246.039)" fill="#A1A1A1"/>
<rect x="66.6284" y="290.445" width="5.55102" height="5.55102" transform="rotate(90 66.6284 290.445)" fill="#A1A1A1"/>
<rect x="111.035" y="68.4062" width="5.55102" height="5.55102" transform="rotate(90 111.035 68.4062)" fill="#A1A1A1"/>
<rect x="111.035" y="112.812" width="5.55102" height="5.55102" transform="rotate(90 111.035 112.812)" fill="#A1A1A1"/>
<rect x="111.035" y="157.227" width="5.55102" height="5.55102" transform="rotate(90 111.035 157.227)" fill="#A1A1A1"/>
<rect x="111.035" y="201.633" width="5.55102" height="5.55102" transform="rotate(90 111.035 201.633)" fill="#A1A1A1"/>
<rect x="111.035" y="246.039" width="5.55102" height="5.55102" transform="rotate(90 111.035 246.039)" fill="#A1A1A1"/>
<rect x="111.035" y="290.445" width="5.55102" height="5.55102" transform="rotate(90 111.035 290.445)" fill="#A1A1A1"/>
<rect x="155.442" y="68.4062" width="5.55102" height="5.55102" transform="rotate(90 155.442 68.4062)" fill="#A1A1A1"/>
<rect x="155.442" y="112.812" width="5.55102" height="5.55102" transform="rotate(90 155.442 112.812)" fill="#A1A1A1"/>
<rect x="155.442" y="157.227" width="5.55102" height="5.55102" transform="rotate(90 155.442 157.227)" fill="#A1A1A1"/>
<rect x="155.442" y="201.633" width="5.55102" height="5.55102" transform="rotate(90 155.442 201.633)" fill="#A1A1A1"/>
<rect x="155.442" y="246.039" width="5.55102" height="5.55102" transform="rotate(90 155.442 246.039)" fill="#A1A1A1"/>
<rect x="155.442" y="290.445" width="5.55102" height="5.55102" transform="rotate(90 155.442 290.445)" fill="#A1A1A1"/>
<rect x="199.849" y="68.4062" width="5.55102" height="5.55102" transform="rotate(90 199.849 68.4062)" fill="#A1A1A1"/>
<rect x="199.849" y="112.812" width="5.55102" height="5.55102" transform="rotate(90 199.849 112.812)" fill="#A1A1A1"/>
<rect x="199.849" y="157.227" width="5.55102" height="5.55102" transform="rotate(90 199.849 157.227)" fill="#A1A1A1"/>
<rect x="199.849" y="201.633" width="5.55102" height="5.55102" transform="rotate(90 199.849 201.633)" fill="#A1A1A1"/>
<rect x="199.849" y="246.039" width="5.55102" height="5.55102" transform="rotate(90 199.849 246.039)" fill="#A1A1A1"/>
<rect x="199.849" y="290.445" width="5.55102" height="5.55102" transform="rotate(90 199.849 290.445)" fill="#A1A1A1"/>
<rect x="244.256" y="68.4062" width="5.55102" height="5.55102" transform="rotate(90 244.256 68.4062)" fill="#A1A1A1"/>
<rect x="244.256" y="112.812" width="5.55102" height="5.55102" transform="rotate(90 244.256 112.812)" fill="#A1A1A1"/>
<rect x="244.256" y="157.227" width="5.55102" height="5.55102" transform="rotate(90 244.256 157.227)" fill="#A1A1A1"/>
<rect x="244.256" y="201.633" width="5.55102" height="5.55102" transform="rotate(90 244.256 201.633)" fill="#A1A1A1"/>
<rect x="244.256" y="246.039" width="5.55102" height="5.55102" transform="rotate(90 244.256 246.039)" fill="#A1A1A1"/>
<rect x="244.256" y="290.445" width="5.55102" height="5.55102" transform="rotate(90 244.256 290.445)" fill="#A1A1A1"/>
<rect x="27.7529" y="68.4062" width="5.55102" height="5.55102" transform="rotate(90 27.7529 68.4062)" fill="#A1A1A1"/>
<rect x="27.7529" y="112.812" width="5.55102" height="5.55102" transform="rotate(90 27.7529 112.812)" fill="#A1A1A1"/>
<rect x="27.7529" y="157.227" width="5.55102" height="5.55102" transform="rotate(90 27.7529 157.227)" fill="#A1A1A1"/>
<rect x="27.7529" y="201.633" width="5.55102" height="5.55102" transform="rotate(90 27.7529 201.633)" fill="#A1A1A1"/>
<rect x="27.7529" y="246.039" width="5.55102" height="5.55102" transform="rotate(90 27.7529 246.039)" fill="#A1A1A1"/>
<rect x="27.7529" y="290.445" width="5.55102" height="5.55102" transform="rotate(90 27.7529 290.445)" fill="#A1A1A1"/>
<rect x="72.1792" y="68.4062" width="5.55102" height="5.55102" transform="rotate(90 72.1792 68.4062)" fill="#A1A1A1"/>
<rect x="72.1792" y="112.812" width="5.55102" height="5.55102" transform="rotate(90 72.1792 112.812)" fill="#A1A1A1"/>
<rect x="72.1792" y="157.227" width="5.55102" height="5.55102" transform="rotate(90 72.1792 157.227)" fill="#A1A1A1"/>
<rect x="72.1792" y="201.633" width="5.55102" height="5.55102" transform="rotate(90 72.1792 201.633)" fill="#A1A1A1"/>
<rect x="72.1792" y="246.039" width="5.55102" height="5.55102" transform="rotate(90 72.1792 246.039)" fill="#A1A1A1"/>
<rect x="72.1792" y="290.445" width="5.55102" height="5.55102" transform="rotate(90 72.1792 290.445)" fill="#A1A1A1"/>
<rect x="116.586" y="68.4062" width="5.55102" height="5.55102" transform="rotate(90 116.586 68.4062)" fill="#A1A1A1"/>
<rect x="116.586" y="112.812" width="5.55102" height="5.55102" transform="rotate(90 116.586 112.812)" fill="#A1A1A1"/>
<rect x="116.586" y="157.227" width="5.55102" height="5.55102" transform="rotate(90 116.586 157.227)" fill="#A1A1A1"/>
<rect x="116.586" y="201.633" width="5.55102" height="5.55102" transform="rotate(90 116.586 201.633)" fill="#A1A1A1"/>
<rect x="116.586" y="246.039" width="5.55102" height="5.55102" transform="rotate(90 116.586 246.039)" fill="#A1A1A1"/>
<rect x="116.586" y="290.445" width="5.55102" height="5.55102" transform="rotate(90 116.586 290.445)" fill="#A1A1A1"/>
<rect x="160.993" y="68.4062" width="5.55102" height="5.55102" transform="rotate(90 160.993 68.4062)" fill="#A1A1A1"/>
<rect x="160.993" y="112.812" width="5.55102" height="5.55102" transform="rotate(90 160.993 112.812)" fill="#A1A1A1"/>
<rect x="160.993" y="157.227" width="5.55102" height="5.55102" transform="rotate(90 160.993 157.227)" fill="#A1A1A1"/>
<rect x="160.993" y="201.633" width="5.55102" height="5.55102" transform="rotate(90 160.993 201.633)" fill="#A1A1A1"/>
<rect x="160.993" y="246.039" width="5.55102" height="5.55102" transform="rotate(90 160.993 246.039)" fill="#A1A1A1"/>
<rect x="160.993" y="290.445" width="5.55102" height="5.55102" transform="rotate(90 160.993 290.445)" fill="#A1A1A1"/>
<rect x="205.4" y="68.4062" width="5.55102" height="5.55102" transform="rotate(90 205.4 68.4062)" fill="#A1A1A1"/>
<rect x="205.4" y="112.812" width="5.55102" height="5.55102" transform="rotate(90 205.4 112.812)" fill="#A1A1A1"/>
<rect x="205.4" y="157.227" width="5.55102" height="5.55102" transform="rotate(90 205.4 157.227)" fill="#A1A1A1"/>
<rect x="205.4" y="201.633" width="5.55102" height="5.55102" transform="rotate(90 205.4 201.633)" fill="#A1A1A1"/>
<rect x="205.4" y="246.039" width="5.55102" height="5.55102" transform="rotate(90 205.4 246.039)" fill="#A1A1A1"/>
<rect x="205.4" y="290.445" width="5.55102" height="5.55102" transform="rotate(90 205.4 290.445)" fill="#A1A1A1"/>
<rect x="249.807" y="68.4062" width="5.55102" height="5.55102" transform="rotate(90 249.807 68.4062)" fill="#A1A1A1"/>
<rect x="249.807" y="112.812" width="5.55102" height="5.55102" transform="rotate(90 249.807 112.812)" fill="#A1A1A1"/>
<rect x="249.807" y="157.227" width="5.55102" height="5.55102" transform="rotate(90 249.807 157.227)" fill="#A1A1A1"/>
<rect x="249.807" y="201.633" width="5.55102" height="5.55102" transform="rotate(90 249.807 201.633)" fill="#A1A1A1"/>
<rect x="249.807" y="246.039" width="5.55102" height="5.55102" transform="rotate(90 249.807 246.039)" fill="#A1A1A1"/>
<rect x="249.807" y="290.445" width="5.55102" height="5.55102" transform="rotate(90 249.807 290.445)" fill="#A1A1A1"/>
<rect x="33.3037" y="68.4062" width="5.55102" height="5.55102" transform="rotate(90 33.3037 68.4062)" fill="#A1A1A1"/>
<rect x="33.3037" y="112.812" width="5.55102" height="5.55102" transform="rotate(90 33.3037 112.812)" fill="#A1A1A1"/>
<rect x="33.3037" y="157.227" width="5.55102" height="5.55102" transform="rotate(90 33.3037 157.227)" fill="#A1A1A1"/>
<rect x="33.3037" y="201.633" width="5.55102" height="5.55102" transform="rotate(90 33.3037 201.633)" fill="#A1A1A1"/>
<rect x="33.3037" y="246.039" width="5.55102" height="5.55102" transform="rotate(90 33.3037 246.039)" fill="#A1A1A1"/>
<rect x="33.3037" y="290.445" width="5.55102" height="5.55102" transform="rotate(90 33.3037 290.445)" fill="#A1A1A1"/>
<rect x="77.7295" y="68.4062" width="5.55102" height="5.55102" transform="rotate(90 77.7295 68.4062)" fill="#A1A1A1"/>
<rect x="77.7295" y="112.812" width="5.55102" height="5.55102" transform="rotate(90 77.7295 112.812)" fill="#A1A1A1"/>
<rect x="77.7295" y="157.227" width="5.55102" height="5.55102" transform="rotate(90 77.7295 157.227)" fill="#A1A1A1"/>
<rect x="77.7295" y="201.633" width="5.55102" height="5.55102" transform="rotate(90 77.7295 201.633)" fill="#A1A1A1"/>
<rect x="77.7295" y="246.039" width="5.55102" height="5.55102" transform="rotate(90 77.7295 246.039)" fill="#A1A1A1"/>
<rect x="77.7295" y="290.445" width="5.55102" height="5.55102" transform="rotate(90 77.7295 290.445)" fill="#A1A1A1"/>
<rect x="122.137" y="68.4062" width="5.55102" height="5.55102" transform="rotate(90 122.137 68.4062)" fill="#A1A1A1"/>
<rect x="122.137" y="112.812" width="5.55102" height="5.55102" transform="rotate(90 122.137 112.812)" fill="#A1A1A1"/>
<rect x="122.137" y="157.227" width="5.55102" height="5.55102" transform="rotate(90 122.137 157.227)" fill="#A1A1A1"/>
<rect x="122.137" y="201.633" width="5.55102" height="5.55102" transform="rotate(90 122.137 201.633)" fill="#A1A1A1"/>
<rect x="122.137" y="246.039" width="5.55102" height="5.55102" transform="rotate(90 122.137 246.039)" fill="#A1A1A1"/>
<rect x="122.137" y="290.445" width="5.55102" height="5.55102" transform="rotate(90 122.137 290.445)" fill="#A1A1A1"/>
<rect x="166.544" y="68.4062" width="5.55102" height="5.55102" transform="rotate(90 166.544 68.4062)" fill="#A1A1A1"/>
<rect x="166.544" y="112.812" width="5.55102" height="5.55102" transform="rotate(90 166.544 112.812)" fill="#A1A1A1"/>
<rect x="166.544" y="157.227" width="5.55102" height="5.55102" transform="rotate(90 166.544 157.227)" fill="#A1A1A1"/>
<rect x="166.544" y="201.633" width="5.55102" height="5.55102" transform="rotate(90 166.544 201.633)" fill="#A1A1A1"/>
<rect x="166.544" y="246.039" width="5.55102" height="5.55102" transform="rotate(90 166.544 246.039)" fill="#A1A1A1"/>
<rect x="166.544" y="290.445" width="5.55102" height="5.55102" transform="rotate(90 166.544 290.445)" fill="#A1A1A1"/>
<rect x="210.951" y="68.4062" width="5.55102" height="5.55102" transform="rotate(90 210.951 68.4062)" fill="#A1A1A1"/>
<rect x="210.951" y="112.812" width="5.55102" height="5.55102" transform="rotate(90 210.951 112.812)" fill="#A1A1A1"/>
<rect x="210.951" y="157.227" width="5.55102" height="5.55102" transform="rotate(90 210.951 157.227)" fill="#A1A1A1"/>
<rect x="210.951" y="201.633" width="5.55102" height="5.55102" transform="rotate(90 210.951 201.633)" fill="#A1A1A1"/>
<rect x="210.951" y="246.039" width="5.55102" height="5.55102" transform="rotate(90 210.951 246.039)" fill="#A1A1A1"/>
<rect x="210.951" y="290.445" width="5.55102" height="5.55102" transform="rotate(90 210.951 290.445)" fill="#A1A1A1"/>
<rect x="255.358" y="68.4062" width="5.55102" height="5.55102" transform="rotate(90 255.358 68.4062)" fill="#A1A1A1"/>
<rect x="255.358" y="112.812" width="5.55102" height="5.55102" transform="rotate(90 255.358 112.812)" fill="#A1A1A1"/>
<rect x="255.358" y="157.227" width="5.55102" height="5.55102" transform="rotate(90 255.358 157.227)" fill="#A1A1A1"/>
<rect x="255.358" y="201.633" width="5.55102" height="5.55102" transform="rotate(90 255.358 201.633)" fill="#A1A1A1"/>
<rect x="255.358" y="246.039" width="5.55102" height="5.55102" transform="rotate(90 255.358 246.039)" fill="#A1A1A1"/>
<rect x="255.358" y="290.445" width="5.55102" height="5.55102" transform="rotate(90 255.358 290.445)" fill="#A1A1A1"/>
<rect x="38.8555" y="68.4062" width="5.55102" height="5.55102" transform="rotate(90 38.8555 68.4062)" fill="#A1A1A1"/>
<rect x="38.8555" y="112.812" width="5.55102" height="5.55102" transform="rotate(90 38.8555 112.812)" fill="#A1A1A1"/>
<rect x="38.8555" y="157.227" width="5.55102" height="5.55102" transform="rotate(90 38.8555 157.227)" fill="#A1A1A1"/>
<rect x="38.8555" y="201.633" width="5.55102" height="5.55102" transform="rotate(90 38.8555 201.633)" fill="#A1A1A1"/>
<rect x="38.8555" y="246.039" width="5.55102" height="5.55102" transform="rotate(90 38.8555 246.039)" fill="#A1A1A1"/>
<rect x="38.8555" y="290.445" width="5.55102" height="5.55102" transform="rotate(90 38.8555 290.445)" fill="#A1A1A1"/>
<rect x="83.2812" y="68.4062" width="5.55102" height="5.55102" transform="rotate(90 83.2812 68.4062)" fill="#A1A1A1"/>
<rect x="83.2812" y="112.812" width="5.55102" height="5.55102" transform="rotate(90 83.2812 112.812)" fill="#A1A1A1"/>
<rect x="83.2812" y="157.227" width="5.55102" height="5.55102" transform="rotate(90 83.2812 157.227)" fill="#A1A1A1"/>
<rect x="83.2812" y="201.633" width="5.55102" height="5.55102" transform="rotate(90 83.2812 201.633)" fill="#A1A1A1"/>
<rect x="83.2812" y="246.039" width="5.55102" height="5.55102" transform="rotate(90 83.2812 246.039)" fill="#A1A1A1"/>
<rect x="83.2812" y="290.445" width="5.55102" height="5.55102" transform="rotate(90 83.2812 290.445)" fill="#A1A1A1"/>
<rect x="127.688" y="68.4062" width="5.55102" height="5.55102" transform="rotate(90 127.688 68.4062)" fill="#A1A1A1"/>
<rect x="127.688" y="112.812" width="5.55102" height="5.55102" transform="rotate(90 127.688 112.812)" fill="#A1A1A1"/>
<rect x="127.688" y="157.227" width="5.55102" height="5.55102" transform="rotate(90 127.688 157.227)" fill="#A1A1A1"/>
<rect x="127.688" y="201.633" width="5.55102" height="5.55102" transform="rotate(90 127.688 201.633)" fill="#A1A1A1"/>
<rect x="127.688" y="246.039" width="5.55102" height="5.55102" transform="rotate(90 127.688 246.039)" fill="#A1A1A1"/>
<rect x="127.688" y="290.445" width="5.55102" height="5.55102" transform="rotate(90 127.688 290.445)" fill="#A1A1A1"/>
<rect x="172.095" y="68.4062" width="5.55102" height="5.55102" transform="rotate(90 172.095 68.4062)" fill="#A1A1A1"/>
<rect x="172.095" y="112.812" width="5.55102" height="5.55102" transform="rotate(90 172.095 112.812)" fill="#A1A1A1"/>
<rect x="172.095" y="157.227" width="5.55102" height="5.55102" transform="rotate(90 172.095 157.227)" fill="#A1A1A1"/>
<rect x="172.095" y="201.633" width="5.55102" height="5.55102" transform="rotate(90 172.095 201.633)" fill="#A1A1A1"/>
<rect x="172.095" y="246.039" width="5.55102" height="5.55102" transform="rotate(90 172.095 246.039)" fill="#A1A1A1"/>
<rect x="172.095" y="290.445" width="5.55102" height="5.55102" transform="rotate(90 172.095 290.445)" fill="#A1A1A1"/>
<rect x="216.502" y="68.4062" width="5.55102" height="5.55102" transform="rotate(90 216.502 68.4062)" fill="#A1A1A1"/>
<rect x="216.502" y="112.812" width="5.55102" height="5.55102" transform="rotate(90 216.502 112.812)" fill="#A1A1A1"/>
<rect x="216.502" y="157.227" width="5.55102" height="5.55102" transform="rotate(90 216.502 157.227)" fill="#A1A1A1"/>
<rect x="216.502" y="201.633" width="5.55102" height="5.55102" transform="rotate(90 216.502 201.633)" fill="#A1A1A1"/>
<rect x="216.502" y="246.039" width="5.55102" height="5.55102" transform="rotate(90 216.502 246.039)" fill="#A1A1A1"/>
<rect x="216.502" y="290.445" width="5.55102" height="5.55102" transform="rotate(90 216.502 290.445)" fill="#A1A1A1"/>
<rect x="260.909" y="68.4062" width="5.55102" height="5.55102" transform="rotate(90 260.909 68.4062)" fill="#A1A1A1"/>
<rect x="260.909" y="112.812" width="5.55102" height="5.55102" transform="rotate(90 260.909 112.812)" fill="#A1A1A1"/>
<rect x="260.909" y="157.227" width="5.55102" height="5.55102" transform="rotate(90 260.909 157.227)" fill="#A1A1A1"/>
<rect x="260.909" y="201.633" width="5.55102" height="5.55102" transform="rotate(90 260.909 201.633)" fill="#A1A1A1"/>
<rect x="260.909" y="246.039" width="5.55102" height="5.55102" transform="rotate(90 260.909 246.039)" fill="#A1A1A1"/>
<rect x="260.909" y="290.445" width="5.55102" height="5.55102" transform="rotate(90 260.909 290.445)" fill="#A1A1A1"/>
<rect x="44.4058" y="68.4062" width="5.55102" height="5.55102" transform="rotate(90 44.4058 68.4062)" fill="#A1A1A1"/>
<rect x="44.4058" y="112.812" width="5.55102" height="5.55102" transform="rotate(90 44.4058 112.812)" fill="#A1A1A1"/>
<rect x="44.4058" y="157.227" width="5.55102" height="5.55102" transform="rotate(90 44.4058 157.227)" fill="#A1A1A1"/>
<rect x="44.4058" y="201.633" width="5.55102" height="5.55102" transform="rotate(90 44.4058 201.633)" fill="#A1A1A1"/>
<rect x="44.4058" y="246.039" width="5.55102" height="5.55102" transform="rotate(90 44.4058 246.039)" fill="#A1A1A1"/>
<rect x="44.4058" y="290.445" width="5.55102" height="5.55102" transform="rotate(90 44.4058 290.445)" fill="#A1A1A1"/>
<rect x="88.832" y="68.4062" width="5.55102" height="5.55102" transform="rotate(90 88.832 68.4062)" fill="#A1A1A1"/>
<rect x="88.832" y="112.812" width="5.55102" height="5.55102" transform="rotate(90 88.832 112.812)" fill="#A1A1A1"/>
<rect x="88.832" y="157.227" width="5.55102" height="5.55102" transform="rotate(90 88.832 157.227)" fill="#A1A1A1"/>
<rect x="88.832" y="201.633" width="5.55102" height="5.55102" transform="rotate(90 88.832 201.633)" fill="#A1A1A1"/>
<rect x="88.832" y="246.039" width="5.55102" height="5.55102" transform="rotate(90 88.832 246.039)" fill="#A1A1A1"/>
<rect x="88.832" y="290.445" width="5.55102" height="5.55102" transform="rotate(90 88.832 290.445)" fill="#A1A1A1"/>
<rect x="133.239" y="68.4062" width="5.55102" height="5.55102" transform="rotate(90 133.239 68.4062)" fill="#A1A1A1"/>
<rect x="133.239" y="112.812" width="5.55102" height="5.55102" transform="rotate(90 133.239 112.812)" fill="#A1A1A1"/>
<rect x="133.239" y="157.227" width="5.55102" height="5.55102" transform="rotate(90 133.239 157.227)" fill="#A1A1A1"/>
<rect x="133.239" y="201.633" width="5.55102" height="5.55102" transform="rotate(90 133.239 201.633)" fill="#A1A1A1"/>
<rect x="133.239" y="246.039" width="5.55102" height="5.55102" transform="rotate(90 133.239 246.039)" fill="#A1A1A1"/>
<rect x="133.239" y="290.445" width="5.55102" height="5.55102" transform="rotate(90 133.239 290.445)" fill="#A1A1A1"/>
<rect x="177.646" y="68.4062" width="5.55102" height="5.55102" transform="rotate(90 177.646 68.4062)" fill="#A1A1A1"/>
<rect x="177.646" y="112.812" width="5.55102" height="5.55102" transform="rotate(90 177.646 112.812)" fill="#A1A1A1"/>
<rect x="177.646" y="157.227" width="5.55102" height="5.55102" transform="rotate(90 177.646 157.227)" fill="#A1A1A1"/>
<rect x="177.646" y="201.633" width="5.55102" height="5.55102" transform="rotate(90 177.646 201.633)" fill="#A1A1A1"/>
<rect x="177.646" y="246.039" width="5.55102" height="5.55102" transform="rotate(90 177.646 246.039)" fill="#A1A1A1"/>
<rect x="177.646" y="290.445" width="5.55102" height="5.55102" transform="rotate(90 177.646 290.445)" fill="#A1A1A1"/>
<rect x="222.053" y="68.4062" width="5.55102" height="5.55102" transform="rotate(90 222.053 68.4062)" fill="#A1A1A1"/>
<rect x="222.053" y="112.812" width="5.55102" height="5.55102" transform="rotate(90 222.053 112.812)" fill="#A1A1A1"/>
<rect x="222.053" y="157.227" width="5.55102" height="5.55102" transform="rotate(90 222.053 157.227)" fill="#A1A1A1"/>
<rect x="222.053" y="201.633" width="5.55102" height="5.55102" transform="rotate(90 222.053 201.633)" fill="#A1A1A1"/>
<rect x="222.053" y="246.039" width="5.55102" height="5.55102" transform="rotate(90 222.053 246.039)" fill="#A1A1A1"/>
<rect x="222.053" y="290.445" width="5.55102" height="5.55102" transform="rotate(90 222.053 290.445)" fill="#A1A1A1"/>
<rect x="266.459" y="68.4062" width="5.55102" height="5.55102" transform="rotate(90 266.459 68.4062)" fill="#A1A1A1"/>
<rect x="266.459" y="112.812" width="5.55102" height="5.55102" transform="rotate(90 266.459 112.812)" fill="#A1A1A1"/>
<rect x="266.459" y="157.227" width="5.55102" height="5.55102" transform="rotate(90 266.459 157.227)" fill="#A1A1A1"/>
<rect x="266.459" y="201.633" width="5.55102" height="5.55102" transform="rotate(90 266.459 201.633)" fill="#A1A1A1"/>
<rect x="266.459" y="246.039" width="5.55102" height="5.55102" transform="rotate(90 266.459 246.039)" fill="#A1A1A1"/>
<rect x="266.459" y="290.445" width="5.55102" height="5.55102" transform="rotate(90 266.459 290.445)" fill="#A1A1A1"/>
<rect x="49.9565" y="68.4062" width="5.55102" height="5.55102" transform="rotate(90 49.9565 68.4062)" fill="#A1A1A1"/>
<rect x="49.9565" y="112.812" width="5.55102" height="5.55102" transform="rotate(90 49.9565 112.812)" fill="#A1A1A1"/>
<rect x="49.9565" y="157.227" width="5.55102" height="5.55102" transform="rotate(90 49.9565 157.227)" fill="#A1A1A1"/>
<rect x="49.9565" y="201.633" width="5.55102" height="5.55102" transform="rotate(90 49.9565 201.633)" fill="#A1A1A1"/>
<rect x="49.9565" y="246.039" width="5.55102" height="5.55102" transform="rotate(90 49.9565 246.039)" fill="#A1A1A1"/>
<rect x="49.9565" y="290.445" width="5.55102" height="5.55102" transform="rotate(90 49.9565 290.445)" fill="#A1A1A1"/>
<rect x="94.3823" y="68.4062" width="5.55102" height="5.55102" transform="rotate(90 94.3823 68.4062)" fill="#A1A1A1"/>
<rect x="94.3823" y="112.812" width="5.55102" height="5.55102" transform="rotate(90 94.3823 112.812)" fill="#A1A1A1"/>
<rect x="94.3823" y="157.227" width="5.55102" height="5.55102" transform="rotate(90 94.3823 157.227)" fill="#A1A1A1"/>
<rect x="94.3823" y="201.633" width="5.55102" height="5.55102" transform="rotate(90 94.3823 201.633)" fill="#A1A1A1"/>
<rect x="94.3823" y="246.039" width="5.55102" height="5.55102" transform="rotate(90 94.3823 246.039)" fill="#A1A1A1"/>
<rect x="94.3823" y="290.445" width="5.55102" height="5.55102" transform="rotate(90 94.3823 290.445)" fill="#A1A1A1"/>
<rect x="138.79" y="68.4062" width="5.55102" height="5.55102" transform="rotate(90 138.79 68.4062)" fill="#A1A1A1"/>
<rect x="138.79" y="112.812" width="5.55102" height="5.55102" transform="rotate(90 138.79 112.812)" fill="#A1A1A1"/>
<rect x="138.79" y="157.227" width="5.55102" height="5.55102" transform="rotate(90 138.79 157.227)" fill="#A1A1A1"/>
<rect x="138.79" y="201.633" width="5.55102" height="5.55102" transform="rotate(90 138.79 201.633)" fill="#A1A1A1"/>
<rect x="138.79" y="246.039" width="5.55102" height="5.55102" transform="rotate(90 138.79 246.039)" fill="#A1A1A1"/>
<rect x="138.79" y="290.445" width="5.55102" height="5.55102" transform="rotate(90 138.79 290.445)" fill="#A1A1A1"/>
<rect x="183.196" y="68.4062" width="5.55102" height="5.55102" transform="rotate(90 183.196 68.4062)" fill="#A1A1A1"/>
<rect x="183.196" y="112.812" width="5.55102" height="5.55102" transform="rotate(90 183.196 112.812)" fill="#A1A1A1"/>
<rect x="183.196" y="157.227" width="5.55102" height="5.55102" transform="rotate(90 183.196 157.227)" fill="#A1A1A1"/>
<rect x="183.196" y="201.633" width="5.55102" height="5.55102" transform="rotate(90 183.196 201.633)" fill="#A1A1A1"/>
<rect x="183.196" y="246.039" width="5.55102" height="5.55102" transform="rotate(90 183.196 246.039)" fill="#A1A1A1"/>
<rect x="183.196" y="290.445" width="5.55102" height="5.55102" transform="rotate(90 183.196 290.445)" fill="#A1A1A1"/>
<rect x="227.603" y="68.4062" width="5.55102" height="5.55102" transform="rotate(90 227.603 68.4062)" fill="#A1A1A1"/>
<rect x="227.603" y="112.812" width="5.55102" height="5.55102" transform="rotate(90 227.603 112.812)" fill="#A1A1A1"/>
<rect x="227.603" y="157.227" width="5.55102" height="5.55102" transform="rotate(90 227.603 157.227)" fill="#A1A1A1"/>
<rect x="227.603" y="201.633" width="5.55102" height="5.55102" transform="rotate(90 227.603 201.633)" fill="#A1A1A1"/>
<rect x="227.603" y="246.039" width="5.55102" height="5.55102" transform="rotate(90 227.603 246.039)" fill="#A1A1A1"/>
<rect x="227.603" y="290.445" width="5.55102" height="5.55102" transform="rotate(90 227.603 290.445)" fill="#A1A1A1"/>
<rect x="272.01" y="68.4062" width="5.55102" height="5.55102" transform="rotate(90 272.01 68.4062)" fill="#A1A1A1"/>
<rect x="272.01" y="112.812" width="5.55102" height="5.55102" transform="rotate(90 272.01 112.812)" fill="#A1A1A1"/>
<rect x="272.01" y="157.227" width="5.55102" height="5.55102" transform="rotate(90 272.01 157.227)" fill="#A1A1A1"/>
<rect x="272.01" y="201.633" width="5.55102" height="5.55102" transform="rotate(90 272.01 201.633)" fill="#A1A1A1"/>
<rect x="272.01" y="246.039" width="5.55102" height="5.55102" transform="rotate(90 272.01 246.039)" fill="#A1A1A1"/>
<rect x="272.01" y="290.445" width="5.55102" height="5.55102" transform="rotate(90 272.01 290.445)" fill="#A1A1A1"/>
<rect x="49.9565" y="62.8594" width="5.55102" height="5.55102" transform="rotate(90 49.9565 62.8594)" fill="#A1A1A1"/>
<rect x="49.9565" y="107.266" width="5.55102" height="5.55102" transform="rotate(90 49.9565 107.266)" fill="#A1A1A1"/>
<rect x="49.9565" y="151.672" width="5.55102" height="5.55102" transform="rotate(90 49.9565 151.672)" fill="#A1A1A1"/>
<rect x="49.9565" y="196.078" width="5.55102" height="5.55102" transform="rotate(90 49.9565 196.078)" fill="#A1A1A1"/>
<rect x="49.9565" y="240.492" width="5.55102" height="5.55102" transform="rotate(90 49.9565 240.492)" fill="#A1A1A1"/>
<rect x="49.9565" y="284.898" width="5.55102" height="5.55102" transform="rotate(90 49.9565 284.898)" fill="#A1A1A1"/>
<rect x="94.3823" y="62.8594" width="5.55102" height="5.55102" transform="rotate(90 94.3823 62.8594)" fill="#A1A1A1"/>
<rect x="94.3823" y="107.266" width="5.55102" height="5.55102" transform="rotate(90 94.3823 107.266)" fill="#A1A1A1"/>
<rect x="94.3823" y="151.672" width="5.55102" height="5.55102" transform="rotate(90 94.3823 151.672)" fill="#A1A1A1"/>
<rect x="94.3823" y="196.078" width="5.55102" height="5.55102" transform="rotate(90 94.3823 196.078)" fill="#A1A1A1"/>
<rect x="94.3823" y="240.492" width="5.55102" height="5.55102" transform="rotate(90 94.3823 240.492)" fill="#A1A1A1"/>
<rect x="94.3823" y="284.898" width="5.55102" height="5.55102" transform="rotate(90 94.3823 284.898)" fill="#A1A1A1"/>
<rect x="138.79" y="62.8594" width="5.55102" height="5.55102" transform="rotate(90 138.79 62.8594)" fill="#A1A1A1"/>
<rect x="138.79" y="107.266" width="5.55102" height="5.55102" transform="rotate(90 138.79 107.266)" fill="#A1A1A1"/>
<rect x="138.79" y="151.672" width="5.55102" height="5.55102" transform="rotate(90 138.79 151.672)" fill="#A1A1A1"/>
<rect x="138.79" y="196.078" width="5.55102" height="5.55102" transform="rotate(90 138.79 196.078)" fill="#A1A1A1"/>
<rect x="138.79" y="240.492" width="5.55102" height="5.55102" transform="rotate(90 138.79 240.492)" fill="#A1A1A1"/>
<rect x="138.79" y="284.898" width="5.55102" height="5.55102" transform="rotate(90 138.79 284.898)" fill="#A1A1A1"/>
<rect x="183.196" y="62.8594" width="5.55102" height="5.55102" transform="rotate(90 183.196 62.8594)" fill="#A1A1A1"/>
<rect x="183.196" y="107.266" width="5.55102" height="5.55102" transform="rotate(90 183.196 107.266)" fill="#A1A1A1"/>
<rect x="183.196" y="151.672" width="5.55102" height="5.55102" transform="rotate(90 183.196 151.672)" fill="#A1A1A1"/>
<rect x="183.196" y="196.078" width="5.55102" height="5.55102" transform="rotate(90 183.196 196.078)" fill="#A1A1A1"/>
<rect x="183.196" y="240.492" width="5.55102" height="5.55102" transform="rotate(90 183.196 240.492)" fill="#A1A1A1"/>
<rect x="183.196" y="284.898" width="5.55102" height="5.55102" transform="rotate(90 183.196 284.898)" fill="#A1A1A1"/>
<rect x="227.603" y="62.8594" width="5.55102" height="5.55102" transform="rotate(90 227.603 62.8594)" fill="#A1A1A1"/>
<rect x="227.603" y="107.266" width="5.55102" height="5.55102" transform="rotate(90 227.603 107.266)" fill="#A1A1A1"/>
<rect x="227.603" y="151.672" width="5.55102" height="5.55102" transform="rotate(90 227.603 151.672)" fill="#A1A1A1"/>
<rect x="227.603" y="196.078" width="5.55102" height="5.55102" transform="rotate(90 227.603 196.078)" fill="#A1A1A1"/>
<rect x="227.603" y="240.492" width="5.55102" height="5.55102" transform="rotate(90 227.603 240.492)" fill="#A1A1A1"/>
<rect x="227.603" y="284.898" width="5.55102" height="5.55102" transform="rotate(90 227.603 284.898)" fill="#A1A1A1"/>
<rect x="272.01" y="62.8594" width="5.55102" height="5.55102" transform="rotate(90 272.01 62.8594)" fill="#A1A1A1"/>
<rect x="272.01" y="107.266" width="5.55102" height="5.55102" transform="rotate(90 272.01 107.266)" fill="#A1A1A1"/>
<rect x="272.01" y="151.672" width="5.55102" height="5.55102" transform="rotate(90 272.01 151.672)" fill="#A1A1A1"/>
<rect x="272.01" y="196.078" width="5.55102" height="5.55102" transform="rotate(90 272.01 196.078)" fill="#A1A1A1"/>
<rect x="272.01" y="240.492" width="5.55102" height="5.55102" transform="rotate(90 272.01 240.492)" fill="#A1A1A1"/>
<rect x="272.01" y="284.898" width="5.55102" height="5.55102" transform="rotate(90 272.01 284.898)" fill="#A1A1A1"/>
<rect x="11.1001" y="68.4062" width="5.55102" height="5.55102" transform="rotate(90 11.1001 68.4062)" fill="#A1A1A1"/>
<rect x="11.1001" y="112.812" width="5.55102" height="5.55102" transform="rotate(90 11.1001 112.812)" fill="#A1A1A1"/>
<rect x="11.1001" y="157.227" width="5.55102" height="5.55102" transform="rotate(90 11.1001 157.227)" fill="#A1A1A1"/>
<rect x="11.1001" y="201.633" width="5.55102" height="5.55102" transform="rotate(90 11.1001 201.633)" fill="#A1A1A1"/>
<rect x="11.1001" y="246.039" width="5.55102" height="5.55102" transform="rotate(90 11.1001 246.039)" fill="#A1A1A1"/>
<rect x="11.1001" y="290.445" width="5.55102" height="5.55102" transform="rotate(90 11.1001 290.445)" fill="#A1A1A1"/>
<rect x="55.5073" y="68.4062" width="5.55102" height="5.55102" transform="rotate(90 55.5073 68.4062)" fill="#A1A1A1"/>
<rect x="55.5073" y="112.812" width="5.55102" height="5.55102" transform="rotate(90 55.5073 112.812)" fill="#A1A1A1"/>
<rect x="55.5073" y="157.227" width="5.55102" height="5.55102" transform="rotate(90 55.5073 157.227)" fill="#A1A1A1"/>
<rect x="55.5073" y="201.633" width="5.55102" height="5.55102" transform="rotate(90 55.5073 201.633)" fill="#A1A1A1"/>
<rect x="55.5073" y="246.039" width="5.55102" height="5.55102" transform="rotate(90 55.5073 246.039)" fill="#A1A1A1"/>
<rect x="55.5073" y="290.445" width="5.55102" height="5.55102" transform="rotate(90 55.5073 290.445)" fill="#A1A1A1"/>
<rect x="99.9331" y="68.4062" width="5.55102" height="5.55102" transform="rotate(90 99.9331 68.4062)" fill="#A1A1A1"/>
<rect x="99.9331" y="112.812" width="5.55102" height="5.55102" transform="rotate(90 99.9331 112.812)" fill="#A1A1A1"/>
<rect x="99.9331" y="157.227" width="5.55102" height="5.55102" transform="rotate(90 99.9331 157.227)" fill="#A1A1A1"/>
<rect x="99.9331" y="201.633" width="5.55102" height="5.55102" transform="rotate(90 99.9331 201.633)" fill="#A1A1A1"/>
<rect x="99.9331" y="246.039" width="5.55102" height="5.55102" transform="rotate(90 99.9331 246.039)" fill="#A1A1A1"/>
<rect x="99.9331" y="290.445" width="5.55102" height="5.55102" transform="rotate(90 99.9331 290.445)" fill="#A1A1A1"/>
<rect x="144.341" y="68.4062" width="5.55102" height="5.55102" transform="rotate(90 144.341 68.4062)" fill="#A1A1A1"/>
<rect x="144.341" y="112.812" width="5.55102" height="5.55102" transform="rotate(90 144.341 112.812)" fill="#A1A1A1"/>
<rect x="144.341" y="157.227" width="5.55102" height="5.55102" transform="rotate(90 144.341 157.227)" fill="#A1A1A1"/>
<rect x="144.341" y="201.633" width="5.55102" height="5.55102" transform="rotate(90 144.341 201.633)" fill="#A1A1A1"/>
<rect x="144.341" y="246.039" width="5.55102" height="5.55102" transform="rotate(90 144.341 246.039)" fill="#A1A1A1"/>
<rect x="144.341" y="290.445" width="5.55102" height="5.55102" transform="rotate(90 144.341 290.445)" fill="#A1A1A1"/>
<rect x="188.748" y="68.4062" width="5.55102" height="5.55102" transform="rotate(90 188.748 68.4062)" fill="#A1A1A1"/>
<rect x="188.748" y="112.812" width="5.55102" height="5.55102" transform="rotate(90 188.748 112.812)" fill="#A1A1A1"/>
<rect x="188.748" y="157.227" width="5.55102" height="5.55102" transform="rotate(90 188.748 157.227)" fill="#A1A1A1"/>
<rect x="188.748" y="201.633" width="5.55102" height="5.55102" transform="rotate(90 188.748 201.633)" fill="#A1A1A1"/>
<rect x="188.748" y="246.039" width="5.55102" height="5.55102" transform="rotate(90 188.748 246.039)" fill="#A1A1A1"/>
<rect x="188.748" y="290.445" width="5.55102" height="5.55102" transform="rotate(90 188.748 290.445)" fill="#A1A1A1"/>
<rect x="233.155" y="68.4062" width="5.55102" height="5.55102" transform="rotate(90 233.155 68.4062)" fill="#A1A1A1"/>
<rect x="233.155" y="112.812" width="5.55102" height="5.55102" transform="rotate(90 233.155 112.812)" fill="#A1A1A1"/>
<rect x="233.155" y="157.227" width="5.55102" height="5.55102" transform="rotate(90 233.155 157.227)" fill="#A1A1A1"/>
<rect x="233.155" y="201.633" width="5.55102" height="5.55102" transform="rotate(90 233.155 201.633)" fill="#A1A1A1"/>
<rect x="233.155" y="246.039" width="5.55102" height="5.55102" transform="rotate(90 233.155 246.039)" fill="#A1A1A1"/>
<rect x="233.155" y="290.445" width="5.55102" height="5.55102" transform="rotate(90 233.155 290.445)" fill="#A1A1A1"/>
<rect x="16.6519" y="68.4062" width="5.55102" height="5.55102" transform="rotate(90 16.6519 68.4062)" fill="#A1A1A1"/>
<rect x="16.6519" y="112.812" width="5.55102" height="5.55102" transform="rotate(90 16.6519 112.812)" fill="#A1A1A1"/>
<rect x="16.6519" y="157.227" width="5.55102" height="5.55102" transform="rotate(90 16.6519 157.227)" fill="#A1A1A1"/>
<rect x="16.6519" y="201.633" width="5.55102" height="5.55102" transform="rotate(90 16.6519 201.633)" fill="#A1A1A1"/>
<rect x="16.6519" y="246.039" width="5.55102" height="5.55102" transform="rotate(90 16.6519 246.039)" fill="#A1A1A1"/>
<rect x="16.6519" y="290.445" width="5.55102" height="5.55102" transform="rotate(90 16.6519 290.445)" fill="#A1A1A1"/>
<rect x="61.0586" y="68.4062" width="5.55102" height="5.55102" transform="rotate(90 61.0586 68.4062)" fill="#A1A1A1"/>
<rect x="61.0586" y="112.812" width="5.55102" height="5.55102" transform="rotate(90 61.0586 112.812)" fill="#A1A1A1"/>
<rect x="61.0586" y="157.227" width="5.55102" height="5.55102" transform="rotate(90 61.0586 157.227)" fill="#A1A1A1"/>
<rect x="61.0586" y="201.633" width="5.55102" height="5.55102" transform="rotate(90 61.0586 201.633)" fill="#A1A1A1"/>
<rect x="61.0586" y="246.039" width="5.55102" height="5.55102" transform="rotate(90 61.0586 246.039)" fill="#A1A1A1"/>
<rect x="61.0586" y="290.445" width="5.55102" height="5.55102" transform="rotate(90 61.0586 290.445)" fill="#A1A1A1"/>
<rect x="105.485" y="68.4062" width="5.55102" height="5.55102" transform="rotate(90 105.485 68.4062)" fill="#A1A1A1"/>
<rect x="105.485" y="112.812" width="5.55102" height="5.55102" transform="rotate(90 105.485 112.812)" fill="#A1A1A1"/>
<rect x="105.485" y="157.227" width="5.55102" height="5.55102" transform="rotate(90 105.485 157.227)" fill="#A1A1A1"/>
<rect x="105.485" y="201.633" width="5.55102" height="5.55102" transform="rotate(90 105.485 201.633)" fill="#A1A1A1"/>
<rect x="105.485" y="246.039" width="5.55102" height="5.55102" transform="rotate(90 105.485 246.039)" fill="#A1A1A1"/>
<rect x="105.485" y="290.445" width="5.55102" height="5.55102" transform="rotate(90 105.485 290.445)" fill="#A1A1A1"/>
<rect x="149.892" y="68.4062" width="5.55102" height="5.55102" transform="rotate(90 149.892 68.4062)" fill="#A1A1A1"/>
<rect x="149.892" y="112.812" width="5.55102" height="5.55102" transform="rotate(90 149.892 112.812)" fill="#A1A1A1"/>
<rect x="149.892" y="157.227" width="5.55102" height="5.55102" transform="rotate(90 149.892 157.227)" fill="#A1A1A1"/>
<rect x="149.892" y="201.633" width="5.55102" height="5.55102" transform="rotate(90 149.892 201.633)" fill="#A1A1A1"/>
<rect x="149.892" y="246.039" width="5.55102" height="5.55102" transform="rotate(90 149.892 246.039)" fill="#A1A1A1"/>
<rect x="149.892" y="290.445" width="5.55102" height="5.55102" transform="rotate(90 149.892 290.445)" fill="#A1A1A1"/>
<rect x="194.298" y="68.4062" width="5.55102" height="5.55102" transform="rotate(90 194.298 68.4062)" fill="#A1A1A1"/>
<rect x="194.298" y="112.812" width="5.55102" height="5.55102" transform="rotate(90 194.298 112.812)" fill="#A1A1A1"/>
<rect x="194.298" y="157.227" width="5.55102" height="5.55102" transform="rotate(90 194.298 157.227)" fill="#A1A1A1"/>
<rect x="194.298" y="201.633" width="5.55102" height="5.55102" transform="rotate(90 194.298 201.633)" fill="#A1A1A1"/>
<rect x="194.298" y="246.039" width="5.55102" height="5.55102" transform="rotate(90 194.298 246.039)" fill="#A1A1A1"/>
<rect x="194.298" y="290.445" width="5.55102" height="5.55102" transform="rotate(90 194.298 290.445)" fill="#A1A1A1"/>
<rect x="238.706" y="68.4062" width="5.55102" height="5.55102" transform="rotate(90 238.706 68.4062)" fill="#A1A1A1"/>
<rect x="238.706" y="112.812" width="5.55102" height="5.55102" transform="rotate(90 238.706 112.812)" fill="#A1A1A1"/>
<rect x="238.706" y="157.227" width="5.55102" height="5.55102" transform="rotate(90 238.706 157.227)" fill="#A1A1A1"/>
<rect x="238.706" y="201.633" width="5.55102" height="5.55102" transform="rotate(90 238.706 201.633)" fill="#A1A1A1"/>
<rect x="238.706" y="246.039" width="5.55102" height="5.55102" transform="rotate(90 238.706 246.039)" fill="#A1A1A1"/>
<rect x="238.706" y="290.445" width="5.55102" height="5.55102" transform="rotate(90 238.706 290.445)" fill="#A1A1A1"/>
<circle cx="201.6" cy="137.6" r="13.6" fill="black"/>
<circle cx="112.6" cy="137.6" r="13.6" fill="black"/>
<circle cx="157.6" cy="183.6" r="13.6" fill="black"/>
<circle cx="157.6" cy="137.6" r="14.6" fill="black" stroke="#43FF46" stroke-width="2"/>
<circle cx="201.6" cy="183.6" r="13.6" fill="white"/>
<path d="M154.586 110.414C155.367 111.195 156.633 111.195 157.414 110.414L170.142 97.6863C170.923 96.9052 170.923 95.6389 170.142 94.8579C169.361 94.0768 168.095 94.0768 167.314 94.8579L156 106.172L144.686 94.8579C143.905 94.0768 142.639 94.0768 141.858 94.8579C141.077 95.6389 141.077 96.9052 141.858 97.6863L154.586 110.414ZM156 0L154 8.74228e-08L154 109L156 109L158 109L158 -8.74228e-08L156 0Z" fill="white"/>
</svg>
