<svg width="250" height="211" viewBox="0 0 250 211" fill="none" xmlns="http://www.w3.org/2000/svg">
<path d="M21.3624 74.06L25.6824 81H23.1224L19.9824 75.96L17.0424 81H14.5024L18.8224 74.06L14.4824 67.1H17.0424L20.2024 72.18L23.1624 67.1H25.7024L21.3624 74.06ZM35.7255 69.8C35.5789 69.1867 35.3122 68.7267 34.9255 68.42C34.5389 68.1133 33.9989 67.96 33.3055 67.96C32.2522 67.96 31.4655 68.3667 30.9455 69.18C30.4255 69.98 30.1522 71.3133 30.1255 73.18C30.4722 72.5933 30.9789 72.14 31.6455 71.82C32.3122 71.5 33.0322 71.34 33.8055 71.34C34.6855 71.34 35.4589 71.5333 36.1255 71.92C36.8055 72.2933 37.3322 72.84 37.7055 73.56C38.0922 74.28 38.2855 75.14 38.2855 76.14C38.2855 77.0733 38.0989 77.9067 37.7255 78.64C37.3655 79.3733 36.8255 79.9533 36.1055 80.38C35.3855 80.7933 34.5189 81 33.5055 81C32.1322 81 31.0522 80.7 30.2655 80.1C29.4922 79.4867 28.9455 78.6267 28.6255 77.52C28.3189 76.4133 28.1655 75.0333 28.1655 73.38C28.1655 68.5 29.8855 66.06 33.3255 66.06C34.6589 66.06 35.7055 66.42 36.4655 67.14C37.2389 67.86 37.6922 68.7467 37.8255 69.8H35.7255ZM33.3055 73.26C32.4922 73.26 31.7989 73.5067 31.2255 74C30.6655 74.48 30.3855 75.18 30.3855 76.1C30.3855 77.02 30.6455 77.7533 31.1655 78.3C31.6989 78.8333 32.4389 79.1 33.3855 79.1C34.2255 79.1 34.8855 78.84 35.3655 78.32C35.8589 77.8 36.1055 77.1067 36.1055 76.24C36.1055 75.3333 35.8655 74.6133 35.3855 74.08C34.9189 73.5333 34.2255 73.26 33.3055 73.26Z" fill="white"/>
<path d="M28.2823 200.06L32.6023 207H30.0423L26.9023 201.96L23.9623 207H21.4223L25.7423 200.06L21.4023 193.1H23.9623L27.1223 198.18L30.0823 193.1H32.6223L28.2823 200.06ZM34.5055 194.5V192.42H38.6655V207H36.3655V194.5H34.5055Z" fill="white"/>
<path d="M216.765 74.06L221.085 81H218.525L215.385 75.96L212.445 81H209.905L214.225 74.06L209.885 67.1H212.445L215.605 72.18L218.565 67.1H221.105L216.765 74.06ZM236.323 69.8C236.177 69.1867 235.91 68.7267 235.523 68.42C235.137 68.1133 234.597 67.96 233.903 67.96C232.85 67.96 232.063 68.3667 231.543 69.18C231.023 69.98 230.75 71.3133 230.723 73.18C231.07 72.5933 231.577 72.14 232.243 71.82C232.91 71.5 233.63 71.34 234.403 71.34C235.283 71.34 236.057 71.5333 236.723 71.92C237.403 72.2933 237.93 72.84 238.303 73.56C238.69 74.28 238.883 75.14 238.883 76.14C238.883 77.0733 238.697 77.9067 238.323 78.64C237.963 79.3733 237.423 79.9533 236.703 80.38C235.983 80.7933 235.117 81 234.103 81C232.73 81 231.65 80.7 230.863 80.1C230.09 79.4867 229.543 78.6267 229.223 77.52C228.917 76.4133 228.763 75.0333 228.763 73.38C228.763 68.5 230.483 66.06 233.923 66.06C235.257 66.06 236.303 66.42 237.063 67.14C237.837 67.86 238.29 68.7467 238.423 69.8H236.323ZM233.903 73.26C233.09 73.26 232.397 73.5067 231.823 74C231.263 74.48 230.983 75.18 230.983 76.1C230.983 77.02 231.243 77.7533 231.763 78.3C232.297 78.8333 233.037 79.1 233.983 79.1C234.823 79.1 235.483 78.84 235.963 78.32C236.457 77.8 236.703 77.1067 236.703 76.24C236.703 75.3333 236.463 74.6133 235.983 74.08C235.517 73.5333 234.823 73.26 233.903 73.26Z" fill="white"/>
<circle cx="26" cy="26" r="26" fill="#FFFB00"/>
<circle cx="224" cy="26" r="26" fill="#008CFF"/>
<rect x="4" y="126" width="52" height="52" rx="15" fill="#FDFCFC"/>
<circle cx="18.4031" cy="141.2" r="7.2" fill="black"/>
<circle cx="41.5984" cy="141.2" r="7.2" fill="black"/>
<circle cx="41.5984" cy="162.802" r="7.2" fill="black"/>
<circle cx="18.4031" cy="162.802" r="7.2" fill="black"/>
</svg>
