<svg width="270" height="299" viewBox="0 0 270 299" fill="none" xmlns="http://www.w3.org/2000/svg">
<rect width="4.82143" height="4.82143" transform="matrix(-4.37114e-08 -1 -1 4.37114e-08 135 28.9297)" fill="#A1A1A1"/>
<rect width="4.82143" height="4.82143" transform="matrix(-4.37114e-08 -1 -1 4.37114e-08 28.9297 120.539)" fill="#A1A1A1"/>
<rect x="236.25" y="120.539" width="4.82143" height="4.82143" transform="rotate(-90 236.25 120.539)" fill="#A1A1A1"/>
<rect width="4.82143" height="4.82143" transform="matrix(-4.37114e-08 -1 -1 4.37114e-08 48.2109 135.004)" fill="#A1A1A1"/>
<rect x="216.961" y="135.004" width="4.82143" height="4.82143" transform="rotate(-90 216.961 135.004)" fill="#A1A1A1"/>
<rect width="4.82143" height="4.82143" transform="matrix(-4.37114e-08 -1 -1 4.37114e-08 67.5 149.461)" fill="#A1A1A1"/>
<rect x="197.68" y="149.461" width="4.82143" height="4.82143" transform="rotate(-90 197.68 149.461)" fill="#A1A1A1"/>
<rect width="4.82143" height="4.82143" transform="matrix(-4.37114e-08 -1 -1 4.37114e-08 86.7891 163.934)" fill="#A1A1A1"/>
<rect width="4.82143" height="4.82143" transform="matrix(-4.37114e-08 -1 -1 4.37114e-08 106.07 173.574)" fill="#A1A1A1"/>
<rect x="159.109" y="173.574" width="4.82143" height="4.82143" transform="rotate(-90 159.109 173.574)" fill="#A1A1A1"/>
<rect width="4.82143" height="4.82143" transform="matrix(-4.37114e-08 -1 -1 4.37114e-08 125.359 188.039)" fill="#A1A1A1"/>
<rect x="139.82" y="188.039" width="4.82143" height="4.82143" transform="rotate(-90 139.82 188.039)" fill="#A1A1A1"/>
<rect width="4.82143" height="4.82143" transform="matrix(-4.37114e-08 -1 -1 4.37114e-08 144.641 202.496)" fill="#A1A1A1"/>
<rect x="120.539" y="202.496" width="4.82143" height="4.82143" transform="rotate(-90 120.539 202.496)" fill="#A1A1A1"/>
<rect width="4.82143" height="4.82143" transform="matrix(-4.37114e-08 -1 -1 4.37114e-08 163.93 216.961)" fill="#A1A1A1"/>
<rect x="101.25" y="216.961" width="4.82143" height="4.82143" transform="rotate(-90 101.25 216.961)" fill="#A1A1A1"/>
<rect width="4.82143" height="4.82143" transform="matrix(-4.37114e-08 -1 -1 4.37114e-08 183.219 231.426)" fill="#A1A1A1"/>
<rect x="81.9609" y="231.426" width="4.82143" height="4.82143" transform="rotate(-90 81.9609 231.426)" fill="#A1A1A1"/>
<rect width="4.82143" height="4.82143" transform="matrix(-4.37114e-08 -1 -1 4.37114e-08 33.75 125.363)" fill="#A1A1A1"/>
<rect x="231.43" y="125.363" width="4.82143" height="4.82143" transform="rotate(-90 231.43 125.363)" fill="#A1A1A1"/>
<rect width="4.82143" height="4.82143" transform="matrix(-4.37114e-08 -1 -1 4.37114e-08 53.0391 139.82)" fill="#A1A1A1"/>
<rect x="212.141" y="139.82" width="4.82143" height="4.82143" transform="rotate(-90 212.141 139.82)" fill="#A1A1A1"/>
<rect width="4.82143" height="4.82143" transform="matrix(-4.37114e-08 -1 -1 4.37114e-08 72.3203 154.293)" fill="#A1A1A1"/>
<rect x="192.859" y="154.293" width="4.82143" height="4.82143" transform="rotate(-90 192.859 154.293)" fill="#A1A1A1"/>
<rect width="4.82143" height="4.82143" transform="matrix(-4.37114e-08 -1 -1 4.37114e-08 110.891 178.391)" fill="#A1A1A1"/>
<rect x="154.289" y="178.391" width="4.82143" height="4.82143" transform="rotate(-90 154.289 178.391)" fill="#A1A1A1"/>
<rect width="4.82143" height="4.82143" transform="matrix(-4.37114e-08 -1 -1 4.37114e-08 130.18 192.855)" fill="#A1A1A1"/>
<rect x="135" y="192.855" width="4.82143" height="4.82143" transform="rotate(-90 135 192.855)" fill="#A1A1A1"/>
<rect width="4.82143" height="4.82143" transform="matrix(-4.37114e-08 -1 -1 4.37114e-08 149.461 207.32)" fill="#A1A1A1"/>
<rect x="115.711" y="207.32" width="4.82143" height="4.82143" transform="rotate(-90 115.711 207.32)" fill="#A1A1A1"/>
<rect width="4.82143" height="4.82143" transform="matrix(-4.37114e-08 -1 -1 4.37114e-08 168.75 221.785)" fill="#A1A1A1"/>
<rect x="96.4297" y="221.785" width="4.82143" height="4.82143" transform="rotate(-90 96.4297 221.785)" fill="#A1A1A1"/>
<rect width="4.82143" height="4.82143" transform="matrix(-4.37114e-08 -1 -1 4.37114e-08 188.039 236.25)" fill="#A1A1A1"/>
<rect x="77.1406" y="236.25" width="4.82143" height="4.82143" transform="rotate(-90 77.1406 236.25)" fill="#A1A1A1"/>
<rect width="4.82143" height="4.82143" transform="matrix(-4.37114e-08 -1 -1 4.37114e-08 202.5 245.891)" fill="#A1A1A1"/>
<rect x="62.6797" y="245.891" width="4.82143" height="4.82143" transform="rotate(-90 62.6797 245.891)" fill="#A1A1A1"/>
<rect width="4.82143" height="4.82143" transform="matrix(-4.37114e-08 -1 -1 4.37114e-08 38.5703 130.18)" fill="#A1A1A1"/>
<rect x="226.609" y="130.18" width="4.82143" height="4.82143" transform="rotate(-90 226.609 130.18)" fill="#A1A1A1"/>
<rect width="4.82143" height="4.82143" transform="matrix(-4.37114e-08 -1 -1 4.37114e-08 57.8594 144.645)" fill="#A1A1A1"/>
<rect x="207.32" y="144.645" width="4.82143" height="4.82143" transform="rotate(-90 207.32 144.645)" fill="#A1A1A1"/>
<rect width="4.82143" height="4.82143" transform="matrix(-4.37114e-08 -1 -1 4.37114e-08 77.1406 159.109)" fill="#A1A1A1"/>
<rect x="188.039" y="159.109" width="4.82143" height="4.82143" transform="rotate(-90 188.039 159.109)" fill="#A1A1A1"/>
<rect width="4.82143" height="4.82143" transform="matrix(-4.37114e-08 -1 -1 4.37114e-08 96.4297 168.75)" fill="#A1A1A1"/>
<rect x="168.75" y="168.75" width="4.82143" height="4.82143" transform="rotate(-90 168.75 168.75)" fill="#A1A1A1"/>
<rect width="4.82143" height="4.82143" transform="matrix(-4.37114e-08 -1 -1 4.37114e-08 115.711 183.215)" fill="#A1A1A1"/>
<rect x="149.461" y="183.215" width="4.82143" height="4.82143" transform="rotate(-90 149.461 183.215)" fill="#A1A1A1"/>
<rect width="4.82143" height="4.82143" transform="matrix(-4.37114e-08 -1 -1 4.37114e-08 135 197.68)" fill="#A1A1A1"/>
<rect x="130.18" y="197.68" width="4.82143" height="4.82143" transform="rotate(-90 130.18 197.68)" fill="#A1A1A1"/>
<rect width="4.82143" height="4.82143" transform="matrix(-4.37114e-08 -1 -1 4.37114e-08 154.289 212.137)" fill="#A1A1A1"/>
<rect x="110.891" y="212.137" width="4.82143" height="4.82143" transform="rotate(-90 110.891 212.137)" fill="#A1A1A1"/>
<rect width="4.82143" height="4.82143" transform="matrix(-4.37114e-08 -1 -1 4.37114e-08 173.57 226.609)" fill="#A1A1A1"/>
<rect x="91.6094" y="226.609" width="4.82143" height="4.82143" transform="rotate(-90 91.6094 226.609)" fill="#A1A1A1"/>
<rect width="4.82143" height="4.82143" transform="matrix(-4.37114e-08 -1 -1 4.37114e-08 192.859 241.066)" fill="#A1A1A1"/>
<rect x="72.3203" y="241.066" width="4.82143" height="4.82143" transform="rotate(-90 72.3203 241.066)" fill="#A1A1A1"/>
<rect width="4.82143" height="4.82143" transform="matrix(-4.37114e-08 -1 -1 4.37114e-08 43.3906 130.18)" fill="#A1A1A1"/>
<rect x="221.789" y="130.18" width="4.82143" height="4.82143" transform="rotate(-90 221.789 130.18)" fill="#A1A1A1"/>
<rect width="4.82143" height="4.82143" transform="matrix(-4.37114e-08 -1 -1 4.37114e-08 62.6797 144.645)" fill="#A1A1A1"/>
<rect x="202.5" y="144.645" width="4.82143" height="4.82143" transform="rotate(-90 202.5 144.645)" fill="#A1A1A1"/>
<rect width="4.82143" height="4.82143" transform="matrix(-4.37114e-08 -1 -1 4.37114e-08 81.9609 159.109)" fill="#A1A1A1"/>
<rect x="183.219" y="159.109" width="4.82143" height="4.82143" transform="rotate(-90 183.219 159.109)" fill="#A1A1A1"/>
<rect width="4.82143" height="4.82143" transform="matrix(-4.37114e-08 -1 -1 4.37114e-08 101.25 168.75)" fill="#A1A1A1"/>
<rect x="163.93" y="168.75" width="4.82143" height="4.82143" transform="rotate(-90 163.93 168.75)" fill="#A1A1A1"/>
<rect width="4.82143" height="4.82143" transform="matrix(-4.37114e-08 -1 -1 4.37114e-08 120.539 183.215)" fill="#A1A1A1"/>
<rect x="144.641" y="183.215" width="4.82143" height="4.82143" transform="rotate(-90 144.641 183.215)" fill="#A1A1A1"/>
<rect width="4.82143" height="4.82143" transform="matrix(-4.37114e-08 -1 -1 4.37114e-08 139.82 197.68)" fill="#A1A1A1"/>
<rect x="125.359" y="197.68" width="4.82143" height="4.82143" transform="rotate(-90 125.359 197.68)" fill="#A1A1A1"/>
<rect width="4.82143" height="4.82143" transform="matrix(-4.37114e-08 -1 -1 4.37114e-08 159.109 212.137)" fill="#A1A1A1"/>
<rect x="106.07" y="212.137" width="4.82143" height="4.82143" transform="rotate(-90 106.07 212.137)" fill="#A1A1A1"/>
<rect width="4.82143" height="4.82143" transform="matrix(-4.37114e-08 -1 -1 4.37114e-08 178.391 226.609)" fill="#A1A1A1"/>
<rect x="86.7891" y="226.609" width="4.82143" height="4.82143" transform="rotate(-90 86.7891 226.609)" fill="#A1A1A1"/>
<rect width="4.82143" height="4.82143" transform="matrix(-4.37114e-08 -1 -1 4.37114e-08 197.68 241.066)" fill="#A1A1A1"/>
<rect x="67.5" y="241.066" width="4.82143" height="4.82143" transform="rotate(-90 67.5 241.066)" fill="#A1A1A1"/>
<rect width="4.82143" height="4.82143" transform="matrix(-4.37114e-08 -1 -1 4.37114e-08 130.18 115.715)" fill="#A1A1A1"/>
<rect width="4.82143" height="4.82143" transform="matrix(-4.37114e-08 -1 -1 4.37114e-08 72.3203 115.715)" fill="#A1A1A1"/>
<rect width="4.82143" height="4.82143" transform="matrix(-4.37114e-08 -1 -1 4.37114e-08 188.039 115.715)" fill="#A1A1A1"/>
<rect width="4.82143" height="4.82143" transform="matrix(-4.37114e-08 -1 -1 4.37114e-08 43.3906 115.715)" fill="#A1A1A1"/>
<rect width="4.82143" height="4.82143" transform="matrix(-4.37114e-08 -1 -1 4.37114e-08 159.109 115.715)" fill="#A1A1A1"/>
<rect width="4.82143" height="4.82143" transform="matrix(-4.37114e-08 -1 -1 4.37114e-08 101.25 115.715)" fill="#A1A1A1"/>
<rect width="4.82143" height="4.82143" transform="matrix(-4.37114e-08 -1 -1 4.37114e-08 216.961 115.715)" fill="#A1A1A1"/>
<rect width="4.82143" height="4.82143" transform="matrix(-4.37114e-08 -1 -1 4.37114e-08 28.9297 115.715)" fill="#A1A1A1"/>
<rect width="4.82143" height="4.82143" transform="matrix(-4.37114e-08 -1 -1 4.37114e-08 144.641 115.715)" fill="#A1A1A1"/>
<rect width="4.82143" height="4.82143" transform="matrix(-4.37114e-08 -1 -1 4.37114e-08 86.7891 115.715)" fill="#A1A1A1"/>
<rect width="4.82143" height="4.82143" transform="matrix(-4.37114e-08 -1 -1 4.37114e-08 202.5 115.715)" fill="#A1A1A1"/>
<rect width="4.82143" height="4.82143" transform="matrix(-4.37114e-08 -1 -1 4.37114e-08 57.8594 115.715)" fill="#A1A1A1"/>
<rect width="4.82143" height="4.82143" transform="matrix(-4.37114e-08 -1 -1 4.37114e-08 173.57 115.715)" fill="#A1A1A1"/>
<rect width="4.82143" height="4.82143" transform="matrix(-4.37114e-08 -1 -1 4.37114e-08 115.711 115.715)" fill="#A1A1A1"/>
<rect width="4.82143" height="4.82143" transform="matrix(-4.37114e-08 -1 -1 4.37114e-08 231.43 115.715)" fill="#A1A1A1"/>
<rect width="4.82143" height="4.82143" transform="matrix(-4.37114e-08 -1 -1 4.37114e-08 19.2891 115.715)" fill="#A1A1A1"/>
<rect width="4.82143" height="4.82143" transform="matrix(-4.37114e-08 -1 -1 4.37114e-08 135 115.715)" fill="#A1A1A1"/>
<rect width="4.82143" height="4.82143" transform="matrix(-4.37114e-08 -1 -1 4.37114e-08 77.1406 115.715)" fill="#A1A1A1"/>
<rect width="4.82143" height="4.82143" transform="matrix(-4.37114e-08 -1 -1 4.37114e-08 192.859 115.715)" fill="#A1A1A1"/>
<rect width="4.82143" height="4.82143" transform="matrix(-4.37114e-08 -1 -1 4.37114e-08 48.2109 115.715)" fill="#A1A1A1"/>
<rect width="4.82143" height="4.82143" transform="matrix(-4.37114e-08 -1 -1 4.37114e-08 163.93 115.715)" fill="#A1A1A1"/>
<rect width="4.82143" height="4.82143" transform="matrix(-4.37114e-08 -1 -1 4.37114e-08 106.07 115.715)" fill="#A1A1A1"/>
<rect width="4.82143" height="4.82143" transform="matrix(-4.37114e-08 -1 -1 4.37114e-08 221.789 115.715)" fill="#A1A1A1"/>
<rect width="4.82143" height="4.82143" transform="matrix(-4.37114e-08 -1 -1 4.37114e-08 33.75 115.715)" fill="#A1A1A1"/>
<rect width="4.82143" height="4.82143" transform="matrix(-4.37114e-08 -1 -1 4.37114e-08 149.461 115.715)" fill="#A1A1A1"/>
<rect width="4.82143" height="4.82143" transform="matrix(-4.37114e-08 -1 -1 4.37114e-08 91.6094 115.715)" fill="#A1A1A1"/>
<rect width="4.82143" height="4.82143" transform="matrix(-4.37114e-08 -1 -1 4.37114e-08 207.32 115.715)" fill="#A1A1A1"/>
<rect width="4.82143" height="4.82143" transform="matrix(-4.37114e-08 -1 -1 4.37114e-08 62.6797 115.715)" fill="#A1A1A1"/>
<rect width="4.82143" height="4.82143" transform="matrix(-4.37114e-08 -1 -1 4.37114e-08 178.391 115.715)" fill="#A1A1A1"/>
<rect width="4.82143" height="4.82143" transform="matrix(-4.37114e-08 -1 -1 4.37114e-08 120.539 115.715)" fill="#A1A1A1"/>
<rect width="4.82143" height="4.82143" transform="matrix(-4.37114e-08 -1 -1 4.37114e-08 236.25 115.715)" fill="#A1A1A1"/>
<rect width="4.82143" height="4.82143" transform="matrix(-4.37114e-08 -1 -1 4.37114e-08 24.1094 115.715)" fill="#A1A1A1"/>
<rect width="4.82143" height="4.82143" transform="matrix(-4.37114e-08 -1 -1 4.37114e-08 139.82 115.715)" fill="#A1A1A1"/>
<rect width="4.82143" height="4.82143" transform="matrix(-4.37114e-08 -1 -1 4.37114e-08 81.9609 115.715)" fill="#A1A1A1"/>
<rect width="4.82143" height="4.82143" transform="matrix(-4.37114e-08 -1 -1 4.37114e-08 197.68 115.715)" fill="#A1A1A1"/>
<rect width="4.82143" height="4.82143" transform="matrix(-4.37114e-08 -1 -1 4.37114e-08 53.0391 115.715)" fill="#A1A1A1"/>
<rect width="4.82143" height="4.82143" transform="matrix(-4.37114e-08 -1 -1 4.37114e-08 168.75 115.715)" fill="#A1A1A1"/>
<rect width="4.82143" height="4.82143" transform="matrix(-4.37114e-08 -1 -1 4.37114e-08 110.891 115.715)" fill="#A1A1A1"/>
<rect width="4.82143" height="4.82143" transform="matrix(-4.37114e-08 -1 -1 4.37114e-08 226.609 115.715)" fill="#A1A1A1"/>
<rect width="4.82143" height="4.82143" transform="matrix(-4.37114e-08 -1 -1 4.37114e-08 38.5703 115.715)" fill="#A1A1A1"/>
<rect width="4.82143" height="4.82143" transform="matrix(-4.37114e-08 -1 -1 4.37114e-08 154.289 115.715)" fill="#A1A1A1"/>
<rect width="4.82143" height="4.82143" transform="matrix(-4.37114e-08 -1 -1 4.37114e-08 96.4297 115.715)" fill="#A1A1A1"/>
<rect width="4.82143" height="4.82143" transform="matrix(-4.37114e-08 -1 -1 4.37114e-08 212.141 115.715)" fill="#A1A1A1"/>
<rect width="4.82143" height="4.82143" transform="matrix(-4.37114e-08 -1 -1 4.37114e-08 67.5 115.715)" fill="#A1A1A1"/>
<rect width="4.82143" height="4.82143" transform="matrix(-4.37114e-08 -1 -1 4.37114e-08 183.219 115.715)" fill="#A1A1A1"/>
<rect width="4.82143" height="4.82143" transform="matrix(-4.37114e-08 -1 -1 4.37114e-08 125.359 115.715)" fill="#A1A1A1"/>
<rect width="4.82143" height="4.82143" transform="matrix(-4.37114e-08 -1 -1 4.37114e-08 241.07 115.715)" fill="#A1A1A1"/>
<rect width="4.82143" height="4.82143" transform="matrix(-4.37114e-08 -1 -1 4.37114e-08 245.891 115.715)" fill="#A1A1A1"/>
<rect width="4.82143" height="4.82143" transform="matrix(-4.37114e-08 -1 -1 4.37114e-08 250.711 115.715)" fill="#A1A1A1"/>
<rect width="4.82143" height="4.82143" transform="matrix(-4.37114e-08 -1 -1 4.37114e-08 135 33.7461)" fill="#A1A1A1"/>
<rect width="4.82143" height="4.82143" transform="matrix(-4.37114e-08 -1 -1 4.37114e-08 130.18 38.5703)" fill="#A1A1A1"/>
<rect x="135" y="38.5703" width="4.82143" height="4.82143" transform="rotate(-90 135 38.5703)" fill="#A1A1A1"/>
<rect width="4.82143" height="4.82143" transform="matrix(-4.37114e-08 -1 -1 4.37114e-08 130.18 43.3867)" fill="#A1A1A1"/>
<rect x="135" y="43.3867" width="4.82143" height="4.82143" transform="rotate(-90 135 43.3867)" fill="#A1A1A1"/>
<rect width="4.82143" height="4.82143" transform="matrix(-4.37114e-08 -1 -1 4.37114e-08 130.18 48.2109)" fill="#A1A1A1"/>
<rect x="135" y="48.2109" width="4.82143" height="4.82143" transform="rotate(-90 135 48.2109)" fill="#A1A1A1"/>
<rect width="4.82143" height="4.82143" transform="matrix(-4.37114e-08 -1 -1 4.37114e-08 125.359 53.0352)" fill="#A1A1A1"/>
<rect x="139.82" y="53.0352" width="4.82143" height="4.82143" transform="rotate(-90 139.82 53.0352)" fill="#A1A1A1"/>
<rect width="4.82143" height="4.82143" transform="matrix(-4.37114e-08 -1 -1 4.37114e-08 106.07 110.891)" fill="#A1A1A1"/>
<rect x="159.109" y="110.891" width="4.82143" height="4.82143" transform="rotate(-90 159.109 110.891)" fill="#A1A1A1"/>
<rect width="4.82143" height="4.82143" transform="matrix(-4.37114e-08 -1 -1 4.37114e-08 86.7891 168.75)" fill="#A1A1A1"/>
<rect x="178.391" y="168.75" width="4.82143" height="4.82143" transform="rotate(-90 178.391 168.75)" fill="#A1A1A1"/>
<rect width="4.82143" height="4.82143" transform="matrix(-4.37114e-08 -1 -1 4.37114e-08 125.359 57.8594)" fill="#A1A1A1"/>
<rect x="139.82" y="57.8594" width="4.82143" height="4.82143" transform="rotate(-90 139.82 57.8594)" fill="#A1A1A1"/>
<rect width="4.82143" height="4.82143" transform="matrix(-4.37114e-08 -1 -1 4.37114e-08 106.07 115.715)" fill="#A1A1A1"/>
<rect width="4.82143" height="4.82143" transform="matrix(-4.37114e-08 -1 -1 4.37114e-08 221.789 115.715)" fill="#A1A1A1"/>
<rect x="159.109" y="115.715" width="4.82143" height="4.82143" transform="rotate(-90 159.109 115.715)" fill="#A1A1A1"/>
<rect width="4.82143" height="4.82143" transform="matrix(-4.37114e-08 -1 -1 4.37114e-08 86.7891 173.574)" fill="#A1A1A1"/>
<rect x="178.391" y="173.574" width="4.82143" height="4.82143" transform="rotate(-90 178.391 173.574)" fill="#A1A1A1"/>
<rect width="4.82143" height="4.82143" transform="matrix(-4.37114e-08 -1 -1 4.37114e-08 125.359 62.6758)" fill="#A1A1A1"/>
<rect x="139.82" y="62.6758" width="4.82143" height="4.82143" transform="rotate(-90 139.82 62.6758)" fill="#A1A1A1"/>
<rect width="4.82143" height="4.82143" transform="matrix(-4.37114e-08 -1 -1 4.37114e-08 106.07 120.539)" fill="#A1A1A1"/>
<rect x="159.109" y="120.539" width="4.82143" height="4.82143" transform="rotate(-90 159.109 120.539)" fill="#A1A1A1"/>
<rect width="4.82143" height="4.82143" transform="matrix(-4.37114e-08 -1 -1 4.37114e-08 86.7891 178.391)" fill="#A1A1A1"/>
<rect x="178.391" y="178.391" width="4.82143" height="4.82143" transform="rotate(-90 178.391 178.391)" fill="#A1A1A1"/>
<rect width="4.82143" height="4.82143" transform="matrix(-4.37114e-08 -1 -1 4.37114e-08 120.539 67.5)" fill="#A1A1A1"/>
<rect x="144.641" y="67.5" width="4.82143" height="4.82143" transform="rotate(-90 144.641 67.5)" fill="#A1A1A1"/>
<rect width="4.82143" height="4.82143" transform="matrix(-4.37114e-08 -1 -1 4.37114e-08 101.25 125.363)" fill="#A1A1A1"/>
<rect x="163.93" y="125.363" width="4.82143" height="4.82143" transform="rotate(-90 163.93 125.363)" fill="#A1A1A1"/>
<rect width="4.82143" height="4.82143" transform="matrix(-4.37114e-08 -1 -1 4.37114e-08 81.9609 183.215)" fill="#A1A1A1"/>
<rect x="183.219" y="183.215" width="4.82143" height="4.82143" transform="rotate(-90 183.219 183.215)" fill="#A1A1A1"/>
<rect width="4.82143" height="4.82143" transform="matrix(-4.37114e-08 -1 -1 4.37114e-08 120.539 72.3164)" fill="#A1A1A1"/>
<rect x="144.641" y="72.3164" width="4.82143" height="4.82143" transform="rotate(-90 144.641 72.3164)" fill="#A1A1A1"/>
<rect width="4.82143" height="4.82143" transform="matrix(-4.37114e-08 -1 -1 4.37114e-08 101.25 130.18)" fill="#A1A1A1"/>
<rect x="163.93" y="130.18" width="4.82143" height="4.82143" transform="rotate(-90 163.93 130.18)" fill="#A1A1A1"/>
<rect width="4.82143" height="4.82143" transform="matrix(-4.37114e-08 -1 -1 4.37114e-08 81.9609 188.039)" fill="#A1A1A1"/>
<rect x="183.219" y="188.039" width="4.82143" height="4.82143" transform="rotate(-90 183.219 188.039)" fill="#A1A1A1"/>
<rect width="4.82143" height="4.82143" transform="matrix(-4.37114e-08 -1 -1 4.37114e-08 120.539 77.1406)" fill="#A1A1A1"/>
<rect x="144.641" y="77.1406" width="4.82143" height="4.82143" transform="rotate(-90 144.641 77.1406)" fill="#A1A1A1"/>
<rect width="4.82143" height="4.82143" transform="matrix(-4.37114e-08 -1 -1 4.37114e-08 101.25 135.004)" fill="#A1A1A1"/>
<rect x="163.93" y="135.004" width="4.82143" height="4.82143" transform="rotate(-90 163.93 135.004)" fill="#A1A1A1"/>
<rect width="4.82143" height="4.82143" transform="matrix(-4.37114e-08 -1 -1 4.37114e-08 81.9609 192.855)" fill="#A1A1A1"/>
<rect x="183.219" y="192.855" width="4.82143" height="4.82143" transform="rotate(-90 183.219 192.855)" fill="#A1A1A1"/>
<rect width="4.82143" height="4.82143" transform="matrix(-4.37114e-08 -1 -1 4.37114e-08 115.711 81.957)" fill="#A1A1A1"/>
<rect x="149.461" y="81.957" width="4.82143" height="4.82143" transform="rotate(-90 149.461 81.957)" fill="#A1A1A1"/>
<rect width="4.82143" height="4.82143" transform="matrix(-4.37114e-08 -1 -1 4.37114e-08 96.4297 139.82)" fill="#A1A1A1"/>
<rect x="168.75" y="139.82" width="4.82143" height="4.82143" transform="rotate(-90 168.75 139.82)" fill="#A1A1A1"/>
<rect width="4.82143" height="4.82143" transform="matrix(-4.37114e-08 -1 -1 4.37114e-08 77.1406 197.68)" fill="#A1A1A1"/>
<rect x="188.039" y="197.68" width="4.82143" height="4.82143" transform="rotate(-90 188.039 197.68)" fill="#A1A1A1"/>
<rect width="4.82143" height="4.82143" transform="matrix(-4.37114e-08 -1 -1 4.37114e-08 67.5 226.609)" fill="#A1A1A1"/>
<rect x="197.68" y="226.609" width="4.82143" height="4.82143" transform="rotate(-90 197.68 226.609)" fill="#A1A1A1"/>
<rect width="4.82143" height="4.82143" transform="matrix(-4.37114e-08 -1 -1 4.37114e-08 115.711 86.793)" fill="#A1A1A1"/>
<rect x="149.461" y="86.793" width="4.82143" height="4.82143" transform="rotate(-90 149.461 86.793)" fill="#A1A1A1"/>
<rect width="4.82143" height="4.82143" transform="matrix(-4.37114e-08 -1 -1 4.37114e-08 96.4297 144.645)" fill="#A1A1A1"/>
<rect x="168.75" y="144.645" width="4.82143" height="4.82143" transform="rotate(-90 168.75 144.645)" fill="#A1A1A1"/>
<rect width="4.82143" height="4.82143" transform="matrix(-4.37114e-08 -1 -1 4.37114e-08 77.1406 202.496)" fill="#A1A1A1"/>
<rect x="188.039" y="202.496" width="4.82143" height="4.82143" transform="rotate(-90 188.039 202.496)" fill="#A1A1A1"/>
<rect width="4.82143" height="4.82143" transform="matrix(-4.37114e-08 -1 -1 4.37114e-08 67.5 231.426)" fill="#A1A1A1"/>
<rect x="197.68" y="231.426" width="4.82143" height="4.82143" transform="rotate(-90 197.68 231.426)" fill="#A1A1A1"/>
<rect width="4.82143" height="4.82143" transform="matrix(-4.37114e-08 -1 -1 4.37114e-08 115.711 91.6094)" fill="#A1A1A1"/>
<rect x="149.461" y="91.6094" width="4.82143" height="4.82143" transform="rotate(-90 149.461 91.6094)" fill="#A1A1A1"/>
<rect width="4.82143" height="4.82143" transform="matrix(-4.37114e-08 -1 -1 4.37114e-08 96.4297 149.461)" fill="#A1A1A1"/>
<rect x="168.75" y="149.461" width="4.82143" height="4.82143" transform="rotate(-90 168.75 149.461)" fill="#A1A1A1"/>
<rect width="4.82143" height="4.82143" transform="matrix(-4.37114e-08 -1 -1 4.37114e-08 77.1406 207.32)" fill="#A1A1A1"/>
<rect x="188.039" y="207.32" width="4.82143" height="4.82143" transform="rotate(-90 188.039 207.32)" fill="#A1A1A1"/>
<rect width="4.82143" height="4.82143" transform="matrix(-4.37114e-08 -1 -1 4.37114e-08 67.5 236.25)" fill="#A1A1A1"/>
<rect x="197.68" y="236.25" width="4.82143" height="4.82143" transform="rotate(-90 197.68 236.25)" fill="#A1A1A1"/>
<rect width="4.82143" height="4.82143" transform="matrix(-4.37114e-08 -1 -1 4.37114e-08 110.891 96.4336)" fill="#A1A1A1"/>
<rect x="154.289" y="96.4336" width="4.82143" height="4.82143" transform="rotate(-90 154.289 96.4336)" fill="#A1A1A1"/>
<rect width="4.82143" height="4.82143" transform="matrix(-4.37114e-08 -1 -1 4.37114e-08 91.6094 154.293)" fill="#A1A1A1"/>
<rect x="173.57" y="154.293" width="4.82143" height="4.82143" transform="rotate(-90 173.57 154.293)" fill="#A1A1A1"/>
<rect width="4.82143" height="4.82143" transform="matrix(-4.37114e-08 -1 -1 4.37114e-08 72.3203 212.137)" fill="#A1A1A1"/>
<rect x="192.859" y="212.137" width="4.82143" height="4.82143" transform="rotate(-90 192.859 212.137)" fill="#A1A1A1"/>
<rect width="4.82143" height="4.82143" transform="matrix(-4.37114e-08 -1 -1 4.37114e-08 62.6797 241.066)" fill="#A1A1A1"/>
<rect x="202.5" y="241.066" width="4.82143" height="4.82143" transform="rotate(-90 202.5 241.066)" fill="#A1A1A1"/>
<rect width="4.82143" height="4.82143" transform="matrix(-4.37114e-08 -1 -1 4.37114e-08 110.891 101.25)" fill="#A1A1A1"/>
<rect x="154.289" y="101.25" width="4.82143" height="4.82143" transform="rotate(-90 154.289 101.25)" fill="#A1A1A1"/>
<rect width="4.82143" height="4.82143" transform="matrix(-4.37114e-08 -1 -1 4.37114e-08 91.6094 159.109)" fill="#A1A1A1"/>
<rect x="173.57" y="159.109" width="4.82143" height="4.82143" transform="rotate(-90 173.57 159.109)" fill="#A1A1A1"/>
<rect width="4.82143" height="4.82143" transform="matrix(-4.37114e-08 -1 -1 4.37114e-08 72.3203 216.961)" fill="#A1A1A1"/>
<rect x="192.859" y="216.961" width="4.82143" height="4.82143" transform="rotate(-90 192.859 216.961)" fill="#A1A1A1"/>
<rect width="4.82143" height="4.82143" transform="matrix(-4.37114e-08 -1 -1 4.37114e-08 62.6797 245.891)" fill="#A1A1A1"/>
<rect x="202.5" y="245.891" width="4.82143" height="4.82143" transform="rotate(-90 202.5 245.891)" fill="#A1A1A1"/>
<rect x="207.32" y="250.707" width="4.82143" height="4.82143" transform="rotate(-90 207.32 250.707)" fill="#A1A1A1"/>
<rect width="4.82143" height="4.82143" transform="matrix(-4.37114e-08 -1 -1 4.37114e-08 57.8594 250.707)" fill="#A1A1A1"/>
<rect width="4.82143" height="4.82143" transform="matrix(-4.37114e-08 -1 -1 4.37114e-08 110.891 106.074)" fill="#A1A1A1"/>
<rect x="154.289" y="106.074" width="4.82143" height="4.82143" transform="rotate(-90 154.289 106.074)" fill="#A1A1A1"/>
<rect width="4.82143" height="4.82143" transform="matrix(-4.37114e-08 -1 -1 4.37114e-08 91.6094 163.934)" fill="#A1A1A1"/>
<rect x="173.57" y="163.934" width="4.82143" height="4.82143" transform="rotate(-90 173.57 163.934)" fill="#A1A1A1"/>
<rect x="173.57" y="163.934" width="4.82143" height="4.82143" transform="rotate(-90 173.57 163.934)" fill="#A1A1A1"/>
<rect width="4.82143" height="4.82143" transform="matrix(-4.37114e-08 -1 -1 4.37114e-08 72.3203 221.785)" fill="#A1A1A1"/>
<rect x="192.859" y="221.785" width="4.82143" height="4.82143" transform="rotate(-90 192.859 221.785)" fill="#A1A1A1"/>
<circle cx="89" cy="162" r="12" fill="white"/>
<circle cx="101.5" cy="113.5" r="10.5" stroke="#FF6363" stroke-width="2"/>
<circle cx="132.5" cy="192.5" r="10.5" stroke="#FF6363" stroke-width="2"/>
</svg>
