<svg width="52" height="85" viewBox="0 0 52 85" fill="none" xmlns="http://www.w3.org/2000/svg">
<path d="M17.8331 74.06L22.1531 81H19.5931L16.4531 75.96L13.5131 81H10.9731L15.2931 74.06L10.9531 67.1H13.5131L16.6731 72.18L19.6331 67.1H22.1731L17.8331 74.06ZM32.3916 77.04C32.5249 77.7067 32.8116 78.2133 33.2516 78.56C33.6916 78.9067 34.2849 79.08 35.0316 79.08C35.9782 79.08 36.6716 78.7067 37.1116 77.96C37.5516 77.2133 37.7716 75.94 37.7716 74.14C37.4516 74.5933 36.9982 74.9467 36.4116 75.2C35.8382 75.44 35.2116 75.56 34.5316 75.56C33.6649 75.56 32.8782 75.3867 32.1716 75.04C31.4649 74.68 30.9049 74.1533 30.4916 73.46C30.0916 72.7533 29.8916 71.9 29.8916 70.9C29.8916 69.4333 30.3182 68.2667 31.1716 67.4C32.0382 66.52 33.2249 66.08 34.7316 66.08C36.5449 66.08 37.8316 66.6867 38.5916 67.9C39.3649 69.1 39.7516 70.9467 39.7516 73.44C39.7516 75.16 39.6049 76.5667 39.3116 77.66C39.0316 78.7533 38.5382 79.58 37.8316 80.14C37.1249 80.7 36.1449 80.98 34.8916 80.98C33.4649 80.98 32.3649 80.6067 31.5916 79.86C30.8182 79.1133 30.3849 78.1733 30.2916 77.04H32.3916ZM34.9316 73.64C35.7316 73.64 36.3582 73.3933 36.8116 72.9C37.2782 72.3933 37.5116 71.7267 37.5116 70.9C37.5116 69.98 37.2649 69.2667 36.7716 68.76C36.2916 68.24 35.6316 67.98 34.7916 67.98C33.9516 67.98 33.2849 68.2467 32.7916 68.78C32.3116 69.3 32.0716 69.9867 32.0716 70.84C32.0716 71.6533 32.3049 72.3267 32.7716 72.86C33.2516 73.38 33.9716 73.64 34.9316 73.64Z" fill="white"/>
<circle cx="26" cy="26" r="26" fill="white"/>
</svg>
