<svg width="272" height="272" viewBox="0 0 272 272" fill="none" xmlns="http://www.w3.org/2000/svg">
<rect x="5.55078" y="233.145" width="5.55102" height="5.55102" fill="#A1A1A1"/>
<rect x="260.898" y="233.145" width="5.55102" height="5.55102" fill="#A1A1A1"/>
<rect x="5.55078" y="255.348" width="5.55102" height="5.55102" fill="#A1A1A1"/>
<rect x="260.898" y="255.348" width="5.55102" height="5.55102" fill="#A1A1A1"/>
<rect x="172.082" y="5.55078" width="5.55102" height="5.55102" fill="#A1A1A1"/>
<rect x="172.082" y="260.898" width="5.55102" height="5.55102" fill="#A1A1A1"/>
<rect x="172.082" y="133.223" width="5.55102" height="5.55102" fill="#A1A1A1"/>
<rect x="94.3672" y="5.55078" width="5.55102" height="5.55102" fill="#A1A1A1"/>
<rect x="94.3672" y="260.898" width="5.55102" height="5.55102" fill="#A1A1A1"/>
<rect x="94.3672" y="133.223" width="5.55102" height="5.55102" fill="#A1A1A1"/>
<rect x="11.1016" y="5.55078" width="5.55102" height="5.55102" fill="#A1A1A1"/>
<rect width="5.55102" height="5.55102" transform="matrix(1 -7.87152e-09 2.01511e-06 1 11.1016 0)" fill="#A1A1A1"/>
<rect width="5.55102" height="5.55102" transform="matrix(1 -7.87152e-09 2.01511e-06 1 138.777 0)" fill="#A1A1A1"/>
<rect width="5.55102" height="5.55102" transform="matrix(1 -7.87152e-09 2.01511e-06 1 266.449 0)" fill="#A1A1A1"/>
<rect x="266.449" y="127.672" width="5.55102" height="5.55102" fill="#A1A1A1"/>
<rect x="266.449" y="255.348" width="5.55102" height="5.55102" fill="#A1A1A1"/>
<rect x="266.449" y="5.55078" width="5.55102" height="5.55102" fill="#A1A1A1"/>
<rect x="266.449" y="133.223" width="5.55102" height="5.55102" fill="#A1A1A1"/>
<rect x="266.449" y="260.898" width="5.55102" height="5.55102" fill="#A1A1A1"/>
<rect x="266.449" y="11.1016" width="5.55102" height="5.55102" fill="#A1A1A1"/>
<rect x="266.449" y="138.777" width="5.55102" height="5.55102" fill="#A1A1A1"/>
<path d="M266.45 266.449L272.001 266.449L272.001 272L266.45 272L266.45 266.449Z" fill="#A1A1A1"/>
<path d="M260.899 266.449L266.45 266.449L266.45 272L260.899 272L260.899 266.449Z" fill="#A1A1A1"/>
<path d="M255.348 266.449L260.899 266.449L260.899 272L255.348 272L255.348 266.449Z" fill="#A1A1A1"/>
<path d="M138.774 266.449L144.325 266.449L144.325 272L138.774 272L138.774 266.449Z" fill="#A1A1A1"/>
<path d="M133.223 266.449L138.774 266.449L138.774 272L133.223 272L133.223 266.449Z" fill="#A1A1A1"/>
<path d="M127.672 266.449L133.223 266.449L133.223 272L127.672 272L127.672 266.449Z" fill="#A1A1A1"/>
<path d="M11.102 266.449L16.6531 266.449L16.6531 272L11.102 272L11.102 266.449Z" fill="#A1A1A1"/>
<path d="M5.55102 266.449L11.102 266.449L11.102 272L5.55102 272L5.55102 266.449Z" fill="#A1A1A1"/>
<path d="M-1.39824e-06 266.449L5.55102 266.449L5.55102 272L-1.27229e-06 272L-1.39824e-06 266.449Z" fill="#A1A1A1"/>
<path d="M11.102 260.898L16.6531 260.898L16.6531 266.449L11.102 266.449L11.102 260.898Z" fill="#A1A1A1"/>
<path d="M5.55102 260.898L11.102 260.898L11.102 266.449L5.55102 266.449L5.55102 260.898Z" fill="#A1A1A1"/>
<path d="M-1.39824e-06 260.898L5.55102 260.898L5.55102 266.449L-1.27229e-06 266.449L-1.39824e-06 260.898Z" fill="#A1A1A1"/>
<path d="M11.102 255.348L16.6531 255.348L16.6531 260.899L11.102 260.899L11.102 255.348Z" fill="#A1A1A1"/>
<path d="M5.55102 255.348L11.102 255.348L11.102 260.899L5.55102 260.899L5.55102 255.348Z" fill="#A1A1A1"/>
<path d="M-1.39824e-06 255.348L5.55102 255.348L5.55102 260.899L-1.27229e-06 260.899L-1.39824e-06 255.348Z" fill="#A1A1A1"/>
<rect x="5.55078" width="5.55102" height="5.55102" fill="#A1A1A1"/>
<rect width="5.55102" height="5.55102" transform="matrix(1 -7.87152e-09 2.01511e-06 1 133.223 0)" fill="#A1A1A1"/>
<rect width="5.55102" height="5.55102" transform="matrix(1 -7.87152e-09 2.01511e-06 1 260.898 0)" fill="#A1A1A1"/>
<rect width="5.55102" height="5.55102" fill="#A1A1A1"/>
<rect y="127.672" width="5.55102" height="5.55102" fill="#A1A1A1"/>
<rect width="5.55102" height="5.55102" transform="matrix(1 -7.87152e-09 2.01511e-06 1 127.672 0)" fill="#A1A1A1"/>
<rect width="5.55102" height="5.55102" transform="matrix(1 -7.87152e-09 2.01511e-06 1 255.348 0)" fill="#A1A1A1"/>
<rect y="5.55078" width="5.55102" height="5.55102" fill="#A1A1A1"/>
<rect y="133.223" width="5.55102" height="5.55102" fill="#A1A1A1"/>
<rect y="11.1016" width="5.55102" height="5.55102" fill="#A1A1A1"/>
<rect y="138.777" width="5.55102" height="5.55102" fill="#A1A1A1"/>
<rect x="11.1016" y="260.898" width="5.55102" height="5.55102" fill="#A1A1A1"/>
<rect x="11.1016" y="133.223" width="5.55102" height="5.55102" fill="#A1A1A1"/>
<rect x="188.734" y="5.55078" width="5.55102" height="5.55102" fill="#A1A1A1"/>
<rect x="188.734" y="260.898" width="5.55102" height="5.55102" fill="#A1A1A1"/>
<rect x="188.734" y="133.223" width="5.55102" height="5.55102" fill="#A1A1A1"/>
<rect x="133.223" y="5.55078" width="5.55102" height="5.55102" fill="#A1A1A1"/>
<rect x="133.223" y="260.898" width="5.55102" height="5.55102" fill="#A1A1A1"/>
<rect x="133.223" y="133.223" width="5.55102" height="5.55102" fill="#A1A1A1"/>
<rect x="49.9609" y="5.55078" width="5.55102" height="5.55102" fill="#A1A1A1"/>
<rect x="49.9609" y="260.898" width="5.55102" height="5.55102" fill="#A1A1A1"/>
<rect x="49.9609" y="133.223" width="5.55102" height="5.55102" fill="#A1A1A1"/>
<rect x="227.594" y="5.55078" width="5.55102" height="5.55102" fill="#A1A1A1"/>
<rect x="227.594" y="260.898" width="5.55102" height="5.55102" fill="#A1A1A1"/>
<rect x="227.594" y="133.223" width="5.55102" height="5.55102" fill="#A1A1A1"/>
<rect x="260.898" y="5.55078" width="5.55102" height="5.55102" fill="#A1A1A1"/>
<rect x="177.633" y="5.55078" width="5.55102" height="5.55102" fill="#A1A1A1"/>
<rect x="177.633" y="260.898" width="5.55102" height="5.55102" fill="#A1A1A1"/>
<rect x="177.633" y="133.223" width="5.55102" height="5.55102" fill="#A1A1A1"/>
<rect x="99.918" y="5.55078" width="5.55102" height="5.55102" fill="#A1A1A1"/>
<rect x="99.918" y="260.898" width="5.55102" height="5.55102" fill="#A1A1A1"/>
<rect x="99.918" y="133.223" width="5.55102" height="5.55102" fill="#A1A1A1"/>
<rect x="16.6523" y="5.55078" width="5.55102" height="5.55102" fill="#A1A1A1"/>
<rect x="16.6523" y="260.898" width="5.55102" height="5.55102" fill="#A1A1A1"/>
<rect x="16.6523" y="133.223" width="5.55102" height="5.55102" fill="#A1A1A1"/>
<rect x="194.285" y="5.55078" width="5.55102" height="5.55102" fill="#A1A1A1"/>
<rect x="194.285" y="260.898" width="5.55102" height="5.55102" fill="#A1A1A1"/>
<rect x="194.285" y="133.223" width="5.55102" height="5.55102" fill="#A1A1A1"/>
<rect x="138.777" y="5.55078" width="5.55102" height="5.55102" fill="#A1A1A1"/>
<rect x="138.777" y="260.898" width="5.55102" height="5.55102" fill="#A1A1A1"/>
<rect x="138.777" y="133.223" width="5.55102" height="5.55102" fill="#A1A1A1"/>
<rect x="55.5117" y="5.55078" width="5.55102" height="5.55102" fill="#A1A1A1"/>
<rect x="55.5117" y="260.898" width="5.55102" height="5.55102" fill="#A1A1A1"/>
<rect x="55.5117" y="133.223" width="5.55102" height="5.55102" fill="#A1A1A1"/>
<rect x="233.145" y="5.55078" width="5.55102" height="5.55102" fill="#A1A1A1"/>
<rect x="233.145" y="260.898" width="5.55102" height="5.55102" fill="#A1A1A1"/>
<rect x="233.145" y="133.223" width="5.55102" height="5.55102" fill="#A1A1A1"/>
<rect x="5.55078" y="5.55078" width="5.55102" height="5.55102" fill="#A1A1A1"/>
<rect x="183.184" y="5.55078" width="5.55102" height="5.55102" fill="#A1A1A1"/>
<rect x="183.184" y="260.898" width="5.55102" height="5.55102" fill="#A1A1A1"/>
<rect x="183.184" y="133.223" width="5.55102" height="5.55102" fill="#A1A1A1"/>
<rect x="105.469" y="5.55078" width="5.55102" height="5.55102" fill="#A1A1A1"/>
<rect x="105.469" y="260.898" width="5.55102" height="5.55102" fill="#A1A1A1"/>
<rect x="105.469" y="133.223" width="5.55102" height="5.55102" fill="#A1A1A1"/>
<rect x="22.2031" y="5.55078" width="5.55102" height="5.55102" fill="#A1A1A1"/>
<rect x="22.2031" y="260.898" width="5.55102" height="5.55102" fill="#A1A1A1"/>
<rect x="22.2031" y="133.223" width="5.55102" height="5.55102" fill="#A1A1A1"/>
<rect x="199.836" y="5.55078" width="5.55102" height="5.55102" fill="#A1A1A1"/>
<rect x="199.836" y="260.898" width="5.55102" height="5.55102" fill="#A1A1A1"/>
<rect x="199.836" y="133.223" width="5.55102" height="5.55102" fill="#A1A1A1"/>
<rect x="144.328" y="5.55078" width="5.55102" height="5.55102" fill="#A1A1A1"/>
<rect x="144.328" y="260.898" width="5.55102" height="5.55102" fill="#A1A1A1"/>
<rect x="144.328" y="133.223" width="5.55102" height="5.55102" fill="#A1A1A1"/>
<rect x="61.0625" y="5.55078" width="5.55102" height="5.55102" fill="#A1A1A1"/>
<rect x="61.0625" y="260.898" width="5.55102" height="5.55102" fill="#A1A1A1"/>
<rect x="61.0625" y="133.223" width="5.55102" height="5.55102" fill="#A1A1A1"/>
<rect x="238.695" y="5.55078" width="5.55102" height="5.55102" fill="#A1A1A1"/>
<rect x="238.695" y="260.898" width="5.55102" height="5.55102" fill="#A1A1A1"/>
<rect x="238.695" y="133.223" width="5.55102" height="5.55102" fill="#A1A1A1"/>
<rect x="111.02" y="5.55078" width="5.55102" height="5.55102" fill="#A1A1A1"/>
<rect x="111.02" y="260.898" width="5.55102" height="5.55102" fill="#A1A1A1"/>
<rect x="111.02" y="133.223" width="5.55102" height="5.55102" fill="#A1A1A1"/>
<rect x="27.7539" y="5.55078" width="5.55102" height="5.55102" fill="#A1A1A1"/>
<rect x="27.7539" y="260.898" width="5.55102" height="5.55102" fill="#A1A1A1"/>
<rect x="27.7539" y="133.223" width="5.55102" height="5.55102" fill="#A1A1A1"/>
<rect x="205.387" y="5.55078" width="5.55102" height="5.55102" fill="#A1A1A1"/>
<rect x="205.387" y="260.898" width="5.55102" height="5.55102" fill="#A1A1A1"/>
<rect x="205.387" y="133.223" width="5.55102" height="5.55102" fill="#A1A1A1"/>
<rect x="244.246" y="5.55078" width="5.55102" height="5.55102" fill="#A1A1A1"/>
<rect x="244.246" y="260.898" width="5.55102" height="5.55102" fill="#A1A1A1"/>
<rect x="244.246" y="133.223" width="5.55102" height="5.55102" fill="#A1A1A1"/>
<rect x="149.879" y="5.55078" width="5.55102" height="5.55102" fill="#A1A1A1"/>
<rect x="149.879" y="260.898" width="5.55102" height="5.55102" fill="#A1A1A1"/>
<rect x="149.879" y="133.223" width="5.55102" height="5.55102" fill="#A1A1A1"/>
<rect x="66.6133" y="5.55078" width="5.55102" height="5.55102" fill="#A1A1A1"/>
<rect x="66.6133" y="260.898" width="5.55102" height="5.55102" fill="#A1A1A1"/>
<rect x="66.6133" y="133.223" width="5.55102" height="5.55102" fill="#A1A1A1"/>
<rect x="116.57" y="5.55078" width="5.55102" height="5.55102" fill="#A1A1A1"/>
<rect x="116.57" y="260.898" width="5.55102" height="5.55102" fill="#A1A1A1"/>
<rect x="116.57" y="133.223" width="5.55102" height="5.55102" fill="#A1A1A1"/>
<rect x="33.3047" y="5.55078" width="5.55102" height="5.55102" fill="#A1A1A1"/>
<rect x="33.3047" y="260.898" width="5.55102" height="5.55102" fill="#A1A1A1"/>
<rect x="33.3047" y="133.223" width="5.55102" height="5.55102" fill="#A1A1A1"/>
<rect x="210.938" y="5.55078" width="5.55102" height="5.55102" fill="#A1A1A1"/>
<rect x="210.938" y="260.898" width="5.55102" height="5.55102" fill="#A1A1A1"/>
<rect x="210.938" y="133.223" width="5.55102" height="5.55102" fill="#A1A1A1"/>
<rect x="249.797" y="5.55078" width="5.55102" height="5.55102" fill="#A1A1A1"/>
<rect x="249.797" y="260.898" width="5.55102" height="5.55102" fill="#A1A1A1"/>
<rect x="249.797" y="133.223" width="5.55102" height="5.55102" fill="#A1A1A1"/>
<rect x="155.43" y="5.55078" width="5.55102" height="5.55102" fill="#A1A1A1"/>
<rect x="155.43" y="260.898" width="5.55102" height="5.55102" fill="#A1A1A1"/>
<rect x="155.43" y="133.223" width="5.55102" height="5.55102" fill="#A1A1A1"/>
<rect x="72.1641" y="5.55078" width="5.55102" height="5.55102" fill="#A1A1A1"/>
<rect x="72.1641" y="260.898" width="5.55102" height="5.55102" fill="#A1A1A1"/>
<rect x="72.1641" y="133.223" width="5.55102" height="5.55102" fill="#A1A1A1"/>
<rect x="122.121" y="5.55078" width="5.55102" height="5.55102" fill="#A1A1A1"/>
<rect x="122.121" y="260.898" width="5.55102" height="5.55102" fill="#A1A1A1"/>
<rect x="122.121" y="133.223" width="5.55102" height="5.55102" fill="#A1A1A1"/>
<rect x="38.8555" y="5.55078" width="5.55102" height="5.55102" fill="#A1A1A1"/>
<rect x="38.8555" y="260.898" width="5.55102" height="5.55102" fill="#A1A1A1"/>
<rect x="38.8555" y="133.223" width="5.55102" height="5.55102" fill="#A1A1A1"/>
<rect x="216.488" y="5.55078" width="5.55102" height="5.55102" fill="#A1A1A1"/>
<rect x="216.488" y="260.898" width="5.55102" height="5.55102" fill="#A1A1A1"/>
<rect x="216.488" y="133.223" width="5.55102" height="5.55102" fill="#A1A1A1"/>
<rect x="255.348" y="5.55078" width="5.55102" height="5.55102" fill="#A1A1A1"/>
<rect x="255.348" y="260.898" width="5.55102" height="5.55102" fill="#A1A1A1"/>
<rect x="255.348" y="133.223" width="5.55102" height="5.55102" fill="#A1A1A1"/>
<rect x="160.98" y="5.55078" width="5.55102" height="5.55102" fill="#A1A1A1"/>
<rect x="160.98" y="260.898" width="5.55102" height="5.55102" fill="#A1A1A1"/>
<rect x="160.98" y="133.223" width="5.55102" height="5.55102" fill="#A1A1A1"/>
<rect x="77.7148" y="5.55078" width="5.55102" height="5.55102" fill="#A1A1A1"/>
<rect x="77.7148" y="260.898" width="5.55102" height="5.55102" fill="#A1A1A1"/>
<rect x="77.7148" y="133.223" width="5.55102" height="5.55102" fill="#A1A1A1"/>
<rect x="127.672" y="5.55078" width="5.55102" height="5.55102" fill="#A1A1A1"/>
<rect x="127.672" y="260.898" width="5.55102" height="5.55102" fill="#A1A1A1"/>
<rect x="127.672" y="133.223" width="5.55102" height="5.55102" fill="#A1A1A1"/>
<rect x="44.4062" y="5.55078" width="5.55102" height="5.55102" fill="#A1A1A1"/>
<rect x="44.4062" y="260.898" width="5.55102" height="5.55102" fill="#A1A1A1"/>
<rect x="44.4062" y="133.223" width="5.55102" height="5.55102" fill="#A1A1A1"/>
<rect x="222.039" y="5.55078" width="5.55102" height="5.55102" fill="#A1A1A1"/>
<rect x="222.039" y="260.898" width="5.55102" height="5.55102" fill="#A1A1A1"/>
<rect x="222.039" y="133.223" width="5.55102" height="5.55102" fill="#A1A1A1"/>
<rect x="166.531" y="5.55078" width="5.55102" height="5.55102" fill="#A1A1A1"/>
<rect x="166.531" y="260.898" width="5.55102" height="5.55102" fill="#A1A1A1"/>
<rect x="166.531" y="133.223" width="5.55102" height="5.55102" fill="#A1A1A1"/>
<rect x="83.2656" y="5.55078" width="5.55102" height="5.55102" fill="#A1A1A1"/>
<rect x="83.2656" y="260.898" width="5.55102" height="5.55102" fill="#A1A1A1"/>
<rect x="83.2656" y="133.223" width="5.55102" height="5.55102" fill="#A1A1A1"/>
<rect x="88.8164" y="5.55078" width="5.55102" height="5.55102" fill="#A1A1A1"/>
<rect x="88.8164" y="260.898" width="5.55102" height="5.55102" fill="#A1A1A1"/>
<rect x="88.8164" y="133.223" width="5.55102" height="5.55102" fill="#A1A1A1"/>
<rect x="5.55078" y="88.8164" width="5.55102" height="5.55102" transform="rotate(-90 5.55078 88.8164)" fill="#A1A1A1"/>
<rect x="260.898" y="88.8164" width="5.55102" height="5.55102" transform="rotate(-90 260.898 88.8164)" fill="#A1A1A1"/>
<rect x="133.223" y="88.8164" width="5.55102" height="5.55102" transform="rotate(-90 133.223 88.8164)" fill="#A1A1A1"/>
<rect x="133.223" y="216.488" width="5.55102" height="5.55102" transform="rotate(-90 133.223 216.488)" fill="#A1A1A1"/>
<rect x="5.55078" y="166.531" width="5.55102" height="5.55102" transform="rotate(-90 5.55078 166.531)" fill="#A1A1A1"/>
<rect x="260.898" y="166.531" width="5.55102" height="5.55102" transform="rotate(-90 260.898 166.531)" fill="#A1A1A1"/>
<rect x="5.55078" y="72.1641" width="5.55102" height="5.55102" transform="rotate(-90 5.55078 72.1641)" fill="#A1A1A1"/>
<rect x="260.898" y="72.1641" width="5.55102" height="5.55102" transform="rotate(-90 260.898 72.1641)" fill="#A1A1A1"/>
<rect x="133.223" y="72.1641" width="5.55102" height="5.55102" transform="rotate(-90 133.223 72.1641)" fill="#A1A1A1"/>
<rect x="133.223" y="199.836" width="5.55102" height="5.55102" transform="rotate(-90 133.223 199.836)" fill="#A1A1A1"/>
<rect x="5.55078" y="127.672" width="5.55102" height="5.55102" transform="rotate(-90 5.55078 127.672)" fill="#A1A1A1"/>
<rect x="260.898" y="127.672" width="5.55102" height="5.55102" transform="rotate(-90 260.898 127.672)" fill="#A1A1A1"/>
<rect x="133.223" y="127.672" width="5.55102" height="5.55102" transform="rotate(-90 133.223 127.672)" fill="#A1A1A1"/>
<rect x="133.223" y="255.348" width="5.55102" height="5.55102" transform="rotate(-90 133.223 255.348)" fill="#A1A1A1"/>
<rect x="5.55078" y="210.938" width="5.55102" height="5.55102" transform="rotate(-90 5.55078 210.938)" fill="#A1A1A1"/>
<rect x="260.898" y="210.938" width="5.55102" height="5.55102" transform="rotate(-90 260.898 210.938)" fill="#A1A1A1"/>
<rect x="5.55078" y="33.3047" width="5.55102" height="5.55102" transform="rotate(-90 5.55078 33.3047)" fill="#A1A1A1"/>
<rect x="260.898" y="33.3047" width="5.55102" height="5.55102" transform="rotate(-90 260.898 33.3047)" fill="#A1A1A1"/>
<rect x="133.223" y="33.3047" width="5.55102" height="5.55102" transform="rotate(-90 133.223 33.3047)" fill="#A1A1A1"/>
<rect x="133.223" y="160.98" width="5.55102" height="5.55102" transform="rotate(-90 133.223 160.98)" fill="#A1A1A1"/>
<rect x="5.55078" y="83.2656" width="5.55102" height="5.55102" transform="rotate(-90 5.55078 83.2656)" fill="#A1A1A1"/>
<rect x="260.898" y="83.2656" width="5.55102" height="5.55102" transform="rotate(-90 260.898 83.2656)" fill="#A1A1A1"/>
<rect x="133.223" y="83.2656" width="5.55102" height="5.55102" transform="rotate(-90 133.223 83.2656)" fill="#A1A1A1"/>
<rect x="133.223" y="210.938" width="5.55102" height="5.55102" transform="rotate(-90 133.223 210.938)" fill="#A1A1A1"/>
<rect x="5.55078" y="160.98" width="5.55102" height="5.55102" transform="rotate(-90 5.55078 160.98)" fill="#A1A1A1"/>
<rect x="260.898" y="160.98" width="5.55102" height="5.55102" transform="rotate(-90 260.898 160.98)" fill="#A1A1A1"/>
<rect x="5.55078" y="66.6133" width="5.55102" height="5.55102" transform="rotate(-90 5.55078 66.6133)" fill="#A1A1A1"/>
<rect x="260.898" y="66.6133" width="5.55102" height="5.55102" transform="rotate(-90 260.898 66.6133)" fill="#A1A1A1"/>
<rect x="133.223" y="66.6133" width="5.55102" height="5.55102" transform="rotate(-90 133.223 66.6133)" fill="#A1A1A1"/>
<rect x="133.223" y="194.285" width="5.55102" height="5.55102" transform="rotate(-90 133.223 194.285)" fill="#A1A1A1"/>
<rect x="5.55078" y="122.121" width="5.55102" height="5.55102" transform="rotate(-90 5.55078 122.121)" fill="#A1A1A1"/>
<rect x="260.898" y="122.121" width="5.55102" height="5.55102" transform="rotate(-90 260.898 122.121)" fill="#A1A1A1"/>
<rect x="133.223" y="122.121" width="5.55102" height="5.55102" transform="rotate(-90 133.223 122.121)" fill="#A1A1A1"/>
<rect x="133.223" y="249.797" width="5.55102" height="5.55102" transform="rotate(-90 133.223 249.797)" fill="#A1A1A1"/>
<rect x="5.55078" y="205.387" width="5.55102" height="5.55102" transform="rotate(-90 5.55078 205.387)" fill="#A1A1A1"/>
<rect x="260.898" y="205.387" width="5.55102" height="5.55102" transform="rotate(-90 260.898 205.387)" fill="#A1A1A1"/>
<rect x="5.55078" y="27.7539" width="5.55102" height="5.55102" transform="rotate(-90 5.55078 27.7539)" fill="#A1A1A1"/>
<rect x="260.898" y="27.7539" width="5.55102" height="5.55102" transform="rotate(-90 260.898 27.7539)" fill="#A1A1A1"/>
<rect x="133.223" y="27.7539" width="5.55102" height="5.55102" transform="rotate(-90 133.223 27.7539)" fill="#A1A1A1"/>
<rect x="133.223" y="155.43" width="5.55102" height="5.55102" transform="rotate(-90 133.223 155.43)" fill="#A1A1A1"/>
<rect x="5.55078" y="77.7148" width="5.55102" height="5.55102" transform="rotate(-90 5.55078 77.7148)" fill="#A1A1A1"/>
<rect x="260.898" y="77.7148" width="5.55102" height="5.55102" transform="rotate(-90 260.898 77.7148)" fill="#A1A1A1"/>
<rect x="133.223" y="77.7148" width="5.55102" height="5.55102" transform="rotate(-90 133.223 77.7148)" fill="#A1A1A1"/>
<rect x="133.223" y="205.387" width="5.55102" height="5.55102" transform="rotate(-90 133.223 205.387)" fill="#A1A1A1"/>
<rect x="5.55078" y="155.43" width="5.55102" height="5.55102" transform="rotate(-90 5.55078 155.43)" fill="#A1A1A1"/>
<rect x="260.898" y="155.43" width="5.55102" height="5.55102" transform="rotate(-90 260.898 155.43)" fill="#A1A1A1"/>
<rect x="5.55078" y="61.0625" width="5.55102" height="5.55102" transform="rotate(-90 5.55078 61.0625)" fill="#A1A1A1"/>
<rect x="260.898" y="61.0625" width="5.55102" height="5.55102" transform="rotate(-90 260.898 61.0625)" fill="#A1A1A1"/>
<rect x="133.223" y="61.0625" width="5.55102" height="5.55102" transform="rotate(-90 133.223 61.0625)" fill="#A1A1A1"/>
<rect x="133.223" y="188.734" width="5.55102" height="5.55102" transform="rotate(-90 133.223 188.734)" fill="#A1A1A1"/>
<rect x="5.55078" y="116.57" width="5.55102" height="5.55102" transform="rotate(-90 5.55078 116.57)" fill="#A1A1A1"/>
<rect x="260.898" y="116.57" width="5.55102" height="5.55102" transform="rotate(-90 260.898 116.57)" fill="#A1A1A1"/>
<rect x="133.223" y="116.57" width="5.55102" height="5.55102" transform="rotate(-90 133.223 116.57)" fill="#A1A1A1"/>
<rect x="133.223" y="244.246" width="5.55102" height="5.55102" transform="rotate(-90 133.223 244.246)" fill="#A1A1A1"/>
<rect x="5.55078" y="199.836" width="5.55102" height="5.55102" transform="rotate(-90 5.55078 199.836)" fill="#A1A1A1"/>
<rect x="260.898" y="199.836" width="5.55102" height="5.55102" transform="rotate(-90 260.898 199.836)" fill="#A1A1A1"/>
<rect x="5.55078" y="22.2031" width="5.55102" height="5.55102" transform="rotate(-90 5.55078 22.2031)" fill="#A1A1A1"/>
<rect x="260.898" y="22.2031" width="5.55102" height="5.55102" transform="rotate(-90 260.898 22.2031)" fill="#A1A1A1"/>
<rect x="133.223" y="22.2031" width="5.55102" height="5.55102" transform="rotate(-90 133.223 22.2031)" fill="#A1A1A1"/>
<rect x="133.223" y="149.879" width="5.55102" height="5.55102" transform="rotate(-90 133.223 149.879)" fill="#A1A1A1"/>
<rect x="5.55078" y="149.879" width="5.55102" height="5.55102" transform="rotate(-90 5.55078 149.879)" fill="#A1A1A1"/>
<rect x="260.898" y="149.879" width="5.55102" height="5.55102" transform="rotate(-90 260.898 149.879)" fill="#A1A1A1"/>
<rect x="5.55078" y="233.145" width="5.55102" height="5.55102" transform="rotate(-90 5.55078 233.145)" fill="#A1A1A1"/>
<rect x="260.898" y="233.145" width="5.55102" height="5.55102" transform="rotate(-90 260.898 233.145)" fill="#A1A1A1"/>
<rect x="5.55078" y="255.348" width="5.55102" height="5.55102" transform="rotate(-90 5.55078 255.348)" fill="#A1A1A1"/>
<rect x="260.898" y="255.348" width="5.55102" height="5.55102" transform="rotate(-90 260.898 255.348)" fill="#A1A1A1"/>
<rect x="5.55078" y="266.449" width="5.55102" height="5.55102" transform="rotate(-90 5.55078 266.449)" fill="#A1A1A1"/>
<rect x="260.898" y="266.449" width="5.55102" height="5.55102" transform="rotate(-90 260.898 266.449)" fill="#A1A1A1"/>
<rect x="5.55078" y="55.5117" width="5.55102" height="5.55102" transform="rotate(-90 5.55078 55.5117)" fill="#A1A1A1"/>
<rect x="260.898" y="55.5117" width="5.55102" height="5.55102" transform="rotate(-90 260.898 55.5117)" fill="#A1A1A1"/>
<rect x="133.223" y="55.5117" width="5.55102" height="5.55102" transform="rotate(-90 133.223 55.5117)" fill="#A1A1A1"/>
<rect x="133.223" y="183.184" width="5.55102" height="5.55102" transform="rotate(-90 133.223 183.184)" fill="#A1A1A1"/>
<rect x="5.55078" y="16.6523" width="5.55102" height="5.55102" transform="rotate(-90 5.55078 16.6523)" fill="#A1A1A1"/>
<rect x="260.898" y="16.6523" width="5.55102" height="5.55102" transform="rotate(-90 260.898 16.6523)" fill="#A1A1A1"/>
<rect x="133.223" y="16.6523" width="5.55102" height="5.55102" transform="rotate(-90 133.223 16.6523)" fill="#A1A1A1"/>
<rect x="133.223" y="144.328" width="5.55102" height="5.55102" transform="rotate(-90 133.223 144.328)" fill="#A1A1A1"/>
<rect x="5.55078" y="111.02" width="5.55102" height="5.55102" transform="rotate(-90 5.55078 111.02)" fill="#A1A1A1"/>
<rect x="260.898" y="111.02" width="5.55102" height="5.55102" transform="rotate(-90 260.898 111.02)" fill="#A1A1A1"/>
<rect x="133.223" y="111.02" width="5.55102" height="5.55102" transform="rotate(-90 133.223 111.02)" fill="#A1A1A1"/>
<rect x="133.223" y="238.695" width="5.55102" height="5.55102" transform="rotate(-90 133.223 238.695)" fill="#A1A1A1"/>
<rect x="5.55078" y="194.285" width="5.55102" height="5.55102" transform="rotate(-90 5.55078 194.285)" fill="#A1A1A1"/>
<rect x="260.898" y="194.285" width="5.55102" height="5.55102" transform="rotate(-90 260.898 194.285)" fill="#A1A1A1"/>
<rect x="5.55078" y="144.328" width="5.55102" height="5.55102" transform="rotate(-90 5.55078 144.328)" fill="#A1A1A1"/>
<rect x="260.898" y="144.328" width="5.55102" height="5.55102" transform="rotate(-90 260.898 144.328)" fill="#A1A1A1"/>
<rect x="5.55078" y="227.594" width="5.55102" height="5.55102" transform="rotate(-90 5.55078 227.594)" fill="#A1A1A1"/>
<rect x="260.898" y="227.594" width="5.55102" height="5.55102" transform="rotate(-90 260.898 227.594)" fill="#A1A1A1"/>
<rect x="5.55078" y="249.797" width="5.55102" height="5.55102" transform="rotate(-90 5.55078 249.797)" fill="#A1A1A1"/>
<rect x="260.898" y="249.797" width="5.55102" height="5.55102" transform="rotate(-90 260.898 249.797)" fill="#A1A1A1"/>
<rect x="5.55078" y="49.9609" width="5.55102" height="5.55102" transform="rotate(-90 5.55078 49.9609)" fill="#A1A1A1"/>
<rect x="260.898" y="49.9609" width="5.55102" height="5.55102" transform="rotate(-90 260.898 49.9609)" fill="#A1A1A1"/>
<rect x="133.223" y="49.9609" width="5.55102" height="5.55102" transform="rotate(-90 133.223 49.9609)" fill="#A1A1A1"/>
<rect x="133.223" y="177.633" width="5.55102" height="5.55102" transform="rotate(-90 133.223 177.633)" fill="#A1A1A1"/>
<rect x="5.55078" y="105.469" width="5.55102" height="5.55102" transform="rotate(-90 5.55078 105.469)" fill="#A1A1A1"/>
<rect x="260.898" y="105.469" width="5.55102" height="5.55102" transform="rotate(-90 260.898 105.469)" fill="#A1A1A1"/>
<rect x="133.223" y="105.469" width="5.55102" height="5.55102" transform="rotate(-90 133.223 105.469)" fill="#A1A1A1"/>
<rect x="133.223" y="233.145" width="5.55102" height="5.55102" transform="rotate(-90 133.223 233.145)" fill="#A1A1A1"/>
<rect x="5.55078" y="188.734" width="5.55102" height="5.55102" transform="rotate(-90 5.55078 188.734)" fill="#A1A1A1"/>
<rect x="260.898" y="188.734" width="5.55102" height="5.55102" transform="rotate(-90 260.898 188.734)" fill="#A1A1A1"/>
<rect x="5.55078" y="138.777" width="5.55102" height="5.55102" transform="rotate(-90 5.55078 138.777)" fill="#A1A1A1"/>
<rect x="11.1016" y="133.223" width="5.55102" height="5.55102" transform="rotate(-90 11.1016 133.223)" fill="#A1A1A1"/>
<rect x="16.6523" y="127.672" width="5.55102" height="5.55102" transform="rotate(-90 16.6523 127.672)" fill="#A1A1A1"/>
<rect x="49.9609" y="94.3672" width="5.55102" height="5.55102" transform="rotate(-90 49.9609 94.3672)" fill="#A1A1A1"/>
<rect x="83.2656" y="61.0625" width="5.55102" height="5.55102" transform="rotate(-90 83.2656 61.0625)" fill="#A1A1A1"/>
<rect x="22.2031" y="122.121" width="5.55102" height="5.55102" transform="rotate(-90 22.2031 122.121)" fill="#A1A1A1"/>
<rect x="55.5117" y="88.8164" width="5.55102" height="5.55102" transform="rotate(-90 55.5117 88.8164)" fill="#A1A1A1"/>
<rect x="88.8164" y="55.5117" width="5.55102" height="5.55102" transform="rotate(-90 88.8164 55.5117)" fill="#A1A1A1"/>
<rect x="27.7539" y="116.57" width="5.55102" height="5.55102" transform="rotate(-90 27.7539 116.57)" fill="#A1A1A1"/>
<rect x="61.0625" y="83.2656" width="5.55102" height="5.55102" transform="rotate(-90 61.0625 83.2656)" fill="#A1A1A1"/>
<rect x="188.734" y="83.2656" width="5.55102" height="5.55102" transform="rotate(-90 188.734 83.2656)" fill="#A1A1A1"/>
<rect x="188.734" y="210.938" width="5.55102" height="5.55102" transform="rotate(-90 188.734 210.938)" fill="#A1A1A1"/>
<rect x="61.0625" y="210.938" width="5.55102" height="5.55102" transform="rotate(-90 61.0625 210.938)" fill="#A1A1A1"/>
<rect x="61.0625" y="77.7148" width="5.55102" height="5.55102" transform="rotate(-90 61.0625 77.7148)" fill="#A1A1A1"/>
<rect x="188.734" y="77.7148" width="5.55102" height="5.55102" transform="rotate(-90 188.734 77.7148)" fill="#A1A1A1"/>
<rect x="188.734" y="205.387" width="5.55102" height="5.55102" transform="rotate(-90 188.734 205.387)" fill="#A1A1A1"/>
<rect x="61.0625" y="205.387" width="5.55102" height="5.55102" transform="rotate(-90 61.0625 205.387)" fill="#A1A1A1"/>
<rect x="61.0625" y="72.1641" width="5.55102" height="5.55102" transform="rotate(-90 61.0625 72.1641)" fill="#A1A1A1"/>
<rect x="188.734" y="72.1641" width="5.55102" height="5.55102" transform="rotate(-90 188.734 72.1641)" fill="#A1A1A1"/>
<rect x="188.734" y="199.836" width="5.55102" height="5.55102" transform="rotate(-90 188.734 199.836)" fill="#A1A1A1"/>
<rect x="61.0625" y="199.836" width="5.55102" height="5.55102" transform="rotate(-90 61.0625 199.836)" fill="#A1A1A1"/>
<rect x="94.3672" y="49.9609" width="5.55102" height="5.55102" transform="rotate(-90 94.3672 49.9609)" fill="#A1A1A1"/>
<rect x="33.3047" y="111.02" width="5.55102" height="5.55102" transform="rotate(-90 33.3047 111.02)" fill="#A1A1A1"/>
<rect x="99.918" y="44.4062" width="5.55102" height="5.55102" transform="rotate(-90 99.918 44.4062)" fill="#A1A1A1"/>
<rect x="38.8555" y="105.469" width="5.55102" height="5.55102" transform="rotate(-90 38.8555 105.469)" fill="#A1A1A1"/>
<rect x="105.469" y="38.8555" width="5.55102" height="5.55102" transform="rotate(-90 105.469 38.8555)" fill="#A1A1A1"/>
<rect x="116.57" y="27.7539" width="5.55102" height="5.55102" transform="rotate(-90 116.57 27.7539)" fill="#A1A1A1"/>
<rect x="44.4062" y="99.918" width="5.55102" height="5.55102" transform="rotate(-90 44.4062 99.918)" fill="#A1A1A1"/>
<rect x="77.7148" y="66.6133" width="5.55102" height="5.55102" transform="rotate(-90 77.7148 66.6133)" fill="#A1A1A1"/>
<rect x="205.387" y="66.6133" width="5.55102" height="5.55102" transform="rotate(-90 205.387 66.6133)" fill="#A1A1A1"/>
<rect x="205.387" y="194.285" width="5.55102" height="5.55102" transform="rotate(-90 205.387 194.285)" fill="#A1A1A1"/>
<rect x="77.7148" y="194.285" width="5.55102" height="5.55102" transform="rotate(-90 77.7148 194.285)" fill="#A1A1A1"/>
<rect x="77.7148" y="72.1641" width="5.55102" height="5.55102" transform="rotate(-90 77.7148 72.1641)" fill="#A1A1A1"/>
<rect x="205.387" y="72.1641" width="5.55102" height="5.55102" transform="rotate(-90 205.387 72.1641)" fill="#A1A1A1"/>
<rect x="205.387" y="199.836" width="5.55102" height="5.55102" transform="rotate(-90 205.387 199.836)" fill="#A1A1A1"/>
<rect x="77.7148" y="199.836" width="5.55102" height="5.55102" transform="rotate(-90 77.7148 199.836)" fill="#A1A1A1"/>
<rect x="77.7148" y="77.7148" width="5.55102" height="5.55102" transform="rotate(-90 77.7148 77.7148)" fill="#A1A1A1"/>
<rect x="205.387" y="77.7148" width="5.55102" height="5.55102" transform="rotate(-90 205.387 77.7148)" fill="#A1A1A1"/>
<rect x="205.387" y="205.387" width="5.55102" height="5.55102" transform="rotate(-90 205.387 205.387)" fill="#A1A1A1"/>
<rect x="77.7148" y="205.387" width="5.55102" height="5.55102" transform="rotate(-90 77.7148 205.387)" fill="#A1A1A1"/>
<rect x="111.02" y="33.3047" width="5.55102" height="5.55102" transform="rotate(-90 111.02 33.3047)" fill="#A1A1A1"/>
<rect x="122.121" y="22.2031" width="5.55102" height="5.55102" transform="rotate(-90 122.121 22.2031)" fill="#A1A1A1"/>
<rect x="127.672" y="16.6523" width="5.55102" height="5.55102" transform="rotate(-90 127.672 16.6523)" fill="#A1A1A1"/>
<rect x="260.898" y="138.777" width="5.55102" height="5.55102" transform="rotate(-90 260.898 138.777)" fill="#A1A1A1"/>
<rect x="5.55078" y="222.039" width="5.55102" height="5.55102" transform="rotate(-90 5.55078 222.039)" fill="#A1A1A1"/>
<rect x="260.898" y="222.039" width="5.55102" height="5.55102" transform="rotate(-90 260.898 222.039)" fill="#A1A1A1"/>
<rect x="5.55078" y="244.246" width="5.55102" height="5.55102" transform="rotate(-90 5.55078 244.246)" fill="#A1A1A1"/>
<rect x="260.898" y="244.246" width="5.55102" height="5.55102" transform="rotate(-90 260.898 244.246)" fill="#A1A1A1"/>
<rect x="5.55078" y="44.4062" width="5.55102" height="5.55102" transform="rotate(-90 5.55078 44.4062)" fill="#A1A1A1"/>
<rect x="260.898" y="44.4062" width="5.55102" height="5.55102" transform="rotate(-90 260.898 44.4062)" fill="#A1A1A1"/>
<rect x="133.223" y="44.4062" width="5.55102" height="5.55102" transform="rotate(-90 133.223 44.4062)" fill="#A1A1A1"/>
<rect x="133.223" y="172.082" width="5.55102" height="5.55102" transform="rotate(-90 133.223 172.082)" fill="#A1A1A1"/>
<rect x="5.55078" y="99.918" width="5.55102" height="5.55102" transform="rotate(-90 5.55078 99.918)" fill="#A1A1A1"/>
<rect x="260.898" y="99.918" width="5.55102" height="5.55102" transform="rotate(-90 260.898 99.918)" fill="#A1A1A1"/>
<rect x="133.223" y="99.918" width="5.55102" height="5.55102" transform="rotate(-90 133.223 99.918)" fill="#A1A1A1"/>
<rect x="133.223" y="227.594" width="5.55102" height="5.55102" transform="rotate(-90 133.223 227.594)" fill="#A1A1A1"/>
<rect x="5.55078" y="183.184" width="5.55102" height="5.55102" transform="rotate(-90 5.55078 183.184)" fill="#A1A1A1"/>
<rect x="260.898" y="183.184" width="5.55102" height="5.55102" transform="rotate(-90 260.898 183.184)" fill="#A1A1A1"/>
<rect x="5.55078" y="133.223" width="5.55102" height="5.55102" transform="rotate(-90 5.55078 133.223)" fill="#A1A1A1"/>
<rect x="260.898" y="133.223" width="5.55102" height="5.55102" transform="rotate(-90 260.898 133.223)" fill="#A1A1A1"/>
<rect x="133.223" y="133.223" width="5.55102" height="5.55102" transform="rotate(-90 133.223 133.223)" fill="#A1A1A1"/>
<rect x="133.223" y="260.898" width="5.55102" height="5.55102" transform="rotate(-90 133.223 260.898)" fill="#A1A1A1"/>
<rect x="5.55078" y="216.488" width="5.55102" height="5.55102" transform="rotate(-90 5.55078 216.488)" fill="#A1A1A1"/>
<rect x="260.898" y="216.488" width="5.55102" height="5.55102" transform="rotate(-90 260.898 216.488)" fill="#A1A1A1"/>
<rect x="5.55078" y="38.8555" width="5.55102" height="5.55102" transform="rotate(-90 5.55078 38.8555)" fill="#A1A1A1"/>
<rect x="260.898" y="38.8555" width="5.55102" height="5.55102" transform="rotate(-90 260.898 38.8555)" fill="#A1A1A1"/>
<rect x="133.223" y="38.8555" width="5.55102" height="5.55102" transform="rotate(-90 133.223 38.8555)" fill="#A1A1A1"/>
<rect x="133.223" y="166.531" width="5.55102" height="5.55102" transform="rotate(-90 133.223 166.531)" fill="#A1A1A1"/>
<rect x="5.55078" y="94.3672" width="5.55102" height="5.55102" transform="rotate(-90 5.55078 94.3672)" fill="#A1A1A1"/>
<rect x="260.898" y="94.3672" width="5.55102" height="5.55102" transform="rotate(-90 260.898 94.3672)" fill="#A1A1A1"/>
<rect x="133.223" y="94.3672" width="5.55102" height="5.55102" transform="rotate(-90 133.223 94.3672)" fill="#A1A1A1"/>
<rect x="133.223" y="222.039" width="5.55102" height="5.55102" transform="rotate(-90 133.223 222.039)" fill="#A1A1A1"/>
<rect x="5.55078" y="177.633" width="5.55102" height="5.55102" transform="rotate(-90 5.55078 177.633)" fill="#A1A1A1"/>
<rect x="260.898" y="177.633" width="5.55102" height="5.55102" transform="rotate(-90 260.898 177.633)" fill="#A1A1A1"/>
<rect x="5.55078" y="172.082" width="5.55102" height="5.55102" transform="rotate(-90 5.55078 172.082)" fill="#A1A1A1"/>
<rect x="260.898" y="172.082" width="5.55102" height="5.55102" transform="rotate(-90 260.898 172.082)" fill="#A1A1A1"/>
<rect x="210.938" y="83.2656" width="5.55102" height="5.55102" fill="#A1A1A1"/>
<rect x="166.531" y="38.8555" width="5.55102" height="5.55102" fill="#A1A1A1"/>
<rect x="216.488" y="88.8164" width="5.55102" height="5.55102" fill="#A1A1A1"/>
<rect x="172.082" y="44.4062" width="5.55102" height="5.55102" fill="#A1A1A1"/>
<rect x="222.039" y="94.3672" width="5.55102" height="5.55102" fill="#A1A1A1"/>
<rect x="177.633" y="49.9609" width="5.55102" height="5.55102" fill="#A1A1A1"/>
<rect x="149.879" y="22.2031" width="5.55102" height="5.55102" fill="#A1A1A1"/>
<rect x="138.777" y="11.1016" width="5.55102" height="5.55102" fill="#A1A1A1"/>
<rect x="227.594" y="99.918" width="5.55102" height="5.55102" fill="#A1A1A1"/>
<rect x="183.184" y="55.5117" width="5.55102" height="5.55102" fill="#A1A1A1"/>
<rect x="155.43" y="27.7539" width="5.55102" height="5.55102" fill="#A1A1A1"/>
<rect x="144.328" y="16.6523" width="5.55102" height="5.55102" fill="#A1A1A1"/>
<rect x="233.145" y="105.469" width="5.55102" height="5.55102" fill="#A1A1A1"/>
<rect x="244.246" y="116.57" width="5.55102" height="5.55102" fill="#A1A1A1"/>
<rect x="160.98" y="33.3047" width="5.55102" height="5.55102" fill="#A1A1A1"/>
<rect x="238.695" y="111.02" width="5.55102" height="5.55102" fill="#A1A1A1"/>
<rect x="249.797" y="122.121" width="5.55102" height="5.55102" fill="#A1A1A1"/>
<rect x="255.348" y="127.672" width="5.55102" height="5.55102" fill="#A1A1A1"/>
<rect x="188.734" y="210.938" width="5.55102" height="5.55102" transform="rotate(90 188.734 210.938)" fill="#A1A1A1"/>
<rect x="61.0625" y="210.938" width="5.55102" height="5.55102" transform="rotate(90 61.0625 210.938)" fill="#A1A1A1"/>
<rect x="188.734" y="83.2656" width="5.55102" height="5.55102" transform="rotate(90 188.734 83.2656)" fill="#A1A1A1"/>
<rect x="233.145" y="166.531" width="5.55102" height="5.55102" transform="rotate(90 233.145 166.531)" fill="#A1A1A1"/>
<rect x="105.469" y="166.531" width="5.55102" height="5.55102" transform="rotate(90 105.469 166.531)" fill="#A1A1A1"/>
<rect x="233.145" y="38.8555" width="5.55102" height="5.55102" transform="rotate(90 233.145 38.8555)" fill="#A1A1A1"/>
<rect x="183.184" y="216.488" width="5.55102" height="5.55102" transform="rotate(90 183.184 216.488)" fill="#A1A1A1"/>
<rect x="55.5117" y="216.488" width="5.55102" height="5.55102" transform="rotate(90 55.5117 216.488)" fill="#A1A1A1"/>
<rect x="183.184" y="88.8164" width="5.55102" height="5.55102" transform="rotate(90 183.184 88.8164)" fill="#A1A1A1"/>
<rect x="227.594" y="172.082" width="5.55102" height="5.55102" transform="rotate(90 227.594 172.082)" fill="#A1A1A1"/>
<rect x="99.918" y="172.082" width="5.55102" height="5.55102" transform="rotate(90 99.918 172.082)" fill="#A1A1A1"/>
<rect x="227.594" y="44.4062" width="5.55102" height="5.55102" transform="rotate(90 227.594 44.4062)" fill="#A1A1A1"/>
<rect x="177.633" y="222.039" width="5.55102" height="5.55102" transform="rotate(90 177.633 222.039)" fill="#A1A1A1"/>
<rect x="49.9609" y="222.039" width="5.55102" height="5.55102" transform="rotate(90 49.9609 222.039)" fill="#A1A1A1"/>
<rect x="177.633" y="94.3672" width="5.55102" height="5.55102" transform="rotate(90 177.633 94.3672)" fill="#A1A1A1"/>
<rect x="222.039" y="177.633" width="5.55102" height="5.55102" transform="rotate(90 222.039 177.633)" fill="#A1A1A1"/>
<rect x="94.3672" y="177.633" width="5.55102" height="5.55102" transform="rotate(90 94.3672 177.633)" fill="#A1A1A1"/>
<rect x="222.039" y="49.9609" width="5.55102" height="5.55102" transform="rotate(90 222.039 49.9609)" fill="#A1A1A1"/>
<rect x="249.797" y="149.879" width="5.55102" height="5.55102" transform="rotate(90 249.797 149.879)" fill="#A1A1A1"/>
<rect x="122.121" y="149.879" width="5.55102" height="5.55102" transform="rotate(90 122.121 149.879)" fill="#A1A1A1"/>
<rect x="249.797" y="22.2031" width="5.55102" height="5.55102" transform="rotate(90 249.797 22.2031)" fill="#A1A1A1"/>
<rect x="260.898" y="138.777" width="5.55102" height="5.55102" transform="rotate(90 260.898 138.777)" fill="#A1A1A1"/>
<rect x="133.223" y="138.777" width="5.55102" height="5.55102" transform="rotate(90 133.223 138.777)" fill="#A1A1A1"/>
<rect x="260.898" y="11.1016" width="5.55102" height="5.55102" transform="rotate(90 260.898 11.1016)" fill="#A1A1A1"/>
<rect x="172.082" y="227.594" width="5.55102" height="5.55102" transform="rotate(90 172.082 227.594)" fill="#A1A1A1"/>
<rect x="44.4062" y="227.594" width="5.55102" height="5.55102" transform="rotate(90 44.4062 227.594)" fill="#A1A1A1"/>
<rect x="172.082" y="99.918" width="5.55102" height="5.55102" transform="rotate(90 172.082 99.918)" fill="#A1A1A1"/>
<rect x="216.488" y="183.184" width="5.55102" height="5.55102" transform="rotate(90 216.488 183.184)" fill="#A1A1A1"/>
<rect x="88.8164" y="183.184" width="5.55102" height="5.55102" transform="rotate(90 88.8164 183.184)" fill="#A1A1A1"/>
<rect x="216.488" y="55.5117" width="5.55102" height="5.55102" transform="rotate(90 216.488 55.5117)" fill="#A1A1A1"/>
<rect x="244.246" y="155.43" width="5.55102" height="5.55102" transform="rotate(90 244.246 155.43)" fill="#A1A1A1"/>
<rect x="116.57" y="155.43" width="5.55102" height="5.55102" transform="rotate(90 116.57 155.43)" fill="#A1A1A1"/>
<rect x="244.246" y="27.7539" width="5.55102" height="5.55102" transform="rotate(90 244.246 27.7539)" fill="#A1A1A1"/>
<rect x="255.348" y="144.328" width="5.55102" height="5.55102" transform="rotate(90 255.348 144.328)" fill="#A1A1A1"/>
<rect x="127.672" y="144.328" width="5.55102" height="5.55102" transform="rotate(90 127.672 144.328)" fill="#A1A1A1"/>
<rect x="127.672" y="138.777" width="5.55102" height="5.55102" transform="rotate(90 127.672 138.777)" fill="#A1A1A1"/>
<rect x="127.672" y="127.672" width="5.55102" height="5.55102" transform="rotate(90 127.672 127.672)" fill="#A1A1A1"/>
<rect x="255.348" y="16.6523" width="5.55102" height="5.55102" transform="rotate(90 255.348 16.6523)" fill="#A1A1A1"/>
<rect x="166.531" y="233.145" width="5.55102" height="5.55102" transform="rotate(90 166.531 233.145)" fill="#A1A1A1"/>
<rect x="38.8555" y="233.145" width="5.55102" height="5.55102" transform="rotate(90 38.8555 233.145)" fill="#A1A1A1"/>
<rect x="166.531" y="105.469" width="5.55102" height="5.55102" transform="rotate(90 166.531 105.469)" fill="#A1A1A1"/>
<rect x="155.43" y="244.246" width="5.55102" height="5.55102" transform="rotate(90 155.43 244.246)" fill="#A1A1A1"/>
<rect x="27.7539" y="244.246" width="5.55102" height="5.55102" transform="rotate(90 27.7539 244.246)" fill="#A1A1A1"/>
<rect x="155.43" y="116.57" width="5.55102" height="5.55102" transform="rotate(90 155.43 116.57)" fill="#A1A1A1"/>
<rect x="238.695" y="160.98" width="5.55102" height="5.55102" transform="rotate(90 238.695 160.98)" fill="#A1A1A1"/>
<rect x="111.02" y="160.98" width="5.55102" height="5.55102" transform="rotate(90 111.02 160.98)" fill="#A1A1A1"/>
<rect x="238.695" y="33.3047" width="5.55102" height="5.55102" transform="rotate(90 238.695 33.3047)" fill="#A1A1A1"/>
<rect x="160.98" y="238.695" width="5.55102" height="5.55102" transform="rotate(90 160.98 238.695)" fill="#A1A1A1"/>
<rect x="33.3047" y="238.695" width="5.55102" height="5.55102" transform="rotate(90 33.3047 238.695)" fill="#A1A1A1"/>
<rect x="160.98" y="111.02" width="5.55102" height="5.55102" transform="rotate(90 160.98 111.02)" fill="#A1A1A1"/>
<rect x="149.879" y="249.797" width="5.55102" height="5.55102" transform="rotate(90 149.879 249.797)" fill="#A1A1A1"/>
<rect x="22.2031" y="249.797" width="5.55102" height="5.55102" transform="rotate(90 22.2031 249.797)" fill="#A1A1A1"/>
<rect x="149.879" y="122.121" width="5.55102" height="5.55102" transform="rotate(90 149.879 122.121)" fill="#A1A1A1"/>
<rect x="149.879" y="127.672" width="5.55102" height="5.55102" transform="rotate(90 149.879 127.672)" fill="#A1A1A1"/>
<rect x="149.879" y="138.777" width="5.55102" height="5.55102" transform="rotate(90 149.879 138.777)" fill="#A1A1A1"/>
<rect x="144.328" y="255.348" width="5.55102" height="5.55102" transform="rotate(90 144.328 255.348)" fill="#A1A1A1"/>
<rect x="16.6523" y="255.348" width="5.55102" height="5.55102" transform="rotate(90 16.6523 255.348)" fill="#A1A1A1"/>
<rect x="144.328" y="127.672" width="5.55102" height="5.55102" transform="rotate(90 144.328 127.672)" fill="#A1A1A1"/>
<rect x="61.0625" y="188.734" width="5.55102" height="5.55102" transform="rotate(180 61.0625 188.734)" fill="#A1A1A1"/>
<rect x="105.469" y="233.145" width="5.55102" height="5.55102" transform="rotate(180 105.469 233.145)" fill="#A1A1A1"/>
<rect x="55.5117" y="183.184" width="5.55102" height="5.55102" transform="rotate(180 55.5117 183.184)" fill="#A1A1A1"/>
<rect x="99.918" y="227.594" width="5.55102" height="5.55102" transform="rotate(180 99.918 227.594)" fill="#A1A1A1"/>
<rect x="49.9609" y="177.633" width="5.55102" height="5.55102" transform="rotate(180 49.9609 177.633)" fill="#A1A1A1"/>
<rect x="94.3672" y="222.039" width="5.55102" height="5.55102" transform="rotate(180 94.3672 222.039)" fill="#A1A1A1"/>
<rect x="122.121" y="249.797" width="5.55102" height="5.55102" transform="rotate(180 122.121 249.797)" fill="#A1A1A1"/>
<rect x="133.223" y="260.898" width="5.55102" height="5.55102" transform="rotate(180 133.223 260.898)" fill="#A1A1A1"/>
<rect x="44.4062" y="172.082" width="5.55102" height="5.55102" transform="rotate(180 44.4062 172.082)" fill="#A1A1A1"/>
<rect x="88.8164" y="216.488" width="5.55102" height="5.55102" transform="rotate(180 88.8164 216.488)" fill="#A1A1A1"/>
<rect x="116.57" y="244.246" width="5.55102" height="5.55102" transform="rotate(180 116.57 244.246)" fill="#A1A1A1"/>
<rect x="127.672" y="255.348" width="5.55102" height="5.55102" transform="rotate(180 127.672 255.348)" fill="#A1A1A1"/>
<rect x="38.8555" y="166.531" width="5.55102" height="5.55102" transform="rotate(180 38.8555 166.531)" fill="#A1A1A1"/>
<rect x="27.7539" y="155.43" width="5.55102" height="5.55102" transform="rotate(180 27.7539 155.43)" fill="#A1A1A1"/>
<rect x="111.02" y="238.695" width="5.55102" height="5.55102" transform="rotate(180 111.02 238.695)" fill="#A1A1A1"/>
<rect x="33.3047" y="160.98" width="5.55102" height="5.55102" transform="rotate(180 33.3047 160.98)" fill="#A1A1A1"/>
<rect x="22.2031" y="149.879" width="5.55102" height="5.55102" transform="rotate(180 22.2031 149.879)" fill="#A1A1A1"/>
<rect x="16.6523" y="144.328" width="5.55102" height="5.55102" transform="rotate(180 16.6523 144.328)" fill="#A1A1A1"/>
<rect x="11.1016" y="11.1016" width="5.55102" height="5.55102" fill="#A1A1A1"/>
<rect x="16.6523" y="16.6523" width="5.55102" height="5.55102" fill="#A1A1A1"/>
<rect x="49.9609" y="49.9609" width="5.55102" height="5.55102" fill="#A1A1A1"/>
<rect x="83.2656" y="83.2656" width="5.55102" height="5.55102" fill="#A1A1A1"/>
<rect x="22.2031" y="22.2031" width="5.55102" height="5.55102" fill="#A1A1A1"/>
<rect x="55.5117" y="55.5117" width="5.55102" height="5.55102" fill="#A1A1A1"/>
<rect x="88.8164" y="88.8164" width="5.55102" height="5.55102" fill="#A1A1A1"/>
<rect x="27.7539" y="27.7539" width="5.55102" height="5.55102" fill="#A1A1A1"/>
<rect x="61.0625" y="61.0625" width="5.55102" height="5.55102" fill="#A1A1A1"/>
<rect x="188.734" y="61.0625" width="5.55102" height="5.55102" fill="#A1A1A1"/>
<rect x="188.734" y="188.734" width="5.55102" height="5.55102" fill="#A1A1A1"/>
<rect x="61.0625" y="188.734" width="5.55102" height="5.55102" fill="#A1A1A1"/>
<rect x="66.6133" y="61.0625" width="5.55102" height="5.55102" fill="#A1A1A1"/>
<rect x="194.285" y="61.0625" width="5.55102" height="5.55102" fill="#A1A1A1"/>
<rect x="194.285" y="188.734" width="5.55102" height="5.55102" fill="#A1A1A1"/>
<rect x="66.6133" y="188.734" width="5.55102" height="5.55102" fill="#A1A1A1"/>
<rect x="72.1641" y="61.0625" width="5.55102" height="5.55102" fill="#A1A1A1"/>
<rect x="199.836" y="61.0625" width="5.55102" height="5.55102" fill="#A1A1A1"/>
<rect x="199.836" y="188.734" width="5.55102" height="5.55102" fill="#A1A1A1"/>
<rect x="72.1641" y="188.734" width="5.55102" height="5.55102" fill="#A1A1A1"/>
<rect x="94.3672" y="94.3672" width="5.55102" height="5.55102" fill="#A1A1A1"/>
<rect x="33.3047" y="33.3047" width="5.55102" height="5.55102" fill="#A1A1A1"/>
<rect x="99.918" y="99.918" width="5.55102" height="5.55102" fill="#A1A1A1"/>
<rect x="38.8555" y="38.8555" width="5.55102" height="5.55102" fill="#A1A1A1"/>
<rect x="105.469" y="105.469" width="5.55102" height="5.55102" fill="#A1A1A1"/>
<rect x="116.57" y="116.57" width="5.55102" height="5.55102" fill="#A1A1A1"/>
<rect x="44.4062" y="44.4062" width="5.55102" height="5.55102" fill="#A1A1A1"/>
<rect x="77.7148" y="77.7148" width="5.55102" height="5.55102" fill="#A1A1A1"/>
<rect x="205.387" y="77.7148" width="5.55102" height="5.55102" fill="#A1A1A1"/>
<rect x="205.387" y="205.387" width="5.55102" height="5.55102" fill="#A1A1A1"/>
<rect x="77.7148" y="205.387" width="5.55102" height="5.55102" fill="#A1A1A1"/>
<rect x="72.1641" y="77.7148" width="5.55102" height="5.55102" fill="#A1A1A1"/>
<rect x="199.836" y="77.7148" width="5.55102" height="5.55102" fill="#A1A1A1"/>
<rect x="199.836" y="205.387" width="5.55102" height="5.55102" fill="#A1A1A1"/>
<rect x="72.1641" y="205.387" width="5.55102" height="5.55102" fill="#A1A1A1"/>
<rect x="66.6133" y="77.7148" width="5.55102" height="5.55102" fill="#A1A1A1"/>
<rect x="194.285" y="77.7148" width="5.55102" height="5.55102" fill="#A1A1A1"/>
<rect x="194.285" y="205.387" width="5.55102" height="5.55102" fill="#A1A1A1"/>
<rect x="66.6133" y="205.387" width="5.55102" height="5.55102" fill="#A1A1A1"/>
<rect x="111.02" y="111.02" width="5.55102" height="5.55102" fill="#A1A1A1"/>
<rect x="122.121" y="122.121" width="5.55102" height="5.55102" fill="#A1A1A1"/>
<rect x="127.672" y="127.672" width="5.55102" height="5.55102" fill="#A1A1A1"/>
<rect x="127.672" y="122.121" width="5.55102" height="5.55102" fill="#A1A1A1"/>
<rect x="138.777" y="122.121" width="5.55102" height="5.55102" fill="#A1A1A1"/>
<rect x="138.777" y="138.777" width="5.55102" height="5.55102" fill="#A1A1A1"/>
<rect x="144.328" y="144.328" width="5.55102" height="5.55102" fill="#A1A1A1"/>
<rect x="138.777" y="144.328" width="5.55102" height="5.55102" fill="#A1A1A1"/>
<rect x="127.672" y="144.328" width="5.55102" height="5.55102" fill="#A1A1A1"/>
<rect x="177.633" y="177.633" width="5.55102" height="5.55102" fill="#A1A1A1"/>
<rect x="210.938" y="210.938" width="5.55102" height="5.55102" fill="#A1A1A1"/>
<rect x="149.879" y="149.879" width="5.55102" height="5.55102" fill="#A1A1A1"/>
<rect x="183.184" y="183.184" width="5.55102" height="5.55102" fill="#A1A1A1"/>
<rect x="216.488" y="216.488" width="5.55102" height="5.55102" fill="#A1A1A1"/>
<rect x="155.43" y="155.43" width="5.55102" height="5.55102" fill="#A1A1A1"/>
<rect x="222.039" y="222.039" width="5.55102" height="5.55102" fill="#A1A1A1"/>
<rect x="160.98" y="160.98" width="5.55102" height="5.55102" fill="#A1A1A1"/>
<rect x="227.594" y="227.594" width="5.55102" height="5.55102" fill="#A1A1A1"/>
<rect x="166.531" y="166.531" width="5.55102" height="5.55102" fill="#A1A1A1"/>
<rect x="233.145" y="233.145" width="5.55102" height="5.55102" fill="#A1A1A1"/>
<rect x="244.246" y="244.246" width="5.55102" height="5.55102" fill="#A1A1A1"/>
<rect x="172.082" y="172.082" width="5.55102" height="5.55102" fill="#A1A1A1"/>
<rect x="238.695" y="238.695" width="5.55102" height="5.55102" fill="#A1A1A1"/>
<rect x="249.797" y="249.797" width="5.55102" height="5.55102" fill="#A1A1A1"/>
<rect x="255.348" y="255.348" width="5.55102" height="5.55102" fill="#A1A1A1"/>
</svg>
