<svg width="36" height="36" viewBox="0 0 36 36" fill="none" xmlns="http://www.w3.org/2000/svg">
<g clip-path="url(#clip0_1802_74)">
<path d="M17.998 30.0007C24.6255 30.0007 29.998 24.6281 29.998 18.0007C29.998 11.3733 24.6255 6.00073 17.998 6.00073C11.3706 6.00073 5.99805 11.3733 5.99805 18.0007C5.99805 24.6281 11.3706 30.0007 17.998 30.0007Z" stroke="white" stroke-width="2" stroke-linecap="round" stroke-linejoin="round"/>
<path d="M11.5996 17.9996C11.5996 14.465 14.465 11.5996 17.9996 11.5996" stroke="white" stroke-width="2" stroke-linecap="round" stroke-linejoin="round"/>
<path d="M34.1982 8.64648C35.92 11.6288 30.063 18.2338 21.1161 23.3993C12.1693 28.5647 3.52068 30.3345 1.79883 27.3523" stroke="white" stroke-width="2" stroke-linecap="round" stroke-linejoin="round"/>
<path d="M1.79989 27.3597C0.749887 25.5447 2.50489 22.3947 6.04489 19.0347" stroke="white" stroke-width="2" stroke-linecap="round" stroke-linejoin="round"/>
<path d="M24.8867 8.17588C29.5517 6.78088 33.1517 6.84088 34.2017 8.64088" stroke="white" stroke-width="2" stroke-linecap="round" stroke-linejoin="round"/>
</g>
<defs>
<clipPath id="clip0_1802_74">
<rect width="36" height="36" fill="white"/>
</clipPath>
</defs>
</svg>
