<svg width="285" height="287" viewBox="0 0 285 287" fill="none" xmlns="http://www.w3.org/2000/svg">
<circle cx="71" cy="29" r="10" fill="#00FF68"/>
<circle cx="208" cy="256" r="10" transform="rotate(-180 208 256)" fill="#00B7FF"/>
<circle cx="28" cy="213" r="10" transform="rotate(-90 28 213)" fill="#FFFB00"/>
<circle cx="106" cy="32" r="10" fill="#00FF68"/>
<circle cx="174" cy="256" r="10" transform="rotate(-180 174 256)" fill="#00B7FF"/>
<circle cx="28" cy="179" r="10" transform="rotate(-90 28 179)" fill="#FFFB00"/>
<circle cx="254" cy="145" r="10" transform="rotate(90 254 145)" fill="#FF0004"/>
<circle cx="140" cy="256" r="10" transform="rotate(-180 140 256)" fill="#00B7FF"/>
<circle cx="28" cy="145" r="10" transform="rotate(-90 28 145)" fill="#FFFB00"/>
<circle cx="254" cy="179" r="10" transform="rotate(90 254 179)" fill="#FF0004"/>
<circle cx="106" cy="256" r="10" transform="rotate(-180 106 256)" fill="#00B7FF"/>
<circle cx="28" cy="111" r="10" transform="rotate(-90 28 111)" fill="#FFFB00"/>
<circle cx="254" cy="213" r="10" transform="rotate(90 254 213)" fill="#FF0004"/>
<circle cx="72" cy="256" r="10" transform="rotate(-180 72 256)" fill="#00B7FF"/>
<circle cx="28" cy="77" r="10" transform="rotate(-90 28 77)" fill="#FFFB00"/>
<circle cx="72" cy="55" r="10" fill="#00FF68"/>
<circle cx="52" cy="213" r="10" transform="rotate(-90 52 213)" fill="#FFFB00"/>
<circle cx="106" cy="55" r="10" fill="#00FF68"/>
<circle cx="106" cy="232" r="10" transform="rotate(-180 106 232)" fill="#00B7FF"/>
<circle cx="207" cy="233" r="10" transform="rotate(-180 207 233)" fill="#00B7FF"/>
<circle cx="51" cy="179" r="10" transform="rotate(-90 51 179)" fill="#FFFB00"/>
<circle cx="231" cy="145" r="10" transform="rotate(90 231 145)" fill="#FF0004"/>
<circle cx="140" cy="233" r="10" transform="rotate(-180 140 233)" fill="#00B7FF"/>
<circle cx="51" cy="145" r="10" transform="rotate(-90 51 145)" fill="#FFFB00"/>
<circle cx="231" cy="179" r="10" transform="rotate(90 231 179)" fill="#FF0004"/>
<circle cx="174" cy="233" r="10" transform="rotate(-180 174 233)" fill="#00B7FF"/>
<circle cx="51" cy="111" r="10" transform="rotate(-90 51 111)" fill="#FFFB00"/>
<circle cx="231" cy="213" r="10" transform="rotate(90 231 213)" fill="#FF0004"/>
<circle cx="72" cy="233" r="10" transform="rotate(-180 72 233)" fill="#00B7FF"/>
<circle cx="51" cy="77" r="10" transform="rotate(-90 51 77)" fill="#FFFB00"/>
<rect width="4.90909" height="4.82143" transform="matrix(1 -8.33289e-08 -9.15523e-08 -1 22.6367 198.035)" fill="#FFD900"/>
<rect x="258.273" y="198.035" width="4.90909" height="4.82143" transform="rotate(-180 258.273 198.035)" fill="#FF0000"/>
<rect width="4.82143" height="4.90909" transform="matrix(-1.32497e-07 -1 -1 1.29696e-07 194.453 260.714)" fill="#00A2FF"/>
<rect width="4.82143" height="4.90909" transform="matrix(4.34843e-08 1 1 -4.38339e-08 86.457 29.2852)" fill="#00FF15"/>
<rect width="4.90909" height="4.82143" transform="matrix(1 -8.33289e-08 -9.15523e-08 -1 22.6367 231.785)" fill="#FFD900"/>
<rect x="258.273" y="231.785" width="4.90909" height="4.82143" transform="rotate(-180 258.273 231.785)" fill="#FF0000"/>
<rect width="4.82143" height="4.90909" transform="matrix(-1.32497e-07 -1 -1 1.29696e-07 228.82 260.714)" fill="#00A2FF"/>
<rect width="4.82143" height="4.90909" transform="matrix(4.34843e-08 1 1 -4.38339e-08 52.0898 29.2852)" fill="#00FF15"/>
<rect width="4.82143" height="4.90909" transform="matrix(4.34843e-08 1 1 -4.38339e-08 47.1797 34.1074)" fill="#A1A1A1"/>
<rect x="47.1797" y="255.893" width="4.82143" height="4.90909" transform="rotate(-90 47.1797 255.893)" fill="#A1A1A1"/>
<rect width="4.82143" height="4.90909" transform="matrix(4.34843e-08 1 1 -4.38339e-08 248.453 231.785)" fill="#A1A1A1"/>
<rect x="233.727" y="34.1074" width="4.82143" height="4.90909" transform="rotate(90 233.727 34.1074)" fill="#A1A1A1"/>
<rect width="4.82143" height="4.90909" transform="matrix(4.34843e-08 1 1 -4.38339e-08 42.2734 38.9287)" fill="#A1A1A1"/>
<rect x="42.2734" y="251.071" width="4.82143" height="4.90909" transform="rotate(-90 42.2734 251.071)" fill="#A1A1A1"/>
<rect width="4.82143" height="4.90909" transform="matrix(4.34843e-08 1 1 -4.38339e-08 243.547 236.607)" fill="#A1A1A1"/>
<rect x="238.637" y="38.9287" width="4.82143" height="4.90909" transform="rotate(90 238.637 38.9287)" fill="#A1A1A1"/>
<rect width="4.82143" height="4.90909" transform="matrix(4.34843e-08 1 1 -4.38339e-08 37.3633 43.75)" fill="#A1A1A1"/>
<rect x="37.3633" y="246.25" width="4.82143" height="4.90909" transform="rotate(-90 37.3633 246.25)" fill="#A1A1A1"/>
<rect width="4.82143" height="4.90909" transform="matrix(4.34843e-08 1 1 -4.38339e-08 238.637 241.429)" fill="#A1A1A1"/>
<rect x="243.547" y="43.75" width="4.82143" height="4.90909" transform="rotate(90 243.547 43.75)" fill="#A1A1A1"/>
<rect width="4.82143" height="4.90909" transform="matrix(4.34843e-08 1 1 -4.38339e-08 32.4531 48.5713)" fill="#A1A1A1"/>
<rect x="32.4531" y="241.429" width="4.82143" height="4.90909" transform="rotate(-90 32.4531 241.429)" fill="#A1A1A1"/>
<rect width="4.82143" height="4.90909" transform="matrix(4.34843e-08 1 1 -4.38339e-08 233.727 246.25)" fill="#A1A1A1"/>
<rect x="248.453" y="48.5713" width="4.82143" height="4.90909" transform="rotate(90 248.453 48.5713)" fill="#A1A1A1"/>
<rect x="263.184" y="24.4639" width="4.82143" height="4.90909" transform="rotate(90 263.184 24.4639)" fill="#A1A1A1"/>
<rect x="263.184" y="255.893" width="4.82143" height="4.90909" transform="rotate(90 263.184 255.893)" fill="#A1A1A1"/>
<rect x="27.5469" y="255.893" width="4.82143" height="4.90909" transform="rotate(90 27.5469 255.893)" fill="#A1A1A1"/>
<rect x="27.5469" y="24.4639" width="4.82143" height="4.90909" transform="rotate(90 27.5469 24.4639)" fill="#A1A1A1"/>
<rect x="263.184" y="29.2852" width="4.82143" height="4.90909" transform="rotate(90 263.184 29.2852)" fill="#A1A1A1"/>
<rect x="263.184" y="260.714" width="4.82143" height="4.90909" transform="rotate(90 263.184 260.714)" fill="#A1A1A1"/>
<rect x="27.5469" y="260.714" width="4.82143" height="4.90909" transform="rotate(90 27.5469 260.714)" fill="#A1A1A1"/>
<rect x="27.5469" y="29.2852" width="4.82143" height="4.90909" transform="rotate(90 27.5469 29.2852)" fill="#A1A1A1"/>
<rect x="258.273" y="29.2852" width="4.82143" height="4.90909" transform="rotate(90 258.273 29.2852)" fill="#A1A1A1"/>
<rect x="258.273" y="260.714" width="4.82143" height="4.90909" transform="rotate(90 258.273 260.714)" fill="#A1A1A1"/>
<rect x="22.6367" y="260.714" width="4.82143" height="4.90909" transform="rotate(90 22.6367 260.714)" fill="#A1A1A1"/>
<rect x="22.6367" y="29.2852" width="4.82143" height="4.90909" transform="rotate(90 22.6367 29.2852)" fill="#A1A1A1"/>
<rect x="258.273" y="24.4639" width="4.82143" height="4.90909" transform="rotate(90 258.273 24.4639)" fill="#A1A1A1"/>
<rect x="258.273" y="255.893" width="4.82143" height="4.90909" transform="rotate(90 258.273 255.893)" fill="#A1A1A1"/>
<rect x="22.6367" y="255.893" width="4.82143" height="4.90909" transform="rotate(90 22.6367 255.893)" fill="#A1A1A1"/>
<rect x="22.6367" y="24.4639" width="4.82143" height="4.90909" transform="rotate(90 22.6367 24.4639)" fill="#A1A1A1"/>
<rect x="268.09" y="19.6426" width="4.82143" height="4.90909" transform="rotate(90 268.09 19.6426)" fill="#A1A1A1"/>
<rect x="268.09" y="251.071" width="4.82143" height="4.90909" transform="rotate(90 268.09 251.071)" fill="#A1A1A1"/>
<rect x="32.4531" y="251.071" width="4.82143" height="4.90909" transform="rotate(90 32.4531 251.071)" fill="#A1A1A1"/>
<rect x="32.4531" y="19.6426" width="4.82143" height="4.90909" transform="rotate(90 32.4531 19.6426)" fill="#A1A1A1"/>
<rect x="268.09" y="34.1074" width="4.82143" height="4.90909" transform="rotate(90 268.09 34.1074)" fill="#A1A1A1"/>
<rect x="268.09" y="265.535" width="4.82143" height="4.90909" transform="rotate(90 268.09 265.535)" fill="#A1A1A1"/>
<rect x="32.4531" y="265.535" width="4.82143" height="4.90909" transform="rotate(90 32.4531 265.535)" fill="#A1A1A1"/>
<rect x="32.4531" y="34.1074" width="4.82143" height="4.90909" transform="rotate(90 32.4531 34.1074)" fill="#A1A1A1"/>
<rect x="253.363" y="34.1074" width="4.82143" height="4.90909" transform="rotate(90 253.363 34.1074)" fill="#A1A1A1"/>
<rect x="253.363" y="265.535" width="4.82143" height="4.90909" transform="rotate(90 253.363 265.535)" fill="#A1A1A1"/>
<rect x="17.7266" y="265.535" width="4.82143" height="4.90909" transform="rotate(90 17.7266 265.535)" fill="#A1A1A1"/>
<rect x="17.7266" y="34.1074" width="4.82143" height="4.90909" transform="rotate(90 17.7266 34.1074)" fill="#A1A1A1"/>
<rect x="253.363" y="19.6426" width="4.82143" height="4.90909" transform="rotate(90 253.363 19.6426)" fill="#A1A1A1"/>
<rect x="253.363" y="251.071" width="4.82143" height="4.90909" transform="rotate(90 253.363 251.071)" fill="#A1A1A1"/>
<rect x="17.7266" y="251.071" width="4.82143" height="4.90909" transform="rotate(90 17.7266 251.071)" fill="#A1A1A1"/>
<rect x="17.7266" y="19.6426" width="4.82143" height="4.90909" transform="rotate(90 17.7266 19.6426)" fill="#A1A1A1"/>
<rect width="4.82143" height="4.90909" transform="matrix(4.34843e-08 1 1 -4.38339e-08 27.5469 53.3926)" fill="#A1A1A1"/>
<rect x="27.5469" y="236.607" width="4.82143" height="4.90909" transform="rotate(-90 27.5469 236.607)" fill="#A1A1A1"/>
<rect width="4.82143" height="4.90909" transform="matrix(4.34843e-08 1 1 -4.38339e-08 228.82 251.071)" fill="#A1A1A1"/>
<rect x="253.363" y="53.3926" width="4.82143" height="4.90909" transform="rotate(90 253.363 53.3926)" fill="#A1A1A1"/>
<rect width="4.90909" height="4.82143" transform="matrix(1 -8.33289e-08 -9.15523e-08 -1 22.6367 130.535)" fill="#FFD900"/>
<rect x="258.273" y="130.535" width="4.90909" height="4.82143" transform="rotate(-180 258.273 130.535)" fill="#FF0000"/>
<rect width="4.82143" height="4.90909" transform="matrix(-1.32497e-07 -1 -1 1.29696e-07 125.727 260.714)" fill="#00A2FF"/>
<rect width="4.82143" height="4.90909" transform="matrix(4.34843e-08 1 1 -4.38339e-08 155.184 29.2852)" fill="#00FF15"/>
<rect width="4.90909" height="4.82143" transform="matrix(1 -8.33289e-08 -9.15523e-08 -1 22.6367 63.0352)" fill="#FFD900"/>
<rect x="258.273" y="63.0352" width="4.90909" height="4.82143" transform="rotate(-180 258.273 63.0352)" fill="#FF0000"/>
<rect width="4.82143" height="4.90909" transform="matrix(-1.32497e-07 -1 -1 1.29696e-07 57 260.714)" fill="#00A2FF"/>
<rect width="4.82143" height="4.90909" transform="matrix(4.34843e-08 1 1 -4.38339e-08 223.91 29.2852)" fill="#00FF15"/>
<rect width="4.90909" height="4.82143" transform="matrix(1 -8.33289e-08 -9.15523e-08 -1 17.7266 198.035)" fill="#FFD900"/>
<rect x="263.184" y="198.035" width="4.90909" height="4.82143" transform="rotate(-180 263.184 198.035)" fill="#FF0000"/>
<rect width="4.82143" height="4.90909" transform="matrix(-1.32497e-07 -1 -1 1.29696e-07 194.453 265.535)" fill="#00A2FF"/>
<rect width="4.82143" height="4.90909" transform="matrix(4.34843e-08 1 1 -4.38339e-08 86.457 24.4639)" fill="#00FF15"/>
<rect width="4.90909" height="4.82143" transform="matrix(1 -8.33289e-08 -9.15523e-08 -1 17.7266 231.785)" fill="#FFD900"/>
<rect x="263.184" y="231.785" width="4.90909" height="4.82143" transform="rotate(-180 263.184 231.785)" fill="#FF0000"/>
<rect width="4.82143" height="4.90909" transform="matrix(-1.32497e-07 -1 -1 1.29696e-07 228.82 265.535)" fill="#00A2FF"/>
<rect width="4.82143" height="4.90909" transform="matrix(4.34843e-08 1 1 -4.38339e-08 52.0898 24.4639)" fill="#00FF15"/>
<rect width="4.90909" height="4.82143" transform="matrix(1 -8.33289e-08 -9.15523e-08 -1 17.7266 130.535)" fill="#FFD900"/>
<rect x="263.184" y="130.535" width="4.90909" height="4.82143" transform="rotate(-180 263.184 130.535)" fill="#FF0000"/>
<rect width="4.82143" height="4.90909" transform="matrix(-1.32497e-07 -1 -1 1.29696e-07 125.727 265.535)" fill="#00A2FF"/>
<rect width="4.82143" height="4.90909" transform="matrix(4.34843e-08 1 1 -4.38339e-08 155.184 24.4639)" fill="#00FF15"/>
<rect width="4.90909" height="4.82143" transform="matrix(1 -8.33289e-08 -9.15523e-08 -1 17.7266 63.0352)" fill="#FFD900"/>
<rect x="263.184" y="63.0352" width="4.90909" height="4.82143" transform="rotate(-180 263.184 63.0352)" fill="#FF0000"/>
<rect width="4.82143" height="4.90909" transform="matrix(-1.32497e-07 -1 -1 1.29696e-07 57 265.535)" fill="#00A2FF"/>
<rect width="4.82143" height="4.90909" transform="matrix(4.34843e-08 1 1 -4.38339e-08 223.91 24.4639)" fill="#00FF15"/>
<rect width="4.90909" height="4.82143" transform="matrix(1 -8.33289e-08 -9.15523e-08 -1 12.8164 202.857)" fill="#FFD900"/>
<rect x="268.09" y="202.857" width="4.90909" height="4.82143" transform="rotate(-180 268.09 202.857)" fill="#FF0000"/>
<rect width="4.82143" height="4.90909" transform="matrix(-1.32497e-07 -1 -1 1.29696e-07 199.363 270.357)" fill="#00A2FF"/>
<rect width="4.82143" height="4.90909" transform="matrix(4.34843e-08 1 1 -4.38339e-08 81.5469 19.6426)" fill="#00FF15"/>
<rect width="4.90909" height="4.82143" transform="matrix(1 -8.33289e-08 -9.15523e-08 -1 12.8164 135.357)" fill="#FFD900"/>
<rect x="268.09" y="135.357" width="4.90909" height="4.82143" transform="rotate(-180 268.09 135.357)" fill="#FF0000"/>
<rect width="4.82143" height="4.90909" transform="matrix(-1.32497e-07 -1 -1 1.29696e-07 130.637 270.357)" fill="#00A2FF"/>
<rect width="4.82143" height="4.90909" transform="matrix(4.34843e-08 1 1 -4.38339e-08 150.273 19.6426)" fill="#00FF15"/>
<rect width="4.90909" height="4.82143" transform="matrix(1 -8.33289e-08 -9.15523e-08 -1 12.8164 67.8574)" fill="#FFD900"/>
<rect x="268.09" y="67.8574" width="4.90909" height="4.82143" transform="rotate(-180 268.09 67.8574)" fill="#FF0000"/>
<rect width="4.82143" height="4.90909" transform="matrix(-1.32497e-07 -1 -1 1.29696e-07 61.9102 270.357)" fill="#00A2FF"/>
<rect width="4.82143" height="4.90909" transform="matrix(4.34843e-08 1 1 -4.38339e-08 219 19.6426)" fill="#00FF15"/>
<rect width="4.90909" height="4.82143" transform="matrix(1 -8.33289e-08 -9.15523e-08 -1 7.91016 140.179)" fill="#FFD900"/>
<rect x="273" y="140.179" width="4.90909" height="4.82143" transform="rotate(-180 273 140.179)" fill="#FF0000"/>
<rect width="4.82143" height="4.90909" transform="matrix(-1.32497e-07 -1 -1 1.29696e-07 135.547 275.179)" fill="#00A2FF"/>
<rect width="4.82143" height="4.90909" transform="matrix(4.34843e-08 1 1 -4.38339e-08 145.363 14.8213)" fill="#00FF15"/>
<rect width="4.90909" height="4.82143" transform="matrix(1 -8.33289e-08 -9.15523e-08 -1 7.91016 72.6787)" fill="#FFD900"/>
<rect x="273" y="72.6787" width="4.90909" height="4.82143" transform="rotate(-180 273 72.6787)" fill="#FF0000"/>
<rect width="4.82143" height="4.90909" transform="matrix(-1.32497e-07 -1 -1 1.29696e-07 66.8203 275.179)" fill="#00A2FF"/>
<rect width="4.82143" height="4.90909" transform="matrix(4.34843e-08 1 1 -4.38339e-08 214.09 14.8213)" fill="#00FF15"/>
<rect width="4.90909" height="4.82143" transform="matrix(1 -8.33289e-08 -9.15523e-08 -1 3 145)" fill="#FFD900"/>
<rect width="4.82143" height="4.90909" transform="matrix(-1.32497e-07 -1 -1 1.29696e-07 140.453 280)" fill="#00A2FF"/>
<rect width="4.82143" height="4.90909" transform="matrix(4.34843e-08 1 1 -4.38339e-08 140.453 10)" fill="#00FF15"/>
<rect width="4.90909" height="4.82143" transform="matrix(1 -8.33289e-08 -9.15523e-08 -1 3 149.821)" fill="#FFD900"/>
<rect width="4.82143" height="4.90909" transform="matrix(-1.32497e-07 -1 -1 1.29696e-07 145.363 280)" fill="#00A2FF"/>
<rect width="4.82143" height="4.90909" transform="matrix(4.34843e-08 1 1 -4.38339e-08 135.547 10)" fill="#00FF15"/>
<rect width="4.90909" height="4.82143" transform="matrix(1 -8.33289e-08 -9.15523e-08 -1 3 77.5)" fill="#FFD900"/>
<rect width="4.82143" height="4.90909" transform="matrix(-1.32497e-07 -1 -1 1.29696e-07 71.7266 280)" fill="#00A2FF"/>
<rect width="4.82143" height="4.90909" transform="matrix(4.34843e-08 1 1 -4.38339e-08 209.184 10)" fill="#00FF15"/>
<rect width="4.90909" height="4.82143" transform="matrix(1 -8.33289e-08 -9.15523e-08 -1 3 82.3213)" fill="#FFD900"/>
<rect width="4.82143" height="4.90909" transform="matrix(-1.32497e-07 -1 -1 1.29696e-07 76.6367 280)" fill="#00A2FF"/>
<rect width="4.82143" height="4.90909" transform="matrix(4.34843e-08 1 1 -4.38339e-08 204.273 10)" fill="#00FF15"/>
<rect width="4.90909" height="4.82143" transform="matrix(1 -8.33289e-08 -9.15523e-08 -1 7.91016 154.643)" fill="#FFD900"/>
<rect x="273" y="154.643" width="4.90909" height="4.82143" transform="rotate(-180 273 154.643)" fill="#FF0000"/>
<rect width="4.82143" height="4.90909" transform="matrix(-1.32497e-07 -1 -1 1.29696e-07 150.273 275.179)" fill="#00A2FF"/>
<rect width="4.82143" height="4.90909" transform="matrix(4.34843e-08 1 1 -4.38339e-08 130.637 14.8213)" fill="#00FF15"/>
<rect width="4.90909" height="4.82143" transform="matrix(1 -8.33289e-08 -9.15523e-08 -1 7.91016 87.1426)" fill="#FFD900"/>
<rect x="273" y="87.1426" width="4.90909" height="4.82143" transform="rotate(-180 273 87.1426)" fill="#FF0000"/>
<rect width="4.82143" height="4.90909" transform="matrix(-1.32497e-07 -1 -1 1.29696e-07 81.5469 275.179)" fill="#00A2FF"/>
<rect width="4.82143" height="4.90909" transform="matrix(4.34843e-08 1 1 -4.38339e-08 199.363 14.8213)" fill="#00FF15"/>
<rect width="4.90909" height="4.82143" transform="matrix(1 -8.33289e-08 -9.15523e-08 -1 12.8164 159.464)" fill="#FFD900"/>
<rect x="268.09" y="159.464" width="4.90909" height="4.82143" transform="rotate(-180 268.09 159.464)" fill="#FF0000"/>
<rect width="4.82143" height="4.90909" transform="matrix(-1.32497e-07 -1 -1 1.29696e-07 155.184 270.357)" fill="#00A2FF"/>
<rect width="4.82143" height="4.90909" transform="matrix(4.34843e-08 1 1 -4.38339e-08 125.727 19.6426)" fill="#00FF15"/>
<rect width="4.90909" height="4.82143" transform="matrix(1 -8.33289e-08 -9.15523e-08 -1 12.8164 91.9639)" fill="#FFD900"/>
<rect x="268.09" y="91.9639" width="4.90909" height="4.82143" transform="rotate(-180 268.09 91.9639)" fill="#FF0000"/>
<rect width="4.82143" height="4.90909" transform="matrix(-1.32497e-07 -1 -1 1.29696e-07 86.457 270.357)" fill="#00A2FF"/>
<rect width="4.82143" height="4.90909" transform="matrix(4.34843e-08 1 1 -4.38339e-08 194.453 19.6426)" fill="#00FF15"/>
<rect width="4.90909" height="4.82143" transform="matrix(1 -8.33289e-08 -9.15523e-08 -1 12.8164 198.035)" fill="#FFD900"/>
<rect x="268.09" y="198.035" width="4.90909" height="4.82143" transform="rotate(-180 268.09 198.035)" fill="#FF0000"/>
<rect width="4.82143" height="4.90909" transform="matrix(-1.32497e-07 -1 -1 1.29696e-07 194.453 270.357)" fill="#00A2FF"/>
<rect width="4.82143" height="4.90909" transform="matrix(4.34843e-08 1 1 -4.38339e-08 86.457 19.6426)" fill="#00FF15"/>
<rect width="4.90909" height="4.82143" transform="matrix(1 -8.33289e-08 -9.15523e-08 -1 12.8164 231.785)" fill="#FFD900"/>
<rect x="268.09" y="231.785" width="4.90909" height="4.82143" transform="rotate(-180 268.09 231.785)" fill="#FF0000"/>
<rect width="4.82143" height="4.90909" transform="matrix(-1.32497e-07 -1 -1 1.29696e-07 228.82 270.357)" fill="#00A2FF"/>
<rect width="4.82143" height="4.90909" transform="matrix(4.34843e-08 1 1 -4.38339e-08 52.0898 19.6426)" fill="#00FF15"/>
<rect width="4.90909" height="4.82143" transform="matrix(1 -8.33289e-08 -9.15523e-08 -1 12.8164 130.535)" fill="#FFD900"/>
<rect x="268.09" y="130.535" width="4.90909" height="4.82143" transform="rotate(-180 268.09 130.535)" fill="#FF0000"/>
<rect width="4.82143" height="4.90909" transform="matrix(-1.32497e-07 -1 -1 1.29696e-07 125.727 270.357)" fill="#00A2FF"/>
<rect width="4.82143" height="4.90909" transform="matrix(4.34843e-08 1 1 -4.38339e-08 155.184 19.6426)" fill="#00FF15"/>
<rect width="4.90909" height="4.82143" transform="matrix(1 -8.33289e-08 -9.15523e-08 -1 12.8164 63.0352)" fill="#FFD900"/>
<rect x="268.09" y="63.0352" width="4.90909" height="4.82143" transform="rotate(-180 268.09 63.0352)" fill="#FF0000"/>
<rect width="4.82143" height="4.90909" transform="matrix(-1.32497e-07 -1 -1 1.29696e-07 57 270.357)" fill="#00A2FF"/>
<rect width="4.82143" height="4.90909" transform="matrix(4.34843e-08 1 1 -4.38339e-08 223.91 19.6426)" fill="#00FF15"/>
<rect width="4.90909" height="4.82143" transform="matrix(1 -8.33289e-08 -9.15523e-08 -1 22.6367 164.285)" fill="#FFD900"/>
<rect x="258.273" y="164.285" width="4.90909" height="4.82143" transform="rotate(-180 258.273 164.285)" fill="#FF0000"/>
<rect width="4.82143" height="4.90909" transform="matrix(-1.32497e-07 -1 -1 1.29696e-07 160.09 260.714)" fill="#00A2FF"/>
<rect width="4.82143" height="4.90909" transform="matrix(4.34843e-08 1 1 -4.38339e-08 120.82 29.2852)" fill="#00FF15"/>
<rect width="4.90909" height="4.82143" transform="matrix(1 -8.33289e-08 -9.15523e-08 -1 22.6367 96.7852)" fill="#FFD900"/>
<rect x="258.273" y="96.7852" width="4.90909" height="4.82143" transform="rotate(-180 258.273 96.7852)" fill="#FF0000"/>
<rect width="4.82143" height="4.90909" transform="matrix(-1.32497e-07 -1 -1 1.29696e-07 91.3633 260.714)" fill="#00A2FF"/>
<rect width="4.82143" height="4.90909" transform="matrix(4.34843e-08 1 1 -4.38339e-08 189.547 29.2852)" fill="#00FF15"/>
<rect width="4.90909" height="4.82143" transform="matrix(1 -8.33289e-08 -9.15523e-08 -1 17.7266 164.285)" fill="#FFD900"/>
<rect x="263.184" y="164.285" width="4.90909" height="4.82143" transform="rotate(-180 263.184 164.285)" fill="#FF0000"/>
<rect width="4.82143" height="4.90909" transform="matrix(-1.32497e-07 -1 -1 1.29696e-07 160.09 265.535)" fill="#00A2FF"/>
<rect width="4.82143" height="4.90909" transform="matrix(4.34843e-08 1 1 -4.38339e-08 120.82 24.4639)" fill="#00FF15"/>
<rect width="4.90909" height="4.82143" transform="matrix(1 -8.33289e-08 -9.15523e-08 -1 17.7266 96.7852)" fill="#FFD900"/>
<rect x="263.184" y="96.7852" width="4.90909" height="4.82143" transform="rotate(-180 263.184 96.7852)" fill="#FF0000"/>
<rect width="4.82143" height="4.90909" transform="matrix(-1.32497e-07 -1 -1 1.29696e-07 91.3633 265.535)" fill="#00A2FF"/>
<rect width="4.82143" height="4.90909" transform="matrix(4.34843e-08 1 1 -4.38339e-08 189.547 24.4639)" fill="#00FF15"/>
<rect width="4.90909" height="4.82143" transform="matrix(1 -8.33289e-08 -9.15523e-08 -1 12.8164 169.107)" fill="#FFD900"/>
<rect x="268.09" y="169.107" width="4.90909" height="4.82143" transform="rotate(-180 268.09 169.107)" fill="#FF0000"/>
<rect width="4.82143" height="4.90909" transform="matrix(-1.32497e-07 -1 -1 1.29696e-07 165 270.357)" fill="#00A2FF"/>
<rect width="4.82143" height="4.90909" transform="matrix(4.34843e-08 1 1 -4.38339e-08 115.91 19.6426)" fill="#00FF15"/>
<rect width="4.90909" height="4.82143" transform="matrix(1 -8.33289e-08 -9.15523e-08 -1 12.8164 101.607)" fill="#FFD900"/>
<rect x="268.09" y="101.607" width="4.90909" height="4.82143" transform="rotate(-180 268.09 101.607)" fill="#FF0000"/>
<rect width="4.82143" height="4.90909" transform="matrix(-1.32497e-07 -1 -1 1.29696e-07 96.2734 270.357)" fill="#00A2FF"/>
<rect width="4.82143" height="4.90909" transform="matrix(4.34843e-08 1 1 -4.38339e-08 184.637 19.6426)" fill="#00FF15"/>
<rect width="4.90909" height="4.82143" transform="matrix(1 -8.33289e-08 -9.15523e-08 -1 7.91016 173.929)" fill="#FFD900"/>
<rect x="273" y="173.929" width="4.90909" height="4.82143" transform="rotate(-180 273 173.929)" fill="#FF0000"/>
<rect width="4.82143" height="4.90909" transform="matrix(-1.32497e-07 -1 -1 1.29696e-07 169.91 275.179)" fill="#00A2FF"/>
<rect width="4.82143" height="4.90909" transform="matrix(4.34843e-08 1 1 -4.38339e-08 111 14.8213)" fill="#00FF15"/>
<rect width="4.90909" height="4.82143" transform="matrix(1 -8.33289e-08 -9.15523e-08 -1 7.91016 207.679)" fill="#FFD900"/>
<rect x="273" y="207.679" width="4.90909" height="4.82143" transform="rotate(-180 273 207.679)" fill="#FF0000"/>
<rect width="4.82143" height="4.90909" transform="matrix(-1.32497e-07 -1 -1 1.29696e-07 204.273 275.179)" fill="#00A2FF"/>
<rect width="4.82143" height="4.90909" transform="matrix(4.34843e-08 1 1 -4.38339e-08 76.6367 14.8213)" fill="#00FF15"/>
<rect width="4.90909" height="4.82143" transform="matrix(1 -8.33289e-08 -9.15523e-08 -1 7.91016 106.429)" fill="#FFD900"/>
<rect x="273" y="106.429" width="4.90909" height="4.82143" transform="rotate(-180 273 106.429)" fill="#FF0000"/>
<rect width="4.82143" height="4.90909" transform="matrix(-1.32497e-07 -1 -1 1.29696e-07 101.184 275.179)" fill="#00A2FF"/>
<rect width="4.82143" height="4.90909" transform="matrix(4.34843e-08 1 1 -4.38339e-08 179.727 14.8213)" fill="#00FF15"/>
<rect width="4.90909" height="4.82143" transform="matrix(1 -8.33289e-08 -9.15523e-08 -1 3 178.75)" fill="#FFD900"/>
<rect width="4.82143" height="4.90909" transform="matrix(-1.32497e-07 -1 -1 1.29696e-07 174.816 280)" fill="#00A2FF"/>
<rect width="4.82143" height="4.90909" transform="matrix(4.34843e-08 1 1 -4.38339e-08 106.09 10)" fill="#00FF15"/>
<rect width="4.90909" height="4.82143" transform="matrix(1 -8.33289e-08 -9.15523e-08 -1 3 212.5)" fill="#FFD900"/>
<rect width="4.82143" height="4.90909" transform="matrix(-1.32497e-07 -1 -1 1.29696e-07 209.184 280)" fill="#00A2FF"/>
<rect width="4.82143" height="4.90909" transform="matrix(4.34843e-08 1 1 -4.38339e-08 71.7266 10)" fill="#00FF15"/>
<rect width="4.90909" height="4.82143" transform="matrix(1 -8.33289e-08 -9.15523e-08 -1 3 183.571)" fill="#FFD900"/>
<rect width="4.82143" height="4.90909" transform="matrix(-1.32497e-07 -1 -1 1.29696e-07 179.727 280)" fill="#00A2FF"/>
<rect width="4.82143" height="4.90909" transform="matrix(4.34843e-08 1 1 -4.38339e-08 101.184 10)" fill="#00FF15"/>
<rect width="4.90909" height="4.82143" transform="matrix(1 -8.33289e-08 -9.15523e-08 -1 3 217.321)" fill="#FFD900"/>
<rect width="4.82143" height="4.90909" transform="matrix(-1.32497e-07 -1 -1 1.29696e-07 214.09 280)" fill="#00A2FF"/>
<rect width="4.82143" height="4.90909" transform="matrix(4.34843e-08 1 1 -4.38339e-08 66.8203 10)" fill="#00FF15"/>
<rect width="4.90909" height="4.82143" transform="matrix(1 -8.33289e-08 -9.15523e-08 -1 3 111.25)" fill="#FFD900"/>
<rect width="4.82143" height="4.90909" transform="matrix(-1.32497e-07 -1 -1 1.29696e-07 106.09 280)" fill="#00A2FF"/>
<rect width="4.82143" height="4.90909" transform="matrix(4.34843e-08 1 1 -4.38339e-08 174.816 10)" fill="#00FF15"/>
<rect width="4.90909" height="4.82143" transform="matrix(1 -8.33289e-08 -9.15523e-08 -1 3 116.071)" fill="#FFD900"/>
<rect width="4.82143" height="4.90909" transform="matrix(-1.32497e-07 -1 -1 1.29696e-07 111 280)" fill="#00A2FF"/>
<rect width="4.82143" height="4.90909" transform="matrix(4.34843e-08 1 1 -4.38339e-08 169.91 10)" fill="#00FF15"/>
<rect width="4.90909" height="4.82143" transform="matrix(1 -8.33289e-08 -9.15523e-08 -1 7.91016 188.393)" fill="#FFD900"/>
<rect x="273" y="188.393" width="4.90909" height="4.82143" transform="rotate(-180 273 188.393)" fill="#FF0000"/>
<rect width="4.82143" height="4.90909" transform="matrix(-1.32497e-07 -1 -1 1.29696e-07 184.637 275.179)" fill="#00A2FF"/>
<rect width="4.82143" height="4.90909" transform="matrix(4.34843e-08 1 1 -4.38339e-08 96.2734 14.8213)" fill="#00FF15"/>
<rect width="4.90909" height="4.82143" transform="matrix(1 -8.33289e-08 -9.15523e-08 -1 7.91016 222.143)" fill="#FFD900"/>
<rect x="273" y="222.143" width="4.90909" height="4.82143" transform="rotate(-180 273 222.143)" fill="#FF0000"/>
<rect width="4.82143" height="4.90909" transform="matrix(-1.32497e-07 -1 -1 1.29696e-07 219 275.179)" fill="#00A2FF"/>
<rect width="4.82143" height="4.90909" transform="matrix(4.34843e-08 1 1 -4.38339e-08 61.9102 14.8213)" fill="#00FF15"/>
<rect width="4.90909" height="4.82143" transform="matrix(1 -8.33289e-08 -9.15523e-08 -1 7.91016 120.893)" fill="#FFD900"/>
<rect x="273" y="120.893" width="4.90909" height="4.82143" transform="rotate(-180 273 120.893)" fill="#FF0000"/>
<rect width="4.82143" height="4.90909" transform="matrix(-1.32497e-07 -1 -1 1.29696e-07 115.91 275.179)" fill="#00A2FF"/>
<rect width="4.82143" height="4.90909" transform="matrix(4.34843e-08 1 1 -4.38339e-08 165 14.8213)" fill="#00FF15"/>
<rect width="4.90909" height="4.82143" transform="matrix(1 -8.33289e-08 -9.15523e-08 -1 12.8164 193.214)" fill="#FFD900"/>
<rect x="268.09" y="193.214" width="4.90909" height="4.82143" transform="rotate(-180 268.09 193.214)" fill="#FF0000"/>
<rect width="4.82143" height="4.90909" transform="matrix(-1.32497e-07 -1 -1 1.29696e-07 189.547 270.357)" fill="#00A2FF"/>
<rect width="4.82143" height="4.90909" transform="matrix(4.34843e-08 1 1 -4.38339e-08 91.3633 19.6426)" fill="#00FF15"/>
<rect width="4.90909" height="4.82143" transform="matrix(1 -8.33289e-08 -9.15523e-08 -1 12.8164 226.964)" fill="#FFD900"/>
<rect x="268.09" y="226.964" width="4.90909" height="4.82143" transform="rotate(-180 268.09 226.964)" fill="#FF0000"/>
<rect width="4.82143" height="4.90909" transform="matrix(-1.32497e-07 -1 -1 1.29696e-07 223.91 270.357)" fill="#00A2FF"/>
<rect width="4.82143" height="4.90909" transform="matrix(4.34843e-08 1 1 -4.38339e-08 57 19.6426)" fill="#00FF15"/>
<rect width="4.90909" height="4.82143" transform="matrix(1 -8.33289e-08 -9.15523e-08 -1 12.8164 125.714)" fill="#FFD900"/>
<rect x="268.09" y="125.714" width="4.90909" height="4.82143" transform="rotate(-180 268.09 125.714)" fill="#FF0000"/>
<rect width="4.82143" height="4.90909" transform="matrix(-1.32497e-07 -1 -1 1.29696e-07 120.82 270.357)" fill="#00A2FF"/>
<rect width="4.82143" height="4.90909" transform="matrix(4.34843e-08 1 1 -4.38339e-08 160.09 19.6426)" fill="#00FF15"/>
<rect width="4.90909" height="4.82143" transform="matrix(1 -8.33289e-08 -9.15523e-08 -1 12.8164 164.285)" fill="#FFD900"/>
<rect x="268.09" y="164.285" width="4.90909" height="4.82143" transform="rotate(-180 268.09 164.285)" fill="#FF0000"/>
<rect width="4.82143" height="4.90909" transform="matrix(-1.32497e-07 -1 -1 1.29696e-07 160.09 270.357)" fill="#00A2FF"/>
<rect width="4.82143" height="4.90909" transform="matrix(4.34843e-08 1 1 -4.38339e-08 120.82 19.6426)" fill="#00FF15"/>
<rect width="4.90909" height="4.82143" transform="matrix(1 -8.33289e-08 -9.15523e-08 -1 12.8164 96.7852)" fill="#FFD900"/>
<rect x="268.09" y="96.7852" width="4.90909" height="4.82143" transform="rotate(-180 268.09 96.7852)" fill="#FF0000"/>
<rect width="4.82143" height="4.90909" transform="matrix(-1.32497e-07 -1 -1 1.29696e-07 91.3633 270.357)" fill="#00A2FF"/>
<rect width="4.82143" height="4.90909" transform="matrix(4.34843e-08 1 1 -4.38339e-08 189.547 19.6426)" fill="#00FF15"/>
<rect x="145.363" y="130.535" width="4.82143" height="4.90909" transform="rotate(90 145.363 130.535)" fill="#A1A1A1"/>
<rect x="135.547" y="149.821" width="4.82143" height="4.90909" transform="rotate(-90 135.547 149.821)" fill="#A1A1A1"/>
<rect x="150.273" y="145" width="4.82143" height="4.90909" transform="rotate(90 150.273 145)" fill="#A1A1A1"/>
<rect x="155.184" y="149.821" width="4.82143" height="4.90909" transform="rotate(90 155.184 149.821)" fill="#A1A1A1"/>
<rect x="150.273" y="154.643" width="4.82143" height="4.90909" transform="rotate(90 150.273 154.643)" fill="#A1A1A1"/>
<rect x="140.453" y="154.643" width="4.82143" height="4.90909" transform="rotate(90 140.453 154.643)" fill="#A1A1A1"/>
<rect x="135.547" y="149.821" width="4.82143" height="4.90909" transform="rotate(90 135.547 149.821)" fill="#A1A1A1"/>
<rect x="145.363" y="159.464" width="4.82143" height="4.90909" transform="rotate(90 145.363 159.464)" fill="#A1A1A1"/>
<rect x="160.09" y="145" width="4.82143" height="4.90909" transform="rotate(90 160.09 145)" fill="#A1A1A1"/>
<rect x="160.09" y="135.357" width="4.82143" height="4.90909" transform="rotate(90 160.09 135.357)" fill="#A1A1A1"/>
<rect x="165" y="140.179" width="4.82143" height="4.90909" transform="rotate(90 165 140.179)" fill="#A1A1A1"/>
<rect x="155.184" y="130.535" width="4.82143" height="4.90909" transform="rotate(90 155.184 130.535)" fill="#A1A1A1"/>
<rect x="150.273" y="125.714" width="4.82143" height="4.90909" transform="rotate(90 150.273 125.714)" fill="#A1A1A1"/>
<rect x="145.363" y="120.893" width="4.82143" height="4.90909" transform="rotate(90 145.363 120.893)" fill="#A1A1A1"/>
<rect x="140.453" y="125.714" width="4.82143" height="4.90909" transform="rotate(90 140.453 125.714)" fill="#A1A1A1"/>
<rect x="135.547" y="130.535" width="4.82143" height="4.90909" transform="rotate(90 135.547 130.535)" fill="#A1A1A1"/>
<rect x="130.637" y="135.357" width="4.82143" height="4.90909" transform="rotate(90 130.637 135.357)" fill="#A1A1A1"/>
<rect x="130.637" y="145" width="4.82143" height="4.90909" transform="rotate(90 130.637 145)" fill="#A1A1A1"/>
<rect x="125.727" y="140.179" width="4.82143" height="4.90909" transform="rotate(90 125.727 140.179)" fill="#A1A1A1"/>
<rect x="120.82" y="145" width="4.82143" height="4.90909" transform="rotate(90 120.82 145)" fill="#A1A1A1"/>
<rect x="120.82" y="135.357" width="4.82143" height="4.90909" transform="rotate(90 120.82 135.357)" fill="#A1A1A1"/>
<rect x="115.91" y="140.179" width="4.82143" height="4.90909" transform="rotate(90 115.91 140.179)" fill="#A1A1A1"/>
<rect x="169.91" y="145" width="4.82143" height="4.90909" transform="rotate(90 169.91 145)" fill="#A1A1A1"/>
<rect x="169.91" y="135.357" width="4.82143" height="4.90909" transform="rotate(90 169.91 135.357)" fill="#A1A1A1"/>
<rect x="174.816" y="140.179" width="4.82143" height="4.90909" transform="rotate(90 174.816 140.179)" fill="#A1A1A1"/>
<rect x="130.637" y="145" width="4.82143" height="4.90909" transform="rotate(-90 130.637 145)" fill="#A1A1A1"/>
<rect x="155.184" y="140.179" width="4.82143" height="4.90909" transform="rotate(90 155.184 140.179)" fill="#A1A1A1"/>
<rect x="155.184" y="140.179" width="4.82143" height="4.90909" transform="rotate(90 155.184 140.179)" fill="#A1A1A1"/>
<rect x="145.363" y="140.179" width="4.82143" height="4.90909" transform="rotate(-90 145.363 140.179)" fill="#A1A1A1"/>
<rect x="145.363" y="149.821" width="4.82143" height="4.90909" transform="rotate(90 145.363 149.821)" fill="#A1A1A1"/>
<rect x="135.547" y="140.179" width="4.82143" height="4.90909" transform="rotate(-90 135.547 140.179)" fill="#A1A1A1"/>
<circle cx="254" cy="77" r="10" transform="rotate(90 254 77)" fill="#FF0004"/>
<circle cx="254" cy="111" r="10" transform="rotate(90 254 111)" fill="#FF0004"/>
<circle cx="140" cy="32" r="10" fill="#00FF68"/>
<circle cx="174" cy="32" r="10" fill="#00FF68"/>
<circle cx="208" cy="32" r="10" fill="#00FF68"/>
<circle cx="231" cy="77" r="10" transform="rotate(90 231 77)" fill="#FF0004"/>
<circle cx="231" cy="111" r="10" transform="rotate(90 231 111)" fill="#FF0004"/>
<circle cx="140" cy="55" r="10" fill="#00FF68"/>
<circle cx="174" cy="55" r="10" fill="#00FF68"/>
<circle cx="208" cy="55" r="10" fill="#00FF68"/>
<path d="M208 2C212.646 2 217.376 5.76931 221.064 13.0576C224.696 20.2333 227 30.2866 227 41.5C227 52.7134 224.696 62.7667 221.064 69.9424C217.376 77.2307 212.646 81 208 81C203.354 81 198.624 77.2307 194.936 69.9424C191.304 62.7667 189 52.7134 189 41.5C189 30.2866 191.304 20.2333 194.936 13.0576C198.624 5.76931 203.354 2 208 2Z" stroke="white" stroke-width="4"/>
<path d="M283 213C283 217.646 279.231 222.376 271.942 226.064C264.767 229.696 254.713 232 243.5 232C232.287 232 222.233 229.696 215.058 226.064C207.769 222.376 204 217.646 204 213C204 208.354 207.769 203.624 215.058 199.936C222.233 196.304 232.287 194 243.5 194C254.713 194 264.767 196.304 271.942 199.936C279.231 203.624 283 208.354 283 213Z" stroke="white" stroke-width="4"/>
<path d="M72 285C67.3542 285 62.6237 281.231 58.9355 273.942C55.3045 266.767 53 256.713 53 245.5C53 234.287 55.3045 224.233 58.9356 217.058C62.6237 209.769 67.3542 206 72 206C76.6458 206 81.3763 209.769 85.0645 217.058C88.6955 224.233 91 234.287 91 245.5C91 256.713 88.6955 266.767 85.0645 273.942C81.3763 281.231 76.6458 285 72 285Z" stroke="white" stroke-width="4"/>
<path d="M2 76C2 71.3542 5.76931 66.6237 13.0576 62.9355C20.2333 59.3045 30.2866 57 41.5 57C52.7134 57 62.7667 59.3045 69.9424 62.9355C77.2307 66.6237 81 71.3542 81 76C81 80.6458 77.2307 85.3763 69.9424 89.0645C62.7667 92.6955 52.7134 95 41.5 95C30.2866 95 20.2333 92.6955 13.0576 89.0645C5.76931 85.3763 2 80.6458 2 76Z" stroke="white" stroke-width="4"/>
</svg>
