<svg width="28" height="28" viewBox="0 0 28 28" fill="none" xmlns="http://www.w3.org/2000/svg">
<path d="M19.8158 26.5068H8.18429C4.4948 26.5068 1.49316 23.5052 1.49316 19.8157V8.18369C1.49316 4.49425 4.4948 1.49268 8.18429 1.49268H19.8157C23.5052 1.49268 26.5067 4.49425 26.5067 8.18369V19.8157C26.5067 23.5052 23.5052 26.5068 19.8158 26.5068ZM8.18429 3.24273C5.45976 3.24273 3.24316 5.45921 3.24316 8.18375V19.8157C3.24316 22.5403 5.4597 24.7568 8.18429 24.7568H19.8157C22.5402 24.7568 24.7567 22.5403 24.7567 19.8157V8.18369C24.7567 5.45922 22.5403 3.24268 19.8157 3.24268L8.18429 3.24273Z" fill="white"/>
<path d="M21.231 14.8745H10.2935C9.81018 14.8745 9.41846 14.4828 9.41846 13.9995C9.41846 13.5162 9.81018 13.1245 10.2935 13.1245H21.231C21.7142 13.1245 22.106 13.5162 22.106 13.9995C22.106 14.4828 21.7142 14.8745 21.231 14.8745Z" fill="white"/>
<path d="M8.53113 16.6375C7.07704 16.6375 5.89404 15.4542 5.89404 13.9999C5.89404 12.5458 7.07704 11.3628 8.53113 11.3628C9.98554 11.3628 11.1687 12.5458 11.1687 13.9999C11.1688 15.4543 9.98554 16.6375 8.53113 16.6375ZM8.53113 13.1128C8.042 13.1128 7.64404 13.5107 7.64404 13.9999C7.64404 14.4893 8.04195 14.8875 8.53113 14.8875C9.02053 14.8875 9.41871 14.4893 9.41871 13.9999C9.41876 13.5108 9.02053 13.1128 8.53113 13.1128Z" fill="white"/>
<path d="M17.7065 9.05859H6.76904C6.28577 9.05859 5.89404 8.66687 5.89404 8.18359C5.89404 7.70032 6.28577 7.30859 6.76904 7.30859H17.7065C18.1898 7.30859 18.5815 7.70032 18.5815 8.18359C18.5815 8.66687 18.1898 9.05859 17.7065 9.05859Z" fill="white"/>
<path d="M17.7065 20.6909H6.76904C6.28577 20.6909 5.89404 20.2992 5.89404 19.8159C5.89404 19.3326 6.28577 18.9409 6.76904 18.9409H17.7065C18.1898 18.9409 18.5815 19.3326 18.5815 19.8159C18.5815 20.2992 18.1898 20.6909 17.7065 20.6909Z" fill="white"/>
<path d="M19.4691 10.8215C18.0147 10.8215 16.8315 9.63832 16.8315 8.18396C16.8315 6.72987 18.0148 5.54688 19.4691 5.54688C20.9232 5.54688 22.1062 6.72987 22.1062 8.18396C22.1062 9.63832 20.9232 10.8215 19.4691 10.8215ZM19.4691 7.29688C18.9797 7.29688 18.5815 7.69478 18.5815 8.18396C18.5815 8.67336 18.9797 9.07154 19.4691 9.07154C19.9582 9.07154 20.3562 8.67336 20.3562 8.18396C20.3562 7.69478 19.9582 7.29688 19.4691 7.29688Z" fill="white"/>
<path d="M19.4691 22.4533C18.0147 22.4533 16.8315 21.27 16.8315 19.8157C16.8315 18.3617 18.0148 17.1787 19.4691 17.1787C20.9232 17.1787 22.1062 18.3617 22.1062 19.8157C22.1062 21.27 20.9232 22.4533 19.4691 22.4533ZM19.4691 18.9287C18.9797 18.9287 18.5815 19.3266 18.5815 19.8157C18.5815 20.3051 18.9797 20.7033 19.4691 20.7033C19.9582 20.7033 20.3562 20.3051 20.3562 19.8157C20.3562 19.3266 19.9582 18.9287 19.4691 18.9287Z" fill="white"/>
</svg>
