<svg width="282" height="270" viewBox="0 0 282 270" fill="none" xmlns="http://www.w3.org/2000/svg">
<rect x="147.641" y="132.244" width="5.09434" height="5.5102" fill="#A1A1A1"/>
<rect x="152.734" y="132.244" width="5.09434" height="5.5102" fill="#A1A1A1"/>
<rect x="127.266" y="137.756" width="5.09434" height="5.5102" transform="rotate(180 127.266 137.756)" fill="#A1A1A1"/>
<rect x="157.828" y="132.244" width="5.09434" height="5.5102" fill="#A1A1A1"/>
<rect x="122.172" y="137.756" width="5.09434" height="5.5102" transform="rotate(180 122.172 137.756)" fill="#A1A1A1"/>
<rect x="162.922" y="132.244" width="5.09434" height="5.5102" fill="#A1A1A1"/>
<rect x="117.078" y="137.756" width="5.09434" height="5.5102" transform="rotate(180 117.078 137.756)" fill="#A1A1A1"/>
<rect x="183.305" y="132.244" width="5.09434" height="5.5102" fill="#A1A1A1"/>
<rect x="193.492" y="132.244" width="5.09434" height="5.5102" fill="#A1A1A1"/>
<rect x="203.68" y="132.244" width="5.09434" height="5.5102" fill="#A1A1A1"/>
<rect x="96.6953" y="137.756" width="5.09434" height="5.5102" transform="rotate(180 96.6953 137.756)" fill="#A1A1A1"/>
<rect x="86.5078" y="137.756" width="5.09434" height="5.5102" transform="rotate(180 86.5078 137.756)" fill="#A1A1A1"/>
<rect x="76.3203" y="137.756" width="5.09434" height="5.5102" transform="rotate(180 76.3203 137.756)" fill="#A1A1A1"/>
<rect x="188.398" y="132.244" width="5.09434" height="5.5102" fill="#A1A1A1"/>
<rect x="198.586" y="132.244" width="5.09434" height="5.5102" fill="#A1A1A1"/>
<rect x="208.773" y="132.244" width="5.09434" height="5.5102" fill="#A1A1A1"/>
<rect x="234.242" y="132.244" width="5.09434" height="5.5102" fill="#A1A1A1"/>
<rect x="229.148" y="132.244" width="5.09434" height="5.5102" fill="#A1A1A1"/>
<rect x="203.68" y="192.857" width="5.09434" height="5.5102" fill="#A1A1A1"/>
<rect x="239.344" y="132.244" width="5.09434" height="5.5102" fill="#A1A1A1"/>
<rect x="91.6016" y="137.756" width="5.09434" height="5.5102" transform="rotate(180 91.6016 137.756)" fill="#A1A1A1"/>
<rect x="81.4141" y="137.756" width="5.09434" height="5.5102" transform="rotate(180 81.4141 137.756)" fill="#A1A1A1"/>
<rect x="71.2266" y="137.756" width="5.09434" height="5.5102" transform="rotate(180 71.2266 137.756)" fill="#A1A1A1"/>
<rect x="244.438" y="132.244" width="5.09434" height="5.5102" fill="#A1A1A1"/>
<rect x="35.5625" y="137.756" width="5.09434" height="5.5102" transform="rotate(180 35.5625 137.756)" fill="#A1A1A1"/>
<rect x="45.7578" y="137.756" width="5.09434" height="5.5102" transform="rotate(180 45.7578 137.756)" fill="#A1A1A1"/>
<rect x="50.8516" y="137.756" width="5.09434" height="5.5102" transform="rotate(180 50.8516 137.756)" fill="#A1A1A1"/>
<rect x="249.531" y="132.244" width="5.09434" height="5.5102" fill="#A1A1A1"/>
<rect x="30.4688" y="137.756" width="5.09434" height="5.5102" transform="rotate(180 30.4688 137.756)" fill="#A1A1A1"/>
<rect x="40.6562" y="137.756" width="5.09434" height="5.5102" transform="rotate(180 40.6562 137.756)" fill="#A1A1A1"/>
<rect x="254.625" y="132.244" width="5.09434" height="5.5102" fill="#A1A1A1"/>
<rect x="25.375" y="137.756" width="5.09434" height="5.5102" transform="rotate(180 25.375 137.756)" fill="#A1A1A1"/>
<rect x="137.453" y="126.734" width="5.5102" height="5.09434" transform="rotate(90 137.453 126.734)" fill="#A1A1A1"/>
<rect x="137.453" y="137.756" width="5.5102" height="5.09434" transform="rotate(90 137.453 137.756)" fill="#A1A1A1"/>
<rect x="132.359" y="132.244" width="5.5102" height="5.09434" transform="rotate(90 132.359 132.244)" fill="#A1A1A1"/>
<rect x="142.547" y="121.225" width="5.5102" height="5.09434" transform="rotate(90 142.547 121.225)" fill="#A1A1A1"/>
<rect x="147.641" y="137.756" width="5.5102" height="5.09434" transform="rotate(90 147.641 137.756)" fill="#A1A1A1"/>
<rect x="142.547" y="143.266" width="5.5102" height="5.09434" transform="rotate(90 142.547 143.266)" fill="#A1A1A1"/>
<rect x="142.547" y="126.734" width="5.09434" height="5.5102" fill="#A1A1A1"/>
<rect x="157.828" y="104.693" width="5.5102" height="5.09434" transform="rotate(90 157.828 104.693)" fill="#A1A1A1"/>
<rect x="122.172" y="165.307" width="5.5102" height="5.09434" transform="rotate(-90 122.172 165.307)" fill="#A1A1A1"/>
<rect x="152.734" y="110.203" width="5.5102" height="5.09434" transform="rotate(90 152.734 110.203)" fill="#A1A1A1"/>
<rect x="127.266" y="159.797" width="5.5102" height="5.09434" transform="rotate(-90 127.266 159.797)" fill="#A1A1A1"/>
<rect x="188.398" y="71.6328" width="5.5102" height="5.09434" transform="rotate(90 188.398 71.6328)" fill="#A1A1A1"/>
<rect x="91.6016" y="198.367" width="5.5102" height="5.09434" transform="rotate(-90 91.6016 198.367)" fill="#A1A1A1"/>
<rect x="208.773" y="49.5918" width="5.5102" height="5.09434" transform="rotate(90 208.773 49.5918)" fill="#A1A1A1"/>
<rect x="71.2266" y="220.408" width="5.5102" height="5.09434" transform="rotate(-90 71.2266 220.408)" fill="#A1A1A1"/>
<rect x="213.867" y="44.082" width="5.5102" height="5.09434" transform="rotate(90 213.867 44.082)" fill="#A1A1A1"/>
<rect x="66.1328" y="225.918" width="5.5102" height="5.09434" transform="rotate(-90 66.1328 225.918)" fill="#A1A1A1"/>
<rect x="218.961" y="38.5723" width="5.5102" height="5.09434" transform="rotate(90 218.961 38.5723)" fill="#A1A1A1"/>
<rect x="61.0391" y="231.428" width="5.5102" height="5.09434" transform="rotate(-90 61.0391 231.428)" fill="#A1A1A1"/>
<rect x="61.0391" y="253.469" width="5.5102" height="5.09434" transform="rotate(-90 61.0391 253.469)" fill="#A1A1A1"/>
<rect width="5.51018" height="5.09437" transform="matrix(-0.00736539 0.999973 -0.999963 -0.00861689 219 16.5742)" fill="#A1A1A1"/>
<rect width="5.51018" height="5.09437" transform="matrix(-0.00736539 0.999973 -0.999963 -0.00861689 239.383 38.6152)" fill="#A1A1A1"/>
<rect width="5.51018" height="5.09437" transform="matrix(-0.00736539 0.999973 -0.999963 -0.00861689 244.477 44.125)" fill="#A1A1A1"/>
<rect width="5.51018" height="5.09437" transform="matrix(0.00736538 -0.999973 0.999963 0.00861689 35.5625 225.912)" fill="#A1A1A1"/>
<rect width="5.51018" height="5.09437" transform="matrix(0.00736538 -0.999973 0.999963 0.00861689 40.6562 231.428)" fill="#A1A1A1"/>
<rect width="5.51018" height="5.09437" transform="matrix(-0.00736539 0.999973 -0.999963 -0.00861689 249.57 49.6348)" fill="#A1A1A1"/>
<rect width="5.51018" height="5.09437" transform="matrix(0.00736538 -0.999973 0.999963 0.00861689 30.4688 220.408)" fill="#A1A1A1"/>
<rect width="5.51018" height="5.09437" transform="matrix(-0.00736539 0.999973 -0.999963 -0.00861689 269.945 121.268)" fill="#A1A1A1"/>
<rect width="5.51018" height="5.09437" transform="matrix(0.00736538 -0.999973 0.999963 0.00861689 10.0938 148.775)" fill="#A1A1A1"/>
<rect width="5.51018" height="5.09437" transform="matrix(-0.00736539 0.999973 -0.999963 -0.00861689 269.945 115.758)" fill="#A1A1A1"/>
<rect width="5.51018" height="5.09437" transform="matrix(0.00736538 -0.999973 0.999963 0.00861689 10.0938 154.285)" fill="#A1A1A1"/>
<rect width="5.51018" height="5.09437" transform="matrix(-0.00736539 0.999973 -0.999963 -0.00861689 269.945 110.248)" fill="#A1A1A1"/>
<rect width="5.51018" height="5.09437" transform="matrix(0.00736538 -0.999973 0.999963 0.00861689 10.0938 159.797)" fill="#A1A1A1"/>
<rect width="5.51018" height="5.09437" transform="matrix(-0.00736539 0.999973 -0.999963 -0.00861689 269.945 104.736)" fill="#A1A1A1"/>
<rect width="5.51018" height="5.09437" transform="matrix(0.00736538 -0.999973 0.999963 0.00861689 10.0938 165.307)" fill="#A1A1A1"/>
<rect width="5.51018" height="5.09437" transform="matrix(-0.00736539 0.999973 -0.999963 -0.00861689 269.945 99.2266)" fill="#A1A1A1"/>
<rect width="5.51018" height="5.09437" transform="matrix(0.00736538 -0.999973 0.999963 0.00861689 10.0938 170.816)" fill="#A1A1A1"/>
<rect width="5.51018" height="5.09437" transform="matrix(-0.00736539 0.999973 -0.999963 -0.00861689 269.945 93.7168)" fill="#A1A1A1"/>
<rect width="5.51018" height="5.09437" transform="matrix(0.00736538 -0.999973 0.999963 0.00861689 10.0938 176.32)" fill="#A1A1A1"/>
<rect width="5.51018" height="5.09437" transform="matrix(-0.00736539 0.999973 -0.999963 -0.00861689 269.945 88.207)" fill="#A1A1A1"/>
<rect width="5.51018" height="5.09437" transform="matrix(0.00736538 -0.999973 0.999963 0.00861689 10.0938 181.832)" fill="#A1A1A1"/>
<rect width="5.51018" height="5.09437" transform="matrix(-0.00736539 0.999973 -0.999963 -0.00861689 269.945 82.6953)" fill="#A1A1A1"/>
<rect width="5.51018" height="5.09437" transform="matrix(0.00736538 -0.999973 0.999963 0.00861689 10.0938 187.342)" fill="#A1A1A1"/>
<rect width="5.51018" height="5.09437" transform="matrix(-0.00736539 0.999973 -0.999963 -0.00861689 269.945 77.1855)" fill="#A1A1A1"/>
<rect width="5.51018" height="5.09437" transform="matrix(0.00736538 -0.999973 0.999963 0.00861689 10.0938 192.852)" fill="#A1A1A1"/>
<rect width="5.51018" height="5.09437" transform="matrix(-0.00736539 0.999973 -0.999963 -0.00861689 269.945 71.6758)" fill="#A1A1A1"/>
<rect width="5.51018" height="5.09437" transform="matrix(0.00736538 -0.999973 0.999963 0.00861689 10.0938 198.361)" fill="#A1A1A1"/>
<rect width="5.51018" height="5.09437" transform="matrix(-0.00736539 0.999973 -0.999963 -0.00861689 254.664 55.1445)" fill="#A1A1A1"/>
<rect width="5.51018" height="5.09437" transform="matrix(0.00736538 -0.999973 0.999963 0.00861689 25.375 214.898)" fill="#A1A1A1"/>
<rect width="5.51018" height="5.09437" transform="matrix(-0.00736539 0.999973 -0.999963 -0.00861689 259.758 60.6562)" fill="#A1A1A1"/>
<rect width="5.51018" height="5.09437" transform="matrix(0.00736538 -0.999973 0.999963 0.00861689 20.2812 209.389)" fill="#A1A1A1"/>
<rect width="5.51018" height="5.09437" transform="matrix(-0.00736539 0.999973 -0.999963 -0.00861689 264.852 66.166)" fill="#A1A1A1"/>
<rect width="5.51018" height="5.09437" transform="matrix(0.00736538 -0.999973 0.999963 0.00861689 15.1875 203.873)" fill="#A1A1A1"/>
<rect x="66.1328" y="258.98" width="5.5102" height="5.09434" transform="rotate(-90 66.1328 258.98)" fill="#A1A1A1"/>
<rect width="5.51018" height="5.09437" transform="matrix(-0.00736539 0.999973 -0.999963 -0.00861689 213.906 11.0625)" fill="#A1A1A1"/>
<rect x="71.2266" y="264.49" width="5.5102" height="5.09434" transform="rotate(-90 71.2266 264.49)" fill="#A1A1A1"/>
<rect width="5.51018" height="5.09437" transform="matrix(-0.00736539 0.999973 -0.999963 -0.00861689 208.812 5.55273)" fill="#A1A1A1"/>
<rect x="213.867" y="253.469" width="5.5102" height="5.09434" transform="rotate(-90 213.867 253.469)" fill="#A1A1A1"/>
<rect width="5.51018" height="5.09437" transform="matrix(-0.00736539 0.999973 -0.999963 -0.00861689 66.1719 16.4453)" fill="#A1A1A1"/>
<rect x="208.773" y="258.98" width="5.5102" height="5.09434" transform="rotate(-90 208.773 258.98)" fill="#A1A1A1"/>
<rect width="5.51018" height="5.09437" transform="matrix(-0.00736539 0.999973 -0.999963 -0.00861689 71.3047 10.9727)" fill="#A1A1A1"/>
<rect x="203.68" y="264.49" width="5.5102" height="5.09434" transform="rotate(-90 203.68 264.49)" fill="#A1A1A1"/>
<rect width="5.51018" height="5.09437" transform="matrix(-0.00736539 0.999973 -0.999963 -0.00861689 76.4375 5.50977)" fill="#A1A1A1"/>
<rect x="147.641" y="115.715" width="5.5102" height="5.09434" transform="rotate(90 147.641 115.715)" fill="#A1A1A1"/>
<rect x="132.359" y="154.285" width="5.5102" height="5.09434" transform="rotate(-90 132.359 154.285)" fill="#A1A1A1"/>
<rect x="183.305" y="77.1426" width="5.5102" height="5.09434" transform="rotate(90 183.305 77.1426)" fill="#A1A1A1"/>
<rect x="96.6953" y="192.857" width="5.5102" height="5.09434" transform="rotate(-90 96.6953 192.857)" fill="#A1A1A1"/>
<rect x="178.211" y="82.6523" width="5.5102" height="5.09434" transform="rotate(90 178.211 82.6523)" fill="#A1A1A1"/>
<rect x="101.789" y="187.348" width="5.5102" height="5.09434" transform="rotate(-90 101.789 187.348)" fill="#A1A1A1"/>
<rect x="66.1328" y="38.5723" width="5.5102" height="5.09434" transform="rotate(90 66.1328 38.5723)" fill="#A1A1A1"/>
<rect x="213.867" y="231.428" width="5.5102" height="5.09434" transform="rotate(-90 213.867 231.428)" fill="#A1A1A1"/>
<rect x="127.266" y="104.693" width="5.5102" height="5.09434" transform="rotate(90 127.266 104.693)" fill="#A1A1A1"/>
<rect x="127.266" y="93.6738" width="5.5102" height="5.09434" transform="rotate(90 127.266 93.6738)" fill="#A1A1A1"/>
<rect x="137.453" y="38.5723" width="5.5102" height="5.09434" transform="rotate(90 137.453 38.5723)" fill="#A1A1A1"/>
<rect x="142.547" y="231.428" width="5.5102" height="5.09434" transform="rotate(-90 142.547 231.428)" fill="#A1A1A1"/>
<rect x="127.266" y="170.816" width="5.5102" height="5.09434" transform="rotate(90 127.266 170.816)" fill="#A1A1A1"/>
<rect x="132.359" y="93.6738" width="5.5102" height="5.09434" transform="rotate(90 132.359 93.6738)" fill="#A1A1A1"/>
<rect x="106.891" y="38.5723" width="5.5102" height="5.09434" transform="rotate(90 106.891 38.5723)" fill="#A1A1A1"/>
<rect x="173.109" y="231.428" width="5.5102" height="5.09434" transform="rotate(-90 173.109 231.428)" fill="#A1A1A1"/>
<rect x="142.547" y="38.5723" width="5.5102" height="5.09434" transform="rotate(90 142.547 38.5723)" fill="#A1A1A1"/>
<rect x="137.453" y="231.428" width="5.5102" height="5.09434" transform="rotate(-90 137.453 231.428)" fill="#A1A1A1"/>
<rect x="132.359" y="170.816" width="5.5102" height="5.09434" transform="rotate(90 132.359 170.816)" fill="#A1A1A1"/>
<rect x="137.453" y="93.6738" width="5.5102" height="5.09434" transform="rotate(90 137.453 93.6738)" fill="#A1A1A1"/>
<rect x="111.984" y="38.5723" width="5.5102" height="5.09434" transform="rotate(90 111.984 38.5723)" fill="#A1A1A1"/>
<rect x="168.016" y="231.428" width="5.5102" height="5.09434" transform="rotate(-90 168.016 231.428)" fill="#A1A1A1"/>
<rect x="147.641" y="38.5723" width="5.5102" height="5.09434" transform="rotate(90 147.641 38.5723)" fill="#A1A1A1"/>
<rect x="132.359" y="231.428" width="5.5102" height="5.09434" transform="rotate(-90 132.359 231.428)" fill="#A1A1A1"/>
<rect x="137.453" y="170.816" width="5.5102" height="5.09434" transform="rotate(90 137.453 170.816)" fill="#A1A1A1"/>
<rect x="142.547" y="93.6738" width="5.5102" height="5.09434" transform="rotate(90 142.547 93.6738)" fill="#A1A1A1"/>
<rect x="117.078" y="38.5723" width="5.5102" height="5.09434" transform="rotate(90 117.078 38.5723)" fill="#A1A1A1"/>
<rect x="162.922" y="231.428" width="5.5102" height="5.09434" transform="rotate(-90 162.922 231.428)" fill="#A1A1A1"/>
<rect x="152.734" y="38.5723" width="5.5102" height="5.09434" transform="rotate(90 152.734 38.5723)" fill="#A1A1A1"/>
<rect x="127.266" y="231.428" width="5.5102" height="5.09434" transform="rotate(-90 127.266 231.428)" fill="#A1A1A1"/>
<rect x="142.547" y="170.816" width="5.5102" height="5.09434" transform="rotate(90 142.547 170.816)" fill="#A1A1A1"/>
<rect x="147.641" y="93.6738" width="5.5102" height="5.09434" transform="rotate(90 147.641 93.6738)" fill="#A1A1A1"/>
<rect x="122.172" y="38.5723" width="5.5102" height="5.09434" transform="rotate(90 122.172 38.5723)" fill="#A1A1A1"/>
<rect x="157.828" y="231.428" width="5.5102" height="5.09434" transform="rotate(-90 157.828 231.428)" fill="#A1A1A1"/>
<rect x="157.828" y="38.5723" width="5.5102" height="5.09434" transform="rotate(90 157.828 38.5723)" fill="#A1A1A1"/>
<rect x="122.172" y="231.428" width="5.5102" height="5.09434" transform="rotate(-90 122.172 231.428)" fill="#A1A1A1"/>
<rect x="173.109" y="38.5723" width="5.5102" height="5.09434" transform="rotate(90 173.109 38.5723)" fill="#A1A1A1"/>
<rect x="106.891" y="231.428" width="5.5102" height="5.09434" transform="rotate(-90 106.891 231.428)" fill="#A1A1A1"/>
<rect x="147.641" y="170.816" width="5.5102" height="5.09434" transform="rotate(90 147.641 170.816)" fill="#A1A1A1"/>
<rect x="152.734" y="93.6738" width="5.5102" height="5.09434" transform="rotate(90 152.734 93.6738)" fill="#A1A1A1"/>
<rect x="127.266" y="38.5723" width="5.5102" height="5.09434" transform="rotate(90 127.266 38.5723)" fill="#A1A1A1"/>
<rect x="152.734" y="231.428" width="5.5102" height="5.09434" transform="rotate(-90 152.734 231.428)" fill="#A1A1A1"/>
<rect x="162.922" y="38.5723" width="5.5102" height="5.09434" transform="rotate(90 162.922 38.5723)" fill="#A1A1A1"/>
<rect x="117.078" y="231.428" width="5.5102" height="5.09434" transform="rotate(-90 117.078 231.428)" fill="#A1A1A1"/>
<rect x="178.211" y="38.5723" width="5.5102" height="5.09434" transform="rotate(90 178.211 38.5723)" fill="#A1A1A1"/>
<rect x="101.789" y="231.428" width="5.5102" height="5.09434" transform="rotate(-90 101.789 231.428)" fill="#A1A1A1"/>
<rect x="152.734" y="170.816" width="5.5102" height="5.09434" transform="rotate(90 152.734 170.816)" fill="#A1A1A1"/>
<rect x="157.828" y="93.6738" width="5.5102" height="5.09434" transform="rotate(90 157.828 93.6738)" fill="#A1A1A1"/>
<rect x="132.359" y="38.5723" width="5.5102" height="5.09434" transform="rotate(90 132.359 38.5723)" fill="#A1A1A1"/>
<rect x="147.641" y="231.428" width="5.5102" height="5.09434" transform="rotate(-90 147.641 231.428)" fill="#A1A1A1"/>
<rect x="168.016" y="38.5723" width="5.5102" height="5.09434" transform="rotate(90 168.016 38.5723)" fill="#A1A1A1"/>
<rect x="111.984" y="231.428" width="5.5102" height="5.09434" transform="rotate(-90 111.984 231.428)" fill="#A1A1A1"/>
<rect x="157.828" y="170.816" width="5.5102" height="5.09434" transform="rotate(90 157.828 170.816)" fill="#A1A1A1"/>
<rect x="178.211" y="104.693" width="5.5102" height="5.09434" transform="rotate(90 178.211 104.693)" fill="#A1A1A1"/>
<rect x="178.211" y="110.203" width="5.5102" height="5.09434" transform="rotate(90 178.211 110.203)" fill="#A1A1A1"/>
<rect x="178.211" y="115.715" width="5.5102" height="5.09434" transform="rotate(90 178.211 115.715)" fill="#A1A1A1"/>
<rect x="178.211" y="121.225" width="5.5102" height="5.09434" transform="rotate(90 178.211 121.225)" fill="#A1A1A1"/>
<rect x="178.211" y="143.266" width="5.5102" height="5.09434" transform="rotate(90 178.211 143.266)" fill="#A1A1A1"/>
<rect x="178.211" y="148.775" width="5.5102" height="5.09434" transform="rotate(90 178.211 148.775)" fill="#A1A1A1"/>
<rect x="178.211" y="154.285" width="5.5102" height="5.09434" transform="rotate(90 178.211 154.285)" fill="#A1A1A1"/>
<rect x="178.211" y="159.797" width="5.5102" height="5.09434" transform="rotate(90 178.211 159.797)" fill="#A1A1A1"/>
<rect x="106.891" y="159.797" width="5.5102" height="5.09434" transform="rotate(90 106.891 159.797)" fill="#A1A1A1"/>
<rect x="106.891" y="154.285" width="5.5102" height="5.09434" transform="rotate(90 106.891 154.285)" fill="#A1A1A1"/>
<rect x="106.891" y="148.775" width="5.5102" height="5.09434" transform="rotate(90 106.891 148.775)" fill="#A1A1A1"/>
<rect x="106.891" y="143.266" width="5.5102" height="5.09434" transform="rotate(90 106.891 143.266)" fill="#A1A1A1"/>
<rect x="106.891" y="121.225" width="5.5102" height="5.09434" transform="rotate(90 106.891 121.225)" fill="#A1A1A1"/>
<rect x="106.891" y="115.715" width="5.5102" height="5.09434" transform="rotate(90 106.891 115.715)" fill="#A1A1A1"/>
<rect x="106.891" y="110.203" width="5.5102" height="5.09434" transform="rotate(90 106.891 110.203)" fill="#A1A1A1"/>
<rect x="106.891" y="104.693" width="5.5102" height="5.09434" transform="rotate(90 106.891 104.693)" fill="#A1A1A1"/>
<rect x="152.734" y="165.307" width="5.5102" height="5.09434" transform="rotate(-90 152.734 165.307)" fill="#A1A1A1"/>
<rect x="71.2266" y="44.082" width="5.5102" height="5.09434" transform="rotate(90 71.2266 44.082)" fill="#A1A1A1"/>
<rect x="208.773" y="225.918" width="5.5102" height="5.09434" transform="rotate(-90 208.773 225.918)" fill="#A1A1A1"/>
<rect x="132.359" y="110.203" width="5.5102" height="5.09434" transform="rotate(90 132.359 110.203)" fill="#A1A1A1"/>
<rect x="147.641" y="159.797" width="5.5102" height="5.09434" transform="rotate(-90 147.641 159.797)" fill="#A1A1A1"/>
<rect x="76.3203" y="49.5918" width="5.5102" height="5.09434" transform="rotate(90 76.3203 49.5918)" fill="#A1A1A1"/>
<rect x="203.68" y="220.408" width="5.5102" height="5.09434" transform="rotate(-90 203.68 220.408)" fill="#A1A1A1"/>
<rect x="137.453" y="115.715" width="5.5102" height="5.09434" transform="rotate(90 137.453 115.715)" fill="#A1A1A1"/>
<rect x="142.547" y="154.285" width="5.5102" height="5.09434" transform="rotate(-90 142.547 154.285)" fill="#A1A1A1"/>
<rect x="96.6953" y="71.6328" width="5.5102" height="5.09434" transform="rotate(90 96.6953 71.6328)" fill="#A1A1A1"/>
<rect x="183.305" y="198.367" width="5.5102" height="5.09434" transform="rotate(-90 183.305 198.367)" fill="#A1A1A1"/>
<rect x="142.547" y="121.225" width="5.5102" height="5.09434" transform="rotate(90 142.547 121.225)" fill="#A1A1A1"/>
<rect x="101.789" y="77.1426" width="5.5102" height="5.09434" transform="rotate(90 101.789 77.1426)" fill="#A1A1A1"/>
<rect x="178.211" y="192.857" width="5.5102" height="5.09434" transform="rotate(-90 178.211 192.857)" fill="#A1A1A1"/>
<rect x="106.891" y="82.6523" width="5.5102" height="5.09434" transform="rotate(90 106.891 82.6523)" fill="#A1A1A1"/>
<rect x="173.109" y="187.348" width="5.5102" height="5.09434" transform="rotate(-90 173.109 187.348)" fill="#A1A1A1"/>
<rect x="269.906" y="126.734" width="5.5102" height="5.09434" transform="rotate(90 269.906 126.734)" fill="#A1A1A1"/>
<rect x="198.586" y="55.1016" width="5.5102" height="5.09434" transform="rotate(90 198.586 55.1016)" fill="#A1A1A1"/>
<rect x="81.4141" y="214.898" width="5.5102" height="5.09434" transform="rotate(-90 81.4141 214.898)" fill="#A1A1A1"/>
<rect x="229.148" y="22.041" width="5.5102" height="5.09434" transform="rotate(90 229.148 22.041)" fill="#A1A1A1"/>
<rect x="50.8516" y="247.959" width="5.5102" height="5.09434" transform="rotate(-90 50.8516 247.959)" fill="#A1A1A1"/>
<rect x="55.9453" y="22.041" width="5.5102" height="5.09434" transform="rotate(90 55.9453 22.041)" fill="#A1A1A1"/>
<rect x="224.055" y="247.959" width="5.5102" height="5.09434" transform="rotate(-90 224.055 247.959)" fill="#A1A1A1"/>
<rect x="86.5078" y="55.1016" width="5.5102" height="5.09434" transform="rotate(90 86.5078 55.1016)" fill="#A1A1A1"/>
<rect x="193.492" y="214.898" width="5.5102" height="5.09434" transform="rotate(-90 193.492 214.898)" fill="#A1A1A1"/>
<rect x="117.078" y="88.1641" width="5.5102" height="5.09434" transform="rotate(90 117.078 88.1641)" fill="#A1A1A1"/>
<rect x="162.922" y="181.836" width="5.5102" height="5.09434" transform="rotate(-90 162.922 181.836)" fill="#A1A1A1"/>
<rect x="168.016" y="88.1641" width="5.5102" height="5.09434" transform="rotate(90 168.016 88.1641)" fill="#A1A1A1"/>
<rect x="111.984" y="181.836" width="5.5102" height="5.09434" transform="rotate(-90 111.984 181.836)" fill="#A1A1A1"/>
<rect x="10.0938" y="143.266" width="5.5102" height="5.09434" transform="rotate(-90 10.0938 143.266)" fill="#A1A1A1"/>
<rect x="224.055" y="126.734" width="5.5102" height="5.09434" transform="rotate(90 224.055 126.734)" fill="#A1A1A1"/>
<rect x="55.9453" y="143.266" width="5.5102" height="5.09434" transform="rotate(-90 55.9453 143.266)" fill="#A1A1A1"/>
<rect x="178.211" y="126.734" width="5.5102" height="5.09434" transform="rotate(90 178.211 126.734)" fill="#A1A1A1"/>
<rect x="101.789" y="143.266" width="5.5102" height="5.09434" transform="rotate(-90 101.789 143.266)" fill="#A1A1A1"/>
<rect x="264.812" y="137.756" width="5.09434" height="5.5102" transform="rotate(180 264.812 137.756)" fill="#A1A1A1"/>
<rect x="193.492" y="66.123" width="5.09434" height="5.5102" transform="rotate(180 193.492 66.123)" fill="#A1A1A1"/>
<rect x="86.5078" y="203.877" width="5.09434" height="5.5102" fill="#A1A1A1"/>
<rect x="224.055" y="33.0605" width="5.09434" height="5.5102" transform="rotate(180 224.055 33.0605)" fill="#A1A1A1"/>
<rect x="55.9453" y="236.939" width="5.09434" height="5.5102" fill="#A1A1A1"/>
<rect x="50.8516" y="33.0605" width="5.09434" height="5.5102" transform="rotate(180 50.8516 33.0605)" fill="#A1A1A1"/>
<rect x="50.8516" y="27.5508" width="5.09434" height="5.5102" transform="rotate(180 50.8516 27.5508)" fill="#A1A1A1"/>
<rect x="229.148" y="236.939" width="5.09434" height="5.5102" fill="#A1A1A1"/>
<rect x="81.4141" y="66.123" width="5.09434" height="5.5102" transform="rotate(180 81.4141 66.123)" fill="#A1A1A1"/>
<rect x="198.586" y="203.877" width="5.09434" height="5.5102" fill="#A1A1A1"/>
<rect x="111.984" y="99.1836" width="5.09434" height="5.5102" transform="rotate(180 111.984 99.1836)" fill="#A1A1A1"/>
<rect x="168.016" y="170.816" width="5.09434" height="5.5102" fill="#A1A1A1"/>
<rect x="162.922" y="99.1836" width="5.09434" height="5.5102" transform="rotate(180 162.922 99.1836)" fill="#A1A1A1"/>
<rect x="117.078" y="170.816" width="5.09434" height="5.5102" fill="#A1A1A1"/>
<rect x="15.1875" y="132.244" width="5.09434" height="5.5102" fill="#A1A1A1"/>
<rect x="218.961" y="137.756" width="5.09434" height="5.5102" transform="rotate(180 218.961 137.756)" fill="#A1A1A1"/>
<rect x="61.0391" y="132.244" width="5.09434" height="5.5102" fill="#A1A1A1"/>
<rect x="173.109" y="137.756" width="5.09434" height="5.5102" transform="rotate(180 173.109 137.756)" fill="#A1A1A1"/>
<rect x="106.891" y="132.244" width="5.09434" height="5.5102" fill="#A1A1A1"/>
<rect x="264.812" y="132.244" width="5.09434" height="5.5102" transform="rotate(180 264.812 132.244)" fill="#A1A1A1"/>
<rect x="193.492" y="60.6113" width="5.09434" height="5.5102" transform="rotate(180 193.492 60.6113)" fill="#A1A1A1"/>
<rect x="188.398" y="55.1016" width="5.09434" height="5.5102" transform="rotate(180 188.398 55.1016)" fill="#A1A1A1"/>
<rect x="91.6016" y="214.898" width="5.09434" height="5.5102" fill="#A1A1A1"/>
<rect x="183.305" y="49.5918" width="5.09434" height="5.5102" transform="rotate(180 183.305 49.5918)" fill="#A1A1A1"/>
<rect x="96.6953" y="220.408" width="5.09434" height="5.5102" fill="#A1A1A1"/>
<rect x="86.5078" y="209.389" width="5.09434" height="5.5102" fill="#A1A1A1"/>
<rect x="224.055" y="27.5508" width="5.09434" height="5.5102" transform="rotate(180 224.055 27.5508)" fill="#A1A1A1"/>
<rect x="55.9453" y="242.449" width="5.09434" height="5.5102" fill="#A1A1A1"/>
<rect x="229.148" y="242.449" width="5.09434" height="5.5102" fill="#A1A1A1"/>
<rect x="81.4141" y="60.6113" width="5.09434" height="5.5102" transform="rotate(180 81.4141 60.6113)" fill="#A1A1A1"/>
<rect x="198.586" y="209.389" width="5.09434" height="5.5102" fill="#A1A1A1"/>
<rect x="111.984" y="93.6738" width="5.09434" height="5.5102" transform="rotate(180 111.984 93.6738)" fill="#A1A1A1"/>
<rect x="168.016" y="176.326" width="5.09434" height="5.5102" fill="#A1A1A1"/>
<rect x="162.922" y="93.6738" width="5.09434" height="5.5102" transform="rotate(180 162.922 93.6738)" fill="#A1A1A1"/>
<rect x="117.078" y="176.326" width="5.09434" height="5.5102" fill="#A1A1A1"/>
<rect x="15.1875" y="137.756" width="5.09434" height="5.5102" fill="#A1A1A1"/>
<rect x="218.961" y="132.244" width="5.09434" height="5.5102" transform="rotate(180 218.961 132.244)" fill="#A1A1A1"/>
<rect x="61.0391" y="137.756" width="5.09434" height="5.5102" fill="#A1A1A1"/>
<rect x="173.109" y="132.244" width="5.09434" height="5.5102" transform="rotate(180 173.109 132.244)" fill="#A1A1A1"/>
<rect x="106.891" y="137.756" width="5.09434" height="5.5102" fill="#A1A1A1"/>
<rect x="275" y="132.244" width="5.09434" height="5.5102" transform="rotate(180 275 132.244)" fill="#A1A1A1"/>
<rect x="203.68" y="60.6113" width="5.09434" height="5.5102" transform="rotate(180 203.68 60.6113)" fill="#A1A1A1"/>
<rect x="76.3203" y="209.389" width="5.09434" height="5.5102" fill="#A1A1A1"/>
<rect x="234.242" y="27.5508" width="5.09434" height="5.5102" transform="rotate(180 234.242 27.5508)" fill="#A1A1A1"/>
<rect x="45.7578" y="242.449" width="5.09434" height="5.5102" fill="#A1A1A1"/>
<rect x="61.0391" y="27.5508" width="5.09434" height="5.5102" transform="rotate(180 61.0391 27.5508)" fill="#A1A1A1"/>
<rect x="218.961" y="242.449" width="5.09434" height="5.5102" fill="#A1A1A1"/>
<rect x="91.6016" y="60.6113" width="5.09434" height="5.5102" transform="rotate(180 91.6016 60.6113)" fill="#A1A1A1"/>
<rect x="96.6953" y="55.1016" width="5.09434" height="5.5102" transform="rotate(180 96.6953 55.1016)" fill="#A1A1A1"/>
<rect x="183.305" y="214.898" width="5.09434" height="5.5102" fill="#A1A1A1"/>
<rect x="101.789" y="49.5918" width="5.09434" height="5.5102" transform="rotate(180 101.789 49.5918)" fill="#A1A1A1"/>
<rect x="178.211" y="220.408" width="5.09434" height="5.5102" fill="#A1A1A1"/>
<rect x="188.398" y="209.389" width="5.09434" height="5.5102" fill="#A1A1A1"/>
<rect x="122.172" y="93.6738" width="5.09434" height="5.5102" transform="rotate(180 122.172 93.6738)" fill="#A1A1A1"/>
<rect x="157.828" y="176.326" width="5.09434" height="5.5102" fill="#A1A1A1"/>
<rect x="173.109" y="93.6738" width="5.09434" height="5.5102" transform="rotate(180 173.109 93.6738)" fill="#A1A1A1"/>
<rect x="106.891" y="176.326" width="5.09434" height="5.5102" fill="#A1A1A1"/>
<rect x="5" y="137.756" width="5.09434" height="5.5102" fill="#A1A1A1"/>
<rect x="229.148" y="132.244" width="5.09434" height="5.5102" transform="rotate(180 229.148 132.244)" fill="#A1A1A1"/>
<rect x="50.8516" y="137.756" width="5.09434" height="5.5102" fill="#A1A1A1"/>
<rect x="183.305" y="132.244" width="5.09434" height="5.5102" transform="rotate(180 183.305 132.244)" fill="#A1A1A1"/>
<rect x="96.6953" y="137.756" width="5.09434" height="5.5102" fill="#A1A1A1"/>
<rect x="275" y="137.756" width="5.09434" height="5.5102" transform="rotate(180 275 137.756)" fill="#A1A1A1"/>
<rect x="203.68" y="66.123" width="5.09434" height="5.5102" transform="rotate(180 203.68 66.123)" fill="#A1A1A1"/>
<rect x="76.3203" y="203.877" width="5.09434" height="5.5102" fill="#A1A1A1"/>
<rect x="234.242" y="33.0605" width="5.09434" height="5.5102" transform="rotate(180 234.242 33.0605)" fill="#A1A1A1"/>
<rect x="45.7578" y="236.939" width="5.09434" height="5.5102" fill="#A1A1A1"/>
<rect x="61.0391" y="33.0605" width="5.09434" height="5.5102" transform="rotate(180 61.0391 33.0605)" fill="#A1A1A1"/>
<rect x="218.961" y="236.939" width="5.09434" height="5.5102" fill="#A1A1A1"/>
<rect x="91.6016" y="66.123" width="5.09434" height="5.5102" transform="rotate(180 91.6016 66.123)" fill="#A1A1A1"/>
<rect x="188.398" y="203.877" width="5.09434" height="5.5102" fill="#A1A1A1"/>
<rect x="122.172" y="99.1836" width="5.09434" height="5.5102" transform="rotate(180 122.172 99.1836)" fill="#A1A1A1"/>
<rect x="157.828" y="170.816" width="5.09434" height="5.5102" fill="#A1A1A1"/>
<rect x="173.109" y="99.1836" width="5.09434" height="5.5102" transform="rotate(180 173.109 99.1836)" fill="#A1A1A1"/>
<rect x="106.891" y="170.816" width="5.09434" height="5.5102" fill="#A1A1A1"/>
<rect x="5" y="132.244" width="5.09434" height="5.5102" fill="#A1A1A1"/>
<rect x="229.148" y="137.756" width="5.09434" height="5.5102" transform="rotate(180 229.148 137.756)" fill="#A1A1A1"/>
<rect x="50.8516" y="132.244" width="5.09434" height="5.5102" fill="#A1A1A1"/>
<rect x="183.305" y="137.756" width="5.09434" height="5.5102" transform="rotate(180 183.305 137.756)" fill="#A1A1A1"/>
<rect x="96.6953" y="132.244" width="5.09434" height="5.5102" fill="#A1A1A1"/>
<rect x="275" y="143.266" width="5.09434" height="5.5102" transform="rotate(180 275 143.266)" fill="#A1A1A1"/>
<rect x="203.68" y="71.6328" width="5.09434" height="5.5102" transform="rotate(180 203.68 71.6328)" fill="#A1A1A1"/>
<rect x="76.3203" y="198.367" width="5.09434" height="5.5102" fill="#A1A1A1"/>
<rect x="71.2266" y="192.857" width="5.09434" height="5.5102" fill="#A1A1A1"/>
<rect x="213.867" y="82.6523" width="5.09434" height="5.5102" transform="rotate(180 213.867 82.6523)" fill="#A1A1A1"/>
<rect x="208.773" y="77.1426" width="5.09434" height="5.5102" transform="rotate(180 208.773 77.1426)" fill="#A1A1A1"/>
<rect x="66.1328" y="187.348" width="5.09434" height="5.5102" fill="#A1A1A1"/>
<rect x="218.961" y="88.1641" width="5.09434" height="5.5102" transform="rotate(180 218.961 88.1641)" fill="#A1A1A1"/>
<rect x="61.0391" y="181.836" width="5.09434" height="5.5102" fill="#A1A1A1"/>
<rect x="224.055" y="93.6738" width="5.09434" height="5.5102" transform="rotate(180 224.055 93.6738)" fill="#A1A1A1"/>
<rect x="55.9453" y="176.326" width="5.09434" height="5.5102" fill="#A1A1A1"/>
<rect x="224.055" y="99.1836" width="5.09434" height="5.5102" transform="rotate(180 224.055 99.1836)" fill="#A1A1A1"/>
<rect x="55.9453" y="170.816" width="5.09434" height="5.5102" fill="#A1A1A1"/>
<rect x="224.055" y="104.693" width="5.09434" height="5.5102" transform="rotate(180 224.055 104.693)" fill="#A1A1A1"/>
<rect x="55.9453" y="165.307" width="5.09434" height="5.5102" fill="#A1A1A1"/>
<rect x="224.055" y="110.203" width="5.09434" height="5.5102" transform="rotate(180 224.055 110.203)" fill="#A1A1A1"/>
<rect x="55.9453" y="159.797" width="5.09434" height="5.5102" fill="#A1A1A1"/>
<rect x="224.055" y="115.715" width="5.09434" height="5.5102" transform="rotate(180 224.055 115.715)" fill="#A1A1A1"/>
<rect x="55.9453" y="154.285" width="5.09434" height="5.5102" fill="#A1A1A1"/>
<rect x="224.055" y="121.225" width="5.09434" height="5.5102" transform="rotate(180 224.055 121.225)" fill="#A1A1A1"/>
<rect x="55.9453" y="148.775" width="5.09434" height="5.5102" fill="#A1A1A1"/>
<rect x="224.055" y="126.734" width="5.09434" height="5.5102" transform="rotate(180 224.055 126.734)" fill="#A1A1A1"/>
<rect x="55.9453" y="143.266" width="5.09434" height="5.5102" fill="#A1A1A1"/>
<rect x="234.242" y="38.5723" width="5.09434" height="5.5102" transform="rotate(180 234.242 38.5723)" fill="#A1A1A1"/>
<rect x="45.7578" y="231.428" width="5.09434" height="5.5102" fill="#A1A1A1"/>
<rect x="61.0391" y="38.5723" width="5.09434" height="5.5102" transform="rotate(180 61.0391 38.5723)" fill="#A1A1A1"/>
<rect x="218.961" y="231.428" width="5.09434" height="5.5102" fill="#A1A1A1"/>
<rect x="91.6016" y="71.6328" width="5.09434" height="5.5102" transform="rotate(180 91.6016 71.6328)" fill="#A1A1A1"/>
<rect x="188.398" y="198.367" width="5.09434" height="5.5102" fill="#A1A1A1"/>
<rect x="122.172" y="104.693" width="5.09434" height="5.5102" transform="rotate(180 122.172 104.693)" fill="#A1A1A1"/>
<rect x="157.828" y="165.307" width="5.09434" height="5.5102" fill="#A1A1A1"/>
<rect x="173.109" y="104.693" width="5.09434" height="5.5102" transform="rotate(180 173.109 104.693)" fill="#A1A1A1"/>
<rect x="106.891" y="165.307" width="5.09434" height="5.5102" fill="#A1A1A1"/>
<rect x="5" y="126.734" width="5.09434" height="5.5102" fill="#A1A1A1"/>
<rect x="229.148" y="143.266" width="5.09434" height="5.5102" transform="rotate(180 229.148 143.266)" fill="#A1A1A1"/>
<rect x="50.8516" y="126.734" width="5.09434" height="5.5102" fill="#A1A1A1"/>
<rect x="183.305" y="143.266" width="5.09434" height="5.5102" transform="rotate(180 183.305 143.266)" fill="#A1A1A1"/>
<rect x="96.6953" y="126.734" width="5.09434" height="5.5102" fill="#A1A1A1"/>
<rect x="269.906" y="143.266" width="5.09434" height="5.5102" transform="rotate(180 269.906 143.266)" fill="#A1A1A1"/>
<rect x="198.586" y="71.6328" width="5.09434" height="5.5102" transform="rotate(180 198.586 71.6328)" fill="#A1A1A1"/>
<rect x="81.4141" y="198.367" width="5.09434" height="5.5102" fill="#A1A1A1"/>
<rect x="229.148" y="38.5723" width="5.09434" height="5.5102" transform="rotate(180 229.148 38.5723)" fill="#A1A1A1"/>
<rect x="50.8516" y="231.428" width="5.09434" height="5.5102" fill="#A1A1A1"/>
<rect x="55.9453" y="38.5723" width="5.09434" height="5.5102" transform="rotate(180 55.9453 38.5723)" fill="#A1A1A1"/>
<rect x="224.055" y="231.428" width="5.09434" height="5.5102" fill="#A1A1A1"/>
<rect x="86.5078" y="71.6328" width="5.09434" height="5.5102" transform="rotate(180 86.5078 71.6328)" fill="#A1A1A1"/>
<rect x="193.492" y="198.367" width="5.09434" height="5.5102" fill="#A1A1A1"/>
<rect x="117.078" y="104.693" width="5.09434" height="5.5102" transform="rotate(180 117.078 104.693)" fill="#A1A1A1"/>
<rect x="162.922" y="165.307" width="5.09434" height="5.5102" fill="#A1A1A1"/>
<rect x="168.016" y="104.693" width="5.09434" height="5.5102" transform="rotate(180 168.016 104.693)" fill="#A1A1A1"/>
<rect x="111.984" y="165.307" width="5.09434" height="5.5102" fill="#A1A1A1"/>
<rect x="10.0938" y="126.734" width="5.09434" height="5.5102" fill="#A1A1A1"/>
<rect x="224.055" y="143.266" width="5.09434" height="5.5102" transform="rotate(180 224.055 143.266)" fill="#A1A1A1"/>
<rect x="55.9453" y="126.734" width="5.09434" height="5.5102" fill="#A1A1A1"/>
<rect x="178.211" y="143.266" width="5.09434" height="5.5102" transform="rotate(180 178.211 143.266)" fill="#A1A1A1"/>
<rect x="101.789" y="126.734" width="5.09434" height="5.5102" fill="#A1A1A1"/>
<rect x="264.812" y="143.266" width="5.09434" height="5.5102" transform="rotate(180 264.812 143.266)" fill="#A1A1A1"/>
<rect x="193.492" y="71.6328" width="5.09434" height="5.5102" transform="rotate(180 193.492 71.6328)" fill="#A1A1A1"/>
<rect x="86.5078" y="198.367" width="5.09434" height="5.5102" fill="#A1A1A1"/>
<rect x="224.055" y="38.5723" width="5.09434" height="5.5102" transform="rotate(180 224.055 38.5723)" fill="#A1A1A1"/>
<rect x="55.9453" y="231.428" width="5.09434" height="5.5102" fill="#A1A1A1"/>
<rect x="50.8516" y="38.5723" width="5.09434" height="5.5102" transform="rotate(180 50.8516 38.5723)" fill="#A1A1A1"/>
<rect x="45.7578" y="44.082" width="5.09434" height="5.5102" transform="rotate(180 45.7578 44.082)" fill="#A1A1A1"/>
<rect x="234.242" y="225.918" width="5.09434" height="5.5102" fill="#A1A1A1"/>
<rect x="40.6562" y="49.5918" width="5.09434" height="5.5102" transform="rotate(180 40.6562 49.5918)" fill="#A1A1A1"/>
<rect x="239.344" y="220.408" width="5.09434" height="5.5102" fill="#A1A1A1"/>
<rect x="35.5625" y="55.1016" width="5.09434" height="5.5102" transform="rotate(180 35.5625 55.1016)" fill="#A1A1A1"/>
<rect x="244.438" y="214.898" width="5.09434" height="5.5102" fill="#A1A1A1"/>
<rect x="30.4688" y="60.6113" width="5.09434" height="5.5102" transform="rotate(180 30.4688 60.6113)" fill="#A1A1A1"/>
<rect x="249.531" y="209.389" width="5.09434" height="5.5102" fill="#A1A1A1"/>
<rect x="25.375" y="66.123" width="5.09434" height="5.5102" transform="rotate(180 25.375 66.123)" fill="#A1A1A1"/>
<rect x="254.625" y="203.877" width="5.09434" height="5.5102" fill="#A1A1A1"/>
<rect x="20.2812" y="71.6328" width="5.09434" height="5.5102" transform="rotate(180 20.2812 71.6328)" fill="#A1A1A1"/>
<rect x="259.719" y="198.367" width="5.09434" height="5.5102" fill="#A1A1A1"/>
<rect x="15.1875" y="77.1426" width="5.09434" height="5.5102" transform="rotate(180 15.1875 77.1426)" fill="#A1A1A1"/>
<rect x="264.812" y="192.857" width="5.09434" height="5.5102" fill="#A1A1A1"/>
<rect x="15.1875" y="82.6523" width="5.09434" height="5.5102" transform="rotate(180 15.1875 82.6523)" fill="#A1A1A1"/>
<rect x="264.812" y="187.348" width="5.09434" height="5.5102" fill="#A1A1A1"/>
<rect x="15.1875" y="88.1641" width="5.09434" height="5.5102" transform="rotate(180 15.1875 88.1641)" fill="#A1A1A1"/>
<rect x="264.812" y="181.836" width="5.09434" height="5.5102" fill="#A1A1A1"/>
<rect x="15.1875" y="93.6738" width="5.09434" height="5.5102" transform="rotate(180 15.1875 93.6738)" fill="#A1A1A1"/>
<rect x="264.812" y="176.326" width="5.09434" height="5.5102" fill="#A1A1A1"/>
<rect x="15.1875" y="99.1836" width="5.09434" height="5.5102" transform="rotate(180 15.1875 99.1836)" fill="#A1A1A1"/>
<rect x="264.812" y="170.816" width="5.09434" height="5.5102" fill="#A1A1A1"/>
<rect x="15.1875" y="104.693" width="5.09434" height="5.5102" transform="rotate(180 15.1875 104.693)" fill="#A1A1A1"/>
<rect x="264.812" y="165.307" width="5.09434" height="5.5102" fill="#A1A1A1"/>
<rect x="15.1875" y="110.203" width="5.09434" height="5.5102" transform="rotate(180 15.1875 110.203)" fill="#A1A1A1"/>
<rect x="264.812" y="159.797" width="5.09434" height="5.5102" fill="#A1A1A1"/>
<rect x="15.1875" y="115.715" width="5.09434" height="5.5102" transform="rotate(180 15.1875 115.715)" fill="#A1A1A1"/>
<rect x="264.812" y="154.285" width="5.09434" height="5.5102" fill="#A1A1A1"/>
<rect x="15.1875" y="121.225" width="5.09434" height="5.5102" transform="rotate(180 15.1875 121.225)" fill="#A1A1A1"/>
<rect x="264.812" y="148.775" width="5.09434" height="5.5102" fill="#A1A1A1"/>
<rect x="15.1875" y="126.734" width="5.09434" height="5.5102" transform="rotate(180 15.1875 126.734)" fill="#A1A1A1"/>
<rect x="264.812" y="143.266" width="5.09434" height="5.5102" fill="#A1A1A1"/>
<rect x="229.148" y="231.428" width="5.09434" height="5.5102" fill="#A1A1A1"/>
<rect x="81.4141" y="71.6328" width="5.09434" height="5.5102" transform="rotate(180 81.4141 71.6328)" fill="#A1A1A1"/>
<rect x="76.3203" y="77.1426" width="5.09434" height="5.5102" transform="rotate(180 76.3203 77.1426)" fill="#A1A1A1"/>
<rect x="208.773" y="187.348" width="5.09434" height="5.5102" fill="#A1A1A1"/>
<rect x="71.2266" y="82.6523" width="5.09434" height="5.5102" transform="rotate(180 71.2266 82.6523)" fill="#A1A1A1"/>
<rect x="213.867" y="181.836" width="5.09434" height="5.5102" fill="#A1A1A1"/>
<rect x="66.1328" y="88.1641" width="5.09434" height="5.5102" transform="rotate(180 66.1328 88.1641)" fill="#A1A1A1"/>
<rect x="61.0391" y="93.6738" width="5.09434" height="5.5102" transform="rotate(180 61.0391 93.6738)" fill="#A1A1A1"/>
<rect x="218.961" y="176.326" width="5.09434" height="5.5102" fill="#A1A1A1"/>
<rect x="61.0391" y="99.1836" width="5.09434" height="5.5102" transform="rotate(180 61.0391 99.1836)" fill="#A1A1A1"/>
<rect x="218.961" y="170.816" width="5.09434" height="5.5102" fill="#A1A1A1"/>
<rect x="61.0391" y="104.693" width="5.09434" height="5.5102" transform="rotate(180 61.0391 104.693)" fill="#A1A1A1"/>
<rect x="218.961" y="165.307" width="5.09434" height="5.5102" fill="#A1A1A1"/>
<rect x="61.0391" y="110.203" width="5.09434" height="5.5102" transform="rotate(180 61.0391 110.203)" fill="#A1A1A1"/>
<rect x="218.961" y="159.797" width="5.09434" height="5.5102" fill="#A1A1A1"/>
<rect x="61.0391" y="121.225" width="5.09434" height="5.5102" transform="rotate(180 61.0391 121.225)" fill="#A1A1A1"/>
<rect x="218.961" y="148.775" width="5.09434" height="5.5102" fill="#A1A1A1"/>
<rect x="61.0391" y="115.715" width="5.09434" height="5.5102" transform="rotate(180 61.0391 115.715)" fill="#A1A1A1"/>
<rect x="218.961" y="154.285" width="5.09434" height="5.5102" fill="#A1A1A1"/>
<rect x="61.0391" y="126.734" width="5.09434" height="5.5102" transform="rotate(180 61.0391 126.734)" fill="#A1A1A1"/>
<rect x="218.961" y="143.266" width="5.09434" height="5.5102" fill="#A1A1A1"/>
<rect x="198.586" y="198.367" width="5.09434" height="5.5102" fill="#A1A1A1"/>
<rect x="111.984" y="104.693" width="5.09434" height="5.5102" transform="rotate(180 111.984 104.693)" fill="#A1A1A1"/>
<rect x="168.016" y="165.307" width="5.09434" height="5.5102" fill="#A1A1A1"/>
<rect x="162.922" y="104.693" width="5.09434" height="5.5102" transform="rotate(180 162.922 104.693)" fill="#A1A1A1"/>
<rect x="117.078" y="165.307" width="5.09434" height="5.5102" fill="#A1A1A1"/>
<rect x="15.1875" y="126.734" width="5.09434" height="5.5102" fill="#A1A1A1"/>
<rect x="218.961" y="143.266" width="5.09434" height="5.5102" transform="rotate(180 218.961 143.266)" fill="#A1A1A1"/>
<rect x="61.0391" y="126.734" width="5.09434" height="5.5102" fill="#A1A1A1"/>
<rect x="173.109" y="143.266" width="5.09434" height="5.5102" transform="rotate(180 173.109 143.266)" fill="#A1A1A1"/>
<rect x="106.891" y="126.734" width="5.09434" height="5.5102" fill="#A1A1A1"/>
<rect x="81.4141" width="5.5102" height="5.09434" transform="rotate(90 81.4141 0)" fill="#A1A1A1"/>
<rect x="81.4141" y="264.49" width="5.5102" height="5.09434" transform="rotate(90 81.4141 264.49)" fill="#A1A1A1"/>
<rect x="86.5078" width="5.5102" height="5.09434" transform="rotate(90 86.5078 0)" fill="#A1A1A1"/>
<rect x="86.5078" y="264.49" width="5.5102" height="5.09434" transform="rotate(90 86.5078 264.49)" fill="#A1A1A1"/>
<rect x="91.6016" width="5.5102" height="5.09434" transform="rotate(90 91.6016 0)" fill="#A1A1A1"/>
<rect x="91.6016" y="264.49" width="5.5102" height="5.09434" transform="rotate(90 91.6016 264.49)" fill="#A1A1A1"/>
<rect x="96.6953" width="5.5102" height="5.09434" transform="rotate(90 96.6953 0)" fill="#A1A1A1"/>
<rect x="96.6953" y="264.49" width="5.5102" height="5.09434" transform="rotate(90 96.6953 264.49)" fill="#A1A1A1"/>
<rect x="101.789" width="5.5102" height="5.09434" transform="rotate(90 101.789 0)" fill="#A1A1A1"/>
<rect x="101.789" y="264.49" width="5.5102" height="5.09434" transform="rotate(90 101.789 264.49)" fill="#A1A1A1"/>
<rect x="106.891" width="5.5102" height="5.09434" transform="rotate(90 106.891 0)" fill="#A1A1A1"/>
<rect x="106.891" y="264.49" width="5.5102" height="5.09434" transform="rotate(90 106.891 264.49)" fill="#A1A1A1"/>
<rect x="111.984" width="5.5102" height="5.09434" transform="rotate(90 111.984 0)" fill="#A1A1A1"/>
<rect x="111.984" y="264.49" width="5.5102" height="5.09434" transform="rotate(90 111.984 264.49)" fill="#A1A1A1"/>
<rect x="117.078" width="5.5102" height="5.09434" transform="rotate(90 117.078 0)" fill="#A1A1A1"/>
<rect x="117.078" y="264.49" width="5.5102" height="5.09434" transform="rotate(90 117.078 264.49)" fill="#A1A1A1"/>
<rect x="122.172" width="5.5102" height="5.09434" transform="rotate(90 122.172 0)" fill="#A1A1A1"/>
<rect x="122.172" y="264.49" width="5.5102" height="5.09434" transform="rotate(90 122.172 264.49)" fill="#A1A1A1"/>
<rect x="127.266" width="5.5102" height="5.09434" transform="rotate(90 127.266 0)" fill="#A1A1A1"/>
<rect x="127.266" y="264.49" width="5.5102" height="5.09434" transform="rotate(90 127.266 264.49)" fill="#A1A1A1"/>
<rect x="132.359" width="5.5102" height="5.09434" transform="rotate(90 132.359 0)" fill="#A1A1A1"/>
<rect x="132.359" y="264.49" width="5.5102" height="5.09434" transform="rotate(90 132.359 264.49)" fill="#A1A1A1"/>
<rect x="137.453" width="5.5102" height="5.09434" transform="rotate(90 137.453 0)" fill="#A1A1A1"/>
<rect x="137.453" y="264.49" width="5.5102" height="5.09434" transform="rotate(90 137.453 264.49)" fill="#A1A1A1"/>
<rect x="142.547" width="5.5102" height="5.09434" transform="rotate(90 142.547 0)" fill="#A1A1A1"/>
<rect x="142.547" y="264.49" width="5.5102" height="5.09434" transform="rotate(90 142.547 264.49)" fill="#A1A1A1"/>
<rect x="147.641" width="5.5102" height="5.09434" transform="rotate(90 147.641 0)" fill="#A1A1A1"/>
<rect x="147.641" y="264.49" width="5.5102" height="5.09434" transform="rotate(90 147.641 264.49)" fill="#A1A1A1"/>
<rect x="152.734" width="5.5102" height="5.09434" transform="rotate(90 152.734 0)" fill="#A1A1A1"/>
<rect x="152.734" y="264.49" width="5.5102" height="5.09434" transform="rotate(90 152.734 264.49)" fill="#A1A1A1"/>
<rect x="157.828" width="5.5102" height="5.09434" transform="rotate(90 157.828 0)" fill="#A1A1A1"/>
<rect x="157.828" y="264.49" width="5.5102" height="5.09434" transform="rotate(90 157.828 264.49)" fill="#A1A1A1"/>
<rect x="162.922" width="5.5102" height="5.09434" transform="rotate(90 162.922 0)" fill="#A1A1A1"/>
<rect x="162.922" y="264.49" width="5.5102" height="5.09434" transform="rotate(90 162.922 264.49)" fill="#A1A1A1"/>
<rect x="168.016" width="5.5102" height="5.09434" transform="rotate(90 168.016 0)" fill="#A1A1A1"/>
<rect x="168.016" y="264.49" width="5.5102" height="5.09434" transform="rotate(90 168.016 264.49)" fill="#A1A1A1"/>
<rect x="173.109" width="5.5102" height="5.09434" transform="rotate(90 173.109 0)" fill="#A1A1A1"/>
<rect x="173.109" y="264.49" width="5.5102" height="5.09434" transform="rotate(90 173.109 264.49)" fill="#A1A1A1"/>
<rect x="178.211" width="5.5102" height="5.09434" transform="rotate(90 178.211 0)" fill="#A1A1A1"/>
<rect x="178.211" y="264.49" width="5.5102" height="5.09434" transform="rotate(90 178.211 264.49)" fill="#A1A1A1"/>
<rect x="183.305" width="5.5102" height="5.09434" transform="rotate(90 183.305 0)" fill="#A1A1A1"/>
<rect x="183.305" y="264.49" width="5.5102" height="5.09434" transform="rotate(90 183.305 264.49)" fill="#A1A1A1"/>
<rect x="188.398" width="5.5102" height="5.09434" transform="rotate(90 188.398 0)" fill="#A1A1A1"/>
<rect x="188.398" y="264.49" width="5.5102" height="5.09434" transform="rotate(90 188.398 264.49)" fill="#A1A1A1"/>
<rect x="193.492" width="5.5102" height="5.09434" transform="rotate(90 193.492 0)" fill="#A1A1A1"/>
<rect x="193.492" y="264.49" width="5.5102" height="5.09434" transform="rotate(90 193.492 264.49)" fill="#A1A1A1"/>
<rect x="198.586" width="5.5102" height="5.09434" transform="rotate(90 198.586 0)" fill="#A1A1A1"/>
<rect x="198.586" y="264.49" width="5.5102" height="5.09434" transform="rotate(90 198.586 264.49)" fill="#A1A1A1"/>
<rect x="203.68" width="5.5102" height="5.09434" transform="rotate(90 203.68 0)" fill="#A1A1A1"/>
<rect x="203.68" y="264.49" width="5.5102" height="5.09434" transform="rotate(90 203.68 264.49)" fill="#A1A1A1"/>
<circle cx="54" cy="30" r="12" fill="black"/>
<circle cx="84" cy="62" r="12" fill="black"/>
<circle cx="116" cy="95" r="12" fill="black"/>
<circle cx="107" cy="133" r="12" fill="#43FF46" fill-opacity="0.5"/>
<circle cx="12" cy="133" r="12" fill="#43FF46" fill-opacity="0.5"/>
<circle cx="54" cy="239" r="12" fill="black"/>
<circle cx="83" cy="205" r="12" fill="black"/>
<circle cx="116" cy="175" r="12" fill="black"/>
<circle cx="228" cy="30" r="12" fill="white"/>
<circle cx="199" cy="62" r="12" fill="white"/>
<circle cx="169" cy="94" r="12" fill="white"/>
<circle cx="176" cy="134" r="13" fill="white" stroke="#43FF46" stroke-width="2"/>
<circle cx="224" cy="134" r="12" fill="white"/>
<circle cx="270" cy="134" r="12" fill="white"/>
<circle cx="167" cy="172" r="12" fill="white"/>
<circle cx="197" cy="205" r="12" fill="white"/>
<circle cx="228" cy="239" r="12" fill="white"/>
<path d="M110.586 133.586C109.805 134.367 109.805 135.633 110.586 136.414L123.314 149.142C124.095 149.923 125.361 149.923 126.142 149.142C126.923 148.361 126.923 147.095 126.142 146.314L114.828 135L126.142 123.686C126.923 122.905 126.923 121.639 126.142 120.858C125.361 120.077 124.095 120.077 123.314 120.858L110.586 133.586ZM163 135L163 133L112 133L112 135L112 137L163 137L163 135Z" fill="white"/>
<path d="M21.5858 133.586C20.8047 134.367 20.8047 135.633 21.5858 136.414L34.3137 149.142C35.0948 149.923 36.3611 149.923 37.1421 149.142C37.9232 148.361 37.9232 147.095 37.1421 146.314L25.8284 135L37.1421 123.686C37.9232 122.905 37.9232 121.639 37.1421 120.858C36.3611 120.077 35.0948 120.077 34.3137 120.858L21.5858 133.586ZM94 135L94 133L23 133L23 135L23 137L94 137L94 135Z" fill="white"/>
<circle cx="142" cy="134" r="13" fill="black" stroke="#FF6363" stroke-width="2"/>
<circle cx="61" cy="134" r="13" fill="black" stroke="#FF6363" stroke-width="2"/>
</svg>
