<svg width="281" height="270" viewBox="0 0 281 270" fill="none" xmlns="http://www.w3.org/2000/svg">
<rect x="148.641" y="132.244" width="5.09434" height="5.5102" fill="#A1A1A1"/>
<rect x="153.734" y="132.244" width="5.09434" height="5.5102" fill="#A1A1A1"/>
<rect x="128.266" y="137.756" width="5.09434" height="5.5102" transform="rotate(180 128.266 137.756)" fill="#A1A1A1"/>
<rect x="158.828" y="132.244" width="5.09434" height="5.5102" fill="#A1A1A1"/>
<rect x="123.172" y="137.756" width="5.09434" height="5.5102" transform="rotate(180 123.172 137.756)" fill="#A1A1A1"/>
<rect x="163.922" y="132.244" width="5.09434" height="5.5102" fill="#A1A1A1"/>
<rect x="118.078" y="137.756" width="5.09434" height="5.5102" transform="rotate(180 118.078 137.756)" fill="#A1A1A1"/>
<rect x="184.305" y="132.244" width="5.09434" height="5.5102" fill="#A1A1A1"/>
<rect x="194.492" y="132.244" width="5.09434" height="5.5102" fill="#A1A1A1"/>
<rect x="204.68" y="132.244" width="5.09434" height="5.5102" fill="#A1A1A1"/>
<rect x="97.6953" y="137.756" width="5.09434" height="5.5102" transform="rotate(180 97.6953 137.756)" fill="#A1A1A1"/>
<rect x="87.5078" y="137.756" width="5.09434" height="5.5102" transform="rotate(180 87.5078 137.756)" fill="#A1A1A1"/>
<rect x="77.3203" y="137.756" width="5.09434" height="5.5102" transform="rotate(180 77.3203 137.756)" fill="#A1A1A1"/>
<rect x="189.398" y="132.244" width="5.09434" height="5.5102" fill="#A1A1A1"/>
<rect x="199.586" y="132.244" width="5.09434" height="5.5102" fill="#A1A1A1"/>
<rect x="209.773" y="132.244" width="5.09434" height="5.5102" fill="#A1A1A1"/>
<rect x="235.242" y="132.244" width="5.09434" height="5.5102" fill="#A1A1A1"/>
<rect x="230.148" y="132.244" width="5.09434" height="5.5102" fill="#A1A1A1"/>
<rect x="204.68" y="192.857" width="5.09434" height="5.5102" fill="#A1A1A1"/>
<rect x="240.344" y="132.244" width="5.09434" height="5.5102" fill="#A1A1A1"/>
<rect x="92.6016" y="137.756" width="5.09434" height="5.5102" transform="rotate(180 92.6016 137.756)" fill="#A1A1A1"/>
<rect x="82.4141" y="137.756" width="5.09434" height="5.5102" transform="rotate(180 82.4141 137.756)" fill="#A1A1A1"/>
<rect x="72.2266" y="137.756" width="5.09434" height="5.5102" transform="rotate(180 72.2266 137.756)" fill="#A1A1A1"/>
<rect x="245.438" y="132.244" width="5.09434" height="5.5102" fill="#A1A1A1"/>
<rect x="36.5625" y="137.756" width="5.09434" height="5.5102" transform="rotate(180 36.5625 137.756)" fill="#A1A1A1"/>
<rect x="46.7578" y="137.756" width="5.09434" height="5.5102" transform="rotate(180 46.7578 137.756)" fill="#A1A1A1"/>
<rect x="51.8516" y="137.756" width="5.09434" height="5.5102" transform="rotate(180 51.8516 137.756)" fill="#A1A1A1"/>
<rect x="250.531" y="132.244" width="5.09434" height="5.5102" fill="#A1A1A1"/>
<rect x="31.4688" y="137.756" width="5.09434" height="5.5102" transform="rotate(180 31.4688 137.756)" fill="#A1A1A1"/>
<rect x="41.6562" y="137.756" width="5.09434" height="5.5102" transform="rotate(180 41.6562 137.756)" fill="#A1A1A1"/>
<rect x="255.625" y="132.244" width="5.09434" height="5.5102" fill="#A1A1A1"/>
<rect x="26.375" y="137.756" width="5.09434" height="5.5102" transform="rotate(180 26.375 137.756)" fill="#A1A1A1"/>
<rect x="138.453" y="126.734" width="5.5102" height="5.09434" transform="rotate(90 138.453 126.734)" fill="#A1A1A1"/>
<rect x="138.453" y="137.756" width="5.5102" height="5.09434" transform="rotate(90 138.453 137.756)" fill="#A1A1A1"/>
<rect x="133.359" y="132.244" width="5.5102" height="5.09434" transform="rotate(90 133.359 132.244)" fill="#A1A1A1"/>
<rect x="143.547" y="121.225" width="5.5102" height="5.09434" transform="rotate(90 143.547 121.225)" fill="#A1A1A1"/>
<rect x="148.641" y="137.756" width="5.5102" height="5.09434" transform="rotate(90 148.641 137.756)" fill="#A1A1A1"/>
<rect x="143.547" y="143.266" width="5.5102" height="5.09434" transform="rotate(90 143.547 143.266)" fill="#A1A1A1"/>
<rect x="143.547" y="126.734" width="5.09434" height="5.5102" fill="#A1A1A1"/>
<rect x="158.828" y="104.693" width="5.5102" height="5.09434" transform="rotate(90 158.828 104.693)" fill="#A1A1A1"/>
<rect x="123.172" y="165.307" width="5.5102" height="5.09434" transform="rotate(-90 123.172 165.307)" fill="#A1A1A1"/>
<rect x="153.734" y="110.203" width="5.5102" height="5.09434" transform="rotate(90 153.734 110.203)" fill="#A1A1A1"/>
<rect x="128.266" y="159.797" width="5.5102" height="5.09434" transform="rotate(-90 128.266 159.797)" fill="#A1A1A1"/>
<rect x="189.398" y="71.6328" width="5.5102" height="5.09434" transform="rotate(90 189.398 71.6328)" fill="#A1A1A1"/>
<rect x="92.6016" y="198.367" width="5.5102" height="5.09434" transform="rotate(-90 92.6016 198.367)" fill="#A1A1A1"/>
<rect x="209.773" y="49.5918" width="5.5102" height="5.09434" transform="rotate(90 209.773 49.5918)" fill="#A1A1A1"/>
<rect x="72.2266" y="220.408" width="5.5102" height="5.09434" transform="rotate(-90 72.2266 220.408)" fill="#A1A1A1"/>
<rect x="214.867" y="44.082" width="5.5102" height="5.09434" transform="rotate(90 214.867 44.082)" fill="#A1A1A1"/>
<rect x="67.1328" y="225.918" width="5.5102" height="5.09434" transform="rotate(-90 67.1328 225.918)" fill="#A1A1A1"/>
<rect x="219.961" y="38.5723" width="5.5102" height="5.09434" transform="rotate(90 219.961 38.5723)" fill="#A1A1A1"/>
<rect x="62.0391" y="231.428" width="5.5102" height="5.09434" transform="rotate(-90 62.0391 231.428)" fill="#A1A1A1"/>
<rect x="62.0391" y="253.469" width="5.5102" height="5.09434" transform="rotate(-90 62.0391 253.469)" fill="#A1A1A1"/>
<rect width="5.51018" height="5.09437" transform="matrix(-0.00736539 0.999973 -0.999963 -0.00861689 220 16.5742)" fill="#A1A1A1"/>
<rect width="5.51018" height="5.09437" transform="matrix(-0.00736539 0.999973 -0.999963 -0.00861689 240.383 38.6152)" fill="#A1A1A1"/>
<rect width="5.51018" height="5.09437" transform="matrix(-0.00736539 0.999973 -0.999963 -0.00861689 245.477 44.125)" fill="#A1A1A1"/>
<rect width="5.51018" height="5.09437" transform="matrix(0.00736538 -0.999973 0.999963 0.00861689 36.5625 225.912)" fill="#A1A1A1"/>
<rect width="5.51018" height="5.09437" transform="matrix(0.00736538 -0.999973 0.999963 0.00861689 41.6562 231.428)" fill="#A1A1A1"/>
<rect width="5.51018" height="5.09437" transform="matrix(-0.00736539 0.999973 -0.999963 -0.00861689 250.57 49.6348)" fill="#A1A1A1"/>
<rect width="5.51018" height="5.09437" transform="matrix(0.00736538 -0.999973 0.999963 0.00861689 31.4688 220.408)" fill="#A1A1A1"/>
<rect width="5.51018" height="5.09437" transform="matrix(-0.00736539 0.999973 -0.999963 -0.00861689 270.945 121.268)" fill="#A1A1A1"/>
<rect width="5.51018" height="5.09437" transform="matrix(0.00736538 -0.999973 0.999963 0.00861689 11.0938 148.775)" fill="#A1A1A1"/>
<rect width="5.51018" height="5.09437" transform="matrix(-0.00736539 0.999973 -0.999963 -0.00861689 270.945 115.758)" fill="#A1A1A1"/>
<rect width="5.51018" height="5.09437" transform="matrix(0.00736538 -0.999973 0.999963 0.00861689 11.0938 154.285)" fill="#A1A1A1"/>
<rect width="5.51018" height="5.09437" transform="matrix(-0.00736539 0.999973 -0.999963 -0.00861689 270.945 110.248)" fill="#A1A1A1"/>
<rect width="5.51018" height="5.09437" transform="matrix(0.00736538 -0.999973 0.999963 0.00861689 11.0938 159.797)" fill="#A1A1A1"/>
<rect width="5.51018" height="5.09437" transform="matrix(-0.00736539 0.999973 -0.999963 -0.00861689 270.945 104.736)" fill="#A1A1A1"/>
<rect width="5.51018" height="5.09437" transform="matrix(0.00736538 -0.999973 0.999963 0.00861689 11.0938 165.307)" fill="#A1A1A1"/>
<rect width="5.51018" height="5.09437" transform="matrix(-0.00736539 0.999973 -0.999963 -0.00861689 270.945 99.2266)" fill="#A1A1A1"/>
<rect width="5.51018" height="5.09437" transform="matrix(0.00736538 -0.999973 0.999963 0.00861689 11.0938 170.816)" fill="#A1A1A1"/>
<rect width="5.51018" height="5.09437" transform="matrix(-0.00736539 0.999973 -0.999963 -0.00861689 270.945 93.7168)" fill="#A1A1A1"/>
<rect width="5.51018" height="5.09437" transform="matrix(0.00736538 -0.999973 0.999963 0.00861689 11.0938 176.32)" fill="#A1A1A1"/>
<rect width="5.51018" height="5.09437" transform="matrix(-0.00736539 0.999973 -0.999963 -0.00861689 270.945 88.207)" fill="#A1A1A1"/>
<rect width="5.51018" height="5.09437" transform="matrix(0.00736538 -0.999973 0.999963 0.00861689 11.0938 181.832)" fill="#A1A1A1"/>
<rect width="5.51018" height="5.09437" transform="matrix(-0.00736539 0.999973 -0.999963 -0.00861689 270.945 82.6953)" fill="#A1A1A1"/>
<rect width="5.51018" height="5.09437" transform="matrix(0.00736538 -0.999973 0.999963 0.00861689 11.0938 187.342)" fill="#A1A1A1"/>
<rect width="5.51018" height="5.09437" transform="matrix(-0.00736539 0.999973 -0.999963 -0.00861689 270.945 77.1855)" fill="#A1A1A1"/>
<rect width="5.51018" height="5.09437" transform="matrix(0.00736538 -0.999973 0.999963 0.00861689 11.0938 192.852)" fill="#A1A1A1"/>
<rect width="5.51018" height="5.09437" transform="matrix(-0.00736539 0.999973 -0.999963 -0.00861689 270.945 71.6758)" fill="#A1A1A1"/>
<rect width="5.51018" height="5.09437" transform="matrix(0.00736538 -0.999973 0.999963 0.00861689 11.0938 198.361)" fill="#A1A1A1"/>
<rect width="5.51018" height="5.09437" transform="matrix(-0.00736539 0.999973 -0.999963 -0.00861689 255.664 55.1445)" fill="#A1A1A1"/>
<rect width="5.51018" height="5.09437" transform="matrix(0.00736538 -0.999973 0.999963 0.00861689 26.375 214.898)" fill="#A1A1A1"/>
<rect width="5.51018" height="5.09437" transform="matrix(-0.00736539 0.999973 -0.999963 -0.00861689 260.758 60.6562)" fill="#A1A1A1"/>
<rect width="5.51018" height="5.09437" transform="matrix(0.00736538 -0.999973 0.999963 0.00861689 21.2812 209.389)" fill="#A1A1A1"/>
<rect width="5.51018" height="5.09437" transform="matrix(-0.00736539 0.999973 -0.999963 -0.00861689 265.852 66.166)" fill="#A1A1A1"/>
<rect width="5.51018" height="5.09437" transform="matrix(0.00736538 -0.999973 0.999963 0.00861689 16.1875 203.873)" fill="#A1A1A1"/>
<rect x="67.1328" y="258.98" width="5.5102" height="5.09434" transform="rotate(-90 67.1328 258.98)" fill="#A1A1A1"/>
<rect width="5.51018" height="5.09437" transform="matrix(-0.00736539 0.999973 -0.999963 -0.00861689 214.906 11.0625)" fill="#A1A1A1"/>
<rect x="72.2266" y="264.49" width="5.5102" height="5.09434" transform="rotate(-90 72.2266 264.49)" fill="#A1A1A1"/>
<rect width="5.51018" height="5.09437" transform="matrix(-0.00736539 0.999973 -0.999963 -0.00861689 209.812 5.55273)" fill="#A1A1A1"/>
<rect x="214.867" y="253.469" width="5.5102" height="5.09434" transform="rotate(-90 214.867 253.469)" fill="#A1A1A1"/>
<rect width="5.51018" height="5.09437" transform="matrix(-0.00736539 0.999973 -0.999963 -0.00861689 67.1719 16.4453)" fill="#A1A1A1"/>
<rect x="209.773" y="258.98" width="5.5102" height="5.09434" transform="rotate(-90 209.773 258.98)" fill="#A1A1A1"/>
<rect width="5.51018" height="5.09437" transform="matrix(-0.00736539 0.999973 -0.999963 -0.00861689 72.3047 10.9727)" fill="#A1A1A1"/>
<rect x="204.68" y="264.49" width="5.5102" height="5.09434" transform="rotate(-90 204.68 264.49)" fill="#A1A1A1"/>
<rect width="5.51018" height="5.09437" transform="matrix(-0.00736539 0.999973 -0.999963 -0.00861689 77.4375 5.50977)" fill="#A1A1A1"/>
<rect x="148.641" y="115.715" width="5.5102" height="5.09434" transform="rotate(90 148.641 115.715)" fill="#A1A1A1"/>
<rect x="133.359" y="154.285" width="5.5102" height="5.09434" transform="rotate(-90 133.359 154.285)" fill="#A1A1A1"/>
<rect x="184.305" y="77.1426" width="5.5102" height="5.09434" transform="rotate(90 184.305 77.1426)" fill="#A1A1A1"/>
<rect x="97.6953" y="192.857" width="5.5102" height="5.09434" transform="rotate(-90 97.6953 192.857)" fill="#A1A1A1"/>
<rect x="179.211" y="82.6523" width="5.5102" height="5.09434" transform="rotate(90 179.211 82.6523)" fill="#A1A1A1"/>
<rect x="102.789" y="187.348" width="5.5102" height="5.09434" transform="rotate(-90 102.789 187.348)" fill="#A1A1A1"/>
<rect x="67.1328" y="38.5723" width="5.5102" height="5.09434" transform="rotate(90 67.1328 38.5723)" fill="#A1A1A1"/>
<rect x="214.867" y="231.428" width="5.5102" height="5.09434" transform="rotate(-90 214.867 231.428)" fill="#A1A1A1"/>
<rect x="128.266" y="104.693" width="5.5102" height="5.09434" transform="rotate(90 128.266 104.693)" fill="#A1A1A1"/>
<rect x="128.266" y="93.6738" width="5.5102" height="5.09434" transform="rotate(90 128.266 93.6738)" fill="#A1A1A1"/>
<rect x="138.453" y="38.5723" width="5.5102" height="5.09434" transform="rotate(90 138.453 38.5723)" fill="#A1A1A1"/>
<rect x="143.547" y="231.428" width="5.5102" height="5.09434" transform="rotate(-90 143.547 231.428)" fill="#A1A1A1"/>
<rect x="128.266" y="170.816" width="5.5102" height="5.09434" transform="rotate(90 128.266 170.816)" fill="#A1A1A1"/>
<rect x="133.359" y="93.6738" width="5.5102" height="5.09434" transform="rotate(90 133.359 93.6738)" fill="#A1A1A1"/>
<rect x="107.891" y="38.5723" width="5.5102" height="5.09434" transform="rotate(90 107.891 38.5723)" fill="#A1A1A1"/>
<rect x="174.109" y="231.428" width="5.5102" height="5.09434" transform="rotate(-90 174.109 231.428)" fill="#A1A1A1"/>
<rect x="143.547" y="38.5723" width="5.5102" height="5.09434" transform="rotate(90 143.547 38.5723)" fill="#A1A1A1"/>
<rect x="138.453" y="231.428" width="5.5102" height="5.09434" transform="rotate(-90 138.453 231.428)" fill="#A1A1A1"/>
<rect x="133.359" y="170.816" width="5.5102" height="5.09434" transform="rotate(90 133.359 170.816)" fill="#A1A1A1"/>
<rect x="138.453" y="93.6738" width="5.5102" height="5.09434" transform="rotate(90 138.453 93.6738)" fill="#A1A1A1"/>
<rect x="112.984" y="38.5723" width="5.5102" height="5.09434" transform="rotate(90 112.984 38.5723)" fill="#A1A1A1"/>
<rect x="169.016" y="231.428" width="5.5102" height="5.09434" transform="rotate(-90 169.016 231.428)" fill="#A1A1A1"/>
<rect x="148.641" y="38.5723" width="5.5102" height="5.09434" transform="rotate(90 148.641 38.5723)" fill="#A1A1A1"/>
<rect x="133.359" y="231.428" width="5.5102" height="5.09434" transform="rotate(-90 133.359 231.428)" fill="#A1A1A1"/>
<rect x="138.453" y="170.816" width="5.5102" height="5.09434" transform="rotate(90 138.453 170.816)" fill="#A1A1A1"/>
<rect x="143.547" y="93.6738" width="5.5102" height="5.09434" transform="rotate(90 143.547 93.6738)" fill="#A1A1A1"/>
<rect x="118.078" y="38.5723" width="5.5102" height="5.09434" transform="rotate(90 118.078 38.5723)" fill="#A1A1A1"/>
<rect x="163.922" y="231.428" width="5.5102" height="5.09434" transform="rotate(-90 163.922 231.428)" fill="#A1A1A1"/>
<rect x="153.734" y="38.5723" width="5.5102" height="5.09434" transform="rotate(90 153.734 38.5723)" fill="#A1A1A1"/>
<rect x="128.266" y="231.428" width="5.5102" height="5.09434" transform="rotate(-90 128.266 231.428)" fill="#A1A1A1"/>
<rect x="143.547" y="170.816" width="5.5102" height="5.09434" transform="rotate(90 143.547 170.816)" fill="#A1A1A1"/>
<rect x="148.641" y="93.6738" width="5.5102" height="5.09434" transform="rotate(90 148.641 93.6738)" fill="#A1A1A1"/>
<rect x="123.172" y="38.5723" width="5.5102" height="5.09434" transform="rotate(90 123.172 38.5723)" fill="#A1A1A1"/>
<rect x="158.828" y="231.428" width="5.5102" height="5.09434" transform="rotate(-90 158.828 231.428)" fill="#A1A1A1"/>
<rect x="158.828" y="38.5723" width="5.5102" height="5.09434" transform="rotate(90 158.828 38.5723)" fill="#A1A1A1"/>
<rect x="123.172" y="231.428" width="5.5102" height="5.09434" transform="rotate(-90 123.172 231.428)" fill="#A1A1A1"/>
<rect x="174.109" y="38.5723" width="5.5102" height="5.09434" transform="rotate(90 174.109 38.5723)" fill="#A1A1A1"/>
<rect x="107.891" y="231.428" width="5.5102" height="5.09434" transform="rotate(-90 107.891 231.428)" fill="#A1A1A1"/>
<rect x="148.641" y="170.816" width="5.5102" height="5.09434" transform="rotate(90 148.641 170.816)" fill="#A1A1A1"/>
<rect x="153.734" y="93.6738" width="5.5102" height="5.09434" transform="rotate(90 153.734 93.6738)" fill="#A1A1A1"/>
<rect x="128.266" y="38.5723" width="5.5102" height="5.09434" transform="rotate(90 128.266 38.5723)" fill="#A1A1A1"/>
<rect x="153.734" y="231.428" width="5.5102" height="5.09434" transform="rotate(-90 153.734 231.428)" fill="#A1A1A1"/>
<rect x="163.922" y="38.5723" width="5.5102" height="5.09434" transform="rotate(90 163.922 38.5723)" fill="#A1A1A1"/>
<rect x="118.078" y="231.428" width="5.5102" height="5.09434" transform="rotate(-90 118.078 231.428)" fill="#A1A1A1"/>
<rect x="179.211" y="38.5723" width="5.5102" height="5.09434" transform="rotate(90 179.211 38.5723)" fill="#A1A1A1"/>
<rect x="102.789" y="231.428" width="5.5102" height="5.09434" transform="rotate(-90 102.789 231.428)" fill="#A1A1A1"/>
<rect x="153.734" y="170.816" width="5.5102" height="5.09434" transform="rotate(90 153.734 170.816)" fill="#A1A1A1"/>
<rect x="158.828" y="93.6738" width="5.5102" height="5.09434" transform="rotate(90 158.828 93.6738)" fill="#A1A1A1"/>
<rect x="133.359" y="38.5723" width="5.5102" height="5.09434" transform="rotate(90 133.359 38.5723)" fill="#A1A1A1"/>
<rect x="148.641" y="231.428" width="5.5102" height="5.09434" transform="rotate(-90 148.641 231.428)" fill="#A1A1A1"/>
<rect x="169.016" y="38.5723" width="5.5102" height="5.09434" transform="rotate(90 169.016 38.5723)" fill="#A1A1A1"/>
<rect x="112.984" y="231.428" width="5.5102" height="5.09434" transform="rotate(-90 112.984 231.428)" fill="#A1A1A1"/>
<rect x="158.828" y="170.816" width="5.5102" height="5.09434" transform="rotate(90 158.828 170.816)" fill="#A1A1A1"/>
<rect x="179.211" y="104.693" width="5.5102" height="5.09434" transform="rotate(90 179.211 104.693)" fill="#A1A1A1"/>
<rect x="179.211" y="110.203" width="5.5102" height="5.09434" transform="rotate(90 179.211 110.203)" fill="#A1A1A1"/>
<rect x="179.211" y="115.715" width="5.5102" height="5.09434" transform="rotate(90 179.211 115.715)" fill="#A1A1A1"/>
<rect x="179.211" y="121.225" width="5.5102" height="5.09434" transform="rotate(90 179.211 121.225)" fill="#A1A1A1"/>
<rect x="179.211" y="143.266" width="5.5102" height="5.09434" transform="rotate(90 179.211 143.266)" fill="#A1A1A1"/>
<rect x="179.211" y="148.775" width="5.5102" height="5.09434" transform="rotate(90 179.211 148.775)" fill="#A1A1A1"/>
<rect x="179.211" y="154.285" width="5.5102" height="5.09434" transform="rotate(90 179.211 154.285)" fill="#A1A1A1"/>
<rect x="179.211" y="159.797" width="5.5102" height="5.09434" transform="rotate(90 179.211 159.797)" fill="#A1A1A1"/>
<rect x="107.891" y="159.797" width="5.5102" height="5.09434" transform="rotate(90 107.891 159.797)" fill="#A1A1A1"/>
<rect x="107.891" y="154.285" width="5.5102" height="5.09434" transform="rotate(90 107.891 154.285)" fill="#A1A1A1"/>
<rect x="107.891" y="148.775" width="5.5102" height="5.09434" transform="rotate(90 107.891 148.775)" fill="#A1A1A1"/>
<rect x="107.891" y="143.266" width="5.5102" height="5.09434" transform="rotate(90 107.891 143.266)" fill="#A1A1A1"/>
<rect x="107.891" y="121.225" width="5.5102" height="5.09434" transform="rotate(90 107.891 121.225)" fill="#A1A1A1"/>
<rect x="107.891" y="115.715" width="5.5102" height="5.09434" transform="rotate(90 107.891 115.715)" fill="#A1A1A1"/>
<rect x="107.891" y="110.203" width="5.5102" height="5.09434" transform="rotate(90 107.891 110.203)" fill="#A1A1A1"/>
<rect x="107.891" y="104.693" width="5.5102" height="5.09434" transform="rotate(90 107.891 104.693)" fill="#A1A1A1"/>
<rect x="153.734" y="165.307" width="5.5102" height="5.09434" transform="rotate(-90 153.734 165.307)" fill="#A1A1A1"/>
<rect x="72.2266" y="44.082" width="5.5102" height="5.09434" transform="rotate(90 72.2266 44.082)" fill="#A1A1A1"/>
<rect x="209.773" y="225.918" width="5.5102" height="5.09434" transform="rotate(-90 209.773 225.918)" fill="#A1A1A1"/>
<rect x="133.359" y="110.203" width="5.5102" height="5.09434" transform="rotate(90 133.359 110.203)" fill="#A1A1A1"/>
<rect x="148.641" y="159.797" width="5.5102" height="5.09434" transform="rotate(-90 148.641 159.797)" fill="#A1A1A1"/>
<rect x="77.3203" y="49.5918" width="5.5102" height="5.09434" transform="rotate(90 77.3203 49.5918)" fill="#A1A1A1"/>
<rect x="204.68" y="220.408" width="5.5102" height="5.09434" transform="rotate(-90 204.68 220.408)" fill="#A1A1A1"/>
<rect x="138.453" y="115.715" width="5.5102" height="5.09434" transform="rotate(90 138.453 115.715)" fill="#A1A1A1"/>
<rect x="143.547" y="154.285" width="5.5102" height="5.09434" transform="rotate(-90 143.547 154.285)" fill="#A1A1A1"/>
<rect x="97.6953" y="71.6328" width="5.5102" height="5.09434" transform="rotate(90 97.6953 71.6328)" fill="#A1A1A1"/>
<rect x="184.305" y="198.367" width="5.5102" height="5.09434" transform="rotate(-90 184.305 198.367)" fill="#A1A1A1"/>
<rect x="143.547" y="121.225" width="5.5102" height="5.09434" transform="rotate(90 143.547 121.225)" fill="#A1A1A1"/>
<rect x="102.789" y="77.1426" width="5.5102" height="5.09434" transform="rotate(90 102.789 77.1426)" fill="#A1A1A1"/>
<rect x="179.211" y="192.857" width="5.5102" height="5.09434" transform="rotate(-90 179.211 192.857)" fill="#A1A1A1"/>
<rect x="107.891" y="82.6523" width="5.5102" height="5.09434" transform="rotate(90 107.891 82.6523)" fill="#A1A1A1"/>
<rect x="174.109" y="187.348" width="5.5102" height="5.09434" transform="rotate(-90 174.109 187.348)" fill="#A1A1A1"/>
<rect x="270.906" y="126.734" width="5.5102" height="5.09434" transform="rotate(90 270.906 126.734)" fill="#A1A1A1"/>
<rect x="199.586" y="55.1016" width="5.5102" height="5.09434" transform="rotate(90 199.586 55.1016)" fill="#A1A1A1"/>
<rect x="82.4141" y="214.898" width="5.5102" height="5.09434" transform="rotate(-90 82.4141 214.898)" fill="#A1A1A1"/>
<rect x="230.148" y="22.041" width="5.5102" height="5.09434" transform="rotate(90 230.148 22.041)" fill="#A1A1A1"/>
<rect x="51.8516" y="247.959" width="5.5102" height="5.09434" transform="rotate(-90 51.8516 247.959)" fill="#A1A1A1"/>
<rect x="56.9453" y="22.041" width="5.5102" height="5.09434" transform="rotate(90 56.9453 22.041)" fill="#A1A1A1"/>
<rect x="225.055" y="247.959" width="5.5102" height="5.09434" transform="rotate(-90 225.055 247.959)" fill="#A1A1A1"/>
<rect x="87.5078" y="55.1016" width="5.5102" height="5.09434" transform="rotate(90 87.5078 55.1016)" fill="#A1A1A1"/>
<rect x="194.492" y="214.898" width="5.5102" height="5.09434" transform="rotate(-90 194.492 214.898)" fill="#A1A1A1"/>
<rect x="118.078" y="88.1641" width="5.5102" height="5.09434" transform="rotate(90 118.078 88.1641)" fill="#A1A1A1"/>
<rect x="163.922" y="181.836" width="5.5102" height="5.09434" transform="rotate(-90 163.922 181.836)" fill="#A1A1A1"/>
<rect x="169.016" y="88.1641" width="5.5102" height="5.09434" transform="rotate(90 169.016 88.1641)" fill="#A1A1A1"/>
<rect x="112.984" y="181.836" width="5.5102" height="5.09434" transform="rotate(-90 112.984 181.836)" fill="#A1A1A1"/>
<rect x="11.0938" y="143.266" width="5.5102" height="5.09434" transform="rotate(-90 11.0938 143.266)" fill="#A1A1A1"/>
<rect x="225.055" y="126.734" width="5.5102" height="5.09434" transform="rotate(90 225.055 126.734)" fill="#A1A1A1"/>
<rect x="56.9453" y="143.266" width="5.5102" height="5.09434" transform="rotate(-90 56.9453 143.266)" fill="#A1A1A1"/>
<rect x="179.211" y="126.734" width="5.5102" height="5.09434" transform="rotate(90 179.211 126.734)" fill="#A1A1A1"/>
<rect x="102.789" y="143.266" width="5.5102" height="5.09434" transform="rotate(-90 102.789 143.266)" fill="#A1A1A1"/>
<rect x="265.812" y="137.756" width="5.09434" height="5.5102" transform="rotate(180 265.812 137.756)" fill="#A1A1A1"/>
<rect x="194.492" y="66.123" width="5.09434" height="5.5102" transform="rotate(180 194.492 66.123)" fill="#A1A1A1"/>
<rect x="87.5078" y="203.877" width="5.09434" height="5.5102" fill="#A1A1A1"/>
<rect x="225.055" y="33.0605" width="5.09434" height="5.5102" transform="rotate(180 225.055 33.0605)" fill="#A1A1A1"/>
<rect x="56.9453" y="236.939" width="5.09434" height="5.5102" fill="#A1A1A1"/>
<rect x="51.8516" y="33.0605" width="5.09434" height="5.5102" transform="rotate(180 51.8516 33.0605)" fill="#A1A1A1"/>
<rect x="51.8516" y="27.5508" width="5.09434" height="5.5102" transform="rotate(180 51.8516 27.5508)" fill="#A1A1A1"/>
<rect x="230.148" y="236.939" width="5.09434" height="5.5102" fill="#A1A1A1"/>
<rect x="82.4141" y="66.123" width="5.09434" height="5.5102" transform="rotate(180 82.4141 66.123)" fill="#A1A1A1"/>
<rect x="199.586" y="203.877" width="5.09434" height="5.5102" fill="#A1A1A1"/>
<rect x="112.984" y="99.1836" width="5.09434" height="5.5102" transform="rotate(180 112.984 99.1836)" fill="#A1A1A1"/>
<rect x="169.016" y="170.816" width="5.09434" height="5.5102" fill="#A1A1A1"/>
<rect x="163.922" y="99.1836" width="5.09434" height="5.5102" transform="rotate(180 163.922 99.1836)" fill="#A1A1A1"/>
<rect x="118.078" y="170.816" width="5.09434" height="5.5102" fill="#A1A1A1"/>
<rect x="16.1875" y="132.244" width="5.09434" height="5.5102" fill="#A1A1A1"/>
<rect x="219.961" y="137.756" width="5.09434" height="5.5102" transform="rotate(180 219.961 137.756)" fill="#A1A1A1"/>
<rect x="62.0391" y="132.244" width="5.09434" height="5.5102" fill="#A1A1A1"/>
<rect x="174.109" y="137.756" width="5.09434" height="5.5102" transform="rotate(180 174.109 137.756)" fill="#A1A1A1"/>
<rect x="107.891" y="132.244" width="5.09434" height="5.5102" fill="#A1A1A1"/>
<rect x="265.812" y="132.244" width="5.09434" height="5.5102" transform="rotate(180 265.812 132.244)" fill="#A1A1A1"/>
<rect x="194.492" y="60.6113" width="5.09434" height="5.5102" transform="rotate(180 194.492 60.6113)" fill="#A1A1A1"/>
<rect x="189.398" y="55.1016" width="5.09434" height="5.5102" transform="rotate(180 189.398 55.1016)" fill="#A1A1A1"/>
<rect x="92.6016" y="214.898" width="5.09434" height="5.5102" fill="#A1A1A1"/>
<rect x="184.305" y="49.5918" width="5.09434" height="5.5102" transform="rotate(180 184.305 49.5918)" fill="#A1A1A1"/>
<rect x="97.6953" y="220.408" width="5.09434" height="5.5102" fill="#A1A1A1"/>
<rect x="87.5078" y="209.389" width="5.09434" height="5.5102" fill="#A1A1A1"/>
<rect x="225.055" y="27.5508" width="5.09434" height="5.5102" transform="rotate(180 225.055 27.5508)" fill="#A1A1A1"/>
<rect x="56.9453" y="242.449" width="5.09434" height="5.5102" fill="#A1A1A1"/>
<rect x="230.148" y="242.449" width="5.09434" height="5.5102" fill="#A1A1A1"/>
<rect x="82.4141" y="60.6113" width="5.09434" height="5.5102" transform="rotate(180 82.4141 60.6113)" fill="#A1A1A1"/>
<rect x="199.586" y="209.389" width="5.09434" height="5.5102" fill="#A1A1A1"/>
<rect x="112.984" y="93.6738" width="5.09434" height="5.5102" transform="rotate(180 112.984 93.6738)" fill="#A1A1A1"/>
<rect x="169.016" y="176.326" width="5.09434" height="5.5102" fill="#A1A1A1"/>
<rect x="163.922" y="93.6738" width="5.09434" height="5.5102" transform="rotate(180 163.922 93.6738)" fill="#A1A1A1"/>
<rect x="118.078" y="176.326" width="5.09434" height="5.5102" fill="#A1A1A1"/>
<rect x="16.1875" y="137.756" width="5.09434" height="5.5102" fill="#A1A1A1"/>
<rect x="219.961" y="132.244" width="5.09434" height="5.5102" transform="rotate(180 219.961 132.244)" fill="#A1A1A1"/>
<rect x="62.0391" y="137.756" width="5.09434" height="5.5102" fill="#A1A1A1"/>
<rect x="174.109" y="132.244" width="5.09434" height="5.5102" transform="rotate(180 174.109 132.244)" fill="#A1A1A1"/>
<rect x="107.891" y="137.756" width="5.09434" height="5.5102" fill="#A1A1A1"/>
<rect x="276" y="132.244" width="5.09434" height="5.5102" transform="rotate(180 276 132.244)" fill="#A1A1A1"/>
<rect x="204.68" y="60.6113" width="5.09434" height="5.5102" transform="rotate(180 204.68 60.6113)" fill="#A1A1A1"/>
<rect x="77.3203" y="209.389" width="5.09434" height="5.5102" fill="#A1A1A1"/>
<rect x="235.242" y="27.5508" width="5.09434" height="5.5102" transform="rotate(180 235.242 27.5508)" fill="#A1A1A1"/>
<rect x="46.7578" y="242.449" width="5.09434" height="5.5102" fill="#A1A1A1"/>
<rect x="62.0391" y="27.5508" width="5.09434" height="5.5102" transform="rotate(180 62.0391 27.5508)" fill="#A1A1A1"/>
<rect x="219.961" y="242.449" width="5.09434" height="5.5102" fill="#A1A1A1"/>
<rect x="92.6016" y="60.6113" width="5.09434" height="5.5102" transform="rotate(180 92.6016 60.6113)" fill="#A1A1A1"/>
<rect x="97.6953" y="55.1016" width="5.09434" height="5.5102" transform="rotate(180 97.6953 55.1016)" fill="#A1A1A1"/>
<rect x="184.305" y="214.898" width="5.09434" height="5.5102" fill="#A1A1A1"/>
<rect x="102.789" y="49.5918" width="5.09434" height="5.5102" transform="rotate(180 102.789 49.5918)" fill="#A1A1A1"/>
<rect x="179.211" y="220.408" width="5.09434" height="5.5102" fill="#A1A1A1"/>
<rect x="189.398" y="209.389" width="5.09434" height="5.5102" fill="#A1A1A1"/>
<rect x="123.172" y="93.6738" width="5.09434" height="5.5102" transform="rotate(180 123.172 93.6738)" fill="#A1A1A1"/>
<rect x="158.828" y="176.326" width="5.09434" height="5.5102" fill="#A1A1A1"/>
<rect x="174.109" y="93.6738" width="5.09434" height="5.5102" transform="rotate(180 174.109 93.6738)" fill="#A1A1A1"/>
<rect x="107.891" y="176.326" width="5.09434" height="5.5102" fill="#A1A1A1"/>
<rect x="6" y="137.756" width="5.09434" height="5.5102" fill="#A1A1A1"/>
<rect x="230.148" y="132.244" width="5.09434" height="5.5102" transform="rotate(180 230.148 132.244)" fill="#A1A1A1"/>
<rect x="51.8516" y="137.756" width="5.09434" height="5.5102" fill="#A1A1A1"/>
<rect x="184.305" y="132.244" width="5.09434" height="5.5102" transform="rotate(180 184.305 132.244)" fill="#A1A1A1"/>
<rect x="97.6953" y="137.756" width="5.09434" height="5.5102" fill="#A1A1A1"/>
<rect x="276" y="137.756" width="5.09434" height="5.5102" transform="rotate(180 276 137.756)" fill="#A1A1A1"/>
<rect x="204.68" y="66.123" width="5.09434" height="5.5102" transform="rotate(180 204.68 66.123)" fill="#A1A1A1"/>
<rect x="77.3203" y="203.877" width="5.09434" height="5.5102" fill="#A1A1A1"/>
<rect x="235.242" y="33.0605" width="5.09434" height="5.5102" transform="rotate(180 235.242 33.0605)" fill="#A1A1A1"/>
<rect x="46.7578" y="236.939" width="5.09434" height="5.5102" fill="#A1A1A1"/>
<rect x="62.0391" y="33.0605" width="5.09434" height="5.5102" transform="rotate(180 62.0391 33.0605)" fill="#A1A1A1"/>
<rect x="219.961" y="236.939" width="5.09434" height="5.5102" fill="#A1A1A1"/>
<rect x="92.6016" y="66.123" width="5.09434" height="5.5102" transform="rotate(180 92.6016 66.123)" fill="#A1A1A1"/>
<rect x="189.398" y="203.877" width="5.09434" height="5.5102" fill="#A1A1A1"/>
<rect x="123.172" y="99.1836" width="5.09434" height="5.5102" transform="rotate(180 123.172 99.1836)" fill="#A1A1A1"/>
<rect x="158.828" y="170.816" width="5.09434" height="5.5102" fill="#A1A1A1"/>
<rect x="174.109" y="99.1836" width="5.09434" height="5.5102" transform="rotate(180 174.109 99.1836)" fill="#A1A1A1"/>
<rect x="107.891" y="170.816" width="5.09434" height="5.5102" fill="#A1A1A1"/>
<rect x="6" y="132.244" width="5.09434" height="5.5102" fill="#A1A1A1"/>
<rect x="230.148" y="137.756" width="5.09434" height="5.5102" transform="rotate(180 230.148 137.756)" fill="#A1A1A1"/>
<rect x="51.8516" y="132.244" width="5.09434" height="5.5102" fill="#A1A1A1"/>
<rect x="184.305" y="137.756" width="5.09434" height="5.5102" transform="rotate(180 184.305 137.756)" fill="#A1A1A1"/>
<rect x="97.6953" y="132.244" width="5.09434" height="5.5102" fill="#A1A1A1"/>
<rect x="276" y="143.266" width="5.09434" height="5.5102" transform="rotate(180 276 143.266)" fill="#A1A1A1"/>
<rect x="204.68" y="71.6328" width="5.09434" height="5.5102" transform="rotate(180 204.68 71.6328)" fill="#A1A1A1"/>
<rect x="77.3203" y="198.367" width="5.09434" height="5.5102" fill="#A1A1A1"/>
<rect x="72.2266" y="192.857" width="5.09434" height="5.5102" fill="#A1A1A1"/>
<rect x="214.867" y="82.6523" width="5.09434" height="5.5102" transform="rotate(180 214.867 82.6523)" fill="#A1A1A1"/>
<rect x="209.773" y="77.1426" width="5.09434" height="5.5102" transform="rotate(180 209.773 77.1426)" fill="#A1A1A1"/>
<rect x="67.1328" y="187.348" width="5.09434" height="5.5102" fill="#A1A1A1"/>
<rect x="219.961" y="88.1641" width="5.09434" height="5.5102" transform="rotate(180 219.961 88.1641)" fill="#A1A1A1"/>
<rect x="62.0391" y="181.836" width="5.09434" height="5.5102" fill="#A1A1A1"/>
<rect x="225.055" y="93.6738" width="5.09434" height="5.5102" transform="rotate(180 225.055 93.6738)" fill="#A1A1A1"/>
<rect x="56.9453" y="176.326" width="5.09434" height="5.5102" fill="#A1A1A1"/>
<rect x="225.055" y="99.1836" width="5.09434" height="5.5102" transform="rotate(180 225.055 99.1836)" fill="#A1A1A1"/>
<rect x="56.9453" y="170.816" width="5.09434" height="5.5102" fill="#A1A1A1"/>
<rect x="225.055" y="104.693" width="5.09434" height="5.5102" transform="rotate(180 225.055 104.693)" fill="#A1A1A1"/>
<rect x="56.9453" y="165.307" width="5.09434" height="5.5102" fill="#A1A1A1"/>
<rect x="225.055" y="110.203" width="5.09434" height="5.5102" transform="rotate(180 225.055 110.203)" fill="#A1A1A1"/>
<rect x="56.9453" y="159.797" width="5.09434" height="5.5102" fill="#A1A1A1"/>
<rect x="225.055" y="115.715" width="5.09434" height="5.5102" transform="rotate(180 225.055 115.715)" fill="#A1A1A1"/>
<rect x="56.9453" y="154.285" width="5.09434" height="5.5102" fill="#A1A1A1"/>
<rect x="225.055" y="121.225" width="5.09434" height="5.5102" transform="rotate(180 225.055 121.225)" fill="#A1A1A1"/>
<rect x="56.9453" y="148.775" width="5.09434" height="5.5102" fill="#A1A1A1"/>
<rect x="225.055" y="126.734" width="5.09434" height="5.5102" transform="rotate(180 225.055 126.734)" fill="#A1A1A1"/>
<rect x="56.9453" y="143.266" width="5.09434" height="5.5102" fill="#A1A1A1"/>
<rect x="235.242" y="38.5723" width="5.09434" height="5.5102" transform="rotate(180 235.242 38.5723)" fill="#A1A1A1"/>
<rect x="46.7578" y="231.428" width="5.09434" height="5.5102" fill="#A1A1A1"/>
<rect x="62.0391" y="38.5723" width="5.09434" height="5.5102" transform="rotate(180 62.0391 38.5723)" fill="#A1A1A1"/>
<rect x="219.961" y="231.428" width="5.09434" height="5.5102" fill="#A1A1A1"/>
<rect x="92.6016" y="71.6328" width="5.09434" height="5.5102" transform="rotate(180 92.6016 71.6328)" fill="#A1A1A1"/>
<rect x="189.398" y="198.367" width="5.09434" height="5.5102" fill="#A1A1A1"/>
<rect x="123.172" y="104.693" width="5.09434" height="5.5102" transform="rotate(180 123.172 104.693)" fill="#A1A1A1"/>
<rect x="158.828" y="165.307" width="5.09434" height="5.5102" fill="#A1A1A1"/>
<rect x="174.109" y="104.693" width="5.09434" height="5.5102" transform="rotate(180 174.109 104.693)" fill="#A1A1A1"/>
<rect x="107.891" y="165.307" width="5.09434" height="5.5102" fill="#A1A1A1"/>
<rect x="6" y="126.734" width="5.09434" height="5.5102" fill="#A1A1A1"/>
<rect x="230.148" y="143.266" width="5.09434" height="5.5102" transform="rotate(180 230.148 143.266)" fill="#A1A1A1"/>
<rect x="51.8516" y="126.734" width="5.09434" height="5.5102" fill="#A1A1A1"/>
<rect x="184.305" y="143.266" width="5.09434" height="5.5102" transform="rotate(180 184.305 143.266)" fill="#A1A1A1"/>
<rect x="97.6953" y="126.734" width="5.09434" height="5.5102" fill="#A1A1A1"/>
<rect x="270.906" y="143.266" width="5.09434" height="5.5102" transform="rotate(180 270.906 143.266)" fill="#A1A1A1"/>
<rect x="199.586" y="71.6328" width="5.09434" height="5.5102" transform="rotate(180 199.586 71.6328)" fill="#A1A1A1"/>
<rect x="82.4141" y="198.367" width="5.09434" height="5.5102" fill="#A1A1A1"/>
<rect x="230.148" y="38.5723" width="5.09434" height="5.5102" transform="rotate(180 230.148 38.5723)" fill="#A1A1A1"/>
<rect x="51.8516" y="231.428" width="5.09434" height="5.5102" fill="#A1A1A1"/>
<rect x="56.9453" y="38.5723" width="5.09434" height="5.5102" transform="rotate(180 56.9453 38.5723)" fill="#A1A1A1"/>
<rect x="225.055" y="231.428" width="5.09434" height="5.5102" fill="#A1A1A1"/>
<rect x="87.5078" y="71.6328" width="5.09434" height="5.5102" transform="rotate(180 87.5078 71.6328)" fill="#A1A1A1"/>
<rect x="194.492" y="198.367" width="5.09434" height="5.5102" fill="#A1A1A1"/>
<rect x="118.078" y="104.693" width="5.09434" height="5.5102" transform="rotate(180 118.078 104.693)" fill="#A1A1A1"/>
<rect x="163.922" y="165.307" width="5.09434" height="5.5102" fill="#A1A1A1"/>
<rect x="169.016" y="104.693" width="5.09434" height="5.5102" transform="rotate(180 169.016 104.693)" fill="#A1A1A1"/>
<rect x="112.984" y="165.307" width="5.09434" height="5.5102" fill="#A1A1A1"/>
<rect x="11.0938" y="126.734" width="5.09434" height="5.5102" fill="#A1A1A1"/>
<rect x="225.055" y="143.266" width="5.09434" height="5.5102" transform="rotate(180 225.055 143.266)" fill="#A1A1A1"/>
<rect x="56.9453" y="126.734" width="5.09434" height="5.5102" fill="#A1A1A1"/>
<rect x="179.211" y="143.266" width="5.09434" height="5.5102" transform="rotate(180 179.211 143.266)" fill="#A1A1A1"/>
<rect x="102.789" y="126.734" width="5.09434" height="5.5102" fill="#A1A1A1"/>
<rect x="265.812" y="143.266" width="5.09434" height="5.5102" transform="rotate(180 265.812 143.266)" fill="#A1A1A1"/>
<rect x="194.492" y="71.6328" width="5.09434" height="5.5102" transform="rotate(180 194.492 71.6328)" fill="#A1A1A1"/>
<rect x="87.5078" y="198.367" width="5.09434" height="5.5102" fill="#A1A1A1"/>
<rect x="225.055" y="38.5723" width="5.09434" height="5.5102" transform="rotate(180 225.055 38.5723)" fill="#A1A1A1"/>
<rect x="56.9453" y="231.428" width="5.09434" height="5.5102" fill="#A1A1A1"/>
<rect x="51.8516" y="38.5723" width="5.09434" height="5.5102" transform="rotate(180 51.8516 38.5723)" fill="#A1A1A1"/>
<rect x="46.7578" y="44.082" width="5.09434" height="5.5102" transform="rotate(180 46.7578 44.082)" fill="#A1A1A1"/>
<rect x="235.242" y="225.918" width="5.09434" height="5.5102" fill="#A1A1A1"/>
<rect x="41.6562" y="49.5918" width="5.09434" height="5.5102" transform="rotate(180 41.6562 49.5918)" fill="#A1A1A1"/>
<rect x="240.344" y="220.408" width="5.09434" height="5.5102" fill="#A1A1A1"/>
<rect x="36.5625" y="55.1016" width="5.09434" height="5.5102" transform="rotate(180 36.5625 55.1016)" fill="#A1A1A1"/>
<rect x="245.438" y="214.898" width="5.09434" height="5.5102" fill="#A1A1A1"/>
<rect x="31.4688" y="60.6113" width="5.09434" height="5.5102" transform="rotate(180 31.4688 60.6113)" fill="#A1A1A1"/>
<rect x="250.531" y="209.389" width="5.09434" height="5.5102" fill="#A1A1A1"/>
<rect x="26.375" y="66.123" width="5.09434" height="5.5102" transform="rotate(180 26.375 66.123)" fill="#A1A1A1"/>
<rect x="255.625" y="203.877" width="5.09434" height="5.5102" fill="#A1A1A1"/>
<rect x="21.2812" y="71.6328" width="5.09434" height="5.5102" transform="rotate(180 21.2812 71.6328)" fill="#A1A1A1"/>
<rect x="260.719" y="198.367" width="5.09434" height="5.5102" fill="#A1A1A1"/>
<rect x="16.1875" y="77.1426" width="5.09434" height="5.5102" transform="rotate(180 16.1875 77.1426)" fill="#A1A1A1"/>
<rect x="265.812" y="192.857" width="5.09434" height="5.5102" fill="#A1A1A1"/>
<rect x="16.1875" y="82.6523" width="5.09434" height="5.5102" transform="rotate(180 16.1875 82.6523)" fill="#A1A1A1"/>
<rect x="265.812" y="187.348" width="5.09434" height="5.5102" fill="#A1A1A1"/>
<rect x="16.1875" y="88.1641" width="5.09434" height="5.5102" transform="rotate(180 16.1875 88.1641)" fill="#A1A1A1"/>
<rect x="265.812" y="181.836" width="5.09434" height="5.5102" fill="#A1A1A1"/>
<rect x="16.1875" y="93.6738" width="5.09434" height="5.5102" transform="rotate(180 16.1875 93.6738)" fill="#A1A1A1"/>
<rect x="265.812" y="176.326" width="5.09434" height="5.5102" fill="#A1A1A1"/>
<rect x="16.1875" y="99.1836" width="5.09434" height="5.5102" transform="rotate(180 16.1875 99.1836)" fill="#A1A1A1"/>
<rect x="265.812" y="170.816" width="5.09434" height="5.5102" fill="#A1A1A1"/>
<rect x="16.1875" y="104.693" width="5.09434" height="5.5102" transform="rotate(180 16.1875 104.693)" fill="#A1A1A1"/>
<rect x="265.812" y="165.307" width="5.09434" height="5.5102" fill="#A1A1A1"/>
<rect x="16.1875" y="110.203" width="5.09434" height="5.5102" transform="rotate(180 16.1875 110.203)" fill="#A1A1A1"/>
<rect x="265.812" y="159.797" width="5.09434" height="5.5102" fill="#A1A1A1"/>
<rect x="16.1875" y="115.715" width="5.09434" height="5.5102" transform="rotate(180 16.1875 115.715)" fill="#A1A1A1"/>
<rect x="265.812" y="154.285" width="5.09434" height="5.5102" fill="#A1A1A1"/>
<rect x="16.1875" y="121.225" width="5.09434" height="5.5102" transform="rotate(180 16.1875 121.225)" fill="#A1A1A1"/>
<rect x="265.812" y="148.775" width="5.09434" height="5.5102" fill="#A1A1A1"/>
<rect x="16.1875" y="126.734" width="5.09434" height="5.5102" transform="rotate(180 16.1875 126.734)" fill="#A1A1A1"/>
<rect x="265.812" y="143.266" width="5.09434" height="5.5102" fill="#A1A1A1"/>
<rect x="230.148" y="231.428" width="5.09434" height="5.5102" fill="#A1A1A1"/>
<rect x="82.4141" y="71.6328" width="5.09434" height="5.5102" transform="rotate(180 82.4141 71.6328)" fill="#A1A1A1"/>
<rect x="77.3203" y="77.1426" width="5.09434" height="5.5102" transform="rotate(180 77.3203 77.1426)" fill="#A1A1A1"/>
<rect x="209.773" y="187.348" width="5.09434" height="5.5102" fill="#A1A1A1"/>
<rect x="72.2266" y="82.6523" width="5.09434" height="5.5102" transform="rotate(180 72.2266 82.6523)" fill="#A1A1A1"/>
<rect x="214.867" y="181.836" width="5.09434" height="5.5102" fill="#A1A1A1"/>
<rect x="67.1328" y="88.1641" width="5.09434" height="5.5102" transform="rotate(180 67.1328 88.1641)" fill="#A1A1A1"/>
<rect x="62.0391" y="93.6738" width="5.09434" height="5.5102" transform="rotate(180 62.0391 93.6738)" fill="#A1A1A1"/>
<rect x="219.961" y="176.326" width="5.09434" height="5.5102" fill="#A1A1A1"/>
<rect x="62.0391" y="99.1836" width="5.09434" height="5.5102" transform="rotate(180 62.0391 99.1836)" fill="#A1A1A1"/>
<rect x="219.961" y="170.816" width="5.09434" height="5.5102" fill="#A1A1A1"/>
<rect x="62.0391" y="104.693" width="5.09434" height="5.5102" transform="rotate(180 62.0391 104.693)" fill="#A1A1A1"/>
<rect x="219.961" y="165.307" width="5.09434" height="5.5102" fill="#A1A1A1"/>
<rect x="62.0391" y="110.203" width="5.09434" height="5.5102" transform="rotate(180 62.0391 110.203)" fill="#A1A1A1"/>
<rect x="219.961" y="159.797" width="5.09434" height="5.5102" fill="#A1A1A1"/>
<rect x="62.0391" y="121.225" width="5.09434" height="5.5102" transform="rotate(180 62.0391 121.225)" fill="#A1A1A1"/>
<rect x="219.961" y="148.775" width="5.09434" height="5.5102" fill="#A1A1A1"/>
<rect x="62.0391" y="115.715" width="5.09434" height="5.5102" transform="rotate(180 62.0391 115.715)" fill="#A1A1A1"/>
<rect x="219.961" y="154.285" width="5.09434" height="5.5102" fill="#A1A1A1"/>
<rect x="62.0391" y="126.734" width="5.09434" height="5.5102" transform="rotate(180 62.0391 126.734)" fill="#A1A1A1"/>
<rect x="219.961" y="143.266" width="5.09434" height="5.5102" fill="#A1A1A1"/>
<rect x="199.586" y="198.367" width="5.09434" height="5.5102" fill="#A1A1A1"/>
<rect x="112.984" y="104.693" width="5.09434" height="5.5102" transform="rotate(180 112.984 104.693)" fill="#A1A1A1"/>
<rect x="169.016" y="165.307" width="5.09434" height="5.5102" fill="#A1A1A1"/>
<rect x="163.922" y="104.693" width="5.09434" height="5.5102" transform="rotate(180 163.922 104.693)" fill="#A1A1A1"/>
<rect x="118.078" y="165.307" width="5.09434" height="5.5102" fill="#A1A1A1"/>
<rect x="16.1875" y="126.734" width="5.09434" height="5.5102" fill="#A1A1A1"/>
<rect x="219.961" y="143.266" width="5.09434" height="5.5102" transform="rotate(180 219.961 143.266)" fill="#A1A1A1"/>
<rect x="62.0391" y="126.734" width="5.09434" height="5.5102" fill="#A1A1A1"/>
<rect x="174.109" y="143.266" width="5.09434" height="5.5102" transform="rotate(180 174.109 143.266)" fill="#A1A1A1"/>
<rect x="107.891" y="126.734" width="5.09434" height="5.5102" fill="#A1A1A1"/>
<rect x="82.4141" width="5.5102" height="5.09434" transform="rotate(90 82.4141 0)" fill="#A1A1A1"/>
<rect x="82.4141" y="264.49" width="5.5102" height="5.09434" transform="rotate(90 82.4141 264.49)" fill="#A1A1A1"/>
<rect x="87.5078" width="5.5102" height="5.09434" transform="rotate(90 87.5078 0)" fill="#A1A1A1"/>
<rect x="87.5078" y="264.49" width="5.5102" height="5.09434" transform="rotate(90 87.5078 264.49)" fill="#A1A1A1"/>
<rect x="92.6016" width="5.5102" height="5.09434" transform="rotate(90 92.6016 0)" fill="#A1A1A1"/>
<rect x="92.6016" y="264.49" width="5.5102" height="5.09434" transform="rotate(90 92.6016 264.49)" fill="#A1A1A1"/>
<rect x="97.6953" width="5.5102" height="5.09434" transform="rotate(90 97.6953 0)" fill="#A1A1A1"/>
<rect x="97.6953" y="264.49" width="5.5102" height="5.09434" transform="rotate(90 97.6953 264.49)" fill="#A1A1A1"/>
<rect x="102.789" width="5.5102" height="5.09434" transform="rotate(90 102.789 0)" fill="#A1A1A1"/>
<rect x="102.789" y="264.49" width="5.5102" height="5.09434" transform="rotate(90 102.789 264.49)" fill="#A1A1A1"/>
<rect x="107.891" width="5.5102" height="5.09434" transform="rotate(90 107.891 0)" fill="#A1A1A1"/>
<rect x="107.891" y="264.49" width="5.5102" height="5.09434" transform="rotate(90 107.891 264.49)" fill="#A1A1A1"/>
<rect x="112.984" width="5.5102" height="5.09434" transform="rotate(90 112.984 0)" fill="#A1A1A1"/>
<rect x="112.984" y="264.49" width="5.5102" height="5.09434" transform="rotate(90 112.984 264.49)" fill="#A1A1A1"/>
<rect x="118.078" width="5.5102" height="5.09434" transform="rotate(90 118.078 0)" fill="#A1A1A1"/>
<rect x="118.078" y="264.49" width="5.5102" height="5.09434" transform="rotate(90 118.078 264.49)" fill="#A1A1A1"/>
<rect x="123.172" width="5.5102" height="5.09434" transform="rotate(90 123.172 0)" fill="#A1A1A1"/>
<rect x="123.172" y="264.49" width="5.5102" height="5.09434" transform="rotate(90 123.172 264.49)" fill="#A1A1A1"/>
<rect x="128.266" width="5.5102" height="5.09434" transform="rotate(90 128.266 0)" fill="#A1A1A1"/>
<rect x="128.266" y="264.49" width="5.5102" height="5.09434" transform="rotate(90 128.266 264.49)" fill="#A1A1A1"/>
<rect x="133.359" width="5.5102" height="5.09434" transform="rotate(90 133.359 0)" fill="#A1A1A1"/>
<rect x="133.359" y="264.49" width="5.5102" height="5.09434" transform="rotate(90 133.359 264.49)" fill="#A1A1A1"/>
<rect x="138.453" width="5.5102" height="5.09434" transform="rotate(90 138.453 0)" fill="#A1A1A1"/>
<rect x="138.453" y="264.49" width="5.5102" height="5.09434" transform="rotate(90 138.453 264.49)" fill="#A1A1A1"/>
<rect x="143.547" width="5.5102" height="5.09434" transform="rotate(90 143.547 0)" fill="#A1A1A1"/>
<rect x="143.547" y="264.49" width="5.5102" height="5.09434" transform="rotate(90 143.547 264.49)" fill="#A1A1A1"/>
<rect x="148.641" width="5.5102" height="5.09434" transform="rotate(90 148.641 0)" fill="#A1A1A1"/>
<rect x="148.641" y="264.49" width="5.5102" height="5.09434" transform="rotate(90 148.641 264.49)" fill="#A1A1A1"/>
<rect x="153.734" width="5.5102" height="5.09434" transform="rotate(90 153.734 0)" fill="#A1A1A1"/>
<rect x="153.734" y="264.49" width="5.5102" height="5.09434" transform="rotate(90 153.734 264.49)" fill="#A1A1A1"/>
<rect x="158.828" width="5.5102" height="5.09434" transform="rotate(90 158.828 0)" fill="#A1A1A1"/>
<rect x="158.828" y="264.49" width="5.5102" height="5.09434" transform="rotate(90 158.828 264.49)" fill="#A1A1A1"/>
<rect x="163.922" width="5.5102" height="5.09434" transform="rotate(90 163.922 0)" fill="#A1A1A1"/>
<rect x="163.922" y="264.49" width="5.5102" height="5.09434" transform="rotate(90 163.922 264.49)" fill="#A1A1A1"/>
<rect x="169.016" width="5.5102" height="5.09434" transform="rotate(90 169.016 0)" fill="#A1A1A1"/>
<rect x="169.016" y="264.49" width="5.5102" height="5.09434" transform="rotate(90 169.016 264.49)" fill="#A1A1A1"/>
<rect x="174.109" width="5.5102" height="5.09434" transform="rotate(90 174.109 0)" fill="#A1A1A1"/>
<rect x="174.109" y="264.49" width="5.5102" height="5.09434" transform="rotate(90 174.109 264.49)" fill="#A1A1A1"/>
<rect x="179.211" width="5.5102" height="5.09434" transform="rotate(90 179.211 0)" fill="#A1A1A1"/>
<rect x="179.211" y="264.49" width="5.5102" height="5.09434" transform="rotate(90 179.211 264.49)" fill="#A1A1A1"/>
<rect x="184.305" width="5.5102" height="5.09434" transform="rotate(90 184.305 0)" fill="#A1A1A1"/>
<rect x="184.305" y="264.49" width="5.5102" height="5.09434" transform="rotate(90 184.305 264.49)" fill="#A1A1A1"/>
<rect x="189.398" width="5.5102" height="5.09434" transform="rotate(90 189.398 0)" fill="#A1A1A1"/>
<rect x="189.398" y="264.49" width="5.5102" height="5.09434" transform="rotate(90 189.398 264.49)" fill="#A1A1A1"/>
<rect x="194.492" width="5.5102" height="5.09434" transform="rotate(90 194.492 0)" fill="#A1A1A1"/>
<rect x="194.492" y="264.49" width="5.5102" height="5.09434" transform="rotate(90 194.492 264.49)" fill="#A1A1A1"/>
<rect x="199.586" width="5.5102" height="5.09434" transform="rotate(90 199.586 0)" fill="#A1A1A1"/>
<rect x="199.586" y="264.49" width="5.5102" height="5.09434" transform="rotate(90 199.586 264.49)" fill="#A1A1A1"/>
<rect x="204.68" width="5.5102" height="5.09434" transform="rotate(90 204.68 0)" fill="#A1A1A1"/>
<rect x="204.68" y="264.49" width="5.5102" height="5.09434" transform="rotate(90 204.68 264.49)" fill="#A1A1A1"/>
<circle cx="53" cy="31" r="12" fill="black"/>
<circle cx="83" cy="63" r="12" fill="black"/>
<circle cx="115" cy="96" r="12" fill="black"/>
<circle cx="12" cy="135" r="12" fill="black"/>
<circle cx="60" cy="135" r="12" fill="black"/>
<circle cx="106" cy="134" r="12" fill="#43FF46" fill-opacity="0.5"/>
<circle cx="53" cy="240" r="12" fill="black"/>
<circle cx="82" cy="206" r="12" fill="black"/>
<circle cx="115" cy="176" r="12" fill="black"/>
<circle cx="227" cy="31" r="12" fill="white"/>
<circle cx="198" cy="63" r="12" fill="white"/>
<circle cx="168" cy="95" r="12" fill="white"/>
<circle cx="175" cy="135" r="13" fill="white" stroke="#43FF46" stroke-width="2"/>
<circle cx="223" cy="135" r="12" fill="white"/>
<circle cx="269" cy="135" r="12" fill="white"/>
<circle cx="166" cy="173" r="12" fill="white"/>
<circle cx="196" cy="206" r="12" fill="white"/>
<circle cx="227" cy="240" r="12" fill="white"/>
<path d="M111.586 133.586C110.805 134.367 110.805 135.633 111.586 136.414L124.314 149.142C125.095 149.923 126.361 149.923 127.142 149.142C127.923 148.361 127.923 147.095 127.142 146.314L115.828 135L127.142 123.686C127.923 122.905 127.923 121.639 127.142 120.858C126.361 120.077 125.095 120.077 124.314 120.858L111.586 133.586ZM164 135L164 133L113 133L113 135L113 137L164 137L164 135Z" fill="white"/>
<circle cx="141" cy="135" r="13" fill="black" stroke="#FF6363" stroke-width="2"/>
</svg>
