<svg width="255" height="217" viewBox="0 0 255 217" fill="none" xmlns="http://www.w3.org/2000/svg">
<path d="M24.2823 206.06L28.6023 213H26.0423L22.9023 207.96L19.9623 213H17.4223L21.7423 206.06L17.4023 199.1H19.9623L23.1223 204.18L26.0823 199.1H28.6223L24.2823 206.06ZM30.5055 200.5V198.42H34.6655V213H32.3655V200.5H30.5055Z" fill="white"/>
<rect y="132" width="52" height="52" rx="15" fill="#FDFCFC"/>
<circle cx="14.3992" cy="147.2" r="7.2" fill="black"/>
<circle cx="37.5984" cy="147.2" r="7.2" fill="black"/>
<circle cx="37.5984" cy="168.8" r="7.2" fill="black"/>
<circle cx="14.3992" cy="168.8" r="7.2" fill="black"/>
<path d="M18.7941 74.06L23.1141 81H20.5541L17.4141 75.96L14.4741 81H11.9341L16.2541 74.06L11.9141 67.1H14.4741L17.6341 72.18L20.5941 67.1H23.1341L18.7941 74.06ZM39.9125 68.38H33.2125V72.36C33.4925 71.9867 33.9058 71.6733 34.4525 71.42C35.0125 71.1667 35.6058 71.04 36.2325 71.04C37.3525 71.04 38.2592 71.28 38.9525 71.76C39.6592 72.24 40.1592 72.8467 40.4525 73.58C40.7592 74.3133 40.9125 75.0867 40.9125 75.9C40.9125 76.8867 40.7192 77.7667 40.3325 78.54C39.9592 79.3 39.3925 79.9 38.6325 80.34C37.8858 80.78 36.9658 81 35.8725 81C34.4192 81 33.2525 80.64 32.3725 79.92C31.4925 79.2 30.9658 78.2467 30.7925 77.06H33.0125C33.1592 77.6867 33.4858 78.1867 33.9925 78.56C34.4992 78.92 35.1325 79.1 35.8925 79.1C36.8392 79.1 37.5458 78.8133 38.0125 78.24C38.4925 77.6667 38.7325 76.9067 38.7325 75.96C38.7325 75 38.4925 74.2667 38.0125 73.76C37.5325 73.24 36.8258 72.98 35.8925 72.98C35.2392 72.98 34.6858 73.1467 34.2325 73.48C33.7925 73.8 33.4725 74.24 33.2725 74.8H31.1125V66.38H39.9125V68.38Z" fill="white"/>
<path d="M221.294 74.06L225.614 81H223.054L219.914 75.96L216.974 81H214.434L218.754 74.06L214.414 67.1H216.974L220.134 72.18L223.094 67.1H225.634L221.294 74.06ZM242.413 68.38H235.713V72.36C235.993 71.9867 236.406 71.6733 236.952 71.42C237.513 71.1667 238.106 71.04 238.733 71.04C239.853 71.04 240.759 71.28 241.453 71.76C242.159 72.24 242.659 72.8467 242.953 73.58C243.259 74.3133 243.413 75.0867 243.413 75.9C243.413 76.8867 243.219 77.7667 242.832 78.54C242.459 79.3 241.893 79.9 241.133 80.34C240.386 80.78 239.466 81 238.373 81C236.919 81 235.753 80.64 234.873 79.92C233.993 79.2 233.466 78.2467 233.293 77.06H235.513C235.659 77.6867 235.986 78.1867 236.493 78.56C236.999 78.92 237.633 79.1 238.393 79.1C239.339 79.1 240.046 78.8133 240.513 78.24C240.993 77.6667 241.233 76.9067 241.233 75.96C241.233 75 240.993 74.2667 240.513 73.76C240.033 73.24 239.326 72.98 238.393 72.98C237.739 72.98 237.186 73.1467 236.733 73.48C236.293 73.8 235.973 74.24 235.773 74.8H233.613V66.38H242.413V68.38Z" fill="white"/>
<circle cx="26" cy="26" r="26" fill="white"/>
<circle cx="229" cy="26" r="26" fill="black"/>
</svg>
