<svg width="257" height="85" viewBox="0 0 257 85" fill="none" xmlns="http://www.w3.org/2000/svg">
<path d="M14.2784 74.06L18.5984 81H16.0384L12.8984 75.96L9.95844 81H7.41844L11.7384 74.06L7.39844 67.1H9.95844L13.1184 72.18L16.0784 67.1H18.6184L14.2784 74.06ZM25.6969 68.5V66.42H29.8569V81H27.5569V68.5H25.6969ZM32.9891 73.52C32.9891 71.2133 33.3757 69.4133 34.1491 68.12C34.9357 66.8133 36.2824 66.16 38.1891 66.16C40.0957 66.16 41.4357 66.8133 42.2091 68.12C42.9957 69.4133 43.3891 71.2133 43.3891 73.52C43.3891 75.8533 42.9957 77.68 42.2091 79C41.4357 80.3067 40.0957 80.96 38.1891 80.96C36.2824 80.96 34.9357 80.3067 34.1491 79C33.3757 77.68 32.9891 75.8533 32.9891 73.52ZM41.1491 73.52C41.1491 72.44 41.0757 71.5267 40.9291 70.78C40.7957 70.0333 40.5157 69.4267 40.0891 68.96C39.6624 68.48 39.0291 68.24 38.1891 68.24C37.3491 68.24 36.7157 68.48 36.2891 68.96C35.8624 69.4267 35.5757 70.0333 35.4291 70.78C35.2957 71.5267 35.2291 72.44 35.2291 73.52C35.2291 74.64 35.2957 75.58 35.4291 76.34C35.5624 77.1 35.8424 77.7133 36.2691 78.18C36.7091 78.6467 37.3491 78.88 38.1891 78.88C39.0291 78.88 39.6624 78.6467 40.0891 78.18C40.5291 77.7133 40.8157 77.1 40.9491 76.34C41.0824 75.58 41.1491 74.64 41.1491 73.52Z" fill="white"/>
<path d="M219.778 74.06L224.098 81H221.538L218.398 75.96L215.458 81H212.918L217.238 74.06L212.898 67.1H215.458L218.618 72.18L221.578 67.1H224.118L219.778 74.06ZM231.197 68.5V66.42H235.357V81H233.057V68.5H231.197ZM238.489 73.52C238.489 71.2133 238.876 69.4133 239.649 68.12C240.436 66.8133 241.782 66.16 243.689 66.16C245.596 66.16 246.936 66.8133 247.709 68.12C248.496 69.4133 248.889 71.2133 248.889 73.52C248.889 75.8533 248.496 77.68 247.709 79C246.936 80.3067 245.596 80.96 243.689 80.96C241.782 80.96 240.436 80.3067 239.649 79C238.876 77.68 238.489 75.8533 238.489 73.52ZM246.649 73.52C246.649 72.44 246.576 71.5267 246.429 70.78C246.296 70.0333 246.016 69.4267 245.589 68.96C245.162 68.48 244.529 68.24 243.689 68.24C242.849 68.24 242.216 68.48 241.789 68.96C241.362 69.4267 241.076 70.0333 240.929 70.78C240.796 71.5267 240.729 72.44 240.729 73.52C240.729 74.64 240.796 75.58 240.929 76.34C241.062 77.1 241.342 77.7133 241.769 78.18C242.209 78.6467 242.849 78.88 243.689 78.88C244.529 78.88 245.162 78.6467 245.589 78.18C246.029 77.7133 246.316 77.1 246.449 76.34C246.582 75.58 246.649 74.64 246.649 73.52Z" fill="white"/>
<circle cx="26" cy="26" r="26" fill="white"/>
<circle cx="231" cy="26" r="26" fill="black"/>
</svg>
