<svg width="127" height="270" viewBox="0 0 127 270" fill="none" xmlns="http://www.w3.org/2000/svg">
<rect x="10.1641" y="77.0918" width="5.07994" height="5.07642" transform="rotate(180 10.1641 77.0918)" fill="#A1A1A1"/>
<rect x="15.2422" y="6.04297" width="5.07994" height="5.07642" transform="rotate(180 15.2422 6.04297)" fill="#A1A1A1"/>
<rect x="111.758" y="264.885" width="5.07994" height="5.07642" fill="#A1A1A1"/>
<rect x="66.0391" y="6.04297" width="5.07994" height="5.07642" transform="rotate(180 66.0391 6.04297)" fill="#A1A1A1"/>
<rect x="60.9609" y="264.885" width="5.07994" height="5.07642" fill="#A1A1A1"/>
<rect x="121.922" y="77.0918" width="5.07642" height="5.07994" transform="rotate(-90 121.922 77.0918)" fill="#A1A1A1"/>
<rect x="71.1172" y="77.0918" width="5.07994" height="5.07642" transform="rotate(180 71.1172 77.0918)" fill="#A1A1A1"/>
<rect x="71.1172" y="107.547" width="5.07994" height="5.07642" transform="rotate(180 71.1172 107.547)" fill="#A1A1A1"/>
<rect x="71.1172" y="138.002" width="5.07994" height="5.07642" transform="rotate(180 71.1172 138.002)" fill="#A1A1A1"/>
<rect x="71.1172" y="168.457" width="5.07994" height="5.07642" transform="rotate(180 71.1172 168.457)" fill="#A1A1A1"/>
<rect x="30.4844" y="143.08" width="5.07642" height="5.07994" transform="rotate(-90 30.4844 143.08)" fill="#A1A1A1"/>
<rect x="60.9609" y="143.08" width="5.07642" height="5.07994" transform="rotate(-90 60.9609 143.08)" fill="#A1A1A1"/>
<rect x="91.4453" y="143.08" width="5.07642" height="5.07994" transform="rotate(-90 91.4453 143.08)" fill="#A1A1A1"/>
<rect x="55.8828" y="77.0918" width="5.07994" height="5.07642" transform="rotate(180 55.8828 77.0918)" fill="#A1A1A1"/>
<rect x="55.8828" y="107.547" width="5.07994" height="5.07642" transform="rotate(180 55.8828 107.547)" fill="#A1A1A1"/>
<rect x="55.8828" y="138.002" width="5.07994" height="5.07642" transform="rotate(180 55.8828 138.002)" fill="#A1A1A1"/>
<rect x="55.8828" y="168.457" width="5.07994" height="5.07642" transform="rotate(180 55.8828 168.457)" fill="#A1A1A1"/>
<rect x="30.4844" y="127.848" width="5.07642" height="5.07994" transform="rotate(-90 30.4844 127.848)" fill="#A1A1A1"/>
<rect x="60.9609" y="127.848" width="5.07642" height="5.07994" transform="rotate(-90 60.9609 127.848)" fill="#A1A1A1"/>
<rect x="91.4453" y="127.848" width="5.07642" height="5.07994" transform="rotate(-90 91.4453 127.848)" fill="#A1A1A1"/>
<rect x="15.2422" y="77.0918" width="5.07994" height="5.07642" transform="rotate(180 15.2422 77.0918)" fill="#A1A1A1"/>
<rect x="20.3203" y="6.04297" width="5.07994" height="5.07642" transform="rotate(180 20.3203 6.04297)" fill="#A1A1A1"/>
<rect x="106.68" y="264.885" width="5.07994" height="5.07642" fill="#A1A1A1"/>
<rect x="71.1172" y="6.04297" width="5.07994" height="5.07642" transform="rotate(180 71.1172 6.04297)" fill="#A1A1A1"/>
<rect x="55.8828" y="264.885" width="5.07994" height="5.07642" fill="#A1A1A1"/>
<rect x="15.2422" y="107.547" width="5.07994" height="5.07642" transform="rotate(180 15.2422 107.547)" fill="#A1A1A1"/>
<rect x="15.2422" y="138.002" width="5.07994" height="5.07642" transform="rotate(180 15.2422 138.002)" fill="#A1A1A1"/>
<rect x="15.2422" y="168.457" width="5.07994" height="5.07642" transform="rotate(180 15.2422 168.457)" fill="#A1A1A1"/>
<rect x="30.4844" y="87.2461" width="5.07642" height="5.07994" transform="rotate(-90 30.4844 87.2461)" fill="#A1A1A1"/>
<rect x="60.9609" y="87.2461" width="5.07642" height="5.07994" transform="rotate(-90 60.9609 87.2461)" fill="#A1A1A1"/>
<rect x="91.4453" y="87.2461" width="5.07642" height="5.07994" transform="rotate(-90 91.4453 87.2461)" fill="#A1A1A1"/>
<rect x="121.922" y="82.1699" width="5.07642" height="5.07994" transform="rotate(-90 121.922 82.1699)" fill="#A1A1A1"/>
<rect x="76.1953" y="77.0918" width="5.07994" height="5.07642" transform="rotate(180 76.1953 77.0918)" fill="#A1A1A1"/>
<rect x="76.1953" y="107.547" width="5.07994" height="5.07642" transform="rotate(180 76.1953 107.547)" fill="#A1A1A1"/>
<rect x="76.1953" y="138.002" width="5.07994" height="5.07642" transform="rotate(180 76.1953 138.002)" fill="#A1A1A1"/>
<rect x="76.1953" y="168.457" width="5.07994" height="5.07642" transform="rotate(180 76.1953 168.457)" fill="#A1A1A1"/>
<rect x="30.4844" y="148.148" width="5.07642" height="5.07994" transform="rotate(-90 30.4844 148.148)" fill="#A1A1A1"/>
<rect x="60.9609" y="148.148" width="5.07642" height="5.07994" transform="rotate(-90 60.9609 148.148)" fill="#A1A1A1"/>
<rect x="91.4453" y="148.148" width="5.07642" height="5.07994" transform="rotate(-90 91.4453 148.148)" fill="#A1A1A1"/>
<rect x="60.9609" y="77.0918" width="5.07994" height="5.07642" transform="rotate(180 60.9609 77.0918)" fill="#A1A1A1"/>
<rect x="60.9609" y="107.547" width="5.07994" height="5.07642" transform="rotate(180 60.9609 107.547)" fill="#A1A1A1"/>
<rect x="60.9609" y="138.002" width="5.07994" height="5.07642" transform="rotate(180 60.9609 138.002)" fill="#A1A1A1"/>
<rect x="60.9609" y="168.457" width="5.07994" height="5.07642" transform="rotate(180 60.9609 168.457)" fill="#A1A1A1"/>
<rect x="30.4844" y="132.926" width="5.07642" height="5.07994" transform="rotate(-90 30.4844 132.926)" fill="#A1A1A1"/>
<rect x="60.9609" y="132.926" width="5.07642" height="5.07994" transform="rotate(-90 60.9609 132.926)" fill="#A1A1A1"/>
<rect x="91.4453" y="132.926" width="5.07642" height="5.07994" transform="rotate(-90 91.4453 132.926)" fill="#A1A1A1"/>
<rect x="20.3203" y="77.0918" width="5.07994" height="5.07642" transform="rotate(180 20.3203 77.0918)" fill="#A1A1A1"/>
<rect x="25.3984" y="6.04297" width="5.07994" height="5.07642" transform="rotate(180 25.3984 6.04297)" fill="#A1A1A1"/>
<rect x="101.602" y="264.885" width="5.07994" height="5.07642" fill="#A1A1A1"/>
<rect x="76.1953" y="6.04297" width="5.07994" height="5.07642" transform="rotate(180 76.1953 6.04297)" fill="#A1A1A1"/>
<rect x="50.7969" y="264.885" width="5.07994" height="5.07642" fill="#A1A1A1"/>
<rect x="20.3203" y="107.547" width="5.07994" height="5.07642" transform="rotate(180 20.3203 107.547)" fill="#A1A1A1"/>
<rect x="20.3203" y="138.002" width="5.07994" height="5.07642" transform="rotate(180 20.3203 138.002)" fill="#A1A1A1"/>
<rect x="20.3203" y="168.457" width="5.07994" height="5.07642" transform="rotate(180 20.3203 168.457)" fill="#A1A1A1"/>
<rect x="30.4844" y="92.3242" width="5.07642" height="5.07994" transform="rotate(-90 30.4844 92.3242)" fill="#A1A1A1"/>
<rect x="60.9609" y="92.3242" width="5.07642" height="5.07994" transform="rotate(-90 60.9609 92.3242)" fill="#A1A1A1"/>
<rect x="91.4453" y="92.3242" width="5.07642" height="5.07994" transform="rotate(-90 91.4453 92.3242)" fill="#A1A1A1"/>
<rect x="81.2812" y="77.0918" width="5.07994" height="5.07642" transform="rotate(180 81.2812 77.0918)" fill="#A1A1A1"/>
<rect x="81.2812" y="107.547" width="5.07994" height="5.07642" transform="rotate(180 81.2812 107.547)" fill="#A1A1A1"/>
<rect x="81.2812" y="138.002" width="5.07994" height="5.07642" transform="rotate(180 81.2812 138.002)" fill="#A1A1A1"/>
<rect x="81.2812" y="168.457" width="5.07994" height="5.07642" transform="rotate(180 81.2812 168.457)" fill="#A1A1A1"/>
<rect x="30.4844" y="153.227" width="5.07642" height="5.07994" transform="rotate(-90 30.4844 153.227)" fill="#A1A1A1"/>
<rect x="60.9609" y="153.227" width="5.07642" height="5.07994" transform="rotate(-90 60.9609 153.227)" fill="#A1A1A1"/>
<rect x="91.4453" y="153.227" width="5.07642" height="5.07994" transform="rotate(-90 91.4453 153.227)" fill="#A1A1A1"/>
<rect x="66.0391" y="77.0918" width="5.07994" height="5.07642" transform="rotate(180 66.0391 77.0918)" fill="#A1A1A1"/>
<rect x="66.0391" y="72.0234" width="5.07994" height="5.07642" transform="rotate(180 66.0391 72.0234)" fill="#A1A1A1"/>
<rect x="60.9609" y="198.904" width="5.07994" height="5.07642" fill="#A1A1A1"/>
<rect x="66.0391" y="66.9453" width="5.07994" height="5.07642" transform="rotate(180 66.0391 66.9453)" fill="#A1A1A1"/>
<rect x="60.9609" y="203.982" width="5.07994" height="5.07642" fill="#A1A1A1"/>
<rect x="66.0391" y="61.8691" width="5.07994" height="5.07642" transform="rotate(180 66.0391 61.8691)" fill="#A1A1A1"/>
<rect x="60.9609" y="209.059" width="5.07994" height="5.07642" fill="#A1A1A1"/>
<rect x="66.0391" y="56.791" width="5.07994" height="5.07642" transform="rotate(180 66.0391 56.791)" fill="#A1A1A1"/>
<rect x="60.9609" y="214.129" width="5.07994" height="5.07642" fill="#A1A1A1"/>
<rect x="66.0391" y="51.7148" width="5.07994" height="5.07642" transform="rotate(180 66.0391 51.7148)" fill="#A1A1A1"/>
<rect x="60.9609" y="219.205" width="5.07994" height="5.07642" fill="#A1A1A1"/>
<rect x="66.0391" y="46.6445" width="5.07994" height="5.07642" transform="rotate(180 66.0391 46.6445)" fill="#A1A1A1"/>
<rect x="60.9609" y="224.283" width="5.07994" height="5.07642" fill="#A1A1A1"/>
<rect x="66.0391" y="41.5684" width="5.07994" height="5.07642" transform="rotate(180 66.0391 41.5684)" fill="#A1A1A1"/>
<rect x="60.9609" y="229.352" width="5.07994" height="5.07642" fill="#A1A1A1"/>
<rect x="66.0391" y="31.4219" width="5.07994" height="5.07642" transform="rotate(180 66.0391 31.4219)" fill="#A1A1A1"/>
<rect x="60.9609" y="239.514" width="5.07994" height="5.07642" fill="#A1A1A1"/>
<rect x="66.0391" y="26.3438" width="5.07994" height="5.07642" transform="rotate(180 66.0391 26.3438)" fill="#A1A1A1"/>
<rect x="60.9609" y="244.592" width="5.07994" height="5.07642" fill="#A1A1A1"/>
<rect x="66.0391" y="21.2676" width="5.07994" height="5.07642" transform="rotate(180 66.0391 21.2676)" fill="#A1A1A1"/>
<rect x="60.9609" y="249.66" width="5.07994" height="5.07642" fill="#A1A1A1"/>
<rect x="66.0391" y="16.1895" width="5.07994" height="5.07642" transform="rotate(180 66.0391 16.1895)" fill="#A1A1A1"/>
<rect x="60.9609" y="254.738" width="5.07994" height="5.07642" fill="#A1A1A1"/>
<rect x="66.0391" y="11.1133" width="5.07994" height="5.07642" transform="rotate(180 66.0391 11.1133)" fill="#A1A1A1"/>
<rect x="60.9609" y="259.814" width="5.07994" height="5.07642" fill="#A1A1A1"/>
<rect x="60.9609" y="66.9453" width="5.07994" height="5.07642" transform="rotate(180 60.9609 66.9453)" fill="#A1A1A1"/>
<rect x="66.0391" y="203.982" width="5.07994" height="5.07642" fill="#A1A1A1"/>
<rect x="55.8828" y="61.8691" width="5.07994" height="5.07642" transform="rotate(180 55.8828 61.8691)" fill="#A1A1A1"/>
<rect x="71.1172" y="209.059" width="5.07994" height="5.07642" fill="#A1A1A1"/>
<rect x="30.4844" y="36.4902" width="5.07994" height="5.07642" transform="rotate(180 30.4844 36.4902)" fill="#A1A1A1"/>
<rect x="96.5234" y="234.438" width="5.07994" height="5.07642" fill="#A1A1A1"/>
<rect x="50.7969" y="56.791" width="5.07994" height="5.07642" transform="rotate(180 50.7969 56.791)" fill="#A1A1A1"/>
<rect x="76.1953" y="214.129" width="5.07994" height="5.07642" fill="#A1A1A1"/>
<rect x="25.3984" y="31.4219" width="5.07994" height="5.07642" transform="rotate(180 25.3984 31.4219)" fill="#A1A1A1"/>
<rect x="101.602" y="239.514" width="5.07994" height="5.07642" fill="#A1A1A1"/>
<rect x="45.7188" y="51.7148" width="5.07994" height="5.07642" transform="rotate(180 45.7188 51.7148)" fill="#A1A1A1"/>
<rect x="81.2812" y="219.205" width="5.07994" height="5.07642" fill="#A1A1A1"/>
<rect x="20.3203" y="26.3438" width="5.07994" height="5.07642" transform="rotate(180 20.3203 26.3438)" fill="#A1A1A1"/>
<rect x="106.68" y="244.592" width="5.07994" height="5.07642" fill="#A1A1A1"/>
<rect x="5.08594" y="11.1133" width="5.07994" height="5.07642" transform="rotate(180 5.08594 11.1133)" fill="#A1A1A1"/>
<rect x="121.922" y="259.814" width="5.07994" height="5.07642" fill="#A1A1A1"/>
<rect x="40.6406" y="46.6445" width="5.07994" height="5.07642" transform="rotate(180 40.6406 46.6445)" fill="#A1A1A1"/>
<rect x="86.3594" y="224.283" width="5.07994" height="5.07642" fill="#A1A1A1"/>
<rect x="15.2422" y="21.2676" width="5.07994" height="5.07642" transform="rotate(180 15.2422 21.2676)" fill="#A1A1A1"/>
<rect x="111.758" y="249.66" width="5.07994" height="5.07642" fill="#A1A1A1"/>
<rect x="35.5625" y="41.5684" width="5.07994" height="5.07642" transform="rotate(180 35.5625 41.5684)" fill="#A1A1A1"/>
<rect x="91.4453" y="229.352" width="5.07994" height="5.07642" fill="#A1A1A1"/>
<rect x="35.5625" y="36.4902" width="5.07994" height="5.07642" transform="rotate(180 35.5625 36.4902)" fill="#A1A1A1"/>
<rect x="91.4453" y="234.438" width="5.07994" height="5.07642" fill="#A1A1A1"/>
<rect x="10.1641" y="16.1895" width="5.07994" height="5.07642" transform="rotate(180 10.1641 16.1895)" fill="#A1A1A1"/>
<rect x="116.844" y="254.738" width="5.07994" height="5.07642" fill="#A1A1A1"/>
<rect x="71.1172" y="66.9453" width="5.07994" height="5.07642" transform="rotate(180 71.1172 66.9453)" fill="#A1A1A1"/>
<rect x="55.8828" y="203.982" width="5.07994" height="5.07642" fill="#A1A1A1"/>
<rect x="96.5234" y="41.5684" width="5.07994" height="5.07642" transform="rotate(180 96.5234 41.5684)" fill="#A1A1A1"/>
<rect x="30.4844" y="229.352" width="5.07994" height="5.07642" fill="#A1A1A1"/>
<rect x="96.5234" y="36.4902" width="5.07994" height="5.07642" transform="rotate(180 96.5234 36.4902)" fill="#A1A1A1"/>
<rect x="30.4844" y="234.438" width="5.07994" height="5.07642" fill="#A1A1A1"/>
<rect x="121.922" y="16.1895" width="5.07994" height="5.07642" transform="rotate(180 121.922 16.1895)" fill="#A1A1A1"/>
<rect x="5.08594" y="254.738" width="5.07994" height="5.07642" fill="#A1A1A1"/>
<rect x="76.1953" y="61.8691" width="5.07994" height="5.07642" transform="rotate(180 76.1953 61.8691)" fill="#A1A1A1"/>
<rect x="50.7969" y="209.059" width="5.07994" height="5.07642" fill="#A1A1A1"/>
<rect x="101.602" y="36.4902" width="5.07994" height="5.07642" transform="rotate(180 101.602 36.4902)" fill="#A1A1A1"/>
<rect x="25.3984" y="234.438" width="5.07994" height="5.07642" fill="#A1A1A1"/>
<rect x="91.4453" y="36.4902" width="5.07994" height="5.07642" transform="rotate(180 91.4453 36.4902)" fill="#A1A1A1"/>
<rect x="35.5625" y="234.438" width="5.07994" height="5.07642" fill="#A1A1A1"/>
<rect x="86.3594" y="36.4902" width="5.07994" height="5.07642" transform="rotate(180 86.3594 36.4902)" fill="#A1A1A1"/>
<rect x="40.6406" y="234.438" width="5.07994" height="5.07642" fill="#A1A1A1"/>
<rect x="81.2812" y="36.4902" width="5.07994" height="5.07642" transform="rotate(180 81.2812 36.4902)" fill="#A1A1A1"/>
<rect x="45.7188" y="234.438" width="5.07994" height="5.07642" fill="#A1A1A1"/>
<rect x="76.1953" y="36.4902" width="5.07994" height="5.07642" transform="rotate(180 76.1953 36.4902)" fill="#A1A1A1"/>
<rect x="50.7969" y="234.438" width="5.07994" height="5.07642" fill="#A1A1A1"/>
<rect x="71.1172" y="36.4902" width="5.07994" height="5.07642" transform="rotate(180 71.1172 36.4902)" fill="#A1A1A1"/>
<rect x="55.8828" y="234.438" width="5.07994" height="5.07642" fill="#A1A1A1"/>
<rect x="66.0391" y="36.4902" width="5.07994" height="5.07642" transform="rotate(180 66.0391 36.4902)" fill="#A1A1A1"/>
<rect x="60.9609" y="234.438" width="5.07994" height="5.07642" fill="#A1A1A1"/>
<rect x="60.9609" y="36.4902" width="5.07994" height="5.07642" transform="rotate(180 60.9609 36.4902)" fill="#A1A1A1"/>
<rect x="66.0391" y="234.438" width="5.07994" height="5.07642" fill="#A1A1A1"/>
<rect x="55.8828" y="36.4902" width="5.07994" height="5.07642" transform="rotate(180 55.8828 36.4902)" fill="#A1A1A1"/>
<rect x="71.1172" y="234.438" width="5.07994" height="5.07642" fill="#A1A1A1"/>
<rect x="50.7969" y="36.4902" width="5.07994" height="5.07642" transform="rotate(180 50.7969 36.4902)" fill="#A1A1A1"/>
<rect x="76.1953" y="234.438" width="5.07994" height="5.07642" fill="#A1A1A1"/>
<rect x="45.7188" y="36.4902" width="5.07994" height="5.07642" transform="rotate(180 45.7188 36.4902)" fill="#A1A1A1"/>
<rect x="81.2812" y="234.438" width="5.07994" height="5.07642" fill="#A1A1A1"/>
<rect x="40.6406" y="36.4902" width="5.07994" height="5.07642" transform="rotate(180 40.6406 36.4902)" fill="#A1A1A1"/>
<rect x="86.3594" y="234.438" width="5.07994" height="5.07642" fill="#A1A1A1"/>
<rect x="127" y="11.1133" width="5.07994" height="5.07642" transform="rotate(180 127 11.1133)" fill="#A1A1A1"/>
<rect y="259.814" width="5.07994" height="5.07642" fill="#A1A1A1"/>
<rect x="81.2812" y="56.791" width="5.07994" height="5.07642" transform="rotate(180 81.2812 56.791)" fill="#A1A1A1"/>
<rect x="45.7188" y="214.129" width="5.07994" height="5.07642" fill="#A1A1A1"/>
<rect x="106.68" y="31.4219" width="5.07994" height="5.07642" transform="rotate(180 106.68 31.4219)" fill="#A1A1A1"/>
<rect x="20.3203" y="239.514" width="5.07994" height="5.07642" fill="#A1A1A1"/>
<rect x="121.922" y="6.04297" width="5.07994" height="5.07642" transform="rotate(180 121.922 6.04297)" fill="#A1A1A1"/>
<rect x="5.08594" y="264.885" width="5.07994" height="5.07642" fill="#A1A1A1"/>
<rect x="116.844" y="6.04297" width="5.07994" height="5.07642" transform="rotate(180 116.844 6.04297)" fill="#A1A1A1"/>
<rect x="10.1641" y="264.885" width="5.07994" height="5.07642" fill="#A1A1A1"/>
<rect x="111.758" y="6.04297" width="5.07994" height="5.07642" transform="rotate(180 111.758 6.04297)" fill="#A1A1A1"/>
<rect x="15.2422" y="264.885" width="5.07994" height="5.07642" fill="#A1A1A1"/>
<rect x="86.3594" y="51.7148" width="5.07994" height="5.07642" transform="rotate(180 86.3594 51.7148)" fill="#A1A1A1"/>
<rect x="40.6406" y="219.205" width="5.07994" height="5.07642" fill="#A1A1A1"/>
<rect x="111.758" y="26.3438" width="5.07994" height="5.07642" transform="rotate(180 111.758 26.3438)" fill="#A1A1A1"/>
<rect x="15.2422" y="244.592" width="5.07994" height="5.07642" fill="#A1A1A1"/>
<rect x="91.4453" y="46.6445" width="5.07994" height="5.07642" transform="rotate(180 91.4453 46.6445)" fill="#A1A1A1"/>
<rect x="35.5625" y="224.283" width="5.07994" height="5.07642" fill="#A1A1A1"/>
<rect x="116.844" y="21.2676" width="5.07994" height="5.07642" transform="rotate(180 116.844 21.2676)" fill="#A1A1A1"/>
<rect x="10.1641" y="249.66" width="5.07994" height="5.07642" fill="#A1A1A1"/>
<rect x="66.0391" y="107.547" width="5.07994" height="5.07642" transform="rotate(180 66.0391 107.547)" fill="#A1A1A1"/>
<rect x="66.0391" y="138.002" width="5.07994" height="5.07642" transform="rotate(180 66.0391 138.002)" fill="#A1A1A1"/>
<rect x="66.0391" y="168.457" width="5.07994" height="5.07642" transform="rotate(180 66.0391 168.457)" fill="#A1A1A1"/>
<rect x="30.4844" y="138.002" width="5.07642" height="5.07994" transform="rotate(-90 30.4844 138.002)" fill="#A1A1A1"/>
<rect x="91.4453" y="138.002" width="5.07642" height="5.07994" transform="rotate(-90 91.4453 138.002)" fill="#A1A1A1"/>
<rect x="25.3984" y="77.0918" width="5.07994" height="5.07642" transform="rotate(180 25.3984 77.0918)" fill="#A1A1A1"/>
<rect x="30.4844" y="6.04297" width="5.07994" height="5.07642" transform="rotate(180 30.4844 6.04297)" fill="#A1A1A1"/>
<rect x="96.5234" y="264.885" width="5.07994" height="5.07642" fill="#A1A1A1"/>
<rect x="81.2812" y="6.04297" width="5.07994" height="5.07642" transform="rotate(180 81.2812 6.04297)" fill="#A1A1A1"/>
<rect x="45.7188" y="264.885" width="5.07994" height="5.07642" fill="#A1A1A1"/>
<rect x="25.3984" y="107.547" width="5.07994" height="5.07642" transform="rotate(180 25.3984 107.547)" fill="#A1A1A1"/>
<rect x="25.3984" y="138.002" width="5.07994" height="5.07642" transform="rotate(180 25.3984 138.002)" fill="#A1A1A1"/>
<rect x="25.3984" y="168.457" width="5.07994" height="5.07642" transform="rotate(180 25.3984 168.457)" fill="#A1A1A1"/>
<rect x="30.4844" y="97.3926" width="5.07642" height="5.07994" transform="rotate(-90 30.4844 97.3926)" fill="#A1A1A1"/>
<rect x="60.9609" y="97.3926" width="5.07642" height="5.07994" transform="rotate(-90 60.9609 97.3926)" fill="#A1A1A1"/>
<rect x="91.4453" y="97.3926" width="5.07642" height="5.07994" transform="rotate(-90 91.4453 97.3926)" fill="#A1A1A1"/>
<rect x="86.3594" y="77.0918" width="5.07994" height="5.07642" transform="rotate(180 86.3594 77.0918)" fill="#A1A1A1"/>
<rect x="86.3594" y="107.547" width="5.07994" height="5.07642" transform="rotate(180 86.3594 107.547)" fill="#A1A1A1"/>
<rect x="86.3594" y="138.002" width="5.07994" height="5.07642" transform="rotate(180 86.3594 138.002)" fill="#A1A1A1"/>
<rect x="86.3594" y="168.457" width="5.07994" height="5.07642" transform="rotate(180 86.3594 168.457)" fill="#A1A1A1"/>
<rect x="30.4844" y="158.303" width="5.07642" height="5.07994" transform="rotate(-90 30.4844 158.303)" fill="#A1A1A1"/>
<rect x="60.9609" y="158.303" width="5.07642" height="5.07994" transform="rotate(-90 60.9609 158.303)" fill="#A1A1A1"/>
<rect x="91.4453" y="158.303" width="5.07642" height="5.07994" transform="rotate(-90 91.4453 158.303)" fill="#A1A1A1"/>
<rect x="30.4844" y="77.0918" width="5.07994" height="5.07642" transform="rotate(180 30.4844 77.0918)" fill="#A1A1A1"/>
<rect x="35.5625" y="6.04297" width="5.07994" height="5.07642" transform="rotate(180 35.5625 6.04297)" fill="#A1A1A1"/>
<rect x="91.4453" y="264.885" width="5.07994" height="5.07642" fill="#A1A1A1"/>
<rect x="86.3594" y="6.04297" width="5.07994" height="5.07642" transform="rotate(180 86.3594 6.04297)" fill="#A1A1A1"/>
<rect x="40.6406" y="264.885" width="5.07994" height="5.07642" fill="#A1A1A1"/>
<rect x="30.4844" y="107.547" width="5.07994" height="5.07642" transform="rotate(180 30.4844 107.547)" fill="#A1A1A1"/>
<rect x="30.4844" y="138.002" width="5.07994" height="5.07642" transform="rotate(180 30.4844 138.002)" fill="#A1A1A1"/>
<rect x="30.4844" y="168.457" width="5.07994" height="5.07642" transform="rotate(180 30.4844 168.457)" fill="#A1A1A1"/>
<rect x="30.4844" y="102.471" width="5.07642" height="5.07994" transform="rotate(-90 30.4844 102.471)" fill="#A1A1A1"/>
<rect x="60.9609" y="102.471" width="5.07642" height="5.07994" transform="rotate(-90 60.9609 102.471)" fill="#A1A1A1"/>
<rect x="91.4453" y="102.471" width="5.07642" height="5.07994" transform="rotate(-90 91.4453 102.471)" fill="#A1A1A1"/>
<rect x="91.4453" y="77.0918" width="5.07994" height="5.07642" transform="rotate(180 91.4453 77.0918)" fill="#A1A1A1"/>
<rect x="91.4453" y="107.547" width="5.07994" height="5.07642" transform="rotate(180 91.4453 107.547)" fill="#A1A1A1"/>
<rect x="91.4453" y="138.002" width="5.07994" height="5.07642" transform="rotate(180 91.4453 138.002)" fill="#A1A1A1"/>
<rect x="91.4453" y="168.457" width="5.07994" height="5.07642" transform="rotate(180 91.4453 168.457)" fill="#A1A1A1"/>
<rect x="30.4844" y="163.381" width="5.07642" height="5.07994" transform="rotate(-90 30.4844 163.381)" fill="#A1A1A1"/>
<rect x="60.9609" y="163.381" width="5.07642" height="5.07994" transform="rotate(-90 60.9609 163.381)" fill="#A1A1A1"/>
<rect x="91.4453" y="163.381" width="5.07642" height="5.07994" transform="rotate(-90 91.4453 163.381)" fill="#A1A1A1"/>
<rect x="35.5625" y="77.0918" width="5.07994" height="5.07642" transform="rotate(180 35.5625 77.0918)" fill="#A1A1A1"/>
<rect x="40.6406" y="6.04297" width="5.07994" height="5.07642" transform="rotate(180 40.6406 6.04297)" fill="#A1A1A1"/>
<rect x="86.3594" y="264.885" width="5.07994" height="5.07642" fill="#A1A1A1"/>
<rect x="91.4453" y="6.04297" width="5.07994" height="5.07642" transform="rotate(180 91.4453 6.04297)" fill="#A1A1A1"/>
<rect x="35.5625" y="264.885" width="5.07994" height="5.07642" fill="#A1A1A1"/>
<rect x="35.5625" y="107.547" width="5.07994" height="5.07642" transform="rotate(180 35.5625 107.547)" fill="#A1A1A1"/>
<rect x="40.6406" y="102.471" width="5.07994" height="5.07642" transform="rotate(180 40.6406 102.471)" fill="#A1A1A1"/>
<rect x="45.7188" y="97.3926" width="5.07994" height="5.07642" transform="rotate(180 45.7188 97.3926)" fill="#A1A1A1"/>
<rect x="50.7969" y="92.3242" width="5.07994" height="5.07642" transform="rotate(180 50.7969 92.3242)" fill="#A1A1A1"/>
<rect x="55.8828" y="87.2461" width="5.07994" height="5.07642" transform="rotate(180 55.8828 87.2461)" fill="#A1A1A1"/>
<rect x="60.9609" y="82.1699" width="5.07994" height="5.07642" transform="rotate(180 60.9609 82.1699)" fill="#A1A1A1"/>
<rect x="71.1172" y="82.1699" width="5.07994" height="5.07642" transform="rotate(180 71.1172 82.1699)" fill="#A1A1A1"/>
<rect x="76.1953" y="87.2461" width="5.07994" height="5.07642" transform="rotate(180 76.1953 87.2461)" fill="#A1A1A1"/>
<rect x="81.2812" y="92.3242" width="5.07994" height="5.07642" transform="rotate(180 81.2812 92.3242)" fill="#A1A1A1"/>
<rect x="86.3594" y="97.3926" width="5.07994" height="5.07642" transform="rotate(180 86.3594 97.3926)" fill="#A1A1A1"/>
<rect x="91.4453" y="102.471" width="5.07994" height="5.07642" transform="rotate(180 91.4453 102.471)" fill="#A1A1A1"/>
<rect x="101.602" y="112.625" width="5.07994" height="5.07642" transform="rotate(180 101.602 112.625)" fill="#A1A1A1"/>
<rect x="106.68" y="117.701" width="5.07994" height="5.07642" transform="rotate(180 106.68 117.701)" fill="#A1A1A1"/>
<rect x="111.758" y="122.779" width="5.07994" height="5.07642" transform="rotate(180 111.758 122.779)" fill="#A1A1A1"/>
<rect x="116.844" y="127.848" width="5.07994" height="5.07642" transform="rotate(180 116.844 127.848)" fill="#A1A1A1"/>
<rect x="121.922" y="132.926" width="5.07994" height="5.07642" transform="rotate(180 121.922 132.926)" fill="#A1A1A1"/>
<rect x="121.922" y="143.08" width="5.07994" height="5.07642" transform="rotate(180 121.922 143.08)" fill="#A1A1A1"/>
<rect x="116.844" y="148.148" width="5.07994" height="5.07642" transform="rotate(180 116.844 148.148)" fill="#A1A1A1"/>
<rect x="111.758" y="153.227" width="5.07994" height="5.07642" transform="rotate(180 111.758 153.227)" fill="#A1A1A1"/>
<rect x="106.68" y="158.303" width="5.07994" height="5.07642" transform="rotate(180 106.68 158.303)" fill="#A1A1A1"/>
<rect x="101.602" y="163.381" width="5.07994" height="5.07642" transform="rotate(180 101.602 163.381)" fill="#A1A1A1"/>
<rect x="91.4453" y="173.527" width="5.07994" height="5.07642" transform="rotate(180 91.4453 173.527)" fill="#A1A1A1"/>
<rect x="86.3594" y="178.604" width="5.07994" height="5.07642" transform="rotate(180 86.3594 178.604)" fill="#A1A1A1"/>
<rect x="81.2812" y="183.682" width="5.07994" height="5.07642" transform="rotate(180 81.2812 183.682)" fill="#A1A1A1"/>
<rect x="76.1953" y="188.75" width="5.07994" height="5.07642" transform="rotate(180 76.1953 188.75)" fill="#A1A1A1"/>
<rect x="71.1172" y="193.828" width="5.07994" height="5.07642" transform="rotate(180 71.1172 193.828)" fill="#A1A1A1"/>
<rect x="60.9609" y="193.828" width="5.07994" height="5.07642" transform="rotate(180 60.9609 193.828)" fill="#A1A1A1"/>
<rect x="55.8828" y="188.75" width="5.07994" height="5.07642" transform="rotate(180 55.8828 188.75)" fill="#A1A1A1"/>
<rect x="50.7969" y="183.682" width="5.07994" height="5.07642" transform="rotate(180 50.7969 183.682)" fill="#A1A1A1"/>
<rect x="45.7188" y="178.604" width="5.07994" height="5.07642" transform="rotate(180 45.7188 178.604)" fill="#A1A1A1"/>
<rect x="40.6406" y="173.527" width="5.07994" height="5.07642" transform="rotate(180 40.6406 173.527)" fill="#A1A1A1"/>
<rect x="30.4844" y="163.381" width="5.07994" height="5.07642" transform="rotate(180 30.4844 163.381)" fill="#A1A1A1"/>
<rect x="25.3984" y="158.303" width="5.07994" height="5.07642" transform="rotate(180 25.3984 158.303)" fill="#A1A1A1"/>
<rect x="20.3203" y="153.227" width="5.07994" height="5.07642" transform="rotate(180 20.3203 153.227)" fill="#A1A1A1"/>
<rect x="15.2422" y="148.148" width="5.07994" height="5.07642" transform="rotate(180 15.2422 148.148)" fill="#A1A1A1"/>
<rect x="10.1641" y="143.08" width="5.07994" height="5.07642" transform="rotate(180 10.1641 143.08)" fill="#A1A1A1"/>
<rect x="10.1641" y="132.926" width="5.07994" height="5.07642" transform="rotate(180 10.1641 132.926)" fill="#A1A1A1"/>
<rect x="15.2422" y="127.848" width="5.07994" height="5.07642" transform="rotate(180 15.2422 127.848)" fill="#A1A1A1"/>
<rect x="20.3203" y="122.779" width="5.07994" height="5.07642" transform="rotate(180 20.3203 122.779)" fill="#A1A1A1"/>
<rect x="25.3984" y="117.701" width="5.07994" height="5.07642" transform="rotate(180 25.3984 117.701)" fill="#A1A1A1"/>
<rect x="30.4844" y="112.625" width="5.07994" height="5.07642" transform="rotate(180 30.4844 112.625)" fill="#A1A1A1"/>
<rect x="35.5625" y="168.457" width="5.07994" height="5.07642" transform="rotate(180 35.5625 168.457)" fill="#A1A1A1"/>
<rect x="91.4453" y="107.547" width="5.07642" height="5.07994" transform="rotate(-90 91.4453 107.547)" fill="#A1A1A1"/>
<rect x="96.5234" y="77.0918" width="5.07994" height="5.07642" transform="rotate(180 96.5234 77.0918)" fill="#A1A1A1"/>
<rect x="96.5234" y="168.457" width="5.07994" height="5.07642" transform="rotate(180 96.5234 168.457)" fill="#A1A1A1"/>
<rect x="40.6406" y="77.0918" width="5.07994" height="5.07642" transform="rotate(180 40.6406 77.0918)" fill="#A1A1A1"/>
<rect x="45.7188" y="6.04297" width="5.07994" height="5.07642" transform="rotate(180 45.7188 6.04297)" fill="#A1A1A1"/>
<rect x="81.2812" y="264.885" width="5.07994" height="5.07642" fill="#A1A1A1"/>
<rect x="96.5234" y="6.04297" width="5.07994" height="5.07642" transform="rotate(180 96.5234 6.04297)" fill="#A1A1A1"/>
<rect x="30.4844" y="264.885" width="5.07994" height="5.07642" fill="#A1A1A1"/>
<rect x="40.6406" y="107.547" width="5.07994" height="5.07642" transform="rotate(180 40.6406 107.547)" fill="#A1A1A1"/>
<rect x="40.6406" y="138.002" width="5.07994" height="5.07642" transform="rotate(180 40.6406 138.002)" fill="#A1A1A1"/>
<rect x="40.6406" y="168.457" width="5.07994" height="5.07642" transform="rotate(180 40.6406 168.457)" fill="#A1A1A1"/>
<rect x="30.4844" y="112.625" width="5.07642" height="5.07994" transform="rotate(-90 30.4844 112.625)" fill="#A1A1A1"/>
<rect x="60.9609" y="112.625" width="5.07642" height="5.07994" transform="rotate(-90 60.9609 112.625)" fill="#A1A1A1"/>
<rect x="91.4453" y="112.625" width="5.07642" height="5.07994" transform="rotate(-90 91.4453 112.625)" fill="#A1A1A1"/>
<rect x="101.602" y="77.0918" width="5.07994" height="5.07642" transform="rotate(180 101.602 77.0918)" fill="#A1A1A1"/>
<rect x="101.602" y="107.547" width="5.07994" height="5.07642" transform="rotate(180 101.602 107.547)" fill="#A1A1A1"/>
<rect x="101.602" y="138.002" width="5.07994" height="5.07642" transform="rotate(180 101.602 138.002)" fill="#A1A1A1"/>
<rect x="101.602" y="168.457" width="5.07994" height="5.07642" transform="rotate(180 101.602 168.457)" fill="#A1A1A1"/>
<rect x="30.4844" y="173.527" width="5.07642" height="5.07994" transform="rotate(-90 30.4844 173.527)" fill="#A1A1A1"/>
<rect x="60.9609" y="173.527" width="5.07642" height="5.07994" transform="rotate(-90 60.9609 173.527)" fill="#A1A1A1"/>
<rect x="91.4453" y="173.527" width="5.07642" height="5.07994" transform="rotate(-90 91.4453 173.527)" fill="#A1A1A1"/>
<rect x="106.68" y="77.0918" width="5.07994" height="5.07642" transform="rotate(180 106.68 77.0918)" fill="#A1A1A1"/>
<rect x="106.68" y="107.547" width="5.07994" height="5.07642" transform="rotate(180 106.68 107.547)" fill="#A1A1A1"/>
<rect x="106.68" y="138.002" width="5.07994" height="5.07642" transform="rotate(180 106.68 138.002)" fill="#A1A1A1"/>
<rect x="106.68" y="168.457" width="5.07994" height="5.07642" transform="rotate(180 106.68 168.457)" fill="#A1A1A1"/>
<rect x="30.4844" y="178.604" width="5.07642" height="5.07994" transform="rotate(-90 30.4844 178.604)" fill="#A1A1A1"/>
<rect x="60.9609" y="178.604" width="5.07642" height="5.07994" transform="rotate(-90 60.9609 178.604)" fill="#A1A1A1"/>
<rect x="91.4453" y="178.604" width="5.07642" height="5.07994" transform="rotate(-90 91.4453 178.604)" fill="#A1A1A1"/>
<rect x="111.758" y="77.0918" width="5.07994" height="5.07642" transform="rotate(180 111.758 77.0918)" fill="#A1A1A1"/>
<rect x="111.758" y="107.547" width="5.07994" height="5.07642" transform="rotate(180 111.758 107.547)" fill="#A1A1A1"/>
<rect x="111.758" y="138.002" width="5.07994" height="5.07642" transform="rotate(180 111.758 138.002)" fill="#A1A1A1"/>
<rect x="111.758" y="168.457" width="5.07994" height="5.07642" transform="rotate(180 111.758 168.457)" fill="#A1A1A1"/>
<rect x="30.4844" y="183.682" width="5.07642" height="5.07994" transform="rotate(-90 30.4844 183.682)" fill="#A1A1A1"/>
<rect x="60.9609" y="183.682" width="5.07642" height="5.07994" transform="rotate(-90 60.9609 183.682)" fill="#A1A1A1"/>
<rect x="91.4453" y="183.682" width="5.07642" height="5.07994" transform="rotate(-90 91.4453 183.682)" fill="#A1A1A1"/>
<rect x="116.844" y="77.0918" width="5.07994" height="5.07642" transform="rotate(180 116.844 77.0918)" fill="#A1A1A1"/>
<rect x="116.844" y="107.547" width="5.07994" height="5.07642" transform="rotate(180 116.844 107.547)" fill="#A1A1A1"/>
<rect x="116.844" y="138.002" width="5.07994" height="5.07642" transform="rotate(180 116.844 138.002)" fill="#A1A1A1"/>
<rect x="116.844" y="168.457" width="5.07994" height="5.07642" transform="rotate(180 116.844 168.457)" fill="#A1A1A1"/>
<rect x="30.4844" y="188.75" width="5.07642" height="5.07994" transform="rotate(-90 30.4844 188.75)" fill="#A1A1A1"/>
<rect x="60.9609" y="188.75" width="5.07642" height="5.07994" transform="rotate(-90 60.9609 188.75)" fill="#A1A1A1"/>
<rect x="91.4453" y="188.75" width="5.07642" height="5.07994" transform="rotate(-90 91.4453 188.75)" fill="#A1A1A1"/>
<rect x="121.922" y="77.0918" width="5.07994" height="5.07642" transform="rotate(180 121.922 77.0918)" fill="#A1A1A1"/>
<rect width="5.07994" height="5.07642" transform="matrix(1 -3.17584e-08 -3.18146e-08 -1 40.6406 77.0918)" fill="#A1A1A1"/>
<rect width="5.07994" height="5.07642" transform="matrix(1 -3.17584e-08 -3.18146e-08 -1 45.7188 6.04297)" fill="#A1A1A1"/>
<rect width="5.07994" height="5.07642" transform="matrix(-1 -5.55871e-08 -5.56855e-08 1 81.2812 264.885)" fill="#A1A1A1"/>
<rect width="5.07994" height="5.07642" transform="matrix(1 -3.17584e-08 -3.18146e-08 -1 96.5234 6.04297)" fill="#A1A1A1"/>
<rect width="5.07994" height="5.07642" transform="matrix(-1 -5.55871e-08 -5.56855e-08 1 30.4844 264.885)" fill="#A1A1A1"/>
<rect width="5.07994" height="5.07642" transform="matrix(1 -3.17584e-08 -3.18146e-08 -1 40.6406 107.547)" fill="#A1A1A1"/>
<rect width="5.07994" height="5.07642" transform="matrix(1 -3.17584e-08 -3.18146e-08 -1 40.6406 138.002)" fill="#A1A1A1"/>
<rect width="5.07994" height="5.07642" transform="matrix(1 -3.17584e-08 -3.18146e-08 -1 40.6406 168.457)" fill="#A1A1A1"/>
<rect width="5.07642" height="5.07994" transform="matrix(-1.19354e-08 1 1 1.19143e-08 30.4844 112.625)" fill="#A1A1A1"/>
<rect width="5.07642" height="5.07994" transform="matrix(-1.19354e-08 1 1 1.19143e-08 60.9609 112.625)" fill="#A1A1A1"/>
<rect width="5.07642" height="5.07994" transform="matrix(-1.19354e-08 1 1 1.19143e-08 91.4453 112.625)" fill="#A1A1A1"/>
<rect width="5.07994" height="5.07642" transform="matrix(1 -3.17584e-08 -3.18146e-08 -1 30.4844 82.1699)" fill="#A1A1A1"/>
<rect width="5.07994" height="5.07642" transform="matrix(1 -3.17584e-08 -3.18146e-08 -1 60.9609 82.1699)" fill="#A1A1A1"/>
<rect width="5.07994" height="5.07642" transform="matrix(1 -3.17584e-08 -3.18146e-08 -1 91.4453 82.1699)" fill="#A1A1A1"/>
<rect width="5.07994" height="5.07642" transform="matrix(1 -3.17584e-08 -3.18146e-08 -1 0 82.1699)" fill="#A1A1A1"/>
<rect width="5.07994" height="5.07642" transform="matrix(1 -3.17584e-08 -3.18146e-08 -1 0 77.0918)" fill="#A1A1A1"/>
<rect width="5.07994" height="5.07642" transform="matrix(1 -3.17584e-08 -3.18146e-08 -1 5.08594 6.04297)" fill="#A1A1A1"/>
<rect width="5.07994" height="5.07642" transform="matrix(-1 -5.55871e-08 -5.56855e-08 1 121.922 264.885)" fill="#A1A1A1"/>
<rect width="5.07994" height="5.07642" transform="matrix(1 -3.17584e-08 -3.18146e-08 -1 55.8828 6.04297)" fill="#A1A1A1"/>
<rect width="5.07994" height="5.07642" transform="matrix(-1 -5.55871e-08 -5.56855e-08 1 71.1172 264.885)" fill="#A1A1A1"/>
<rect width="5.07994" height="5.07642" transform="matrix(1 -3.17584e-08 -3.18146e-08 -1 5.08594 82.1699)" fill="#A1A1A1"/>
<rect width="5.07994" height="5.07642" transform="matrix(1 -3.17584e-08 -3.18146e-08 -1 116.844 82.1699)" fill="#A1A1A1"/>
<rect width="5.07994" height="5.07642" transform="matrix(1 -3.17584e-08 -3.18146e-08 -1 86.3594 112.625)" fill="#A1A1A1"/>
<rect width="5.07994" height="5.07642" transform="matrix(1 -3.17584e-08 -3.18146e-08 -1 55.8828 143.08)" fill="#A1A1A1"/>
<rect width="5.07994" height="5.07642" transform="matrix(1 -3.17584e-08 -3.18146e-08 -1 25.3984 173.527)" fill="#A1A1A1"/>
<rect width="5.07994" height="5.07642" transform="matrix(1 -3.17584e-08 -3.18146e-08 -1 111.758 87.2461)" fill="#A1A1A1"/>
<rect width="5.07994" height="5.07642" transform="matrix(1 -3.17584e-08 -3.18146e-08 -1 81.2812 117.701)" fill="#A1A1A1"/>
<rect width="5.07994" height="5.07642" transform="matrix(1 -3.17584e-08 -3.18146e-08 -1 50.7969 148.148)" fill="#A1A1A1"/>
<rect width="5.07994" height="5.07642" transform="matrix(1 -3.17584e-08 -3.18146e-08 -1 20.3203 178.604)" fill="#A1A1A1"/>
<rect width="5.07994" height="5.07642" transform="matrix(1 -3.17584e-08 -3.18146e-08 -1 106.68 92.3242)" fill="#A1A1A1"/>
<rect width="5.07994" height="5.07642" transform="matrix(1 -3.17584e-08 -3.18146e-08 -1 76.1953 122.779)" fill="#A1A1A1"/>
<rect width="5.07994" height="5.07642" transform="matrix(1 -3.17584e-08 -3.18146e-08 -1 45.7188 153.227)" fill="#A1A1A1"/>
<rect width="5.07994" height="5.07642" transform="matrix(1 -3.17584e-08 -3.18146e-08 -1 15.2422 183.682)" fill="#A1A1A1"/>
<rect width="5.07994" height="5.07642" transform="matrix(1 -3.17584e-08 -3.18146e-08 -1 101.602 97.3926)" fill="#A1A1A1"/>
<rect width="5.07994" height="5.07642" transform="matrix(1 -3.17584e-08 -3.18146e-08 -1 71.1172 127.848)" fill="#A1A1A1"/>
<rect width="5.07994" height="5.07642" transform="matrix(1 -3.17584e-08 -3.18146e-08 -1 40.6406 158.303)" fill="#A1A1A1"/>
<rect width="5.07994" height="5.07642" transform="matrix(1 -3.17584e-08 -3.18146e-08 -1 10.1641 188.75)" fill="#A1A1A1"/>
<rect width="5.07994" height="5.07642" transform="matrix(1 -3.17584e-08 -3.18146e-08 -1 96.5234 102.471)" fill="#A1A1A1"/>
<rect width="5.07994" height="5.07642" transform="matrix(1 -3.17584e-08 -3.18146e-08 -1 66.0391 132.926)" fill="#A1A1A1"/>
<rect width="5.07994" height="5.07642" transform="matrix(1 -3.17584e-08 -3.18146e-08 -1 35.5625 163.381)" fill="#A1A1A1"/>
<rect width="5.07994" height="5.07642" transform="matrix(1 -3.17584e-08 -3.18146e-08 -1 5.08594 193.828)" fill="#A1A1A1"/>
<rect width="5.07994" height="5.07642" transform="matrix(1 -3.17584e-08 -3.18146e-08 -1 10.1641 87.2461)" fill="#A1A1A1"/>
<rect width="5.07994" height="5.07642" transform="matrix(1 -3.17584e-08 -3.18146e-08 -1 15.2422 92.3242)" fill="#A1A1A1"/>
<rect width="5.07994" height="5.07642" transform="matrix(1 -3.17584e-08 -3.18146e-08 -1 20.3203 97.3926)" fill="#A1A1A1"/>
<rect width="5.07994" height="5.07642" transform="matrix(1 -3.17584e-08 -3.18146e-08 -1 25.3984 102.471)" fill="#A1A1A1"/>
<rect width="5.07994" height="5.07642" transform="matrix(1 -3.17584e-08 -3.18146e-08 -1 35.5625 112.625)" fill="#A1A1A1"/>
<rect width="5.07994" height="5.07642" transform="matrix(1 -3.17584e-08 -3.18146e-08 -1 40.6406 117.701)" fill="#A1A1A1"/>
<rect width="5.07994" height="5.07642" transform="matrix(1 -3.17584e-08 -3.18146e-08 -1 45.7188 122.779)" fill="#A1A1A1"/>
<rect width="5.07994" height="5.07642" transform="matrix(1 -3.17584e-08 -3.18146e-08 -1 50.7969 127.848)" fill="#A1A1A1"/>
<rect width="5.07994" height="5.07642" transform="matrix(1 -3.17584e-08 -3.18146e-08 -1 55.8828 132.926)" fill="#A1A1A1"/>
<rect width="5.07994" height="5.07642" transform="matrix(1 -3.17584e-08 -3.18146e-08 -1 66.0391 143.08)" fill="#A1A1A1"/>
<rect width="5.07994" height="5.07642" transform="matrix(1 -3.17584e-08 -3.18146e-08 -1 71.1172 148.148)" fill="#A1A1A1"/>
<rect width="5.07994" height="5.07642" transform="matrix(1 -3.17584e-08 -3.18146e-08 -1 76.1953 153.227)" fill="#A1A1A1"/>
<rect width="5.07994" height="5.07642" transform="matrix(1 -3.17584e-08 -3.18146e-08 -1 81.2812 158.303)" fill="#A1A1A1"/>
<rect width="5.07994" height="5.07642" transform="matrix(1 -3.17584e-08 -3.18146e-08 -1 86.3594 163.381)" fill="#A1A1A1"/>
<rect width="5.07994" height="5.07642" transform="matrix(1 -3.17584e-08 -3.18146e-08 -1 96.5234 173.527)" fill="#A1A1A1"/>
<rect width="5.07994" height="5.07642" transform="matrix(1 -3.17584e-08 -3.18146e-08 -1 101.602 178.604)" fill="#A1A1A1"/>
<rect width="5.07994" height="5.07642" transform="matrix(1 -3.17584e-08 -3.18146e-08 -1 106.68 183.682)" fill="#A1A1A1"/>
<rect width="5.07994" height="5.07642" transform="matrix(1 -3.17584e-08 -3.18146e-08 -1 111.758 188.75)" fill="#A1A1A1"/>
<rect width="5.07994" height="5.07642" transform="matrix(1 -3.17584e-08 -3.18146e-08 -1 116.844 193.828)" fill="#A1A1A1"/>
<rect width="5.07994" height="5.07642" transform="matrix(1 -3.17584e-08 -3.18146e-08 -1 45.7188 77.0918)" fill="#A1A1A1"/>
<rect width="5.07994" height="5.07642" transform="matrix(1 -3.17584e-08 -3.18146e-08 -1 50.7969 6.04297)" fill="#A1A1A1"/>
<rect width="5.07994" height="5.07642" transform="matrix(-1 -5.55871e-08 -5.56855e-08 1 76.1953 264.885)" fill="#A1A1A1"/>
<rect width="5.07994" height="5.07642" transform="matrix(1 -3.17584e-08 -3.18146e-08 -1 101.602 6.04297)" fill="#A1A1A1"/>
<rect width="5.07994" height="5.07642" transform="matrix(-1 -5.55871e-08 -5.56855e-08 1 25.3984 264.885)" fill="#A1A1A1"/>
<rect width="5.07994" height="5.07642" transform="matrix(1 -3.17584e-08 -3.18146e-08 -1 45.7188 107.547)" fill="#A1A1A1"/>
<rect width="5.07994" height="5.07642" transform="matrix(1 -3.17584e-08 -3.18146e-08 -1 45.7188 138.002)" fill="#A1A1A1"/>
<rect width="5.07994" height="5.07642" transform="matrix(1 -3.17584e-08 -3.18146e-08 -1 45.7188 168.457)" fill="#A1A1A1"/>
<rect width="5.07642" height="5.07994" transform="matrix(-1.19354e-08 1 1 1.19143e-08 30.4844 117.701)" fill="#A1A1A1"/>
<rect width="5.07642" height="5.07994" transform="matrix(-1.19354e-08 1 1 1.19143e-08 60.9609 117.701)" fill="#A1A1A1"/>
<rect width="5.07642" height="5.07994" transform="matrix(-1.19354e-08 1 1 1.19143e-08 91.4453 117.701)" fill="#A1A1A1"/>
<rect width="5.07994" height="5.07642" transform="matrix(1 -3.17584e-08 -3.18146e-08 -1 45.7188 77.0918)" fill="#A1A1A1"/>
<rect width="5.07994" height="5.07642" transform="matrix(1 -3.17584e-08 -3.18146e-08 -1 50.7969 6.04297)" fill="#A1A1A1"/>
<rect width="5.07994" height="5.07642" transform="matrix(-1 -5.55871e-08 -5.56855e-08 1 76.1953 264.885)" fill="#A1A1A1"/>
<rect width="5.07994" height="5.07642" transform="matrix(1 -3.17584e-08 -3.18146e-08 -1 101.602 6.04297)" fill="#A1A1A1"/>
<rect width="5.07994" height="5.07642" transform="matrix(-1 -5.55871e-08 -5.56855e-08 1 25.3984 264.885)" fill="#A1A1A1"/>
<rect width="5.07994" height="5.07642" transform="matrix(1 -3.17584e-08 -3.18146e-08 -1 45.7188 107.547)" fill="#A1A1A1"/>
<rect width="5.07994" height="5.07642" transform="matrix(1 -3.17584e-08 -3.18146e-08 -1 45.7188 138.002)" fill="#A1A1A1"/>
<rect width="5.07994" height="5.07642" transform="matrix(1 -3.17584e-08 -3.18146e-08 -1 45.7188 168.457)" fill="#A1A1A1"/>
<rect width="5.07642" height="5.07994" transform="matrix(-1.19354e-08 1 1 1.19143e-08 30.4844 117.701)" fill="#A1A1A1"/>
<rect width="5.07642" height="5.07994" transform="matrix(-1.19354e-08 1 1 1.19143e-08 60.9609 117.701)" fill="#A1A1A1"/>
<rect width="5.07642" height="5.07994" transform="matrix(-1.19354e-08 1 1 1.19143e-08 91.4453 117.701)" fill="#A1A1A1"/>
<rect x="116.844" y="193.828" width="5.07994" height="5.07642" fill="#A1A1A1"/>
<rect x="5.08594" y="193.828" width="5.07642" height="5.07994" transform="rotate(90 5.08594 193.828)" fill="#A1A1A1"/>
<rect x="55.8828" y="193.828" width="5.07994" height="5.07642" fill="#A1A1A1"/>
<rect x="71.1172" y="193.828" width="5.07994" height="5.07642" fill="#A1A1A1"/>
<rect x="111.758" y="193.828" width="5.07994" height="5.07642" fill="#A1A1A1"/>
<rect x="5.08594" y="188.75" width="5.07642" height="5.07994" transform="rotate(90 5.08594 188.75)" fill="#A1A1A1"/>
<rect x="50.7969" y="193.828" width="5.07994" height="5.07642" fill="#A1A1A1"/>
<rect x="66.0391" y="193.828" width="5.07994" height="5.07642" fill="#A1A1A1"/>
<rect x="106.68" y="193.828" width="5.07994" height="5.07642" fill="#A1A1A1"/>
<rect x="45.7188" y="193.828" width="5.07994" height="5.07642" fill="#A1A1A1"/>
<rect x="101.602" y="193.828" width="5.07994" height="5.07642" fill="#A1A1A1"/>
<rect x="40.6406" y="193.828" width="5.07994" height="5.07642" fill="#A1A1A1"/>
<rect x="96.5234" y="193.828" width="5.07994" height="5.07642" fill="#A1A1A1"/>
<rect x="35.5625" y="193.828" width="5.07994" height="5.07642" fill="#A1A1A1"/>
<rect x="91.4453" y="193.828" width="5.07994" height="5.07642" fill="#A1A1A1"/>
<rect x="30.4844" y="193.828" width="5.07994" height="5.07642" fill="#A1A1A1"/>
<rect x="86.3594" y="193.828" width="5.07994" height="5.07642" fill="#A1A1A1"/>
<rect x="25.3984" y="193.828" width="5.07994" height="5.07642" fill="#A1A1A1"/>
<rect x="20.3203" y="193.828" width="5.07994" height="5.07642" fill="#A1A1A1"/>
<rect x="15.2422" y="193.828" width="5.07994" height="5.07642" fill="#A1A1A1"/>
<rect x="10.1641" y="193.828" width="5.07994" height="5.07642" fill="#A1A1A1"/>
<rect x="5.08594" y="193.828" width="5.07994" height="5.07642" fill="#A1A1A1"/>
<rect width="5.07994" height="5.07642" transform="matrix(-1 1.19104e-07 1.19315e-07 1 86.3594 193.828)" fill="#A1A1A1"/>
<rect width="5.07994" height="5.07642" transform="matrix(-1 1.19104e-07 1.19315e-07 1 96.5234 188.75)" fill="#A1A1A1"/>
<rect width="5.07994" height="5.07642" transform="matrix(-1 1.19104e-07 1.19315e-07 1 66.0391 188.75)" fill="#A1A1A1"/>
<rect width="5.07994" height="5.07642" transform="matrix(-1 1.19104e-07 1.19315e-07 1 35.5625 188.75)" fill="#A1A1A1"/>
<rect width="5.07994" height="5.07642" transform="matrix(-1 1.19104e-07 1.19315e-07 1 127 188.75)" fill="#A1A1A1"/>
<rect width="5.07994" height="5.07642" transform="matrix(-1 1.19104e-07 1.19315e-07 1 127 193.828)" fill="#A1A1A1"/>
<rect width="5.07994" height="5.07642" transform="matrix(-1 1.19104e-07 1.19315e-07 1 81.2812 193.828)" fill="#A1A1A1"/>
<rect width="5.07994" height="5.07642" transform="matrix(-1 1.19104e-07 1.19315e-07 1 66.0391 193.828)" fill="#A1A1A1"/>
<rect width="5.07994" height="5.07642" transform="matrix(-1 1.19104e-07 1.19315e-07 1 81.2812 193.828)" fill="#A1A1A1"/>
<rect width="5.07994" height="5.07642" transform="matrix(-1 1.19104e-07 1.19315e-07 1 66.0391 193.828)" fill="#A1A1A1"/>
<rect x="121.922" y="143.08" width="5.07642" height="5.07994" transform="rotate(-90 121.922 143.08)" fill="#A1A1A1"/>
<rect x="5.08594" y="127.848" width="5.07642" height="5.07994" transform="rotate(90 5.08594 127.848)" fill="#A1A1A1"/>
<rect x="121.922" y="127.848" width="5.07642" height="5.07994" transform="rotate(-90 121.922 127.848)" fill="#A1A1A1"/>
<rect x="5.08594" y="143.08" width="5.07642" height="5.07994" transform="rotate(90 5.08594 143.08)" fill="#A1A1A1"/>
<rect x="121.922" y="188.75" width="5.07642" height="5.07994" transform="rotate(-90 121.922 188.75)" fill="#A1A1A1"/>
<rect x="5.08594" y="82.1699" width="5.07642" height="5.07994" transform="rotate(90 5.08594 82.1699)" fill="#A1A1A1"/>
<rect x="121.922" y="148.148" width="5.07642" height="5.07994" transform="rotate(-90 121.922 148.148)" fill="#A1A1A1"/>
<rect x="5.08594" y="122.779" width="5.07642" height="5.07994" transform="rotate(90 5.08594 122.779)" fill="#A1A1A1"/>
<rect x="121.922" y="132.926" width="5.07642" height="5.07994" transform="rotate(-90 121.922 132.926)" fill="#A1A1A1"/>
<rect x="5.08594" y="138.002" width="5.07642" height="5.07994" transform="rotate(90 5.08594 138.002)" fill="#A1A1A1"/>
<rect x="121.922" y="92.3242" width="5.07642" height="5.07994" transform="rotate(-90 121.922 92.3242)" fill="#A1A1A1"/>
<rect x="5.08594" y="178.604" width="5.07642" height="5.07994" transform="rotate(90 5.08594 178.604)" fill="#A1A1A1"/>
<rect x="121.922" y="87.2461" width="5.07642" height="5.07994" transform="rotate(-90 121.922 87.2461)" fill="#A1A1A1"/>
<rect x="5.08594" y="183.682" width="5.07642" height="5.07994" transform="rotate(90 5.08594 183.682)" fill="#A1A1A1"/>
<rect x="121.922" y="153.227" width="5.07642" height="5.07994" transform="rotate(-90 121.922 153.227)" fill="#A1A1A1"/>
<rect x="5.08594" y="117.701" width="5.07642" height="5.07994" transform="rotate(90 5.08594 117.701)" fill="#A1A1A1"/>
<rect x="121.922" y="138.002" width="5.07642" height="5.07994" transform="rotate(-90 121.922 138.002)" fill="#A1A1A1"/>
<rect x="121.922" y="97.3926" width="5.07642" height="5.07994" transform="rotate(-90 121.922 97.3926)" fill="#A1A1A1"/>
<rect x="5.08594" y="173.527" width="5.07642" height="5.07994" transform="rotate(90 5.08594 173.527)" fill="#A1A1A1"/>
<rect x="121.922" y="158.303" width="5.07642" height="5.07994" transform="rotate(-90 121.922 158.303)" fill="#A1A1A1"/>
<rect x="5.08594" y="112.625" width="5.07642" height="5.07994" transform="rotate(90 5.08594 112.625)" fill="#A1A1A1"/>
<rect x="121.922" y="102.471" width="5.07642" height="5.07994" transform="rotate(-90 121.922 102.471)" fill="#A1A1A1"/>
<rect x="5.08594" y="168.457" width="5.07642" height="5.07994" transform="rotate(90 5.08594 168.457)" fill="#A1A1A1"/>
<rect x="121.922" y="163.381" width="5.07642" height="5.07994" transform="rotate(-90 121.922 163.381)" fill="#A1A1A1"/>
<rect x="5.08594" y="107.547" width="5.07642" height="5.07994" transform="rotate(90 5.08594 107.547)" fill="#A1A1A1"/>
<rect x="121.922" y="107.547" width="5.07642" height="5.07994" transform="rotate(-90 121.922 107.547)" fill="#A1A1A1"/>
<rect x="5.08594" y="163.381" width="5.07642" height="5.07994" transform="rotate(90 5.08594 163.381)" fill="#A1A1A1"/>
<rect x="121.922" y="168.457" width="5.07642" height="5.07994" transform="rotate(-90 121.922 168.457)" fill="#A1A1A1"/>
<rect x="5.08594" y="102.471" width="5.07642" height="5.07994" transform="rotate(90 5.08594 102.471)" fill="#A1A1A1"/>
<rect x="121.922" y="112.625" width="5.07642" height="5.07994" transform="rotate(-90 121.922 112.625)" fill="#A1A1A1"/>
<rect x="5.08594" y="158.303" width="5.07642" height="5.07994" transform="rotate(90 5.08594 158.303)" fill="#A1A1A1"/>
<rect x="121.922" y="173.527" width="5.07642" height="5.07994" transform="rotate(-90 121.922 173.527)" fill="#A1A1A1"/>
<rect x="5.08594" y="97.3926" width="5.07642" height="5.07994" transform="rotate(90 5.08594 97.3926)" fill="#A1A1A1"/>
<rect width="5.07642" height="5.07994" transform="matrix(1.63065e-07 1 1 -1.62777e-07 121.922 112.625)" fill="#A1A1A1"/>
<rect width="5.07642" height="5.07994" transform="matrix(-2.50565e-07 -1 -1 2.50122e-07 5.08594 158.303)" fill="#A1A1A1"/>
<rect width="5.07994" height="5.07642" transform="matrix(1 -3.17584e-08 -3.18146e-08 -1 116.844 107.547)" fill="#A1A1A1"/>
<rect width="5.07994" height="5.07642" transform="matrix(-1 1.19104e-07 1.19315e-07 1 10.1641 163.381)" fill="#A1A1A1"/>
<rect width="5.07994" height="5.07642" transform="matrix(1 -3.17584e-08 -3.18146e-08 -1 116.844 138.002)" fill="#A1A1A1"/>
<rect width="5.07994" height="5.07642" transform="matrix(-1 1.19104e-07 1.19315e-07 1 10.1641 132.926)" fill="#A1A1A1"/>
<rect width="5.07994" height="5.07642" transform="matrix(1 -3.17584e-08 -3.18146e-08 -1 116.844 168.457)" fill="#A1A1A1"/>
<rect width="5.07994" height="5.07642" transform="matrix(-1 1.19104e-07 1.19315e-07 1 10.1641 102.471)" fill="#A1A1A1"/>
<rect width="5.07642" height="5.07994" transform="matrix(1.63065e-07 1 1 -1.62777e-07 121.922 173.527)" fill="#A1A1A1"/>
<rect width="5.07642" height="5.07994" transform="matrix(-2.50565e-07 -1 -1 2.50122e-07 5.08594 97.3926)" fill="#A1A1A1"/>
<rect width="5.07642" height="5.07994" transform="matrix(1.63065e-07 1 1 -1.62777e-07 121.922 117.701)" fill="#A1A1A1"/>
<rect width="5.07642" height="5.07994" transform="matrix(-2.50565e-07 -1 -1 2.50122e-07 5.08594 153.227)" fill="#A1A1A1"/>
<rect width="5.07642" height="5.07994" transform="matrix(1.63065e-07 1 1 -1.62777e-07 121.922 178.604)" fill="#A1A1A1"/>
<rect width="5.07642" height="5.07994" transform="matrix(-2.50565e-07 -1 -1 2.50122e-07 5.08594 92.3242)" fill="#A1A1A1"/>
<rect width="5.07642" height="5.07994" transform="matrix(-2.50565e-07 -1 -1 2.50122e-07 5.08594 138.002)" fill="#A1A1A1"/>
<rect width="5.07642" height="5.07994" transform="matrix(1.63065e-07 1 1 -1.62777e-07 121.922 117.701)" fill="#A1A1A1"/>
<rect width="5.07642" height="5.07994" transform="matrix(-2.50565e-07 -1 -1 2.50122e-07 5.08594 153.227)" fill="#A1A1A1"/>
<rect width="5.07642" height="5.07994" transform="matrix(1.63065e-07 1 1 -1.62777e-07 121.922 178.604)" fill="#A1A1A1"/>
<rect width="5.07642" height="5.07994" transform="matrix(-2.50565e-07 -1 -1 2.50122e-07 5.08594 92.3242)" fill="#A1A1A1"/>
<rect width="5.07642" height="5.07994" transform="matrix(-2.50565e-07 -1 -1 2.50122e-07 5.08594 138.002)" fill="#A1A1A1"/>
<circle cx="33" cy="165" r="12" fill="white"/>
<path d="M34.0607 134.947C33.4749 134.361 32.5251 134.361 31.9393 134.947L22.3934 144.493C21.8076 145.079 21.8076 146.029 22.3934 146.614C22.9792 147.2 23.9289 147.2 24.5147 146.614L33 138.129L41.4853 146.614C42.0711 147.2 43.0208 147.2 43.6066 146.614C44.1924 146.029 44.1924 145.079 43.6066 144.493L34.0607 134.947ZM33 157.008L34.5 157.008L34.5 136.008L33 136.008L31.5 136.008L31.5 157.008L33 157.008Z" fill="white"/>
<path d="M96.0607 73.9472C95.4749 73.3614 94.5251 73.3614 93.9393 73.9472L84.3934 83.4931C83.8076 84.0789 83.8076 85.0286 84.3934 85.6144C84.9792 86.2002 85.9289 86.2002 86.5147 85.6144L95 77.1291L103.485 85.6144C104.071 86.2002 105.021 86.2002 105.607 85.6144C106.192 85.0286 106.192 84.0789 105.607 83.4931L96.0607 73.9472ZM95 96.0078L96.5 96.0078L96.5 75.0078L95 75.0078L93.5 75.0078L93.5 96.0078L95 96.0078Z" fill="white"/>
<path d="M31.9472 194.068C32.5329 194.654 33.4827 194.654 34.0685 194.068L43.6144 184.523C44.2002 183.937 44.2002 182.987 43.6144 182.401C43.0286 181.815 42.0789 181.815 41.4931 182.401L33.0078 190.886L24.5225 182.401C23.9367 181.815 22.987 181.815 22.4012 182.401C21.8154 182.987 21.8154 183.937 22.4012 184.523L31.9472 194.068ZM33.0078 172.008L31.5078 172.008L31.5078 193.008L33.0078 193.008L34.5078 193.008L34.5078 172.008L33.0078 172.008Z" fill="white"/>
<path d="M93.9472 133.068C94.5329 133.654 95.4827 133.654 96.0685 133.068L105.614 123.523C106.2 122.937 106.2 121.987 105.614 121.401C105.029 120.815 104.079 120.815 103.493 121.401L95.0078 129.886L86.5225 121.401C85.9367 120.815 84.987 120.815 84.4012 121.401C83.8154 121.987 83.8154 122.937 84.4012 123.523L93.9472 133.068ZM95.0078 111.008L93.5078 111.008L93.5078 132.008L95.0078 132.008L96.5078 132.008L96.5078 111.008L95.0078 111.008Z" fill="white"/>
<path d="M62.0607 167.068C62.6464 166.483 62.6464 165.533 62.0607 164.947L52.5147 155.401C51.9289 154.815 50.9792 154.815 50.3934 155.401C49.8076 155.987 49.8076 156.937 50.3934 157.523L58.8787 166.008L50.3934 174.493C49.8076 175.079 49.8076 176.029 50.3934 176.614C50.9792 177.2 51.9289 177.2 52.5147 176.614L62.0607 167.068ZM40 166.008V167.508H61V166.008V164.508H40V166.008Z" fill="white"/>
<path d="M124.061 106.068C124.646 105.483 124.646 104.533 124.061 103.947L114.515 94.4012C113.929 93.8154 112.979 93.8154 112.393 94.4012C111.808 94.987 111.808 95.9367 112.393 96.5225L120.879 105.008L112.393 113.493C111.808 114.079 111.808 115.029 112.393 115.614C112.979 116.2 113.929 116.2 114.515 115.614L124.061 106.068ZM102 105.008V106.508H123V105.008V103.508H102V105.008Z" fill="white"/>
<path d="M61.5 139.859C61.5 139.031 60.8284 138.359 60 138.359L46.5 138.359C45.6716 138.359 45 139.031 45 139.859C45 140.688 45.6716 141.359 46.5 141.359H58.5V153.359C58.5 154.188 59.1716 154.859 60 154.859C60.8284 154.859 61.5 154.188 61.5 153.359L61.5 139.859ZM39 160.859L40.0607 161.92L61.0607 140.92L60 139.859L58.9393 138.799L37.9393 159.799L39 160.859Z" fill="white"/>
<path d="M123.5 78.8594C123.5 78.0309 122.828 77.3594 122 77.3594L108.5 77.3594C107.672 77.3594 107 78.0309 107 78.8594C107 79.6878 107.672 80.3594 108.5 80.3594H120.5V92.3594C120.5 93.1878 121.172 93.8594 122 93.8594C122.828 93.8594 123.5 93.1878 123.5 92.3594L123.5 78.8594ZM101 99.8594L102.061 100.92L123.061 79.92L122 78.8594L120.939 77.7987L99.9393 98.7987L101 99.8594Z" fill="white"/>
<path d="M9 138.508C8.17157 138.508 7.5 139.179 7.5 140.008L7.5 153.508C7.5 154.336 8.17157 155.008 9 155.008C9.82843 155.008 10.5 154.336 10.5 153.508V141.508H22.5C23.3284 141.508 24 140.836 24 140.008C24 139.179 23.3284 138.508 22.5 138.508L9 138.508ZM30 161.008L31.0607 159.947L10.0607 138.947L9 140.008L7.93934 141.068L28.9393 162.068L30 161.008Z" fill="white"/>
<path d="M71 77.5078C70.1716 77.5078 69.5 78.1794 69.5 79.0078L69.5 92.5078C69.5 93.3362 70.1716 94.0078 71 94.0078C71.8284 94.0078 72.5 93.3362 72.5 92.5078V80.5078H84.5C85.3284 80.5078 86 79.8362 86 79.0078C86 78.1794 85.3284 77.5078 84.5 77.5078L71 77.5078ZM92 100.008L93.0607 98.9472L72.0607 77.9472L71 79.0078L69.9393 80.0685L90.9393 101.068L92 100.008Z" fill="white"/>
<path d="M6.5 190.008C6.5 190.836 7.17157 191.508 8 191.508L21.5 191.508C22.3284 191.508 23 190.836 23 190.008C23 189.179 22.3284 188.508 21.5 188.508H9.5V176.508C9.5 175.679 8.82843 175.008 8 175.008C7.17157 175.008 6.5 175.679 6.5 176.508L6.5 190.008ZM29 169.008L27.9393 167.947L6.93934 188.947L8 190.008L9.06066 191.068L30.0607 170.068L29 169.008Z" fill="white"/>
<path d="M68.5 129.008C68.5 129.836 69.1716 130.508 70 130.508L83.5 130.508C84.3284 130.508 85 129.836 85 129.008C85 128.179 84.3284 127.508 83.5 127.508H71.5V115.508C71.5 114.679 70.8284 114.008 70 114.008C69.1716 114.008 68.5 114.679 68.5 115.508L68.5 129.008ZM91 108.008L89.9393 106.947L68.9393 127.947L70 129.008L71.0607 130.068L92.0607 109.068L91 108.008Z" fill="white"/>
<path d="M59 192.508C59.8284 192.508 60.5 191.836 60.5 191.008L60.5 177.508C60.5 176.679 59.8284 176.008 59 176.008C58.1716 176.008 57.5 176.679 57.5 177.508V189.508H45.5C44.6716 189.508 44 190.179 44 191.008C44 191.836 44.6716 192.508 45.5 192.508L59 192.508ZM38 170.008L36.9393 171.068L57.9393 192.068L59 191.008L60.0607 189.947L39.0607 168.947L38 170.008Z" fill="white"/>
<path d="M121 131.508C121.828 131.508 122.5 130.836 122.5 130.008L122.5 116.508C122.5 115.679 121.828 115.008 121 115.008C120.172 115.008 119.5 115.679 119.5 116.508V128.508H107.5C106.672 128.508 106 129.179 106 130.008C106 130.836 106.672 131.508 107.5 131.508L121 131.508ZM100 109.008L98.9393 110.068L119.939 131.068L121 130.008L122.061 128.947L101.061 107.947L100 109.008Z" fill="white"/>
<path d="M2.93934 164.947C2.35355 165.533 2.35355 166.483 2.93934 167.068L12.4853 176.614C13.0711 177.2 14.0208 177.2 14.6066 176.614C15.1924 176.029 15.1924 175.079 14.6066 174.493L6.12132 166.008L14.6066 157.523C15.1924 156.937 15.1924 155.987 14.6066 155.401C14.0208 154.815 13.0711 154.815 12.4853 155.401L2.93934 164.947ZM25 166.008L25 164.508L4 164.508L4 166.008L4 167.508L25 167.508L25 166.008Z" fill="white"/>
<path d="M64.9393 103.947C64.3536 104.533 64.3536 105.483 64.9393 106.068L74.4853 115.614C75.0711 116.2 76.0208 116.2 76.6066 115.614C77.1924 115.029 77.1924 114.079 76.6066 113.493L68.1213 105.008L76.6066 96.5225C77.1924 95.9367 77.1924 94.987 76.6066 94.4012C76.0208 93.8154 75.0711 93.8154 74.4853 94.4012L64.9393 103.947ZM87 105.008L87 103.508L66 103.508L66 105.008L66 106.508L87 106.508L87 105.008Z" fill="white"/>
<circle cx="95" cy="105" r="12" fill="black"/>
</svg>
