<svg width="257" height="87" viewBox="0 0 257 87" fill="none" xmlns="http://www.w3.org/2000/svg">
<path d="M15.2687 76.06L19.5887 83H17.0287L13.8887 77.96L10.9487 83H8.40867L12.7287 76.06L8.38867 69.1H10.9487L14.1087 74.18L17.0687 69.1H19.6087L15.2687 76.06ZM26.6871 70.5V68.42H30.8471V83H28.5471V70.5H26.6871ZM41.8193 71.8C41.6726 71.1867 41.406 70.7267 41.0193 70.42C40.6326 70.1133 40.0926 69.96 39.3993 69.96C38.346 69.96 37.5593 70.3667 37.0393 71.18C36.5193 71.98 36.246 73.3133 36.2193 75.18C36.566 74.5933 37.0726 74.14 37.7393 73.82C38.406 73.5 39.126 73.34 39.8993 73.34C40.7793 73.34 41.5526 73.5333 42.2193 73.92C42.8993 74.2933 43.426 74.84 43.7993 75.56C44.186 76.28 44.3793 77.14 44.3793 78.14C44.3793 79.0733 44.1926 79.9067 43.8193 80.64C43.4593 81.3733 42.9193 81.9533 42.1993 82.38C41.4793 82.7933 40.6126 83 39.5993 83C38.226 83 37.146 82.7 36.3593 82.1C35.586 81.4867 35.0393 80.6267 34.7193 79.52C34.4126 78.4133 34.2593 77.0333 34.2593 75.38C34.2593 70.5 35.9793 68.06 39.4193 68.06C40.7526 68.06 41.7993 68.42 42.5593 69.14C43.3326 69.86 43.786 70.7467 43.9193 71.8H41.8193ZM39.3993 75.26C38.586 75.26 37.8926 75.5067 37.3193 76C36.7593 76.48 36.4793 77.18 36.4793 78.1C36.4793 79.02 36.7393 79.7533 37.2593 80.3C37.7926 80.8333 38.5326 81.1 39.4793 81.1C40.3193 81.1 40.9793 80.84 41.4593 80.32C41.9526 79.8 42.1993 79.1067 42.1993 78.24C42.1993 77.3333 41.9593 76.6133 41.4793 76.08C41.0126 75.5333 40.3193 75.26 39.3993 75.26Z" fill="white"/>
<path d="M219.769 76.06L224.089 83H221.529L218.389 77.96L215.449 83H212.909L217.229 76.06L212.889 69.1H215.449L218.609 74.18L221.569 69.1H224.109L219.769 76.06ZM231.187 70.5V68.42H235.347V83H233.047V70.5H231.187ZM246.319 71.8C246.173 71.1867 245.906 70.7267 245.519 70.42C245.133 70.1133 244.593 69.96 243.899 69.96C242.846 69.96 242.059 70.3667 241.539 71.18C241.019 71.98 240.746 73.3133 240.719 75.18C241.066 74.5933 241.573 74.14 242.239 73.82C242.906 73.5 243.626 73.34 244.399 73.34C245.279 73.34 246.053 73.5333 246.719 73.92C247.399 74.2933 247.926 74.84 248.299 75.56C248.686 76.28 248.879 77.14 248.879 78.14C248.879 79.0733 248.693 79.9067 248.319 80.64C247.959 81.3733 247.419 81.9533 246.699 82.38C245.979 82.7933 245.113 83 244.099 83C242.726 83 241.646 82.7 240.859 82.1C240.086 81.4867 239.539 80.6267 239.219 79.52C238.913 78.4133 238.759 77.0333 238.759 75.38C238.759 70.5 240.479 68.06 243.919 68.06C245.253 68.06 246.299 68.42 247.059 69.14C247.833 69.86 248.286 70.7467 248.419 71.8H246.319ZM243.899 75.26C243.086 75.26 242.393 75.5067 241.819 76C241.259 76.48 240.979 77.18 240.979 78.1C240.979 79.02 241.239 79.7533 241.759 80.3C242.293 80.8333 243.033 81.1 243.979 81.1C244.819 81.1 245.479 80.84 245.959 80.32C246.453 79.8 246.699 79.1067 246.699 78.24C246.699 77.3333 246.459 76.6133 245.979 76.08C245.513 75.5333 244.819 75.26 243.899 75.26Z" fill="white"/>
<circle cx="26" cy="26" r="26" fill="white"/>
<circle cx="231" cy="26" r="26" fill="black"/>
</svg>
