<svg width="34" height="36" viewBox="0 0 34 36" fill="none" xmlns="http://www.w3.org/2000/svg">
<path d="M26.9246 31.6148C27.3066 32.2571 27.1005 33.09 26.4638 33.4747C23.6702 35.1638 20.5616 36 17.466 36C13.7574 36 10.0659 34.8016 6.952 32.4345C-0.257614 26.9551 -2.06629 16.8919 2.49906 9.25997L1.81641 9.35672C1.07732 9.45868 0.401237 8.9429 0.29884 8.20266C0.195131 7.4611 0.707114 6.77516 1.44358 6.6712L5.20863 6.13754C5.93985 6.02631 6.62249 6.5507 6.7262 7.2916L7.25525 11.0895C7.35896 11.831 6.84698 12.517 6.11051 12.6209C6.04749 12.6302 5.98448 12.6342 5.92278 12.6342C5.26245 12.6342 4.68746 12.1442 4.59294 11.4669L4.54699 11.1374C1.0317 17.5329 2.61794 25.7445 8.56934 30.2681C13.4069 33.9448 19.8894 34.2918 25.0801 31.1494C25.7182 30.7634 26.5426 30.9719 26.9246 31.6148ZM32.1836 26.6431L31.5009 26.7398C36.0663 19.1079 34.2576 9.0447 27.048 3.56525C21.3361 -0.777527 13.6774 -1.18737 7.53618 2.52507C6.89949 2.90976 6.69338 3.74269 7.0754 4.38494C7.45742 5.02785 8.28184 5.23641 8.91985 4.8504C14.1132 1.71068 20.5944 2.05564 25.4307 5.73167C31.3821 10.2553 32.9683 18.4668 29.453 24.8624L29.4071 24.5329C29.3034 23.792 28.622 23.2656 27.8895 23.3789C27.153 23.4828 26.641 24.1688 26.7447 24.9103L27.2738 28.7082C27.3683 29.3855 27.9433 29.8755 28.6036 29.8755C28.6653 29.8755 28.7284 29.8715 28.7914 29.8622L32.5564 29.3286C33.2929 29.2246 33.8049 28.5387 33.7012 27.7971C33.5975 27.0562 32.9161 26.5351 32.1836 26.6431ZM16.1638 28.8655L6.76033 19.4718C6.22603 18.9514 6.21159 18.0392 6.7262 17.5002L16.064 7.71899C16.3121 7.46077 16.6521 7.29822 17.0079 7.2916C17.3453 7.27505 17.7076 7.41599 17.9649 7.66561L27.3683 16.9476C27.9026 17.4681 27.9171 18.3244 27.4025 18.8634L18.0647 28.8332C17.8165 29.0915 17.4765 29.4627 17.1208 29.4627C17.1129 29.4627 17.105 29.4627 17.0971 29.4627C16.7493 29.4627 16.4145 29.1098 16.1638 28.8655ZM9.59462 18.3552L17.0643 25.7563L24.534 17.9526L17.0643 10.5516L9.59462 18.3552Z" fill="white"/>
</svg>
