<svg width="272" height="272" viewBox="0 0 272 272" fill="none" xmlns="http://www.w3.org/2000/svg">
<rect x="16.6562" y="112" width="5.33333" height="5.55102" transform="rotate(-90 16.6562 112)" fill="#A1A1A1"/>
<rect x="255.344" y="160" width="5.33333" height="5.55102" transform="rotate(90 255.344 160)" fill="#A1A1A1"/>
<rect x="255.344" y="154.664" width="5.33333" height="5.55102" transform="rotate(90 255.344 154.664)" fill="#A1A1A1"/>
<rect x="160.984" y="21.3359" width="5.55102" height="5.33333" fill="#A1A1A1"/>
<rect x="155.43" y="21.3359" width="5.55102" height="5.33333" fill="#A1A1A1"/>
<rect x="111.016" y="250.664" width="5.55102" height="5.33333" transform="rotate(180 111.016 250.664)" fill="#A1A1A1"/>
<rect x="16.6562" y="106.664" width="5.33333" height="5.55102" transform="rotate(-90 16.6562 106.664)" fill="#A1A1A1"/>
<rect x="255.344" y="165.336" width="5.33333" height="5.55102" transform="rotate(90 255.344 165.336)" fill="#A1A1A1"/>
<rect x="166.531" y="21.3359" width="5.55102" height="5.33333" fill="#A1A1A1"/>
<rect x="105.469" y="250.664" width="5.55102" height="5.33333" transform="rotate(180 105.469 250.664)" fill="#A1A1A1"/>
<rect x="116.57" y="250.664" width="5.55102" height="5.33333" transform="rotate(180 116.57 250.664)" fill="#A1A1A1"/>
<rect x="16.6562" y="101.336" width="5.33333" height="5.55102" transform="rotate(-90 16.6562 101.336)" fill="#A1A1A1"/>
<rect x="255.344" y="170.664" width="5.33333" height="5.55102" transform="rotate(90 255.344 170.664)" fill="#A1A1A1"/>
<rect x="172.078" y="21.3359" width="5.55102" height="5.33333" fill="#A1A1A1"/>
<rect x="99.9219" y="250.664" width="5.55102" height="5.33333" transform="rotate(180 99.9219 250.664)" fill="#A1A1A1"/>
<rect x="16.6562" y="96" width="5.33333" height="5.55102" transform="rotate(-90 16.6562 96)" fill="#A1A1A1"/>
<rect x="255.344" y="176" width="5.33333" height="5.55102" transform="rotate(90 255.344 176)" fill="#A1A1A1"/>
<rect x="177.633" y="21.3359" width="5.55102" height="5.33333" fill="#A1A1A1"/>
<rect x="94.3672" y="250.664" width="5.55102" height="5.33333" transform="rotate(180 94.3672 250.664)" fill="#A1A1A1"/>
<rect x="22.2031" y="90.6641" width="5.33333" height="5.55102" transform="rotate(-90 22.2031 90.6641)" fill="#A1A1A1"/>
<rect x="249.797" y="181.336" width="5.33333" height="5.55102" transform="rotate(90 249.797 181.336)" fill="#A1A1A1"/>
<rect x="183.188" y="26.6641" width="5.55102" height="5.33333" fill="#A1A1A1"/>
<rect x="88.8125" y="245.336" width="5.55102" height="5.33333" transform="rotate(180 88.8125 245.336)" fill="#A1A1A1"/>
<rect x="22.2031" y="85.3359" width="5.33333" height="5.55102" transform="rotate(-90 22.2031 85.3359)" fill="#A1A1A1"/>
<rect x="249.797" y="186.664" width="5.33333" height="5.55102" transform="rotate(90 249.797 186.664)" fill="#A1A1A1"/>
<rect x="188.734" y="26.6641" width="5.55102" height="5.33333" fill="#A1A1A1"/>
<rect x="83.2656" y="245.336" width="5.55102" height="5.33333" transform="rotate(180 83.2656 245.336)" fill="#A1A1A1"/>
<rect x="27.75" y="80" width="5.33333" height="5.55102" transform="rotate(-90 27.75 80)" fill="#A1A1A1"/>
<rect x="244.25" y="192" width="5.33333" height="5.55102" transform="rotate(90 244.25 192)" fill="#A1A1A1"/>
<rect x="194.281" y="32" width="5.55102" height="5.33333" fill="#A1A1A1"/>
<rect x="77.7188" y="240" width="5.55102" height="5.33333" transform="rotate(180 77.7188 240)" fill="#A1A1A1"/>
<rect x="27.75" y="74.6641" width="5.33333" height="5.55102" transform="rotate(-90 27.75 74.6641)" fill="#A1A1A1"/>
<rect x="244.25" y="197.336" width="5.33333" height="5.55102" transform="rotate(90 244.25 197.336)" fill="#A1A1A1"/>
<rect x="199.836" y="32" width="5.55102" height="5.33333" fill="#A1A1A1"/>
<rect x="72.1641" y="240" width="5.55102" height="5.33333" transform="rotate(180 72.1641 240)" fill="#A1A1A1"/>
<rect x="55.5156" y="42.6641" width="5.33333" height="5.55102" transform="rotate(-90 55.5156 42.6641)" fill="#A1A1A1"/>
<rect x="216.484" y="229.336" width="5.33333" height="5.55102" transform="rotate(90 216.484 229.336)" fill="#A1A1A1"/>
<rect x="233.141" y="58.6641" width="5.55102" height="5.33333" fill="#A1A1A1"/>
<rect x="38.8594" y="213.336" width="5.55102" height="5.33333" transform="rotate(180 38.8594 213.336)" fill="#A1A1A1"/>
<rect x="66.6094" y="37.3359" width="5.33333" height="5.55102" transform="rotate(-90 66.6094 37.3359)" fill="#A1A1A1"/>
<rect x="205.391" y="234.664" width="5.33333" height="5.55102" transform="rotate(90 205.391 234.664)" fill="#A1A1A1"/>
<rect x="238.695" y="69.3359" width="5.55102" height="5.33333" fill="#A1A1A1"/>
<rect x="33.3047" y="202.664" width="5.55102" height="5.33333" transform="rotate(180 33.3047 202.664)" fill="#A1A1A1"/>
<rect x="72.1641" y="37.3359" width="5.33333" height="5.55102" transform="rotate(-90 72.1641 37.3359)" fill="#A1A1A1"/>
<rect x="199.836" y="234.664" width="5.33333" height="5.55102" transform="rotate(90 199.836 234.664)" fill="#A1A1A1"/>
<rect x="238.695" y="74.6641" width="5.55102" height="5.33333" fill="#A1A1A1"/>
<rect x="33.3047" y="197.336" width="5.55102" height="5.33333" transform="rotate(180 33.3047 197.336)" fill="#A1A1A1"/>
<rect x="77.7188" y="32" width="5.33333" height="5.55102" transform="rotate(-90 77.7188 32)" fill="#A1A1A1"/>
<rect x="194.281" y="240" width="5.33333" height="5.55102" transform="rotate(90 194.281 240)" fill="#A1A1A1"/>
<rect x="244.25" y="80" width="5.55102" height="5.33333" fill="#A1A1A1"/>
<rect x="144.328" y="122.664" width="5.55102" height="5.33333" fill="#A1A1A1"/>
<rect x="55.5156" y="208" width="5.55102" height="5.33333" fill="#A1A1A1"/>
<rect x="61.0625" y="58.6641" width="5.33333" height="5.55102" transform="rotate(90 61.0625 58.6641)" fill="#A1A1A1"/>
<rect x="149.875" y="144" width="5.33333" height="5.55102" transform="rotate(90 149.875 144)" fill="#A1A1A1"/>
<rect x="166.531" y="101.336" width="5.55102" height="5.33333" fill="#A1A1A1"/>
<rect x="77.7188" y="186.664" width="5.55102" height="5.33333" fill="#A1A1A1"/>
<rect x="83.2656" y="80" width="5.33333" height="5.55102" transform="rotate(90 83.2656 80)" fill="#A1A1A1"/>
<rect x="172.078" y="165.336" width="5.33333" height="5.55102" transform="rotate(90 172.078 165.336)" fill="#A1A1A1"/>
<rect x="188.734" y="80" width="5.55102" height="5.33333" fill="#A1A1A1"/>
<rect x="99.9219" y="165.336" width="5.55102" height="5.33333" fill="#A1A1A1"/>
<rect x="105.469" y="101.336" width="5.33333" height="5.55102" transform="rotate(90 105.469 101.336)" fill="#A1A1A1"/>
<rect x="194.281" y="186.664" width="5.33333" height="5.55102" transform="rotate(90 194.281 186.664)" fill="#A1A1A1"/>
<rect x="149.875" y="117.336" width="5.55102" height="5.33333" fill="#A1A1A1"/>
<rect x="61.0625" y="202.664" width="5.55102" height="5.33333" fill="#A1A1A1"/>
<rect x="66.6094" y="64" width="5.33333" height="5.55102" transform="rotate(90 66.6094 64)" fill="#A1A1A1"/>
<rect x="155.43" y="149.336" width="5.33333" height="5.55102" transform="rotate(90 155.43 149.336)" fill="#A1A1A1"/>
<rect x="172.078" y="96" width="5.55102" height="5.33333" fill="#A1A1A1"/>
<rect x="83.2656" y="181.336" width="5.55102" height="5.33333" fill="#A1A1A1"/>
<rect x="88.8125" y="85.3359" width="5.33333" height="5.55102" transform="rotate(90 88.8125 85.3359)" fill="#A1A1A1"/>
<rect x="177.633" y="170.664" width="5.33333" height="5.55102" transform="rotate(90 177.633 170.664)" fill="#A1A1A1"/>
<rect x="194.281" y="74.6641" width="5.55102" height="5.33333" fill="#A1A1A1"/>
<rect x="105.469" y="160" width="5.55102" height="5.33333" fill="#A1A1A1"/>
<rect x="111.016" y="106.664" width="5.33333" height="5.55102" transform="rotate(90 111.016 106.664)" fill="#A1A1A1"/>
<rect x="199.836" y="192" width="5.33333" height="5.55102" transform="rotate(90 199.836 192)" fill="#A1A1A1"/>
<rect x="155.43" y="112" width="5.55102" height="5.33333" fill="#A1A1A1"/>
<rect x="66.6094" y="197.336" width="5.55102" height="5.33333" fill="#A1A1A1"/>
<rect x="72.1641" y="69.3359" width="5.33333" height="5.55102" transform="rotate(90 72.1641 69.3359)" fill="#A1A1A1"/>
<rect x="160.984" y="154.664" width="5.33333" height="5.55102" transform="rotate(90 160.984 154.664)" fill="#A1A1A1"/>
<rect x="177.633" y="90.6641" width="5.55102" height="5.33333" fill="#A1A1A1"/>
<rect x="88.8125" y="176" width="5.55102" height="5.33333" fill="#A1A1A1"/>
<rect x="94.3672" y="90.6641" width="5.33333" height="5.55102" transform="rotate(90 94.3672 90.6641)" fill="#A1A1A1"/>
<rect x="183.188" y="176" width="5.33333" height="5.55102" transform="rotate(90 183.188 176)" fill="#A1A1A1"/>
<rect x="199.836" y="69.3359" width="5.55102" height="5.33333" fill="#A1A1A1"/>
<rect x="111.016" y="154.664" width="5.55102" height="5.33333" fill="#A1A1A1"/>
<rect x="116.57" y="112" width="5.33333" height="5.55102" transform="rotate(90 116.57 112)" fill="#A1A1A1"/>
<rect x="205.391" y="197.336" width="5.33333" height="5.55102" transform="rotate(90 205.391 197.336)" fill="#A1A1A1"/>
<rect x="210.938" y="58.6641" width="5.55102" height="5.33333" fill="#A1A1A1"/>
<rect x="122.125" y="144" width="5.55102" height="5.33333" fill="#A1A1A1"/>
<rect x="127.672" y="122.664" width="5.33333" height="5.55102" transform="rotate(90 127.672 122.664)" fill="#A1A1A1"/>
<rect x="216.484" y="208" width="5.33333" height="5.55102" transform="rotate(90 216.484 208)" fill="#A1A1A1"/>
<rect x="160.984" y="106.664" width="5.55102" height="5.33333" fill="#A1A1A1"/>
<rect x="72.1641" y="192" width="5.55102" height="5.33333" fill="#A1A1A1"/>
<rect x="77.7188" y="74.6641" width="5.33333" height="5.55102" transform="rotate(90 77.7188 74.6641)" fill="#A1A1A1"/>
<rect x="166.531" y="160" width="5.33333" height="5.55102" transform="rotate(90 166.531 160)" fill="#A1A1A1"/>
<rect x="183.188" y="85.3359" width="5.55102" height="5.33333" fill="#A1A1A1"/>
<rect x="94.3672" y="170.664" width="5.55102" height="5.33333" fill="#A1A1A1"/>
<rect x="99.9219" y="96" width="5.33333" height="5.55102" transform="rotate(90 99.9219 96)" fill="#A1A1A1"/>
<rect x="188.734" y="181.336" width="5.33333" height="5.55102" transform="rotate(90 188.734 181.336)" fill="#A1A1A1"/>
<rect x="205.391" y="64" width="5.55102" height="5.33333" fill="#A1A1A1"/>
<rect x="116.57" y="149.336" width="5.55102" height="5.33333" fill="#A1A1A1"/>
<rect x="122.125" y="117.336" width="5.33333" height="5.55102" transform="rotate(90 122.125 117.336)" fill="#A1A1A1"/>
<rect x="210.938" y="202.664" width="5.33333" height="5.55102" transform="rotate(90 210.938 202.664)" fill="#A1A1A1"/>
<rect x="27.75" y="192" width="5.55102" height="5.33333" transform="rotate(180 27.75 192)" fill="#A1A1A1"/>
<rect x="83.2656" y="32" width="5.33333" height="5.55102" transform="rotate(-90 83.2656 32)" fill="#A1A1A1"/>
<rect x="188.734" y="240" width="5.33333" height="5.55102" transform="rotate(90 188.734 240)" fill="#A1A1A1"/>
<rect x="244.25" y="85.3359" width="5.55102" height="5.33333" fill="#A1A1A1"/>
<rect x="27.75" y="186.664" width="5.55102" height="5.33333" transform="rotate(180 27.75 186.664)" fill="#A1A1A1"/>
<rect x="88.8125" y="26.6641" width="5.33333" height="5.55102" transform="rotate(-90 88.8125 26.6641)" fill="#A1A1A1"/>
<rect x="183.188" y="245.336" width="5.33333" height="5.55102" transform="rotate(90 183.188 245.336)" fill="#A1A1A1"/>
<rect x="249.797" y="90.6641" width="5.55102" height="5.33333" fill="#A1A1A1"/>
<rect x="22.2031" y="181.336" width="5.55102" height="5.33333" transform="rotate(180 22.2031 181.336)" fill="#A1A1A1"/>
<rect x="94.3672" y="26.6641" width="5.33333" height="5.55102" transform="rotate(-90 94.3672 26.6641)" fill="#A1A1A1"/>
<rect x="177.633" y="245.336" width="5.33333" height="5.55102" transform="rotate(90 177.633 245.336)" fill="#A1A1A1"/>
<rect x="249.797" y="96" width="5.55102" height="5.33333" fill="#A1A1A1"/>
<rect x="22.2031" y="176" width="5.55102" height="5.33333" transform="rotate(180 22.2031 176)" fill="#A1A1A1"/>
<rect x="99.9219" y="26.6641" width="5.33333" height="5.55102" transform="rotate(-90 99.9219 26.6641)" fill="#A1A1A1"/>
<rect x="172.078" y="245.336" width="5.33333" height="5.55102" transform="rotate(90 172.078 245.336)" fill="#A1A1A1"/>
<rect x="249.797" y="101.336" width="5.55102" height="5.33333" fill="#A1A1A1"/>
<rect x="22.2031" y="170.664" width="5.55102" height="5.33333" transform="rotate(180 22.2031 170.664)" fill="#A1A1A1"/>
<rect x="105.469" y="26.6641" width="5.33333" height="5.55102" transform="rotate(-90 105.469 26.6641)" fill="#A1A1A1"/>
<rect x="111.016" y="26.6641" width="5.33333" height="5.55102" transform="rotate(-90 111.016 26.6641)" fill="#A1A1A1"/>
<rect x="166.531" y="245.336" width="5.33333" height="5.55102" transform="rotate(90 166.531 245.336)" fill="#A1A1A1"/>
<rect x="160.984" y="245.336" width="5.33333" height="5.55102" transform="rotate(90 160.984 245.336)" fill="#A1A1A1"/>
<rect x="249.797" y="106.664" width="5.55102" height="5.33333" fill="#A1A1A1"/>
<rect x="249.797" y="112" width="5.55102" height="5.33333" fill="#A1A1A1"/>
<rect x="22.2031" y="165.336" width="5.55102" height="5.33333" transform="rotate(180 22.2031 165.336)" fill="#A1A1A1"/>
<rect x="133.219" y="117.336" width="5.55102" height="5.33333" fill="#A1A1A1"/>
<rect x="116.57" y="138.664" width="5.33333" height="5.55102" transform="rotate(-90 116.57 138.664)" fill="#A1A1A1"/>
<rect x="133.219" y="58.6641" width="5.55102" height="5.33333" fill="#A1A1A1"/>
<rect x="55.5156" y="138.664" width="5.33333" height="5.55102" transform="rotate(-90 55.5156 138.664)" fill="#A1A1A1"/>
<rect x="133.219" y="160" width="5.55102" height="5.33333" fill="#A1A1A1"/>
<rect x="160.984" y="138.664" width="5.33333" height="5.55102" transform="rotate(-90 160.984 138.664)" fill="#A1A1A1"/>
<rect x="133.219" y="37.3359" width="5.55102" height="5.33333" fill="#A1A1A1"/>
<rect x="33.3047" y="138.664" width="5.33333" height="5.55102" transform="rotate(-90 33.3047 138.664)" fill="#A1A1A1"/>
<rect x="133.219" y="80" width="5.55102" height="5.33333" fill="#A1A1A1"/>
<rect x="77.7188" y="138.664" width="5.33333" height="5.55102" transform="rotate(-90 77.7188 138.664)" fill="#A1A1A1"/>
<rect x="133.219" y="181.336" width="5.55102" height="5.33333" fill="#A1A1A1"/>
<rect x="183.188" y="138.664" width="5.33333" height="5.55102" transform="rotate(-90 183.188 138.664)" fill="#A1A1A1"/>
<rect x="133.219" y="69.3359" width="5.55102" height="5.33333" fill="#A1A1A1"/>
<rect x="66.6094" y="138.664" width="5.33333" height="5.55102" transform="rotate(-90 66.6094 138.664)" fill="#A1A1A1"/>
<rect x="133.219" y="170.664" width="5.55102" height="5.33333" fill="#A1A1A1"/>
<rect x="172.078" y="138.664" width="5.33333" height="5.55102" transform="rotate(-90 172.078 138.664)" fill="#A1A1A1"/>
<rect x="133.219" y="48" width="5.55102" height="5.33333" fill="#A1A1A1"/>
<rect x="44.4062" y="138.664" width="5.33333" height="5.55102" transform="rotate(-90 44.4062 138.664)" fill="#A1A1A1"/>
<rect x="133.219" y="149.336" width="5.55102" height="5.33333" fill="#A1A1A1"/>
<rect x="149.875" y="138.664" width="5.33333" height="5.55102" transform="rotate(-90 149.875 138.664)" fill="#A1A1A1"/>
<rect x="133.219" y="90.6641" width="5.55102" height="5.33333" fill="#A1A1A1"/>
<rect x="88.8125" y="138.664" width="5.33333" height="5.55102" transform="rotate(-90 88.8125 138.664)" fill="#A1A1A1"/>
<rect x="133.219" y="192" width="5.55102" height="5.33333" fill="#A1A1A1"/>
<rect x="194.281" y="138.664" width="5.33333" height="5.55102" transform="rotate(-90 194.281 138.664)" fill="#A1A1A1"/>
<rect x="133.219" y="224" width="5.55102" height="5.33333" fill="#A1A1A1"/>
<rect x="227.594" y="138.664" width="5.33333" height="5.55102" transform="rotate(-90 227.594 138.664)" fill="#A1A1A1"/>
<rect x="133.219" y="64" width="5.55102" height="5.33333" fill="#A1A1A1"/>
<rect x="61.0625" y="138.664" width="5.33333" height="5.55102" transform="rotate(-90 61.0625 138.664)" fill="#A1A1A1"/>
<rect x="133.219" y="165.336" width="5.55102" height="5.33333" fill="#A1A1A1"/>
<rect x="166.531" y="138.664" width="5.33333" height="5.55102" transform="rotate(-90 166.531 138.664)" fill="#A1A1A1"/>
<rect x="133.219" y="42.6641" width="5.55102" height="5.33333" fill="#A1A1A1"/>
<rect x="38.8594" y="138.664" width="5.33333" height="5.55102" transform="rotate(-90 38.8594 138.664)" fill="#A1A1A1"/>
<rect x="133.219" y="85.3359" width="5.55102" height="5.33333" fill="#A1A1A1"/>
<rect x="83.2656" y="138.664" width="5.33333" height="5.55102" transform="rotate(-90 83.2656 138.664)" fill="#A1A1A1"/>
<rect x="133.219" y="186.664" width="5.55102" height="5.33333" fill="#A1A1A1"/>
<rect x="188.734" y="138.664" width="5.33333" height="5.55102" transform="rotate(-90 188.734 138.664)" fill="#A1A1A1"/>
<rect x="133.219" y="218.664" width="5.55102" height="5.33333" fill="#A1A1A1"/>
<rect x="222.039" y="138.664" width="5.33333" height="5.55102" transform="rotate(-90 222.039 138.664)" fill="#A1A1A1"/>
<rect x="133.219" y="74.6641" width="5.55102" height="5.33333" fill="#A1A1A1"/>
<rect x="72.1641" y="138.664" width="5.33333" height="5.55102" transform="rotate(-90 72.1641 138.664)" fill="#A1A1A1"/>
<rect x="133.219" y="176" width="5.55102" height="5.33333" fill="#A1A1A1"/>
<rect x="177.633" y="138.664" width="5.33333" height="5.55102" transform="rotate(-90 177.633 138.664)" fill="#A1A1A1"/>
<rect x="133.219" y="53.3359" width="5.55102" height="5.33333" fill="#A1A1A1"/>
<rect x="49.9609" y="138.664" width="5.33333" height="5.55102" transform="rotate(-90 49.9609 138.664)" fill="#A1A1A1"/>
<rect x="133.219" y="154.664" width="5.55102" height="5.33333" fill="#A1A1A1"/>
<rect x="155.43" y="138.664" width="5.33333" height="5.55102" transform="rotate(-90 155.43 138.664)" fill="#A1A1A1"/>
<rect x="133.219" y="96" width="5.55102" height="5.33333" fill="#A1A1A1"/>
<rect x="94.3672" y="138.664" width="5.33333" height="5.55102" transform="rotate(-90 94.3672 138.664)" fill="#A1A1A1"/>
<rect x="133.219" y="197.336" width="5.55102" height="5.33333" fill="#A1A1A1"/>
<rect x="199.836" y="138.664" width="5.33333" height="5.55102" transform="rotate(-90 199.836 138.664)" fill="#A1A1A1"/>
<rect x="133.219" y="229.336" width="5.55102" height="5.33333" fill="#A1A1A1"/>
<rect x="233.141" y="138.664" width="5.33333" height="5.55102" transform="rotate(-90 233.141 138.664)" fill="#A1A1A1"/>
<rect x="133.219" y="101.336" width="5.55102" height="5.33333" fill="#A1A1A1"/>
<rect x="99.9219" y="138.664" width="5.33333" height="5.55102" transform="rotate(-90 99.9219 138.664)" fill="#A1A1A1"/>
<rect x="133.219" y="202.664" width="5.55102" height="5.33333" fill="#A1A1A1"/>
<rect x="205.391" y="138.664" width="5.33333" height="5.55102" transform="rotate(-90 205.391 138.664)" fill="#A1A1A1"/>
<rect x="133.219" y="106.664" width="5.55102" height="5.33333" fill="#A1A1A1"/>
<rect x="105.469" y="138.664" width="5.33333" height="5.55102" transform="rotate(-90 105.469 138.664)" fill="#A1A1A1"/>
<rect x="133.219" y="208" width="5.55102" height="5.33333" fill="#A1A1A1"/>
<rect x="210.938" y="138.664" width="5.33333" height="5.55102" transform="rotate(-90 210.938 138.664)" fill="#A1A1A1"/>
<rect x="133.219" y="112" width="5.55102" height="5.33333" fill="#A1A1A1"/>
<rect x="111.016" y="138.664" width="5.33333" height="5.55102" transform="rotate(-90 111.016 138.664)" fill="#A1A1A1"/>
<rect x="133.219" y="213.336" width="5.55102" height="5.33333" fill="#A1A1A1"/>
<rect x="216.484" y="138.664" width="5.33333" height="5.55102" transform="rotate(-90 216.484 138.664)" fill="#A1A1A1"/>
<rect x="116.57" y="133.336" width="5.33333" height="5.55102" transform="rotate(-90 116.57 133.336)" fill="#A1A1A1"/>
<rect x="155.43" y="138.664" width="5.33333" height="5.55102" transform="rotate(90 155.43 138.664)" fill="#A1A1A1"/>
<rect x="133.219" y="154.664" width="5.55102" height="5.33333" transform="rotate(180 133.219 154.664)" fill="#A1A1A1"/>
<rect x="138.781" y="117.336" width="5.55102" height="5.33333" fill="#A1A1A1"/>
<rect x="127.672" y="122.664" width="5.33333" height="5.55102" transform="rotate(-90 127.672 122.664)" fill="#A1A1A1"/>
<rect x="144.328" y="149.336" width="5.33333" height="5.55102" transform="rotate(90 144.328 149.336)" fill="#A1A1A1"/>
<rect x="122.125" y="144" width="5.55102" height="5.33333" transform="rotate(180 122.125 144)" fill="#A1A1A1"/>
<rect x="149.875" y="128" width="5.55102" height="5.33333" fill="#A1A1A1"/>
<rect x="144.328" y="122.664" width="5.55102" height="5.33333" fill="#A1A1A1"/>
<rect x="122.125" y="122.664" width="5.55102" height="5.33333" fill="#A1A1A1"/>
<rect x="122.125" y="144" width="5.55102" height="5.33333" fill="#A1A1A1"/>
<rect x="144.328" y="144" width="5.55102" height="5.33333" fill="#A1A1A1"/>
<rect x="27.75" y="48" width="5.33333" height="5.55102" transform="rotate(-90 27.75 48)" fill="#A1A1A1"/>
<rect x="205.391" y="48" width="5.33333" height="5.55102" transform="rotate(-90 205.391 48)" fill="#A1A1A1"/>
<rect x="66.6094" y="53.3359" width="5.33333" height="5.55102" transform="rotate(90 66.6094 53.3359)" fill="#A1A1A1"/>
<rect x="244.25" y="53.3359" width="5.33333" height="5.55102" transform="rotate(90 244.25 53.3359)" fill="#A1A1A1"/>
<rect x="44.4062" y="69.3359" width="5.55102" height="5.33333" transform="rotate(180 44.4062 69.3359)" fill="#A1A1A1"/>
<rect x="222.039" y="69.3359" width="5.55102" height="5.33333" transform="rotate(180 222.039 69.3359)" fill="#A1A1A1"/>
<rect x="49.9609" y="32" width="5.55102" height="5.33333" fill="#A1A1A1"/>
<rect x="227.594" y="32" width="5.55102" height="5.33333" fill="#A1A1A1"/>
<rect x="38.8594" y="37.3359" width="5.33333" height="5.55102" transform="rotate(-90 38.8594 37.3359)" fill="#A1A1A1"/>
<rect x="216.484" y="37.3359" width="5.33333" height="5.55102" transform="rotate(-90 216.484 37.3359)" fill="#A1A1A1"/>
<rect x="55.5156" y="64" width="5.33333" height="5.55102" transform="rotate(90 55.5156 64)" fill="#A1A1A1"/>
<rect x="233.141" y="64" width="5.33333" height="5.55102" transform="rotate(90 233.141 64)" fill="#A1A1A1"/>
<rect x="33.3047" y="58.6641" width="5.55102" height="5.33333" transform="rotate(180 33.3047 58.6641)" fill="#A1A1A1"/>
<rect x="210.938" y="58.6641" width="5.55102" height="5.33333" transform="rotate(180 210.938 58.6641)" fill="#A1A1A1"/>
<rect x="61.0625" y="42.6641" width="5.55102" height="5.33333" fill="#A1A1A1"/>
<rect x="238.695" y="42.6641" width="5.55102" height="5.33333" fill="#A1A1A1"/>
<rect x="55.5156" y="37.3359" width="5.55102" height="5.33333" fill="#A1A1A1"/>
<rect x="233.141" y="37.3359" width="5.55102" height="5.33333" fill="#A1A1A1"/>
<rect x="33.3047" y="37.3359" width="5.55102" height="5.33333" fill="#A1A1A1"/>
<rect x="210.938" y="37.3359" width="5.55102" height="5.33333" fill="#A1A1A1"/>
<rect x="27.75" y="48" width="5.55102" height="5.33333" fill="#A1A1A1"/>
<rect x="205.391" y="48" width="5.55102" height="5.33333" fill="#A1A1A1"/>
<rect x="33.3047" y="58.6641" width="5.55102" height="5.33333" fill="#A1A1A1"/>
<rect x="210.938" y="58.6641" width="5.55102" height="5.33333" fill="#A1A1A1"/>
<rect x="44.4062" y="64" width="5.55102" height="5.33333" fill="#A1A1A1"/>
<rect x="222.039" y="64" width="5.55102" height="5.33333" fill="#A1A1A1"/>
<rect x="55.5156" y="58.6641" width="5.55102" height="5.33333" fill="#A1A1A1"/>
<rect x="233.141" y="58.6641" width="5.55102" height="5.33333" fill="#A1A1A1"/>
<rect x="61.0625" y="48" width="5.55102" height="5.33333" fill="#A1A1A1"/>
<rect x="238.695" y="48" width="5.55102" height="5.33333" fill="#A1A1A1"/>
<rect x="44.4062" y="32" width="5.55102" height="5.33333" fill="#A1A1A1"/>
<rect x="222.039" y="32" width="5.55102" height="5.33333" fill="#A1A1A1"/>
<rect x="27.75" y="218.664" width="5.33333" height="5.55102" transform="rotate(-90 27.75 218.664)" fill="#A1A1A1"/>
<rect x="66.6094" y="224" width="5.33333" height="5.55102" transform="rotate(90 66.6094 224)" fill="#A1A1A1"/>
<rect x="44.4062" y="240" width="5.55102" height="5.33333" transform="rotate(180 44.4062 240)" fill="#A1A1A1"/>
<rect x="49.9609" y="202.664" width="5.55102" height="5.33333" fill="#A1A1A1"/>
<rect x="38.8594" y="208" width="5.33333" height="5.55102" transform="rotate(-90 38.8594 208)" fill="#A1A1A1"/>
<rect x="55.5156" y="234.664" width="5.33333" height="5.55102" transform="rotate(90 55.5156 234.664)" fill="#A1A1A1"/>
<rect x="33.3047" y="229.336" width="5.55102" height="5.33333" transform="rotate(180 33.3047 229.336)" fill="#A1A1A1"/>
<rect x="61.0625" y="213.336" width="5.55102" height="5.33333" fill="#A1A1A1"/>
<rect x="55.5156" y="208" width="5.55102" height="5.33333" fill="#A1A1A1"/>
<rect x="33.3047" y="208" width="5.55102" height="5.33333" fill="#A1A1A1"/>
<rect x="27.75" y="218.664" width="5.55102" height="5.33333" fill="#A1A1A1"/>
<rect x="33.3047" y="229.336" width="5.55102" height="5.33333" fill="#A1A1A1"/>
<rect x="44.4062" y="234.664" width="5.55102" height="5.33333" fill="#A1A1A1"/>
<rect x="55.5156" y="229.336" width="5.55102" height="5.33333" fill="#A1A1A1"/>
<rect x="61.0625" y="218.664" width="5.55102" height="5.33333" fill="#A1A1A1"/>
<rect x="44.4062" y="202.664" width="5.55102" height="5.33333" fill="#A1A1A1"/>
<rect x="205.391" y="218.664" width="5.33333" height="5.55102" transform="rotate(-90 205.391 218.664)" fill="#A1A1A1"/>
<rect x="244.25" y="224" width="5.33333" height="5.55102" transform="rotate(90 244.25 224)" fill="#A1A1A1"/>
<rect x="222.039" y="240" width="5.55102" height="5.33333" transform="rotate(180 222.039 240)" fill="#A1A1A1"/>
<rect x="227.594" y="202.664" width="5.55102" height="5.33333" fill="#A1A1A1"/>
<rect x="216.484" y="208" width="5.33333" height="5.55102" transform="rotate(-90 216.484 208)" fill="#A1A1A1"/>
<rect x="233.141" y="234.664" width="5.33333" height="5.55102" transform="rotate(90 233.141 234.664)" fill="#A1A1A1"/>
<rect x="210.938" y="229.336" width="5.55102" height="5.33333" transform="rotate(180 210.938 229.336)" fill="#A1A1A1"/>
<rect x="238.695" y="213.336" width="5.55102" height="5.33333" fill="#A1A1A1"/>
<rect x="233.141" y="208" width="5.55102" height="5.33333" fill="#A1A1A1"/>
<rect x="210.938" y="208" width="5.55102" height="5.33333" fill="#A1A1A1"/>
<rect x="205.391" y="218.664" width="5.55102" height="5.33333" fill="#A1A1A1"/>
<rect x="210.938" y="229.336" width="5.55102" height="5.33333" fill="#A1A1A1"/>
<rect x="222.039" y="234.664" width="5.55102" height="5.33333" fill="#A1A1A1"/>
<rect x="233.141" y="229.336" width="5.55102" height="5.33333" fill="#A1A1A1"/>
<rect x="238.695" y="218.664" width="5.55102" height="5.33333" fill="#A1A1A1"/>
<rect x="222.039" y="202.664" width="5.55102" height="5.33333" fill="#A1A1A1"/>
<rect x="116.57" y="16" width="5.33333" height="5.55102" transform="rotate(-90 116.57 16)" fill="#A1A1A1"/>
<rect x="155.43" y="21.3359" width="5.33333" height="5.55102" transform="rotate(90 155.43 21.3359)" fill="#A1A1A1"/>
<rect x="133.227" y="37.3359" width="5.55102" height="5.33333" transform="rotate(180 133.227 37.3359)" fill="#A1A1A1"/>
<rect width="5.55102" height="5.33333" transform="matrix(1 -1.04993e-08 2.91171e-06 1 138.781 0)" fill="#A1A1A1"/>
<rect x="127.672" y="5.33594" width="5.33333" height="5.55102" transform="rotate(-90 127.672 5.33594)" fill="#A1A1A1"/>
<rect x="144.328" y="32" width="5.33333" height="5.55102" transform="rotate(90 144.328 32)" fill="#A1A1A1"/>
<rect x="122.125" y="26.6719" width="5.55102" height="5.33333" transform="rotate(180 122.125 26.6719)" fill="#A1A1A1"/>
<rect x="149.883" y="10.6719" width="5.55102" height="5.33333" fill="#A1A1A1"/>
<rect x="144.328" y="5.33594" width="5.55102" height="5.33333" fill="#A1A1A1"/>
<rect x="122.125" y="5.33594" width="5.55102" height="5.33333" fill="#A1A1A1"/>
<rect width="5.55102" height="5.33333" transform="matrix(1 -2.68782e-06 1.13739e-08 1 116.57 16)" fill="#A1A1A1"/>
<rect x="122.125" y="26.6719" width="5.55102" height="5.33333" fill="#A1A1A1"/>
<rect x="133.227" y="32" width="5.55102" height="5.33333" fill="#A1A1A1"/>
<rect x="144.328" y="26.6719" width="5.55102" height="5.33333" fill="#A1A1A1"/>
<rect x="149.883" y="16" width="5.55102" height="5.33333" fill="#A1A1A1"/>
<rect width="5.55102" height="5.33333" transform="matrix(1 -1.04993e-08 2.91171e-06 1 133.227 0)" fill="#A1A1A1"/>
<rect x="233.148" y="133.336" width="5.33333" height="5.55102" transform="rotate(-90 233.148 133.336)" fill="#A1A1A1"/>
<rect x="272" y="138.672" width="5.33333" height="5.55102" transform="rotate(90 272 138.672)" fill="#A1A1A1"/>
<rect x="249.797" y="154.672" width="5.55102" height="5.33333" transform="rotate(180 249.797 154.672)" fill="#A1A1A1"/>
<rect width="5.55102" height="5.33333" transform="matrix(1 -1.04993e-08 2.91171e-06 1 255.352 117.336)" fill="#A1A1A1"/>
<rect x="244.25" y="122.672" width="5.33333" height="5.55102" transform="rotate(-90 244.25 122.672)" fill="#A1A1A1"/>
<rect x="260.898" y="149.336" width="5.33333" height="5.55102" transform="rotate(90 260.898 149.336)" fill="#A1A1A1"/>
<rect x="238.695" y="144" width="5.55102" height="5.33333" transform="rotate(180 238.695 144)" fill="#A1A1A1"/>
<rect x="266.453" y="128" width="5.55102" height="5.33333" fill="#A1A1A1"/>
<rect x="260.898" y="122.672" width="5.55102" height="5.33333" fill="#A1A1A1"/>
<rect x="238.695" y="122.672" width="5.55102" height="5.33333" fill="#A1A1A1"/>
<rect width="5.55102" height="5.33333" transform="matrix(1 -2.68782e-06 1.13739e-08 1 233.148 133.336)" fill="#A1A1A1"/>
<rect x="238.695" y="144" width="5.55102" height="5.33333" fill="#A1A1A1"/>
<rect x="249.797" y="149.336" width="5.55102" height="5.33333" fill="#A1A1A1"/>
<rect x="260.898" y="144" width="5.55102" height="5.33333" fill="#A1A1A1"/>
<rect x="266.453" y="133.336" width="5.55102" height="5.33333" fill="#A1A1A1"/>
<rect width="5.55102" height="5.33333" transform="matrix(1 -1.04993e-08 2.91171e-06 1 249.797 117.336)" fill="#A1A1A1"/>
<rect y="133.336" width="5.33333" height="5.55102" transform="rotate(-90 0 133.336)" fill="#A1A1A1"/>
<rect x="38.8516" y="138.664" width="5.33333" height="5.55102" transform="rotate(90 38.8516 138.664)" fill="#A1A1A1"/>
<rect x="16.6484" y="154.664" width="5.55102" height="5.33333" transform="rotate(180 16.6484 154.664)" fill="#A1A1A1"/>
<rect x="22.2031" y="117.336" width="5.55102" height="5.33333" fill="#A1A1A1"/>
<rect x="11.1016" y="122.664" width="5.33333" height="5.55102" transform="rotate(-90 11.1016 122.664)" fill="#A1A1A1"/>
<rect x="27.75" y="149.336" width="5.33333" height="5.55102" transform="rotate(90 27.75 149.336)" fill="#A1A1A1"/>
<rect x="5.54688" y="144" width="5.55102" height="5.33333" transform="rotate(180 5.54688 144)" fill="#A1A1A1"/>
<rect x="33.3047" y="128" width="5.55102" height="5.33333" fill="#A1A1A1"/>
<rect x="27.75" y="122.664" width="5.55102" height="5.33333" fill="#A1A1A1"/>
<rect x="5.54688" y="122.664" width="5.55102" height="5.33333" fill="#A1A1A1"/>
<rect y="133.336" width="5.55102" height="5.33333" fill="#A1A1A1"/>
<rect x="5.54688" y="144" width="5.55102" height="5.33333" fill="#A1A1A1"/>
<rect x="16.6484" y="149.336" width="5.55102" height="5.33333" fill="#A1A1A1"/>
<rect x="27.75" y="144" width="5.55102" height="5.33333" fill="#A1A1A1"/>
<rect width="5.55102" height="5.33333" transform="matrix(1 -1.04993e-08 2.91171e-06 1 16.6484 112)" fill="#A1A1A1"/>
<rect x="16.6484" y="154.664" width="5.55102" height="5.33333" fill="#A1A1A1"/>
<rect x="16.6484" y="117.336" width="5.55102" height="5.33333" fill="#A1A1A1"/>
<rect x="116.57" y="250.664" width="5.33333" height="5.55102" transform="rotate(-90 116.57 250.664)" fill="#A1A1A1"/>
<rect x="155.43" y="256" width="5.33333" height="5.55102" transform="rotate(90 155.43 256)" fill="#A1A1A1"/>
<rect x="133.227" y="272" width="5.55102" height="5.33333" transform="rotate(180 133.227 272)" fill="#A1A1A1"/>
<rect width="5.55102" height="5.33333" transform="matrix(1 -1.04993e-08 2.91171e-06 1 138.781 234.664)" fill="#A1A1A1"/>
<rect x="127.672" y="240" width="5.33333" height="5.55102" transform="rotate(-90 127.672 240)" fill="#A1A1A1"/>
<rect x="144.328" y="266.664" width="5.33333" height="5.55102" transform="rotate(90 144.328 266.664)" fill="#A1A1A1"/>
<rect x="122.125" y="261.336" width="5.55102" height="5.33333" transform="rotate(180 122.125 261.336)" fill="#A1A1A1"/>
<rect x="149.883" y="245.328" width="5.55102" height="5.33333" fill="#A1A1A1"/>
<rect x="144.328" y="240" width="5.55102" height="5.33333" fill="#A1A1A1"/>
<rect x="122.125" y="240" width="5.55102" height="5.33333" fill="#A1A1A1"/>
<rect width="5.55102" height="5.33333" transform="matrix(1 -2.68782e-06 1.13739e-08 1 116.57 250.664)" fill="#A1A1A1"/>
<rect x="122.125" y="261.336" width="5.55102" height="5.33333" fill="#A1A1A1"/>
<rect x="133.227" y="266.664" width="5.55102" height="5.33333" fill="#A1A1A1"/>
<rect x="144.328" y="261.336" width="5.55102" height="5.33333" fill="#A1A1A1"/>
<rect x="149.883" y="250.664" width="5.55102" height="5.33333" fill="#A1A1A1"/>
<rect width="5.55102" height="5.33333" transform="matrix(1 -1.04993e-08 2.91171e-06 1 133.227 234.664)" fill="#A1A1A1"/>
</svg>
