<svg width="270" height="342" viewBox="0 0 270 342" fill="none" xmlns="http://www.w3.org/2000/svg">
<rect x="115" width="38" height="38" rx="15" fill="#FDFCFC"/>
<circle cx="134.262" cy="19.2615" r="5.26154" fill="black"/>
<path d="M23.63 326.25V324.794H26.542V335H24.932V326.25H23.63Z" fill="white"/>
<path d="M242.63 29.25V27.794H245.542V38H243.932V29.25H242.63Z" fill="white"/>
<g opacity="0.7">
<rect x="239.438" y="124.152" width="5.07691" height="5.09434" transform="rotate(90 239.438 124.152)" fill="#A1A1A1"/>
<rect x="25.4688" y="230.771" width="5.07691" height="5.09434" transform="rotate(90 25.4688 230.771)" fill="#A1A1A1"/>
<rect x="239.438" y="159.695" width="5.07691" height="5.09434" transform="rotate(90 239.438 159.695)" fill="#A1A1A1"/>
<rect x="239.438" y="195.229" width="5.07691" height="5.09434" transform="rotate(90 239.438 195.229)" fill="#A1A1A1"/>
<rect x="203.773" y="159.695" width="5.07691" height="5.09434" transform="rotate(90 203.773 159.695)" fill="#A1A1A1"/>
<rect x="203.773" y="195.229" width="5.07691" height="5.09434" transform="rotate(90 203.773 195.229)" fill="#A1A1A1"/>
<rect x="168.109" y="159.695" width="5.07691" height="5.09434" transform="rotate(90 168.109 159.695)" fill="#A1A1A1"/>
<rect x="168.109" y="195.229" width="5.07691" height="5.09434" transform="rotate(90 168.109 195.229)" fill="#A1A1A1"/>
<rect x="132.453" y="53.0762" width="5.07691" height="5.09434" transform="rotate(90 132.453 53.0762)" fill="#A1A1A1"/>
<rect x="137.547" y="306.924" width="5.07691" height="5.09434" transform="rotate(-90 137.547 306.924)" fill="#A1A1A1"/>
<rect x="132.453" y="88.6191" width="5.07691" height="5.09434" transform="rotate(90 132.453 88.6191)" fill="#A1A1A1"/>
<rect x="137.547" y="271.381" width="5.07691" height="5.09434" transform="rotate(-90 137.547 271.381)" fill="#A1A1A1"/>
<rect x="168.109" y="53.0762" width="5.07691" height="5.09434" transform="rotate(90 168.109 53.0762)" fill="#A1A1A1"/>
<rect x="101.891" y="306.924" width="5.07691" height="5.09434" transform="rotate(-90 101.891 306.924)" fill="#A1A1A1"/>
<rect x="168.109" y="88.6191" width="5.07691" height="5.09434" transform="rotate(90 168.109 88.6191)" fill="#A1A1A1"/>
<rect x="101.891" y="271.381" width="5.07691" height="5.09434" transform="rotate(-90 101.891 271.381)" fill="#A1A1A1"/>
<rect x="203.773" y="53.0762" width="5.07691" height="5.09434" transform="rotate(90 203.773 53.0762)" fill="#A1A1A1"/>
<rect x="66.2266" y="306.924" width="5.07691" height="5.09434" transform="rotate(-90 66.2266 306.924)" fill="#A1A1A1"/>
<rect x="203.773" y="88.6191" width="5.07691" height="5.09434" transform="rotate(90 203.773 88.6191)" fill="#A1A1A1"/>
<rect x="66.2266" y="271.381" width="5.07691" height="5.09434" transform="rotate(-90 66.2266 271.381)" fill="#A1A1A1"/>
<rect x="239.438" y="53.0762" width="5.07691" height="5.09434" transform="rotate(90 239.438 53.0762)" fill="#A1A1A1"/>
<rect x="30.5625" y="306.924" width="5.07691" height="5.09434" transform="rotate(-90 30.5625 306.924)" fill="#A1A1A1"/>
<rect x="239.438" y="88.6191" width="5.07691" height="5.09434" transform="rotate(90 239.438 88.6191)" fill="#A1A1A1"/>
<rect x="30.5625" y="271.381" width="5.07691" height="5.09434" transform="rotate(-90 30.5625 271.381)" fill="#A1A1A1"/>
<rect x="96.7891" y="53.0762" width="5.07691" height="5.09434" transform="rotate(90 96.7891 53.0762)" fill="#A1A1A1"/>
<rect x="173.211" y="306.924" width="5.07691" height="5.09434" transform="rotate(-90 173.211 306.924)" fill="#A1A1A1"/>
<rect x="96.7891" y="88.6191" width="5.07691" height="5.09434" transform="rotate(90 96.7891 88.6191)" fill="#A1A1A1"/>
<rect x="173.211" y="271.381" width="5.07691" height="5.09434" transform="rotate(-90 173.211 271.381)" fill="#A1A1A1"/>
<rect x="61.1328" y="53.0762" width="5.07691" height="5.09434" transform="rotate(90 61.1328 53.0762)" fill="#A1A1A1"/>
<rect x="208.867" y="306.924" width="5.07691" height="5.09434" transform="rotate(-90 208.867 306.924)" fill="#A1A1A1"/>
<rect x="61.1328" y="88.6191" width="5.07691" height="5.09434" transform="rotate(90 61.1328 88.6191)" fill="#A1A1A1"/>
<rect x="208.867" y="271.381" width="5.07691" height="5.09434" transform="rotate(-90 208.867 271.381)" fill="#A1A1A1"/>
<rect x="239.438" y="129.229" width="5.07691" height="5.09434" transform="rotate(90 239.438 129.229)" fill="#A1A1A1"/>
<rect x="25.4688" y="235.848" width="5.07691" height="5.09434" transform="rotate(90 25.4688 235.848)" fill="#A1A1A1"/>
<rect x="239.438" y="164.771" width="5.07691" height="5.09434" transform="rotate(90 239.438 164.771)" fill="#A1A1A1"/>
<rect x="239.438" y="200.305" width="5.07691" height="5.09434" transform="rotate(90 239.438 200.305)" fill="#A1A1A1"/>
<rect x="203.773" y="164.771" width="5.07691" height="5.09434" transform="rotate(90 203.773 164.771)" fill="#A1A1A1"/>
<rect x="203.773" y="200.305" width="5.07691" height="5.09434" transform="rotate(90 203.773 200.305)" fill="#A1A1A1"/>
<rect x="168.109" y="164.771" width="5.07691" height="5.09434" transform="rotate(90 168.109 164.771)" fill="#A1A1A1"/>
<rect x="168.109" y="200.305" width="5.07691" height="5.09434" transform="rotate(90 168.109 200.305)" fill="#A1A1A1"/>
<rect x="132.453" y="58.1523" width="5.07691" height="5.09434" transform="rotate(90 132.453 58.1523)" fill="#A1A1A1"/>
<rect x="137.547" y="301.848" width="5.07691" height="5.09434" transform="rotate(-90 137.547 301.848)" fill="#A1A1A1"/>
<rect x="132.453" y="93.6953" width="5.07691" height="5.09434" transform="rotate(90 132.453 93.6953)" fill="#A1A1A1"/>
<rect x="137.547" y="266.305" width="5.07691" height="5.09434" transform="rotate(-90 137.547 266.305)" fill="#A1A1A1"/>
<rect x="168.109" y="58.1523" width="5.07691" height="5.09434" transform="rotate(90 168.109 58.1523)" fill="#A1A1A1"/>
<rect x="101.891" y="301.848" width="5.07691" height="5.09434" transform="rotate(-90 101.891 301.848)" fill="#A1A1A1"/>
<rect x="168.109" y="93.6953" width="5.07691" height="5.09434" transform="rotate(90 168.109 93.6953)" fill="#A1A1A1"/>
<rect x="101.891" y="266.305" width="5.07691" height="5.09434" transform="rotate(-90 101.891 266.305)" fill="#A1A1A1"/>
<rect x="203.773" y="58.1523" width="5.07691" height="5.09434" transform="rotate(90 203.773 58.1523)" fill="#A1A1A1"/>
<rect x="66.2266" y="301.848" width="5.07691" height="5.09434" transform="rotate(-90 66.2266 301.848)" fill="#A1A1A1"/>
<rect x="203.773" y="93.6953" width="5.07691" height="5.09434" transform="rotate(90 203.773 93.6953)" fill="#A1A1A1"/>
<rect x="66.2266" y="266.305" width="5.07691" height="5.09434" transform="rotate(-90 66.2266 266.305)" fill="#A1A1A1"/>
<rect x="239.438" y="58.1523" width="5.07691" height="5.09434" transform="rotate(90 239.438 58.1523)" fill="#A1A1A1"/>
<rect x="30.5625" y="301.848" width="5.07691" height="5.09434" transform="rotate(-90 30.5625 301.848)" fill="#A1A1A1"/>
<rect x="35.6641" y="296.771" width="5.07691" height="5.09434" transform="rotate(-90 35.6641 296.771)" fill="#A1A1A1"/>
<rect x="71.3203" y="296.771" width="5.07691" height="5.09434" transform="rotate(-90 71.3203 296.771)" fill="#A1A1A1"/>
<rect x="106.984" y="296.771" width="5.07691" height="5.09434" transform="rotate(-90 106.984 296.771)" fill="#A1A1A1"/>
<rect x="142.641" y="296.771" width="5.07691" height="5.09434" transform="rotate(-90 142.641 296.771)" fill="#A1A1A1"/>
<rect x="178.305" y="296.771" width="5.07691" height="5.09434" transform="rotate(-90 178.305 296.771)" fill="#A1A1A1"/>
<rect x="40.7578" y="291.695" width="5.07691" height="5.09434" transform="rotate(-90 40.7578 291.695)" fill="#A1A1A1"/>
<rect x="76.4141" y="291.695" width="5.07691" height="5.09434" transform="rotate(-90 76.4141 291.695)" fill="#A1A1A1"/>
<rect x="112.078" y="291.695" width="5.07691" height="5.09434" transform="rotate(-90 112.078 291.695)" fill="#A1A1A1"/>
<rect x="147.734" y="291.695" width="5.07691" height="5.09434" transform="rotate(-90 147.734 291.695)" fill="#A1A1A1"/>
<rect x="183.398" y="291.695" width="5.07691" height="5.09434" transform="rotate(-90 183.398 291.695)" fill="#A1A1A1"/>
<rect x="45.8516" y="286.619" width="5.07691" height="5.09434" transform="rotate(-90 45.8516 286.619)" fill="#A1A1A1"/>
<rect x="81.5078" y="286.619" width="5.07691" height="5.09434" transform="rotate(-90 81.5078 286.619)" fill="#A1A1A1"/>
<rect x="117.172" y="286.619" width="5.07691" height="5.09434" transform="rotate(-90 117.172 286.619)" fill="#A1A1A1"/>
<rect x="152.828" y="286.619" width="5.07691" height="5.09434" transform="rotate(-90 152.828 286.619)" fill="#A1A1A1"/>
<rect x="188.492" y="286.619" width="5.07691" height="5.09434" transform="rotate(-90 188.492 286.619)" fill="#A1A1A1"/>
<rect x="50.9453" y="281.535" width="5.07691" height="5.09434" transform="rotate(-90 50.9453 281.535)" fill="#A1A1A1"/>
<rect x="86.6016" y="281.535" width="5.07691" height="5.09434" transform="rotate(-90 86.6016 281.535)" fill="#A1A1A1"/>
<rect x="122.266" y="281.535" width="5.07691" height="5.09434" transform="rotate(-90 122.266 281.535)" fill="#A1A1A1"/>
<rect x="157.922" y="281.535" width="5.07691" height="5.09434" transform="rotate(-90 157.922 281.535)" fill="#A1A1A1"/>
<rect x="193.586" y="281.535" width="5.07691" height="5.09434" transform="rotate(-90 193.586 281.535)" fill="#A1A1A1"/>
<rect x="239.438" y="93.6953" width="5.07691" height="5.09434" transform="rotate(90 239.438 93.6953)" fill="#A1A1A1"/>
<rect x="30.5625" y="266.305" width="5.07691" height="5.09434" transform="rotate(-90 30.5625 266.305)" fill="#A1A1A1"/>
<rect x="96.7891" y="58.1523" width="5.07691" height="5.09434" transform="rotate(90 96.7891 58.1523)" fill="#A1A1A1"/>
<rect x="173.211" y="301.848" width="5.07691" height="5.09434" transform="rotate(-90 173.211 301.848)" fill="#A1A1A1"/>
<rect x="96.7891" y="93.6953" width="5.07691" height="5.09434" transform="rotate(90 96.7891 93.6953)" fill="#A1A1A1"/>
<rect x="173.211" y="266.305" width="5.07691" height="5.09434" transform="rotate(-90 173.211 266.305)" fill="#A1A1A1"/>
<rect x="61.1328" y="58.1523" width="5.07691" height="5.09434" transform="rotate(90 61.1328 58.1523)" fill="#A1A1A1"/>
<rect x="208.867" y="301.848" width="5.07691" height="5.09434" transform="rotate(-90 208.867 301.848)" fill="#A1A1A1"/>
<rect x="61.1328" y="93.6953" width="5.07691" height="5.09434" transform="rotate(90 61.1328 93.6953)" fill="#A1A1A1"/>
<rect x="208.867" y="266.305" width="5.07691" height="5.09434" transform="rotate(-90 208.867 266.305)" fill="#A1A1A1"/>
<rect x="244.531" y="129.229" width="5.07691" height="5.09434" transform="rotate(90 244.531 129.229)" fill="#A1A1A1"/>
<rect x="30.5625" y="235.848" width="5.07691" height="5.09434" transform="rotate(90 30.5625 235.848)" fill="#A1A1A1"/>
<rect x="244.531" y="164.771" width="5.07691" height="5.09434" transform="rotate(90 244.531 164.771)" fill="#A1A1A1"/>
<rect x="244.531" y="200.305" width="5.07691" height="5.09434" transform="rotate(90 244.531 200.305)" fill="#A1A1A1"/>
<rect x="208.867" y="164.771" width="5.07691" height="5.09434" transform="rotate(90 208.867 164.771)" fill="#A1A1A1"/>
<rect x="208.867" y="200.305" width="5.07691" height="5.09434" transform="rotate(90 208.867 200.305)" fill="#A1A1A1"/>
<rect x="173.211" y="164.771" width="5.07691" height="5.09434" transform="rotate(90 173.211 164.771)" fill="#A1A1A1"/>
<rect x="173.211" y="200.305" width="5.07691" height="5.09434" transform="rotate(90 173.211 200.305)" fill="#A1A1A1"/>
<rect x="137.547" y="58.1523" width="5.07691" height="5.09434" transform="rotate(90 137.547 58.1523)" fill="#A1A1A1"/>
<rect x="132.453" y="301.848" width="5.07691" height="5.09434" transform="rotate(-90 132.453 301.848)" fill="#A1A1A1"/>
<rect x="137.547" y="93.6953" width="5.07691" height="5.09434" transform="rotate(90 137.547 93.6953)" fill="#A1A1A1"/>
<rect x="132.453" y="266.305" width="5.07691" height="5.09434" transform="rotate(-90 132.453 266.305)" fill="#A1A1A1"/>
<rect x="173.211" y="58.1523" width="5.07691" height="5.09434" transform="rotate(90 173.211 58.1523)" fill="#A1A1A1"/>
<rect x="96.7891" y="301.848" width="5.07691" height="5.09434" transform="rotate(-90 96.7891 301.848)" fill="#A1A1A1"/>
<rect x="173.211" y="93.6953" width="5.07691" height="5.09434" transform="rotate(90 173.211 93.6953)" fill="#A1A1A1"/>
<rect x="96.7891" y="266.305" width="5.07691" height="5.09434" transform="rotate(-90 96.7891 266.305)" fill="#A1A1A1"/>
<rect x="208.867" y="58.1523" width="5.07691" height="5.09434" transform="rotate(90 208.867 58.1523)" fill="#A1A1A1"/>
<rect x="61.1328" y="301.848" width="5.07691" height="5.09434" transform="rotate(-90 61.1328 301.848)" fill="#A1A1A1"/>
<rect x="208.867" y="93.6953" width="5.07691" height="5.09434" transform="rotate(90 208.867 93.6953)" fill="#A1A1A1"/>
<rect x="61.1328" y="266.305" width="5.07691" height="5.09434" transform="rotate(-90 61.1328 266.305)" fill="#A1A1A1"/>
<rect x="244.531" y="58.1523" width="5.07691" height="5.09434" transform="rotate(90 244.531 58.1523)" fill="#A1A1A1"/>
<rect x="25.4688" y="301.848" width="5.07691" height="5.09434" transform="rotate(-90 25.4688 301.848)" fill="#A1A1A1"/>
<rect x="244.531" y="93.6953" width="5.07691" height="5.09434" transform="rotate(90 244.531 93.6953)" fill="#A1A1A1"/>
<rect x="25.4688" y="266.305" width="5.07691" height="5.09434" transform="rotate(-90 25.4688 266.305)" fill="#A1A1A1"/>
<rect x="101.891" y="58.1523" width="5.07691" height="5.09434" transform="rotate(90 101.891 58.1523)" fill="#A1A1A1"/>
<rect x="168.109" y="301.848" width="5.07691" height="5.09434" transform="rotate(-90 168.109 301.848)" fill="#A1A1A1"/>
<rect x="101.891" y="93.6953" width="5.07691" height="5.09434" transform="rotate(90 101.891 93.6953)" fill="#A1A1A1"/>
<rect x="168.109" y="266.305" width="5.07691" height="5.09434" transform="rotate(-90 168.109 266.305)" fill="#A1A1A1"/>
<rect x="66.2266" y="58.1523" width="5.07691" height="5.09434" transform="rotate(90 66.2266 58.1523)" fill="#A1A1A1"/>
<rect x="203.773" y="301.848" width="5.07691" height="5.09434" transform="rotate(-90 203.773 301.848)" fill="#A1A1A1"/>
<rect x="66.2266" y="93.6953" width="5.07691" height="5.09434" transform="rotate(90 66.2266 93.6953)" fill="#A1A1A1"/>
<rect x="203.773" y="266.305" width="5.07691" height="5.09434" transform="rotate(-90 203.773 266.305)" fill="#A1A1A1"/>
<rect x="244.531" y="119.076" width="5.07691" height="5.09434" transform="rotate(90 244.531 119.076)" fill="#A1A1A1"/>
<rect x="30.5625" y="225.695" width="5.07691" height="5.09434" transform="rotate(90 30.5625 225.695)" fill="#A1A1A1"/>
<rect x="244.531" y="154.619" width="5.07691" height="5.09434" transform="rotate(90 244.531 154.619)" fill="#A1A1A1"/>
<rect x="244.531" y="190.152" width="5.07691" height="5.09434" transform="rotate(90 244.531 190.152)" fill="#A1A1A1"/>
<rect x="208.867" y="154.619" width="5.07691" height="5.09434" transform="rotate(90 208.867 154.619)" fill="#A1A1A1"/>
<rect x="208.867" y="190.152" width="5.07691" height="5.09434" transform="rotate(90 208.867 190.152)" fill="#A1A1A1"/>
<rect x="173.211" y="154.619" width="5.07691" height="5.09434" transform="rotate(90 173.211 154.619)" fill="#A1A1A1"/>
<rect x="173.211" y="190.152" width="5.07691" height="5.09434" transform="rotate(90 173.211 190.152)" fill="#A1A1A1"/>
<rect x="137.547" y="48" width="5.07691" height="5.09434" transform="rotate(90 137.547 48)" fill="#A1A1A1"/>
<rect x="132.453" y="312" width="5.07691" height="5.09434" transform="rotate(-90 132.453 312)" fill="#A1A1A1"/>
<rect x="137.547" y="83.541" width="5.07691" height="5.09434" transform="rotate(90 137.547 83.541)" fill="#A1A1A1"/>
<rect x="132.453" y="276.459" width="5.07691" height="5.09434" transform="rotate(-90 132.453 276.459)" fill="#A1A1A1"/>
<rect x="173.211" y="48" width="5.07691" height="5.09434" transform="rotate(90 173.211 48)" fill="#A1A1A1"/>
<rect x="96.7891" y="312" width="5.07691" height="5.09434" transform="rotate(-90 96.7891 312)" fill="#A1A1A1"/>
<rect x="173.211" y="83.541" width="5.07691" height="5.09434" transform="rotate(90 173.211 83.541)" fill="#A1A1A1"/>
<rect x="96.7891" y="276.459" width="5.07691" height="5.09434" transform="rotate(-90 96.7891 276.459)" fill="#A1A1A1"/>
<rect x="208.867" y="48" width="5.07691" height="5.09434" transform="rotate(90 208.867 48)" fill="#A1A1A1"/>
<rect x="61.1328" y="312" width="5.07691" height="5.09434" transform="rotate(-90 61.1328 312)" fill="#A1A1A1"/>
<rect x="208.867" y="83.541" width="5.07691" height="5.09434" transform="rotate(90 208.867 83.541)" fill="#A1A1A1"/>
<rect x="61.1328" y="276.459" width="5.07691" height="5.09434" transform="rotate(-90 61.1328 276.459)" fill="#A1A1A1"/>
<rect x="244.531" y="48" width="5.07691" height="5.09434" transform="rotate(90 244.531 48)" fill="#A1A1A1"/>
<rect x="25.4688" y="312" width="5.07691" height="5.09434" transform="rotate(-90 25.4688 312)" fill="#A1A1A1"/>
<rect x="244.531" y="83.541" width="5.07691" height="5.09434" transform="rotate(90 244.531 83.541)" fill="#A1A1A1"/>
<rect x="25.4688" y="276.459" width="5.07691" height="5.09434" transform="rotate(-90 25.4688 276.459)" fill="#A1A1A1"/>
<rect x="101.891" y="48" width="5.07691" height="5.09434" transform="rotate(90 101.891 48)" fill="#A1A1A1"/>
<rect x="168.109" y="312" width="5.07691" height="5.09434" transform="rotate(-90 168.109 312)" fill="#A1A1A1"/>
<rect x="101.891" y="83.541" width="5.07691" height="5.09434" transform="rotate(90 101.891 83.541)" fill="#A1A1A1"/>
<rect x="168.109" y="276.459" width="5.07691" height="5.09434" transform="rotate(-90 168.109 276.459)" fill="#A1A1A1"/>
<rect x="66.2266" y="48" width="5.07691" height="5.09434" transform="rotate(90 66.2266 48)" fill="#A1A1A1"/>
<rect x="203.773" y="312" width="5.07691" height="5.09434" transform="rotate(-90 203.773 312)" fill="#A1A1A1"/>
<rect x="66.2266" y="83.541" width="5.07691" height="5.09434" transform="rotate(90 66.2266 83.541)" fill="#A1A1A1"/>
<rect x="203.773" y="276.459" width="5.07691" height="5.09434" transform="rotate(-90 203.773 276.459)" fill="#A1A1A1"/>
<rect x="244.531" y="63.2285" width="5.07691" height="5.09434" transform="rotate(90 244.531 63.2285)" fill="#A1A1A1"/>
<rect x="25.4688" y="296.771" width="5.07691" height="5.09434" transform="rotate(-90 25.4688 296.771)" fill="#A1A1A1"/>
<rect x="244.531" y="68.3047" width="5.07691" height="5.09434" transform="rotate(90 244.531 68.3047)" fill="#A1A1A1"/>
<rect x="25.4688" y="291.695" width="5.07691" height="5.09434" transform="rotate(-90 25.4688 291.695)" fill="#A1A1A1"/>
<rect x="244.531" y="73.3809" width="5.07691" height="5.09434" transform="rotate(90 244.531 73.3809)" fill="#A1A1A1"/>
<rect x="25.4688" y="286.619" width="5.07691" height="5.09434" transform="rotate(-90 25.4688 286.619)" fill="#A1A1A1"/>
<rect x="25.4688" y="281.535" width="5.07691" height="5.09434" transform="rotate(-90 25.4688 281.535)" fill="#A1A1A1"/>
<rect x="35.6641" y="281.535" width="5.07691" height="5.09434" transform="rotate(-90 35.6641 281.535)" fill="#A1A1A1"/>
<rect x="71.3203" y="281.535" width="5.07691" height="5.09434" transform="rotate(-90 71.3203 281.535)" fill="#A1A1A1"/>
<rect x="106.984" y="281.535" width="5.07691" height="5.09434" transform="rotate(-90 106.984 281.535)" fill="#A1A1A1"/>
<rect x="142.641" y="281.535" width="5.07691" height="5.09434" transform="rotate(-90 142.641 281.535)" fill="#A1A1A1"/>
<rect x="178.305" y="281.535" width="5.07691" height="5.09434" transform="rotate(-90 178.305 281.535)" fill="#A1A1A1"/>
<rect x="40.7578" y="286.619" width="5.07691" height="5.09434" transform="rotate(-90 40.7578 286.619)" fill="#A1A1A1"/>
<rect x="76.4141" y="286.619" width="5.07691" height="5.09434" transform="rotate(-90 76.4141 286.619)" fill="#A1A1A1"/>
<rect x="112.078" y="286.619" width="5.07691" height="5.09434" transform="rotate(-90 112.078 286.619)" fill="#A1A1A1"/>
<rect x="147.734" y="286.619" width="5.07691" height="5.09434" transform="rotate(-90 147.734 286.619)" fill="#A1A1A1"/>
<rect x="183.398" y="286.619" width="5.07691" height="5.09434" transform="rotate(-90 183.398 286.619)" fill="#A1A1A1"/>
<rect x="45.8516" y="291.695" width="5.07691" height="5.09434" transform="rotate(-90 45.8516 291.695)" fill="#A1A1A1"/>
<rect x="81.5078" y="291.695" width="5.07691" height="5.09434" transform="rotate(-90 81.5078 291.695)" fill="#A1A1A1"/>
<rect x="117.172" y="291.695" width="5.07691" height="5.09434" transform="rotate(-90 117.172 291.695)" fill="#A1A1A1"/>
<rect x="152.828" y="291.695" width="5.07691" height="5.09434" transform="rotate(-90 152.828 291.695)" fill="#A1A1A1"/>
<rect x="188.492" y="291.695" width="5.07691" height="5.09434" transform="rotate(-90 188.492 291.695)" fill="#A1A1A1"/>
<rect x="50.9453" y="296.771" width="5.07691" height="5.09434" transform="rotate(-90 50.9453 296.771)" fill="#A1A1A1"/>
<rect x="86.6016" y="296.771" width="5.07691" height="5.09434" transform="rotate(-90 86.6016 296.771)" fill="#A1A1A1"/>
<rect x="122.266" y="296.771" width="5.07691" height="5.09434" transform="rotate(-90 122.266 296.771)" fill="#A1A1A1"/>
<rect x="157.922" y="296.771" width="5.07691" height="5.09434" transform="rotate(-90 157.922 296.771)" fill="#A1A1A1"/>
<rect x="193.586" y="296.771" width="5.07691" height="5.09434" transform="rotate(-90 193.586 296.771)" fill="#A1A1A1"/>
<rect x="244.531" y="103.848" width="5.07691" height="5.09434" transform="rotate(90 244.531 103.848)" fill="#A1A1A1"/>
<rect x="244.531" y="98.7715" width="5.07691" height="5.09434" transform="rotate(90 244.531 98.7715)" fill="#A1A1A1"/>
<rect x="30.5625" y="210.459" width="5.07691" height="5.09434" transform="rotate(90 30.5625 210.459)" fill="#A1A1A1"/>
<rect x="239.438" y="190.152" width="5.07691" height="5.09434" transform="rotate(-90 239.438 190.152)" fill="#A1A1A1"/>
<rect x="244.531" y="108.924" width="5.07691" height="5.09434" transform="rotate(90 244.531 108.924)" fill="#A1A1A1"/>
<rect x="30.5625" y="215.535" width="5.07691" height="5.09434" transform="rotate(90 30.5625 215.535)" fill="#A1A1A1"/>
<rect x="239.438" y="185.076" width="5.07691" height="5.09434" transform="rotate(-90 239.438 185.076)" fill="#A1A1A1"/>
<rect x="244.531" y="114" width="5.07691" height="5.09434" transform="rotate(90 244.531 114)" fill="#A1A1A1"/>
<rect x="30.5625" y="220.619" width="5.07691" height="5.09434" transform="rotate(90 30.5625 220.619)" fill="#A1A1A1"/>
<rect x="239.438" y="180" width="5.07691" height="5.09434" transform="rotate(-90 239.438 180)" fill="#A1A1A1"/>
<rect x="239.438" y="174.924" width="5.07691" height="5.09434" transform="rotate(-90 239.438 174.924)" fill="#A1A1A1"/>
<rect x="244.531" y="134.305" width="5.07691" height="5.09434" transform="rotate(90 244.531 134.305)" fill="#A1A1A1"/>
<rect x="30.5625" y="246" width="5.07691" height="5.09434" transform="rotate(90 30.5625 246)" fill="#A1A1A1"/>
<rect x="30.5625" y="205.381" width="5.07691" height="5.09434" transform="rotate(90 30.5625 205.381)" fill="#A1A1A1"/>
<rect x="30.5625" y="240.924" width="5.07691" height="5.09434" transform="rotate(90 30.5625 240.924)" fill="#A1A1A1"/>
<rect x="30.5625" y="251.076" width="5.07691" height="5.09434" transform="rotate(90 30.5625 251.076)" fill="#A1A1A1"/>
<rect x="30.5625" y="256.152" width="5.07691" height="5.09434" transform="rotate(90 30.5625 256.152)" fill="#A1A1A1"/>
<rect x="244.531" y="139.381" width="5.07691" height="5.09434" transform="rotate(90 244.531 139.381)" fill="#A1A1A1"/>
<rect x="244.531" y="149.541" width="5.07691" height="5.09434" transform="rotate(90 244.531 149.541)" fill="#A1A1A1"/>
<rect x="244.531" y="144.459" width="5.07691" height="5.09434" transform="rotate(90 244.531 144.459)" fill="#A1A1A1"/>
<rect x="259.812" y="296.771" width="5.07691" height="5.09434" transform="rotate(-90 259.812 296.771)" fill="#A1A1A1"/>
<rect x="239.438" y="119.076" width="5.07691" height="5.09434" transform="rotate(90 239.438 119.076)" fill="#A1A1A1"/>
<rect x="25.4688" y="225.695" width="5.07691" height="5.09434" transform="rotate(90 25.4688 225.695)" fill="#A1A1A1"/>
<rect x="239.438" y="154.619" width="5.07691" height="5.09434" transform="rotate(90 239.438 154.619)" fill="#A1A1A1"/>
<rect x="239.438" y="190.152" width="5.07691" height="5.09434" transform="rotate(90 239.438 190.152)" fill="#A1A1A1"/>
<rect x="203.773" y="154.619" width="5.07691" height="5.09434" transform="rotate(90 203.773 154.619)" fill="#A1A1A1"/>
<rect x="203.773" y="190.152" width="5.07691" height="5.09434" transform="rotate(90 203.773 190.152)" fill="#A1A1A1"/>
<rect x="168.109" y="154.619" width="5.07691" height="5.09434" transform="rotate(90 168.109 154.619)" fill="#A1A1A1"/>
<rect x="168.109" y="190.152" width="5.07691" height="5.09434" transform="rotate(90 168.109 190.152)" fill="#A1A1A1"/>
<rect x="132.453" y="48" width="5.07691" height="5.09434" transform="rotate(90 132.453 48)" fill="#A1A1A1"/>
<rect x="137.547" y="312" width="5.07691" height="5.09434" transform="rotate(-90 137.547 312)" fill="#A1A1A1"/>
<rect x="132.453" y="83.541" width="5.07691" height="5.09434" transform="rotate(90 132.453 83.541)" fill="#A1A1A1"/>
<rect x="137.547" y="276.459" width="5.07691" height="5.09434" transform="rotate(-90 137.547 276.459)" fill="#A1A1A1"/>
<rect x="168.109" y="48" width="5.07691" height="5.09434" transform="rotate(90 168.109 48)" fill="#A1A1A1"/>
<rect x="101.891" y="312" width="5.07691" height="5.09434" transform="rotate(-90 101.891 312)" fill="#A1A1A1"/>
<rect x="168.109" y="83.541" width="5.07691" height="5.09434" transform="rotate(90 168.109 83.541)" fill="#A1A1A1"/>
<rect x="101.891" y="276.459" width="5.07691" height="5.09434" transform="rotate(-90 101.891 276.459)" fill="#A1A1A1"/>
<rect x="203.773" y="48" width="5.07691" height="5.09434" transform="rotate(90 203.773 48)" fill="#A1A1A1"/>
<rect x="66.2266" y="312" width="5.07691" height="5.09434" transform="rotate(-90 66.2266 312)" fill="#A1A1A1"/>
<rect x="203.773" y="83.541" width="5.07691" height="5.09434" transform="rotate(90 203.773 83.541)" fill="#A1A1A1"/>
<rect x="66.2266" y="276.459" width="5.07691" height="5.09434" transform="rotate(-90 66.2266 276.459)" fill="#A1A1A1"/>
<rect x="239.438" y="48" width="5.07691" height="5.09434" transform="rotate(90 239.438 48)" fill="#A1A1A1"/>
<rect x="30.5625" y="312" width="5.07691" height="5.09434" transform="rotate(-90 30.5625 312)" fill="#A1A1A1"/>
<rect x="239.438" y="83.541" width="5.07691" height="5.09434" transform="rotate(90 239.438 83.541)" fill="#A1A1A1"/>
<rect x="30.5625" y="276.459" width="5.07691" height="5.09434" transform="rotate(-90 30.5625 276.459)" fill="#A1A1A1"/>
<rect x="96.7891" y="48" width="5.07691" height="5.09434" transform="rotate(90 96.7891 48)" fill="#A1A1A1"/>
<rect x="173.211" y="312" width="5.07691" height="5.09434" transform="rotate(-90 173.211 312)" fill="#A1A1A1"/>
<rect x="96.7891" y="83.541" width="5.07691" height="5.09434" transform="rotate(90 96.7891 83.541)" fill="#A1A1A1"/>
<rect x="173.211" y="276.459" width="5.07691" height="5.09434" transform="rotate(-90 173.211 276.459)" fill="#A1A1A1"/>
<rect x="61.1328" y="48" width="5.07691" height="5.09434" transform="rotate(90 61.1328 48)" fill="#A1A1A1"/>
<rect x="208.867" y="312" width="5.07691" height="5.09434" transform="rotate(-90 208.867 312)" fill="#A1A1A1"/>
<rect x="61.1328" y="83.541" width="5.07691" height="5.09434" transform="rotate(90 61.1328 83.541)" fill="#A1A1A1"/>
<rect x="208.867" y="276.459" width="5.07691" height="5.09434" transform="rotate(-90 208.867 276.459)" fill="#A1A1A1"/>
<rect x="50.9453" y="53.0762" width="5.07691" height="5.09434" transform="rotate(90 50.9453 53.0762)" fill="#A1A1A1"/>
<rect x="219.055" y="306.924" width="5.07691" height="5.09434" transform="rotate(-90 219.055 306.924)" fill="#A1A1A1"/>
<rect x="56.0391" y="53.0762" width="5.07691" height="5.09434" transform="rotate(90 56.0391 53.0762)" fill="#A1A1A1"/>
<rect x="213.961" y="306.924" width="5.07691" height="5.09434" transform="rotate(-90 213.961 306.924)" fill="#A1A1A1"/>
<rect x="45.8516" y="53.0762" width="5.07691" height="5.09434" transform="rotate(90 45.8516 53.0762)" fill="#A1A1A1"/>
<rect x="224.148" y="306.924" width="5.07691" height="5.09434" transform="rotate(-90 224.148 306.924)" fill="#A1A1A1"/>
<rect x="40.7578" y="58.1523" width="5.07691" height="5.09434" transform="rotate(90 40.7578 58.1523)" fill="#A1A1A1"/>
<rect x="229.242" y="301.848" width="5.07691" height="5.09434" transform="rotate(-90 229.242 301.848)" fill="#A1A1A1"/>
<rect x="229.242" y="301.848" width="5.07691" height="5.09434" transform="rotate(-90 229.242 301.848)" fill="#A1A1A1"/>
<rect x="35.6641" y="58.1523" width="5.07691" height="5.09434" transform="rotate(90 35.6641 58.1523)" fill="#A1A1A1"/>
<rect x="234.336" y="301.848" width="5.07691" height="5.09434" transform="rotate(-90 234.336 301.848)" fill="#A1A1A1"/>
<rect x="244.531" y="286.619" width="5.07691" height="5.09434" transform="rotate(-90 244.531 286.619)" fill="#A1A1A1"/>
<rect x="239.438" y="281.535" width="5.07691" height="5.09434" transform="rotate(-90 239.438 281.535)" fill="#A1A1A1"/>
<rect x="239.438" y="296.771" width="5.07691" height="5.09434" transform="rotate(-90 239.438 296.771)" fill="#A1A1A1"/>
<rect x="244.531" y="291.695" width="5.07691" height="5.09434" transform="rotate(-90 244.531 291.695)" fill="#A1A1A1"/>
<rect x="50.9453" y="88.6191" width="5.07691" height="5.09434" transform="rotate(90 50.9453 88.6191)" fill="#A1A1A1"/>
<rect x="219.055" y="271.381" width="5.07691" height="5.09434" transform="rotate(-90 219.055 271.381)" fill="#A1A1A1"/>
<rect x="56.0391" y="88.6191" width="5.07691" height="5.09434" transform="rotate(90 56.0391 88.6191)" fill="#A1A1A1"/>
<rect x="213.961" y="271.381" width="5.07691" height="5.09434" transform="rotate(-90 213.961 271.381)" fill="#A1A1A1"/>
<rect x="45.8516" y="88.6191" width="5.07691" height="5.09434" transform="rotate(90 45.8516 88.6191)" fill="#A1A1A1"/>
<rect x="224.148" y="271.381" width="5.07691" height="5.09434" transform="rotate(-90 224.148 271.381)" fill="#A1A1A1"/>
<rect x="40.7578" y="83.541" width="5.07691" height="5.09434" transform="rotate(90 40.7578 83.541)" fill="#A1A1A1"/>
<rect x="229.242" y="276.459" width="5.07691" height="5.09434" transform="rotate(-90 229.242 276.459)" fill="#A1A1A1"/>
<rect x="35.6641" y="83.541" width="5.07691" height="5.09434" transform="rotate(90 35.6641 83.541)" fill="#A1A1A1"/>
<rect x="234.336" y="276.459" width="5.07691" height="5.09434" transform="rotate(-90 234.336 276.459)" fill="#A1A1A1"/>
<rect x="249.625" y="296.771" width="5.07691" height="5.09434" transform="rotate(-90 249.625 296.771)" fill="#A1A1A1"/>
<rect x="254.719" y="301.848" width="5.07691" height="5.09434" transform="rotate(-90 254.719 301.848)" fill="#A1A1A1"/>
<rect x="264.906" y="286.619" width="5.07691" height="5.09434" transform="rotate(-90 264.906 286.619)" fill="#A1A1A1"/>
<rect x="264.906" y="291.695" width="5.07691" height="5.09434" transform="rotate(-90 264.906 291.695)" fill="#A1A1A1"/>
<rect x="259.812" y="281.535" width="5.07691" height="5.09434" transform="rotate(-90 259.812 281.535)" fill="#A1A1A1"/>
<rect x="254.719" y="276.459" width="5.07691" height="5.09434" transform="rotate(-90 254.719 276.459)" fill="#A1A1A1"/>
<rect x="249.625" y="281.535" width="5.07691" height="5.09434" transform="rotate(-90 249.625 281.535)" fill="#A1A1A1"/>
<rect x="15.2812" y="83.541" width="5.07691" height="5.09434" transform="rotate(-90 15.2812 83.541)" fill="#A1A1A1"/>
<rect y="73.3809" width="5.07691" height="5.09434" transform="rotate(-90 0 73.3809)" fill="#A1A1A1"/>
<rect y="78.459" width="5.07691" height="5.09434" transform="rotate(-90 0 78.459)" fill="#A1A1A1"/>
<rect x="5.09375" y="83.541" width="5.07691" height="5.09434" transform="rotate(-90 5.09375 83.541)" fill="#A1A1A1"/>
<rect x="10.1875" y="88.6191" width="5.07691" height="5.09434" transform="rotate(-90 10.1875 88.6191)" fill="#A1A1A1"/>
<rect x="20.375" y="73.3809" width="5.07691" height="5.09434" transform="rotate(-90 20.375 73.3809)" fill="#A1A1A1"/>
<rect x="25.4688" y="68.3047" width="5.07691" height="5.09434" transform="rotate(-90 25.4688 68.3047)" fill="#A1A1A1"/>
<rect x="25.4688" y="83.541" width="5.07691" height="5.09434" transform="rotate(-90 25.4688 83.541)" fill="#A1A1A1"/>
<rect x="239.438" y="83.541" width="5.07691" height="5.09434" transform="rotate(-90 239.438 83.541)" fill="#A1A1A1"/>
<rect x="20.375" y="78.459" width="5.07691" height="5.09434" transform="rotate(-90 20.375 78.459)" fill="#A1A1A1"/>
<rect x="15.2812" y="68.3047" width="5.07691" height="5.09434" transform="rotate(-90 15.2812 68.3047)" fill="#A1A1A1"/>
<rect x="10.1875" y="63.2285" width="5.07691" height="5.09434" transform="rotate(-90 10.1875 63.2285)" fill="#A1A1A1"/>
<rect x="5.09375" y="68.3047" width="5.07691" height="5.09434" transform="rotate(-90 5.09375 68.3047)" fill="#A1A1A1"/>
<rect x="91.6953" y="53.0762" width="5.07691" height="5.09434" transform="rotate(90 91.6953 53.0762)" fill="#A1A1A1"/>
<rect x="178.305" y="306.924" width="5.07691" height="5.09434" transform="rotate(-90 178.305 306.924)" fill="#A1A1A1"/>
<rect x="91.6953" y="88.6191" width="5.07691" height="5.09434" transform="rotate(90 91.6953 88.6191)" fill="#A1A1A1"/>
<rect x="178.305" y="271.381" width="5.07691" height="5.09434" transform="rotate(-90 178.305 271.381)" fill="#A1A1A1"/>
<rect x="122.266" y="53.0762" width="5.07691" height="5.09434" transform="rotate(90 122.266 53.0762)" fill="#A1A1A1"/>
<rect x="147.734" y="306.924" width="5.07691" height="5.09434" transform="rotate(-90 147.734 306.924)" fill="#A1A1A1"/>
<rect x="122.266" y="88.6191" width="5.07691" height="5.09434" transform="rotate(90 122.266 88.6191)" fill="#A1A1A1"/>
<rect x="147.734" y="271.381" width="5.07691" height="5.09434" transform="rotate(-90 147.734 271.381)" fill="#A1A1A1"/>
<rect x="152.828" y="53.0762" width="5.07691" height="5.09434" transform="rotate(90 152.828 53.0762)" fill="#A1A1A1"/>
<rect x="117.172" y="306.924" width="5.07691" height="5.09434" transform="rotate(-90 117.172 306.924)" fill="#A1A1A1"/>
<rect x="147.734" y="53.0762" width="5.07691" height="5.09434" transform="rotate(90 147.734 53.0762)" fill="#A1A1A1"/>
<rect x="122.266" y="306.924" width="5.07691" height="5.09434" transform="rotate(-90 122.266 306.924)" fill="#A1A1A1"/>
<rect x="152.828" y="88.6191" width="5.07691" height="5.09434" transform="rotate(90 152.828 88.6191)" fill="#A1A1A1"/>
<rect x="117.172" y="271.381" width="5.07691" height="5.09434" transform="rotate(-90 117.172 271.381)" fill="#A1A1A1"/>
<rect x="147.734" y="88.6191" width="5.07691" height="5.09434" transform="rotate(90 147.734 88.6191)" fill="#A1A1A1"/>
<rect x="122.266" y="271.381" width="5.07691" height="5.09434" transform="rotate(-90 122.266 271.381)" fill="#A1A1A1"/>
<rect x="249.625" y="119.076" width="5.07691" height="5.09434" transform="rotate(90 249.625 119.076)" fill="#A1A1A1"/>
<rect x="35.6641" y="225.695" width="5.07691" height="5.09434" transform="rotate(90 35.6641 225.695)" fill="#A1A1A1"/>
<rect x="249.625" y="154.619" width="5.07691" height="5.09434" transform="rotate(90 249.625 154.619)" fill="#A1A1A1"/>
<rect x="249.625" y="190.152" width="5.07691" height="5.09434" transform="rotate(90 249.625 190.152)" fill="#A1A1A1"/>
<rect x="213.961" y="154.619" width="5.07691" height="5.09434" transform="rotate(90 213.961 154.619)" fill="#A1A1A1"/>
<rect x="213.961" y="190.152" width="5.07691" height="5.09434" transform="rotate(90 213.961 190.152)" fill="#A1A1A1"/>
<rect x="178.305" y="154.619" width="5.07691" height="5.09434" transform="rotate(90 178.305 154.619)" fill="#A1A1A1"/>
<rect x="178.305" y="190.152" width="5.07691" height="5.09434" transform="rotate(90 178.305 190.152)" fill="#A1A1A1"/>
<rect x="142.641" y="48" width="5.07691" height="5.09434" transform="rotate(90 142.641 48)" fill="#A1A1A1"/>
<rect x="127.359" y="312" width="5.07691" height="5.09434" transform="rotate(-90 127.359 312)" fill="#A1A1A1"/>
<rect x="142.641" y="83.541" width="5.07691" height="5.09434" transform="rotate(90 142.641 83.541)" fill="#A1A1A1"/>
<rect x="127.359" y="276.459" width="5.07691" height="5.09434" transform="rotate(-90 127.359 276.459)" fill="#A1A1A1"/>
<rect x="178.305" y="48" width="5.07691" height="5.09434" transform="rotate(90 178.305 48)" fill="#A1A1A1"/>
<rect x="91.6953" y="312" width="5.07691" height="5.09434" transform="rotate(-90 91.6953 312)" fill="#A1A1A1"/>
<rect x="178.305" y="83.541" width="5.07691" height="5.09434" transform="rotate(90 178.305 83.541)" fill="#A1A1A1"/>
<rect x="91.6953" y="276.459" width="5.07691" height="5.09434" transform="rotate(-90 91.6953 276.459)" fill="#A1A1A1"/>
<rect x="213.961" y="48" width="5.07691" height="5.09434" transform="rotate(90 213.961 48)" fill="#A1A1A1"/>
<rect x="56.0391" y="312" width="5.07691" height="5.09434" transform="rotate(-90 56.0391 312)" fill="#A1A1A1"/>
<rect x="213.961" y="83.541" width="5.07691" height="5.09434" transform="rotate(90 213.961 83.541)" fill="#A1A1A1"/>
<rect x="56.0391" y="276.459" width="5.07691" height="5.09434" transform="rotate(-90 56.0391 276.459)" fill="#A1A1A1"/>
<rect x="249.625" y="48" width="5.07691" height="5.09434" transform="rotate(90 249.625 48)" fill="#A1A1A1"/>
<rect x="20.375" y="312" width="5.07691" height="5.09434" transform="rotate(-90 20.375 312)" fill="#A1A1A1"/>
<rect x="249.625" y="83.541" width="5.07691" height="5.09434" transform="rotate(90 249.625 83.541)" fill="#A1A1A1"/>
<rect x="20.375" y="276.459" width="5.07691" height="5.09434" transform="rotate(-90 20.375 276.459)" fill="#A1A1A1"/>
<rect x="106.984" y="48" width="5.07691" height="5.09434" transform="rotate(90 106.984 48)" fill="#A1A1A1"/>
<rect x="163.016" y="312" width="5.07691" height="5.09434" transform="rotate(-90 163.016 312)" fill="#A1A1A1"/>
<rect x="106.984" y="83.541" width="5.07691" height="5.09434" transform="rotate(90 106.984 83.541)" fill="#A1A1A1"/>
<rect x="163.016" y="276.459" width="5.07691" height="5.09434" transform="rotate(-90 163.016 276.459)" fill="#A1A1A1"/>
<rect x="71.3203" y="48" width="5.07691" height="5.09434" transform="rotate(90 71.3203 48)" fill="#A1A1A1"/>
<rect x="198.68" y="312" width="5.07691" height="5.09434" transform="rotate(-90 198.68 312)" fill="#A1A1A1"/>
<rect x="71.3203" y="83.541" width="5.07691" height="5.09434" transform="rotate(90 71.3203 83.541)" fill="#A1A1A1"/>
<rect x="198.68" y="276.459" width="5.07691" height="5.09434" transform="rotate(-90 198.68 276.459)" fill="#A1A1A1"/>
<rect x="249.625" y="124.152" width="5.07691" height="5.09434" transform="rotate(90 249.625 124.152)" fill="#A1A1A1"/>
<rect x="35.6641" y="230.771" width="5.07691" height="5.09434" transform="rotate(90 35.6641 230.771)" fill="#A1A1A1"/>
<rect x="249.625" y="159.695" width="5.07691" height="5.09434" transform="rotate(90 249.625 159.695)" fill="#A1A1A1"/>
<rect x="249.625" y="195.229" width="5.07691" height="5.09434" transform="rotate(90 249.625 195.229)" fill="#A1A1A1"/>
<rect x="213.961" y="159.695" width="5.07691" height="5.09434" transform="rotate(90 213.961 159.695)" fill="#A1A1A1"/>
<rect x="213.961" y="195.229" width="5.07691" height="5.09434" transform="rotate(90 213.961 195.229)" fill="#A1A1A1"/>
<rect x="178.305" y="159.695" width="5.07691" height="5.09434" transform="rotate(90 178.305 159.695)" fill="#A1A1A1"/>
<rect x="178.305" y="195.229" width="5.07691" height="5.09434" transform="rotate(90 178.305 195.229)" fill="#A1A1A1"/>
<rect x="142.641" y="53.0762" width="5.07691" height="5.09434" transform="rotate(90 142.641 53.0762)" fill="#A1A1A1"/>
<rect x="127.359" y="306.924" width="5.07691" height="5.09434" transform="rotate(-90 127.359 306.924)" fill="#A1A1A1"/>
<rect x="142.641" y="88.6191" width="5.07691" height="5.09434" transform="rotate(90 142.641 88.6191)" fill="#A1A1A1"/>
<rect x="127.359" y="271.381" width="5.07691" height="5.09434" transform="rotate(-90 127.359 271.381)" fill="#A1A1A1"/>
<rect x="178.305" y="53.0762" width="5.07691" height="5.09434" transform="rotate(90 178.305 53.0762)" fill="#A1A1A1"/>
<rect x="91.6953" y="306.924" width="5.07691" height="5.09434" transform="rotate(-90 91.6953 306.924)" fill="#A1A1A1"/>
<rect x="178.305" y="88.6191" width="5.07691" height="5.09434" transform="rotate(90 178.305 88.6191)" fill="#A1A1A1"/>
<rect x="91.6953" y="271.381" width="5.07691" height="5.09434" transform="rotate(-90 91.6953 271.381)" fill="#A1A1A1"/>
<rect x="213.961" y="53.0762" width="5.07691" height="5.09434" transform="rotate(90 213.961 53.0762)" fill="#A1A1A1"/>
<rect x="56.0391" y="306.924" width="5.07691" height="5.09434" transform="rotate(-90 56.0391 306.924)" fill="#A1A1A1"/>
<rect x="213.961" y="88.6191" width="5.07691" height="5.09434" transform="rotate(90 213.961 88.6191)" fill="#A1A1A1"/>
<rect x="56.0391" y="271.381" width="5.07691" height="5.09434" transform="rotate(-90 56.0391 271.381)" fill="#A1A1A1"/>
<rect x="249.625" y="53.0762" width="5.07691" height="5.09434" transform="rotate(90 249.625 53.0762)" fill="#A1A1A1"/>
<rect x="20.375" y="306.924" width="5.07691" height="5.09434" transform="rotate(-90 20.375 306.924)" fill="#A1A1A1"/>
<rect x="249.625" y="88.6191" width="5.07691" height="5.09434" transform="rotate(90 249.625 88.6191)" fill="#A1A1A1"/>
<rect x="20.375" y="271.381" width="5.07691" height="5.09434" transform="rotate(-90 20.375 271.381)" fill="#A1A1A1"/>
<rect x="106.984" y="53.0762" width="5.07691" height="5.09434" transform="rotate(90 106.984 53.0762)" fill="#A1A1A1"/>
<rect x="163.016" y="306.924" width="5.07691" height="5.09434" transform="rotate(-90 163.016 306.924)" fill="#A1A1A1"/>
<rect x="106.984" y="88.6191" width="5.07691" height="5.09434" transform="rotate(90 106.984 88.6191)" fill="#A1A1A1"/>
<rect x="163.016" y="271.381" width="5.07691" height="5.09434" transform="rotate(-90 163.016 271.381)" fill="#A1A1A1"/>
<rect x="71.3203" y="53.0762" width="5.07691" height="5.09434" transform="rotate(90 71.3203 53.0762)" fill="#A1A1A1"/>
<rect x="198.68" y="306.924" width="5.07691" height="5.09434" transform="rotate(-90 198.68 306.924)" fill="#A1A1A1"/>
<rect x="71.3203" y="88.6191" width="5.07691" height="5.09434" transform="rotate(90 71.3203 88.6191)" fill="#A1A1A1"/>
<rect x="198.68" y="271.381" width="5.07691" height="5.09434" transform="rotate(-90 198.68 271.381)" fill="#A1A1A1"/>
<rect x="249.625" y="129.229" width="5.07691" height="5.09434" transform="rotate(90 249.625 129.229)" fill="#A1A1A1"/>
<rect x="35.6641" y="235.848" width="5.07691" height="5.09434" transform="rotate(90 35.6641 235.848)" fill="#A1A1A1"/>
<rect x="249.625" y="164.771" width="5.07691" height="5.09434" transform="rotate(90 249.625 164.771)" fill="#A1A1A1"/>
<rect x="249.625" y="200.305" width="5.07691" height="5.09434" transform="rotate(90 249.625 200.305)" fill="#A1A1A1"/>
<rect x="213.961" y="164.771" width="5.07691" height="5.09434" transform="rotate(90 213.961 164.771)" fill="#A1A1A1"/>
<rect x="213.961" y="200.305" width="5.07691" height="5.09434" transform="rotate(90 213.961 200.305)" fill="#A1A1A1"/>
<rect x="178.305" y="164.771" width="5.07691" height="5.09434" transform="rotate(90 178.305 164.771)" fill="#A1A1A1"/>
<rect x="178.305" y="200.305" width="5.07691" height="5.09434" transform="rotate(90 178.305 200.305)" fill="#A1A1A1"/>
<rect x="142.641" y="58.1523" width="5.07691" height="5.09434" transform="rotate(90 142.641 58.1523)" fill="#A1A1A1"/>
<rect x="127.359" y="301.848" width="5.07691" height="5.09434" transform="rotate(-90 127.359 301.848)" fill="#A1A1A1"/>
<rect x="142.641" y="93.6953" width="5.07691" height="5.09434" transform="rotate(90 142.641 93.6953)" fill="#A1A1A1"/>
<rect x="127.359" y="266.305" width="5.07691" height="5.09434" transform="rotate(-90 127.359 266.305)" fill="#A1A1A1"/>
<rect x="178.305" y="58.1523" width="5.07691" height="5.09434" transform="rotate(90 178.305 58.1523)" fill="#A1A1A1"/>
<rect x="91.6953" y="301.848" width="5.07691" height="5.09434" transform="rotate(-90 91.6953 301.848)" fill="#A1A1A1"/>
<rect x="178.305" y="93.6953" width="5.07691" height="5.09434" transform="rotate(90 178.305 93.6953)" fill="#A1A1A1"/>
<rect x="91.6953" y="266.305" width="5.07691" height="5.09434" transform="rotate(-90 91.6953 266.305)" fill="#A1A1A1"/>
<rect x="213.961" y="58.1523" width="5.07691" height="5.09434" transform="rotate(90 213.961 58.1523)" fill="#A1A1A1"/>
<rect x="56.0391" y="301.848" width="5.07691" height="5.09434" transform="rotate(-90 56.0391 301.848)" fill="#A1A1A1"/>
<rect x="213.961" y="93.6953" width="5.07691" height="5.09434" transform="rotate(90 213.961 93.6953)" fill="#A1A1A1"/>
<rect x="56.0391" y="266.305" width="5.07691" height="5.09434" transform="rotate(-90 56.0391 266.305)" fill="#A1A1A1"/>
<rect x="249.625" y="58.1523" width="5.07691" height="5.09434" transform="rotate(90 249.625 58.1523)" fill="#A1A1A1"/>
<rect x="20.375" y="301.848" width="5.07691" height="5.09434" transform="rotate(-90 20.375 301.848)" fill="#A1A1A1"/>
<rect x="249.625" y="93.6953" width="5.07691" height="5.09434" transform="rotate(90 249.625 93.6953)" fill="#A1A1A1"/>
<rect x="20.375" y="266.305" width="5.07691" height="5.09434" transform="rotate(-90 20.375 266.305)" fill="#A1A1A1"/>
<rect x="106.984" y="58.1523" width="5.07691" height="5.09434" transform="rotate(90 106.984 58.1523)" fill="#A1A1A1"/>
<rect x="163.016" y="301.848" width="5.07691" height="5.09434" transform="rotate(-90 163.016 301.848)" fill="#A1A1A1"/>
<rect x="106.984" y="93.6953" width="5.07691" height="5.09434" transform="rotate(90 106.984 93.6953)" fill="#A1A1A1"/>
<rect x="163.016" y="266.305" width="5.07691" height="5.09434" transform="rotate(-90 163.016 266.305)" fill="#A1A1A1"/>
<rect x="71.3203" y="58.1523" width="5.07691" height="5.09434" transform="rotate(90 71.3203 58.1523)" fill="#A1A1A1"/>
<rect x="198.68" y="301.848" width="5.07691" height="5.09434" transform="rotate(-90 198.68 301.848)" fill="#A1A1A1"/>
<rect x="71.3203" y="93.6953" width="5.07691" height="5.09434" transform="rotate(90 71.3203 93.6953)" fill="#A1A1A1"/>
<rect x="198.68" y="266.305" width="5.07691" height="5.09434" transform="rotate(-90 198.68 266.305)" fill="#A1A1A1"/>
<rect x="127.359" y="53.0762" width="5.07691" height="5.09434" transform="rotate(90 127.359 53.0762)" fill="#A1A1A1"/>
<rect x="142.641" y="306.924" width="5.07691" height="5.09434" transform="rotate(-90 142.641 306.924)" fill="#A1A1A1"/>
<rect x="127.359" y="88.6191" width="5.07691" height="5.09434" transform="rotate(90 127.359 88.6191)" fill="#A1A1A1"/>
<rect x="142.641" y="271.381" width="5.07691" height="5.09434" transform="rotate(-90 142.641 271.381)" fill="#A1A1A1"/>
<rect x="188.492" y="53.0762" width="5.07691" height="5.09434" transform="rotate(90 188.492 53.0762)" fill="#A1A1A1"/>
<rect x="81.5078" y="306.924" width="5.07691" height="5.09434" transform="rotate(-90 81.5078 306.924)" fill="#A1A1A1"/>
<rect x="183.398" y="53.0762" width="5.07691" height="5.09434" transform="rotate(90 183.398 53.0762)" fill="#A1A1A1"/>
<rect x="86.6016" y="306.924" width="5.07691" height="5.09434" transform="rotate(-90 86.6016 306.924)" fill="#A1A1A1"/>
<rect x="188.492" y="88.6191" width="5.07691" height="5.09434" transform="rotate(90 188.492 88.6191)" fill="#A1A1A1"/>
<rect x="81.5078" y="271.381" width="5.07691" height="5.09434" transform="rotate(-90 81.5078 271.381)" fill="#A1A1A1"/>
<rect x="183.398" y="88.6191" width="5.07691" height="5.09434" transform="rotate(90 183.398 88.6191)" fill="#A1A1A1"/>
<rect x="86.6016" y="271.381" width="5.07691" height="5.09434" transform="rotate(-90 86.6016 271.381)" fill="#A1A1A1"/>
<rect x="183.398" y="159.695" width="5.07691" height="5.09434" transform="rotate(90 183.398 159.695)" fill="#A1A1A1"/>
<rect x="183.398" y="195.229" width="5.07691" height="5.09434" transform="rotate(90 183.398 195.229)" fill="#A1A1A1"/>
<rect x="157.922" y="53.0762" width="5.07691" height="5.09434" transform="rotate(90 157.922 53.0762)" fill="#A1A1A1"/>
<rect x="112.078" y="306.924" width="5.07691" height="5.09434" transform="rotate(-90 112.078 306.924)" fill="#A1A1A1"/>
<rect x="157.922" y="88.6191" width="5.07691" height="5.09434" transform="rotate(90 157.922 88.6191)" fill="#A1A1A1"/>
<rect x="112.078" y="271.381" width="5.07691" height="5.09434" transform="rotate(-90 112.078 271.381)" fill="#A1A1A1"/>
<rect x="219.055" y="195.229" width="5.07691" height="5.09434" transform="rotate(90 219.055 195.229)" fill="#A1A1A1"/>
<rect x="193.586" y="53.0762" width="5.07691" height="5.09434" transform="rotate(90 193.586 53.0762)" fill="#A1A1A1"/>
<rect x="76.4141" y="306.924" width="5.07691" height="5.09434" transform="rotate(-90 76.4141 306.924)" fill="#A1A1A1"/>
<rect x="193.586" y="88.6191" width="5.07691" height="5.09434" transform="rotate(90 193.586 88.6191)" fill="#A1A1A1"/>
<rect x="76.4141" y="271.381" width="5.07691" height="5.09434" transform="rotate(-90 76.4141 271.381)" fill="#A1A1A1"/>
<rect x="188.492" y="159.695" width="5.07691" height="5.09434" transform="rotate(90 188.492 159.695)" fill="#A1A1A1"/>
<rect x="188.492" y="195.229" width="5.07691" height="5.09434" transform="rotate(90 188.492 195.229)" fill="#A1A1A1"/>
<rect x="163.016" y="53.0762" width="5.07691" height="5.09434" transform="rotate(90 163.016 53.0762)" fill="#A1A1A1"/>
<rect x="106.984" y="306.924" width="5.07691" height="5.09434" transform="rotate(-90 106.984 306.924)" fill="#A1A1A1"/>
<rect x="163.016" y="88.6191" width="5.07691" height="5.09434" transform="rotate(90 163.016 88.6191)" fill="#A1A1A1"/>
<rect x="106.984" y="271.381" width="5.07691" height="5.09434" transform="rotate(-90 106.984 271.381)" fill="#A1A1A1"/>
<rect x="224.148" y="53.0762" width="5.07691" height="5.09434" transform="rotate(90 224.148 53.0762)" fill="#A1A1A1"/>
<rect x="45.8516" y="306.924" width="5.07691" height="5.09434" transform="rotate(-90 45.8516 306.924)" fill="#A1A1A1"/>
<rect x="219.055" y="53.0762" width="5.07691" height="5.09434" transform="rotate(90 219.055 53.0762)" fill="#A1A1A1"/>
<rect x="50.9453" y="306.924" width="5.07691" height="5.09434" transform="rotate(-90 50.9453 306.924)" fill="#A1A1A1"/>
<rect x="224.148" y="88.6191" width="5.07691" height="5.09434" transform="rotate(90 224.148 88.6191)" fill="#A1A1A1"/>
<rect x="45.8516" y="271.381" width="5.07691" height="5.09434" transform="rotate(-90 45.8516 271.381)" fill="#A1A1A1"/>
<rect x="219.055" y="88.6191" width="5.07691" height="5.09434" transform="rotate(90 219.055 88.6191)" fill="#A1A1A1"/>
<rect x="50.9453" y="271.381" width="5.07691" height="5.09434" transform="rotate(-90 50.9453 271.381)" fill="#A1A1A1"/>
<rect x="224.148" y="159.695" width="5.07691" height="5.09434" transform="rotate(90 224.148 159.695)" fill="#A1A1A1"/>
<rect x="219.055" y="159.695" width="5.07691" height="5.09434" transform="rotate(90 219.055 159.695)" fill="#A1A1A1"/>
<rect x="224.148" y="195.229" width="5.07691" height="5.09434" transform="rotate(90 224.148 195.229)" fill="#A1A1A1"/>
<rect x="81.5078" y="53.0762" width="5.07691" height="5.09434" transform="rotate(90 81.5078 53.0762)" fill="#A1A1A1"/>
<rect x="188.492" y="306.924" width="5.07691" height="5.09434" transform="rotate(-90 188.492 306.924)" fill="#A1A1A1"/>
<rect x="76.4141" y="53.0762" width="5.07691" height="5.09434" transform="rotate(90 76.4141 53.0762)" fill="#A1A1A1"/>
<rect x="193.586" y="306.924" width="5.07691" height="5.09434" transform="rotate(-90 193.586 306.924)" fill="#A1A1A1"/>
<rect x="81.5078" y="88.6191" width="5.07691" height="5.09434" transform="rotate(90 81.5078 88.6191)" fill="#A1A1A1"/>
<rect x="188.492" y="271.381" width="5.07691" height="5.09434" transform="rotate(-90 188.492 271.381)" fill="#A1A1A1"/>
<rect x="76.4141" y="88.6191" width="5.07691" height="5.09434" transform="rotate(90 76.4141 88.6191)" fill="#A1A1A1"/>
<rect x="193.586" y="271.381" width="5.07691" height="5.09434" transform="rotate(-90 193.586 271.381)" fill="#A1A1A1"/>
<rect x="198.68" y="53.0762" width="5.07691" height="5.09434" transform="rotate(90 198.68 53.0762)" fill="#A1A1A1"/>
<rect x="71.3203" y="306.924" width="5.07691" height="5.09434" transform="rotate(-90 71.3203 306.924)" fill="#A1A1A1"/>
<rect x="198.68" y="88.6191" width="5.07691" height="5.09434" transform="rotate(90 198.68 88.6191)" fill="#A1A1A1"/>
<rect x="71.3203" y="271.381" width="5.07691" height="5.09434" transform="rotate(-90 71.3203 271.381)" fill="#A1A1A1"/>
<rect x="198.68" y="159.695" width="5.07691" height="5.09434" transform="rotate(90 198.68 159.695)" fill="#A1A1A1"/>
<rect x="198.68" y="195.229" width="5.07691" height="5.09434" transform="rotate(90 198.68 195.229)" fill="#A1A1A1"/>
<rect x="229.242" y="53.0762" width="5.07691" height="5.09434" transform="rotate(90 229.242 53.0762)" fill="#A1A1A1"/>
<rect x="40.7578" y="306.924" width="5.07691" height="5.09434" transform="rotate(-90 40.7578 306.924)" fill="#A1A1A1"/>
<rect x="229.242" y="88.6191" width="5.07691" height="5.09434" transform="rotate(90 229.242 88.6191)" fill="#A1A1A1"/>
<rect x="40.7578" y="271.381" width="5.07691" height="5.09434" transform="rotate(-90 40.7578 271.381)" fill="#A1A1A1"/>
<rect x="229.242" y="159.695" width="5.07691" height="5.09434" transform="rotate(90 229.242 159.695)" fill="#A1A1A1"/>
<rect x="234.336" y="159.695" width="5.07691" height="5.09434" transform="rotate(90 234.336 159.695)" fill="#A1A1A1"/>
<rect x="234.336" y="195.229" width="5.07691" height="5.09434" transform="rotate(90 234.336 195.229)" fill="#A1A1A1"/>
<rect x="193.586" y="195.229" width="5.07691" height="5.09434" transform="rotate(90 193.586 195.229)" fill="#A1A1A1"/>
<rect x="193.586" y="159.695" width="5.07691" height="5.09434" transform="rotate(90 193.586 159.695)" fill="#A1A1A1"/>
<rect x="76.4141" y="159.695" width="5.07691" height="5.09434" transform="rotate(90 76.4141 159.695)" fill="#A1A1A1"/>
<rect x="76.4141" y="195.229" width="5.07691" height="5.09434" transform="rotate(90 76.4141 195.229)" fill="#A1A1A1"/>
<rect x="40.7578" y="195.229" width="5.07691" height="5.09434" transform="rotate(90 40.7578 195.229)" fill="#A1A1A1"/>
<rect x="40.7578" y="159.695" width="5.07691" height="5.09434" transform="rotate(90 40.7578 159.695)" fill="#A1A1A1"/>
<rect x="229.242" y="195.229" width="5.07691" height="5.09434" transform="rotate(90 229.242 195.229)" fill="#A1A1A1"/>
<rect x="86.6016" y="53.0762" width="5.07691" height="5.09434" transform="rotate(90 86.6016 53.0762)" fill="#A1A1A1"/>
<rect x="183.398" y="306.924" width="5.07691" height="5.09434" transform="rotate(-90 183.398 306.924)" fill="#A1A1A1"/>
<rect x="86.6016" y="88.6191" width="5.07691" height="5.09434" transform="rotate(90 86.6016 88.6191)" fill="#A1A1A1"/>
<rect x="183.398" y="271.381" width="5.07691" height="5.09434" transform="rotate(-90 183.398 271.381)" fill="#A1A1A1"/>
<rect x="117.172" y="53.0762" width="5.07691" height="5.09434" transform="rotate(90 117.172 53.0762)" fill="#A1A1A1"/>
<rect x="152.828" y="306.924" width="5.07691" height="5.09434" transform="rotate(-90 152.828 306.924)" fill="#A1A1A1"/>
<rect x="112.078" y="53.0762" width="5.07691" height="5.09434" transform="rotate(90 112.078 53.0762)" fill="#A1A1A1"/>
<rect x="157.922" y="306.924" width="5.07691" height="5.09434" transform="rotate(-90 157.922 306.924)" fill="#A1A1A1"/>
<rect x="117.172" y="88.6191" width="5.07691" height="5.09434" transform="rotate(90 117.172 88.6191)" fill="#A1A1A1"/>
<rect x="152.828" y="271.381" width="5.07691" height="5.09434" transform="rotate(-90 152.828 271.381)" fill="#A1A1A1"/>
<rect x="112.078" y="88.6191" width="5.07691" height="5.09434" transform="rotate(90 112.078 88.6191)" fill="#A1A1A1"/>
<rect x="157.922" y="271.381" width="5.07691" height="5.09434" transform="rotate(-90 157.922 271.381)" fill="#A1A1A1"/>
<rect x="234.336" y="53.0762" width="5.07691" height="5.09434" transform="rotate(90 234.336 53.0762)" fill="#A1A1A1"/>
<rect x="35.6641" y="306.924" width="5.07691" height="5.09434" transform="rotate(-90 35.6641 306.924)" fill="#A1A1A1"/>
<rect x="234.336" y="88.6191" width="5.07691" height="5.09434" transform="rotate(90 234.336 88.6191)" fill="#A1A1A1"/>
<rect x="35.6641" y="271.381" width="5.07691" height="5.09434" transform="rotate(-90 35.6641 271.381)" fill="#A1A1A1"/>
<rect x="112.078" y="164.771" width="5.07691" height="5.09434" transform="rotate(90 112.078 164.771)" fill="#A1A1A1"/>
<rect x="117.172" y="169.848" width="5.07691" height="5.09434" transform="rotate(90 117.172 169.848)" fill="#A1A1A1"/>
<rect x="117.172" y="185.076" width="5.07691" height="5.09434" transform="rotate(90 117.172 185.076)" fill="#A1A1A1"/>
<rect x="157.922" y="169.848" width="5.07691" height="5.09434" transform="rotate(90 157.922 169.848)" fill="#A1A1A1"/>
<rect x="157.922" y="185.076" width="5.07691" height="5.09434" transform="rotate(90 157.922 185.076)" fill="#A1A1A1"/>
<rect x="152.828" y="180" width="5.07691" height="5.09434" transform="rotate(90 152.828 180)" fill="#A1A1A1"/>
<rect x="152.828" y="174.924" width="5.07691" height="5.09434" transform="rotate(90 152.828 174.924)" fill="#A1A1A1"/>
<rect x="122.266" y="180" width="5.07691" height="5.09434" transform="rotate(90 122.266 180)" fill="#A1A1A1"/>
<rect x="122.266" y="174.924" width="5.07691" height="5.09434" transform="rotate(90 122.266 174.924)" fill="#A1A1A1"/>
<rect x="127.359" y="169.848" width="5.07691" height="5.09434" transform="rotate(90 127.359 169.848)" fill="#A1A1A1"/>
<rect x="132.453" y="164.771" width="5.07691" height="5.09434" transform="rotate(90 132.453 164.771)" fill="#A1A1A1"/>
<rect x="137.547" y="164.771" width="5.07691" height="5.09434" transform="rotate(90 137.547 164.771)" fill="#A1A1A1"/>
<rect x="147.734" y="169.848" width="5.07691" height="5.09434" transform="rotate(90 147.734 169.848)" fill="#A1A1A1"/>
<rect x="147.734" y="185.076" width="5.07691" height="5.09434" transform="rotate(90 147.734 185.076)" fill="#A1A1A1"/>
<rect x="142.641" y="190.152" width="5.07691" height="5.09434" transform="rotate(90 142.641 190.152)" fill="#A1A1A1"/>
<rect x="137.547" y="190.152" width="5.07691" height="5.09434" transform="rotate(90 137.547 190.152)" fill="#A1A1A1"/>
<rect x="132.453" y="190.152" width="5.07691" height="5.09434" transform="rotate(90 132.453 190.152)" fill="#A1A1A1"/>
<rect x="127.359" y="185.076" width="5.07691" height="5.09434" transform="rotate(90 127.359 185.076)" fill="#A1A1A1"/>
<rect x="132.453" y="174.924" width="5.07691" height="5.09434" transform="rotate(90 132.453 174.924)" fill="#A1A1A1"/>
<rect x="137.547" y="174.924" width="5.07691" height="5.09434" transform="rotate(90 137.547 174.924)" fill="#A1A1A1"/>
<rect x="142.641" y="174.924" width="5.07691" height="5.09434" transform="rotate(90 142.641 174.924)" fill="#A1A1A1"/>
<rect x="142.641" y="180" width="5.07691" height="5.09434" transform="rotate(90 142.641 180)" fill="#A1A1A1"/>
<rect x="137.547" y="180" width="5.07691" height="5.09434" transform="rotate(90 137.547 180)" fill="#A1A1A1"/>
<rect x="132.453" y="180" width="5.07691" height="5.09434" transform="rotate(90 132.453 180)" fill="#A1A1A1"/>
<rect x="142.641" y="164.771" width="5.07691" height="5.09434" transform="rotate(90 142.641 164.771)" fill="#A1A1A1"/>
<rect x="112.078" y="190.152" width="5.07691" height="5.09434" transform="rotate(90 112.078 190.152)" fill="#A1A1A1"/>
<rect x="163.016" y="164.771" width="5.07691" height="5.09434" transform="rotate(90 163.016 164.771)" fill="#A1A1A1"/>
<rect x="163.016" y="190.152" width="5.07691" height="5.09434" transform="rotate(90 163.016 190.152)" fill="#A1A1A1"/>
<rect width="5.07691" height="5.09434" transform="matrix(4.38614e-08 1 1 -4.35618e-08 30.5625 159.695)" fill="#A1A1A1"/>
<rect width="5.07691" height="5.09434" transform="matrix(4.38614e-08 1 1 -4.35618e-08 30.5625 195.229)" fill="#A1A1A1"/>
<rect width="5.07691" height="5.09434" transform="matrix(4.38614e-08 1 1 -4.35618e-08 66.2266 159.695)" fill="#A1A1A1"/>
<rect width="5.07691" height="5.09434" transform="matrix(4.38614e-08 1 1 -4.35618e-08 66.2266 195.229)" fill="#A1A1A1"/>
<rect width="5.07691" height="5.09434" transform="matrix(4.38614e-08 1 1 -4.35618e-08 101.891 159.695)" fill="#A1A1A1"/>
<rect width="5.07691" height="5.09434" transform="matrix(4.38614e-08 1 1 -4.35618e-08 101.891 195.229)" fill="#A1A1A1"/>
<rect width="5.07691" height="5.09434" transform="matrix(4.38614e-08 1 1 -4.35618e-08 30.5625 164.771)" fill="#A1A1A1"/>
<rect width="5.07691" height="5.09434" transform="matrix(4.38614e-08 1 1 -4.35618e-08 30.5625 200.305)" fill="#A1A1A1"/>
<rect width="5.07691" height="5.09434" transform="matrix(4.38614e-08 1 1 -4.35618e-08 66.2266 164.771)" fill="#A1A1A1"/>
<rect width="5.07691" height="5.09434" transform="matrix(4.38614e-08 1 1 -4.35618e-08 66.2266 200.305)" fill="#A1A1A1"/>
<rect width="5.07691" height="5.09434" transform="matrix(4.38614e-08 1 1 -4.35618e-08 101.891 164.771)" fill="#A1A1A1"/>
<rect width="5.07691" height="5.09434" transform="matrix(4.38614e-08 1 1 -4.35618e-08 101.891 200.305)" fill="#A1A1A1"/>
<rect width="5.07691" height="5.09434" transform="matrix(4.38614e-08 1 1 -4.35618e-08 25.4688 164.771)" fill="#A1A1A1"/>
<rect width="5.07691" height="5.09434" transform="matrix(4.38614e-08 1 1 -4.35618e-08 25.4688 200.305)" fill="#A1A1A1"/>
<rect width="5.07691" height="5.09434" transform="matrix(4.38614e-08 1 1 -4.35618e-08 61.1328 164.771)" fill="#A1A1A1"/>
<rect width="5.07691" height="5.09434" transform="matrix(4.38614e-08 1 1 -4.35618e-08 61.1328 200.305)" fill="#A1A1A1"/>
<rect width="5.07691" height="5.09434" transform="matrix(4.38614e-08 1 1 -4.35618e-08 96.7891 164.771)" fill="#A1A1A1"/>
<rect width="5.07691" height="5.09434" transform="matrix(4.38614e-08 1 1 -4.35618e-08 96.7891 200.305)" fill="#A1A1A1"/>
<rect width="5.07691" height="5.09434" transform="matrix(4.38614e-08 1 1 -4.35618e-08 25.4688 154.619)" fill="#A1A1A1"/>
<rect width="5.07691" height="5.09434" transform="matrix(4.38614e-08 1 1 -4.35618e-08 25.4688 190.152)" fill="#A1A1A1"/>
<rect width="5.07691" height="5.09434" transform="matrix(4.38614e-08 1 1 -4.35618e-08 61.1328 154.619)" fill="#A1A1A1"/>
<rect width="5.07691" height="5.09434" transform="matrix(4.38614e-08 1 1 -4.35618e-08 61.1328 190.152)" fill="#A1A1A1"/>
<rect width="5.07691" height="5.09434" transform="matrix(4.38614e-08 1 1 -4.35618e-08 96.7891 154.619)" fill="#A1A1A1"/>
<rect width="5.07691" height="5.09434" transform="matrix(4.38614e-08 1 1 -4.35618e-08 96.7891 190.152)" fill="#A1A1A1"/>
<rect width="5.07691" height="5.09434" transform="matrix(-1.31584e-07 -1 -1 1.30686e-07 30.5625 190.152)" fill="#A1A1A1"/>
<rect width="5.07691" height="5.09434" transform="matrix(-1.31584e-07 -1 -1 1.30686e-07 30.5625 185.076)" fill="#A1A1A1"/>
<rect width="5.07691" height="5.09434" transform="matrix(-1.31584e-07 -1 -1 1.30686e-07 30.5625 180)" fill="#A1A1A1"/>
<rect width="5.07691" height="5.09434" transform="matrix(-1.31584e-07 -1 -1 1.30686e-07 30.5625 174.924)" fill="#A1A1A1"/>
<rect width="5.07691" height="5.09434" transform="matrix(4.38614e-08 1 1 -4.35618e-08 30.5625 154.619)" fill="#A1A1A1"/>
<rect width="5.07691" height="5.09434" transform="matrix(4.38614e-08 1 1 -4.35618e-08 30.5625 190.152)" fill="#A1A1A1"/>
<rect width="5.07691" height="5.09434" transform="matrix(4.38614e-08 1 1 -4.35618e-08 66.2266 154.619)" fill="#A1A1A1"/>
<rect width="5.07691" height="5.09434" transform="matrix(4.38614e-08 1 1 -4.35618e-08 66.2266 190.152)" fill="#A1A1A1"/>
<rect width="5.07691" height="5.09434" transform="matrix(4.38614e-08 1 1 -4.35618e-08 101.891 154.619)" fill="#A1A1A1"/>
<rect width="5.07691" height="5.09434" transform="matrix(4.38614e-08 1 1 -4.35618e-08 101.891 190.152)" fill="#A1A1A1"/>
<rect width="5.07691" height="5.09434" transform="matrix(4.38614e-08 1 1 -4.35618e-08 86.6016 159.695)" fill="#A1A1A1"/>
<rect width="5.07691" height="5.09434" transform="matrix(4.38614e-08 1 1 -4.35618e-08 86.6016 195.229)" fill="#A1A1A1"/>
<rect width="5.07691" height="5.09434" transform="matrix(4.38614e-08 1 1 -4.35618e-08 20.375 154.619)" fill="#A1A1A1"/>
<rect width="5.07691" height="5.09434" transform="matrix(4.38614e-08 1 1 -4.35618e-08 20.375 190.152)" fill="#A1A1A1"/>
<rect width="5.07691" height="5.09434" transform="matrix(4.38614e-08 1 1 -4.35618e-08 56.0391 154.619)" fill="#A1A1A1"/>
<rect width="5.07691" height="5.09434" transform="matrix(4.38614e-08 1 1 -4.35618e-08 56.0391 190.152)" fill="#A1A1A1"/>
<rect width="5.07691" height="5.09434" transform="matrix(4.38614e-08 1 1 -4.35618e-08 91.6953 154.619)" fill="#A1A1A1"/>
<rect width="5.07691" height="5.09434" transform="matrix(4.38614e-08 1 1 -4.35618e-08 91.6953 190.152)" fill="#A1A1A1"/>
<rect width="5.07691" height="5.09434" transform="matrix(4.38614e-08 1 1 -4.35618e-08 20.375 159.695)" fill="#A1A1A1"/>
<rect width="5.07691" height="5.09434" transform="matrix(4.38614e-08 1 1 -4.35618e-08 20.375 195.229)" fill="#A1A1A1"/>
<rect width="5.07691" height="5.09434" transform="matrix(4.38614e-08 1 1 -4.35618e-08 56.0391 159.695)" fill="#A1A1A1"/>
<rect width="5.07691" height="5.09434" transform="matrix(4.38614e-08 1 1 -4.35618e-08 56.0391 195.229)" fill="#A1A1A1"/>
<rect width="5.07691" height="5.09434" transform="matrix(4.38614e-08 1 1 -4.35618e-08 91.6953 159.695)" fill="#A1A1A1"/>
<rect width="5.07691" height="5.09434" transform="matrix(4.38614e-08 1 1 -4.35618e-08 91.6953 195.229)" fill="#A1A1A1"/>
<rect width="5.07691" height="5.09434" transform="matrix(4.38614e-08 1 1 -4.35618e-08 20.375 164.771)" fill="#A1A1A1"/>
<rect width="5.07691" height="5.09434" transform="matrix(4.38614e-08 1 1 -4.35618e-08 20.375 200.305)" fill="#A1A1A1"/>
<rect width="5.07691" height="5.09434" transform="matrix(4.38614e-08 1 1 -4.35618e-08 56.0391 164.771)" fill="#A1A1A1"/>
<rect width="5.07691" height="5.09434" transform="matrix(4.38614e-08 1 1 -4.35618e-08 56.0391 200.305)" fill="#A1A1A1"/>
<rect width="5.07691" height="5.09434" transform="matrix(4.38614e-08 1 1 -4.35618e-08 91.6953 164.771)" fill="#A1A1A1"/>
<rect width="5.07691" height="5.09434" transform="matrix(4.38614e-08 1 1 -4.35618e-08 91.6953 200.305)" fill="#A1A1A1"/>
<rect width="5.07691" height="5.09434" transform="matrix(4.38614e-08 1 1 -4.35618e-08 81.5078 159.695)" fill="#A1A1A1"/>
<rect width="5.07691" height="5.09434" transform="matrix(4.38614e-08 1 1 -4.35618e-08 81.5078 195.229)" fill="#A1A1A1"/>
<rect width="5.07691" height="5.09434" transform="matrix(4.38614e-08 1 1 -4.35618e-08 50.9453 195.229)" fill="#A1A1A1"/>
<rect width="5.07691" height="5.09434" transform="matrix(4.38614e-08 1 1 -4.35618e-08 76.4141 159.695)" fill="#A1A1A1"/>
<rect width="5.07691" height="5.09434" transform="matrix(4.38614e-08 1 1 -4.35618e-08 76.4141 195.229)" fill="#A1A1A1"/>
<rect width="5.07691" height="5.09434" transform="matrix(4.38614e-08 1 1 -4.35618e-08 45.8516 159.695)" fill="#A1A1A1"/>
<rect width="5.07691" height="5.09434" transform="matrix(4.38614e-08 1 1 -4.35618e-08 50.9453 159.695)" fill="#A1A1A1"/>
<rect width="5.07691" height="5.09434" transform="matrix(4.38614e-08 1 1 -4.35618e-08 45.8516 195.229)" fill="#A1A1A1"/>
<rect width="5.07691" height="5.09434" transform="matrix(4.38614e-08 1 1 -4.35618e-08 40.7578 159.695)" fill="#A1A1A1"/>
<rect width="5.07691" height="5.09434" transform="matrix(4.38614e-08 1 1 -4.35618e-08 40.7578 195.229)" fill="#A1A1A1"/>
<rect x="101.891" y="114" width="5.07691" height="5.09434" transform="rotate(90 101.891 114)" fill="#A1A1A1"/>
<rect x="101.891" y="220.619" width="5.07691" height="5.09434" transform="rotate(90 101.891 220.619)" fill="#A1A1A1"/>
<rect x="66.2266" y="114" width="5.07691" height="5.09434" transform="rotate(90 66.2266 114)" fill="#A1A1A1"/>
<rect x="66.2266" y="220.619" width="5.07691" height="5.09434" transform="rotate(90 66.2266 220.619)" fill="#A1A1A1"/>
<rect x="173.211" y="114" width="5.07691" height="5.09434" transform="rotate(90 173.211 114)" fill="#A1A1A1"/>
<rect x="173.211" y="220.619" width="5.07691" height="5.09434" transform="rotate(90 173.211 220.619)" fill="#A1A1A1"/>
<rect x="137.547" y="114" width="5.07691" height="5.09434" transform="rotate(90 137.547 114)" fill="#A1A1A1"/>
<rect x="137.547" y="220.619" width="5.07691" height="5.09434" transform="rotate(90 137.547 220.619)" fill="#A1A1A1"/>
<rect x="208.867" y="114" width="5.07691" height="5.09434" transform="rotate(90 208.867 114)" fill="#A1A1A1"/>
<rect x="208.867" y="220.619" width="5.07691" height="5.09434" transform="rotate(90 208.867 220.619)" fill="#A1A1A1"/>
<rect x="101.891" y="108.924" width="5.07691" height="5.09434" transform="rotate(90 101.891 108.924)" fill="#A1A1A1"/>
<rect x="101.891" y="215.535" width="5.07691" height="5.09434" transform="rotate(90 101.891 215.535)" fill="#A1A1A1"/>
<rect x="66.2266" y="108.924" width="5.07691" height="5.09434" transform="rotate(90 66.2266 108.924)" fill="#A1A1A1"/>
<rect x="66.2266" y="215.535" width="5.07691" height="5.09434" transform="rotate(90 66.2266 215.535)" fill="#A1A1A1"/>
<rect x="173.211" y="108.924" width="5.07691" height="5.09434" transform="rotate(90 173.211 108.924)" fill="#A1A1A1"/>
<rect x="173.211" y="215.535" width="5.07691" height="5.09434" transform="rotate(90 173.211 215.535)" fill="#A1A1A1"/>
<rect x="137.547" y="108.924" width="5.07691" height="5.09434" transform="rotate(90 137.547 108.924)" fill="#A1A1A1"/>
<rect x="137.547" y="215.535" width="5.07691" height="5.09434" transform="rotate(90 137.547 215.535)" fill="#A1A1A1"/>
<rect x="208.867" y="108.924" width="5.07691" height="5.09434" transform="rotate(90 208.867 108.924)" fill="#A1A1A1"/>
<rect x="208.867" y="215.535" width="5.07691" height="5.09434" transform="rotate(90 208.867 215.535)" fill="#A1A1A1"/>
<rect x="96.7891" y="114" width="5.07691" height="5.09434" transform="rotate(90 96.7891 114)" fill="#A1A1A1"/>
<rect x="96.7891" y="220.619" width="5.07691" height="5.09434" transform="rotate(90 96.7891 220.619)" fill="#A1A1A1"/>
<rect x="61.1328" y="114" width="5.07691" height="5.09434" transform="rotate(90 61.1328 114)" fill="#A1A1A1"/>
<rect x="61.1328" y="220.619" width="5.07691" height="5.09434" transform="rotate(90 61.1328 220.619)" fill="#A1A1A1"/>
<rect x="168.109" y="114" width="5.07691" height="5.09434" transform="rotate(90 168.109 114)" fill="#A1A1A1"/>
<rect x="168.109" y="220.619" width="5.07691" height="5.09434" transform="rotate(90 168.109 220.619)" fill="#A1A1A1"/>
<rect x="132.453" y="114" width="5.07691" height="5.09434" transform="rotate(90 132.453 114)" fill="#A1A1A1"/>
<rect x="132.453" y="220.619" width="5.07691" height="5.09434" transform="rotate(90 132.453 220.619)" fill="#A1A1A1"/>
<rect x="203.773" y="114" width="5.07691" height="5.09434" transform="rotate(90 203.773 114)" fill="#A1A1A1"/>
<rect x="203.773" y="220.619" width="5.07691" height="5.09434" transform="rotate(90 203.773 220.619)" fill="#A1A1A1"/>
<rect x="106.984" y="114" width="5.07691" height="5.09434" transform="rotate(90 106.984 114)" fill="#A1A1A1"/>
<rect x="106.984" y="220.619" width="5.07691" height="5.09434" transform="rotate(90 106.984 220.619)" fill="#A1A1A1"/>
<rect x="71.3203" y="114" width="5.07691" height="5.09434" transform="rotate(90 71.3203 114)" fill="#A1A1A1"/>
<rect x="71.3203" y="220.619" width="5.07691" height="5.09434" transform="rotate(90 71.3203 220.619)" fill="#A1A1A1"/>
<rect x="178.305" y="114" width="5.07691" height="5.09434" transform="rotate(90 178.305 114)" fill="#A1A1A1"/>
<rect x="178.305" y="220.619" width="5.07691" height="5.09434" transform="rotate(90 178.305 220.619)" fill="#A1A1A1"/>
<rect x="142.641" y="114" width="5.07691" height="5.09434" transform="rotate(90 142.641 114)" fill="#A1A1A1"/>
<rect x="142.641" y="220.619" width="5.07691" height="5.09434" transform="rotate(90 142.641 220.619)" fill="#A1A1A1"/>
<rect x="213.961" y="114" width="5.07691" height="5.09434" transform="rotate(90 213.961 114)" fill="#A1A1A1"/>
<rect x="213.961" y="220.619" width="5.07691" height="5.09434" transform="rotate(90 213.961 220.619)" fill="#A1A1A1"/>
<rect x="101.891" y="134.305" width="5.07691" height="5.09434" transform="rotate(90 101.891 134.305)" fill="#A1A1A1"/>
<rect x="101.891" y="240.924" width="5.07691" height="5.09434" transform="rotate(90 101.891 240.924)" fill="#A1A1A1"/>
<rect x="66.2266" y="134.305" width="5.07691" height="5.09434" transform="rotate(90 66.2266 134.305)" fill="#A1A1A1"/>
<rect x="66.2266" y="240.924" width="5.07691" height="5.09434" transform="rotate(90 66.2266 240.924)" fill="#A1A1A1"/>
<rect x="173.211" y="134.305" width="5.07691" height="5.09434" transform="rotate(90 173.211 134.305)" fill="#A1A1A1"/>
<rect x="173.211" y="240.924" width="5.07691" height="5.09434" transform="rotate(90 173.211 240.924)" fill="#A1A1A1"/>
<rect x="137.547" y="134.305" width="5.07691" height="5.09434" transform="rotate(90 137.547 134.305)" fill="#A1A1A1"/>
<rect x="137.547" y="240.924" width="5.07691" height="5.09434" transform="rotate(90 137.547 240.924)" fill="#A1A1A1"/>
<rect x="208.867" y="134.305" width="5.07691" height="5.09434" transform="rotate(90 208.867 134.305)" fill="#A1A1A1"/>
<rect x="208.867" y="240.924" width="5.07691" height="5.09434" transform="rotate(90 208.867 240.924)" fill="#A1A1A1"/>
<rect x="101.891" y="139.381" width="5.07691" height="5.09434" transform="rotate(90 101.891 139.381)" fill="#A1A1A1"/>
<rect x="101.891" y="246" width="5.07691" height="5.09434" transform="rotate(90 101.891 246)" fill="#A1A1A1"/>
<rect x="66.2266" y="139.381" width="5.07691" height="5.09434" transform="rotate(90 66.2266 139.381)" fill="#A1A1A1"/>
<rect x="66.2266" y="246" width="5.07691" height="5.09434" transform="rotate(90 66.2266 246)" fill="#A1A1A1"/>
<rect x="173.211" y="139.381" width="5.07691" height="5.09434" transform="rotate(90 173.211 139.381)" fill="#A1A1A1"/>
<rect x="173.211" y="246" width="5.07691" height="5.09434" transform="rotate(90 173.211 246)" fill="#A1A1A1"/>
<rect x="137.547" y="139.381" width="5.07691" height="5.09434" transform="rotate(90 137.547 139.381)" fill="#A1A1A1"/>
<rect x="137.547" y="246" width="5.07691" height="5.09434" transform="rotate(90 137.547 246)" fill="#A1A1A1"/>
<rect x="208.867" y="139.381" width="5.07691" height="5.09434" transform="rotate(90 208.867 139.381)" fill="#A1A1A1"/>
<rect x="208.867" y="246" width="5.07691" height="5.09434" transform="rotate(90 208.867 246)" fill="#A1A1A1"/>
<rect x="106.984" y="134.305" width="5.07691" height="5.09434" transform="rotate(90 106.984 134.305)" fill="#A1A1A1"/>
<rect x="106.984" y="240.924" width="5.07691" height="5.09434" transform="rotate(90 106.984 240.924)" fill="#A1A1A1"/>
<rect x="71.3203" y="134.305" width="5.07691" height="5.09434" transform="rotate(90 71.3203 134.305)" fill="#A1A1A1"/>
<rect x="71.3203" y="240.924" width="5.07691" height="5.09434" transform="rotate(90 71.3203 240.924)" fill="#A1A1A1"/>
<rect x="178.305" y="134.305" width="5.07691" height="5.09434" transform="rotate(90 178.305 134.305)" fill="#A1A1A1"/>
<rect x="178.305" y="240.924" width="5.07691" height="5.09434" transform="rotate(90 178.305 240.924)" fill="#A1A1A1"/>
<rect x="142.641" y="134.305" width="5.07691" height="5.09434" transform="rotate(90 142.641 134.305)" fill="#A1A1A1"/>
<rect x="142.641" y="240.924" width="5.07691" height="5.09434" transform="rotate(90 142.641 240.924)" fill="#A1A1A1"/>
<rect x="213.961" y="134.305" width="5.07691" height="5.09434" transform="rotate(90 213.961 134.305)" fill="#A1A1A1"/>
<rect x="213.961" y="240.924" width="5.07691" height="5.09434" transform="rotate(90 213.961 240.924)" fill="#A1A1A1"/>
<rect x="96.7891" y="134.305" width="5.07691" height="5.09434" transform="rotate(90 96.7891 134.305)" fill="#A1A1A1"/>
<rect x="96.7891" y="240.924" width="5.07691" height="5.09434" transform="rotate(90 96.7891 240.924)" fill="#A1A1A1"/>
<rect x="61.1328" y="134.305" width="5.07691" height="5.09434" transform="rotate(90 61.1328 134.305)" fill="#A1A1A1"/>
<rect x="61.1328" y="240.924" width="5.07691" height="5.09434" transform="rotate(90 61.1328 240.924)" fill="#A1A1A1"/>
<rect x="168.109" y="134.305" width="5.07691" height="5.09434" transform="rotate(90 168.109 134.305)" fill="#A1A1A1"/>
<rect x="168.109" y="240.924" width="5.07691" height="5.09434" transform="rotate(90 168.109 240.924)" fill="#A1A1A1"/>
<rect x="132.453" y="134.305" width="5.07691" height="5.09434" transform="rotate(90 132.453 134.305)" fill="#A1A1A1"/>
<rect x="132.453" y="240.924" width="5.07691" height="5.09434" transform="rotate(90 132.453 240.924)" fill="#A1A1A1"/>
<rect x="203.773" y="134.305" width="5.07691" height="5.09434" transform="rotate(90 203.773 134.305)" fill="#A1A1A1"/>
<rect x="203.773" y="240.924" width="5.07691" height="5.09434" transform="rotate(90 203.773 240.924)" fill="#A1A1A1"/>
<rect x="101.891" y="124.152" width="5.07691" height="5.09434" transform="rotate(90 101.891 124.152)" fill="#A1A1A1"/>
<rect x="101.891" y="230.771" width="5.07691" height="5.09434" transform="rotate(90 101.891 230.771)" fill="#A1A1A1"/>
<rect x="66.2266" y="124.152" width="5.07691" height="5.09434" transform="rotate(90 66.2266 124.152)" fill="#A1A1A1"/>
<rect x="66.2266" y="230.771" width="5.07691" height="5.09434" transform="rotate(90 66.2266 230.771)" fill="#A1A1A1"/>
<rect x="173.211" y="124.152" width="5.07691" height="5.09434" transform="rotate(90 173.211 124.152)" fill="#A1A1A1"/>
<rect x="173.211" y="230.771" width="5.07691" height="5.09434" transform="rotate(90 173.211 230.771)" fill="#A1A1A1"/>
<rect x="137.547" y="124.152" width="5.07691" height="5.09434" transform="rotate(90 137.547 124.152)" fill="#A1A1A1"/>
<rect x="137.547" y="230.771" width="5.07691" height="5.09434" transform="rotate(90 137.547 230.771)" fill="#A1A1A1"/>
<rect x="208.867" y="124.152" width="5.07691" height="5.09434" transform="rotate(90 208.867 124.152)" fill="#A1A1A1"/>
<rect x="208.867" y="230.771" width="5.07691" height="5.09434" transform="rotate(90 208.867 230.771)" fill="#A1A1A1"/>
<rect x="101.891" y="119.076" width="5.07691" height="5.09434" transform="rotate(90 101.891 119.076)" fill="#A1A1A1"/>
<rect x="101.891" y="225.695" width="5.07691" height="5.09434" transform="rotate(90 101.891 225.695)" fill="#A1A1A1"/>
<rect x="66.2266" y="119.076" width="5.07691" height="5.09434" transform="rotate(90 66.2266 119.076)" fill="#A1A1A1"/>
<rect x="66.2266" y="225.695" width="5.07691" height="5.09434" transform="rotate(90 66.2266 225.695)" fill="#A1A1A1"/>
<rect x="173.211" y="119.076" width="5.07691" height="5.09434" transform="rotate(90 173.211 119.076)" fill="#A1A1A1"/>
<rect x="173.211" y="225.695" width="5.07691" height="5.09434" transform="rotate(90 173.211 225.695)" fill="#A1A1A1"/>
<rect x="137.547" y="119.076" width="5.07691" height="5.09434" transform="rotate(90 137.547 119.076)" fill="#A1A1A1"/>
<rect x="137.547" y="225.695" width="5.07691" height="5.09434" transform="rotate(90 137.547 225.695)" fill="#A1A1A1"/>
<rect x="208.867" y="119.076" width="5.07691" height="5.09434" transform="rotate(90 208.867 119.076)" fill="#A1A1A1"/>
<rect x="208.867" y="225.695" width="5.07691" height="5.09434" transform="rotate(90 208.867 225.695)" fill="#A1A1A1"/>
<rect x="101.891" y="129.229" width="5.07691" height="5.09434" transform="rotate(90 101.891 129.229)" fill="#A1A1A1"/>
<rect x="101.891" y="235.848" width="5.07691" height="5.09434" transform="rotate(90 101.891 235.848)" fill="#A1A1A1"/>
<rect x="66.2266" y="129.229" width="5.07691" height="5.09434" transform="rotate(90 66.2266 129.229)" fill="#A1A1A1"/>
<rect x="66.2266" y="235.848" width="5.07691" height="5.09434" transform="rotate(90 66.2266 235.848)" fill="#A1A1A1"/>
<rect x="173.211" y="129.229" width="5.07691" height="5.09434" transform="rotate(90 173.211 129.229)" fill="#A1A1A1"/>
<rect x="173.211" y="235.848" width="5.07691" height="5.09434" transform="rotate(90 173.211 235.848)" fill="#A1A1A1"/>
<rect x="137.547" y="129.229" width="5.07691" height="5.09434" transform="rotate(90 137.547 129.229)" fill="#A1A1A1"/>
<rect x="137.547" y="235.848" width="5.07691" height="5.09434" transform="rotate(90 137.547 235.848)" fill="#A1A1A1"/>
<rect x="208.867" y="129.229" width="5.07691" height="5.09434" transform="rotate(90 208.867 129.229)" fill="#A1A1A1"/>
<rect x="208.867" y="235.848" width="5.07691" height="5.09434" transform="rotate(90 208.867 235.848)" fill="#A1A1A1"/>
<rect x="101.891" y="134.305" width="5.07691" height="5.09434" transform="rotate(90 101.891 134.305)" fill="#A1A1A1"/>
<rect x="101.891" y="240.924" width="5.07691" height="5.09434" transform="rotate(90 101.891 240.924)" fill="#A1A1A1"/>
<rect x="66.2266" y="134.305" width="5.07691" height="5.09434" transform="rotate(90 66.2266 134.305)" fill="#A1A1A1"/>
<rect x="66.2266" y="240.924" width="5.07691" height="5.09434" transform="rotate(90 66.2266 240.924)" fill="#A1A1A1"/>
<rect x="173.211" y="134.305" width="5.07691" height="5.09434" transform="rotate(90 173.211 134.305)" fill="#A1A1A1"/>
<rect x="173.211" y="240.924" width="5.07691" height="5.09434" transform="rotate(90 173.211 240.924)" fill="#A1A1A1"/>
<rect x="137.547" y="134.305" width="5.07691" height="5.09434" transform="rotate(90 137.547 134.305)" fill="#A1A1A1"/>
<rect x="137.547" y="240.924" width="5.07691" height="5.09434" transform="rotate(90 137.547 240.924)" fill="#A1A1A1"/>
<rect x="208.867" y="134.305" width="5.07691" height="5.09434" transform="rotate(90 208.867 134.305)" fill="#A1A1A1"/>
<rect x="208.867" y="240.924" width="5.07691" height="5.09434" transform="rotate(90 208.867 240.924)" fill="#A1A1A1"/>
<rect x="213.961" y="83.541" width="5.07691" height="5.09434" transform="rotate(-90 213.961 83.541)" fill="#A1A1A1"/>
<rect x="178.305" y="83.541" width="5.07691" height="5.09434" transform="rotate(-90 178.305 83.541)" fill="#A1A1A1"/>
<rect x="142.641" y="83.541" width="5.07691" height="5.09434" transform="rotate(-90 142.641 83.541)" fill="#A1A1A1"/>
<rect x="106.984" y="83.541" width="5.07691" height="5.09434" transform="rotate(-90 106.984 83.541)" fill="#A1A1A1"/>
<rect x="71.3203" y="83.541" width="5.07691" height="5.09434" transform="rotate(-90 71.3203 83.541)" fill="#A1A1A1"/>
<rect x="213.961" y="190.152" width="5.07691" height="5.09434" transform="rotate(-90 213.961 190.152)" fill="#A1A1A1"/>
<rect x="178.305" y="190.152" width="5.07691" height="5.09434" transform="rotate(-90 178.305 190.152)" fill="#A1A1A1"/>
<rect x="71.3203" y="190.152" width="5.07691" height="5.09434" transform="rotate(-90 71.3203 190.152)" fill="#A1A1A1"/>
<rect x="35.6641" y="190.152" width="5.07691" height="5.09434" transform="rotate(-90 35.6641 190.152)" fill="#A1A1A1"/>
<rect x="219.055" y="78.459" width="5.07691" height="5.09434" transform="rotate(-90 219.055 78.459)" fill="#A1A1A1"/>
<rect x="183.398" y="78.459" width="5.07691" height="5.09434" transform="rotate(-90 183.398 78.459)" fill="#A1A1A1"/>
<rect x="147.734" y="78.459" width="5.07691" height="5.09434" transform="rotate(-90 147.734 78.459)" fill="#A1A1A1"/>
<rect x="112.078" y="78.459" width="5.07691" height="5.09434" transform="rotate(-90 112.078 78.459)" fill="#A1A1A1"/>
<rect x="76.4141" y="78.459" width="5.07691" height="5.09434" transform="rotate(-90 76.4141 78.459)" fill="#A1A1A1"/>
<rect x="219.055" y="185.076" width="5.07691" height="5.09434" transform="rotate(-90 219.055 185.076)" fill="#A1A1A1"/>
<rect x="183.398" y="185.076" width="5.07691" height="5.09434" transform="rotate(-90 183.398 185.076)" fill="#A1A1A1"/>
<rect x="76.4141" y="185.076" width="5.07691" height="5.09434" transform="rotate(-90 76.4141 185.076)" fill="#A1A1A1"/>
<rect x="40.7578" y="185.076" width="5.07691" height="5.09434" transform="rotate(-90 40.7578 185.076)" fill="#A1A1A1"/>
<rect x="224.148" y="73.3809" width="5.07691" height="5.09434" transform="rotate(-90 224.148 73.3809)" fill="#A1A1A1"/>
<rect x="188.492" y="73.3809" width="5.07691" height="5.09434" transform="rotate(-90 188.492 73.3809)" fill="#A1A1A1"/>
<rect x="152.828" y="73.3809" width="5.07691" height="5.09434" transform="rotate(-90 152.828 73.3809)" fill="#A1A1A1"/>
<rect x="117.172" y="73.3809" width="5.07691" height="5.09434" transform="rotate(-90 117.172 73.3809)" fill="#A1A1A1"/>
<rect x="81.5078" y="73.3809" width="5.07691" height="5.09434" transform="rotate(-90 81.5078 73.3809)" fill="#A1A1A1"/>
<rect x="224.148" y="180" width="5.07691" height="5.09434" transform="rotate(-90 224.148 180)" fill="#A1A1A1"/>
<rect x="188.492" y="180" width="5.07691" height="5.09434" transform="rotate(-90 188.492 180)" fill="#A1A1A1"/>
<rect x="81.5078" y="180" width="5.07691" height="5.09434" transform="rotate(-90 81.5078 180)" fill="#A1A1A1"/>
<rect x="45.8516" y="180" width="5.07691" height="5.09434" transform="rotate(-90 45.8516 180)" fill="#A1A1A1"/>
<rect x="229.242" y="68.3047" width="5.07691" height="5.09434" transform="rotate(-90 229.242 68.3047)" fill="#A1A1A1"/>
<rect x="193.586" y="68.3047" width="5.07691" height="5.09434" transform="rotate(-90 193.586 68.3047)" fill="#A1A1A1"/>
<rect x="157.922" y="68.3047" width="5.07691" height="5.09434" transform="rotate(-90 157.922 68.3047)" fill="#A1A1A1"/>
<rect x="122.266" y="68.3047" width="5.07691" height="5.09434" transform="rotate(-90 122.266 68.3047)" fill="#A1A1A1"/>
<rect x="86.6016" y="68.3047" width="5.07691" height="5.09434" transform="rotate(-90 86.6016 68.3047)" fill="#A1A1A1"/>
<rect x="229.242" y="174.924" width="5.07691" height="5.09434" transform="rotate(-90 229.242 174.924)" fill="#A1A1A1"/>
<rect x="193.586" y="174.924" width="5.07691" height="5.09434" transform="rotate(-90 193.586 174.924)" fill="#A1A1A1"/>
<rect x="86.6016" y="174.924" width="5.07691" height="5.09434" transform="rotate(-90 86.6016 174.924)" fill="#A1A1A1"/>
<rect x="50.9453" y="174.924" width="5.07691" height="5.09434" transform="rotate(-90 50.9453 174.924)" fill="#A1A1A1"/>
<rect x="213.961" y="68.3047" width="5.07691" height="5.09434" transform="rotate(-90 213.961 68.3047)" fill="#A1A1A1"/>
<rect x="178.305" y="68.3047" width="5.07691" height="5.09434" transform="rotate(-90 178.305 68.3047)" fill="#A1A1A1"/>
<rect x="142.641" y="68.3047" width="5.07691" height="5.09434" transform="rotate(-90 142.641 68.3047)" fill="#A1A1A1"/>
<rect x="106.984" y="68.3047" width="5.07691" height="5.09434" transform="rotate(-90 106.984 68.3047)" fill="#A1A1A1"/>
<rect x="71.3203" y="68.3047" width="5.07691" height="5.09434" transform="rotate(-90 71.3203 68.3047)" fill="#A1A1A1"/>
<rect x="213.961" y="174.924" width="5.07691" height="5.09434" transform="rotate(-90 213.961 174.924)" fill="#A1A1A1"/>
<rect x="178.305" y="174.924" width="5.07691" height="5.09434" transform="rotate(-90 178.305 174.924)" fill="#A1A1A1"/>
<rect x="71.3203" y="174.924" width="5.07691" height="5.09434" transform="rotate(-90 71.3203 174.924)" fill="#A1A1A1"/>
<rect x="35.6641" y="174.924" width="5.07691" height="5.09434" transform="rotate(-90 35.6641 174.924)" fill="#A1A1A1"/>
<rect x="219.055" y="73.3809" width="5.07691" height="5.09434" transform="rotate(-90 219.055 73.3809)" fill="#A1A1A1"/>
<rect x="183.398" y="73.3809" width="5.07691" height="5.09434" transform="rotate(-90 183.398 73.3809)" fill="#A1A1A1"/>
<rect x="147.734" y="73.3809" width="5.07691" height="5.09434" transform="rotate(-90 147.734 73.3809)" fill="#A1A1A1"/>
<rect x="112.078" y="73.3809" width="5.07691" height="5.09434" transform="rotate(-90 112.078 73.3809)" fill="#A1A1A1"/>
<rect x="76.4141" y="73.3809" width="5.07691" height="5.09434" transform="rotate(-90 76.4141 73.3809)" fill="#A1A1A1"/>
<rect x="219.055" y="180" width="5.07691" height="5.09434" transform="rotate(-90 219.055 180)" fill="#A1A1A1"/>
<rect x="183.398" y="180" width="5.07691" height="5.09434" transform="rotate(-90 183.398 180)" fill="#A1A1A1"/>
<rect x="76.4141" y="180" width="5.07691" height="5.09434" transform="rotate(-90 76.4141 180)" fill="#A1A1A1"/>
<rect x="40.7578" y="180" width="5.07691" height="5.09434" transform="rotate(-90 40.7578 180)" fill="#A1A1A1"/>
<rect x="224.148" y="78.459" width="5.07691" height="5.09434" transform="rotate(-90 224.148 78.459)" fill="#A1A1A1"/>
<rect x="188.492" y="78.459" width="5.07691" height="5.09434" transform="rotate(-90 188.492 78.459)" fill="#A1A1A1"/>
<rect x="152.828" y="78.459" width="5.07691" height="5.09434" transform="rotate(-90 152.828 78.459)" fill="#A1A1A1"/>
<rect x="117.172" y="78.459" width="5.07691" height="5.09434" transform="rotate(-90 117.172 78.459)" fill="#A1A1A1"/>
<rect x="81.5078" y="78.459" width="5.07691" height="5.09434" transform="rotate(-90 81.5078 78.459)" fill="#A1A1A1"/>
<rect x="224.148" y="185.076" width="5.07691" height="5.09434" transform="rotate(-90 224.148 185.076)" fill="#A1A1A1"/>
<rect x="188.492" y="185.076" width="5.07691" height="5.09434" transform="rotate(-90 188.492 185.076)" fill="#A1A1A1"/>
<rect x="81.5078" y="185.076" width="5.07691" height="5.09434" transform="rotate(-90 81.5078 185.076)" fill="#A1A1A1"/>
<rect x="45.8516" y="185.076" width="5.07691" height="5.09434" transform="rotate(-90 45.8516 185.076)" fill="#A1A1A1"/>
<rect x="229.242" y="83.541" width="5.07691" height="5.09434" transform="rotate(-90 229.242 83.541)" fill="#A1A1A1"/>
<rect x="193.586" y="83.541" width="5.07691" height="5.09434" transform="rotate(-90 193.586 83.541)" fill="#A1A1A1"/>
<rect x="157.922" y="83.541" width="5.07691" height="5.09434" transform="rotate(-90 157.922 83.541)" fill="#A1A1A1"/>
<rect x="122.266" y="83.541" width="5.07691" height="5.09434" transform="rotate(-90 122.266 83.541)" fill="#A1A1A1"/>
<rect x="86.6016" y="83.541" width="5.07691" height="5.09434" transform="rotate(-90 86.6016 83.541)" fill="#A1A1A1"/>
<rect x="229.242" y="190.152" width="5.07691" height="5.09434" transform="rotate(-90 229.242 190.152)" fill="#A1A1A1"/>
<rect x="193.586" y="190.152" width="5.07691" height="5.09434" transform="rotate(-90 193.586 190.152)" fill="#A1A1A1"/>
<rect x="86.6016" y="190.152" width="5.07691" height="5.09434" transform="rotate(-90 86.6016 190.152)" fill="#A1A1A1"/>
<rect x="50.9453" y="190.152" width="5.07691" height="5.09434" transform="rotate(-90 50.9453 190.152)" fill="#A1A1A1"/>
</g>
<circle cx="135" cy="180" r="12" fill="#FFFB00"/>
<circle cx="31" cy="306" r="12" fill="white"/>
</svg>
