<svg width="272" height="272" viewBox="0 0 272 272" fill="none" xmlns="http://www.w3.org/2000/svg">
<rect x="34.7227" y="34.7227" width="5.78722" height="5.78723" fill="#A1A1A1"/>
<rect x="34.7227" y="23.1484" width="5.78722" height="5.78723" fill="#A1A1A1"/>
<rect x="34.7227" width="5.78722" height="5.78723" fill="#A1A1A1"/>
<rect x="5.78516" width="5.78722" height="5.78723" fill="#A1A1A1"/>
<rect x="34.7227" y="243.063" width="5.78722" height="5.78723" fill="#A1A1A1"/>
<rect x="52.0859" y="266.212" width="5.78722" height="5.78723" fill="#A1A1A1"/>
<rect x="17.3633" y="266.212" width="5.78722" height="5.78723" fill="#A1A1A1"/>
<rect x="28.9336" y="266.212" width="5.78722" height="5.78723" fill="#A1A1A1"/>
<rect x="243.062" y="231.489" width="5.78723" height="5.78722" transform="rotate(-90 243.062 231.489)" fill="#A1A1A1"/>
<rect x="266.211" y="208.341" width="5.78723" height="5.78722" transform="rotate(-90 266.211 208.341)" fill="#A1A1A1"/>
<rect x="266.211" y="266.212" width="5.78723" height="5.78722" transform="rotate(-90 266.211 266.212)" fill="#A1A1A1"/>
<rect x="23.1484" y="231.489" width="5.78723" height="5.78722" transform="rotate(-90 23.1484 231.489)" fill="#A1A1A1"/>
<rect y="231.489" width="5.78723" height="5.78722" transform="rotate(-90 0 231.489)" fill="#A1A1A1"/>
<rect y="254.638" width="5.78723" height="5.78722" transform="rotate(-90 0 254.638)" fill="#A1A1A1"/>
<rect x="243.062" y="243.063" width="5.78723" height="5.78722" transform="rotate(-90 243.062 243.063)" fill="#A1A1A1"/>
<rect x="266.211" y="219.915" width="5.78723" height="5.78722" transform="rotate(-90 266.211 219.915)" fill="#A1A1A1"/>
<rect x="243.062" y="248.852" width="5.78723" height="5.78722" transform="rotate(-90 243.062 248.852)" fill="#A1A1A1"/>
<rect x="260.426" y="272" width="5.78723" height="5.78722" transform="rotate(-90 260.426 272)" fill="#A1A1A1"/>
<rect x="266.211" y="225.702" width="5.78723" height="5.78722" transform="rotate(-90 266.211 225.702)" fill="#A1A1A1"/>
<rect x="266.211" y="272" width="5.78723" height="5.78722" transform="rotate(-90 266.211 272)" fill="#A1A1A1"/>
<rect x="237.277" y="248.852" width="5.78723" height="5.78722" transform="rotate(-90 237.277 248.852)" fill="#A1A1A1"/>
<rect x="254.637" y="272" width="5.78723" height="5.78722" transform="rotate(-90 254.637 272)" fill="#A1A1A1"/>
<rect x="23.1484" y="243.063" width="5.78723" height="5.78722" transform="rotate(-90 23.1484 243.063)" fill="#A1A1A1"/>
<rect y="243.063" width="5.78723" height="5.78722" transform="rotate(-90 0 243.063)" fill="#A1A1A1"/>
<rect y="266.212" width="5.78723" height="5.78722" transform="rotate(-90 0 266.212)" fill="#A1A1A1"/>
<rect x="23.1484" y="248.852" width="5.78723" height="5.78722" transform="rotate(-90 23.1484 248.852)" fill="#A1A1A1"/>
<rect x="40.5117" y="272" width="5.78723" height="5.78722" transform="rotate(-90 40.5117 272)" fill="#A1A1A1"/>
<rect x="5.78516" y="272" width="5.78723" height="5.78722" transform="rotate(-90 5.78516 272)" fill="#A1A1A1"/>
<rect y="248.852" width="5.78723" height="5.78722" transform="rotate(-90 0 248.852)" fill="#A1A1A1"/>
<rect y="272" width="5.78723" height="5.78722" transform="rotate(-90 0 272)" fill="#A1A1A1"/>
<rect x="28.9336" y="248.852" width="5.78723" height="5.78722" transform="rotate(-90 28.9336 248.852)" fill="#A1A1A1"/>
<rect x="46.2969" y="272" width="5.78723" height="5.78722" transform="rotate(-90 46.2969 272)" fill="#A1A1A1"/>
<rect x="11.5742" y="272" width="5.78723" height="5.78722" transform="rotate(-90 11.5742 272)" fill="#A1A1A1"/>
<rect x="115.746" y="23.1484" width="5.78722" height="5.78723" fill="#A1A1A1"/>
<rect x="115.746" width="5.78722" height="5.78723" fill="#A1A1A1"/>
<rect x="115.746" y="243.063" width="5.78722" height="5.78723" fill="#A1A1A1"/>
<rect x="133.105" y="266.212" width="5.78722" height="5.78723" fill="#A1A1A1"/>
<rect x="243.062" y="150.468" width="5.78723" height="5.78722" transform="rotate(-90 243.062 150.468)" fill="#A1A1A1"/>
<rect x="266.211" y="127.319" width="5.78723" height="5.78722" transform="rotate(-90 266.211 127.319)" fill="#A1A1A1"/>
<rect x="23.1484" y="150.468" width="5.78723" height="5.78722" transform="rotate(-90 23.1484 150.468)" fill="#A1A1A1"/>
<rect y="150.468" width="5.78723" height="5.78722" transform="rotate(-90 0 150.468)" fill="#A1A1A1"/>
<rect x="75.2344" y="23.1484" width="5.78722" height="5.78723" fill="#A1A1A1"/>
<rect x="75.2344" width="5.78722" height="5.78723" fill="#A1A1A1"/>
<rect x="75.2344" y="243.063" width="5.78722" height="5.78723" fill="#A1A1A1"/>
<rect x="92.5938" y="266.212" width="5.78722" height="5.78723" fill="#A1A1A1"/>
<rect x="243.062" y="190.979" width="5.78723" height="5.78722" transform="rotate(-90 243.062 190.979)" fill="#A1A1A1"/>
<rect x="266.211" y="167.83" width="5.78723" height="5.78722" transform="rotate(-90 266.211 167.83)" fill="#A1A1A1"/>
<rect x="23.1484" y="190.979" width="5.78723" height="5.78722" transform="rotate(-90 23.1484 190.979)" fill="#A1A1A1"/>
<rect y="190.979" width="5.78723" height="5.78722" transform="rotate(-90 0 190.979)" fill="#A1A1A1"/>
<rect x="156.254" y="23.1484" width="5.78722" height="5.78723" fill="#A1A1A1"/>
<rect x="156.254" width="5.78722" height="5.78723" fill="#A1A1A1"/>
<rect x="156.254" y="243.063" width="5.78722" height="5.78723" fill="#A1A1A1"/>
<rect x="173.617" y="266.212" width="5.78722" height="5.78723" fill="#A1A1A1"/>
<rect x="243.062" y="109.958" width="5.78723" height="5.78722" transform="rotate(-90 243.062 109.958)" fill="#A1A1A1"/>
<rect x="266.211" y="86.8086" width="5.78723" height="5.78722" transform="rotate(-90 266.211 86.8086)" fill="#A1A1A1"/>
<rect x="23.1484" y="109.958" width="5.78723" height="5.78722" transform="rotate(-90 23.1484 109.958)" fill="#A1A1A1"/>
<rect y="109.958" width="5.78723" height="5.78722" transform="rotate(-90 0 109.958)" fill="#A1A1A1"/>
<rect x="196.766" y="23.1484" width="5.78722" height="5.78723" fill="#A1A1A1"/>
<rect x="196.766" width="5.78722" height="5.78723" fill="#A1A1A1"/>
<rect x="196.766" y="243.063" width="5.78722" height="5.78723" fill="#A1A1A1"/>
<rect x="214.125" y="266.212" width="5.78722" height="5.78723" fill="#A1A1A1"/>
<rect x="243.062" y="69.4473" width="5.78723" height="5.78722" transform="rotate(-90 243.062 69.4473)" fill="#A1A1A1"/>
<rect x="266.211" y="46.2979" width="5.78723" height="5.78722" transform="rotate(-90 266.211 46.2979)" fill="#A1A1A1"/>
<rect x="23.1484" y="69.4473" width="5.78723" height="5.78722" transform="rotate(-90 23.1484 69.4473)" fill="#A1A1A1"/>
<rect y="69.4473" width="5.78723" height="5.78722" transform="rotate(-90 0 69.4473)" fill="#A1A1A1"/>
<rect x="34.7227" y="115.744" width="5.78722" height="5.78723" fill="#A1A1A1"/>
<rect x="34.7227" y="196.767" width="5.78722" height="5.78723" fill="#A1A1A1"/>
<rect x="115.746" y="34.7227" width="5.78722" height="5.78723" fill="#A1A1A1"/>
<rect x="115.746" y="115.744" width="5.78722" height="5.78723" fill="#A1A1A1"/>
<rect x="115.746" y="196.767" width="5.78722" height="5.78723" fill="#A1A1A1"/>
<rect x="75.2344" y="75.2334" width="5.78722" height="5.78723" fill="#A1A1A1"/>
<rect x="75.2344" y="156.256" width="5.78722" height="5.78723" fill="#A1A1A1"/>
<rect x="196.766" y="34.7227" width="5.78722" height="5.78723" fill="#A1A1A1"/>
<rect x="196.766" y="115.744" width="5.78722" height="5.78723" fill="#A1A1A1"/>
<rect x="196.766" y="196.767" width="5.78722" height="5.78723" fill="#A1A1A1"/>
<rect x="156.254" y="75.2334" width="5.78722" height="5.78723" fill="#A1A1A1"/>
<rect x="156.254" y="156.256" width="5.78722" height="5.78723" fill="#A1A1A1"/>
<rect x="34.7227" y="52.085" width="5.78722" height="5.78723" fill="#A1A1A1"/>
<rect x="34.7227" y="133.106" width="5.78722" height="5.78723" fill="#A1A1A1"/>
<rect x="34.7227" y="214.127" width="5.78722" height="5.78723" fill="#A1A1A1"/>
<rect x="115.746" y="52.085" width="5.78722" height="5.78723" fill="#A1A1A1"/>
<rect x="115.746" y="133.106" width="5.78722" height="5.78723" fill="#A1A1A1"/>
<rect x="115.746" y="214.127" width="5.78722" height="5.78723" fill="#A1A1A1"/>
<rect x="75.2344" y="92.5957" width="5.78722" height="5.78723" fill="#A1A1A1"/>
<rect x="75.2344" y="173.617" width="5.78722" height="5.78723" fill="#A1A1A1"/>
<rect x="196.766" y="52.085" width="5.78722" height="5.78723" fill="#A1A1A1"/>
<rect x="196.766" y="133.106" width="5.78722" height="5.78723" fill="#A1A1A1"/>
<rect x="196.766" y="214.127" width="5.78722" height="5.78723" fill="#A1A1A1"/>
<rect x="156.254" y="92.5957" width="5.78722" height="5.78723" fill="#A1A1A1"/>
<rect x="156.254" y="173.617" width="5.78722" height="5.78723" fill="#A1A1A1"/>
<rect x="34.7227" y="46.2979" width="5.78722" height="5.78723" fill="#A1A1A1"/>
<rect x="34.7227" y="127.319" width="5.78722" height="5.78723" fill="#A1A1A1"/>
<rect x="34.7227" y="208.341" width="5.78722" height="5.78723" fill="#A1A1A1"/>
<rect x="115.746" y="46.2979" width="5.78722" height="5.78723" fill="#A1A1A1"/>
<rect x="115.746" y="127.319" width="5.78722" height="5.78723" fill="#A1A1A1"/>
<rect x="115.746" y="208.341" width="5.78722" height="5.78723" fill="#A1A1A1"/>
<rect x="75.2344" y="86.8086" width="5.78722" height="5.78723" fill="#A1A1A1"/>
<rect x="75.2344" y="167.83" width="5.78722" height="5.78723" fill="#A1A1A1"/>
<rect x="196.766" y="46.2979" width="5.78722" height="5.78723" fill="#A1A1A1"/>
<rect x="196.766" y="127.319" width="5.78722" height="5.78723" fill="#A1A1A1"/>
<rect x="196.766" y="208.341" width="5.78722" height="5.78723" fill="#A1A1A1"/>
<rect x="156.254" y="86.8086" width="5.78722" height="5.78723" fill="#A1A1A1"/>
<rect x="156.254" y="167.83" width="5.78722" height="5.78723" fill="#A1A1A1"/>
<rect x="34.7227" y="63.6592" width="5.78722" height="5.78723" fill="#A1A1A1"/>
<rect x="34.7227" y="144.681" width="5.78722" height="5.78723" fill="#A1A1A1"/>
<rect x="34.7227" y="225.702" width="5.78722" height="5.78723" fill="#A1A1A1"/>
<rect x="115.746" y="63.6592" width="5.78722" height="5.78723" fill="#A1A1A1"/>
<rect x="115.746" y="144.681" width="5.78722" height="5.78723" fill="#A1A1A1"/>
<rect x="115.746" y="225.702" width="5.78722" height="5.78723" fill="#A1A1A1"/>
<rect x="75.2344" y="104.17" width="5.78722" height="5.78723" fill="#A1A1A1"/>
<rect x="75.2344" y="185.191" width="5.78722" height="5.78723" fill="#A1A1A1"/>
<rect x="196.766" y="63.6592" width="5.78722" height="5.78723" fill="#A1A1A1"/>
<rect x="196.766" y="144.681" width="5.78722" height="5.78723" fill="#A1A1A1"/>
<rect x="196.766" y="225.702" width="5.78722" height="5.78723" fill="#A1A1A1"/>
<rect x="156.254" y="104.17" width="5.78722" height="5.78723" fill="#A1A1A1"/>
<rect x="156.254" y="185.191" width="5.78722" height="5.78723" fill="#A1A1A1"/>
<rect x="34.7227" y="69.4473" width="5.78722" height="5.78723" fill="#A1A1A1"/>
<rect x="34.7227" y="150.468" width="5.78722" height="5.78723" fill="#A1A1A1"/>
<rect x="34.7227" y="231.489" width="5.78722" height="5.78723" fill="#A1A1A1"/>
<rect x="115.746" y="69.4473" width="5.78722" height="5.78723" fill="#A1A1A1"/>
<rect x="115.746" y="150.468" width="5.78722" height="5.78723" fill="#A1A1A1"/>
<rect x="115.746" y="231.489" width="5.78722" height="5.78723" fill="#A1A1A1"/>
<rect x="75.2344" y="109.958" width="5.78722" height="5.78723" fill="#A1A1A1"/>
<rect x="75.2344" y="190.979" width="5.78722" height="5.78723" fill="#A1A1A1"/>
<rect x="196.766" y="69.4473" width="5.78722" height="5.78723" fill="#A1A1A1"/>
<rect x="196.766" y="150.468" width="5.78722" height="5.78723" fill="#A1A1A1"/>
<rect x="196.766" y="231.489" width="5.78722" height="5.78723" fill="#A1A1A1"/>
<rect x="156.254" y="109.958" width="5.78722" height="5.78723" fill="#A1A1A1"/>
<rect x="156.254" y="190.979" width="5.78722" height="5.78723" fill="#A1A1A1"/>
<rect x="34.7227" y="40.5107" width="5.78722" height="5.78723" fill="#A1A1A1"/>
<rect x="34.7227" y="121.532" width="5.78722" height="5.78723" fill="#A1A1A1"/>
<rect x="34.7227" y="202.553" width="5.78722" height="5.78723" fill="#A1A1A1"/>
<rect x="115.746" y="40.5107" width="5.78722" height="5.78723" fill="#A1A1A1"/>
<rect x="115.746" y="121.532" width="5.78722" height="5.78723" fill="#A1A1A1"/>
<rect x="115.746" y="202.553" width="5.78722" height="5.78723" fill="#A1A1A1"/>
<rect x="75.2344" y="81.0215" width="5.78722" height="5.78723" fill="#A1A1A1"/>
<rect x="75.2344" y="162.042" width="5.78722" height="5.78723" fill="#A1A1A1"/>
<rect x="196.766" y="40.5107" width="5.78722" height="5.78723" fill="#A1A1A1"/>
<rect x="196.766" y="121.532" width="5.78722" height="5.78723" fill="#A1A1A1"/>
<rect x="196.766" y="202.553" width="5.78722" height="5.78723" fill="#A1A1A1"/>
<rect x="156.254" y="81.0215" width="5.78722" height="5.78723" fill="#A1A1A1"/>
<rect x="156.254" y="162.042" width="5.78722" height="5.78723" fill="#A1A1A1"/>
<rect x="34.7227" y="57.873" width="5.78722" height="5.78723" fill="#A1A1A1"/>
<rect x="34.7227" y="138.894" width="5.78722" height="5.78723" fill="#A1A1A1"/>
<rect x="34.7227" y="219.915" width="5.78722" height="5.78723" fill="#A1A1A1"/>
<rect x="115.746" y="57.873" width="5.78722" height="5.78723" fill="#A1A1A1"/>
<rect x="115.746" y="138.894" width="5.78722" height="5.78723" fill="#A1A1A1"/>
<rect x="115.746" y="219.915" width="5.78722" height="5.78723" fill="#A1A1A1"/>
<rect x="75.2344" y="98.3828" width="5.78722" height="5.78723" fill="#A1A1A1"/>
<rect x="75.2344" y="179.404" width="5.78722" height="5.78723" fill="#A1A1A1"/>
<rect x="196.766" y="57.873" width="5.78722" height="5.78723" fill="#A1A1A1"/>
<rect x="196.766" y="138.894" width="5.78722" height="5.78723" fill="#A1A1A1"/>
<rect x="196.766" y="219.915" width="5.78722" height="5.78723" fill="#A1A1A1"/>
<rect x="156.254" y="98.3828" width="5.78722" height="5.78723" fill="#A1A1A1"/>
<rect x="156.254" y="179.404" width="5.78722" height="5.78723" fill="#A1A1A1"/>
<rect x="40.5117" y="34.7227" width="5.78722" height="5.78723" fill="#A1A1A1"/>
<rect x="40.5117" y="23.1484" width="5.78722" height="5.78723" fill="#A1A1A1"/>
<rect x="40.5117" width="5.78722" height="5.78723" fill="#A1A1A1"/>
<rect x="11.5742" width="5.78722" height="5.78723" fill="#A1A1A1"/>
<rect x="17.3633" width="5.78722" height="5.78723" fill="#A1A1A1"/>
<rect x="40.5117" y="243.063" width="5.78722" height="5.78723" fill="#A1A1A1"/>
<rect x="57.8711" y="266.212" width="5.78722" height="5.78723" fill="#A1A1A1"/>
<rect x="23.1484" y="266.212" width="5.78722" height="5.78723" fill="#A1A1A1"/>
<rect x="34.7227" y="266.212" width="5.78722" height="5.78723" fill="#A1A1A1"/>
<rect x="243.062" y="225.702" width="5.78723" height="5.78722" transform="rotate(-90 243.062 225.702)" fill="#A1A1A1"/>
<rect x="266.211" y="202.553" width="5.78723" height="5.78722" transform="rotate(-90 266.211 202.553)" fill="#A1A1A1"/>
<rect x="266.211" y="260.426" width="5.78723" height="5.78722" transform="rotate(-90 266.211 260.426)" fill="#A1A1A1"/>
<rect x="23.1484" y="225.702" width="5.78723" height="5.78722" transform="rotate(-90 23.1484 225.702)" fill="#A1A1A1"/>
<rect y="225.702" width="5.78723" height="5.78722" transform="rotate(-90 0 225.702)" fill="#A1A1A1"/>
<rect x="243.062" y="237.277" width="5.78723" height="5.78722" transform="rotate(-90 243.062 237.277)" fill="#A1A1A1"/>
<rect x="266.211" y="214.127" width="5.78723" height="5.78722" transform="rotate(-90 266.211 214.127)" fill="#A1A1A1"/>
<rect x="23.1484" y="237.277" width="5.78723" height="5.78722" transform="rotate(-90 23.1484 237.277)" fill="#A1A1A1"/>
<rect y="237.277" width="5.78723" height="5.78722" transform="rotate(-90 0 237.277)" fill="#A1A1A1"/>
<rect y="260.426" width="5.78723" height="5.78722" transform="rotate(-90 0 260.426)" fill="#A1A1A1"/>
<rect x="121.531" y="23.1484" width="5.78722" height="5.78723" fill="#A1A1A1"/>
<rect x="121.531" width="5.78722" height="5.78723" fill="#A1A1A1"/>
<rect x="121.531" y="243.063" width="5.78722" height="5.78723" fill="#A1A1A1"/>
<rect x="138.895" y="266.212" width="5.78722" height="5.78723" fill="#A1A1A1"/>
<rect x="243.062" y="144.681" width="5.78723" height="5.78722" transform="rotate(-90 243.062 144.681)" fill="#A1A1A1"/>
<rect x="266.211" y="121.532" width="5.78723" height="5.78722" transform="rotate(-90 266.211 121.532)" fill="#A1A1A1"/>
<rect x="23.1484" y="144.681" width="5.78723" height="5.78722" transform="rotate(-90 23.1484 144.681)" fill="#A1A1A1"/>
<rect y="144.681" width="5.78723" height="5.78722" transform="rotate(-90 0 144.681)" fill="#A1A1A1"/>
<rect x="81.0195" y="23.1484" width="5.78722" height="5.78723" fill="#A1A1A1"/>
<rect x="81.0195" width="5.78722" height="5.78723" fill="#A1A1A1"/>
<rect x="81.0195" y="243.063" width="5.78722" height="5.78723" fill="#A1A1A1"/>
<rect x="98.3828" y="266.212" width="5.78722" height="5.78723" fill="#A1A1A1"/>
<rect x="243.062" y="185.191" width="5.78723" height="5.78722" transform="rotate(-90 243.062 185.191)" fill="#A1A1A1"/>
<rect x="266.211" y="162.042" width="5.78723" height="5.78722" transform="rotate(-90 266.211 162.042)" fill="#A1A1A1"/>
<rect x="23.1484" y="185.191" width="5.78723" height="5.78722" transform="rotate(-90 23.1484 185.191)" fill="#A1A1A1"/>
<rect y="185.191" width="5.78723" height="5.78722" transform="rotate(-90 0 185.191)" fill="#A1A1A1"/>
<rect x="162.043" y="23.1484" width="5.78722" height="5.78723" fill="#A1A1A1"/>
<rect x="162.043" width="5.78722" height="5.78723" fill="#A1A1A1"/>
<rect x="162.043" y="243.063" width="5.78722" height="5.78723" fill="#A1A1A1"/>
<rect x="179.406" y="266.212" width="5.78722" height="5.78723" fill="#A1A1A1"/>
<rect x="243.062" y="104.17" width="5.78723" height="5.78722" transform="rotate(-90 243.062 104.17)" fill="#A1A1A1"/>
<rect x="266.211" y="81.0215" width="5.78723" height="5.78722" transform="rotate(-90 266.211 81.0215)" fill="#A1A1A1"/>
<rect x="23.1484" y="104.17" width="5.78723" height="5.78722" transform="rotate(-90 23.1484 104.17)" fill="#A1A1A1"/>
<rect y="104.17" width="5.78723" height="5.78722" transform="rotate(-90 0 104.17)" fill="#A1A1A1"/>
<rect x="202.555" y="23.1484" width="5.78722" height="5.78723" fill="#A1A1A1"/>
<rect x="202.555" width="5.78722" height="5.78723" fill="#A1A1A1"/>
<rect x="202.555" y="243.063" width="5.78722" height="5.78723" fill="#A1A1A1"/>
<rect x="219.914" y="266.212" width="5.78722" height="5.78723" fill="#A1A1A1"/>
<rect x="243.062" y="63.6592" width="5.78723" height="5.78722" transform="rotate(-90 243.062 63.6592)" fill="#A1A1A1"/>
<rect x="266.211" y="40.5107" width="5.78723" height="5.78722" transform="rotate(-90 266.211 40.5107)" fill="#A1A1A1"/>
<rect x="23.1484" y="63.6592" width="5.78723" height="5.78722" transform="rotate(-90 23.1484 63.6592)" fill="#A1A1A1"/>
<rect y="63.6592" width="5.78723" height="5.78722" transform="rotate(-90 0 63.6592)" fill="#A1A1A1"/>
<rect x="40.5117" y="115.744" width="5.78722" height="5.78723" fill="#A1A1A1"/>
<rect x="40.5117" y="196.767" width="5.78722" height="5.78723" fill="#A1A1A1"/>
<rect x="121.531" y="34.7227" width="5.78722" height="5.78723" fill="#A1A1A1"/>
<rect x="121.531" y="115.744" width="5.78722" height="5.78723" fill="#A1A1A1"/>
<rect x="121.531" y="196.767" width="5.78722" height="5.78723" fill="#A1A1A1"/>
<rect x="81.0195" y="75.2334" width="5.78722" height="5.78723" fill="#A1A1A1"/>
<rect x="81.0195" y="156.256" width="5.78722" height="5.78723" fill="#A1A1A1"/>
<rect x="202.555" y="34.7227" width="5.78722" height="5.78723" fill="#A1A1A1"/>
<rect x="202.555" y="115.744" width="5.78722" height="5.78723" fill="#A1A1A1"/>
<rect x="202.555" y="196.767" width="5.78722" height="5.78723" fill="#A1A1A1"/>
<rect x="162.043" y="75.2334" width="5.78722" height="5.78723" fill="#A1A1A1"/>
<rect x="162.043" y="156.256" width="5.78722" height="5.78723" fill="#A1A1A1"/>
<rect x="40.5117" y="52.085" width="5.78722" height="5.78723" fill="#A1A1A1"/>
<rect x="40.5117" y="133.106" width="5.78722" height="5.78723" fill="#A1A1A1"/>
<rect x="40.5117" y="214.127" width="5.78722" height="5.78723" fill="#A1A1A1"/>
<rect x="121.531" y="52.085" width="5.78722" height="5.78723" fill="#A1A1A1"/>
<rect x="121.531" y="214.127" width="5.78722" height="5.78723" fill="#A1A1A1"/>
<rect x="81.0195" y="92.5957" width="5.78722" height="5.78723" fill="#A1A1A1"/>
<rect x="81.0195" y="173.617" width="5.78722" height="5.78723" fill="#A1A1A1"/>
<rect x="202.555" y="52.085" width="5.78722" height="5.78723" fill="#A1A1A1"/>
<rect x="202.555" y="133.106" width="5.78722" height="5.78723" fill="#A1A1A1"/>
<rect x="202.555" y="214.127" width="5.78722" height="5.78723" fill="#A1A1A1"/>
<rect x="162.043" y="92.5957" width="5.78722" height="5.78723" fill="#A1A1A1"/>
<rect x="162.043" y="173.617" width="5.78722" height="5.78723" fill="#A1A1A1"/>
<rect x="40.5117" y="46.2979" width="5.78722" height="5.78723" fill="#A1A1A1"/>
<rect x="40.5117" y="127.319" width="5.78722" height="5.78723" fill="#A1A1A1"/>
<rect x="40.5117" y="208.341" width="5.78722" height="5.78723" fill="#A1A1A1"/>
<rect x="121.531" y="46.2979" width="5.78722" height="5.78723" fill="#A1A1A1"/>
<rect x="121.531" y="127.319" width="5.78722" height="5.78723" fill="#A1A1A1"/>
<rect x="121.531" y="208.341" width="5.78722" height="5.78723" fill="#A1A1A1"/>
<rect x="81.0195" y="86.8086" width="5.78722" height="5.78723" fill="#A1A1A1"/>
<rect x="81.0195" y="167.83" width="5.78722" height="5.78723" fill="#A1A1A1"/>
<rect x="202.555" y="46.2979" width="5.78722" height="5.78723" fill="#A1A1A1"/>
<rect x="202.555" y="127.319" width="5.78722" height="5.78723" fill="#A1A1A1"/>
<rect x="202.555" y="208.341" width="5.78722" height="5.78723" fill="#A1A1A1"/>
<rect x="162.043" y="86.8086" width="5.78722" height="5.78723" fill="#A1A1A1"/>
<rect x="162.043" y="167.83" width="5.78722" height="5.78723" fill="#A1A1A1"/>
<rect x="40.5117" y="63.6592" width="5.78722" height="5.78723" fill="#A1A1A1"/>
<rect x="40.5117" y="144.681" width="5.78722" height="5.78723" fill="#A1A1A1"/>
<rect x="40.5117" y="225.702" width="5.78722" height="5.78723" fill="#A1A1A1"/>
<rect x="121.531" y="63.6592" width="5.78722" height="5.78723" fill="#A1A1A1"/>
<rect x="121.531" y="225.702" width="5.78722" height="5.78723" fill="#A1A1A1"/>
<rect x="81.0195" y="104.17" width="5.78722" height="5.78723" fill="#A1A1A1"/>
<rect x="81.0195" y="185.191" width="5.78722" height="5.78723" fill="#A1A1A1"/>
<rect x="202.555" y="63.6592" width="5.78722" height="5.78723" fill="#A1A1A1"/>
<rect x="202.555" y="144.681" width="5.78722" height="5.78723" fill="#A1A1A1"/>
<rect x="202.555" y="225.702" width="5.78722" height="5.78723" fill="#A1A1A1"/>
<rect x="162.043" y="104.17" width="5.78722" height="5.78723" fill="#A1A1A1"/>
<rect x="162.043" y="185.191" width="5.78722" height="5.78723" fill="#A1A1A1"/>
<rect x="40.5117" y="69.4473" width="5.78722" height="5.78723" fill="#A1A1A1"/>
<rect x="40.5117" y="150.468" width="5.78722" height="5.78723" fill="#A1A1A1"/>
<rect x="40.5117" y="231.489" width="5.78722" height="5.78723" fill="#A1A1A1"/>
<rect x="121.531" y="69.4473" width="5.78722" height="5.78723" fill="#A1A1A1"/>
<rect x="121.531" y="150.468" width="5.78722" height="5.78723" fill="#A1A1A1"/>
<rect x="121.531" y="231.489" width="5.78722" height="5.78723" fill="#A1A1A1"/>
<rect x="81.0195" y="109.958" width="5.78722" height="5.78723" fill="#A1A1A1"/>
<rect x="81.0195" y="190.979" width="5.78722" height="5.78723" fill="#A1A1A1"/>
<rect x="202.555" y="69.4473" width="5.78722" height="5.78723" fill="#A1A1A1"/>
<rect x="202.555" y="150.468" width="5.78722" height="5.78723" fill="#A1A1A1"/>
<rect x="202.555" y="231.489" width="5.78722" height="5.78723" fill="#A1A1A1"/>
<rect x="162.043" y="109.958" width="5.78722" height="5.78723" fill="#A1A1A1"/>
<rect x="162.043" y="190.979" width="5.78722" height="5.78723" fill="#A1A1A1"/>
<rect x="40.5117" y="40.5107" width="5.78722" height="5.78723" fill="#A1A1A1"/>
<rect x="40.5117" y="121.532" width="5.78722" height="5.78723" fill="#A1A1A1"/>
<rect x="40.5117" y="202.553" width="5.78722" height="5.78723" fill="#A1A1A1"/>
<rect x="121.531" y="40.5107" width="5.78722" height="5.78723" fill="#A1A1A1"/>
<rect x="121.531" y="202.553" width="5.78722" height="5.78723" fill="#A1A1A1"/>
<rect x="81.0195" y="81.0215" width="5.78722" height="5.78723" fill="#A1A1A1"/>
<rect x="81.0195" y="162.042" width="5.78722" height="5.78723" fill="#A1A1A1"/>
<rect x="202.555" y="40.5107" width="5.78722" height="5.78723" fill="#A1A1A1"/>
<rect x="202.555" y="121.532" width="5.78722" height="5.78723" fill="#A1A1A1"/>
<rect x="202.555" y="202.553" width="5.78722" height="5.78723" fill="#A1A1A1"/>
<rect x="162.043" y="81.0215" width="5.78722" height="5.78723" fill="#A1A1A1"/>
<rect x="162.043" y="162.042" width="5.78722" height="5.78723" fill="#A1A1A1"/>
<rect x="40.5117" y="57.873" width="5.78722" height="5.78723" fill="#A1A1A1"/>
<rect x="40.5117" y="138.894" width="5.78722" height="5.78723" fill="#A1A1A1"/>
<rect x="40.5117" y="219.915" width="5.78722" height="5.78723" fill="#A1A1A1"/>
<rect x="121.531" y="57.873" width="5.78722" height="5.78723" fill="#A1A1A1"/>
<rect x="121.531" y="138.894" width="5.78722" height="5.78723" fill="#A1A1A1"/>
<rect x="121.531" y="219.915" width="5.78722" height="5.78723" fill="#A1A1A1"/>
<rect x="81.0195" y="98.3828" width="5.78722" height="5.78723" fill="#A1A1A1"/>
<rect x="81.0195" y="179.404" width="5.78722" height="5.78723" fill="#A1A1A1"/>
<rect x="202.555" y="57.873" width="5.78722" height="5.78723" fill="#A1A1A1"/>
<rect x="202.555" y="138.894" width="5.78722" height="5.78723" fill="#A1A1A1"/>
<rect x="202.555" y="219.915" width="5.78722" height="5.78723" fill="#A1A1A1"/>
<rect x="162.043" y="98.3828" width="5.78722" height="5.78723" fill="#A1A1A1"/>
<rect x="162.043" y="179.404" width="5.78722" height="5.78723" fill="#A1A1A1"/>
<rect x="46.2969" y="34.7227" width="5.78722" height="5.78723" fill="#A1A1A1"/>
<rect x="46.2969" y="23.1484" width="5.78722" height="5.78723" fill="#A1A1A1"/>
<rect x="46.2969" width="5.78722" height="5.78723" fill="#A1A1A1"/>
<rect x="46.2969" y="243.063" width="5.78722" height="5.78723" fill="#A1A1A1"/>
<rect x="63.6602" y="266.212" width="5.78722" height="5.78723" fill="#A1A1A1"/>
<rect x="243.062" y="219.915" width="5.78723" height="5.78722" transform="rotate(-90 243.062 219.915)" fill="#A1A1A1"/>
<rect x="266.211" y="196.767" width="5.78723" height="5.78722" transform="rotate(-90 266.211 196.767)" fill="#A1A1A1"/>
<rect x="266.211" y="254.638" width="5.78723" height="5.78722" transform="rotate(-90 266.211 254.638)" fill="#A1A1A1"/>
<rect x="23.1484" y="219.915" width="5.78723" height="5.78722" transform="rotate(-90 23.1484 219.915)" fill="#A1A1A1"/>
<rect y="219.915" width="5.78723" height="5.78722" transform="rotate(-90 0 219.915)" fill="#A1A1A1"/>
<rect x="127.32" y="23.1484" width="5.78722" height="5.78723" fill="#A1A1A1"/>
<rect x="127.32" width="5.78722" height="5.78723" fill="#A1A1A1"/>
<rect x="127.32" y="243.063" width="5.78722" height="5.78723" fill="#A1A1A1"/>
<rect x="144.68" y="266.212" width="5.78722" height="5.78723" fill="#A1A1A1"/>
<rect x="243.062" y="138.894" width="5.78723" height="5.78722" transform="rotate(-90 243.062 138.894)" fill="#A1A1A1"/>
<rect x="266.211" y="115.744" width="5.78723" height="5.78722" transform="rotate(-90 266.211 115.744)" fill="#A1A1A1"/>
<rect x="23.1484" y="138.894" width="5.78723" height="5.78722" transform="rotate(-90 23.1484 138.894)" fill="#A1A1A1"/>
<rect y="138.894" width="5.78723" height="5.78722" transform="rotate(-90 0 138.894)" fill="#A1A1A1"/>
<rect x="86.8086" y="23.1484" width="5.78722" height="5.78723" fill="#A1A1A1"/>
<rect x="86.8086" width="5.78722" height="5.78723" fill="#A1A1A1"/>
<rect x="86.8086" y="243.063" width="5.78722" height="5.78723" fill="#A1A1A1"/>
<rect x="104.172" y="266.212" width="5.78722" height="5.78723" fill="#A1A1A1"/>
<rect x="243.062" y="179.404" width="5.78723" height="5.78722" transform="rotate(-90 243.062 179.404)" fill="#A1A1A1"/>
<rect x="266.211" y="156.256" width="5.78723" height="5.78722" transform="rotate(-90 266.211 156.256)" fill="#A1A1A1"/>
<rect x="23.1484" y="179.404" width="5.78723" height="5.78722" transform="rotate(-90 23.1484 179.404)" fill="#A1A1A1"/>
<rect y="179.404" width="5.78723" height="5.78722" transform="rotate(-90 0 179.404)" fill="#A1A1A1"/>
<rect x="167.828" y="23.1484" width="5.78722" height="5.78723" fill="#A1A1A1"/>
<rect x="167.828" width="5.78722" height="5.78723" fill="#A1A1A1"/>
<rect x="167.828" y="243.063" width="5.78722" height="5.78723" fill="#A1A1A1"/>
<rect x="185.191" y="266.212" width="5.78722" height="5.78723" fill="#A1A1A1"/>
<rect x="243.062" y="98.3828" width="5.78723" height="5.78722" transform="rotate(-90 243.062 98.3828)" fill="#A1A1A1"/>
<rect x="266.211" y="75.2334" width="5.78723" height="5.78722" transform="rotate(-90 266.211 75.2334)" fill="#A1A1A1"/>
<rect x="23.1484" y="98.3828" width="5.78723" height="5.78722" transform="rotate(-90 23.1484 98.3828)" fill="#A1A1A1"/>
<rect y="98.3828" width="5.78723" height="5.78722" transform="rotate(-90 0 98.3828)" fill="#A1A1A1"/>
<rect x="208.34" y="23.1484" width="5.78722" height="5.78723" fill="#A1A1A1"/>
<rect x="208.34" width="5.78722" height="5.78723" fill="#A1A1A1"/>
<rect x="208.34" y="243.063" width="5.78722" height="5.78723" fill="#A1A1A1"/>
<rect x="225.703" y="266.212" width="5.78722" height="5.78723" fill="#A1A1A1"/>
<rect x="243.062" y="57.873" width="5.78723" height="5.78722" transform="rotate(-90 243.062 57.873)" fill="#A1A1A1"/>
<rect x="266.211" y="34.7227" width="5.78723" height="5.78722" transform="rotate(-90 266.211 34.7227)" fill="#A1A1A1"/>
<rect x="23.1484" y="57.873" width="5.78723" height="5.78722" transform="rotate(-90 23.1484 57.873)" fill="#A1A1A1"/>
<rect y="57.873" width="5.78723" height="5.78722" transform="rotate(-90 0 57.873)" fill="#A1A1A1"/>
<rect x="46.2969" y="115.744" width="5.78722" height="5.78723" fill="#A1A1A1"/>
<rect x="46.2969" y="196.767" width="5.78722" height="5.78723" fill="#A1A1A1"/>
<rect x="127.32" y="34.7227" width="5.78722" height="5.78723" fill="#A1A1A1"/>
<rect x="127.32" y="115.744" width="5.78722" height="5.78723" fill="#A1A1A1"/>
<rect x="127.32" y="196.767" width="5.78722" height="5.78723" fill="#A1A1A1"/>
<rect x="86.8086" y="75.2334" width="5.78722" height="5.78723" fill="#A1A1A1"/>
<rect x="86.8086" y="156.256" width="5.78722" height="5.78723" fill="#A1A1A1"/>
<rect x="208.34" y="34.7227" width="5.78722" height="5.78723" fill="#A1A1A1"/>
<rect x="208.34" y="115.744" width="5.78722" height="5.78723" fill="#A1A1A1"/>
<rect x="208.34" y="196.767" width="5.78722" height="5.78723" fill="#A1A1A1"/>
<rect x="167.828" y="75.2334" width="5.78722" height="5.78723" fill="#A1A1A1"/>
<rect x="167.828" y="156.256" width="5.78722" height="5.78723" fill="#A1A1A1"/>
<rect x="46.2969" y="52.085" width="5.78722" height="5.78723" fill="#A1A1A1"/>
<rect x="46.2969" y="133.106" width="5.78722" height="5.78723" fill="#A1A1A1"/>
<rect x="46.2969" y="214.127" width="5.78722" height="5.78723" fill="#A1A1A1"/>
<rect x="127.32" y="52.085" width="5.78722" height="5.78723" fill="#A1A1A1"/>
<rect x="127.32" y="133.106" width="5.78722" height="5.78723" fill="#A1A1A1"/>
<rect x="127.32" y="214.127" width="5.78722" height="5.78723" fill="#A1A1A1"/>
<rect x="86.8086" y="92.5957" width="5.78722" height="5.78723" fill="#A1A1A1"/>
<rect x="86.8086" y="173.617" width="5.78722" height="5.78723" fill="#A1A1A1"/>
<rect x="208.34" y="52.085" width="5.78722" height="5.78723" fill="#A1A1A1"/>
<rect x="208.34" y="133.106" width="5.78722" height="5.78723" fill="#A1A1A1"/>
<rect x="208.34" y="214.127" width="5.78722" height="5.78723" fill="#A1A1A1"/>
<rect x="167.828" y="92.5957" width="5.78722" height="5.78723" fill="#A1A1A1"/>
<rect x="167.828" y="173.617" width="5.78722" height="5.78723" fill="#A1A1A1"/>
<rect x="46.2969" y="46.2979" width="5.78722" height="5.78723" fill="#A1A1A1"/>
<rect x="46.2969" y="127.319" width="5.78722" height="5.78723" fill="#A1A1A1"/>
<rect x="46.2969" y="208.341" width="5.78722" height="5.78723" fill="#A1A1A1"/>
<rect x="127.32" y="46.2979" width="5.78722" height="5.78723" fill="#A1A1A1"/>
<rect x="127.32" y="208.341" width="5.78722" height="5.78723" fill="#A1A1A1"/>
<rect x="86.8086" y="86.8086" width="5.78722" height="5.78723" fill="#A1A1A1"/>
<rect x="86.8086" y="167.83" width="5.78722" height="5.78723" fill="#A1A1A1"/>
<rect x="208.34" y="46.2979" width="5.78722" height="5.78723" fill="#A1A1A1"/>
<rect x="208.34" y="127.319" width="5.78722" height="5.78723" fill="#A1A1A1"/>
<rect x="208.34" y="208.341" width="5.78722" height="5.78723" fill="#A1A1A1"/>
<rect x="167.828" y="86.8086" width="5.78722" height="5.78723" fill="#A1A1A1"/>
<rect x="167.828" y="167.83" width="5.78722" height="5.78723" fill="#A1A1A1"/>
<rect x="46.2969" y="63.6592" width="5.78722" height="5.78723" fill="#A1A1A1"/>
<rect x="46.2969" y="144.681" width="5.78722" height="5.78723" fill="#A1A1A1"/>
<rect x="46.2969" y="225.702" width="5.78722" height="5.78723" fill="#A1A1A1"/>
<rect x="127.32" y="63.6592" width="5.78722" height="5.78723" fill="#A1A1A1"/>
<rect x="127.32" y="144.681" width="5.78722" height="5.78723" fill="#A1A1A1"/>
<rect x="127.32" y="225.702" width="5.78722" height="5.78723" fill="#A1A1A1"/>
<rect x="86.8086" y="104.17" width="5.78722" height="5.78723" fill="#A1A1A1"/>
<rect x="86.8086" y="185.191" width="5.78722" height="5.78723" fill="#A1A1A1"/>
<rect x="208.34" y="63.6592" width="5.78722" height="5.78723" fill="#A1A1A1"/>
<rect x="208.34" y="144.681" width="5.78722" height="5.78723" fill="#A1A1A1"/>
<rect x="208.34" y="225.702" width="5.78722" height="5.78723" fill="#A1A1A1"/>
<rect x="167.828" y="104.17" width="5.78722" height="5.78723" fill="#A1A1A1"/>
<rect x="167.828" y="185.191" width="5.78722" height="5.78723" fill="#A1A1A1"/>
<rect x="46.2969" y="69.4473" width="5.78722" height="5.78723" fill="#A1A1A1"/>
<rect x="46.2969" y="150.468" width="5.78722" height="5.78723" fill="#A1A1A1"/>
<rect x="46.2969" y="231.489" width="5.78722" height="5.78723" fill="#A1A1A1"/>
<rect x="127.32" y="69.4473" width="5.78722" height="5.78723" fill="#A1A1A1"/>
<rect x="127.32" y="150.468" width="5.78722" height="5.78723" fill="#A1A1A1"/>
<rect x="127.32" y="231.489" width="5.78722" height="5.78723" fill="#A1A1A1"/>
<rect x="86.8086" y="109.958" width="5.78722" height="5.78723" fill="#A1A1A1"/>
<rect x="86.8086" y="190.979" width="5.78722" height="5.78723" fill="#A1A1A1"/>
<rect x="208.34" y="69.4473" width="5.78722" height="5.78723" fill="#A1A1A1"/>
<rect x="208.34" y="150.468" width="5.78722" height="5.78723" fill="#A1A1A1"/>
<rect x="208.34" y="231.489" width="5.78722" height="5.78723" fill="#A1A1A1"/>
<rect x="167.828" y="109.958" width="5.78722" height="5.78723" fill="#A1A1A1"/>
<rect x="167.828" y="190.979" width="5.78722" height="5.78723" fill="#A1A1A1"/>
<rect x="46.2969" y="40.5107" width="5.78722" height="5.78723" fill="#A1A1A1"/>
<rect x="46.2969" y="121.532" width="5.78722" height="5.78723" fill="#A1A1A1"/>
<rect x="46.2969" y="202.553" width="5.78722" height="5.78723" fill="#A1A1A1"/>
<rect x="127.32" y="40.5107" width="5.78722" height="5.78723" fill="#A1A1A1"/>
<rect x="127.32" y="121.532" width="5.78722" height="5.78723" fill="#A1A1A1"/>
<rect x="127.32" y="202.553" width="5.78722" height="5.78723" fill="#A1A1A1"/>
<rect x="86.8086" y="81.0215" width="5.78722" height="5.78723" fill="#A1A1A1"/>
<rect x="86.8086" y="162.042" width="5.78722" height="5.78723" fill="#A1A1A1"/>
<rect x="208.34" y="40.5107" width="5.78722" height="5.78723" fill="#A1A1A1"/>
<rect x="208.34" y="121.532" width="5.78722" height="5.78723" fill="#A1A1A1"/>
<rect x="208.34" y="202.553" width="5.78722" height="5.78723" fill="#A1A1A1"/>
<rect x="167.828" y="81.0215" width="5.78722" height="5.78723" fill="#A1A1A1"/>
<rect x="167.828" y="162.042" width="5.78722" height="5.78723" fill="#A1A1A1"/>
<rect x="46.2969" y="57.873" width="5.78722" height="5.78723" fill="#A1A1A1"/>
<rect x="46.2969" y="138.894" width="5.78722" height="5.78723" fill="#A1A1A1"/>
<rect x="46.2969" y="219.915" width="5.78722" height="5.78723" fill="#A1A1A1"/>
<rect x="127.32" y="57.873" width="5.78722" height="5.78723" fill="#A1A1A1"/>
<rect x="127.32" y="219.915" width="5.78722" height="5.78723" fill="#A1A1A1"/>
<rect x="86.8086" y="98.3828" width="5.78722" height="5.78723" fill="#A1A1A1"/>
<rect x="86.8086" y="179.404" width="5.78722" height="5.78723" fill="#A1A1A1"/>
<rect x="208.34" y="57.873" width="5.78722" height="5.78723" fill="#A1A1A1"/>
<rect x="208.34" y="138.894" width="5.78722" height="5.78723" fill="#A1A1A1"/>
<rect x="208.34" y="219.915" width="5.78722" height="5.78723" fill="#A1A1A1"/>
<rect x="167.828" y="98.3828" width="5.78722" height="5.78723" fill="#A1A1A1"/>
<rect x="167.828" y="179.404" width="5.78722" height="5.78723" fill="#A1A1A1"/>
<rect x="52.0859" y="34.7227" width="5.78722" height="5.78723" fill="#A1A1A1"/>
<rect x="52.0859" y="23.1484" width="5.78722" height="5.78723" fill="#A1A1A1"/>
<rect x="52.0859" width="5.78722" height="5.78723" fill="#A1A1A1"/>
<rect x="52.0859" y="243.063" width="5.78722" height="5.78723" fill="#A1A1A1"/>
<rect x="69.4453" y="266.212" width="5.78722" height="5.78723" fill="#A1A1A1"/>
<rect x="243.062" y="214.127" width="5.78723" height="5.78722" transform="rotate(-90 243.062 214.127)" fill="#A1A1A1"/>
<rect x="266.211" y="190.979" width="5.78723" height="5.78722" transform="rotate(-90 266.211 190.979)" fill="#A1A1A1"/>
<rect x="266.211" y="248.852" width="5.78723" height="5.78722" transform="rotate(-90 266.211 248.852)" fill="#A1A1A1"/>
<rect x="23.1484" y="214.127" width="5.78723" height="5.78722" transform="rotate(-90 23.1484 214.127)" fill="#A1A1A1"/>
<rect y="214.127" width="5.78723" height="5.78722" transform="rotate(-90 0 214.127)" fill="#A1A1A1"/>
<rect x="133.105" y="23.1484" width="5.78722" height="5.78723" fill="#A1A1A1"/>
<rect x="133.105" width="5.78722" height="5.78723" fill="#A1A1A1"/>
<rect x="133.105" y="243.063" width="5.78722" height="5.78723" fill="#A1A1A1"/>
<rect x="150.469" y="266.212" width="5.78722" height="5.78723" fill="#A1A1A1"/>
<rect x="243.062" y="133.106" width="5.78723" height="5.78722" transform="rotate(-90 243.062 133.106)" fill="#A1A1A1"/>
<rect x="266.211" y="109.958" width="5.78723" height="5.78722" transform="rotate(-90 266.211 109.958)" fill="#A1A1A1"/>
<rect x="23.1484" y="133.106" width="5.78723" height="5.78722" transform="rotate(-90 23.1484 133.106)" fill="#A1A1A1"/>
<rect y="133.106" width="5.78723" height="5.78722" transform="rotate(-90 0 133.106)" fill="#A1A1A1"/>
<rect x="92.5938" y="23.1484" width="5.78722" height="5.78723" fill="#A1A1A1"/>
<rect x="92.5938" width="5.78722" height="5.78723" fill="#A1A1A1"/>
<rect x="92.5938" y="243.063" width="5.78722" height="5.78723" fill="#A1A1A1"/>
<rect x="109.957" y="266.212" width="5.78722" height="5.78723" fill="#A1A1A1"/>
<rect x="243.062" y="173.617" width="5.78723" height="5.78722" transform="rotate(-90 243.062 173.617)" fill="#A1A1A1"/>
<rect x="266.211" y="150.468" width="5.78723" height="5.78722" transform="rotate(-90 266.211 150.468)" fill="#A1A1A1"/>
<rect x="23.1484" y="173.617" width="5.78723" height="5.78722" transform="rotate(-90 23.1484 173.617)" fill="#A1A1A1"/>
<rect y="173.617" width="5.78723" height="5.78722" transform="rotate(-90 0 173.617)" fill="#A1A1A1"/>
<rect x="173.617" y="23.1484" width="5.78722" height="5.78723" fill="#A1A1A1"/>
<rect x="173.617" width="5.78722" height="5.78723" fill="#A1A1A1"/>
<rect x="173.617" y="243.063" width="5.78722" height="5.78723" fill="#A1A1A1"/>
<rect x="190.977" y="266.212" width="5.78722" height="5.78723" fill="#A1A1A1"/>
<rect x="243.062" y="92.5957" width="5.78723" height="5.78722" transform="rotate(-90 243.062 92.5957)" fill="#A1A1A1"/>
<rect x="266.211" y="69.4473" width="5.78723" height="5.78722" transform="rotate(-90 266.211 69.4473)" fill="#A1A1A1"/>
<rect x="23.1484" y="92.5957" width="5.78723" height="5.78722" transform="rotate(-90 23.1484 92.5957)" fill="#A1A1A1"/>
<rect y="92.5957" width="5.78723" height="5.78722" transform="rotate(-90 0 92.5957)" fill="#A1A1A1"/>
<rect x="214.125" y="23.1484" width="5.78722" height="5.78723" fill="#A1A1A1"/>
<rect x="214.125" width="5.78722" height="5.78723" fill="#A1A1A1"/>
<rect x="214.125" y="243.063" width="5.78722" height="5.78723" fill="#A1A1A1"/>
<rect x="231.488" y="266.212" width="5.78722" height="5.78723" fill="#A1A1A1"/>
<rect x="243.062" y="52.085" width="5.78723" height="5.78722" transform="rotate(-90 243.062 52.085)" fill="#A1A1A1"/>
<rect x="266.211" y="28.9365" width="5.78723" height="5.78722" transform="rotate(-90 266.211 28.9365)" fill="#A1A1A1"/>
<rect x="23.1484" y="52.085" width="5.78723" height="5.78722" transform="rotate(-90 23.1484 52.085)" fill="#A1A1A1"/>
<rect y="52.085" width="5.78723" height="5.78722" transform="rotate(-90 0 52.085)" fill="#A1A1A1"/>
<rect x="52.0859" y="115.744" width="5.78722" height="5.78723" fill="#A1A1A1"/>
<rect x="52.0859" y="196.767" width="5.78722" height="5.78723" fill="#A1A1A1"/>
<rect x="133.105" y="34.7227" width="5.78722" height="5.78723" fill="#A1A1A1"/>
<rect x="133.105" y="115.744" width="5.78722" height="5.78723" fill="#A1A1A1"/>
<rect x="133.105" y="196.767" width="5.78722" height="5.78723" fill="#A1A1A1"/>
<rect x="92.5938" y="75.2334" width="5.78722" height="5.78723" fill="#A1A1A1"/>
<rect x="92.5938" y="156.256" width="5.78722" height="5.78723" fill="#A1A1A1"/>
<rect x="214.125" y="34.7227" width="5.78722" height="5.78723" fill="#A1A1A1"/>
<rect x="214.125" y="115.744" width="5.78722" height="5.78723" fill="#A1A1A1"/>
<rect x="214.125" y="196.767" width="5.78722" height="5.78723" fill="#A1A1A1"/>
<rect x="173.617" y="75.2334" width="5.78722" height="5.78723" fill="#A1A1A1"/>
<rect x="173.617" y="156.256" width="5.78722" height="5.78723" fill="#A1A1A1"/>
<rect x="52.0859" y="52.085" width="5.78722" height="5.78723" fill="#A1A1A1"/>
<rect x="52.0859" y="133.106" width="5.78722" height="5.78723" fill="#A1A1A1"/>
<rect x="52.0859" y="214.127" width="5.78722" height="5.78723" fill="#A1A1A1"/>
<rect x="133.105" y="52.085" width="5.78722" height="5.78723" fill="#A1A1A1"/>
<rect x="133.105" y="214.127" width="5.78722" height="5.78723" fill="#A1A1A1"/>
<rect x="92.5938" y="92.5957" width="5.78722" height="5.78723" fill="#A1A1A1"/>
<rect x="92.5938" y="173.617" width="5.78722" height="5.78723" fill="#A1A1A1"/>
<rect x="214.125" y="52.085" width="5.78722" height="5.78723" fill="#A1A1A1"/>
<rect x="214.125" y="133.106" width="5.78722" height="5.78723" fill="#A1A1A1"/>
<rect x="214.125" y="214.127" width="5.78722" height="5.78723" fill="#A1A1A1"/>
<rect x="173.617" y="92.5957" width="5.78722" height="5.78723" fill="#A1A1A1"/>
<rect x="173.617" y="173.617" width="5.78722" height="5.78723" fill="#A1A1A1"/>
<rect x="52.0859" y="46.2979" width="5.78722" height="5.78723" fill="#A1A1A1"/>
<rect x="52.0859" y="127.319" width="5.78722" height="5.78723" fill="#A1A1A1"/>
<rect x="52.0859" y="208.341" width="5.78722" height="5.78723" fill="#A1A1A1"/>
<rect x="133.105" y="46.2979" width="5.78722" height="5.78723" fill="#A1A1A1"/>
<rect x="133.105" y="127.319" width="5.78722" height="5.78723" fill="#A1A1A1"/>
<rect x="133.105" y="208.341" width="5.78722" height="5.78723" fill="#A1A1A1"/>
<rect x="92.5938" y="86.8086" width="5.78722" height="5.78723" fill="#A1A1A1"/>
<rect x="92.5938" y="167.83" width="5.78722" height="5.78723" fill="#A1A1A1"/>
<rect x="214.125" y="46.2979" width="5.78722" height="5.78723" fill="#A1A1A1"/>
<rect x="214.125" y="127.319" width="5.78722" height="5.78723" fill="#A1A1A1"/>
<rect x="214.125" y="208.341" width="5.78722" height="5.78723" fill="#A1A1A1"/>
<rect x="173.617" y="86.8086" width="5.78722" height="5.78723" fill="#A1A1A1"/>
<rect x="173.617" y="167.83" width="5.78722" height="5.78723" fill="#A1A1A1"/>
<rect x="52.0859" y="63.6592" width="5.78722" height="5.78723" fill="#A1A1A1"/>
<rect x="52.0859" y="144.681" width="5.78722" height="5.78723" fill="#A1A1A1"/>
<rect x="52.0859" y="225.702" width="5.78722" height="5.78723" fill="#A1A1A1"/>
<rect x="133.105" y="63.6592" width="5.78722" height="5.78723" fill="#A1A1A1"/>
<rect x="133.105" y="225.702" width="5.78722" height="5.78723" fill="#A1A1A1"/>
<rect x="92.5938" y="104.17" width="5.78722" height="5.78723" fill="#A1A1A1"/>
<rect x="92.5938" y="185.191" width="5.78722" height="5.78723" fill="#A1A1A1"/>
<rect x="214.125" y="63.6592" width="5.78722" height="5.78723" fill="#A1A1A1"/>
<rect x="214.125" y="144.681" width="5.78722" height="5.78723" fill="#A1A1A1"/>
<rect x="214.125" y="225.702" width="5.78722" height="5.78723" fill="#A1A1A1"/>
<rect x="173.617" y="104.17" width="5.78722" height="5.78723" fill="#A1A1A1"/>
<rect x="173.617" y="185.191" width="5.78722" height="5.78723" fill="#A1A1A1"/>
<rect x="52.0859" y="69.4473" width="5.78722" height="5.78723" fill="#A1A1A1"/>
<rect x="52.0859" y="150.468" width="5.78722" height="5.78723" fill="#A1A1A1"/>
<rect x="52.0859" y="231.489" width="5.78722" height="5.78723" fill="#A1A1A1"/>
<rect x="133.105" y="69.4473" width="5.78722" height="5.78723" fill="#A1A1A1"/>
<rect x="133.105" y="150.468" width="5.78722" height="5.78723" fill="#A1A1A1"/>
<rect x="133.105" y="231.489" width="5.78722" height="5.78723" fill="#A1A1A1"/>
<rect x="92.5938" y="109.958" width="5.78722" height="5.78723" fill="#A1A1A1"/>
<rect x="92.5938" y="190.979" width="5.78722" height="5.78723" fill="#A1A1A1"/>
<rect x="214.125" y="69.4473" width="5.78722" height="5.78723" fill="#A1A1A1"/>
<rect x="214.125" y="150.468" width="5.78722" height="5.78723" fill="#A1A1A1"/>
<rect x="214.125" y="231.489" width="5.78722" height="5.78723" fill="#A1A1A1"/>
<rect x="173.617" y="109.958" width="5.78722" height="5.78723" fill="#A1A1A1"/>
<rect x="173.617" y="190.979" width="5.78722" height="5.78723" fill="#A1A1A1"/>
<rect x="52.0859" y="40.5107" width="5.78722" height="5.78723" fill="#A1A1A1"/>
<rect x="52.0859" y="121.532" width="5.78722" height="5.78723" fill="#A1A1A1"/>
<rect x="52.0859" y="202.553" width="5.78722" height="5.78723" fill="#A1A1A1"/>
<rect x="133.105" y="40.5107" width="5.78722" height="5.78723" fill="#A1A1A1"/>
<rect x="133.105" y="202.553" width="5.78722" height="5.78723" fill="#A1A1A1"/>
<rect x="92.5938" y="81.0215" width="5.78722" height="5.78723" fill="#A1A1A1"/>
<rect x="92.5938" y="162.042" width="5.78722" height="5.78723" fill="#A1A1A1"/>
<rect x="214.125" y="40.5107" width="5.78722" height="5.78723" fill="#A1A1A1"/>
<rect x="214.125" y="121.532" width="5.78722" height="5.78723" fill="#A1A1A1"/>
<rect x="214.125" y="202.553" width="5.78722" height="5.78723" fill="#A1A1A1"/>
<rect x="173.617" y="81.0215" width="5.78722" height="5.78723" fill="#A1A1A1"/>
<rect x="173.617" y="162.042" width="5.78722" height="5.78723" fill="#A1A1A1"/>
<rect x="52.0859" y="57.873" width="5.78722" height="5.78723" fill="#A1A1A1"/>
<rect x="52.0859" y="138.894" width="5.78722" height="5.78723" fill="#A1A1A1"/>
<rect x="52.0859" y="219.915" width="5.78722" height="5.78723" fill="#A1A1A1"/>
<rect x="133.105" y="57.873" width="5.78722" height="5.78723" fill="#A1A1A1"/>
<rect x="133.105" y="138.894" width="5.78722" height="5.78723" fill="#A1A1A1"/>
<rect x="133.105" y="219.915" width="5.78722" height="5.78723" fill="#A1A1A1"/>
<rect x="92.5938" y="98.3828" width="5.78722" height="5.78723" fill="#A1A1A1"/>
<rect x="92.5938" y="179.404" width="5.78722" height="5.78723" fill="#A1A1A1"/>
<rect x="214.125" y="57.873" width="5.78722" height="5.78723" fill="#A1A1A1"/>
<rect x="214.125" y="138.894" width="5.78722" height="5.78723" fill="#A1A1A1"/>
<rect x="214.125" y="219.915" width="5.78722" height="5.78723" fill="#A1A1A1"/>
<rect x="173.617" y="98.3828" width="5.78722" height="5.78723" fill="#A1A1A1"/>
<rect x="173.617" y="179.404" width="5.78722" height="5.78723" fill="#A1A1A1"/>
<rect x="57.8711" y="34.7227" width="5.78722" height="5.78723" fill="#A1A1A1"/>
<rect x="57.8711" y="23.1484" width="5.78722" height="5.78723" fill="#A1A1A1"/>
<rect x="57.8711" width="5.78722" height="5.78723" fill="#A1A1A1"/>
<rect x="57.8711" y="243.063" width="5.78722" height="5.78723" fill="#A1A1A1"/>
<rect x="75.2344" y="266.212" width="5.78722" height="5.78723" fill="#A1A1A1"/>
<rect x="243.062" y="208.341" width="5.78723" height="5.78722" transform="rotate(-90 243.062 208.341)" fill="#A1A1A1"/>
<rect x="266.211" y="185.191" width="5.78723" height="5.78722" transform="rotate(-90 266.211 185.191)" fill="#A1A1A1"/>
<rect x="266.211" y="243.063" width="5.78723" height="5.78722" transform="rotate(-90 266.211 243.063)" fill="#A1A1A1"/>
<rect x="23.1484" y="208.341" width="5.78723" height="5.78722" transform="rotate(-90 23.1484 208.341)" fill="#A1A1A1"/>
<rect y="208.341" width="5.78723" height="5.78722" transform="rotate(-90 0 208.341)" fill="#A1A1A1"/>
<rect x="138.895" y="23.1484" width="5.78722" height="5.78723" fill="#A1A1A1"/>
<rect x="138.895" width="5.78722" height="5.78723" fill="#A1A1A1"/>
<rect x="138.895" y="243.063" width="5.78722" height="5.78723" fill="#A1A1A1"/>
<rect x="156.254" y="266.212" width="5.78722" height="5.78723" fill="#A1A1A1"/>
<rect x="243.062" y="127.319" width="5.78723" height="5.78722" transform="rotate(-90 243.062 127.319)" fill="#A1A1A1"/>
<rect x="266.211" y="104.17" width="5.78723" height="5.78722" transform="rotate(-90 266.211 104.17)" fill="#A1A1A1"/>
<rect x="23.1484" y="127.319" width="5.78723" height="5.78722" transform="rotate(-90 23.1484 127.319)" fill="#A1A1A1"/>
<rect y="127.319" width="5.78723" height="5.78722" transform="rotate(-90 0 127.319)" fill="#A1A1A1"/>
<rect x="98.3828" y="23.1484" width="5.78722" height="5.78723" fill="#A1A1A1"/>
<rect x="98.3828" width="5.78722" height="5.78723" fill="#A1A1A1"/>
<rect x="98.3828" y="243.063" width="5.78722" height="5.78723" fill="#A1A1A1"/>
<rect x="115.746" y="266.212" width="5.78722" height="5.78723" fill="#A1A1A1"/>
<rect x="243.062" y="167.83" width="5.78723" height="5.78722" transform="rotate(-90 243.062 167.83)" fill="#A1A1A1"/>
<rect x="266.211" y="144.681" width="5.78723" height="5.78722" transform="rotate(-90 266.211 144.681)" fill="#A1A1A1"/>
<rect x="23.1484" y="167.83" width="5.78723" height="5.78722" transform="rotate(-90 23.1484 167.83)" fill="#A1A1A1"/>
<rect y="167.83" width="5.78723" height="5.78722" transform="rotate(-90 0 167.83)" fill="#A1A1A1"/>
<rect x="179.406" y="23.1484" width="5.78722" height="5.78723" fill="#A1A1A1"/>
<rect x="179.406" width="5.78722" height="5.78723" fill="#A1A1A1"/>
<rect x="179.406" y="243.063" width="5.78722" height="5.78723" fill="#A1A1A1"/>
<rect x="196.766" y="266.212" width="5.78722" height="5.78723" fill="#A1A1A1"/>
<rect x="243.062" y="86.8086" width="5.78723" height="5.78722" transform="rotate(-90 243.062 86.8086)" fill="#A1A1A1"/>
<rect x="266.211" y="63.6592" width="5.78723" height="5.78722" transform="rotate(-90 266.211 63.6592)" fill="#A1A1A1"/>
<rect x="23.1484" y="86.8086" width="5.78723" height="5.78722" transform="rotate(-90 23.1484 86.8086)" fill="#A1A1A1"/>
<rect y="86.8086" width="5.78723" height="5.78722" transform="rotate(-90 0 86.8086)" fill="#A1A1A1"/>
<rect x="219.914" y="23.1484" width="5.78722" height="5.78723" fill="#A1A1A1"/>
<rect x="219.914" width="5.78722" height="5.78723" fill="#A1A1A1"/>
<rect x="219.914" y="243.063" width="5.78722" height="5.78723" fill="#A1A1A1"/>
<rect x="237.277" y="266.212" width="5.78722" height="5.78723" fill="#A1A1A1"/>
<rect x="243.062" y="46.2979" width="5.78723" height="5.78722" transform="rotate(-90 243.062 46.2979)" fill="#A1A1A1"/>
<rect x="266.211" y="23.1484" width="5.78723" height="5.78722" transform="rotate(-90 266.211 23.1484)" fill="#A1A1A1"/>
<rect x="23.1484" y="46.2979" width="5.78723" height="5.78722" transform="rotate(-90 23.1484 46.2979)" fill="#A1A1A1"/>
<rect y="46.2979" width="5.78723" height="5.78722" transform="rotate(-90 0 46.2979)" fill="#A1A1A1"/>
<rect y="23.1484" width="5.78723" height="5.78722" transform="rotate(-90 0 23.1484)" fill="#A1A1A1"/>
<rect x="57.8711" y="115.744" width="5.78722" height="5.78723" fill="#A1A1A1"/>
<rect x="57.8711" y="196.767" width="5.78722" height="5.78723" fill="#A1A1A1"/>
<rect x="138.895" y="34.7227" width="5.78722" height="5.78723" fill="#A1A1A1"/>
<rect x="138.895" y="115.744" width="5.78722" height="5.78723" fill="#A1A1A1"/>
<rect x="138.895" y="196.767" width="5.78722" height="5.78723" fill="#A1A1A1"/>
<rect x="98.3828" y="75.2334" width="5.78722" height="5.78723" fill="#A1A1A1"/>
<rect x="98.3828" y="156.256" width="5.78722" height="5.78723" fill="#A1A1A1"/>
<rect x="219.914" y="34.7227" width="5.78722" height="5.78723" fill="#A1A1A1"/>
<rect x="219.914" y="115.744" width="5.78722" height="5.78723" fill="#A1A1A1"/>
<rect x="219.914" y="196.767" width="5.78722" height="5.78723" fill="#A1A1A1"/>
<rect x="179.406" y="75.2334" width="5.78722" height="5.78723" fill="#A1A1A1"/>
<rect x="179.406" y="156.256" width="5.78722" height="5.78723" fill="#A1A1A1"/>
<rect x="57.8711" y="52.085" width="5.78722" height="5.78723" fill="#A1A1A1"/>
<rect x="57.8711" y="133.106" width="5.78722" height="5.78723" fill="#A1A1A1"/>
<rect x="57.8711" y="214.127" width="5.78722" height="5.78723" fill="#A1A1A1"/>
<rect x="138.895" y="52.085" width="5.78722" height="5.78723" fill="#A1A1A1"/>
<rect x="138.895" y="133.106" width="5.78722" height="5.78723" fill="#A1A1A1"/>
<rect x="138.895" y="214.127" width="5.78722" height="5.78723" fill="#A1A1A1"/>
<rect x="98.3828" y="92.5957" width="5.78722" height="5.78723" fill="#A1A1A1"/>
<rect x="98.3828" y="173.617" width="5.78722" height="5.78723" fill="#A1A1A1"/>
<rect x="219.914" y="52.085" width="5.78722" height="5.78723" fill="#A1A1A1"/>
<rect x="219.914" y="133.106" width="5.78722" height="5.78723" fill="#A1A1A1"/>
<rect x="219.914" y="214.127" width="5.78722" height="5.78723" fill="#A1A1A1"/>
<rect x="179.406" y="92.5957" width="5.78722" height="5.78723" fill="#A1A1A1"/>
<rect x="179.406" y="173.617" width="5.78722" height="5.78723" fill="#A1A1A1"/>
<rect x="57.8711" y="46.2979" width="5.78722" height="5.78723" fill="#A1A1A1"/>
<rect x="57.8711" y="127.319" width="5.78722" height="5.78723" fill="#A1A1A1"/>
<rect x="57.8711" y="208.341" width="5.78722" height="5.78723" fill="#A1A1A1"/>
<rect x="138.895" y="46.2979" width="5.78722" height="5.78723" fill="#A1A1A1"/>
<rect x="138.895" y="208.341" width="5.78722" height="5.78723" fill="#A1A1A1"/>
<rect x="98.3828" y="86.8086" width="5.78722" height="5.78723" fill="#A1A1A1"/>
<rect x="98.3828" y="167.83" width="5.78722" height="5.78723" fill="#A1A1A1"/>
<rect x="219.914" y="46.2979" width="5.78722" height="5.78723" fill="#A1A1A1"/>
<rect x="219.914" y="127.319" width="5.78722" height="5.78723" fill="#A1A1A1"/>
<rect x="219.914" y="208.341" width="5.78722" height="5.78723" fill="#A1A1A1"/>
<rect x="179.406" y="86.8086" width="5.78722" height="5.78723" fill="#A1A1A1"/>
<rect x="179.406" y="167.83" width="5.78722" height="5.78723" fill="#A1A1A1"/>
<rect x="57.8711" y="63.6592" width="5.78722" height="5.78723" fill="#A1A1A1"/>
<rect x="57.8711" y="144.681" width="5.78722" height="5.78723" fill="#A1A1A1"/>
<rect x="57.8711" y="225.702" width="5.78722" height="5.78723" fill="#A1A1A1"/>
<rect x="138.895" y="63.6592" width="5.78722" height="5.78723" fill="#A1A1A1"/>
<rect x="138.895" y="144.681" width="5.78722" height="5.78723" fill="#A1A1A1"/>
<rect x="138.895" y="225.702" width="5.78722" height="5.78723" fill="#A1A1A1"/>
<rect x="98.3828" y="104.17" width="5.78722" height="5.78723" fill="#A1A1A1"/>
<rect x="98.3828" y="185.191" width="5.78722" height="5.78723" fill="#A1A1A1"/>
<rect x="219.914" y="63.6592" width="5.78722" height="5.78723" fill="#A1A1A1"/>
<rect x="219.914" y="144.681" width="5.78722" height="5.78723" fill="#A1A1A1"/>
<rect x="219.914" y="225.702" width="5.78722" height="5.78723" fill="#A1A1A1"/>
<rect x="179.406" y="104.17" width="5.78722" height="5.78723" fill="#A1A1A1"/>
<rect x="179.406" y="185.191" width="5.78722" height="5.78723" fill="#A1A1A1"/>
<rect x="57.8711" y="69.4473" width="5.78722" height="5.78723" fill="#A1A1A1"/>
<rect x="57.8711" y="150.468" width="5.78722" height="5.78723" fill="#A1A1A1"/>
<rect x="57.8711" y="231.489" width="5.78722" height="5.78723" fill="#A1A1A1"/>
<rect x="138.895" y="69.4473" width="5.78722" height="5.78723" fill="#A1A1A1"/>
<rect x="138.895" y="150.468" width="5.78722" height="5.78723" fill="#A1A1A1"/>
<rect x="138.895" y="231.489" width="5.78722" height="5.78723" fill="#A1A1A1"/>
<rect x="98.3828" y="109.958" width="5.78722" height="5.78723" fill="#A1A1A1"/>
<rect x="98.3828" y="190.979" width="5.78722" height="5.78723" fill="#A1A1A1"/>
<rect x="219.914" y="69.4473" width="5.78722" height="5.78723" fill="#A1A1A1"/>
<rect x="219.914" y="150.468" width="5.78722" height="5.78723" fill="#A1A1A1"/>
<rect x="219.914" y="231.489" width="5.78722" height="5.78723" fill="#A1A1A1"/>
<rect x="179.406" y="109.958" width="5.78722" height="5.78723" fill="#A1A1A1"/>
<rect x="179.406" y="190.979" width="5.78722" height="5.78723" fill="#A1A1A1"/>
<rect x="57.8711" y="40.5107" width="5.78722" height="5.78723" fill="#A1A1A1"/>
<rect x="57.8711" y="121.532" width="5.78722" height="5.78723" fill="#A1A1A1"/>
<rect x="57.8711" y="202.553" width="5.78722" height="5.78723" fill="#A1A1A1"/>
<rect x="138.895" y="40.5107" width="5.78722" height="5.78723" fill="#A1A1A1"/>
<rect x="138.895" y="121.532" width="5.78722" height="5.78723" fill="#A1A1A1"/>
<rect x="138.895" y="202.553" width="5.78722" height="5.78723" fill="#A1A1A1"/>
<rect x="98.3828" y="81.0215" width="5.78722" height="5.78723" fill="#A1A1A1"/>
<rect x="98.3828" y="162.042" width="5.78722" height="5.78723" fill="#A1A1A1"/>
<rect x="219.914" y="40.5107" width="5.78722" height="5.78723" fill="#A1A1A1"/>
<rect x="219.914" y="121.532" width="5.78722" height="5.78723" fill="#A1A1A1"/>
<rect x="219.914" y="202.553" width="5.78722" height="5.78723" fill="#A1A1A1"/>
<rect x="179.406" y="81.0215" width="5.78722" height="5.78723" fill="#A1A1A1"/>
<rect x="179.406" y="162.042" width="5.78722" height="5.78723" fill="#A1A1A1"/>
<rect x="57.8711" y="57.873" width="5.78722" height="5.78723" fill="#A1A1A1"/>
<rect x="57.8711" y="138.894" width="5.78722" height="5.78723" fill="#A1A1A1"/>
<rect x="57.8711" y="219.915" width="5.78722" height="5.78723" fill="#A1A1A1"/>
<rect x="138.895" y="57.873" width="5.78722" height="5.78723" fill="#A1A1A1"/>
<rect x="138.895" y="219.915" width="5.78722" height="5.78723" fill="#A1A1A1"/>
<rect x="98.3828" y="98.3828" width="5.78722" height="5.78723" fill="#A1A1A1"/>
<rect x="98.3828" y="179.404" width="5.78722" height="5.78723" fill="#A1A1A1"/>
<rect x="219.914" y="57.873" width="5.78722" height="5.78723" fill="#A1A1A1"/>
<rect x="219.914" y="138.894" width="5.78722" height="5.78723" fill="#A1A1A1"/>
<rect x="219.914" y="219.915" width="5.78722" height="5.78723" fill="#A1A1A1"/>
<rect x="179.406" y="98.3828" width="5.78722" height="5.78723" fill="#A1A1A1"/>
<rect x="179.406" y="179.404" width="5.78722" height="5.78723" fill="#A1A1A1"/>
<rect x="63.6602" y="34.7227" width="5.78722" height="5.78723" fill="#A1A1A1"/>
<rect x="63.6602" y="23.1484" width="5.78722" height="5.78723" fill="#A1A1A1"/>
<rect x="63.6602" width="5.78722" height="5.78723" fill="#A1A1A1"/>
<rect x="63.6602" y="243.063" width="5.78722" height="5.78723" fill="#A1A1A1"/>
<rect x="81.0195" y="266.212" width="5.78722" height="5.78723" fill="#A1A1A1"/>
<rect x="243.062" y="202.553" width="5.78723" height="5.78722" transform="rotate(-90 243.062 202.553)" fill="#A1A1A1"/>
<rect x="266.211" y="179.404" width="5.78723" height="5.78722" transform="rotate(-90 266.211 179.404)" fill="#A1A1A1"/>
<rect x="266.211" y="237.277" width="5.78723" height="5.78722" transform="rotate(-90 266.211 237.277)" fill="#A1A1A1"/>
<rect x="23.1484" y="202.553" width="5.78723" height="5.78722" transform="rotate(-90 23.1484 202.553)" fill="#A1A1A1"/>
<rect y="202.553" width="5.78723" height="5.78722" transform="rotate(-90 0 202.553)" fill="#A1A1A1"/>
<rect x="144.68" y="23.1484" width="5.78722" height="5.78723" fill="#A1A1A1"/>
<rect x="144.68" width="5.78722" height="5.78723" fill="#A1A1A1"/>
<rect x="144.68" y="243.063" width="5.78722" height="5.78723" fill="#A1A1A1"/>
<rect x="162.043" y="266.212" width="5.78722" height="5.78723" fill="#A1A1A1"/>
<rect x="243.062" y="121.532" width="5.78723" height="5.78722" transform="rotate(-90 243.062 121.532)" fill="#A1A1A1"/>
<rect x="266.211" y="98.3828" width="5.78723" height="5.78722" transform="rotate(-90 266.211 98.3828)" fill="#A1A1A1"/>
<rect x="23.1484" y="121.532" width="5.78723" height="5.78722" transform="rotate(-90 23.1484 121.532)" fill="#A1A1A1"/>
<rect y="121.532" width="5.78723" height="5.78722" transform="rotate(-90 0 121.532)" fill="#A1A1A1"/>
<rect x="104.172" y="23.1484" width="5.78722" height="5.78723" fill="#A1A1A1"/>
<rect x="104.172" width="5.78722" height="5.78723" fill="#A1A1A1"/>
<rect x="104.172" y="243.063" width="5.78722" height="5.78723" fill="#A1A1A1"/>
<rect x="121.531" y="266.212" width="5.78722" height="5.78723" fill="#A1A1A1"/>
<rect x="243.062" y="162.042" width="5.78723" height="5.78722" transform="rotate(-90 243.062 162.042)" fill="#A1A1A1"/>
<rect x="266.211" y="138.894" width="5.78723" height="5.78722" transform="rotate(-90 266.211 138.894)" fill="#A1A1A1"/>
<rect x="23.1484" y="162.042" width="5.78723" height="5.78722" transform="rotate(-90 23.1484 162.042)" fill="#A1A1A1"/>
<rect y="162.042" width="5.78723" height="5.78722" transform="rotate(-90 0 162.042)" fill="#A1A1A1"/>
<rect x="185.191" y="23.1484" width="5.78722" height="5.78723" fill="#A1A1A1"/>
<rect x="185.191" width="5.78722" height="5.78723" fill="#A1A1A1"/>
<rect x="185.191" y="243.063" width="5.78722" height="5.78723" fill="#A1A1A1"/>
<rect x="202.555" y="266.212" width="5.78722" height="5.78723" fill="#A1A1A1"/>
<rect x="243.062" y="81.0215" width="5.78723" height="5.78722" transform="rotate(-90 243.062 81.0215)" fill="#A1A1A1"/>
<rect x="266.211" y="57.873" width="5.78723" height="5.78722" transform="rotate(-90 266.211 57.873)" fill="#A1A1A1"/>
<rect x="23.1484" y="81.0215" width="5.78723" height="5.78722" transform="rotate(-90 23.1484 81.0215)" fill="#A1A1A1"/>
<rect y="81.0215" width="5.78723" height="5.78722" transform="rotate(-90 0 81.0215)" fill="#A1A1A1"/>
<rect x="225.703" y="23.1484" width="5.78722" height="5.78723" fill="#A1A1A1"/>
<rect x="225.703" width="5.78722" height="5.78723" fill="#A1A1A1"/>
<rect x="225.703" y="243.063" width="5.78722" height="5.78723" fill="#A1A1A1"/>
<rect x="243.062" y="266.212" width="5.78722" height="5.78723" fill="#A1A1A1"/>
<rect x="243.062" y="40.5107" width="5.78723" height="5.78722" transform="rotate(-90 243.062 40.5107)" fill="#A1A1A1"/>
<rect x="266.211" y="17.3623" width="5.78723" height="5.78722" transform="rotate(-90 266.211 17.3623)" fill="#A1A1A1"/>
<rect x="23.1484" y="40.5107" width="5.78723" height="5.78722" transform="rotate(-90 23.1484 40.5107)" fill="#A1A1A1"/>
<rect y="40.5107" width="5.78723" height="5.78722" transform="rotate(-90 0 40.5107)" fill="#A1A1A1"/>
<rect y="17.3623" width="5.78723" height="5.78722" transform="rotate(-90 0 17.3623)" fill="#A1A1A1"/>
<rect x="63.6602" y="115.744" width="5.78722" height="5.78723" fill="#A1A1A1"/>
<rect x="63.6602" y="196.767" width="5.78722" height="5.78723" fill="#A1A1A1"/>
<rect x="144.68" y="34.7227" width="5.78722" height="5.78723" fill="#A1A1A1"/>
<rect x="144.68" y="115.744" width="5.78722" height="5.78723" fill="#A1A1A1"/>
<rect x="144.68" y="196.767" width="5.78722" height="5.78723" fill="#A1A1A1"/>
<rect x="104.172" y="75.2334" width="5.78722" height="5.78723" fill="#A1A1A1"/>
<rect x="104.172" y="156.256" width="5.78722" height="5.78723" fill="#A1A1A1"/>
<rect x="225.703" y="34.7227" width="5.78722" height="5.78723" fill="#A1A1A1"/>
<rect x="225.703" y="115.744" width="5.78722" height="5.78723" fill="#A1A1A1"/>
<rect x="225.703" y="196.767" width="5.78722" height="5.78723" fill="#A1A1A1"/>
<rect x="185.191" y="75.2334" width="5.78722" height="5.78723" fill="#A1A1A1"/>
<rect x="185.191" y="156.256" width="5.78722" height="5.78723" fill="#A1A1A1"/>
<rect x="63.6602" y="52.085" width="5.78722" height="5.78723" fill="#A1A1A1"/>
<rect x="63.6602" y="133.106" width="5.78722" height="5.78723" fill="#A1A1A1"/>
<rect x="63.6602" y="214.127" width="5.78722" height="5.78723" fill="#A1A1A1"/>
<rect x="144.68" y="52.085" width="5.78722" height="5.78723" fill="#A1A1A1"/>
<rect x="144.68" y="214.127" width="5.78722" height="5.78723" fill="#A1A1A1"/>
<rect x="104.172" y="92.5957" width="5.78722" height="5.78723" fill="#A1A1A1"/>
<rect x="104.172" y="173.617" width="5.78722" height="5.78723" fill="#A1A1A1"/>
<rect x="225.703" y="52.085" width="5.78722" height="5.78723" fill="#A1A1A1"/>
<rect x="225.703" y="133.106" width="5.78722" height="5.78723" fill="#A1A1A1"/>
<rect x="225.703" y="214.127" width="5.78722" height="5.78723" fill="#A1A1A1"/>
<rect x="185.191" y="92.5957" width="5.78722" height="5.78723" fill="#A1A1A1"/>
<rect x="185.191" y="173.617" width="5.78722" height="5.78723" fill="#A1A1A1"/>
<rect x="63.6602" y="46.2979" width="5.78722" height="5.78723" fill="#A1A1A1"/>
<rect x="63.6602" y="127.319" width="5.78722" height="5.78723" fill="#A1A1A1"/>
<rect x="63.6602" y="208.341" width="5.78722" height="5.78723" fill="#A1A1A1"/>
<rect x="144.68" y="46.2979" width="5.78722" height="5.78723" fill="#A1A1A1"/>
<rect x="144.68" y="127.319" width="5.78722" height="5.78723" fill="#A1A1A1"/>
<rect x="144.68" y="208.341" width="5.78722" height="5.78723" fill="#A1A1A1"/>
<rect x="104.172" y="86.8086" width="5.78722" height="5.78723" fill="#A1A1A1"/>
<rect x="104.172" y="167.83" width="5.78722" height="5.78723" fill="#A1A1A1"/>
<rect x="225.703" y="46.2979" width="5.78722" height="5.78723" fill="#A1A1A1"/>
<rect x="225.703" y="127.319" width="5.78722" height="5.78723" fill="#A1A1A1"/>
<rect x="225.703" y="208.341" width="5.78722" height="5.78723" fill="#A1A1A1"/>
<rect x="185.191" y="86.8086" width="5.78722" height="5.78723" fill="#A1A1A1"/>
<rect x="185.191" y="167.83" width="5.78722" height="5.78723" fill="#A1A1A1"/>
<rect x="63.6602" y="63.6592" width="5.78722" height="5.78723" fill="#A1A1A1"/>
<rect x="63.6602" y="144.681" width="5.78722" height="5.78723" fill="#A1A1A1"/>
<rect x="63.6602" y="225.702" width="5.78722" height="5.78723" fill="#A1A1A1"/>
<rect x="144.68" y="63.6592" width="5.78722" height="5.78723" fill="#A1A1A1"/>
<rect x="144.68" y="225.702" width="5.78722" height="5.78723" fill="#A1A1A1"/>
<rect x="104.172" y="104.17" width="5.78722" height="5.78723" fill="#A1A1A1"/>
<rect x="104.172" y="185.191" width="5.78722" height="5.78723" fill="#A1A1A1"/>
<rect x="225.703" y="63.6592" width="5.78722" height="5.78723" fill="#A1A1A1"/>
<rect x="225.703" y="144.681" width="5.78722" height="5.78723" fill="#A1A1A1"/>
<rect x="225.703" y="225.702" width="5.78722" height="5.78723" fill="#A1A1A1"/>
<rect x="185.191" y="104.17" width="5.78722" height="5.78723" fill="#A1A1A1"/>
<rect x="185.191" y="185.191" width="5.78722" height="5.78723" fill="#A1A1A1"/>
<rect x="63.6602" y="69.4473" width="5.78722" height="5.78723" fill="#A1A1A1"/>
<rect x="63.6602" y="150.468" width="5.78722" height="5.78723" fill="#A1A1A1"/>
<rect x="63.6602" y="231.489" width="5.78722" height="5.78723" fill="#A1A1A1"/>
<rect x="144.68" y="69.4473" width="5.78722" height="5.78723" fill="#A1A1A1"/>
<rect x="144.68" y="150.468" width="5.78722" height="5.78723" fill="#A1A1A1"/>
<rect x="144.68" y="231.489" width="5.78722" height="5.78723" fill="#A1A1A1"/>
<rect x="104.172" y="109.958" width="5.78722" height="5.78723" fill="#A1A1A1"/>
<rect x="104.172" y="190.979" width="5.78722" height="5.78723" fill="#A1A1A1"/>
<rect x="225.703" y="69.4473" width="5.78722" height="5.78723" fill="#A1A1A1"/>
<rect x="225.703" y="150.468" width="5.78722" height="5.78723" fill="#A1A1A1"/>
<rect x="225.703" y="231.489" width="5.78722" height="5.78723" fill="#A1A1A1"/>
<rect x="185.191" y="109.958" width="5.78722" height="5.78723" fill="#A1A1A1"/>
<rect x="185.191" y="190.979" width="5.78722" height="5.78723" fill="#A1A1A1"/>
<rect x="63.6602" y="40.5107" width="5.78722" height="5.78723" fill="#A1A1A1"/>
<rect x="63.6602" y="121.532" width="5.78722" height="5.78723" fill="#A1A1A1"/>
<rect x="63.6602" y="202.553" width="5.78722" height="5.78723" fill="#A1A1A1"/>
<rect x="144.68" y="40.5107" width="5.78722" height="5.78723" fill="#A1A1A1"/>
<rect x="144.68" y="202.553" width="5.78722" height="5.78723" fill="#A1A1A1"/>
<rect x="104.172" y="81.0215" width="5.78722" height="5.78723" fill="#A1A1A1"/>
<rect x="104.172" y="162.042" width="5.78722" height="5.78723" fill="#A1A1A1"/>
<rect x="225.703" y="40.5107" width="5.78722" height="5.78723" fill="#A1A1A1"/>
<rect x="225.703" y="121.532" width="5.78722" height="5.78723" fill="#A1A1A1"/>
<rect x="225.703" y="202.553" width="5.78722" height="5.78723" fill="#A1A1A1"/>
<rect x="185.191" y="81.0215" width="5.78722" height="5.78723" fill="#A1A1A1"/>
<rect x="185.191" y="162.042" width="5.78722" height="5.78723" fill="#A1A1A1"/>
<rect x="63.6602" y="57.873" width="5.78722" height="5.78723" fill="#A1A1A1"/>
<rect x="63.6602" y="138.894" width="5.78722" height="5.78723" fill="#A1A1A1"/>
<rect x="63.6602" y="219.915" width="5.78722" height="5.78723" fill="#A1A1A1"/>
<rect x="144.68" y="57.873" width="5.78722" height="5.78723" fill="#A1A1A1"/>
<rect x="144.68" y="138.894" width="5.78722" height="5.78723" fill="#A1A1A1"/>
<rect x="144.68" y="219.915" width="5.78722" height="5.78723" fill="#A1A1A1"/>
<rect x="104.172" y="98.3828" width="5.78722" height="5.78723" fill="#A1A1A1"/>
<rect x="104.172" y="179.404" width="5.78722" height="5.78723" fill="#A1A1A1"/>
<rect x="225.703" y="57.873" width="5.78722" height="5.78723" fill="#A1A1A1"/>
<rect x="225.703" y="138.894" width="5.78722" height="5.78723" fill="#A1A1A1"/>
<rect x="225.703" y="219.915" width="5.78722" height="5.78723" fill="#A1A1A1"/>
<rect x="185.191" y="98.3828" width="5.78722" height="5.78723" fill="#A1A1A1"/>
<rect x="185.191" y="179.404" width="5.78722" height="5.78723" fill="#A1A1A1"/>
<rect x="69.4453" y="34.7227" width="5.78722" height="5.78723" fill="#A1A1A1"/>
<rect x="69.4453" y="23.1484" width="5.78722" height="5.78723" fill="#A1A1A1"/>
<rect x="69.4453" width="5.78722" height="5.78723" fill="#A1A1A1"/>
<rect x="69.4453" y="243.063" width="5.78722" height="5.78723" fill="#A1A1A1"/>
<rect x="86.8086" y="266.212" width="5.78722" height="5.78723" fill="#A1A1A1"/>
<rect x="243.062" y="196.767" width="5.78723" height="5.78722" transform="rotate(-90 243.062 196.767)" fill="#A1A1A1"/>
<rect x="266.211" y="173.617" width="5.78723" height="5.78722" transform="rotate(-90 266.211 173.617)" fill="#A1A1A1"/>
<rect x="266.211" y="231.489" width="5.78723" height="5.78722" transform="rotate(-90 266.211 231.489)" fill="#A1A1A1"/>
<rect x="23.1484" y="196.767" width="5.78723" height="5.78722" transform="rotate(-90 23.1484 196.767)" fill="#A1A1A1"/>
<rect y="196.767" width="5.78723" height="5.78722" transform="rotate(-90 0 196.767)" fill="#A1A1A1"/>
<rect x="150.469" y="23.1484" width="5.78722" height="5.78723" fill="#A1A1A1"/>
<rect x="150.469" width="5.78722" height="5.78723" fill="#A1A1A1"/>
<rect x="150.469" y="243.063" width="5.78722" height="5.78723" fill="#A1A1A1"/>
<rect x="167.828" y="266.212" width="5.78722" height="5.78723" fill="#A1A1A1"/>
<rect x="243.062" y="115.744" width="5.78723" height="5.78722" transform="rotate(-90 243.062 115.744)" fill="#A1A1A1"/>
<rect x="266.211" y="92.5957" width="5.78723" height="5.78722" transform="rotate(-90 266.211 92.5957)" fill="#A1A1A1"/>
<rect x="23.1484" y="115.744" width="5.78723" height="5.78722" transform="rotate(-90 23.1484 115.744)" fill="#A1A1A1"/>
<rect y="115.744" width="5.78723" height="5.78722" transform="rotate(-90 0 115.744)" fill="#A1A1A1"/>
<rect x="109.957" y="23.1484" width="5.78722" height="5.78723" fill="#A1A1A1"/>
<rect x="109.957" width="5.78722" height="5.78723" fill="#A1A1A1"/>
<rect x="109.957" y="243.063" width="5.78722" height="5.78723" fill="#A1A1A1"/>
<rect x="127.32" y="266.212" width="5.78722" height="5.78723" fill="#A1A1A1"/>
<rect x="243.062" y="156.256" width="5.78723" height="5.78722" transform="rotate(-90 243.062 156.256)" fill="#A1A1A1"/>
<rect x="266.211" y="133.106" width="5.78723" height="5.78722" transform="rotate(-90 266.211 133.106)" fill="#A1A1A1"/>
<rect x="23.1484" y="156.256" width="5.78723" height="5.78722" transform="rotate(-90 23.1484 156.256)" fill="#A1A1A1"/>
<rect y="156.256" width="5.78723" height="5.78722" transform="rotate(-90 0 156.256)" fill="#A1A1A1"/>
<rect x="190.977" y="23.1484" width="5.78722" height="5.78723" fill="#A1A1A1"/>
<rect x="190.977" width="5.78722" height="5.78723" fill="#A1A1A1"/>
<rect x="190.977" y="243.063" width="5.78722" height="5.78723" fill="#A1A1A1"/>
<rect x="208.34" y="266.212" width="5.78722" height="5.78723" fill="#A1A1A1"/>
<rect x="243.062" y="75.2334" width="5.78723" height="5.78722" transform="rotate(-90 243.062 75.2334)" fill="#A1A1A1"/>
<rect x="266.211" y="52.085" width="5.78723" height="5.78722" transform="rotate(-90 266.211 52.085)" fill="#A1A1A1"/>
<rect x="23.1484" y="75.2334" width="5.78723" height="5.78722" transform="rotate(-90 23.1484 75.2334)" fill="#A1A1A1"/>
<rect y="75.2334" width="5.78723" height="5.78722" transform="rotate(-90 0 75.2334)" fill="#A1A1A1"/>
<rect x="231.488" y="23.1484" width="5.78722" height="5.78723" fill="#A1A1A1"/>
<rect x="231.488" width="5.78722" height="5.78723" fill="#A1A1A1"/>
<rect x="248.852" width="5.78722" height="5.78723" fill="#A1A1A1"/>
<rect x="231.488" y="243.063" width="5.78722" height="5.78723" fill="#A1A1A1"/>
<rect x="248.852" y="266.212" width="5.78722" height="5.78723" fill="#A1A1A1"/>
<rect x="237.277" y="28.9365" width="5.78723" height="5.78722" transform="rotate(-90 237.277 28.9365)" fill="#A1A1A1"/>
<rect x="237.277" y="5.78809" width="5.78723" height="5.78722" transform="rotate(-90 237.277 5.78809)" fill="#A1A1A1"/>
<rect x="254.637" y="5.78809" width="5.78723" height="5.78722" transform="rotate(-90 254.637 5.78809)" fill="#A1A1A1"/>
<rect x="243.062" y="28.9365" width="5.78723" height="5.78722" transform="rotate(-90 243.062 28.9365)" fill="#A1A1A1"/>
<rect x="266.211" y="5.78809" width="5.78723" height="5.78722" transform="rotate(-90 266.211 5.78809)" fill="#A1A1A1"/>
<rect x="243.062" y="5.78809" width="5.78723" height="5.78722" transform="rotate(-90 243.062 5.78809)" fill="#A1A1A1"/>
<rect x="260.426" y="5.78809" width="5.78723" height="5.78722" transform="rotate(-90 260.426 5.78809)" fill="#A1A1A1"/>
<rect x="243.062" y="34.7227" width="5.78723" height="5.78722" transform="rotate(-90 243.062 34.7227)" fill="#A1A1A1"/>
<rect x="266.211" y="11.5742" width="5.78723" height="5.78722" transform="rotate(-90 266.211 11.5742)" fill="#A1A1A1"/>
<rect x="28.9336" y="28.9365" width="5.78723" height="5.78722" transform="rotate(-90 28.9336 28.9365)" fill="#A1A1A1"/>
<rect x="28.9336" y="5.78809" width="5.78723" height="5.78722" transform="rotate(-90 28.9336 5.78809)" fill="#A1A1A1"/>
<rect x="23.1484" y="28.9365" width="5.78723" height="5.78722" transform="rotate(-90 23.1484 28.9365)" fill="#A1A1A1"/>
<rect y="28.9365" width="5.78723" height="5.78722" transform="rotate(-90 0 28.9365)" fill="#A1A1A1"/>
<rect y="5.78809" width="5.78723" height="5.78722" transform="rotate(-90 0 5.78809)" fill="#A1A1A1"/>
<rect x="23.1484" y="5.78809" width="5.78723" height="5.78722" transform="rotate(-90 23.1484 5.78809)" fill="#A1A1A1"/>
<rect x="23.1484" y="34.7227" width="5.78723" height="5.78722" transform="rotate(-90 23.1484 34.7227)" fill="#A1A1A1"/>
<rect y="34.7227" width="5.78723" height="5.78722" transform="rotate(-90 0 34.7227)" fill="#A1A1A1"/>
<rect y="11.5742" width="5.78723" height="5.78722" transform="rotate(-90 0 11.5742)" fill="#A1A1A1"/>
<rect x="69.4453" y="115.744" width="5.78722" height="5.78723" fill="#A1A1A1"/>
<rect x="69.4453" y="196.767" width="5.78722" height="5.78723" fill="#A1A1A1"/>
<rect x="150.469" y="34.7227" width="5.78722" height="5.78723" fill="#A1A1A1"/>
<rect x="150.469" y="115.744" width="5.78722" height="5.78723" fill="#A1A1A1"/>
<rect x="150.469" y="196.767" width="5.78722" height="5.78723" fill="#A1A1A1"/>
<rect x="109.957" y="75.2334" width="5.78722" height="5.78723" fill="#A1A1A1"/>
<rect x="109.957" y="156.256" width="5.78722" height="5.78723" fill="#A1A1A1"/>
<rect x="231.488" y="34.7227" width="5.78722" height="5.78723" fill="#A1A1A1"/>
<rect x="231.488" y="115.744" width="5.78722" height="5.78723" fill="#A1A1A1"/>
<rect x="231.488" y="196.767" width="5.78722" height="5.78723" fill="#A1A1A1"/>
<rect x="190.977" y="75.2334" width="5.78722" height="5.78723" fill="#A1A1A1"/>
<rect x="190.977" y="156.256" width="5.78722" height="5.78723" fill="#A1A1A1"/>
<rect x="69.4453" y="52.085" width="5.78722" height="5.78723" fill="#A1A1A1"/>
<rect x="69.4453" y="133.106" width="5.78722" height="5.78723" fill="#A1A1A1"/>
<rect x="69.4453" y="214.127" width="5.78722" height="5.78723" fill="#A1A1A1"/>
<rect x="150.469" y="52.085" width="5.78722" height="5.78723" fill="#A1A1A1"/>
<rect x="150.469" y="133.106" width="5.78722" height="5.78723" fill="#A1A1A1"/>
<rect x="150.469" y="214.127" width="5.78722" height="5.78723" fill="#A1A1A1"/>
<rect x="109.957" y="92.5957" width="5.78722" height="5.78723" fill="#A1A1A1"/>
<rect x="109.957" y="173.617" width="5.78722" height="5.78723" fill="#A1A1A1"/>
<rect x="231.488" y="52.085" width="5.78722" height="5.78723" fill="#A1A1A1"/>
<rect x="231.488" y="133.106" width="5.78722" height="5.78723" fill="#A1A1A1"/>
<rect x="231.488" y="214.127" width="5.78722" height="5.78723" fill="#A1A1A1"/>
<rect x="190.977" y="92.5957" width="5.78722" height="5.78723" fill="#A1A1A1"/>
<rect x="190.977" y="173.617" width="5.78722" height="5.78723" fill="#A1A1A1"/>
<rect x="69.4453" y="46.2979" width="5.78722" height="5.78723" fill="#A1A1A1"/>
<rect x="69.4453" y="127.319" width="5.78722" height="5.78723" fill="#A1A1A1"/>
<rect x="69.4453" y="208.341" width="5.78722" height="5.78723" fill="#A1A1A1"/>
<rect x="150.469" y="46.2979" width="5.78722" height="5.78723" fill="#A1A1A1"/>
<rect x="150.469" y="127.319" width="5.78722" height="5.78723" fill="#A1A1A1"/>
<rect x="150.469" y="208.341" width="5.78722" height="5.78723" fill="#A1A1A1"/>
<rect x="109.957" y="86.8086" width="5.78722" height="5.78723" fill="#A1A1A1"/>
<rect x="109.957" y="167.83" width="5.78722" height="5.78723" fill="#A1A1A1"/>
<rect x="231.488" y="46.2979" width="5.78722" height="5.78723" fill="#A1A1A1"/>
<rect x="231.488" y="127.319" width="5.78722" height="5.78723" fill="#A1A1A1"/>
<rect x="231.488" y="208.341" width="5.78722" height="5.78723" fill="#A1A1A1"/>
<rect x="190.977" y="86.8086" width="5.78722" height="5.78723" fill="#A1A1A1"/>
<rect x="190.977" y="167.83" width="5.78722" height="5.78723" fill="#A1A1A1"/>
<rect x="69.4453" y="63.6592" width="5.78722" height="5.78723" fill="#A1A1A1"/>
<rect x="69.4453" y="144.681" width="5.78722" height="5.78723" fill="#A1A1A1"/>
<rect x="69.4453" y="225.702" width="5.78722" height="5.78723" fill="#A1A1A1"/>
<rect x="150.469" y="63.6592" width="5.78722" height="5.78723" fill="#A1A1A1"/>
<rect x="150.469" y="144.681" width="5.78722" height="5.78723" fill="#A1A1A1"/>
<rect x="150.469" y="225.702" width="5.78722" height="5.78723" fill="#A1A1A1"/>
<rect x="109.957" y="104.17" width="5.78722" height="5.78723" fill="#A1A1A1"/>
<rect x="109.957" y="185.191" width="5.78722" height="5.78723" fill="#A1A1A1"/>
<rect x="231.488" y="63.6592" width="5.78722" height="5.78723" fill="#A1A1A1"/>
<rect x="231.488" y="144.681" width="5.78722" height="5.78723" fill="#A1A1A1"/>
<rect x="231.488" y="225.702" width="5.78722" height="5.78723" fill="#A1A1A1"/>
<rect x="190.977" y="104.17" width="5.78722" height="5.78723" fill="#A1A1A1"/>
<rect x="190.977" y="185.191" width="5.78722" height="5.78723" fill="#A1A1A1"/>
<rect x="69.4453" y="69.4473" width="5.78722" height="5.78723" fill="#A1A1A1"/>
<rect x="69.4453" y="150.468" width="5.78722" height="5.78723" fill="#A1A1A1"/>
<rect x="69.4453" y="231.489" width="5.78722" height="5.78723" fill="#A1A1A1"/>
<rect x="150.469" y="69.4473" width="5.78722" height="5.78723" fill="#A1A1A1"/>
<rect x="150.469" y="150.468" width="5.78722" height="5.78723" fill="#A1A1A1"/>
<rect x="150.469" y="231.489" width="5.78722" height="5.78723" fill="#A1A1A1"/>
<rect x="109.957" y="109.958" width="5.78722" height="5.78723" fill="#A1A1A1"/>
<rect x="109.957" y="190.979" width="5.78722" height="5.78723" fill="#A1A1A1"/>
<rect x="231.488" y="69.4473" width="5.78722" height="5.78723" fill="#A1A1A1"/>
<rect x="231.488" y="150.468" width="5.78722" height="5.78723" fill="#A1A1A1"/>
<rect x="231.488" y="231.489" width="5.78722" height="5.78723" fill="#A1A1A1"/>
<rect x="190.977" y="109.958" width="5.78722" height="5.78723" fill="#A1A1A1"/>
<rect x="190.977" y="190.979" width="5.78722" height="5.78723" fill="#A1A1A1"/>
<rect x="69.4453" y="40.5107" width="5.78722" height="5.78723" fill="#A1A1A1"/>
<rect x="69.4453" y="121.532" width="5.78722" height="5.78723" fill="#A1A1A1"/>
<rect x="69.4453" y="202.553" width="5.78722" height="5.78723" fill="#A1A1A1"/>
<rect x="150.469" y="40.5107" width="5.78722" height="5.78723" fill="#A1A1A1"/>
<rect x="150.469" y="121.532" width="5.78722" height="5.78723" fill="#A1A1A1"/>
<rect x="150.469" y="202.553" width="5.78722" height="5.78723" fill="#A1A1A1"/>
<rect x="109.957" y="81.0215" width="5.78722" height="5.78723" fill="#A1A1A1"/>
<rect x="109.957" y="162.042" width="5.78722" height="5.78723" fill="#A1A1A1"/>
<rect x="231.488" y="40.5107" width="5.78722" height="5.78723" fill="#A1A1A1"/>
<rect x="231.488" y="121.532" width="5.78722" height="5.78723" fill="#A1A1A1"/>
<rect x="231.488" y="202.553" width="5.78722" height="5.78723" fill="#A1A1A1"/>
<rect x="190.977" y="81.0215" width="5.78722" height="5.78723" fill="#A1A1A1"/>
<rect x="190.977" y="162.042" width="5.78722" height="5.78723" fill="#A1A1A1"/>
<rect x="69.4453" y="57.873" width="5.78722" height="5.78723" fill="#A1A1A1"/>
<rect x="69.4453" y="138.894" width="5.78722" height="5.78723" fill="#A1A1A1"/>
<rect x="69.4453" y="219.915" width="5.78722" height="5.78723" fill="#A1A1A1"/>
<rect x="150.469" y="57.873" width="5.78722" height="5.78723" fill="#A1A1A1"/>
<rect x="150.469" y="138.894" width="5.78722" height="5.78723" fill="#A1A1A1"/>
<rect x="150.469" y="219.915" width="5.78722" height="5.78723" fill="#A1A1A1"/>
<rect x="109.957" y="98.3828" width="5.78722" height="5.78723" fill="#A1A1A1"/>
<rect x="109.957" y="179.404" width="5.78722" height="5.78723" fill="#A1A1A1"/>
<rect x="231.488" y="57.873" width="5.78722" height="5.78723" fill="#A1A1A1"/>
<rect x="231.488" y="138.894" width="5.78722" height="5.78723" fill="#A1A1A1"/>
<rect x="231.488" y="219.915" width="5.78722" height="5.78723" fill="#A1A1A1"/>
<rect x="190.977" y="98.3828" width="5.78722" height="5.78723" fill="#A1A1A1"/>
<rect x="190.977" y="179.404" width="5.78722" height="5.78723" fill="#A1A1A1"/>
<ellipse cx="96.2058" cy="94.6961" rx="12.5926" ry="12.5926" fill="black"/>
<path d="M138.927 96.1105C139.708 95.3295 139.708 94.0631 138.927 93.2821L126.199 80.5542C125.418 79.7731 124.152 79.7731 123.371 80.5542C122.589 81.3352 122.589 82.6015 123.371 83.3826L134.684 94.6963L123.371 106.01C122.589 106.791 122.589 108.057 123.371 108.838C124.152 109.619 125.418 109.619 126.199 108.838L138.927 96.1105ZM110.816 94.6963V96.6963H137.513V94.6963V92.6963H110.816V94.6963Z" fill="white"/>
<path d="M97.6212 51.9784C96.8402 51.1973 95.5739 51.1973 94.7928 51.9784L82.0649 64.7063C81.2838 65.4873 81.2838 66.7537 82.0649 67.5347C82.8459 68.3158 84.1123 68.3158 84.8933 67.5347L96.207 56.221L107.521 67.5347C108.302 68.3158 109.568 68.3158 110.349 67.5347C111.13 66.7537 111.13 65.4873 110.349 64.7063L97.6212 51.9784ZM96.207 80.0889L98.207 80.0889L98.207 53.3926L96.207 53.3926L94.207 53.3926L94.207 80.0889L96.207 80.0889Z" fill="white"/>
<path d="M94.7928 137.414C95.5739 138.195 96.8402 138.195 97.6212 137.414L110.349 124.686C111.13 123.905 111.13 122.639 110.349 121.858C109.568 121.077 108.302 121.077 107.521 121.858L96.207 133.172L84.8933 121.858C84.1123 121.077 82.8459 121.077 82.0649 121.858C81.2838 122.639 81.2838 123.905 82.0649 124.686L94.7928 137.414ZM96.207 109.304L94.207 109.304L94.207 136L96.207 136L98.207 136L98.207 109.304L96.207 109.304Z" fill="white"/>
<path d="M52.4833 93.2821C51.7022 94.0631 51.7022 95.3295 52.4833 96.1105L65.2112 108.838C65.9923 109.619 67.2586 109.619 68.0396 108.838C68.8207 108.057 68.8207 106.791 68.0396 106.01L56.7259 94.6963L68.0396 83.3826C68.8207 82.6015 68.8207 81.3352 68.0396 80.5542C67.2586 79.7731 65.9923 79.7731 65.2112 80.5542L52.4833 93.2821ZM80.5938 94.6963L80.5938 92.6963L53.8975 92.6963L53.8975 94.6963L53.8975 96.6963L80.5937 96.6963L80.5938 94.6963Z" fill="white"/>
</svg>
