<svg width="36" height="36" viewBox="0 0 36 36" fill="none" xmlns="http://www.w3.org/2000/svg">
<g clip-path="url(#clip0_2190_749)">
<mask id="mask0_2190_749" style="mask-type:luminance" maskUnits="userSpaceOnUse" x="0" y="0" width="36" height="36">
<path d="M0 3.8147e-06H36V36H0V3.8147e-06Z" fill="white"/>
</mask>
<g mask="url(#mask0_2190_749)">
<path d="M14.6109 4.87132V2.74922C14.6109 1.81322 15.3695 1.05469 16.3055 1.05469H19.6945C20.6305 1.05469 21.3891 1.81322 21.3891 2.74922V4.87132C22.6323 5.19216 23.8066 5.6847 24.8849 6.32243C24.8849 6.32243 25.6655 5.54182 26.3874 4.81936C27.0494 4.15793 28.122 4.15793 28.784 4.81936C29.516 5.55139 30.4486 6.48394 31.1806 7.21596C31.8421 7.87796 31.8421 8.95064 31.1806 9.61264C30.4582 10.3345 29.6776 11.1151 29.6776 11.1151C30.3153 12.1934 30.8078 13.3677 31.1287 14.6109H33.2508C34.1867 14.6109 34.9453 15.3695 34.9453 16.3055V19.6945C34.9453 20.6305 34.1867 21.3891 33.2508 21.3891H31.1287C30.8078 22.6323 30.3153 23.8065 29.6776 24.8849C29.6776 24.8849 30.4582 25.6655 31.1806 26.3874C31.8421 27.0494 31.8421 28.122 31.1806 28.784C30.4486 29.516 29.516 30.4486 28.784 31.1806C28.122 31.842 27.0494 31.842 26.3874 31.1806C25.6655 30.4582 24.8849 29.6776 24.8849 29.6776C23.8066 30.3153 22.6323 30.8078 21.3891 31.1286V33.2508C21.3891 34.1867 20.6305 34.9453 19.6945 34.9453H16.3055C15.3695 34.9453 14.6109 34.1867 14.6109 33.2508V31.1286C13.3677 30.8078 12.1934 30.3153 11.1151 29.6776C11.1151 29.6776 10.3345 30.4582 9.61263 31.1806C8.95064 31.842 7.87802 31.842 7.21603 31.1806C6.48401 30.4486 5.55138 29.516 4.81936 28.784C4.15793 28.122 4.15793 27.0494 4.81936 26.3874C5.54182 25.6655 6.32243 24.8849 6.32243 24.8849C5.68477 23.8065 5.19223 22.6323 4.87132 21.3891H2.74922C1.81329 21.3891 1.05469 20.6305 1.05469 19.6945V16.3055C1.05469 15.3695 1.81329 14.6109 2.74922 14.6109H4.87132C5.19223 13.3677 5.68477 12.1934 6.32243 11.1151C6.32243 11.1151 5.54182 10.3345 4.81936 9.61264C4.15793 8.95064 4.15793 7.87796 4.81936 7.21596C5.55138 6.48394 6.48401 5.55139 7.21603 4.81936C7.87802 4.15793 8.95064 4.15793 9.61263 4.81936C10.3345 5.54182 11.1151 6.32243 11.1151 6.32243C12.1934 5.6847 13.3677 5.19216 14.6109 4.87132Z" stroke="white" stroke-width="2" stroke-miterlimit="10" stroke-linecap="round" stroke-linejoin="round"/>
<path d="M18.0016 10.092C22.3661 10.092 25.9094 13.6353 25.9094 17.9999C25.9094 22.3645 22.3661 25.9077 18.0016 25.9077C13.6371 25.9077 10.0938 22.3645 10.0938 17.9999C10.0938 13.6353 13.6371 10.092 18.0016 10.092Z" stroke="white" stroke-width="2" stroke-miterlimit="10" stroke-linecap="round" stroke-linejoin="round"/>
</g>
</g>
<defs>
<clipPath id="clip0_2190_749">
<rect width="36" height="36" fill="white"/>
</clipPath>
</defs>
</svg>
