<svg width="32" height="32" viewBox="0 0 32 32" fill="none" xmlns="http://www.w3.org/2000/svg">
<path d="M19.5 14.75H12.5C11.9033 14.75 11.331 14.5129 10.909 14.091C10.4871 13.669 10.25 13.0967 10.25 12.5C10.25 11.9033 10.4871 11.331 10.909 10.909C11.331 10.4871 11.9033 10.25 12.5 10.25H19.5C20.0967 10.25 20.669 10.4871 21.091 10.909C21.5129 11.331 21.75 11.9033 21.75 12.5C21.75 13.0967 21.5129 13.669 21.091 14.091C20.669 14.5129 20.0967 14.75 19.5 14.75ZM12.5 11.75C12.3011 11.75 12.1103 11.829 11.9697 11.9697C11.829 12.1103 11.75 12.3011 11.75 12.5C11.75 12.6989 11.829 12.8897 11.9697 13.0303C12.1103 13.171 12.3011 13.25 12.5 13.25H19.5C19.6989 13.25 19.8897 13.171 20.0303 13.0303C20.171 12.8897 20.25 12.6989 20.25 12.5C20.25 12.3011 20.171 12.1103 20.0303 11.9697C19.8897 11.829 19.6989 11.75 19.5 11.75H12.5Z" fill="white"/>
<path d="M23 29.75H9C8.66857 29.7497 8.35081 29.6179 8.11646 29.3835C7.8821 29.1492 7.75031 28.8314 7.75 28.5V26C7.75005 25.8011 7.82909 25.6104 7.96973 25.4697C8.11037 25.3291 8.3011 25.2501 8.5 25.25H23.5C23.6989 25.2501 23.8896 25.3291 24.0303 25.4697C24.1709 25.6104 24.2499 25.8011 24.25 26V28.5C24.2497 28.8314 24.1179 29.1492 23.8835 29.3835C23.6492 29.6179 23.3314 29.7497 23 29.75ZM9.25 28.25H22.75V26.75H9.25V28.25Z" fill="white"/>
<path d="M21.5001 23.75H10.5001C10.3656 23.75 10.2335 23.7138 10.1177 23.6452C10.0019 23.5766 9.90673 23.4782 9.84211 23.3601C9.7775 23.2421 9.74583 23.1088 9.75044 22.9743C9.75505 22.8398 9.79576 22.709 9.8683 22.5957C10.4441 21.696 10.9233 20.7381 11.298 19.7378C11.9776 17.9091 12.3008 15.9673 12.2501 14.0171C12.2479 13.9172 12.2657 13.8178 12.3024 13.7249C12.3391 13.6319 12.3939 13.5473 12.4638 13.4758C12.5337 13.4043 12.6171 13.3476 12.7092 13.3088C12.8013 13.27 12.9002 13.25 13.0001 13.25H19.0001C19.1001 13.25 19.199 13.27 19.2911 13.3088C19.3832 13.3476 19.4666 13.4043 19.5365 13.4758C19.6063 13.5473 19.6612 13.6319 19.6979 13.7249C19.7346 13.8178 19.7524 13.9172 19.7501 14.0171C19.6649 17.0509 20.4948 20.0401 22.132 22.5957C22.2045 22.709 22.2452 22.8398 22.2498 22.9743C22.2545 23.1088 22.2228 23.2421 22.1582 23.3601C22.0936 23.4782 21.9984 23.5766 21.8826 23.6452C21.7668 23.7138 21.6347 23.75 21.5001 23.75ZM11.8068 22.25H20.1935C19.8514 21.6079 19.5523 20.9438 19.298 20.2622C18.6398 18.4972 18.2852 16.6334 18.2491 14.75H13.7511C13.7151 16.6334 13.3605 18.4972 12.7023 20.2622C12.448 20.9439 12.1488 21.6079 11.8068 22.25Z" fill="white"/>
<path d="M23.4999 26.75H8.49995C8.3642 26.75 8.23101 26.7131 8.11456 26.6434C7.99812 26.5736 7.90279 26.4736 7.83874 26.3539C7.77469 26.2342 7.74432 26.0994 7.75087 25.9638C7.75743 25.8282 7.80065 25.6969 7.87595 25.584L9.87595 22.584C9.9444 22.4812 10.0372 22.397 10.146 22.3387C10.2549 22.2804 10.3765 22.25 10.4999 22.25H21.4999C21.6234 22.25 21.745 22.2804 21.8539 22.3387C21.9627 22.397 22.0555 22.4812 22.1239 22.584L24.1239 25.584C24.1992 25.6969 24.2425 25.8282 24.249 25.9638C24.2556 26.0994 24.2252 26.2342 24.1612 26.3539C24.0971 26.4736 24.0018 26.5736 23.8853 26.6434C23.7689 26.7131 23.6357 26.75 23.4999 26.75ZM9.90132 25.25H22.0986L21.0986 23.75H10.9013L9.90132 25.25Z" fill="white"/>
<path d="M19.8886 11.7498H12.1113C11.9473 11.7498 11.7879 11.6962 11.6573 11.5969C11.5268 11.4977 11.4324 11.3585 11.3886 11.2005L10.2773 7.20047C10.2405 7.06795 10.2409 6.92788 10.2784 6.79557C10.3159 6.66326 10.3891 6.54381 10.4899 6.45026C10.5907 6.35672 10.7152 6.29269 10.85 6.26517C10.9847 6.23765 11.1244 6.2477 11.2538 6.29422L13.5068 7.10522L15.3974 4.55346C15.4703 4.46399 15.5621 4.39186 15.6664 4.34233C15.7706 4.29279 15.8845 4.26709 15.9999 4.26709C16.1153 4.26709 16.2293 4.29279 16.3335 4.34233C16.4377 4.39186 16.5296 4.46399 16.6025 4.55346L18.4931 7.10522L20.746 6.29422C20.8754 6.2477 21.0151 6.23765 21.1499 6.26517C21.2846 6.29269 21.4092 6.35672 21.51 6.45026C21.6108 6.54381 21.6839 6.66326 21.7214 6.79557C21.7589 6.92788 21.7593 7.06795 21.7226 7.20047L20.6113 11.2005C20.5674 11.3585 20.473 11.4977 20.3425 11.5969C20.212 11.6962 20.0525 11.7498 19.8886 11.7498ZM12.6816 10.2498H19.3183L19.8886 8.19706L18.4765 8.70536C18.3249 8.7605 18.1595 8.76504 18.0051 8.7183C17.8507 8.67156 17.7156 8.57605 17.6201 8.44608L15.9999 6.25956L14.3798 8.44608C14.2844 8.57627 14.1493 8.67194 13.9949 8.7187C13.8404 8.76546 13.6749 8.76078 13.5234 8.70536L12.1113 8.19706L12.6816 10.2498Z" fill="white"/>
<path d="M16 4C16.5523 4 17 3.55228 17 3C17 2.44772 16.5523 2 16 2C15.4477 2 15 2.44772 15 3C15 3.55228 15.4477 4 16 4Z" fill="white"/>
<path d="M10 6C10.5523 6 11 5.55228 11 5C11 4.44772 10.5523 4 10 4C9.44772 4 9 4.44772 9 5C9 5.55228 9.44772 6 10 6Z" fill="white"/>
<path d="M22 6C22.5523 6 23 5.55228 23 5C23 4.44772 22.5523 4 22 4C21.4477 4 21 4.44772 21 5C21 5.55228 21.4477 6 22 6Z" fill="white"/>
</svg>
