<svg width="272" height="272" viewBox="0 0 272 272" fill="none" xmlns="http://www.w3.org/2000/svg">
<rect width="4.94532" height="4.9453" transform="matrix(1 0 0 -1 197.812 212.648)" fill="#A1A1A1"/>
<rect width="4.94532" height="4.9453" transform="matrix(1 0 0 -1 138.473 212.648)" fill="#A1A1A1"/>
<rect width="4.94532" height="4.9453" transform="matrix(1 0 0 -1 168.145 212.648)" fill="#A1A1A1"/>
<rect width="4.94532" height="4.9453" transform="matrix(1 0 0 -1 108.801 212.648)" fill="#A1A1A1"/>
<rect width="4.94532" height="4.9453" transform="matrix(1 0 0 -1 79.1289 212.648)" fill="#A1A1A1"/>
<rect width="4.94532" height="4.9453" transform="matrix(1 0 0 -1 202.762 212.648)" fill="#A1A1A1"/>
<rect width="4.94532" height="4.9453" transform="matrix(1 0 0 -1 143.414 212.648)" fill="#A1A1A1"/>
<rect width="4.94532" height="4.9453" transform="matrix(1 0 0 -1 173.09 212.648)" fill="#A1A1A1"/>
<rect width="4.94532" height="4.9453" transform="matrix(1 0 0 -1 113.75 212.648)" fill="#A1A1A1"/>
<rect width="4.94532" height="4.9453" transform="matrix(1 0 0 -1 84.0742 212.648)" fill="#A1A1A1"/>
<rect width="4.94532" height="4.9453" transform="matrix(1 0 0 -1 197.812 182.977)" fill="#A1A1A1"/>
<rect width="4.94532" height="4.9453" transform="matrix(1 0 0 -1 138.473 182.977)" fill="#A1A1A1"/>
<rect width="4.94532" height="4.9453" transform="matrix(1 0 0 -1 168.145 182.977)" fill="#A1A1A1"/>
<rect width="4.94532" height="4.9453" transform="matrix(1 0 0 -1 108.801 182.977)" fill="#A1A1A1"/>
<rect width="4.94532" height="4.9453" transform="matrix(1 0 0 -1 79.1289 182.977)" fill="#A1A1A1"/>
<rect width="4.94532" height="4.9453" transform="matrix(1 0 0 -1 197.812 123.633)" fill="#A1A1A1"/>
<rect width="4.94532" height="4.9453" transform="matrix(1 0 0 -1 138.473 123.633)" fill="#A1A1A1"/>
<rect width="4.94532" height="4.9453" transform="matrix(1 0 0 -1 168.145 123.633)" fill="#A1A1A1"/>
<rect width="4.94532" height="4.9453" transform="matrix(1 0 0 -1 108.801 123.633)" fill="#A1A1A1"/>
<rect width="4.94532" height="4.9453" transform="matrix(1 0 0 -1 79.1289 123.633)" fill="#A1A1A1"/>
<rect width="4.94532" height="4.9453" transform="matrix(1 0 0 -1 197.812 153.305)" fill="#A1A1A1"/>
<rect width="4.94532" height="4.9453" transform="matrix(1 0 0 -1 138.473 153.305)" fill="#A1A1A1"/>
<rect width="4.94532" height="4.9453" transform="matrix(1 0 0 -1 168.145 153.305)" fill="#A1A1A1"/>
<rect width="4.94532" height="4.9453" transform="matrix(1 0 0 -1 108.801 153.305)" fill="#A1A1A1"/>
<rect width="4.94532" height="4.9453" transform="matrix(1 0 0 -1 79.1289 153.305)" fill="#A1A1A1"/>
<rect width="4.94532" height="4.9453" transform="matrix(1 0 0 -1 197.812 93.9609)" fill="#A1A1A1"/>
<rect width="4.94532" height="4.9453" transform="matrix(1 0 0 -1 138.473 93.9609)" fill="#A1A1A1"/>
<rect width="4.94532" height="4.9453" transform="matrix(1 0 0 -1 168.145 93.9609)" fill="#A1A1A1"/>
<rect width="4.94532" height="4.9453" transform="matrix(1 0 0 -1 108.801 93.9609)" fill="#A1A1A1"/>
<rect width="4.94532" height="4.9453" transform="matrix(1 0 0 -1 79.1289 93.9609)" fill="#A1A1A1"/>
<rect width="4.94532" height="4.9453" transform="matrix(1 0 0 -1 197.812 64.2891)" fill="#A1A1A1"/>
<rect width="4.94532" height="4.9453" transform="matrix(1 0 0 -1 138.473 64.2891)" fill="#A1A1A1"/>
<rect width="4.94532" height="4.9453" transform="matrix(1 0 0 -1 168.145 64.2891)" fill="#A1A1A1"/>
<rect width="4.94532" height="4.9453" transform="matrix(1 0 0 -1 108.801 64.2891)" fill="#A1A1A1"/>
<rect width="4.94532" height="4.9453" transform="matrix(1 0 0 -1 79.1289 64.2891)" fill="#A1A1A1"/>
<rect width="4.94532" height="4.9453" transform="matrix(1 0 0 -1 267.047 123.633)" fill="#A1A1A1"/>
<rect width="4.94532" height="4.9453" transform="matrix(1 0 0 -1 29.6797 123.633)" fill="#A1A1A1"/>
<rect width="4.94532" height="4.9453" transform="matrix(-1 -8.74246e-08 -8.7421e-08 1 242.32 148.367)" fill="#A1A1A1"/>
<rect width="4.9453" height="4.94532" transform="matrix(1.31132e-07 -1 -1 -1.31137e-07 123.637 242.328)" fill="#A1A1A1"/>
<rect width="4.94532" height="4.9453" transform="matrix(1 0 0 -1 108.801 4.94531)" fill="#A1A1A1"/>
<rect width="4.94532" height="4.9453" transform="matrix(-1 -8.74246e-08 -8.7421e-08 1 163.199 267.055)" fill="#A1A1A1"/>
<rect width="4.9453" height="4.94532" transform="matrix(1.31132e-07 -1 -1 -1.31137e-07 4.95312 163.203)" fill="#A1A1A1"/>
<rect width="4.94532" height="4.9453" transform="matrix(1 0 0 -1 79.1289 4.94531)" fill="#A1A1A1"/>
<rect width="4.94532" height="4.9453" transform="matrix(-1 -8.74246e-08 -8.7421e-08 1 192.867 267.055)" fill="#A1A1A1"/>
<rect width="4.9453" height="4.94532" transform="matrix(1.31132e-07 -1 -1 -1.31137e-07 4.95312 192.875)" fill="#A1A1A1"/>
<rect width="4.94532" height="4.9453" transform="matrix(1 0 0 -1 197.812 4.94531)" fill="#A1A1A1"/>
<rect width="4.94532" height="4.9453" transform="matrix(1 0 0 -1 202.762 182.977)" fill="#A1A1A1"/>
<rect width="4.94532" height="4.9453" transform="matrix(1 0 0 -1 143.414 182.977)" fill="#A1A1A1"/>
<rect width="4.94532" height="4.9453" transform="matrix(1 0 0 -1 173.09 182.977)" fill="#A1A1A1"/>
<rect width="4.94532" height="4.9453" transform="matrix(1 0 0 -1 113.75 182.977)" fill="#A1A1A1"/>
<rect width="4.94532" height="4.9453" transform="matrix(1 0 0 -1 84.0742 182.977)" fill="#A1A1A1"/>
<rect width="4.94532" height="4.9453" transform="matrix(1 0 0 -1 202.762 123.633)" fill="#A1A1A1"/>
<rect width="4.94532" height="4.9453" transform="matrix(1 0 0 -1 143.414 123.633)" fill="#A1A1A1"/>
<rect width="4.94532" height="4.9453" transform="matrix(1 0 0 -1 173.09 123.633)" fill="#A1A1A1"/>
<rect width="4.94532" height="4.9453" transform="matrix(1 0 0 -1 113.75 123.633)" fill="#A1A1A1"/>
<rect width="4.94532" height="4.9453" transform="matrix(1 0 0 -1 84.0742 123.633)" fill="#A1A1A1"/>
<rect width="4.94532" height="4.9453" transform="matrix(1 0 0 -1 202.762 153.305)" fill="#A1A1A1"/>
<rect width="4.94532" height="4.9453" transform="matrix(1 0 0 -1 143.414 153.305)" fill="#A1A1A1"/>
<rect width="4.94532" height="4.9453" transform="matrix(1 0 0 -1 173.09 153.305)" fill="#A1A1A1"/>
<rect width="4.94532" height="4.9453" transform="matrix(1 0 0 -1 113.75 153.305)" fill="#A1A1A1"/>
<rect width="4.94532" height="4.9453" transform="matrix(1 0 0 -1 84.0742 153.305)" fill="#A1A1A1"/>
<rect width="4.94532" height="4.9453" transform="matrix(1 0 0 -1 202.762 93.9609)" fill="#A1A1A1"/>
<rect width="4.94532" height="4.9453" transform="matrix(1 0 0 -1 143.414 93.9609)" fill="#A1A1A1"/>
<rect width="4.94532" height="4.9453" transform="matrix(1 0 0 -1 173.09 93.9609)" fill="#A1A1A1"/>
<rect width="4.94532" height="4.9453" transform="matrix(1 0 0 -1 113.75 93.9609)" fill="#A1A1A1"/>
<rect width="4.94532" height="4.9453" transform="matrix(1 0 0 -1 84.0742 93.9609)" fill="#A1A1A1"/>
<rect width="4.94532" height="4.9453" transform="matrix(1 0 0 -1 202.762 64.2891)" fill="#A1A1A1"/>
<rect width="4.94532" height="4.9453" transform="matrix(1 0 0 -1 143.414 64.2891)" fill="#A1A1A1"/>
<rect width="4.94532" height="4.9453" transform="matrix(1 0 0 -1 173.09 64.2891)" fill="#A1A1A1"/>
<rect width="4.94532" height="4.9453" transform="matrix(1 0 0 -1 113.75 64.2891)" fill="#A1A1A1"/>
<rect width="4.94532" height="4.9453" transform="matrix(1 0 0 -1 84.0742 64.2891)" fill="#A1A1A1"/>
<rect width="4.94532" height="4.9453" transform="matrix(1 0 0 -1 89.0195 34.6172)" fill="#A1A1A1"/>
<rect width="4.94532" height="4.9453" transform="matrix(-1 -8.74246e-08 -8.7421e-08 1 182.98 237.383)" fill="#A1A1A1"/>
<rect width="4.9453" height="4.94532" transform="matrix(1.31132e-07 -1 -1 -1.31137e-07 34.6211 182.988)" fill="#A1A1A1"/>
<rect width="4.94532" height="4.9453" transform="matrix(1 0 0 -1 227.488 34.6172)" fill="#A1A1A1"/>
<rect width="4.94532" height="4.9453" transform="matrix(1 0 0 -1 267.047 4.94531)" fill="#A1A1A1"/>
<rect width="4.94532" height="4.9453" transform="matrix(1 0 0 -1 118.691 34.6172)" fill="#A1A1A1"/>
<rect width="4.94532" height="4.9453" transform="matrix(-1 -8.74246e-08 -8.7421e-08 1 153.305 237.383)" fill="#A1A1A1"/>
<rect width="4.9453" height="4.94532" transform="matrix(1.31132e-07 -1 -1 -1.31137e-07 34.6211 153.316)" fill="#A1A1A1"/>
<rect width="4.94532" height="4.9453" transform="matrix(1 0 0 -1 148.363 34.6172)" fill="#A1A1A1"/>
<rect width="4.94532" height="4.9453" transform="matrix(1 0 0 -1 118.691 4.94531)" fill="#A1A1A1"/>
<rect width="4.94532" height="4.9453" transform="matrix(-1 -8.74246e-08 -8.7421e-08 1 153.305 267.055)" fill="#A1A1A1"/>
<rect width="4.9453" height="4.94532" transform="matrix(1.31132e-07 -1 -1 -1.31137e-07 4.95312 153.316)" fill="#A1A1A1"/>
<rect width="4.94532" height="4.9453" transform="matrix(1 0 0 -1 148.363 4.94531)" fill="#A1A1A1"/>
<rect width="4.94532" height="4.9453" transform="matrix(1 0 0 -1 59.3516 34.6172)" fill="#A1A1A1"/>
<rect width="4.94532" height="4.9453" transform="matrix(-1 -8.74246e-08 -8.7421e-08 1 212.652 237.383)" fill="#A1A1A1"/>
<rect width="4.9453" height="4.94532" transform="matrix(1.31132e-07 -1 -1 -1.31137e-07 34.6211 212.66)" fill="#A1A1A1"/>
<rect width="4.94532" height="4.9453" transform="matrix(1 0 0 -1 197.812 34.6172)" fill="#A1A1A1"/>
<rect width="4.94532" height="4.9453" transform="matrix(1 0 0 -1 237.379 4.94531)" fill="#A1A1A1"/>
<rect width="4.94532" height="4.9453" transform="matrix(1 0 0 -1 49.4609 4.94531)" fill="#A1A1A1"/>
<rect width="4.94532" height="4.9453" transform="matrix(-1 -8.74246e-08 -8.7421e-08 1 222.543 267.055)" fill="#A1A1A1"/>
<rect width="4.9453" height="4.94532" transform="matrix(1.31132e-07 -1 -1 -1.31137e-07 4.95312 222.547)" fill="#A1A1A1"/>
<rect width="4.9453" height="4.94532" transform="matrix(-4.37105e-08 -1 -1 4.37123e-08 202.762 212.648)" fill="#A1A1A1"/>
<rect width="4.9453" height="4.94532" transform="matrix(-4.37105e-08 -1 -1 4.37123e-08 143.414 212.648)" fill="#A1A1A1"/>
<rect width="4.9453" height="4.94532" transform="matrix(-4.37105e-08 -1 -1 4.37123e-08 173.09 212.648)" fill="#A1A1A1"/>
<rect width="4.9453" height="4.94532" transform="matrix(-4.37105e-08 -1 -1 4.37123e-08 113.75 212.648)" fill="#A1A1A1"/>
<rect width="4.9453" height="4.94532" transform="matrix(-4.37105e-08 -1 -1 4.37123e-08 84.0742 212.648)" fill="#A1A1A1"/>
<rect width="4.9453" height="4.94532" transform="matrix(-4.37105e-08 -1 -1 4.37123e-08 207.703 212.648)" fill="#A1A1A1"/>
<rect width="4.9453" height="4.94532" transform="matrix(-4.37105e-08 -1 -1 4.37123e-08 148.363 212.648)" fill="#A1A1A1"/>
<rect width="4.9453" height="4.94532" transform="matrix(-4.37105e-08 -1 -1 4.37123e-08 178.031 212.648)" fill="#A1A1A1"/>
<rect width="4.9453" height="4.94532" transform="matrix(-4.37105e-08 -1 -1 4.37123e-08 118.691 212.648)" fill="#A1A1A1"/>
<rect width="4.9453" height="4.94532" transform="matrix(-4.37105e-08 -1 -1 4.37123e-08 89.0195 212.648)" fill="#A1A1A1"/>
<rect width="4.9453" height="4.94532" transform="matrix(-4.37105e-08 -1 -1 4.37123e-08 202.762 182.977)" fill="#A1A1A1"/>
<rect width="4.9453" height="4.94532" transform="matrix(-4.37105e-08 -1 -1 4.37123e-08 143.414 182.977)" fill="#A1A1A1"/>
<rect width="4.9453" height="4.94532" transform="matrix(-4.37105e-08 -1 -1 4.37123e-08 173.09 182.977)" fill="#A1A1A1"/>
<rect width="4.9453" height="4.94532" transform="matrix(-4.37105e-08 -1 -1 4.37123e-08 113.75 182.977)" fill="#A1A1A1"/>
<rect width="4.9453" height="4.94532" transform="matrix(-4.37105e-08 -1 -1 4.37123e-08 84.0742 182.977)" fill="#A1A1A1"/>
<rect width="4.9453" height="4.94532" transform="matrix(-4.37105e-08 -1 -1 4.37123e-08 202.762 123.633)" fill="#A1A1A1"/>
<rect width="4.9453" height="4.94532" transform="matrix(-4.37105e-08 -1 -1 4.37123e-08 143.414 123.633)" fill="#A1A1A1"/>
<rect width="4.9453" height="4.94532" transform="matrix(-4.37105e-08 -1 -1 4.37123e-08 173.09 123.633)" fill="#A1A1A1"/>
<rect width="4.9453" height="4.94532" transform="matrix(-4.37105e-08 -1 -1 4.37123e-08 113.75 123.633)" fill="#A1A1A1"/>
<rect width="4.9453" height="4.94532" transform="matrix(-4.37105e-08 -1 -1 4.37123e-08 84.0742 123.633)" fill="#A1A1A1"/>
<rect width="4.9453" height="4.94532" transform="matrix(-4.37105e-08 -1 -1 4.37123e-08 202.762 153.305)" fill="#A1A1A1"/>
<rect width="4.9453" height="4.94532" transform="matrix(-4.37105e-08 -1 -1 4.37123e-08 143.414 153.305)" fill="#A1A1A1"/>
<rect width="4.9453" height="4.94532" transform="matrix(-4.37105e-08 -1 -1 4.37123e-08 173.09 153.305)" fill="#A1A1A1"/>
<rect width="4.9453" height="4.94532" transform="matrix(-4.37105e-08 -1 -1 4.37123e-08 113.75 153.305)" fill="#A1A1A1"/>
<rect width="4.9453" height="4.94532" transform="matrix(-4.37105e-08 -1 -1 4.37123e-08 84.0742 153.305)" fill="#A1A1A1"/>
<rect width="4.9453" height="4.94532" transform="matrix(-4.37105e-08 -1 -1 4.37123e-08 202.762 93.9609)" fill="#A1A1A1"/>
<rect width="4.9453" height="4.94532" transform="matrix(-4.37105e-08 -1 -1 4.37123e-08 143.414 93.9609)" fill="#A1A1A1"/>
<rect width="4.9453" height="4.94532" transform="matrix(-4.37105e-08 -1 -1 4.37123e-08 173.09 93.9609)" fill="#A1A1A1"/>
<rect width="4.9453" height="4.94532" transform="matrix(-4.37105e-08 -1 -1 4.37123e-08 113.75 93.9609)" fill="#A1A1A1"/>
<rect width="4.9453" height="4.94532" transform="matrix(-4.37105e-08 -1 -1 4.37123e-08 84.0742 93.9609)" fill="#A1A1A1"/>
<rect width="4.9453" height="4.94532" transform="matrix(-4.37105e-08 -1 -1 4.37123e-08 202.762 64.2891)" fill="#A1A1A1"/>
<rect width="4.9453" height="4.94532" transform="matrix(-4.37105e-08 -1 -1 4.37123e-08 143.414 64.2891)" fill="#A1A1A1"/>
<rect width="4.9453" height="4.94532" transform="matrix(-4.37105e-08 -1 -1 4.37123e-08 173.09 64.2891)" fill="#A1A1A1"/>
<rect width="4.9453" height="4.94532" transform="matrix(-4.37105e-08 -1 -1 4.37123e-08 113.75 64.2891)" fill="#A1A1A1"/>
<rect width="4.9453" height="4.94532" transform="matrix(-4.37105e-08 -1 -1 4.37123e-08 84.0742 64.2891)" fill="#A1A1A1"/>
<rect width="4.9453" height="4.94532" transform="matrix(-4.37105e-08 -1 -1 4.37123e-08 271.992 123.633)" fill="#A1A1A1"/>
<rect width="4.9453" height="4.94532" transform="matrix(-4.37105e-08 -1 -1 4.37123e-08 34.6211 123.633)" fill="#A1A1A1"/>
<rect width="4.9453" height="4.94532" transform="matrix(-4.37105e-08 1 1 4.37123e-08 237.379 148.367)" fill="#A1A1A1"/>
<rect width="4.94532" height="4.9453" transform="matrix(-1 -8.74246e-08 -8.7421e-08 1 123.637 237.383)" fill="#A1A1A1"/>
<rect width="4.9453" height="4.94532" transform="matrix(-4.37105e-08 -1 -1 4.37123e-08 113.75 4.94531)" fill="#A1A1A1"/>
<rect width="4.9453" height="4.94532" transform="matrix(-4.37105e-08 1 1 4.37123e-08 158.254 267.055)" fill="#A1A1A1"/>
<rect width="4.94532" height="4.9453" transform="matrix(-1 -8.74246e-08 -8.7421e-08 1 4.95312 158.258)" fill="#A1A1A1"/>
<rect width="4.9453" height="4.94532" transform="matrix(-4.37105e-08 -1 -1 4.37123e-08 84.0742 4.94531)" fill="#A1A1A1"/>
<rect width="4.9453" height="4.94532" transform="matrix(-4.37105e-08 1 1 4.37123e-08 187.926 267.055)" fill="#A1A1A1"/>
<rect width="4.94532" height="4.9453" transform="matrix(-1 -8.74246e-08 -8.7421e-08 1 4.95312 187.93)" fill="#A1A1A1"/>
<rect width="4.9453" height="4.94532" transform="matrix(-4.37105e-08 -1 -1 4.37123e-08 202.762 4.94531)" fill="#A1A1A1"/>
<rect width="4.9453" height="4.94532" transform="matrix(-4.37105e-08 -1 -1 4.37123e-08 207.703 182.977)" fill="#A1A1A1"/>
<rect width="4.9453" height="4.94532" transform="matrix(-4.37105e-08 -1 -1 4.37123e-08 148.363 182.977)" fill="#A1A1A1"/>
<rect width="4.9453" height="4.94532" transform="matrix(-4.37105e-08 -1 -1 4.37123e-08 178.031 182.977)" fill="#A1A1A1"/>
<rect width="4.9453" height="4.94532" transform="matrix(-4.37105e-08 -1 -1 4.37123e-08 118.691 182.977)" fill="#A1A1A1"/>
<rect width="4.9453" height="4.94532" transform="matrix(-4.37105e-08 -1 -1 4.37123e-08 89.0195 182.977)" fill="#A1A1A1"/>
<rect width="4.9453" height="4.94532" transform="matrix(-4.37105e-08 -1 -1 4.37123e-08 207.703 123.633)" fill="#A1A1A1"/>
<rect width="4.9453" height="4.94532" transform="matrix(-4.37105e-08 -1 -1 4.37123e-08 148.363 123.633)" fill="#A1A1A1"/>
<rect width="4.9453" height="4.94532" transform="matrix(-4.37105e-08 -1 -1 4.37123e-08 178.031 123.633)" fill="#A1A1A1"/>
<rect width="4.9453" height="4.94532" transform="matrix(-4.37105e-08 -1 -1 4.37123e-08 118.691 123.633)" fill="#A1A1A1"/>
<rect width="4.9453" height="4.94532" transform="matrix(-4.37105e-08 -1 -1 4.37123e-08 89.0195 123.633)" fill="#A1A1A1"/>
<rect width="4.9453" height="4.94532" transform="matrix(-4.37105e-08 -1 -1 4.37123e-08 207.703 153.305)" fill="#A1A1A1"/>
<rect width="4.9453" height="4.94532" transform="matrix(-4.37105e-08 -1 -1 4.37123e-08 148.363 153.305)" fill="#A1A1A1"/>
<rect width="4.9453" height="4.94532" transform="matrix(-4.37105e-08 -1 -1 4.37123e-08 178.031 153.305)" fill="#A1A1A1"/>
<rect width="4.9453" height="4.94532" transform="matrix(-4.37105e-08 -1 -1 4.37123e-08 118.691 153.305)" fill="#A1A1A1"/>
<rect width="4.9453" height="4.94532" transform="matrix(-4.37105e-08 -1 -1 4.37123e-08 89.0195 153.305)" fill="#A1A1A1"/>
<rect width="4.9453" height="4.94532" transform="matrix(-4.37105e-08 -1 -1 4.37123e-08 207.703 93.9609)" fill="#A1A1A1"/>
<rect width="4.9453" height="4.94532" transform="matrix(-4.37105e-08 -1 -1 4.37123e-08 148.363 93.9609)" fill="#A1A1A1"/>
<rect width="4.9453" height="4.94532" transform="matrix(-4.37105e-08 -1 -1 4.37123e-08 178.031 93.9609)" fill="#A1A1A1"/>
<rect width="4.9453" height="4.94532" transform="matrix(-4.37105e-08 -1 -1 4.37123e-08 118.691 93.9609)" fill="#A1A1A1"/>
<rect width="4.9453" height="4.94532" transform="matrix(-4.37105e-08 -1 -1 4.37123e-08 89.0195 93.9609)" fill="#A1A1A1"/>
<rect width="4.9453" height="4.94532" transform="matrix(-4.37105e-08 -1 -1 4.37123e-08 207.703 64.2891)" fill="#A1A1A1"/>
<rect width="4.9453" height="4.94532" transform="matrix(-4.37105e-08 -1 -1 4.37123e-08 148.363 64.2891)" fill="#A1A1A1"/>
<rect width="4.9453" height="4.94532" transform="matrix(-4.37105e-08 -1 -1 4.37123e-08 178.031 64.2891)" fill="#A1A1A1"/>
<rect width="4.9453" height="4.94532" transform="matrix(-4.37105e-08 -1 -1 4.37123e-08 118.691 64.2891)" fill="#A1A1A1"/>
<rect width="4.9453" height="4.94532" transform="matrix(-4.37105e-08 -1 -1 4.37123e-08 89.0195 64.2891)" fill="#A1A1A1"/>
<rect width="4.9453" height="4.94532" transform="matrix(-4.37105e-08 -1 -1 4.37123e-08 93.9648 34.6172)" fill="#A1A1A1"/>
<rect width="4.9453" height="4.94532" transform="matrix(-4.37105e-08 1 1 4.37123e-08 178.031 237.383)" fill="#A1A1A1"/>
<rect width="4.94532" height="4.9453" transform="matrix(-1 -8.74246e-08 -8.7421e-08 1 34.6211 178.039)" fill="#A1A1A1"/>
<rect width="4.9453" height="4.94532" transform="matrix(-4.37105e-08 -1 -1 4.37123e-08 232.43 34.6172)" fill="#A1A1A1"/>
<rect width="4.9453" height="4.94532" transform="matrix(-4.37105e-08 -1 -1 4.37123e-08 271.992 4.94531)" fill="#A1A1A1"/>
<rect width="4.9453" height="4.94532" transform="matrix(-4.37105e-08 -1 -1 4.37123e-08 123.637 34.6172)" fill="#A1A1A1"/>
<rect width="4.9453" height="4.94532" transform="matrix(-4.37105e-08 1 1 4.37123e-08 148.363 237.383)" fill="#A1A1A1"/>
<rect width="4.94532" height="4.9453" transform="matrix(-1 -8.74246e-08 -8.7421e-08 1 34.6211 148.367)" fill="#A1A1A1"/>
<rect width="4.9453" height="4.94532" transform="matrix(-4.37105e-08 -1 -1 4.37123e-08 153.305 34.6172)" fill="#A1A1A1"/>
<rect width="4.9453" height="4.94532" transform="matrix(-4.37105e-08 -1 -1 4.37123e-08 123.637 4.94531)" fill="#A1A1A1"/>
<rect width="4.9453" height="4.94532" transform="matrix(-4.37105e-08 1 1 4.37123e-08 148.363 267.055)" fill="#A1A1A1"/>
<rect width="4.94532" height="4.9453" transform="matrix(-1 -8.74246e-08 -8.7421e-08 1 4.95312 148.367)" fill="#A1A1A1"/>
<rect width="4.9453" height="4.94532" transform="matrix(-4.37105e-08 -1 -1 4.37123e-08 153.305 4.94531)" fill="#A1A1A1"/>
<rect width="4.9453" height="4.94532" transform="matrix(-4.37105e-08 -1 -1 4.37123e-08 64.293 34.6172)" fill="#A1A1A1"/>
<rect width="4.9453" height="4.94532" transform="matrix(-4.37105e-08 1 1 4.37123e-08 207.703 237.383)" fill="#A1A1A1"/>
<rect width="4.94532" height="4.9453" transform="matrix(-1 -8.74246e-08 -8.7421e-08 1 34.6211 207.711)" fill="#A1A1A1"/>
<rect width="4.9453" height="4.94532" transform="matrix(-4.37105e-08 -1 -1 4.37123e-08 202.762 34.6172)" fill="#A1A1A1"/>
<rect width="4.9453" height="4.94532" transform="matrix(-4.37105e-08 -1 -1 4.37123e-08 242.32 4.94531)" fill="#A1A1A1"/>
<rect width="4.9453" height="4.94532" transform="matrix(-4.37105e-08 -1 -1 4.37123e-08 54.4023 4.94531)" fill="#A1A1A1"/>
<rect width="4.9453" height="4.94532" transform="matrix(-4.37105e-08 1 1 4.37123e-08 217.594 267.055)" fill="#A1A1A1"/>
<rect width="4.94532" height="4.9453" transform="matrix(-1 -8.74246e-08 -8.7421e-08 1 4.95312 217.605)" fill="#A1A1A1"/>
<rect width="4.9453" height="4.94532" transform="matrix(-4.37105e-08 -1 -1 4.37123e-08 202.762 212.648)" fill="#A1A1A1"/>
<rect width="4.9453" height="4.94532" transform="matrix(-4.37105e-08 -1 -1 4.37123e-08 143.414 212.648)" fill="#A1A1A1"/>
<rect width="4.9453" height="4.94532" transform="matrix(-4.37105e-08 -1 -1 4.37123e-08 173.09 212.648)" fill="#A1A1A1"/>
<rect width="4.9453" height="4.94532" transform="matrix(-4.37105e-08 -1 -1 4.37123e-08 113.75 212.648)" fill="#A1A1A1"/>
<rect width="4.9453" height="4.94532" transform="matrix(-4.37105e-08 -1 -1 4.37123e-08 84.0742 212.648)" fill="#A1A1A1"/>
<rect width="4.9453" height="4.94532" transform="matrix(-4.37105e-08 -1 -1 4.37123e-08 207.703 212.648)" fill="#A1A1A1"/>
<rect width="4.9453" height="4.94532" transform="matrix(-4.37105e-08 -1 -1 4.37123e-08 148.363 212.648)" fill="#A1A1A1"/>
<rect width="4.9453" height="4.94532" transform="matrix(-4.37105e-08 -1 -1 4.37123e-08 178.031 212.648)" fill="#A1A1A1"/>
<rect width="4.9453" height="4.94532" transform="matrix(-4.37105e-08 -1 -1 4.37123e-08 118.691 212.648)" fill="#A1A1A1"/>
<rect width="4.9453" height="4.94532" transform="matrix(-4.37105e-08 -1 -1 4.37123e-08 89.0195 212.648)" fill="#A1A1A1"/>
<rect width="4.9453" height="4.94532" transform="matrix(-4.37105e-08 -1 -1 4.37123e-08 202.762 182.977)" fill="#A1A1A1"/>
<rect width="4.9453" height="4.94532" transform="matrix(-4.37105e-08 -1 -1 4.37123e-08 143.414 182.977)" fill="#A1A1A1"/>
<rect width="4.9453" height="4.94532" transform="matrix(-4.37105e-08 -1 -1 4.37123e-08 173.09 182.977)" fill="#A1A1A1"/>
<rect width="4.9453" height="4.94532" transform="matrix(-4.37105e-08 -1 -1 4.37123e-08 113.75 182.977)" fill="#A1A1A1"/>
<rect width="4.9453" height="4.94532" transform="matrix(-4.37105e-08 -1 -1 4.37123e-08 84.0742 182.977)" fill="#A1A1A1"/>
<rect width="4.9453" height="4.94532" transform="matrix(-4.37105e-08 -1 -1 4.37123e-08 202.762 123.633)" fill="#A1A1A1"/>
<rect width="4.9453" height="4.94532" transform="matrix(-4.37105e-08 -1 -1 4.37123e-08 143.414 123.633)" fill="#A1A1A1"/>
<rect width="4.9453" height="4.94532" transform="matrix(-4.37105e-08 -1 -1 4.37123e-08 173.09 123.633)" fill="#A1A1A1"/>
<rect width="4.9453" height="4.94532" transform="matrix(-4.37105e-08 -1 -1 4.37123e-08 113.75 123.633)" fill="#A1A1A1"/>
<rect width="4.9453" height="4.94532" transform="matrix(-4.37105e-08 -1 -1 4.37123e-08 84.0742 123.633)" fill="#A1A1A1"/>
<rect width="4.9453" height="4.94532" transform="matrix(-4.37105e-08 -1 -1 4.37123e-08 202.762 153.305)" fill="#A1A1A1"/>
<rect width="4.9453" height="4.94532" transform="matrix(-4.37105e-08 -1 -1 4.37123e-08 143.414 153.305)" fill="#A1A1A1"/>
<rect width="4.9453" height="4.94532" transform="matrix(-4.37105e-08 -1 -1 4.37123e-08 173.09 153.305)" fill="#A1A1A1"/>
<rect width="4.9453" height="4.94532" transform="matrix(-4.37105e-08 -1 -1 4.37123e-08 113.75 153.305)" fill="#A1A1A1"/>
<rect width="4.9453" height="4.94532" transform="matrix(-4.37105e-08 -1 -1 4.37123e-08 84.0742 153.305)" fill="#A1A1A1"/>
<rect width="4.9453" height="4.94532" transform="matrix(-4.37105e-08 -1 -1 4.37123e-08 202.762 93.9609)" fill="#A1A1A1"/>
<rect width="4.9453" height="4.94532" transform="matrix(-4.37105e-08 -1 -1 4.37123e-08 143.414 93.9609)" fill="#A1A1A1"/>
<rect width="4.9453" height="4.94532" transform="matrix(-4.37105e-08 -1 -1 4.37123e-08 173.09 93.9609)" fill="#A1A1A1"/>
<rect width="4.9453" height="4.94532" transform="matrix(-4.37105e-08 -1 -1 4.37123e-08 113.75 93.9609)" fill="#A1A1A1"/>
<rect width="4.9453" height="4.94532" transform="matrix(-4.37105e-08 -1 -1 4.37123e-08 84.0742 93.9609)" fill="#A1A1A1"/>
<rect width="4.9453" height="4.94532" transform="matrix(-4.37105e-08 -1 -1 4.37123e-08 202.762 64.2891)" fill="#A1A1A1"/>
<rect width="4.9453" height="4.94532" transform="matrix(-4.37105e-08 -1 -1 4.37123e-08 143.414 64.2891)" fill="#A1A1A1"/>
<rect width="4.9453" height="4.94532" transform="matrix(-4.37105e-08 -1 -1 4.37123e-08 173.09 64.2891)" fill="#A1A1A1"/>
<rect width="4.9453" height="4.94532" transform="matrix(-4.37105e-08 -1 -1 4.37123e-08 113.75 64.2891)" fill="#A1A1A1"/>
<rect width="4.9453" height="4.94532" transform="matrix(-4.37105e-08 -1 -1 4.37123e-08 84.0742 64.2891)" fill="#A1A1A1"/>
<rect width="4.9453" height="4.94532" transform="matrix(-4.37105e-08 -1 -1 4.37123e-08 271.992 123.633)" fill="#A1A1A1"/>
<rect width="4.9453" height="4.94532" transform="matrix(-4.37105e-08 -1 -1 4.37123e-08 34.6211 123.633)" fill="#A1A1A1"/>
<rect width="4.9453" height="4.94532" transform="matrix(-4.37105e-08 1 1 4.37123e-08 237.379 148.367)" fill="#A1A1A1"/>
<rect width="4.94532" height="4.9453" transform="matrix(-1 -8.74246e-08 -8.7421e-08 1 123.637 237.383)" fill="#A1A1A1"/>
<rect width="4.9453" height="4.94532" transform="matrix(-4.37105e-08 -1 -1 4.37123e-08 113.75 4.94531)" fill="#A1A1A1"/>
<rect width="4.9453" height="4.94532" transform="matrix(-4.37105e-08 1 1 4.37123e-08 158.254 267.055)" fill="#A1A1A1"/>
<rect width="4.94532" height="4.9453" transform="matrix(-1 -8.74246e-08 -8.7421e-08 1 4.95312 158.258)" fill="#A1A1A1"/>
<rect width="4.9453" height="4.94532" transform="matrix(-4.37105e-08 -1 -1 4.37123e-08 84.0742 4.94531)" fill="#A1A1A1"/>
<rect width="4.9453" height="4.94532" transform="matrix(-4.37105e-08 1 1 4.37123e-08 187.926 267.055)" fill="#A1A1A1"/>
<rect width="4.94532" height="4.9453" transform="matrix(-1 -8.74246e-08 -8.7421e-08 1 4.95312 187.93)" fill="#A1A1A1"/>
<rect width="4.9453" height="4.94532" transform="matrix(-4.37105e-08 -1 -1 4.37123e-08 202.762 4.94531)" fill="#A1A1A1"/>
<rect width="4.9453" height="4.94532" transform="matrix(-4.37105e-08 -1 -1 4.37123e-08 207.703 182.977)" fill="#A1A1A1"/>
<rect width="4.9453" height="4.94532" transform="matrix(-4.37105e-08 -1 -1 4.37123e-08 148.363 182.977)" fill="#A1A1A1"/>
<rect width="4.9453" height="4.94532" transform="matrix(-4.37105e-08 -1 -1 4.37123e-08 178.031 182.977)" fill="#A1A1A1"/>
<rect width="4.9453" height="4.94532" transform="matrix(-4.37105e-08 -1 -1 4.37123e-08 118.691 182.977)" fill="#A1A1A1"/>
<rect width="4.9453" height="4.94532" transform="matrix(-4.37105e-08 -1 -1 4.37123e-08 89.0195 182.977)" fill="#A1A1A1"/>
<rect width="4.9453" height="4.94532" transform="matrix(-4.37105e-08 -1 -1 4.37123e-08 207.703 123.633)" fill="#A1A1A1"/>
<rect width="4.9453" height="4.94532" transform="matrix(-4.37105e-08 -1 -1 4.37123e-08 148.363 123.633)" fill="#A1A1A1"/>
<rect width="4.9453" height="4.94532" transform="matrix(-4.37105e-08 -1 -1 4.37123e-08 178.031 123.633)" fill="#A1A1A1"/>
<rect width="4.9453" height="4.94532" transform="matrix(-4.37105e-08 -1 -1 4.37123e-08 118.691 123.633)" fill="#A1A1A1"/>
<rect width="4.9453" height="4.94532" transform="matrix(-4.37105e-08 -1 -1 4.37123e-08 89.0195 123.633)" fill="#A1A1A1"/>
<rect width="4.9453" height="4.94532" transform="matrix(-4.37105e-08 -1 -1 4.37123e-08 207.703 153.305)" fill="#A1A1A1"/>
<rect width="4.9453" height="4.94532" transform="matrix(-4.37105e-08 -1 -1 4.37123e-08 148.363 153.305)" fill="#A1A1A1"/>
<rect width="4.9453" height="4.94532" transform="matrix(-4.37105e-08 -1 -1 4.37123e-08 178.031 153.305)" fill="#A1A1A1"/>
<rect width="4.9453" height="4.94532" transform="matrix(-4.37105e-08 -1 -1 4.37123e-08 118.691 153.305)" fill="#A1A1A1"/>
<rect width="4.9453" height="4.94532" transform="matrix(-4.37105e-08 -1 -1 4.37123e-08 89.0195 153.305)" fill="#A1A1A1"/>
<rect width="4.9453" height="4.94532" transform="matrix(-4.37105e-08 -1 -1 4.37123e-08 207.703 93.9609)" fill="#A1A1A1"/>
<rect width="4.9453" height="4.94532" transform="matrix(-4.37105e-08 -1 -1 4.37123e-08 148.363 93.9609)" fill="#A1A1A1"/>
<rect width="4.9453" height="4.94532" transform="matrix(-4.37105e-08 -1 -1 4.37123e-08 178.031 93.9609)" fill="#A1A1A1"/>
<rect width="4.9453" height="4.94532" transform="matrix(-4.37105e-08 -1 -1 4.37123e-08 118.691 93.9609)" fill="#A1A1A1"/>
<rect width="4.9453" height="4.94532" transform="matrix(-4.37105e-08 -1 -1 4.37123e-08 89.0195 93.9609)" fill="#A1A1A1"/>
<rect width="4.9453" height="4.94532" transform="matrix(-4.37105e-08 -1 -1 4.37123e-08 207.703 64.2891)" fill="#A1A1A1"/>
<rect width="4.9453" height="4.94532" transform="matrix(-4.37105e-08 -1 -1 4.37123e-08 148.363 64.2891)" fill="#A1A1A1"/>
<rect width="4.9453" height="4.94532" transform="matrix(-4.37105e-08 -1 -1 4.37123e-08 178.031 64.2891)" fill="#A1A1A1"/>
<rect width="4.9453" height="4.94532" transform="matrix(-4.37105e-08 -1 -1 4.37123e-08 118.691 64.2891)" fill="#A1A1A1"/>
<rect width="4.9453" height="4.94532" transform="matrix(-4.37105e-08 -1 -1 4.37123e-08 89.0195 64.2891)" fill="#A1A1A1"/>
<rect width="4.9453" height="4.94532" transform="matrix(-4.37105e-08 -1 -1 4.37123e-08 93.9648 34.6172)" fill="#A1A1A1"/>
<rect width="4.9453" height="4.94532" transform="matrix(-4.37105e-08 1 1 4.37123e-08 178.031 237.383)" fill="#A1A1A1"/>
<rect width="4.94532" height="4.9453" transform="matrix(-1 -8.74246e-08 -8.7421e-08 1 34.6211 178.039)" fill="#A1A1A1"/>
<rect width="4.9453" height="4.94532" transform="matrix(-4.37105e-08 -1 -1 4.37123e-08 232.43 34.6172)" fill="#A1A1A1"/>
<rect width="4.9453" height="4.94532" transform="matrix(-4.37105e-08 -1 -1 4.37123e-08 271.992 4.94531)" fill="#A1A1A1"/>
<rect width="4.9453" height="4.94532" transform="matrix(-4.37105e-08 -1 -1 4.37123e-08 123.637 34.6172)" fill="#A1A1A1"/>
<rect width="4.9453" height="4.94532" transform="matrix(-4.37105e-08 1 1 4.37123e-08 148.363 237.383)" fill="#A1A1A1"/>
<rect width="4.94532" height="4.9453" transform="matrix(-1 -8.74246e-08 -8.7421e-08 1 34.6211 148.367)" fill="#A1A1A1"/>
<rect width="4.9453" height="4.94532" transform="matrix(-4.37105e-08 -1 -1 4.37123e-08 153.305 34.6172)" fill="#A1A1A1"/>
<rect width="4.9453" height="4.94532" transform="matrix(-4.37105e-08 -1 -1 4.37123e-08 123.637 4.94531)" fill="#A1A1A1"/>
<rect width="4.9453" height="4.94532" transform="matrix(-4.37105e-08 1 1 4.37123e-08 148.363 267.055)" fill="#A1A1A1"/>
<rect width="4.94532" height="4.9453" transform="matrix(-1 -8.74246e-08 -8.7421e-08 1 4.95312 148.367)" fill="#A1A1A1"/>
<rect width="4.9453" height="4.94532" transform="matrix(-4.37105e-08 -1 -1 4.37123e-08 153.305 4.94531)" fill="#A1A1A1"/>
<rect width="4.9453" height="4.94532" transform="matrix(-4.37105e-08 -1 -1 4.37123e-08 64.293 34.6172)" fill="#A1A1A1"/>
<rect width="4.9453" height="4.94532" transform="matrix(-4.37105e-08 1 1 4.37123e-08 207.703 237.383)" fill="#A1A1A1"/>
<rect width="4.94532" height="4.9453" transform="matrix(-1 -8.74246e-08 -8.7421e-08 1 34.6211 207.711)" fill="#A1A1A1"/>
<rect width="4.9453" height="4.94532" transform="matrix(-4.37105e-08 -1 -1 4.37123e-08 202.762 34.6172)" fill="#A1A1A1"/>
<rect width="4.9453" height="4.94532" transform="matrix(-4.37105e-08 -1 -1 4.37123e-08 242.32 4.94531)" fill="#A1A1A1"/>
<rect width="4.9453" height="4.94532" transform="matrix(-4.37105e-08 -1 -1 4.37123e-08 54.4023 4.94531)" fill="#A1A1A1"/>
<rect width="4.9453" height="4.94532" transform="matrix(-4.37105e-08 1 1 4.37123e-08 217.594 267.055)" fill="#A1A1A1"/>
<rect width="4.94532" height="4.9453" transform="matrix(-1 -8.74246e-08 -8.7421e-08 1 4.95312 217.605)" fill="#A1A1A1"/>
<rect width="4.9453" height="4.94532" transform="matrix(-4.37105e-08 -1 -1 4.37123e-08 192.867 212.648)" fill="#A1A1A1"/>
<rect width="4.9453" height="4.94532" transform="matrix(-4.37105e-08 -1 -1 4.37123e-08 133.527 212.648)" fill="#A1A1A1"/>
<rect width="4.9453" height="4.94532" transform="matrix(-4.37105e-08 -1 -1 4.37123e-08 163.199 212.648)" fill="#A1A1A1"/>
<rect width="4.9453" height="4.94532" transform="matrix(-4.37105e-08 -1 -1 4.37123e-08 103.855 212.648)" fill="#A1A1A1"/>
<rect width="4.9453" height="4.94532" transform="matrix(-4.37105e-08 -1 -1 4.37123e-08 74.1875 212.648)" fill="#A1A1A1"/>
<rect width="4.9453" height="4.94532" transform="matrix(-4.37105e-08 -1 -1 4.37123e-08 192.867 182.977)" fill="#A1A1A1"/>
<rect width="4.9453" height="4.94532" transform="matrix(-4.37105e-08 -1 -1 4.37123e-08 133.527 182.977)" fill="#A1A1A1"/>
<rect width="4.9453" height="4.94532" transform="matrix(-4.37105e-08 -1 -1 4.37123e-08 163.199 182.977)" fill="#A1A1A1"/>
<rect width="4.9453" height="4.94532" transform="matrix(-4.37105e-08 -1 -1 4.37123e-08 103.855 182.977)" fill="#A1A1A1"/>
<rect width="4.9453" height="4.94532" transform="matrix(-4.37105e-08 -1 -1 4.37123e-08 74.1875 182.977)" fill="#A1A1A1"/>
<rect width="4.9453" height="4.94532" transform="matrix(-4.37105e-08 -1 -1 4.37123e-08 192.867 123.633)" fill="#A1A1A1"/>
<rect width="4.9453" height="4.94532" transform="matrix(-4.37105e-08 -1 -1 4.37123e-08 133.527 123.633)" fill="#A1A1A1"/>
<rect width="4.9453" height="4.94532" transform="matrix(-4.37105e-08 -1 -1 4.37123e-08 163.199 123.633)" fill="#A1A1A1"/>
<rect width="4.9453" height="4.94532" transform="matrix(-4.37105e-08 -1 -1 4.37123e-08 103.855 123.633)" fill="#A1A1A1"/>
<rect width="4.9453" height="4.94532" transform="matrix(-4.37105e-08 -1 -1 4.37123e-08 74.1875 123.633)" fill="#A1A1A1"/>
<rect width="4.9453" height="4.94532" transform="matrix(-4.37105e-08 -1 -1 4.37123e-08 192.867 153.305)" fill="#A1A1A1"/>
<rect width="4.9453" height="4.94532" transform="matrix(-4.37105e-08 -1 -1 4.37123e-08 133.527 153.305)" fill="#A1A1A1"/>
<rect width="4.9453" height="4.94532" transform="matrix(-4.37105e-08 -1 -1 4.37123e-08 163.199 153.305)" fill="#A1A1A1"/>
<rect width="4.9453" height="4.94532" transform="matrix(-4.37105e-08 -1 -1 4.37123e-08 103.855 153.305)" fill="#A1A1A1"/>
<rect width="4.9453" height="4.94532" transform="matrix(-4.37105e-08 -1 -1 4.37123e-08 74.1875 153.305)" fill="#A1A1A1"/>
<rect width="4.9453" height="4.94532" transform="matrix(-4.37105e-08 -1 -1 4.37123e-08 192.867 93.9609)" fill="#A1A1A1"/>
<rect width="4.9453" height="4.94532" transform="matrix(-4.37105e-08 -1 -1 4.37123e-08 133.527 93.9609)" fill="#A1A1A1"/>
<rect width="4.9453" height="4.94532" transform="matrix(-4.37105e-08 -1 -1 4.37123e-08 163.199 93.9609)" fill="#A1A1A1"/>
<rect width="4.9453" height="4.94532" transform="matrix(-4.37105e-08 -1 -1 4.37123e-08 103.855 93.9609)" fill="#A1A1A1"/>
<rect width="4.9453" height="4.94532" transform="matrix(-4.37105e-08 -1 -1 4.37123e-08 74.1875 93.9609)" fill="#A1A1A1"/>
<rect width="4.9453" height="4.94532" transform="matrix(-4.37105e-08 -1 -1 4.37123e-08 192.867 64.2891)" fill="#A1A1A1"/>
<rect width="4.9453" height="4.94532" transform="matrix(-4.37105e-08 -1 -1 4.37123e-08 133.527 64.2891)" fill="#A1A1A1"/>
<rect width="4.9453" height="4.94532" transform="matrix(-4.37105e-08 -1 -1 4.37123e-08 163.199 64.2891)" fill="#A1A1A1"/>
<rect width="4.9453" height="4.94532" transform="matrix(-4.37105e-08 -1 -1 4.37123e-08 103.855 64.2891)" fill="#A1A1A1"/>
<rect width="4.9453" height="4.94532" transform="matrix(-4.37105e-08 -1 -1 4.37123e-08 74.1875 64.2891)" fill="#A1A1A1"/>
<rect width="4.9453" height="4.94532" transform="matrix(-4.37105e-08 -1 -1 4.37123e-08 262.102 123.633)" fill="#A1A1A1"/>
<rect width="4.9453" height="4.94532" transform="matrix(-4.37105e-08 -1 -1 4.37123e-08 24.7344 123.633)" fill="#A1A1A1"/>
<rect width="4.9453" height="4.94532" transform="matrix(-4.37105e-08 1 1 4.37123e-08 247.266 148.367)" fill="#A1A1A1"/>
<rect width="4.94532" height="4.9453" transform="matrix(-1 -8.74246e-08 -8.7421e-08 1 123.637 247.277)" fill="#A1A1A1"/>
<rect width="4.9453" height="4.94532" transform="matrix(-4.37105e-08 -1 -1 4.37123e-08 103.855 4.94531)" fill="#A1A1A1"/>
<rect width="4.9453" height="4.94532" transform="matrix(-4.37105e-08 1 1 4.37123e-08 168.145 267.055)" fill="#A1A1A1"/>
<rect width="4.94532" height="4.9453" transform="matrix(-1 -8.74246e-08 -8.7421e-08 1 4.95312 168.152)" fill="#A1A1A1"/>
<rect width="4.9453" height="4.94532" transform="matrix(-4.37105e-08 -1 -1 4.37123e-08 74.1875 4.94531)" fill="#A1A1A1"/>
<rect width="4.9453" height="4.94532" transform="matrix(-4.37105e-08 1 1 4.37123e-08 197.812 267.055)" fill="#A1A1A1"/>
<rect width="4.94532" height="4.9453" transform="matrix(-1 -8.74246e-08 -8.7421e-08 1 4.95312 197.824)" fill="#A1A1A1"/>
<rect width="4.9453" height="4.94532" transform="matrix(-4.37105e-08 -1 -1 4.37123e-08 192.867 4.94531)" fill="#A1A1A1"/>
<rect width="4.94532" height="4.9453" transform="matrix(0.999999 -0.00125213 -0.00125207 -0.999999 178.031 182.988)" fill="#A1A1A1"/>
<rect width="4.94532" height="4.9453" transform="matrix(0.999999 -0.00125213 -0.00125207 -0.999999 118.691 182.988)" fill="#A1A1A1"/>
<rect width="4.94532" height="4.9453" transform="matrix(0.999999 -0.00125213 -0.00125207 -0.999999 148.363 182.988)" fill="#A1A1A1"/>
<rect width="4.94532" height="4.9453" transform="matrix(0.999999 -0.00125213 -0.00125207 -0.999999 89.0195 182.988)" fill="#A1A1A1"/>
<rect width="4.94532" height="4.9453" transform="matrix(0.999999 -0.00125213 -0.00125207 -0.999999 59.3516 182.988)" fill="#A1A1A1"/>
<rect width="4.94532" height="4.9453" transform="matrix(0.999999 -0.00125213 -0.00125207 -0.999999 178.031 123.645)" fill="#A1A1A1"/>
<rect width="4.94532" height="4.9453" transform="matrix(0.999999 -0.00125213 -0.00125207 -0.999999 118.691 123.645)" fill="#A1A1A1"/>
<rect width="4.94532" height="4.9453" transform="matrix(0.999999 -0.00125213 -0.00125207 -0.999999 148.363 123.645)" fill="#A1A1A1"/>
<rect width="4.94532" height="4.9453" transform="matrix(0.999999 -0.00125213 -0.00125207 -0.999999 89.0195 123.645)" fill="#A1A1A1"/>
<rect width="4.94532" height="4.9453" transform="matrix(0.999999 -0.00125213 -0.00125207 -0.999999 59.3516 123.645)" fill="#A1A1A1"/>
<rect width="4.94532" height="4.9453" transform="matrix(0.999999 -0.00125213 -0.00125207 -0.999999 178.031 153.316)" fill="#A1A1A1"/>
<rect width="4.94532" height="4.9453" transform="matrix(0.999999 -0.00125213 -0.00125207 -0.999999 118.691 153.316)" fill="#A1A1A1"/>
<rect width="4.94532" height="4.9453" transform="matrix(0.999999 -0.00125213 -0.00125207 -0.999999 148.363 153.316)" fill="#A1A1A1"/>
<rect width="4.94532" height="4.9453" transform="matrix(0.999999 -0.00125213 -0.00125207 -0.999999 89.0195 153.316)" fill="#A1A1A1"/>
<rect width="4.94532" height="4.9453" transform="matrix(0.999999 -0.00125213 -0.00125207 -0.999999 59.3516 153.316)" fill="#A1A1A1"/>
<rect width="4.94532" height="4.9453" transform="matrix(0.999999 -0.00125213 -0.00125207 -0.999999 178.031 93.9688)" fill="#A1A1A1"/>
<rect width="4.94532" height="4.9453" transform="matrix(0.999999 -0.00125213 -0.00125207 -0.999999 118.691 93.9688)" fill="#A1A1A1"/>
<rect width="4.94532" height="4.9453" transform="matrix(0.999999 -0.00125213 -0.00125207 -0.999999 148.363 93.9688)" fill="#A1A1A1"/>
<rect width="4.94532" height="4.9453" transform="matrix(0.999999 -0.00125213 -0.00125207 -0.999999 89.0195 93.9688)" fill="#A1A1A1"/>
<rect width="4.94532" height="4.9453" transform="matrix(0.999999 -0.00125213 -0.00125207 -0.999999 59.3516 93.9688)" fill="#A1A1A1"/>
<rect width="4.94532" height="4.9453" transform="matrix(0.999999 -0.00125213 -0.00125207 -0.999999 29.6797 64.2969)" fill="#A1A1A1"/>
<rect width="4.94532" height="4.9453" transform="matrix(-0.999999 0.00125204 0.00125199 0.999999 242.32 207.703)" fill="#A1A1A1"/>
<rect width="4.9453" height="4.94532" transform="matrix(-0.00125194 -0.999999 -0.999999 0.00125199 64.293 242.32)" fill="#A1A1A1"/>
<rect width="4.94532" height="4.9453" transform="matrix(0.999999 -0.00125213 -0.00125207 -0.999999 0.00390625 34.625)" fill="#A1A1A1"/>
<rect width="4.94532" height="4.9453" transform="matrix(-0.999999 0.00125204 0.00125199 0.999999 271.992 237.375)" fill="#A1A1A1"/>
<rect width="4.9453" height="4.94532" transform="matrix(-0.00125194 -0.999999 -0.999999 0.00125199 34.6211 271.992)" fill="#A1A1A1"/>
<rect width="4.94532" height="4.9453" transform="matrix(0.999999 -0.00125213 -0.00125207 -0.999999 267.047 34.625)" fill="#A1A1A1"/>
<rect width="4.94532" height="4.9453" transform="matrix(0.999999 -0.00125213 -0.00125207 -0.999999 0.00390625 103.863)" fill="#A1A1A1"/>
<rect width="4.94532" height="4.9453" transform="matrix(-0.999999 0.00125204 0.00125199 0.999999 271.992 168.141)" fill="#A1A1A1"/>
<rect width="4.9453" height="4.94532" transform="matrix(-0.00125194 -0.999999 -0.999999 0.00125199 103.855 271.992)" fill="#A1A1A1"/>
<rect width="4.94532" height="4.9453" transform="matrix(0.999999 -0.00125213 -0.00125207 -0.999999 267.047 103.863)" fill="#A1A1A1"/>
<rect width="4.94532" height="4.9453" transform="matrix(0.999999 -0.00125213 -0.00125207 -0.999999 178.031 64.2969)" fill="#A1A1A1"/>
<rect width="4.94532" height="4.9453" transform="matrix(0.999999 -0.00125213 -0.00125207 -0.999999 118.691 64.2969)" fill="#A1A1A1"/>
<rect width="4.94532" height="4.9453" transform="matrix(0.999999 -0.00125213 -0.00125207 -0.999999 148.363 64.2969)" fill="#A1A1A1"/>
<rect width="4.94532" height="4.9453" transform="matrix(0.999999 -0.00125213 -0.00125207 -0.999999 89.0195 64.2969)" fill="#A1A1A1"/>
<rect width="4.94532" height="4.9453" transform="matrix(0.999999 -0.00125213 -0.00125207 -0.999999 59.3516 64.2969)" fill="#A1A1A1"/>
<rect width="4.94532" height="4.9453" transform="matrix(0.999999 -0.00125213 -0.00125207 -0.999999 247.266 123.645)" fill="#A1A1A1"/>
<rect width="4.94532" height="4.9453" transform="matrix(0.999999 -0.00125213 -0.00125207 -0.999999 9.89844 123.645)" fill="#A1A1A1"/>
<rect width="4.94532" height="4.9453" transform="matrix(-0.999999 0.00125204 0.00125199 0.999999 262.102 148.355)" fill="#A1A1A1"/>
<rect width="4.9453" height="4.94532" transform="matrix(-0.00125194 -0.999999 -0.999999 0.00125199 123.637 262.102)" fill="#A1A1A1"/>
<rect width="4.94532" height="4.9453" transform="matrix(0.999999 -0.00125213 -0.00125207 -0.999999 217.594 123.645)" fill="#A1A1A1"/>
<rect width="4.94532" height="4.9453" transform="matrix(0.999999 -0.00125213 -0.00125207 -0.999999 29.6797 34.625)" fill="#A1A1A1"/>
<rect width="4.94532" height="4.9453" transform="matrix(-0.999999 0.00125204 0.00125199 0.999999 242.32 237.375)" fill="#A1A1A1"/>
<rect width="4.9453" height="4.94532" transform="matrix(-0.00125194 -0.999999 -0.999999 0.00125199 34.6211 242.32)" fill="#A1A1A1"/>
<rect width="4.94532" height="4.9453" transform="matrix(0.999999 -0.00125213 -0.00125207 -0.999999 0.00390625 4.95312)" fill="#A1A1A1"/>
<rect width="4.94532" height="4.9453" transform="matrix(-0.999999 0.00125204 0.00125199 0.999999 271.992 267.047)" fill="#A1A1A1"/>
<rect width="4.9453" height="4.94532" transform="matrix(-0.00125194 -0.999999 -0.999999 0.00125199 4.95312 271.992)" fill="#A1A1A1"/>
<rect width="4.94532" height="4.9453" transform="matrix(0.999999 -0.00125213 -0.00125207 -0.999999 207.703 4.95312)" fill="#A1A1A1"/>
<rect width="4.94532" height="4.9453" transform="matrix(0.999999 -0.00125213 -0.00125207 -0.999999 19.7891 4.95312)" fill="#A1A1A1"/>
<rect width="4.94532" height="4.9453" transform="matrix(-0.999999 0.00125204 0.00125199 0.999999 252.211 267.047)" fill="#A1A1A1"/>
<rect width="4.9453" height="4.94532" transform="matrix(-0.00125194 -0.999999 -0.999999 0.00125199 4.95312 252.211)" fill="#A1A1A1"/>
<rect width="4.94532" height="4.9453" transform="matrix(0.999999 -0.00125213 -0.00125207 -0.999999 158.254 4.95312)" fill="#A1A1A1"/>
<rect width="4.94532" height="4.9453" transform="matrix(0.999999 -0.00125213 -0.00125207 -0.999999 89.0195 4.95312)" fill="#A1A1A1"/>
<rect width="4.94532" height="4.9453" transform="matrix(-0.999999 0.00125204 0.00125199 0.999999 182.98 267.047)" fill="#A1A1A1"/>
<rect width="4.9453" height="4.94532" transform="matrix(-0.00125194 -0.999999 -0.999999 0.00125199 4.95312 182.977)" fill="#A1A1A1"/>
<rect width="4.94532" height="4.9453" transform="matrix(0.999999 -0.00125213 -0.00125207 -0.999999 59.3516 4.95312)" fill="#A1A1A1"/>
<rect width="4.94532" height="4.9453" transform="matrix(-0.999999 0.00125204 0.00125199 0.999999 212.652 267.047)" fill="#A1A1A1"/>
<rect width="4.9453" height="4.94532" transform="matrix(-0.00125194 -0.999999 -0.999999 0.00125199 4.95312 212.648)" fill="#A1A1A1"/>
<rect width="4.94532" height="4.9453" transform="matrix(0.999999 -0.00125213 -0.00125207 -0.999999 178.031 4.95312)" fill="#A1A1A1"/>
<rect width="4.94532" height="4.9453" transform="matrix(0.999999 -0.00125213 -0.00125207 -0.999999 9.89844 4.95312)" fill="#A1A1A1"/>
<rect width="4.94532" height="4.9453" transform="matrix(-0.999999 0.00125204 0.00125199 0.999999 262.102 267.047)" fill="#A1A1A1"/>
<rect width="4.9453" height="4.94532" transform="matrix(-0.00125194 -0.999999 -0.999999 0.00125199 4.95312 262.102)" fill="#A1A1A1"/>
<rect width="4.94532" height="4.9453" transform="matrix(0.999999 -0.00125213 -0.00125207 -0.999999 207.703 182.988)" fill="#A1A1A1"/>
<rect width="4.94532" height="4.9453" transform="matrix(0.999999 -0.00125213 -0.00125207 -0.999999 207.703 123.645)" fill="#A1A1A1"/>
<rect width="4.94532" height="4.9453" transform="matrix(0.999999 -0.00125213 -0.00125207 -0.999999 207.703 153.316)" fill="#A1A1A1"/>
<rect width="4.94532" height="4.9453" transform="matrix(0.999999 -0.00125213 -0.00125207 -0.999999 207.703 93.9688)" fill="#A1A1A1"/>
<rect width="4.94532" height="4.9453" transform="matrix(0.999999 -0.00125213 -0.00125207 -0.999999 207.703 64.2969)" fill="#A1A1A1"/>
<rect width="4.94532" height="4.9453" transform="matrix(0.999999 -0.00125213 -0.00125207 -0.999999 178.031 202.766)" fill="#A1A1A1"/>
<rect width="4.94532" height="4.9453" transform="matrix(0.999999 -0.00125213 -0.00125207 -0.999999 118.691 202.766)" fill="#A1A1A1"/>
<rect width="4.94532" height="4.9453" transform="matrix(0.999999 -0.00125213 -0.00125207 -0.999999 148.363 202.766)" fill="#A1A1A1"/>
<rect width="4.94532" height="4.9453" transform="matrix(0.999999 -0.00125213 -0.00125207 -0.999999 89.0195 202.766)" fill="#A1A1A1"/>
<rect width="4.94532" height="4.9453" transform="matrix(0.999999 -0.00125213 -0.00125207 -0.999999 59.3516 202.766)" fill="#A1A1A1"/>
<rect width="4.94532" height="4.9453" transform="matrix(0.999999 -0.00125213 -0.00125207 -0.999999 178.031 143.422)" fill="#A1A1A1"/>
<rect width="4.94532" height="4.9453" transform="matrix(0.999999 -0.00125213 -0.00125207 -0.999999 118.691 143.422)" fill="#A1A1A1"/>
<rect width="4.94532" height="4.9453" transform="matrix(0.999999 -0.00125213 -0.00125207 -0.999999 148.363 143.422)" fill="#A1A1A1"/>
<rect width="4.94532" height="4.9453" transform="matrix(0.999999 -0.00125213 -0.00125207 -0.999999 89.0195 143.422)" fill="#A1A1A1"/>
<rect width="4.94532" height="4.9453" transform="matrix(0.999999 -0.00125213 -0.00125207 -0.999999 59.3516 143.422)" fill="#A1A1A1"/>
<rect width="4.94532" height="4.9453" transform="matrix(0.999999 -0.00125213 -0.00125207 -0.999999 178.031 173.094)" fill="#A1A1A1"/>
<rect width="4.94532" height="4.9453" transform="matrix(0.999999 -0.00125213 -0.00125207 -0.999999 118.691 173.094)" fill="#A1A1A1"/>
<rect width="4.94532" height="4.9453" transform="matrix(0.999999 -0.00125213 -0.00125207 -0.999999 148.363 173.094)" fill="#A1A1A1"/>
<rect width="4.94532" height="4.9453" transform="matrix(0.999999 -0.00125213 -0.00125207 -0.999999 89.0195 173.094)" fill="#A1A1A1"/>
<rect width="4.94532" height="4.9453" transform="matrix(0.999999 -0.00125213 -0.00125207 -0.999999 59.3516 173.094)" fill="#A1A1A1"/>
<rect width="4.94532" height="4.9453" transform="matrix(0.999999 -0.00125213 -0.00125207 -0.999999 178.031 113.75)" fill="#A1A1A1"/>
<rect width="4.94532" height="4.9453" transform="matrix(0.999999 -0.00125213 -0.00125207 -0.999999 118.691 113.75)" fill="#A1A1A1"/>
<rect width="4.94532" height="4.9453" transform="matrix(0.999999 -0.00125213 -0.00125207 -0.999999 148.363 113.75)" fill="#A1A1A1"/>
<rect width="4.94532" height="4.9453" transform="matrix(0.999999 -0.00125213 -0.00125207 -0.999999 89.0195 113.75)" fill="#A1A1A1"/>
<rect width="4.94532" height="4.9453" transform="matrix(0.999999 -0.00125213 -0.00125207 -0.999999 59.3516 113.75)" fill="#A1A1A1"/>
<rect width="4.94532" height="4.9453" transform="matrix(0.999999 -0.00125213 -0.00125207 -0.999999 29.6797 84.0781)" fill="#A1A1A1"/>
<rect width="4.94532" height="4.9453" transform="matrix(-0.999999 0.00125204 0.00125199 0.999999 242.32 187.922)" fill="#A1A1A1"/>
<rect width="4.9453" height="4.94532" transform="matrix(-0.00125194 -0.999999 -0.999999 0.00125199 84.0742 242.32)" fill="#A1A1A1"/>
<rect width="4.94532" height="4.9453" transform="matrix(0.999999 -0.00125213 -0.00125207 -0.999999 0.00390625 54.4062)" fill="#A1A1A1"/>
<rect width="4.94532" height="4.9453" transform="matrix(-0.999999 0.00125204 0.00125199 0.999999 271.992 217.594)" fill="#A1A1A1"/>
<rect width="4.9453" height="4.94532" transform="matrix(-0.00125194 -0.999999 -0.999999 0.00125199 54.4023 271.992)" fill="#A1A1A1"/>
<rect width="4.94532" height="4.9453" transform="matrix(0.999999 -0.00125213 -0.00125207 -0.999999 267.047 54.4062)" fill="#A1A1A1"/>
<rect width="4.94532" height="4.9453" transform="matrix(0.999999 -0.00125213 -0.00125207 -0.999999 0.00390625 123.645)" fill="#A1A1A1"/>
<rect width="4.94532" height="4.9453" transform="matrix(-0.999999 0.00125204 0.00125199 0.999999 271.992 148.355)" fill="#A1A1A1"/>
<rect width="4.9453" height="4.94532" transform="matrix(-0.00125194 -0.999999 -0.999999 0.00125199 123.637 271.992)" fill="#A1A1A1"/>
<rect width="4.94532" height="4.9453" transform="matrix(0.999999 -0.00125213 -0.00125207 -0.999999 237.379 84.0781)" fill="#A1A1A1"/>
<rect width="4.94532" height="4.9453" transform="matrix(0.999999 -0.00125213 -0.00125207 -0.999999 0.00390625 93.9688)" fill="#A1A1A1"/>
<rect width="4.94532" height="4.9453" transform="matrix(-0.999999 0.00125204 0.00125199 0.999999 271.992 178.031)" fill="#A1A1A1"/>
<rect width="4.9453" height="4.94532" transform="matrix(-0.00125194 -0.999999 -0.999999 0.00125199 93.9648 271.992)" fill="#A1A1A1"/>
<rect width="4.94532" height="4.9453" transform="matrix(0.999999 -0.00125213 -0.00125207 -0.999999 267.047 93.9688)" fill="#A1A1A1"/>
<rect width="4.94532" height="4.9453" transform="matrix(0.999999 -0.00125213 -0.00125207 -0.999999 29.6797 93.9688)" fill="#A1A1A1"/>
<rect width="4.94532" height="4.9453" transform="matrix(-0.999999 0.00125204 0.00125199 0.999999 242.32 178.031)" fill="#A1A1A1"/>
<rect width="4.9453" height="4.94532" transform="matrix(-0.00125194 -0.999999 -0.999999 0.00125199 93.9648 242.32)" fill="#A1A1A1"/>
<rect width="4.94532" height="4.9453" transform="matrix(0.999999 -0.00125213 -0.00125207 -0.999999 217.594 93.9688)" fill="#A1A1A1"/>
<rect width="4.94532" height="4.9453" transform="matrix(0.999999 -0.00125213 -0.00125207 -0.999999 0.00390625 64.2969)" fill="#A1A1A1"/>
<rect width="4.94532" height="4.9453" transform="matrix(-0.999999 0.00125204 0.00125199 0.999999 271.992 207.703)" fill="#A1A1A1"/>
<rect width="4.9453" height="4.94532" transform="matrix(-0.00125194 -0.999999 -0.999999 0.00125199 64.293 271.992)" fill="#A1A1A1"/>
<rect width="4.94532" height="4.9453" transform="matrix(0.999999 -0.00125213 -0.00125207 -0.999999 267.047 64.2969)" fill="#A1A1A1"/>
<rect width="4.94532" height="4.9453" transform="matrix(0.999999 -0.00125213 -0.00125207 -0.999999 178.031 84.0781)" fill="#A1A1A1"/>
<rect width="4.94532" height="4.9453" transform="matrix(0.999999 -0.00125213 -0.00125207 -0.999999 118.691 84.0781)" fill="#A1A1A1"/>
<rect width="4.94532" height="4.9453" transform="matrix(0.999999 -0.00125213 -0.00125207 -0.999999 148.363 84.0781)" fill="#A1A1A1"/>
<rect width="4.94532" height="4.9453" transform="matrix(0.999999 -0.00125213 -0.00125207 -0.999999 89.0195 84.0781)" fill="#A1A1A1"/>
<rect width="4.94532" height="4.9453" transform="matrix(0.999999 -0.00125213 -0.00125207 -0.999999 89.0195 54.4062)" fill="#A1A1A1"/>
<rect width="4.94532" height="4.9453" transform="matrix(-0.999999 0.00125204 0.00125199 0.999999 182.98 217.594)" fill="#A1A1A1"/>
<rect width="4.9453" height="4.94532" transform="matrix(-0.00125194 -0.999999 -0.999999 0.00125199 54.4023 182.977)" fill="#A1A1A1"/>
<rect width="4.94532" height="4.9453" transform="matrix(0.999999 -0.00125213 -0.00125207 -0.999999 178.031 54.4062)" fill="#A1A1A1"/>
<rect width="4.94532" height="4.9453" transform="matrix(0.999999 -0.00125213 -0.00125207 -0.999999 118.691 54.3984)" fill="#A1A1A1"/>
<rect width="4.94532" height="4.9453" transform="matrix(-0.999999 0.00125204 0.00125199 0.999999 153.305 217.605)" fill="#A1A1A1"/>
<rect width="4.9453" height="4.94532" transform="matrix(-0.00125194 -0.999999 -0.999999 0.00125199 54.4023 153.305)" fill="#A1A1A1"/>
<rect width="4.94532" height="4.9453" transform="matrix(0.999999 -0.00125213 -0.00125207 -0.999999 148.363 54.3984)" fill="#A1A1A1"/>
<rect width="4.94532" height="4.9453" transform="matrix(0.999999 -0.00125213 -0.00125207 -0.999999 118.691 24.7266)" fill="#A1A1A1"/>
<rect width="4.94532" height="4.9453" transform="matrix(-0.999999 0.00125204 0.00125199 0.999999 153.305 247.277)" fill="#A1A1A1"/>
<rect width="4.9453" height="4.94532" transform="matrix(-0.00125194 -0.999999 -0.999999 0.00125199 24.7344 153.305)" fill="#A1A1A1"/>
<rect width="4.94532" height="4.9453" transform="matrix(0.999999 -0.00125213 -0.00125207 -0.999999 148.363 24.7266)" fill="#A1A1A1"/>
<rect width="4.94532" height="4.9453" transform="matrix(0.999999 -0.00125213 -0.00125207 -0.999999 59.3516 84.0781)" fill="#A1A1A1"/>
<rect width="4.94532" height="4.9453" transform="matrix(0.999999 -0.00125213 -0.00125207 -0.999999 29.6797 54.4062)" fill="#A1A1A1"/>
<rect width="4.94532" height="4.9453" transform="matrix(-0.999999 0.00125204 0.00125199 0.999999 242.32 217.594)" fill="#A1A1A1"/>
<rect width="4.9453" height="4.94532" transform="matrix(-0.00125194 -0.999999 -0.999999 0.00125199 54.4023 242.32)" fill="#A1A1A1"/>
<rect width="4.94532" height="4.9453" transform="matrix(0.999999 -0.00125213 -0.00125207 -0.999999 0.00390625 24.7383)" fill="#A1A1A1"/>
<rect width="4.94532" height="4.9453" transform="matrix(-0.999999 0.00125204 0.00125199 0.999999 271.992 247.266)" fill="#A1A1A1"/>
<rect width="4.9453" height="4.94532" transform="matrix(-0.00125194 -0.999999 -0.999999 0.00125199 24.7344 271.992)" fill="#A1A1A1"/>
<rect width="4.94532" height="4.9453" transform="matrix(0.999999 -0.00125213 -0.00125207 -0.999999 267.047 24.7383)" fill="#A1A1A1"/>
<rect width="4.94532" height="4.9453" transform="matrix(0.999999 -0.00125213 -0.00125207 -0.999999 178.031 207.711)" fill="#A1A1A1"/>
<rect width="4.94532" height="4.9453" transform="matrix(0.999999 -0.00125213 -0.00125207 -0.999999 118.691 207.711)" fill="#A1A1A1"/>
<rect width="4.94532" height="4.9453" transform="matrix(0.999999 -0.00125213 -0.00125207 -0.999999 148.363 207.711)" fill="#A1A1A1"/>
<rect width="4.94532" height="4.9453" transform="matrix(0.999999 -0.00125213 -0.00125207 -0.999999 89.0195 207.711)" fill="#A1A1A1"/>
<rect width="4.94532" height="4.9453" transform="matrix(0.999999 -0.00125213 -0.00125207 -0.999999 59.3516 207.711)" fill="#A1A1A1"/>
<rect width="4.94532" height="4.9453" transform="matrix(0.999999 -0.00125213 -0.00125207 -0.999999 178.031 148.367)" fill="#A1A1A1"/>
<rect width="4.94532" height="4.9453" transform="matrix(0.999999 -0.00125213 -0.00125207 -0.999999 118.691 148.367)" fill="#A1A1A1"/>
<rect width="4.94532" height="4.9453" transform="matrix(0.999999 -0.00125213 -0.00125207 -0.999999 148.363 148.367)" fill="#A1A1A1"/>
<rect width="4.94532" height="4.9453" transform="matrix(0.999999 -0.00125213 -0.00125207 -0.999999 89.0195 148.367)" fill="#A1A1A1"/>
<rect width="4.94532" height="4.9453" transform="matrix(0.999999 -0.00125213 -0.00125207 -0.999999 59.3516 148.367)" fill="#A1A1A1"/>
<rect width="4.94532" height="4.9453" transform="matrix(0.999999 -0.00125213 -0.00125207 -0.999999 178.031 178.039)" fill="#A1A1A1"/>
<rect width="4.94532" height="4.9453" transform="matrix(0.999999 -0.00125213 -0.00125207 -0.999999 118.691 178.039)" fill="#A1A1A1"/>
<rect width="4.94532" height="4.9453" transform="matrix(0.999999 -0.00125213 -0.00125207 -0.999999 148.363 178.039)" fill="#A1A1A1"/>
<rect width="4.94532" height="4.9453" transform="matrix(0.999999 -0.00125213 -0.00125207 -0.999999 89.0195 178.039)" fill="#A1A1A1"/>
<rect width="4.94532" height="4.9453" transform="matrix(0.999999 -0.00125213 -0.00125207 -0.999999 59.3516 178.039)" fill="#A1A1A1"/>
<rect width="4.94532" height="4.9453" transform="matrix(0.999999 -0.00125213 -0.00125207 -0.999999 178.031 118.699)" fill="#A1A1A1"/>
<rect width="4.94532" height="4.9453" transform="matrix(0.999999 -0.00125213 -0.00125207 -0.999999 118.691 118.699)" fill="#A1A1A1"/>
<rect width="4.94532" height="4.9453" transform="matrix(0.999999 -0.00125213 -0.00125207 -0.999999 148.363 118.699)" fill="#A1A1A1"/>
<rect width="4.94532" height="4.9453" transform="matrix(0.999999 -0.00125213 -0.00125207 -0.999999 89.0195 118.699)" fill="#A1A1A1"/>
<rect width="4.94532" height="4.9453" transform="matrix(0.999999 -0.00125213 -0.00125207 -0.999999 59.3516 118.699)" fill="#A1A1A1"/>
<rect width="4.94532" height="4.9453" transform="matrix(0.999999 -0.00125213 -0.00125207 -0.999999 178.031 89.0273)" fill="#A1A1A1"/>
<rect width="4.94532" height="4.9453" transform="matrix(0.999999 -0.00125213 -0.00125207 -0.999999 118.691 89.0273)" fill="#A1A1A1"/>
<rect width="4.94532" height="4.9453" transform="matrix(0.999999 -0.00125213 -0.00125207 -0.999999 148.363 89.0273)" fill="#A1A1A1"/>
<rect width="4.94532" height="4.9453" transform="matrix(0.999999 -0.00125213 -0.00125207 -0.999999 89.0195 89.0273)" fill="#A1A1A1"/>
<rect width="4.94532" height="4.9453" transform="matrix(0.999999 -0.00125213 -0.00125207 -0.999999 59.3516 89.0273)" fill="#A1A1A1"/>
<rect width="4.94532" height="4.9453" transform="matrix(0.999999 -0.00125213 -0.00125207 -0.999999 237.379 54.4062)" fill="#A1A1A1"/>
<rect width="4.94532" height="4.9453" transform="matrix(0.999999 -0.00125213 -0.00125207 -0.999999 207.703 202.766)" fill="#A1A1A1"/>
<rect width="4.94532" height="4.9453" transform="matrix(0.999999 -0.00125213 -0.00125207 -0.999999 207.703 143.422)" fill="#A1A1A1"/>
<rect width="4.94532" height="4.9453" transform="matrix(0.999999 -0.00125213 -0.00125207 -0.999999 207.703 173.094)" fill="#A1A1A1"/>
<rect width="4.94532" height="4.9453" transform="matrix(0.999999 -0.00125213 -0.00125207 -0.999999 207.703 113.75)" fill="#A1A1A1"/>
<rect width="4.94532" height="4.9453" transform="matrix(0.999999 -0.00125213 -0.00125207 -0.999999 207.703 84.0781)" fill="#A1A1A1"/>
<rect width="4.94532" height="4.9453" transform="matrix(0.999999 -0.00125213 -0.00125207 -0.999999 207.703 207.711)" fill="#A1A1A1"/>
<rect width="4.94532" height="4.9453" transform="matrix(0.999999 -0.00125213 -0.00125207 -0.999999 207.703 148.367)" fill="#A1A1A1"/>
<rect width="4.94532" height="4.9453" transform="matrix(0.999999 -0.00125213 -0.00125207 -0.999999 207.703 178.039)" fill="#A1A1A1"/>
<rect width="4.94532" height="4.9453" transform="matrix(0.999999 -0.00125213 -0.00125207 -0.999999 207.703 118.699)" fill="#A1A1A1"/>
<rect width="4.94532" height="4.9453" transform="matrix(0.999999 -0.00125213 -0.00125207 -0.999999 207.703 89.0273)" fill="#A1A1A1"/>
<rect width="4.9453" height="4.94532" transform="matrix(-4.37105e-08 -1 -1 4.37123e-08 192.867 212.648)" fill="#A1A1A1"/>
<rect width="4.9453" height="4.94532" transform="matrix(-4.37105e-08 -1 -1 4.37123e-08 133.527 212.648)" fill="#A1A1A1"/>
<rect width="4.9453" height="4.94532" transform="matrix(-4.37105e-08 -1 -1 4.37123e-08 163.199 212.648)" fill="#A1A1A1"/>
<rect width="4.9453" height="4.94532" transform="matrix(-4.37105e-08 -1 -1 4.37123e-08 103.855 212.648)" fill="#A1A1A1"/>
<rect width="4.9453" height="4.94532" transform="matrix(-4.37105e-08 -1 -1 4.37123e-08 74.1875 212.648)" fill="#A1A1A1"/>
<rect width="4.9453" height="4.94532" transform="matrix(-4.37105e-08 -1 -1 4.37123e-08 192.867 182.977)" fill="#A1A1A1"/>
<rect width="4.9453" height="4.94532" transform="matrix(-4.37105e-08 -1 -1 4.37123e-08 133.527 182.977)" fill="#A1A1A1"/>
<rect width="4.9453" height="4.94532" transform="matrix(-4.37105e-08 -1 -1 4.37123e-08 163.199 182.977)" fill="#A1A1A1"/>
<rect width="4.9453" height="4.94532" transform="matrix(-4.37105e-08 -1 -1 4.37123e-08 103.855 182.977)" fill="#A1A1A1"/>
<rect width="4.9453" height="4.94532" transform="matrix(-4.37105e-08 -1 -1 4.37123e-08 74.1875 182.977)" fill="#A1A1A1"/>
<rect width="4.9453" height="4.94532" transform="matrix(-4.37105e-08 -1 -1 4.37123e-08 192.867 123.633)" fill="#A1A1A1"/>
<rect width="4.9453" height="4.94532" transform="matrix(-4.37105e-08 -1 -1 4.37123e-08 133.527 123.633)" fill="#A1A1A1"/>
<rect width="4.9453" height="4.94532" transform="matrix(-4.37105e-08 -1 -1 4.37123e-08 163.199 123.633)" fill="#A1A1A1"/>
<rect width="4.9453" height="4.94532" transform="matrix(-4.37105e-08 -1 -1 4.37123e-08 103.855 123.633)" fill="#A1A1A1"/>
<rect width="4.9453" height="4.94532" transform="matrix(-4.37105e-08 -1 -1 4.37123e-08 74.1875 123.633)" fill="#A1A1A1"/>
<rect width="4.9453" height="4.94532" transform="matrix(-4.37105e-08 -1 -1 4.37123e-08 192.867 153.305)" fill="#A1A1A1"/>
<rect width="4.9453" height="4.94532" transform="matrix(-4.37105e-08 -1 -1 4.37123e-08 133.527 153.305)" fill="#A1A1A1"/>
<rect width="4.9453" height="4.94532" transform="matrix(-4.37105e-08 -1 -1 4.37123e-08 163.199 153.305)" fill="#A1A1A1"/>
<rect width="4.9453" height="4.94532" transform="matrix(-4.37105e-08 -1 -1 4.37123e-08 103.855 153.305)" fill="#A1A1A1"/>
<rect width="4.9453" height="4.94532" transform="matrix(-4.37105e-08 -1 -1 4.37123e-08 74.1875 153.305)" fill="#A1A1A1"/>
<rect width="4.9453" height="4.94532" transform="matrix(-4.37105e-08 -1 -1 4.37123e-08 192.867 93.9609)" fill="#A1A1A1"/>
<rect width="4.9453" height="4.94532" transform="matrix(-4.37105e-08 -1 -1 4.37123e-08 133.527 93.9609)" fill="#A1A1A1"/>
<rect width="4.9453" height="4.94532" transform="matrix(-4.37105e-08 -1 -1 4.37123e-08 163.199 93.9609)" fill="#A1A1A1"/>
<rect width="4.9453" height="4.94532" transform="matrix(-4.37105e-08 -1 -1 4.37123e-08 103.855 93.9609)" fill="#A1A1A1"/>
<rect width="4.9453" height="4.94532" transform="matrix(-4.37105e-08 -1 -1 4.37123e-08 74.1875 93.9609)" fill="#A1A1A1"/>
<rect width="4.9453" height="4.94532" transform="matrix(-4.37105e-08 -1 -1 4.37123e-08 192.867 64.2891)" fill="#A1A1A1"/>
<rect width="4.9453" height="4.94532" transform="matrix(-4.37105e-08 -1 -1 4.37123e-08 133.527 64.2891)" fill="#A1A1A1"/>
<rect width="4.9453" height="4.94532" transform="matrix(-4.37105e-08 -1 -1 4.37123e-08 163.199 64.2891)" fill="#A1A1A1"/>
<rect width="4.9453" height="4.94532" transform="matrix(-4.37105e-08 -1 -1 4.37123e-08 103.855 64.2891)" fill="#A1A1A1"/>
<rect width="4.9453" height="4.94532" transform="matrix(-4.37105e-08 -1 -1 4.37123e-08 74.1875 64.2891)" fill="#A1A1A1"/>
<rect width="4.9453" height="4.94532" transform="matrix(-4.37105e-08 -1 -1 4.37123e-08 262.102 123.633)" fill="#A1A1A1"/>
<rect width="4.9453" height="4.94532" transform="matrix(-4.37105e-08 -1 -1 4.37123e-08 24.7344 123.633)" fill="#A1A1A1"/>
<rect width="4.9453" height="4.94532" transform="matrix(-4.37105e-08 1 1 4.37123e-08 247.266 148.367)" fill="#A1A1A1"/>
<rect width="4.94532" height="4.9453" transform="matrix(-1 -8.74246e-08 -8.7421e-08 1 123.637 247.277)" fill="#A1A1A1"/>
<rect width="4.9453" height="4.94532" transform="matrix(-4.37105e-08 -1 -1 4.37123e-08 103.855 4.94531)" fill="#A1A1A1"/>
<rect width="4.9453" height="4.94532" transform="matrix(-4.37105e-08 1 1 4.37123e-08 168.145 267.055)" fill="#A1A1A1"/>
<rect width="4.94532" height="4.9453" transform="matrix(-1 -8.74246e-08 -8.7421e-08 1 4.95312 168.152)" fill="#A1A1A1"/>
<rect width="4.9453" height="4.94532" transform="matrix(-4.37105e-08 -1 -1 4.37123e-08 74.1875 4.94531)" fill="#A1A1A1"/>
<rect width="4.9453" height="4.94532" transform="matrix(-4.37105e-08 1 1 4.37123e-08 197.812 267.055)" fill="#A1A1A1"/>
<rect width="4.94532" height="4.9453" transform="matrix(-1 -8.74246e-08 -8.7421e-08 1 4.95312 197.824)" fill="#A1A1A1"/>
<rect width="4.9453" height="4.94532" transform="matrix(-4.37105e-08 -1 -1 4.37123e-08 192.867 4.94531)" fill="#A1A1A1"/>
<rect width="4.9453" height="4.94532" transform="matrix(-4.37105e-08 -1 -1 4.37123e-08 187.926 212.648)" fill="#A1A1A1"/>
<rect width="4.9453" height="4.94532" transform="matrix(-4.37105e-08 -1 -1 4.37123e-08 128.582 212.648)" fill="#A1A1A1"/>
<rect width="4.9453" height="4.94532" transform="matrix(-4.37105e-08 -1 -1 4.37123e-08 158.254 212.648)" fill="#A1A1A1"/>
<rect width="4.9453" height="4.94532" transform="matrix(-4.37105e-08 -1 -1 4.37123e-08 98.9102 212.648)" fill="#A1A1A1"/>
<rect width="4.9453" height="4.94532" transform="matrix(-4.37105e-08 -1 -1 4.37123e-08 69.2383 212.648)" fill="#A1A1A1"/>
<rect width="4.9453" height="4.94532" transform="matrix(-4.37105e-08 -1 -1 4.37123e-08 187.926 182.977)" fill="#A1A1A1"/>
<rect width="4.9453" height="4.94532" transform="matrix(-4.37105e-08 -1 -1 4.37123e-08 128.582 182.977)" fill="#A1A1A1"/>
<rect width="4.9453" height="4.94532" transform="matrix(-4.37105e-08 -1 -1 4.37123e-08 158.254 182.977)" fill="#A1A1A1"/>
<rect width="4.9453" height="4.94532" transform="matrix(-4.37105e-08 -1 -1 4.37123e-08 98.9102 182.977)" fill="#A1A1A1"/>
<rect width="4.9453" height="4.94532" transform="matrix(-4.37105e-08 -1 -1 4.37123e-08 69.2383 182.977)" fill="#A1A1A1"/>
<rect width="4.9453" height="4.94532" transform="matrix(-4.37105e-08 -1 -1 4.37123e-08 187.926 123.633)" fill="#A1A1A1"/>
<rect width="4.9453" height="4.94532" transform="matrix(-4.37105e-08 -1 -1 4.37123e-08 128.582 123.633)" fill="#A1A1A1"/>
<rect width="4.9453" height="4.94532" transform="matrix(-4.37105e-08 -1 -1 4.37123e-08 158.254 123.633)" fill="#A1A1A1"/>
<rect width="4.9453" height="4.94532" transform="matrix(-4.37105e-08 -1 -1 4.37123e-08 98.9102 123.633)" fill="#A1A1A1"/>
<rect width="4.9453" height="4.94532" transform="matrix(-4.37105e-08 -1 -1 4.37123e-08 69.2383 123.633)" fill="#A1A1A1"/>
<rect width="4.9453" height="4.94532" transform="matrix(-4.37105e-08 -1 -1 4.37123e-08 187.926 153.305)" fill="#A1A1A1"/>
<rect width="4.9453" height="4.94532" transform="matrix(-4.37105e-08 -1 -1 4.37123e-08 128.582 153.305)" fill="#A1A1A1"/>
<rect width="4.9453" height="4.94532" transform="matrix(-4.37105e-08 -1 -1 4.37123e-08 158.254 153.305)" fill="#A1A1A1"/>
<rect width="4.9453" height="4.94532" transform="matrix(-4.37105e-08 -1 -1 4.37123e-08 98.9102 153.305)" fill="#A1A1A1"/>
<rect width="4.9453" height="4.94532" transform="matrix(-4.37105e-08 -1 -1 4.37123e-08 69.2383 153.305)" fill="#A1A1A1"/>
<rect width="4.9453" height="4.94532" transform="matrix(-4.37105e-08 -1 -1 4.37123e-08 187.926 93.9609)" fill="#A1A1A1"/>
<rect width="4.9453" height="4.94532" transform="matrix(-4.37105e-08 -1 -1 4.37123e-08 128.582 93.9609)" fill="#A1A1A1"/>
<rect width="4.9453" height="4.94532" transform="matrix(-4.37105e-08 -1 -1 4.37123e-08 158.254 93.9609)" fill="#A1A1A1"/>
<rect width="4.9453" height="4.94532" transform="matrix(-4.37105e-08 -1 -1 4.37123e-08 98.9102 93.9609)" fill="#A1A1A1"/>
<rect width="4.9453" height="4.94532" transform="matrix(-4.37105e-08 -1 -1 4.37123e-08 69.2383 93.9609)" fill="#A1A1A1"/>
<rect width="4.9453" height="4.94532" transform="matrix(-4.37105e-08 -1 -1 4.37123e-08 187.926 64.2891)" fill="#A1A1A1"/>
<rect width="4.9453" height="4.94532" transform="matrix(-4.37105e-08 -1 -1 4.37123e-08 128.582 64.2891)" fill="#A1A1A1"/>
<rect width="4.9453" height="4.94532" transform="matrix(-4.37105e-08 -1 -1 4.37123e-08 158.254 64.2891)" fill="#A1A1A1"/>
<rect width="4.9453" height="4.94532" transform="matrix(-4.37105e-08 -1 -1 4.37123e-08 98.9102 64.2891)" fill="#A1A1A1"/>
<rect width="4.9453" height="4.94532" transform="matrix(-4.37105e-08 -1 -1 4.37123e-08 69.2383 64.2891)" fill="#A1A1A1"/>
<rect width="4.9453" height="4.94532" transform="matrix(-4.37105e-08 -1 -1 4.37123e-08 44.5117 93.9609)" fill="#A1A1A1"/>
<rect width="4.9453" height="4.94532" transform="matrix(-4.37105e-08 1 1 4.37123e-08 227.488 178.039)" fill="#A1A1A1"/>
<rect width="4.94532" height="4.9453" transform="matrix(-1 -8.74246e-08 -8.7421e-08 1 93.9648 227.492)" fill="#A1A1A1"/>
<rect width="4.9453" height="4.94532" transform="matrix(-4.37105e-08 -1 -1 4.37123e-08 232.43 93.9609)" fill="#A1A1A1"/>
<rect width="4.9453" height="4.94532" transform="matrix(-4.37105e-08 -1 -1 4.37123e-08 44.5117 123.633)" fill="#A1A1A1"/>
<rect width="4.9453" height="4.94532" transform="matrix(-4.37105e-08 1 1 4.37123e-08 227.488 148.367)" fill="#A1A1A1"/>
<rect width="4.94532" height="4.9453" transform="matrix(-1 -8.74246e-08 -8.7421e-08 1 123.637 227.492)" fill="#A1A1A1"/>
<rect width="4.9453" height="4.94532" transform="matrix(-4.37105e-08 -1 -1 4.37123e-08 232.43 123.633)" fill="#A1A1A1"/>
<rect width="4.9453" height="4.94532" transform="matrix(-4.37105e-08 -1 -1 4.37123e-08 74.1875 34.6172)" fill="#A1A1A1"/>
<rect width="4.9453" height="4.94532" transform="matrix(-4.37105e-08 1 1 4.37123e-08 197.812 237.383)" fill="#A1A1A1"/>
<rect width="4.94532" height="4.9453" transform="matrix(-1 -8.74246e-08 -8.7421e-08 1 34.6211 197.824)" fill="#A1A1A1"/>
<rect width="4.9453" height="4.94532" transform="matrix(-4.37105e-08 -1 -1 4.37123e-08 212.652 34.6172)" fill="#A1A1A1"/>
<rect width="4.9453" height="4.94532" transform="matrix(-4.37105e-08 -1 -1 4.37123e-08 252.211 4.94531)" fill="#A1A1A1"/>
<rect width="4.9453" height="4.94532" transform="matrix(-4.37105e-08 -1 -1 4.37123e-08 44.5117 34.6172)" fill="#A1A1A1"/>
<rect width="4.9453" height="4.94532" transform="matrix(-4.37105e-08 1 1 4.37123e-08 227.488 237.383)" fill="#A1A1A1"/>
<rect width="4.94532" height="4.9453" transform="matrix(-1 -8.74246e-08 -8.7421e-08 1 34.6211 227.492)" fill="#A1A1A1"/>
<rect width="4.9453" height="4.94532" transform="matrix(-4.37105e-08 -1 -1 4.37123e-08 182.98 34.6172)" fill="#A1A1A1"/>
<rect width="4.9453" height="4.94532" transform="matrix(-4.37105e-08 -1 -1 4.37123e-08 222.543 4.94531)" fill="#A1A1A1"/>
<rect width="4.9453" height="4.94532" transform="matrix(-4.37105e-08 -1 -1 4.37123e-08 34.6211 4.94531)" fill="#A1A1A1"/>
<rect width="4.9453" height="4.94532" transform="matrix(-4.37105e-08 1 1 4.37123e-08 237.379 267.055)" fill="#A1A1A1"/>
<rect width="4.94532" height="4.9453" transform="matrix(-1 -8.74246e-08 -8.7421e-08 1 4.95312 237.383)" fill="#A1A1A1"/>
<rect width="4.9453" height="4.94532" transform="matrix(-4.37105e-08 -1 -1 4.37123e-08 173.09 4.94531)" fill="#A1A1A1"/>
<rect width="4.9453" height="4.94532" transform="matrix(-4.37105e-08 -1 -1 4.37123e-08 182.98 192.867)" fill="#A1A1A1"/>
<rect width="4.9453" height="4.94532" transform="matrix(-4.37105e-08 -1 -1 4.37123e-08 123.637 192.867)" fill="#A1A1A1"/>
<rect width="4.9453" height="4.94532" transform="matrix(-4.37105e-08 -1 -1 4.37123e-08 153.305 192.867)" fill="#A1A1A1"/>
<rect width="4.9453" height="4.94532" transform="matrix(-4.37105e-08 -1 -1 4.37123e-08 93.9648 192.867)" fill="#A1A1A1"/>
<rect width="4.9453" height="4.94532" transform="matrix(-4.37105e-08 -1 -1 4.37123e-08 64.293 192.867)" fill="#A1A1A1"/>
<rect width="4.9453" height="4.94532" transform="matrix(-4.37105e-08 -1 -1 4.37123e-08 182.98 133.52)" fill="#A1A1A1"/>
<rect width="4.9453" height="4.94532" transform="matrix(-4.37105e-08 -1 -1 4.37123e-08 123.637 133.52)" fill="#A1A1A1"/>
<rect width="4.9453" height="4.94532" transform="matrix(-4.37105e-08 -1 -1 4.37123e-08 153.305 133.52)" fill="#A1A1A1"/>
<rect width="4.9453" height="4.94532" transform="matrix(-4.37105e-08 -1 -1 4.37123e-08 93.9648 133.52)" fill="#A1A1A1"/>
<rect width="4.9453" height="4.94532" transform="matrix(-4.37105e-08 -1 -1 4.37123e-08 64.293 133.52)" fill="#A1A1A1"/>
<rect width="4.9453" height="4.94532" transform="matrix(-4.37105e-08 -1 -1 4.37123e-08 182.98 163.191)" fill="#A1A1A1"/>
<rect width="4.9453" height="4.94532" transform="matrix(-4.37105e-08 -1 -1 4.37123e-08 123.637 163.191)" fill="#A1A1A1"/>
<rect width="4.9453" height="4.94532" transform="matrix(-4.37105e-08 -1 -1 4.37123e-08 153.305 163.191)" fill="#A1A1A1"/>
<rect width="4.9453" height="4.94532" transform="matrix(-4.37105e-08 -1 -1 4.37123e-08 93.9648 163.191)" fill="#A1A1A1"/>
<rect width="4.9453" height="4.94532" transform="matrix(-4.37105e-08 -1 -1 4.37123e-08 64.293 163.191)" fill="#A1A1A1"/>
<rect width="4.9453" height="4.94532" transform="matrix(-4.37105e-08 -1 -1 4.37123e-08 182.98 103.852)" fill="#A1A1A1"/>
<rect width="4.9453" height="4.94532" transform="matrix(-4.37105e-08 -1 -1 4.37123e-08 123.637 103.852)" fill="#A1A1A1"/>
<rect width="4.9453" height="4.94532" transform="matrix(-4.37105e-08 -1 -1 4.37123e-08 153.305 103.852)" fill="#A1A1A1"/>
<rect width="4.9453" height="4.94532" transform="matrix(-4.37105e-08 -1 -1 4.37123e-08 93.9648 103.852)" fill="#A1A1A1"/>
<rect width="4.9453" height="4.94532" transform="matrix(-4.37105e-08 -1 -1 4.37123e-08 64.293 103.852)" fill="#A1A1A1"/>
<rect width="4.9453" height="4.94532" transform="matrix(-4.37105e-08 -1 -1 4.37123e-08 34.6211 74.1797)" fill="#A1A1A1"/>
<rect width="4.9453" height="4.94532" transform="matrix(-4.37105e-08 1 1 4.37123e-08 237.379 197.824)" fill="#A1A1A1"/>
<rect width="4.94532" height="4.9453" transform="matrix(-1 -8.74246e-08 -8.7421e-08 1 74.1875 237.383)" fill="#A1A1A1"/>
<rect width="4.9453" height="4.94532" transform="matrix(-4.37105e-08 -1 -1 4.37123e-08 4.95312 44.5078)" fill="#A1A1A1"/>
<rect width="4.9453" height="4.94532" transform="matrix(-4.37105e-08 1 1 4.37123e-08 267.047 227.492)" fill="#A1A1A1"/>
<rect width="4.94532" height="4.9453" transform="matrix(-1 -8.74246e-08 -8.7421e-08 1 44.5117 267.055)" fill="#A1A1A1"/>
<rect width="4.9453" height="4.94532" transform="matrix(-4.37105e-08 -1 -1 4.37123e-08 271.992 44.5078)" fill="#A1A1A1"/>
<rect width="4.9453" height="4.94532" transform="matrix(-4.37105e-08 -1 -1 4.37123e-08 4.95312 113.742)" fill="#A1A1A1"/>
<rect width="4.9453" height="4.94532" transform="matrix(-4.37105e-08 1 1 4.37123e-08 267.047 158.258)" fill="#A1A1A1"/>
<rect width="4.94532" height="4.9453" transform="matrix(-1 -8.74246e-08 -8.7421e-08 1 113.75 267.055)" fill="#A1A1A1"/>
<rect width="4.9453" height="4.94532" transform="matrix(-4.37105e-08 -1 -1 4.37123e-08 271.992 113.742)" fill="#A1A1A1"/>
<rect width="4.9453" height="4.94532" transform="matrix(-4.37105e-08 -1 -1 4.37123e-08 182.98 74.1797)" fill="#A1A1A1"/>
<rect width="4.9453" height="4.94532" transform="matrix(-4.37105e-08 -1 -1 4.37123e-08 123.637 74.1797)" fill="#A1A1A1"/>
<rect width="4.9453" height="4.94532" transform="matrix(-4.37105e-08 -1 -1 4.37123e-08 153.305 74.1797)" fill="#A1A1A1"/>
<rect width="4.9453" height="4.94532" transform="matrix(-4.37105e-08 -1 -1 4.37123e-08 93.9648 74.1797)" fill="#A1A1A1"/>
<rect width="4.9453" height="4.94532" transform="matrix(-4.37105e-08 -1 -1 4.37123e-08 93.9648 44.5078)" fill="#A1A1A1"/>
<rect width="4.9453" height="4.94532" transform="matrix(-4.37105e-08 1 1 4.37123e-08 178.031 227.492)" fill="#A1A1A1"/>
<rect width="4.94532" height="4.9453" transform="matrix(-1 -8.74246e-08 -8.7421e-08 1 44.5117 178.039)" fill="#A1A1A1"/>
<rect width="4.9453" height="4.94532" transform="matrix(-4.37105e-08 -1 -1 4.37123e-08 182.98 44.5078)" fill="#A1A1A1"/>
<rect width="4.9453" height="4.94532" transform="matrix(-4.37105e-08 -1 -1 4.37123e-08 123.637 44.5078)" fill="#A1A1A1"/>
<rect width="4.9453" height="4.94532" transform="matrix(-4.37105e-08 1 1 4.37123e-08 148.363 227.492)" fill="#A1A1A1"/>
<rect width="4.94532" height="4.9453" transform="matrix(-1 -8.74246e-08 -8.7421e-08 1 44.5117 148.367)" fill="#A1A1A1"/>
<rect width="4.9453" height="4.94532" transform="matrix(-4.37105e-08 -1 -1 4.37123e-08 153.305 44.5078)" fill="#A1A1A1"/>
<rect width="4.9453" height="4.94532" transform="matrix(-4.37105e-08 -1 -1 4.37123e-08 123.637 14.8359)" fill="#A1A1A1"/>
<rect width="4.9453" height="4.94532" transform="matrix(-4.37105e-08 1 1 4.37123e-08 148.363 257.164)" fill="#A1A1A1"/>
<rect width="4.94532" height="4.9453" transform="matrix(-1 -8.74246e-08 -8.7421e-08 1 14.8438 148.367)" fill="#A1A1A1"/>
<rect width="4.9453" height="4.94532" transform="matrix(-4.37105e-08 -1 -1 4.37123e-08 153.305 14.8359)" fill="#A1A1A1"/>
<rect width="4.9453" height="4.94532" transform="matrix(-4.37105e-08 -1 -1 4.37123e-08 64.293 74.1797)" fill="#A1A1A1"/>
<rect width="4.9453" height="4.94532" transform="matrix(-4.37105e-08 -1 -1 4.37123e-08 34.6211 44.5078)" fill="#A1A1A1"/>
<rect width="4.9453" height="4.94532" transform="matrix(-4.37105e-08 1 1 4.37123e-08 237.379 227.492)" fill="#A1A1A1"/>
<rect width="4.94532" height="4.9453" transform="matrix(-1 -8.74246e-08 -8.7421e-08 1 44.5117 237.383)" fill="#A1A1A1"/>
<rect width="4.9453" height="4.94532" transform="matrix(-4.37105e-08 -1 -1 4.37123e-08 4.95312 14.8359)" fill="#A1A1A1"/>
<rect width="4.9453" height="4.94532" transform="matrix(-4.37105e-08 1 1 4.37123e-08 267.047 257.164)" fill="#A1A1A1"/>
<rect width="4.94532" height="4.9453" transform="matrix(-1 -8.74246e-08 -8.7421e-08 1 14.8438 267.055)" fill="#A1A1A1"/>
<rect width="4.9453" height="4.94532" transform="matrix(-4.37105e-08 -1 -1 4.37123e-08 271.992 14.8359)" fill="#A1A1A1"/>
<rect width="4.9453" height="4.94532" transform="matrix(-4.37105e-08 -1 -1 4.37123e-08 212.652 192.867)" fill="#A1A1A1"/>
<rect width="4.9453" height="4.94532" transform="matrix(-4.37105e-08 -1 -1 4.37123e-08 212.652 133.52)" fill="#A1A1A1"/>
<rect width="4.9453" height="4.94532" transform="matrix(-4.37105e-08 -1 -1 4.37123e-08 212.652 163.191)" fill="#A1A1A1"/>
<rect width="4.9453" height="4.94532" transform="matrix(-4.37105e-08 -1 -1 4.37123e-08 212.652 103.852)" fill="#A1A1A1"/>
<rect width="4.9453" height="4.94532" transform="matrix(-4.37105e-08 -1 -1 4.37123e-08 212.652 74.1797)" fill="#A1A1A1"/>
<rect width="4.94532" height="4.9453" transform="matrix(1 0.000189641 0.000189634 -1 178.031 197.812)" fill="#A1A1A1"/>
<rect width="4.94532" height="4.9453" transform="matrix(1 0.000189641 0.000189634 -1 118.691 197.812)" fill="#A1A1A1"/>
<rect width="4.94532" height="4.9453" transform="matrix(1 0.000189641 0.000189634 -1 148.363 197.812)" fill="#A1A1A1"/>
<rect width="4.94532" height="4.9453" transform="matrix(1 0.000189641 0.000189634 -1 89.0195 197.812)" fill="#A1A1A1"/>
<rect width="4.94532" height="4.9453" transform="matrix(1 0.000189641 0.000189634 -1 59.3516 197.812)" fill="#A1A1A1"/>
<rect width="4.94532" height="4.9453" transform="matrix(1 0.000189641 0.000189634 -1 178.031 138.469)" fill="#A1A1A1"/>
<rect width="4.94532" height="4.9453" transform="matrix(1 0.000189641 0.000189634 -1 118.691 138.469)" fill="#A1A1A1"/>
<rect width="4.94532" height="4.9453" transform="matrix(1 0.000189641 0.000189634 -1 148.363 138.469)" fill="#A1A1A1"/>
<rect width="4.94532" height="4.9453" transform="matrix(1 0.000189641 0.000189634 -1 89.0195 138.469)" fill="#A1A1A1"/>
<rect width="4.94532" height="4.9453" transform="matrix(1 0.000189641 0.000189634 -1 59.3516 138.469)" fill="#A1A1A1"/>
<rect width="4.94532" height="4.9453" transform="matrix(1 0.000189641 0.000189634 -1 178.031 168.141)" fill="#A1A1A1"/>
<rect width="4.94532" height="4.9453" transform="matrix(1 0.000189641 0.000189634 -1 118.691 168.141)" fill="#A1A1A1"/>
<rect width="4.94532" height="4.9453" transform="matrix(1 0.000189641 0.000189634 -1 148.363 168.141)" fill="#A1A1A1"/>
<rect width="4.94532" height="4.9453" transform="matrix(1 0.000189641 0.000189634 -1 89.0195 168.141)" fill="#A1A1A1"/>
<rect width="4.94532" height="4.9453" transform="matrix(1 0.000189641 0.000189634 -1 59.3516 168.141)" fill="#A1A1A1"/>
<rect width="4.94532" height="4.9453" transform="matrix(1 0.000189641 0.000189634 -1 178.031 108.797)" fill="#A1A1A1"/>
<rect width="4.94532" height="4.9453" transform="matrix(1 0.000189641 0.000189634 -1 118.691 108.797)" fill="#A1A1A1"/>
<rect width="4.94532" height="4.9453" transform="matrix(1 0.000189641 0.000189634 -1 148.363 108.797)" fill="#A1A1A1"/>
<rect width="4.94532" height="4.9453" transform="matrix(1 0.000189641 0.000189634 -1 89.0195 108.797)" fill="#A1A1A1"/>
<rect width="4.94532" height="4.9453" transform="matrix(1 0.000189641 0.000189634 -1 59.3516 108.797)" fill="#A1A1A1"/>
<rect width="4.94532" height="4.9453" transform="matrix(1 0.000189641 0.000189634 -1 237.379 74.1797)" fill="#A1A1A1"/>
<rect width="4.94532" height="4.9453" transform="matrix(1 0.000189641 0.000189634 -1 0.00390625 84.0703)" fill="#A1A1A1"/>
<rect width="4.94532" height="4.9453" transform="matrix(-1 -0.000189729 -0.000189721 1 271.992 187.93)" fill="#A1A1A1"/>
<rect width="4.94531" height="4.94532" transform="matrix(0.000189765 -1 -1 -0.000189772 84.0742 272)" fill="#A1A1A1"/>
<rect width="4.94532" height="4.9453" transform="matrix(1 0.000189641 0.000189634 -1 267.047 84.0703)" fill="#A1A1A1"/>
<rect width="4.94532" height="4.9453" transform="matrix(1 0.000189641 0.000189634 -1 178.031 79.125)" fill="#A1A1A1"/>
<rect width="4.94532" height="4.9453" transform="matrix(1 0.000189641 0.000189634 -1 118.691 79.125)" fill="#A1A1A1"/>
<rect width="4.94532" height="4.9453" transform="matrix(1 0.000189641 0.000189634 -1 148.363 79.125)" fill="#A1A1A1"/>
<rect width="4.94532" height="4.9453" transform="matrix(1 0.000189641 0.000189634 -1 89.0195 79.125)" fill="#A1A1A1"/>
<rect width="4.94532" height="4.9453" transform="matrix(1 0.000189641 0.000189634 -1 59.3516 79.125)" fill="#A1A1A1"/>
<rect width="4.94532" height="4.9453" transform="matrix(1 0.000189641 0.000189634 -1 237.379 44.5078)" fill="#A1A1A1"/>
<rect width="4.94532" height="4.9453" transform="matrix(1 0.000189641 0.000189634 -1 207.703 197.812)" fill="#A1A1A1"/>
<rect width="4.94532" height="4.9453" transform="matrix(1 0.000189641 0.000189634 -1 207.703 138.469)" fill="#A1A1A1"/>
<rect width="4.94532" height="4.9453" transform="matrix(1 0.000189641 0.000189634 -1 207.703 168.141)" fill="#A1A1A1"/>
<rect width="4.94532" height="4.9453" transform="matrix(1 0.000189641 0.000189634 -1 207.703 108.797)" fill="#A1A1A1"/>
<rect width="4.94532" height="4.9453" transform="matrix(1 0.000189641 0.000189634 -1 207.703 79.125)" fill="#A1A1A1"/>
<rect width="4.9453" height="4.94532" transform="matrix(-4.37105e-08 -1 -1 4.37123e-08 197.812 212.648)" fill="#A1A1A1"/>
<rect width="4.9453" height="4.94532" transform="matrix(-4.37105e-08 -1 -1 4.37123e-08 138.473 212.648)" fill="#A1A1A1"/>
<rect width="4.9453" height="4.94532" transform="matrix(-4.37105e-08 -1 -1 4.37123e-08 168.145 212.648)" fill="#A1A1A1"/>
<rect width="4.9453" height="4.94532" transform="matrix(-4.37105e-08 -1 -1 4.37123e-08 108.801 212.648)" fill="#A1A1A1"/>
<rect width="4.9453" height="4.94532" transform="matrix(-4.37105e-08 -1 -1 4.37123e-08 79.1289 212.648)" fill="#A1A1A1"/>
<rect width="4.9453" height="4.94532" transform="matrix(-4.37105e-08 -1 -1 4.37123e-08 197.812 182.977)" fill="#A1A1A1"/>
<rect width="4.9453" height="4.94532" transform="matrix(-4.37105e-08 -1 -1 4.37123e-08 138.473 182.977)" fill="#A1A1A1"/>
<rect width="4.9453" height="4.94532" transform="matrix(-4.37105e-08 -1 -1 4.37123e-08 168.145 182.977)" fill="#A1A1A1"/>
<rect width="4.9453" height="4.94532" transform="matrix(-4.37105e-08 -1 -1 4.37123e-08 108.801 182.977)" fill="#A1A1A1"/>
<rect width="4.9453" height="4.94532" transform="matrix(-4.37105e-08 -1 -1 4.37123e-08 79.1289 182.977)" fill="#A1A1A1"/>
<rect width="4.9453" height="4.94532" transform="matrix(-4.37105e-08 -1 -1 4.37123e-08 197.812 123.633)" fill="#A1A1A1"/>
<rect width="4.9453" height="4.94532" transform="matrix(-4.37105e-08 -1 -1 4.37123e-08 138.473 123.633)" fill="#A1A1A1"/>
<rect width="4.9453" height="4.94532" transform="matrix(-4.37105e-08 -1 -1 4.37123e-08 168.145 123.633)" fill="#A1A1A1"/>
<rect width="4.9453" height="4.94532" transform="matrix(-4.37105e-08 -1 -1 4.37123e-08 108.801 123.633)" fill="#A1A1A1"/>
<rect width="4.9453" height="4.94532" transform="matrix(-4.37105e-08 -1 -1 4.37123e-08 79.1289 123.633)" fill="#A1A1A1"/>
<rect width="4.9453" height="4.94532" transform="matrix(-4.37105e-08 -1 -1 4.37123e-08 197.812 153.305)" fill="#A1A1A1"/>
<rect width="4.9453" height="4.94532" transform="matrix(-4.37105e-08 -1 -1 4.37123e-08 138.473 153.305)" fill="#A1A1A1"/>
<rect width="4.9453" height="4.94532" transform="matrix(-4.37105e-08 -1 -1 4.37123e-08 168.145 153.305)" fill="#A1A1A1"/>
<rect width="4.9453" height="4.94532" transform="matrix(-4.37105e-08 -1 -1 4.37123e-08 108.801 153.305)" fill="#A1A1A1"/>
<rect width="4.9453" height="4.94532" transform="matrix(-4.37105e-08 -1 -1 4.37123e-08 79.1289 153.305)" fill="#A1A1A1"/>
<rect width="4.9453" height="4.94532" transform="matrix(-4.37105e-08 -1 -1 4.37123e-08 197.812 93.9609)" fill="#A1A1A1"/>
<rect width="4.9453" height="4.94532" transform="matrix(-4.37105e-08 -1 -1 4.37123e-08 138.473 93.9609)" fill="#A1A1A1"/>
<rect width="4.9453" height="4.94532" transform="matrix(-4.37105e-08 -1 -1 4.37123e-08 168.145 93.9609)" fill="#A1A1A1"/>
<rect width="4.9453" height="4.94532" transform="matrix(-4.37105e-08 -1 -1 4.37123e-08 108.801 93.9609)" fill="#A1A1A1"/>
<rect width="4.9453" height="4.94532" transform="matrix(-4.37105e-08 -1 -1 4.37123e-08 79.1289 93.9609)" fill="#A1A1A1"/>
<rect width="4.9453" height="4.94532" transform="matrix(-4.37105e-08 -1 -1 4.37123e-08 197.812 64.2891)" fill="#A1A1A1"/>
<rect width="4.9453" height="4.94532" transform="matrix(-4.37105e-08 -1 -1 4.37123e-08 138.473 64.2891)" fill="#A1A1A1"/>
<rect width="4.9453" height="4.94532" transform="matrix(-4.37105e-08 -1 -1 4.37123e-08 168.145 64.2891)" fill="#A1A1A1"/>
<rect width="4.9453" height="4.94532" transform="matrix(-4.37105e-08 -1 -1 4.37123e-08 108.801 64.2891)" fill="#A1A1A1"/>
<rect width="4.9453" height="4.94532" transform="matrix(-4.37105e-08 -1 -1 4.37123e-08 79.1289 64.2891)" fill="#A1A1A1"/>
<rect width="4.9453" height="4.94532" transform="matrix(-4.37105e-08 -1 -1 4.37123e-08 54.4023 93.9609)" fill="#A1A1A1"/>
<rect width="4.9453" height="4.94532" transform="matrix(-4.37105e-08 1 1 4.37123e-08 217.594 178.039)" fill="#A1A1A1"/>
<rect width="4.94532" height="4.9453" transform="matrix(-1 -8.74246e-08 -8.7421e-08 1 93.9648 217.605)" fill="#A1A1A1"/>
<rect width="4.9453" height="4.94532" transform="matrix(-4.37105e-08 -1 -1 4.37123e-08 242.32 93.9609)" fill="#A1A1A1"/>
<rect width="4.9453" height="4.94532" transform="matrix(-4.37105e-08 -1 -1 4.37123e-08 54.4023 123.633)" fill="#A1A1A1"/>
<rect width="4.9453" height="4.94532" transform="matrix(-4.37105e-08 1 1 4.37123e-08 217.594 148.367)" fill="#A1A1A1"/>
<rect width="4.94532" height="4.9453" transform="matrix(-1 -8.74246e-08 -8.7421e-08 1 123.637 217.605)" fill="#A1A1A1"/>
<rect width="4.9453" height="4.94532" transform="matrix(-4.37105e-08 -1 -1 4.37123e-08 242.32 123.633)" fill="#A1A1A1"/>
<rect width="4.9453" height="4.94532" transform="matrix(-4.37105e-08 -1 -1 4.37123e-08 84.0742 34.6172)" fill="#A1A1A1"/>
<rect width="4.9453" height="4.94532" transform="matrix(-4.37105e-08 1 1 4.37123e-08 187.926 237.383)" fill="#A1A1A1"/>
<rect width="4.94532" height="4.9453" transform="matrix(-1 -8.74246e-08 -8.7421e-08 1 34.6211 187.93)" fill="#A1A1A1"/>
<rect width="4.9453" height="4.94532" transform="matrix(-4.37105e-08 -1 -1 4.37123e-08 222.543 34.6172)" fill="#A1A1A1"/>
<rect width="4.9453" height="4.94532" transform="matrix(-4.37105e-08 -1 -1 4.37123e-08 262.102 4.94531)" fill="#A1A1A1"/>
<rect width="4.9453" height="4.94532" transform="matrix(-4.37105e-08 -1 -1 4.37123e-08 54.4023 34.6172)" fill="#A1A1A1"/>
<rect width="4.9453" height="4.94532" transform="matrix(-4.37105e-08 1 1 4.37123e-08 217.594 237.383)" fill="#A1A1A1"/>
<rect width="4.94532" height="4.9453" transform="matrix(-1 -8.74246e-08 -8.7421e-08 1 34.6211 217.605)" fill="#A1A1A1"/>
<rect width="4.9453" height="4.94532" transform="matrix(-4.37105e-08 -1 -1 4.37123e-08 192.867 34.6172)" fill="#A1A1A1"/>
<rect width="4.9453" height="4.94532" transform="matrix(-4.37105e-08 -1 -1 4.37123e-08 232.43 4.94531)" fill="#A1A1A1"/>
<rect width="4.9453" height="4.94532" transform="matrix(-4.37105e-08 -1 -1 4.37123e-08 44.5117 4.94531)" fill="#A1A1A1"/>
<rect width="4.9453" height="4.94532" transform="matrix(-4.37105e-08 1 1 4.37123e-08 227.488 267.055)" fill="#A1A1A1"/>
<rect width="4.94532" height="4.9453" transform="matrix(-1 -8.74246e-08 -8.7421e-08 1 4.95312 227.492)" fill="#A1A1A1"/>
<rect width="4.94532" height="4.9453" transform="matrix(1 0.000189641 0.000189634 -1 178.031 187.922)" fill="#A1A1A1"/>
<rect width="4.94532" height="4.9453" transform="matrix(1 0.000189641 0.000189634 -1 118.691 187.922)" fill="#A1A1A1"/>
<rect width="4.94532" height="4.9453" transform="matrix(1 0.000189641 0.000189634 -1 148.363 187.922)" fill="#A1A1A1"/>
<rect width="4.94532" height="4.9453" transform="matrix(1 0.000189641 0.000189634 -1 89.0195 187.922)" fill="#A1A1A1"/>
<rect width="4.94532" height="4.9453" transform="matrix(1 0.000189641 0.000189634 -1 59.3516 187.922)" fill="#A1A1A1"/>
<rect width="4.94532" height="4.9453" transform="matrix(1 0.000189641 0.000189634 -1 178.031 128.578)" fill="#A1A1A1"/>
<rect width="4.94532" height="4.9453" transform="matrix(1 0.000189641 0.000189634 -1 118.691 128.578)" fill="#A1A1A1"/>
<rect width="4.94532" height="4.9453" transform="matrix(1 0.000189641 0.000189634 -1 148.363 128.578)" fill="#A1A1A1"/>
<rect width="4.94532" height="4.9453" transform="matrix(1 0.000189641 0.000189634 -1 89.0195 128.578)" fill="#A1A1A1"/>
<rect width="4.94532" height="4.9453" transform="matrix(1 0.000189641 0.000189634 -1 59.3516 128.578)" fill="#A1A1A1"/>
<rect width="4.94532" height="4.9453" transform="matrix(1 0.000189641 0.000189634 -1 178.031 158.25)" fill="#A1A1A1"/>
<rect width="4.94532" height="4.9453" transform="matrix(1 0.000189641 0.000189634 -1 118.691 158.25)" fill="#A1A1A1"/>
<rect width="4.94532" height="4.9453" transform="matrix(1 0.000189641 0.000189634 -1 148.363 158.25)" fill="#A1A1A1"/>
<rect width="4.94532" height="4.9453" transform="matrix(1 0.000189641 0.000189634 -1 89.0195 158.25)" fill="#A1A1A1"/>
<rect width="4.94532" height="4.9453" transform="matrix(1 0.000189641 0.000189634 -1 59.3516 158.25)" fill="#A1A1A1"/>
<rect width="4.94532" height="4.9453" transform="matrix(1 0.000189641 0.000189634 -1 178.031 98.9062)" fill="#A1A1A1"/>
<rect width="4.94532" height="4.9453" transform="matrix(1 0.000189641 0.000189634 -1 118.691 98.9062)" fill="#A1A1A1"/>
<rect width="4.94532" height="4.9453" transform="matrix(1 0.000189641 0.000189634 -1 148.363 98.9062)" fill="#A1A1A1"/>
<rect width="4.94532" height="4.9453" transform="matrix(1 0.000189641 0.000189634 -1 89.0195 98.9062)" fill="#A1A1A1"/>
<rect width="4.94532" height="4.9453" transform="matrix(1 0.000189641 0.000189634 -1 59.3516 98.9062)" fill="#A1A1A1"/>
<rect width="4.94532" height="4.9453" transform="matrix(1 0.000189641 0.000189634 -1 237.379 64.2891)" fill="#A1A1A1"/>
<rect width="4.94532" height="4.9453" transform="matrix(1 0.000189641 0.000189634 -1 0.00390625 74.1797)" fill="#A1A1A1"/>
<rect width="4.94532" height="4.9453" transform="matrix(-1 -0.000189729 -0.000189721 1 271.992 197.824)" fill="#A1A1A1"/>
<rect width="4.94531" height="4.94532" transform="matrix(0.000189765 -1 -1 -0.000189772 74.1875 272)" fill="#A1A1A1"/>
<rect width="4.94532" height="4.9453" transform="matrix(1 0.000189641 0.000189634 -1 267.047 74.1797)" fill="#A1A1A1"/>
<rect width="4.94532" height="4.9453" transform="matrix(1 0.000189641 0.000189634 -1 178.031 69.2344)" fill="#A1A1A1"/>
<rect width="4.94532" height="4.9453" transform="matrix(1 0.000189641 0.000189634 -1 118.691 69.2344)" fill="#A1A1A1"/>
<rect width="4.94532" height="4.9453" transform="matrix(1 0.000189641 0.000189634 -1 148.363 69.2344)" fill="#A1A1A1"/>
<rect width="4.94532" height="4.9453" transform="matrix(1 0.000189641 0.000189634 -1 89.0195 69.2344)" fill="#A1A1A1"/>
<rect width="4.94532" height="4.9453" transform="matrix(1 0.000189641 0.000189634 -1 59.3516 69.2344)" fill="#A1A1A1"/>
<rect width="4.94532" height="4.9453" transform="matrix(1 0.000189641 0.000189634 -1 237.379 34.6172)" fill="#A1A1A1"/>
<rect width="4.94532" height="4.9453" transform="matrix(1 0.000189641 0.000189634 -1 207.703 187.922)" fill="#A1A1A1"/>
<rect width="4.94532" height="4.9453" transform="matrix(1 0.000189641 0.000189634 -1 207.703 128.578)" fill="#A1A1A1"/>
<rect width="4.94532" height="4.9453" transform="matrix(1 0.000189641 0.000189634 -1 207.703 158.25)" fill="#A1A1A1"/>
<rect width="4.94532" height="4.9453" transform="matrix(1 0.000189641 0.000189634 -1 207.703 98.9062)" fill="#A1A1A1"/>
<rect width="4.94532" height="4.9453" transform="matrix(1 0.000189641 0.000189634 -1 207.703 69.2344)" fill="#A1A1A1"/>
<rect width="4.94532" height="4.9453" transform="matrix(1 0.000189641 0.000189634 -1 178.031 212.648)" fill="#A1A1A1"/>
<rect width="4.94532" height="4.9453" transform="matrix(1 0.000189641 0.000189634 -1 118.691 212.648)" fill="#A1A1A1"/>
<rect width="4.94532" height="4.9453" transform="matrix(1 0.000189641 0.000189634 -1 148.363 212.648)" fill="#A1A1A1"/>
<rect width="4.94532" height="4.9453" transform="matrix(1 0.000189641 0.000189634 -1 89.0195 212.648)" fill="#A1A1A1"/>
<rect width="4.94532" height="4.9453" transform="matrix(1 0.000189641 0.000189634 -1 59.3516 212.648)" fill="#A1A1A1"/>
<rect width="4.94532" height="4.9453" transform="matrix(1 0.000189641 0.000189634 -1 207.703 212.648)" fill="#A1A1A1"/>
<ellipse cx="120.889" cy="120.89" rx="12.5926" ry="12.5927" fill="black"/>
<path d="M181.236 122.305C182.017 121.524 182.017 120.257 181.236 119.476L168.508 106.748C167.727 105.967 166.461 105.967 165.68 106.748C164.899 107.53 164.899 108.796 165.68 109.577L176.994 120.891L165.68 132.204C164.899 132.985 164.899 134.252 165.68 135.033C166.461 135.814 167.727 135.814 168.508 135.033L181.236 122.305ZM136 120.891V122.891H179.822V120.891V118.891H136V120.891Z" fill="white"/>
<path d="M122.305 61.0446C121.524 60.2636 120.257 60.2636 119.476 61.0446L106.748 73.7725C105.967 74.5536 105.967 75.8199 106.748 76.601C107.53 77.382 108.796 77.382 109.577 76.601L120.891 65.2873L132.204 76.601C132.985 77.382 134.252 77.382 135.033 76.601C135.814 75.8199 135.814 74.5536 135.033 73.7725L122.305 61.0446ZM120.891 106.281L122.891 106.281L122.891 62.4588L120.891 62.4588L118.891 62.4588L118.891 106.281L120.891 106.281Z" fill="white"/>
<path d="M119.476 181.237C120.257 182.018 121.524 182.018 122.305 181.237L135.033 168.509C135.814 167.728 135.814 166.461 135.033 165.68C134.252 164.899 132.985 164.899 132.204 165.68L120.891 176.994L109.577 165.68C108.796 164.899 107.53 164.899 106.748 165.68C105.967 166.461 105.967 167.728 106.748 168.509L119.476 181.237ZM120.891 136L118.891 136L118.891 179.822L120.891 179.822L122.891 179.822L122.891 136L120.891 136Z" fill="white"/>
<path d="M89.6702 151.119C89.6702 152.224 90.5656 153.119 91.6702 153.119L109.67 153.119C110.775 153.119 111.67 152.224 111.67 151.119C111.67 150.014 110.775 149.119 109.67 149.119L93.6702 149.119L93.6702 133.119C93.6702 132.014 92.7747 131.119 91.6702 131.119C90.5656 131.119 89.6702 132.014 89.6702 133.119L89.6702 151.119ZM112.328 130.461L110.914 129.047L90.256 149.705L91.6702 151.119L93.0844 152.533L113.742 131.875L112.328 130.461Z" fill="white"/>
<path d="M150.111 153.119C151.216 153.119 152.111 152.224 152.111 151.119L152.111 133.119C152.111 132.014 151.216 131.119 150.111 131.119C149.007 131.119 148.111 132.014 148.111 133.119L148.111 149.119L132.111 149.119C131.007 149.119 130.111 150.014 130.111 151.119C130.111 152.224 131.007 153.119 132.111 153.119L150.111 153.119ZM129.453 130.461L128.039 131.875L148.697 152.533L150.111 151.119L151.525 149.705L130.867 129.047L129.453 130.461Z" fill="white"/>
<path d="M60.541 119.476C59.76 120.257 59.76 121.524 60.541 122.305L73.2689 135.033C74.05 135.814 75.3163 135.814 76.0973 135.033C76.8784 134.252 76.8784 132.985 76.0974 132.204L64.7836 120.891L76.0974 109.577C76.8784 108.796 76.8784 107.53 76.0974 106.748C75.3163 105.967 74.05 105.967 73.2689 106.748L60.541 119.476ZM105.777 120.891L105.777 118.891L61.9552 118.891L61.9552 120.891L61.9552 122.891L105.777 122.891L105.777 120.891Z" fill="white"/>
<path d="M89.7561 88.6622C88.6515 88.6622 87.7561 89.5576 87.7561 90.6622L87.7561 108.662C87.7561 109.767 88.6515 110.662 89.7561 110.662C90.8607 110.662 91.7561 109.767 91.7561 108.662L91.7561 92.6622L107.756 92.6622C108.861 92.6622 109.756 91.7668 109.756 90.6622C109.756 89.5576 108.861 88.6622 107.756 88.6622L89.7561 88.6622ZM110.414 111.32L111.828 109.906L91.1703 89.248L89.7561 90.6622L88.3419 92.0764L109 112.735L110.414 111.32Z" fill="white"/>
<path d="M152.111 90.6622C152.111 89.5576 151.216 88.6622 150.111 88.6622L132.111 88.6622C131.007 88.6622 130.111 89.5576 130.111 90.6622C130.111 91.7668 131.007 92.6622 132.111 92.6622L148.111 92.6622L148.111 108.662C148.111 109.767 149.007 110.662 150.111 110.662C151.216 110.662 152.111 109.767 152.111 108.662L152.111 90.6622ZM129.453 111.32L130.867 112.735L151.525 92.0764L150.111 90.6622L148.697 89.248L128.039 109.906L129.453 111.32Z" fill="white"/>
</svg>
