<svg width="272" height="272" viewBox="0 0 272 272" fill="none" xmlns="http://www.w3.org/2000/svg">
<rect width="4.91801" height="4.94526" transform="matrix(1 0 0 -1 196.723 212.648)" fill="#A1A1A1"/>
<rect width="4.91801" height="4.94526" transform="matrix(1 0 0 -1 137.707 212.648)" fill="#A1A1A1"/>
<rect width="4.91801" height="4.94526" transform="matrix(1 0 0 -1 167.219 212.648)" fill="#A1A1A1"/>
<rect width="4.91801" height="4.94526" transform="matrix(1 0 0 -1 108.203 212.648)" fill="#A1A1A1"/>
<rect width="4.91801" height="4.94526" transform="matrix(1 0 0 -1 78.6953 212.648)" fill="#A1A1A1"/>
<rect width="4.91801" height="4.94526" transform="matrix(1 0 0 -1 201.641 212.648)" fill="#A1A1A1"/>
<rect width="4.91801" height="4.94526" transform="matrix(1 0 0 -1 142.625 212.648)" fill="#A1A1A1"/>
<rect width="4.91801" height="4.94526" transform="matrix(1 0 0 -1 172.137 212.648)" fill="#A1A1A1"/>
<rect width="4.91801" height="4.94526" transform="matrix(1 0 0 -1 113.121 212.648)" fill="#A1A1A1"/>
<rect width="4.91801" height="4.94526" transform="matrix(1 0 0 -1 83.6133 212.648)" fill="#A1A1A1"/>
<rect width="4.91801" height="4.94526" transform="matrix(1 0 0 -1 196.723 182.977)" fill="#A1A1A1"/>
<rect width="4.91801" height="4.94526" transform="matrix(1 0 0 -1 137.707 182.977)" fill="#A1A1A1"/>
<rect width="4.91801" height="4.94526" transform="matrix(1 0 0 -1 167.219 182.977)" fill="#A1A1A1"/>
<rect width="4.91801" height="4.94526" transform="matrix(1 0 0 -1 108.203 182.977)" fill="#A1A1A1"/>
<rect width="4.91801" height="4.94526" transform="matrix(1 0 0 -1 78.6953 182.977)" fill="#A1A1A1"/>
<rect width="4.91801" height="4.94526" transform="matrix(1 0 0 -1 196.723 123.633)" fill="#A1A1A1"/>
<rect width="4.91801" height="4.94526" transform="matrix(1 0 0 -1 137.707 123.633)" fill="#A1A1A1"/>
<rect width="4.91801" height="4.94526" transform="matrix(1 0 0 -1 167.219 123.633)" fill="#A1A1A1"/>
<rect width="4.91801" height="4.94526" transform="matrix(1 0 0 -1 108.203 123.633)" fill="#A1A1A1"/>
<rect width="4.91801" height="4.94526" transform="matrix(1 0 0 -1 78.6953 123.633)" fill="#A1A1A1"/>
<rect width="4.91801" height="4.94526" transform="matrix(1 0 0 -1 196.723 153.305)" fill="#A1A1A1"/>
<rect width="4.91801" height="4.94526" transform="matrix(1 0 0 -1 137.707 153.305)" fill="#A1A1A1"/>
<rect width="4.91801" height="4.94526" transform="matrix(1 0 0 -1 167.219 153.305)" fill="#A1A1A1"/>
<rect width="4.91801" height="4.94526" transform="matrix(1 0 0 -1 108.203 153.305)" fill="#A1A1A1"/>
<rect width="4.91801" height="4.94526" transform="matrix(1 0 0 -1 78.6953 153.305)" fill="#A1A1A1"/>
<rect width="4.91801" height="4.94526" transform="matrix(1 0 0 -1 196.723 93.9609)" fill="#A1A1A1"/>
<rect width="4.91801" height="4.94526" transform="matrix(1 0 0 -1 137.707 93.9609)" fill="#A1A1A1"/>
<rect width="4.91801" height="4.94526" transform="matrix(1 0 0 -1 167.219 93.9609)" fill="#A1A1A1"/>
<rect width="4.91801" height="4.94526" transform="matrix(1 0 0 -1 108.203 93.9609)" fill="#A1A1A1"/>
<rect width="4.91801" height="4.94526" transform="matrix(1 0 0 -1 78.6953 93.9609)" fill="#A1A1A1"/>
<rect width="4.91801" height="4.94526" transform="matrix(1 0 0 -1 196.723 64.2891)" fill="#A1A1A1"/>
<rect width="4.91801" height="4.94526" transform="matrix(1 0 0 -1 137.707 64.2891)" fill="#A1A1A1"/>
<rect width="4.91801" height="4.94526" transform="matrix(1 0 0 -1 167.219 64.2891)" fill="#A1A1A1"/>
<rect width="4.91801" height="4.94526" transform="matrix(1 0 0 -1 108.203 64.2891)" fill="#A1A1A1"/>
<rect width="4.91801" height="4.94526" transform="matrix(1 0 0 -1 78.6953 64.2891)" fill="#A1A1A1"/>
<rect width="4.91801" height="4.94526" transform="matrix(1 0 0 -1 265.578 123.633)" fill="#A1A1A1"/>
<rect width="4.91801" height="4.94526" transform="matrix(1 0 0 -1 29.5156 123.633)" fill="#A1A1A1"/>
<rect width="4.91801" height="4.94526" transform="matrix(-1 -8.79092e-08 -8.69391e-08 1 240.984 148.367)" fill="#A1A1A1"/>
<rect width="4.94526" height="4.91801" transform="matrix(1.30409e-07 -1 -1 -1.31864e-07 122.957 242.328)" fill="#A1A1A1"/>
<rect width="4.91801" height="4.94526" transform="matrix(1 0 0 -1 108.203 4.94531)" fill="#A1A1A1"/>
<rect width="4.91801" height="4.94526" transform="matrix(-1 -8.79092e-08 -8.69391e-08 1 162.297 267.055)" fill="#A1A1A1"/>
<rect width="4.94526" height="4.91801" transform="matrix(1.30409e-07 -1 -1 -1.31864e-07 4.92578 163.203)" fill="#A1A1A1"/>
<rect width="4.91801" height="4.94526" transform="matrix(1 0 0 -1 78.6953 4.94531)" fill="#A1A1A1"/>
<rect width="4.91801" height="4.94526" transform="matrix(-1 -8.79092e-08 -8.69391e-08 1 191.805 267.055)" fill="#A1A1A1"/>
<rect width="4.94526" height="4.91801" transform="matrix(1.30409e-07 -1 -1 -1.31864e-07 4.92578 192.875)" fill="#A1A1A1"/>
<rect width="4.91801" height="4.94526" transform="matrix(1 0 0 -1 196.723 4.94531)" fill="#A1A1A1"/>
<rect width="4.91801" height="4.94526" transform="matrix(1 0 0 -1 201.641 182.977)" fill="#A1A1A1"/>
<rect width="4.91801" height="4.94526" transform="matrix(1 0 0 -1 142.625 182.977)" fill="#A1A1A1"/>
<rect width="4.91801" height="4.94526" transform="matrix(1 0 0 -1 172.137 182.977)" fill="#A1A1A1"/>
<rect width="4.91801" height="4.94526" transform="matrix(1 0 0 -1 113.121 182.977)" fill="#A1A1A1"/>
<rect width="4.91801" height="4.94526" transform="matrix(1 0 0 -1 83.6133 182.977)" fill="#A1A1A1"/>
<rect width="4.91801" height="4.94526" transform="matrix(1 0 0 -1 201.641 123.633)" fill="#A1A1A1"/>
<rect width="4.91801" height="4.94526" transform="matrix(1 0 0 -1 142.625 123.633)" fill="#A1A1A1"/>
<rect width="4.91801" height="4.94526" transform="matrix(1 0 0 -1 172.137 123.633)" fill="#A1A1A1"/>
<rect width="4.91801" height="4.94526" transform="matrix(1 0 0 -1 113.121 123.633)" fill="#A1A1A1"/>
<rect width="4.91801" height="4.94526" transform="matrix(1 0 0 -1 83.6133 123.633)" fill="#A1A1A1"/>
<rect width="4.91801" height="4.94526" transform="matrix(1 0 0 -1 201.641 153.305)" fill="#A1A1A1"/>
<rect width="4.91801" height="4.94526" transform="matrix(1 0 0 -1 142.625 153.305)" fill="#A1A1A1"/>
<rect width="4.91801" height="4.94526" transform="matrix(1 0 0 -1 172.137 153.305)" fill="#A1A1A1"/>
<rect width="4.91801" height="4.94526" transform="matrix(1 0 0 -1 113.121 153.305)" fill="#A1A1A1"/>
<rect width="4.91801" height="4.94526" transform="matrix(1 0 0 -1 83.6133 153.305)" fill="#A1A1A1"/>
<rect width="4.91801" height="4.94526" transform="matrix(1 0 0 -1 201.641 93.9609)" fill="#A1A1A1"/>
<rect width="4.91801" height="4.94526" transform="matrix(1 0 0 -1 142.625 93.9609)" fill="#A1A1A1"/>
<rect width="4.91801" height="4.94526" transform="matrix(1 0 0 -1 172.137 93.9609)" fill="#A1A1A1"/>
<rect width="4.91801" height="4.94526" transform="matrix(1 0 0 -1 113.121 93.9609)" fill="#A1A1A1"/>
<rect width="4.91801" height="4.94526" transform="matrix(1 0 0 -1 83.6133 93.9609)" fill="#A1A1A1"/>
<rect width="4.91801" height="4.94526" transform="matrix(1 0 0 -1 201.641 64.2891)" fill="#A1A1A1"/>
<rect width="4.91801" height="4.94526" transform="matrix(1 0 0 -1 142.625 64.2891)" fill="#A1A1A1"/>
<rect width="4.91801" height="4.94526" transform="matrix(1 0 0 -1 172.137 64.2891)" fill="#A1A1A1"/>
<rect width="4.91801" height="4.94526" transform="matrix(1 0 0 -1 113.121 64.2891)" fill="#A1A1A1"/>
<rect width="4.91801" height="4.94526" transform="matrix(1 0 0 -1 83.6133 64.2891)" fill="#A1A1A1"/>
<rect width="4.91801" height="4.94526" transform="matrix(1 0 0 -1 88.5312 34.6172)" fill="#A1A1A1"/>
<rect width="4.91801" height="4.94526" transform="matrix(-1 -8.79092e-08 -8.69391e-08 1 181.973 237.383)" fill="#A1A1A1"/>
<rect width="4.94526" height="4.91801" transform="matrix(1.30409e-07 -1 -1 -1.31864e-07 34.4336 182.984)" fill="#A1A1A1"/>
<rect width="4.91801" height="4.94526" transform="matrix(1 0 0 -1 226.234 34.6172)" fill="#A1A1A1"/>
<rect width="4.91801" height="4.94526" transform="matrix(1 0 0 -1 265.578 4.94531)" fill="#A1A1A1"/>
<rect width="4.91801" height="4.94526" transform="matrix(1 0 0 -1 118.039 34.6172)" fill="#A1A1A1"/>
<rect width="4.91801" height="4.94526" transform="matrix(-1 -8.79092e-08 -8.69391e-08 1 152.461 237.383)" fill="#A1A1A1"/>
<rect width="4.94526" height="4.91801" transform="matrix(1.30409e-07 -1 -1 -1.31864e-07 34.4336 153.312)" fill="#A1A1A1"/>
<rect width="4.91801" height="4.94526" transform="matrix(1 0 0 -1 147.547 34.6172)" fill="#A1A1A1"/>
<rect width="4.91801" height="4.94526" transform="matrix(1 0 0 -1 118.039 4.94531)" fill="#A1A1A1"/>
<rect width="4.91801" height="4.94526" transform="matrix(-1 -8.79092e-08 -8.69391e-08 1 152.461 267.055)" fill="#A1A1A1"/>
<rect width="4.94526" height="4.91801" transform="matrix(1.30409e-07 -1 -1 -1.31864e-07 4.92578 153.312)" fill="#A1A1A1"/>
<rect width="4.91801" height="4.94526" transform="matrix(1 0 0 -1 147.547 4.94531)" fill="#A1A1A1"/>
<rect width="4.91801" height="4.94526" transform="matrix(1 0 0 -1 59.0234 34.6172)" fill="#A1A1A1"/>
<rect width="4.91801" height="4.94526" transform="matrix(-1 -8.79092e-08 -8.69391e-08 1 211.48 237.383)" fill="#A1A1A1"/>
<rect width="4.94526" height="4.91801" transform="matrix(1.30409e-07 -1 -1 -1.31864e-07 34.4336 212.656)" fill="#A1A1A1"/>
<rect width="4.91801" height="4.94526" transform="matrix(1 0 0 -1 196.723 34.6172)" fill="#A1A1A1"/>
<rect width="4.91801" height="4.94526" transform="matrix(1 0 0 -1 236.07 4.94531)" fill="#A1A1A1"/>
<rect width="4.91801" height="4.94526" transform="matrix(1 0 0 -1 49.1875 4.94531)" fill="#A1A1A1"/>
<rect width="4.91801" height="4.94526" transform="matrix(-1 -8.79092e-08 -8.69391e-08 1 221.316 267.055)" fill="#A1A1A1"/>
<rect width="4.94526" height="4.91801" transform="matrix(1.30409e-07 -1 -1 -1.31864e-07 4.92578 222.551)" fill="#A1A1A1"/>
<rect width="4.94526" height="4.91801" transform="matrix(-4.34695e-08 -1 -1 4.39546e-08 201.641 212.648)" fill="#A1A1A1"/>
<rect width="4.94526" height="4.91801" transform="matrix(-4.34695e-08 -1 -1 4.39546e-08 142.625 212.648)" fill="#A1A1A1"/>
<rect width="4.94526" height="4.91801" transform="matrix(-4.34695e-08 -1 -1 4.39546e-08 172.137 212.648)" fill="#A1A1A1"/>
<rect width="4.94526" height="4.91801" transform="matrix(-4.34695e-08 -1 -1 4.39546e-08 113.121 212.648)" fill="#A1A1A1"/>
<rect width="4.94526" height="4.91801" transform="matrix(-4.34695e-08 -1 -1 4.39546e-08 83.6133 212.648)" fill="#A1A1A1"/>
<rect width="4.94526" height="4.91801" transform="matrix(-4.34695e-08 -1 -1 4.39546e-08 206.559 212.648)" fill="#A1A1A1"/>
<rect width="4.94526" height="4.91801" transform="matrix(-4.34695e-08 -1 -1 4.39546e-08 147.547 212.648)" fill="#A1A1A1"/>
<rect width="4.94526" height="4.91801" transform="matrix(-4.34695e-08 -1 -1 4.39546e-08 177.051 212.648)" fill="#A1A1A1"/>
<rect width="4.94526" height="4.91801" transform="matrix(-4.34695e-08 -1 -1 4.39546e-08 118.039 212.648)" fill="#A1A1A1"/>
<rect width="4.94526" height="4.91801" transform="matrix(-4.34695e-08 -1 -1 4.39546e-08 88.5312 212.648)" fill="#A1A1A1"/>
<rect width="4.94526" height="4.91801" transform="matrix(-4.34695e-08 -1 -1 4.39546e-08 201.641 182.977)" fill="#A1A1A1"/>
<rect width="4.94526" height="4.91801" transform="matrix(-4.34695e-08 -1 -1 4.39546e-08 142.625 182.977)" fill="#A1A1A1"/>
<rect width="4.94526" height="4.91801" transform="matrix(-4.34695e-08 -1 -1 4.39546e-08 172.137 182.977)" fill="#A1A1A1"/>
<rect width="4.94526" height="4.91801" transform="matrix(-4.34695e-08 -1 -1 4.39546e-08 113.121 182.977)" fill="#A1A1A1"/>
<rect width="4.94526" height="4.91801" transform="matrix(-4.34695e-08 -1 -1 4.39546e-08 83.6133 182.977)" fill="#A1A1A1"/>
<rect width="4.94526" height="4.91801" transform="matrix(-4.34695e-08 -1 -1 4.39546e-08 201.641 123.633)" fill="#A1A1A1"/>
<rect width="4.94526" height="4.91801" transform="matrix(-4.34695e-08 -1 -1 4.39546e-08 142.625 123.633)" fill="#A1A1A1"/>
<rect width="4.94526" height="4.91801" transform="matrix(-4.34695e-08 -1 -1 4.39546e-08 172.137 123.633)" fill="#A1A1A1"/>
<rect width="4.94526" height="4.91801" transform="matrix(-4.34695e-08 -1 -1 4.39546e-08 113.121 123.633)" fill="#A1A1A1"/>
<rect width="4.94526" height="4.91801" transform="matrix(-4.34695e-08 -1 -1 4.39546e-08 83.6133 123.633)" fill="#A1A1A1"/>
<rect width="4.94526" height="4.91801" transform="matrix(-4.34695e-08 -1 -1 4.39546e-08 201.641 153.305)" fill="#A1A1A1"/>
<rect width="4.94526" height="4.91801" transform="matrix(-4.34695e-08 -1 -1 4.39546e-08 142.625 153.305)" fill="#A1A1A1"/>
<rect width="4.94526" height="4.91801" transform="matrix(-4.34695e-08 -1 -1 4.39546e-08 172.137 153.305)" fill="#A1A1A1"/>
<rect width="4.94526" height="4.91801" transform="matrix(-4.34695e-08 -1 -1 4.39546e-08 113.121 153.305)" fill="#A1A1A1"/>
<rect width="4.94526" height="4.91801" transform="matrix(-4.34695e-08 -1 -1 4.39546e-08 83.6133 153.305)" fill="#A1A1A1"/>
<rect width="4.94526" height="4.91801" transform="matrix(-4.34695e-08 -1 -1 4.39546e-08 201.641 93.9609)" fill="#A1A1A1"/>
<rect width="4.94526" height="4.91801" transform="matrix(-4.34695e-08 -1 -1 4.39546e-08 142.625 93.9609)" fill="#A1A1A1"/>
<rect width="4.94526" height="4.91801" transform="matrix(-4.34695e-08 -1 -1 4.39546e-08 172.137 93.9609)" fill="#A1A1A1"/>
<rect width="4.94526" height="4.91801" transform="matrix(-4.34695e-08 -1 -1 4.39546e-08 113.121 93.9609)" fill="#A1A1A1"/>
<rect width="4.94526" height="4.91801" transform="matrix(-4.34695e-08 -1 -1 4.39546e-08 83.6133 93.9609)" fill="#A1A1A1"/>
<rect width="4.94526" height="4.91801" transform="matrix(-4.34695e-08 -1 -1 4.39546e-08 201.641 64.2891)" fill="#A1A1A1"/>
<rect width="4.94526" height="4.91801" transform="matrix(-4.34695e-08 -1 -1 4.39546e-08 142.625 64.2891)" fill="#A1A1A1"/>
<rect width="4.94526" height="4.91801" transform="matrix(-4.34695e-08 -1 -1 4.39546e-08 172.137 64.2891)" fill="#A1A1A1"/>
<rect width="4.94526" height="4.91801" transform="matrix(-4.34695e-08 -1 -1 4.39546e-08 113.121 64.2891)" fill="#A1A1A1"/>
<rect width="4.94526" height="4.91801" transform="matrix(-4.34695e-08 -1 -1 4.39546e-08 83.6133 64.2891)" fill="#A1A1A1"/>
<rect width="4.94526" height="4.91801" transform="matrix(-4.34695e-08 -1 -1 4.39546e-08 270.492 123.633)" fill="#A1A1A1"/>
<rect width="4.94526" height="4.91801" transform="matrix(-4.34695e-08 -1 -1 4.39546e-08 34.4336 123.633)" fill="#A1A1A1"/>
<rect width="4.94526" height="4.91801" transform="matrix(-4.34695e-08 1 1 4.39546e-08 236.07 148.367)" fill="#A1A1A1"/>
<rect width="4.91801" height="4.94526" transform="matrix(-1 -8.79092e-08 -8.69391e-08 1 122.957 237.383)" fill="#A1A1A1"/>
<rect width="4.94526" height="4.91801" transform="matrix(-4.34695e-08 -1 -1 4.39546e-08 113.121 4.94531)" fill="#A1A1A1"/>
<rect width="4.94526" height="4.91801" transform="matrix(-4.34695e-08 1 1 4.39546e-08 157.383 267.055)" fill="#A1A1A1"/>
<rect width="4.91801" height="4.94526" transform="matrix(-1 -8.79092e-08 -8.69391e-08 1 4.92578 158.262)" fill="#A1A1A1"/>
<rect width="4.94526" height="4.91801" transform="matrix(-4.34695e-08 -1 -1 4.39546e-08 83.6133 4.94531)" fill="#A1A1A1"/>
<rect width="4.94526" height="4.91801" transform="matrix(-4.34695e-08 1 1 4.39546e-08 186.891 267.055)" fill="#A1A1A1"/>
<rect width="4.91801" height="4.94526" transform="matrix(-1 -8.79092e-08 -8.69391e-08 1 4.92578 187.93)" fill="#A1A1A1"/>
<rect width="4.94526" height="4.91801" transform="matrix(-4.34695e-08 -1 -1 4.39546e-08 201.641 4.94531)" fill="#A1A1A1"/>
<rect width="4.94526" height="4.91801" transform="matrix(-4.34695e-08 -1 -1 4.39546e-08 206.559 182.977)" fill="#A1A1A1"/>
<rect width="4.94526" height="4.91801" transform="matrix(-4.34695e-08 -1 -1 4.39546e-08 147.547 182.977)" fill="#A1A1A1"/>
<rect width="4.94526" height="4.91801" transform="matrix(-4.34695e-08 -1 -1 4.39546e-08 177.051 182.977)" fill="#A1A1A1"/>
<rect width="4.94526" height="4.91801" transform="matrix(-4.34695e-08 -1 -1 4.39546e-08 118.039 182.977)" fill="#A1A1A1"/>
<rect width="4.94526" height="4.91801" transform="matrix(-4.34695e-08 -1 -1 4.39546e-08 88.5312 182.977)" fill="#A1A1A1"/>
<rect width="4.94526" height="4.91801" transform="matrix(-4.34695e-08 -1 -1 4.39546e-08 206.559 123.633)" fill="#A1A1A1"/>
<rect width="4.94526" height="4.91801" transform="matrix(-4.34695e-08 -1 -1 4.39546e-08 147.547 123.633)" fill="#A1A1A1"/>
<rect width="4.94526" height="4.91801" transform="matrix(-4.34695e-08 -1 -1 4.39546e-08 177.051 123.633)" fill="#A1A1A1"/>
<rect width="4.94526" height="4.91801" transform="matrix(-4.34695e-08 -1 -1 4.39546e-08 118.039 123.633)" fill="#A1A1A1"/>
<rect width="4.94526" height="4.91801" transform="matrix(-4.34695e-08 -1 -1 4.39546e-08 88.5312 123.633)" fill="#A1A1A1"/>
<rect width="4.94526" height="4.91801" transform="matrix(-4.34695e-08 -1 -1 4.39546e-08 206.559 153.305)" fill="#A1A1A1"/>
<rect width="4.94526" height="4.91801" transform="matrix(-4.34695e-08 -1 -1 4.39546e-08 147.547 153.305)" fill="#A1A1A1"/>
<rect width="4.94526" height="4.91801" transform="matrix(-4.34695e-08 -1 -1 4.39546e-08 177.051 153.305)" fill="#A1A1A1"/>
<rect width="4.94526" height="4.91801" transform="matrix(-4.34695e-08 -1 -1 4.39546e-08 118.039 153.305)" fill="#A1A1A1"/>
<rect width="4.94526" height="4.91801" transform="matrix(-4.34695e-08 -1 -1 4.39546e-08 88.5312 153.305)" fill="#A1A1A1"/>
<rect width="4.94526" height="4.91801" transform="matrix(-4.34695e-08 -1 -1 4.39546e-08 206.559 93.9609)" fill="#A1A1A1"/>
<rect width="4.94526" height="4.91801" transform="matrix(-4.34695e-08 -1 -1 4.39546e-08 147.547 93.9609)" fill="#A1A1A1"/>
<rect width="4.94526" height="4.91801" transform="matrix(-4.34695e-08 -1 -1 4.39546e-08 177.051 93.9609)" fill="#A1A1A1"/>
<rect width="4.94526" height="4.91801" transform="matrix(-4.34695e-08 -1 -1 4.39546e-08 118.039 93.9609)" fill="#A1A1A1"/>
<rect width="4.94526" height="4.91801" transform="matrix(-4.34695e-08 -1 -1 4.39546e-08 88.5312 93.9609)" fill="#A1A1A1"/>
<rect width="4.94526" height="4.91801" transform="matrix(-4.34695e-08 -1 -1 4.39546e-08 206.559 64.2891)" fill="#A1A1A1"/>
<rect width="4.94526" height="4.91801" transform="matrix(-4.34695e-08 -1 -1 4.39546e-08 147.547 64.2891)" fill="#A1A1A1"/>
<rect width="4.94526" height="4.91801" transform="matrix(-4.34695e-08 -1 -1 4.39546e-08 177.051 64.2891)" fill="#A1A1A1"/>
<rect width="4.94526" height="4.91801" transform="matrix(-4.34695e-08 -1 -1 4.39546e-08 118.039 64.2891)" fill="#A1A1A1"/>
<rect width="4.94526" height="4.91801" transform="matrix(-4.34695e-08 -1 -1 4.39546e-08 88.5312 64.2891)" fill="#A1A1A1"/>
<rect width="4.94526" height="4.91801" transform="matrix(-4.34695e-08 -1 -1 4.39546e-08 93.4492 34.6172)" fill="#A1A1A1"/>
<rect width="4.94526" height="4.91801" transform="matrix(-4.34695e-08 1 1 4.39546e-08 177.051 237.383)" fill="#A1A1A1"/>
<rect width="4.91801" height="4.94526" transform="matrix(-1 -8.79092e-08 -8.69391e-08 1 34.4336 178.039)" fill="#A1A1A1"/>
<rect width="4.94526" height="4.91801" transform="matrix(-4.34695e-08 -1 -1 4.39546e-08 231.148 34.6172)" fill="#A1A1A1"/>
<rect width="4.94526" height="4.91801" transform="matrix(-4.34695e-08 -1 -1 4.39546e-08 270.492 4.94531)" fill="#A1A1A1"/>
<rect width="4.94526" height="4.91801" transform="matrix(-4.34695e-08 -1 -1 4.39546e-08 122.957 34.6172)" fill="#A1A1A1"/>
<rect width="4.94526" height="4.91801" transform="matrix(-4.34695e-08 1 1 4.39546e-08 147.547 237.383)" fill="#A1A1A1"/>
<rect width="4.91801" height="4.94526" transform="matrix(-1 -8.79092e-08 -8.69391e-08 1 34.4336 148.367)" fill="#A1A1A1"/>
<rect width="4.94526" height="4.91801" transform="matrix(-4.34695e-08 -1 -1 4.39546e-08 152.461 34.6172)" fill="#A1A1A1"/>
<rect width="4.94526" height="4.91801" transform="matrix(-4.34695e-08 -1 -1 4.39546e-08 122.957 4.94531)" fill="#A1A1A1"/>
<rect width="4.94526" height="4.91801" transform="matrix(-4.34695e-08 1 1 4.39546e-08 147.547 267.055)" fill="#A1A1A1"/>
<rect width="4.91801" height="4.94526" transform="matrix(-1 -8.79092e-08 -8.69391e-08 1 4.92578 148.367)" fill="#A1A1A1"/>
<rect width="4.94526" height="4.91801" transform="matrix(-4.34695e-08 -1 -1 4.39546e-08 152.461 4.94531)" fill="#A1A1A1"/>
<rect width="4.94526" height="4.91801" transform="matrix(-4.34695e-08 -1 -1 4.39546e-08 63.9414 34.6172)" fill="#A1A1A1"/>
<rect width="4.94526" height="4.91801" transform="matrix(-4.34695e-08 1 1 4.39546e-08 206.559 237.383)" fill="#A1A1A1"/>
<rect width="4.91801" height="4.94526" transform="matrix(-1 -8.79092e-08 -8.69391e-08 1 34.4336 207.715)" fill="#A1A1A1"/>
<rect width="4.94526" height="4.91801" transform="matrix(-4.34695e-08 -1 -1 4.39546e-08 201.641 34.6172)" fill="#A1A1A1"/>
<rect width="4.94526" height="4.91801" transform="matrix(-4.34695e-08 -1 -1 4.39546e-08 240.984 4.94531)" fill="#A1A1A1"/>
<rect width="4.94526" height="4.91801" transform="matrix(-4.34695e-08 -1 -1 4.39546e-08 54.1055 4.94531)" fill="#A1A1A1"/>
<rect width="4.94526" height="4.91801" transform="matrix(-4.34695e-08 1 1 4.39546e-08 216.395 267.055)" fill="#A1A1A1"/>
<rect width="4.91801" height="4.94526" transform="matrix(-1 -8.79092e-08 -8.69391e-08 1 4.92578 217.602)" fill="#A1A1A1"/>
<rect width="4.94526" height="4.91801" transform="matrix(-4.34695e-08 -1 -1 4.39546e-08 201.641 212.648)" fill="#A1A1A1"/>
<rect width="4.94526" height="4.91801" transform="matrix(-4.34695e-08 -1 -1 4.39546e-08 142.625 212.648)" fill="#A1A1A1"/>
<rect width="4.94526" height="4.91801" transform="matrix(-4.34695e-08 -1 -1 4.39546e-08 172.137 212.648)" fill="#A1A1A1"/>
<rect width="4.94526" height="4.91801" transform="matrix(-4.34695e-08 -1 -1 4.39546e-08 113.121 212.648)" fill="#A1A1A1"/>
<rect width="4.94526" height="4.91801" transform="matrix(-4.34695e-08 -1 -1 4.39546e-08 83.6133 212.648)" fill="#A1A1A1"/>
<rect width="4.94526" height="4.91801" transform="matrix(-4.34695e-08 -1 -1 4.39546e-08 206.559 212.648)" fill="#A1A1A1"/>
<rect width="4.94526" height="4.91801" transform="matrix(-4.34695e-08 -1 -1 4.39546e-08 147.547 212.648)" fill="#A1A1A1"/>
<rect width="4.94526" height="4.91801" transform="matrix(-4.34695e-08 -1 -1 4.39546e-08 177.051 212.648)" fill="#A1A1A1"/>
<rect width="4.94526" height="4.91801" transform="matrix(-4.34695e-08 -1 -1 4.39546e-08 118.039 212.648)" fill="#A1A1A1"/>
<rect width="4.94526" height="4.91801" transform="matrix(-4.34695e-08 -1 -1 4.39546e-08 88.5312 212.648)" fill="#A1A1A1"/>
<rect width="4.94526" height="4.91801" transform="matrix(-4.34695e-08 -1 -1 4.39546e-08 201.641 182.977)" fill="#A1A1A1"/>
<rect width="4.94526" height="4.91801" transform="matrix(-4.34695e-08 -1 -1 4.39546e-08 142.625 182.977)" fill="#A1A1A1"/>
<rect width="4.94526" height="4.91801" transform="matrix(-4.34695e-08 -1 -1 4.39546e-08 172.137 182.977)" fill="#A1A1A1"/>
<rect width="4.94526" height="4.91801" transform="matrix(-4.34695e-08 -1 -1 4.39546e-08 113.121 182.977)" fill="#A1A1A1"/>
<rect width="4.94526" height="4.91801" transform="matrix(-4.34695e-08 -1 -1 4.39546e-08 83.6133 182.977)" fill="#A1A1A1"/>
<rect width="4.94526" height="4.91801" transform="matrix(-4.34695e-08 -1 -1 4.39546e-08 201.641 123.633)" fill="#A1A1A1"/>
<rect width="4.94526" height="4.91801" transform="matrix(-4.34695e-08 -1 -1 4.39546e-08 142.625 123.633)" fill="#A1A1A1"/>
<rect width="4.94526" height="4.91801" transform="matrix(-4.34695e-08 -1 -1 4.39546e-08 172.137 123.633)" fill="#A1A1A1"/>
<rect width="4.94526" height="4.91801" transform="matrix(-4.34695e-08 -1 -1 4.39546e-08 113.121 123.633)" fill="#A1A1A1"/>
<rect width="4.94526" height="4.91801" transform="matrix(-4.34695e-08 -1 -1 4.39546e-08 83.6133 123.633)" fill="#A1A1A1"/>
<rect width="4.94526" height="4.91801" transform="matrix(-4.34695e-08 -1 -1 4.39546e-08 201.641 153.305)" fill="#A1A1A1"/>
<rect width="4.94526" height="4.91801" transform="matrix(-4.34695e-08 -1 -1 4.39546e-08 142.625 153.305)" fill="#A1A1A1"/>
<rect width="4.94526" height="4.91801" transform="matrix(-4.34695e-08 -1 -1 4.39546e-08 172.137 153.305)" fill="#A1A1A1"/>
<rect width="4.94526" height="4.91801" transform="matrix(-4.34695e-08 -1 -1 4.39546e-08 113.121 153.305)" fill="#A1A1A1"/>
<rect width="4.94526" height="4.91801" transform="matrix(-4.34695e-08 -1 -1 4.39546e-08 83.6133 153.305)" fill="#A1A1A1"/>
<rect width="4.94526" height="4.91801" transform="matrix(-4.34695e-08 -1 -1 4.39546e-08 201.641 93.9609)" fill="#A1A1A1"/>
<rect width="4.94526" height="4.91801" transform="matrix(-4.34695e-08 -1 -1 4.39546e-08 142.625 93.9609)" fill="#A1A1A1"/>
<rect width="4.94526" height="4.91801" transform="matrix(-4.34695e-08 -1 -1 4.39546e-08 172.137 93.9609)" fill="#A1A1A1"/>
<rect width="4.94526" height="4.91801" transform="matrix(-4.34695e-08 -1 -1 4.39546e-08 113.121 93.9609)" fill="#A1A1A1"/>
<rect width="4.94526" height="4.91801" transform="matrix(-4.34695e-08 -1 -1 4.39546e-08 83.6133 93.9609)" fill="#A1A1A1"/>
<rect width="4.94526" height="4.91801" transform="matrix(-4.34695e-08 -1 -1 4.39546e-08 201.641 64.2891)" fill="#A1A1A1"/>
<rect width="4.94526" height="4.91801" transform="matrix(-4.34695e-08 -1 -1 4.39546e-08 142.625 64.2891)" fill="#A1A1A1"/>
<rect width="4.94526" height="4.91801" transform="matrix(-4.34695e-08 -1 -1 4.39546e-08 172.137 64.2891)" fill="#A1A1A1"/>
<rect width="4.94526" height="4.91801" transform="matrix(-4.34695e-08 -1 -1 4.39546e-08 113.121 64.2891)" fill="#A1A1A1"/>
<rect width="4.94526" height="4.91801" transform="matrix(-4.34695e-08 -1 -1 4.39546e-08 83.6133 64.2891)" fill="#A1A1A1"/>
<rect width="4.94526" height="4.91801" transform="matrix(-4.34695e-08 -1 -1 4.39546e-08 270.492 123.633)" fill="#A1A1A1"/>
<rect width="4.94526" height="4.91801" transform="matrix(-4.34695e-08 -1 -1 4.39546e-08 34.4336 123.633)" fill="#A1A1A1"/>
<rect width="4.94526" height="4.91801" transform="matrix(-4.34695e-08 1 1 4.39546e-08 236.07 148.367)" fill="#A1A1A1"/>
<rect width="4.91801" height="4.94526" transform="matrix(-1 -8.79092e-08 -8.69391e-08 1 122.957 237.383)" fill="#A1A1A1"/>
<rect width="4.94526" height="4.91801" transform="matrix(-4.34695e-08 -1 -1 4.39546e-08 113.121 4.94531)" fill="#A1A1A1"/>
<rect width="4.94526" height="4.91801" transform="matrix(-4.34695e-08 1 1 4.39546e-08 157.383 267.055)" fill="#A1A1A1"/>
<rect width="4.91801" height="4.94526" transform="matrix(-1 -8.79092e-08 -8.69391e-08 1 4.92578 158.262)" fill="#A1A1A1"/>
<rect width="4.94526" height="4.91801" transform="matrix(-4.34695e-08 -1 -1 4.39546e-08 83.6133 4.94531)" fill="#A1A1A1"/>
<rect width="4.94526" height="4.91801" transform="matrix(-4.34695e-08 1 1 4.39546e-08 186.891 267.055)" fill="#A1A1A1"/>
<rect width="4.91801" height="4.94526" transform="matrix(-1 -8.79092e-08 -8.69391e-08 1 4.92578 187.93)" fill="#A1A1A1"/>
<rect width="4.94526" height="4.91801" transform="matrix(-4.34695e-08 -1 -1 4.39546e-08 201.641 4.94531)" fill="#A1A1A1"/>
<rect width="4.94526" height="4.91801" transform="matrix(-4.34695e-08 -1 -1 4.39546e-08 206.559 182.977)" fill="#A1A1A1"/>
<rect width="4.94526" height="4.91801" transform="matrix(-4.34695e-08 -1 -1 4.39546e-08 147.547 182.977)" fill="#A1A1A1"/>
<rect width="4.94526" height="4.91801" transform="matrix(-4.34695e-08 -1 -1 4.39546e-08 177.051 182.977)" fill="#A1A1A1"/>
<rect width="4.94526" height="4.91801" transform="matrix(-4.34695e-08 -1 -1 4.39546e-08 118.039 182.977)" fill="#A1A1A1"/>
<rect width="4.94526" height="4.91801" transform="matrix(-4.34695e-08 -1 -1 4.39546e-08 88.5312 182.977)" fill="#A1A1A1"/>
<rect width="4.94526" height="4.91801" transform="matrix(-4.34695e-08 -1 -1 4.39546e-08 206.559 123.633)" fill="#A1A1A1"/>
<rect width="4.94526" height="4.91801" transform="matrix(-4.34695e-08 -1 -1 4.39546e-08 147.547 123.633)" fill="#A1A1A1"/>
<rect width="4.94526" height="4.91801" transform="matrix(-4.34695e-08 -1 -1 4.39546e-08 177.051 123.633)" fill="#A1A1A1"/>
<rect width="4.94526" height="4.91801" transform="matrix(-4.34695e-08 -1 -1 4.39546e-08 118.039 123.633)" fill="#A1A1A1"/>
<rect width="4.94526" height="4.91801" transform="matrix(-4.34695e-08 -1 -1 4.39546e-08 88.5312 123.633)" fill="#A1A1A1"/>
<rect width="4.94526" height="4.91801" transform="matrix(-4.34695e-08 -1 -1 4.39546e-08 206.559 153.305)" fill="#A1A1A1"/>
<rect width="4.94526" height="4.91801" transform="matrix(-4.34695e-08 -1 -1 4.39546e-08 147.547 153.305)" fill="#A1A1A1"/>
<rect width="4.94526" height="4.91801" transform="matrix(-4.34695e-08 -1 -1 4.39546e-08 177.051 153.305)" fill="#A1A1A1"/>
<rect width="4.94526" height="4.91801" transform="matrix(-4.34695e-08 -1 -1 4.39546e-08 118.039 153.305)" fill="#A1A1A1"/>
<rect width="4.94526" height="4.91801" transform="matrix(-4.34695e-08 -1 -1 4.39546e-08 88.5312 153.305)" fill="#A1A1A1"/>
<rect width="4.94526" height="4.91801" transform="matrix(-4.34695e-08 -1 -1 4.39546e-08 206.559 93.9609)" fill="#A1A1A1"/>
<rect width="4.94526" height="4.91801" transform="matrix(-4.34695e-08 -1 -1 4.39546e-08 147.547 93.9609)" fill="#A1A1A1"/>
<rect width="4.94526" height="4.91801" transform="matrix(-4.34695e-08 -1 -1 4.39546e-08 177.051 93.9609)" fill="#A1A1A1"/>
<rect width="4.94526" height="4.91801" transform="matrix(-4.34695e-08 -1 -1 4.39546e-08 118.039 93.9609)" fill="#A1A1A1"/>
<rect width="4.94526" height="4.91801" transform="matrix(-4.34695e-08 -1 -1 4.39546e-08 88.5312 93.9609)" fill="#A1A1A1"/>
<rect width="4.94526" height="4.91801" transform="matrix(-4.34695e-08 -1 -1 4.39546e-08 206.559 64.2891)" fill="#A1A1A1"/>
<rect width="4.94526" height="4.91801" transform="matrix(-4.34695e-08 -1 -1 4.39546e-08 147.547 64.2891)" fill="#A1A1A1"/>
<rect width="4.94526" height="4.91801" transform="matrix(-4.34695e-08 -1 -1 4.39546e-08 177.051 64.2891)" fill="#A1A1A1"/>
<rect width="4.94526" height="4.91801" transform="matrix(-4.34695e-08 -1 -1 4.39546e-08 118.039 64.2891)" fill="#A1A1A1"/>
<rect width="4.94526" height="4.91801" transform="matrix(-4.34695e-08 -1 -1 4.39546e-08 88.5312 64.2891)" fill="#A1A1A1"/>
<rect width="4.94526" height="4.91801" transform="matrix(-4.34695e-08 -1 -1 4.39546e-08 93.4492 34.6172)" fill="#A1A1A1"/>
<rect width="4.94526" height="4.91801" transform="matrix(-4.34695e-08 1 1 4.39546e-08 177.051 237.383)" fill="#A1A1A1"/>
<rect width="4.91801" height="4.94526" transform="matrix(-1 -8.79092e-08 -8.69391e-08 1 34.4336 178.039)" fill="#A1A1A1"/>
<rect width="4.94526" height="4.91801" transform="matrix(-4.34695e-08 -1 -1 4.39546e-08 231.148 34.6172)" fill="#A1A1A1"/>
<rect width="4.94526" height="4.91801" transform="matrix(-4.34695e-08 -1 -1 4.39546e-08 270.492 4.94531)" fill="#A1A1A1"/>
<rect width="4.94526" height="4.91801" transform="matrix(-4.34695e-08 -1 -1 4.39546e-08 122.957 34.6172)" fill="#A1A1A1"/>
<rect width="4.94526" height="4.91801" transform="matrix(-4.34695e-08 1 1 4.39546e-08 147.547 237.383)" fill="#A1A1A1"/>
<rect width="4.91801" height="4.94526" transform="matrix(-1 -8.79092e-08 -8.69391e-08 1 34.4336 148.367)" fill="#A1A1A1"/>
<rect width="4.94526" height="4.91801" transform="matrix(-4.34695e-08 -1 -1 4.39546e-08 152.461 34.6172)" fill="#A1A1A1"/>
<rect width="4.94526" height="4.91801" transform="matrix(-4.34695e-08 -1 -1 4.39546e-08 122.957 4.94531)" fill="#A1A1A1"/>
<rect width="4.94526" height="4.91801" transform="matrix(-4.34695e-08 1 1 4.39546e-08 147.547 267.055)" fill="#A1A1A1"/>
<rect width="4.91801" height="4.94526" transform="matrix(-1 -8.79092e-08 -8.69391e-08 1 4.92578 148.367)" fill="#A1A1A1"/>
<rect width="4.94526" height="4.91801" transform="matrix(-4.34695e-08 -1 -1 4.39546e-08 152.461 4.94531)" fill="#A1A1A1"/>
<rect width="4.94526" height="4.91801" transform="matrix(-4.34695e-08 -1 -1 4.39546e-08 63.9414 34.6172)" fill="#A1A1A1"/>
<rect width="4.94526" height="4.91801" transform="matrix(-4.34695e-08 1 1 4.39546e-08 206.559 237.383)" fill="#A1A1A1"/>
<rect width="4.91801" height="4.94526" transform="matrix(-1 -8.79092e-08 -8.69391e-08 1 34.4336 207.715)" fill="#A1A1A1"/>
<rect width="4.94526" height="4.91801" transform="matrix(-4.34695e-08 -1 -1 4.39546e-08 201.641 34.6172)" fill="#A1A1A1"/>
<rect width="4.94526" height="4.91801" transform="matrix(-4.34695e-08 -1 -1 4.39546e-08 240.984 4.94531)" fill="#A1A1A1"/>
<rect width="4.94526" height="4.91801" transform="matrix(-4.34695e-08 -1 -1 4.39546e-08 54.1055 4.94531)" fill="#A1A1A1"/>
<rect width="4.94526" height="4.91801" transform="matrix(-4.34695e-08 1 1 4.39546e-08 216.395 267.055)" fill="#A1A1A1"/>
<rect width="4.91801" height="4.94526" transform="matrix(-1 -8.79092e-08 -8.69391e-08 1 4.92578 217.602)" fill="#A1A1A1"/>
<rect width="4.94526" height="4.91801" transform="matrix(-4.34695e-08 -1 -1 4.39546e-08 191.805 212.648)" fill="#A1A1A1"/>
<rect width="4.94526" height="4.91801" transform="matrix(-4.34695e-08 -1 -1 4.39546e-08 132.793 212.648)" fill="#A1A1A1"/>
<rect width="4.94526" height="4.91801" transform="matrix(-4.34695e-08 -1 -1 4.39546e-08 162.297 212.648)" fill="#A1A1A1"/>
<rect width="4.94526" height="4.91801" transform="matrix(-4.34695e-08 -1 -1 4.39546e-08 103.285 212.648)" fill="#A1A1A1"/>
<rect width="4.94526" height="4.91801" transform="matrix(-4.34695e-08 -1 -1 4.39546e-08 73.7773 212.648)" fill="#A1A1A1"/>
<rect width="4.94526" height="4.91801" transform="matrix(-4.34695e-08 -1 -1 4.39546e-08 191.805 182.977)" fill="#A1A1A1"/>
<rect width="4.94526" height="4.91801" transform="matrix(-4.34695e-08 -1 -1 4.39546e-08 132.793 182.977)" fill="#A1A1A1"/>
<rect width="4.94526" height="4.91801" transform="matrix(-4.34695e-08 -1 -1 4.39546e-08 162.297 182.977)" fill="#A1A1A1"/>
<rect width="4.94526" height="4.91801" transform="matrix(-4.34695e-08 -1 -1 4.39546e-08 103.285 182.977)" fill="#A1A1A1"/>
<rect width="4.94526" height="4.91801" transform="matrix(-4.34695e-08 -1 -1 4.39546e-08 73.7773 182.977)" fill="#A1A1A1"/>
<rect width="4.94526" height="4.91801" transform="matrix(-4.34695e-08 -1 -1 4.39546e-08 191.805 123.633)" fill="#A1A1A1"/>
<rect width="4.94526" height="4.91801" transform="matrix(-4.34695e-08 -1 -1 4.39546e-08 132.793 123.633)" fill="#A1A1A1"/>
<rect width="4.94526" height="4.91801" transform="matrix(-4.34695e-08 -1 -1 4.39546e-08 162.297 123.633)" fill="#A1A1A1"/>
<rect width="4.94526" height="4.91801" transform="matrix(-4.34695e-08 -1 -1 4.39546e-08 103.285 123.633)" fill="#A1A1A1"/>
<rect width="4.94526" height="4.91801" transform="matrix(-4.34695e-08 -1 -1 4.39546e-08 73.7773 123.633)" fill="#A1A1A1"/>
<rect width="4.94526" height="4.91801" transform="matrix(-4.34695e-08 -1 -1 4.39546e-08 191.805 153.305)" fill="#A1A1A1"/>
<rect width="4.94526" height="4.91801" transform="matrix(-4.34695e-08 -1 -1 4.39546e-08 132.793 153.305)" fill="#A1A1A1"/>
<rect width="4.94526" height="4.91801" transform="matrix(-4.34695e-08 -1 -1 4.39546e-08 162.297 153.305)" fill="#A1A1A1"/>
<rect width="4.94526" height="4.91801" transform="matrix(-4.34695e-08 -1 -1 4.39546e-08 103.285 153.305)" fill="#A1A1A1"/>
<rect width="4.94526" height="4.91801" transform="matrix(-4.34695e-08 -1 -1 4.39546e-08 73.7773 153.305)" fill="#A1A1A1"/>
<rect width="4.94526" height="4.91801" transform="matrix(-4.34695e-08 -1 -1 4.39546e-08 191.805 93.9609)" fill="#A1A1A1"/>
<rect width="4.94526" height="4.91801" transform="matrix(-4.34695e-08 -1 -1 4.39546e-08 132.793 93.9609)" fill="#A1A1A1"/>
<rect width="4.94526" height="4.91801" transform="matrix(-4.34695e-08 -1 -1 4.39546e-08 162.297 93.9609)" fill="#A1A1A1"/>
<rect width="4.94526" height="4.91801" transform="matrix(-4.34695e-08 -1 -1 4.39546e-08 103.285 93.9609)" fill="#A1A1A1"/>
<rect width="4.94526" height="4.91801" transform="matrix(-4.34695e-08 -1 -1 4.39546e-08 73.7773 93.9609)" fill="#A1A1A1"/>
<rect width="4.94526" height="4.91801" transform="matrix(-4.34695e-08 -1 -1 4.39546e-08 191.805 64.2891)" fill="#A1A1A1"/>
<rect width="4.94526" height="4.91801" transform="matrix(-4.34695e-08 -1 -1 4.39546e-08 132.793 64.2891)" fill="#A1A1A1"/>
<rect width="4.94526" height="4.91801" transform="matrix(-4.34695e-08 -1 -1 4.39546e-08 162.297 64.2891)" fill="#A1A1A1"/>
<rect width="4.94526" height="4.91801" transform="matrix(-4.34695e-08 -1 -1 4.39546e-08 103.285 64.2891)" fill="#A1A1A1"/>
<rect width="4.94526" height="4.91801" transform="matrix(-4.34695e-08 -1 -1 4.39546e-08 73.7773 64.2891)" fill="#A1A1A1"/>
<rect width="4.94526" height="4.91801" transform="matrix(-4.34695e-08 -1 -1 4.39546e-08 260.656 123.633)" fill="#A1A1A1"/>
<rect width="4.94526" height="4.91801" transform="matrix(-4.34695e-08 -1 -1 4.39546e-08 24.5977 123.633)" fill="#A1A1A1"/>
<rect width="4.94526" height="4.91801" transform="matrix(-4.34695e-08 1 1 4.39546e-08 245.902 148.367)" fill="#A1A1A1"/>
<rect width="4.91801" height="4.94526" transform="matrix(-1 -8.79092e-08 -8.69391e-08 1 122.957 247.273)" fill="#A1A1A1"/>
<rect width="4.94526" height="4.91801" transform="matrix(-4.34695e-08 -1 -1 4.39546e-08 103.285 4.94531)" fill="#A1A1A1"/>
<rect width="4.94526" height="4.91801" transform="matrix(-4.34695e-08 1 1 4.39546e-08 167.219 267.055)" fill="#A1A1A1"/>
<rect width="4.91801" height="4.94526" transform="matrix(-1 -8.79092e-08 -8.69391e-08 1 4.92578 168.148)" fill="#A1A1A1"/>
<rect width="4.94526" height="4.91801" transform="matrix(-4.34695e-08 -1 -1 4.39546e-08 73.7773 4.94531)" fill="#A1A1A1"/>
<rect width="4.94526" height="4.91801" transform="matrix(-4.34695e-08 1 1 4.39546e-08 196.723 267.055)" fill="#A1A1A1"/>
<rect width="4.91801" height="4.94526" transform="matrix(-1 -8.79092e-08 -8.69391e-08 1 4.92578 197.82)" fill="#A1A1A1"/>
<rect width="4.94526" height="4.91801" transform="matrix(-4.34695e-08 -1 -1 4.39546e-08 191.805 4.94531)" fill="#A1A1A1"/>
<rect width="4.91801" height="4.94526" transform="matrix(0.999999 -0.00125907 -0.00124517 -0.999999 177.051 182.984)" fill="#A1A1A1"/>
<rect width="4.91801" height="4.94526" transform="matrix(0.999999 -0.00125907 -0.00124517 -0.999999 118.039 182.984)" fill="#A1A1A1"/>
<rect width="4.91801" height="4.94526" transform="matrix(0.999999 -0.00125907 -0.00124517 -0.999999 147.547 182.984)" fill="#A1A1A1"/>
<rect width="4.91801" height="4.94526" transform="matrix(0.999999 -0.00125907 -0.00124517 -0.999999 88.5312 182.984)" fill="#A1A1A1"/>
<rect width="4.91801" height="4.94526" transform="matrix(0.999999 -0.00125907 -0.00124517 -0.999999 59.0234 182.984)" fill="#A1A1A1"/>
<rect width="4.91801" height="4.94526" transform="matrix(0.999999 -0.00125907 -0.00124517 -0.999999 177.051 123.645)" fill="#A1A1A1"/>
<rect width="4.91801" height="4.94526" transform="matrix(0.999999 -0.00125907 -0.00124517 -0.999999 118.039 123.645)" fill="#A1A1A1"/>
<rect width="4.91801" height="4.94526" transform="matrix(0.999999 -0.00125907 -0.00124517 -0.999999 147.547 123.645)" fill="#A1A1A1"/>
<rect width="4.91801" height="4.94526" transform="matrix(0.999999 -0.00125907 -0.00124517 -0.999999 88.5312 123.645)" fill="#A1A1A1"/>
<rect width="4.91801" height="4.94526" transform="matrix(0.999999 -0.00125907 -0.00124517 -0.999999 59.0234 123.645)" fill="#A1A1A1"/>
<rect width="4.91801" height="4.94526" transform="matrix(0.999999 -0.00125907 -0.00124517 -0.999999 177.051 153.312)" fill="#A1A1A1"/>
<rect width="4.91801" height="4.94526" transform="matrix(0.999999 -0.00125907 -0.00124517 -0.999999 118.039 153.312)" fill="#A1A1A1"/>
<rect width="4.91801" height="4.94526" transform="matrix(0.999999 -0.00125907 -0.00124517 -0.999999 147.547 153.312)" fill="#A1A1A1"/>
<rect width="4.91801" height="4.94526" transform="matrix(0.999999 -0.00125907 -0.00124517 -0.999999 88.5312 153.312)" fill="#A1A1A1"/>
<rect width="4.91801" height="4.94526" transform="matrix(0.999999 -0.00125907 -0.00124517 -0.999999 59.0234 153.312)" fill="#A1A1A1"/>
<rect width="4.91801" height="4.94526" transform="matrix(0.999999 -0.00125907 -0.00124517 -0.999999 177.051 93.9727)" fill="#A1A1A1"/>
<rect width="4.91801" height="4.94526" transform="matrix(0.999999 -0.00125907 -0.00124517 -0.999999 118.039 93.9727)" fill="#A1A1A1"/>
<rect width="4.91801" height="4.94526" transform="matrix(0.999999 -0.00125907 -0.00124517 -0.999999 147.547 93.9727)" fill="#A1A1A1"/>
<rect width="4.91801" height="4.94526" transform="matrix(0.999999 -0.00125907 -0.00124517 -0.999999 88.5312 93.9727)" fill="#A1A1A1"/>
<rect width="4.91801" height="4.94526" transform="matrix(0.999999 -0.00125907 -0.00124517 -0.999999 59.0234 93.9727)" fill="#A1A1A1"/>
<rect width="4.91801" height="4.94526" transform="matrix(0.999999 -0.00125907 -0.00124517 -0.999999 29.5156 64.3008)" fill="#A1A1A1"/>
<rect width="4.91801" height="4.94526" transform="matrix(-0.999999 0.00125898 0.00124509 0.999999 240.984 207.703)" fill="#A1A1A1"/>
<rect width="4.94526" height="4.91801" transform="matrix(-0.00124504 -0.999999 -0.999999 0.00125893 63.9414 242.32)" fill="#A1A1A1"/>
<rect width="4.91801" height="4.94526" transform="matrix(0.999999 -0.00125907 -0.00124517 -0.999999 0.0078125 34.6289)" fill="#A1A1A1"/>
<rect width="4.91801" height="4.94526" transform="matrix(-0.999999 0.00125898 0.00124509 0.999999 270.492 237.371)" fill="#A1A1A1"/>
<rect width="4.94526" height="4.91801" transform="matrix(-0.00124504 -0.999999 -0.999999 0.00125893 34.4336 271.992)" fill="#A1A1A1"/>
<rect width="4.91801" height="4.94526" transform="matrix(0.999999 -0.00125907 -0.00124517 -0.999999 265.578 34.6289)" fill="#A1A1A1"/>
<rect width="4.91801" height="4.94526" transform="matrix(0.999999 -0.00125907 -0.00124517 -0.999999 0.0078125 103.859)" fill="#A1A1A1"/>
<rect width="4.91801" height="4.94526" transform="matrix(-0.999999 0.00125898 0.00124509 0.999999 270.492 168.141)" fill="#A1A1A1"/>
<rect width="4.94526" height="4.91801" transform="matrix(-0.00124504 -0.999999 -0.999999 0.00125893 103.285 271.992)" fill="#A1A1A1"/>
<rect width="4.91801" height="4.94526" transform="matrix(0.999999 -0.00125907 -0.00124517 -0.999999 265.578 103.859)" fill="#A1A1A1"/>
<rect width="4.91801" height="4.94526" transform="matrix(0.999999 -0.00125907 -0.00124517 -0.999999 177.051 64.3008)" fill="#A1A1A1"/>
<rect width="4.91801" height="4.94526" transform="matrix(0.999999 -0.00125907 -0.00124517 -0.999999 118.039 64.3008)" fill="#A1A1A1"/>
<rect width="4.91801" height="4.94526" transform="matrix(0.999999 -0.00125907 -0.00124517 -0.999999 147.547 64.3008)" fill="#A1A1A1"/>
<rect width="4.91801" height="4.94526" transform="matrix(0.999999 -0.00125907 -0.00124517 -0.999999 88.5312 64.3008)" fill="#A1A1A1"/>
<rect width="4.91801" height="4.94526" transform="matrix(0.999999 -0.00125907 -0.00124517 -0.999999 59.0234 64.3008)" fill="#A1A1A1"/>
<rect width="4.91801" height="4.94526" transform="matrix(0.999999 -0.00125907 -0.00124517 -0.999999 245.902 123.645)" fill="#A1A1A1"/>
<rect width="4.91801" height="4.94526" transform="matrix(0.999999 -0.00125907 -0.00124517 -0.999999 9.84375 123.645)" fill="#A1A1A1"/>
<rect width="4.91801" height="4.94526" transform="matrix(-0.999999 0.00125898 0.00124509 0.999999 260.656 148.359)" fill="#A1A1A1"/>
<rect width="4.94526" height="4.91801" transform="matrix(-0.00124504 -0.999999 -0.999999 0.00125893 122.957 262.102)" fill="#A1A1A1"/>
<rect width="4.91801" height="4.94526" transform="matrix(0.999999 -0.00125907 -0.00124517 -0.999999 216.395 123.645)" fill="#A1A1A1"/>
<rect width="4.91801" height="4.94526" transform="matrix(0.999999 -0.00125907 -0.00124517 -0.999999 29.5156 34.6289)" fill="#A1A1A1"/>
<rect width="4.91801" height="4.94526" transform="matrix(-0.999999 0.00125898 0.00124509 0.999999 240.984 237.371)" fill="#A1A1A1"/>
<rect width="4.94526" height="4.91801" transform="matrix(-0.00124504 -0.999999 -0.999999 0.00125893 34.4336 242.32)" fill="#A1A1A1"/>
<rect width="4.91801" height="4.94526" transform="matrix(0.999999 -0.00125907 -0.00124517 -0.999999 0.0078125 4.95703)" fill="#A1A1A1"/>
<rect width="4.91801" height="4.94526" transform="matrix(-0.999999 0.00125898 0.00124509 0.999999 270.492 267.043)" fill="#A1A1A1"/>
<rect width="4.94526" height="4.91801" transform="matrix(-0.00124504 -0.999999 -0.999999 0.00125893 4.92578 271.992)" fill="#A1A1A1"/>
<rect width="4.91801" height="4.94526" transform="matrix(0.999999 -0.00125907 -0.00124517 -0.999999 206.559 4.95703)" fill="#A1A1A1"/>
<rect width="4.91801" height="4.94526" transform="matrix(0.999999 -0.00125907 -0.00124517 -0.999999 19.6797 4.95703)" fill="#A1A1A1"/>
<rect width="4.91801" height="4.94526" transform="matrix(-0.999999 0.00125898 0.00124509 0.999999 250.82 267.043)" fill="#A1A1A1"/>
<rect width="4.94526" height="4.91801" transform="matrix(-0.00124504 -0.999999 -0.999999 0.00125893 4.92578 252.207)" fill="#A1A1A1"/>
<rect width="4.91801" height="4.94526" transform="matrix(0.999999 -0.00125907 -0.00124517 -0.999999 157.383 4.95703)" fill="#A1A1A1"/>
<rect width="4.91801" height="4.94526" transform="matrix(0.999999 -0.00125907 -0.00124517 -0.999999 88.5312 4.95703)" fill="#A1A1A1"/>
<rect width="4.91801" height="4.94526" transform="matrix(-0.999999 0.00125898 0.00124509 0.999999 181.973 267.043)" fill="#A1A1A1"/>
<rect width="4.94526" height="4.91801" transform="matrix(-0.00124504 -0.999999 -0.999999 0.00125893 4.92578 182.977)" fill="#A1A1A1"/>
<rect width="4.91801" height="4.94526" transform="matrix(0.999999 -0.00125907 -0.00124517 -0.999999 59.0234 4.95703)" fill="#A1A1A1"/>
<rect width="4.91801" height="4.94526" transform="matrix(-0.999999 0.00125898 0.00124509 0.999999 211.48 267.043)" fill="#A1A1A1"/>
<rect width="4.94526" height="4.91801" transform="matrix(-0.00124504 -0.999999 -0.999999 0.00125893 4.92578 212.648)" fill="#A1A1A1"/>
<rect width="4.91801" height="4.94526" transform="matrix(0.999999 -0.00125907 -0.00124517 -0.999999 177.051 4.95703)" fill="#A1A1A1"/>
<rect width="4.91801" height="4.94526" transform="matrix(0.999999 -0.00125907 -0.00124517 -0.999999 9.84375 4.95703)" fill="#A1A1A1"/>
<rect width="4.91801" height="4.94526" transform="matrix(-0.999999 0.00125898 0.00124509 0.999999 260.656 267.043)" fill="#A1A1A1"/>
<rect width="4.94526" height="4.91801" transform="matrix(-0.00124504 -0.999999 -0.999999 0.00125893 4.92578 262.102)" fill="#A1A1A1"/>
<rect width="4.91801" height="4.94526" transform="matrix(0.999999 -0.00125907 -0.00124517 -0.999999 206.559 182.984)" fill="#A1A1A1"/>
<rect width="4.91801" height="4.94526" transform="matrix(0.999999 -0.00125907 -0.00124517 -0.999999 206.559 123.645)" fill="#A1A1A1"/>
<rect width="4.91801" height="4.94526" transform="matrix(0.999999 -0.00125907 -0.00124517 -0.999999 206.559 153.312)" fill="#A1A1A1"/>
<rect width="4.91801" height="4.94526" transform="matrix(0.999999 -0.00125907 -0.00124517 -0.999999 206.559 93.9727)" fill="#A1A1A1"/>
<rect width="4.91801" height="4.94526" transform="matrix(0.999999 -0.00125907 -0.00124517 -0.999999 206.559 64.3008)" fill="#A1A1A1"/>
<rect width="4.91801" height="4.94526" transform="matrix(0.999999 -0.00125907 -0.00124517 -0.999999 177.051 202.766)" fill="#A1A1A1"/>
<rect width="4.91801" height="4.94526" transform="matrix(0.999999 -0.00125907 -0.00124517 -0.999999 118.039 202.766)" fill="#A1A1A1"/>
<rect width="4.91801" height="4.94526" transform="matrix(0.999999 -0.00125907 -0.00124517 -0.999999 147.547 202.766)" fill="#A1A1A1"/>
<rect width="4.91801" height="4.94526" transform="matrix(0.999999 -0.00125907 -0.00124517 -0.999999 88.5312 202.766)" fill="#A1A1A1"/>
<rect width="4.91801" height="4.94526" transform="matrix(0.999999 -0.00125907 -0.00124517 -0.999999 59.0234 202.766)" fill="#A1A1A1"/>
<rect width="4.91801" height="4.94526" transform="matrix(0.999999 -0.00125907 -0.00124517 -0.999999 177.051 143.426)" fill="#A1A1A1"/>
<rect width="4.91801" height="4.94526" transform="matrix(0.999999 -0.00125907 -0.00124517 -0.999999 118.039 143.426)" fill="#A1A1A1"/>
<rect width="4.91801" height="4.94526" transform="matrix(0.999999 -0.00125907 -0.00124517 -0.999999 147.547 143.426)" fill="#A1A1A1"/>
<rect width="4.91801" height="4.94526" transform="matrix(0.999999 -0.00125907 -0.00124517 -0.999999 88.5312 143.426)" fill="#A1A1A1"/>
<rect width="4.91801" height="4.94526" transform="matrix(0.999999 -0.00125907 -0.00124517 -0.999999 59.0234 143.426)" fill="#A1A1A1"/>
<rect width="4.91801" height="4.94526" transform="matrix(0.999999 -0.00125907 -0.00124517 -0.999999 177.051 173.098)" fill="#A1A1A1"/>
<rect width="4.91801" height="4.94526" transform="matrix(0.999999 -0.00125907 -0.00124517 -0.999999 118.039 173.098)" fill="#A1A1A1"/>
<rect width="4.91801" height="4.94526" transform="matrix(0.999999 -0.00125907 -0.00124517 -0.999999 147.547 173.098)" fill="#A1A1A1"/>
<rect width="4.91801" height="4.94526" transform="matrix(0.999999 -0.00125907 -0.00124517 -0.999999 88.5312 173.098)" fill="#A1A1A1"/>
<rect width="4.91801" height="4.94526" transform="matrix(0.999999 -0.00125907 -0.00124517 -0.999999 59.0234 173.098)" fill="#A1A1A1"/>
<rect width="4.91801" height="4.94526" transform="matrix(0.999999 -0.00125907 -0.00124517 -0.999999 177.051 113.75)" fill="#A1A1A1"/>
<rect width="4.91801" height="4.94526" transform="matrix(0.999999 -0.00125907 -0.00124517 -0.999999 118.039 113.75)" fill="#A1A1A1"/>
<rect width="4.91801" height="4.94526" transform="matrix(0.999999 -0.00125907 -0.00124517 -0.999999 147.547 113.75)" fill="#A1A1A1"/>
<rect width="4.91801" height="4.94526" transform="matrix(0.999999 -0.00125907 -0.00124517 -0.999999 88.5312 113.75)" fill="#A1A1A1"/>
<rect width="4.91801" height="4.94526" transform="matrix(0.999999 -0.00125907 -0.00124517 -0.999999 59.0234 113.75)" fill="#A1A1A1"/>
<rect width="4.91801" height="4.94526" transform="matrix(0.999999 -0.00125907 -0.00124517 -0.999999 29.5156 84.0781)" fill="#A1A1A1"/>
<rect width="4.91801" height="4.94526" transform="matrix(-0.999999 0.00125898 0.00124509 0.999999 240.984 187.918)" fill="#A1A1A1"/>
<rect width="4.94526" height="4.91801" transform="matrix(-0.00124504 -0.999999 -0.999999 0.00125893 83.6133 242.32)" fill="#A1A1A1"/>
<rect width="4.91801" height="4.94526" transform="matrix(0.999999 -0.00125907 -0.00124517 -0.999999 0.0078125 54.4062)" fill="#A1A1A1"/>
<rect width="4.91801" height="4.94526" transform="matrix(-0.999999 0.00125898 0.00124509 0.999999 270.492 217.59)" fill="#A1A1A1"/>
<rect width="4.94526" height="4.91801" transform="matrix(-0.00124504 -0.999999 -0.999999 0.00125893 54.1055 271.992)" fill="#A1A1A1"/>
<rect width="4.91801" height="4.94526" transform="matrix(0.999999 -0.00125907 -0.00124517 -0.999999 265.578 54.4062)" fill="#A1A1A1"/>
<rect width="4.91801" height="4.94526" transform="matrix(0.999999 -0.00125907 -0.00124517 -0.999999 0.0078125 123.645)" fill="#A1A1A1"/>
<rect width="4.91801" height="4.94526" transform="matrix(-0.999999 0.00125898 0.00124509 0.999999 270.492 148.359)" fill="#A1A1A1"/>
<rect width="4.94526" height="4.91801" transform="matrix(-0.00124504 -0.999999 -0.999999 0.00125893 122.957 271.992)" fill="#A1A1A1"/>
<rect width="4.91801" height="4.94526" transform="matrix(0.999999 -0.00125907 -0.00124517 -0.999999 236.07 84.0781)" fill="#A1A1A1"/>
<rect width="4.91801" height="4.94526" transform="matrix(0.999999 -0.00125907 -0.00124517 -0.999999 0.0078125 93.9727)" fill="#A1A1A1"/>
<rect width="4.91801" height="4.94526" transform="matrix(-0.999999 0.00125898 0.00124509 0.999999 270.492 178.031)" fill="#A1A1A1"/>
<rect width="4.94526" height="4.91801" transform="matrix(-0.00124504 -0.999999 -0.999999 0.00125893 93.4492 271.992)" fill="#A1A1A1"/>
<rect width="4.91801" height="4.94526" transform="matrix(0.999999 -0.00125907 -0.00124517 -0.999999 265.578 93.9727)" fill="#A1A1A1"/>
<rect width="4.91801" height="4.94526" transform="matrix(0.999999 -0.00125907 -0.00124517 -0.999999 29.5156 93.9727)" fill="#A1A1A1"/>
<rect width="4.91801" height="4.94526" transform="matrix(-0.999999 0.00125898 0.00124509 0.999999 240.984 178.031)" fill="#A1A1A1"/>
<rect width="4.94526" height="4.91801" transform="matrix(-0.00124504 -0.999999 -0.999999 0.00125893 93.4492 242.32)" fill="#A1A1A1"/>
<rect width="4.91801" height="4.94526" transform="matrix(0.999999 -0.00125907 -0.00124517 -0.999999 216.395 93.9727)" fill="#A1A1A1"/>
<rect width="4.91801" height="4.94526" transform="matrix(0.999999 -0.00125907 -0.00124517 -0.999999 0.0078125 64.3008)" fill="#A1A1A1"/>
<rect width="4.91801" height="4.94526" transform="matrix(-0.999999 0.00125898 0.00124509 0.999999 270.492 207.703)" fill="#A1A1A1"/>
<rect width="4.94526" height="4.91801" transform="matrix(-0.00124504 -0.999999 -0.999999 0.00125893 63.9414 271.992)" fill="#A1A1A1"/>
<rect width="4.91801" height="4.94526" transform="matrix(0.999999 -0.00125907 -0.00124517 -0.999999 265.578 64.3008)" fill="#A1A1A1"/>
<rect width="4.91801" height="4.94526" transform="matrix(0.999999 -0.00125907 -0.00124517 -0.999999 177.051 84.0781)" fill="#A1A1A1"/>
<rect width="4.91801" height="4.94526" transform="matrix(0.999999 -0.00125907 -0.00124517 -0.999999 118.039 84.0781)" fill="#A1A1A1"/>
<rect width="4.91801" height="4.94526" transform="matrix(0.999999 -0.00125907 -0.00124517 -0.999999 147.547 84.0781)" fill="#A1A1A1"/>
<rect width="4.91801" height="4.94526" transform="matrix(0.999999 -0.00125907 -0.00124517 -0.999999 88.5312 84.0781)" fill="#A1A1A1"/>
<rect width="4.91801" height="4.94526" transform="matrix(0.999999 -0.00125907 -0.00124517 -0.999999 88.5312 54.4062)" fill="#A1A1A1"/>
<rect width="4.91801" height="4.94526" transform="matrix(-0.999999 0.00125898 0.00124509 0.999999 181.973 217.59)" fill="#A1A1A1"/>
<rect width="4.94526" height="4.91801" transform="matrix(-0.00124504 -0.999999 -0.999999 0.00125893 54.1055 182.977)" fill="#A1A1A1"/>
<rect width="4.91801" height="4.94526" transform="matrix(0.999999 -0.00125907 -0.00124517 -0.999999 177.051 54.4062)" fill="#A1A1A1"/>
<rect width="4.91801" height="4.94526" transform="matrix(0.999999 -0.00125907 -0.00124517 -0.999999 118.039 54.3984)" fill="#A1A1A1"/>
<rect width="4.91801" height="4.94526" transform="matrix(-0.999999 0.00125898 0.00124509 0.999999 152.461 217.602)" fill="#A1A1A1"/>
<rect width="4.94526" height="4.91801" transform="matrix(-0.00124504 -0.999999 -0.999999 0.00125893 54.1055 153.305)" fill="#A1A1A1"/>
<rect width="4.91801" height="4.94526" transform="matrix(0.999999 -0.00125907 -0.00124517 -0.999999 147.547 54.3984)" fill="#A1A1A1"/>
<rect width="4.91801" height="4.94526" transform="matrix(0.999999 -0.00125907 -0.00124517 -0.999999 118.039 24.7266)" fill="#A1A1A1"/>
<rect width="4.91801" height="4.94526" transform="matrix(-0.999999 0.00125898 0.00124509 0.999999 152.461 247.273)" fill="#A1A1A1"/>
<rect width="4.94526" height="4.91801" transform="matrix(-0.00124504 -0.999999 -0.999999 0.00125893 24.5977 153.305)" fill="#A1A1A1"/>
<rect width="4.91801" height="4.94526" transform="matrix(0.999999 -0.00125907 -0.00124517 -0.999999 147.547 24.7266)" fill="#A1A1A1"/>
<rect width="4.91801" height="4.94526" transform="matrix(0.999999 -0.00125907 -0.00124517 -0.999999 59.0234 84.0781)" fill="#A1A1A1"/>
<rect width="4.91801" height="4.94526" transform="matrix(0.999999 -0.00125907 -0.00124517 -0.999999 29.5156 54.4062)" fill="#A1A1A1"/>
<rect width="4.91801" height="4.94526" transform="matrix(-0.999999 0.00125898 0.00124509 0.999999 240.984 217.59)" fill="#A1A1A1"/>
<rect width="4.94526" height="4.91801" transform="matrix(-0.00124504 -0.999999 -0.999999 0.00125893 54.1055 242.32)" fill="#A1A1A1"/>
<rect width="4.91801" height="4.94526" transform="matrix(0.999999 -0.00125907 -0.00124517 -0.999999 0.0078125 24.7344)" fill="#A1A1A1"/>
<rect width="4.91801" height="4.94526" transform="matrix(-0.999999 0.00125898 0.00124509 0.999999 270.492 247.262)" fill="#A1A1A1"/>
<rect width="4.94526" height="4.91801" transform="matrix(-0.00124504 -0.999999 -0.999999 0.00125893 24.5977 271.992)" fill="#A1A1A1"/>
<rect width="4.91801" height="4.94526" transform="matrix(0.999999 -0.00125907 -0.00124517 -0.999999 265.578 24.7344)" fill="#A1A1A1"/>
<rect width="4.91801" height="4.94526" transform="matrix(0.999999 -0.00125907 -0.00124517 -0.999999 177.051 207.715)" fill="#A1A1A1"/>
<rect width="4.91801" height="4.94526" transform="matrix(0.999999 -0.00125907 -0.00124517 -0.999999 118.039 207.715)" fill="#A1A1A1"/>
<rect width="4.91801" height="4.94526" transform="matrix(0.999999 -0.00125907 -0.00124517 -0.999999 147.547 207.715)" fill="#A1A1A1"/>
<rect width="4.91801" height="4.94526" transform="matrix(0.999999 -0.00125907 -0.00124517 -0.999999 88.5312 207.715)" fill="#A1A1A1"/>
<rect width="4.91801" height="4.94526" transform="matrix(0.999999 -0.00125907 -0.00124517 -0.999999 59.0234 207.715)" fill="#A1A1A1"/>
<rect width="4.91801" height="4.94526" transform="matrix(0.999999 -0.00125907 -0.00124517 -0.999999 177.051 148.367)" fill="#A1A1A1"/>
<rect width="4.91801" height="4.94526" transform="matrix(0.999999 -0.00125907 -0.00124517 -0.999999 118.039 148.367)" fill="#A1A1A1"/>
<rect width="4.91801" height="4.94526" transform="matrix(0.999999 -0.00125907 -0.00124517 -0.999999 147.547 148.367)" fill="#A1A1A1"/>
<rect width="4.91801" height="4.94526" transform="matrix(0.999999 -0.00125907 -0.00124517 -0.999999 88.5312 148.367)" fill="#A1A1A1"/>
<rect width="4.91801" height="4.94526" transform="matrix(0.999999 -0.00125907 -0.00124517 -0.999999 59.0234 148.367)" fill="#A1A1A1"/>
<rect width="4.91801" height="4.94526" transform="matrix(0.999999 -0.00125907 -0.00124517 -0.999999 177.051 178.039)" fill="#A1A1A1"/>
<rect width="4.91801" height="4.94526" transform="matrix(0.999999 -0.00125907 -0.00124517 -0.999999 118.039 178.039)" fill="#A1A1A1"/>
<rect width="4.91801" height="4.94526" transform="matrix(0.999999 -0.00125907 -0.00124517 -0.999999 147.547 178.039)" fill="#A1A1A1"/>
<rect width="4.91801" height="4.94526" transform="matrix(0.999999 -0.00125907 -0.00124517 -0.999999 88.5312 178.039)" fill="#A1A1A1"/>
<rect width="4.91801" height="4.94526" transform="matrix(0.999999 -0.00125907 -0.00124517 -0.999999 59.0234 178.039)" fill="#A1A1A1"/>
<rect width="4.91801" height="4.94526" transform="matrix(0.999999 -0.00125907 -0.00124517 -0.999999 177.051 118.695)" fill="#A1A1A1"/>
<rect width="4.91801" height="4.94526" transform="matrix(0.999999 -0.00125907 -0.00124517 -0.999999 118.039 118.695)" fill="#A1A1A1"/>
<rect width="4.91801" height="4.94526" transform="matrix(0.999999 -0.00125907 -0.00124517 -0.999999 147.547 118.695)" fill="#A1A1A1"/>
<rect width="4.91801" height="4.94526" transform="matrix(0.999999 -0.00125907 -0.00124517 -0.999999 88.5312 118.695)" fill="#A1A1A1"/>
<rect width="4.91801" height="4.94526" transform="matrix(0.999999 -0.00125907 -0.00124517 -0.999999 59.0234 118.695)" fill="#A1A1A1"/>
<rect width="4.91801" height="4.94526" transform="matrix(0.999999 -0.00125907 -0.00124517 -0.999999 177.051 89.0234)" fill="#A1A1A1"/>
<rect width="4.91801" height="4.94526" transform="matrix(0.999999 -0.00125907 -0.00124517 -0.999999 118.039 89.0234)" fill="#A1A1A1"/>
<rect width="4.91801" height="4.94526" transform="matrix(0.999999 -0.00125907 -0.00124517 -0.999999 147.547 89.0234)" fill="#A1A1A1"/>
<rect width="4.91801" height="4.94526" transform="matrix(0.999999 -0.00125907 -0.00124517 -0.999999 88.5312 89.0234)" fill="#A1A1A1"/>
<rect width="4.91801" height="4.94526" transform="matrix(0.999999 -0.00125907 -0.00124517 -0.999999 59.0234 89.0234)" fill="#A1A1A1"/>
<rect width="4.91801" height="4.94526" transform="matrix(0.999999 -0.00125907 -0.00124517 -0.999999 236.07 54.4062)" fill="#A1A1A1"/>
<rect width="4.91801" height="4.94526" transform="matrix(0.999999 -0.00125907 -0.00124517 -0.999999 206.559 202.766)" fill="#A1A1A1"/>
<rect width="4.91801" height="4.94526" transform="matrix(0.999999 -0.00125907 -0.00124517 -0.999999 206.559 143.426)" fill="#A1A1A1"/>
<rect width="4.91801" height="4.94526" transform="matrix(0.999999 -0.00125907 -0.00124517 -0.999999 206.559 173.098)" fill="#A1A1A1"/>
<rect width="4.91801" height="4.94526" transform="matrix(0.999999 -0.00125907 -0.00124517 -0.999999 206.559 113.75)" fill="#A1A1A1"/>
<rect width="4.91801" height="4.94526" transform="matrix(0.999999 -0.00125907 -0.00124517 -0.999999 206.559 84.0781)" fill="#A1A1A1"/>
<rect width="4.91801" height="4.94526" transform="matrix(0.999999 -0.00125907 -0.00124517 -0.999999 206.559 207.715)" fill="#A1A1A1"/>
<rect width="4.91801" height="4.94526" transform="matrix(0.999999 -0.00125907 -0.00124517 -0.999999 206.559 148.367)" fill="#A1A1A1"/>
<rect width="4.91801" height="4.94526" transform="matrix(0.999999 -0.00125907 -0.00124517 -0.999999 206.559 178.039)" fill="#A1A1A1"/>
<rect width="4.91801" height="4.94526" transform="matrix(0.999999 -0.00125907 -0.00124517 -0.999999 206.559 118.695)" fill="#A1A1A1"/>
<rect width="4.91801" height="4.94526" transform="matrix(0.999999 -0.00125907 -0.00124517 -0.999999 206.559 89.0234)" fill="#A1A1A1"/>
<rect width="4.94526" height="4.91801" transform="matrix(-4.34695e-08 -1 -1 4.39546e-08 191.805 212.648)" fill="#A1A1A1"/>
<rect width="4.94526" height="4.91801" transform="matrix(-4.34695e-08 -1 -1 4.39546e-08 132.793 212.648)" fill="#A1A1A1"/>
<rect width="4.94526" height="4.91801" transform="matrix(-4.34695e-08 -1 -1 4.39546e-08 162.297 212.648)" fill="#A1A1A1"/>
<rect width="4.94526" height="4.91801" transform="matrix(-4.34695e-08 -1 -1 4.39546e-08 103.285 212.648)" fill="#A1A1A1"/>
<rect width="4.94526" height="4.91801" transform="matrix(-4.34695e-08 -1 -1 4.39546e-08 73.7773 212.648)" fill="#A1A1A1"/>
<rect width="4.94526" height="4.91801" transform="matrix(-4.34695e-08 -1 -1 4.39546e-08 191.805 182.977)" fill="#A1A1A1"/>
<rect width="4.94526" height="4.91801" transform="matrix(-4.34695e-08 -1 -1 4.39546e-08 132.793 182.977)" fill="#A1A1A1"/>
<rect width="4.94526" height="4.91801" transform="matrix(-4.34695e-08 -1 -1 4.39546e-08 162.297 182.977)" fill="#A1A1A1"/>
<rect width="4.94526" height="4.91801" transform="matrix(-4.34695e-08 -1 -1 4.39546e-08 103.285 182.977)" fill="#A1A1A1"/>
<rect width="4.94526" height="4.91801" transform="matrix(-4.34695e-08 -1 -1 4.39546e-08 73.7773 182.977)" fill="#A1A1A1"/>
<rect width="4.94526" height="4.91801" transform="matrix(-4.34695e-08 -1 -1 4.39546e-08 191.805 123.633)" fill="#A1A1A1"/>
<rect width="4.94526" height="4.91801" transform="matrix(-4.34695e-08 -1 -1 4.39546e-08 132.793 123.633)" fill="#A1A1A1"/>
<rect width="4.94526" height="4.91801" transform="matrix(-4.34695e-08 -1 -1 4.39546e-08 162.297 123.633)" fill="#A1A1A1"/>
<rect width="4.94526" height="4.91801" transform="matrix(-4.34695e-08 -1 -1 4.39546e-08 103.285 123.633)" fill="#A1A1A1"/>
<rect width="4.94526" height="4.91801" transform="matrix(-4.34695e-08 -1 -1 4.39546e-08 73.7773 123.633)" fill="#A1A1A1"/>
<rect width="4.94526" height="4.91801" transform="matrix(-4.34695e-08 -1 -1 4.39546e-08 191.805 153.305)" fill="#A1A1A1"/>
<rect width="4.94526" height="4.91801" transform="matrix(-4.34695e-08 -1 -1 4.39546e-08 132.793 153.305)" fill="#A1A1A1"/>
<rect width="4.94526" height="4.91801" transform="matrix(-4.34695e-08 -1 -1 4.39546e-08 162.297 153.305)" fill="#A1A1A1"/>
<rect width="4.94526" height="4.91801" transform="matrix(-4.34695e-08 -1 -1 4.39546e-08 103.285 153.305)" fill="#A1A1A1"/>
<rect width="4.94526" height="4.91801" transform="matrix(-4.34695e-08 -1 -1 4.39546e-08 73.7773 153.305)" fill="#A1A1A1"/>
<rect width="4.94526" height="4.91801" transform="matrix(-4.34695e-08 -1 -1 4.39546e-08 191.805 93.9609)" fill="#A1A1A1"/>
<rect width="4.94526" height="4.91801" transform="matrix(-4.34695e-08 -1 -1 4.39546e-08 132.793 93.9609)" fill="#A1A1A1"/>
<rect width="4.94526" height="4.91801" transform="matrix(-4.34695e-08 -1 -1 4.39546e-08 162.297 93.9609)" fill="#A1A1A1"/>
<rect width="4.94526" height="4.91801" transform="matrix(-4.34695e-08 -1 -1 4.39546e-08 103.285 93.9609)" fill="#A1A1A1"/>
<rect width="4.94526" height="4.91801" transform="matrix(-4.34695e-08 -1 -1 4.39546e-08 73.7773 93.9609)" fill="#A1A1A1"/>
<rect width="4.94526" height="4.91801" transform="matrix(-4.34695e-08 -1 -1 4.39546e-08 191.805 64.2891)" fill="#A1A1A1"/>
<rect width="4.94526" height="4.91801" transform="matrix(-4.34695e-08 -1 -1 4.39546e-08 132.793 64.2891)" fill="#A1A1A1"/>
<rect width="4.94526" height="4.91801" transform="matrix(-4.34695e-08 -1 -1 4.39546e-08 162.297 64.2891)" fill="#A1A1A1"/>
<rect width="4.94526" height="4.91801" transform="matrix(-4.34695e-08 -1 -1 4.39546e-08 103.285 64.2891)" fill="#A1A1A1"/>
<rect width="4.94526" height="4.91801" transform="matrix(-4.34695e-08 -1 -1 4.39546e-08 73.7773 64.2891)" fill="#A1A1A1"/>
<rect width="4.94526" height="4.91801" transform="matrix(-4.34695e-08 -1 -1 4.39546e-08 260.656 123.633)" fill="#A1A1A1"/>
<rect width="4.94526" height="4.91801" transform="matrix(-4.34695e-08 -1 -1 4.39546e-08 24.5977 123.633)" fill="#A1A1A1"/>
<rect width="4.94526" height="4.91801" transform="matrix(-4.34695e-08 1 1 4.39546e-08 245.902 148.367)" fill="#A1A1A1"/>
<rect width="4.91801" height="4.94526" transform="matrix(-1 -8.79092e-08 -8.69391e-08 1 122.957 247.273)" fill="#A1A1A1"/>
<rect width="4.94526" height="4.91801" transform="matrix(-4.34695e-08 -1 -1 4.39546e-08 103.285 4.94531)" fill="#A1A1A1"/>
<rect width="4.94526" height="4.91801" transform="matrix(-4.34695e-08 1 1 4.39546e-08 167.219 267.055)" fill="#A1A1A1"/>
<rect width="4.91801" height="4.94526" transform="matrix(-1 -8.79092e-08 -8.69391e-08 1 4.92578 168.148)" fill="#A1A1A1"/>
<rect width="4.94526" height="4.91801" transform="matrix(-4.34695e-08 -1 -1 4.39546e-08 73.7773 4.94531)" fill="#A1A1A1"/>
<rect width="4.94526" height="4.91801" transform="matrix(-4.34695e-08 1 1 4.39546e-08 196.723 267.055)" fill="#A1A1A1"/>
<rect width="4.91801" height="4.94526" transform="matrix(-1 -8.79092e-08 -8.69391e-08 1 4.92578 197.82)" fill="#A1A1A1"/>
<rect width="4.94526" height="4.91801" transform="matrix(-4.34695e-08 -1 -1 4.39546e-08 191.805 4.94531)" fill="#A1A1A1"/>
<rect width="4.94526" height="4.91801" transform="matrix(-4.34695e-08 -1 -1 4.39546e-08 186.891 212.648)" fill="#A1A1A1"/>
<rect width="4.94526" height="4.91801" transform="matrix(-4.34695e-08 -1 -1 4.39546e-08 127.875 212.648)" fill="#A1A1A1"/>
<rect width="4.94526" height="4.91801" transform="matrix(-4.34695e-08 -1 -1 4.39546e-08 157.383 212.648)" fill="#A1A1A1"/>
<rect width="4.94526" height="4.91801" transform="matrix(-4.34695e-08 -1 -1 4.39546e-08 98.3672 212.648)" fill="#A1A1A1"/>
<rect width="4.94526" height="4.91801" transform="matrix(-4.34695e-08 -1 -1 4.39546e-08 68.8594 212.648)" fill="#A1A1A1"/>
<rect width="4.94526" height="4.91801" transform="matrix(-4.34695e-08 -1 -1 4.39546e-08 186.891 182.977)" fill="#A1A1A1"/>
<rect width="4.94526" height="4.91801" transform="matrix(-4.34695e-08 -1 -1 4.39546e-08 127.875 182.977)" fill="#A1A1A1"/>
<rect width="4.94526" height="4.91801" transform="matrix(-4.34695e-08 -1 -1 4.39546e-08 157.383 182.977)" fill="#A1A1A1"/>
<rect width="4.94526" height="4.91801" transform="matrix(-4.34695e-08 -1 -1 4.39546e-08 98.3672 182.977)" fill="#A1A1A1"/>
<rect width="4.94526" height="4.91801" transform="matrix(-4.34695e-08 -1 -1 4.39546e-08 68.8594 182.977)" fill="#A1A1A1"/>
<rect width="4.94526" height="4.91801" transform="matrix(-4.34695e-08 -1 -1 4.39546e-08 186.891 123.633)" fill="#A1A1A1"/>
<rect width="4.94526" height="4.91801" transform="matrix(-4.34695e-08 -1 -1 4.39546e-08 127.875 123.633)" fill="#A1A1A1"/>
<rect width="4.94526" height="4.91801" transform="matrix(-4.34695e-08 -1 -1 4.39546e-08 157.383 123.633)" fill="#A1A1A1"/>
<rect width="4.94526" height="4.91801" transform="matrix(-4.34695e-08 -1 -1 4.39546e-08 98.3672 123.633)" fill="#A1A1A1"/>
<rect width="4.94526" height="4.91801" transform="matrix(-4.34695e-08 -1 -1 4.39546e-08 68.8594 123.633)" fill="#A1A1A1"/>
<rect width="4.94526" height="4.91801" transform="matrix(-4.34695e-08 -1 -1 4.39546e-08 186.891 153.305)" fill="#A1A1A1"/>
<rect width="4.94526" height="4.91801" transform="matrix(-4.34695e-08 -1 -1 4.39546e-08 127.875 153.305)" fill="#A1A1A1"/>
<rect width="4.94526" height="4.91801" transform="matrix(-4.34695e-08 -1 -1 4.39546e-08 157.383 153.305)" fill="#A1A1A1"/>
<rect width="4.94526" height="4.91801" transform="matrix(-4.34695e-08 -1 -1 4.39546e-08 98.3672 153.305)" fill="#A1A1A1"/>
<rect width="4.94526" height="4.91801" transform="matrix(-4.34695e-08 -1 -1 4.39546e-08 68.8594 153.305)" fill="#A1A1A1"/>
<rect width="4.94526" height="4.91801" transform="matrix(-4.34695e-08 -1 -1 4.39546e-08 186.891 93.9609)" fill="#A1A1A1"/>
<rect width="4.94526" height="4.91801" transform="matrix(-4.34695e-08 -1 -1 4.39546e-08 127.875 93.9609)" fill="#A1A1A1"/>
<rect width="4.94526" height="4.91801" transform="matrix(-4.34695e-08 -1 -1 4.39546e-08 157.383 93.9609)" fill="#A1A1A1"/>
<rect width="4.94526" height="4.91801" transform="matrix(-4.34695e-08 -1 -1 4.39546e-08 98.3672 93.9609)" fill="#A1A1A1"/>
<rect width="4.94526" height="4.91801" transform="matrix(-4.34695e-08 -1 -1 4.39546e-08 68.8594 93.9609)" fill="#A1A1A1"/>
<rect width="4.94526" height="4.91801" transform="matrix(-4.34695e-08 -1 -1 4.39546e-08 186.891 64.2891)" fill="#A1A1A1"/>
<rect width="4.94526" height="4.91801" transform="matrix(-4.34695e-08 -1 -1 4.39546e-08 127.875 64.2891)" fill="#A1A1A1"/>
<rect width="4.94526" height="4.91801" transform="matrix(-4.34695e-08 -1 -1 4.39546e-08 157.383 64.2891)" fill="#A1A1A1"/>
<rect width="4.94526" height="4.91801" transform="matrix(-4.34695e-08 -1 -1 4.39546e-08 98.3672 64.2891)" fill="#A1A1A1"/>
<rect width="4.94526" height="4.91801" transform="matrix(-4.34695e-08 -1 -1 4.39546e-08 68.8594 64.2891)" fill="#A1A1A1"/>
<rect width="4.94526" height="4.91801" transform="matrix(-4.34695e-08 -1 -1 4.39546e-08 44.2695 93.9609)" fill="#A1A1A1"/>
<rect width="4.94526" height="4.91801" transform="matrix(-4.34695e-08 1 1 4.39546e-08 226.234 178.039)" fill="#A1A1A1"/>
<rect width="4.91801" height="4.94526" transform="matrix(-1 -8.79092e-08 -8.69391e-08 1 93.4492 227.492)" fill="#A1A1A1"/>
<rect width="4.94526" height="4.91801" transform="matrix(-4.34695e-08 -1 -1 4.39546e-08 231.148 93.9609)" fill="#A1A1A1"/>
<rect width="4.94526" height="4.91801" transform="matrix(-4.34695e-08 -1 -1 4.39546e-08 44.2695 123.633)" fill="#A1A1A1"/>
<rect width="4.94526" height="4.91801" transform="matrix(-4.34695e-08 1 1 4.39546e-08 226.234 148.367)" fill="#A1A1A1"/>
<rect width="4.91801" height="4.94526" transform="matrix(-1 -8.79092e-08 -8.69391e-08 1 122.957 227.492)" fill="#A1A1A1"/>
<rect width="4.94526" height="4.91801" transform="matrix(-4.34695e-08 -1 -1 4.39546e-08 231.148 123.633)" fill="#A1A1A1"/>
<rect width="4.94526" height="4.91801" transform="matrix(-4.34695e-08 -1 -1 4.39546e-08 73.7773 34.6172)" fill="#A1A1A1"/>
<rect width="4.94526" height="4.91801" transform="matrix(-4.34695e-08 1 1 4.39546e-08 196.723 237.383)" fill="#A1A1A1"/>
<rect width="4.91801" height="4.94526" transform="matrix(-1 -8.79092e-08 -8.69391e-08 1 34.4336 197.82)" fill="#A1A1A1"/>
<rect width="4.94526" height="4.91801" transform="matrix(-4.34695e-08 -1 -1 4.39546e-08 211.48 34.6172)" fill="#A1A1A1"/>
<rect width="4.94526" height="4.91801" transform="matrix(-4.34695e-08 -1 -1 4.39546e-08 250.82 4.94531)" fill="#A1A1A1"/>
<rect width="4.94526" height="4.91801" transform="matrix(-4.34695e-08 -1 -1 4.39546e-08 44.2695 34.6172)" fill="#A1A1A1"/>
<rect width="4.94526" height="4.91801" transform="matrix(-4.34695e-08 1 1 4.39546e-08 226.234 237.383)" fill="#A1A1A1"/>
<rect width="4.91801" height="4.94526" transform="matrix(-1 -8.79092e-08 -8.69391e-08 1 34.4336 227.492)" fill="#A1A1A1"/>
<rect width="4.94526" height="4.91801" transform="matrix(-4.34695e-08 -1 -1 4.39546e-08 181.973 34.6172)" fill="#A1A1A1"/>
<rect width="4.94526" height="4.91801" transform="matrix(-4.34695e-08 -1 -1 4.39546e-08 221.316 4.94531)" fill="#A1A1A1"/>
<rect width="4.94526" height="4.91801" transform="matrix(-4.34695e-08 -1 -1 4.39546e-08 34.4336 4.94531)" fill="#A1A1A1"/>
<rect width="4.94526" height="4.91801" transform="matrix(-4.34695e-08 1 1 4.39546e-08 236.07 267.055)" fill="#A1A1A1"/>
<rect width="4.91801" height="4.94526" transform="matrix(-1 -8.79092e-08 -8.69391e-08 1 4.92578 237.383)" fill="#A1A1A1"/>
<rect width="4.94526" height="4.91801" transform="matrix(-4.34695e-08 -1 -1 4.39546e-08 172.137 4.94531)" fill="#A1A1A1"/>
<rect width="4.94526" height="4.91801" transform="matrix(-4.34695e-08 -1 -1 4.39546e-08 181.973 192.867)" fill="#A1A1A1"/>
<rect width="4.94526" height="4.91801" transform="matrix(-4.34695e-08 -1 -1 4.39546e-08 122.957 192.867)" fill="#A1A1A1"/>
<rect width="4.94526" height="4.91801" transform="matrix(-4.34695e-08 -1 -1 4.39546e-08 152.461 192.867)" fill="#A1A1A1"/>
<rect width="4.94526" height="4.91801" transform="matrix(-4.34695e-08 -1 -1 4.39546e-08 93.4492 192.867)" fill="#A1A1A1"/>
<rect width="4.94526" height="4.91801" transform="matrix(-4.34695e-08 -1 -1 4.39546e-08 63.9414 192.867)" fill="#A1A1A1"/>
<rect width="4.94526" height="4.91801" transform="matrix(-4.34695e-08 -1 -1 4.39546e-08 181.973 133.523)" fill="#A1A1A1"/>
<rect width="4.94526" height="4.91801" transform="matrix(-4.34695e-08 -1 -1 4.39546e-08 122.957 133.523)" fill="#A1A1A1"/>
<rect width="4.94526" height="4.91801" transform="matrix(-4.34695e-08 -1 -1 4.39546e-08 152.461 133.523)" fill="#A1A1A1"/>
<rect width="4.94526" height="4.91801" transform="matrix(-4.34695e-08 -1 -1 4.39546e-08 93.4492 133.523)" fill="#A1A1A1"/>
<rect width="4.94526" height="4.91801" transform="matrix(-4.34695e-08 -1 -1 4.39546e-08 63.9414 133.523)" fill="#A1A1A1"/>
<rect width="4.94526" height="4.91801" transform="matrix(-4.34695e-08 -1 -1 4.39546e-08 181.973 163.195)" fill="#A1A1A1"/>
<rect width="4.94526" height="4.91801" transform="matrix(-4.34695e-08 -1 -1 4.39546e-08 122.957 163.195)" fill="#A1A1A1"/>
<rect width="4.94526" height="4.91801" transform="matrix(-4.34695e-08 -1 -1 4.39546e-08 152.461 163.195)" fill="#A1A1A1"/>
<rect width="4.94526" height="4.91801" transform="matrix(-4.34695e-08 -1 -1 4.39546e-08 93.4492 163.195)" fill="#A1A1A1"/>
<rect width="4.94526" height="4.91801" transform="matrix(-4.34695e-08 -1 -1 4.39546e-08 63.9414 163.195)" fill="#A1A1A1"/>
<rect width="4.94526" height="4.91801" transform="matrix(-4.34695e-08 -1 -1 4.39546e-08 181.973 103.852)" fill="#A1A1A1"/>
<rect width="4.94526" height="4.91801" transform="matrix(-4.34695e-08 -1 -1 4.39546e-08 122.957 103.852)" fill="#A1A1A1"/>
<rect width="4.94526" height="4.91801" transform="matrix(-4.34695e-08 -1 -1 4.39546e-08 152.461 103.852)" fill="#A1A1A1"/>
<rect width="4.94526" height="4.91801" transform="matrix(-4.34695e-08 -1 -1 4.39546e-08 93.4492 103.852)" fill="#A1A1A1"/>
<rect width="4.94526" height="4.91801" transform="matrix(-4.34695e-08 -1 -1 4.39546e-08 63.9414 103.852)" fill="#A1A1A1"/>
<rect width="4.94526" height="4.91801" transform="matrix(-4.34695e-08 -1 -1 4.39546e-08 34.4336 74.1797)" fill="#A1A1A1"/>
<rect width="4.94526" height="4.91801" transform="matrix(-4.34695e-08 1 1 4.39546e-08 236.07 197.82)" fill="#A1A1A1"/>
<rect width="4.91801" height="4.94526" transform="matrix(-1 -8.79092e-08 -8.69391e-08 1 73.7773 237.383)" fill="#A1A1A1"/>
<rect width="4.94526" height="4.91801" transform="matrix(-4.34695e-08 -1 -1 4.39546e-08 4.92578 44.5078)" fill="#A1A1A1"/>
<rect width="4.94526" height="4.91801" transform="matrix(-4.34695e-08 1 1 4.39546e-08 265.578 227.492)" fill="#A1A1A1"/>
<rect width="4.91801" height="4.94526" transform="matrix(-1 -8.79092e-08 -8.69391e-08 1 44.2695 267.055)" fill="#A1A1A1"/>
<rect width="4.94526" height="4.91801" transform="matrix(-4.34695e-08 -1 -1 4.39546e-08 270.492 44.5078)" fill="#A1A1A1"/>
<rect width="4.94526" height="4.91801" transform="matrix(-4.34695e-08 -1 -1 4.39546e-08 4.92578 113.742)" fill="#A1A1A1"/>
<rect width="4.94526" height="4.91801" transform="matrix(-4.34695e-08 1 1 4.39546e-08 265.578 158.262)" fill="#A1A1A1"/>
<rect width="4.91801" height="4.94526" transform="matrix(-1 -8.79092e-08 -8.69391e-08 1 113.121 267.055)" fill="#A1A1A1"/>
<rect width="4.94526" height="4.91801" transform="matrix(-4.34695e-08 -1 -1 4.39546e-08 270.492 113.742)" fill="#A1A1A1"/>
<rect width="4.94526" height="4.91801" transform="matrix(-4.34695e-08 -1 -1 4.39546e-08 181.973 74.1797)" fill="#A1A1A1"/>
<rect width="4.94526" height="4.91801" transform="matrix(-4.34695e-08 -1 -1 4.39546e-08 122.957 74.1797)" fill="#A1A1A1"/>
<rect width="4.94526" height="4.91801" transform="matrix(-4.34695e-08 -1 -1 4.39546e-08 152.461 74.1797)" fill="#A1A1A1"/>
<rect width="4.94526" height="4.91801" transform="matrix(-4.34695e-08 -1 -1 4.39546e-08 93.4492 74.1797)" fill="#A1A1A1"/>
<rect width="4.94526" height="4.91801" transform="matrix(-4.34695e-08 -1 -1 4.39546e-08 93.4492 44.5078)" fill="#A1A1A1"/>
<rect width="4.94526" height="4.91801" transform="matrix(-4.34695e-08 1 1 4.39546e-08 177.051 227.492)" fill="#A1A1A1"/>
<rect width="4.91801" height="4.94526" transform="matrix(-1 -8.79092e-08 -8.69391e-08 1 44.2695 178.039)" fill="#A1A1A1"/>
<rect width="4.94526" height="4.91801" transform="matrix(-4.34695e-08 -1 -1 4.39546e-08 181.973 44.5078)" fill="#A1A1A1"/>
<rect width="4.94526" height="4.91801" transform="matrix(-4.34695e-08 -1 -1 4.39546e-08 122.957 44.5078)" fill="#A1A1A1"/>
<rect width="4.94526" height="4.91801" transform="matrix(-4.34695e-08 1 1 4.39546e-08 147.547 227.492)" fill="#A1A1A1"/>
<rect width="4.91801" height="4.94526" transform="matrix(-1 -8.79092e-08 -8.69391e-08 1 44.2695 148.367)" fill="#A1A1A1"/>
<rect width="4.94526" height="4.91801" transform="matrix(-4.34695e-08 -1 -1 4.39546e-08 152.461 44.5078)" fill="#A1A1A1"/>
<rect width="4.94526" height="4.91801" transform="matrix(-4.34695e-08 -1 -1 4.39546e-08 122.957 14.8359)" fill="#A1A1A1"/>
<rect width="4.94526" height="4.91801" transform="matrix(-4.34695e-08 1 1 4.39546e-08 147.547 257.164)" fill="#A1A1A1"/>
<rect width="4.91801" height="4.94526" transform="matrix(-1 -8.79092e-08 -8.69391e-08 1 14.7656 148.367)" fill="#A1A1A1"/>
<rect width="4.94526" height="4.91801" transform="matrix(-4.34695e-08 -1 -1 4.39546e-08 152.461 14.8359)" fill="#A1A1A1"/>
<rect width="4.94526" height="4.91801" transform="matrix(-4.34695e-08 -1 -1 4.39546e-08 63.9414 74.1797)" fill="#A1A1A1"/>
<rect width="4.94526" height="4.91801" transform="matrix(-4.34695e-08 -1 -1 4.39546e-08 34.4336 44.5078)" fill="#A1A1A1"/>
<rect width="4.94526" height="4.91801" transform="matrix(-4.34695e-08 1 1 4.39546e-08 236.07 227.492)" fill="#A1A1A1"/>
<rect width="4.91801" height="4.94526" transform="matrix(-1 -8.79092e-08 -8.69391e-08 1 44.2695 237.383)" fill="#A1A1A1"/>
<rect width="4.94526" height="4.91801" transform="matrix(-4.34695e-08 -1 -1 4.39546e-08 4.92578 14.8359)" fill="#A1A1A1"/>
<rect width="4.94526" height="4.91801" transform="matrix(-4.34695e-08 1 1 4.39546e-08 265.578 257.164)" fill="#A1A1A1"/>
<rect width="4.91801" height="4.94526" transform="matrix(-1 -8.79092e-08 -8.69391e-08 1 14.7656 267.055)" fill="#A1A1A1"/>
<rect width="4.94526" height="4.91801" transform="matrix(-4.34695e-08 -1 -1 4.39546e-08 270.492 14.8359)" fill="#A1A1A1"/>
<rect width="4.94526" height="4.91801" transform="matrix(-4.34695e-08 -1 -1 4.39546e-08 211.48 192.867)" fill="#A1A1A1"/>
<rect width="4.94526" height="4.91801" transform="matrix(-4.34695e-08 -1 -1 4.39546e-08 211.48 133.523)" fill="#A1A1A1"/>
<rect width="4.94526" height="4.91801" transform="matrix(-4.34695e-08 -1 -1 4.39546e-08 211.48 163.195)" fill="#A1A1A1"/>
<rect width="4.94526" height="4.91801" transform="matrix(-4.34695e-08 -1 -1 4.39546e-08 211.48 103.852)" fill="#A1A1A1"/>
<rect width="4.94526" height="4.91801" transform="matrix(-4.34695e-08 -1 -1 4.39546e-08 211.48 74.1797)" fill="#A1A1A1"/>
<rect width="4.91801" height="4.94526" transform="matrix(1 0.000190693 0.000188588 -1 177.051 197.812)" fill="#A1A1A1"/>
<rect width="4.91801" height="4.94526" transform="matrix(1 0.000190693 0.000188588 -1 118.039 197.812)" fill="#A1A1A1"/>
<rect width="4.91801" height="4.94526" transform="matrix(1 0.000190693 0.000188588 -1 147.547 197.812)" fill="#A1A1A1"/>
<rect width="4.91801" height="4.94526" transform="matrix(1 0.000190693 0.000188588 -1 88.5312 197.812)" fill="#A1A1A1"/>
<rect width="4.91801" height="4.94526" transform="matrix(1 0.000190693 0.000188588 -1 59.0234 197.812)" fill="#A1A1A1"/>
<rect width="4.91801" height="4.94526" transform="matrix(1 0.000190693 0.000188588 -1 177.051 138.465)" fill="#A1A1A1"/>
<rect width="4.91801" height="4.94526" transform="matrix(1 0.000190693 0.000188588 -1 118.039 138.465)" fill="#A1A1A1"/>
<rect width="4.91801" height="4.94526" transform="matrix(1 0.000190693 0.000188588 -1 147.547 138.465)" fill="#A1A1A1"/>
<rect width="4.91801" height="4.94526" transform="matrix(1 0.000190693 0.000188588 -1 88.5312 138.465)" fill="#A1A1A1"/>
<rect width="4.91801" height="4.94526" transform="matrix(1 0.000190693 0.000188588 -1 59.0234 138.465)" fill="#A1A1A1"/>
<rect width="4.91801" height="4.94526" transform="matrix(1 0.000190693 0.000188588 -1 177.051 168.141)" fill="#A1A1A1"/>
<rect width="4.91801" height="4.94526" transform="matrix(1 0.000190693 0.000188588 -1 118.039 168.141)" fill="#A1A1A1"/>
<rect width="4.91801" height="4.94526" transform="matrix(1 0.000190693 0.000188588 -1 147.547 168.141)" fill="#A1A1A1"/>
<rect width="4.91801" height="4.94526" transform="matrix(1 0.000190693 0.000188588 -1 88.5312 168.141)" fill="#A1A1A1"/>
<rect width="4.91801" height="4.94526" transform="matrix(1 0.000190693 0.000188588 -1 59.0234 168.141)" fill="#A1A1A1"/>
<rect width="4.91801" height="4.94526" transform="matrix(1 0.000190693 0.000188588 -1 177.051 108.797)" fill="#A1A1A1"/>
<rect width="4.91801" height="4.94526" transform="matrix(1 0.000190693 0.000188588 -1 118.039 108.797)" fill="#A1A1A1"/>
<rect width="4.91801" height="4.94526" transform="matrix(1 0.000190693 0.000188588 -1 147.547 108.797)" fill="#A1A1A1"/>
<rect width="4.91801" height="4.94526" transform="matrix(1 0.000190693 0.000188588 -1 88.5312 108.797)" fill="#A1A1A1"/>
<rect width="4.91801" height="4.94526" transform="matrix(1 0.000190693 0.000188588 -1 59.0234 108.797)" fill="#A1A1A1"/>
<rect width="4.91801" height="4.94526" transform="matrix(1 0.000190693 0.000188588 -1 236.07 74.1797)" fill="#A1A1A1"/>
<rect width="4.91801" height="4.94526" transform="matrix(1 0.000190693 0.000188588 -1 0.0078125 84.0703)" fill="#A1A1A1"/>
<rect width="4.91801" height="4.94526" transform="matrix(-1 -0.00019078 -0.000188675 1 270.492 187.93)" fill="#A1A1A1"/>
<rect width="4.94526" height="4.91801" transform="matrix(0.000188719 -1 -1 -0.000190824 83.6133 272)" fill="#A1A1A1"/>
<rect width="4.91801" height="4.94526" transform="matrix(1 0.000190693 0.000188588 -1 265.578 84.0703)" fill="#A1A1A1"/>
<rect width="4.91801" height="4.94526" transform="matrix(1 0.000190693 0.000188588 -1 177.051 79.125)" fill="#A1A1A1"/>
<rect width="4.91801" height="4.94526" transform="matrix(1 0.000190693 0.000188588 -1 118.039 79.125)" fill="#A1A1A1"/>
<rect width="4.91801" height="4.94526" transform="matrix(1 0.000190693 0.000188588 -1 147.547 79.125)" fill="#A1A1A1"/>
<rect width="4.91801" height="4.94526" transform="matrix(1 0.000190693 0.000188588 -1 88.5312 79.125)" fill="#A1A1A1"/>
<rect width="4.91801" height="4.94526" transform="matrix(1 0.000190693 0.000188588 -1 59.0234 79.125)" fill="#A1A1A1"/>
<rect width="4.91801" height="4.94526" transform="matrix(1 0.000190693 0.000188588 -1 236.07 44.5078)" fill="#A1A1A1"/>
<rect width="4.91801" height="4.94526" transform="matrix(1 0.000190693 0.000188588 -1 206.559 197.812)" fill="#A1A1A1"/>
<rect width="4.91801" height="4.94526" transform="matrix(1 0.000190693 0.000188588 -1 206.559 138.465)" fill="#A1A1A1"/>
<rect width="4.91801" height="4.94526" transform="matrix(1 0.000190693 0.000188588 -1 206.559 168.141)" fill="#A1A1A1"/>
<rect width="4.91801" height="4.94526" transform="matrix(1 0.000190693 0.000188588 -1 206.559 108.797)" fill="#A1A1A1"/>
<rect width="4.91801" height="4.94526" transform="matrix(1 0.000190693 0.000188588 -1 206.559 79.125)" fill="#A1A1A1"/>
<rect width="4.94526" height="4.91801" transform="matrix(-4.34695e-08 -1 -1 4.39546e-08 196.723 212.648)" fill="#A1A1A1"/>
<rect width="4.94526" height="4.91801" transform="matrix(-4.34695e-08 -1 -1 4.39546e-08 137.707 212.648)" fill="#A1A1A1"/>
<rect width="4.94526" height="4.91801" transform="matrix(-4.34695e-08 -1 -1 4.39546e-08 167.219 212.648)" fill="#A1A1A1"/>
<rect width="4.94526" height="4.91801" transform="matrix(-4.34695e-08 -1 -1 4.39546e-08 108.203 212.648)" fill="#A1A1A1"/>
<rect width="4.94526" height="4.91801" transform="matrix(-4.34695e-08 -1 -1 4.39546e-08 78.6953 212.648)" fill="#A1A1A1"/>
<rect width="4.94526" height="4.91801" transform="matrix(-4.34695e-08 -1 -1 4.39546e-08 196.723 182.977)" fill="#A1A1A1"/>
<rect width="4.94526" height="4.91801" transform="matrix(-4.34695e-08 -1 -1 4.39546e-08 137.707 182.977)" fill="#A1A1A1"/>
<rect width="4.94526" height="4.91801" transform="matrix(-4.34695e-08 -1 -1 4.39546e-08 167.219 182.977)" fill="#A1A1A1"/>
<rect width="4.94526" height="4.91801" transform="matrix(-4.34695e-08 -1 -1 4.39546e-08 108.203 182.977)" fill="#A1A1A1"/>
<rect width="4.94526" height="4.91801" transform="matrix(-4.34695e-08 -1 -1 4.39546e-08 78.6953 182.977)" fill="#A1A1A1"/>
<rect width="4.94526" height="4.91801" transform="matrix(-4.34695e-08 -1 -1 4.39546e-08 196.723 123.633)" fill="#A1A1A1"/>
<rect width="4.94526" height="4.91801" transform="matrix(-4.34695e-08 -1 -1 4.39546e-08 137.707 123.633)" fill="#A1A1A1"/>
<rect width="4.94526" height="4.91801" transform="matrix(-4.34695e-08 -1 -1 4.39546e-08 167.219 123.633)" fill="#A1A1A1"/>
<rect width="4.94526" height="4.91801" transform="matrix(-4.34695e-08 -1 -1 4.39546e-08 108.203 123.633)" fill="#A1A1A1"/>
<rect width="4.94526" height="4.91801" transform="matrix(-4.34695e-08 -1 -1 4.39546e-08 78.6953 123.633)" fill="#A1A1A1"/>
<rect width="4.94526" height="4.91801" transform="matrix(-4.34695e-08 -1 -1 4.39546e-08 196.723 153.305)" fill="#A1A1A1"/>
<rect width="4.94526" height="4.91801" transform="matrix(-4.34695e-08 -1 -1 4.39546e-08 137.707 153.305)" fill="#A1A1A1"/>
<rect width="4.94526" height="4.91801" transform="matrix(-4.34695e-08 -1 -1 4.39546e-08 167.219 153.305)" fill="#A1A1A1"/>
<rect width="4.94526" height="4.91801" transform="matrix(-4.34695e-08 -1 -1 4.39546e-08 108.203 153.305)" fill="#A1A1A1"/>
<rect width="4.94526" height="4.91801" transform="matrix(-4.34695e-08 -1 -1 4.39546e-08 78.6953 153.305)" fill="#A1A1A1"/>
<rect width="4.94526" height="4.91801" transform="matrix(-4.34695e-08 -1 -1 4.39546e-08 196.723 93.9609)" fill="#A1A1A1"/>
<rect width="4.94526" height="4.91801" transform="matrix(-4.34695e-08 -1 -1 4.39546e-08 137.707 93.9609)" fill="#A1A1A1"/>
<rect width="4.94526" height="4.91801" transform="matrix(-4.34695e-08 -1 -1 4.39546e-08 167.219 93.9609)" fill="#A1A1A1"/>
<rect width="4.94526" height="4.91801" transform="matrix(-4.34695e-08 -1 -1 4.39546e-08 108.203 93.9609)" fill="#A1A1A1"/>
<rect width="4.94526" height="4.91801" transform="matrix(-4.34695e-08 -1 -1 4.39546e-08 78.6953 93.9609)" fill="#A1A1A1"/>
<rect width="4.94526" height="4.91801" transform="matrix(-4.34695e-08 -1 -1 4.39546e-08 196.723 64.2891)" fill="#A1A1A1"/>
<rect width="4.94526" height="4.91801" transform="matrix(-4.34695e-08 -1 -1 4.39546e-08 137.707 64.2891)" fill="#A1A1A1"/>
<rect width="4.94526" height="4.91801" transform="matrix(-4.34695e-08 -1 -1 4.39546e-08 167.219 64.2891)" fill="#A1A1A1"/>
<rect width="4.94526" height="4.91801" transform="matrix(-4.34695e-08 -1 -1 4.39546e-08 108.203 64.2891)" fill="#A1A1A1"/>
<rect width="4.94526" height="4.91801" transform="matrix(-4.34695e-08 -1 -1 4.39546e-08 78.6953 64.2891)" fill="#A1A1A1"/>
<rect width="4.94526" height="4.91801" transform="matrix(-4.34695e-08 -1 -1 4.39546e-08 54.1055 93.9609)" fill="#A1A1A1"/>
<rect width="4.94526" height="4.91801" transform="matrix(-4.34695e-08 1 1 4.39546e-08 216.395 178.039)" fill="#A1A1A1"/>
<rect width="4.91801" height="4.94526" transform="matrix(-1 -8.79092e-08 -8.69391e-08 1 93.4492 217.602)" fill="#A1A1A1"/>
<rect width="4.94526" height="4.91801" transform="matrix(-4.34695e-08 -1 -1 4.39546e-08 240.984 93.9609)" fill="#A1A1A1"/>
<rect width="4.94526" height="4.91801" transform="matrix(-4.34695e-08 -1 -1 4.39546e-08 54.1055 123.633)" fill="#A1A1A1"/>
<rect width="4.94526" height="4.91801" transform="matrix(-4.34695e-08 1 1 4.39546e-08 216.395 148.367)" fill="#A1A1A1"/>
<rect width="4.91801" height="4.94526" transform="matrix(-1 -8.79092e-08 -8.69391e-08 1 122.957 217.602)" fill="#A1A1A1"/>
<rect width="4.94526" height="4.91801" transform="matrix(-4.34695e-08 -1 -1 4.39546e-08 240.984 123.633)" fill="#A1A1A1"/>
<rect width="4.94526" height="4.91801" transform="matrix(-4.34695e-08 -1 -1 4.39546e-08 83.6133 34.6172)" fill="#A1A1A1"/>
<rect width="4.94526" height="4.91801" transform="matrix(-4.34695e-08 1 1 4.39546e-08 186.891 237.383)" fill="#A1A1A1"/>
<rect width="4.91801" height="4.94526" transform="matrix(-1 -8.79092e-08 -8.69391e-08 1 34.4336 187.93)" fill="#A1A1A1"/>
<rect width="4.94526" height="4.91801" transform="matrix(-4.34695e-08 -1 -1 4.39546e-08 221.316 34.6172)" fill="#A1A1A1"/>
<rect width="4.94526" height="4.91801" transform="matrix(-4.34695e-08 -1 -1 4.39546e-08 260.656 4.94531)" fill="#A1A1A1"/>
<rect width="4.94526" height="4.91801" transform="matrix(-4.34695e-08 -1 -1 4.39546e-08 54.1055 34.6172)" fill="#A1A1A1"/>
<rect width="4.94526" height="4.91801" transform="matrix(-4.34695e-08 1 1 4.39546e-08 216.395 237.383)" fill="#A1A1A1"/>
<rect width="4.91801" height="4.94526" transform="matrix(-1 -8.79092e-08 -8.69391e-08 1 34.4336 217.602)" fill="#A1A1A1"/>
<rect width="4.94526" height="4.91801" transform="matrix(-4.34695e-08 -1 -1 4.39546e-08 191.805 34.6172)" fill="#A1A1A1"/>
<rect width="4.94526" height="4.91801" transform="matrix(-4.34695e-08 -1 -1 4.39546e-08 231.148 4.94531)" fill="#A1A1A1"/>
<rect width="4.94526" height="4.91801" transform="matrix(-4.34695e-08 -1 -1 4.39546e-08 44.2695 4.94531)" fill="#A1A1A1"/>
<rect width="4.94526" height="4.91801" transform="matrix(-4.34695e-08 1 1 4.39546e-08 226.234 267.055)" fill="#A1A1A1"/>
<rect width="4.91801" height="4.94526" transform="matrix(-1 -8.79092e-08 -8.69391e-08 1 4.92578 227.492)" fill="#A1A1A1"/>
<rect width="4.91801" height="4.94526" transform="matrix(1 0.000190693 0.000188588 -1 177.051 187.918)" fill="#A1A1A1"/>
<rect width="4.91801" height="4.94526" transform="matrix(1 0.000190693 0.000188588 -1 118.039 187.918)" fill="#A1A1A1"/>
<rect width="4.91801" height="4.94526" transform="matrix(1 0.000190693 0.000188588 -1 147.547 187.918)" fill="#A1A1A1"/>
<rect width="4.91801" height="4.94526" transform="matrix(1 0.000190693 0.000188588 -1 88.5312 187.918)" fill="#A1A1A1"/>
<rect width="4.91801" height="4.94526" transform="matrix(1 0.000190693 0.000188588 -1 59.0234 187.918)" fill="#A1A1A1"/>
<rect width="4.91801" height="4.94526" transform="matrix(1 0.000190693 0.000188588 -1 177.051 128.578)" fill="#A1A1A1"/>
<rect width="4.91801" height="4.94526" transform="matrix(1 0.000190693 0.000188588 -1 118.039 128.578)" fill="#A1A1A1"/>
<rect width="4.91801" height="4.94526" transform="matrix(1 0.000190693 0.000188588 -1 147.547 128.578)" fill="#A1A1A1"/>
<rect width="4.91801" height="4.94526" transform="matrix(1 0.000190693 0.000188588 -1 88.5312 128.578)" fill="#A1A1A1"/>
<rect width="4.91801" height="4.94526" transform="matrix(1 0.000190693 0.000188588 -1 59.0234 128.578)" fill="#A1A1A1"/>
<rect width="4.91801" height="4.94526" transform="matrix(1 0.000190693 0.000188588 -1 177.051 158.25)" fill="#A1A1A1"/>
<rect width="4.91801" height="4.94526" transform="matrix(1 0.000190693 0.000188588 -1 118.039 158.25)" fill="#A1A1A1"/>
<rect width="4.91801" height="4.94526" transform="matrix(1 0.000190693 0.000188588 -1 147.547 158.25)" fill="#A1A1A1"/>
<rect width="4.91801" height="4.94526" transform="matrix(1 0.000190693 0.000188588 -1 88.5312 158.25)" fill="#A1A1A1"/>
<rect width="4.91801" height="4.94526" transform="matrix(1 0.000190693 0.000188588 -1 59.0234 158.25)" fill="#A1A1A1"/>
<rect width="4.91801" height="4.94526" transform="matrix(1 0.000190693 0.000188588 -1 177.051 98.9062)" fill="#A1A1A1"/>
<rect width="4.91801" height="4.94526" transform="matrix(1 0.000190693 0.000188588 -1 118.039 98.9062)" fill="#A1A1A1"/>
<rect width="4.91801" height="4.94526" transform="matrix(1 0.000190693 0.000188588 -1 147.547 98.9062)" fill="#A1A1A1"/>
<rect width="4.91801" height="4.94526" transform="matrix(1 0.000190693 0.000188588 -1 88.5312 98.9062)" fill="#A1A1A1"/>
<rect width="4.91801" height="4.94526" transform="matrix(1 0.000190693 0.000188588 -1 59.0234 98.9062)" fill="#A1A1A1"/>
<rect width="4.91801" height="4.94526" transform="matrix(1 0.000190693 0.000188588 -1 236.07 64.2891)" fill="#A1A1A1"/>
<rect width="4.91801" height="4.94526" transform="matrix(1 0.000190693 0.000188588 -1 0.0078125 74.1797)" fill="#A1A1A1"/>
<rect width="4.91801" height="4.94526" transform="matrix(-1 -0.00019078 -0.000188675 1 270.492 197.82)" fill="#A1A1A1"/>
<rect width="4.94526" height="4.91801" transform="matrix(0.000188719 -1 -1 -0.000190824 73.7773 272)" fill="#A1A1A1"/>
<rect width="4.91801" height="4.94526" transform="matrix(1 0.000190693 0.000188588 -1 265.578 74.1797)" fill="#A1A1A1"/>
<rect width="4.91801" height="4.94526" transform="matrix(1 0.000190693 0.000188588 -1 177.051 69.2344)" fill="#A1A1A1"/>
<rect width="4.91801" height="4.94526" transform="matrix(1 0.000190693 0.000188588 -1 118.039 69.2344)" fill="#A1A1A1"/>
<rect width="4.91801" height="4.94526" transform="matrix(1 0.000190693 0.000188588 -1 147.547 69.2344)" fill="#A1A1A1"/>
<rect width="4.91801" height="4.94526" transform="matrix(1 0.000190693 0.000188588 -1 88.5312 69.2344)" fill="#A1A1A1"/>
<rect width="4.91801" height="4.94526" transform="matrix(1 0.000190693 0.000188588 -1 59.0234 69.2344)" fill="#A1A1A1"/>
<rect width="4.91801" height="4.94526" transform="matrix(1 0.000190693 0.000188588 -1 236.07 34.6172)" fill="#A1A1A1"/>
<rect width="4.91801" height="4.94526" transform="matrix(1 0.000190693 0.000188588 -1 206.559 187.918)" fill="#A1A1A1"/>
<rect width="4.91801" height="4.94526" transform="matrix(1 0.000190693 0.000188588 -1 206.559 128.578)" fill="#A1A1A1"/>
<rect width="4.91801" height="4.94526" transform="matrix(1 0.000190693 0.000188588 -1 206.559 158.25)" fill="#A1A1A1"/>
<rect width="4.91801" height="4.94526" transform="matrix(1 0.000190693 0.000188588 -1 206.559 98.9062)" fill="#A1A1A1"/>
<rect width="4.91801" height="4.94526" transform="matrix(1 0.000190693 0.000188588 -1 206.559 69.2344)" fill="#A1A1A1"/>
<rect width="4.91801" height="4.94526" transform="matrix(1 0.000190693 0.000188588 -1 177.051 212.648)" fill="#A1A1A1"/>
<rect width="4.91801" height="4.94526" transform="matrix(1 0.000190693 0.000188588 -1 118.039 212.648)" fill="#A1A1A1"/>
<rect width="4.91801" height="4.94526" transform="matrix(1 0.000190693 0.000188588 -1 147.547 212.648)" fill="#A1A1A1"/>
<rect width="4.91801" height="4.94526" transform="matrix(1 0.000190693 0.000188588 -1 88.5312 212.648)" fill="#A1A1A1"/>
<rect width="4.91801" height="4.94526" transform="matrix(1 0.000190693 0.000188588 -1 59.0234 212.648)" fill="#A1A1A1"/>
<rect width="4.91801" height="4.94526" transform="matrix(1 0.000190693 0.000188588 -1 206.559 212.648)" fill="#A1A1A1"/>
<path d="M149.776 80.5977C155.867 80.5977 160.795 85.5611 160.795 91.6719C160.795 97.7825 155.867 102.746 149.776 102.746C143.686 102.746 138.758 97.7826 138.758 91.6719C138.758 85.5611 143.686 80.5977 149.776 80.5977Z" fill="black" stroke="#43FF46" stroke-width="2"/>
<path d="M122.726 110.316C128.816 110.316 133.744 115.28 133.744 121.391C133.744 127.501 128.816 132.465 122.726 132.465C116.635 132.465 111.707 127.501 111.707 121.391C111.707 115.28 116.635 110.316 122.726 110.316Z" fill="white" stroke="#FF6363" stroke-width="2"/>
<line x1="150.281" y1="81.5977" x2="150.281" y2="-0.00190726" stroke="#43FF46" stroke-width="4"/>
<line x1="151.277" y1="3.03516" x2="267.992" y2="3.03516" stroke="#43FF46" stroke-width="4"/>
<line x1="269.992" y1="4.03125" x2="269.992" y2="121.394" stroke="#43FF46" stroke-width="4"/>
<path d="M134.335 119.976C133.554 120.757 133.554 122.024 134.335 122.805L147.063 135.533C147.844 136.314 149.111 136.314 149.892 135.533C150.673 134.752 150.673 133.485 149.892 132.704L138.578 121.391L149.892 110.077C150.673 109.296 150.673 108.03 149.892 107.248C149.111 106.467 147.844 106.467 147.063 107.248L134.335 119.976ZM272 121.391V119.391L135.75 119.391V121.391V123.391L272 123.391V121.391Z" fill="#43FF46"/>
</svg>
