<svg width="270" height="270" viewBox="0 0 270 270" fill="none" xmlns="http://www.w3.org/2000/svg">
<rect width="4.90909" height="4.82143" transform="matrix(1 -8.33289e-08 -9.15523e-08 -1 19.6406 188.036)" fill="#FFD900"/>
<rect x="255.273" y="188.036" width="4.90909" height="4.82143" transform="rotate(-180 255.273 188.036)" fill="#FF0000"/>
<rect width="4.82143" height="4.90909" transform="matrix(-1.32497e-07 -1 -1 1.29696e-07 191.453 250.715)" fill="#00A2FF"/>
<rect width="4.82143" height="4.90909" transform="matrix(4.34843e-08 1 1 -4.38339e-08 83.4531 19.2859)" fill="#00FF15"/>
<rect width="4.90909" height="4.82143" transform="matrix(1 -8.33289e-08 -9.15523e-08 -1 19.6406 221.786)" fill="#FFD900"/>
<rect x="255.273" y="221.786" width="4.90909" height="4.82143" transform="rotate(-180 255.273 221.786)" fill="#FF0000"/>
<rect width="4.82143" height="4.90909" transform="matrix(-1.32497e-07 -1 -1 1.29696e-07 225.82 250.715)" fill="#00A2FF"/>
<rect width="4.82143" height="4.90909" transform="matrix(4.34843e-08 1 1 -4.38339e-08 49.0938 19.2859)" fill="#00FF15"/>
<rect width="4.82143" height="4.90909" transform="matrix(4.34843e-08 1 1 -4.38339e-08 44.1797 24.1074)" fill="#A1A1A1"/>
<rect x="44.1797" y="245.893" width="4.82143" height="4.90909" transform="rotate(-90 44.1797 245.893)" fill="#A1A1A1"/>
<rect width="4.82143" height="4.90909" transform="matrix(4.34843e-08 1 1 -4.38339e-08 245.453 221.786)" fill="#A1A1A1"/>
<rect x="230.727" y="24.1074" width="4.82143" height="4.90909" transform="rotate(90 230.727 24.1074)" fill="#A1A1A1"/>
<rect width="4.82143" height="4.90909" transform="matrix(4.34843e-08 1 1 -4.38339e-08 39.2734 28.9287)" fill="#A1A1A1"/>
<rect x="39.2734" y="241.072" width="4.82143" height="4.90909" transform="rotate(-90 39.2734 241.072)" fill="#A1A1A1"/>
<rect width="4.82143" height="4.90909" transform="matrix(4.34843e-08 1 1 -4.38339e-08 240.547 226.608)" fill="#A1A1A1"/>
<rect x="235.633" y="28.9287" width="4.82143" height="4.90909" transform="rotate(90 235.633 28.9287)" fill="#A1A1A1"/>
<rect width="4.82143" height="4.90909" transform="matrix(4.34843e-08 1 1 -4.38339e-08 34.3672 33.7502)" fill="#A1A1A1"/>
<rect x="34.3672" y="236.25" width="4.82143" height="4.90909" transform="rotate(-90 34.3672 236.25)" fill="#A1A1A1"/>
<rect width="4.82143" height="4.90909" transform="matrix(4.34843e-08 1 1 -4.38339e-08 235.633 231.429)" fill="#A1A1A1"/>
<rect x="240.547" y="33.7502" width="4.82143" height="4.90909" transform="rotate(90 240.547 33.7502)" fill="#A1A1A1"/>
<rect width="4.82143" height="4.90909" transform="matrix(4.34843e-08 1 1 -4.38339e-08 29.4531 38.5718)" fill="#A1A1A1"/>
<rect x="29.4531" y="231.429" width="4.82143" height="4.90909" transform="rotate(-90 29.4531 231.429)" fill="#A1A1A1"/>
<rect width="4.82143" height="4.90909" transform="matrix(4.34843e-08 1 1 -4.38339e-08 230.727 236.25)" fill="#A1A1A1"/>
<rect x="245.453" y="38.5718" width="4.82143" height="4.90909" transform="rotate(90 245.453 38.5718)" fill="#A1A1A1"/>
<rect x="260.18" y="14.4646" width="4.82143" height="4.90909" transform="rotate(90 260.18 14.4646)" fill="#A1A1A1"/>
<rect x="260.18" y="245.893" width="4.82143" height="4.90909" transform="rotate(90 260.18 245.893)" fill="#A1A1A1"/>
<rect x="24.5469" y="245.893" width="4.82143" height="4.90909" transform="rotate(90 24.5469 245.893)" fill="#A1A1A1"/>
<rect x="24.5469" y="14.4646" width="4.82143" height="4.90909" transform="rotate(90 24.5469 14.4646)" fill="#A1A1A1"/>
<rect x="260.18" y="19.2859" width="4.82143" height="4.90909" transform="rotate(90 260.18 19.2859)" fill="#A1A1A1"/>
<rect x="260.18" y="250.715" width="4.82143" height="4.90909" transform="rotate(90 260.18 250.715)" fill="#A1A1A1"/>
<rect x="24.5469" y="250.715" width="4.82143" height="4.90909" transform="rotate(90 24.5469 250.715)" fill="#A1A1A1"/>
<rect x="24.5469" y="19.2859" width="4.82143" height="4.90909" transform="rotate(90 24.5469 19.2859)" fill="#A1A1A1"/>
<rect x="255.273" y="19.2859" width="4.82143" height="4.90909" transform="rotate(90 255.273 19.2859)" fill="#A1A1A1"/>
<rect x="255.273" y="250.715" width="4.82143" height="4.90909" transform="rotate(90 255.273 250.715)" fill="#A1A1A1"/>
<rect x="19.6406" y="250.715" width="4.82143" height="4.90909" transform="rotate(90 19.6406 250.715)" fill="#A1A1A1"/>
<rect x="19.6406" y="19.2859" width="4.82143" height="4.90909" transform="rotate(90 19.6406 19.2859)" fill="#A1A1A1"/>
<rect x="255.273" y="14.4646" width="4.82143" height="4.90909" transform="rotate(90 255.273 14.4646)" fill="#A1A1A1"/>
<rect x="255.273" y="245.893" width="4.82143" height="4.90909" transform="rotate(90 255.273 245.893)" fill="#A1A1A1"/>
<rect x="19.6406" y="245.893" width="4.82143" height="4.90909" transform="rotate(90 19.6406 245.893)" fill="#A1A1A1"/>
<rect x="19.6406" y="14.4646" width="4.82143" height="4.90909" transform="rotate(90 19.6406 14.4646)" fill="#A1A1A1"/>
<rect x="265.094" y="9.64307" width="4.82143" height="4.90909" transform="rotate(90 265.094 9.64307)" fill="#A1A1A1"/>
<rect x="265.094" y="241.072" width="4.82143" height="4.90909" transform="rotate(90 265.094 241.072)" fill="#A1A1A1"/>
<rect x="29.4531" y="241.072" width="4.82143" height="4.90909" transform="rotate(90 29.4531 241.072)" fill="#A1A1A1"/>
<rect x="29.4531" y="9.64307" width="4.82143" height="4.90909" transform="rotate(90 29.4531 9.64307)" fill="#A1A1A1"/>
<rect x="265.094" y="24.1074" width="4.82143" height="4.90909" transform="rotate(90 265.094 24.1074)" fill="#A1A1A1"/>
<rect x="265.094" y="255.536" width="4.82143" height="4.90909" transform="rotate(90 265.094 255.536)" fill="#A1A1A1"/>
<rect x="29.4531" y="255.536" width="4.82143" height="4.90909" transform="rotate(90 29.4531 255.536)" fill="#A1A1A1"/>
<rect x="29.4531" y="24.1074" width="4.82143" height="4.90909" transform="rotate(90 29.4531 24.1074)" fill="#A1A1A1"/>
<rect x="250.367" y="24.1074" width="4.82143" height="4.90909" transform="rotate(90 250.367 24.1074)" fill="#A1A1A1"/>
<rect x="250.367" y="255.536" width="4.82143" height="4.90909" transform="rotate(90 250.367 255.536)" fill="#A1A1A1"/>
<rect x="14.7266" y="255.536" width="4.82143" height="4.90909" transform="rotate(90 14.7266 255.536)" fill="#A1A1A1"/>
<rect x="14.7266" y="24.1074" width="4.82143" height="4.90909" transform="rotate(90 14.7266 24.1074)" fill="#A1A1A1"/>
<rect x="250.367" y="9.64307" width="4.82143" height="4.90909" transform="rotate(90 250.367 9.64307)" fill="#A1A1A1"/>
<rect x="250.367" y="241.072" width="4.82143" height="4.90909" transform="rotate(90 250.367 241.072)" fill="#A1A1A1"/>
<rect x="14.7266" y="241.072" width="4.82143" height="4.90909" transform="rotate(90 14.7266 241.072)" fill="#A1A1A1"/>
<rect x="14.7266" y="9.64307" width="4.82143" height="4.90909" transform="rotate(90 14.7266 9.64307)" fill="#A1A1A1"/>
<rect width="4.82143" height="4.90909" transform="matrix(4.34843e-08 1 1 -4.38339e-08 24.5469 43.3931)" fill="#A1A1A1"/>
<rect x="24.5469" y="226.608" width="4.82143" height="4.90909" transform="rotate(-90 24.5469 226.608)" fill="#A1A1A1"/>
<rect width="4.82143" height="4.90909" transform="matrix(4.34843e-08 1 1 -4.38339e-08 225.82 241.072)" fill="#A1A1A1"/>
<rect x="250.367" y="43.3931" width="4.82143" height="4.90909" transform="rotate(90 250.367 43.3931)" fill="#A1A1A1"/>
<rect width="4.90909" height="4.82143" transform="matrix(1 -8.33289e-08 -9.15523e-08 -1 19.6406 120.536)" fill="#FFD900"/>
<rect x="255.273" y="120.536" width="4.90909" height="4.82143" transform="rotate(-180 255.273 120.536)" fill="#FF0000"/>
<rect width="4.82143" height="4.90909" transform="matrix(-1.32497e-07 -1 -1 1.29696e-07 122.727 250.715)" fill="#00A2FF"/>
<rect width="4.82143" height="4.90909" transform="matrix(4.34843e-08 1 1 -4.38339e-08 152.18 19.2859)" fill="#00FF15"/>
<rect width="4.90909" height="4.82143" transform="matrix(1 -8.33289e-08 -9.15523e-08 -1 19.6406 53.0359)" fill="#FFD900"/>
<rect x="255.273" y="53.0359" width="4.90909" height="4.82143" transform="rotate(-180 255.273 53.0359)" fill="#FF0000"/>
<rect width="4.82143" height="4.90909" transform="matrix(-1.32497e-07 -1 -1 1.29696e-07 54 250.715)" fill="#00A2FF"/>
<rect width="4.82143" height="4.90909" transform="matrix(4.34843e-08 1 1 -4.38339e-08 220.906 19.2859)" fill="#00FF15"/>
<rect width="4.90909" height="4.82143" transform="matrix(1 -8.33289e-08 -9.15523e-08 -1 14.7266 188.036)" fill="#FFD900"/>
<rect x="260.18" y="188.036" width="4.90909" height="4.82143" transform="rotate(-180 260.18 188.036)" fill="#FF0000"/>
<rect width="4.82143" height="4.90909" transform="matrix(-1.32497e-07 -1 -1 1.29696e-07 191.453 255.536)" fill="#00A2FF"/>
<rect width="4.82143" height="4.90909" transform="matrix(4.34843e-08 1 1 -4.38339e-08 83.4531 14.4646)" fill="#00FF15"/>
<rect width="4.90909" height="4.82143" transform="matrix(1 -8.33289e-08 -9.15523e-08 -1 14.7266 221.786)" fill="#FFD900"/>
<rect x="260.18" y="221.786" width="4.90909" height="4.82143" transform="rotate(-180 260.18 221.786)" fill="#FF0000"/>
<rect width="4.82143" height="4.90909" transform="matrix(-1.32497e-07 -1 -1 1.29696e-07 225.82 255.536)" fill="#00A2FF"/>
<rect width="4.82143" height="4.90909" transform="matrix(4.34843e-08 1 1 -4.38339e-08 49.0938 14.4646)" fill="#00FF15"/>
<rect width="4.90909" height="4.82143" transform="matrix(1 -8.33289e-08 -9.15523e-08 -1 14.7266 120.536)" fill="#FFD900"/>
<rect x="260.18" y="120.536" width="4.90909" height="4.82143" transform="rotate(-180 260.18 120.536)" fill="#FF0000"/>
<rect width="4.82143" height="4.90909" transform="matrix(-1.32497e-07 -1 -1 1.29696e-07 122.727 255.536)" fill="#00A2FF"/>
<rect width="4.82143" height="4.90909" transform="matrix(4.34843e-08 1 1 -4.38339e-08 152.18 14.4646)" fill="#00FF15"/>
<rect width="4.90909" height="4.82143" transform="matrix(1 -8.33289e-08 -9.15523e-08 -1 14.7266 53.0359)" fill="#FFD900"/>
<rect x="260.18" y="53.0359" width="4.90909" height="4.82143" transform="rotate(-180 260.18 53.0359)" fill="#FF0000"/>
<rect width="4.82143" height="4.90909" transform="matrix(-1.32497e-07 -1 -1 1.29696e-07 54 255.536)" fill="#00A2FF"/>
<rect width="4.82143" height="4.90909" transform="matrix(4.34843e-08 1 1 -4.38339e-08 220.906 14.4646)" fill="#00FF15"/>
<rect width="4.90909" height="4.82143" transform="matrix(1 -8.33289e-08 -9.15523e-08 -1 9.82031 192.858)" fill="#FFD900"/>
<rect x="265.094" y="192.858" width="4.90909" height="4.82143" transform="rotate(-180 265.094 192.858)" fill="#FF0000"/>
<rect width="4.82143" height="4.90909" transform="matrix(-1.32497e-07 -1 -1 1.29696e-07 196.367 260.357)" fill="#00A2FF"/>
<rect width="4.82143" height="4.90909" transform="matrix(4.34843e-08 1 1 -4.38339e-08 78.5469 9.64307)" fill="#00FF15"/>
<rect width="4.90909" height="4.82143" transform="matrix(1 -8.33289e-08 -9.15523e-08 -1 9.82031 125.357)" fill="#FFD900"/>
<rect x="265.094" y="125.357" width="4.90909" height="4.82143" transform="rotate(-180 265.094 125.357)" fill="#FF0000"/>
<rect width="4.82143" height="4.90909" transform="matrix(-1.32497e-07 -1 -1 1.29696e-07 127.641 260.357)" fill="#00A2FF"/>
<rect width="4.82143" height="4.90909" transform="matrix(4.34843e-08 1 1 -4.38339e-08 147.273 9.64307)" fill="#00FF15"/>
<rect width="4.90909" height="4.82143" transform="matrix(1 -8.33289e-08 -9.15523e-08 -1 9.82031 57.8574)" fill="#FFD900"/>
<rect x="265.094" y="57.8574" width="4.90909" height="4.82143" transform="rotate(-180 265.094 57.8574)" fill="#FF0000"/>
<rect width="4.82143" height="4.90909" transform="matrix(-1.32497e-07 -1 -1 1.29696e-07 58.9062 260.357)" fill="#00A2FF"/>
<rect width="4.82143" height="4.90909" transform="matrix(4.34843e-08 1 1 -4.38339e-08 216 9.64307)" fill="#00FF15"/>
<rect width="4.90909" height="4.82143" transform="matrix(1 -8.33289e-08 -9.15523e-08 -1 4.90625 130.179)" fill="#FFD900"/>
<rect x="270" y="130.179" width="4.90909" height="4.82143" transform="rotate(-180 270 130.179)" fill="#FF0000"/>
<rect width="4.82143" height="4.90909" transform="matrix(-1.32497e-07 -1 -1 1.29696e-07 132.547 265.179)" fill="#00A2FF"/>
<rect width="4.82143" height="4.90909" transform="matrix(4.34843e-08 1 1 -4.38339e-08 142.367 4.82178)" fill="#00FF15"/>
<rect width="4.90909" height="4.82143" transform="matrix(1 -8.33289e-08 -9.15523e-08 -1 4.90625 62.6787)" fill="#FFD900"/>
<rect x="270" y="62.6788" width="4.90909" height="4.82143" transform="rotate(-180 270 62.6788)" fill="#FF0000"/>
<rect width="4.82143" height="4.90909" transform="matrix(-1.32497e-07 -1 -1 1.29696e-07 63.8203 265.179)" fill="#00A2FF"/>
<rect width="4.82143" height="4.90909" transform="matrix(4.34843e-08 1 1 -4.38339e-08 211.094 4.82178)" fill="#00FF15"/>
<rect width="4.90909" height="4.82143" transform="matrix(1 -8.33289e-08 -9.15523e-08 -1 0 135)" fill="#FFD900"/>
<rect width="4.82143" height="4.90909" transform="matrix(-1.32497e-07 -1 -1 1.29696e-07 137.453 270)" fill="#00A2FF"/>
<rect width="4.82143" height="4.90909" transform="matrix(4.34843e-08 1 1 -4.38339e-08 137.453 0.000244141)" fill="#00FF15"/>
<rect width="4.90909" height="4.82143" transform="matrix(1 -8.33289e-08 -9.15523e-08 -1 0 139.822)" fill="#FFD900"/>
<rect width="4.82143" height="4.90909" transform="matrix(-1.32497e-07 -1 -1 1.29696e-07 142.367 270)" fill="#00A2FF"/>
<rect width="4.82143" height="4.90909" transform="matrix(4.34843e-08 1 1 -4.38339e-08 132.547 0.000244141)" fill="#00FF15"/>
<rect width="4.90909" height="4.82143" transform="matrix(1 -8.33289e-08 -9.15523e-08 -1 0 67.5002)" fill="#FFD900"/>
<rect width="4.82143" height="4.90909" transform="matrix(-1.32497e-07 -1 -1 1.29696e-07 68.7266 270)" fill="#00A2FF"/>
<rect width="4.82143" height="4.90909" transform="matrix(4.34843e-08 1 1 -4.38339e-08 206.18 0.000244141)" fill="#00FF15"/>
<rect width="4.90909" height="4.82143" transform="matrix(1 -8.33289e-08 -9.15523e-08 -1 0 72.3218)" fill="#FFD900"/>
<rect width="4.82143" height="4.90909" transform="matrix(-1.32497e-07 -1 -1 1.29696e-07 73.6328 270)" fill="#00A2FF"/>
<rect width="4.82143" height="4.90909" transform="matrix(4.34843e-08 1 1 -4.38339e-08 201.273 0.000244141)" fill="#00FF15"/>
<rect width="4.90909" height="4.82143" transform="matrix(1 -8.33289e-08 -9.15523e-08 -1 4.90625 144.643)" fill="#FFD900"/>
<rect x="270" y="144.643" width="4.90909" height="4.82143" transform="rotate(-180 270 144.643)" fill="#FF0000"/>
<rect width="4.82143" height="4.90909" transform="matrix(-1.32497e-07 -1 -1 1.29696e-07 147.273 265.179)" fill="#00A2FF"/>
<rect width="4.82143" height="4.90909" transform="matrix(4.34843e-08 1 1 -4.38339e-08 127.641 4.82178)" fill="#00FF15"/>
<rect width="4.90909" height="4.82143" transform="matrix(1 -8.33289e-08 -9.15523e-08 -1 4.90625 77.1431)" fill="#FFD900"/>
<rect x="270" y="77.1432" width="4.90909" height="4.82143" transform="rotate(-180 270 77.1432)" fill="#FF0000"/>
<rect width="4.82143" height="4.90909" transform="matrix(-1.32497e-07 -1 -1 1.29696e-07 78.5469 265.179)" fill="#00A2FF"/>
<rect width="4.82143" height="4.90909" transform="matrix(4.34843e-08 1 1 -4.38339e-08 196.367 4.82178)" fill="#00FF15"/>
<rect width="4.90909" height="4.82143" transform="matrix(1 -8.33289e-08 -9.15523e-08 -1 9.82031 149.465)" fill="#FFD900"/>
<rect x="265.094" y="149.465" width="4.90909" height="4.82143" transform="rotate(-180 265.094 149.465)" fill="#FF0000"/>
<rect width="4.82143" height="4.90909" transform="matrix(-1.32497e-07 -1 -1 1.29696e-07 152.18 260.357)" fill="#00A2FF"/>
<rect width="4.82143" height="4.90909" transform="matrix(4.34843e-08 1 1 -4.38339e-08 122.727 9.64307)" fill="#00FF15"/>
<rect width="4.90909" height="4.82143" transform="matrix(1 -8.33289e-08 -9.15523e-08 -1 9.82031 81.9646)" fill="#FFD900"/>
<rect x="265.094" y="81.9646" width="4.90909" height="4.82143" transform="rotate(-180 265.094 81.9646)" fill="#FF0000"/>
<rect width="4.82143" height="4.90909" transform="matrix(-1.32497e-07 -1 -1 1.29696e-07 83.4531 260.357)" fill="#00A2FF"/>
<rect width="4.82143" height="4.90909" transform="matrix(4.34843e-08 1 1 -4.38339e-08 191.453 9.64307)" fill="#00FF15"/>
<rect width="4.90909" height="4.82143" transform="matrix(1 -8.33289e-08 -9.15523e-08 -1 9.82031 188.036)" fill="#FFD900"/>
<rect x="265.094" y="188.036" width="4.90909" height="4.82143" transform="rotate(-180 265.094 188.036)" fill="#FF0000"/>
<rect width="4.82143" height="4.90909" transform="matrix(-1.32497e-07 -1 -1 1.29696e-07 191.453 260.357)" fill="#00A2FF"/>
<rect width="4.82143" height="4.90909" transform="matrix(4.34843e-08 1 1 -4.38339e-08 83.4531 9.64307)" fill="#00FF15"/>
<rect width="4.90909" height="4.82143" transform="matrix(1 -8.33289e-08 -9.15523e-08 -1 9.82031 221.786)" fill="#FFD900"/>
<rect x="265.094" y="221.786" width="4.90909" height="4.82143" transform="rotate(-180 265.094 221.786)" fill="#FF0000"/>
<rect width="4.82143" height="4.90909" transform="matrix(-1.32497e-07 -1 -1 1.29696e-07 225.82 260.357)" fill="#00A2FF"/>
<rect width="4.82143" height="4.90909" transform="matrix(4.34843e-08 1 1 -4.38339e-08 49.0938 9.64307)" fill="#00FF15"/>
<rect width="4.90909" height="4.82143" transform="matrix(1 -8.33289e-08 -9.15523e-08 -1 9.82031 120.536)" fill="#FFD900"/>
<rect x="265.094" y="120.536" width="4.90909" height="4.82143" transform="rotate(-180 265.094 120.536)" fill="#FF0000"/>
<rect width="4.82143" height="4.90909" transform="matrix(-1.32497e-07 -1 -1 1.29696e-07 122.727 260.357)" fill="#00A2FF"/>
<rect width="4.82143" height="4.90909" transform="matrix(4.34843e-08 1 1 -4.38339e-08 152.18 9.64307)" fill="#00FF15"/>
<rect width="4.90909" height="4.82143" transform="matrix(1 -8.33289e-08 -9.15523e-08 -1 9.82031 53.0359)" fill="#FFD900"/>
<rect x="265.094" y="53.0359" width="4.90909" height="4.82143" transform="rotate(-180 265.094 53.0359)" fill="#FF0000"/>
<rect width="4.82143" height="4.90909" transform="matrix(-1.32497e-07 -1 -1 1.29696e-07 54 260.357)" fill="#00A2FF"/>
<rect width="4.82143" height="4.90909" transform="matrix(4.34843e-08 1 1 -4.38339e-08 220.906 9.64307)" fill="#00FF15"/>
<rect width="4.90909" height="4.82143" transform="matrix(1 -8.33289e-08 -9.15523e-08 -1 19.6406 154.286)" fill="#FFD900"/>
<rect x="255.273" y="154.286" width="4.90909" height="4.82143" transform="rotate(-180 255.273 154.286)" fill="#FF0000"/>
<rect width="4.82143" height="4.90909" transform="matrix(-1.32497e-07 -1 -1 1.29696e-07 157.094 250.715)" fill="#00A2FF"/>
<rect width="4.82143" height="4.90909" transform="matrix(4.34843e-08 1 1 -4.38339e-08 117.82 19.2859)" fill="#00FF15"/>
<rect width="4.90909" height="4.82143" transform="matrix(1 -8.33289e-08 -9.15523e-08 -1 19.6406 86.7859)" fill="#FFD900"/>
<rect x="255.273" y="86.7859" width="4.90909" height="4.82143" transform="rotate(-180 255.273 86.7859)" fill="#FF0000"/>
<rect width="4.82143" height="4.90909" transform="matrix(-1.32497e-07 -1 -1 1.29696e-07 88.3672 250.715)" fill="#00A2FF"/>
<rect width="4.82143" height="4.90909" transform="matrix(4.34843e-08 1 1 -4.38339e-08 186.547 19.2859)" fill="#00FF15"/>
<rect width="4.90909" height="4.82143" transform="matrix(1 -8.33289e-08 -9.15523e-08 -1 14.7266 154.286)" fill="#FFD900"/>
<rect x="260.18" y="154.286" width="4.90909" height="4.82143" transform="rotate(-180 260.18 154.286)" fill="#FF0000"/>
<rect width="4.82143" height="4.90909" transform="matrix(-1.32497e-07 -1 -1 1.29696e-07 157.094 255.536)" fill="#00A2FF"/>
<rect width="4.82143" height="4.90909" transform="matrix(4.34843e-08 1 1 -4.38339e-08 117.82 14.4646)" fill="#00FF15"/>
<rect width="4.90909" height="4.82143" transform="matrix(1 -8.33289e-08 -9.15523e-08 -1 14.7266 86.7859)" fill="#FFD900"/>
<rect x="260.18" y="86.7859" width="4.90909" height="4.82143" transform="rotate(-180 260.18 86.7859)" fill="#FF0000"/>
<rect width="4.82143" height="4.90909" transform="matrix(-1.32497e-07 -1 -1 1.29696e-07 88.3672 255.536)" fill="#00A2FF"/>
<rect width="4.82143" height="4.90909" transform="matrix(4.34843e-08 1 1 -4.38339e-08 186.547 14.4646)" fill="#00FF15"/>
<rect width="4.90909" height="4.82143" transform="matrix(1 -8.33289e-08 -9.15523e-08 -1 9.82031 159.108)" fill="#FFD900"/>
<rect x="265.094" y="159.108" width="4.90909" height="4.82143" transform="rotate(-180 265.094 159.108)" fill="#FF0000"/>
<rect width="4.82143" height="4.90909" transform="matrix(-1.32497e-07 -1 -1 1.29696e-07 162 260.357)" fill="#00A2FF"/>
<rect width="4.82143" height="4.90909" transform="matrix(4.34843e-08 1 1 -4.38339e-08 112.906 9.64307)" fill="#00FF15"/>
<rect width="4.90909" height="4.82143" transform="matrix(1 -8.33289e-08 -9.15523e-08 -1 9.82031 91.6074)" fill="#FFD900"/>
<rect x="265.094" y="91.6074" width="4.90909" height="4.82143" transform="rotate(-180 265.094 91.6074)" fill="#FF0000"/>
<rect width="4.82143" height="4.90909" transform="matrix(-1.32497e-07 -1 -1 1.29696e-07 93.2734 260.357)" fill="#00A2FF"/>
<rect width="4.82143" height="4.90909" transform="matrix(4.34843e-08 1 1 -4.38339e-08 181.633 9.64307)" fill="#00FF15"/>
<rect width="4.90909" height="4.82143" transform="matrix(1 -8.33289e-08 -9.15523e-08 -1 4.90625 163.929)" fill="#FFD900"/>
<rect x="270" y="163.929" width="4.90909" height="4.82143" transform="rotate(-180 270 163.929)" fill="#FF0000"/>
<rect width="4.82143" height="4.90909" transform="matrix(-1.32497e-07 -1 -1 1.29696e-07 166.906 265.179)" fill="#00A2FF"/>
<rect width="4.82143" height="4.90909" transform="matrix(4.34843e-08 1 1 -4.38339e-08 108 4.82178)" fill="#00FF15"/>
<rect width="4.90909" height="4.82143" transform="matrix(1 -8.33289e-08 -9.15523e-08 -1 4.90625 197.679)" fill="#FFD900"/>
<rect x="270" y="197.679" width="4.90909" height="4.82143" transform="rotate(-180 270 197.679)" fill="#FF0000"/>
<rect width="4.82143" height="4.90909" transform="matrix(-1.32497e-07 -1 -1 1.29696e-07 201.273 265.179)" fill="#00A2FF"/>
<rect width="4.82143" height="4.90909" transform="matrix(4.34843e-08 1 1 -4.38339e-08 73.6328 4.82178)" fill="#00FF15"/>
<rect width="4.90909" height="4.82143" transform="matrix(1 -8.33289e-08 -9.15523e-08 -1 4.90625 96.4287)" fill="#FFD900"/>
<rect x="270" y="96.4288" width="4.90909" height="4.82143" transform="rotate(-180 270 96.4288)" fill="#FF0000"/>
<rect width="4.82143" height="4.90909" transform="matrix(-1.32497e-07 -1 -1 1.29696e-07 98.1797 265.179)" fill="#00A2FF"/>
<rect width="4.82143" height="4.90909" transform="matrix(4.34843e-08 1 1 -4.38339e-08 176.727 4.82178)" fill="#00FF15"/>
<rect width="4.90909" height="4.82143" transform="matrix(1 -8.33289e-08 -9.15523e-08 -1 0 168.75)" fill="#FFD900"/>
<rect width="4.82143" height="4.90909" transform="matrix(-1.32497e-07 -1 -1 1.29696e-07 171.82 270)" fill="#00A2FF"/>
<rect width="4.82143" height="4.90909" transform="matrix(4.34843e-08 1 1 -4.38339e-08 103.094 0.000244141)" fill="#00FF15"/>
<rect width="4.90909" height="4.82143" transform="matrix(1 -8.33289e-08 -9.15523e-08 -1 0 202.5)" fill="#FFD900"/>
<rect width="4.82143" height="4.90909" transform="matrix(-1.32497e-07 -1 -1 1.29696e-07 206.18 270)" fill="#00A2FF"/>
<rect width="4.82143" height="4.90909" transform="matrix(4.34843e-08 1 1 -4.38339e-08 68.7266 0.000244141)" fill="#00FF15"/>
<rect width="4.90909" height="4.82143" transform="matrix(1 -8.33289e-08 -9.15523e-08 -1 0 173.572)" fill="#FFD900"/>
<rect width="4.82143" height="4.90909" transform="matrix(-1.32497e-07 -1 -1 1.29696e-07 176.727 270)" fill="#00A2FF"/>
<rect width="4.82143" height="4.90909" transform="matrix(4.34843e-08 1 1 -4.38339e-08 98.1797 0.000244141)" fill="#00FF15"/>
<rect width="4.90909" height="4.82143" transform="matrix(1 -8.33289e-08 -9.15523e-08 -1 0 207.322)" fill="#FFD900"/>
<rect width="4.82143" height="4.90909" transform="matrix(-1.32497e-07 -1 -1 1.29696e-07 211.094 270)" fill="#00A2FF"/>
<rect width="4.82143" height="4.90909" transform="matrix(4.34843e-08 1 1 -4.38339e-08 63.8203 0.000244141)" fill="#00FF15"/>
<rect width="4.90909" height="4.82143" transform="matrix(1 -8.33289e-08 -9.15523e-08 -1 0 101.25)" fill="#FFD900"/>
<rect width="4.82143" height="4.90909" transform="matrix(-1.32497e-07 -1 -1 1.29696e-07 103.094 270)" fill="#00A2FF"/>
<rect width="4.82143" height="4.90909" transform="matrix(4.34843e-08 1 1 -4.38339e-08 171.82 0.000244141)" fill="#00FF15"/>
<rect width="4.90909" height="4.82143" transform="matrix(1 -8.33289e-08 -9.15523e-08 -1 0 106.072)" fill="#FFD900"/>
<rect width="4.82143" height="4.90909" transform="matrix(-1.32497e-07 -1 -1 1.29696e-07 108 270)" fill="#00A2FF"/>
<rect width="4.82143" height="4.90909" transform="matrix(4.34843e-08 1 1 -4.38339e-08 166.906 0.000244141)" fill="#00FF15"/>
<rect width="4.90909" height="4.82143" transform="matrix(1 -8.33289e-08 -9.15523e-08 -1 4.90625 178.393)" fill="#FFD900"/>
<rect x="270" y="178.393" width="4.90909" height="4.82143" transform="rotate(-180 270 178.393)" fill="#FF0000"/>
<rect width="4.82143" height="4.90909" transform="matrix(-1.32497e-07 -1 -1 1.29696e-07 181.633 265.179)" fill="#00A2FF"/>
<rect width="4.82143" height="4.90909" transform="matrix(4.34843e-08 1 1 -4.38339e-08 93.2734 4.82178)" fill="#00FF15"/>
<rect width="4.90909" height="4.82143" transform="matrix(1 -8.33289e-08 -9.15523e-08 -1 4.90625 212.143)" fill="#FFD900"/>
<rect x="270" y="212.143" width="4.90909" height="4.82143" transform="rotate(-180 270 212.143)" fill="#FF0000"/>
<rect width="4.82143" height="4.90909" transform="matrix(-1.32497e-07 -1 -1 1.29696e-07 216 265.179)" fill="#00A2FF"/>
<rect width="4.82143" height="4.90909" transform="matrix(4.34843e-08 1 1 -4.38339e-08 58.9062 4.82178)" fill="#00FF15"/>
<rect width="4.90909" height="4.82143" transform="matrix(1 -8.33289e-08 -9.15523e-08 -1 4.90625 110.893)" fill="#FFD900"/>
<rect x="270" y="110.893" width="4.90909" height="4.82143" transform="rotate(-180 270 110.893)" fill="#FF0000"/>
<rect width="4.82143" height="4.90909" transform="matrix(-1.32497e-07 -1 -1 1.29696e-07 112.906 265.179)" fill="#00A2FF"/>
<rect width="4.82143" height="4.90909" transform="matrix(4.34843e-08 1 1 -4.38339e-08 162 4.82178)" fill="#00FF15"/>
<rect width="4.90909" height="4.82143" transform="matrix(1 -8.33289e-08 -9.15523e-08 -1 9.82031 183.215)" fill="#FFD900"/>
<rect x="265.094" y="183.215" width="4.90909" height="4.82143" transform="rotate(-180 265.094 183.215)" fill="#FF0000"/>
<rect width="4.82143" height="4.90909" transform="matrix(-1.32497e-07 -1 -1 1.29696e-07 186.547 260.357)" fill="#00A2FF"/>
<rect width="4.82143" height="4.90909" transform="matrix(4.34843e-08 1 1 -4.38339e-08 88.3672 9.64307)" fill="#00FF15"/>
<rect width="4.90909" height="4.82143" transform="matrix(1 -8.33289e-08 -9.15523e-08 -1 9.82031 216.965)" fill="#FFD900"/>
<rect x="265.094" y="216.965" width="4.90909" height="4.82143" transform="rotate(-180 265.094 216.965)" fill="#FF0000"/>
<rect width="4.82143" height="4.90909" transform="matrix(-1.32497e-07 -1 -1 1.29696e-07 220.906 260.357)" fill="#00A2FF"/>
<rect width="4.82143" height="4.90909" transform="matrix(4.34843e-08 1 1 -4.38339e-08 54 9.64307)" fill="#00FF15"/>
<rect width="4.90909" height="4.82143" transform="matrix(1 -8.33289e-08 -9.15523e-08 -1 9.82031 115.715)" fill="#FFD900"/>
<rect x="265.094" y="115.715" width="4.90909" height="4.82143" transform="rotate(-180 265.094 115.715)" fill="#FF0000"/>
<rect width="4.82143" height="4.90909" transform="matrix(-1.32497e-07 -1 -1 1.29696e-07 117.82 260.357)" fill="#00A2FF"/>
<rect width="4.82143" height="4.90909" transform="matrix(4.34843e-08 1 1 -4.38339e-08 157.094 9.64307)" fill="#00FF15"/>
<rect width="4.90909" height="4.82143" transform="matrix(1 -8.33289e-08 -9.15523e-08 -1 9.82031 154.286)" fill="#FFD900"/>
<rect x="265.094" y="154.286" width="4.90909" height="4.82143" transform="rotate(-180 265.094 154.286)" fill="#FF0000"/>
<rect width="4.82143" height="4.90909" transform="matrix(-1.32497e-07 -1 -1 1.29696e-07 157.094 260.357)" fill="#00A2FF"/>
<rect width="4.82143" height="4.90909" transform="matrix(4.34843e-08 1 1 -4.38339e-08 117.82 9.64307)" fill="#00FF15"/>
<rect width="4.90909" height="4.82143" transform="matrix(1 -8.33289e-08 -9.15523e-08 -1 9.82031 86.7859)" fill="#FFD900"/>
<rect x="265.094" y="86.7859" width="4.90909" height="4.82143" transform="rotate(-180 265.094 86.7859)" fill="#FF0000"/>
<rect width="4.82143" height="4.90909" transform="matrix(-1.32497e-07 -1 -1 1.29696e-07 88.3672 260.357)" fill="#00A2FF"/>
<rect width="4.82143" height="4.90909" transform="matrix(4.34843e-08 1 1 -4.38339e-08 186.547 9.64307)" fill="#00FF15"/>
<rect x="142.367" y="120.536" width="4.82143" height="4.90909" transform="rotate(90 142.367 120.536)" fill="#A1A1A1"/>
<rect x="132.547" y="139.822" width="4.82143" height="4.90909" transform="rotate(-90 132.547 139.822)" fill="#A1A1A1"/>
<rect x="147.273" y="135" width="4.82143" height="4.90909" transform="rotate(90 147.273 135)" fill="#A1A1A1"/>
<rect x="152.18" y="139.822" width="4.82143" height="4.90909" transform="rotate(90 152.18 139.822)" fill="#A1A1A1"/>
<rect x="147.273" y="144.643" width="4.82143" height="4.90909" transform="rotate(90 147.273 144.643)" fill="#A1A1A1"/>
<rect x="137.453" y="144.643" width="4.82143" height="4.90909" transform="rotate(90 137.453 144.643)" fill="#A1A1A1"/>
<rect x="132.547" y="139.822" width="4.82143" height="4.90909" transform="rotate(90 132.547 139.822)" fill="#A1A1A1"/>
<rect x="142.367" y="149.465" width="4.82143" height="4.90909" transform="rotate(90 142.367 149.465)" fill="#A1A1A1"/>
<rect x="157.094" y="135" width="4.82143" height="4.90909" transform="rotate(90 157.094 135)" fill="#A1A1A1"/>
<rect x="157.094" y="125.357" width="4.82143" height="4.90909" transform="rotate(90 157.094 125.357)" fill="#A1A1A1"/>
<rect x="162" y="130.179" width="4.82143" height="4.90909" transform="rotate(90 162 130.179)" fill="#A1A1A1"/>
<rect x="152.18" y="120.536" width="4.82143" height="4.90909" transform="rotate(90 152.18 120.536)" fill="#A1A1A1"/>
<rect x="147.273" y="115.715" width="4.82143" height="4.90909" transform="rotate(90 147.273 115.715)" fill="#A1A1A1"/>
<rect x="142.367" y="110.893" width="4.82143" height="4.90909" transform="rotate(90 142.367 110.893)" fill="#A1A1A1"/>
<rect x="137.453" y="115.715" width="4.82143" height="4.90909" transform="rotate(90 137.453 115.715)" fill="#A1A1A1"/>
<rect x="132.547" y="120.536" width="4.82143" height="4.90909" transform="rotate(90 132.547 120.536)" fill="#A1A1A1"/>
<rect x="127.641" y="125.357" width="4.82143" height="4.90909" transform="rotate(90 127.641 125.357)" fill="#A1A1A1"/>
<rect x="127.641" y="135" width="4.82143" height="4.90909" transform="rotate(90 127.641 135)" fill="#A1A1A1"/>
<rect x="122.727" y="130.179" width="4.82143" height="4.90909" transform="rotate(90 122.727 130.179)" fill="#A1A1A1"/>
<rect x="117.82" y="135" width="4.82143" height="4.90909" transform="rotate(90 117.82 135)" fill="#A1A1A1"/>
<rect x="117.82" y="125.357" width="4.82143" height="4.90909" transform="rotate(90 117.82 125.357)" fill="#A1A1A1"/>
<rect x="112.906" y="130.179" width="4.82143" height="4.90909" transform="rotate(90 112.906 130.179)" fill="#A1A1A1"/>
<rect x="166.906" y="135" width="4.82143" height="4.90909" transform="rotate(90 166.906 135)" fill="#A1A1A1"/>
<rect x="166.906" y="125.357" width="4.82143" height="4.90909" transform="rotate(90 166.906 125.357)" fill="#A1A1A1"/>
<rect x="171.82" y="130.179" width="4.82143" height="4.90909" transform="rotate(90 171.82 130.179)" fill="#A1A1A1"/>
<rect x="127.641" y="135" width="4.82143" height="4.90909" transform="rotate(-90 127.641 135)" fill="#A1A1A1"/>
<rect x="152.18" y="130.179" width="4.82143" height="4.90909" transform="rotate(90 152.18 130.179)" fill="#A1A1A1"/>
<rect x="152.18" y="130.179" width="4.82143" height="4.90909" transform="rotate(90 152.18 130.179)" fill="#A1A1A1"/>
<rect x="142.367" y="130.179" width="4.82143" height="4.90909" transform="rotate(-90 142.367 130.179)" fill="#A1A1A1"/>
<rect x="142.367" y="139.822" width="4.82143" height="4.90909" transform="rotate(90 142.367 139.822)" fill="#A1A1A1"/>
<rect x="132.547" y="130.179" width="4.82143" height="4.90909" transform="rotate(-90 132.547 130.179)" fill="#A1A1A1"/>
</svg>
