<svg width="251" height="251" viewBox="0 0 251 251" fill="none" xmlns="http://www.w3.org/2000/svg">
<circle cx="128.5" cy="120.5" r="13.5" fill="black"/>
<circle cx="29.5" cy="221.5" r="13.5" fill="black"/>
<circle cx="29.5" cy="28.5" r="13.5" fill="black"/>
<circle cx="223.5" cy="28.5" r="13.5" fill="white"/>
<circle cx="128.5" cy="221.5" r="13.5" fill="white"/>
<circle cx="223.5" cy="221.5" r="13.5" fill="white"/>
<rect x="156.281" y="120.674" width="4.82692" height="4.73585" transform="rotate(90 156.281 120.674)" fill="#A1A1A1"/>
<rect x="156.281" y="24.1348" width="4.82692" height="4.73585" transform="rotate(90 156.281 24.1348)" fill="#A1A1A1"/>
<rect x="61.5625" y="24.1348" width="4.82692" height="4.73585" transform="rotate(90 61.5625 24.1348)" fill="#A1A1A1"/>
<rect x="61.5625" y="120.674" width="4.82692" height="4.73585" transform="rotate(90 61.5625 120.674)" fill="#A1A1A1"/>
<rect x="61.5625" y="217.213" width="4.82692" height="4.73585" transform="rotate(90 61.5625 217.213)" fill="#A1A1A1"/>
<rect x="156.281" y="217.213" width="4.82692" height="4.73585" transform="rotate(90 156.281 217.213)" fill="#A1A1A1"/>
<rect x="161.016" y="120.674" width="4.82692" height="4.73585" transform="rotate(90 161.016 120.674)" fill="#A1A1A1"/>
<rect x="161.016" y="24.1348" width="4.82692" height="4.73585" transform="rotate(90 161.016 24.1348)" fill="#A1A1A1"/>
<rect x="66.2969" y="24.1348" width="4.82692" height="4.73585" transform="rotate(90 66.2969 24.1348)" fill="#A1A1A1"/>
<rect x="66.2969" y="120.674" width="4.82692" height="4.73585" transform="rotate(90 66.2969 120.674)" fill="#A1A1A1"/>
<rect x="66.2969" y="217.213" width="4.82692" height="4.73585" transform="rotate(90 66.2969 217.213)" fill="#A1A1A1"/>
<rect x="161.016" y="217.213" width="4.82692" height="4.73585" transform="rotate(90 161.016 217.213)" fill="#A1A1A1"/>
<rect x="165.75" y="120.674" width="4.82692" height="4.73585" transform="rotate(90 165.75 120.674)" fill="#A1A1A1"/>
<rect x="165.75" y="24.1348" width="4.82692" height="4.73585" transform="rotate(90 165.75 24.1348)" fill="#A1A1A1"/>
<rect x="71.0391" y="24.1348" width="4.82692" height="4.73585" transform="rotate(90 71.0391 24.1348)" fill="#A1A1A1"/>
<rect x="71.0391" y="120.674" width="4.82692" height="4.73585" transform="rotate(90 71.0391 120.674)" fill="#A1A1A1"/>
<rect x="71.0391" y="217.213" width="4.82692" height="4.73585" transform="rotate(90 71.0391 217.213)" fill="#A1A1A1"/>
<rect x="165.75" y="217.213" width="4.82692" height="4.73585" transform="rotate(90 165.75 217.213)" fill="#A1A1A1"/>
<rect x="170.492" y="120.674" width="4.82692" height="4.73585" transform="rotate(90 170.492 120.674)" fill="#A1A1A1"/>
<rect x="170.492" y="24.1348" width="4.82692" height="4.73585" transform="rotate(90 170.492 24.1348)" fill="#A1A1A1"/>
<rect x="75.7734" y="24.1348" width="4.82692" height="4.73585" transform="rotate(90 75.7734 24.1348)" fill="#A1A1A1"/>
<rect x="75.7734" y="120.674" width="4.82692" height="4.73585" transform="rotate(90 75.7734 120.674)" fill="#A1A1A1"/>
<rect x="75.7734" y="217.213" width="4.82692" height="4.73585" transform="rotate(90 75.7734 217.213)" fill="#A1A1A1"/>
<rect x="170.492" y="217.213" width="4.82692" height="4.73585" transform="rotate(90 170.492 217.213)" fill="#A1A1A1"/>
<rect x="175.227" y="120.674" width="4.82692" height="4.73585" transform="rotate(90 175.227 120.674)" fill="#A1A1A1"/>
<rect x="175.227" y="24.1348" width="4.82692" height="4.73585" transform="rotate(90 175.227 24.1348)" fill="#A1A1A1"/>
<rect x="80.5078" y="24.1348" width="4.82692" height="4.73585" transform="rotate(90 80.5078 24.1348)" fill="#A1A1A1"/>
<rect x="80.5078" y="120.674" width="4.82692" height="4.73585" transform="rotate(90 80.5078 120.674)" fill="#A1A1A1"/>
<rect x="80.5078" y="217.213" width="4.82692" height="4.73585" transform="rotate(90 80.5078 217.213)" fill="#A1A1A1"/>
<rect x="175.227" y="217.213" width="4.82692" height="4.73585" transform="rotate(90 175.227 217.213)" fill="#A1A1A1"/>
<rect x="179.961" y="120.674" width="4.82692" height="4.73585" transform="rotate(90 179.961 120.674)" fill="#A1A1A1"/>
<rect x="179.961" y="24.1348" width="4.82692" height="4.73585" transform="rotate(90 179.961 24.1348)" fill="#A1A1A1"/>
<rect x="85.2422" y="24.1348" width="4.82692" height="4.73585" transform="rotate(90 85.2422 24.1348)" fill="#A1A1A1"/>
<rect x="85.2422" y="120.674" width="4.82692" height="4.73585" transform="rotate(90 85.2422 120.674)" fill="#A1A1A1"/>
<rect x="85.2422" y="217.213" width="4.82692" height="4.73585" transform="rotate(90 85.2422 217.213)" fill="#A1A1A1"/>
<rect x="179.961" y="217.213" width="4.82692" height="4.73585" transform="rotate(90 179.961 217.213)" fill="#A1A1A1"/>
<rect x="184.695" y="120.674" width="4.82692" height="4.73585" transform="rotate(90 184.695 120.674)" fill="#A1A1A1"/>
<rect x="184.695" y="24.1348" width="4.82692" height="4.73585" transform="rotate(90 184.695 24.1348)" fill="#A1A1A1"/>
<rect x="89.9766" y="24.1348" width="4.82692" height="4.73585" transform="rotate(90 89.9766 24.1348)" fill="#A1A1A1"/>
<rect x="89.9766" y="120.674" width="4.82692" height="4.73585" transform="rotate(90 89.9766 120.674)" fill="#A1A1A1"/>
<rect x="89.9766" y="217.213" width="4.82692" height="4.73585" transform="rotate(90 89.9766 217.213)" fill="#A1A1A1"/>
<rect x="184.695" y="217.213" width="4.82692" height="4.73585" transform="rotate(90 184.695 217.213)" fill="#A1A1A1"/>
<rect x="189.43" y="120.674" width="4.82692" height="4.73585" transform="rotate(90 189.43 120.674)" fill="#A1A1A1"/>
<rect x="189.43" y="24.1348" width="4.82692" height="4.73585" transform="rotate(90 189.43 24.1348)" fill="#A1A1A1"/>
<rect x="94.7188" y="24.1348" width="4.82692" height="4.73585" transform="rotate(90 94.7188 24.1348)" fill="#A1A1A1"/>
<rect x="94.7188" y="120.674" width="4.82692" height="4.73585" transform="rotate(90 94.7188 120.674)" fill="#A1A1A1"/>
<rect x="94.7188" y="217.213" width="4.82692" height="4.73585" transform="rotate(90 94.7188 217.213)" fill="#A1A1A1"/>
<rect x="189.43" y="217.213" width="4.82692" height="4.73585" transform="rotate(90 189.43 217.213)" fill="#A1A1A1"/>
<rect x="194.164" y="120.674" width="4.82692" height="4.73585" transform="rotate(90 194.164 120.674)" fill="#A1A1A1"/>
<rect x="194.164" y="24.1348" width="4.82692" height="4.73585" transform="rotate(90 194.164 24.1348)" fill="#A1A1A1"/>
<rect x="99.4531" y="24.1348" width="4.82692" height="4.73585" transform="rotate(90 99.4531 24.1348)" fill="#A1A1A1"/>
<rect x="99.4531" y="217.213" width="4.82692" height="4.73585" transform="rotate(90 99.4531 217.213)" fill="#A1A1A1"/>
<rect x="194.164" y="217.213" width="4.82692" height="4.73585" transform="rotate(90 194.164 217.213)" fill="#A1A1A1"/>
<rect x="222.586" y="91.7129" width="4.82692" height="4.73585" transform="rotate(90 222.586 91.7129)" fill="#A1A1A1"/>
<rect x="127.867" y="91.7129" width="4.82692" height="4.73585" transform="rotate(90 127.867 91.7129)" fill="#A1A1A1"/>
<rect x="127.867" y="188.252" width="4.82692" height="4.73585" transform="rotate(90 127.867 188.252)" fill="#A1A1A1"/>
<rect x="222.586" y="188.252" width="4.82692" height="4.73585" transform="rotate(90 222.586 188.252)" fill="#A1A1A1"/>
<rect x="33.1484" y="188.252" width="4.82692" height="4.73585" transform="rotate(90 33.1484 188.252)" fill="#A1A1A1"/>
<rect x="33.1484" y="91.7129" width="4.82692" height="4.73585" transform="rotate(90 33.1484 91.7129)" fill="#A1A1A1"/>
<rect x="222.586" y="86.8848" width="4.82692" height="4.73585" transform="rotate(90 222.586 86.8848)" fill="#A1A1A1"/>
<rect x="127.867" y="86.8848" width="4.82692" height="4.73585" transform="rotate(90 127.867 86.8848)" fill="#A1A1A1"/>
<rect x="127.867" y="183.424" width="4.82692" height="4.73585" transform="rotate(90 127.867 183.424)" fill="#A1A1A1"/>
<rect x="222.586" y="183.424" width="4.82692" height="4.73585" transform="rotate(90 222.586 183.424)" fill="#A1A1A1"/>
<rect x="33.1484" y="183.424" width="4.82692" height="4.73585" transform="rotate(90 33.1484 183.424)" fill="#A1A1A1"/>
<rect x="33.1484" y="86.8848" width="4.82692" height="4.73585" transform="rotate(90 33.1484 86.8848)" fill="#A1A1A1"/>
<rect x="222.586" y="82.0586" width="4.82692" height="4.73585" transform="rotate(90 222.586 82.0586)" fill="#A1A1A1"/>
<rect x="127.867" y="82.0586" width="4.82692" height="4.73585" transform="rotate(90 127.867 82.0586)" fill="#A1A1A1"/>
<rect x="127.867" y="178.598" width="4.82692" height="4.73585" transform="rotate(90 127.867 178.598)" fill="#A1A1A1"/>
<rect x="222.586" y="178.598" width="4.82692" height="4.73585" transform="rotate(90 222.586 178.598)" fill="#A1A1A1"/>
<rect x="33.1484" y="178.598" width="4.82692" height="4.73585" transform="rotate(90 33.1484 178.598)" fill="#A1A1A1"/>
<rect x="33.1484" y="82.0586" width="4.82692" height="4.73585" transform="rotate(90 33.1484 82.0586)" fill="#A1A1A1"/>
<rect x="222.586" y="77.2324" width="4.82692" height="4.73585" transform="rotate(90 222.586 77.2324)" fill="#A1A1A1"/>
<rect x="127.867" y="77.2324" width="4.82692" height="4.73585" transform="rotate(90 127.867 77.2324)" fill="#A1A1A1"/>
<rect x="127.867" y="173.77" width="4.82692" height="4.73585" transform="rotate(90 127.867 173.77)" fill="#A1A1A1"/>
<rect x="222.586" y="173.77" width="4.82692" height="4.73585" transform="rotate(90 222.586 173.77)" fill="#A1A1A1"/>
<rect x="33.1484" y="173.77" width="4.82692" height="4.73585" transform="rotate(90 33.1484 173.77)" fill="#A1A1A1"/>
<rect x="33.1484" y="77.2324" width="4.82692" height="4.73585" transform="rotate(90 33.1484 77.2324)" fill="#A1A1A1"/>
<rect x="222.586" y="72.4043" width="4.82692" height="4.73585" transform="rotate(90 222.586 72.4043)" fill="#A1A1A1"/>
<rect x="127.867" y="72.4043" width="4.82692" height="4.73585" transform="rotate(90 127.867 72.4043)" fill="#A1A1A1"/>
<rect x="127.867" y="168.943" width="4.82692" height="4.73585" transform="rotate(90 127.867 168.943)" fill="#A1A1A1"/>
<rect x="222.586" y="168.943" width="4.82692" height="4.73585" transform="rotate(90 222.586 168.943)" fill="#A1A1A1"/>
<rect x="33.1484" y="168.943" width="4.82692" height="4.73585" transform="rotate(90 33.1484 168.943)" fill="#A1A1A1"/>
<rect x="33.1484" y="72.4043" width="4.82692" height="4.73585" transform="rotate(90 33.1484 72.4043)" fill="#A1A1A1"/>
<rect x="222.586" y="67.5781" width="4.82692" height="4.73585" transform="rotate(90 222.586 67.5781)" fill="#A1A1A1"/>
<rect x="127.867" y="67.5781" width="4.82692" height="4.73585" transform="rotate(90 127.867 67.5781)" fill="#A1A1A1"/>
<rect x="127.867" y="164.117" width="4.82692" height="4.73585" transform="rotate(90 127.867 164.117)" fill="#A1A1A1"/>
<rect x="222.586" y="164.117" width="4.82692" height="4.73585" transform="rotate(90 222.586 164.117)" fill="#A1A1A1"/>
<rect x="33.1484" y="164.117" width="4.82692" height="4.73585" transform="rotate(90 33.1484 164.117)" fill="#A1A1A1"/>
<rect x="33.1484" y="67.5781" width="4.82692" height="4.73585" transform="rotate(90 33.1484 67.5781)" fill="#A1A1A1"/>
<rect x="222.586" y="62.752" width="4.82692" height="4.73585" transform="rotate(90 222.586 62.752)" fill="#A1A1A1"/>
<rect x="127.867" y="62.752" width="4.82692" height="4.73585" transform="rotate(90 127.867 62.752)" fill="#A1A1A1"/>
<rect x="127.867" y="159.289" width="4.82692" height="4.73585" transform="rotate(90 127.867 159.289)" fill="#A1A1A1"/>
<rect x="222.586" y="159.289" width="4.82692" height="4.73585" transform="rotate(90 222.586 159.289)" fill="#A1A1A1"/>
<rect x="33.1484" y="159.289" width="4.82692" height="4.73585" transform="rotate(90 33.1484 159.289)" fill="#A1A1A1"/>
<rect x="33.1484" y="62.752" width="4.82692" height="4.73585" transform="rotate(90 33.1484 62.752)" fill="#A1A1A1"/>
<rect x="222.586" y="53.0977" width="4.82692" height="4.73585" transform="rotate(90 222.586 53.0977)" fill="#A1A1A1"/>
<rect x="127.867" y="53.0977" width="4.82692" height="4.73585" transform="rotate(90 127.867 53.0977)" fill="#A1A1A1"/>
<rect x="127.867" y="149.635" width="4.82692" height="4.73585" transform="rotate(90 127.867 149.635)" fill="#A1A1A1"/>
<rect x="222.586" y="149.635" width="4.82692" height="4.73585" transform="rotate(90 222.586 149.635)" fill="#A1A1A1"/>
<rect x="33.1484" y="149.635" width="4.82692" height="4.73585" transform="rotate(90 33.1484 149.635)" fill="#A1A1A1"/>
<rect x="33.1484" y="53.0977" width="4.82692" height="4.73585" transform="rotate(90 33.1484 53.0977)" fill="#A1A1A1"/>
<rect x="222.586" y="57.9238" width="4.82692" height="4.73585" transform="rotate(90 222.586 57.9238)" fill="#A1A1A1"/>
<rect x="127.867" y="57.9238" width="4.82692" height="4.73585" transform="rotate(90 127.867 57.9238)" fill="#A1A1A1"/>
<rect x="127.867" y="154.463" width="4.82692" height="4.73585" transform="rotate(90 127.867 154.463)" fill="#A1A1A1"/>
<rect x="222.586" y="154.463" width="4.82692" height="4.73585" transform="rotate(90 222.586 154.463)" fill="#A1A1A1"/>
<rect x="33.1484" y="154.463" width="4.82692" height="4.73585" transform="rotate(90 33.1484 154.463)" fill="#A1A1A1"/>
<rect x="33.1484" y="57.9238" width="4.82692" height="4.73585" transform="rotate(90 33.1484 57.9238)" fill="#A1A1A1"/>
<rect x="47.3594" y="193.078" width="4.73585" height="4.82692" fill="#A1A1A1"/>
<rect x="56.8281" y="53.0977" width="4.82692" height="4.73585" transform="rotate(90 56.8281 53.0977)" fill="#A1A1A1"/>
<rect x="52.0938" y="48.2695" width="4.82692" height="4.73585" transform="rotate(90 52.0938 48.2695)" fill="#A1A1A1"/>
<rect x="203.641" y="48.2695" width="4.82692" height="4.73585" transform="rotate(90 203.641 48.2695)" fill="#A1A1A1"/>
<rect x="99.4531" y="120.674" width="4.82692" height="4.73585" transform="rotate(90 99.4531 120.674)" fill="#A1A1A1"/>
<rect x="99.4531" y="144.809" width="4.82692" height="4.73585" transform="rotate(90 99.4531 144.809)" fill="#A1A1A1"/>
<rect x="104.188" y="139.982" width="4.82692" height="4.73585" transform="rotate(90 104.188 139.982)" fill="#A1A1A1"/>
<rect x="52.0938" y="188.252" width="4.73585" height="4.82692" fill="#A1A1A1"/>
<rect x="194.164" y="188.252" width="4.82692" height="4.73585" transform="rotate(-90 194.164 188.252)" fill="#A1A1A1"/>
<rect x="198.906" y="193.078" width="4.82692" height="4.73585" transform="rotate(-90 198.906 193.078)" fill="#A1A1A1"/>
<rect x="203.641" y="197.904" width="4.82692" height="4.73585" transform="rotate(-90 203.641 197.904)" fill="#A1A1A1"/>
<rect width="4.82692" height="4.73585" transform="matrix(-4.28866e-08 -1 -1 4.4552e-08 156.281 101.367)" fill="#A1A1A1"/>
<rect x="189.43" y="183.424" width="4.82692" height="4.73585" transform="rotate(-90 189.43 183.424)" fill="#A1A1A1"/>
<rect width="4.82692" height="4.73585" transform="matrix(-4.28866e-08 -1 -1 4.4552e-08 161.016 96.5391)" fill="#A1A1A1"/>
<rect x="61.5625" y="57.9238" width="4.82692" height="4.73585" transform="rotate(90 61.5625 57.9238)" fill="#A1A1A1"/>
<rect x="56.8281" y="183.424" width="4.73585" height="4.82692" fill="#A1A1A1"/>
<rect x="184.695" y="178.598" width="4.82692" height="4.73585" transform="rotate(-90 184.695 178.598)" fill="#A1A1A1"/>
<rect width="4.82692" height="4.73585" transform="matrix(-4.28866e-08 -1 -1 4.4552e-08 165.75 91.7129)" fill="#A1A1A1"/>
<rect x="66.2969" y="62.752" width="4.82692" height="4.73585" transform="rotate(90 66.2969 62.752)" fill="#A1A1A1"/>
<rect x="61.5625" y="178.598" width="4.73585" height="4.82692" fill="#A1A1A1"/>
<rect x="179.961" y="173.77" width="4.82692" height="4.73585" transform="rotate(-90 179.961 173.77)" fill="#A1A1A1"/>
<rect width="4.82692" height="4.73585" transform="matrix(-4.28866e-08 -1 -1 4.4552e-08 170.492 86.8848)" fill="#A1A1A1"/>
<rect x="71.0391" y="67.5781" width="4.82692" height="4.73585" transform="rotate(90 71.0391 67.5781)" fill="#A1A1A1"/>
<rect x="66.2969" y="173.77" width="4.73585" height="4.82692" fill="#A1A1A1"/>
<rect x="175.227" y="168.943" width="4.82692" height="4.73585" transform="rotate(-90 175.227 168.943)" fill="#A1A1A1"/>
<rect width="4.82692" height="4.73585" transform="matrix(-4.28866e-08 -1 -1 4.4552e-08 175.227 82.0586)" fill="#A1A1A1"/>
<rect x="75.7734" y="72.4043" width="4.82692" height="4.73585" transform="rotate(90 75.7734 72.4043)" fill="#A1A1A1"/>
<rect x="71.0391" y="168.943" width="4.73585" height="4.82692" fill="#A1A1A1"/>
<rect x="170.492" y="164.117" width="4.82692" height="4.73585" transform="rotate(-90 170.492 164.117)" fill="#A1A1A1"/>
<rect width="4.82692" height="4.73585" transform="matrix(-4.28866e-08 -1 -1 4.4552e-08 179.961 77.2324)" fill="#A1A1A1"/>
<rect x="80.5078" y="77.2324" width="4.82692" height="4.73585" transform="rotate(90 80.5078 77.2324)" fill="#A1A1A1"/>
<rect x="75.7734" y="164.117" width="4.73585" height="4.82692" fill="#A1A1A1"/>
<rect x="165.75" y="159.289" width="4.82692" height="4.73585" transform="rotate(-90 165.75 159.289)" fill="#A1A1A1"/>
<rect width="4.82692" height="4.73585" transform="matrix(-4.28866e-08 -1 -1 4.4552e-08 184.695 72.4043)" fill="#A1A1A1"/>
<rect x="85.2422" y="82.0586" width="4.82692" height="4.73585" transform="rotate(90 85.2422 82.0586)" fill="#A1A1A1"/>
<rect x="80.5078" y="159.289" width="4.73585" height="4.82692" fill="#A1A1A1"/>
<rect x="161.016" y="154.463" width="4.82692" height="4.73585" transform="rotate(-90 161.016 154.463)" fill="#A1A1A1"/>
<rect width="4.82692" height="4.73585" transform="matrix(-4.28866e-08 -1 -1 4.4552e-08 189.43 67.5781)" fill="#A1A1A1"/>
<rect x="89.9766" y="86.8848" width="4.82692" height="4.73585" transform="rotate(90 89.9766 86.8848)" fill="#A1A1A1"/>
<rect x="85.2422" y="154.463" width="4.73585" height="4.82692" fill="#A1A1A1"/>
<rect x="89.9766" y="149.635" width="4.73585" height="4.82692" fill="#A1A1A1"/>
<rect x="156.281" y="149.635" width="4.82692" height="4.73585" transform="rotate(-90 156.281 149.635)" fill="#A1A1A1"/>
<rect width="4.82692" height="4.73585" transform="matrix(-4.28866e-08 -1 -1 4.4552e-08 194.164 62.752)" fill="#A1A1A1"/>
<rect x="94.7188" y="91.7129" width="4.82692" height="4.73585" transform="rotate(90 94.7188 91.7129)" fill="#A1A1A1"/>
<rect width="4.82692" height="4.73585" transform="matrix(-4.28866e-08 -1 -1 4.4552e-08 198.906 57.9238)" fill="#A1A1A1"/>
<rect x="99.4531" y="96.5391" width="4.82692" height="4.73585" transform="rotate(90 99.4531 96.5391)" fill="#A1A1A1"/>
<rect x="104.188" y="101.367" width="4.82692" height="4.73585" transform="rotate(90 104.188 101.367)" fill="#A1A1A1"/>
<rect x="151.547" y="144.809" width="4.82692" height="4.73585" transform="rotate(-90 151.547 144.809)" fill="#A1A1A1"/>
<rect width="4.82692" height="4.73585" transform="matrix(4.46371e-08 -1 -1 -4.28049e-08 33.1484 4.82812)" fill="#A1A1A1"/>
<rect width="4.82692" height="4.73585" transform="matrix(4.46371e-08 -1 -1 -4.28049e-08 132.602 4.82812)" fill="#A1A1A1"/>
<rect width="4.82692" height="4.73585" transform="matrix(4.46371e-08 -1 -1 -4.28049e-08 227.32 4.82812)" fill="#A1A1A1"/>
<rect width="4.82692" height="4.73585" transform="matrix(4.46371e-08 -1 -1 -4.28049e-08 227.32 96.5391)" fill="#A1A1A1"/>
<rect width="4.82692" height="4.73585" transform="matrix(4.46371e-08 -1 -1 -4.28049e-08 132.602 96.5391)" fill="#A1A1A1"/>
<rect width="4.82692" height="4.73585" transform="matrix(4.46371e-08 -1 -1 -4.28049e-08 33.1484 96.5391)" fill="#A1A1A1"/>
<rect width="4.82692" height="4.73585" transform="matrix(4.46371e-08 -1 -1 -4.28049e-08 33.1484 197.904)" fill="#A1A1A1"/>
<rect width="4.82692" height="4.73585" transform="matrix(4.46371e-08 -1 -1 -4.28049e-08 132.602 197.904)" fill="#A1A1A1"/>
<rect width="4.82692" height="4.73585" transform="matrix(4.46371e-08 -1 -1 -4.28049e-08 227.32 197.904)" fill="#A1A1A1"/>
<rect width="4.82692" height="4.73585" transform="matrix(4.46371e-08 -1 -1 -4.28049e-08 28.4141 4.82812)" fill="#A1A1A1"/>
<rect width="4.82692" height="4.73585" transform="matrix(4.46371e-08 -1 -1 -4.28049e-08 127.867 4.82812)" fill="#A1A1A1"/>
<rect width="4.82692" height="4.73585" transform="matrix(4.46371e-08 -1 -1 -4.28049e-08 222.586 4.82812)" fill="#A1A1A1"/>
<rect width="4.82692" height="4.73585" transform="matrix(4.46371e-08 -1 -1 -4.28049e-08 222.586 96.5391)" fill="#A1A1A1"/>
<rect width="4.82692" height="4.73585" transform="matrix(4.46371e-08 -1 -1 -4.28049e-08 127.867 96.5391)" fill="#A1A1A1"/>
<rect width="4.82692" height="4.73585" transform="matrix(4.46371e-08 -1 -1 -4.28049e-08 28.4141 96.5391)" fill="#A1A1A1"/>
<rect width="4.82692" height="4.73585" transform="matrix(4.46371e-08 -1 -1 -4.28049e-08 28.4141 197.904)" fill="#A1A1A1"/>
<rect width="4.82692" height="4.73585" transform="matrix(4.46371e-08 -1 -1 -4.28049e-08 127.867 197.904)" fill="#A1A1A1"/>
<rect width="4.82692" height="4.73585" transform="matrix(4.46371e-08 -1 -1 -4.28049e-08 222.586 197.904)" fill="#A1A1A1"/>
<rect width="4.82692" height="4.73585" transform="matrix(4.46371e-08 -1 -1 -4.28049e-08 23.6797 4.82812)" fill="#A1A1A1"/>
<rect width="4.82692" height="4.73585" transform="matrix(4.46371e-08 -1 -1 -4.28049e-08 123.133 4.82812)" fill="#A1A1A1"/>
<rect width="4.82692" height="4.73585" transform="matrix(4.46371e-08 -1 -1 -4.28049e-08 217.844 4.82812)" fill="#A1A1A1"/>
<rect width="4.82692" height="4.73585" transform="matrix(4.46371e-08 -1 -1 -4.28049e-08 217.844 96.5391)" fill="#A1A1A1"/>
<rect width="4.82692" height="4.73585" transform="matrix(4.46371e-08 -1 -1 -4.28049e-08 123.133 96.5391)" fill="#A1A1A1"/>
<rect width="4.82692" height="4.73585" transform="matrix(4.46371e-08 -1 -1 -4.28049e-08 23.6797 96.5391)" fill="#A1A1A1"/>
<rect width="4.82692" height="4.73585" transform="matrix(4.46371e-08 -1 -1 -4.28049e-08 23.6797 197.904)" fill="#A1A1A1"/>
<rect width="4.82692" height="4.73585" transform="matrix(4.46371e-08 -1 -1 -4.28049e-08 123.133 197.904)" fill="#A1A1A1"/>
<rect width="4.82692" height="4.73585" transform="matrix(4.46371e-08 -1 -1 -4.28049e-08 217.844 197.904)" fill="#A1A1A1"/>
<rect width="4.82692" height="4.73585" transform="matrix(4.46371e-08 -1 -1 -4.28049e-08 18.9453 9.6543)" fill="#A1A1A1"/>
<rect width="4.82692" height="4.73585" transform="matrix(4.46371e-08 -1 -1 -4.28049e-08 118.391 9.6543)" fill="#A1A1A1"/>
<rect width="4.82692" height="4.73585" transform="matrix(4.46371e-08 -1 -1 -4.28049e-08 213.109 9.6543)" fill="#A1A1A1"/>
<rect width="4.82692" height="4.73585" transform="matrix(4.46371e-08 -1 -1 -4.28049e-08 213.109 101.367)" fill="#A1A1A1"/>
<rect width="4.82692" height="4.73585" transform="matrix(4.46371e-08 -1 -1 -4.28049e-08 118.391 101.367)" fill="#A1A1A1"/>
<rect width="4.82692" height="4.73585" transform="matrix(4.46371e-08 -1 -1 -4.28049e-08 18.9453 101.367)" fill="#A1A1A1"/>
<rect width="4.82692" height="4.73585" transform="matrix(4.46371e-08 -1 -1 -4.28049e-08 18.9453 202.732)" fill="#A1A1A1"/>
<rect width="4.82692" height="4.73585" transform="matrix(4.46371e-08 -1 -1 -4.28049e-08 118.391 202.732)" fill="#A1A1A1"/>
<rect width="4.82692" height="4.73585" transform="matrix(4.46371e-08 -1 -1 -4.28049e-08 213.109 202.732)" fill="#A1A1A1"/>
<rect width="4.82692" height="4.73585" transform="matrix(4.46371e-08 -1 -1 -4.28049e-08 14.2031 9.6543)" fill="#A1A1A1"/>
<rect width="4.82692" height="4.73585" transform="matrix(4.46371e-08 -1 -1 -4.28049e-08 113.656 9.6543)" fill="#A1A1A1"/>
<rect width="4.82692" height="4.73585" transform="matrix(4.46371e-08 -1 -1 -4.28049e-08 208.375 9.6543)" fill="#A1A1A1"/>
<rect width="4.82692" height="4.73585" transform="matrix(4.46371e-08 -1 -1 -4.28049e-08 208.375 101.367)" fill="#A1A1A1"/>
<rect width="4.82692" height="4.73585" transform="matrix(4.46371e-08 -1 -1 -4.28049e-08 113.656 101.367)" fill="#A1A1A1"/>
<rect width="4.82692" height="4.73585" transform="matrix(4.46371e-08 -1 -1 -4.28049e-08 14.2031 101.367)" fill="#A1A1A1"/>
<rect width="4.82692" height="4.73585" transform="matrix(4.46371e-08 -1 -1 -4.28049e-08 14.2031 202.732)" fill="#A1A1A1"/>
<rect width="4.82692" height="4.73585" transform="matrix(4.46371e-08 -1 -1 -4.28049e-08 113.656 202.732)" fill="#A1A1A1"/>
<rect width="4.82692" height="4.73585" transform="matrix(4.46371e-08 -1 -1 -4.28049e-08 208.375 202.732)" fill="#A1A1A1"/>
<rect width="4.82692" height="4.73585" transform="matrix(4.46371e-08 -1 -1 -4.28049e-08 14.2031 14.4824)" fill="#A1A1A1"/>
<rect width="4.82692" height="4.73585" transform="matrix(4.46371e-08 -1 -1 -4.28049e-08 113.656 14.4824)" fill="#A1A1A1"/>
<rect width="4.82692" height="4.73585" transform="matrix(4.46371e-08 -1 -1 -4.28049e-08 208.375 14.4824)" fill="#A1A1A1"/>
<rect width="4.82692" height="4.73585" transform="matrix(4.46371e-08 -1 -1 -4.28049e-08 208.375 106.193)" fill="#A1A1A1"/>
<rect width="4.82692" height="4.73585" transform="matrix(4.46371e-08 -1 -1 -4.28049e-08 113.656 106.193)" fill="#A1A1A1"/>
<rect width="4.82692" height="4.73585" transform="matrix(4.46371e-08 -1 -1 -4.28049e-08 14.2031 106.193)" fill="#A1A1A1"/>
<rect width="4.82692" height="4.73585" transform="matrix(4.46371e-08 -1 -1 -4.28049e-08 14.2031 207.559)" fill="#A1A1A1"/>
<rect width="4.82692" height="4.73585" transform="matrix(4.46371e-08 -1 -1 -4.28049e-08 113.656 207.559)" fill="#A1A1A1"/>
<rect width="4.82692" height="4.73585" transform="matrix(4.46371e-08 -1 -1 -4.28049e-08 208.375 207.559)" fill="#A1A1A1"/>
<rect width="4.82692" height="4.73585" transform="matrix(4.46371e-08 -1 -1 -4.28049e-08 9.46875 14.4824)" fill="#A1A1A1"/>
<rect width="4.82692" height="4.73585" transform="matrix(4.46371e-08 -1 -1 -4.28049e-08 108.922 14.4824)" fill="#A1A1A1"/>
<rect width="4.82692" height="4.73585" transform="matrix(4.46371e-08 -1 -1 -4.28049e-08 203.641 14.4824)" fill="#A1A1A1"/>
<rect width="4.82692" height="4.73585" transform="matrix(4.46371e-08 -1 -1 -4.28049e-08 203.641 106.193)" fill="#A1A1A1"/>
<rect width="4.82692" height="4.73585" transform="matrix(4.46371e-08 -1 -1 -4.28049e-08 108.922 106.193)" fill="#A1A1A1"/>
<rect width="4.82692" height="4.73585" transform="matrix(4.46371e-08 -1 -1 -4.28049e-08 9.46875 106.193)" fill="#A1A1A1"/>
<rect width="4.82692" height="4.73585" transform="matrix(4.46371e-08 -1 -1 -4.28049e-08 9.46875 207.559)" fill="#A1A1A1"/>
<rect width="4.82692" height="4.73585" transform="matrix(4.46371e-08 -1 -1 -4.28049e-08 108.922 207.559)" fill="#A1A1A1"/>
<rect width="4.82692" height="4.73585" transform="matrix(4.46371e-08 -1 -1 -4.28049e-08 203.641 207.559)" fill="#A1A1A1"/>
<rect width="4.82692" height="4.73585" transform="matrix(4.46371e-08 -1 -1 -4.28049e-08 9.46875 19.3086)" fill="#A1A1A1"/>
<rect width="4.82692" height="4.73585" transform="matrix(4.46371e-08 -1 -1 -4.28049e-08 108.922 19.3086)" fill="#A1A1A1"/>
<rect width="4.82692" height="4.73585" transform="matrix(4.46371e-08 -1 -1 -4.28049e-08 203.641 19.3086)" fill="#A1A1A1"/>
<rect width="4.82692" height="4.73585" transform="matrix(4.46371e-08 -1 -1 -4.28049e-08 203.641 111.02)" fill="#A1A1A1"/>
<rect width="4.82692" height="4.73585" transform="matrix(4.46371e-08 -1 -1 -4.28049e-08 108.922 111.02)" fill="#A1A1A1"/>
<rect width="4.82692" height="4.73585" transform="matrix(4.46371e-08 -1 -1 -4.28049e-08 9.46875 111.02)" fill="#A1A1A1"/>
<rect width="4.82692" height="4.73585" transform="matrix(4.46371e-08 -1 -1 -4.28049e-08 9.46875 212.385)" fill="#A1A1A1"/>
<rect width="4.82692" height="4.73585" transform="matrix(4.46371e-08 -1 -1 -4.28049e-08 108.922 212.385)" fill="#A1A1A1"/>
<rect width="4.82692" height="4.73585" transform="matrix(4.46371e-08 -1 -1 -4.28049e-08 203.641 212.385)" fill="#A1A1A1"/>
<rect width="4.82692" height="4.73585" transform="matrix(4.46371e-08 -1 -1 -4.28049e-08 4.73438 19.3086)" fill="#A1A1A1"/>
<rect width="4.82692" height="4.73585" transform="matrix(4.46371e-08 -1 -1 -4.28049e-08 104.188 19.3086)" fill="#A1A1A1"/>
<rect width="4.82692" height="4.73585" transform="matrix(4.46371e-08 -1 -1 -4.28049e-08 198.906 19.3086)" fill="#A1A1A1"/>
<rect width="4.82692" height="4.73585" transform="matrix(4.46371e-08 -1 -1 -4.28049e-08 198.906 111.02)" fill="#A1A1A1"/>
<rect width="4.82692" height="4.73585" transform="matrix(4.46371e-08 -1 -1 -4.28049e-08 104.188 111.02)" fill="#A1A1A1"/>
<rect width="4.82692" height="4.73585" transform="matrix(4.46371e-08 -1 -1 -4.28049e-08 4.73438 111.02)" fill="#A1A1A1"/>
<rect width="4.82692" height="4.73585" transform="matrix(4.46371e-08 -1 -1 -4.28049e-08 4.73438 212.385)" fill="#A1A1A1"/>
<rect width="4.82692" height="4.73585" transform="matrix(4.46371e-08 -1 -1 -4.28049e-08 104.188 212.385)" fill="#A1A1A1"/>
<rect width="4.82692" height="4.73585" transform="matrix(4.46371e-08 -1 -1 -4.28049e-08 198.906 212.385)" fill="#A1A1A1"/>
<rect width="4.82692" height="4.73585" transform="matrix(4.46371e-08 -1 -1 -4.28049e-08 4.73438 24.1348)" fill="#A1A1A1"/>
<rect width="4.82692" height="4.73585" transform="matrix(4.46371e-08 -1 -1 -4.28049e-08 104.188 24.1348)" fill="#A1A1A1"/>
<rect width="4.82692" height="4.73585" transform="matrix(4.46371e-08 -1 -1 -4.28049e-08 198.906 24.1348)" fill="#A1A1A1"/>
<rect width="4.82692" height="4.73585" transform="matrix(4.46371e-08 -1 -1 -4.28049e-08 198.906 115.848)" fill="#A1A1A1"/>
<rect width="4.82692" height="4.73585" transform="matrix(4.46371e-08 -1 -1 -4.28049e-08 104.188 115.848)" fill="#A1A1A1"/>
<rect width="4.82692" height="4.73585" transform="matrix(4.46371e-08 -1 -1 -4.28049e-08 4.73438 115.848)" fill="#A1A1A1"/>
<rect width="4.82692" height="4.73585" transform="matrix(4.46371e-08 -1 -1 -4.28049e-08 4.73438 217.213)" fill="#A1A1A1"/>
<rect width="4.82692" height="4.73585" transform="matrix(4.46371e-08 -1 -1 -4.28049e-08 104.188 217.213)" fill="#A1A1A1"/>
<rect width="4.82692" height="4.73585" transform="matrix(4.46371e-08 -1 -1 -4.28049e-08 198.906 217.213)" fill="#A1A1A1"/>
<rect width="4.82692" height="4.73585" transform="matrix(4.46371e-08 -1 -1 -4.28049e-08 4.73438 28.9629)" fill="#A1A1A1"/>
<rect width="4.82692" height="4.73585" transform="matrix(4.46371e-08 -1 -1 -4.28049e-08 104.188 28.9629)" fill="#A1A1A1"/>
<rect width="4.82692" height="4.73585" transform="matrix(4.46371e-08 -1 -1 -4.28049e-08 198.906 28.9629)" fill="#A1A1A1"/>
<rect width="4.82692" height="4.73585" transform="matrix(4.46371e-08 -1 -1 -4.28049e-08 198.906 120.674)" fill="#A1A1A1"/>
<rect width="4.82692" height="4.73585" transform="matrix(4.46371e-08 -1 -1 -4.28049e-08 104.188 120.674)" fill="#A1A1A1"/>
<rect width="4.82692" height="4.73585" transform="matrix(4.46371e-08 -1 -1 -4.28049e-08 4.73438 120.674)" fill="#A1A1A1"/>
<rect width="4.82692" height="4.73585" transform="matrix(4.46371e-08 -1 -1 -4.28049e-08 4.73438 222.039)" fill="#A1A1A1"/>
<rect width="4.82692" height="4.73585" transform="matrix(4.46371e-08 -1 -1 -4.28049e-08 104.188 222.039)" fill="#A1A1A1"/>
<rect width="4.82692" height="4.73585" transform="matrix(4.46371e-08 -1 -1 -4.28049e-08 198.906 222.039)" fill="#A1A1A1"/>
<rect width="4.82692" height="4.73585" transform="matrix(4.46371e-08 -1 -1 -4.28049e-08 4.73438 33.7891)" fill="#A1A1A1"/>
<rect width="4.82692" height="4.73585" transform="matrix(4.46371e-08 -1 -1 -4.28049e-08 104.188 33.7891)" fill="#A1A1A1"/>
<rect width="4.82692" height="4.73585" transform="matrix(4.46371e-08 -1 -1 -4.28049e-08 198.906 33.7891)" fill="#A1A1A1"/>
<rect width="4.82692" height="4.73585" transform="matrix(4.46371e-08 -1 -1 -4.28049e-08 198.906 125.502)" fill="#A1A1A1"/>
<rect width="4.82692" height="4.73585" transform="matrix(4.46371e-08 -1 -1 -4.28049e-08 104.188 125.502)" fill="#A1A1A1"/>
<rect width="4.82692" height="4.73585" transform="matrix(4.46371e-08 -1 -1 -4.28049e-08 4.73438 125.502)" fill="#A1A1A1"/>
<rect width="4.82692" height="4.73585" transform="matrix(4.46371e-08 -1 -1 -4.28049e-08 4.73438 226.867)" fill="#A1A1A1"/>
<rect width="4.82692" height="4.73585" transform="matrix(4.46371e-08 -1 -1 -4.28049e-08 104.188 226.867)" fill="#A1A1A1"/>
<rect width="4.82692" height="4.73585" transform="matrix(4.46371e-08 -1 -1 -4.28049e-08 198.906 226.867)" fill="#A1A1A1"/>
<rect width="4.82692" height="4.73585" transform="matrix(4.46371e-08 -1 -1 -4.28049e-08 4.73438 38.6172)" fill="#A1A1A1"/>
<rect width="4.82692" height="4.73585" transform="matrix(4.46371e-08 -1 -1 -4.28049e-08 104.188 38.6172)" fill="#A1A1A1"/>
<rect width="4.82692" height="4.73585" transform="matrix(4.46371e-08 -1 -1 -4.28049e-08 198.906 38.6172)" fill="#A1A1A1"/>
<rect width="4.82692" height="4.73585" transform="matrix(4.46371e-08 -1 -1 -4.28049e-08 198.906 130.328)" fill="#A1A1A1"/>
<rect width="4.82692" height="4.73585" transform="matrix(4.46371e-08 -1 -1 -4.28049e-08 104.188 130.328)" fill="#A1A1A1"/>
<rect width="4.82692" height="4.73585" transform="matrix(4.46371e-08 -1 -1 -4.28049e-08 4.73438 130.328)" fill="#A1A1A1"/>
<rect width="4.82692" height="4.73585" transform="matrix(4.46371e-08 -1 -1 -4.28049e-08 4.73438 231.693)" fill="#A1A1A1"/>
<rect width="4.82692" height="4.73585" transform="matrix(4.46371e-08 -1 -1 -4.28049e-08 104.188 231.693)" fill="#A1A1A1"/>
<rect width="4.82692" height="4.73585" transform="matrix(4.46371e-08 -1 -1 -4.28049e-08 198.906 231.693)" fill="#A1A1A1"/>
<rect width="4.82692" height="4.73585" transform="matrix(4.46371e-08 -1 -1 -4.28049e-08 9.46875 43.4434)" fill="#A1A1A1"/>
<rect width="4.82692" height="4.73585" transform="matrix(4.46371e-08 -1 -1 -4.28049e-08 108.922 43.4434)" fill="#A1A1A1"/>
<rect width="4.82692" height="4.73585" transform="matrix(4.46371e-08 -1 -1 -4.28049e-08 203.641 43.4434)" fill="#A1A1A1"/>
<rect width="4.82692" height="4.73585" transform="matrix(4.46371e-08 -1 -1 -4.28049e-08 203.641 135.154)" fill="#A1A1A1"/>
<rect width="4.82692" height="4.73585" transform="matrix(4.46371e-08 -1 -1 -4.28049e-08 108.922 135.154)" fill="#A1A1A1"/>
<rect width="4.82692" height="4.73585" transform="matrix(4.46371e-08 -1 -1 -4.28049e-08 9.46875 135.154)" fill="#A1A1A1"/>
<rect width="4.82692" height="4.73585" transform="matrix(4.46371e-08 -1 -1 -4.28049e-08 9.46875 236.52)" fill="#A1A1A1"/>
<rect width="4.82692" height="4.73585" transform="matrix(4.46371e-08 -1 -1 -4.28049e-08 108.922 236.52)" fill="#A1A1A1"/>
<rect width="4.82692" height="4.73585" transform="matrix(4.46371e-08 -1 -1 -4.28049e-08 203.641 236.52)" fill="#A1A1A1"/>
<rect width="4.82692" height="4.73585" transform="matrix(4.46371e-08 -1 -1 -4.28049e-08 9.46875 48.2695)" fill="#A1A1A1"/>
<rect width="4.82692" height="4.73585" transform="matrix(4.46371e-08 -1 -1 -4.28049e-08 108.922 48.2695)" fill="#A1A1A1"/>
<rect width="4.82692" height="4.73585" transform="matrix(4.46371e-08 -1 -1 -4.28049e-08 203.641 48.2695)" fill="#A1A1A1"/>
<rect width="4.82692" height="4.73585" transform="matrix(4.46371e-08 -1 -1 -4.28049e-08 203.641 139.982)" fill="#A1A1A1"/>
<rect width="4.82692" height="4.73585" transform="matrix(4.46371e-08 -1 -1 -4.28049e-08 108.922 139.982)" fill="#A1A1A1"/>
<rect width="4.82692" height="4.73585" transform="matrix(4.46371e-08 -1 -1 -4.28049e-08 9.46875 139.982)" fill="#A1A1A1"/>
<rect width="4.82692" height="4.73585" transform="matrix(4.46371e-08 -1 -1 -4.28049e-08 9.46875 241.348)" fill="#A1A1A1"/>
<rect width="4.82692" height="4.73585" transform="matrix(4.46371e-08 -1 -1 -4.28049e-08 108.922 241.348)" fill="#A1A1A1"/>
<rect width="4.82692" height="4.73585" transform="matrix(4.46371e-08 -1 -1 -4.28049e-08 203.641 241.348)" fill="#A1A1A1"/>
<rect width="4.82692" height="4.73585" transform="matrix(4.46371e-08 -1 -1 -4.28049e-08 14.2031 48.2695)" fill="#A1A1A1"/>
<rect width="4.82692" height="4.73585" transform="matrix(4.46371e-08 -1 -1 -4.28049e-08 113.656 48.2695)" fill="#A1A1A1"/>
<rect width="4.82692" height="4.73585" transform="matrix(4.46371e-08 -1 -1 -4.28049e-08 208.375 48.2695)" fill="#A1A1A1"/>
<rect width="4.82692" height="4.73585" transform="matrix(4.46371e-08 -1 -1 -4.28049e-08 208.375 139.982)" fill="#A1A1A1"/>
<rect width="4.82692" height="4.73585" transform="matrix(4.46371e-08 -1 -1 -4.28049e-08 113.656 139.982)" fill="#A1A1A1"/>
<rect width="4.82692" height="4.73585" transform="matrix(4.46371e-08 -1 -1 -4.28049e-08 14.2031 139.982)" fill="#A1A1A1"/>
<rect width="4.82692" height="4.73585" transform="matrix(4.46371e-08 -1 -1 -4.28049e-08 14.2031 241.348)" fill="#A1A1A1"/>
<rect width="4.82692" height="4.73585" transform="matrix(4.46371e-08 -1 -1 -4.28049e-08 113.656 241.348)" fill="#A1A1A1"/>
<rect width="4.82692" height="4.73585" transform="matrix(4.46371e-08 -1 -1 -4.28049e-08 208.375 241.348)" fill="#A1A1A1"/>
<rect width="4.82692" height="4.73585" transform="matrix(4.46371e-08 -1 -1 -4.28049e-08 14.2031 53.0977)" fill="#A1A1A1"/>
<rect width="4.82692" height="4.73585" transform="matrix(4.46371e-08 -1 -1 -4.28049e-08 113.656 53.0977)" fill="#A1A1A1"/>
<rect width="4.82692" height="4.73585" transform="matrix(4.46371e-08 -1 -1 -4.28049e-08 208.375 53.0977)" fill="#A1A1A1"/>
<rect width="4.82692" height="4.73585" transform="matrix(4.46371e-08 -1 -1 -4.28049e-08 208.375 144.809)" fill="#A1A1A1"/>
<rect width="4.82692" height="4.73585" transform="matrix(4.46371e-08 -1 -1 -4.28049e-08 113.656 144.809)" fill="#A1A1A1"/>
<rect width="4.82692" height="4.73585" transform="matrix(4.46371e-08 -1 -1 -4.28049e-08 14.2031 144.809)" fill="#A1A1A1"/>
<rect width="4.82692" height="4.73585" transform="matrix(4.46371e-08 -1 -1 -4.28049e-08 14.2031 246.174)" fill="#A1A1A1"/>
<rect width="4.82692" height="4.73585" transform="matrix(4.46371e-08 -1 -1 -4.28049e-08 113.656 246.174)" fill="#A1A1A1"/>
<rect width="4.82692" height="4.73585" transform="matrix(4.46371e-08 -1 -1 -4.28049e-08 208.375 246.174)" fill="#A1A1A1"/>
<rect width="4.82692" height="4.73585" transform="matrix(4.46371e-08 -1 -1 -4.28049e-08 18.9453 53.0977)" fill="#A1A1A1"/>
<rect width="4.82692" height="4.73585" transform="matrix(4.46371e-08 -1 -1 -4.28049e-08 118.391 53.0977)" fill="#A1A1A1"/>
<rect width="4.82692" height="4.73585" transform="matrix(4.46371e-08 -1 -1 -4.28049e-08 213.109 53.0977)" fill="#A1A1A1"/>
<rect width="4.82692" height="4.73585" transform="matrix(4.46371e-08 -1 -1 -4.28049e-08 213.109 144.809)" fill="#A1A1A1"/>
<rect width="4.82692" height="4.73585" transform="matrix(4.46371e-08 -1 -1 -4.28049e-08 118.391 144.809)" fill="#A1A1A1"/>
<rect width="4.82692" height="4.73585" transform="matrix(4.46371e-08 -1 -1 -4.28049e-08 18.9453 144.809)" fill="#A1A1A1"/>
<rect width="4.82692" height="4.73585" transform="matrix(4.46371e-08 -1 -1 -4.28049e-08 18.9453 246.174)" fill="#A1A1A1"/>
<rect width="4.82692" height="4.73585" transform="matrix(4.46371e-08 -1 -1 -4.28049e-08 118.391 246.174)" fill="#A1A1A1"/>
<rect width="4.82692" height="4.73585" transform="matrix(4.46371e-08 -1 -1 -4.28049e-08 213.109 246.174)" fill="#A1A1A1"/>
<rect width="4.82692" height="4.73585" transform="matrix(4.46371e-08 -1 -1 -4.28049e-08 23.6797 57.9238)" fill="#A1A1A1"/>
<rect width="4.82692" height="4.73585" transform="matrix(4.46371e-08 -1 -1 -4.28049e-08 123.133 57.9238)" fill="#A1A1A1"/>
<rect width="4.82692" height="4.73585" transform="matrix(4.46371e-08 -1 -1 -4.28049e-08 217.844 57.9238)" fill="#A1A1A1"/>
<rect width="4.82692" height="4.73585" transform="matrix(4.46371e-08 -1 -1 -4.28049e-08 217.844 149.635)" fill="#A1A1A1"/>
<rect width="4.82692" height="4.73585" transform="matrix(4.46371e-08 -1 -1 -4.28049e-08 123.133 149.635)" fill="#A1A1A1"/>
<rect width="4.82692" height="4.73585" transform="matrix(4.46371e-08 -1 -1 -4.28049e-08 23.6797 149.635)" fill="#A1A1A1"/>
<rect width="4.82692" height="4.73585" transform="matrix(4.46371e-08 -1 -1 -4.28049e-08 23.6797 251.002)" fill="#A1A1A1"/>
<rect width="4.82692" height="4.73585" transform="matrix(4.46371e-08 -1 -1 -4.28049e-08 123.133 251.002)" fill="#A1A1A1"/>
<rect width="4.82692" height="4.73585" transform="matrix(4.46371e-08 -1 -1 -4.28049e-08 217.844 251.002)" fill="#A1A1A1"/>
<rect width="4.82692" height="4.73585" transform="matrix(4.46371e-08 -1 -1 -4.28049e-08 28.4141 57.9238)" fill="#A1A1A1"/>
<rect width="4.82692" height="4.73585" transform="matrix(4.46371e-08 -1 -1 -4.28049e-08 127.867 57.9238)" fill="#A1A1A1"/>
<rect width="4.82692" height="4.73585" transform="matrix(4.46371e-08 -1 -1 -4.28049e-08 222.586 57.9238)" fill="#A1A1A1"/>
<rect width="4.82692" height="4.73585" transform="matrix(4.46371e-08 -1 -1 -4.28049e-08 222.586 149.635)" fill="#A1A1A1"/>
<rect width="4.82692" height="4.73585" transform="matrix(4.46371e-08 -1 -1 -4.28049e-08 127.867 149.635)" fill="#A1A1A1"/>
<rect width="4.82692" height="4.73585" transform="matrix(4.46371e-08 -1 -1 -4.28049e-08 28.4141 149.635)" fill="#A1A1A1"/>
<rect width="4.82692" height="4.73585" transform="matrix(4.46371e-08 -1 -1 -4.28049e-08 28.4141 251.002)" fill="#A1A1A1"/>
<rect width="4.82692" height="4.73585" transform="matrix(4.46371e-08 -1 -1 -4.28049e-08 127.867 251.002)" fill="#A1A1A1"/>
<rect width="4.82692" height="4.73585" transform="matrix(4.46371e-08 -1 -1 -4.28049e-08 222.586 251.002)" fill="#A1A1A1"/>
<rect width="4.82692" height="4.73585" transform="matrix(4.46371e-08 -1 -1 -4.28049e-08 33.1484 57.9238)" fill="#A1A1A1"/>
<rect width="4.82692" height="4.73585" transform="matrix(4.46371e-08 -1 -1 -4.28049e-08 132.602 57.9238)" fill="#A1A1A1"/>
<rect width="4.82692" height="4.73585" transform="matrix(4.46371e-08 -1 -1 -4.28049e-08 227.32 57.9238)" fill="#A1A1A1"/>
<rect width="4.82692" height="4.73585" transform="matrix(4.46371e-08 -1 -1 -4.28049e-08 227.32 149.635)" fill="#A1A1A1"/>
<rect width="4.82692" height="4.73585" transform="matrix(4.46371e-08 -1 -1 -4.28049e-08 132.602 149.635)" fill="#A1A1A1"/>
<rect width="4.82692" height="4.73585" transform="matrix(4.46371e-08 -1 -1 -4.28049e-08 33.1484 149.635)" fill="#A1A1A1"/>
<rect width="4.82692" height="4.73585" transform="matrix(4.46371e-08 -1 -1 -4.28049e-08 33.1484 251.002)" fill="#A1A1A1"/>
<rect width="4.82692" height="4.73585" transform="matrix(4.46371e-08 -1 -1 -4.28049e-08 132.602 251.002)" fill="#A1A1A1"/>
<rect width="4.82692" height="4.73585" transform="matrix(4.46371e-08 -1 -1 -4.28049e-08 227.32 251.002)" fill="#A1A1A1"/>
<rect width="4.82692" height="4.73585" transform="matrix(4.46371e-08 -1 -1 -4.28049e-08 37.8828 57.9238)" fill="#A1A1A1"/>
<rect width="4.82692" height="4.73585" transform="matrix(4.46371e-08 -1 -1 -4.28049e-08 137.336 57.9238)" fill="#A1A1A1"/>
<rect width="4.82692" height="4.73585" transform="matrix(4.46371e-08 -1 -1 -4.28049e-08 232.055 57.9238)" fill="#A1A1A1"/>
<rect width="4.82692" height="4.73585" transform="matrix(4.46371e-08 -1 -1 -4.28049e-08 232.055 149.635)" fill="#A1A1A1"/>
<rect width="4.82692" height="4.73585" transform="matrix(4.46371e-08 -1 -1 -4.28049e-08 137.336 149.635)" fill="#A1A1A1"/>
<rect width="4.82692" height="4.73585" transform="matrix(4.46371e-08 -1 -1 -4.28049e-08 37.8828 149.635)" fill="#A1A1A1"/>
<rect width="4.82692" height="4.73585" transform="matrix(4.46371e-08 -1 -1 -4.28049e-08 37.8828 251.002)" fill="#A1A1A1"/>
<rect width="4.82692" height="4.73585" transform="matrix(4.46371e-08 -1 -1 -4.28049e-08 137.336 251.002)" fill="#A1A1A1"/>
<rect width="4.82692" height="4.73585" transform="matrix(4.46371e-08 -1 -1 -4.28049e-08 232.055 251.002)" fill="#A1A1A1"/>
<rect width="4.82692" height="4.73585" transform="matrix(4.46371e-08 -1 -1 -4.28049e-08 42.625 53.0977)" fill="#A1A1A1"/>
<rect width="4.82692" height="4.73585" transform="matrix(4.46371e-08 -1 -1 -4.28049e-08 142.07 53.0977)" fill="#A1A1A1"/>
<rect width="4.82692" height="4.73585" transform="matrix(4.46371e-08 -1 -1 -4.28049e-08 236.789 53.0977)" fill="#A1A1A1"/>
<rect width="4.82692" height="4.73585" transform="matrix(4.46371e-08 -1 -1 -4.28049e-08 236.789 144.809)" fill="#A1A1A1"/>
<rect width="4.82692" height="4.73585" transform="matrix(4.46371e-08 -1 -1 -4.28049e-08 142.07 144.809)" fill="#A1A1A1"/>
<rect width="4.82692" height="4.73585" transform="matrix(4.46371e-08 -1 -1 -4.28049e-08 42.625 144.809)" fill="#A1A1A1"/>
<rect width="4.82692" height="4.73585" transform="matrix(4.46371e-08 -1 -1 -4.28049e-08 42.625 246.174)" fill="#A1A1A1"/>
<rect width="4.82692" height="4.73585" transform="matrix(4.46371e-08 -1 -1 -4.28049e-08 142.07 246.174)" fill="#A1A1A1"/>
<rect width="4.82692" height="4.73585" transform="matrix(4.46371e-08 -1 -1 -4.28049e-08 236.789 246.174)" fill="#A1A1A1"/>
<rect width="4.82692" height="4.73585" transform="matrix(4.46371e-08 -1 -1 -4.28049e-08 47.3594 53.0977)" fill="#A1A1A1"/>
<rect width="4.82692" height="4.73585" transform="matrix(4.46371e-08 -1 -1 -4.28049e-08 146.812 53.0977)" fill="#A1A1A1"/>
<rect width="4.82692" height="4.73585" transform="matrix(4.46371e-08 -1 -1 -4.28049e-08 241.523 53.0977)" fill="#A1A1A1"/>
<rect width="4.82692" height="4.73585" transform="matrix(4.46371e-08 -1 -1 -4.28049e-08 241.523 144.809)" fill="#A1A1A1"/>
<rect width="4.82692" height="4.73585" transform="matrix(4.46371e-08 -1 -1 -4.28049e-08 146.812 144.809)" fill="#A1A1A1"/>
<rect width="4.82692" height="4.73585" transform="matrix(4.46371e-08 -1 -1 -4.28049e-08 47.3594 144.809)" fill="#A1A1A1"/>
<rect width="4.82692" height="4.73585" transform="matrix(4.46371e-08 -1 -1 -4.28049e-08 47.3594 246.174)" fill="#A1A1A1"/>
<rect width="4.82692" height="4.73585" transform="matrix(4.46371e-08 -1 -1 -4.28049e-08 146.812 246.174)" fill="#A1A1A1"/>
<rect width="4.82692" height="4.73585" transform="matrix(4.46371e-08 -1 -1 -4.28049e-08 241.523 246.174)" fill="#A1A1A1"/>
<rect width="4.82692" height="4.73585" transform="matrix(4.46371e-08 -1 -1 -4.28049e-08 47.3594 48.2695)" fill="#A1A1A1"/>
<rect width="4.82692" height="4.73585" transform="matrix(4.46371e-08 -1 -1 -4.28049e-08 146.812 48.2695)" fill="#A1A1A1"/>
<rect width="4.82692" height="4.73585" transform="matrix(4.46371e-08 -1 -1 -4.28049e-08 241.523 48.2695)" fill="#A1A1A1"/>
<rect width="4.82692" height="4.73585" transform="matrix(4.46371e-08 -1 -1 -4.28049e-08 241.523 139.982)" fill="#A1A1A1"/>
<rect width="4.82692" height="4.73585" transform="matrix(4.46371e-08 -1 -1 -4.28049e-08 146.812 139.982)" fill="#A1A1A1"/>
<rect width="4.82692" height="4.73585" transform="matrix(4.46371e-08 -1 -1 -4.28049e-08 47.3594 139.982)" fill="#A1A1A1"/>
<rect width="4.82692" height="4.73585" transform="matrix(4.46371e-08 -1 -1 -4.28049e-08 47.3594 241.348)" fill="#A1A1A1"/>
<rect width="4.82692" height="4.73585" transform="matrix(4.46371e-08 -1 -1 -4.28049e-08 146.812 241.348)" fill="#A1A1A1"/>
<rect width="4.82692" height="4.73585" transform="matrix(4.46371e-08 -1 -1 -4.28049e-08 241.523 241.348)" fill="#A1A1A1"/>
<rect width="4.82692" height="4.73585" transform="matrix(4.46371e-08 -1 -1 -4.28049e-08 52.0938 48.2695)" fill="#A1A1A1"/>
<rect width="4.82692" height="4.73585" transform="matrix(4.46371e-08 -1 -1 -4.28049e-08 151.547 48.2695)" fill="#A1A1A1"/>
<rect width="4.82692" height="4.73585" transform="matrix(4.46371e-08 -1 -1 -4.28049e-08 246.266 48.2695)" fill="#A1A1A1"/>
<rect width="4.82692" height="4.73585" transform="matrix(4.46371e-08 -1 -1 -4.28049e-08 246.266 139.982)" fill="#A1A1A1"/>
<rect width="4.82692" height="4.73585" transform="matrix(4.46371e-08 -1 -1 -4.28049e-08 151.547 139.982)" fill="#A1A1A1"/>
<rect width="4.82692" height="4.73585" transform="matrix(4.46371e-08 -1 -1 -4.28049e-08 52.0938 139.982)" fill="#A1A1A1"/>
<rect width="4.82692" height="4.73585" transform="matrix(4.46371e-08 -1 -1 -4.28049e-08 52.0938 241.348)" fill="#A1A1A1"/>
<rect width="4.82692" height="4.73585" transform="matrix(4.46371e-08 -1 -1 -4.28049e-08 151.547 241.348)" fill="#A1A1A1"/>
<rect width="4.82692" height="4.73585" transform="matrix(4.46371e-08 -1 -1 -4.28049e-08 246.266 241.348)" fill="#A1A1A1"/>
<rect width="4.82692" height="4.73585" transform="matrix(4.46371e-08 -1 -1 -4.28049e-08 52.0938 43.4434)" fill="#A1A1A1"/>
<rect width="4.82692" height="4.73585" transform="matrix(4.46371e-08 -1 -1 -4.28049e-08 151.547 43.4434)" fill="#A1A1A1"/>
<rect width="4.82692" height="4.73585" transform="matrix(4.46371e-08 -1 -1 -4.28049e-08 246.266 43.4434)" fill="#A1A1A1"/>
<rect width="4.82692" height="4.73585" transform="matrix(4.46371e-08 -1 -1 -4.28049e-08 246.266 135.154)" fill="#A1A1A1"/>
<rect width="4.82692" height="4.73585" transform="matrix(4.46371e-08 -1 -1 -4.28049e-08 151.547 135.154)" fill="#A1A1A1"/>
<rect width="4.82692" height="4.73585" transform="matrix(4.46371e-08 -1 -1 -4.28049e-08 52.0938 135.154)" fill="#A1A1A1"/>
<rect width="4.82692" height="4.73585" transform="matrix(4.46371e-08 -1 -1 -4.28049e-08 52.0938 236.52)" fill="#A1A1A1"/>
<rect width="4.82692" height="4.73585" transform="matrix(4.46371e-08 -1 -1 -4.28049e-08 151.547 236.52)" fill="#A1A1A1"/>
<rect width="4.82692" height="4.73585" transform="matrix(4.46371e-08 -1 -1 -4.28049e-08 246.266 236.52)" fill="#A1A1A1"/>
<rect width="4.82692" height="4.73585" transform="matrix(4.46371e-08 -1 -1 -4.28049e-08 56.8281 43.4434)" fill="#A1A1A1"/>
<rect width="4.82692" height="4.73585" transform="matrix(4.46371e-08 -1 -1 -4.28049e-08 156.281 43.4434)" fill="#A1A1A1"/>
<rect width="4.82692" height="4.73585" transform="matrix(4.46371e-08 -1 -1 -4.28049e-08 251 43.4434)" fill="#A1A1A1"/>
<rect width="4.82692" height="4.73585" transform="matrix(4.46371e-08 -1 -1 -4.28049e-08 251 135.154)" fill="#A1A1A1"/>
<rect width="4.82692" height="4.73585" transform="matrix(4.46371e-08 -1 -1 -4.28049e-08 156.281 135.154)" fill="#A1A1A1"/>
<rect width="4.82692" height="4.73585" transform="matrix(4.46371e-08 -1 -1 -4.28049e-08 56.8281 135.154)" fill="#A1A1A1"/>
<rect width="4.82692" height="4.73585" transform="matrix(4.46371e-08 -1 -1 -4.28049e-08 56.8281 236.52)" fill="#A1A1A1"/>
<rect width="4.82692" height="4.73585" transform="matrix(4.46371e-08 -1 -1 -4.28049e-08 156.281 236.52)" fill="#A1A1A1"/>
<rect width="4.82692" height="4.73585" transform="matrix(4.46371e-08 -1 -1 -4.28049e-08 251 236.52)" fill="#A1A1A1"/>
<rect width="4.82692" height="4.73585" transform="matrix(4.46371e-08 -1 -1 -4.28049e-08 56.8281 43.4434)" fill="#A1A1A1"/>
<rect width="4.82692" height="4.73585" transform="matrix(4.46371e-08 -1 -1 -4.28049e-08 156.281 43.4434)" fill="#A1A1A1"/>
<rect width="4.82692" height="4.73585" transform="matrix(4.46371e-08 -1 -1 -4.28049e-08 251 43.4434)" fill="#A1A1A1"/>
<rect width="4.82692" height="4.73585" transform="matrix(4.46371e-08 -1 -1 -4.28049e-08 251 135.154)" fill="#A1A1A1"/>
<rect width="4.82692" height="4.73585" transform="matrix(4.46371e-08 -1 -1 -4.28049e-08 156.281 135.154)" fill="#A1A1A1"/>
<rect width="4.82692" height="4.73585" transform="matrix(4.46371e-08 -1 -1 -4.28049e-08 56.8281 135.154)" fill="#A1A1A1"/>
<rect width="4.82692" height="4.73585" transform="matrix(4.46371e-08 -1 -1 -4.28049e-08 56.8281 236.52)" fill="#A1A1A1"/>
<rect width="4.82692" height="4.73585" transform="matrix(4.46371e-08 -1 -1 -4.28049e-08 156.281 236.52)" fill="#A1A1A1"/>
<rect width="4.82692" height="4.73585" transform="matrix(4.46371e-08 -1 -1 -4.28049e-08 251 236.52)" fill="#A1A1A1"/>
<rect width="4.82692" height="4.73585" transform="matrix(4.46371e-08 -1 -1 -4.28049e-08 56.8281 38.6172)" fill="#A1A1A1"/>
<rect width="4.82692" height="4.73585" transform="matrix(4.46371e-08 -1 -1 -4.28049e-08 156.281 38.6172)" fill="#A1A1A1"/>
<rect width="4.82692" height="4.73585" transform="matrix(4.46371e-08 -1 -1 -4.28049e-08 251 38.6172)" fill="#A1A1A1"/>
<rect width="4.82692" height="4.73585" transform="matrix(4.46371e-08 -1 -1 -4.28049e-08 251 130.328)" fill="#A1A1A1"/>
<rect width="4.82692" height="4.73585" transform="matrix(4.46371e-08 -1 -1 -4.28049e-08 156.281 130.328)" fill="#A1A1A1"/>
<rect width="4.82692" height="4.73585" transform="matrix(4.46371e-08 -1 -1 -4.28049e-08 56.8281 130.328)" fill="#A1A1A1"/>
<rect width="4.82692" height="4.73585" transform="matrix(4.46371e-08 -1 -1 -4.28049e-08 56.8281 231.693)" fill="#A1A1A1"/>
<rect width="4.82692" height="4.73585" transform="matrix(4.46371e-08 -1 -1 -4.28049e-08 156.281 231.693)" fill="#A1A1A1"/>
<rect width="4.82692" height="4.73585" transform="matrix(4.46371e-08 -1 -1 -4.28049e-08 251 231.693)" fill="#A1A1A1"/>
<rect width="4.82692" height="4.73585" transform="matrix(4.46371e-08 -1 -1 -4.28049e-08 56.8281 33.7891)" fill="#A1A1A1"/>
<rect width="4.82692" height="4.73585" transform="matrix(4.46371e-08 -1 -1 -4.28049e-08 156.281 33.7891)" fill="#A1A1A1"/>
<rect width="4.82692" height="4.73585" transform="matrix(4.46371e-08 -1 -1 -4.28049e-08 251 33.7891)" fill="#A1A1A1"/>
<rect width="4.82692" height="4.73585" transform="matrix(4.46371e-08 -1 -1 -4.28049e-08 251 125.502)" fill="#A1A1A1"/>
<rect width="4.82692" height="4.73585" transform="matrix(4.46371e-08 -1 -1 -4.28049e-08 156.281 125.502)" fill="#A1A1A1"/>
<rect width="4.82692" height="4.73585" transform="matrix(4.46371e-08 -1 -1 -4.28049e-08 56.8281 125.502)" fill="#A1A1A1"/>
<rect width="4.82692" height="4.73585" transform="matrix(4.46371e-08 -1 -1 -4.28049e-08 56.8281 226.867)" fill="#A1A1A1"/>
<rect width="4.82692" height="4.73585" transform="matrix(4.46371e-08 -1 -1 -4.28049e-08 156.281 226.867)" fill="#A1A1A1"/>
<rect width="4.82692" height="4.73585" transform="matrix(4.46371e-08 -1 -1 -4.28049e-08 251 226.867)" fill="#A1A1A1"/>
<rect width="4.82692" height="4.73585" transform="matrix(4.46371e-08 -1 -1 -4.28049e-08 56.8281 24.1348)" fill="#A1A1A1"/>
<rect width="4.82692" height="4.73585" transform="matrix(4.46371e-08 -1 -1 -4.28049e-08 156.281 24.1348)" fill="#A1A1A1"/>
<rect width="4.82692" height="4.73585" transform="matrix(4.46371e-08 -1 -1 -4.28049e-08 251 24.1348)" fill="#A1A1A1"/>
<rect width="4.82692" height="4.73585" transform="matrix(4.46371e-08 -1 -1 -4.28049e-08 251 115.848)" fill="#A1A1A1"/>
<rect width="4.82692" height="4.73585" transform="matrix(4.46371e-08 -1 -1 -4.28049e-08 156.281 115.848)" fill="#A1A1A1"/>
<rect width="4.82692" height="4.73585" transform="matrix(4.46371e-08 -1 -1 -4.28049e-08 56.8281 115.848)" fill="#A1A1A1"/>
<rect width="4.82692" height="4.73585" transform="matrix(4.46371e-08 -1 -1 -4.28049e-08 56.8281 217.213)" fill="#A1A1A1"/>
<rect width="4.82692" height="4.73585" transform="matrix(4.46371e-08 -1 -1 -4.28049e-08 156.281 217.213)" fill="#A1A1A1"/>
<rect width="4.82692" height="4.73585" transform="matrix(4.46371e-08 -1 -1 -4.28049e-08 251 217.213)" fill="#A1A1A1"/>
<rect width="4.82692" height="4.73585" transform="matrix(4.46371e-08 -1 -1 -4.28049e-08 56.8281 19.3086)" fill="#A1A1A1"/>
<rect width="4.82692" height="4.73585" transform="matrix(4.46371e-08 -1 -1 -4.28049e-08 156.281 19.3086)" fill="#A1A1A1"/>
<rect width="4.82692" height="4.73585" transform="matrix(4.46371e-08 -1 -1 -4.28049e-08 251 19.3086)" fill="#A1A1A1"/>
<rect width="4.82692" height="4.73585" transform="matrix(4.46371e-08 -1 -1 -4.28049e-08 251 111.02)" fill="#A1A1A1"/>
<rect width="4.82692" height="4.73585" transform="matrix(4.46371e-08 -1 -1 -4.28049e-08 156.281 111.02)" fill="#A1A1A1"/>
<rect width="4.82692" height="4.73585" transform="matrix(4.46371e-08 -1 -1 -4.28049e-08 56.8281 111.02)" fill="#A1A1A1"/>
<rect width="4.82692" height="4.73585" transform="matrix(4.46371e-08 -1 -1 -4.28049e-08 56.8281 212.385)" fill="#A1A1A1"/>
<rect width="4.82692" height="4.73585" transform="matrix(4.46371e-08 -1 -1 -4.28049e-08 156.281 212.385)" fill="#A1A1A1"/>
<rect width="4.82692" height="4.73585" transform="matrix(4.46371e-08 -1 -1 -4.28049e-08 251 212.385)" fill="#A1A1A1"/>
<rect width="4.82692" height="4.73585" transform="matrix(4.46371e-08 -1 -1 -4.28049e-08 52.0938 19.3086)" fill="#A1A1A1"/>
<rect width="4.82692" height="4.73585" transform="matrix(4.46371e-08 -1 -1 -4.28049e-08 151.547 19.3086)" fill="#A1A1A1"/>
<rect width="4.82692" height="4.73585" transform="matrix(4.46371e-08 -1 -1 -4.28049e-08 246.266 19.3086)" fill="#A1A1A1"/>
<rect width="4.82692" height="4.73585" transform="matrix(4.46371e-08 -1 -1 -4.28049e-08 246.266 111.02)" fill="#A1A1A1"/>
<rect width="4.82692" height="4.73585" transform="matrix(4.46371e-08 -1 -1 -4.28049e-08 151.547 111.02)" fill="#A1A1A1"/>
<rect width="4.82692" height="4.73585" transform="matrix(4.46371e-08 -1 -1 -4.28049e-08 52.0938 111.02)" fill="#A1A1A1"/>
<rect width="4.82692" height="4.73585" transform="matrix(4.46371e-08 -1 -1 -4.28049e-08 52.0938 212.385)" fill="#A1A1A1"/>
<rect width="4.82692" height="4.73585" transform="matrix(4.46371e-08 -1 -1 -4.28049e-08 151.547 212.385)" fill="#A1A1A1"/>
<rect width="4.82692" height="4.73585" transform="matrix(4.46371e-08 -1 -1 -4.28049e-08 246.266 212.385)" fill="#A1A1A1"/>
<rect width="4.82692" height="4.73585" transform="matrix(4.46371e-08 -1 -1 -4.28049e-08 52.0938 14.4824)" fill="#A1A1A1"/>
<rect width="4.82692" height="4.73585" transform="matrix(4.46371e-08 -1 -1 -4.28049e-08 151.547 14.4824)" fill="#A1A1A1"/>
<rect width="4.82692" height="4.73585" transform="matrix(4.46371e-08 -1 -1 -4.28049e-08 246.266 14.4824)" fill="#A1A1A1"/>
<rect width="4.82692" height="4.73585" transform="matrix(4.46371e-08 -1 -1 -4.28049e-08 246.266 106.193)" fill="#A1A1A1"/>
<rect width="4.82692" height="4.73585" transform="matrix(4.46371e-08 -1 -1 -4.28049e-08 151.547 106.193)" fill="#A1A1A1"/>
<rect width="4.82692" height="4.73585" transform="matrix(4.46371e-08 -1 -1 -4.28049e-08 52.0938 106.193)" fill="#A1A1A1"/>
<rect width="4.82692" height="4.73585" transform="matrix(4.46371e-08 -1 -1 -4.28049e-08 52.0938 207.559)" fill="#A1A1A1"/>
<rect width="4.82692" height="4.73585" transform="matrix(4.46371e-08 -1 -1 -4.28049e-08 151.547 207.559)" fill="#A1A1A1"/>
<rect width="4.82692" height="4.73585" transform="matrix(4.46371e-08 -1 -1 -4.28049e-08 246.266 207.559)" fill="#A1A1A1"/>
<rect width="4.82692" height="4.73585" transform="matrix(4.46371e-08 -1 -1 -4.28049e-08 47.3594 14.4824)" fill="#A1A1A1"/>
<rect width="4.82692" height="4.73585" transform="matrix(4.46371e-08 -1 -1 -4.28049e-08 146.812 14.4824)" fill="#A1A1A1"/>
<rect width="4.82692" height="4.73585" transform="matrix(4.46371e-08 -1 -1 -4.28049e-08 241.523 14.4824)" fill="#A1A1A1"/>
<rect width="4.82692" height="4.73585" transform="matrix(4.46371e-08 -1 -1 -4.28049e-08 241.523 106.193)" fill="#A1A1A1"/>
<rect width="4.82692" height="4.73585" transform="matrix(4.46371e-08 -1 -1 -4.28049e-08 146.812 106.193)" fill="#A1A1A1"/>
<rect width="4.82692" height="4.73585" transform="matrix(4.46371e-08 -1 -1 -4.28049e-08 47.3594 106.193)" fill="#A1A1A1"/>
<rect width="4.82692" height="4.73585" transform="matrix(4.46371e-08 -1 -1 -4.28049e-08 47.3594 207.559)" fill="#A1A1A1"/>
<rect width="4.82692" height="4.73585" transform="matrix(4.46371e-08 -1 -1 -4.28049e-08 146.812 207.559)" fill="#A1A1A1"/>
<rect width="4.82692" height="4.73585" transform="matrix(4.46371e-08 -1 -1 -4.28049e-08 241.523 207.559)" fill="#A1A1A1"/>
<rect width="4.82692" height="4.73585" transform="matrix(4.46371e-08 -1 -1 -4.28049e-08 47.3594 9.6543)" fill="#A1A1A1"/>
<rect width="4.82692" height="4.73585" transform="matrix(4.46371e-08 -1 -1 -4.28049e-08 146.812 9.6543)" fill="#A1A1A1"/>
<rect width="4.82692" height="4.73585" transform="matrix(4.46371e-08 -1 -1 -4.28049e-08 241.523 9.6543)" fill="#A1A1A1"/>
<rect width="4.82692" height="4.73585" transform="matrix(4.46371e-08 -1 -1 -4.28049e-08 241.523 101.367)" fill="#A1A1A1"/>
<rect width="4.82692" height="4.73585" transform="matrix(4.46371e-08 -1 -1 -4.28049e-08 146.812 101.367)" fill="#A1A1A1"/>
<rect width="4.82692" height="4.73585" transform="matrix(4.46371e-08 -1 -1 -4.28049e-08 47.3594 101.367)" fill="#A1A1A1"/>
<rect width="4.82692" height="4.73585" transform="matrix(4.46371e-08 -1 -1 -4.28049e-08 47.3594 202.732)" fill="#A1A1A1"/>
<rect width="4.82692" height="4.73585" transform="matrix(4.46371e-08 -1 -1 -4.28049e-08 146.812 202.732)" fill="#A1A1A1"/>
<rect width="4.82692" height="4.73585" transform="matrix(4.46371e-08 -1 -1 -4.28049e-08 241.523 202.732)" fill="#A1A1A1"/>
<rect width="4.82692" height="4.73585" transform="matrix(4.46371e-08 -1 -1 -4.28049e-08 42.625 9.6543)" fill="#A1A1A1"/>
<rect width="4.82692" height="4.73585" transform="matrix(4.46371e-08 -1 -1 -4.28049e-08 142.07 9.6543)" fill="#A1A1A1"/>
<rect width="4.82692" height="4.73585" transform="matrix(4.46371e-08 -1 -1 -4.28049e-08 236.789 9.6543)" fill="#A1A1A1"/>
<rect width="4.82692" height="4.73585" transform="matrix(4.46371e-08 -1 -1 -4.28049e-08 236.789 101.367)" fill="#A1A1A1"/>
<rect width="4.82692" height="4.73585" transform="matrix(4.46371e-08 -1 -1 -4.28049e-08 142.07 101.367)" fill="#A1A1A1"/>
<rect width="4.82692" height="4.73585" transform="matrix(4.46371e-08 -1 -1 -4.28049e-08 42.625 101.367)" fill="#A1A1A1"/>
<rect width="4.82692" height="4.73585" transform="matrix(4.46371e-08 -1 -1 -4.28049e-08 42.625 202.732)" fill="#A1A1A1"/>
<rect width="4.82692" height="4.73585" transform="matrix(4.46371e-08 -1 -1 -4.28049e-08 142.07 202.732)" fill="#A1A1A1"/>
<rect width="4.82692" height="4.73585" transform="matrix(4.46371e-08 -1 -1 -4.28049e-08 236.789 202.732)" fill="#A1A1A1"/>
<rect width="4.82692" height="4.73585" transform="matrix(4.46371e-08 -1 -1 -4.28049e-08 56.8281 28.9629)" fill="#A1A1A1"/>
<rect width="4.82692" height="4.73585" transform="matrix(4.46371e-08 -1 -1 -4.28049e-08 156.281 28.9629)" fill="#A1A1A1"/>
<rect width="4.82692" height="4.73585" transform="matrix(4.46371e-08 -1 -1 -4.28049e-08 251 28.9629)" fill="#A1A1A1"/>
<rect width="4.82692" height="4.73585" transform="matrix(4.46371e-08 -1 -1 -4.28049e-08 251 120.674)" fill="#A1A1A1"/>
<rect width="4.82692" height="4.73585" transform="matrix(4.46371e-08 -1 -1 -4.28049e-08 156.281 120.674)" fill="#A1A1A1"/>
<rect width="4.82692" height="4.73585" transform="matrix(4.46371e-08 -1 -1 -4.28049e-08 56.8281 120.674)" fill="#A1A1A1"/>
<rect width="4.82692" height="4.73585" transform="matrix(4.46371e-08 -1 -1 -4.28049e-08 56.8281 222.039)" fill="#A1A1A1"/>
<rect width="4.82692" height="4.73585" transform="matrix(4.46371e-08 -1 -1 -4.28049e-08 156.281 222.039)" fill="#A1A1A1"/>
<rect width="4.82692" height="4.73585" transform="matrix(4.46371e-08 -1 -1 -4.28049e-08 251 222.039)" fill="#A1A1A1"/>
<rect width="4.82692" height="4.73585" transform="matrix(4.46371e-08 -1 -1 -4.28049e-08 4.73438 43.4434)" fill="#A1A1A1"/>
<rect width="4.82692" height="4.73585" transform="matrix(4.46371e-08 -1 -1 -4.28049e-08 104.188 43.4434)" fill="#A1A1A1"/>
<rect width="4.82692" height="4.73585" transform="matrix(4.46371e-08 -1 -1 -4.28049e-08 198.906 43.4434)" fill="#A1A1A1"/>
<rect width="4.82692" height="4.73585" transform="matrix(4.46371e-08 -1 -1 -4.28049e-08 198.906 135.154)" fill="#A1A1A1"/>
<rect width="4.82692" height="4.73585" transform="matrix(4.46371e-08 -1 -1 -4.28049e-08 104.188 135.154)" fill="#A1A1A1"/>
<rect width="4.82692" height="4.73585" transform="matrix(4.46371e-08 -1 -1 -4.28049e-08 4.73438 135.154)" fill="#A1A1A1"/>
<rect width="4.82692" height="4.73585" transform="matrix(4.46371e-08 -1 -1 -4.28049e-08 4.73438 236.52)" fill="#A1A1A1"/>
<rect width="4.82692" height="4.73585" transform="matrix(4.46371e-08 -1 -1 -4.28049e-08 104.188 236.52)" fill="#A1A1A1"/>
<rect width="4.82692" height="4.73585" transform="matrix(4.46371e-08 -1 -1 -4.28049e-08 198.906 236.52)" fill="#A1A1A1"/>
<rect width="4.82692" height="4.73585" transform="matrix(4.46371e-08 -1 -1 -4.28049e-08 37.8828 4.82812)" fill="#A1A1A1"/>
<rect width="4.82692" height="4.73585" transform="matrix(4.46371e-08 -1 -1 -4.28049e-08 137.336 4.82812)" fill="#A1A1A1"/>
<rect width="4.82692" height="4.73585" transform="matrix(4.46371e-08 -1 -1 -4.28049e-08 232.055 4.82812)" fill="#A1A1A1"/>
<rect width="4.82692" height="4.73585" transform="matrix(4.46371e-08 -1 -1 -4.28049e-08 232.055 96.5391)" fill="#A1A1A1"/>
<rect width="4.82692" height="4.73585" transform="matrix(4.46371e-08 -1 -1 -4.28049e-08 137.336 96.5391)" fill="#A1A1A1"/>
<rect width="4.82692" height="4.73585" transform="matrix(4.46371e-08 -1 -1 -4.28049e-08 37.8828 96.5391)" fill="#A1A1A1"/>
<rect width="4.82692" height="4.73585" transform="matrix(4.46371e-08 -1 -1 -4.28049e-08 37.8828 197.904)" fill="#A1A1A1"/>
<rect width="4.82692" height="4.73585" transform="matrix(4.46371e-08 -1 -1 -4.28049e-08 137.336 197.904)" fill="#A1A1A1"/>
<rect width="4.82692" height="4.73585" transform="matrix(4.46371e-08 -1 -1 -4.28049e-08 232.055 197.904)" fill="#A1A1A1"/>
</svg>
