<svg width="271" height="270" viewBox="0 0 271 270" fill="none" xmlns="http://www.w3.org/2000/svg">
<rect x="84.7188" y="10.5879" width="5.29412" height="5.29412" fill="#A1A1A1"/>
<rect x="84.7188" y="132.354" width="5.29412" height="5.29412" fill="#A1A1A1"/>
<rect x="84.7188" y="254.117" width="5.29412" height="5.29412" fill="#A1A1A1"/>
<rect x="42.3594" y="10.5879" width="5.29412" height="5.29412" fill="#A1A1A1"/>
<rect x="42.3594" y="132.354" width="5.29412" height="5.29412" fill="#A1A1A1"/>
<rect x="42.3594" y="254.117" width="5.29412" height="5.29412" fill="#A1A1A1"/>
<rect x="211.773" y="10.5879" width="5.29412" height="5.29412" fill="#A1A1A1"/>
<rect x="211.773" y="132.354" width="5.29412" height="5.29412" fill="#A1A1A1"/>
<rect x="206.477" y="254.117" width="5.29412" height="5.29412" fill="#A1A1A1"/>
<rect x="105.898" y="10.5879" width="5.29412" height="5.29412" fill="#A1A1A1"/>
<rect x="105.898" y="132.354" width="5.29412" height="5.29412" fill="#A1A1A1"/>
<rect x="105.898" y="254.117" width="5.29412" height="5.29412" fill="#A1A1A1"/>
<rect x="190.594" y="10.5879" width="5.29412" height="5.29412" fill="#A1A1A1"/>
<rect x="190.594" y="132.354" width="5.29412" height="5.29412" fill="#A1A1A1"/>
<rect x="185.297" y="254.117" width="5.29412" height="5.29412" fill="#A1A1A1"/>
<rect x="63.5312" y="10.5879" width="5.29412" height="5.29412" fill="#A1A1A1"/>
<rect x="63.5312" y="132.354" width="5.29412" height="5.29412" fill="#A1A1A1"/>
<rect x="63.5312" y="254.117" width="5.29412" height="5.29412" fill="#A1A1A1"/>
<rect x="232.945" y="10.5879" width="5.29412" height="5.29412" fill="#A1A1A1"/>
<rect x="232.945" y="132.354" width="5.29412" height="5.29412" fill="#A1A1A1"/>
<rect x="227.648" y="254.117" width="5.29412" height="5.29412" fill="#A1A1A1"/>
<rect x="95.3047" y="10.5879" width="5.29412" height="5.29412" fill="#A1A1A1"/>
<rect x="95.3047" y="132.354" width="5.29412" height="5.29412" fill="#A1A1A1"/>
<rect x="95.3047" y="254.117" width="5.29412" height="5.29412" fill="#A1A1A1"/>
<rect x="180.008" y="10.5879" width="5.29412" height="5.29412" fill="#A1A1A1"/>
<rect x="180.008" y="132.354" width="5.29412" height="5.29412" fill="#A1A1A1"/>
<rect x="174.711" y="254.117" width="5.29412" height="5.29412" fill="#A1A1A1"/>
<rect x="52.9453" y="10.5879" width="5.29412" height="5.29412" fill="#A1A1A1"/>
<rect x="52.9453" y="132.354" width="5.29412" height="5.29412" fill="#A1A1A1"/>
<rect x="52.9453" y="254.117" width="5.29412" height="5.29412" fill="#A1A1A1"/>
<rect x="222.359" y="10.5879" width="5.29412" height="5.29412" fill="#A1A1A1"/>
<rect x="222.359" y="132.354" width="5.29412" height="5.29412" fill="#A1A1A1"/>
<rect x="217.062" y="254.117" width="5.29412" height="5.29412" fill="#A1A1A1"/>
<rect x="31.7734" y="10.5879" width="5.29412" height="5.29412" fill="#A1A1A1"/>
<rect x="31.7734" y="132.354" width="5.29412" height="5.29412" fill="#A1A1A1"/>
<rect x="31.7734" y="254.117" width="5.29412" height="5.29412" fill="#A1A1A1"/>
<rect x="201.18" y="10.5879" width="5.29412" height="5.29412" fill="#A1A1A1"/>
<rect x="201.18" y="132.354" width="5.29412" height="5.29412" fill="#A1A1A1"/>
<rect x="195.891" y="254.117" width="5.29412" height="5.29412" fill="#A1A1A1"/>
<rect x="74.1328" y="10.5879" width="5.29412" height="5.29412" fill="#A1A1A1"/>
<rect x="74.1328" y="132.354" width="5.29412" height="5.29412" fill="#A1A1A1"/>
<rect x="74.1328" y="254.117" width="5.29412" height="5.29412" fill="#A1A1A1"/>
<rect x="158.828" y="10.5879" width="5.29412" height="5.29412" fill="#A1A1A1"/>
<rect x="158.828" y="132.354" width="5.29412" height="5.29412" fill="#A1A1A1"/>
<rect x="153.531" y="132.354" width="5.29412" height="5.29412" fill="#A1A1A1"/>
<rect x="153.531" y="254.117" width="5.29412" height="5.29412" fill="#A1A1A1"/>
<rect x="90.0156" y="10.5879" width="5.29412" height="5.29412" fill="#A1A1A1"/>
<rect x="90.0156" y="132.354" width="5.29412" height="5.29412" fill="#A1A1A1"/>
<rect x="90.0156" y="254.117" width="5.29412" height="5.29412" fill="#A1A1A1"/>
<rect x="174.711" y="10.5879" width="5.29412" height="5.29412" fill="#A1A1A1"/>
<rect x="174.711" y="132.354" width="5.29412" height="5.29412" fill="#A1A1A1"/>
<rect x="169.414" y="254.117" width="5.29412" height="5.29412" fill="#A1A1A1"/>
<rect x="47.6484" y="10.5879" width="5.29412" height="5.29412" fill="#A1A1A1"/>
<rect x="47.6484" y="132.354" width="5.29412" height="5.29412" fill="#A1A1A1"/>
<rect x="47.6484" y="254.117" width="5.29412" height="5.29412" fill="#A1A1A1"/>
<rect x="217.062" y="10.5879" width="5.29412" height="5.29412" fill="#A1A1A1"/>
<rect x="217.062" y="132.354" width="5.29412" height="5.29412" fill="#A1A1A1"/>
<rect x="211.773" y="254.117" width="5.29412" height="5.29412" fill="#A1A1A1"/>
<rect x="111.188" y="10.5879" width="5.29412" height="5.29412" fill="#A1A1A1"/>
<rect x="111.188" y="132.354" width="5.29412" height="5.29412" fill="#A1A1A1"/>
<rect x="111.188" y="254.117" width="5.29412" height="5.29412" fill="#A1A1A1"/>
<rect x="195.891" y="10.5879" width="5.29412" height="5.29412" fill="#A1A1A1"/>
<rect x="195.891" y="132.354" width="5.29412" height="5.29412" fill="#A1A1A1"/>
<rect x="190.594" y="254.117" width="5.29412" height="5.29412" fill="#A1A1A1"/>
<rect x="68.8359" y="10.5879" width="5.29412" height="5.29412" fill="#A1A1A1"/>
<rect x="68.8359" y="132.354" width="5.29412" height="5.29412" fill="#A1A1A1"/>
<rect x="68.8359" y="254.117" width="5.29412" height="5.29412" fill="#A1A1A1"/>
<rect x="153.531" y="10.5879" width="5.29412" height="5.29412" fill="#A1A1A1"/>
<rect x="232.945" y="254.117" width="5.29412" height="5.29412" fill="#A1A1A1"/>
<rect x="100.602" y="10.5879" width="5.29412" height="5.29412" fill="#A1A1A1"/>
<rect x="100.602" y="132.354" width="5.29412" height="5.29412" fill="#A1A1A1"/>
<rect x="100.602" y="254.117" width="5.29412" height="5.29412" fill="#A1A1A1"/>
<rect x="185.297" y="10.5879" width="5.29412" height="5.29412" fill="#A1A1A1"/>
<rect x="185.297" y="132.354" width="5.29412" height="5.29412" fill="#A1A1A1"/>
<rect x="180.008" y="254.117" width="5.29412" height="5.29412" fill="#A1A1A1"/>
<rect x="58.2422" y="10.5879" width="5.29412" height="5.29412" fill="#A1A1A1"/>
<rect x="58.2422" y="132.354" width="5.29412" height="5.29412" fill="#A1A1A1"/>
<rect x="58.2422" y="254.117" width="5.29412" height="5.29412" fill="#A1A1A1"/>
<rect x="227.648" y="10.5879" width="5.29412" height="5.29412" fill="#A1A1A1"/>
<rect x="227.648" y="132.354" width="5.29412" height="5.29412" fill="#A1A1A1"/>
<rect x="222.359" y="254.117" width="5.29412" height="5.29412" fill="#A1A1A1"/>
<rect x="37.0625" y="10.5879" width="5.29412" height="5.29412" fill="#A1A1A1"/>
<rect x="37.0625" y="132.354" width="5.29412" height="5.29412" fill="#A1A1A1"/>
<rect x="37.0625" y="254.117" width="5.29412" height="5.29412" fill="#A1A1A1"/>
<rect x="206.477" y="10.5879" width="5.29412" height="5.29412" fill="#A1A1A1"/>
<rect x="206.477" y="132.354" width="5.29412" height="5.29412" fill="#A1A1A1"/>
<rect x="201.18" y="254.117" width="5.29412" height="5.29412" fill="#A1A1A1"/>
<rect x="79.4219" y="10.5879" width="5.29412" height="5.29412" fill="#A1A1A1"/>
<rect x="79.4219" y="132.354" width="5.29412" height="5.29412" fill="#A1A1A1"/>
<rect x="79.4219" y="254.117" width="5.29412" height="5.29412" fill="#A1A1A1"/>
<rect x="164.125" y="10.5879" width="5.29412" height="5.29412" fill="#A1A1A1"/>
<rect x="164.125" y="132.354" width="5.29412" height="5.29412" fill="#A1A1A1"/>
<rect x="158.828" y="254.117" width="5.29412" height="5.29412" fill="#A1A1A1"/>
<rect x="169.414" y="10.5879" width="5.29412" height="5.29412" fill="#A1A1A1"/>
<rect x="169.414" y="132.354" width="5.29412" height="5.29412" fill="#A1A1A1"/>
<rect x="164.125" y="254.117" width="5.29412" height="5.29412" fill="#A1A1A1"/>
<rect x="259.422" y="90" width="5.29412" height="5.29412" transform="rotate(90 259.422 90)" fill="#A1A1A1"/>
<rect x="137.648" y="90" width="5.29412" height="5.29412" transform="rotate(90 137.648 90)" fill="#A1A1A1"/>
<rect x="259.422" y="47.6465" width="5.29412" height="5.29412" transform="rotate(90 259.422 47.6465)" fill="#A1A1A1"/>
<rect x="137.648" y="47.6465" width="5.29412" height="5.29412" transform="rotate(90 137.648 47.6465)" fill="#A1A1A1"/>
<rect x="259.422" y="217.059" width="5.29412" height="5.29412" transform="rotate(90 259.422 217.059)" fill="#A1A1A1"/>
<rect x="137.648" y="217.059" width="5.29412" height="5.29412" transform="rotate(90 137.648 217.059)" fill="#A1A1A1"/>
<rect x="259.422" y="111.176" width="5.29412" height="5.29412" transform="rotate(90 259.422 111.176)" fill="#A1A1A1"/>
<rect x="137.648" y="111.176" width="5.29412" height="5.29412" transform="rotate(90 137.648 111.176)" fill="#A1A1A1"/>
<rect x="259.422" y="195.883" width="5.29412" height="5.29412" transform="rotate(90 259.422 195.883)" fill="#A1A1A1"/>
<rect x="137.648" y="195.883" width="5.29412" height="5.29412" transform="rotate(90 137.648 195.883)" fill="#A1A1A1"/>
<rect x="259.422" y="68.8242" width="5.29412" height="5.29412" transform="rotate(90 259.422 68.8242)" fill="#A1A1A1"/>
<rect x="137.648" y="68.8242" width="5.29412" height="5.29412" transform="rotate(90 137.648 68.8242)" fill="#A1A1A1"/>
<rect x="259.422" y="153.529" width="5.29412" height="5.29412" transform="rotate(90 259.422 153.529)" fill="#A1A1A1"/>
<rect x="137.648" y="153.529" width="5.29412" height="5.29412" transform="rotate(90 137.648 153.529)" fill="#A1A1A1"/>
<rect x="259.422" y="100.588" width="5.29412" height="5.29412" transform="rotate(90 259.422 100.588)" fill="#A1A1A1"/>
<rect x="137.648" y="100.588" width="5.29412" height="5.29412" transform="rotate(90 137.648 100.588)" fill="#A1A1A1"/>
<rect x="259.422" y="185.295" width="5.29412" height="5.29412" transform="rotate(90 259.422 185.295)" fill="#A1A1A1"/>
<rect x="137.648" y="185.295" width="5.29412" height="5.29412" transform="rotate(90 137.648 185.295)" fill="#A1A1A1"/>
<rect x="259.422" y="58.2344" width="5.29412" height="5.29412" transform="rotate(90 259.422 58.2344)" fill="#A1A1A1"/>
<rect x="137.648" y="58.2344" width="5.29412" height="5.29412" transform="rotate(90 137.648 58.2344)" fill="#A1A1A1"/>
<rect x="259.422" y="227.646" width="5.29412" height="5.29412" transform="rotate(90 259.422 227.646)" fill="#A1A1A1"/>
<rect x="137.648" y="227.646" width="5.29412" height="5.29412" transform="rotate(90 137.648 227.646)" fill="#A1A1A1"/>
<rect x="259.422" y="37.0586" width="5.29412" height="5.29412" transform="rotate(90 259.422 37.0586)" fill="#A1A1A1"/>
<rect x="137.648" y="37.0586" width="5.29412" height="5.29412" transform="rotate(90 137.648 37.0586)" fill="#A1A1A1"/>
<rect x="259.422" y="206.471" width="5.29412" height="5.29412" transform="rotate(90 259.422 206.471)" fill="#A1A1A1"/>
<rect x="137.648" y="206.471" width="5.29412" height="5.29412" transform="rotate(90 137.648 206.471)" fill="#A1A1A1"/>
<rect x="259.422" y="79.4121" width="5.29412" height="5.29412" transform="rotate(90 259.422 79.4121)" fill="#A1A1A1"/>
<rect x="137.648" y="79.4121" width="5.29412" height="5.29412" transform="rotate(90 137.648 79.4121)" fill="#A1A1A1"/>
<rect x="259.422" y="164.117" width="5.29412" height="5.29412" transform="rotate(90 259.422 164.117)" fill="#A1A1A1"/>
<rect x="137.648" y="164.117" width="5.29412" height="5.29412" transform="rotate(90 137.648 164.117)" fill="#A1A1A1"/>
<rect x="259.422" y="95.2949" width="5.29412" height="5.29412" transform="rotate(90 259.422 95.2949)" fill="#A1A1A1"/>
<rect x="137.648" y="95.2949" width="5.29412" height="5.29412" transform="rotate(90 137.648 95.2949)" fill="#A1A1A1"/>
<rect x="259.422" y="180" width="5.29412" height="5.29412" transform="rotate(90 259.422 180)" fill="#A1A1A1"/>
<rect x="137.648" y="180" width="5.29412" height="5.29412" transform="rotate(90 137.648 180)" fill="#A1A1A1"/>
<rect x="259.422" y="52.9414" width="5.29412" height="5.29412" transform="rotate(90 259.422 52.9414)" fill="#A1A1A1"/>
<rect x="137.648" y="52.9414" width="5.29412" height="5.29412" transform="rotate(90 137.648 52.9414)" fill="#A1A1A1"/>
<rect x="259.422" y="222.354" width="5.29412" height="5.29412" transform="rotate(90 259.422 222.354)" fill="#A1A1A1"/>
<rect x="137.648" y="222.354" width="5.29412" height="5.29412" transform="rotate(90 137.648 222.354)" fill="#A1A1A1"/>
<rect x="259.422" y="31.7656" width="5.29412" height="5.29412" transform="rotate(90 259.422 31.7656)" fill="#A1A1A1"/>
<rect x="137.648" y="31.7656" width="5.29412" height="5.29412" transform="rotate(90 137.648 31.7656)" fill="#A1A1A1"/>
<rect x="259.422" y="201.176" width="5.29412" height="5.29412" transform="rotate(90 259.422 201.176)" fill="#A1A1A1"/>
<rect x="137.648" y="201.176" width="5.29412" height="5.29412" transform="rotate(90 137.648 201.176)" fill="#A1A1A1"/>
<rect x="259.422" y="74.1172" width="5.29412" height="5.29412" transform="rotate(90 259.422 74.1172)" fill="#A1A1A1"/>
<rect x="137.648" y="74.1172" width="5.29412" height="5.29412" transform="rotate(90 137.648 74.1172)" fill="#A1A1A1"/>
<rect x="259.422" y="158.824" width="5.29412" height="5.29412" transform="rotate(90 259.422 158.824)" fill="#A1A1A1"/>
<rect x="137.648" y="158.824" width="5.29412" height="5.29412" transform="rotate(90 137.648 158.824)" fill="#A1A1A1"/>
<rect x="259.422" y="105.883" width="5.29412" height="5.29412" transform="rotate(90 259.422 105.883)" fill="#A1A1A1"/>
<rect x="137.648" y="105.883" width="5.29412" height="5.29412" transform="rotate(90 137.648 105.883)" fill="#A1A1A1"/>
<rect x="259.422" y="190.588" width="5.29412" height="5.29412" transform="rotate(90 259.422 190.588)" fill="#A1A1A1"/>
<rect x="137.648" y="190.588" width="5.29412" height="5.29412" transform="rotate(90 137.648 190.588)" fill="#A1A1A1"/>
<rect x="259.422" y="63.5293" width="5.29412" height="5.29412" transform="rotate(90 259.422 63.5293)" fill="#A1A1A1"/>
<rect x="137.648" y="63.5293" width="5.29412" height="5.29412" transform="rotate(90 137.648 63.5293)" fill="#A1A1A1"/>
<rect x="259.422" y="232.941" width="5.29412" height="5.29412" transform="rotate(90 259.422 232.941)" fill="#A1A1A1"/>
<rect x="137.648" y="232.941" width="5.29412" height="5.29412" transform="rotate(90 137.648 232.941)" fill="#A1A1A1"/>
<rect x="259.422" y="42.3535" width="5.29412" height="5.29412" transform="rotate(90 259.422 42.3535)" fill="#A1A1A1"/>
<rect x="137.648" y="42.3535" width="5.29412" height="5.29412" transform="rotate(90 137.648 42.3535)" fill="#A1A1A1"/>
<rect x="259.422" y="211.766" width="5.29412" height="5.29412" transform="rotate(90 259.422 211.766)" fill="#A1A1A1"/>
<rect x="137.648" y="211.766" width="5.29412" height="5.29412" transform="rotate(90 137.648 211.766)" fill="#A1A1A1"/>
<rect x="259.422" y="84.7051" width="5.29412" height="5.29412" transform="rotate(90 259.422 84.7051)" fill="#A1A1A1"/>
<rect x="137.648" y="84.7051" width="5.29412" height="5.29412" transform="rotate(90 137.648 84.7051)" fill="#A1A1A1"/>
<rect x="259.422" y="169.412" width="5.29412" height="5.29412" transform="rotate(90 259.422 169.412)" fill="#A1A1A1"/>
<rect x="137.648" y="169.412" width="5.29412" height="5.29412" transform="rotate(90 137.648 169.412)" fill="#A1A1A1"/>
<rect x="259.422" y="174.705" width="5.29412" height="5.29412" transform="rotate(90 259.422 174.705)" fill="#A1A1A1"/>
<rect x="137.648" y="174.705" width="5.29412" height="5.29412" transform="rotate(90 137.648 174.705)" fill="#A1A1A1"/>
<rect x="254.125" y="185.295" width="5.29412" height="5.29412" fill="#A1A1A1"/>
<rect x="132.359" y="185.295" width="5.29412" height="5.29412" fill="#A1A1A1"/>
<rect x="254.125" y="111.176" width="5.29412" height="5.29412" fill="#A1A1A1"/>
<rect x="132.359" y="111.176" width="5.29412" height="5.29412" fill="#A1A1A1"/>
<rect x="254.125" y="37.0586" width="5.29412" height="5.29412" fill="#A1A1A1"/>
<rect x="132.359" y="37.0586" width="5.29412" height="5.29412" fill="#A1A1A1"/>
<rect x="254.125" y="222.354" width="5.29412" height="5.29412" fill="#A1A1A1"/>
<rect x="132.359" y="222.354" width="5.29412" height="5.29412" fill="#A1A1A1"/>
<rect x="254.125" y="74.1172" width="5.29412" height="5.29412" fill="#A1A1A1"/>
<rect x="132.359" y="74.1172" width="5.29412" height="5.29412" fill="#A1A1A1"/>
<rect x="42.3594" y="37.0586" width="5.29412" height="5.29412" transform="rotate(90 42.3594 37.0586)" fill="#A1A1A1"/>
<rect x="74.1328" y="68.8242" width="5.29412" height="5.29412" transform="rotate(90 74.1328 68.8242)" fill="#A1A1A1"/>
<rect x="105.898" y="100.588" width="5.29412" height="5.29412" transform="rotate(90 105.898 100.588)" fill="#A1A1A1"/>
<rect x="206.477" y="201.176" width="5.29412" height="5.29412" transform="rotate(90 206.477 201.176)" fill="#A1A1A1"/>
<rect x="174.711" y="169.412" width="5.29412" height="5.29412" transform="rotate(90 174.711 169.412)" fill="#A1A1A1"/>
<rect x="238.242" y="232.941" width="5.29412" height="5.29412" transform="rotate(90 238.242 232.941)" fill="#A1A1A1"/>
<rect x="47.6484" y="42.3535" width="5.29412" height="5.29412" transform="rotate(90 47.6484 42.3535)" fill="#A1A1A1"/>
<rect x="79.4219" y="74.1172" width="5.29412" height="5.29412" transform="rotate(90 79.4219 74.1172)" fill="#A1A1A1"/>
<rect x="111.188" y="105.883" width="5.29412" height="5.29412" transform="rotate(90 111.188 105.883)" fill="#A1A1A1"/>
<rect x="211.773" y="206.471" width="5.29412" height="5.29412" transform="rotate(90 211.773 206.471)" fill="#A1A1A1"/>
<rect x="180.008" y="174.705" width="5.29412" height="5.29412" transform="rotate(90 180.008 174.705)" fill="#A1A1A1"/>
<rect x="243.531" y="238.234" width="5.29412" height="5.29412" transform="rotate(90 243.531 238.234)" fill="#A1A1A1"/>
<rect x="52.9453" y="47.6465" width="5.29412" height="5.29412" transform="rotate(90 52.9453 47.6465)" fill="#A1A1A1"/>
<rect x="84.7188" y="79.4121" width="5.29412" height="5.29412" transform="rotate(90 84.7188 79.4121)" fill="#A1A1A1"/>
<rect x="116.484" y="111.176" width="5.29412" height="5.29412" transform="rotate(90 116.484 111.176)" fill="#A1A1A1"/>
<rect x="217.062" y="211.766" width="5.29412" height="5.29412" transform="rotate(90 217.062 211.766)" fill="#A1A1A1"/>
<rect x="185.297" y="180" width="5.29412" height="5.29412" transform="rotate(90 185.297 180)" fill="#A1A1A1"/>
<rect x="58.2422" y="52.9414" width="5.29412" height="5.29412" transform="rotate(90 58.2422 52.9414)" fill="#A1A1A1"/>
<rect x="90.0156" y="84.7051" width="5.29412" height="5.29412" transform="rotate(90 90.0156 84.7051)" fill="#A1A1A1"/>
<rect x="158.828" y="153.529" width="5.29412" height="5.29412" transform="rotate(90 158.828 153.529)" fill="#A1A1A1"/>
<rect x="222.359" y="217.059" width="5.29412" height="5.29412" transform="rotate(90 222.359 217.059)" fill="#A1A1A1"/>
<rect x="190.594" y="185.295" width="5.29412" height="5.29412" transform="rotate(90 190.594 185.295)" fill="#A1A1A1"/>
<rect x="31.7734" y="26.4707" width="5.29412" height="5.29412" transform="rotate(90 31.7734 26.4707)" fill="#A1A1A1"/>
<rect x="63.5312" y="58.2344" width="5.29412" height="5.29412" transform="rotate(90 63.5312 58.2344)" fill="#A1A1A1"/>
<rect x="95.3047" y="90" width="5.29412" height="5.29412" transform="rotate(90 95.3047 90)" fill="#A1A1A1"/>
<rect x="164.125" y="158.824" width="5.29412" height="5.29412" transform="rotate(90 164.125 158.824)" fill="#A1A1A1"/>
<rect x="227.648" y="222.354" width="5.29412" height="5.29412" transform="rotate(90 227.648 222.354)" fill="#A1A1A1"/>
<rect x="195.891" y="190.588" width="5.29412" height="5.29412" transform="rotate(90 195.891 190.588)" fill="#A1A1A1"/>
<rect x="37.0625" y="31.7656" width="5.29412" height="5.29412" transform="rotate(90 37.0625 31.7656)" fill="#A1A1A1"/>
<rect x="68.8359" y="63.5293" width="5.29412" height="5.29412" transform="rotate(90 68.8359 63.5293)" fill="#A1A1A1"/>
<rect x="100.602" y="95.2949" width="5.29412" height="5.29412" transform="rotate(90 100.602 95.2949)" fill="#A1A1A1"/>
<rect x="169.414" y="164.117" width="5.29412" height="5.29412" transform="rotate(90 169.414 164.117)" fill="#A1A1A1"/>
<rect x="232.945" y="227.646" width="5.29412" height="5.29412" transform="rotate(90 232.945 227.646)" fill="#A1A1A1"/>
<rect x="201.18" y="195.883" width="5.29412" height="5.29412" transform="rotate(90 201.18 195.883)" fill="#A1A1A1"/>
<rect x="15.8984" y="84.7051" width="5.29412" height="5.29412" transform="rotate(90 15.8984 84.7051)" fill="#A1A1A1"/>
<rect x="15.8984" y="42.3535" width="5.29412" height="5.29412" transform="rotate(90 15.8984 42.3535)" fill="#A1A1A1"/>
<rect x="15.8984" y="105.883" width="5.29412" height="5.29412" transform="rotate(90 15.8984 105.883)" fill="#A1A1A1"/>
<rect x="15.8984" y="63.5293" width="5.29412" height="5.29412" transform="rotate(90 15.8984 63.5293)" fill="#A1A1A1"/>
<rect x="15.8984" y="95.2949" width="5.29412" height="5.29412" transform="rotate(90 15.8984 95.2949)" fill="#A1A1A1"/>
<rect x="15.8984" y="52.9414" width="5.29412" height="5.29412" transform="rotate(90 15.8984 52.9414)" fill="#A1A1A1"/>
<rect x="15.8984" y="31.7656" width="5.29412" height="5.29412" transform="rotate(90 15.8984 31.7656)" fill="#A1A1A1"/>
<rect x="15.8984" y="74.1172" width="5.29412" height="5.29412" transform="rotate(90 15.8984 74.1172)" fill="#A1A1A1"/>
<rect x="15.8984" y="90" width="5.29412" height="5.29412" transform="rotate(90 15.8984 90)" fill="#A1A1A1"/>
<rect x="15.8984" y="47.6465" width="5.29412" height="5.29412" transform="rotate(90 15.8984 47.6465)" fill="#A1A1A1"/>
<rect x="15.8984" y="111.176" width="5.29412" height="5.29412" transform="rotate(90 15.8984 111.176)" fill="#A1A1A1"/>
<rect x="15.8984" y="68.8242" width="5.29412" height="5.29412" transform="rotate(90 15.8984 68.8242)" fill="#A1A1A1"/>
<rect x="15.8984" y="100.588" width="5.29412" height="5.29412" transform="rotate(90 15.8984 100.588)" fill="#A1A1A1"/>
<rect x="15.8984" y="58.2344" width="5.29412" height="5.29412" transform="rotate(90 15.8984 58.2344)" fill="#A1A1A1"/>
<rect x="15.8984" y="37.0586" width="5.29412" height="5.29412" transform="rotate(90 15.8984 37.0586)" fill="#A1A1A1"/>
<rect x="15.8984" y="79.4121" width="5.29412" height="5.29412" transform="rotate(90 15.8984 79.4121)" fill="#A1A1A1"/>
<rect x="10.6016" y="105.883" width="5.29412" height="5.29412" fill="#A1A1A1"/>
<rect x="10.6016" y="31.7656" width="5.29412" height="5.29412" fill="#A1A1A1"/>
<rect x="10.6016" y="68.8242" width="5.29412" height="5.29412" fill="#A1A1A1"/>
<rect x="222.359" y="47.6465" width="5.29412" height="5.29412" transform="rotate(90 222.359 47.6465)" fill="#A1A1A1"/>
<rect x="180.008" y="90" width="5.29412" height="5.29412" transform="rotate(90 180.008 90)" fill="#A1A1A1"/>
<rect x="95.3047" y="174.705" width="5.29412" height="5.29412" transform="rotate(90 95.3047 174.705)" fill="#A1A1A1"/>
<rect x="52.9453" y="217.059" width="5.29412" height="5.29412" transform="rotate(90 52.9453 217.059)" fill="#A1A1A1"/>
<rect x="47.6484" y="222.354" width="5.29412" height="5.29412" transform="rotate(90 47.6484 222.354)" fill="#A1A1A1"/>
<rect x="217.062" y="52.9414" width="5.29412" height="5.29412" transform="rotate(90 217.062 52.9414)" fill="#A1A1A1"/>
<rect x="174.711" y="95.2949" width="5.29412" height="5.29412" transform="rotate(90 174.711 95.2949)" fill="#A1A1A1"/>
<rect x="90.0156" y="180" width="5.29412" height="5.29412" transform="rotate(90 90.0156 180)" fill="#A1A1A1"/>
<rect x="47.6484" y="222.354" width="5.29412" height="5.29412" transform="rotate(90 47.6484 222.354)" fill="#A1A1A1"/>
<rect x="42.3594" y="227.646" width="5.29412" height="5.29412" transform="rotate(90 42.3594 227.646)" fill="#A1A1A1"/>
<rect x="211.773" y="58.2344" width="5.29412" height="5.29412" transform="rotate(90 211.773 58.2344)" fill="#A1A1A1"/>
<rect x="169.414" y="100.588" width="5.29412" height="5.29412" transform="rotate(90 169.414 100.588)" fill="#A1A1A1"/>
<rect x="84.7188" y="185.295" width="5.29412" height="5.29412" transform="rotate(90 84.7188 185.295)" fill="#A1A1A1"/>
<rect x="42.3594" y="227.646" width="5.29412" height="5.29412" transform="rotate(90 42.3594 227.646)" fill="#A1A1A1"/>
<rect x="37.0625" y="232.941" width="5.29412" height="5.29412" transform="rotate(90 37.0625 232.941)" fill="#A1A1A1"/>
<rect x="206.477" y="63.5293" width="5.29412" height="5.29412" transform="rotate(90 206.477 63.5293)" fill="#A1A1A1"/>
<rect x="164.125" y="105.883" width="5.29412" height="5.29412" transform="rotate(90 164.125 105.883)" fill="#A1A1A1"/>
<rect x="79.4219" y="190.588" width="5.29412" height="5.29412" transform="rotate(90 79.4219 190.588)" fill="#A1A1A1"/>
<rect x="37.0625" y="232.941" width="5.29412" height="5.29412" transform="rotate(90 37.0625 232.941)" fill="#A1A1A1"/>
<rect x="31.7734" y="238.234" width="5.29412" height="5.29412" transform="rotate(90 31.7734 238.234)" fill="#A1A1A1"/>
<rect x="243.531" y="26.4707" width="5.29412" height="5.29412" transform="rotate(90 243.531 26.4707)" fill="#A1A1A1"/>
<rect x="201.18" y="68.8242" width="5.29412" height="5.29412" transform="rotate(90 201.18 68.8242)" fill="#A1A1A1"/>
<rect x="158.828" y="111.176" width="5.29412" height="5.29412" transform="rotate(90 158.828 111.176)" fill="#A1A1A1"/>
<rect x="116.484" y="153.529" width="5.29412" height="5.29412" transform="rotate(90 116.484 153.529)" fill="#A1A1A1"/>
<rect x="74.1328" y="195.883" width="5.29412" height="5.29412" transform="rotate(90 74.1328 195.883)" fill="#A1A1A1"/>
<rect x="31.7734" y="238.234" width="5.29412" height="5.29412" transform="rotate(90 31.7734 238.234)" fill="#A1A1A1"/>
<rect x="238.242" y="31.7656" width="5.29412" height="5.29412" transform="rotate(90 238.242 31.7656)" fill="#A1A1A1"/>
<rect x="195.891" y="74.1172" width="5.29412" height="5.29412" transform="rotate(90 195.891 74.1172)" fill="#A1A1A1"/>
<rect x="111.188" y="158.824" width="5.29412" height="5.29412" transform="rotate(90 111.188 158.824)" fill="#A1A1A1"/>
<rect x="68.8359" y="201.176" width="5.29412" height="5.29412" transform="rotate(90 68.8359 201.176)" fill="#A1A1A1"/>
<rect x="232.945" y="37.0586" width="5.29412" height="5.29412" transform="rotate(90 232.945 37.0586)" fill="#A1A1A1"/>
<rect x="190.594" y="79.4121" width="5.29412" height="5.29412" transform="rotate(90 190.594 79.4121)" fill="#A1A1A1"/>
<rect x="105.898" y="164.117" width="5.29412" height="5.29412" transform="rotate(90 105.898 164.117)" fill="#A1A1A1"/>
<rect x="63.5312" y="206.471" width="5.29412" height="5.29412" transform="rotate(90 63.5312 206.471)" fill="#A1A1A1"/>
<rect x="227.648" y="42.3535" width="5.29412" height="5.29412" transform="rotate(90 227.648 42.3535)" fill="#A1A1A1"/>
<rect x="185.297" y="84.7051" width="5.29412" height="5.29412" transform="rotate(90 185.297 84.7051)" fill="#A1A1A1"/>
<rect x="100.602" y="169.412" width="5.29412" height="5.29412" transform="rotate(90 100.602 169.412)" fill="#A1A1A1"/>
<rect x="58.2422" y="211.766" width="5.29412" height="5.29412" transform="rotate(90 58.2422 211.766)" fill="#A1A1A1"/>
<rect x="15.8984" y="222.354" width="5.29412" height="5.29412" transform="rotate(90 15.8984 222.354)" fill="#A1A1A1"/>
<rect x="15.8984" y="201.176" width="5.29412" height="5.29412" transform="rotate(90 15.8984 201.176)" fill="#A1A1A1"/>
<rect x="15.8984" y="158.824" width="5.29412" height="5.29412" transform="rotate(90 15.8984 158.824)" fill="#A1A1A1"/>
<rect x="15.8984" y="190.588" width="5.29412" height="5.29412" transform="rotate(90 15.8984 190.588)" fill="#A1A1A1"/>
<rect x="15.8984" y="232.941" width="5.29412" height="5.29412" transform="rotate(90 15.8984 232.941)" fill="#A1A1A1"/>
<rect x="15.8984" y="211.766" width="5.29412" height="5.29412" transform="rotate(90 15.8984 211.766)" fill="#A1A1A1"/>
<rect x="15.8984" y="169.412" width="5.29412" height="5.29412" transform="rotate(90 15.8984 169.412)" fill="#A1A1A1"/>
<rect x="15.8984" y="185.295" width="5.29412" height="5.29412" transform="rotate(90 15.8984 185.295)" fill="#A1A1A1"/>
<rect x="15.8984" y="227.646" width="5.29412" height="5.29412" transform="rotate(90 15.8984 227.646)" fill="#A1A1A1"/>
<rect x="15.8984" y="206.471" width="5.29412" height="5.29412" transform="rotate(90 15.8984 206.471)" fill="#A1A1A1"/>
<rect x="15.8984" y="164.117" width="5.29412" height="5.29412" transform="rotate(90 15.8984 164.117)" fill="#A1A1A1"/>
<rect x="15.8984" y="195.883" width="5.29412" height="5.29412" transform="rotate(90 15.8984 195.883)" fill="#A1A1A1"/>
<rect x="15.8984" y="153.529" width="5.29412" height="5.29412" transform="rotate(90 15.8984 153.529)" fill="#A1A1A1"/>
<rect x="15.8984" y="217.059" width="5.29412" height="5.29412" transform="rotate(90 15.8984 217.059)" fill="#A1A1A1"/>
<rect x="15.8984" y="174.705" width="5.29412" height="5.29412" transform="rotate(90 15.8984 174.705)" fill="#A1A1A1"/>
<rect x="15.8984" y="180" width="5.29412" height="5.29412" transform="rotate(90 15.8984 180)" fill="#A1A1A1"/>
<rect x="10.6016" y="190.588" width="5.29412" height="5.29412" fill="#A1A1A1"/>
<rect x="10.6016" y="227.646" width="5.29412" height="5.29412" fill="#A1A1A1"/>
<rect x="10.6016" y="153.529" width="5.29412" height="5.29412" fill="#A1A1A1"/>
<rect x="264.719" y="132.354" width="5.29412" height="5.29412" fill="#A1A1A1"/>
<rect x="254.125" y="127.059" width="5.29412" height="5.29412" transform="rotate(90 254.125 127.059)" fill="#A1A1A1"/>
<rect x="254.125" y="137.646" width="5.29412" height="5.29412" transform="rotate(90 254.125 137.646)" fill="#A1A1A1"/>
<rect x="248.828" y="132.354" width="5.29412" height="5.29412" transform="rotate(90 248.828 132.354)" fill="#A1A1A1"/>
<rect x="259.422" y="121.766" width="5.29412" height="5.29412" transform="rotate(90 259.422 121.766)" fill="#A1A1A1"/>
<rect x="270.016" y="121.766" width="5.29412" height="5.29412" transform="rotate(90 270.016 121.766)" fill="#A1A1A1"/>
<rect x="270.016" y="142.941" width="5.29412" height="5.29412" transform="rotate(90 270.016 142.941)" fill="#A1A1A1"/>
<rect x="248.828" y="142.941" width="5.29412" height="5.29412" transform="rotate(90 248.828 142.941)" fill="#A1A1A1"/>
<rect x="248.828" y="121.766" width="5.29412" height="5.29412" transform="rotate(90 248.828 121.766)" fill="#A1A1A1"/>
<rect x="259.422" y="132.354" width="5.29412" height="5.29412" transform="rotate(90 259.422 132.354)" fill="#A1A1A1"/>
<rect x="264.719" y="137.646" width="5.29412" height="5.29412" transform="rotate(90 264.719 137.646)" fill="#A1A1A1"/>
<rect x="259.422" y="142.941" width="5.29412" height="5.29412" transform="rotate(90 259.422 142.941)" fill="#A1A1A1"/>
<rect x="259.422" y="127.059" width="5.29412" height="5.29412" fill="#A1A1A1"/>
<rect x="142.945" y="132.354" width="5.29412" height="5.29412" fill="#A1A1A1"/>
<rect x="21.1797" y="132.354" width="5.29412" height="5.29412" fill="#A1A1A1"/>
<rect x="21.1797" y="10.5879" width="5.29412" height="5.29412" fill="#A1A1A1"/>
<rect x="21.1797" y="254.117" width="5.29412" height="5.29412" fill="#A1A1A1"/>
<rect x="142.945" y="254.117" width="5.29412" height="5.29412" fill="#A1A1A1"/>
<rect x="264.719" y="254.117" width="5.29412" height="5.29412" fill="#A1A1A1"/>
<rect x="264.719" y="10.5879" width="5.29412" height="5.29412" fill="#A1A1A1"/>
<rect x="142.945" y="10.5879" width="5.29412" height="5.29412" fill="#A1A1A1"/>
<rect x="132.359" y="127.059" width="5.29412" height="5.29412" transform="rotate(90 132.359 127.059)" fill="#A1A1A1"/>
<rect x="10.6016" y="127.059" width="5.29412" height="5.29412" transform="rotate(90 10.6016 127.059)" fill="#A1A1A1"/>
<rect x="10.6016" y="5.29492" width="5.29412" height="5.29412" transform="rotate(90 10.6016 5.29492)" fill="#A1A1A1"/>
<rect x="10.6016" y="248.824" width="5.29412" height="5.29412" transform="rotate(90 10.6016 248.824)" fill="#A1A1A1"/>
<rect x="132.359" y="248.824" width="5.29412" height="5.29412" transform="rotate(90 132.359 248.824)" fill="#A1A1A1"/>
<rect x="254.125" y="248.824" width="5.29412" height="5.29412" transform="rotate(90 254.125 248.824)" fill="#A1A1A1"/>
<rect x="254.125" y="5.29492" width="5.29412" height="5.29412" transform="rotate(90 254.125 5.29492)" fill="#A1A1A1"/>
<rect x="132.359" y="5.29492" width="5.29412" height="5.29412" transform="rotate(90 132.359 5.29492)" fill="#A1A1A1"/>
<rect x="132.359" y="137.646" width="5.29412" height="5.29412" transform="rotate(90 132.359 137.646)" fill="#A1A1A1"/>
<rect x="10.6016" y="137.646" width="5.29412" height="5.29412" transform="rotate(90 10.6016 137.646)" fill="#A1A1A1"/>
<rect x="10.6016" y="15.8828" width="5.29412" height="5.29412" transform="rotate(90 10.6016 15.8828)" fill="#A1A1A1"/>
<rect x="10.6016" y="259.412" width="5.29412" height="5.29412" transform="rotate(90 10.6016 259.412)" fill="#A1A1A1"/>
<rect x="132.359" y="259.412" width="5.29412" height="5.29412" transform="rotate(90 132.359 259.412)" fill="#A1A1A1"/>
<rect x="254.125" y="259.412" width="5.29412" height="5.29412" transform="rotate(90 254.125 259.412)" fill="#A1A1A1"/>
<rect x="254.125" y="15.8828" width="5.29412" height="5.29412" transform="rotate(90 254.125 15.8828)" fill="#A1A1A1"/>
<rect x="132.359" y="15.8828" width="5.29412" height="5.29412" transform="rotate(90 132.359 15.8828)" fill="#A1A1A1"/>
<rect x="127.07" y="132.354" width="5.29412" height="5.29412" transform="rotate(90 127.07 132.354)" fill="#A1A1A1"/>
<rect x="5.29688" y="132.354" width="5.29412" height="5.29412" transform="rotate(90 5.29688 132.354)" fill="#A1A1A1"/>
<rect x="5.29688" y="10.5879" width="5.29412" height="5.29412" transform="rotate(90 5.29688 10.5879)" fill="#A1A1A1"/>
<rect x="5.29688" y="254.117" width="5.29412" height="5.29412" transform="rotate(90 5.29688 254.117)" fill="#A1A1A1"/>
<rect x="127.07" y="254.117" width="5.29412" height="5.29412" transform="rotate(90 127.07 254.117)" fill="#A1A1A1"/>
<rect x="248.828" y="254.117" width="5.29412" height="5.29412" transform="rotate(90 248.828 254.117)" fill="#A1A1A1"/>
<rect x="248.828" y="10.5879" width="5.29412" height="5.29412" transform="rotate(90 248.828 10.5879)" fill="#A1A1A1"/>
<rect x="127.07" y="10.5879" width="5.29412" height="5.29412" transform="rotate(90 127.07 10.5879)" fill="#A1A1A1"/>
<rect x="137.648" y="121.766" width="5.29412" height="5.29412" transform="rotate(90 137.648 121.766)" fill="#A1A1A1"/>
<rect x="15.8984" y="121.766" width="5.29412" height="5.29412" transform="rotate(90 15.8984 121.766)" fill="#A1A1A1"/>
<rect x="15.8984" width="5.29412" height="5.29412" transform="rotate(90 15.8984 0)" fill="#A1A1A1"/>
<rect x="15.8984" y="243.529" width="5.29412" height="5.29412" transform="rotate(90 15.8984 243.529)" fill="#A1A1A1"/>
<rect x="137.648" y="243.529" width="5.29412" height="5.29412" transform="rotate(90 137.648 243.529)" fill="#A1A1A1"/>
<rect x="259.422" y="243.529" width="5.29412" height="5.29412" transform="rotate(90 259.422 243.529)" fill="#A1A1A1"/>
<rect x="259.422" width="5.29412" height="5.29412" transform="rotate(90 259.422 0)" fill="#A1A1A1"/>
<rect x="137.648" width="5.29412" height="5.29412" transform="rotate(90 137.648 0)" fill="#A1A1A1"/>
<rect x="148.242" y="121.766" width="5.29412" height="5.29412" transform="rotate(90 148.242 121.766)" fill="#A1A1A1"/>
<rect x="26.4766" y="121.766" width="5.29412" height="5.29412" transform="rotate(90 26.4766 121.766)" fill="#A1A1A1"/>
<rect x="26.4766" width="5.29412" height="5.29412" transform="rotate(90 26.4766 0)" fill="#A1A1A1"/>
<rect x="26.4766" y="243.529" width="5.29412" height="5.29412" transform="rotate(90 26.4766 243.529)" fill="#A1A1A1"/>
<rect x="148.242" y="243.529" width="5.29412" height="5.29412" transform="rotate(90 148.242 243.529)" fill="#A1A1A1"/>
<rect x="270.016" y="243.529" width="5.29412" height="5.29412" transform="rotate(90 270.016 243.529)" fill="#A1A1A1"/>
<rect x="270.016" width="5.29412" height="5.29412" transform="rotate(90 270.016 0)" fill="#A1A1A1"/>
<rect x="148.242" width="5.29412" height="5.29412" transform="rotate(90 148.242 0)" fill="#A1A1A1"/>
<rect x="148.242" y="142.941" width="5.29412" height="5.29412" transform="rotate(90 148.242 142.941)" fill="#A1A1A1"/>
<rect x="26.4766" y="142.941" width="5.29412" height="5.29412" transform="rotate(90 26.4766 142.941)" fill="#A1A1A1"/>
<rect x="26.4766" y="21.1758" width="5.29412" height="5.29412" transform="rotate(90 26.4766 21.1758)" fill="#A1A1A1"/>
<rect x="26.4766" y="264.705" width="5.29412" height="5.29412" transform="rotate(90 26.4766 264.705)" fill="#A1A1A1"/>
<rect x="148.242" y="264.705" width="5.29412" height="5.29412" transform="rotate(90 148.242 264.705)" fill="#A1A1A1"/>
<rect x="270.016" y="264.705" width="5.29412" height="5.29412" transform="rotate(90 270.016 264.705)" fill="#A1A1A1"/>
<rect x="270.016" y="21.1758" width="5.29412" height="5.29412" transform="rotate(90 270.016 21.1758)" fill="#A1A1A1"/>
<rect x="148.242" y="21.1758" width="5.29412" height="5.29412" transform="rotate(90 148.242 21.1758)" fill="#A1A1A1"/>
<rect x="127.07" y="142.941" width="5.29412" height="5.29412" transform="rotate(90 127.07 142.941)" fill="#A1A1A1"/>
<rect x="5.29688" y="142.941" width="5.29412" height="5.29412" transform="rotate(90 5.29688 142.941)" fill="#A1A1A1"/>
<rect x="5.29688" y="21.1758" width="5.29412" height="5.29412" transform="rotate(90 5.29688 21.1758)" fill="#A1A1A1"/>
<rect x="5.29688" y="264.705" width="5.29412" height="5.29412" transform="rotate(90 5.29688 264.705)" fill="#A1A1A1"/>
<rect x="127.07" y="264.705" width="5.29412" height="5.29412" transform="rotate(90 127.07 264.705)" fill="#A1A1A1"/>
<rect x="248.828" y="264.705" width="5.29412" height="5.29412" transform="rotate(90 248.828 264.705)" fill="#A1A1A1"/>
<rect x="248.828" y="21.1758" width="5.29412" height="5.29412" transform="rotate(90 248.828 21.1758)" fill="#A1A1A1"/>
<rect x="127.07" y="21.1758" width="5.29412" height="5.29412" transform="rotate(90 127.07 21.1758)" fill="#A1A1A1"/>
<rect x="127.07" y="121.766" width="5.29412" height="5.29412" transform="rotate(90 127.07 121.766)" fill="#A1A1A1"/>
<rect x="5.29688" y="121.766" width="5.29412" height="5.29412" transform="rotate(90 5.29688 121.766)" fill="#A1A1A1"/>
<rect x="5.29688" width="5.29412" height="5.29412" transform="rotate(90 5.29688 0)" fill="#A1A1A1"/>
<rect x="5.29688" y="243.529" width="5.29412" height="5.29412" transform="rotate(90 5.29688 243.529)" fill="#A1A1A1"/>
<rect x="127.07" y="243.529" width="5.29412" height="5.29412" transform="rotate(90 127.07 243.529)" fill="#A1A1A1"/>
<rect x="248.828" y="243.529" width="5.29412" height="5.29412" transform="rotate(90 248.828 243.529)" fill="#A1A1A1"/>
<rect x="248.828" width="5.29412" height="5.29412" transform="rotate(90 248.828 0)" fill="#A1A1A1"/>
<rect x="127.07" width="5.29412" height="5.29412" transform="rotate(90 127.07 0)" fill="#A1A1A1"/>
<rect x="137.648" y="132.354" width="5.29412" height="5.29412" transform="rotate(90 137.648 132.354)" fill="#A1A1A1"/>
<rect x="15.8984" y="132.354" width="5.29412" height="5.29412" transform="rotate(90 15.8984 132.354)" fill="#A1A1A1"/>
<rect x="15.8984" y="10.5879" width="5.29412" height="5.29412" transform="rotate(90 15.8984 10.5879)" fill="#A1A1A1"/>
<rect x="15.8984" y="254.117" width="5.29412" height="5.29412" transform="rotate(90 15.8984 254.117)" fill="#A1A1A1"/>
<rect x="137.648" y="254.117" width="5.29412" height="5.29412" transform="rotate(90 137.648 254.117)" fill="#A1A1A1"/>
<rect x="259.422" y="254.117" width="5.29412" height="5.29412" transform="rotate(90 259.422 254.117)" fill="#A1A1A1"/>
<rect x="259.422" y="10.5879" width="5.29412" height="5.29412" transform="rotate(90 259.422 10.5879)" fill="#A1A1A1"/>
<rect x="137.648" y="10.5879" width="5.29412" height="5.29412" transform="rotate(90 137.648 10.5879)" fill="#A1A1A1"/>
<rect x="142.945" y="137.646" width="5.29412" height="5.29412" transform="rotate(90 142.945 137.646)" fill="#A1A1A1"/>
<rect x="21.1797" y="137.646" width="5.29412" height="5.29412" transform="rotate(90 21.1797 137.646)" fill="#A1A1A1"/>
<rect x="21.1797" y="15.8828" width="5.29412" height="5.29412" transform="rotate(90 21.1797 15.8828)" fill="#A1A1A1"/>
<rect x="21.1797" y="259.412" width="5.29412" height="5.29412" transform="rotate(90 21.1797 259.412)" fill="#A1A1A1"/>
<rect x="142.945" y="259.412" width="5.29412" height="5.29412" transform="rotate(90 142.945 259.412)" fill="#A1A1A1"/>
<rect x="264.719" y="259.412" width="5.29412" height="5.29412" transform="rotate(90 264.719 259.412)" fill="#A1A1A1"/>
<rect x="264.719" y="15.8828" width="5.29412" height="5.29412" transform="rotate(90 264.719 15.8828)" fill="#A1A1A1"/>
<rect x="142.945" y="15.8828" width="5.29412" height="5.29412" transform="rotate(90 142.945 15.8828)" fill="#A1A1A1"/>
<rect x="137.648" y="142.941" width="5.29412" height="5.29412" transform="rotate(90 137.648 142.941)" fill="#A1A1A1"/>
<rect x="15.8984" y="142.941" width="5.29412" height="5.29412" transform="rotate(90 15.8984 142.941)" fill="#A1A1A1"/>
<rect x="15.8984" y="21.1758" width="5.29412" height="5.29412" transform="rotate(90 15.8984 21.1758)" fill="#A1A1A1"/>
<rect x="15.8984" y="264.705" width="5.29412" height="5.29412" transform="rotate(90 15.8984 264.705)" fill="#A1A1A1"/>
<rect x="137.648" y="264.705" width="5.29412" height="5.29412" transform="rotate(90 137.648 264.705)" fill="#A1A1A1"/>
<rect x="259.422" y="264.705" width="5.29412" height="5.29412" transform="rotate(90 259.422 264.705)" fill="#A1A1A1"/>
<rect x="259.422" y="21.1758" width="5.29412" height="5.29412" transform="rotate(90 259.422 21.1758)" fill="#A1A1A1"/>
<rect x="137.648" y="21.1758" width="5.29412" height="5.29412" transform="rotate(90 137.648 21.1758)" fill="#A1A1A1"/>
<rect x="137.648" y="127.059" width="5.29412" height="5.29412" fill="#A1A1A1"/>
<rect x="15.8984" y="127.059" width="5.29412" height="5.29412" fill="#A1A1A1"/>
<rect x="15.8984" y="5.29492" width="5.29412" height="5.29412" fill="#A1A1A1"/>
<rect x="15.8984" y="248.824" width="5.29412" height="5.29412" fill="#A1A1A1"/>
<rect x="137.648" y="248.824" width="5.29412" height="5.29412" fill="#A1A1A1"/>
<rect x="259.422" y="248.824" width="5.29412" height="5.29412" fill="#A1A1A1"/>
<rect x="259.422" y="5.29492" width="5.29412" height="5.29412" fill="#A1A1A1"/>
<rect x="137.648" y="5.29492" width="5.29412" height="5.29412" fill="#A1A1A1"/>
</svg>
