<svg width="272" height="164" viewBox="0 0 272 164" fill="none" xmlns="http://www.w3.org/2000/svg">
<rect width="5.13202" height="5.87131" transform="matrix(1 0 0 -1 30.7891 101.949)" fill="#A1A1A1"/>
<rect width="5.13202" height="5.87131" transform="matrix(1 0 0 -1 30.7891 137.176)" fill="#A1A1A1"/>
<rect width="5.13202" height="5.87131" transform="matrix(1 0 0 -1 30.7891 66.7227)" fill="#A1A1A1"/>
<rect width="5.13202" height="5.87131" transform="matrix(1 0 0 -1 30.7891 31.4961)" fill="#A1A1A1"/>
<rect width="5.13202" height="5.87131" transform="matrix(1 0 0 -1 30.7891 19.7461)" fill="#A1A1A1"/>
<rect width="5.13202" height="5.87131" transform="matrix(1 0 0 -1 118.039 101.949)" fill="#A1A1A1"/>
<rect width="5.13202" height="5.87131" transform="matrix(1 0 0 -1 118.039 66.7227)" fill="#A1A1A1"/>
<rect width="5.13202" height="5.87131" transform="matrix(1 0 0 -1 123.172 54.9727)" fill="#A1A1A1"/>
<rect width="5.13202" height="5.87131" transform="matrix(1 0 0 -1 159.094 101.949)" fill="#A1A1A1"/>
<rect width="5.13202" height="5.87131" transform="matrix(1 0 0 -1 159.094 137.176)" fill="#A1A1A1"/>
<rect width="5.13202" height="5.87131" transform="matrix(1 0 0 -1 159.094 148.918)" fill="#A1A1A1"/>
<rect width="5.13202" height="5.87131" transform="matrix(1 0 0 -1 20.5312 148.918)" fill="#A1A1A1"/>
<rect width="5.13202" height="5.87131" transform="matrix(1 0 0 -1 159.094 66.7227)" fill="#A1A1A1"/>
<rect width="5.13202" height="5.87131" transform="matrix(1 0 0 -1 159.094 31.4961)" fill="#A1A1A1"/>
<rect width="5.13202" height="5.87131" transform="matrix(1 0 0 -1 159.094 19.7461)" fill="#A1A1A1"/>
<rect width="5.13202" height="5.87131" transform="matrix(1 0 0 -1 241.203 101.949)" fill="#A1A1A1"/>
<rect width="5.13202" height="5.87131" transform="matrix(1 0 0 -1 241.203 137.176)" fill="#A1A1A1"/>
<rect width="5.13202" height="5.87131" transform="matrix(1 0 0 -1 241.203 148.918)" fill="#A1A1A1"/>
<rect width="5.13202" height="5.87131" transform="matrix(1 0 0 -1 241.203 66.7227)" fill="#A1A1A1"/>
<rect width="5.13202" height="5.87131" transform="matrix(1 0 0 -1 241.203 31.4961)" fill="#A1A1A1"/>
<rect width="5.13202" height="5.87131" transform="matrix(1 0 0 -1 241.203 19.7461)" fill="#A1A1A1"/>
<rect width="5.13202" height="5.87131" transform="matrix(1 0 0 -1 56.4531 101.949)" fill="#A1A1A1"/>
<rect width="5.13202" height="5.87131" transform="matrix(1 0 0 -1 56.4531 137.176)" fill="#A1A1A1"/>
<rect width="5.13202" height="5.87131" transform="matrix(1 0 0 -1 56.4531 66.7227)" fill="#A1A1A1"/>
<rect width="5.13202" height="5.87131" transform="matrix(1 0 0 -1 56.4531 31.4961)" fill="#A1A1A1"/>
<rect width="5.13202" height="5.87131" transform="matrix(1 0 0 -1 56.4531 19.7461)" fill="#A1A1A1"/>
<rect width="5.13202" height="5.87131" transform="matrix(1 0 0 -1 220.68 101.949)" fill="#A1A1A1"/>
<rect width="5.13202" height="5.87131" transform="matrix(1 0 0 -1 220.68 137.176)" fill="#A1A1A1"/>
<rect width="5.13202" height="5.87131" transform="matrix(1 0 0 -1 220.68 148.918)" fill="#A1A1A1"/>
<rect width="5.13202" height="5.87131" transform="matrix(1 0 0 -1 220.68 66.7227)" fill="#A1A1A1"/>
<rect width="5.13202" height="5.87131" transform="matrix(1 0 0 -1 220.68 31.4961)" fill="#A1A1A1"/>
<rect width="5.13202" height="5.87131" transform="matrix(1 0 0 -1 220.68 19.7461)" fill="#A1A1A1"/>
<rect width="5.13202" height="5.87131" transform="matrix(1 0 0 -1 97.5078 101.949)" fill="#A1A1A1"/>
<rect width="5.13202" height="5.87131" transform="matrix(1 0 0 -1 97.5078 66.7227)" fill="#A1A1A1"/>
<rect width="5.13202" height="5.87131" transform="matrix(1 0 0 -1 102.641 54.9727)" fill="#A1A1A1"/>
<rect width="5.13202" height="5.87131" transform="matrix(1 0 0 -1 179.625 101.949)" fill="#A1A1A1"/>
<rect width="5.13202" height="5.87131" transform="matrix(1 0 0 -1 179.625 137.176)" fill="#A1A1A1"/>
<rect width="5.13202" height="5.87131" transform="matrix(1 0 0 -1 179.625 148.918)" fill="#A1A1A1"/>
<rect width="5.13202" height="5.87131" transform="matrix(1 0 0 -1 41.0625 148.918)" fill="#A1A1A1"/>
<rect width="5.13202" height="5.87131" transform="matrix(1 0 0 -1 179.625 66.7227)" fill="#A1A1A1"/>
<rect width="5.13202" height="5.87131" transform="matrix(1 0 0 -1 179.625 31.4961)" fill="#A1A1A1"/>
<rect width="5.13202" height="5.87131" transform="matrix(1 0 0 -1 179.625 19.7461)" fill="#A1A1A1"/>
<rect width="5.13202" height="5.87131" transform="matrix(1 0 0 -1 164.227 101.949)" fill="#A1A1A1"/>
<rect width="5.13202" height="5.87131" transform="matrix(1 0 0 -1 164.227 137.176)" fill="#A1A1A1"/>
<rect width="5.13202" height="5.87131" transform="matrix(1 0 0 -1 164.227 148.918)" fill="#A1A1A1"/>
<rect width="5.13202" height="5.87131" transform="matrix(1 0 0 -1 25.6641 148.918)" fill="#A1A1A1"/>
<rect width="5.13202" height="5.87131" transform="matrix(1 0 0 -1 46.1875 101.949)" fill="#A1A1A1"/>
<rect width="5.13202" height="5.87131" transform="matrix(1 0 0 -1 46.1875 137.176)" fill="#A1A1A1"/>
<rect width="5.13202" height="5.87131" transform="matrix(1 0 0 -1 46.1875 66.7227)" fill="#A1A1A1"/>
<rect width="5.13202" height="5.87131" transform="matrix(1 0 0 -1 46.1875 31.4961)" fill="#A1A1A1"/>
<rect width="5.13202" height="5.87131" transform="matrix(1 0 0 -1 46.1875 19.7461)" fill="#A1A1A1"/>
<rect width="5.13202" height="5.87131" transform="matrix(1 0 0 -1 128.297 101.949)" fill="#A1A1A1"/>
<rect width="5.13202" height="5.87131" transform="matrix(1 0 0 -1 128.297 66.7227)" fill="#A1A1A1"/>
<rect width="5.13202" height="5.87131" transform="matrix(1 0 0 -1 210.414 101.949)" fill="#A1A1A1"/>
<rect width="5.13202" height="5.87131" transform="matrix(1 0 0 -1 210.414 137.176)" fill="#A1A1A1"/>
<rect width="5.13202" height="5.87131" transform="matrix(1 0 0 -1 210.414 148.918)" fill="#A1A1A1"/>
<rect width="5.13202" height="5.87131" transform="matrix(1 0 0 -1 71.8438 148.918)" fill="#A1A1A1"/>
<rect width="5.13202" height="5.87131" transform="matrix(1 0 0 -1 210.414 66.7227)" fill="#A1A1A1"/>
<rect width="5.13202" height="5.87131" transform="matrix(1 0 0 -1 210.414 31.4961)" fill="#A1A1A1"/>
<rect width="5.13202" height="5.87131" transform="matrix(1 0 0 -1 210.414 19.7461)" fill="#A1A1A1"/>
<rect width="5.13202" height="5.87131" transform="matrix(1 0 0 -1 87.2422 101.949)" fill="#A1A1A1"/>
<rect width="5.13202" height="5.87131" transform="matrix(1 0 0 -1 87.2422 66.7227)" fill="#A1A1A1"/>
<rect width="5.13202" height="5.87131" transform="matrix(1 0 0 -1 92.375 54.9727)" fill="#A1A1A1"/>
<rect width="5.13202" height="5.87131" transform="matrix(1 0 0 -1 169.359 101.949)" fill="#A1A1A1"/>
<rect width="5.13202" height="5.87131" transform="matrix(1 0 0 -1 169.359 137.176)" fill="#A1A1A1"/>
<rect width="5.13202" height="5.87131" transform="matrix(1 0 0 -1 169.359 148.918)" fill="#A1A1A1"/>
<rect width="5.13202" height="5.87131" transform="matrix(1 0 0 -1 30.7891 148.918)" fill="#A1A1A1"/>
<rect width="5.13202" height="5.87131" transform="matrix(1 0 0 -1 169.359 66.7227)" fill="#A1A1A1"/>
<rect width="5.13202" height="5.87131" transform="matrix(1 0 0 -1 169.359 31.4961)" fill="#A1A1A1"/>
<rect width="5.13202" height="5.87131" transform="matrix(1 0 0 -1 169.359 19.7461)" fill="#A1A1A1"/>
<rect width="5.13202" height="5.87131" transform="matrix(1 0 0 -1 251.469 101.949)" fill="#A1A1A1"/>
<rect width="5.13202" height="5.87131" transform="matrix(1 0 0 -1 251.469 137.176)" fill="#A1A1A1"/>
<rect width="5.13202" height="5.87131" transform="matrix(1 0 0 -1 251.469 148.918)" fill="#A1A1A1"/>
<rect width="5.13202" height="5.87131" transform="matrix(1 0 0 -1 251.469 66.7227)" fill="#A1A1A1"/>
<rect width="5.13202" height="5.87131" transform="matrix(1 0 0 -1 251.469 31.4961)" fill="#A1A1A1"/>
<rect width="5.13202" height="5.87131" transform="matrix(1 0 0 -1 251.469 19.7461)" fill="#A1A1A1"/>
<rect width="5.13202" height="5.87131" transform="matrix(1 0 0 -1 66.7188 101.949)" fill="#A1A1A1"/>
<rect width="5.13202" height="5.87131" transform="matrix(1 0 0 -1 66.7188 137.176)" fill="#A1A1A1"/>
<rect width="5.13202" height="5.87131" transform="matrix(1 0 0 -1 66.7188 66.7227)" fill="#A1A1A1"/>
<rect width="5.13202" height="5.87131" transform="matrix(1 0 0 -1 66.7188 31.4961)" fill="#A1A1A1"/>
<rect width="5.13202" height="5.87131" transform="matrix(1 0 0 -1 66.7188 19.7461)" fill="#A1A1A1"/>
<rect width="5.13202" height="5.87131" transform="matrix(1 0 0 -1 148.828 101.949)" fill="#A1A1A1"/>
<rect width="5.13202" height="5.87131" transform="matrix(1 0 0 -1 148.828 137.176)" fill="#A1A1A1"/>
<rect width="5.13202" height="5.87131" transform="matrix(1 0 0 -1 148.828 148.918)" fill="#A1A1A1"/>
<rect width="5.13202" height="5.87131" transform="matrix(1 0 0 -1 10.2656 148.918)" fill="#A1A1A1"/>
<rect width="5.13202" height="5.87131" transform="matrix(1 0 0 -1 5.13281 143.043)" fill="#A1A1A1"/>
<rect width="5.13202" height="5.87131" transform="matrix(1 0 0 -1 0 137.176)" fill="#A1A1A1"/>
<rect width="5.13202" height="5.87131" transform="matrix(1 0 0 -1 148.828 66.7227)" fill="#A1A1A1"/>
<rect width="5.13202" height="5.87131" transform="matrix(1 0 0 -1 148.828 31.4961)" fill="#A1A1A1"/>
<rect width="5.13202" height="5.87131" transform="matrix(1 0 0 -1 148.828 19.7461)" fill="#A1A1A1"/>
<rect width="5.13202" height="5.87131" transform="matrix(1 0 0 -1 230.938 101.949)" fill="#A1A1A1"/>
<rect width="5.13202" height="5.87131" transform="matrix(1 0 0 -1 230.938 137.176)" fill="#A1A1A1"/>
<rect width="5.13202" height="5.87131" transform="matrix(1 0 0 -1 230.938 148.918)" fill="#A1A1A1"/>
<rect width="5.13202" height="5.87131" transform="matrix(1 0 0 -1 230.938 66.7227)" fill="#A1A1A1"/>
<rect width="5.13202" height="5.87131" transform="matrix(1 0 0 -1 230.938 31.4961)" fill="#A1A1A1"/>
<rect width="5.13202" height="5.87131" transform="matrix(1 0 0 -1 230.938 19.7461)" fill="#A1A1A1"/>
<rect width="5.13202" height="5.87131" transform="matrix(1 0 0 -1 107.773 101.949)" fill="#A1A1A1"/>
<rect width="5.13202" height="5.87131" transform="matrix(1 0 0 -1 107.773 66.7227)" fill="#A1A1A1"/>
<rect width="5.13202" height="5.87131" transform="matrix(1 0 0 -1 112.906 54.9727)" fill="#A1A1A1"/>
<rect width="5.13202" height="5.87131" transform="matrix(1 0 0 -1 189.883 101.949)" fill="#A1A1A1"/>
<rect width="5.13202" height="5.87131" transform="matrix(1 0 0 -1 189.883 137.176)" fill="#A1A1A1"/>
<rect width="5.13202" height="5.87131" transform="matrix(1 0 0 -1 189.883 148.918)" fill="#A1A1A1"/>
<rect width="5.13202" height="5.87131" transform="matrix(1 0 0 -1 51.3203 148.918)" fill="#A1A1A1"/>
<rect width="5.13202" height="5.87131" transform="matrix(1 0 0 -1 189.883 66.7227)" fill="#A1A1A1"/>
<rect width="5.13202" height="5.87131" transform="matrix(1 0 0 -1 189.883 31.4961)" fill="#A1A1A1"/>
<rect width="5.13202" height="5.87131" transform="matrix(1 0 0 -1 189.883 19.7461)" fill="#A1A1A1"/>
<rect width="5.87131" height="5.13202" transform="matrix(-0.000165797 1 1 0.000217006 10.2656 96.082)" fill="#A1A1A1"/>
<rect width="5.87131" height="5.13202" transform="matrix(-0.000165797 1 1 0.000217006 10.2656 131.309)" fill="#A1A1A1"/>
<rect width="5.87131" height="5.13202" transform="matrix(-0.000165797 1 1 0.000217006 41.0625 96.082)" fill="#A1A1A1"/>
<rect width="5.87131" height="5.13202" transform="matrix(-0.000165797 1 1 0.000217006 41.0625 131.309)" fill="#A1A1A1"/>
<rect width="5.87131" height="5.13202" transform="matrix(-0.000165797 1 1 0.000217006 71.8438 96.082)" fill="#A1A1A1"/>
<rect width="5.87131" height="5.13202" transform="matrix(-0.000165797 1 1 0.000217006 71.8438 131.309)" fill="#A1A1A1"/>
<rect width="5.87131" height="5.13202" transform="matrix(-0.000165797 1 1 0.000217006 102.641 96.082)" fill="#A1A1A1"/>
<rect width="5.87131" height="5.13202" transform="matrix(-0.000165797 1 1 0.000217006 133.43 96.082)" fill="#A1A1A1"/>
<rect width="5.87131" height="5.13202" transform="matrix(-0.000165797 1 1 0.000217006 133.43 131.309)" fill="#A1A1A1"/>
<rect width="5.87131" height="5.13202" transform="matrix(-0.000165797 1 1 0.000217006 133.43 143.043)" fill="#A1A1A1"/>
<rect width="5.87131" height="5.13202" transform="matrix(-0.000165797 1 1 0.000217006 128.297 137.176)" fill="#A1A1A1"/>
<rect width="5.87131" height="5.13202" transform="matrix(-0.000165797 1 1 0.000217006 123.172 131.309)" fill="#A1A1A1"/>
<rect width="5.87131" height="5.13202" transform="matrix(-0.000165797 1 1 0.000217006 82.1172 131.309)" fill="#A1A1A1"/>
<rect width="5.87131" height="5.13202" transform="matrix(-0.000165797 1 1 0.000217006 76.9766 137.176)" fill="#A1A1A1"/>
<rect width="5.87131" height="5.13202" transform="matrix(-0.000165797 1 1 0.000217006 123.172 125.434)" fill="#A1A1A1"/>
<rect width="5.87131" height="5.13202" transform="matrix(-0.000165797 1 1 0.000217006 82.1172 125.434)" fill="#A1A1A1"/>
<rect width="5.87131" height="5.13202" transform="matrix(-0.000165797 1 1 0.000217006 123.172 119.559)" fill="#A1A1A1"/>
<rect width="5.87131" height="5.13202" transform="matrix(-0.000165797 1 1 0.000217006 82.1172 119.559)" fill="#A1A1A1"/>
<rect width="5.87131" height="5.13202" transform="matrix(-0.000165797 1 1 0.000217006 123.172 113.691)" fill="#A1A1A1"/>
<rect width="5.87131" height="5.13202" transform="matrix(-0.000165797 1 1 0.000217006 82.1172 113.691)" fill="#A1A1A1"/>
<rect width="5.87131" height="5.13202" transform="matrix(-0.000165797 1 1 0.000217006 123.172 107.816)" fill="#A1A1A1"/>
<rect width="5.87131" height="5.13202" transform="matrix(-0.000165797 1 1 0.000217006 118.039 107.816)" fill="#A1A1A1"/>
<rect width="5.87131" height="5.13202" transform="matrix(-0.000165797 1 1 0.000217006 112.906 107.816)" fill="#A1A1A1"/>
<rect width="5.87131" height="5.13202" transform="matrix(-0.000165797 1 1 0.000217006 107.773 107.816)" fill="#A1A1A1"/>
<rect width="5.87131" height="5.13202" transform="matrix(-0.000165797 1 1 0.000217006 102.641 107.816)" fill="#A1A1A1"/>
<rect width="5.87131" height="5.13202" transform="matrix(-0.000165797 1 1 0.000217006 97.5078 107.816)" fill="#A1A1A1"/>
<rect width="5.87131" height="5.13202" transform="matrix(-0.000165797 1 1 0.000217006 92.375 107.816)" fill="#A1A1A1"/>
<rect width="5.87131" height="5.13202" transform="matrix(-0.000165797 1 1 0.000217006 87.2422 107.816)" fill="#A1A1A1"/>
<rect width="5.87131" height="5.13202" transform="matrix(-0.000165797 1 1 0.000217006 82.1172 107.816)" fill="#A1A1A1"/>
<rect width="5.87131" height="5.13202" transform="matrix(-0.000165797 1 1 0.000217006 164.227 96.082)" fill="#A1A1A1"/>
<rect width="5.87131" height="5.13202" transform="matrix(-0.000165797 1 1 0.000217006 164.227 131.309)" fill="#A1A1A1"/>
<rect width="5.87131" height="5.13202" transform="matrix(-0.000165797 1 1 0.000217006 164.227 143.043)" fill="#A1A1A1"/>
<rect width="5.87131" height="5.13202" transform="matrix(-0.000165797 1 1 0.000217006 25.6641 143.043)" fill="#A1A1A1"/>
<rect width="5.87131" height="5.13202" transform="matrix(-0.000165797 1 1 0.000217006 195.023 96.082)" fill="#A1A1A1"/>
<rect width="5.87131" height="5.13202" transform="matrix(-0.000165797 1 1 0.000217006 195.023 131.309)" fill="#A1A1A1"/>
<rect width="5.87131" height="5.13202" transform="matrix(-0.000165797 1 1 0.000217006 195.023 143.043)" fill="#A1A1A1"/>
<rect width="5.87131" height="5.13202" transform="matrix(-0.000165797 1 1 0.000217006 56.4531 143.043)" fill="#A1A1A1"/>
<rect width="5.87131" height="5.13202" transform="matrix(-0.000165797 1 1 0.000217006 225.805 96.082)" fill="#A1A1A1"/>
<rect width="5.87131" height="5.13202" transform="matrix(-0.000165797 1 1 0.000217006 225.805 131.309)" fill="#A1A1A1"/>
<rect width="5.87131" height="5.13202" transform="matrix(-0.000165797 1 1 0.000217006 225.805 143.043)" fill="#A1A1A1"/>
<rect width="5.87131" height="5.13202" transform="matrix(-0.000165797 1 1 0.000217006 256.602 96.082)" fill="#A1A1A1"/>
<rect width="5.87131" height="5.13202" transform="matrix(-0.000165797 1 1 0.000217006 256.602 131.309)" fill="#A1A1A1"/>
<rect width="5.13202" height="5.87131" transform="matrix(1 0 0 -1 41.0625 101.949)" fill="#A1A1A1"/>
<rect width="5.13202" height="5.87131" transform="matrix(1 0 0 -1 41.0625 137.176)" fill="#A1A1A1"/>
<rect width="5.13202" height="5.87131" transform="matrix(1 0 0 -1 123.172 101.949)" fill="#A1A1A1"/>
<rect width="5.13202" height="5.87131" transform="matrix(1 0 0 -1 123.172 66.7227)" fill="#A1A1A1"/>
<rect width="5.13202" height="5.87131" transform="matrix(1 0 0 -1 205.281 101.949)" fill="#A1A1A1"/>
<rect width="5.13202" height="5.87131" transform="matrix(1 0 0 -1 205.281 137.176)" fill="#A1A1A1"/>
<rect width="5.13202" height="5.87131" transform="matrix(1 0 0 -1 205.281 148.918)" fill="#A1A1A1"/>
<rect width="5.13202" height="5.87131" transform="matrix(1 0 0 -1 66.7188 148.918)" fill="#A1A1A1"/>
<rect width="5.13202" height="5.87131" transform="matrix(1 0 0 -1 205.281 66.7227)" fill="#A1A1A1"/>
<rect width="5.13202" height="5.87131" transform="matrix(1 0 0 -1 205.281 31.4961)" fill="#A1A1A1"/>
<rect width="5.13202" height="5.87131" transform="matrix(1 0 0 -1 205.281 19.7461)" fill="#A1A1A1"/>
<rect width="5.13202" height="5.87131" transform="matrix(1 0 0 -1 82.1172 101.949)" fill="#A1A1A1"/>
<rect width="5.13202" height="5.87131" transform="matrix(1 0 0 -1 82.1172 66.7227)" fill="#A1A1A1"/>
<rect width="5.13202" height="5.87131" transform="matrix(1 0 0 -1 87.2422 54.9727)" fill="#A1A1A1"/>
<rect width="5.13202" height="5.87131" transform="matrix(1 0 0 -1 246.336 101.949)" fill="#A1A1A1"/>
<rect width="5.13202" height="5.87131" transform="matrix(1 0 0 -1 246.336 137.176)" fill="#A1A1A1"/>
<rect width="5.13202" height="5.87131" transform="matrix(1 0 0 -1 246.336 148.918)" fill="#A1A1A1"/>
<rect width="5.13202" height="5.87131" transform="matrix(1 0 0 -1 246.336 66.7227)" fill="#A1A1A1"/>
<rect width="5.13202" height="5.87131" transform="matrix(1 0 0 -1 246.336 31.4961)" fill="#A1A1A1"/>
<rect width="5.13202" height="5.87131" transform="matrix(1 0 0 -1 246.336 19.7461)" fill="#A1A1A1"/>
<rect width="5.13202" height="5.87131" transform="matrix(1 0 0 -1 61.5859 101.949)" fill="#A1A1A1"/>
<rect width="5.13202" height="5.87131" transform="matrix(1 0 0 -1 61.5859 137.176)" fill="#A1A1A1"/>
<rect width="5.13202" height="5.87131" transform="matrix(1 0 0 -1 61.5859 66.7227)" fill="#A1A1A1"/>
<rect width="5.13202" height="5.87131" transform="matrix(1 0 0 -1 61.5859 31.4961)" fill="#A1A1A1"/>
<rect width="5.13202" height="5.87131" transform="matrix(1 0 0 -1 61.5859 19.7461)" fill="#A1A1A1"/>
<rect width="5.13202" height="5.87131" transform="matrix(1 0 0 -1 143.695 101.949)" fill="#A1A1A1"/>
<rect width="5.13202" height="5.87131" transform="matrix(1 0 0 -1 143.695 137.176)" fill="#A1A1A1"/>
<rect width="5.13202" height="5.87131" transform="matrix(1 0 0 -1 143.695 148.918)" fill="#A1A1A1"/>
<rect width="5.13202" height="5.87131" transform="matrix(1 0 0 -1 143.695 66.7227)" fill="#A1A1A1"/>
<rect width="5.13202" height="5.87131" transform="matrix(1 0 0 -1 143.695 31.4961)" fill="#A1A1A1"/>
<rect width="5.13202" height="5.87131" transform="matrix(1 0 0 -1 143.695 19.7461)" fill="#A1A1A1"/>
<rect width="5.13202" height="5.87131" transform="matrix(1 0 0 -1 251.469 101.949)" fill="#A1A1A1"/>
<rect width="5.13202" height="5.87131" transform="matrix(1 0 0 -1 251.469 137.176)" fill="#A1A1A1"/>
<rect width="5.13202" height="5.87131" transform="matrix(1 0 0 -1 251.469 148.918)" fill="#A1A1A1"/>
<rect width="5.13202" height="5.87131" transform="matrix(1 0 0 -1 251.469 66.7227)" fill="#A1A1A1"/>
<rect width="5.13202" height="5.87131" transform="matrix(1 0 0 -1 251.469 31.4961)" fill="#A1A1A1"/>
<rect width="5.13202" height="5.87131" transform="matrix(1 0 0 -1 251.469 19.7461)" fill="#A1A1A1"/>
<rect width="5.13202" height="5.87131" transform="matrix(1 0 0 -1 184.75 101.949)" fill="#A1A1A1"/>
<rect width="5.13202" height="5.87131" transform="matrix(1 0 0 -1 184.75 137.176)" fill="#A1A1A1"/>
<rect width="5.13202" height="5.87131" transform="matrix(1 0 0 -1 184.75 148.918)" fill="#A1A1A1"/>
<rect width="5.13202" height="5.87131" transform="matrix(1 0 0 -1 46.1875 148.918)" fill="#A1A1A1"/>
<rect width="5.13202" height="5.87131" transform="matrix(1 0 0 -1 184.75 66.7227)" fill="#A1A1A1"/>
<rect width="5.13202" height="5.87131" transform="matrix(1 0 0 -1 184.75 31.4961)" fill="#A1A1A1"/>
<rect width="5.13202" height="5.87131" transform="matrix(1 0 0 -1 184.75 19.7461)" fill="#A1A1A1"/>
<rect width="5.13202" height="5.87131" transform="matrix(1 0 0 -1 51.3203 101.949)" fill="#A1A1A1"/>
<rect width="5.13202" height="5.87131" transform="matrix(1 0 0 -1 51.3203 137.176)" fill="#A1A1A1"/>
<rect width="5.13202" height="5.87131" transform="matrix(1 0 0 -1 51.3203 66.7227)" fill="#A1A1A1"/>
<rect width="5.13202" height="5.87131" transform="matrix(1 0 0 -1 51.3203 31.4961)" fill="#A1A1A1"/>
<rect width="5.13202" height="5.87131" transform="matrix(1 0 0 -1 51.3203 19.7461)" fill="#A1A1A1"/>
<rect width="5.13202" height="5.87131" transform="matrix(1 0 0 -1 138.57 101.949)" fill="#A1A1A1"/>
<rect width="5.13202" height="5.87131" transform="matrix(1 0 0 -1 138.57 137.176)" fill="#A1A1A1"/>
<rect width="5.13202" height="5.87131" transform="matrix(1 0 0 -1 138.57 148.918)" fill="#A1A1A1"/>
<rect width="5.13202" height="5.87131" transform="matrix(1 0 0 -1 138.57 66.7227)" fill="#A1A1A1"/>
<rect width="5.13202" height="5.87131" transform="matrix(1 0 0 -1 138.57 31.4961)" fill="#A1A1A1"/>
<rect width="5.13202" height="5.87131" transform="matrix(1 0 0 -1 138.57 19.7461)" fill="#A1A1A1"/>
<rect width="5.13202" height="5.87131" transform="matrix(1 0 0 -1 215.547 101.949)" fill="#A1A1A1"/>
<rect width="5.13202" height="5.87131" transform="matrix(1 0 0 -1 215.547 137.176)" fill="#A1A1A1"/>
<rect width="5.13202" height="5.87131" transform="matrix(1 0 0 -1 215.547 148.918)" fill="#A1A1A1"/>
<rect width="5.13202" height="5.87131" transform="matrix(1 0 0 -1 215.547 66.7227)" fill="#A1A1A1"/>
<rect width="5.13202" height="5.87131" transform="matrix(1 0 0 -1 215.547 31.4961)" fill="#A1A1A1"/>
<rect width="5.13202" height="5.87131" transform="matrix(1 0 0 -1 215.547 19.7461)" fill="#A1A1A1"/>
<rect width="5.13202" height="5.87131" transform="matrix(1 0 0 -1 92.375 101.949)" fill="#A1A1A1"/>
<rect width="5.13202" height="5.87131" transform="matrix(1 0 0 -1 92.375 66.7227)" fill="#A1A1A1"/>
<rect width="5.13202" height="5.87131" transform="matrix(1 0 0 -1 97.5078 54.9727)" fill="#A1A1A1"/>
<rect width="5.13202" height="5.87131" transform="matrix(1 0 0 -1 174.484 101.949)" fill="#A1A1A1"/>
<rect width="5.13202" height="5.87131" transform="matrix(1 0 0 -1 174.484 137.176)" fill="#A1A1A1"/>
<rect width="5.13202" height="5.87131" transform="matrix(1 0 0 -1 174.484 148.918)" fill="#A1A1A1"/>
<rect width="5.13202" height="5.87131" transform="matrix(1 0 0 -1 35.9297 148.918)" fill="#A1A1A1"/>
<rect width="5.13202" height="5.87131" transform="matrix(1 0 0 -1 174.484 66.7227)" fill="#A1A1A1"/>
<rect width="5.13202" height="5.87131" transform="matrix(1 0 0 -1 174.484 31.4961)" fill="#A1A1A1"/>
<rect width="5.13202" height="5.87131" transform="matrix(1 0 0 -1 174.484 19.7461)" fill="#A1A1A1"/>
<rect width="5.13202" height="5.87131" transform="matrix(1 0 0 -1 153.961 101.949)" fill="#A1A1A1"/>
<rect width="5.13202" height="5.87131" transform="matrix(1 0 0 -1 153.961 137.176)" fill="#A1A1A1"/>
<rect width="5.13202" height="5.87131" transform="matrix(1 0 0 -1 153.961 148.918)" fill="#A1A1A1"/>
<rect width="5.13202" height="5.87131" transform="matrix(1 0 0 -1 15.3906 148.918)" fill="#A1A1A1"/>
<rect width="5.13202" height="5.87131" transform="matrix(1 0 0 -1 153.961 66.7227)" fill="#A1A1A1"/>
<rect width="5.13202" height="5.87131" transform="matrix(1 0 0 -1 153.961 31.4961)" fill="#A1A1A1"/>
<rect width="5.13202" height="5.87131" transform="matrix(1 0 0 -1 153.961 19.7461)" fill="#A1A1A1"/>
<rect width="5.13202" height="5.87131" transform="matrix(1 0 0 -1 236.07 101.949)" fill="#A1A1A1"/>
<rect width="5.13202" height="5.87131" transform="matrix(1 0 0 -1 236.07 137.176)" fill="#A1A1A1"/>
<rect width="5.13202" height="5.87131" transform="matrix(1 0 0 -1 236.07 148.918)" fill="#A1A1A1"/>
<rect width="5.13202" height="5.87131" transform="matrix(1 0 0 -1 236.07 66.7227)" fill="#A1A1A1"/>
<rect width="5.13202" height="5.87131" transform="matrix(1 0 0 -1 236.07 31.4961)" fill="#A1A1A1"/>
<rect width="5.13202" height="5.87131" transform="matrix(1 0 0 -1 236.07 19.7461)" fill="#A1A1A1"/>
<rect width="5.13202" height="5.87131" transform="matrix(1 0 0 -1 112.906 101.949)" fill="#A1A1A1"/>
<rect width="5.13202" height="5.87131" transform="matrix(1 0 0 -1 112.906 66.7227)" fill="#A1A1A1"/>
<rect width="5.13202" height="5.87131" transform="matrix(1 0 0 -1 118.039 54.9727)" fill="#A1A1A1"/>
<rect width="5.87131" height="5.13202" transform="matrix(-3.82074e-08 -1 -1 5.00082e-08 35.9297 101.949)" fill="black"/>
<rect width="5.87131" height="5.13202" transform="matrix(-3.82074e-08 -1 -1 5.00082e-08 35.9297 137.176)" fill="black"/>
<rect width="5.87131" height="5.13202" transform="matrix(-3.82074e-08 -1 -1 5.00082e-08 35.9297 66.7227)" fill="black"/>
<rect width="5.87131" height="5.13202" transform="matrix(-3.82074e-08 -1 -1 5.00082e-08 35.9297 31.4961)" fill="black"/>
<rect width="5.87131" height="5.13202" transform="matrix(-3.82074e-08 -1 -1 5.00082e-08 35.9297 19.7461)" fill="black"/>
<rect width="5.87131" height="5.13202" transform="matrix(-3.82074e-08 -1 -1 5.00082e-08 35.9297 101.949)" fill="#A1A1A1"/>
<rect width="5.87131" height="5.13202" transform="matrix(-3.82074e-08 -1 -1 5.00082e-08 35.9297 137.176)" fill="#A1A1A1"/>
<rect width="5.87131" height="5.13202" transform="matrix(-3.82074e-08 -1 -1 5.00082e-08 35.9297 66.7227)" fill="#A1A1A1"/>
<rect width="5.87131" height="5.13202" transform="matrix(-3.82074e-08 -1 -1 5.00082e-08 35.9297 31.4961)" fill="#A1A1A1"/>
<rect width="5.87131" height="5.13202" transform="matrix(-3.82074e-08 -1 -1 5.00082e-08 35.9297 19.7461)" fill="#A1A1A1"/>
<rect width="5.87131" height="5.13202" transform="matrix(-3.82074e-08 -1 -1 5.00082e-08 205.281 101.949)" fill="#A1A1A1"/>
<rect width="5.87131" height="5.13202" transform="matrix(-3.82074e-08 -1 -1 5.00082e-08 205.281 137.176)" fill="#A1A1A1"/>
<rect width="5.87131" height="5.13202" transform="matrix(-3.82074e-08 -1 -1 5.00082e-08 205.281 148.918)" fill="#A1A1A1"/>
<rect width="5.87131" height="5.13202" transform="matrix(-3.82074e-08 -1 -1 5.00082e-08 66.7188 148.918)" fill="#A1A1A1"/>
<rect width="5.87131" height="5.13202" transform="matrix(-3.82074e-08 -1 -1 5.00082e-08 205.281 66.7227)" fill="#A1A1A1"/>
<rect width="5.87131" height="5.13202" transform="matrix(-3.82074e-08 -1 -1 5.00082e-08 205.281 31.4961)" fill="#A1A1A1"/>
<rect width="5.87131" height="5.13202" transform="matrix(-3.82074e-08 -1 -1 5.00082e-08 205.281 19.7461)" fill="#A1A1A1"/>
<rect x="76.9766" y="101.949" width="5.87131" height="5.13202" transform="rotate(-90 76.9766 101.949)" fill="#A1A1A1"/>
<rect x="76.9766" y="66.7227" width="5.87131" height="5.13202" transform="rotate(-90 76.9766 66.7227)" fill="#A1A1A1"/>
<rect width="5.87131" height="5.13202" transform="matrix(-3.82074e-08 -1 -1 5.00082e-08 41.0625 101.949)" fill="#A1A1A1"/>
<rect width="5.87131" height="5.13202" transform="matrix(-3.82074e-08 -1 -1 5.00082e-08 41.0625 137.176)" fill="#A1A1A1"/>
<rect width="5.87131" height="5.13202" transform="matrix(-3.82074e-08 -1 -1 5.00082e-08 41.0625 66.7227)" fill="#A1A1A1"/>
<rect width="5.87131" height="5.13202" transform="matrix(-3.82074e-08 -1 -1 5.00082e-08 41.0625 31.4961)" fill="#A1A1A1"/>
<rect width="5.87131" height="5.13202" transform="matrix(-3.82074e-08 -1 -1 5.00082e-08 41.0625 19.7461)" fill="#A1A1A1"/>
<rect width="5.13202" height="5.87131" transform="matrix(0.999999 -0.00143247 -0.00109444 -0.999999 10.2656 72.5898)" fill="#A1A1A1"/>
<rect width="5.13202" height="5.87131" transform="matrix(0.999999 -0.00143247 -0.00109444 -0.999999 10.2656 107.816)" fill="#A1A1A1"/>
<rect width="5.13202" height="5.87131" transform="matrix(0.999999 -0.00143247 -0.00109444 -0.999999 10.2656 37.3633)" fill="#A1A1A1"/>
<rect width="5.13202" height="5.87131" transform="matrix(0.999999 -0.00143247 -0.00109444 -0.999999 41.0625 72.5898)" fill="#A1A1A1"/>
<rect width="5.13202" height="5.87131" transform="matrix(0.999999 -0.00143247 -0.00109444 -0.999999 41.0625 107.816)" fill="#A1A1A1"/>
<rect width="5.13202" height="5.87131" transform="matrix(0.999999 -0.00143247 -0.00109444 -0.999999 41.0625 37.3633)" fill="#A1A1A1"/>
<rect width="5.13202" height="5.87131" transform="matrix(0.999999 -0.00143247 -0.00109444 -0.999999 71.8438 72.5898)" fill="#A1A1A1"/>
<rect width="5.13202" height="5.87131" transform="matrix(0.999999 -0.00143247 -0.00109444 -0.999999 71.8438 107.816)" fill="#A1A1A1"/>
<rect width="5.13202" height="5.87131" transform="matrix(0.999999 -0.00143247 -0.00109444 -0.999999 71.8438 37.3633)" fill="#A1A1A1"/>
<rect width="5.13202" height="5.87131" transform="matrix(0.999999 -0.00143247 -0.00109444 -0.999999 82.1172 37.3633)" fill="#A1A1A1"/>
<rect width="5.13202" height="5.87131" transform="matrix(0.999999 -0.00143247 -0.00109444 -0.999999 102.641 72.5898)" fill="#A1A1A1"/>
<rect width="5.13202" height="5.87131" transform="matrix(0.999999 -0.00143247 -0.00109444 -0.999999 133.43 72.5898)" fill="#A1A1A1"/>
<rect width="5.13202" height="5.87131" transform="matrix(0.999999 -0.00143247 -0.00109444 -0.999999 133.43 107.816)" fill="#A1A1A1"/>
<rect width="5.13202" height="5.87131" transform="matrix(0.999999 -0.00143247 -0.00109444 -0.999999 133.43 37.3633)" fill="#A1A1A1"/>
<rect width="5.13202" height="5.87131" transform="matrix(0.999999 -0.00143247 -0.00109444 -0.999999 123.172 37.3633)" fill="#A1A1A1"/>
<rect width="5.13202" height="5.87131" transform="matrix(0.999999 -0.00143247 -0.00109444 -0.999999 123.172 31.4961)" fill="#A1A1A1"/>
<rect width="5.13202" height="5.87131" transform="matrix(0.999999 -0.00143247 -0.00109444 -0.999999 128.297 25.6211)" fill="#A1A1A1"/>
<rect width="5.13202" height="5.87131" transform="matrix(0.999999 -0.00143247 -0.00109444 -0.999999 133.43 19.7461)" fill="#A1A1A1"/>
<rect width="5.13202" height="5.87131" transform="matrix(0.999999 -0.00143247 -0.00109444 -0.999999 164.227 72.5898)" fill="#A1A1A1"/>
<rect width="5.13202" height="5.87131" transform="matrix(0.999999 -0.00143247 -0.00109444 -0.999999 164.227 107.816)" fill="#A1A1A1"/>
<rect width="5.13202" height="5.87131" transform="matrix(0.999999 -0.00143247 -0.00109444 -0.999999 164.227 37.3633)" fill="#A1A1A1"/>
<rect width="5.13202" height="5.87131" transform="matrix(0.999999 -0.00143247 -0.00109444 -0.999999 195.023 72.5898)" fill="#A1A1A1"/>
<rect width="5.13202" height="5.87131" transform="matrix(0.999999 -0.00143247 -0.00109444 -0.999999 195.023 107.816)" fill="#A1A1A1"/>
<rect width="5.13202" height="5.87131" transform="matrix(0.999999 -0.00143247 -0.00109444 -0.999999 195.023 37.3633)" fill="#A1A1A1"/>
<rect width="5.13202" height="5.87131" transform="matrix(0.999999 -0.00143247 -0.00109444 -0.999999 225.805 72.5898)" fill="#A1A1A1"/>
<rect width="5.13202" height="5.87131" transform="matrix(0.999999 -0.00143247 -0.00109444 -0.999999 225.805 107.816)" fill="#A1A1A1"/>
<rect width="5.13202" height="5.87131" transform="matrix(0.999999 -0.00143247 -0.00109444 -0.999999 225.805 37.3633)" fill="#A1A1A1"/>
<rect width="5.13202" height="5.87131" transform="matrix(0.999999 -0.00143247 -0.00109444 -0.999999 256.602 72.5898)" fill="#A1A1A1"/>
<rect width="5.13202" height="5.87131" transform="matrix(0.999999 -0.00143247 -0.00109444 -0.999999 256.602 107.816)" fill="#A1A1A1"/>
<rect width="5.13202" height="5.87131" transform="matrix(0.999999 -0.00143247 -0.00109444 -0.999999 256.602 37.3633)" fill="#A1A1A1"/>
<rect width="5.13202" height="5.87131" transform="matrix(0.999999 -0.00143247 -0.00109444 -0.999999 10.2656 96.082)" fill="#A1A1A1"/>
<rect width="5.13202" height="5.87131" transform="matrix(0.999999 -0.00143247 -0.00109444 -0.999999 10.2656 131.309)" fill="#A1A1A1"/>
<rect width="5.13202" height="5.87131" transform="matrix(0.999999 -0.00143247 -0.00109444 -0.999999 10.2656 60.8477)" fill="#A1A1A1"/>
<rect width="5.13202" height="5.87131" transform="matrix(0.999999 -0.00143247 -0.00109444 -0.999999 41.0625 96.082)" fill="#A1A1A1"/>
<rect width="5.13202" height="5.87131" transform="matrix(0.999999 -0.00143247 -0.00109444 -0.999999 41.0625 131.309)" fill="#A1A1A1"/>
<rect width="5.13202" height="5.87131" transform="matrix(0.999999 -0.00143247 -0.00109444 -0.999999 41.0625 60.8477)" fill="#A1A1A1"/>
<rect width="5.13202" height="5.87131" transform="matrix(0.999999 -0.00143247 -0.00109444 -0.999999 71.8438 96.082)" fill="#A1A1A1"/>
<rect width="5.13202" height="5.87131" transform="matrix(0.999999 -0.00143247 -0.00109444 -0.999999 71.8438 131.309)" fill="#A1A1A1"/>
<rect width="5.13202" height="5.87131" transform="matrix(0.999999 -0.00143247 -0.00109444 -0.999999 71.8438 60.8477)" fill="#A1A1A1"/>
<rect width="5.13202" height="5.87131" transform="matrix(0.999999 -0.00143247 -0.00109444 -0.999999 102.641 96.082)" fill="#A1A1A1"/>
<rect width="5.13202" height="5.87131" transform="matrix(0.999999 -0.00143247 -0.00109444 -0.999999 133.43 96.082)" fill="#A1A1A1"/>
<rect width="5.13202" height="5.87131" transform="matrix(0.999999 -0.00143247 -0.00109444 -0.999999 133.43 131.309)" fill="#A1A1A1"/>
<rect width="5.13202" height="5.87131" transform="matrix(0.999999 -0.00143247 -0.00109444 -0.999999 133.43 60.8477)" fill="#A1A1A1"/>
<rect width="5.13202" height="5.87131" transform="matrix(0.999999 -0.00143247 -0.00109444 -0.999999 164.227 96.082)" fill="#A1A1A1"/>
<rect width="5.13202" height="5.87131" transform="matrix(0.999999 -0.00143247 -0.00109444 -0.999999 164.227 131.309)" fill="#A1A1A1"/>
<rect width="5.13202" height="5.87131" transform="matrix(0.999999 -0.00143247 -0.00109444 -0.999999 164.227 60.8477)" fill="#A1A1A1"/>
<rect width="5.13202" height="5.87131" transform="matrix(0.999999 -0.00143247 -0.00109444 -0.999999 195.023 96.082)" fill="#A1A1A1"/>
<rect width="5.13202" height="5.87131" transform="matrix(0.999999 -0.00143247 -0.00109444 -0.999999 195.023 131.309)" fill="#A1A1A1"/>
<rect width="5.13202" height="5.87131" transform="matrix(0.999999 -0.00143247 -0.00109444 -0.999999 195.023 60.8477)" fill="#A1A1A1"/>
<rect width="5.13202" height="5.87131" transform="matrix(0.999999 -0.00143247 -0.00109444 -0.999999 225.805 96.082)" fill="#A1A1A1"/>
<rect width="5.13202" height="5.87131" transform="matrix(0.999999 -0.00143247 -0.00109444 -0.999999 225.805 131.309)" fill="#A1A1A1"/>
<rect width="5.13202" height="5.87131" transform="matrix(0.999999 -0.00143247 -0.00109444 -0.999999 225.805 60.8477)" fill="#A1A1A1"/>
<rect width="5.13202" height="5.87131" transform="matrix(0.999999 -0.00143247 -0.00109444 -0.999999 256.602 96.082)" fill="#A1A1A1"/>
<rect width="5.13202" height="5.87131" transform="matrix(0.999999 -0.00143247 -0.00109444 -0.999999 256.602 131.309)" fill="#A1A1A1"/>
<rect width="5.13202" height="5.87131" transform="matrix(0.999999 -0.00143247 -0.00109444 -0.999999 256.602 60.8477)" fill="#A1A1A1"/>
<rect width="5.87131" height="5.13202" transform="matrix(-3.82074e-08 -1 -1 5.00082e-08 25.6641 101.949)" fill="#A1A1A1"/>
<rect width="5.87131" height="5.13202" transform="matrix(-3.82074e-08 -1 -1 5.00082e-08 25.6641 137.176)" fill="#A1A1A1"/>
<rect width="5.87131" height="5.13202" transform="matrix(-3.82074e-08 -1 -1 5.00082e-08 25.6641 66.7227)" fill="#A1A1A1"/>
<rect width="5.87131" height="5.13202" transform="matrix(-3.82074e-08 -1 -1 5.00082e-08 25.6641 31.4961)" fill="#A1A1A1"/>
<rect width="5.87131" height="5.13202" transform="matrix(-3.82074e-08 -1 -1 5.00082e-08 25.6641 19.7461)" fill="#A1A1A1"/>
<rect width="5.87131" height="5.13202" transform="matrix(-3.82074e-08 -1 -1 5.00082e-08 25.6641 101.949)" fill="#A1A1A1"/>
<rect width="5.87131" height="5.13202" transform="matrix(-3.82074e-08 -1 -1 5.00082e-08 25.6641 137.176)" fill="#A1A1A1"/>
<rect width="5.87131" height="5.13202" transform="matrix(-3.82074e-08 -1 -1 5.00082e-08 25.6641 66.7227)" fill="#A1A1A1"/>
<rect width="5.87131" height="5.13202" transform="matrix(-3.82074e-08 -1 -1 5.00082e-08 25.6641 31.4961)" fill="#A1A1A1"/>
<rect width="5.87131" height="5.13202" transform="matrix(-3.82074e-08 -1 -1 5.00082e-08 25.6641 19.7461)" fill="#A1A1A1"/>
<rect width="5.87131" height="5.13202" transform="matrix(-3.82074e-08 -1 -1 5.00082e-08 15.3906 84.332)" fill="#A1A1A1"/>
<rect width="5.87131" height="5.13202" transform="matrix(-3.82074e-08 -1 -1 5.00082e-08 15.3906 119.559)" fill="#A1A1A1"/>
<rect width="5.87131" height="5.13202" transform="matrix(-3.82074e-08 -1 -1 5.00082e-08 15.3906 49.1055)" fill="#A1A1A1"/>
<rect width="5.87131" height="5.13202" transform="matrix(-3.82074e-08 -1 -1 5.00082e-08 46.1875 84.332)" fill="#A1A1A1"/>
<rect width="5.87131" height="5.13202" transform="matrix(-3.82074e-08 -1 -1 5.00082e-08 46.1875 119.559)" fill="#A1A1A1"/>
<rect width="5.87131" height="5.13202" transform="matrix(-3.82074e-08 -1 -1 5.00082e-08 46.1875 49.1055)" fill="#A1A1A1"/>
<rect width="5.87131" height="5.13202" transform="matrix(-3.82074e-08 -1 -1 5.00082e-08 51.3203 49.1055)" fill="#A1A1A1"/>
<rect width="5.87131" height="5.13202" transform="matrix(-3.82074e-08 -1 -1 5.00082e-08 51.3203 119.559)" fill="#A1A1A1"/>
<rect width="5.87131" height="5.13202" transform="matrix(-3.82074e-08 -1 -1 5.00082e-08 143.695 84.332)" fill="#A1A1A1"/>
<rect width="5.87131" height="5.13202" transform="matrix(-3.82074e-08 -1 -1 5.00082e-08 236.07 49.1055)" fill="#A1A1A1"/>
<rect width="5.87131" height="5.13202" transform="matrix(-3.82074e-08 -1 -1 5.00082e-08 236.07 119.559)" fill="#A1A1A1"/>
<rect width="5.87131" height="5.13202" transform="matrix(-3.82074e-08 -1 -1 5.00082e-08 56.4531 43.2383)" fill="#A1A1A1"/>
<rect width="5.87131" height="5.13202" transform="matrix(-3.82074e-08 -1 -1 5.00082e-08 56.4531 113.691)" fill="#A1A1A1"/>
<rect width="5.87131" height="5.13202" transform="matrix(-3.82074e-08 -1 -1 5.00082e-08 148.828 78.4648)" fill="#A1A1A1"/>
<rect width="5.87131" height="5.13202" transform="matrix(-3.82074e-08 -1 -1 5.00082e-08 241.203 43.2383)" fill="#A1A1A1"/>
<rect width="5.87131" height="5.13202" transform="matrix(-3.82074e-08 -1 -1 5.00082e-08 241.203 113.691)" fill="#A1A1A1"/>
<rect width="5.87131" height="5.13202" transform="matrix(-3.82074e-08 -1 -1 5.00082e-08 61.5859 37.3633)" fill="#A1A1A1"/>
<rect width="5.87131" height="5.13202" transform="matrix(-3.82074e-08 -1 -1 5.00082e-08 61.5859 107.816)" fill="#A1A1A1"/>
<rect width="5.87131" height="5.13202" transform="matrix(-3.82074e-08 -1 -1 5.00082e-08 153.961 72.5898)" fill="#A1A1A1"/>
<rect width="5.87131" height="5.13202" transform="matrix(-3.82074e-08 -1 -1 5.00082e-08 246.336 37.3633)" fill="#A1A1A1"/>
<rect width="5.87131" height="5.13202" transform="matrix(-3.82074e-08 -1 -1 5.00082e-08 246.336 107.816)" fill="#A1A1A1"/>
<rect width="5.87131" height="5.13202" transform="matrix(-3.82074e-08 -1 -1 5.00082e-08 66.7188 43.2383)" fill="#A1A1A1"/>
<rect width="5.87131" height="5.13202" transform="matrix(-3.82074e-08 -1 -1 5.00082e-08 66.7188 113.691)" fill="#A1A1A1"/>
<rect width="5.87131" height="5.13202" transform="matrix(-3.82074e-08 -1 -1 5.00082e-08 159.094 78.4648)" fill="#A1A1A1"/>
<rect width="5.87131" height="5.13202" transform="matrix(-3.82074e-08 -1 -1 5.00082e-08 251.469 43.2383)" fill="#A1A1A1"/>
<rect width="5.87131" height="5.13202" transform="matrix(-3.82074e-08 -1 -1 5.00082e-08 251.469 113.691)" fill="#A1A1A1"/>
<rect width="5.87131" height="5.13202" transform="matrix(-3.82074e-08 -1 -1 5.00082e-08 71.8438 49.1055)" fill="#A1A1A1"/>
<rect width="5.87131" height="5.13202" transform="matrix(-3.82074e-08 -1 -1 5.00082e-08 71.8438 119.559)" fill="#A1A1A1"/>
<rect width="5.87131" height="5.13202" transform="matrix(-3.82074e-08 -1 -1 5.00082e-08 164.227 84.332)" fill="#A1A1A1"/>
<rect width="5.87131" height="5.13202" transform="matrix(-3.82074e-08 -1 -1 5.00082e-08 256.602 49.1055)" fill="#A1A1A1"/>
<rect width="5.87131" height="5.13202" transform="matrix(-3.82074e-08 -1 -1 5.00082e-08 256.602 119.559)" fill="#A1A1A1"/>
<rect width="5.87131" height="5.13202" transform="matrix(-3.82074e-08 -1 -1 5.00082e-08 66.7188 54.9727)" fill="#A1A1A1"/>
<rect width="5.87131" height="5.13202" transform="matrix(-3.82074e-08 -1 -1 5.00082e-08 66.7188 125.434)" fill="#A1A1A1"/>
<rect width="5.87131" height="5.13202" transform="matrix(-3.82074e-08 -1 -1 5.00082e-08 159.094 90.207)" fill="#A1A1A1"/>
<rect width="5.87131" height="5.13202" transform="matrix(-3.82074e-08 -1 -1 5.00082e-08 251.469 54.9727)" fill="#A1A1A1"/>
<rect width="5.87131" height="5.13202" transform="matrix(-3.82074e-08 -1 -1 5.00082e-08 251.469 125.434)" fill="#A1A1A1"/>
<rect width="5.87131" height="5.13202" transform="matrix(-3.82074e-08 -1 -1 5.00082e-08 61.5859 60.8477)" fill="#A1A1A1"/>
<rect width="5.87131" height="5.13202" transform="matrix(-3.82074e-08 -1 -1 5.00082e-08 61.5859 131.309)" fill="#A1A1A1"/>
<rect width="5.87131" height="5.13202" transform="matrix(-3.82074e-08 -1 -1 5.00082e-08 153.961 96.082)" fill="#A1A1A1"/>
<rect width="5.87131" height="5.13202" transform="matrix(-3.82074e-08 -1 -1 5.00082e-08 246.336 60.8477)" fill="#A1A1A1"/>
<rect width="5.87131" height="5.13202" transform="matrix(-3.82074e-08 -1 -1 5.00082e-08 246.336 131.309)" fill="#A1A1A1"/>
<rect width="5.87131" height="5.13202" transform="matrix(-3.82074e-08 -1 -1 5.00082e-08 56.4531 54.9727)" fill="#A1A1A1"/>
<rect width="5.87131" height="5.13202" transform="matrix(-3.82074e-08 -1 -1 5.00082e-08 56.4531 125.434)" fill="#A1A1A1"/>
<rect width="5.87131" height="5.13202" transform="matrix(-3.82074e-08 -1 -1 5.00082e-08 148.828 90.207)" fill="#A1A1A1"/>
<rect width="5.87131" height="5.13202" transform="matrix(-3.82074e-08 -1 -1 5.00082e-08 241.203 54.9727)" fill="#A1A1A1"/>
<rect width="5.87131" height="5.13202" transform="matrix(-3.82074e-08 -1 -1 5.00082e-08 241.203 125.434)" fill="#A1A1A1"/>
<rect width="5.87131" height="5.13202" transform="matrix(-3.82074e-08 -1 -1 5.00082e-08 76.9766 84.332)" fill="#A1A1A1"/>
<rect width="5.87131" height="5.13202" transform="matrix(-3.82074e-08 -1 -1 5.00082e-08 76.9766 119.559)" fill="#A1A1A1"/>
<rect width="5.87131" height="5.13202" transform="matrix(-3.82074e-08 -1 -1 5.00082e-08 76.9766 49.1055)" fill="#A1A1A1"/>
<rect width="5.87131" height="5.13202" transform="matrix(-3.82074e-08 -1 -1 5.00082e-08 87.2422 49.1055)" fill="#A1A1A1"/>
<rect width="5.87131" height="5.13202" transform="matrix(-3.82074e-08 -1 -1 5.00082e-08 107.773 84.332)" fill="#A1A1A1"/>
<rect width="5.87131" height="5.13202" transform="matrix(-3.82074e-08 -1 -1 5.00082e-08 138.57 84.332)" fill="#A1A1A1"/>
<rect width="5.87131" height="5.13202" transform="matrix(-3.82074e-08 -1 -1 5.00082e-08 138.57 119.559)" fill="#A1A1A1"/>
<rect width="5.87131" height="5.13202" transform="matrix(-3.82074e-08 -1 -1 5.00082e-08 138.57 49.1055)" fill="#A1A1A1"/>
<rect width="5.87131" height="5.13202" transform="matrix(-3.82074e-08 -1 -1 5.00082e-08 128.297 49.1055)" fill="#A1A1A1"/>
<rect width="5.87131" height="5.13202" transform="matrix(-3.82074e-08 -1 -1 5.00082e-08 169.359 84.332)" fill="#A1A1A1"/>
<rect width="5.87131" height="5.13202" transform="matrix(-3.82074e-08 -1 -1 5.00082e-08 169.359 119.559)" fill="#A1A1A1"/>
<rect width="5.87131" height="5.13202" transform="matrix(-3.82074e-08 -1 -1 5.00082e-08 169.359 49.1055)" fill="#A1A1A1"/>
<rect width="5.87131" height="5.13202" transform="matrix(-3.82074e-08 -1 -1 5.00082e-08 200.148 84.332)" fill="#A1A1A1"/>
<rect width="5.87131" height="5.13202" transform="matrix(-3.82074e-08 -1 -1 5.00082e-08 200.148 119.559)" fill="#A1A1A1"/>
<rect width="5.87131" height="5.13202" transform="matrix(-3.82074e-08 -1 -1 5.00082e-08 200.148 49.1055)" fill="#A1A1A1"/>
<rect width="5.87131" height="5.13202" transform="matrix(-3.82074e-08 -1 -1 5.00082e-08 230.938 84.332)" fill="#A1A1A1"/>
<rect width="5.87131" height="5.13202" transform="matrix(-3.82074e-08 -1 -1 5.00082e-08 230.938 119.559)" fill="#A1A1A1"/>
<rect width="5.87131" height="5.13202" transform="matrix(-3.82074e-08 -1 -1 5.00082e-08 230.938 49.1055)" fill="#A1A1A1"/>
<rect width="5.87131" height="5.13202" transform="matrix(-3.82074e-08 -1 -1 5.00082e-08 261.734 84.332)" fill="#A1A1A1"/>
<rect width="5.87131" height="5.13202" transform="matrix(-3.82074e-08 -1 -1 5.00082e-08 261.734 119.559)" fill="#A1A1A1"/>
<rect width="5.87131" height="5.13202" transform="matrix(-3.82074e-08 -1 -1 5.00082e-08 261.734 49.1055)" fill="#A1A1A1"/>
<rect width="5.13202" height="5.87131" transform="matrix(1 0.000216956 0.000165759 -1 10.2656 66.7227)" fill="#A1A1A1"/>
<rect width="5.13202" height="5.87131" transform="matrix(1 0.000216956 0.000165759 -1 10.2656 31.4961)" fill="#A1A1A1"/>
<rect width="5.13202" height="5.87131" transform="matrix(1 0.000216956 0.000165759 -1 41.0625 66.7227)" fill="#A1A1A1"/>
<rect width="5.13202" height="5.87131" transform="matrix(1 0.000216956 0.000165759 -1 41.0625 31.4961)" fill="#A1A1A1"/>
<rect width="5.13202" height="5.87131" transform="matrix(1 0.000216956 0.000165759 -1 41.0625 19.7461)" fill="#A1A1A1"/>
<rect width="5.13202" height="5.87131" transform="matrix(1 0.000216956 0.000165759 -1 71.8438 66.7227)" fill="#A1A1A1"/>
<rect width="5.13202" height="5.87131" transform="matrix(1 0.000216956 0.000165759 -1 71.8438 31.4961)" fill="#A1A1A1"/>
<rect width="5.13202" height="5.87131" transform="matrix(1 0.000216956 0.000165759 -1 71.8438 19.7461)" fill="#A1A1A1"/>
<rect width="5.13202" height="5.87131" transform="matrix(1 0.000216956 0.000165759 -1 76.9766 25.6211)" fill="#A1A1A1"/>
<rect width="5.13202" height="5.87131" transform="matrix(1 0.000216956 0.000165759 -1 82.1172 31.4961)" fill="#A1A1A1"/>
<rect width="5.13202" height="5.87131" transform="matrix(1 0.000216956 0.000165759 -1 102.641 66.7227)" fill="#A1A1A1"/>
<rect width="5.13202" height="5.87131" transform="matrix(1 0.000216956 0.000165759 -1 107.773 54.9727)" fill="#A1A1A1"/>
<rect width="5.13202" height="5.87131" transform="matrix(1 0.000216956 0.000165759 -1 133.43 66.7227)" fill="#A1A1A1"/>
<rect width="5.13202" height="5.87131" transform="matrix(1 0.000216956 0.000165759 -1 133.43 31.4961)" fill="#A1A1A1"/>
<rect width="5.13202" height="5.87131" transform="matrix(1 0.000216956 0.000165759 -1 164.227 66.7227)" fill="#A1A1A1"/>
<rect width="5.13202" height="5.87131" transform="matrix(1 0.000216956 0.000165759 -1 164.227 31.4961)" fill="#A1A1A1"/>
<rect width="5.13202" height="5.87131" transform="matrix(1 0.000216956 0.000165759 -1 164.227 19.7461)" fill="#A1A1A1"/>
<rect width="5.13202" height="5.87131" transform="matrix(1 0.000216956 0.000165759 -1 195.023 66.7227)" fill="#A1A1A1"/>
<rect width="5.13202" height="5.87131" transform="matrix(1 0.000216956 0.000165759 -1 195.023 31.4961)" fill="#A1A1A1"/>
<rect width="5.13202" height="5.87131" transform="matrix(1 0.000216956 0.000165759 -1 195.023 19.7461)" fill="#A1A1A1"/>
<rect width="5.13202" height="5.87131" transform="matrix(1 0.000216956 0.000165759 -1 225.805 66.7227)" fill="#A1A1A1"/>
<rect width="5.13202" height="5.87131" transform="matrix(1 0.000216956 0.000165759 -1 225.805 31.4961)" fill="#A1A1A1"/>
<rect width="5.13202" height="5.87131" transform="matrix(1 0.000216956 0.000165759 -1 225.805 19.7461)" fill="#A1A1A1"/>
<rect width="5.13202" height="5.87131" transform="matrix(1 0.000216956 0.000165759 -1 256.602 66.7227)" fill="#A1A1A1"/>
<rect width="5.13202" height="5.87131" transform="matrix(1 0.000216956 0.000165759 -1 256.602 31.4961)" fill="#A1A1A1"/>
<rect width="5.13202" height="5.87131" transform="matrix(1 0.000216956 0.000165759 -1 256.602 19.7461)" fill="#A1A1A1"/>
<rect width="5.13202" height="5.87131" transform="matrix(1 0.000216956 0.000165759 -1 261.734 25.6211)" fill="#A1A1A1"/>
<rect width="5.13202" height="5.87131" transform="matrix(1 0.000216956 0.000165759 -1 266.867 31.4961)" fill="#A1A1A1"/>
<rect width="5.13202" height="5.87131" transform="matrix(1 0.000216956 0.000165759 -1 5.13281 25.6211)" fill="#A1A1A1"/>
<rect width="5.13202" height="5.87131" transform="matrix(1 0.000216956 0.000165759 -1 10.2656 19.7461)" fill="#A1A1A1"/>
<rect width="5.13202" height="5.87131" transform="matrix(1 0.000216956 0.000165759 -1 266.867 54.9727)" fill="#A1A1A1"/>
<rect width="5.13202" height="5.87131" transform="matrix(1 0.000216956 0.000165759 -1 0 49.1055)" fill="#A1A1A1"/>
<rect width="5.13202" height="5.87131" transform="matrix(1 0.000216956 0.000165759 -1 266.867 78.4648)" fill="#A1A1A1"/>
<rect width="5.13202" height="5.87131" transform="matrix(1 0.000216956 0.000165759 -1 0 72.5898)" fill="#A1A1A1"/>
<rect width="5.13202" height="5.87131" transform="matrix(1 0.000216956 0.000165759 -1 266.867 101.949)" fill="#A1A1A1"/>
<rect width="5.13202" height="5.87131" transform="matrix(1 0.000216956 0.000165759 -1 0 96.082)" fill="#A1A1A1"/>
<rect width="5.13202" height="5.87131" transform="matrix(1 0.000216956 0.000165759 -1 266.867 37.3633)" fill="#A1A1A1"/>
<rect width="5.13202" height="5.87131" transform="matrix(1 0.000216956 0.000165759 -1 0 31.4961)" fill="#A1A1A1"/>
<rect width="5.13202" height="5.87131" transform="matrix(1 0.000216956 0.000165759 -1 266.867 60.8477)" fill="#A1A1A1"/>
<rect width="5.13202" height="5.87131" transform="matrix(1 0.000216956 0.000165759 -1 0 54.9727)" fill="#A1A1A1"/>
<rect width="5.13202" height="5.87131" transform="matrix(1 0.000216956 0.000165759 -1 266.867 84.332)" fill="#A1A1A1"/>
<rect width="5.13202" height="5.87131" transform="matrix(1 0.000216956 0.000165759 -1 0 78.4648)" fill="#A1A1A1"/>
<rect width="5.13202" height="5.87131" transform="matrix(1 0.000216956 0.000165759 -1 266.867 107.816)" fill="#A1A1A1"/>
<rect width="5.13202" height="5.87131" transform="matrix(1 0.000216956 0.000165759 -1 0 101.949)" fill="#A1A1A1"/>
<rect width="5.13202" height="5.87131" transform="matrix(1 0.000216956 0.000165759 -1 266.867 43.2383)" fill="#A1A1A1"/>
<rect width="5.13202" height="5.87131" transform="matrix(1 0.000216956 0.000165759 -1 0 37.3633)" fill="#A1A1A1"/>
<rect width="5.13202" height="5.87131" transform="matrix(1 0.000216956 0.000165759 -1 266.867 66.7227)" fill="#A1A1A1"/>
<rect width="5.13202" height="5.87131" transform="matrix(1 0.000215255 0.000167069 -1 0 60.8477)" fill="#A1A1A1"/>
<rect width="5.13202" height="5.87131" transform="matrix(1 0.000216956 0.000165759 -1 266.867 90.207)" fill="#A1A1A1"/>
<rect width="5.13202" height="5.87131" transform="matrix(1 0.000216956 0.000165759 -1 0 84.332)" fill="#A1A1A1"/>
<rect width="5.13202" height="5.87131" transform="matrix(1 0.000216956 0.000165759 -1 266.867 113.691)" fill="#A1A1A1"/>
<rect width="5.13202" height="5.87131" transform="matrix(1 0.000216956 0.000165759 -1 0 107.816)" fill="#A1A1A1"/>
<rect width="5.13202" height="5.87131" transform="matrix(1 0.000216956 0.000165759 -1 266.867 49.1055)" fill="#A1A1A1"/>
<rect width="5.13202" height="5.87131" transform="matrix(1 0.000216956 0.000165759 -1 0 43.2383)" fill="#A1A1A1"/>
<rect width="5.13202" height="5.87131" transform="matrix(1 0.000216956 0.000165759 -1 266.867 72.5898)" fill="#A1A1A1"/>
<rect width="5.13202" height="5.87131" transform="matrix(1 0.000216956 0.000165759 -1 0 66.7227)" fill="#A1A1A1"/>
<rect width="5.13202" height="5.87131" transform="matrix(1 0.000216956 0.000165759 -1 266.867 96.082)" fill="#A1A1A1"/>
<rect width="5.13202" height="5.87131" transform="matrix(1 0.000216956 0.000165759 -1 0 90.207)" fill="#A1A1A1"/>
<rect width="5.13202" height="5.87131" transform="matrix(1 0.000216956 0.000165759 -1 266.867 119.559)" fill="#A1A1A1"/>
<rect width="5.13202" height="5.87131" transform="matrix(1 0.000216956 0.000165759 -1 0 113.691)" fill="#A1A1A1"/>
<rect width="5.13202" height="5.87131" transform="matrix(1 0.000216956 0.000165759 -1 261.734 143.043)" fill="#A1A1A1"/>
<rect width="5.13202" height="5.87131" transform="matrix(1 0.000216956 0.000165759 -1 256.602 148.918)" fill="#A1A1A1"/>
<rect width="5.13202" height="5.87131" transform="matrix(1 0.000216956 0.000165759 -1 266.867 137.176)" fill="#A1A1A1"/>
<rect width="5.13202" height="5.87131" transform="matrix(1 0.000216956 0.000165759 -1 0 131.309)" fill="#A1A1A1"/>
<rect width="5.13202" height="5.87131" transform="matrix(1 0.000216956 0.000165759 -1 266.867 131.309)" fill="#A1A1A1"/>
<rect width="5.13202" height="5.87131" transform="matrix(1 0.000216956 0.000165759 -1 0 125.434)" fill="#A1A1A1"/>
<rect width="5.13202" height="5.87131" transform="matrix(1 0.000216956 0.000165759 -1 266.867 125.434)" fill="#A1A1A1"/>
<rect width="5.13202" height="5.87131" transform="matrix(1 0.000215255 0.000167069 -1 0 119.559)" fill="#A1A1A1"/>
<rect width="5.13202" height="5.87131" transform="matrix(1 0.000216956 0.000165759 -1 10.2656 90.207)" fill="#A1A1A1"/>
<rect width="5.13202" height="5.87131" transform="matrix(1 0.000216956 0.000165759 -1 10.2656 125.434)" fill="#A1A1A1"/>
<rect width="5.13202" height="5.87131" transform="matrix(1 0.000216956 0.000165759 -1 10.2656 54.9727)" fill="#A1A1A1"/>
<rect width="5.13202" height="5.87131" transform="matrix(1 0.000216956 0.000165759 -1 41.0625 90.207)" fill="#A1A1A1"/>
<rect width="5.13202" height="5.87131" transform="matrix(1 0.000216956 0.000165759 -1 41.0625 125.434)" fill="#A1A1A1"/>
<rect width="5.13202" height="5.87131" transform="matrix(1 0.000216956 0.000165759 -1 41.0625 54.9727)" fill="#A1A1A1"/>
<rect width="5.13202" height="5.87131" transform="matrix(1 0.000216956 0.000165759 -1 71.8438 90.207)" fill="#A1A1A1"/>
<rect width="5.13202" height="5.87131" transform="matrix(1 0.000216956 0.000165759 -1 71.8438 125.434)" fill="#A1A1A1"/>
<rect width="5.13202" height="5.87131" transform="matrix(1 0.000216956 0.000165759 -1 71.8438 54.9727)" fill="#A1A1A1"/>
<rect width="5.13202" height="5.87131" transform="matrix(1 0.000216956 0.000165759 -1 82.1172 54.9727)" fill="#A1A1A1"/>
<rect width="5.13202" height="5.87131" transform="matrix(1 0.000216956 0.000165759 -1 102.641 90.207)" fill="#A1A1A1"/>
<rect width="5.13202" height="5.87131" transform="matrix(1 0.000216956 0.000165759 -1 133.43 90.207)" fill="#A1A1A1"/>
<rect width="5.13202" height="5.87131" transform="matrix(1 0.000216956 0.000165759 -1 133.43 125.434)" fill="#A1A1A1"/>
<rect width="5.13202" height="5.87131" transform="matrix(1 0.000216956 0.000165759 -1 133.43 54.9727)" fill="#A1A1A1"/>
<rect width="5.13202" height="5.87131" transform="matrix(1 0.000216956 0.000165759 -1 164.227 90.207)" fill="#A1A1A1"/>
<rect width="5.13202" height="5.87131" transform="matrix(1 0.000216956 0.000165759 -1 164.227 125.434)" fill="#A1A1A1"/>
<rect width="5.13202" height="5.87131" transform="matrix(1 0.000216956 0.000165759 -1 164.227 54.9727)" fill="#A1A1A1"/>
<rect width="5.13202" height="5.87131" transform="matrix(1 0.000216956 0.000165759 -1 195.023 90.207)" fill="#A1A1A1"/>
<rect width="5.13202" height="5.87131" transform="matrix(1 0.000216956 0.000165759 -1 195.023 125.434)" fill="#A1A1A1"/>
<rect width="5.13202" height="5.87131" transform="matrix(1 0.000216956 0.000165759 -1 195.023 54.9727)" fill="#A1A1A1"/>
<rect width="5.13202" height="5.87131" transform="matrix(1 0.000216956 0.000165759 -1 225.805 90.207)" fill="#A1A1A1"/>
<rect width="5.13202" height="5.87131" transform="matrix(1 0.000216956 0.000165759 -1 225.805 125.434)" fill="#A1A1A1"/>
<rect width="5.13202" height="5.87131" transform="matrix(1 0.000216956 0.000165759 -1 225.805 54.9727)" fill="#A1A1A1"/>
<rect width="5.13202" height="5.87131" transform="matrix(1 0.000216956 0.000165759 -1 256.602 90.207)" fill="#A1A1A1"/>
<rect width="5.13202" height="5.87131" transform="matrix(1 0.000216956 0.000165759 -1 256.602 125.434)" fill="#A1A1A1"/>
<rect width="5.13202" height="5.87131" transform="matrix(1 0.000216956 0.000165759 -1 256.602 54.9727)" fill="#A1A1A1"/>
<rect width="5.13202" height="5.87131" transform="matrix(1 0.000216956 0.000165759 -1 10.2656 78.4648)" fill="#A1A1A1"/>
<rect width="5.13202" height="5.87131" transform="matrix(1 0.000216956 0.000165759 -1 10.2656 113.691)" fill="#A1A1A1"/>
<rect width="5.13202" height="5.87131" transform="matrix(1 0.000216956 0.000165759 -1 10.2656 43.2383)" fill="#A1A1A1"/>
<rect width="5.13202" height="5.87131" transform="matrix(1 0.000216956 0.000165759 -1 41.0625 78.4648)" fill="#A1A1A1"/>
<rect width="5.13202" height="5.87131" transform="matrix(1 0.000216956 0.000165759 -1 41.0625 113.691)" fill="#A1A1A1"/>
<rect width="5.13202" height="5.87131" transform="matrix(1 0.000216956 0.000165759 -1 41.0625 43.2383)" fill="#A1A1A1"/>
<rect width="5.13202" height="5.87131" transform="matrix(1 0.000216956 0.000165759 -1 71.8438 78.4648)" fill="#A1A1A1"/>
<rect width="5.13202" height="5.87131" transform="matrix(1 0.000216956 0.000165759 -1 71.8438 113.691)" fill="#A1A1A1"/>
<rect width="5.13202" height="5.87131" transform="matrix(1 0.000216956 0.000165759 -1 71.8438 43.2383)" fill="#A1A1A1"/>
<rect width="5.13202" height="5.87131" transform="matrix(1 0.000216956 0.000165759 -1 82.1172 43.2383)" fill="#A1A1A1"/>
<rect width="5.13202" height="5.87131" transform="matrix(1 0.000216956 0.000165759 -1 102.641 78.4648)" fill="#A1A1A1"/>
<rect width="5.13202" height="5.87131" transform="matrix(1 0.000216956 0.000165759 -1 133.43 78.4648)" fill="#A1A1A1"/>
<rect width="5.13202" height="5.87131" transform="matrix(1 0.000216956 0.000165759 -1 133.43 113.691)" fill="#A1A1A1"/>
<rect width="5.13202" height="5.87131" transform="matrix(1 0.000216956 0.000165759 -1 133.43 43.2383)" fill="#A1A1A1"/>
<rect width="5.13202" height="5.87131" transform="matrix(1 0.000216956 0.000165759 -1 123.172 43.2383)" fill="#A1A1A1"/>
<rect width="5.13202" height="5.87131" transform="matrix(1 0.000216956 0.000165759 -1 164.227 78.4648)" fill="#A1A1A1"/>
<rect width="5.13202" height="5.87131" transform="matrix(1 0.000216956 0.000165759 -1 164.227 113.691)" fill="#A1A1A1"/>
<rect width="5.13202" height="5.87131" transform="matrix(1 0.000216956 0.000165759 -1 164.227 43.2383)" fill="#A1A1A1"/>
<rect width="5.13202" height="5.87131" transform="matrix(1 0.000216956 0.000165759 -1 195.023 78.4648)" fill="#A1A1A1"/>
<rect width="5.13202" height="5.87131" transform="matrix(1 0.000216956 0.000165759 -1 195.023 113.691)" fill="#A1A1A1"/>
<rect width="5.13202" height="5.87131" transform="matrix(1 0.000216956 0.000165759 -1 195.023 43.2383)" fill="#A1A1A1"/>
<rect width="5.13202" height="5.87131" transform="matrix(1 0.000216956 0.000165759 -1 225.805 78.4648)" fill="#A1A1A1"/>
<rect width="5.13202" height="5.87131" transform="matrix(1 0.000216956 0.000165759 -1 225.805 113.691)" fill="#A1A1A1"/>
<rect width="5.13202" height="5.87131" transform="matrix(1 0.000216956 0.000165759 -1 225.805 43.2383)" fill="#A1A1A1"/>
<rect width="5.13202" height="5.87131" transform="matrix(1 0.000216956 0.000165759 -1 256.602 78.4648)" fill="#A1A1A1"/>
<rect width="5.13202" height="5.87131" transform="matrix(1 0.000216956 0.000165759 -1 256.602 113.691)" fill="#A1A1A1"/>
<rect width="5.13202" height="5.87131" transform="matrix(1 0.000216956 0.000165759 -1 256.602 43.2383)" fill="#A1A1A1"/>
<rect width="5.13202" height="5.87131" transform="matrix(1 0.000216956 0.000165759 -1 15.3906 101.949)" fill="#A1A1A1"/>
<rect width="5.13202" height="5.87131" transform="matrix(1 0.000216956 0.000165759 -1 15.3906 137.176)" fill="#A1A1A1"/>
<rect width="5.13202" height="5.87131" transform="matrix(1 0.000216956 0.000165759 -1 15.3906 66.7227)" fill="#A1A1A1"/>
<rect width="5.13202" height="5.87131" transform="matrix(1 0.000216956 0.000165759 -1 15.3906 31.4961)" fill="#A1A1A1"/>
<rect width="5.13202" height="5.87131" transform="matrix(1 0.000216956 0.000165759 -1 15.3906 19.7461)" fill="#A1A1A1"/>
<rect width="5.87131" height="5.13202" transform="matrix(-3.82074e-08 -1 -1 5.00082e-08 30.7891 101.949)" fill="#A1A1A1"/>
<rect width="5.87131" height="5.13202" transform="matrix(-3.82074e-08 -1 -1 5.00082e-08 30.7891 137.176)" fill="#A1A1A1"/>
<rect width="5.87131" height="5.13202" transform="matrix(-3.82074e-08 -1 -1 5.00082e-08 30.7891 66.7227)" fill="#A1A1A1"/>
<rect width="5.87131" height="5.13202" transform="matrix(-3.82074e-08 -1 -1 5.00082e-08 30.7891 31.4961)" fill="#A1A1A1"/>
<rect width="5.87131" height="5.13202" transform="matrix(-3.82074e-08 -1 -1 5.00082e-08 30.7891 19.7461)" fill="#A1A1A1"/>
<circle cx="152.5" cy="116.5" r="11.5" fill="black"/>
<circle cx="152.5" cy="45.5" r="11.5" fill="white"/>
<line x1="157.488" y1="44.1641" x2="239.996" y2="43.9961" stroke="white" stroke-width="4"/>
<line x1="157.503" y1="117.559" x2="242.01" y2="117.996" stroke="black" stroke-width="4"/>
<line x1="28.216" y1="44.1641" x2="59.9894" y2="43.9961" stroke="white" stroke-width="4"/>
<line x1="29" y1="116" x2="61" y2="116" stroke="black" stroke-width="4"/>
<line x1="28.2305" y1="70.582" x2="240.004" y2="70.9961" stroke="white" stroke-width="4"/>
<line x1="29" y1="89" x2="243" y2="88.9961" stroke="black" stroke-width="4"/>
<line x1="241" y1="41.9961" x2="241" y2="72.9961" stroke="white" stroke-width="4"/>
<line x1="243" y1="86.9961" x2="243" y2="119.996" stroke="black" stroke-width="4"/>
<line x1="30.2266" y1="44.6914" x2="30.2266" y2="72.5801" stroke="white" stroke-width="4"/>
<line x1="31" y1="87" x2="31" y2="117" stroke="black" stroke-width="4"/>
<path d="M60.4142 0.585785C59.6332 -0.195263 58.3668 -0.195263 57.5858 0.585785L44.8579 13.3137C44.0768 14.0948 44.0768 15.3611 44.8579 16.1421C45.6389 16.9232 46.9052 16.9232 47.6863 16.1421L59 4.82843L70.3137 16.1421C71.0948 16.9232 72.3611 16.9232 73.1421 16.1421C73.9232 15.3611 73.9232 14.0948 73.1421 13.3137L60.4142 0.585785ZM59 46L61 46L61 2L59 2L57 2L57 46L59 46Z" fill="white"/>
<path d="M57.6014 162.804C58.3825 163.585 59.6488 163.585 60.4298 162.804L73.1578 150.076C73.9388 149.295 73.9388 148.029 73.1578 147.248C72.3767 146.467 71.1104 146.467 70.3293 147.248L59.0156 158.561L47.7019 147.248C46.9209 146.467 45.6545 146.467 44.8735 147.248C44.0924 148.029 44.0924 149.295 44.8735 150.076L57.6014 162.804ZM59.0156 116.621L57.0156 116.621L57.0156 161.39L59.0156 161.39L61.0156 161.39L61.0156 116.621L59.0156 116.621Z" fill="black"/>
</svg>
