<svg width="18" height="15" viewBox="0 0 18 15" fill="none" xmlns="http://www.w3.org/2000/svg">
<path d="M8.67185 15C8.58412 15 8.49642 14.9773 8.41783 14.9319C8.33247 14.8827 6.30437 13.7052 4.24718 11.9309C3.02791 10.8793 2.05463 9.83633 1.35445 8.83094C0.448381 7.52996 -0.0072632 6.27858 8.75342e-05 5.1115C0.00869162 3.75348 0.495093 2.47635 1.3698 1.51533C2.25927 0.538128 3.44629 0 4.71228 0C6.33476 0 7.81815 0.908849 8.67189 2.34858C9.52562 0.908883 11.009 0 12.6315 0C13.8275 0 14.9687 0.485555 15.8448 1.36724C16.8063 2.33479 17.3526 3.70189 17.3436 5.11794C17.3362 6.28298 16.8721 7.53247 15.964 8.83165C15.2616 9.83653 14.2897 10.8791 13.0752 11.9303C11.0255 13.7044 9.01202 14.8819 8.9273 14.9312C8.84834 14.977 8.76006 15 8.67185 15Z" fill="white"/>
</svg>
