<svg width="266" height="222" viewBox="0 0 266 222" fill="none" xmlns="http://www.w3.org/2000/svg">
<rect width="5.41438" height="5.4284" transform="matrix(-0.000190172 1 1 0.000189191 43.5586 75.8125)" fill="#A1A1A1"/>
<rect width="5.41438" height="5.4284" transform="matrix(-0.000190172 1 1 0.000189191 43.5586 32.4941)" fill="#A1A1A1"/>
<rect width="5.41438" height="5.4284" transform="matrix(-0.000190172 1 1 0.000189191 43.5586 184.098)" fill="#A1A1A1"/>
<rect width="5.41438" height="5.4284" transform="matrix(-0.000190172 1 1 0.000189191 86.9883 129.953)" fill="#A1A1A1"/>
<rect width="5.41438" height="5.4284" transform="matrix(-0.000190172 1 1 0.000189191 43.5586 129.953)" fill="#A1A1A1"/>
<rect width="5.41438" height="5.4284" transform="matrix(-0.000190172 1 1 0.000189191 130.414 129.953)" fill="#A1A1A1"/>
<rect width="5.41438" height="5.4284" transform="matrix(-0.000190172 1 1 0.000189191 173.842 129.953)" fill="#A1A1A1"/>
<rect width="5.41438" height="5.4284" transform="matrix(-0.000190172 1 1 0.000189191 217.27 129.953)" fill="#A1A1A1"/>
<rect width="5.41438" height="5.4284" transform="matrix(-0.000190172 1 1 0.000189191 86.9883 75.8125)" fill="#A1A1A1"/>
<rect width="5.41438" height="5.4284" transform="matrix(-0.000190172 1 1 0.000189191 86.9883 32.4941)" fill="#A1A1A1"/>
<rect width="5.41438" height="5.4284" transform="matrix(-0.000190172 1 1 0.000189191 86.9883 184.098)" fill="#A1A1A1"/>
<rect width="5.41438" height="5.4284" transform="matrix(-0.000190172 1 1 0.000189191 130.414 75.8125)" fill="#A1A1A1"/>
<rect width="5.41438" height="5.4284" transform="matrix(-0.000190172 1 1 0.000189191 130.414 32.4941)" fill="#A1A1A1"/>
<rect width="5.41438" height="5.4284" transform="matrix(-0.000190172 1 1 0.000189191 173.842 75.8125)" fill="#A1A1A1"/>
<rect width="5.41438" height="5.4284" transform="matrix(-0.000190172 1 1 0.000189191 173.842 32.4941)" fill="#A1A1A1"/>
<rect width="5.41438" height="5.4284" transform="matrix(-0.000190172 1 1 0.000189191 130.414 184.098)" fill="#A1A1A1"/>
<rect width="5.41438" height="5.4284" transform="matrix(-0.000190172 1 1 0.000189191 217.27 75.8125)" fill="#A1A1A1"/>
<rect width="5.41438" height="5.4284" transform="matrix(-0.000190172 1 1 0.000189191 217.27 32.4941)" fill="#A1A1A1"/>
<rect width="5.41438" height="5.4284" transform="matrix(-0.000190172 1 1 0.000189191 173.842 184.098)" fill="#A1A1A1"/>
<rect width="5.41438" height="5.4284" transform="matrix(-0.000190172 1 1 0.000189191 217.27 184.098)" fill="#A1A1A1"/>
<rect width="5.4284" height="5.41438" transform="matrix(1 0 0 -1 21.7148 48.7393)" fill="#A1A1A1"/>
<rect width="5.4284" height="5.41438" transform="matrix(1 0 0 -1 21.7148 5.42188)" fill="#A1A1A1"/>
<rect width="5.4284" height="5.41438" transform="matrix(1 0 0 -1 21.7148 135.369)" fill="#A1A1A1"/>
<rect width="5.4284" height="5.41438" transform="matrix(1 0 0 -1 27.1426 92.0527)" fill="#A1A1A1"/>
<rect width="5.4284" height="5.41438" transform="matrix(1 0 0 -1 27.1426 178.684)" fill="#A1A1A1"/>
<rect width="5.4284" height="5.41438" transform="matrix(1 0 0 -1 113.996 48.7393)" fill="#A1A1A1"/>
<rect width="5.4284" height="5.41438" transform="matrix(1 0 0 -1 113.996 5.42188)" fill="#A1A1A1"/>
<rect width="5.4284" height="5.41438" transform="matrix(1 0 0 -1 130.281 97.4688)" fill="#A1A1A1"/>
<rect width="5.4284" height="5.41438" transform="matrix(1 0 0 -1 173.709 97.4688)" fill="#A1A1A1"/>
<rect width="5.4284" height="5.41438" transform="matrix(1 0 0 -1 130.281 205.754)" fill="#A1A1A1"/>
<rect width="5.4284" height="5.41438" transform="matrix(1 0 0 -1 217.137 97.4688)" fill="#A1A1A1"/>
<rect width="5.4284" height="5.41438" transform="matrix(1 0 0 -1 173.709 205.754)" fill="#A1A1A1"/>
<rect width="5.4284" height="5.41438" transform="matrix(1 0 0 -1 217.137 205.754)" fill="#A1A1A1"/>
<rect width="5.4284" height="5.41438" transform="matrix(1 0 0 -1 157.424 48.7393)" fill="#A1A1A1"/>
<rect width="5.4284" height="5.41438" transform="matrix(1 0 0 -1 157.424 5.42188)" fill="#A1A1A1"/>
<rect width="5.4284" height="5.41438" transform="matrix(1 0 0 -1 48.8555 48.7393)" fill="#A1A1A1"/>
<rect width="5.4284" height="5.41438" transform="matrix(1 0 0 -1 48.8555 5.42188)" fill="#A1A1A1"/>
<rect width="5.4284" height="5.41438" transform="matrix(1 0 0 -1 48.8555 135.369)" fill="#A1A1A1"/>
<rect width="5.4284" height="5.41438" transform="matrix(1 0 0 -1 48.8555 222)" fill="#A1A1A1"/>
<rect width="5.4284" height="5.41438" transform="matrix(1 0 0 -1 5.42969 222)" fill="#A1A1A1"/>
<rect width="5.4284" height="5.41438" transform="matrix(1 0 0 -1 54.2852 92.0527)" fill="#A1A1A1"/>
<rect width="5.4284" height="5.41438" transform="matrix(1 0 0 -1 54.2852 178.684)" fill="#A1A1A1"/>
<rect width="5.4284" height="5.41438" transform="matrix(1 0 0 -1 97.7109 178.684)" fill="#A1A1A1"/>
<rect width="5.4284" height="5.41438" transform="matrix(1 0 0 -1 141.139 178.684)" fill="#A1A1A1"/>
<rect width="5.4284" height="5.41438" transform="matrix(1 0 0 -1 184.566 178.684)" fill="#A1A1A1"/>
<rect width="5.4284" height="5.41438" transform="matrix(1 0 0 -1 227.992 178.684)" fill="#A1A1A1"/>
<rect width="5.4284" height="5.41438" transform="matrix(1 0 0 -1 151.996 135.369)" fill="#A1A1A1"/>
<rect width="5.4284" height="5.41438" transform="matrix(1 0 0 -1 157.424 92.0527)" fill="#A1A1A1"/>
<rect width="5.4284" height="5.41438" transform="matrix(1 0 0 -1 157.424 222)" fill="#A1A1A1"/>
<rect width="5.4284" height="5.41438" transform="matrix(1 0 0 -1 81.4258 135.369)" fill="#A1A1A1"/>
<rect width="5.4284" height="5.41438" transform="matrix(1 0 0 -1 81.4258 222)" fill="#A1A1A1"/>
<rect width="5.4284" height="5.41438" transform="matrix(1 0 0 -1 38 222)" fill="#A1A1A1"/>
<rect width="5.4284" height="5.41438" transform="matrix(1 0 0 -1 86.8555 113.711)" fill="#A1A1A1"/>
<rect width="5.4284" height="5.41438" transform="matrix(1 0 0 -1 86.8555 222)" fill="#A1A1A1"/>
<rect width="5.4284" height="5.41438" transform="matrix(1 0 0 -1 184.566 135.369)" fill="#A1A1A1"/>
<rect width="5.4284" height="5.41438" transform="matrix(1 0 0 -1 189.994 92.0527)" fill="#A1A1A1"/>
<rect width="5.4284" height="5.41438" transform="matrix(1 0 0 -1 189.994 222)" fill="#A1A1A1"/>
<rect width="5.4284" height="5.41438" transform="matrix(1 0 0 -1 179.137 48.7393)" fill="#A1A1A1"/>
<rect width="5.4284" height="5.41438" transform="matrix(1 0 0 -1 179.137 5.42188)" fill="#A1A1A1"/>
<rect width="5.4284" height="5.41438" transform="matrix(1 0 0 -1 113.996 135.369)" fill="#A1A1A1"/>
<rect width="5.4284" height="5.41438" transform="matrix(1 0 0 -1 119.426 92.0527)" fill="#A1A1A1"/>
<rect width="5.4284" height="5.41438" transform="matrix(1 0 0 -1 119.426 222)" fill="#A1A1A1"/>
<rect width="5.4284" height="5.41438" transform="matrix(1 0 0 -1 217.137 167.854)" fill="#A1A1A1"/>
<rect width="5.4284" height="5.41438" transform="matrix(1 0 0 -1 222.564 92.0527)" fill="#A1A1A1"/>
<rect width="5.4284" height="5.41438" transform="matrix(1 0 0 -1 222.564 222)" fill="#A1A1A1"/>
<rect width="5.4284" height="5.41438" transform="matrix(1 0 0 -1 211.707 48.7393)" fill="#A1A1A1"/>
<rect width="5.4284" height="5.41438" transform="matrix(1 0 0 -1 211.707 5.42188)" fill="#A1A1A1"/>
<rect width="5.4284" height="5.41438" transform="matrix(1 0 0 -1 146.566 135.369)" fill="#A1A1A1"/>
<rect width="5.4284" height="5.41438" transform="matrix(1 0 0 -1 151.996 92.0527)" fill="#A1A1A1"/>
<rect width="5.4284" height="5.41438" transform="matrix(1 0 0 -1 151.996 222)" fill="#A1A1A1"/>
<rect width="5.4284" height="5.41438" transform="matrix(1 0 0 -1 249.707 135.369)" fill="#A1A1A1"/>
<rect width="5.4284" height="5.41438" transform="matrix(1 0 0 -1 255.137 92.0527)" fill="#A1A1A1"/>
<rect width="5.4284" height="5.41438" transform="matrix(1 0 0 -1 255.137 222)" fill="#A1A1A1"/>
<rect width="5.4284" height="5.41438" transform="matrix(1 0 0 -1 244.277 48.7393)" fill="#A1A1A1"/>
<rect width="5.4284" height="5.41438" transform="matrix(1 0 0 -1 244.277 5.42188)" fill="#A1A1A1"/>
<rect width="5.4284" height="5.41438" transform="matrix(1 0 0 -1 81.4258 48.7393)" fill="#A1A1A1"/>
<rect width="5.4284" height="5.41438" transform="matrix(1 0 0 -1 81.4258 5.42188)" fill="#A1A1A1"/>
<rect width="5.4284" height="5.41438" transform="matrix(1 0 0 -1 103.141 48.7393)" fill="#A1A1A1"/>
<rect width="5.4284" height="5.41438" transform="matrix(1 0 0 -1 103.141 5.42188)" fill="#A1A1A1"/>
<rect width="5.4284" height="5.41438" transform="matrix(1 0 0 -1 38 48.7393)" fill="#A1A1A1"/>
<rect width="5.4284" height="5.41438" transform="matrix(1 0 0 -1 38 5.42188)" fill="#A1A1A1"/>
<rect width="5.4284" height="5.41438" transform="matrix(1 0 0 -1 38 135.369)" fill="#A1A1A1"/>
<rect width="5.4284" height="5.41438" transform="matrix(1 0 0 -1 43.4277 113.711)" fill="#A1A1A1"/>
<rect width="5.4284" height="5.41438" transform="matrix(1 0 0 -1 43.4277 222)" fill="#A1A1A1"/>
<rect width="5.4284" height="5.41438" transform="matrix(1 0 0 -1 141.139 135.369)" fill="#A1A1A1"/>
<rect width="5.4284" height="5.41438" transform="matrix(1 0 0 -1 146.566 92.0527)" fill="#A1A1A1"/>
<rect width="5.4284" height="5.41438" transform="matrix(1 0 0 -1 146.566 222)" fill="#A1A1A1"/>
<rect width="5.4284" height="5.41438" transform="matrix(1 0 0 -1 70.5703 135.369)" fill="#A1A1A1"/>
<rect width="5.4284" height="5.41438" transform="matrix(1 0 0 -1 70.5703 222)" fill="#A1A1A1"/>
<rect width="5.4284" height="5.41438" transform="matrix(1 0 0 -1 27.1426 222)" fill="#A1A1A1"/>
<rect width="5.4284" height="5.41438" transform="matrix(1 0 0 -1 75.998 92.0527)" fill="#A1A1A1"/>
<rect width="5.4284" height="5.41438" transform="matrix(1 0 0 -1 75.998 178.684)" fill="#A1A1A1"/>
<rect width="5.4284" height="5.41438" transform="matrix(1 0 0 -1 119.426 178.684)" fill="#A1A1A1"/>
<rect width="5.4284" height="5.41438" transform="matrix(1 0 0 -1 162.852 178.684)" fill="#A1A1A1"/>
<rect width="5.4284" height="5.41438" transform="matrix(1 0 0 -1 206.279 178.684)" fill="#A1A1A1"/>
<rect width="5.4284" height="5.41438" transform="matrix(1 0 0 -1 249.707 178.684)" fill="#A1A1A1"/>
<rect width="5.4284" height="5.41438" transform="matrix(1 0 0 -1 173.709 167.854)" fill="#A1A1A1"/>
<rect width="5.4284" height="5.41438" transform="matrix(1 0 0 -1 179.137 92.0527)" fill="#A1A1A1"/>
<rect width="5.4284" height="5.41438" transform="matrix(1 0 0 -1 179.137 222)" fill="#A1A1A1"/>
<rect width="5.4284" height="5.41438" transform="matrix(1 0 0 -1 168.281 48.7393)" fill="#A1A1A1"/>
<rect width="5.4284" height="5.41438" transform="matrix(1 0 0 -1 168.281 5.42188)" fill="#A1A1A1"/>
<rect width="5.4284" height="5.41438" transform="matrix(1 0 0 -1 103.141 135.369)" fill="#A1A1A1"/>
<rect width="5.4284" height="5.41438" transform="matrix(1 0 0 -1 108.568 92.0527)" fill="#A1A1A1"/>
<rect width="5.4284" height="5.41438" transform="matrix(1 0 0 -1 108.568 222)" fill="#A1A1A1"/>
<rect width="5.4284" height="5.41438" transform="matrix(1 0 0 -1 206.279 135.369)" fill="#A1A1A1"/>
<rect width="5.4284" height="5.41438" transform="matrix(1 0 0 -1 211.707 92.0527)" fill="#A1A1A1"/>
<rect width="5.4284" height="5.41438" transform="matrix(1 0 0 -1 211.707 222)" fill="#A1A1A1"/>
<rect width="5.4284" height="5.41438" transform="matrix(1 0 0 -1 200.852 48.7393)" fill="#A1A1A1"/>
<rect width="5.4284" height="5.41438" transform="matrix(1 0 0 -1 200.852 5.42188)" fill="#A1A1A1"/>
<rect width="5.4284" height="5.41438" transform="matrix(1 0 0 -1 135.711 135.369)" fill="#A1A1A1"/>
<rect width="5.4284" height="5.41438" transform="matrix(1 0 0 -1 141.139 92.0527)" fill="#A1A1A1"/>
<rect width="5.4284" height="5.41438" transform="matrix(1 0 0 -1 141.139 222)" fill="#A1A1A1"/>
<rect width="5.4284" height="5.41438" transform="matrix(1 0 0 -1 238.85 135.369)" fill="#A1A1A1"/>
<rect width="5.4284" height="5.41438" transform="matrix(1 0 0 -1 244.277 92.0527)" fill="#A1A1A1"/>
<rect width="5.4284" height="5.41438" transform="matrix(1 0 0 -1 244.277 222)" fill="#A1A1A1"/>
<rect width="5.4284" height="5.41438" transform="matrix(1 0 0 -1 233.422 48.7393)" fill="#A1A1A1"/>
<rect width="5.4284" height="5.41438" transform="matrix(1 0 0 -1 233.422 5.42188)" fill="#A1A1A1"/>
<rect width="5.4284" height="5.41438" transform="matrix(1 0 0 -1 124.854 48.7393)" fill="#A1A1A1"/>
<rect width="5.4284" height="5.41438" transform="matrix(1 0 0 -1 124.854 5.42188)" fill="#A1A1A1"/>
<rect width="5.4284" height="5.41438" transform="matrix(1 0 0 -1 86.8555 64.9824)" fill="#A1A1A1"/>
<rect width="5.4284" height="5.41438" transform="matrix(1 0 0 -1 86.8555 21.665)" fill="#A1A1A1"/>
<rect width="5.4284" height="5.41438" transform="matrix(1 0 0 -1 86.8555 173.27)" fill="#A1A1A1"/>
<rect width="5.4284" height="5.41438" transform="matrix(1 0 0 -1 70.5703 48.7393)" fill="#A1A1A1"/>
<rect width="5.4284" height="5.41438" transform="matrix(1 0 0 -1 70.5703 5.42188)" fill="#A1A1A1"/>
<rect width="5.4284" height="5.41438" transform="matrix(1 0 0 -1 43.4277 97.4688)" fill="#A1A1A1"/>
<rect width="5.4284" height="5.41438" transform="matrix(1 0 0 -1 43.4277 205.754)" fill="#A1A1A1"/>
<rect width="5.4284" height="5.41438" transform="matrix(1 0 0 -1 86.8555 151.613)" fill="#A1A1A1"/>
<rect width="5.4284" height="5.41438" transform="matrix(1 0 0 -1 43.4277 151.613)" fill="#A1A1A1"/>
<rect width="5.4284" height="5.41438" transform="matrix(1 0 0 -1 130.281 151.613)" fill="#A1A1A1"/>
<rect width="5.4284" height="5.41438" transform="matrix(1 0 0 -1 173.709 151.613)" fill="#A1A1A1"/>
<rect width="5.4284" height="5.41438" transform="matrix(1 0 0 -1 217.137 151.613)" fill="#A1A1A1"/>
<rect width="5.4284" height="5.41438" transform="matrix(1 0 0 -1 59.7129 135.369)" fill="#A1A1A1"/>
<rect width="5.4284" height="5.41438" transform="matrix(1 0 0 -1 59.7129 222)" fill="#A1A1A1"/>
<rect width="5.4284" height="5.41438" transform="matrix(1 0 0 -1 16.2852 222)" fill="#A1A1A1"/>
<rect width="5.4284" height="5.41438" transform="matrix(1 0 0 -1 65.1406 92.0527)" fill="#A1A1A1"/>
<rect width="5.4284" height="5.41438" transform="matrix(1 0 0 -1 65.1406 178.684)" fill="#A1A1A1"/>
<rect width="5.4284" height="5.41438" transform="matrix(1 0 0 -1 108.568 178.684)" fill="#A1A1A1"/>
<rect width="5.4284" height="5.41438" transform="matrix(1 0 0 -1 151.996 178.684)" fill="#A1A1A1"/>
<rect width="5.4284" height="5.41438" transform="matrix(1 0 0 -1 195.422 178.684)" fill="#A1A1A1"/>
<rect width="5.4284" height="5.41438" transform="matrix(1 0 0 -1 238.85 178.684)" fill="#A1A1A1"/>
<rect width="5.4284" height="5.41438" transform="matrix(1 0 0 -1 162.852 135.369)" fill="#A1A1A1"/>
<rect width="5.4284" height="5.41438" transform="matrix(1 0 0 -1 168.281 92.0527)" fill="#A1A1A1"/>
<rect width="5.4284" height="5.41438" transform="matrix(1 0 0 -1 168.281 222)" fill="#A1A1A1"/>
<rect width="5.4284" height="5.41438" transform="matrix(1 0 0 -1 130.281 92.0527)" fill="#A1A1A1"/>
<rect width="5.4284" height="5.41438" transform="matrix(1 0 0 -1 173.709 92.0527)" fill="#A1A1A1"/>
<rect width="5.4284" height="5.41438" transform="matrix(1 0 0 -1 130.281 200.342)" fill="#A1A1A1"/>
<rect width="5.4284" height="5.41438" transform="matrix(1 0 0 -1 217.137 92.0527)" fill="#A1A1A1"/>
<rect width="5.4284" height="5.41438" transform="matrix(1 0 0 -1 173.709 200.342)" fill="#A1A1A1"/>
<rect width="5.4284" height="5.41438" transform="matrix(1 0 0 -1 217.137 200.342)" fill="#A1A1A1"/>
<rect width="5.4284" height="5.41438" transform="matrix(1 0 0 -1 92.2832 135.369)" fill="#A1A1A1"/>
<rect width="5.4284" height="5.41438" transform="matrix(1 0 0 -1 97.7109 92.0527)" fill="#A1A1A1"/>
<rect width="5.4284" height="5.41438" transform="matrix(1 0 0 -1 97.7109 222)" fill="#A1A1A1"/>
<rect width="5.4284" height="5.41438" transform="matrix(1 0 0 -1 195.422 135.369)" fill="#A1A1A1"/>
<rect width="5.4284" height="5.41438" transform="matrix(1 0 0 -1 200.852 92.0527)" fill="#A1A1A1"/>
<rect width="5.4284" height="5.41438" transform="matrix(1 0 0 -1 200.852 222)" fill="#A1A1A1"/>
<rect width="5.4284" height="5.41438" transform="matrix(1 0 0 -1 189.994 48.7393)" fill="#A1A1A1"/>
<rect width="5.4284" height="5.41438" transform="matrix(1 0 0 -1 189.994 5.42188)" fill="#A1A1A1"/>
<rect width="5.4284" height="5.41438" transform="matrix(1 0 0 -1 124.854 135.369)" fill="#A1A1A1"/>
<rect width="5.4284" height="5.41438" transform="matrix(1 0 0 -1 130.281 113.711)" fill="#A1A1A1"/>
<rect width="5.4284" height="5.41438" transform="matrix(1 0 0 -1 130.281 222)" fill="#A1A1A1"/>
<rect width="5.4284" height="5.41438" transform="matrix(1 0 0 -1 227.992 135.369)" fill="#A1A1A1"/>
<rect width="5.4284" height="5.41438" transform="matrix(1 0 0 -1 233.422 92.0527)" fill="#A1A1A1"/>
<rect width="5.4284" height="5.41438" transform="matrix(1 0 0 -1 233.422 222)" fill="#A1A1A1"/>
<rect width="5.4284" height="5.41438" transform="matrix(1 0 0 -1 222.564 48.7393)" fill="#A1A1A1"/>
<rect width="5.4284" height="5.41438" transform="matrix(1 0 0 -1 222.564 5.42188)" fill="#A1A1A1"/>
<rect width="5.4284" height="5.41438" transform="matrix(1 0 0 -1 157.424 135.369)" fill="#A1A1A1"/>
<rect width="5.4284" height="5.41438" transform="matrix(1 0 0 -1 162.852 92.0527)" fill="#A1A1A1"/>
<rect width="5.4284" height="5.41438" transform="matrix(1 0 0 -1 162.852 222)" fill="#A1A1A1"/>
<rect width="5.4284" height="5.41438" transform="matrix(1 0 0 -1 260.562 167.854)" fill="#A1A1A1"/>
<rect width="5.4284" height="5.41438" transform="matrix(1 0 0 -1 260.562 59.5684)" fill="#A1A1A1"/>
<rect width="5.4284" height="5.41438" transform="matrix(1 0 0 -1 260.562 16.251)" fill="#A1A1A1"/>
<rect width="5.4284" height="5.41438" transform="matrix(1 0 0 -1 255.137 48.7393)" fill="#A1A1A1"/>
<rect width="5.4284" height="5.41438" transform="matrix(1 0 0 -1 255.137 5.42188)" fill="#A1A1A1"/>
<rect width="5.4284" height="5.41438" transform="matrix(1 0 0 -1 146.566 48.7393)" fill="#A1A1A1"/>
<rect width="5.4284" height="5.41438" transform="matrix(1 0 0 -1 146.566 5.42188)" fill="#A1A1A1"/>
<rect width="5.4284" height="5.41438" transform="matrix(1 0 0 -1 92.2832 48.7393)" fill="#A1A1A1"/>
<rect width="5.4284" height="5.41438" transform="matrix(1 0 0 -1 92.2832 5.42188)" fill="#A1A1A1"/>
<rect width="5.41438" height="5.4284" transform="matrix(-0.000190172 1 1 0.000189191 86.8574 54.1533)" fill="#A1A1A1"/>
<rect width="5.41438" height="5.4284" transform="matrix(-0.000190172 1 1 0.000189191 86.8574 10.8359)" fill="#A1A1A1"/>
<rect width="5.41438" height="5.4284" transform="matrix(-0.000190172 1 1 0.000189191 130.285 54.1533)" fill="#A1A1A1"/>
<rect width="5.41438" height="5.4284" transform="matrix(-0.000190172 1 1 0.000189191 130.285 10.8359)" fill="#A1A1A1"/>
<rect width="5.4284" height="5.41438" transform="matrix(1 0 0 -1 130.281 64.9824)" fill="#A1A1A1"/>
<rect width="5.4284" height="5.41438" transform="matrix(1 0 0 -1 130.281 21.665)" fill="#A1A1A1"/>
<rect width="5.4284" height="5.41438" transform="matrix(1 0 0 -1 173.709 64.9824)" fill="#A1A1A1"/>
<rect width="5.4284" height="5.41438" transform="matrix(1 0 0 -1 173.709 21.665)" fill="#A1A1A1"/>
<rect width="5.4284" height="5.41438" transform="matrix(1 0 0 -1 130.281 173.27)" fill="#A1A1A1"/>
<rect width="5.4284" height="5.41438" transform="matrix(1 0 0 -1 217.137 64.9824)" fill="#A1A1A1"/>
<rect width="5.4284" height="5.41438" transform="matrix(1 0 0 -1 217.137 21.665)" fill="#A1A1A1"/>
<rect width="5.4284" height="5.41438" transform="matrix(1 0 0 -1 173.709 173.27)" fill="#A1A1A1"/>
<rect width="5.4284" height="5.41438" transform="matrix(1 0 0 -1 217.137 173.27)" fill="#A1A1A1"/>
<rect width="5.4284" height="5.41438" transform="matrix(1 0 0 -1 119.426 48.7393)" fill="#A1A1A1"/>
<rect width="5.4284" height="5.41438" transform="matrix(1 0 0 -1 119.426 5.42188)" fill="#A1A1A1"/>
<rect width="5.4284" height="5.41438" transform="matrix(1 0 0 -1 65.1406 48.7393)" fill="#A1A1A1"/>
<rect width="5.4284" height="5.41438" transform="matrix(1 0 0 -1 65.1406 5.42188)" fill="#A1A1A1"/>
<rect width="5.4284" height="5.41438" transform="matrix(1 0 0 -1 43.4277 92.0527)" fill="#A1A1A1"/>
<rect width="5.4284" height="5.41438" transform="matrix(1 0 0 -1 43.4277 200.342)" fill="#A1A1A1"/>
<rect width="5.4284" height="5.41438" transform="matrix(1 0 0 -1 86.8555 146.199)" fill="#A1A1A1"/>
<rect width="5.4284" height="5.41438" transform="matrix(1 0 0 -1 43.4277 146.199)" fill="#A1A1A1"/>
<rect width="5.4284" height="5.41438" transform="matrix(1 0 0 -1 130.281 146.199)" fill="#A1A1A1"/>
<rect width="5.4284" height="5.41438" transform="matrix(1 0 0 -1 173.709 146.199)" fill="#A1A1A1"/>
<rect width="5.4284" height="5.41438" transform="matrix(1 0 0 -1 217.137 146.199)" fill="#A1A1A1"/>
<rect width="5.4284" height="5.41438" transform="matrix(1 0 0 -1 54.2852 135.369)" fill="#A1A1A1"/>
<rect width="5.4284" height="5.41438" transform="matrix(1 0 0 -1 54.2852 222)" fill="#A1A1A1"/>
<rect width="5.4284" height="5.41438" transform="matrix(1 0 0 -1 10.8555 222)" fill="#A1A1A1"/>
<rect width="5.4284" height="5.41438" transform="matrix(1 0 0 -1 59.7129 92.0527)" fill="#A1A1A1"/>
<rect width="5.4284" height="5.41438" transform="matrix(1 0 0 -1 59.7129 178.684)" fill="#A1A1A1"/>
<rect width="5.4284" height="5.41438" transform="matrix(1 0 0 -1 103.141 178.684)" fill="#A1A1A1"/>
<rect width="5.4284" height="5.41438" transform="matrix(1 0 0 -1 146.566 178.684)" fill="#A1A1A1"/>
<rect width="5.4284" height="5.41438" transform="matrix(1 0 0 -1 189.994 178.684)" fill="#A1A1A1"/>
<rect width="5.4284" height="5.41438" transform="matrix(1 0 0 -1 233.422 178.684)" fill="#A1A1A1"/>
<rect width="5.4284" height="5.41438" transform="matrix(1 0 0 -1 157.424 135.369)" fill="#A1A1A1"/>
<rect width="5.4284" height="5.41438" transform="matrix(1 0 0 -1 162.852 92.0527)" fill="#A1A1A1"/>
<rect width="5.4284" height="5.41438" transform="matrix(1 0 0 -1 162.852 222)" fill="#A1A1A1"/>
<rect width="5.4284" height="5.41438" transform="matrix(1 0 0 -1 86.8555 167.854)" fill="#A1A1A1"/>
<rect width="5.4284" height="5.41438" transform="matrix(1 0 0 -1 92.2832 92.0527)" fill="#A1A1A1"/>
<rect width="5.4284" height="5.41438" transform="matrix(1 0 0 -1 92.2832 222)" fill="#A1A1A1"/>
<rect width="5.4284" height="5.41438" transform="matrix(1 0 0 -1 189.994 135.369)" fill="#A1A1A1"/>
<rect width="5.4284" height="5.41438" transform="matrix(1 0 0 -1 195.422 92.0527)" fill="#A1A1A1"/>
<rect width="5.4284" height="5.41438" transform="matrix(1 0 0 -1 195.422 222)" fill="#A1A1A1"/>
<rect width="5.4284" height="5.41438" transform="matrix(1 0 0 -1 184.566 48.7393)" fill="#A1A1A1"/>
<rect width="5.4284" height="5.41438" transform="matrix(1 0 0 -1 184.566 5.42188)" fill="#A1A1A1"/>
<rect width="5.4284" height="5.41438" transform="matrix(1 0 0 -1 119.426 135.369)" fill="#A1A1A1"/>
<rect width="5.4284" height="5.41438" transform="matrix(1 0 0 -1 124.854 92.0527)" fill="#A1A1A1"/>
<rect width="5.4284" height="5.41438" transform="matrix(1 0 0 -1 124.854 222)" fill="#A1A1A1"/>
<rect width="5.4284" height="5.41438" transform="matrix(1 0 0 -1 222.564 135.369)" fill="#A1A1A1"/>
<rect width="5.4284" height="5.41438" transform="matrix(1 0 0 -1 227.992 92.0527)" fill="#A1A1A1"/>
<rect width="5.4284" height="5.41438" transform="matrix(1 0 0 -1 227.992 222)" fill="#A1A1A1"/>
<rect width="5.4284" height="5.41438" transform="matrix(1 0 0 -1 217.137 59.5684)" fill="#A1A1A1"/>
<rect width="5.4284" height="5.41438" transform="matrix(1 0 0 -1 217.137 16.251)" fill="#A1A1A1"/>
<rect width="5.4284" height="5.41438" transform="matrix(1 0 0 -1 151.996 135.369)" fill="#A1A1A1"/>
<rect width="5.4284" height="5.41438" transform="matrix(1 0 0 -1 157.424 92.0527)" fill="#A1A1A1"/>
<rect width="5.4284" height="5.41438" transform="matrix(1 0 0 -1 157.424 222)" fill="#A1A1A1"/>
<rect width="5.4284" height="5.41438" transform="matrix(1 0 0 -1 255.137 135.369)" fill="#A1A1A1"/>
<rect width="5.4284" height="5.41438" transform="matrix(1 0 0 -1 249.707 48.7393)" fill="#A1A1A1"/>
<rect width="5.4284" height="5.41438" transform="matrix(1 0 0 -1 249.707 5.42188)" fill="#A1A1A1"/>
<rect width="5.4284" height="5.41438" transform="matrix(1 0 0 -1 141.139 48.7393)" fill="#A1A1A1"/>
<rect width="5.4284" height="5.41438" transform="matrix(1 0 0 -1 141.139 5.42188)" fill="#A1A1A1"/>
<rect width="5.4284" height="5.41438" transform="matrix(1 0 0 -1 43.4277 64.9824)" fill="#A1A1A1"/>
<rect width="5.4284" height="5.41438" transform="matrix(1 0 0 -1 43.4277 21.665)" fill="#A1A1A1"/>
<rect width="5.4284" height="5.41438" transform="matrix(1 0 0 -1 43.4277 173.27)" fill="#A1A1A1"/>
<rect width="5.4284" height="5.41438" transform="matrix(1 0 0 -1 86.8555 119.125)" fill="#A1A1A1"/>
<rect width="5.4284" height="5.41438" transform="matrix(1 0 0 -1 43.4277 119.125)" fill="#A1A1A1"/>
<rect width="5.4284" height="5.41438" transform="matrix(1 0 0 -1 130.281 119.125)" fill="#A1A1A1"/>
<rect width="5.4284" height="5.41438" transform="matrix(1 0 0 -1 173.709 119.125)" fill="#A1A1A1"/>
<rect width="5.4284" height="5.41438" transform="matrix(1 0 0 -1 217.137 119.125)" fill="#A1A1A1"/>
<rect width="5.4284" height="5.41438" transform="matrix(1 0 0 -1 43.4277 59.5684)" fill="#A1A1A1"/>
<rect width="5.4284" height="5.41438" transform="matrix(1 0 0 -1 43.4277 16.251)" fill="#A1A1A1"/>
<rect width="5.4284" height="5.41438" transform="matrix(1 0 0 -1 43.4277 167.854)" fill="#A1A1A1"/>
<rect width="5.4284" height="5.41438" transform="matrix(1 0 0 -1 48.8555 92.0527)" fill="#A1A1A1"/>
<rect width="5.4284" height="5.41438" transform="matrix(1 0 0 -1 48.8555 178.684)" fill="#A1A1A1"/>
<rect width="5.4284" height="5.41438" transform="matrix(1 0 0 -1 92.2832 178.684)" fill="#A1A1A1"/>
<rect width="5.4284" height="5.41438" transform="matrix(1 0 0 -1 135.711 178.684)" fill="#A1A1A1"/>
<rect width="5.4284" height="5.41438" transform="matrix(1 0 0 -1 179.137 178.684)" fill="#A1A1A1"/>
<rect width="5.4284" height="5.41438" transform="matrix(1 0 0 -1 222.564 178.684)" fill="#A1A1A1"/>
<rect width="5.4284" height="5.41438" transform="matrix(1 0 0 -1 146.566 135.369)" fill="#A1A1A1"/>
<rect width="5.4284" height="5.41438" transform="matrix(1 0 0 -1 151.996 92.0527)" fill="#A1A1A1"/>
<rect width="5.4284" height="5.41438" transform="matrix(1 0 0 -1 151.996 222)" fill="#A1A1A1"/>
<rect width="5.4284" height="5.41438" transform="matrix(1 0 0 -1 75.998 135.369)" fill="#A1A1A1"/>
<rect width="5.4284" height="5.41438" transform="matrix(1 0 0 -1 75.998 222)" fill="#A1A1A1"/>
<rect width="5.4284" height="5.41438" transform="matrix(1 0 0 -1 32.5703 222)" fill="#A1A1A1"/>
<rect width="5.4284" height="5.41438" transform="matrix(1 0 0 -1 81.4258 92.0527)" fill="#A1A1A1"/>
<rect width="5.4284" height="5.41438" transform="matrix(1 0 0 -1 81.4258 178.684)" fill="#A1A1A1"/>
<rect width="5.4284" height="5.41438" transform="matrix(1 0 0 -1 124.854 178.684)" fill="#A1A1A1"/>
<rect width="5.4284" height="5.41438" transform="matrix(1 0 0 -1 168.281 178.684)" fill="#A1A1A1"/>
<rect width="5.4284" height="5.41438" transform="matrix(1 0 0 -1 211.707 178.684)" fill="#A1A1A1"/>
<rect width="5.4284" height="5.41438" transform="matrix(1 0 0 -1 255.137 178.684)" fill="#A1A1A1"/>
<rect width="5.4284" height="5.41438" transform="matrix(1 0 0 -1 179.137 135.369)" fill="#A1A1A1"/>
<rect width="5.4284" height="5.41438" transform="matrix(1 0 0 -1 184.566 92.0527)" fill="#A1A1A1"/>
<rect width="5.4284" height="5.41438" transform="matrix(1 0 0 -1 184.566 222)" fill="#A1A1A1"/>
<rect width="5.4284" height="5.41438" transform="matrix(1 0 0 -1 173.709 59.5684)" fill="#A1A1A1"/>
<rect width="5.4284" height="5.41438" transform="matrix(1 0 0 -1 173.709 16.251)" fill="#A1A1A1"/>
<rect width="5.4284" height="5.41438" transform="matrix(1 0 0 -1 108.568 135.369)" fill="#A1A1A1"/>
<rect width="5.4284" height="5.41438" transform="matrix(1 0 0 -1 113.996 92.0527)" fill="#A1A1A1"/>
<rect width="5.4284" height="5.41438" transform="matrix(1 0 0 -1 113.996 222)" fill="#A1A1A1"/>
<rect width="5.4284" height="5.41438" transform="matrix(1 0 0 -1 211.707 135.369)" fill="#A1A1A1"/>
<rect width="5.4284" height="5.41438" transform="matrix(1 0 0 -1 217.137 113.711)" fill="#A1A1A1"/>
<rect width="5.4284" height="5.41438" transform="matrix(1 0 0 -1 217.137 222)" fill="#A1A1A1"/>
<rect width="5.4284" height="5.41438" transform="matrix(1 0 0 -1 206.279 48.7393)" fill="#A1A1A1"/>
<rect width="5.4284" height="5.41438" transform="matrix(1 0 0 -1 206.279 5.42188)" fill="#A1A1A1"/>
<rect width="5.4284" height="5.41438" transform="matrix(1 0 0 -1 141.139 135.369)" fill="#A1A1A1"/>
<rect width="5.4284" height="5.41438" transform="matrix(1 0 0 -1 146.566 92.0527)" fill="#A1A1A1"/>
<rect width="5.4284" height="5.41438" transform="matrix(1 0 0 -1 146.566 222)" fill="#A1A1A1"/>
<rect width="5.4284" height="5.41438" transform="matrix(1 0 0 -1 244.277 135.369)" fill="#A1A1A1"/>
<rect width="5.4284" height="5.41438" transform="matrix(1 0 0 -1 249.707 92.0527)" fill="#A1A1A1"/>
<rect width="5.4284" height="5.41438" transform="matrix(1 0 0 -1 249.707 222)" fill="#A1A1A1"/>
<rect width="5.4284" height="5.41438" transform="matrix(1 0 0 -1 260.562 113.711)" fill="#A1A1A1"/>
<rect width="5.4284" height="5.41438" transform="matrix(1 0 0 -1 260.562 222)" fill="#A1A1A1"/>
<rect width="5.4284" height="5.41438" transform="matrix(1 0 0 -1 238.85 48.7393)" fill="#A1A1A1"/>
<rect width="5.4284" height="5.41438" transform="matrix(1 0 0 -1 238.85 5.42188)" fill="#A1A1A1"/>
<rect width="5.4284" height="5.41438" transform="matrix(1 0 0 -1 135.711 48.7393)" fill="#A1A1A1"/>
<rect width="5.4284" height="5.41438" transform="matrix(1 0 0 -1 135.711 5.42188)" fill="#A1A1A1"/>
<rect width="5.4284" height="5.41438" transform="matrix(1 0 0 -1 75.998 48.7393)" fill="#A1A1A1"/>
<rect width="5.4284" height="5.41438" transform="matrix(1 0 0 -1 75.998 5.42188)" fill="#A1A1A1"/>
<rect width="5.4284" height="5.41438" transform="matrix(1 0 0 -1 97.7109 48.7393)" fill="#A1A1A1"/>
<rect width="5.4284" height="5.41438" transform="matrix(1 0 0 -1 97.7109 5.42188)" fill="#A1A1A1"/>
<rect width="5.4284" height="5.41438" transform="matrix(1 0 0 -1 151.996 48.7393)" fill="#A1A1A1"/>
<rect width="5.4284" height="5.41438" transform="matrix(1 0 0 -1 151.996 5.42188)" fill="#A1A1A1"/>
<rect width="5.4284" height="5.41438" transform="matrix(1 0 0 -1 86.8555 92.0527)" fill="#A1A1A1"/>
<rect width="5.4284" height="5.41438" transform="matrix(1 0 0 -1 86.8555 200.342)" fill="#A1A1A1"/>
<rect width="5.4284" height="5.41438" transform="matrix(1 0.000189148 0.000190129 -1 43.5586 81.2227)" fill="black"/>
<rect width="5.4284" height="5.41438" transform="matrix(1 0.000189148 0.000190129 -1 43.5586 37.9102)" fill="black"/>
<rect width="5.4284" height="5.41438" transform="matrix(1 0.000189148 0.000190129 -1 43.5586 189.512)" fill="black"/>
<rect width="5.4284" height="5.41438" transform="matrix(1 0.000189148 0.000190129 -1 86.9883 135.369)" fill="black"/>
<rect width="5.4284" height="5.41438" transform="matrix(1 0.000189148 0.000190129 -1 43.5586 135.369)" fill="black"/>
<rect width="5.4284" height="5.41438" transform="matrix(1 0.000189148 0.000190129 -1 130.414 135.369)" fill="black"/>
<rect width="5.4284" height="5.41438" transform="matrix(1 0.000189148 0.000190129 -1 173.842 135.369)" fill="black"/>
<rect width="5.4284" height="5.41438" transform="matrix(1 0.000189148 0.000190129 -1 217.27 135.369)" fill="black"/>
<rect width="5.4284" height="5.41438" transform="matrix(1 0.000189148 0.000190129 -1 86.9883 81.2227)" fill="black"/>
<rect width="5.4284" height="5.41438" transform="matrix(1 0.000189148 0.000190129 -1 86.9883 37.9102)" fill="black"/>
<rect width="5.4284" height="5.41438" transform="matrix(1 0.000189148 0.000190129 -1 86.9883 189.512)" fill="black"/>
<rect width="5.4284" height="5.41438" transform="matrix(1 0.000189148 0.000190129 -1 130.414 81.2227)" fill="black"/>
<rect width="5.4284" height="5.41438" transform="matrix(1 0.000189148 0.000190129 -1 130.414 37.9102)" fill="black"/>
<rect width="5.4284" height="5.41438" transform="matrix(1 0.000189148 0.000190129 -1 173.842 81.2227)" fill="black"/>
<rect width="5.4284" height="5.41438" transform="matrix(1 0.000189148 0.000190129 -1 173.842 37.9102)" fill="black"/>
<rect width="5.4284" height="5.41438" transform="matrix(1 0.000189148 0.000190129 -1 130.414 189.512)" fill="black"/>
<rect width="5.4284" height="5.41438" transform="matrix(1 0.000189148 0.000190129 -1 217.27 81.2227)" fill="black"/>
<rect width="5.4284" height="5.41438" transform="matrix(1 0.000189148 0.000190129 -1 217.27 37.9102)" fill="black"/>
<rect width="5.4284" height="5.41438" transform="matrix(1 0.000189148 0.000190129 -1 173.842 189.512)" fill="black"/>
<rect width="5.4284" height="5.41438" transform="matrix(1 0.000189148 0.000190129 -1 217.27 189.512)" fill="black"/>
<rect width="5.41438" height="5.4284" transform="matrix(-4.38246e-08 -1 -1 4.35985e-08 27.1426 48.7393)" fill="black"/>
<rect width="5.41438" height="5.4284" transform="matrix(-4.38246e-08 -1 -1 4.35985e-08 27.1426 5.42188)" fill="black"/>
<rect width="5.41438" height="5.4284" transform="matrix(-4.38246e-08 -1 -1 4.35985e-08 27.1426 135.369)" fill="black"/>
<rect width="5.41438" height="5.4284" transform="matrix(-4.38246e-08 -1 -1 4.35985e-08 32.5703 92.0527)" fill="black"/>
<rect width="5.41438" height="5.4284" transform="matrix(-4.38246e-08 -1 -1 4.35985e-08 32.5703 178.684)" fill="black"/>
<rect width="5.4284" height="5.41438" transform="matrix(1 0.000189148 0.000190129 -1 43.4277 81.2227)" fill="#A1A1A1"/>
<rect width="5.4284" height="5.41438" transform="matrix(1 0.000189148 0.000190129 -1 43.4277 37.9102)" fill="#A1A1A1"/>
<rect width="5.4284" height="5.41438" transform="matrix(1 0.000189148 0.000190129 -1 43.4277 189.512)" fill="#A1A1A1"/>
<rect width="5.4284" height="5.41438" transform="matrix(1 0.000189148 0.000190129 -1 86.8555 135.369)" fill="#A1A1A1"/>
<rect width="5.4284" height="5.41438" transform="matrix(1 0.000189148 0.000190129 -1 43.4277 135.369)" fill="#A1A1A1"/>
<rect width="5.4284" height="5.41438" transform="matrix(1 0.000189148 0.000190129 -1 130.281 135.369)" fill="#A1A1A1"/>
<rect width="5.4284" height="5.41438" transform="matrix(1 0.000189148 0.000190129 -1 173.709 135.369)" fill="#A1A1A1"/>
<rect width="5.4284" height="5.41438" transform="matrix(1 0.000189148 0.000190129 -1 217.137 135.369)" fill="#A1A1A1"/>
<rect width="5.4284" height="5.41438" transform="matrix(1 0.000189148 0.000190129 -1 86.8555 81.2227)" fill="#A1A1A1"/>
<rect width="5.4284" height="5.41438" transform="matrix(1 0.000189148 0.000190129 -1 86.8555 37.9102)" fill="#A1A1A1"/>
<rect width="5.4284" height="5.41438" transform="matrix(1 0.000189148 0.000190129 -1 86.8555 189.512)" fill="#A1A1A1"/>
<rect width="5.4284" height="5.41438" transform="matrix(1 0.000189148 0.000190129 -1 130.281 81.2227)" fill="#A1A1A1"/>
<rect width="5.4284" height="5.41438" transform="matrix(1 0.000189148 0.000190129 -1 130.281 37.9102)" fill="#A1A1A1"/>
<rect width="5.4284" height="5.41438" transform="matrix(1 0.000189148 0.000190129 -1 173.709 81.2227)" fill="#A1A1A1"/>
<rect width="5.4284" height="5.41438" transform="matrix(1 0.000189148 0.000190129 -1 173.709 37.9102)" fill="#A1A1A1"/>
<rect width="5.4284" height="5.41438" transform="matrix(1 0.000189148 0.000190129 -1 130.281 189.512)" fill="#A1A1A1"/>
<rect width="5.4284" height="5.41438" transform="matrix(1 0.000189148 0.000190129 -1 217.137 81.2227)" fill="#A1A1A1"/>
<rect width="5.4284" height="5.41438" transform="matrix(1 0.000189148 0.000190129 -1 217.137 37.9102)" fill="#A1A1A1"/>
<rect width="5.4284" height="5.41438" transform="matrix(1 0.000189148 0.000190129 -1 173.709 189.512)" fill="#A1A1A1"/>
<rect width="5.4284" height="5.41438" transform="matrix(1 0.000189148 0.000190129 -1 217.137 189.512)" fill="#A1A1A1"/>
<rect width="5.41438" height="5.4284" transform="matrix(-4.38246e-08 -1 -1 4.35985e-08 27.1426 48.7393)" fill="#A1A1A1"/>
<rect width="5.41438" height="5.4284" transform="matrix(-4.38246e-08 -1 -1 4.35985e-08 27.1426 5.42188)" fill="#A1A1A1"/>
<rect width="5.41438" height="5.4284" transform="matrix(-4.38246e-08 -1 -1 4.35985e-08 27.1426 135.369)" fill="#A1A1A1"/>
<rect width="5.41438" height="5.4284" transform="matrix(-4.38246e-08 -1 -1 4.35985e-08 32.5703 92.0527)" fill="#A1A1A1"/>
<rect width="5.41438" height="5.4284" transform="matrix(-4.38246e-08 -1 -1 4.35985e-08 32.5703 178.684)" fill="#A1A1A1"/>
<rect x="59.7129" y="48.7393" width="5.41438" height="5.4284" transform="rotate(-90 59.7129 48.7393)" fill="#A1A1A1"/>
<rect x="59.7129" y="5.42188" width="5.41438" height="5.4284" transform="rotate(-90 59.7129 5.42188)" fill="#A1A1A1"/>
<rect width="5.4284" height="5.41438" transform="matrix(1 0.000189148 0.000190129 -1 43.4277 86.6387)" fill="#A1A1A1"/>
<rect width="5.4284" height="5.41438" transform="matrix(1 0.000189148 0.000190129 -1 43.4277 43.3232)" fill="#A1A1A1"/>
<rect width="5.4284" height="5.41438" transform="matrix(1 0.000189148 0.000190129 -1 43.4277 194.928)" fill="#A1A1A1"/>
<rect width="5.4284" height="5.41438" transform="matrix(1 0.000189148 0.000190129 -1 86.8555 140.783)" fill="#A1A1A1"/>
<rect width="5.4284" height="5.41438" transform="matrix(1 0.000189148 0.000190129 -1 43.4277 140.783)" fill="#A1A1A1"/>
<rect width="5.4284" height="5.41438" transform="matrix(1 0.000189148 0.000190129 -1 130.281 140.783)" fill="#A1A1A1"/>
<rect width="5.4284" height="5.41438" transform="matrix(1 0.000189148 0.000190129 -1 173.709 140.783)" fill="#A1A1A1"/>
<rect width="5.4284" height="5.41438" transform="matrix(1 0.000189148 0.000190129 -1 217.137 140.783)" fill="#A1A1A1"/>
<rect width="5.4284" height="5.41438" transform="matrix(1 0.000189148 0.000190129 -1 86.8555 86.6387)" fill="#A1A1A1"/>
<rect width="5.4284" height="5.41438" transform="matrix(1 0.000189148 0.000190129 -1 86.8555 43.3232)" fill="#A1A1A1"/>
<rect width="5.4284" height="5.41438" transform="matrix(1 0.000189148 0.000190129 -1 86.8555 194.928)" fill="#A1A1A1"/>
<rect width="5.4284" height="5.41438" transform="matrix(1 0.000189148 0.000190129 -1 130.281 86.6387)" fill="#A1A1A1"/>
<rect width="5.4284" height="5.41438" transform="matrix(1 0.000189148 0.000190129 -1 130.281 43.3232)" fill="#A1A1A1"/>
<rect width="5.4284" height="5.41438" transform="matrix(1 0.000189148 0.000190129 -1 173.709 86.6387)" fill="#A1A1A1"/>
<rect width="5.4284" height="5.41438" transform="matrix(1 0.000189148 0.000190129 -1 173.709 43.3232)" fill="#A1A1A1"/>
<rect width="5.4284" height="5.41438" transform="matrix(1 0.000189148 0.000190129 -1 130.281 194.928)" fill="#A1A1A1"/>
<rect width="5.4284" height="5.41438" transform="matrix(1 0.000189148 0.000190129 -1 217.137 86.6387)" fill="#A1A1A1"/>
<rect width="5.4284" height="5.41438" transform="matrix(1 0.000189148 0.000190129 -1 217.137 43.3232)" fill="#A1A1A1"/>
<rect width="5.4284" height="5.41438" transform="matrix(1 0.000189148 0.000190129 -1 173.709 194.928)" fill="#A1A1A1"/>
<rect width="5.4284" height="5.41438" transform="matrix(1 0.000189148 0.000190129 -1 217.137 194.928)" fill="#A1A1A1"/>
<rect width="5.41438" height="5.4284" transform="matrix(-4.38246e-08 -1 -1 4.35985e-08 32.5703 48.7393)" fill="#A1A1A1"/>
<rect width="5.41438" height="5.4284" transform="matrix(-4.38246e-08 -1 -1 4.35985e-08 32.5703 5.42188)" fill="#A1A1A1"/>
<rect width="5.41438" height="5.4284" transform="matrix(-4.38246e-08 -1 -1 4.35985e-08 32.5703 135.369)" fill="#A1A1A1"/>
<rect width="5.41438" height="5.4284" transform="matrix(-4.38246e-08 -1 -1 4.35985e-08 38 92.0527)" fill="#A1A1A1"/>
<rect width="5.41438" height="5.4284" transform="matrix(-4.38246e-08 -1 -1 4.35985e-08 38 178.684)" fill="#A1A1A1"/>
<rect width="5.4284" height="5.41438" transform="matrix(0.999999 -0.00124887 -0.00125534 -0.999999 43.4355 70.3984)" fill="#A1A1A1"/>
<rect width="5.4284" height="5.41438" transform="matrix(0.999999 -0.00124887 -0.00125534 -0.999999 43.4355 27.0811)" fill="#A1A1A1"/>
<rect width="5.4284" height="5.41438" transform="matrix(0.999999 -0.00124887 -0.00125534 -0.999999 43.4355 178.684)" fill="#A1A1A1"/>
<rect width="5.4284" height="5.41438" transform="matrix(0.999999 -0.00124887 -0.00125534 -0.999999 86.8633 124.541)" fill="#A1A1A1"/>
<rect width="5.4284" height="5.41438" transform="matrix(0.999999 -0.00124887 -0.00125534 -0.999999 43.4355 124.541)" fill="#A1A1A1"/>
<rect width="5.4284" height="5.41438" transform="matrix(0.999999 -0.00124887 -0.00125534 -0.999999 130.289 124.541)" fill="#A1A1A1"/>
<rect width="5.4284" height="5.41438" transform="matrix(0.999999 -0.00124887 -0.00125534 -0.999999 173.717 124.541)" fill="#A1A1A1"/>
<rect width="5.4284" height="5.41438" transform="matrix(0.999999 -0.00124887 -0.00125534 -0.999999 217.145 124.541)" fill="#A1A1A1"/>
<rect width="5.4284" height="5.41438" transform="matrix(0.999999 -0.00124887 -0.00125534 -0.999999 86.8633 70.3984)" fill="#A1A1A1"/>
<rect width="5.4284" height="5.41438" transform="matrix(0.999999 -0.00124887 -0.00125534 -0.999999 86.8633 27.0811)" fill="#A1A1A1"/>
<rect width="5.4284" height="5.41438" transform="matrix(0.999999 -0.00124887 -0.00125534 -0.999999 86.8633 178.684)" fill="#A1A1A1"/>
<rect width="5.4284" height="5.41438" transform="matrix(0.999999 -0.00124887 -0.00125534 -0.999999 130.289 70.3984)" fill="#A1A1A1"/>
<rect width="5.4284" height="5.41438" transform="matrix(0.999999 -0.00124887 -0.00125534 -0.999999 130.289 27.0811)" fill="#A1A1A1"/>
<rect width="5.4284" height="5.41438" transform="matrix(0.999999 -0.00124887 -0.00125534 -0.999999 173.717 70.3984)" fill="#A1A1A1"/>
<rect width="5.4284" height="5.41438" transform="matrix(0.999999 -0.00124887 -0.00125534 -0.999999 173.717 27.0811)" fill="#A1A1A1"/>
<rect width="5.4284" height="5.41438" transform="matrix(0.999999 -0.00124887 -0.00125534 -0.999999 130.289 178.684)" fill="#A1A1A1"/>
<rect width="5.4284" height="5.41438" transform="matrix(0.999999 -0.00124887 -0.00125534 -0.999999 217.145 70.3984)" fill="#A1A1A1"/>
<rect width="5.4284" height="5.41438" transform="matrix(0.999999 -0.00124887 -0.00125534 -0.999999 217.145 27.0811)" fill="#A1A1A1"/>
<rect width="5.4284" height="5.41438" transform="matrix(0.999999 -0.00124887 -0.00125534 -0.999999 173.717 178.684)" fill="#A1A1A1"/>
<rect width="5.4284" height="5.41438" transform="matrix(0.999999 -0.00124887 -0.00125534 -0.999999 217.145 178.684)" fill="#A1A1A1"/>
<rect width="5.4284" height="5.41438" transform="matrix(0.999999 -0.00124887 -0.00125534 -0.999999 130.289 48.7393)" fill="#A1A1A1"/>
<rect width="5.4284" height="5.41438" transform="matrix(0.999999 -0.00124887 -0.00125534 -0.999999 130.289 5.42188)" fill="#A1A1A1"/>
<rect width="5.4284" height="5.41438" transform="matrix(0.999999 -0.00124887 -0.00125534 -0.999999 130.289 102.881)" fill="#A1A1A1"/>
<rect width="5.4284" height="5.41438" transform="matrix(0.999999 -0.00124887 -0.00125534 -0.999999 173.717 102.881)" fill="#A1A1A1"/>
<rect width="5.4284" height="5.41438" transform="matrix(0.999999 -0.00124887 -0.00125534 -0.999999 130.289 211.17)" fill="#A1A1A1"/>
<rect width="5.4284" height="5.41438" transform="matrix(0.999999 -0.00124887 -0.00125534 -0.999999 217.145 102.881)" fill="#A1A1A1"/>
<rect width="5.4284" height="5.41438" transform="matrix(0.999999 -0.00124887 -0.00125534 -0.999999 173.717 211.17)" fill="#A1A1A1"/>
<rect width="5.4284" height="5.41438" transform="matrix(0.999999 -0.00124887 -0.00125534 -0.999999 217.145 211.17)" fill="#A1A1A1"/>
<rect width="5.4284" height="5.41438" transform="matrix(0.999999 -0.00124887 -0.00125534 -0.999999 0.0078125 54.1533)" fill="#A1A1A1"/>
<rect width="5.4284" height="5.41438" transform="matrix(0.999999 -0.00124887 -0.00125534 -0.999999 0.0078125 10.8359)" fill="#A1A1A1"/>
<rect width="5.4284" height="5.41438" transform="matrix(0.999999 -0.00124887 -0.00125534 -0.999999 32.5781 48.7393)" fill="#A1A1A1"/>
<rect width="5.4284" height="5.41438" transform="matrix(0.999999 -0.00124887 -0.00125534 -0.999999 32.5781 5.42188)" fill="#A1A1A1"/>
<rect width="5.4284" height="5.41438" transform="matrix(0.999999 -0.00124887 -0.00125534 -0.999999 86.8633 54.1533)" fill="#A1A1A1"/>
<rect width="5.4284" height="5.41438" transform="matrix(0.999999 -0.00124887 -0.00125534 -0.999999 86.8633 10.8359)" fill="#A1A1A1"/>
<rect width="5.4284" height="5.41438" transform="matrix(0.999999 -0.00124887 -0.00125534 -0.999999 86.8633 108.295)" fill="#A1A1A1"/>
<rect width="5.4284" height="5.41438" transform="matrix(0.999999 -0.00124887 -0.00125534 -0.999999 86.8633 216.584)" fill="#A1A1A1"/>
<rect width="5.4284" height="5.41438" transform="matrix(0.999999 -0.00124887 -0.00125534 -0.999999 260.57 54.1533)" fill="#A1A1A1"/>
<rect width="5.4284" height="5.41438" transform="matrix(0.999999 -0.00124887 -0.00125534 -0.999999 260.57 10.8359)" fill="#A1A1A1"/>
<rect width="5.4284" height="5.41438" transform="matrix(0.999999 -0.00124887 -0.00125534 -0.999999 0.0078125 75.8125)" fill="#A1A1A1"/>
<rect width="5.4284" height="5.41438" transform="matrix(0.999999 -0.00124887 -0.00125534 -0.999999 0.0078125 32.4941)" fill="#A1A1A1"/>
<rect width="5.4284" height="5.41438" transform="matrix(0.999999 -0.00124887 -0.00125534 -0.999999 0.0078125 184.098)" fill="#A1A1A1"/>
<rect width="5.4284" height="5.41438" transform="matrix(0.999999 -0.00124887 -0.00125534 -0.999999 260.57 70.3984)" fill="#A1A1A1"/>
<rect width="5.4284" height="5.41438" transform="matrix(0.999999 -0.00124887 -0.00125534 -0.999999 260.57 27.0811)" fill="#A1A1A1"/>
<rect width="5.4284" height="5.41438" transform="matrix(0.999999 -0.00124887 -0.00125534 -0.999999 260.57 178.684)" fill="#A1A1A1"/>
<rect width="5.4284" height="5.41438" transform="matrix(0.999999 -0.00124887 -0.00125534 -0.999999 0.0078125 97.4688)" fill="#A1A1A1"/>
<rect width="5.4284" height="5.41438" transform="matrix(0.999999 -0.00124887 -0.00125534 -0.999999 0.0078125 205.754)" fill="#A1A1A1"/>
<rect width="5.4284" height="5.41438" transform="matrix(0.999999 -0.00124887 -0.00125534 -0.999999 260.57 92.0527)" fill="#A1A1A1"/>
<rect width="5.4284" height="5.41438" transform="matrix(0.999999 -0.00124887 -0.00125534 -0.999999 260.57 200.342)" fill="#A1A1A1"/>
<rect width="5.4284" height="5.41438" transform="matrix(0.999999 -0.00124887 -0.00125534 -0.999999 0.0078125 119.125)" fill="#A1A1A1"/>
<rect width="5.4284" height="5.41438" transform="matrix(0.999999 -0.00124887 -0.00125534 -0.999999 173.717 54.1533)" fill="#A1A1A1"/>
<rect width="5.4284" height="5.41438" transform="matrix(0.999999 -0.00124887 -0.00125534 -0.999999 173.717 10.8359)" fill="#A1A1A1"/>
<rect width="5.4284" height="5.41438" transform="matrix(0.999999 -0.00124887 -0.00125534 -0.999999 260.57 113.711)" fill="#A1A1A1"/>
<rect width="5.4284" height="5.41438" transform="matrix(0.999999 -0.00124887 -0.00125534 -0.999999 260.57 222)" fill="#A1A1A1"/>
<rect width="5.4284" height="5.41438" transform="matrix(0.999999 -0.00124887 -0.00125534 -0.999999 0.0078125 140.783)" fill="#A1A1A1"/>
<rect width="5.4284" height="5.41438" transform="matrix(0.999999 -0.00124887 -0.00125534 -0.999999 260.57 135.369)" fill="#A1A1A1"/>
<rect width="5.4284" height="5.41438" transform="matrix(0.999999 -0.00124887 -0.00125534 -0.999999 0.0078125 162.439)" fill="#A1A1A1"/>
<rect width="5.4284" height="5.41438" transform="matrix(0.999999 -0.00124887 -0.00125534 -0.999999 217.145 48.7393)" fill="#A1A1A1"/>
<rect width="5.4284" height="5.41438" transform="matrix(0.999999 -0.00124887 -0.00125534 -0.999999 217.145 5.42188)" fill="#A1A1A1"/>
<rect width="5.4284" height="5.41438" transform="matrix(0.999999 -0.00124887 -0.00125534 -0.999999 260.57 157.023)" fill="#A1A1A1"/>
<rect width="5.41438" height="5.4284" transform="matrix(-4.38246e-08 -1 -1 4.35985e-08 16.2852 48.7393)" fill="#A1A1A1"/>
<rect width="5.41438" height="5.4284" transform="matrix(-4.38246e-08 -1 -1 4.35985e-08 16.2852 5.42188)" fill="#A1A1A1"/>
<rect width="5.41438" height="5.4284" transform="matrix(-4.38246e-08 -1 -1 4.35985e-08 16.2852 135.369)" fill="#A1A1A1"/>
<rect width="5.41438" height="5.4284" transform="matrix(-4.38246e-08 -1 -1 4.35985e-08 21.7148 92.0527)" fill="#A1A1A1"/>
<rect width="5.41438" height="5.4284" transform="matrix(-4.38246e-08 -1 -1 4.35985e-08 21.7148 178.684)" fill="#A1A1A1"/>
<rect width="5.41438" height="5.4284" transform="matrix(-4.38246e-08 -1 -1 4.35985e-08 16.2852 48.7393)" fill="#A1A1A1"/>
<rect width="5.41438" height="5.4284" transform="matrix(-4.38246e-08 -1 -1 4.35985e-08 16.2852 5.42188)" fill="#A1A1A1"/>
<rect width="5.41438" height="5.4284" transform="matrix(-4.38246e-08 -1 -1 4.35985e-08 16.2852 135.369)" fill="#A1A1A1"/>
<rect width="5.41438" height="5.4284" transform="matrix(-4.38246e-08 -1 -1 4.35985e-08 21.7148 92.0527)" fill="#A1A1A1"/>
<rect width="5.41438" height="5.4284" transform="matrix(-4.38246e-08 -1 -1 4.35985e-08 21.7148 178.684)" fill="#A1A1A1"/>
<rect width="5.41438" height="5.4284" transform="matrix(-4.38246e-08 -1 -1 4.35985e-08 92.2832 97.4688)" fill="#A1A1A1"/>
<rect width="5.41438" height="5.4284" transform="matrix(-4.38246e-08 -1 -1 4.35985e-08 92.2832 205.754)" fill="#A1A1A1"/>
<rect width="5.41438" height="5.4284" transform="matrix(-4.38246e-08 -1 -1 4.35985e-08 5.42969 64.9824)" fill="#A1A1A1"/>
<rect width="5.41438" height="5.4284" transform="matrix(-4.38246e-08 -1 -1 4.35985e-08 5.42969 21.665)" fill="#A1A1A1"/>
<rect width="5.41438" height="5.4284" transform="matrix(-4.38246e-08 -1 -1 4.35985e-08 5.42969 173.27)" fill="#A1A1A1"/>
<rect width="5.41438" height="5.4284" transform="matrix(-4.38246e-08 -1 -1 4.35985e-08 48.8555 48.7393)" fill="#A1A1A1"/>
<rect width="5.41438" height="5.4284" transform="matrix(-4.38246e-08 -1 -1 4.35985e-08 48.8555 5.42188)" fill="#A1A1A1"/>
<rect width="5.41438" height="5.4284" transform="matrix(-4.38246e-08 -1 -1 4.35985e-08 48.8555 102.881)" fill="#A1A1A1"/>
<rect width="5.41438" height="5.4284" transform="matrix(-4.38246e-08 -1 -1 4.35985e-08 48.8555 211.17)" fill="#A1A1A1"/>
<rect width="5.41438" height="5.4284" transform="matrix(-4.38246e-08 -1 -1 4.35985e-08 92.2832 157.023)" fill="#A1A1A1"/>
<rect width="5.41438" height="5.4284" transform="matrix(-4.38246e-08 -1 -1 4.35985e-08 48.8555 157.023)" fill="#A1A1A1"/>
<rect width="5.41438" height="5.4284" transform="matrix(-4.38246e-08 -1 -1 4.35985e-08 135.711 157.023)" fill="#A1A1A1"/>
<rect width="5.41438" height="5.4284" transform="matrix(-4.38246e-08 -1 -1 4.35985e-08 179.137 157.023)" fill="#A1A1A1"/>
<rect width="5.41438" height="5.4284" transform="matrix(-4.38246e-08 -1 -1 4.35985e-08 222.564 157.023)" fill="#A1A1A1"/>
<rect width="5.41438" height="5.4284" transform="matrix(-4.38246e-08 -1 -1 4.35985e-08 48.8555 54.1533)" fill="#A1A1A1"/>
<rect width="5.41438" height="5.4284" transform="matrix(-4.38246e-08 -1 -1 4.35985e-08 48.8555 10.8359)" fill="#A1A1A1"/>
<rect width="5.41438" height="5.4284" transform="matrix(-4.38246e-08 -1 -1 4.35985e-08 48.8555 108.295)" fill="#A1A1A1"/>
<rect width="5.41438" height="5.4284" transform="matrix(-4.38246e-08 -1 -1 4.35985e-08 48.8555 216.584)" fill="#A1A1A1"/>
<rect width="5.41438" height="5.4284" transform="matrix(-4.38246e-08 -1 -1 4.35985e-08 92.2832 162.439)" fill="#A1A1A1"/>
<rect width="5.41438" height="5.4284" transform="matrix(-4.38246e-08 -1 -1 4.35985e-08 48.8555 162.439)" fill="#A1A1A1"/>
<rect width="5.41438" height="5.4284" transform="matrix(-4.38246e-08 -1 -1 4.35985e-08 135.711 162.439)" fill="#A1A1A1"/>
<rect width="5.41438" height="5.4284" transform="matrix(-4.38246e-08 -1 -1 4.35985e-08 179.137 162.439)" fill="#A1A1A1"/>
<rect width="5.41438" height="5.4284" transform="matrix(-4.38246e-08 -1 -1 4.35985e-08 222.564 162.439)" fill="#A1A1A1"/>
<rect width="5.41438" height="5.4284" transform="matrix(-4.38246e-08 -1 -1 4.35985e-08 265.992 167.854)" fill="#A1A1A1"/>
<rect width="5.41438" height="5.4284" transform="matrix(-4.38246e-08 -1 -1 4.35985e-08 5.42969 86.6387)" fill="#A1A1A1"/>
<rect width="5.41438" height="5.4284" transform="matrix(-4.38246e-08 -1 -1 4.35985e-08 5.42969 43.3232)" fill="#A1A1A1"/>
<rect width="5.41438" height="5.4284" transform="matrix(-4.38246e-08 -1 -1 4.35985e-08 5.42969 194.928)" fill="#A1A1A1"/>
<rect width="5.41438" height="5.4284" transform="matrix(-4.38246e-08 -1 -1 4.35985e-08 265.992 81.2227)" fill="#A1A1A1"/>
<rect width="5.41438" height="5.4284" transform="matrix(-4.38246e-08 -1 -1 4.35985e-08 265.992 37.9102)" fill="#A1A1A1"/>
<rect width="5.41438" height="5.4284" transform="matrix(-4.38246e-08 -1 -1 4.35985e-08 265.992 189.512)" fill="#A1A1A1"/>
<rect width="5.41438" height="5.4284" transform="matrix(-4.38246e-08 -1 -1 4.35985e-08 5.42969 108.295)" fill="#A1A1A1"/>
<rect width="5.41438" height="5.4284" transform="matrix(-4.38246e-08 -1 -1 4.35985e-08 5.42969 216.584)" fill="#A1A1A1"/>
<rect width="5.41438" height="5.4284" transform="matrix(-4.38246e-08 -1 -1 4.35985e-08 265.992 102.881)" fill="#A1A1A1"/>
<rect width="5.41438" height="5.4284" transform="matrix(-4.38246e-08 -1 -1 4.35985e-08 265.992 211.17)" fill="#A1A1A1"/>
<rect width="5.41438" height="5.4284" transform="matrix(-4.38246e-08 -1 -1 4.35985e-08 5.42969 129.953)" fill="#A1A1A1"/>
<rect width="5.41438" height="5.4284" transform="matrix(-4.38246e-08 -1 -1 4.35985e-08 265.992 124.541)" fill="#A1A1A1"/>
<rect width="5.41438" height="5.4284" transform="matrix(-4.38246e-08 -1 -1 4.35985e-08 5.42969 151.613)" fill="#A1A1A1"/>
<rect width="5.41438" height="5.4284" transform="matrix(-4.38246e-08 -1 -1 4.35985e-08 265.992 146.199)" fill="#A1A1A1"/>
<rect width="5.4284" height="5.41438" transform="matrix(1 0.000189148 0.000190129 -1 0 48.7393)" fill="#A1A1A1"/>
<rect width="5.4284" height="5.41438" transform="matrix(1 9.31727e-05 0.000385976 -1 0 5.42188)" fill="#A1A1A1"/>
<rect width="5.4284" height="5.41438" transform="matrix(1 0.000189148 0.000190129 -1 86.8555 48.7393)" fill="#A1A1A1"/>
<rect width="5.4284" height="5.41438" transform="matrix(1 0.000189148 0.000190129 -1 86.8555 5.42188)" fill="#A1A1A1"/>
<rect width="5.4284" height="5.41438" transform="matrix(1 0.000189148 0.000190129 -1 86.8555 102.881)" fill="#A1A1A1"/>
<rect width="5.4284" height="5.41438" transform="matrix(1 0.000189148 0.000190129 -1 86.8555 211.17)" fill="#A1A1A1"/>
<rect width="5.4284" height="5.41438" transform="matrix(1 0.000189148 0.000190129 -1 260.562 48.7393)" fill="#A1A1A1"/>
<rect width="5.4284" height="5.41438" transform="matrix(1 0.000189148 0.000190129 -1 260.562 5.42188)" fill="#A1A1A1"/>
<rect width="5.4284" height="5.41438" transform="matrix(1 0.000189148 0.000190129 -1 0 70.3984)" fill="#A1A1A1"/>
<rect width="5.4284" height="5.41438" transform="matrix(1 0.000189148 0.000190129 -1 0 27.0811)" fill="#A1A1A1"/>
<rect width="5.4284" height="5.41438" transform="matrix(1 0.000189148 0.000190129 -1 0 178.684)" fill="#A1A1A1"/>
<rect width="5.4284" height="5.41438" transform="matrix(1 0.000189148 0.000190129 -1 260.562 64.9824)" fill="#A1A1A1"/>
<rect width="5.4284" height="5.41438" transform="matrix(1 0.000189148 0.000190129 -1 260.562 21.665)" fill="#A1A1A1"/>
<rect width="5.4284" height="5.41438" transform="matrix(1 0.000189148 0.000190129 -1 260.562 173.27)" fill="#A1A1A1"/>
<rect width="5.4284" height="5.41438" transform="matrix(1 0.000189148 0.000190129 -1 0 92.0527)" fill="#A1A1A1"/>
<rect width="5.4284" height="5.41438" transform="matrix(1 9.31727e-05 0.000385976 -1 0 200.342)" fill="#A1A1A1"/>
<rect width="5.4284" height="5.41438" transform="matrix(1 0.000189148 0.000190129 -1 260.562 86.6387)" fill="#A1A1A1"/>
<rect width="5.4284" height="5.41438" transform="matrix(1 0.000189148 0.000190129 -1 260.562 43.3232)" fill="#A1A1A1"/>
<rect width="5.4284" height="5.41438" transform="matrix(1 0.000189148 0.000190129 -1 260.562 194.928)" fill="#A1A1A1"/>
<rect width="5.4284" height="5.41438" transform="matrix(1 9.31727e-05 0.000385976 -1 0 113.711)" fill="#A1A1A1"/>
<rect width="5.4284" height="5.41438" transform="matrix(1 0.000189148 0.000190129 -1 0 222)" fill="#A1A1A1"/>
<rect width="5.4284" height="5.41438" transform="matrix(1 0.000189148 0.000190129 -1 5.42969 92.0527)" fill="#A1A1A1"/>
<rect width="5.4284" height="5.41438" transform="matrix(1 0.000189148 0.000190129 -1 5.42969 178.684)" fill="#A1A1A1"/>
<rect width="5.4284" height="5.41438" transform="matrix(1 0.000189148 0.000190129 -1 173.709 48.7393)" fill="#A1A1A1"/>
<rect width="5.4284" height="5.41438" transform="matrix(1 0.000189148 0.000190129 -1 173.709 5.42188)" fill="#A1A1A1"/>
<rect width="5.4284" height="5.41438" transform="matrix(1 0.000189148 0.000190129 -1 217.137 54.1533)" fill="#A1A1A1"/>
<rect width="5.4284" height="5.41438" transform="matrix(1 0.000189148 0.000190129 -1 217.137 10.8359)" fill="#A1A1A1"/>
<rect width="5.4284" height="5.41438" transform="matrix(1 0.000189148 0.000190129 -1 260.562 108.295)" fill="#A1A1A1"/>
<rect width="5.4284" height="5.41438" transform="matrix(1 0.000189148 0.000190129 -1 260.562 216.584)" fill="#A1A1A1"/>
<rect width="5.4284" height="5.41438" transform="matrix(1 0.000189148 0.000190129 -1 0 135.369)" fill="#A1A1A1"/>
<rect width="5.4284" height="5.41438" transform="matrix(1 0.000189148 0.000190129 -1 260.562 129.953)" fill="#A1A1A1"/>
<rect width="5.4284" height="5.41438" transform="matrix(1 0.000189148 0.000190129 -1 0 157.023)" fill="#A1A1A1"/>
<rect width="5.4284" height="5.41438" transform="matrix(1 0.000189148 0.000190129 -1 260.562 151.613)" fill="#A1A1A1"/>
<rect width="5.4284" height="5.41438" transform="matrix(1 0.000189148 0.000190129 -1 43.4277 75.8125)" fill="#A1A1A1"/>
<rect width="5.4284" height="5.41438" transform="matrix(1 0.000189148 0.000190129 -1 43.4277 32.4941)" fill="#A1A1A1"/>
<rect width="5.4284" height="5.41438" transform="matrix(1 0.000189148 0.000190129 -1 43.4277 184.098)" fill="#A1A1A1"/>
<rect width="5.4284" height="5.41438" transform="matrix(1 0.000189148 0.000190129 -1 86.8555 129.953)" fill="#A1A1A1"/>
<rect width="5.4284" height="5.41438" transform="matrix(1 0.000189148 0.000190129 -1 43.4277 129.953)" fill="#A1A1A1"/>
<rect width="5.4284" height="5.41438" transform="matrix(1 0.000189148 0.000190129 -1 130.281 129.953)" fill="#A1A1A1"/>
<rect width="5.4284" height="5.41438" transform="matrix(1 0.000189148 0.000190129 -1 173.709 129.953)" fill="#A1A1A1"/>
<rect width="5.4284" height="5.41438" transform="matrix(1 0.000189148 0.000190129 -1 217.137 129.953)" fill="#A1A1A1"/>
<rect width="5.4284" height="5.41438" transform="matrix(1 0.000189148 0.000190129 -1 86.8555 75.8125)" fill="#A1A1A1"/>
<rect width="5.4284" height="5.41438" transform="matrix(1 0.000189148 0.000190129 -1 86.8555 32.4941)" fill="#A1A1A1"/>
<rect width="5.4284" height="5.41438" transform="matrix(1 0.000189148 0.000190129 -1 86.8555 184.098)" fill="#A1A1A1"/>
<rect width="5.4284" height="5.41438" transform="matrix(1 0.000189148 0.000190129 -1 130.281 75.8125)" fill="#A1A1A1"/>
<rect width="5.4284" height="5.41438" transform="matrix(1 0.000189148 0.000190129 -1 130.281 32.4941)" fill="#A1A1A1"/>
<rect width="5.4284" height="5.41438" transform="matrix(1 0.000189148 0.000190129 -1 173.709 75.8125)" fill="#A1A1A1"/>
<rect width="5.4284" height="5.41438" transform="matrix(1 0.000189148 0.000190129 -1 173.709 32.4941)" fill="#A1A1A1"/>
<rect width="5.4284" height="5.41438" transform="matrix(1 0.000189148 0.000190129 -1 130.281 184.098)" fill="#A1A1A1"/>
<rect width="5.4284" height="5.41438" transform="matrix(1 0.000189148 0.000190129 -1 217.137 75.8125)" fill="#A1A1A1"/>
<rect width="5.4284" height="5.41438" transform="matrix(1 0.000189148 0.000190129 -1 217.137 32.4941)" fill="#A1A1A1"/>
<rect width="5.4284" height="5.41438" transform="matrix(1 0.000189148 0.000190129 -1 173.709 184.098)" fill="#A1A1A1"/>
<rect width="5.4284" height="5.41438" transform="matrix(1 0.000189148 0.000190129 -1 217.137 184.098)" fill="#A1A1A1"/>
<rect width="5.4284" height="5.41438" transform="matrix(1 0.000189148 0.000190129 -1 130.281 54.1533)" fill="#A1A1A1"/>
<rect width="5.4284" height="5.41438" transform="matrix(1 0.000189148 0.000190129 -1 130.281 10.8359)" fill="#A1A1A1"/>
<rect width="5.4284" height="5.41438" transform="matrix(1 0.000189148 0.000190129 -1 130.281 108.295)" fill="#A1A1A1"/>
<rect width="5.4284" height="5.41438" transform="matrix(1 0.000189148 0.000190129 -1 173.709 108.295)" fill="#A1A1A1"/>
<rect width="5.4284" height="5.41438" transform="matrix(1 0.000189148 0.000190129 -1 130.281 216.584)" fill="#A1A1A1"/>
<rect width="5.4284" height="5.41438" transform="matrix(1 0.000189148 0.000190129 -1 217.137 108.295)" fill="#A1A1A1"/>
<rect width="5.4284" height="5.41438" transform="matrix(1 0.000189148 0.000190129 -1 173.709 216.584)" fill="#A1A1A1"/>
<rect width="5.4284" height="5.41438" transform="matrix(1 0.000189148 0.000190129 -1 217.137 216.584)" fill="#A1A1A1"/>
<rect width="5.4284" height="5.41438" transform="matrix(1 0.000189148 0.000190129 -1 0 59.5684)" fill="#A1A1A1"/>
<rect width="5.4284" height="5.41438" transform="matrix(1 0.000189148 0.000190129 -1 0 16.251)" fill="#A1A1A1"/>
<rect width="5.4284" height="5.41438" transform="matrix(1 0.000189148 0.000190129 -1 54.2852 48.7393)" fill="#A1A1A1"/>
<rect width="5.4284" height="5.41438" transform="matrix(1 0.000189148 0.000190129 -1 54.2852 5.42188)" fill="#A1A1A1"/>
<rect width="5.4284" height="5.41438" transform="matrix(1 0.000189148 0.000190129 -1 108.568 48.7393)" fill="#A1A1A1"/>
<rect width="5.4284" height="5.41438" transform="matrix(1 0.000189148 0.000190129 -1 108.568 5.42188)" fill="#A1A1A1"/>
<rect width="5.4284" height="5.41438" transform="matrix(1 0.000189148 0.000190129 -1 260.562 54.1533)" fill="#A1A1A1"/>
<rect width="5.4284" height="5.41438" transform="matrix(1 0.000189148 0.000190129 -1 260.562 10.8359)" fill="#A1A1A1"/>
<rect width="5.4284" height="5.41438" transform="matrix(1 0.000189148 0.000190129 -1 0 81.2227)" fill="#A1A1A1"/>
<rect width="5.4284" height="5.41438" transform="matrix(1 0.000189148 0.000190129 -1 0 37.9102)" fill="#A1A1A1"/>
<rect width="5.4284" height="5.41438" transform="matrix(1 9.31727e-05 0.000385976 -1 0 189.512)" fill="#A1A1A1"/>
<rect width="5.4284" height="5.41438" transform="matrix(1 0.000189148 0.000190129 -1 260.562 75.8125)" fill="#A1A1A1"/>
<rect width="5.4284" height="5.41438" transform="matrix(1 0.000189148 0.000190129 -1 260.562 32.4941)" fill="#A1A1A1"/>
<rect width="5.4284" height="5.41438" transform="matrix(1 0.000189148 0.000190129 -1 260.562 184.098)" fill="#A1A1A1"/>
<rect width="5.4284" height="5.41438" transform="matrix(1 9.31727e-05 0.000385976 -1 0 102.881)" fill="#A1A1A1"/>
<rect width="5.4284" height="5.41438" transform="matrix(1 0.000189148 0.000190129 -1 0 211.17)" fill="#A1A1A1"/>
<rect width="5.4284" height="5.41438" transform="matrix(1 0.000189148 0.000190129 -1 260.562 97.4688)" fill="#A1A1A1"/>
<rect width="5.4284" height="5.41438" transform="matrix(1 0.000189148 0.000190129 -1 260.562 205.754)" fill="#A1A1A1"/>
<rect width="5.4284" height="5.41438" transform="matrix(1 0.000189148 0.000190129 -1 0 124.541)" fill="#A1A1A1"/>
<rect width="5.4284" height="5.41438" transform="matrix(1 0.000189148 0.000190129 -1 260.562 119.125)" fill="#A1A1A1"/>
<rect width="5.4284" height="5.41438" transform="matrix(1 0.000189148 0.000190129 -1 0 146.199)" fill="#A1A1A1"/>
<rect width="5.4284" height="5.41438" transform="matrix(1 0.000189148 0.000190129 -1 260.562 140.783)" fill="#A1A1A1"/>
<rect width="5.4284" height="5.41438" transform="matrix(1 0.000189148 0.000190129 -1 0 167.854)" fill="#A1A1A1"/>
<rect width="5.4284" height="5.41438" transform="matrix(1 0.000189148 0.000190129 -1 32.5703 135.369)" fill="#A1A1A1"/>
<rect width="5.4284" height="5.41438" transform="matrix(1 0.000189148 0.000190129 -1 38 92.0527)" fill="#A1A1A1"/>
<rect width="5.4284" height="5.41438" transform="matrix(1 0.000189148 0.000190129 -1 38 178.684)" fill="#A1A1A1"/>
<rect width="5.4284" height="5.41438" transform="matrix(1 0.000189148 0.000190129 -1 65.1406 135.369)" fill="#A1A1A1"/>
<rect width="5.4284" height="5.41438" transform="matrix(1 0.000189148 0.000190129 -1 65.1406 222)" fill="#A1A1A1"/>
<rect width="5.4284" height="5.41438" transform="matrix(1 0.000189148 0.000190129 -1 21.7148 222)" fill="#A1A1A1"/>
<rect width="5.4284" height="5.41438" transform="matrix(1 0.000189148 0.000190129 -1 70.5703 92.0527)" fill="#A1A1A1"/>
<rect width="5.4284" height="5.41438" transform="matrix(1 0.000189148 0.000190129 -1 70.5703 178.684)" fill="#A1A1A1"/>
<rect width="5.4284" height="5.41438" transform="matrix(1 0.000189148 0.000190129 -1 113.996 178.684)" fill="#A1A1A1"/>
<rect width="5.4284" height="5.41438" transform="matrix(1 0.000189148 0.000190129 -1 157.424 178.684)" fill="#A1A1A1"/>
<rect width="5.4284" height="5.41438" transform="matrix(1 0.000189148 0.000190129 -1 200.852 178.684)" fill="#A1A1A1"/>
<rect width="5.4284" height="5.41438" transform="matrix(1 0.000189148 0.000190129 -1 244.277 178.684)" fill="#A1A1A1"/>
<rect width="5.4284" height="5.41438" transform="matrix(1 0.000189148 0.000190129 -1 168.281 135.369)" fill="#A1A1A1"/>
<rect width="5.4284" height="5.41438" transform="matrix(1 0.000189148 0.000190129 -1 173.709 113.711)" fill="#A1A1A1"/>
<rect width="5.4284" height="5.41438" transform="matrix(1 0.000189148 0.000190129 -1 173.709 222)" fill="#A1A1A1"/>
<rect width="5.4284" height="5.41438" transform="matrix(1 0.000189148 0.000190129 -1 162.852 48.7393)" fill="#A1A1A1"/>
<rect width="5.4284" height="5.41438" transform="matrix(1 0.000189148 0.000190129 -1 162.852 5.42188)" fill="#A1A1A1"/>
<rect width="5.4284" height="5.41438" transform="matrix(1 0.000189148 0.000190129 -1 97.7109 135.369)" fill="#A1A1A1"/>
<rect width="5.4284" height="5.41438" transform="matrix(1 0.000189148 0.000190129 -1 103.141 92.0527)" fill="#A1A1A1"/>
<rect width="5.4284" height="5.41438" transform="matrix(1 0.000189148 0.000190129 -1 103.141 222)" fill="#A1A1A1"/>
<rect width="5.4284" height="5.41438" transform="matrix(1 0.000189148 0.000190129 -1 200.852 135.369)" fill="#A1A1A1"/>
<rect width="5.4284" height="5.41438" transform="matrix(1 0.000189148 0.000190129 -1 206.279 92.0527)" fill="#A1A1A1"/>
<rect width="5.4284" height="5.41438" transform="matrix(1 0.000189148 0.000190129 -1 206.279 222)" fill="#A1A1A1"/>
<rect width="5.4284" height="5.41438" transform="matrix(1 0.000189148 0.000190129 -1 195.422 48.7393)" fill="#A1A1A1"/>
<rect width="5.4284" height="5.41438" transform="matrix(1 0.000189148 0.000190129 -1 195.422 5.42188)" fill="#A1A1A1"/>
<rect width="5.4284" height="5.41438" transform="matrix(1 0.000189148 0.000190129 -1 130.281 167.854)" fill="#A1A1A1"/>
<rect width="5.4284" height="5.41438" transform="matrix(1 0.000189148 0.000190129 -1 135.711 92.0527)" fill="#A1A1A1"/>
<rect width="5.4284" height="5.41438" transform="matrix(1 0.000189148 0.000190129 -1 135.711 222)" fill="#A1A1A1"/>
<rect width="5.4284" height="5.41438" transform="matrix(1 0.000189148 0.000190129 -1 233.422 135.369)" fill="#A1A1A1"/>
<rect width="5.4284" height="5.41438" transform="matrix(1 0.000189148 0.000190129 -1 238.85 92.0527)" fill="#A1A1A1"/>
<rect width="5.4284" height="5.41438" transform="matrix(1 0.000189148 0.000190129 -1 238.85 222)" fill="#A1A1A1"/>
<rect width="5.4284" height="5.41438" transform="matrix(1 0.000189148 0.000190129 -1 227.992 48.7393)" fill="#A1A1A1"/>
<rect width="5.4284" height="5.41438" transform="matrix(1 0.000189148 0.000190129 -1 227.992 5.42188)" fill="#A1A1A1"/>
<rect width="5.4284" height="5.41438" transform="matrix(1 0.000189148 0.000190129 -1 260.562 162.439)" fill="#A1A1A1"/>
<rect width="5.4284" height="5.41438" transform="matrix(1 0.000189148 0.000190129 -1 5.42969 48.7393)" fill="#A1A1A1"/>
<rect width="5.4284" height="5.41438" transform="matrix(1 0.000189148 0.000190129 -1 5.42969 5.42188)" fill="#A1A1A1"/>
<rect width="5.4284" height="5.41438" transform="matrix(1 0.000189148 0.000190129 -1 5.42969 135.369)" fill="#A1A1A1"/>
<rect width="5.4284" height="5.41438" transform="matrix(1 0.000189148 0.000190129 -1 10.8555 92.0527)" fill="#A1A1A1"/>
<rect width="5.4284" height="5.41438" transform="matrix(1 0.000189148 0.000190129 -1 10.8555 178.684)" fill="#A1A1A1"/>
<rect width="5.41438" height="5.4284" transform="matrix(-4.38246e-08 -1 -1 4.35985e-08 21.7148 48.7393)" fill="#A1A1A1"/>
<rect width="5.41438" height="5.4284" transform="matrix(-4.38246e-08 -1 -1 4.35985e-08 21.7148 5.42188)" fill="#A1A1A1"/>
<rect width="5.41438" height="5.4284" transform="matrix(-4.38246e-08 -1 -1 4.35985e-08 21.7148 135.369)" fill="#A1A1A1"/>
<rect width="5.41438" height="5.4284" transform="matrix(-4.38246e-08 -1 -1 4.35985e-08 27.1426 92.0527)" fill="#A1A1A1"/>
<rect width="5.41438" height="5.4284" transform="matrix(-4.38246e-08 -1 -1 4.35985e-08 27.1426 178.684)" fill="#A1A1A1"/>
<ellipse cx="24" cy="24" rx="12" ry="12" transform="rotate(180 24 24)" fill="black"/>
<path d="M68 82C60.268 82 54 75.732 54 68C54 60.268 60.268 54 68 54C75.732 54 82 60.268 82 68C82 75.732 75.732 82 68 82Z" fill="black" stroke="#FF6363" stroke-width="4"/>
<ellipse cx="111" cy="198" rx="12" ry="12" transform="rotate(180 111 198)" fill="black"/>
<ellipse cx="242" cy="69" rx="12" ry="12" transform="rotate(180 242 69)" fill="black"/>
<ellipse cx="242" cy="154" rx="12" ry="12" transform="rotate(180 242 154)" fill="black"/>
<ellipse cx="25" cy="156" rx="12" ry="12" transform="rotate(180 25 156)" fill="black"/>
<path d="M111 97C118.732 97 125 103.268 125 111C125 118.732 118.732 125 111 125C103.268 125 97 118.732 97 111C97 103.268 103.268 97 111 97Z" fill="white" stroke="#43FF46" stroke-width="4"/>
<ellipse cx="198" cy="69" rx="12" ry="12" fill="white"/>
<ellipse cx="242" cy="198" rx="12" ry="12" fill="white"/>
<ellipse cx="68" cy="198" rx="12" ry="12" fill="white"/>
<ellipse cx="25" cy="111" rx="12" ry="12" fill="white"/>
<ellipse cx="111" cy="24" rx="12" ry="12" fill="white"/>
<ellipse cx="242" cy="24" rx="12" ry="12" fill="white"/>
<ellipse cx="155" cy="198" rx="12" ry="12" fill="white"/>
<circle cx="199" cy="111" r="12" fill="#43FF46" fill-opacity="0.65"/>
<path d="M197.958 115.11C198.739 114.328 198.739 113.062 197.958 112.281L185.23 99.5532C184.449 98.7721 183.183 98.7721 182.402 99.5532C181.621 100.334 181.621 101.601 182.402 102.382L193.716 113.695L182.402 125.009C181.621 125.79 181.621 127.056 182.402 127.837C183.183 128.618 184.449 128.618 185.23 127.837L197.958 115.11ZM116.744 113.695V115.695H196.544V113.695V111.695H116.744V113.695Z" fill="white"/>
<path d="M155 125C147.268 125 141 118.732 141 111C141 103.268 147.268 97 155 97C162.732 97 169 103.268 169 111C169 118.732 162.732 125 155 125Z" fill="black" stroke="#FF6363" stroke-width="4"/>
</svg>
