<svg width="266" height="222" viewBox="0 0 266 222" fill="none" xmlns="http://www.w3.org/2000/svg">
<rect width="5.42857" height="5.41457" fill="#A1A1A1"/>
<rect x="5.42871" width="5.42857" height="5.41457" fill="#A1A1A1"/>
<rect x="10.8574" width="5.42857" height="5.41457" fill="#A1A1A1"/>
<rect x="16.2861" width="5.42857" height="5.41457" fill="#A1A1A1"/>
<rect x="21.7139" width="5.42857" height="5.41457" fill="#A1A1A1"/>
<rect x="27.1426" width="5.42857" height="5.41457" fill="#A1A1A1"/>
<rect x="32.5713" width="5.42857" height="5.41457" fill="#A1A1A1"/>
<rect x="38" width="5.42857" height="5.41457" fill="#A1A1A1"/>
<rect x="43.4287" width="5.42857" height="5.41457" fill="#A1A1A1"/>
<rect x="48.8574" width="5.42857" height="5.41457" fill="#A1A1A1"/>
<rect x="54.2861" width="5.42857" height="5.41457" fill="#A1A1A1"/>
<rect x="59.7139" width="5.42857" height="5.41457" fill="#A1A1A1"/>
<rect x="65.1426" width="5.42857" height="5.41457" fill="#A1A1A1"/>
<rect x="70.5713" width="5.42857" height="5.41457" fill="#A1A1A1"/>
<rect x="76" width="5.42857" height="5.41457" fill="#A1A1A1"/>
<rect x="81.4287" width="5.42857" height="5.41457" fill="#A1A1A1"/>
<rect x="86.8574" width="5.42857" height="5.41457" fill="#A1A1A1"/>
<rect x="92.2861" width="5.42857" height="5.41457" fill="#A1A1A1"/>
<rect x="97.7139" width="5.42857" height="5.41457" fill="#A1A1A1"/>
<rect x="103.143" width="5.42857" height="5.41457" fill="#A1A1A1"/>
<rect x="108.571" width="5.42857" height="5.41457" fill="#A1A1A1"/>
<rect x="114" width="5.42857" height="5.41457" fill="#A1A1A1"/>
<rect x="119.429" width="5.42857" height="5.41457" fill="#A1A1A1"/>
<rect x="124.857" width="5.42857" height="5.41457" fill="#A1A1A1"/>
<rect x="130.286" width="5.42857" height="5.41457" fill="#A1A1A1"/>
<rect x="135.714" width="5.42857" height="5.41457" fill="#A1A1A1"/>
<rect x="141.143" width="5.42857" height="5.41457" fill="#A1A1A1"/>
<rect x="146.571" width="5.42857" height="5.41457" fill="#A1A1A1"/>
<rect x="152" width="5.42857" height="5.41457" fill="#A1A1A1"/>
<rect x="157.429" width="5.42857" height="5.41457" fill="#A1A1A1"/>
<rect x="162.857" width="5.42857" height="5.41457" fill="#A1A1A1"/>
<rect x="168.286" width="5.42857" height="5.41457" fill="#A1A1A1"/>
<rect x="173.714" width="5.42857" height="5.41457" fill="#A1A1A1"/>
<rect x="179.143" width="5.42857" height="5.41457" fill="#A1A1A1"/>
<rect x="184.571" width="5.42857" height="5.41457" fill="#A1A1A1"/>
<rect x="190" width="5.42857" height="5.41457" fill="#A1A1A1"/>
<rect x="195.429" width="5.42857" height="5.41457" fill="#A1A1A1"/>
<rect x="200.857" width="5.42857" height="5.41457" fill="#A1A1A1"/>
<rect x="206.286" width="5.42857" height="5.41457" fill="#A1A1A1"/>
<rect x="211.714" width="5.42857" height="5.41457" fill="#A1A1A1"/>
<rect x="217.143" width="5.42857" height="5.41457" fill="#A1A1A1"/>
<rect x="222.571" width="5.42857" height="5.41457" fill="#A1A1A1"/>
<rect x="228" width="5.42857" height="5.41457" fill="#A1A1A1"/>
<rect x="233.429" width="5.42857" height="5.41457" fill="#A1A1A1"/>
<rect x="238.857" width="5.42857" height="5.41457" fill="#A1A1A1"/>
<rect x="244.286" width="5.42857" height="5.41457" fill="#A1A1A1"/>
<rect x="249.714" width="5.42857" height="5.41457" fill="#A1A1A1"/>
<rect x="255.143" width="5.42857" height="5.41457" fill="#A1A1A1"/>
<rect y="5.41797" width="5.41457" height="5.42857" transform="rotate(-90 0 5.41797)" fill="#A1A1A1"/>
<rect x="260.571" y="16.2461" width="5.41457" height="5.42857" transform="rotate(-90 260.571 16.2461)" fill="#A1A1A1"/>
<rect x="173.714" y="10.8281" width="5.41457" height="5.42857" transform="rotate(-90 173.714 10.8281)" fill="#A1A1A1"/>
<rect x="130.286" y="10.8281" width="5.41457" height="5.42857" transform="rotate(-90 130.286 10.8281)" fill="#A1A1A1"/>
<rect x="86.8574" y="10.8281" width="5.41457" height="5.42857" transform="rotate(-90 86.8574 10.8281)" fill="#A1A1A1"/>
<rect x="43.4287" y="5.41797" width="5.41457" height="5.42857" transform="rotate(-90 43.4287 5.41797)" fill="#A1A1A1"/>
<rect x="217.143" y="16.2461" width="5.41457" height="5.42857" transform="rotate(-90 217.143 16.2461)" fill="#A1A1A1"/>
<rect x="38" y="5.41797" width="5.41457" height="5.42857" transform="rotate(-90 38 5.41797)" fill="#A1A1A1"/>
<rect x="81.4287" y="5.41797" width="5.41457" height="5.42857" transform="rotate(-90 81.4287 5.41797)" fill="#A1A1A1"/>
<rect x="124.857" y="5.41797" width="5.41457" height="5.42857" transform="rotate(-90 124.857 5.41797)" fill="#A1A1A1"/>
<rect x="168.286" y="5.41797" width="5.41457" height="5.42857" transform="rotate(-90 168.286 5.41797)" fill="#A1A1A1"/>
<rect x="211.714" y="5.41797" width="5.41457" height="5.42857" transform="rotate(-90 211.714 5.41797)" fill="#A1A1A1"/>
<rect x="255.143" y="5.41797" width="5.41457" height="5.42857" transform="rotate(-90 255.143 5.41797)" fill="#A1A1A1"/>
<rect y="43.3164" width="5.42857" height="5.41457" fill="#A1A1A1"/>
<rect y="86.6328" width="5.42857" height="5.41457" fill="#A1A1A1"/>
<rect y="129.949" width="5.42857" height="5.41457" fill="#A1A1A1"/>
<rect y="173.266" width="5.42857" height="5.41457" fill="#A1A1A1"/>
<rect y="216.586" width="5.42857" height="5.41457" fill="#A1A1A1"/>
<rect x="5.42871" y="43.3164" width="5.42857" height="5.41457" fill="#A1A1A1"/>
<rect x="5.42871" y="86.6328" width="5.42857" height="5.41457" fill="#A1A1A1"/>
<rect x="5.42871" y="129.949" width="5.42857" height="5.41457" fill="#A1A1A1"/>
<rect x="5.42871" y="173.266" width="5.42857" height="5.41457" fill="#A1A1A1"/>
<rect x="5.42871" y="216.586" width="5.42857" height="5.41457" fill="#A1A1A1"/>
<rect x="10.8574" y="43.3164" width="5.42857" height="5.41457" fill="#A1A1A1"/>
<rect x="10.8574" y="86.6328" width="5.42857" height="5.41457" fill="#A1A1A1"/>
<rect x="10.8574" y="129.949" width="5.42857" height="5.41457" fill="#A1A1A1"/>
<rect x="10.8574" y="173.266" width="5.42857" height="5.41457" fill="#A1A1A1"/>
<rect x="10.8574" y="216.586" width="5.42857" height="5.41457" fill="#A1A1A1"/>
<rect y="222" width="5.41457" height="5.42857" transform="rotate(-90 0 222)" fill="#A1A1A1"/>
<rect x="43.4287" y="222" width="5.41457" height="5.42857" transform="rotate(-90 43.4287 222)" fill="#A1A1A1"/>
<rect x="16.2861" y="43.3164" width="5.42857" height="5.41457" fill="#A1A1A1"/>
<rect x="16.2861" y="86.6328" width="5.42857" height="5.41457" fill="#A1A1A1"/>
<rect x="16.2861" y="129.949" width="5.42857" height="5.41457" fill="#A1A1A1"/>
<rect x="16.2861" y="173.266" width="5.42857" height="5.41457" fill="#A1A1A1"/>
<rect x="16.2861" y="216.586" width="5.42857" height="5.41457" fill="#A1A1A1"/>
<rect y="216.586" width="5.41457" height="5.42857" transform="rotate(-90 0 216.586)" fill="#A1A1A1"/>
<rect x="173.714" y="222" width="5.41457" height="5.42857" transform="rotate(-90 173.714 222)" fill="#A1A1A1"/>
<rect x="130.286" y="222" width="5.41457" height="5.42857" transform="rotate(-90 130.286 222)" fill="#A1A1A1"/>
<rect x="86.8574" y="222" width="5.41457" height="5.42857" transform="rotate(-90 86.8574 222)" fill="#A1A1A1"/>
<rect x="43.4287" y="216.586" width="5.41457" height="5.42857" transform="rotate(-90 43.4287 216.586)" fill="#A1A1A1"/>
<rect x="21.7139" y="43.3164" width="5.42857" height="5.41457" fill="#A1A1A1"/>
<rect x="21.7139" y="86.6328" width="5.42857" height="5.41457" fill="#A1A1A1"/>
<rect x="21.7139" y="129.949" width="5.42857" height="5.41457" fill="#A1A1A1"/>
<rect x="21.7139" y="173.266" width="5.42857" height="5.41457" fill="#A1A1A1"/>
<rect x="21.7139" y="216.586" width="5.42857" height="5.41457" fill="#A1A1A1"/>
<rect y="211.172" width="5.41457" height="5.42857" transform="rotate(-90 0 211.172)" fill="#A1A1A1"/>
<rect x="260.571" y="222" width="5.41457" height="5.42857" transform="rotate(-90 260.571 222)" fill="#A1A1A1"/>
<rect x="173.714" y="216.586" width="5.41457" height="5.42857" transform="rotate(-90 173.714 216.586)" fill="#A1A1A1"/>
<rect x="130.286" y="216.586" width="5.41457" height="5.42857" transform="rotate(-90 130.286 216.586)" fill="#A1A1A1"/>
<rect x="86.8574" y="216.586" width="5.41457" height="5.42857" transform="rotate(-90 86.8574 216.586)" fill="#A1A1A1"/>
<rect x="43.4287" y="211.172" width="5.41457" height="5.42857" transform="rotate(-90 43.4287 211.172)" fill="#A1A1A1"/>
<rect x="217.143" y="222" width="5.41457" height="5.42857" transform="rotate(-90 217.143 222)" fill="#A1A1A1"/>
<rect x="27.1426" y="43.3164" width="5.42857" height="5.41457" fill="#A1A1A1"/>
<rect x="27.1426" y="86.6328" width="5.42857" height="5.41457" fill="#A1A1A1"/>
<rect x="27.1426" y="129.949" width="5.42857" height="5.41457" fill="#A1A1A1"/>
<rect x="27.1426" y="173.266" width="5.42857" height="5.41457" fill="#A1A1A1"/>
<rect x="27.1426" y="216.586" width="5.42857" height="5.41457" fill="#A1A1A1"/>
<rect y="205.754" width="5.41457" height="5.42857" transform="rotate(-90 0 205.754)" fill="#A1A1A1"/>
<rect x="260.571" y="216.586" width="5.41457" height="5.42857" transform="rotate(-90 260.571 216.586)" fill="#A1A1A1"/>
<rect x="173.714" y="211.172" width="5.41457" height="5.42857" transform="rotate(-90 173.714 211.172)" fill="#A1A1A1"/>
<rect x="130.286" y="211.172" width="5.41457" height="5.42857" transform="rotate(-90 130.286 211.172)" fill="#A1A1A1"/>
<rect x="86.8574" y="211.172" width="5.41457" height="5.42857" transform="rotate(-90 86.8574 211.172)" fill="#A1A1A1"/>
<rect x="43.4287" y="205.754" width="5.41457" height="5.42857" transform="rotate(-90 43.4287 205.754)" fill="#A1A1A1"/>
<rect x="217.143" y="216.586" width="5.41457" height="5.42857" transform="rotate(-90 217.143 216.586)" fill="#A1A1A1"/>
<rect x="32.5713" y="43.3164" width="5.42857" height="5.41457" fill="#A1A1A1"/>
<rect x="32.5713" y="86.6328" width="5.42857" height="5.41457" fill="#A1A1A1"/>
<rect x="32.5713" y="129.949" width="5.42857" height="5.41457" fill="#A1A1A1"/>
<rect x="32.5713" y="173.266" width="5.42857" height="5.41457" fill="#A1A1A1"/>
<rect x="32.5713" y="216.586" width="5.42857" height="5.41457" fill="#A1A1A1"/>
<rect y="200.34" width="5.41457" height="5.42857" transform="rotate(-90 0 200.34)" fill="#A1A1A1"/>
<rect x="260.571" y="211.172" width="5.41457" height="5.42857" transform="rotate(-90 260.571 211.172)" fill="#A1A1A1"/>
<rect x="173.714" y="205.754" width="5.41457" height="5.42857" transform="rotate(-90 173.714 205.754)" fill="#A1A1A1"/>
<rect x="130.286" y="205.754" width="5.41457" height="5.42857" transform="rotate(-90 130.286 205.754)" fill="#A1A1A1"/>
<rect x="86.8574" y="205.754" width="5.41457" height="5.42857" transform="rotate(-90 86.8574 205.754)" fill="#A1A1A1"/>
<rect x="43.4287" y="200.34" width="5.41457" height="5.42857" transform="rotate(-90 43.4287 200.34)" fill="#A1A1A1"/>
<rect x="217.143" y="211.172" width="5.41457" height="5.42857" transform="rotate(-90 217.143 211.172)" fill="#A1A1A1"/>
<rect x="38" y="43.3164" width="5.42857" height="5.41457" fill="#A1A1A1"/>
<rect x="38" y="86.6328" width="5.42857" height="5.41457" fill="#A1A1A1"/>
<rect x="38" y="129.949" width="5.42857" height="5.41457" fill="#A1A1A1"/>
<rect x="38" y="173.266" width="5.42857" height="5.41457" fill="#A1A1A1"/>
<rect x="38" y="216.586" width="5.42857" height="5.41457" fill="#A1A1A1"/>
<rect y="194.926" width="5.41457" height="5.42857" transform="rotate(-90 0 194.926)" fill="#A1A1A1"/>
<rect x="260.571" y="205.754" width="5.41457" height="5.42857" transform="rotate(-90 260.571 205.754)" fill="#A1A1A1"/>
<rect x="173.714" y="200.34" width="5.41457" height="5.42857" transform="rotate(-90 173.714 200.34)" fill="#A1A1A1"/>
<rect x="130.286" y="200.34" width="5.41457" height="5.42857" transform="rotate(-90 130.286 200.34)" fill="#A1A1A1"/>
<rect x="86.8574" y="200.34" width="5.41457" height="5.42857" transform="rotate(-90 86.8574 200.34)" fill="#A1A1A1"/>
<rect x="43.4287" y="194.926" width="5.41457" height="5.42857" transform="rotate(-90 43.4287 194.926)" fill="#A1A1A1"/>
<rect x="217.143" y="205.754" width="5.41457" height="5.42857" transform="rotate(-90 217.143 205.754)" fill="#A1A1A1"/>
<rect x="43.4287" y="43.3164" width="5.42857" height="5.41457" fill="#A1A1A1"/>
<rect x="43.4287" y="86.6328" width="5.42857" height="5.41457" fill="#A1A1A1"/>
<rect x="43.4287" y="129.949" width="5.42857" height="5.41457" fill="#A1A1A1"/>
<rect x="43.4287" y="173.266" width="5.42857" height="5.41457" fill="#A1A1A1"/>
<rect x="43.4287" y="216.586" width="5.42857" height="5.41457" fill="#A1A1A1"/>
<rect y="189.516" width="5.41457" height="5.42857" transform="rotate(-90 0 189.516)" fill="#A1A1A1"/>
<rect x="260.571" y="200.34" width="5.41457" height="5.42857" transform="rotate(-90 260.571 200.34)" fill="#A1A1A1"/>
<rect x="173.714" y="194.926" width="5.41457" height="5.42857" transform="rotate(-90 173.714 194.926)" fill="#A1A1A1"/>
<rect x="130.286" y="194.926" width="5.41457" height="5.42857" transform="rotate(-90 130.286 194.926)" fill="#A1A1A1"/>
<rect x="86.8574" y="194.926" width="5.41457" height="5.42857" transform="rotate(-90 86.8574 194.926)" fill="#A1A1A1"/>
<rect x="43.4287" y="189.516" width="5.41457" height="5.42857" transform="rotate(-90 43.4287 189.516)" fill="#A1A1A1"/>
<rect x="217.143" y="200.34" width="5.41457" height="5.42857" transform="rotate(-90 217.143 200.34)" fill="#A1A1A1"/>
<rect x="48.8574" y="43.3164" width="5.42857" height="5.41457" fill="#A1A1A1"/>
<rect x="48.8574" y="86.6328" width="5.42857" height="5.41457" fill="#A1A1A1"/>
<rect x="48.8574" y="129.949" width="5.42857" height="5.41457" fill="#A1A1A1"/>
<rect x="48.8574" y="173.266" width="5.42857" height="5.41457" fill="#A1A1A1"/>
<rect x="48.8574" y="216.586" width="5.42857" height="5.41457" fill="#A1A1A1"/>
<rect y="184.094" width="5.41457" height="5.42857" transform="rotate(-90 0 184.094)" fill="#A1A1A1"/>
<rect x="260.571" y="194.926" width="5.41457" height="5.42857" transform="rotate(-90 260.571 194.926)" fill="#A1A1A1"/>
<rect x="173.714" y="189.516" width="5.41457" height="5.42857" transform="rotate(-90 173.714 189.516)" fill="#A1A1A1"/>
<rect x="130.286" y="189.516" width="5.41457" height="5.42857" transform="rotate(-90 130.286 189.516)" fill="#A1A1A1"/>
<rect x="86.8574" y="189.516" width="5.41457" height="5.42857" transform="rotate(-90 86.8574 189.516)" fill="#A1A1A1"/>
<rect x="43.4287" y="184.094" width="5.41457" height="5.42857" transform="rotate(-90 43.4287 184.094)" fill="#A1A1A1"/>
<rect x="217.143" y="194.926" width="5.41457" height="5.42857" transform="rotate(-90 217.143 194.926)" fill="#A1A1A1"/>
<rect x="54.2861" y="43.3164" width="5.42857" height="5.41457" fill="#A1A1A1"/>
<rect x="54.2861" y="86.6328" width="5.42857" height="5.41457" fill="#A1A1A1"/>
<rect x="54.2861" y="129.949" width="5.42857" height="5.41457" fill="#A1A1A1"/>
<rect x="54.2861" y="173.266" width="5.42857" height="5.41457" fill="#A1A1A1"/>
<rect x="54.2861" y="216.586" width="5.42857" height="5.41457" fill="#A1A1A1"/>
<rect y="178.68" width="5.41457" height="5.42857" transform="rotate(-90 0 178.68)" fill="#A1A1A1"/>
<rect x="260.571" y="189.516" width="5.41457" height="5.42857" transform="rotate(-90 260.571 189.516)" fill="#A1A1A1"/>
<rect x="173.714" y="184.094" width="5.41457" height="5.42857" transform="rotate(-90 173.714 184.094)" fill="#A1A1A1"/>
<rect x="130.286" y="184.094" width="5.41457" height="5.42857" transform="rotate(-90 130.286 184.094)" fill="#A1A1A1"/>
<rect x="86.8574" y="184.094" width="5.41457" height="5.42857" transform="rotate(-90 86.8574 184.094)" fill="#A1A1A1"/>
<rect x="43.4287" y="178.68" width="5.41457" height="5.42857" transform="rotate(-90 43.4287 178.68)" fill="#A1A1A1"/>
<rect x="217.143" y="189.516" width="5.41457" height="5.42857" transform="rotate(-90 217.143 189.516)" fill="#A1A1A1"/>
<rect x="59.7139" y="43.3164" width="5.42857" height="5.41457" fill="#A1A1A1"/>
<rect x="59.7139" y="86.6328" width="5.42857" height="5.41457" fill="#A1A1A1"/>
<rect x="59.7139" y="129.949" width="5.42857" height="5.41457" fill="#A1A1A1"/>
<rect x="59.7139" y="173.266" width="5.42857" height="5.41457" fill="#A1A1A1"/>
<rect x="59.7139" y="216.586" width="5.42857" height="5.41457" fill="#A1A1A1"/>
<rect y="173.266" width="5.41457" height="5.42857" transform="rotate(-90 0 173.266)" fill="#A1A1A1"/>
<rect x="260.571" y="184.094" width="5.41457" height="5.42857" transform="rotate(-90 260.571 184.094)" fill="#A1A1A1"/>
<rect x="173.714" y="178.68" width="5.41457" height="5.42857" transform="rotate(-90 173.714 178.68)" fill="#A1A1A1"/>
<rect x="130.286" y="178.68" width="5.41457" height="5.42857" transform="rotate(-90 130.286 178.68)" fill="#A1A1A1"/>
<rect x="86.8574" y="178.68" width="5.41457" height="5.42857" transform="rotate(-90 86.8574 178.68)" fill="#A1A1A1"/>
<rect x="43.4287" y="173.266" width="5.41457" height="5.42857" transform="rotate(-90 43.4287 173.266)" fill="#A1A1A1"/>
<rect x="217.143" y="184.094" width="5.41457" height="5.42857" transform="rotate(-90 217.143 184.094)" fill="#A1A1A1"/>
<rect x="65.1426" y="43.3164" width="5.42857" height="5.41457" fill="#A1A1A1"/>
<rect x="65.1426" y="86.6328" width="5.42857" height="5.41457" fill="#A1A1A1"/>
<rect x="65.1426" y="129.949" width="5.42857" height="5.41457" fill="#A1A1A1"/>
<rect x="65.1426" y="173.266" width="5.42857" height="5.41457" fill="#A1A1A1"/>
<rect x="65.1426" y="216.586" width="5.42857" height="5.41457" fill="#A1A1A1"/>
<rect y="167.855" width="5.41457" height="5.42857" transform="rotate(-90 0 167.855)" fill="#A1A1A1"/>
<rect x="260.571" y="178.68" width="5.41457" height="5.42857" transform="rotate(-90 260.571 178.68)" fill="#A1A1A1"/>
<rect x="173.714" y="173.266" width="5.41457" height="5.42857" transform="rotate(-90 173.714 173.266)" fill="#A1A1A1"/>
<rect x="130.286" y="173.266" width="5.41457" height="5.42857" transform="rotate(-90 130.286 173.266)" fill="#A1A1A1"/>
<rect x="86.8574" y="173.266" width="5.41457" height="5.42857" transform="rotate(-90 86.8574 173.266)" fill="#A1A1A1"/>
<rect x="43.4287" y="167.855" width="5.41457" height="5.42857" transform="rotate(-90 43.4287 167.855)" fill="#A1A1A1"/>
<rect x="217.143" y="178.68" width="5.41457" height="5.42857" transform="rotate(-90 217.143 178.68)" fill="#A1A1A1"/>
<rect x="70.5713" y="43.3164" width="5.42857" height="5.41457" fill="#A1A1A1"/>
<rect x="70.5713" y="86.6328" width="5.42857" height="5.41457" fill="#A1A1A1"/>
<rect x="70.5713" y="129.949" width="5.42857" height="5.41457" fill="#A1A1A1"/>
<rect x="70.5713" y="173.266" width="5.42857" height="5.41457" fill="#A1A1A1"/>
<rect x="70.5713" y="216.586" width="5.42857" height="5.41457" fill="#A1A1A1"/>
<rect y="162.434" width="5.41457" height="5.42857" transform="rotate(-90 0 162.434)" fill="#A1A1A1"/>
<rect x="260.571" y="173.266" width="5.41457" height="5.42857" transform="rotate(-90 260.571 173.266)" fill="#A1A1A1"/>
<rect x="173.714" y="167.855" width="5.41457" height="5.42857" transform="rotate(-90 173.714 167.855)" fill="#A1A1A1"/>
<rect x="130.286" y="167.855" width="5.41457" height="5.42857" transform="rotate(-90 130.286 167.855)" fill="#A1A1A1"/>
<rect x="86.8574" y="167.855" width="5.41457" height="5.42857" transform="rotate(-90 86.8574 167.855)" fill="#A1A1A1"/>
<rect x="43.4287" y="162.434" width="5.41457" height="5.42857" transform="rotate(-90 43.4287 162.434)" fill="#A1A1A1"/>
<rect x="217.143" y="173.266" width="5.41457" height="5.42857" transform="rotate(-90 217.143 173.266)" fill="#A1A1A1"/>
<rect x="76" y="43.3164" width="5.42857" height="5.41457" fill="#A1A1A1"/>
<rect x="76" y="86.6328" width="5.42857" height="5.41457" fill="#A1A1A1"/>
<rect x="76" y="129.949" width="5.42857" height="5.41457" fill="#A1A1A1"/>
<rect x="76" y="173.266" width="5.42857" height="5.41457" fill="#A1A1A1"/>
<rect x="76" y="216.586" width="5.42857" height="5.41457" fill="#A1A1A1"/>
<rect y="157.027" width="5.41457" height="5.42857" transform="rotate(-90 0 157.027)" fill="#A1A1A1"/>
<rect x="260.571" y="167.855" width="5.41457" height="5.42857" transform="rotate(-90 260.571 167.855)" fill="#A1A1A1"/>
<rect x="173.714" y="162.434" width="5.41457" height="5.42857" transform="rotate(-90 173.714 162.434)" fill="#A1A1A1"/>
<rect x="130.286" y="162.434" width="5.41457" height="5.42857" transform="rotate(-90 130.286 162.434)" fill="#A1A1A1"/>
<rect x="86.8574" y="162.434" width="5.41457" height="5.42857" transform="rotate(-90 86.8574 162.434)" fill="#A1A1A1"/>
<rect x="43.4287" y="157.027" width="5.41457" height="5.42857" transform="rotate(-90 43.4287 157.027)" fill="#A1A1A1"/>
<rect x="217.143" y="167.855" width="5.41457" height="5.42857" transform="rotate(-90 217.143 167.855)" fill="#A1A1A1"/>
<rect x="81.4287" y="43.3164" width="5.42857" height="5.41457" fill="#A1A1A1"/>
<rect x="81.4287" y="86.6328" width="5.42857" height="5.41457" fill="#A1A1A1"/>
<rect x="81.4287" y="129.949" width="5.42857" height="5.41457" fill="#A1A1A1"/>
<rect x="81.4287" y="173.266" width="5.42857" height="5.41457" fill="#A1A1A1"/>
<rect x="81.4287" y="216.586" width="5.42857" height="5.41457" fill="#A1A1A1"/>
<rect y="151.609" width="5.41457" height="5.42857" transform="rotate(-90 0 151.609)" fill="#A1A1A1"/>
<rect x="260.571" y="162.434" width="5.41457" height="5.42857" transform="rotate(-90 260.571 162.434)" fill="#A1A1A1"/>
<rect x="173.714" y="157.027" width="5.41457" height="5.42857" transform="rotate(-90 173.714 157.027)" fill="#A1A1A1"/>
<rect x="130.286" y="157.027" width="5.41457" height="5.42857" transform="rotate(-90 130.286 157.027)" fill="#A1A1A1"/>
<rect x="86.8574" y="157.027" width="5.41457" height="5.42857" transform="rotate(-90 86.8574 157.027)" fill="#A1A1A1"/>
<rect x="43.4287" y="151.609" width="5.41457" height="5.42857" transform="rotate(-90 43.4287 151.609)" fill="#A1A1A1"/>
<rect x="217.143" y="162.434" width="5.41457" height="5.42857" transform="rotate(-90 217.143 162.434)" fill="#A1A1A1"/>
<rect x="86.8574" y="43.3164" width="5.42857" height="5.41457" fill="#A1A1A1"/>
<rect x="86.8574" y="86.6328" width="5.42857" height="5.41457" fill="#A1A1A1"/>
<rect x="86.8574" y="129.949" width="5.42857" height="5.41457" fill="#A1A1A1"/>
<rect x="86.8574" y="173.266" width="5.42857" height="5.41457" fill="#A1A1A1"/>
<rect x="86.8574" y="216.586" width="5.42857" height="5.41457" fill="#A1A1A1"/>
<rect y="146.195" width="5.41457" height="5.42857" transform="rotate(-90 0 146.195)" fill="#A1A1A1"/>
<rect x="260.571" y="157.027" width="5.41457" height="5.42857" transform="rotate(-90 260.571 157.027)" fill="#A1A1A1"/>
<rect x="173.714" y="151.609" width="5.41457" height="5.42857" transform="rotate(-90 173.714 151.609)" fill="#A1A1A1"/>
<rect x="130.286" y="151.609" width="5.41457" height="5.42857" transform="rotate(-90 130.286 151.609)" fill="#A1A1A1"/>
<rect x="86.8574" y="151.609" width="5.41457" height="5.42857" transform="rotate(-90 86.8574 151.609)" fill="#A1A1A1"/>
<rect x="43.4287" y="146.195" width="5.41457" height="5.42857" transform="rotate(-90 43.4287 146.195)" fill="#A1A1A1"/>
<rect x="217.143" y="157.027" width="5.41457" height="5.42857" transform="rotate(-90 217.143 157.027)" fill="#A1A1A1"/>
<rect x="92.2861" y="43.3164" width="5.42857" height="5.41457" fill="#A1A1A1"/>
<rect x="92.2861" y="86.6328" width="5.42857" height="5.41457" fill="#A1A1A1"/>
<rect x="92.2861" y="129.949" width="5.42857" height="5.41457" fill="#A1A1A1"/>
<rect x="92.2861" y="173.266" width="5.42857" height="5.41457" fill="#A1A1A1"/>
<rect x="92.2861" y="216.586" width="5.42857" height="5.41457" fill="#A1A1A1"/>
<rect y="140.781" width="5.41457" height="5.42857" transform="rotate(-90 0 140.781)" fill="#A1A1A1"/>
<rect x="260.571" y="151.609" width="5.41457" height="5.42857" transform="rotate(-90 260.571 151.609)" fill="#A1A1A1"/>
<rect x="173.714" y="146.195" width="5.41457" height="5.42857" transform="rotate(-90 173.714 146.195)" fill="#A1A1A1"/>
<rect x="130.286" y="146.195" width="5.41457" height="5.42857" transform="rotate(-90 130.286 146.195)" fill="#A1A1A1"/>
<rect x="86.8574" y="146.195" width="5.41457" height="5.42857" transform="rotate(-90 86.8574 146.195)" fill="#A1A1A1"/>
<rect x="43.4287" y="140.781" width="5.41457" height="5.42857" transform="rotate(-90 43.4287 140.781)" fill="#A1A1A1"/>
<rect x="217.143" y="151.609" width="5.41457" height="5.42857" transform="rotate(-90 217.143 151.609)" fill="#A1A1A1"/>
<rect x="97.7139" y="43.3164" width="5.42857" height="5.41457" fill="#A1A1A1"/>
<rect x="97.7139" y="86.6328" width="5.42857" height="5.41457" fill="#A1A1A1"/>
<rect x="97.7139" y="129.949" width="5.42857" height="5.41457" fill="#A1A1A1"/>
<rect x="97.7139" y="173.266" width="5.42857" height="5.41457" fill="#A1A1A1"/>
<rect x="97.7139" y="216.586" width="5.42857" height="5.41457" fill="#A1A1A1"/>
<rect y="135.367" width="5.41457" height="5.42857" transform="rotate(-90 0 135.367)" fill="#A1A1A1"/>
<rect x="260.571" y="146.195" width="5.41457" height="5.42857" transform="rotate(-90 260.571 146.195)" fill="#A1A1A1"/>
<rect x="173.714" y="140.781" width="5.41457" height="5.42857" transform="rotate(-90 173.714 140.781)" fill="#A1A1A1"/>
<rect x="130.286" y="140.781" width="5.41457" height="5.42857" transform="rotate(-90 130.286 140.781)" fill="#A1A1A1"/>
<rect x="86.8574" y="140.781" width="5.41457" height="5.42857" transform="rotate(-90 86.8574 140.781)" fill="#A1A1A1"/>
<rect x="43.4287" y="135.367" width="5.41457" height="5.42857" transform="rotate(-90 43.4287 135.367)" fill="#A1A1A1"/>
<rect x="217.143" y="146.195" width="5.41457" height="5.42857" transform="rotate(-90 217.143 146.195)" fill="#A1A1A1"/>
<rect x="103.143" y="43.3164" width="5.42857" height="5.41457" fill="#A1A1A1"/>
<rect x="103.143" y="86.6328" width="5.42857" height="5.41457" fill="#A1A1A1"/>
<rect x="103.143" y="129.949" width="5.42857" height="5.41457" fill="#A1A1A1"/>
<rect x="103.143" y="173.266" width="5.42857" height="5.41457" fill="#A1A1A1"/>
<rect x="103.143" y="216.586" width="5.42857" height="5.41457" fill="#A1A1A1"/>
<rect y="129.949" width="5.41457" height="5.42857" transform="rotate(-90 0 129.949)" fill="#A1A1A1"/>
<rect x="260.571" y="140.781" width="5.41457" height="5.42857" transform="rotate(-90 260.571 140.781)" fill="#A1A1A1"/>
<rect x="173.714" y="135.367" width="5.41457" height="5.42857" transform="rotate(-90 173.714 135.367)" fill="#A1A1A1"/>
<rect x="130.286" y="135.367" width="5.41457" height="5.42857" transform="rotate(-90 130.286 135.367)" fill="#A1A1A1"/>
<rect x="86.8574" y="135.367" width="5.41457" height="5.42857" transform="rotate(-90 86.8574 135.367)" fill="#A1A1A1"/>
<rect x="43.4287" y="129.949" width="5.41457" height="5.42857" transform="rotate(-90 43.4287 129.949)" fill="#A1A1A1"/>
<rect x="217.143" y="140.781" width="5.41457" height="5.42857" transform="rotate(-90 217.143 140.781)" fill="#A1A1A1"/>
<rect x="108.571" y="43.3164" width="5.42857" height="5.41457" fill="#A1A1A1"/>
<rect x="108.571" y="86.6328" width="5.42857" height="5.41457" fill="#A1A1A1"/>
<rect x="108.571" y="129.949" width="5.42857" height="5.41457" fill="#A1A1A1"/>
<rect x="108.571" y="173.266" width="5.42857" height="5.41457" fill="#A1A1A1"/>
<rect x="108.571" y="216.586" width="5.42857" height="5.41457" fill="#A1A1A1"/>
<rect y="124.539" width="5.41457" height="5.42857" transform="rotate(-90 0 124.539)" fill="#A1A1A1"/>
<rect x="260.571" y="135.367" width="5.41457" height="5.42857" transform="rotate(-90 260.571 135.367)" fill="#A1A1A1"/>
<rect x="173.714" y="129.949" width="5.41457" height="5.42857" transform="rotate(-90 173.714 129.949)" fill="#A1A1A1"/>
<rect x="130.286" y="129.949" width="5.41457" height="5.42857" transform="rotate(-90 130.286 129.949)" fill="#A1A1A1"/>
<rect x="86.8574" y="129.949" width="5.41457" height="5.42857" transform="rotate(-90 86.8574 129.949)" fill="#A1A1A1"/>
<rect x="43.4287" y="124.539" width="5.41457" height="5.42857" transform="rotate(-90 43.4287 124.539)" fill="#A1A1A1"/>
<rect x="217.143" y="135.367" width="5.41457" height="5.42857" transform="rotate(-90 217.143 135.367)" fill="#A1A1A1"/>
<rect x="114" y="43.3164" width="5.42857" height="5.41457" fill="#A1A1A1"/>
<rect x="114" y="86.6328" width="5.42857" height="5.41457" fill="#A1A1A1"/>
<rect x="114" y="129.949" width="5.42857" height="5.41457" fill="#A1A1A1"/>
<rect x="114" y="173.266" width="5.42857" height="5.41457" fill="#A1A1A1"/>
<rect x="114" y="216.586" width="5.42857" height="5.41457" fill="#A1A1A1"/>
<rect y="119.121" width="5.41457" height="5.42857" transform="rotate(-90 0 119.121)" fill="#A1A1A1"/>
<rect x="260.571" y="129.949" width="5.41457" height="5.42857" transform="rotate(-90 260.571 129.949)" fill="#A1A1A1"/>
<rect x="173.714" y="124.539" width="5.41457" height="5.42857" transform="rotate(-90 173.714 124.539)" fill="#A1A1A1"/>
<rect x="130.286" y="124.539" width="5.41457" height="5.42857" transform="rotate(-90 130.286 124.539)" fill="#A1A1A1"/>
<rect x="86.8574" y="124.539" width="5.41457" height="5.42857" transform="rotate(-90 86.8574 124.539)" fill="#A1A1A1"/>
<rect x="43.4287" y="119.121" width="5.41457" height="5.42857" transform="rotate(-90 43.4287 119.121)" fill="#A1A1A1"/>
<rect x="217.143" y="129.949" width="5.41457" height="5.42857" transform="rotate(-90 217.143 129.949)" fill="#A1A1A1"/>
<rect x="119.429" y="43.3164" width="5.42857" height="5.41457" fill="#A1A1A1"/>
<rect x="119.429" y="86.6328" width="5.42857" height="5.41457" fill="#A1A1A1"/>
<rect x="119.429" y="129.949" width="5.42857" height="5.41457" fill="#A1A1A1"/>
<rect x="119.429" y="173.266" width="5.42857" height="5.41457" fill="#A1A1A1"/>
<rect x="119.429" y="216.586" width="5.42857" height="5.41457" fill="#A1A1A1"/>
<rect y="113.711" width="5.41457" height="5.42857" transform="rotate(-90 0 113.711)" fill="#A1A1A1"/>
<rect x="260.571" y="124.539" width="5.41457" height="5.42857" transform="rotate(-90 260.571 124.539)" fill="#A1A1A1"/>
<rect x="173.714" y="119.121" width="5.41457" height="5.42857" transform="rotate(-90 173.714 119.121)" fill="#A1A1A1"/>
<rect x="130.286" y="119.121" width="5.41457" height="5.42857" transform="rotate(-90 130.286 119.121)" fill="#A1A1A1"/>
<rect x="86.8574" y="119.121" width="5.41457" height="5.42857" transform="rotate(-90 86.8574 119.121)" fill="#A1A1A1"/>
<rect x="43.4287" y="113.711" width="5.41457" height="5.42857" transform="rotate(-90 43.4287 113.711)" fill="#A1A1A1"/>
<rect x="217.143" y="124.539" width="5.41457" height="5.42857" transform="rotate(-90 217.143 124.539)" fill="#A1A1A1"/>
<rect x="124.857" y="43.3164" width="5.42857" height="5.41457" fill="#A1A1A1"/>
<rect x="124.857" y="86.6328" width="5.42857" height="5.41457" fill="#A1A1A1"/>
<rect x="124.857" y="129.949" width="5.42857" height="5.41457" fill="#A1A1A1"/>
<rect x="124.857" y="173.266" width="5.42857" height="5.41457" fill="#A1A1A1"/>
<rect x="124.857" y="216.586" width="5.42857" height="5.41457" fill="#A1A1A1"/>
<rect y="108.289" width="5.41457" height="5.42857" transform="rotate(-90 0 108.289)" fill="#A1A1A1"/>
<rect x="260.571" y="119.121" width="5.41457" height="5.42857" transform="rotate(-90 260.571 119.121)" fill="#A1A1A1"/>
<rect x="173.714" y="113.711" width="5.41457" height="5.42857" transform="rotate(-90 173.714 113.711)" fill="#A1A1A1"/>
<rect x="130.286" y="113.711" width="5.41457" height="5.42857" transform="rotate(-90 130.286 113.711)" fill="#A1A1A1"/>
<rect x="86.8574" y="113.711" width="5.41457" height="5.42857" transform="rotate(-90 86.8574 113.711)" fill="#A1A1A1"/>
<rect x="43.4287" y="108.289" width="5.41457" height="5.42857" transform="rotate(-90 43.4287 108.289)" fill="#A1A1A1"/>
<rect x="217.143" y="119.121" width="5.41457" height="5.42857" transform="rotate(-90 217.143 119.121)" fill="#A1A1A1"/>
<rect x="130.286" y="43.3164" width="5.42857" height="5.41457" fill="#A1A1A1"/>
<rect x="130.286" y="86.6328" width="5.42857" height="5.41457" fill="#A1A1A1"/>
<rect x="130.286" y="129.949" width="5.42857" height="5.41457" fill="#A1A1A1"/>
<rect x="130.286" y="173.266" width="5.42857" height="5.41457" fill="#A1A1A1"/>
<rect x="130.286" y="216.586" width="5.42857" height="5.41457" fill="#A1A1A1"/>
<rect y="102.883" width="5.41457" height="5.42857" transform="rotate(-90 0 102.883)" fill="#A1A1A1"/>
<rect x="260.571" y="113.711" width="5.41457" height="5.42857" transform="rotate(-90 260.571 113.711)" fill="#A1A1A1"/>
<rect x="173.714" y="108.289" width="5.41457" height="5.42857" transform="rotate(-90 173.714 108.289)" fill="#A1A1A1"/>
<rect x="130.286" y="108.289" width="5.41457" height="5.42857" transform="rotate(-90 130.286 108.289)" fill="#A1A1A1"/>
<rect x="86.8574" y="108.289" width="5.41457" height="5.42857" transform="rotate(-90 86.8574 108.289)" fill="#A1A1A1"/>
<rect x="43.4287" y="102.883" width="5.41457" height="5.42857" transform="rotate(-90 43.4287 102.883)" fill="#A1A1A1"/>
<rect x="217.143" y="113.711" width="5.41457" height="5.42857" transform="rotate(-90 217.143 113.711)" fill="#A1A1A1"/>
<rect x="135.714" y="43.3164" width="5.42857" height="5.41457" fill="#A1A1A1"/>
<rect x="135.714" y="86.6328" width="5.42857" height="5.41457" fill="#A1A1A1"/>
<rect x="135.714" y="129.949" width="5.42857" height="5.41457" fill="#A1A1A1"/>
<rect x="135.714" y="173.266" width="5.42857" height="5.41457" fill="#A1A1A1"/>
<rect x="135.714" y="216.586" width="5.42857" height="5.41457" fill="#A1A1A1"/>
<rect y="97.4609" width="5.41457" height="5.42857" transform="rotate(-90 0 97.4609)" fill="#A1A1A1"/>
<rect x="260.571" y="108.289" width="5.41457" height="5.42857" transform="rotate(-90 260.571 108.289)" fill="#A1A1A1"/>
<rect x="173.714" y="102.883" width="5.41457" height="5.42857" transform="rotate(-90 173.714 102.883)" fill="#A1A1A1"/>
<rect x="130.286" y="102.883" width="5.41457" height="5.42857" transform="rotate(-90 130.286 102.883)" fill="#A1A1A1"/>
<rect x="86.8574" y="102.883" width="5.41457" height="5.42857" transform="rotate(-90 86.8574 102.883)" fill="#A1A1A1"/>
<rect x="43.4287" y="97.4609" width="5.41457" height="5.42857" transform="rotate(-90 43.4287 97.4609)" fill="#A1A1A1"/>
<rect x="217.143" y="108.289" width="5.41457" height="5.42857" transform="rotate(-90 217.143 108.289)" fill="#A1A1A1"/>
<rect x="141.143" y="43.3164" width="5.42857" height="5.41457" fill="#A1A1A1"/>
<rect x="141.143" y="86.6328" width="5.42857" height="5.41457" fill="#A1A1A1"/>
<rect x="141.143" y="129.949" width="5.42857" height="5.41457" fill="#A1A1A1"/>
<rect x="141.143" y="173.266" width="5.42857" height="5.41457" fill="#A1A1A1"/>
<rect x="141.143" y="216.586" width="5.42857" height="5.41457" fill="#A1A1A1"/>
<rect y="92.0508" width="5.41457" height="5.42857" transform="rotate(-90 0 92.0508)" fill="#A1A1A1"/>
<rect x="260.571" y="102.883" width="5.41457" height="5.42857" transform="rotate(-90 260.571 102.883)" fill="#A1A1A1"/>
<rect x="173.714" y="97.4609" width="5.41457" height="5.42857" transform="rotate(-90 173.714 97.4609)" fill="#A1A1A1"/>
<rect x="130.286" y="97.4609" width="5.41457" height="5.42857" transform="rotate(-90 130.286 97.4609)" fill="#A1A1A1"/>
<rect x="86.8574" y="97.4609" width="5.41457" height="5.42857" transform="rotate(-90 86.8574 97.4609)" fill="#A1A1A1"/>
<rect x="43.4287" y="92.0508" width="5.41457" height="5.42857" transform="rotate(-90 43.4287 92.0508)" fill="#A1A1A1"/>
<rect x="217.143" y="102.883" width="5.41457" height="5.42857" transform="rotate(-90 217.143 102.883)" fill="#A1A1A1"/>
<rect x="146.571" y="43.3164" width="5.42857" height="5.41457" fill="#A1A1A1"/>
<rect x="146.571" y="86.6328" width="5.42857" height="5.41457" fill="#A1A1A1"/>
<rect x="146.571" y="129.949" width="5.42857" height="5.41457" fill="#A1A1A1"/>
<rect x="146.571" y="173.266" width="5.42857" height="5.41457" fill="#A1A1A1"/>
<rect x="146.571" y="216.586" width="5.42857" height="5.41457" fill="#A1A1A1"/>
<rect y="86.6328" width="5.41457" height="5.42857" transform="rotate(-90 0 86.6328)" fill="#A1A1A1"/>
<rect x="260.571" y="97.4609" width="5.41457" height="5.42857" transform="rotate(-90 260.571 97.4609)" fill="#A1A1A1"/>
<rect x="173.714" y="92.0508" width="5.41457" height="5.42857" transform="rotate(-90 173.714 92.0508)" fill="#A1A1A1"/>
<rect x="130.286" y="92.0508" width="5.41457" height="5.42857" transform="rotate(-90 130.286 92.0508)" fill="#A1A1A1"/>
<rect x="86.8574" y="92.0508" width="5.41457" height="5.42857" transform="rotate(-90 86.8574 92.0508)" fill="#A1A1A1"/>
<rect x="43.4287" y="86.6328" width="5.41457" height="5.42857" transform="rotate(-90 43.4287 86.6328)" fill="#A1A1A1"/>
<rect x="217.143" y="97.4609" width="5.41457" height="5.42857" transform="rotate(-90 217.143 97.4609)" fill="#A1A1A1"/>
<rect x="152" y="43.3164" width="5.42857" height="5.41457" fill="#A1A1A1"/>
<rect x="152" y="86.6328" width="5.42857" height="5.41457" fill="#A1A1A1"/>
<rect x="152" y="129.949" width="5.42857" height="5.41457" fill="#A1A1A1"/>
<rect x="152" y="173.266" width="5.42857" height="5.41457" fill="#A1A1A1"/>
<rect x="152" y="216.586" width="5.42857" height="5.41457" fill="#A1A1A1"/>
<rect y="81.2227" width="5.41457" height="5.42857" transform="rotate(-90 0 81.2227)" fill="#A1A1A1"/>
<rect x="260.571" y="92.0508" width="5.41457" height="5.42857" transform="rotate(-90 260.571 92.0508)" fill="#A1A1A1"/>
<rect x="173.714" y="86.6328" width="5.41457" height="5.42857" transform="rotate(-90 173.714 86.6328)" fill="#A1A1A1"/>
<rect x="130.286" y="86.6328" width="5.41457" height="5.42857" transform="rotate(-90 130.286 86.6328)" fill="#A1A1A1"/>
<rect x="86.8574" y="86.6328" width="5.41457" height="5.42857" transform="rotate(-90 86.8574 86.6328)" fill="#A1A1A1"/>
<rect x="43.4287" y="81.2227" width="5.41457" height="5.42857" transform="rotate(-90 43.4287 81.2227)" fill="#A1A1A1"/>
<rect x="217.143" y="92.0508" width="5.41457" height="5.42857" transform="rotate(-90 217.143 92.0508)" fill="#A1A1A1"/>
<rect x="157.429" y="43.3164" width="5.42857" height="5.41457" fill="#A1A1A1"/>
<rect x="157.429" y="86.6328" width="5.42857" height="5.41457" fill="#A1A1A1"/>
<rect x="157.429" y="129.949" width="5.42857" height="5.41457" fill="#A1A1A1"/>
<rect x="157.429" y="173.266" width="5.42857" height="5.41457" fill="#A1A1A1"/>
<rect x="157.429" y="216.586" width="5.42857" height="5.41457" fill="#A1A1A1"/>
<rect y="75.8047" width="5.41457" height="5.42857" transform="rotate(-90 0 75.8047)" fill="#A1A1A1"/>
<rect x="260.571" y="86.6328" width="5.41457" height="5.42857" transform="rotate(-90 260.571 86.6328)" fill="#A1A1A1"/>
<rect x="173.714" y="81.2227" width="5.41457" height="5.42857" transform="rotate(-90 173.714 81.2227)" fill="#A1A1A1"/>
<rect x="130.286" y="81.2227" width="5.41457" height="5.42857" transform="rotate(-90 130.286 81.2227)" fill="#A1A1A1"/>
<rect x="86.8574" y="81.2227" width="5.41457" height="5.42857" transform="rotate(-90 86.8574 81.2227)" fill="#A1A1A1"/>
<rect x="43.4287" y="75.8047" width="5.41457" height="5.42857" transform="rotate(-90 43.4287 75.8047)" fill="#A1A1A1"/>
<rect x="217.143" y="86.6328" width="5.41457" height="5.42857" transform="rotate(-90 217.143 86.6328)" fill="#A1A1A1"/>
<rect x="162.857" y="43.3164" width="5.42857" height="5.41457" fill="#A1A1A1"/>
<rect x="162.857" y="86.6328" width="5.42857" height="5.41457" fill="#A1A1A1"/>
<rect x="162.857" y="129.949" width="5.42857" height="5.41457" fill="#A1A1A1"/>
<rect x="162.857" y="173.266" width="5.42857" height="5.41457" fill="#A1A1A1"/>
<rect x="162.857" y="216.586" width="5.42857" height="5.41457" fill="#A1A1A1"/>
<rect y="70.3906" width="5.41457" height="5.42857" transform="rotate(-90 0 70.3906)" fill="#A1A1A1"/>
<rect x="260.571" y="81.2227" width="5.41457" height="5.42857" transform="rotate(-90 260.571 81.2227)" fill="#A1A1A1"/>
<rect x="173.714" y="75.8047" width="5.41457" height="5.42857" transform="rotate(-90 173.714 75.8047)" fill="#A1A1A1"/>
<rect x="130.286" y="75.8047" width="5.41457" height="5.42857" transform="rotate(-90 130.286 75.8047)" fill="#A1A1A1"/>
<rect x="86.8574" y="75.8047" width="5.41457" height="5.42857" transform="rotate(-90 86.8574 75.8047)" fill="#A1A1A1"/>
<rect x="43.4287" y="70.3906" width="5.41457" height="5.42857" transform="rotate(-90 43.4287 70.3906)" fill="#A1A1A1"/>
<rect x="217.143" y="81.2227" width="5.41457" height="5.42857" transform="rotate(-90 217.143 81.2227)" fill="#A1A1A1"/>
<rect x="168.286" y="43.3164" width="5.42857" height="5.41457" fill="#A1A1A1"/>
<rect x="168.286" y="86.6328" width="5.42857" height="5.41457" fill="#A1A1A1"/>
<rect x="168.286" y="129.949" width="5.42857" height="5.41457" fill="#A1A1A1"/>
<rect x="168.286" y="173.266" width="5.42857" height="5.41457" fill="#A1A1A1"/>
<rect x="168.286" y="216.586" width="5.42857" height="5.41457" fill="#A1A1A1"/>
<rect y="64.9766" width="5.41457" height="5.42857" transform="rotate(-90 0 64.9766)" fill="#A1A1A1"/>
<rect x="260.571" y="75.8047" width="5.41457" height="5.42857" transform="rotate(-90 260.571 75.8047)" fill="#A1A1A1"/>
<rect x="173.714" y="70.3906" width="5.41457" height="5.42857" transform="rotate(-90 173.714 70.3906)" fill="#A1A1A1"/>
<rect x="130.286" y="70.3906" width="5.41457" height="5.42857" transform="rotate(-90 130.286 70.3906)" fill="#A1A1A1"/>
<rect x="86.8574" y="70.3906" width="5.41457" height="5.42857" transform="rotate(-90 86.8574 70.3906)" fill="#A1A1A1"/>
<rect x="43.4287" y="64.9766" width="5.41457" height="5.42857" transform="rotate(-90 43.4287 64.9766)" fill="#A1A1A1"/>
<rect x="217.143" y="75.8047" width="5.41457" height="5.42857" transform="rotate(-90 217.143 75.8047)" fill="#A1A1A1"/>
<rect x="173.714" y="43.3164" width="5.42857" height="5.41457" fill="#A1A1A1"/>
<rect x="173.714" y="86.6328" width="5.42857" height="5.41457" fill="#A1A1A1"/>
<rect x="173.714" y="129.949" width="5.42857" height="5.41457" fill="#A1A1A1"/>
<rect x="173.714" y="173.266" width="5.42857" height="5.41457" fill="#A1A1A1"/>
<rect x="173.714" y="216.586" width="5.42857" height="5.41457" fill="#A1A1A1"/>
<rect y="59.5664" width="5.41457" height="5.42857" transform="rotate(-90 0 59.5664)" fill="#A1A1A1"/>
<rect x="260.571" y="70.3906" width="5.41457" height="5.42857" transform="rotate(-90 260.571 70.3906)" fill="#A1A1A1"/>
<rect x="173.714" y="64.9766" width="5.41457" height="5.42857" transform="rotate(-90 173.714 64.9766)" fill="#A1A1A1"/>
<rect x="130.286" y="64.9766" width="5.41457" height="5.42857" transform="rotate(-90 130.286 64.9766)" fill="#A1A1A1"/>
<rect x="86.8574" y="64.9766" width="5.41457" height="5.42857" transform="rotate(-90 86.8574 64.9766)" fill="#A1A1A1"/>
<rect x="43.4287" y="59.5664" width="5.41457" height="5.42857" transform="rotate(-90 43.4287 59.5664)" fill="#A1A1A1"/>
<rect x="217.143" y="70.3906" width="5.41457" height="5.42857" transform="rotate(-90 217.143 70.3906)" fill="#A1A1A1"/>
<rect x="179.143" y="43.3164" width="5.42857" height="5.41457" fill="#A1A1A1"/>
<rect x="179.143" y="86.6328" width="5.42857" height="5.41457" fill="#A1A1A1"/>
<rect x="179.143" y="129.949" width="5.42857" height="5.41457" fill="#A1A1A1"/>
<rect x="179.143" y="173.266" width="5.42857" height="5.41457" fill="#A1A1A1"/>
<rect x="179.143" y="216.586" width="5.42857" height="5.41457" fill="#A1A1A1"/>
<rect y="54.1445" width="5.41457" height="5.42857" transform="rotate(-90 0 54.1445)" fill="#A1A1A1"/>
<rect x="260.571" y="64.9766" width="5.41457" height="5.42857" transform="rotate(-90 260.571 64.9766)" fill="#A1A1A1"/>
<rect x="173.714" y="59.5664" width="5.41457" height="5.42857" transform="rotate(-90 173.714 59.5664)" fill="#A1A1A1"/>
<rect x="130.286" y="59.5664" width="5.41457" height="5.42857" transform="rotate(-90 130.286 59.5664)" fill="#A1A1A1"/>
<rect x="86.8574" y="59.5664" width="5.41457" height="5.42857" transform="rotate(-90 86.8574 59.5664)" fill="#A1A1A1"/>
<rect x="43.4287" y="54.1445" width="5.41457" height="5.42857" transform="rotate(-90 43.4287 54.1445)" fill="#A1A1A1"/>
<rect x="217.143" y="64.9766" width="5.41457" height="5.42857" transform="rotate(-90 217.143 64.9766)" fill="#A1A1A1"/>
<rect x="184.571" y="43.3164" width="5.42857" height="5.41457" fill="#A1A1A1"/>
<rect x="184.571" y="86.6328" width="5.42857" height="5.41457" fill="#A1A1A1"/>
<rect x="184.571" y="129.949" width="5.42857" height="5.41457" fill="#A1A1A1"/>
<rect x="184.571" y="173.266" width="5.42857" height="5.41457" fill="#A1A1A1"/>
<rect x="184.571" y="216.586" width="5.42857" height="5.41457" fill="#A1A1A1"/>
<rect y="48.7344" width="5.41457" height="5.42857" transform="rotate(-90 0 48.7344)" fill="#A1A1A1"/>
<rect x="260.571" y="59.5664" width="5.41457" height="5.42857" transform="rotate(-90 260.571 59.5664)" fill="#A1A1A1"/>
<rect x="173.714" y="54.1445" width="5.41457" height="5.42857" transform="rotate(-90 173.714 54.1445)" fill="#A1A1A1"/>
<rect x="130.286" y="54.1445" width="5.41457" height="5.42857" transform="rotate(-90 130.286 54.1445)" fill="#A1A1A1"/>
<rect x="86.8574" y="54.1445" width="5.41457" height="5.42857" transform="rotate(-90 86.8574 54.1445)" fill="#A1A1A1"/>
<rect x="43.4287" y="48.7344" width="5.41457" height="5.42857" transform="rotate(-90 43.4287 48.7344)" fill="#A1A1A1"/>
<rect x="217.143" y="59.5664" width="5.41457" height="5.42857" transform="rotate(-90 217.143 59.5664)" fill="#A1A1A1"/>
<rect x="190" y="43.3164" width="5.42857" height="5.41457" fill="#A1A1A1"/>
<rect x="190" y="86.6328" width="5.42857" height="5.41457" fill="#A1A1A1"/>
<rect x="190" y="129.949" width="5.42857" height="5.41457" fill="#A1A1A1"/>
<rect x="190" y="173.266" width="5.42857" height="5.41457" fill="#A1A1A1"/>
<rect x="190" y="216.586" width="5.42857" height="5.41457" fill="#A1A1A1"/>
<rect y="43.3164" width="5.41457" height="5.42857" transform="rotate(-90 0 43.3164)" fill="#A1A1A1"/>
<rect x="260.571" y="54.1445" width="5.41457" height="5.42857" transform="rotate(-90 260.571 54.1445)" fill="#A1A1A1"/>
<rect x="173.714" y="48.7344" width="5.41457" height="5.42857" transform="rotate(-90 173.714 48.7344)" fill="#A1A1A1"/>
<rect x="130.286" y="48.7344" width="5.41457" height="5.42857" transform="rotate(-90 130.286 48.7344)" fill="#A1A1A1"/>
<rect x="86.8574" y="48.7344" width="5.41457" height="5.42857" transform="rotate(-90 86.8574 48.7344)" fill="#A1A1A1"/>
<rect x="43.4287" y="43.3164" width="5.41457" height="5.42857" transform="rotate(-90 43.4287 43.3164)" fill="#A1A1A1"/>
<rect x="217.143" y="54.1445" width="5.41457" height="5.42857" transform="rotate(-90 217.143 54.1445)" fill="#A1A1A1"/>
<rect x="195.429" y="43.3164" width="5.42857" height="5.41457" fill="#A1A1A1"/>
<rect x="195.429" y="86.6328" width="5.42857" height="5.41457" fill="#A1A1A1"/>
<rect x="195.429" y="129.949" width="5.42857" height="5.41457" fill="#A1A1A1"/>
<rect x="195.429" y="173.266" width="5.42857" height="5.41457" fill="#A1A1A1"/>
<rect x="195.429" y="216.586" width="5.42857" height="5.41457" fill="#A1A1A1"/>
<rect y="37.9062" width="5.41457" height="5.42857" transform="rotate(-90 0 37.9062)" fill="#A1A1A1"/>
<rect x="260.571" y="48.7344" width="5.41457" height="5.42857" transform="rotate(-90 260.571 48.7344)" fill="#A1A1A1"/>
<rect x="173.714" y="43.3164" width="5.41457" height="5.42857" transform="rotate(-90 173.714 43.3164)" fill="#A1A1A1"/>
<rect x="130.286" y="43.3164" width="5.41457" height="5.42857" transform="rotate(-90 130.286 43.3164)" fill="#A1A1A1"/>
<rect x="86.8574" y="43.3164" width="5.41457" height="5.42857" transform="rotate(-90 86.8574 43.3164)" fill="#A1A1A1"/>
<rect x="43.4287" y="37.9062" width="5.41457" height="5.42857" transform="rotate(-90 43.4287 37.9062)" fill="#A1A1A1"/>
<rect x="217.143" y="48.7344" width="5.41457" height="5.42857" transform="rotate(-90 217.143 48.7344)" fill="#A1A1A1"/>
<rect x="200.857" y="43.3164" width="5.42857" height="5.41457" fill="#A1A1A1"/>
<rect x="200.857" y="86.6328" width="5.42857" height="5.41457" fill="#A1A1A1"/>
<rect x="200.857" y="129.949" width="5.42857" height="5.41457" fill="#A1A1A1"/>
<rect x="200.857" y="173.266" width="5.42857" height="5.41457" fill="#A1A1A1"/>
<rect x="200.857" y="216.586" width="5.42857" height="5.41457" fill="#A1A1A1"/>
<rect y="32.4844" width="5.41457" height="5.42857" transform="rotate(-90 0 32.4844)" fill="#A1A1A1"/>
<rect x="260.571" y="43.3164" width="5.41457" height="5.42857" transform="rotate(-90 260.571 43.3164)" fill="#A1A1A1"/>
<rect x="173.714" y="37.9062" width="5.41457" height="5.42857" transform="rotate(-90 173.714 37.9062)" fill="#A1A1A1"/>
<rect x="130.286" y="37.9062" width="5.41457" height="5.42857" transform="rotate(-90 130.286 37.9062)" fill="#A1A1A1"/>
<rect x="86.8574" y="37.9062" width="5.41457" height="5.42857" transform="rotate(-90 86.8574 37.9062)" fill="#A1A1A1"/>
<rect x="43.4287" y="32.4844" width="5.41457" height="5.42857" transform="rotate(-90 43.4287 32.4844)" fill="#A1A1A1"/>
<rect x="217.143" y="43.3164" width="5.41457" height="5.42857" transform="rotate(-90 217.143 43.3164)" fill="#A1A1A1"/>
<rect x="206.286" y="43.3164" width="5.42857" height="5.41457" fill="#A1A1A1"/>
<rect x="206.286" y="86.6328" width="5.42857" height="5.41457" fill="#A1A1A1"/>
<rect x="206.286" y="129.949" width="5.42857" height="5.41457" fill="#A1A1A1"/>
<rect x="206.286" y="173.266" width="5.42857" height="5.41457" fill="#A1A1A1"/>
<rect x="206.286" y="216.586" width="5.42857" height="5.41457" fill="#A1A1A1"/>
<rect y="27.0703" width="5.41457" height="5.42857" transform="rotate(-90 0 27.0703)" fill="#A1A1A1"/>
<rect x="260.571" y="37.9062" width="5.41457" height="5.42857" transform="rotate(-90 260.571 37.9062)" fill="#A1A1A1"/>
<rect x="173.714" y="32.4844" width="5.41457" height="5.42857" transform="rotate(-90 173.714 32.4844)" fill="#A1A1A1"/>
<rect x="130.286" y="32.4844" width="5.41457" height="5.42857" transform="rotate(-90 130.286 32.4844)" fill="#A1A1A1"/>
<rect x="86.8574" y="32.4844" width="5.41457" height="5.42857" transform="rotate(-90 86.8574 32.4844)" fill="#A1A1A1"/>
<rect x="43.4287" y="27.0703" width="5.41457" height="5.42857" transform="rotate(-90 43.4287 27.0703)" fill="#A1A1A1"/>
<rect x="217.143" y="37.9062" width="5.41457" height="5.42857" transform="rotate(-90 217.143 37.9062)" fill="#A1A1A1"/>
<rect x="211.714" y="43.3164" width="5.42857" height="5.41457" fill="#A1A1A1"/>
<rect x="211.714" y="86.6328" width="5.42857" height="5.41457" fill="#A1A1A1"/>
<rect x="211.714" y="129.949" width="5.42857" height="5.41457" fill="#A1A1A1"/>
<rect x="211.714" y="173.266" width="5.42857" height="5.41457" fill="#A1A1A1"/>
<rect x="211.714" y="216.586" width="5.42857" height="5.41457" fill="#A1A1A1"/>
<rect y="21.6602" width="5.41457" height="5.42857" transform="rotate(-90 0 21.6602)" fill="#A1A1A1"/>
<rect x="260.571" y="32.4844" width="5.41457" height="5.42857" transform="rotate(-90 260.571 32.4844)" fill="#A1A1A1"/>
<rect x="173.714" y="27.0703" width="5.41457" height="5.42857" transform="rotate(-90 173.714 27.0703)" fill="#A1A1A1"/>
<rect x="130.286" y="27.0703" width="5.41457" height="5.42857" transform="rotate(-90 130.286 27.0703)" fill="#A1A1A1"/>
<rect x="86.8574" y="27.0703" width="5.41457" height="5.42857" transform="rotate(-90 86.8574 27.0703)" fill="#A1A1A1"/>
<rect x="43.4287" y="21.6602" width="5.41457" height="5.42857" transform="rotate(-90 43.4287 21.6602)" fill="#A1A1A1"/>
<rect x="217.143" y="32.4844" width="5.41457" height="5.42857" transform="rotate(-90 217.143 32.4844)" fill="#A1A1A1"/>
<rect x="217.143" y="43.3164" width="5.42857" height="5.41457" fill="#A1A1A1"/>
<rect x="217.143" y="86.6328" width="5.42857" height="5.41457" fill="#A1A1A1"/>
<rect x="217.143" y="129.949" width="5.42857" height="5.41457" fill="#A1A1A1"/>
<rect x="217.143" y="173.266" width="5.42857" height="5.41457" fill="#A1A1A1"/>
<rect x="217.143" y="216.586" width="5.42857" height="5.41457" fill="#A1A1A1"/>
<rect y="16.2461" width="5.41457" height="5.42857" transform="rotate(-90 0 16.2461)" fill="#A1A1A1"/>
<rect x="260.571" y="27.0703" width="5.41457" height="5.42857" transform="rotate(-90 260.571 27.0703)" fill="#A1A1A1"/>
<rect x="173.714" y="21.6602" width="5.41457" height="5.42857" transform="rotate(-90 173.714 21.6602)" fill="#A1A1A1"/>
<rect x="130.286" y="21.6602" width="5.41457" height="5.42857" transform="rotate(-90 130.286 21.6602)" fill="#A1A1A1"/>
<rect x="86.8574" y="21.6602" width="5.41457" height="5.42857" transform="rotate(-90 86.8574 21.6602)" fill="#A1A1A1"/>
<rect x="43.4287" y="16.2461" width="5.41457" height="5.42857" transform="rotate(-90 43.4287 16.2461)" fill="#A1A1A1"/>
<rect x="217.143" y="27.0703" width="5.41457" height="5.42857" transform="rotate(-90 217.143 27.0703)" fill="#A1A1A1"/>
<rect x="222.571" y="43.3164" width="5.42857" height="5.41457" fill="#A1A1A1"/>
<rect x="222.571" y="86.6328" width="5.42857" height="5.41457" fill="#A1A1A1"/>
<rect x="222.571" y="129.949" width="5.42857" height="5.41457" fill="#A1A1A1"/>
<rect x="222.571" y="173.266" width="5.42857" height="5.41457" fill="#A1A1A1"/>
<rect x="222.571" y="216.586" width="5.42857" height="5.41457" fill="#A1A1A1"/>
<rect y="10.8281" width="5.41457" height="5.42857" transform="rotate(-90 0 10.8281)" fill="#A1A1A1"/>
<rect x="260.571" y="21.6602" width="5.41457" height="5.42857" transform="rotate(-90 260.571 21.6602)" fill="#A1A1A1"/>
<rect x="173.714" y="16.2461" width="5.41457" height="5.42857" transform="rotate(-90 173.714 16.2461)" fill="#A1A1A1"/>
<rect x="130.286" y="16.2461" width="5.41457" height="5.42857" transform="rotate(-90 130.286 16.2461)" fill="#A1A1A1"/>
<rect x="86.8574" y="16.2461" width="5.41457" height="5.42857" transform="rotate(-90 86.8574 16.2461)" fill="#A1A1A1"/>
<rect x="43.4287" y="10.8281" width="5.41457" height="5.42857" transform="rotate(-90 43.4287 10.8281)" fill="#A1A1A1"/>
<rect x="217.143" y="21.6602" width="5.41457" height="5.42857" transform="rotate(-90 217.143 21.6602)" fill="#A1A1A1"/>
<rect x="228" y="43.3164" width="5.42857" height="5.41457" fill="#A1A1A1"/>
<rect x="228" y="86.6328" width="5.42857" height="5.41457" fill="#A1A1A1"/>
<rect x="228" y="129.949" width="5.42857" height="5.41457" fill="#A1A1A1"/>
<rect x="228" y="173.266" width="5.42857" height="5.41457" fill="#A1A1A1"/>
<rect x="228" y="216.586" width="5.42857" height="5.41457" fill="#A1A1A1"/>
<rect y="5.41797" width="5.41457" height="5.42857" transform="rotate(-90 0 5.41797)" fill="#A1A1A1"/>
<rect x="260.571" y="16.2461" width="5.41457" height="5.42857" transform="rotate(-90 260.571 16.2461)" fill="#A1A1A1"/>
<rect x="173.714" y="10.8281" width="5.41457" height="5.42857" transform="rotate(-90 173.714 10.8281)" fill="#A1A1A1"/>
<rect x="130.286" y="10.8281" width="5.41457" height="5.42857" transform="rotate(-90 130.286 10.8281)" fill="#A1A1A1"/>
<rect x="86.8574" y="10.8281" width="5.41457" height="5.42857" transform="rotate(-90 86.8574 10.8281)" fill="#A1A1A1"/>
<rect x="43.4287" y="5.41797" width="5.41457" height="5.42857" transform="rotate(-90 43.4287 5.41797)" fill="#A1A1A1"/>
<rect x="217.143" y="16.2461" width="5.41457" height="5.42857" transform="rotate(-90 217.143 16.2461)" fill="#A1A1A1"/>
<rect x="233.429" y="43.3164" width="5.42857" height="5.41457" fill="#A1A1A1"/>
<rect x="233.429" y="86.6328" width="5.42857" height="5.41457" fill="#A1A1A1"/>
<rect x="233.429" y="129.949" width="5.42857" height="5.41457" fill="#A1A1A1"/>
<rect x="233.429" y="173.266" width="5.42857" height="5.41457" fill="#A1A1A1"/>
<rect x="233.429" y="216.586" width="5.42857" height="5.41457" fill="#A1A1A1"/>
<rect x="260.571" y="10.8281" width="5.41457" height="5.42857" transform="rotate(-90 260.571 10.8281)" fill="#A1A1A1"/>
<rect x="173.714" y="5.41797" width="5.41457" height="5.42857" transform="rotate(-90 173.714 5.41797)" fill="#A1A1A1"/>
<rect x="130.286" y="5.41797" width="5.41457" height="5.42857" transform="rotate(-90 130.286 5.41797)" fill="#A1A1A1"/>
<rect x="86.8574" y="5.41797" width="5.41457" height="5.42857" transform="rotate(-90 86.8574 5.41797)" fill="#A1A1A1"/>
<rect x="217.143" y="10.8281" width="5.41457" height="5.42857" transform="rotate(-90 217.143 10.8281)" fill="#A1A1A1"/>
<rect x="238.857" y="43.3164" width="5.42857" height="5.41457" fill="#A1A1A1"/>
<rect x="238.857" y="86.6328" width="5.42857" height="5.41457" fill="#A1A1A1"/>
<rect x="238.857" y="129.949" width="5.42857" height="5.41457" fill="#A1A1A1"/>
<rect x="238.857" y="173.266" width="5.42857" height="5.41457" fill="#A1A1A1"/>
<rect x="238.857" y="216.586" width="5.42857" height="5.41457" fill="#A1A1A1"/>
<rect x="260.571" y="5.41797" width="5.41457" height="5.42857" transform="rotate(-90 260.571 5.41797)" fill="#A1A1A1"/>
<rect x="217.143" y="5.41797" width="5.41457" height="5.42857" transform="rotate(-90 217.143 5.41797)" fill="#A1A1A1"/>
<rect x="244.286" y="43.3164" width="5.42857" height="5.41457" fill="#A1A1A1"/>
<rect x="244.286" y="86.6328" width="5.42857" height="5.41457" fill="#A1A1A1"/>
<rect x="244.286" y="129.949" width="5.42857" height="5.41457" fill="#A1A1A1"/>
<rect x="244.286" y="173.266" width="5.42857" height="5.41457" fill="#A1A1A1"/>
<rect x="244.286" y="216.586" width="5.42857" height="5.41457" fill="#A1A1A1"/>
<rect x="249.714" y="43.3164" width="5.42857" height="5.41457" fill="#A1A1A1"/>
<rect x="249.714" y="86.6328" width="5.42857" height="5.41457" fill="#A1A1A1"/>
<rect x="249.714" y="129.949" width="5.42857" height="5.41457" fill="#A1A1A1"/>
<rect x="249.714" y="173.266" width="5.42857" height="5.41457" fill="#A1A1A1"/>
<rect x="249.714" y="216.586" width="5.42857" height="5.41457" fill="#A1A1A1"/>
<rect x="255.143" y="43.3164" width="5.42857" height="5.41457" fill="#A1A1A1"/>
<rect x="255.143" y="86.6328" width="5.42857" height="5.41457" fill="#A1A1A1"/>
<rect x="255.143" y="129.949" width="5.42857" height="5.41457" fill="#A1A1A1"/>
<rect x="255.143" y="173.266" width="5.42857" height="5.41457" fill="#A1A1A1"/>
<rect x="255.143" y="216.586" width="5.42857" height="5.41457" fill="#A1A1A1"/>
<rect y="48.7344" width="5.41457" height="5.42857" transform="rotate(-90 0 48.7344)" fill="#A1A1A1"/>
<rect x="260.571" y="59.5664" width="5.41457" height="5.42857" transform="rotate(-90 260.571 59.5664)" fill="#A1A1A1"/>
<rect x="173.714" y="54.1445" width="5.41457" height="5.42857" transform="rotate(-90 173.714 54.1445)" fill="#A1A1A1"/>
<rect x="130.286" y="54.1445" width="5.41457" height="5.42857" transform="rotate(-90 130.286 54.1445)" fill="#A1A1A1"/>
<rect x="86.8574" y="54.1445" width="5.41457" height="5.42857" transform="rotate(-90 86.8574 54.1445)" fill="#A1A1A1"/>
<rect x="43.4287" y="48.7344" width="5.41457" height="5.42857" transform="rotate(-90 43.4287 48.7344)" fill="#A1A1A1"/>
<rect x="217.143" y="59.5664" width="5.41457" height="5.42857" transform="rotate(-90 217.143 59.5664)" fill="#A1A1A1"/>
<rect y="92.0508" width="5.41457" height="5.42857" transform="rotate(-90 0 92.0508)" fill="#A1A1A1"/>
<rect x="260.571" y="102.883" width="5.41457" height="5.42857" transform="rotate(-90 260.571 102.883)" fill="#A1A1A1"/>
<rect x="173.714" y="97.4609" width="5.41457" height="5.42857" transform="rotate(-90 173.714 97.4609)" fill="#A1A1A1"/>
<rect x="130.286" y="97.4609" width="5.41457" height="5.42857" transform="rotate(-90 130.286 97.4609)" fill="#A1A1A1"/>
<rect x="86.8574" y="97.4609" width="5.41457" height="5.42857" transform="rotate(-90 86.8574 97.4609)" fill="#A1A1A1"/>
<rect x="43.4287" y="92.0508" width="5.41457" height="5.42857" transform="rotate(-90 43.4287 92.0508)" fill="#A1A1A1"/>
<rect x="217.143" y="102.883" width="5.41457" height="5.42857" transform="rotate(-90 217.143 102.883)" fill="#A1A1A1"/>
<rect y="135.367" width="5.41457" height="5.42857" transform="rotate(-90 0 135.367)" fill="#A1A1A1"/>
<rect x="260.571" y="146.195" width="5.41457" height="5.42857" transform="rotate(-90 260.571 146.195)" fill="#A1A1A1"/>
<rect x="173.714" y="140.781" width="5.41457" height="5.42857" transform="rotate(-90 173.714 140.781)" fill="#A1A1A1"/>
<rect x="130.286" y="140.781" width="5.41457" height="5.42857" transform="rotate(-90 130.286 140.781)" fill="#A1A1A1"/>
<rect x="86.8574" y="140.781" width="5.41457" height="5.42857" transform="rotate(-90 86.8574 140.781)" fill="#A1A1A1"/>
<rect x="43.4287" y="135.367" width="5.41457" height="5.42857" transform="rotate(-90 43.4287 135.367)" fill="#A1A1A1"/>
<rect x="217.143" y="146.195" width="5.41457" height="5.42857" transform="rotate(-90 217.143 146.195)" fill="#A1A1A1"/>
<rect y="178.68" width="5.41457" height="5.42857" transform="rotate(-90 0 178.68)" fill="#A1A1A1"/>
<rect x="260.571" y="189.516" width="5.41457" height="5.42857" transform="rotate(-90 260.571 189.516)" fill="#A1A1A1"/>
<rect x="173.714" y="184.094" width="5.41457" height="5.42857" transform="rotate(-90 173.714 184.094)" fill="#A1A1A1"/>
<rect x="130.286" y="184.094" width="5.41457" height="5.42857" transform="rotate(-90 130.286 184.094)" fill="#A1A1A1"/>
<rect x="86.8574" y="184.094" width="5.41457" height="5.42857" transform="rotate(-90 86.8574 184.094)" fill="#A1A1A1"/>
<rect x="43.4287" y="178.68" width="5.41457" height="5.42857" transform="rotate(-90 43.4287 178.68)" fill="#A1A1A1"/>
<rect x="217.143" y="189.516" width="5.41457" height="5.42857" transform="rotate(-90 217.143 189.516)" fill="#A1A1A1"/>
<rect y="222" width="5.41457" height="5.42857" transform="rotate(-90 0 222)" fill="#A1A1A1"/>
<rect x="43.4287" y="222" width="5.41457" height="5.42857" transform="rotate(-90 43.4287 222)" fill="#A1A1A1"/>
<rect x="38" y="48.7344" width="5.41457" height="5.42857" transform="rotate(-90 38 48.7344)" fill="#A1A1A1"/>
<rect x="38" y="92.0508" width="5.41457" height="5.42857" transform="rotate(-90 38 92.0508)" fill="#A1A1A1"/>
<rect x="38" y="135.367" width="5.41457" height="5.42857" transform="rotate(-90 38 135.367)" fill="#A1A1A1"/>
<rect x="38" y="178.68" width="5.41457" height="5.42857" transform="rotate(-90 38 178.68)" fill="#A1A1A1"/>
<rect x="38" y="222" width="5.41457" height="5.42857" transform="rotate(-90 38 222)" fill="#A1A1A1"/>
<rect x="5.42871" y="194.926" width="5.42857" height="5.41457" transform="rotate(180 5.42871 194.926)" fill="#A1A1A1"/>
<rect x="266" y="205.754" width="5.42857" height="5.41457" transform="rotate(180 266 205.754)" fill="#A1A1A1"/>
<rect x="179.143" y="200.34" width="5.42857" height="5.41457" transform="rotate(180 179.143 200.34)" fill="#A1A1A1"/>
<rect x="135.714" y="200.34" width="5.42857" height="5.41457" transform="rotate(180 135.714 200.34)" fill="#A1A1A1"/>
<rect x="92.2861" y="200.34" width="5.42857" height="5.41457" transform="rotate(180 92.2861 200.34)" fill="#A1A1A1"/>
<rect x="48.8574" y="194.926" width="5.42857" height="5.41457" transform="rotate(180 48.8574 194.926)" fill="#A1A1A1"/>
<rect x="222.571" y="205.754" width="5.42857" height="5.41457" transform="rotate(180 222.571 205.754)" fill="#A1A1A1"/>
<rect x="81.4287" y="48.7344" width="5.41457" height="5.42857" transform="rotate(-90 81.4287 48.7344)" fill="#A1A1A1"/>
<rect x="81.4287" y="92.0508" width="5.41457" height="5.42857" transform="rotate(-90 81.4287 92.0508)" fill="#A1A1A1"/>
<rect x="81.4287" y="135.367" width="5.41457" height="5.42857" transform="rotate(-90 81.4287 135.367)" fill="#A1A1A1"/>
<rect x="81.4287" y="178.68" width="5.41457" height="5.42857" transform="rotate(-90 81.4287 178.68)" fill="#A1A1A1"/>
<rect x="81.4287" y="222" width="5.41457" height="5.42857" transform="rotate(-90 81.4287 222)" fill="#A1A1A1"/>
<rect x="5.42871" y="151.609" width="5.42857" height="5.41457" transform="rotate(180 5.42871 151.609)" fill="#A1A1A1"/>
<rect x="266" y="162.434" width="5.42857" height="5.41457" transform="rotate(180 266 162.434)" fill="#A1A1A1"/>
<rect x="179.143" y="157.027" width="5.42857" height="5.41457" transform="rotate(180 179.143 157.027)" fill="#A1A1A1"/>
<rect x="135.714" y="157.027" width="5.42857" height="5.41457" transform="rotate(180 135.714 157.027)" fill="#A1A1A1"/>
<rect x="92.2861" y="157.027" width="5.42857" height="5.41457" transform="rotate(180 92.2861 157.027)" fill="#A1A1A1"/>
<rect x="48.8574" y="151.609" width="5.42857" height="5.41457" transform="rotate(180 48.8574 151.609)" fill="#A1A1A1"/>
<rect x="222.571" y="162.434" width="5.42857" height="5.41457" transform="rotate(180 222.571 162.434)" fill="#A1A1A1"/>
<rect x="124.857" y="48.7344" width="5.41457" height="5.42857" transform="rotate(-90 124.857 48.7344)" fill="#A1A1A1"/>
<rect x="124.857" y="92.0508" width="5.41457" height="5.42857" transform="rotate(-90 124.857 92.0508)" fill="#A1A1A1"/>
<rect x="124.857" y="135.367" width="5.41457" height="5.42857" transform="rotate(-90 124.857 135.367)" fill="#A1A1A1"/>
<rect x="124.857" y="178.68" width="5.41457" height="5.42857" transform="rotate(-90 124.857 178.68)" fill="#A1A1A1"/>
<rect x="124.857" y="222" width="5.41457" height="5.42857" transform="rotate(-90 124.857 222)" fill="#A1A1A1"/>
<rect x="5.42871" y="108.289" width="5.42857" height="5.41457" transform="rotate(180 5.42871 108.289)" fill="#A1A1A1"/>
<rect x="266" y="119.121" width="5.42857" height="5.41457" transform="rotate(180 266 119.121)" fill="#A1A1A1"/>
<rect x="179.143" y="113.711" width="5.42857" height="5.41457" transform="rotate(180 179.143 113.711)" fill="#A1A1A1"/>
<rect x="135.714" y="113.711" width="5.42857" height="5.41457" transform="rotate(180 135.714 113.711)" fill="#A1A1A1"/>
<rect x="92.2861" y="113.711" width="5.42857" height="5.41457" transform="rotate(180 92.2861 113.711)" fill="#A1A1A1"/>
<rect x="48.8574" y="108.289" width="5.42857" height="5.41457" transform="rotate(180 48.8574 108.289)" fill="#A1A1A1"/>
<rect x="222.571" y="119.121" width="5.42857" height="5.41457" transform="rotate(180 222.571 119.121)" fill="#A1A1A1"/>
<rect x="168.286" y="48.7344" width="5.41457" height="5.42857" transform="rotate(-90 168.286 48.7344)" fill="#A1A1A1"/>
<rect x="168.286" y="92.0508" width="5.41457" height="5.42857" transform="rotate(-90 168.286 92.0508)" fill="#A1A1A1"/>
<rect x="168.286" y="135.367" width="5.41457" height="5.42857" transform="rotate(-90 168.286 135.367)" fill="#A1A1A1"/>
<rect x="168.286" y="178.68" width="5.41457" height="5.42857" transform="rotate(-90 168.286 178.68)" fill="#A1A1A1"/>
<rect x="168.286" y="222" width="5.41457" height="5.42857" transform="rotate(-90 168.286 222)" fill="#A1A1A1"/>
<rect x="5.42871" y="64.9766" width="5.42857" height="5.41457" transform="rotate(180 5.42871 64.9766)" fill="#A1A1A1"/>
<rect x="266" y="75.8047" width="5.42857" height="5.41457" transform="rotate(180 266 75.8047)" fill="#A1A1A1"/>
<rect x="179.143" y="70.3906" width="5.42857" height="5.41457" transform="rotate(180 179.143 70.3906)" fill="#A1A1A1"/>
<rect x="135.714" y="70.3906" width="5.42857" height="5.41457" transform="rotate(180 135.714 70.3906)" fill="#A1A1A1"/>
<rect x="92.2861" y="70.3906" width="5.42857" height="5.41457" transform="rotate(180 92.2861 70.3906)" fill="#A1A1A1"/>
<rect x="48.8574" y="64.9766" width="5.42857" height="5.41457" transform="rotate(180 48.8574 64.9766)" fill="#A1A1A1"/>
<rect x="222.571" y="75.8047" width="5.42857" height="5.41457" transform="rotate(180 222.571 75.8047)" fill="#A1A1A1"/>
<rect x="211.714" y="48.7344" width="5.41457" height="5.42857" transform="rotate(-90 211.714 48.7344)" fill="#A1A1A1"/>
<rect x="211.714" y="92.0508" width="5.41457" height="5.42857" transform="rotate(-90 211.714 92.0508)" fill="#A1A1A1"/>
<rect x="211.714" y="135.367" width="5.41457" height="5.42857" transform="rotate(-90 211.714 135.367)" fill="#A1A1A1"/>
<rect x="211.714" y="178.68" width="5.41457" height="5.42857" transform="rotate(-90 211.714 178.68)" fill="#A1A1A1"/>
<rect x="211.714" y="222" width="5.41457" height="5.42857" transform="rotate(-90 211.714 222)" fill="#A1A1A1"/>
<rect x="5.42871" y="21.6602" width="5.42857" height="5.41457" transform="rotate(180 5.42871 21.6602)" fill="#A1A1A1"/>
<rect x="266" y="32.4844" width="5.42857" height="5.41457" transform="rotate(180 266 32.4844)" fill="#A1A1A1"/>
<rect x="179.143" y="27.0703" width="5.42857" height="5.41457" transform="rotate(180 179.143 27.0703)" fill="#A1A1A1"/>
<rect x="135.714" y="27.0703" width="5.42857" height="5.41457" transform="rotate(180 135.714 27.0703)" fill="#A1A1A1"/>
<rect x="92.2861" y="27.0703" width="5.42857" height="5.41457" transform="rotate(180 92.2861 27.0703)" fill="#A1A1A1"/>
<rect x="48.8574" y="21.6602" width="5.42857" height="5.41457" transform="rotate(180 48.8574 21.6602)" fill="#A1A1A1"/>
<rect x="222.571" y="32.4844" width="5.42857" height="5.41457" transform="rotate(180 222.571 32.4844)" fill="#A1A1A1"/>
<rect x="255.143" y="48.7344" width="5.41457" height="5.42857" transform="rotate(-90 255.143 48.7344)" fill="#A1A1A1"/>
<rect x="255.143" y="92.0508" width="5.41457" height="5.42857" transform="rotate(-90 255.143 92.0508)" fill="#A1A1A1"/>
<rect x="255.143" y="135.367" width="5.41457" height="5.42857" transform="rotate(-90 255.143 135.367)" fill="#A1A1A1"/>
<rect x="255.143" y="178.68" width="5.41457" height="5.42857" transform="rotate(-90 255.143 178.68)" fill="#A1A1A1"/>
<rect x="255.143" y="222" width="5.41457" height="5.42857" transform="rotate(-90 255.143 222)" fill="#A1A1A1"/>
</svg>
