<svg width="272" height="277" viewBox="0 0 272 277" fill="none" xmlns="http://www.w3.org/2000/svg">
<rect x="32" width="5.33334" height="5.30387" fill="#A1A1A1"/>
<rect x="256" y="238.673" width="5.30387" height="5.33334" transform="rotate(-90 256 238.673)" fill="#A1A1A1"/>
<rect x="32" y="254.585" width="5.33334" height="5.30387" fill="#A1A1A1"/>
<rect x="96" width="5.33334" height="5.30387" fill="#A1A1A1"/>
<rect x="256" y="175.029" width="5.30387" height="5.33334" transform="rotate(-90 256 175.029)" fill="#A1A1A1"/>
<rect x="96" y="254.585" width="5.33334" height="5.30387" fill="#A1A1A1"/>
<rect x="181.332" width="5.33334" height="5.30387" fill="#A1A1A1"/>
<rect x="256" y="90.1658" width="5.30387" height="5.33334" transform="rotate(-90 256 90.1658)" fill="#A1A1A1"/>
<rect x="181.332" y="254.585" width="5.33334" height="5.30387" fill="#A1A1A1"/>
<rect x="53.332" width="5.33334" height="5.30387" fill="#A1A1A1"/>
<rect x="256" y="217.458" width="5.30387" height="5.33334" transform="rotate(-90 256 217.458)" fill="#A1A1A1"/>
<rect x="53.332" y="254.585" width="5.33334" height="5.30387" fill="#A1A1A1"/>
<rect x="202.668" width="5.33334" height="5.30387" fill="#A1A1A1"/>
<rect x="256" y="68.951" width="5.30387" height="5.33334" transform="rotate(-90 256 68.951)" fill="#A1A1A1"/>
<rect x="202.668" y="254.585" width="5.33334" height="5.30387" fill="#A1A1A1"/>
<rect x="74.668" width="5.33334" height="5.30387" fill="#A1A1A1"/>
<rect x="256" y="196.244" width="5.30387" height="5.33334" transform="rotate(-90 256 196.244)" fill="#A1A1A1"/>
<rect x="74.668" y="254.585" width="5.33334" height="5.30387" fill="#A1A1A1"/>
<rect x="160" width="5.33334" height="5.30387" fill="#A1A1A1"/>
<rect x="256" y="111.38" width="5.30387" height="5.33334" transform="rotate(-90 256 111.38)" fill="#A1A1A1"/>
<rect x="160" y="254.585" width="5.33334" height="5.30387" fill="#A1A1A1"/>
<rect x="224" width="5.33334" height="5.30387" fill="#A1A1A1"/>
<rect x="256" y="47.7362" width="5.30387" height="5.33334" transform="rotate(-90 256 47.7362)" fill="#A1A1A1"/>
<rect x="224" y="254.585" width="5.33334" height="5.30387" fill="#A1A1A1"/>
<rect x="37.332" width="5.33334" height="5.30387" fill="#A1A1A1"/>
<rect x="256" y="233.37" width="5.30387" height="5.33334" transform="rotate(-90 256 233.37)" fill="#A1A1A1"/>
<rect x="37.332" y="254.585" width="5.33334" height="5.30387" fill="#A1A1A1"/>
<rect x="101.332" width="5.33334" height="5.30387" fill="#A1A1A1"/>
<rect x="256" y="169.726" width="5.30387" height="5.33334" transform="rotate(-90 256 169.726)" fill="#A1A1A1"/>
<rect x="101.332" y="254.585" width="5.33334" height="5.30387" fill="#A1A1A1"/>
<rect x="186.668" width="5.33334" height="5.30387" fill="#A1A1A1"/>
<rect x="256" y="84.863" width="5.30387" height="5.33334" transform="rotate(-90 256 84.863)" fill="#A1A1A1"/>
<rect x="186.668" y="254.585" width="5.33334" height="5.30387" fill="#A1A1A1"/>
<rect x="58.6641" width="5.33334" height="5.30387" fill="#A1A1A1"/>
<rect x="256" y="212.156" width="5.30387" height="5.33334" transform="rotate(-90 256 212.156)" fill="#A1A1A1"/>
<rect x="58.6641" y="254.585" width="5.33334" height="5.30387" fill="#A1A1A1"/>
<rect x="208" width="5.33334" height="5.30387" fill="#A1A1A1"/>
<rect x="256" y="63.6483" width="5.30387" height="5.33334" transform="rotate(-90 256 63.6483)" fill="#A1A1A1"/>
<rect x="208" y="254.585" width="5.33334" height="5.30387" fill="#A1A1A1"/>
<rect x="80" width="5.33334" height="5.30387" fill="#A1A1A1"/>
<rect x="256" y="190.941" width="5.30387" height="5.33334" transform="rotate(-90 256 190.941)" fill="#A1A1A1"/>
<rect x="80" y="254.585" width="5.33334" height="5.30387" fill="#A1A1A1"/>
<rect x="165.332" width="5.33334" height="5.30387" fill="#A1A1A1"/>
<rect x="256" y="106.078" width="5.30387" height="5.33334" transform="rotate(-90 256 106.078)" fill="#A1A1A1"/>
<rect x="165.332" y="254.585" width="5.33334" height="5.30387" fill="#A1A1A1"/>
<rect x="229.332" width="5.33334" height="5.30387" fill="#A1A1A1"/>
<rect x="256" y="42.4335" width="5.30387" height="5.33334" transform="rotate(-90 256 42.4335)" fill="#A1A1A1"/>
<rect x="229.332" y="254.585" width="5.33334" height="5.30387" fill="#A1A1A1"/>
<rect x="37.332" y="5.30664" width="5.33334" height="5.30387" fill="#A1A1A1"/>
<rect x="5.33203" y="233.37" width="5.30387" height="5.33334" transform="rotate(-90 5.33203 233.37)" fill="#A1A1A1"/>
<rect y="233.37" width="5.30387" height="5.33334" transform="rotate(-90 0 233.37)" fill="#A1A1A1"/>
<rect x="261.332" y="233.37" width="5.30387" height="5.33334" transform="rotate(-90 261.332 233.37)" fill="#A1A1A1"/>
<rect x="37.332" y="259.892" width="5.33334" height="5.30387" fill="#A1A1A1"/>
<rect x="101.332" y="5.30664" width="5.33334" height="5.30387" fill="#A1A1A1"/>
<rect x="5.33203" y="169.726" width="5.30387" height="5.33334" transform="rotate(-90 5.33203 169.726)" fill="#A1A1A1"/>
<rect y="169.726" width="5.30387" height="5.33334" transform="rotate(-90 0 169.726)" fill="#A1A1A1"/>
<rect x="261.332" y="169.726" width="5.30387" height="5.33334" transform="rotate(-90 261.332 169.726)" fill="#A1A1A1"/>
<rect x="101.332" y="259.892" width="5.33334" height="5.30387" fill="#A1A1A1"/>
<rect x="186.668" y="5.30664" width="5.33334" height="5.30387" fill="#A1A1A1"/>
<rect x="5.33203" y="84.863" width="5.30387" height="5.33334" transform="rotate(-90 5.33203 84.863)" fill="#A1A1A1"/>
<rect y="84.863" width="5.30387" height="5.33334" transform="rotate(-90 0 84.863)" fill="#A1A1A1"/>
<rect x="261.332" y="84.863" width="5.30387" height="5.33334" transform="rotate(-90 261.332 84.863)" fill="#A1A1A1"/>
<rect x="186.668" y="259.892" width="5.33334" height="5.30387" fill="#A1A1A1"/>
<rect x="58.6641" y="5.30664" width="5.33334" height="5.30387" fill="#A1A1A1"/>
<rect x="5.33203" y="212.156" width="5.30387" height="5.33334" transform="rotate(-90 5.33203 212.156)" fill="#A1A1A1"/>
<rect y="212.156" width="5.30387" height="5.33334" transform="rotate(-90 0 212.156)" fill="#A1A1A1"/>
<rect x="261.332" y="212.156" width="5.30387" height="5.33334" transform="rotate(-90 261.332 212.156)" fill="#A1A1A1"/>
<rect x="58.6641" y="259.892" width="5.33334" height="5.30387" fill="#A1A1A1"/>
<rect x="208" y="5.30664" width="5.33334" height="5.30387" fill="#A1A1A1"/>
<rect x="5.33203" y="63.6483" width="5.30387" height="5.33334" transform="rotate(-90 5.33203 63.6483)" fill="#A1A1A1"/>
<rect y="63.6483" width="5.30387" height="5.33334" transform="rotate(-90 0 63.6483)" fill="#A1A1A1"/>
<rect x="261.332" y="63.6483" width="5.30387" height="5.33334" transform="rotate(-90 261.332 63.6483)" fill="#A1A1A1"/>
<rect x="208" y="259.892" width="5.33334" height="5.30387" fill="#A1A1A1"/>
<rect x="80" y="5.30664" width="5.33334" height="5.30387" fill="#A1A1A1"/>
<rect x="5.33203" y="190.941" width="5.30387" height="5.33334" transform="rotate(-90 5.33203 190.941)" fill="#A1A1A1"/>
<rect y="190.941" width="5.30387" height="5.33334" transform="rotate(-90 0 190.941)" fill="#A1A1A1"/>
<rect x="261.332" y="190.941" width="5.30387" height="5.33334" transform="rotate(-90 261.332 190.941)" fill="#A1A1A1"/>
<rect x="80" y="259.892" width="5.33334" height="5.30387" fill="#A1A1A1"/>
<rect x="165.332" y="5.30664" width="5.33334" height="5.30387" fill="#A1A1A1"/>
<rect x="5.33203" y="106.078" width="5.30387" height="5.33334" transform="rotate(-90 5.33203 106.078)" fill="#A1A1A1"/>
<rect y="106.078" width="5.30387" height="5.33334" transform="rotate(-90 0 106.078)" fill="#A1A1A1"/>
<rect x="261.332" y="106.078" width="5.30387" height="5.33334" transform="rotate(-90 261.332 106.078)" fill="#A1A1A1"/>
<rect x="165.332" y="259.892" width="5.33334" height="5.30387" fill="#A1A1A1"/>
<rect x="229.332" y="5.30664" width="5.33334" height="5.30387" fill="#A1A1A1"/>
<rect x="5.33203" y="42.4335" width="5.30387" height="5.33334" transform="rotate(-90 5.33203 42.4335)" fill="#A1A1A1"/>
<rect y="42.4335" width="5.30387" height="5.33334" transform="rotate(-90 0 42.4335)" fill="#A1A1A1"/>
<rect x="261.332" y="42.4335" width="5.30387" height="5.33334" transform="rotate(-90 261.332 42.4335)" fill="#A1A1A1"/>
<rect x="229.332" y="259.892" width="5.33334" height="5.30387" fill="#A1A1A1"/>
<rect x="42.668" y="5.30664" width="5.33334" height="5.30387" fill="#A1A1A1"/>
<rect x="5.33203" y="228.068" width="5.30387" height="5.33334" transform="rotate(-90 5.33203 228.068)" fill="#A1A1A1"/>
<rect y="228.068" width="5.30387" height="5.33334" transform="rotate(-90 0 228.068)" fill="#A1A1A1"/>
<rect x="261.332" y="228.068" width="5.30387" height="5.33334" transform="rotate(-90 261.332 228.068)" fill="#A1A1A1"/>
<rect x="42.668" y="259.892" width="5.33334" height="5.30387" fill="#A1A1A1"/>
<rect x="106.664" y="5.30664" width="5.33334" height="5.30387" fill="#A1A1A1"/>
<rect x="5.33203" y="164.419" width="5.30387" height="5.33334" transform="rotate(-90 5.33203 164.419)" fill="#A1A1A1"/>
<rect y="164.419" width="5.30387" height="5.33334" transform="rotate(-90 0 164.419)" fill="#A1A1A1"/>
<rect x="261.332" y="164.419" width="5.30387" height="5.33334" transform="rotate(-90 261.332 164.419)" fill="#A1A1A1"/>
<rect x="106.664" y="259.892" width="5.33334" height="5.30387" fill="#A1A1A1"/>
<rect x="192" y="5.30664" width="5.33334" height="5.30387" fill="#A1A1A1"/>
<rect x="5.33203" y="79.5603" width="5.30387" height="5.33334" transform="rotate(-90 5.33203 79.5603)" fill="#A1A1A1"/>
<rect y="79.5603" width="5.30387" height="5.33334" transform="rotate(-90 0 79.5603)" fill="#A1A1A1"/>
<rect x="261.332" y="79.5603" width="5.30387" height="5.33334" transform="rotate(-90 261.332 79.5603)" fill="#A1A1A1"/>
<rect x="192" y="259.892" width="5.33334" height="5.30387" fill="#A1A1A1"/>
<rect x="64" y="5.30664" width="5.33334" height="5.30387" fill="#A1A1A1"/>
<rect x="5.33203" y="206.853" width="5.30387" height="5.33334" transform="rotate(-90 5.33203 206.853)" fill="#A1A1A1"/>
<rect y="206.853" width="5.30387" height="5.33334" transform="rotate(-90 0 206.853)" fill="#A1A1A1"/>
<rect x="261.332" y="206.853" width="5.30387" height="5.33334" transform="rotate(-90 261.332 206.853)" fill="#A1A1A1"/>
<rect x="64" y="259.892" width="5.33334" height="5.30387" fill="#A1A1A1"/>
<rect x="213.336" y="5.30664" width="5.33334" height="5.30387" fill="#A1A1A1"/>
<rect x="5.33203" y="58.3455" width="5.30387" height="5.33334" transform="rotate(-90 5.33203 58.3455)" fill="#A1A1A1"/>
<rect y="58.3455" width="5.30387" height="5.33334" transform="rotate(-90 0 58.3455)" fill="#A1A1A1"/>
<rect x="261.332" y="58.3455" width="5.30387" height="5.33334" transform="rotate(-90 261.332 58.3455)" fill="#A1A1A1"/>
<rect x="213.336" y="259.892" width="5.33334" height="5.30387" fill="#A1A1A1"/>
<rect x="85.332" y="5.30664" width="5.33334" height="5.30387" fill="#A1A1A1"/>
<rect x="5.33203" y="185.638" width="5.30387" height="5.33334" transform="rotate(-90 5.33203 185.638)" fill="#A1A1A1"/>
<rect y="185.638" width="5.30387" height="5.33334" transform="rotate(-90 0 185.638)" fill="#A1A1A1"/>
<rect x="261.332" y="185.638" width="5.30387" height="5.33334" transform="rotate(-90 261.332 185.638)" fill="#A1A1A1"/>
<rect x="85.332" y="259.892" width="5.33334" height="5.30387" fill="#A1A1A1"/>
<rect x="170.668" y="5.30664" width="5.33334" height="5.30387" fill="#A1A1A1"/>
<rect x="5.33203" y="100.775" width="5.30387" height="5.33334" transform="rotate(-90 5.33203 100.775)" fill="#A1A1A1"/>
<rect y="100.775" width="5.30387" height="5.33334" transform="rotate(-90 0 100.775)" fill="#A1A1A1"/>
<rect x="261.332" y="100.775" width="5.30387" height="5.33334" transform="rotate(-90 261.332 100.775)" fill="#A1A1A1"/>
<rect x="170.668" y="259.892" width="5.33334" height="5.30387" fill="#A1A1A1"/>
<rect x="234.668" y="5.30664" width="5.33334" height="5.30387" fill="#A1A1A1"/>
<rect x="5.33203" y="37.1268" width="5.30387" height="5.33334" transform="rotate(-90 5.33203 37.1268)" fill="#A1A1A1"/>
<rect y="37.1268" width="5.30387" height="5.33334" transform="rotate(-90 0 37.1268)" fill="#A1A1A1"/>
<rect x="261.332" y="37.1268" width="5.30387" height="5.33334" transform="rotate(-90 261.332 37.1268)" fill="#A1A1A1"/>
<rect x="234.668" y="259.892" width="5.33334" height="5.30387" fill="#A1A1A1"/>
<rect x="42.668" y="10.6094" width="5.33334" height="5.30387" fill="#A1A1A1"/>
<rect x="10.668" y="228.068" width="5.30387" height="5.33334" transform="rotate(-90 10.668 228.068)" fill="#A1A1A1"/>
<rect x="266.668" y="228.068" width="5.30387" height="5.33334" transform="rotate(-90 266.668 228.068)" fill="#A1A1A1"/>
<rect x="42.668" y="265.195" width="5.33334" height="5.30387" fill="#A1A1A1"/>
<rect x="106.664" y="10.6094" width="5.33334" height="5.30387" fill="#A1A1A1"/>
<rect x="10.668" y="164.419" width="5.30387" height="5.33334" transform="rotate(-90 10.668 164.419)" fill="#A1A1A1"/>
<rect x="266.668" y="164.419" width="5.30387" height="5.33334" transform="rotate(-90 266.668 164.419)" fill="#A1A1A1"/>
<rect x="106.664" y="265.195" width="5.33334" height="5.30387" fill="#A1A1A1"/>
<rect x="192" y="10.6094" width="5.33334" height="5.30387" fill="#A1A1A1"/>
<rect x="10.668" y="79.5603" width="5.30387" height="5.33334" transform="rotate(-90 10.668 79.5603)" fill="#A1A1A1"/>
<rect x="266.668" y="79.5603" width="5.30387" height="5.33334" transform="rotate(-90 266.668 79.5603)" fill="#A1A1A1"/>
<rect x="192" y="265.195" width="5.33334" height="5.30387" fill="#A1A1A1"/>
<rect x="64" y="10.6094" width="5.33334" height="5.30387" fill="#A1A1A1"/>
<rect x="10.668" y="206.853" width="5.30387" height="5.33334" transform="rotate(-90 10.668 206.853)" fill="#A1A1A1"/>
<rect x="266.668" y="206.853" width="5.30387" height="5.33334" transform="rotate(-90 266.668 206.853)" fill="#A1A1A1"/>
<rect x="64" y="265.195" width="5.33334" height="5.30387" fill="#A1A1A1"/>
<rect x="213.336" y="10.6094" width="5.33334" height="5.30387" fill="#A1A1A1"/>
<rect x="10.668" y="58.3455" width="5.30387" height="5.33334" transform="rotate(-90 10.668 58.3455)" fill="#A1A1A1"/>
<rect x="266.668" y="58.3455" width="5.30387" height="5.33334" transform="rotate(-90 266.668 58.3455)" fill="#A1A1A1"/>
<rect x="213.336" y="265.195" width="5.33334" height="5.30387" fill="#A1A1A1"/>
<rect x="85.332" y="10.6094" width="5.33334" height="5.30387" fill="#A1A1A1"/>
<rect x="10.668" y="185.638" width="5.30387" height="5.33334" transform="rotate(-90 10.668 185.638)" fill="#A1A1A1"/>
<rect x="266.668" y="185.638" width="5.30387" height="5.33334" transform="rotate(-90 266.668 185.638)" fill="#A1A1A1"/>
<rect x="85.332" y="265.195" width="5.33334" height="5.30387" fill="#A1A1A1"/>
<rect x="170.668" y="10.6094" width="5.33334" height="5.30387" fill="#A1A1A1"/>
<rect x="10.668" y="100.775" width="5.30387" height="5.33334" transform="rotate(-90 10.668 100.775)" fill="#A1A1A1"/>
<rect x="266.668" y="100.775" width="5.30387" height="5.33334" transform="rotate(-90 266.668 100.775)" fill="#A1A1A1"/>
<rect x="170.668" y="265.195" width="5.33334" height="5.30387" fill="#A1A1A1"/>
<rect x="234.668" y="10.6094" width="5.33334" height="5.30387" fill="#A1A1A1"/>
<rect x="10.668" y="37.1268" width="5.30387" height="5.33334" transform="rotate(-90 10.668 37.1268)" fill="#A1A1A1"/>
<rect x="266.668" y="37.1268" width="5.30387" height="5.33334" transform="rotate(-90 266.668 37.1268)" fill="#A1A1A1"/>
<rect x="234.668" y="265.195" width="5.33334" height="5.30387" fill="#A1A1A1"/>
<rect x="37.332" y="10.6094" width="5.33334" height="5.30387" fill="#A1A1A1"/>
<rect x="10.668" y="233.37" width="5.30387" height="5.33334" transform="rotate(-90 10.668 233.37)" fill="#A1A1A1"/>
<rect x="266.668" y="233.37" width="5.30387" height="5.33334" transform="rotate(-90 266.668 233.37)" fill="#A1A1A1"/>
<rect x="37.332" y="265.195" width="5.33334" height="5.30387" fill="#A1A1A1"/>
<rect x="101.332" y="10.6094" width="5.33334" height="5.30387" fill="#A1A1A1"/>
<rect x="10.668" y="169.726" width="5.30387" height="5.33334" transform="rotate(-90 10.668 169.726)" fill="#A1A1A1"/>
<rect x="266.668" y="169.726" width="5.30387" height="5.33334" transform="rotate(-90 266.668 169.726)" fill="#A1A1A1"/>
<rect x="101.332" y="265.195" width="5.33334" height="5.30387" fill="#A1A1A1"/>
<rect x="186.668" y="10.6094" width="5.33334" height="5.30387" fill="#A1A1A1"/>
<rect x="10.668" y="84.863" width="5.30387" height="5.33334" transform="rotate(-90 10.668 84.863)" fill="#A1A1A1"/>
<rect x="266.668" y="84.863" width="5.30387" height="5.33334" transform="rotate(-90 266.668 84.863)" fill="#A1A1A1"/>
<rect x="186.668" y="265.195" width="5.33334" height="5.30387" fill="#A1A1A1"/>
<rect x="58.6641" y="10.6094" width="5.33334" height="5.30387" fill="#A1A1A1"/>
<rect x="10.668" y="212.156" width="5.30387" height="5.33334" transform="rotate(-90 10.668 212.156)" fill="#A1A1A1"/>
<rect x="266.668" y="212.156" width="5.30387" height="5.33334" transform="rotate(-90 266.668 212.156)" fill="#A1A1A1"/>
<rect x="58.6641" y="265.195" width="5.33334" height="5.30387" fill="#A1A1A1"/>
<rect x="208" y="10.6094" width="5.33334" height="5.30387" fill="#A1A1A1"/>
<rect x="10.668" y="63.6483" width="5.30387" height="5.33334" transform="rotate(-90 10.668 63.6483)" fill="#A1A1A1"/>
<rect x="266.668" y="63.6483" width="5.30387" height="5.33334" transform="rotate(-90 266.668 63.6483)" fill="#A1A1A1"/>
<rect x="208" y="265.195" width="5.33334" height="5.30387" fill="#A1A1A1"/>
<rect x="80" y="10.6094" width="5.33334" height="5.30387" fill="#A1A1A1"/>
<rect x="10.668" y="190.941" width="5.30387" height="5.33334" transform="rotate(-90 10.668 190.941)" fill="#A1A1A1"/>
<rect x="266.668" y="190.941" width="5.30387" height="5.33334" transform="rotate(-90 266.668 190.941)" fill="#A1A1A1"/>
<rect x="80" y="265.195" width="5.33334" height="5.30387" fill="#A1A1A1"/>
<rect x="165.332" y="10.6094" width="5.33334" height="5.30387" fill="#A1A1A1"/>
<rect x="10.668" y="106.078" width="5.30387" height="5.33334" transform="rotate(-90 10.668 106.078)" fill="#A1A1A1"/>
<rect x="266.668" y="106.078" width="5.30387" height="5.33334" transform="rotate(-90 266.668 106.078)" fill="#A1A1A1"/>
<rect x="165.332" y="265.195" width="5.33334" height="5.30387" fill="#A1A1A1"/>
<rect x="37.332" y="15.912" width="5.33334" height="5.30387" fill="#A1A1A1"/>
<rect x="256" y="37.1268" width="5.30387" height="5.33334" transform="rotate(90 256 37.1268)" fill="#A1A1A1"/>
<rect x="16" y="233.37" width="5.30387" height="5.33334" transform="rotate(-90 16 233.37)" fill="#A1A1A1"/>
<rect x="234.668" y="254.585" width="5.33334" height="5.30387" transform="rotate(180 234.668 254.585)" fill="#A1A1A1"/>
<rect x="37.332" y="21.2187" width="5.33334" height="5.30387" fill="#A1A1A1"/>
<rect x="250.668" y="37.1268" width="5.30387" height="5.33334" transform="rotate(90 250.668 37.1268)" fill="#A1A1A1"/>
<rect x="21.332" y="233.37" width="5.30387" height="5.33334" transform="rotate(-90 21.332 233.37)" fill="#A1A1A1"/>
<rect x="234.668" y="249.282" width="5.33334" height="5.30387" transform="rotate(180 234.668 249.282)" fill="#A1A1A1"/>
<rect x="37.332" y="26.5214" width="5.33334" height="5.30387" fill="#A1A1A1"/>
<rect x="245.332" y="37.1268" width="5.30387" height="5.33334" transform="rotate(90 245.332 37.1268)" fill="#A1A1A1"/>
<rect x="26.668" y="233.37" width="5.30387" height="5.33334" transform="rotate(-90 26.668 233.37)" fill="#A1A1A1"/>
<rect x="234.668" y="243.98" width="5.33334" height="5.30387" transform="rotate(180 234.668 243.98)" fill="#A1A1A1"/>
<rect x="37.332" y="31.8241" width="5.33334" height="5.30387" fill="#A1A1A1"/>
<rect x="240" y="37.1268" width="5.30387" height="5.33334" transform="rotate(90 240 37.1268)" fill="#A1A1A1"/>
<rect x="32" y="233.37" width="5.30387" height="5.33334" transform="rotate(-90 32 233.37)" fill="#A1A1A1"/>
<rect x="234.668" y="238.673" width="5.33334" height="5.30387" transform="rotate(180 234.668 238.673)" fill="#A1A1A1"/>
<rect x="37.332" y="37.1268" width="5.33334" height="5.30387" fill="#A1A1A1"/>
<rect x="234.668" y="37.1268" width="5.30387" height="5.33334" transform="rotate(90 234.668 37.1268)" fill="#A1A1A1"/>
<rect x="37.332" y="233.37" width="5.30387" height="5.33334" transform="rotate(-90 37.332 233.37)" fill="#A1A1A1"/>
<rect x="234.668" y="233.37" width="5.33334" height="5.30387" transform="rotate(180 234.668 233.37)" fill="#A1A1A1"/>
<rect x="32" y="37.1268" width="5.33334" height="5.30387" fill="#A1A1A1"/>
<rect x="234.668" y="31.8241" width="5.30387" height="5.33334" transform="rotate(90 234.668 31.8241)" fill="#A1A1A1"/>
<rect x="37.332" y="238.673" width="5.30387" height="5.33334" transform="rotate(-90 37.332 238.673)" fill="#A1A1A1"/>
<rect x="240" y="233.37" width="5.33334" height="5.30387" transform="rotate(180 240 233.37)" fill="#A1A1A1"/>
<rect x="26.668" y="37.1268" width="5.33334" height="5.30387" fill="#A1A1A1"/>
<rect x="234.668" y="26.5214" width="5.30387" height="5.33334" transform="rotate(90 234.668 26.5214)" fill="#A1A1A1"/>
<rect x="37.332" y="243.98" width="5.30387" height="5.33334" transform="rotate(-90 37.332 243.98)" fill="#A1A1A1"/>
<rect x="245.332" y="233.37" width="5.33334" height="5.30387" transform="rotate(180 245.332 233.37)" fill="#A1A1A1"/>
<rect x="21.332" y="37.1268" width="5.33334" height="5.30387" fill="#A1A1A1"/>
<rect x="234.668" y="21.2187" width="5.30387" height="5.33334" transform="rotate(90 234.668 21.2187)" fill="#A1A1A1"/>
<rect x="37.332" y="249.282" width="5.30387" height="5.33334" transform="rotate(-90 37.332 249.282)" fill="#A1A1A1"/>
<rect x="250.668" y="233.37" width="5.33334" height="5.30387" transform="rotate(180 250.668 233.37)" fill="#A1A1A1"/>
<rect x="16" y="37.1268" width="5.33334" height="5.30387" fill="#A1A1A1"/>
<rect x="234.668" y="15.912" width="5.30387" height="5.33334" transform="rotate(90 234.668 15.912)" fill="#A1A1A1"/>
<rect x="37.332" y="254.585" width="5.30387" height="5.33334" transform="rotate(-90 37.332 254.585)" fill="#A1A1A1"/>
<rect x="256" y="233.37" width="5.33334" height="5.30387" transform="rotate(180 256 233.37)" fill="#A1A1A1"/>
<rect x="229.332" y="10.6094" width="5.33334" height="5.30387" fill="#A1A1A1"/>
<rect x="10.668" y="42.4335" width="5.30387" height="5.33334" transform="rotate(-90 10.668 42.4335)" fill="#A1A1A1"/>
<rect x="266.668" y="42.4335" width="5.30387" height="5.33334" transform="rotate(-90 266.668 42.4335)" fill="#A1A1A1"/>
<rect x="229.332" y="265.195" width="5.33334" height="5.30387" fill="#A1A1A1"/>
<rect x="32" y="10.6094" width="5.33334" height="5.30387" fill="#A1A1A1"/>
<rect x="10.668" y="238.673" width="5.30387" height="5.33334" transform="rotate(-90 10.668 238.673)" fill="#A1A1A1"/>
<rect x="266.668" y="238.673" width="5.30387" height="5.33334" transform="rotate(-90 266.668 238.673)" fill="#A1A1A1"/>
<rect x="32" y="265.195" width="5.33334" height="5.30387" fill="#A1A1A1"/>
<rect x="96" y="10.6094" width="5.33334" height="5.30387" fill="#A1A1A1"/>
<rect x="10.668" y="175.029" width="5.30387" height="5.33334" transform="rotate(-90 10.668 175.029)" fill="#A1A1A1"/>
<rect x="266.668" y="175.029" width="5.30387" height="5.33334" transform="rotate(-90 266.668 175.029)" fill="#A1A1A1"/>
<rect x="96" y="265.195" width="5.33334" height="5.30387" fill="#A1A1A1"/>
<rect x="181.332" y="10.6094" width="5.33334" height="5.30387" fill="#A1A1A1"/>
<rect x="10.668" y="90.1658" width="5.30387" height="5.33334" transform="rotate(-90 10.668 90.1658)" fill="#A1A1A1"/>
<rect x="266.668" y="90.1658" width="5.30387" height="5.33334" transform="rotate(-90 266.668 90.1658)" fill="#A1A1A1"/>
<rect x="181.332" y="265.195" width="5.33334" height="5.30387" fill="#A1A1A1"/>
<rect x="53.332" y="10.6094" width="5.33334" height="5.30387" fill="#A1A1A1"/>
<rect x="10.668" y="217.458" width="5.30387" height="5.33334" transform="rotate(-90 10.668 217.458)" fill="#A1A1A1"/>
<rect x="266.668" y="217.458" width="5.30387" height="5.33334" transform="rotate(-90 266.668 217.458)" fill="#A1A1A1"/>
<rect x="53.332" y="265.195" width="5.33334" height="5.30387" fill="#A1A1A1"/>
<rect x="202.668" y="10.6094" width="5.33334" height="5.30387" fill="#A1A1A1"/>
<rect x="10.668" y="68.951" width="5.30387" height="5.33334" transform="rotate(-90 10.668 68.951)" fill="#A1A1A1"/>
<rect x="266.668" y="68.951" width="5.30387" height="5.33334" transform="rotate(-90 266.668 68.951)" fill="#A1A1A1"/>
<rect x="202.668" y="265.195" width="5.33334" height="5.30387" fill="#A1A1A1"/>
<rect x="74.668" y="10.6094" width="5.33334" height="5.30387" fill="#A1A1A1"/>
<rect x="10.668" y="196.244" width="5.30387" height="5.33334" transform="rotate(-90 10.668 196.244)" fill="#A1A1A1"/>
<rect x="266.668" y="196.244" width="5.30387" height="5.33334" transform="rotate(-90 266.668 196.244)" fill="#A1A1A1"/>
<rect x="74.668" y="265.195" width="5.33334" height="5.30387" fill="#A1A1A1"/>
<rect x="160" y="10.6094" width="5.33334" height="5.30387" fill="#A1A1A1"/>
<rect x="10.668" y="111.38" width="5.30387" height="5.33334" transform="rotate(-90 10.668 111.38)" fill="#A1A1A1"/>
<rect x="266.668" y="111.38" width="5.30387" height="5.33334" transform="rotate(-90 266.668 111.38)" fill="#A1A1A1"/>
<rect x="160" y="265.195" width="5.33334" height="5.30387" fill="#A1A1A1"/>
<rect x="224" y="10.6094" width="5.33334" height="5.30387" fill="#A1A1A1"/>
<rect x="10.668" y="47.7362" width="5.30387" height="5.33334" transform="rotate(-90 10.668 47.7362)" fill="#A1A1A1"/>
<rect x="266.668" y="47.7362" width="5.30387" height="5.33334" transform="rotate(-90 266.668 47.7362)" fill="#A1A1A1"/>
<rect x="224" y="265.195" width="5.33334" height="5.30387" fill="#A1A1A1"/>
<rect x="42.668" width="5.33334" height="5.30387" fill="#A1A1A1"/>
<rect x="256" y="228.068" width="5.30387" height="5.33334" transform="rotate(-90 256 228.068)" fill="#A1A1A1"/>
<rect x="42.668" y="254.585" width="5.33334" height="5.30387" fill="#A1A1A1"/>
<rect x="106.664" width="5.33334" height="5.30387" fill="#A1A1A1"/>
<rect x="256" y="164.419" width="5.30387" height="5.33334" transform="rotate(-90 256 164.419)" fill="#A1A1A1"/>
<rect x="106.664" y="254.585" width="5.33334" height="5.30387" fill="#A1A1A1"/>
<rect x="192" width="5.33334" height="5.30387" fill="#A1A1A1"/>
<rect x="256" y="79.5603" width="5.30387" height="5.33334" transform="rotate(-90 256 79.5603)" fill="#A1A1A1"/>
<rect x="192" y="254.585" width="5.33334" height="5.30387" fill="#A1A1A1"/>
<rect x="64" width="5.33334" height="5.30387" fill="#A1A1A1"/>
<rect x="256" y="206.853" width="5.30387" height="5.33334" transform="rotate(-90 256 206.853)" fill="#A1A1A1"/>
<rect x="64" y="254.585" width="5.33334" height="5.30387" fill="#A1A1A1"/>
<rect x="213.336" width="5.33334" height="5.30387" fill="#A1A1A1"/>
<rect x="256" y="58.3455" width="5.30387" height="5.33334" transform="rotate(-90 256 58.3455)" fill="#A1A1A1"/>
<rect x="213.336" y="254.585" width="5.33334" height="5.30387" fill="#A1A1A1"/>
<rect x="85.332" width="5.33334" height="5.30387" fill="#A1A1A1"/>
<rect x="256" y="185.638" width="5.30387" height="5.33334" transform="rotate(-90 256 185.638)" fill="#A1A1A1"/>
<rect x="85.332" y="254.585" width="5.33334" height="5.30387" fill="#A1A1A1"/>
<rect x="170.668" width="5.33334" height="5.30387" fill="#A1A1A1"/>
<rect x="256" y="100.775" width="5.30387" height="5.33334" transform="rotate(-90 256 100.775)" fill="#A1A1A1"/>
<rect x="170.668" y="254.585" width="5.33334" height="5.30387" fill="#A1A1A1"/>
<rect x="234.668" width="5.33334" height="5.30387" fill="#A1A1A1"/>
<rect x="256" y="37.1268" width="5.30387" height="5.33334" transform="rotate(-90 256 37.1268)" fill="#A1A1A1"/>
<rect x="234.668" y="254.585" width="5.33334" height="5.30387" fill="#A1A1A1"/>
<rect x="32" y="5.30664" width="5.33334" height="5.30387" fill="#A1A1A1"/>
<rect x="5.33203" y="238.673" width="5.30387" height="5.33334" transform="rotate(-90 5.33203 238.673)" fill="#A1A1A1"/>
<rect y="238.673" width="5.30387" height="5.33334" transform="rotate(-90 0 238.673)" fill="#A1A1A1"/>
<rect x="261.332" y="238.673" width="5.30387" height="5.33334" transform="rotate(-90 261.332 238.673)" fill="#A1A1A1"/>
<rect x="32" y="259.892" width="5.33334" height="5.30387" fill="#A1A1A1"/>
<rect x="96" y="5.30664" width="5.33334" height="5.30387" fill="#A1A1A1"/>
<rect x="5.33203" y="175.029" width="5.30387" height="5.33334" transform="rotate(-90 5.33203 175.029)" fill="#A1A1A1"/>
<rect y="175.029" width="5.30387" height="5.33334" transform="rotate(-90 0 175.029)" fill="#A1A1A1"/>
<rect x="261.332" y="175.029" width="5.30387" height="5.33334" transform="rotate(-90 261.332 175.029)" fill="#A1A1A1"/>
<rect x="96" y="259.892" width="5.33334" height="5.30387" fill="#A1A1A1"/>
<rect x="181.332" y="5.30664" width="5.33334" height="5.30387" fill="#A1A1A1"/>
<rect x="5.33203" y="90.1658" width="5.30387" height="5.33334" transform="rotate(-90 5.33203 90.1658)" fill="#A1A1A1"/>
<rect y="90.1658" width="5.30387" height="5.33334" transform="rotate(-90 0 90.1658)" fill="#A1A1A1"/>
<rect x="261.332" y="90.1658" width="5.30387" height="5.33334" transform="rotate(-90 261.332 90.1658)" fill="#A1A1A1"/>
<rect x="181.332" y="259.892" width="5.33334" height="5.30387" fill="#A1A1A1"/>
<rect x="53.332" y="5.30664" width="5.33334" height="5.30387" fill="#A1A1A1"/>
<rect x="5.33203" y="217.458" width="5.30387" height="5.33334" transform="rotate(-90 5.33203 217.458)" fill="#A1A1A1"/>
<rect y="217.458" width="5.30387" height="5.33334" transform="rotate(-90 0 217.458)" fill="#A1A1A1"/>
<rect x="261.332" y="217.458" width="5.30387" height="5.33334" transform="rotate(-90 261.332 217.458)" fill="#A1A1A1"/>
<rect x="53.332" y="259.892" width="5.33334" height="5.30387" fill="#A1A1A1"/>
<rect x="202.668" y="5.30664" width="5.33334" height="5.30387" fill="#A1A1A1"/>
<rect x="5.33203" y="68.951" width="5.30387" height="5.33334" transform="rotate(-90 5.33203 68.951)" fill="#A1A1A1"/>
<rect y="68.951" width="5.30387" height="5.33334" transform="rotate(-90 0 68.951)" fill="#A1A1A1"/>
<rect x="261.332" y="68.951" width="5.30387" height="5.33334" transform="rotate(-90 261.332 68.951)" fill="#A1A1A1"/>
<rect x="202.668" y="259.892" width="5.33334" height="5.30387" fill="#A1A1A1"/>
<rect x="74.668" y="5.30664" width="5.33334" height="5.30387" fill="#A1A1A1"/>
<rect x="5.33203" y="196.244" width="5.30387" height="5.33334" transform="rotate(-90 5.33203 196.244)" fill="#A1A1A1"/>
<rect y="196.244" width="5.30387" height="5.33334" transform="rotate(-90 0 196.244)" fill="#A1A1A1"/>
<rect x="261.332" y="196.244" width="5.30387" height="5.33334" transform="rotate(-90 261.332 196.244)" fill="#A1A1A1"/>
<rect x="74.668" y="259.892" width="5.33334" height="5.30387" fill="#A1A1A1"/>
<rect x="160" y="5.30664" width="5.33334" height="5.30387" fill="#A1A1A1"/>
<rect x="5.33203" y="111.38" width="5.30387" height="5.33334" transform="rotate(-90 5.33203 111.38)" fill="#A1A1A1"/>
<rect y="111.38" width="5.30387" height="5.33334" transform="rotate(-90 0 111.38)" fill="#A1A1A1"/>
<rect x="261.332" y="111.38" width="5.30387" height="5.33334" transform="rotate(-90 261.332 111.38)" fill="#A1A1A1"/>
<rect x="160" y="259.892" width="5.33334" height="5.30387" fill="#A1A1A1"/>
<rect x="224" y="5.30664" width="5.33334" height="5.30387" fill="#A1A1A1"/>
<rect x="5.33203" y="47.7362" width="5.30387" height="5.33334" transform="rotate(-90 5.33203 47.7362)" fill="#A1A1A1"/>
<rect y="47.7362" width="5.30387" height="5.33334" transform="rotate(-90 0 47.7362)" fill="#A1A1A1"/>
<rect x="261.332" y="47.7362" width="5.30387" height="5.33334" transform="rotate(-90 261.332 47.7362)" fill="#A1A1A1"/>
<rect x="224" y="259.892" width="5.33334" height="5.30387" fill="#A1A1A1"/>
<rect x="154.668" y="159.117" width="5.33334" height="5.30387" transform="rotate(180 154.668 159.117)" fill="#A1A1A1"/>
<rect x="160" y="159.117" width="5.33334" height="5.30387" transform="rotate(180 160 159.117)" fill="#A1A1A1"/>
<rect x="160" y="153.814" width="5.33334" height="5.30387" transform="rotate(180 160 153.814)" fill="#A1A1A1"/>
<rect x="160" y="121.99" width="5.33334" height="5.30387" transform="rotate(180 160 121.99)" fill="#A1A1A1"/>
<rect x="160" y="116.687" width="5.33334" height="5.30387" transform="rotate(180 160 116.687)" fill="#A1A1A1"/>
<rect x="154.668" y="116.687" width="5.33334" height="5.30387" transform="rotate(180 154.668 116.687)" fill="#A1A1A1"/>
<rect x="149.332" y="116.687" width="5.33334" height="5.30387" transform="rotate(180 149.332 116.687)" fill="#A1A1A1"/>
<rect x="122.664" y="116.687" width="5.33334" height="5.30387" transform="rotate(180 122.664 116.687)" fill="#A1A1A1"/>
<rect x="117.332" y="116.687" width="5.33334" height="5.30387" transform="rotate(180 117.332 116.687)" fill="#A1A1A1"/>
<rect x="128" y="127.293" width="5.33334" height="5.30387" transform="rotate(180 128 127.293)" fill="#A1A1A1"/>
<rect x="133.336" y="132.599" width="5.33334" height="5.30387" transform="rotate(180 133.336 132.599)" fill="#A1A1A1"/>
<rect x="138.668" y="137.902" width="5.33334" height="5.30387" transform="rotate(180 138.668 137.902)" fill="#A1A1A1"/>
<rect x="144" y="132.599" width="5.33334" height="5.30387" transform="rotate(180 144 132.599)" fill="#A1A1A1"/>
<rect x="149.332" y="127.293" width="5.33334" height="5.30387" transform="rotate(180 149.332 127.293)" fill="#A1A1A1"/>
<rect x="133.336" y="143.205" width="5.33334" height="5.30387" transform="rotate(180 133.336 143.205)" fill="#A1A1A1"/>
<rect x="128" y="148.511" width="5.33334" height="5.30387" transform="rotate(180 128 148.511)" fill="#A1A1A1"/>
<rect x="144" y="143.205" width="5.33334" height="5.30387" transform="rotate(180 144 143.205)" fill="#A1A1A1"/>
<rect x="149.332" y="148.511" width="5.33334" height="5.30387" transform="rotate(180 149.332 148.511)" fill="#A1A1A1"/>
<rect x="117.332" y="153.814" width="5.33334" height="5.30387" transform="rotate(180 117.332 153.814)" fill="#A1A1A1"/>
<rect x="117.332" y="148.511" width="5.33334" height="5.30387" transform="rotate(180 117.332 148.511)" fill="#A1A1A1"/>
<rect x="117.332" y="143.205" width="5.33334" height="5.30387" transform="rotate(180 117.332 143.205)" fill="#A1A1A1"/>
<rect x="117.332" y="132.599" width="5.33334" height="5.30387" transform="rotate(180 117.332 132.599)" fill="#A1A1A1"/>
<rect x="117.332" y="127.293" width="5.33334" height="5.30387" transform="rotate(180 117.332 127.293)" fill="#A1A1A1"/>
<rect x="117.332" y="121.99" width="5.33334" height="5.30387" transform="rotate(180 117.332 121.99)" fill="#A1A1A1"/>
<rect x="128" y="159.117" width="5.33334" height="5.30387" transform="rotate(180 128 159.117)" fill="#A1A1A1"/>
<rect x="133.336" y="159.117" width="5.33334" height="5.30387" transform="rotate(180 133.336 159.117)" fill="#A1A1A1"/>
<rect x="144" y="159.117" width="5.33334" height="5.30387" transform="rotate(180 144 159.117)" fill="#A1A1A1"/>
<rect x="149.332" y="159.117" width="5.33334" height="5.30387" transform="rotate(180 149.332 159.117)" fill="#A1A1A1"/>
<rect x="160" y="148.511" width="5.33334" height="5.30387" transform="rotate(180 160 148.511)" fill="#A1A1A1"/>
<rect x="160" y="143.205" width="5.33334" height="5.30387" transform="rotate(180 160 143.205)" fill="#A1A1A1"/>
<rect x="160" y="132.599" width="5.33334" height="5.30387" transform="rotate(180 160 132.599)" fill="#A1A1A1"/>
<rect x="160" y="127.293" width="5.33334" height="5.30387" transform="rotate(180 160 127.293)" fill="#A1A1A1"/>
<rect x="128" y="116.687" width="5.33334" height="5.30387" transform="rotate(180 128 116.687)" fill="#A1A1A1"/>
<rect x="133.336" y="116.687" width="5.33334" height="5.30387" transform="rotate(180 133.336 116.687)" fill="#A1A1A1"/>
<rect x="144" y="116.687" width="5.33334" height="5.30387" transform="rotate(180 144 116.687)" fill="#A1A1A1"/>
<rect x="117.332" y="159.117" width="5.33334" height="5.30387" transform="rotate(180 117.332 159.117)" fill="#A1A1A1"/>
<rect x="122.664" y="159.117" width="5.33334" height="5.30387" transform="rotate(180 122.664 159.117)" fill="#A1A1A1"/>
<rect x="138.668" y="180.331" width="5.33334" height="5.30387" transform="rotate(180 138.668 180.331)" fill="#008CFF"/>
<rect x="138.668" y="42.4335" width="5.33334" height="5.30387" transform="rotate(180 138.668 42.4335)" fill="#008CFF"/>
<rect x="128" y="42.4335" width="5.33334" height="5.30387" transform="rotate(180 128 42.4335)" fill="#008CFF"/>
<rect x="149.332" y="42.4335" width="5.33334" height="5.30387" transform="rotate(180 149.332 42.4335)" fill="#008CFF"/>
<rect x="149.332" y="185.638" width="5.33334" height="5.30387" transform="rotate(180 149.332 185.638)" fill="#008CFF"/>
<rect x="128" y="185.638" width="5.33334" height="5.30387" transform="rotate(180 128 185.638)" fill="#008CFF"/>
<rect x="149.332" y="164.419" width="5.33334" height="5.30387" transform="rotate(180 149.332 164.419)" fill="#008CFF"/>
<rect x="128" y="164.419" width="5.33334" height="5.30387" transform="rotate(180 128 164.419)" fill="#008CFF"/>
<rect x="138.668" y="201.55" width="5.33334" height="5.30387" transform="rotate(180 138.668 201.55)" fill="#008CFF"/>
<rect x="138.668" y="63.6483" width="5.33334" height="5.30387" transform="rotate(180 138.668 63.6483)" fill="#008CFF"/>
<rect x="128" y="63.6483" width="5.33334" height="5.30387" transform="rotate(180 128 63.6483)" fill="#008CFF"/>
<rect x="149.332" y="63.6483" width="5.33334" height="5.30387" transform="rotate(180 149.332 63.6483)" fill="#008CFF"/>
<rect x="149.332" y="206.853" width="5.33334" height="5.30387" transform="rotate(180 149.332 206.853)" fill="#008CFF"/>
<rect x="128" y="206.853" width="5.33334" height="5.30387" transform="rotate(180 128 206.853)" fill="#008CFF"/>
<rect x="138.668" y="222.765" width="5.33334" height="5.30387" transform="rotate(180 138.668 222.765)" fill="#008CFF"/>
<rect x="138.668" y="84.863" width="5.33334" height="5.30387" transform="rotate(180 138.668 84.863)" fill="#008CFF"/>
<rect x="128" y="84.863" width="5.33334" height="5.30387" transform="rotate(180 128 84.863)" fill="#008CFF"/>
<rect x="149.332" y="84.863" width="5.33334" height="5.30387" transform="rotate(180 149.332 84.863)" fill="#008CFF"/>
<rect x="149.332" y="228.068" width="5.33334" height="5.30387" transform="rotate(180 149.332 228.068)" fill="#008CFF"/>
<rect x="128" y="228.068" width="5.33334" height="5.30387" transform="rotate(180 128 228.068)" fill="#008CFF"/>
<rect x="138.668" y="243.98" width="5.33334" height="5.30387" transform="rotate(180 138.668 243.98)" fill="#008CFF"/>
<rect x="138.668" y="106.078" width="5.33334" height="5.30387" transform="rotate(180 138.668 106.078)" fill="#008CFF"/>
<rect x="128" y="106.078" width="5.33334" height="5.30387" transform="rotate(180 128 106.078)" fill="#008CFF"/>
<rect x="149.332" y="106.078" width="5.33334" height="5.30387" transform="rotate(180 149.332 106.078)" fill="#008CFF"/>
<rect x="149.332" y="249.282" width="5.33334" height="5.30387" transform="rotate(180 149.332 249.282)" fill="#008CFF"/>
<rect x="128" y="249.282" width="5.33334" height="5.30387" transform="rotate(180 128 249.282)" fill="#008CFF"/>
<rect x="128" y="254.585" width="5.33334" height="5.30387" transform="rotate(180 128 254.585)" fill="#008CFF"/>
<rect x="138.668" y="254.585" width="5.33334" height="5.30387" transform="rotate(180 138.668 254.585)" fill="#008CFF"/>
<rect x="149.332" y="254.585" width="5.33334" height="5.30387" transform="rotate(180 149.332 254.585)" fill="#008CFF"/>
<rect x="138.668" y="175.029" width="5.33334" height="5.30387" transform="rotate(180 138.668 175.029)" fill="#008CFF"/>
<rect x="138.668" y="37.1268" width="5.33334" height="5.30387" transform="rotate(180 138.668 37.1268)" fill="#008CFF"/>
<rect x="128" y="37.1268" width="5.33334" height="5.30387" transform="rotate(180 128 37.1268)" fill="#008CFF"/>
<rect x="149.332" y="37.1268" width="5.33334" height="5.30387" transform="rotate(180 149.332 37.1268)" fill="#008CFF"/>
<rect x="149.332" y="180.331" width="5.33334" height="5.30387" transform="rotate(180 149.332 180.331)" fill="#008CFF"/>
<rect x="128" y="180.331" width="5.33334" height="5.30387" transform="rotate(180 128 180.331)" fill="#008CFF"/>
<rect x="138.668" y="196.244" width="5.33334" height="5.30387" transform="rotate(180 138.668 196.244)" fill="#008CFF"/>
<rect x="138.668" y="58.3455" width="5.33334" height="5.30387" transform="rotate(180 138.668 58.3455)" fill="#008CFF"/>
<rect x="128" y="58.3455" width="5.33334" height="5.30387" transform="rotate(180 128 58.3455)" fill="#008CFF"/>
<rect x="149.332" y="58.3455" width="5.33334" height="5.30387" transform="rotate(180 149.332 58.3455)" fill="#008CFF"/>
<rect x="149.332" y="201.55" width="5.33334" height="5.30387" transform="rotate(180 149.332 201.55)" fill="#008CFF"/>
<rect x="128" y="201.55" width="5.33334" height="5.30387" transform="rotate(180 128 201.55)" fill="#008CFF"/>
<rect x="138.668" y="217.458" width="5.33334" height="5.30387" transform="rotate(180 138.668 217.458)" fill="#008CFF"/>
<rect x="138.668" y="79.5603" width="5.33334" height="5.30387" transform="rotate(180 138.668 79.5603)" fill="#008CFF"/>
<rect x="128" y="79.5603" width="5.33334" height="5.30387" transform="rotate(180 128 79.5603)" fill="#008CFF"/>
<rect x="149.332" y="79.5603" width="5.33334" height="5.30387" transform="rotate(180 149.332 79.5603)" fill="#008CFF"/>
<rect x="149.332" y="222.765" width="5.33334" height="5.30387" transform="rotate(180 149.332 222.765)" fill="#008CFF"/>
<rect x="128" y="222.765" width="5.33334" height="5.30387" transform="rotate(180 128 222.765)" fill="#008CFF"/>
<rect x="138.668" y="238.673" width="5.33334" height="5.30387" transform="rotate(180 138.668 238.673)" fill="#008CFF"/>
<rect x="138.668" y="100.775" width="5.33334" height="5.30387" transform="rotate(180 138.668 100.775)" fill="#008CFF"/>
<rect x="128" y="100.775" width="5.33334" height="5.30387" transform="rotate(180 128 100.775)" fill="#008CFF"/>
<rect x="149.332" y="100.775" width="5.33334" height="5.30387" transform="rotate(180 149.332 100.775)" fill="#008CFF"/>
<rect x="149.332" y="243.98" width="5.33334" height="5.30387" transform="rotate(180 149.332 243.98)" fill="#008CFF"/>
<rect x="128" y="243.98" width="5.33334" height="5.30387" transform="rotate(180 128 243.98)" fill="#008CFF"/>
<rect x="138.668" y="185.638" width="5.33334" height="5.30387" transform="rotate(180 138.668 185.638)" fill="#008CFF"/>
<rect x="138.668" y="47.7362" width="5.33334" height="5.30387" transform="rotate(180 138.668 47.7362)" fill="#008CFF"/>
<rect x="128" y="47.7362" width="5.33334" height="5.30387" transform="rotate(180 128 47.7362)" fill="#008CFF"/>
<rect x="149.332" y="47.7362" width="5.33334" height="5.30387" transform="rotate(180 149.332 47.7362)" fill="#008CFF"/>
<rect x="149.332" y="190.941" width="5.33334" height="5.30387" transform="rotate(180 149.332 190.941)" fill="#008CFF"/>
<rect x="128" y="190.941" width="5.33334" height="5.30387" transform="rotate(180 128 190.941)" fill="#008CFF"/>
<rect x="138.668" y="206.853" width="5.33334" height="5.30387" transform="rotate(180 138.668 206.853)" fill="#008CFF"/>
<rect x="138.668" y="68.951" width="5.33334" height="5.30387" transform="rotate(180 138.668 68.951)" fill="#008CFF"/>
<rect x="128" y="68.951" width="5.33334" height="5.30387" transform="rotate(180 128 68.951)" fill="#008CFF"/>
<rect x="149.332" y="68.951" width="5.33334" height="5.30387" transform="rotate(180 149.332 68.951)" fill="#008CFF"/>
<rect x="149.332" y="212.156" width="5.33334" height="5.30387" transform="rotate(180 149.332 212.156)" fill="#008CFF"/>
<rect x="128" y="212.156" width="5.33334" height="5.30387" transform="rotate(180 128 212.156)" fill="#008CFF"/>
<rect x="138.668" y="228.068" width="5.33334" height="5.30387" transform="rotate(180 138.668 228.068)" fill="#008CFF"/>
<rect x="138.668" y="90.1658" width="5.33334" height="5.30387" transform="rotate(180 138.668 90.1658)" fill="#008CFF"/>
<rect x="128" y="90.1658" width="5.33334" height="5.30387" transform="rotate(180 128 90.1658)" fill="#008CFF"/>
<rect x="149.332" y="90.1658" width="5.33334" height="5.30387" transform="rotate(180 149.332 90.1658)" fill="#008CFF"/>
<rect x="149.332" y="233.37" width="5.33334" height="5.30387" transform="rotate(180 149.332 233.37)" fill="#008CFF"/>
<rect x="128" y="233.37" width="5.33334" height="5.30387" transform="rotate(180 128 233.37)" fill="#008CFF"/>
<rect x="138.668" y="249.282" width="5.33334" height="5.30387" transform="rotate(180 138.668 249.282)" fill="#008CFF"/>
<rect x="138.668" y="111.38" width="5.33334" height="5.30387" transform="rotate(180 138.668 111.38)" fill="#008CFF"/>
<rect x="128" y="111.38" width="5.33334" height="5.30387" transform="rotate(180 128 111.38)" fill="#008CFF"/>
<rect x="149.332" y="111.38" width="5.33334" height="5.30387" transform="rotate(180 149.332 111.38)" fill="#008CFF"/>
<rect x="138.668" y="116.687" width="5.33334" height="5.30387" transform="rotate(180 138.668 116.687)" fill="#008CFF"/>
<rect x="138.668" y="233.37" width="5.33334" height="5.30387" transform="rotate(180 138.668 233.37)" fill="#008CFF"/>
<rect x="138.668" y="95.4724" width="5.33334" height="5.30387" transform="rotate(180 138.668 95.4724)" fill="#008CFF"/>
<rect x="128" y="95.4724" width="5.33334" height="5.30387" transform="rotate(180 128 95.4724)" fill="#008CFF"/>
<rect x="149.332" y="95.4724" width="5.33334" height="5.30387" transform="rotate(180 149.332 95.4724)" fill="#008CFF"/>
<rect x="149.332" y="238.673" width="5.33334" height="5.30387" transform="rotate(180 149.332 238.673)" fill="#008CFF"/>
<rect x="128" y="238.673" width="5.33334" height="5.30387" transform="rotate(180 128 238.673)" fill="#008CFF"/>
<rect x="138.668" y="212.156" width="5.33334" height="5.30387" transform="rotate(180 138.668 212.156)" fill="#008CFF"/>
<rect x="138.668" y="74.2537" width="5.33334" height="5.30387" transform="rotate(180 138.668 74.2537)" fill="#008CFF"/>
<rect x="128" y="74.2537" width="5.33334" height="5.30387" transform="rotate(180 128 74.2537)" fill="#008CFF"/>
<rect x="149.332" y="74.2537" width="5.33334" height="5.30387" transform="rotate(180 149.332 74.2537)" fill="#008CFF"/>
<rect x="149.332" y="217.458" width="5.33334" height="5.30387" transform="rotate(180 149.332 217.458)" fill="#008CFF"/>
<rect x="128" y="217.458" width="5.33334" height="5.30387" transform="rotate(180 128 217.458)" fill="#008CFF"/>
<rect x="138.668" y="190.941" width="5.33334" height="5.30387" transform="rotate(180 138.668 190.941)" fill="#008CFF"/>
<rect x="138.668" y="53.0389" width="5.33334" height="5.30387" transform="rotate(180 138.668 53.0389)" fill="#008CFF"/>
<rect x="128" y="53.0389" width="5.33334" height="5.30387" transform="rotate(180 128 53.0389)" fill="#008CFF"/>
<rect x="149.332" y="53.0389" width="5.33334" height="5.30387" transform="rotate(180 149.332 53.0389)" fill="#008CFF"/>
<rect x="149.332" y="196.244" width="5.33334" height="5.30387" transform="rotate(180 149.332 196.244)" fill="#008CFF"/>
<rect x="128" y="196.244" width="5.33334" height="5.30387" transform="rotate(180 128 196.244)" fill="#008CFF"/>
<rect x="138.668" y="169.726" width="5.33334" height="5.30387" transform="rotate(180 138.668 169.726)" fill="#008CFF"/>
<rect x="138.668" y="31.8241" width="5.33334" height="5.30387" transform="rotate(180 138.668 31.8241)" fill="#008CFF"/>
<rect x="128" y="31.8241" width="5.33334" height="5.30387" transform="rotate(180 128 31.8241)" fill="#008CFF"/>
<rect x="149.332" y="31.8241" width="5.33334" height="5.30387" transform="rotate(180 149.332 31.8241)" fill="#008CFF"/>
<rect x="149.332" y="175.029" width="5.33334" height="5.30387" transform="rotate(180 149.332 175.029)" fill="#008CFF"/>
<rect x="128" y="175.029" width="5.33334" height="5.30387" transform="rotate(180 128 175.029)" fill="#008CFF"/>
<rect x="138.668" y="164.419" width="5.33334" height="5.30387" transform="rotate(180 138.668 164.419)" fill="#008CFF"/>
<rect x="138.668" y="26.5214" width="5.33334" height="5.30387" transform="rotate(180 138.668 26.5214)" fill="#008CFF"/>
<rect x="128" y="26.5214" width="5.33334" height="5.30387" transform="rotate(180 128 26.5214)" fill="#008CFF"/>
<rect x="149.332" y="26.5214" width="5.33334" height="5.30387" transform="rotate(180 149.332 26.5214)" fill="#008CFF"/>
<rect x="149.332" y="169.726" width="5.33334" height="5.30387" transform="rotate(180 149.332 169.726)" fill="#008CFF"/>
<rect x="128" y="169.726" width="5.33334" height="5.30387" transform="rotate(180 128 169.726)" fill="#008CFF"/>
<rect x="138.668" y="159.117" width="5.33334" height="5.30387" transform="rotate(180 138.668 159.117)" fill="#008CFF"/>
<rect x="170.668" y="137.902" width="5.30387" height="5.33334" transform="rotate(-90 170.668 137.902)" fill="#EA3434"/>
<rect x="154.668" y="137.902" width="5.30387" height="5.33334" transform="rotate(-90 154.668 137.902)" fill="#EA3434"/>
<rect x="165.332" y="127.293" width="5.30387" height="5.33334" transform="rotate(-90 165.332 127.293)" fill="#EA3434"/>
<rect x="165.332" y="148.511" width="5.30387" height="5.33334" transform="rotate(-90 165.332 148.511)" fill="#EA3434"/>
<rect x="192" y="137.902" width="5.30387" height="5.33334" transform="rotate(-90 192 137.902)" fill="#EA3434"/>
<rect x="186.668" y="127.293" width="5.30387" height="5.33334" transform="rotate(-90 186.668 127.293)" fill="#EA3434"/>
<rect x="186.668" y="148.511" width="5.30387" height="5.33334" transform="rotate(-90 186.668 148.511)" fill="#EA3434"/>
<rect x="213.336" y="137.902" width="5.30387" height="5.33334" transform="rotate(-90 213.336 137.902)" fill="#EA3434"/>
<rect x="224" y="137.902" width="5.30387" height="5.33334" transform="rotate(-90 224 137.902)" fill="#EA3434"/>
<rect x="64" y="137.902" width="5.30387" height="5.33334" transform="rotate(-90 64 137.902)" fill="#EA3434"/>
<rect x="64" y="127.293" width="5.30387" height="5.33334" transform="rotate(-90 64 127.293)" fill="#EA3434"/>
<rect x="64" y="148.511" width="5.30387" height="5.33334" transform="rotate(-90 64 148.511)" fill="#EA3434"/>
<rect x="208" y="127.293" width="5.30387" height="5.33334" transform="rotate(-90 208 127.293)" fill="#EA3434"/>
<rect x="208" y="148.511" width="5.30387" height="5.33334" transform="rotate(-90 208 148.511)" fill="#EA3434"/>
<rect x="85.332" y="137.902" width="5.30387" height="5.33334" transform="rotate(-90 85.332 137.902)" fill="#EA3434"/>
<rect x="85.332" y="127.293" width="5.30387" height="5.33334" transform="rotate(-90 85.332 127.293)" fill="#EA3434"/>
<rect x="85.332" y="148.511" width="5.30387" height="5.33334" transform="rotate(-90 85.332 148.511)" fill="#EA3434"/>
<rect x="160" y="127.293" width="5.30387" height="5.33334" transform="rotate(-90 160 127.293)" fill="#EA3434"/>
<rect x="160" y="148.511" width="5.30387" height="5.33334" transform="rotate(-90 160 148.511)" fill="#EA3434"/>
<rect x="181.332" y="127.293" width="5.30387" height="5.33334" transform="rotate(-90 181.332 127.293)" fill="#EA3434"/>
<rect x="181.332" y="148.511" width="5.30387" height="5.33334" transform="rotate(-90 181.332 148.511)" fill="#EA3434"/>
<rect x="58.6641" y="137.902" width="5.30387" height="5.33334" transform="rotate(-90 58.6641 137.902)" fill="#EA3434"/>
<rect x="58.6641" y="127.293" width="5.30387" height="5.33334" transform="rotate(-90 58.6641 127.293)" fill="#EA3434"/>
<rect x="58.6641" y="148.511" width="5.30387" height="5.33334" transform="rotate(-90 58.6641 148.511)" fill="#EA3434"/>
<rect x="202.668" y="127.293" width="5.30387" height="5.33334" transform="rotate(-90 202.668 127.293)" fill="#EA3434"/>
<rect x="202.668" y="148.511" width="5.30387" height="5.33334" transform="rotate(-90 202.668 148.511)" fill="#EA3434"/>
<rect x="80" y="137.902" width="5.30387" height="5.33334" transform="rotate(-90 80 137.902)" fill="#EA3434"/>
<rect x="80" y="127.293" width="5.30387" height="5.33334" transform="rotate(-90 80 127.293)" fill="#EA3434"/>
<rect x="80" y="148.511" width="5.30387" height="5.33334" transform="rotate(-90 80 148.511)" fill="#EA3434"/>
<rect x="101.332" y="137.902" width="5.30387" height="5.33334" transform="rotate(-90 101.332 137.902)" fill="#EA3434"/>
<rect x="101.332" y="127.293" width="5.30387" height="5.33334" transform="rotate(-90 101.332 127.293)" fill="#EA3434"/>
<rect x="101.332" y="148.511" width="5.30387" height="5.33334" transform="rotate(-90 101.332 148.511)" fill="#EA3434"/>
<rect x="106.664" y="137.902" width="5.30387" height="5.33334" transform="rotate(-90 106.664 137.902)" fill="#EA3434"/>
<rect x="106.664" y="127.293" width="5.30387" height="5.33334" transform="rotate(-90 106.664 127.293)" fill="#EA3434"/>
<rect x="106.664" y="148.511" width="5.30387" height="5.33334" transform="rotate(-90 106.664 148.511)" fill="#EA3434"/>
<rect x="112" y="137.902" width="5.30387" height="5.33334" transform="rotate(-90 112 137.902)" fill="#EA3434"/>
<rect x="181.332" y="137.902" width="5.30387" height="5.33334" transform="rotate(-90 181.332 137.902)" fill="#EA3434"/>
<rect x="186.668" y="137.902" width="5.30387" height="5.33334" transform="rotate(-90 186.668 137.902)" fill="#EA3434"/>
<rect x="208" y="137.902" width="5.30387" height="5.33334" transform="rotate(-90 208 137.902)" fill="#EA3434"/>
<rect x="165.332" y="137.902" width="5.30387" height="5.33334" transform="rotate(-90 165.332 137.902)" fill="#EA3434"/>
<rect x="176" y="127.293" width="5.30387" height="5.33334" transform="rotate(-90 176 127.293)" fill="#EA3434"/>
<rect x="176" y="148.511" width="5.30387" height="5.33334" transform="rotate(-90 176 148.511)" fill="#EA3434"/>
<rect x="202.668" y="137.902" width="5.30387" height="5.33334" transform="rotate(-90 202.668 137.902)" fill="#EA3434"/>
<rect x="53.332" y="137.902" width="5.30387" height="5.33334" transform="rotate(-90 53.332 137.902)" fill="#EA3434"/>
<rect x="53.332" y="127.293" width="5.30387" height="5.33334" transform="rotate(-90 53.332 127.293)" fill="#EA3434"/>
<rect x="53.332" y="148.511" width="5.30387" height="5.33334" transform="rotate(-90 53.332 148.511)" fill="#EA3434"/>
<rect x="197.336" y="127.293" width="5.30387" height="5.33334" transform="rotate(-90 197.336 127.293)" fill="#EA3434"/>
<rect x="197.336" y="148.511" width="5.30387" height="5.33334" transform="rotate(-90 197.336 148.511)" fill="#EA3434"/>
<rect x="74.668" y="137.902" width="5.30387" height="5.33334" transform="rotate(-90 74.668 137.902)" fill="#EA3434"/>
<rect x="74.668" y="127.293" width="5.30387" height="5.33334" transform="rotate(-90 74.668 127.293)" fill="#EA3434"/>
<rect x="74.668" y="148.511" width="5.30387" height="5.33334" transform="rotate(-90 74.668 148.511)" fill="#EA3434"/>
<rect x="218.668" y="127.293" width="5.30387" height="5.33334" transform="rotate(-90 218.668 127.293)" fill="#EA3434"/>
<rect x="229.332" y="127.293" width="5.30387" height="5.33334" transform="rotate(-90 229.332 127.293)" fill="#EA3434"/>
<rect x="218.668" y="148.511" width="5.30387" height="5.33334" transform="rotate(-90 218.668 148.511)" fill="#EA3434"/>
<rect x="229.332" y="148.511" width="5.30387" height="5.33334" transform="rotate(-90 229.332 148.511)" fill="#EA3434"/>
<rect x="96" y="137.902" width="5.30387" height="5.33334" transform="rotate(-90 96 137.902)" fill="#EA3434"/>
<rect x="96" y="127.293" width="5.30387" height="5.33334" transform="rotate(-90 96 127.293)" fill="#EA3434"/>
<rect x="96" y="148.511" width="5.30387" height="5.33334" transform="rotate(-90 96 148.511)" fill="#EA3434"/>
<rect x="176" y="137.902" width="5.30387" height="5.33334" transform="rotate(-90 176 137.902)" fill="#EA3434"/>
<rect x="160" y="137.902" width="5.30387" height="5.33334" transform="rotate(-90 160 137.902)" fill="#EA3434"/>
<rect x="170.668" y="127.293" width="5.30387" height="5.33334" transform="rotate(-90 170.668 127.293)" fill="#EA3434"/>
<rect x="170.668" y="148.511" width="5.30387" height="5.33334" transform="rotate(-90 170.668 148.511)" fill="#EA3434"/>
<rect x="197.336" y="137.902" width="5.30387" height="5.33334" transform="rotate(-90 197.336 137.902)" fill="#EA3434"/>
<rect x="192" y="127.293" width="5.30387" height="5.33334" transform="rotate(-90 192 127.293)" fill="#EA3434"/>
<rect x="192" y="148.511" width="5.30387" height="5.33334" transform="rotate(-90 192 148.511)" fill="#EA3434"/>
<rect x="218.668" y="137.902" width="5.30387" height="5.33334" transform="rotate(-90 218.668 137.902)" fill="#EA3434"/>
<rect x="229.332" y="137.902" width="5.30387" height="5.33334" transform="rotate(-90 229.332 137.902)" fill="#EA3434"/>
<rect x="69.3359" y="137.902" width="5.30387" height="5.33334" transform="rotate(-90 69.3359 137.902)" fill="#EA3434"/>
<rect x="69.3359" y="127.293" width="5.30387" height="5.33334" transform="rotate(-90 69.3359 127.293)" fill="#EA3434"/>
<rect x="69.3359" y="148.511" width="5.30387" height="5.33334" transform="rotate(-90 69.3359 148.511)" fill="#EA3434"/>
<rect x="213.336" y="127.293" width="5.30387" height="5.33334" transform="rotate(-90 213.336 127.293)" fill="#EA3434"/>
<rect x="224" y="127.293" width="5.30387" height="5.33334" transform="rotate(-90 224 127.293)" fill="#EA3434"/>
<rect x="213.336" y="148.511" width="5.30387" height="5.33334" transform="rotate(-90 213.336 148.511)" fill="#EA3434"/>
<rect x="224" y="148.511" width="5.30387" height="5.33334" transform="rotate(-90 224 148.511)" fill="#EA3434"/>
<rect x="90.668" y="137.902" width="5.30387" height="5.33334" transform="rotate(-90 90.668 137.902)" fill="#EA3434"/>
<rect x="90.668" y="127.293" width="5.30387" height="5.33334" transform="rotate(-90 90.668 127.293)" fill="#EA3434"/>
<rect x="90.668" y="148.511" width="5.30387" height="5.33334" transform="rotate(-90 90.668 148.511)" fill="#EA3434"/>
<rect x="5.33203" y="148.511" width="5.30387" height="5.33334" transform="rotate(-90 5.33203 148.511)" fill="#A1A1A1"/>
<rect y="148.511" width="5.30387" height="5.33334" transform="rotate(-90 0 148.511)" fill="#A1A1A1"/>
<rect x="5.33203" y="127.293" width="5.30387" height="5.33334" transform="rotate(-90 5.33203 127.293)" fill="#A1A1A1"/>
<rect y="127.293" width="5.30387" height="5.33334" transform="rotate(-90 0 127.293)" fill="#A1A1A1"/>
<rect x="5.33203" y="143.205" width="5.30387" height="5.33334" transform="rotate(-90 5.33203 143.205)" fill="#A1A1A1"/>
<rect y="143.205" width="5.30387" height="5.33334" transform="rotate(-90 0 143.205)" fill="#A1A1A1"/>
<rect x="5.33203" y="121.99" width="5.30387" height="5.33334" transform="rotate(-90 5.33203 121.99)" fill="#A1A1A1"/>
<rect y="121.99" width="5.30387" height="5.33334" transform="rotate(-90 0 121.99)" fill="#A1A1A1"/>
<rect x="10.668" y="143.205" width="5.30387" height="5.33334" transform="rotate(-90 10.668 143.205)" fill="#A1A1A1"/>
<rect x="10.668" y="121.99" width="5.30387" height="5.33334" transform="rotate(-90 10.668 121.99)" fill="#A1A1A1"/>
<rect x="10.668" y="148.511" width="5.30387" height="5.33334" transform="rotate(-90 10.668 148.511)" fill="#A1A1A1"/>
<rect x="10.668" y="127.293" width="5.30387" height="5.33334" transform="rotate(-90 10.668 127.293)" fill="#A1A1A1"/>
<rect x="10.668" y="153.814" width="5.30387" height="5.33334" transform="rotate(-90 10.668 153.814)" fill="#A1A1A1"/>
<rect x="10.668" y="132.599" width="5.30387" height="5.33334" transform="rotate(-90 10.668 132.599)" fill="#A1A1A1"/>
<rect x="5.33203" y="153.814" width="5.30387" height="5.33334" transform="rotate(-90 5.33203 153.814)" fill="#A1A1A1"/>
<rect y="153.814" width="5.30387" height="5.33334" transform="rotate(-90 0 153.814)" fill="#A1A1A1"/>
<rect x="5.33203" y="132.599" width="5.30387" height="5.33334" transform="rotate(-90 5.33203 132.599)" fill="#A1A1A1"/>
<rect y="132.599" width="5.30387" height="5.33334" transform="rotate(-90 0 132.599)" fill="#A1A1A1"/>
<rect x="21.332" y="137.902" width="5.30387" height="5.33334" transform="rotate(-90 21.332 137.902)" fill="#EA3434"/>
<rect x="21.332" y="127.293" width="5.30387" height="5.33334" transform="rotate(-90 21.332 127.293)" fill="#EA3434"/>
<rect x="21.332" y="148.511" width="5.30387" height="5.33334" transform="rotate(-90 21.332 148.511)" fill="#EA3434"/>
<rect x="10.668" y="137.902" width="5.30387" height="5.33334" transform="rotate(-90 10.668 137.902)" fill="#EA3434"/>
<rect x="16" y="137.902" width="5.30387" height="5.33334" transform="rotate(-90 16 137.902)" fill="#EA3434"/>
<rect x="16" y="127.293" width="5.30387" height="5.33334" transform="rotate(-90 16 127.293)" fill="#EA3434"/>
<rect x="16" y="148.511" width="5.30387" height="5.33334" transform="rotate(-90 16 148.511)" fill="#EA3434"/>
<rect x="37.332" y="137.902" width="5.30387" height="5.33334" transform="rotate(-90 37.332 137.902)" fill="#EA3434"/>
<rect x="48" y="137.902" width="5.30387" height="5.33334" transform="rotate(-90 48 137.902)" fill="#EA3434"/>
<rect x="37.332" y="127.293" width="5.30387" height="5.33334" transform="rotate(-90 37.332 127.293)" fill="#EA3434"/>
<rect x="48" y="127.293" width="5.30387" height="5.33334" transform="rotate(-90 48 127.293)" fill="#EA3434"/>
<rect x="37.332" y="148.511" width="5.30387" height="5.33334" transform="rotate(-90 37.332 148.511)" fill="#EA3434"/>
<rect x="48" y="148.511" width="5.30387" height="5.33334" transform="rotate(-90 48 148.511)" fill="#EA3434"/>
<rect x="32" y="137.902" width="5.30387" height="5.33334" transform="rotate(-90 32 137.902)" fill="#EA3434"/>
<rect x="42.668" y="137.902" width="5.30387" height="5.33334" transform="rotate(-90 42.668 137.902)" fill="#EA3434"/>
<rect x="32" y="127.293" width="5.30387" height="5.33334" transform="rotate(-90 32 127.293)" fill="#EA3434"/>
<rect x="42.668" y="127.293" width="5.30387" height="5.33334" transform="rotate(-90 42.668 127.293)" fill="#EA3434"/>
<rect x="32" y="148.511" width="5.30387" height="5.33334" transform="rotate(-90 32 148.511)" fill="#EA3434"/>
<rect x="42.668" y="148.511" width="5.30387" height="5.33334" transform="rotate(-90 42.668 148.511)" fill="#EA3434"/>
<rect x="5.33203" y="137.902" width="5.30387" height="5.33334" transform="rotate(-90 5.33203 137.902)" fill="#EA3434"/>
<rect y="137.902" width="5.30387" height="5.33334" transform="rotate(-90 0 137.902)" fill="#EA3434"/>
<rect x="26.668" y="137.902" width="5.30387" height="5.33334" transform="rotate(-90 26.668 137.902)" fill="#EA3434"/>
<rect x="26.668" y="127.293" width="5.30387" height="5.33334" transform="rotate(-90 26.668 127.293)" fill="#EA3434"/>
<rect x="26.668" y="148.511" width="5.30387" height="5.33334" transform="rotate(-90 26.668 148.511)" fill="#EA3434"/>
<rect x="256" y="153.814" width="5.30387" height="5.33334" transform="rotate(-90 256 153.814)" fill="#A1A1A1"/>
<rect x="256" y="132.599" width="5.30387" height="5.33334" transform="rotate(-90 256 132.599)" fill="#A1A1A1"/>
<rect x="256" y="148.511" width="5.30387" height="5.33334" transform="rotate(-90 256 148.511)" fill="#A1A1A1"/>
<rect x="256" y="127.293" width="5.30387" height="5.33334" transform="rotate(-90 256 127.293)" fill="#A1A1A1"/>
<rect x="261.332" y="148.511" width="5.30387" height="5.33334" transform="rotate(-90 261.332 148.511)" fill="#A1A1A1"/>
<rect x="261.332" y="127.293" width="5.30387" height="5.33334" transform="rotate(-90 261.332 127.293)" fill="#A1A1A1"/>
<rect x="261.332" y="143.205" width="5.30387" height="5.33334" transform="rotate(-90 261.332 143.205)" fill="#A1A1A1"/>
<rect x="261.332" y="121.99" width="5.30387" height="5.33334" transform="rotate(-90 261.332 121.99)" fill="#A1A1A1"/>
<rect x="266.668" y="143.205" width="5.30387" height="5.33334" transform="rotate(-90 266.668 143.205)" fill="#A1A1A1"/>
<rect x="266.668" y="121.99" width="5.30387" height="5.33334" transform="rotate(-90 266.668 121.99)" fill="#A1A1A1"/>
<rect x="266.668" y="148.511" width="5.30387" height="5.33334" transform="rotate(-90 266.668 148.511)" fill="#A1A1A1"/>
<rect x="266.668" y="127.293" width="5.30387" height="5.33334" transform="rotate(-90 266.668 127.293)" fill="#A1A1A1"/>
<rect x="266.668" y="153.814" width="5.30387" height="5.33334" transform="rotate(-90 266.668 153.814)" fill="#A1A1A1"/>
<rect x="266.668" y="132.599" width="5.30387" height="5.33334" transform="rotate(-90 266.668 132.599)" fill="#A1A1A1"/>
<rect x="256" y="143.205" width="5.30387" height="5.33334" transform="rotate(-90 256 143.205)" fill="#A1A1A1"/>
<rect x="256" y="121.99" width="5.30387" height="5.33334" transform="rotate(-90 256 121.99)" fill="#A1A1A1"/>
<rect x="261.332" y="153.814" width="5.30387" height="5.33334" transform="rotate(-90 261.332 153.814)" fill="#A1A1A1"/>
<rect x="261.332" y="132.599" width="5.30387" height="5.33334" transform="rotate(-90 261.332 132.599)" fill="#A1A1A1"/>
<rect x="234.668" y="137.902" width="5.30387" height="5.33334" transform="rotate(-90 234.668 137.902)" fill="#EA3434"/>
<rect x="256" y="137.902" width="5.30387" height="5.33334" transform="rotate(-90 256 137.902)" fill="#EA3434"/>
<rect x="245.332" y="127.293" width="5.30387" height="5.33334" transform="rotate(-90 245.332 127.293)" fill="#EA3434"/>
<rect x="245.332" y="148.511" width="5.30387" height="5.33334" transform="rotate(-90 245.332 148.511)" fill="#EA3434"/>
<rect x="250.668" y="127.293" width="5.30387" height="5.33334" transform="rotate(-90 250.668 127.293)" fill="#EA3434"/>
<rect x="250.668" y="148.511" width="5.30387" height="5.33334" transform="rotate(-90 250.668 148.511)" fill="#EA3434"/>
<rect x="250.668" y="137.902" width="5.30387" height="5.33334" transform="rotate(-90 250.668 137.902)" fill="#EA3434"/>
<rect x="245.332" y="137.902" width="5.30387" height="5.33334" transform="rotate(-90 245.332 137.902)" fill="#EA3434"/>
<rect x="240" y="127.293" width="5.30387" height="5.33334" transform="rotate(-90 240 127.293)" fill="#EA3434"/>
<rect x="240" y="148.511" width="5.30387" height="5.33334" transform="rotate(-90 240 148.511)" fill="#EA3434"/>
<rect x="266.668" y="137.902" width="5.30387" height="5.33334" transform="rotate(-90 266.668 137.902)" fill="#EA3434"/>
<rect x="240" y="137.902" width="5.30387" height="5.33334" transform="rotate(-90 240 137.902)" fill="#EA3434"/>
<rect x="234.668" y="127.293" width="5.30387" height="5.33334" transform="rotate(-90 234.668 127.293)" fill="#EA3434"/>
<rect x="234.668" y="148.511" width="5.30387" height="5.33334" transform="rotate(-90 234.668 148.511)" fill="#EA3434"/>
<rect x="261.332" y="137.902" width="5.30387" height="5.33334" transform="rotate(-90 261.332 137.902)" fill="#EA3434"/>
<rect x="138.668" y="254.585" width="5.33334" height="5.30387" fill="#A1A1A1"/>
<rect x="117.332" y="254.585" width="5.33334" height="5.30387" fill="#A1A1A1"/>
<rect x="144" y="254.585" width="5.33334" height="5.30387" fill="#A1A1A1"/>
<rect x="122.664" y="254.585" width="5.33334" height="5.30387" fill="#A1A1A1"/>
<rect x="149.332" y="259.892" width="5.33334" height="5.30387" fill="#A1A1A1"/>
<rect x="128" y="259.892" width="5.33334" height="5.30387" fill="#A1A1A1"/>
<rect x="149.332" y="265.195" width="5.33334" height="5.30387" fill="#A1A1A1"/>
<rect x="128" y="265.195" width="5.33334" height="5.30387" fill="#A1A1A1"/>
<rect x="144" y="265.195" width="5.33334" height="5.30387" fill="#A1A1A1"/>
<rect x="122.664" y="265.195" width="5.33334" height="5.30387" fill="#A1A1A1"/>
<rect x="138.668" y="265.195" width="5.33334" height="5.30387" fill="#A1A1A1"/>
<rect x="117.332" y="265.195" width="5.33334" height="5.30387" fill="#A1A1A1"/>
<rect x="149.332" y="254.585" width="5.33334" height="5.30387" fill="#A1A1A1"/>
<rect x="128" y="254.585" width="5.33334" height="5.30387" fill="#A1A1A1"/>
<rect x="138.668" y="259.892" width="5.33334" height="5.30387" fill="#A1A1A1"/>
<rect x="117.332" y="259.892" width="5.33334" height="5.30387" fill="#A1A1A1"/>
<rect x="138.668" y="265.195" width="5.33334" height="5.30387" transform="rotate(180 138.668 265.195)" fill="#008CFF"/>
<rect x="138.668" y="259.892" width="5.33334" height="5.30387" transform="rotate(180 138.668 259.892)" fill="#008CFF"/>
<rect x="138.668" y="270.497" width="5.33334" height="5.30387" transform="rotate(180 138.668 270.497)" fill="#008CFF"/>
<rect x="117.332" width="5.33334" height="5.30387" fill="#A1A1A1"/>
<rect x="138.668" width="5.33334" height="5.30387" fill="#A1A1A1"/>
<rect x="122.664" width="5.33334" height="5.30387" fill="#A1A1A1"/>
<rect x="144" width="5.33334" height="5.30387" fill="#A1A1A1"/>
<rect x="122.664" y="5.30664" width="5.33334" height="5.30387" fill="#A1A1A1"/>
<rect x="144" y="5.30664" width="5.33334" height="5.30387" fill="#A1A1A1"/>
<rect x="128" y="5.30664" width="5.33334" height="5.30387" fill="#A1A1A1"/>
<rect x="149.332" y="5.30664" width="5.33334" height="5.30387" fill="#A1A1A1"/>
<rect x="128" y="10.6094" width="5.33334" height="5.30387" fill="#A1A1A1"/>
<rect x="149.332" y="10.6094" width="5.33334" height="5.30387" fill="#A1A1A1"/>
<rect x="122.664" y="10.6094" width="5.33334" height="5.30387" fill="#A1A1A1"/>
<rect x="144" y="10.6094" width="5.33334" height="5.30387" fill="#A1A1A1"/>
<rect x="117.332" y="10.6094" width="5.33334" height="5.30387" fill="#A1A1A1"/>
<rect x="138.668" y="10.6094" width="5.33334" height="5.30387" fill="#A1A1A1"/>
<rect x="128" width="5.33334" height="5.30387" fill="#A1A1A1"/>
<rect x="149.332" width="5.33334" height="5.30387" fill="#A1A1A1"/>
<rect x="117.332" y="5.30664" width="5.33334" height="5.30387" fill="#A1A1A1"/>
<rect x="138.668" y="5.30664" width="5.33334" height="5.30387" fill="#A1A1A1"/>
<rect x="138.668" y="21.2187" width="5.33334" height="5.30387" transform="rotate(180 138.668 21.2187)" fill="#008CFF"/>
<rect x="128" y="21.2187" width="5.33334" height="5.30387" transform="rotate(180 128 21.2187)" fill="#008CFF"/>
<rect x="149.332" y="21.2187" width="5.33334" height="5.30387" transform="rotate(180 149.332 21.2187)" fill="#008CFF"/>
<rect x="138.668" y="15.912" width="5.33334" height="5.30387" transform="rotate(180 138.668 15.912)" fill="#008CFF"/>
<rect x="138.668" y="10.6094" width="5.33334" height="5.30387" transform="rotate(180 138.668 10.6094)" fill="#008CFF"/>
<rect x="138.668" y="5.30664" width="5.33334" height="5.30387" transform="rotate(180 138.668 5.30664)" fill="#008CFF"/>
<ellipse cx="147.082" cy="261.982" rx="10.0741" ry="10.0184" fill="white"/>
<path d="M59.5858 260.586C58.8047 261.367 58.8047 262.633 59.5858 263.414L72.3137 276.142C73.0948 276.923 74.3611 276.923 75.1421 276.142C75.9232 275.361 75.9232 274.095 75.1421 273.314L63.8284 262L75.1421 250.686C75.9232 249.905 75.9232 248.639 75.1421 247.858C74.3611 247.077 73.0948 247.077 72.3137 247.858L59.5858 260.586ZM112 262V260H61V262V264H112V262Z" fill="white"/>
<path d="M216.414 263.414C217.195 262.633 217.195 261.367 216.414 260.586L203.686 247.858C202.905 247.077 201.639 247.077 200.858 247.858C200.077 248.639 200.077 249.905 200.858 250.686L212.172 262L200.858 273.314C200.077 274.095 200.077 275.361 200.858 276.142C201.639 276.923 202.905 276.923 203.686 276.142L216.414 263.414ZM160 262L160 264L215 264L215 262L215 260L160 260L160 262Z" fill="white"/>
<ellipse cx="125.422" cy="261.982" rx="10.0741" ry="10.0184" fill="black"/>
</svg>
